<?xml version="1.0" encoding="UTF-8" standalone="no"?>
<!DOCTYPE svg PUBLIC "-//W3C//DTD SVG 1.1//EN"
 "http://www.w3.org/Graphics/SVG/1.1/DTD/svg11.dtd">
<!-- Generated by graphviz version 2.40.1 (20161225.0304)
 -->
<!-- Title: /home/pieter/GitHub/Crypto/src/matrix/include/AlmostEqual.hpp Pages: 1 -->
<svg width="442pt" height="162pt"
 viewBox="0.00 0.00 441.50 162.00" xmlns="http://www.w3.org/2000/svg" xmlns:xlink="http://www.w3.org/1999/xlink">
<g id="graph0" class="graph" transform="scale(1 1) rotate(0) translate(4 158)">
<title>/home/pieter/GitHub/Crypto/src/matrix/include/AlmostEqual.hpp</title>
<polygon fill="#ffffff" stroke="transparent" points="-4,4 -4,-158 437.5,-158 437.5,4 -4,4"/>
<!-- Node0 -->
<g id="node1" class="node">
<title>Node0</title>
<g id="a_node1"><a xlink:title=" ">
<polygon fill="#bfbfbf" stroke="#000000" points="27,-112.5 27,-153.5 170,-153.5 170,-112.5 27,-112.5"/>
<text text-anchor="start" x="35" y="-141.5" font-family="Helvetica,sans-Serif" font-size="10.00" fill="#000000">/home/pieter/GitHub</text>
<text text-anchor="start" x="35" y="-130.5" font-family="Helvetica,sans-Serif" font-size="10.00" fill="#000000">/Crypto/src/matrix/include</text>
<text text-anchor="middle" x="98.5" y="-119.5" font-family="Helvetica,sans-Serif" font-size="10.00" fill="#000000">/AlmostEqual.hpp</text>
</a>
</g>
</g>
<!-- Node1 -->
<g id="node2" class="node">
<title>Node1</title>
<g id="a_node2"><a xlink:href="Array_8hpp.html" target="_top" xlink:title=" ">
<polygon fill="#ffffff" stroke="#000000" points="143.5,-56.5 143.5,-75.5 205.5,-75.5 205.5,-56.5 143.5,-56.5"/>
<text text-anchor="middle" x="174.5" y="-63.5" font-family="Helvetica,sans-Serif" font-size="10.00" fill="#000000">Array.hpp</text>
</a>
</g>
</g>
<!-- Node0&#45;&gt;Node1 -->
<g id="edge1" class="edge">
<title>Node0&#45;&gt;Node1</title>
<path fill="none" stroke="#191970" d="M122.1303,-112.168C132.9952,-102.5897 145.6982,-91.3911 155.8721,-82.422"/>
<polygon fill="#191970" stroke="#191970" points="158.219,-85.0189 163.4057,-75.7805 153.5899,-79.768 158.219,-85.0189"/>
</g>
<!-- Node3 -->
<g id="node4" class="node">
<title>Node3</title>
<g id="a_node4"><a xlink:title=" ">
<polygon fill="#ffffff" stroke="#bfbfbf" points="0,-.5 0,-19.5 47,-19.5 47,-.5 0,-.5"/>
<text text-anchor="middle" x="23.5" y="-7.5" font-family="Helvetica,sans-Serif" font-size="10.00" fill="#000000">cmath</text>
</a>
</g>
</g>
<!-- Node0&#45;&gt;Node3 -->
<g id="edge8" class="edge">
<title>Node0&#45;&gt;Node3</title>
<path fill="none" stroke="#191970" d="M85.9467,-112.4126C71.5704,-88.8355 48.2419,-50.5767 34.5349,-28.0973"/>
<polygon fill="#191970" stroke="#191970" points="37.4982,-26.234 29.3038,-19.5182 31.5216,-29.8783 37.4982,-26.234"/>
</g>
<!-- Node2 -->
<g id="node3" class="node">
<title>Node2</title>
<g id="a_node3"><a xlink:title=" ">
<polygon fill="#ffffff" stroke="#bfbfbf" points="65.5,-.5 65.5,-19.5 129.5,-19.5 129.5,-.5 65.5,-.5"/>
<text text-anchor="middle" x="97.5" y="-7.5" font-family="Helvetica,sans-Serif" font-size="10.00" fill="#000000">algorithm</text>
</a>
</g>
</g>
<!-- Node1&#45;&gt;Node2 -->
<g id="edge2" class="edge">
<title>Node1&#45;&gt;Node2</title>
<path fill="none" stroke="#191970" d="M161.0876,-56.2455C149.4943,-47.814 132.5252,-35.4729 119.0322,-25.6598"/>
<polygon fill="#191970" stroke="#191970" points="120.9047,-22.6938 110.7587,-19.6427 116.7874,-28.355 120.9047,-22.6938"/>
</g>
<!-- Node1&#45;&gt;Node3 -->
<g id="edge3" class="edge">
<title>Node1&#45;&gt;Node3</title>
<path fill="none" stroke="#191970" d="M148.5422,-56.3733C123.1585,-46.9594 84.3981,-32.5847 56.7655,-22.3369"/>
<polygon fill="#191970" stroke="#191970" points="57.727,-18.9606 47.1339,-18.7649 55.2929,-25.5238 57.727,-18.9606"/>
</g>
<!-- Node4 -->
<g id="node5" class="node">
<title>Node4</title>
<g id="a_node5"><a xlink:title=" ">
<polygon fill="#ffffff" stroke="#bfbfbf" points="148,-.5 148,-19.5 201,-19.5 201,-.5 148,-.5"/>
<text text-anchor="middle" x="174.5" y="-7.5" font-family="Helvetica,sans-Serif" font-size="10.00" fill="#000000">cstddef</text>
</a>
</g>
</g>
<!-- Node1&#45;&gt;Node4 -->
<g id="edge4" class="edge">
<title>Node1&#45;&gt;Node4</title>
<path fill="none" stroke="#191970" d="M174.5,-56.2455C174.5,-48.9382 174.5,-38.6944 174.5,-29.7046"/>
<polygon fill="#191970" stroke="#191970" points="178.0001,-29.6426 174.5,-19.6427 171.0001,-29.6427 178.0001,-29.6426"/>
</g>
<!-- Node5 -->
<g id="node6" class="node">
<title>Node5</title>
<g id="a_node6"><a xlink:title=" ">
<polygon fill="#ffffff" stroke="#bfbfbf" points="219.5,-.5 219.5,-19.5 275.5,-19.5 275.5,-.5 219.5,-.5"/>
<text text-anchor="middle" x="247.5" y="-7.5" font-family="Helvetica,sans-Serif" font-size="10.00" fill="#000000">numeric</text>
</a>
</g>
</g>
<!-- Node1&#45;&gt;Node5 -->
<g id="edge5" class="edge">
<title>Node1&#45;&gt;Node5</title>
<path fill="none" stroke="#191970" d="M187.2156,-56.2455C198.102,-47.8943 213.9883,-35.7076 226.72,-25.9408"/>
<polygon fill="#191970" stroke="#191970" points="229.1261,-28.5063 234.9301,-19.6427 224.8654,-22.9523 229.1261,-28.5063"/>
</g>
<!-- Node6 -->
<g id="node7" class="node">
<title>Node6</title>
<g id="a_node7"><a xlink:title=" ">
<polygon fill="#ffffff" stroke="#bfbfbf" points="294,-.5 294,-19.5 363,-19.5 363,-.5 294,-.5"/>
<text text-anchor="middle" x="328.5" y="-7.5" font-family="Helvetica,sans-Serif" font-size="10.00" fill="#000000">type_traits</text>
</a>
</g>
</g>
<!-- Node1&#45;&gt;Node6 -->
<g id="edge6" class="edge">
<title>Node1&#45;&gt;Node6</title>
<path fill="none" stroke="#191970" d="M200.9735,-56.3733C226.3597,-47.1419 264.8645,-33.1402 292.922,-22.9375"/>
<polygon fill="#191970" stroke="#191970" points="294.1701,-26.2079 302.3719,-19.5011 291.7778,-19.6293 294.1701,-26.2079"/>
</g>
<!-- Node7 -->
<g id="node8" class="node">
<title>Node7</title>
<g id="a_node8"><a xlink:title=" ">
<polygon fill="#ffffff" stroke="#bfbfbf" points="381.5,-.5 381.5,-19.5 433.5,-19.5 433.5,-.5 381.5,-.5"/>
<text text-anchor="middle" x="407.5" y="-7.5" font-family="Helvetica,sans-Serif" font-size="10.00" fill="#000000">cassert</text>
</a>
</g>
</g>
<!-- Node1&#45;&gt;Node7 -->
<g id="edge7" class="edge">
<title>Node1&#45;&gt;Node7</title>
<path fill="none" stroke="#191970" d="M205.825,-59.2304C243.0477,-51.0754 307.2456,-36.6626 371.3047,-20.2239"/>
<polygon fill="#191970" stroke="#191970" points="372.3585,-23.5667 381.1653,-17.6768 370.6077,-16.7891 372.3585,-23.5667"/>
</g>
</g>
</svg>
