<?xml version="1.0" encoding="UTF-8" standalone="no"?>
<!DOCTYPE svg PUBLIC "-//W3C//DTD SVG 1.1//EN"
 "http://www.w3.org/Graphics/SVG/1.1/DTD/svg11.dtd">
<!-- Generated by graphviz version 2.40.1 (20161225.0304)
 -->
<!-- Title: /home/pieter/GitHub/EAGLE&#45;ZYBO&#45;Linux/src/grid&#45;finder/include/AngleTracker.hpp Pages: 1 -->
<svg width="312pt" height="317pt"
 viewBox="0.00 0.00 311.50 317.00" xmlns="http://www.w3.org/2000/svg" xmlns:xlink="http://www.w3.org/1999/xlink">
<g id="graph0" class="graph" transform="scale(1 1) rotate(0) translate(4 313)">
<title>/home/pieter/GitHub/EAGLE&#45;ZYBO&#45;Linux/src/grid&#45;finder/include/AngleTracker.hpp</title>
<polygon fill="#ffffff" stroke="transparent" points="-4,4 -4,-313 307.5,-313 307.5,4 -4,4"/>
<!-- Node8 -->
<g id="node1" class="node">
<title>Node8</title>
<g id="a_node1"><a xlink:title=" ">
<polygon fill="#bfbfbf" stroke="#000000" points="93,-267.5 93,-308.5 287,-308.5 287,-267.5 93,-267.5"/>
<text text-anchor="start" x="101" y="-296.5" font-family="Helvetica,sans-Serif" font-size="10.00" fill="#000000">/home/pieter/GitHub</text>
<text text-anchor="start" x="101" y="-285.5" font-family="Helvetica,sans-Serif" font-size="10.00" fill="#000000">/EAGLE&#45;ZYBO&#45;Linux/src</text>
<text text-anchor="middle" x="190" y="-274.5" font-family="Helvetica,sans-Serif" font-size="10.00" fill="#000000">/grid&#45;finder/include/AngleTracker.hpp</text>
</a>
</g>
</g>
<!-- Node9 -->
<g id="node2" class="node">
<title>Node9</title>
<g id="a_node2"><a xlink:href="LocationFinder_8hpp.html" target="_top" xlink:title=" ">
<polygon fill="#ffffff" stroke="#000000" points="79.5,-178.5 79.5,-230.5 208.5,-230.5 208.5,-178.5 79.5,-178.5"/>
<text text-anchor="start" x="87.5" y="-218.5" font-family="Helvetica,sans-Serif" font-size="10.00" fill="#000000">/home/pieter/GitHub</text>
<text text-anchor="start" x="87.5" y="-207.5" font-family="Helvetica,sans-Serif" font-size="10.00" fill="#000000">/EAGLE&#45;ZYBO&#45;Linux/src</text>
<text text-anchor="start" x="87.5" y="-196.5" font-family="Helvetica,sans-Serif" font-size="10.00" fill="#000000">/location&#45;finder/include</text>
<text text-anchor="middle" x="144" y="-185.5" font-family="Helvetica,sans-Serif" font-size="10.00" fill="#000000">/LocationFinder.hpp</text>
</a>
</g>
</g>
<!-- Node8&#45;&gt;Node9 -->
<g id="edge1" class="edge">
<title>Node8&#45;&gt;Node9</title>
<path fill="none" stroke="#191970" d="M173.8006,-258.5945C168.7729,-249.4682 163.2689,-239.4772 158.3743,-230.5925"/>
<polygon fill="#191970" stroke="#191970" points="170.7383,-260.2895 178.6292,-267.3595 176.8695,-256.9119 170.7383,-260.2895"/>
</g>
<!-- Node11 -->
<g id="node4" class="node">
<title>Node11</title>
<g id="a_node4"><a xlink:href="Grid-Finder_8module_8hpp.html" target="_top" xlink:title=" ">
<polygon fill="#ffffff" stroke="#000000" points="170.5,-89.5 170.5,-141.5 303.5,-141.5 303.5,-89.5 170.5,-89.5"/>
<text text-anchor="start" x="178.5" y="-129.5" font-family="Helvetica,sans-Serif" font-size="10.00" fill="#000000">/home/pieter/GitHub</text>
<text text-anchor="start" x="178.5" y="-118.5" font-family="Helvetica,sans-Serif" font-size="10.00" fill="#000000">/EAGLE&#45;ZYBO&#45;Linux/src</text>
<text text-anchor="start" x="178.5" y="-107.5" font-family="Helvetica,sans-Serif" font-size="10.00" fill="#000000">/py&#45;grid&#45;finder/include</text>
<text text-anchor="middle" x="237" y="-96.5" font-family="Helvetica,sans-Serif" font-size="10.00" fill="#000000">/Grid&#45;Finder.module.hpp</text>
</a>
</g>
</g>
<!-- Node8&#45;&gt;Node11 -->
<g id="edge5" class="edge">
<title>Node8&#45;&gt;Node11</title>
<path fill="none" stroke="#191970" d="M205.9752,-258.2034C210.0642,-249.6141 214.1157,-240.1008 217,-231 226.4684,-201.1248 231.7827,-165.3963 234.5144,-141.668"/>
<polygon fill="#191970" stroke="#191970" points="202.704,-256.9223 201.4028,-267.437 208.977,-260.0287 202.704,-256.9223"/>
</g>
<!-- Node10 -->
<g id="node3" class="node">
<title>Node10</title>
<g id="a_node3"><a xlink:href="LocationFinder_8cpp.html" target="_top" xlink:title=" ">
<polygon fill="#ffffff" stroke="#000000" points="0,-89.5 0,-141.5 152,-141.5 152,-89.5 0,-89.5"/>
<text text-anchor="start" x="8" y="-129.5" font-family="Helvetica,sans-Serif" font-size="10.00" fill="#000000">/home/pieter/GitHub</text>
<text text-anchor="start" x="8" y="-118.5" font-family="Helvetica,sans-Serif" font-size="10.00" fill="#000000">/EAGLE&#45;ZYBO&#45;Linux/src</text>
<text text-anchor="start" x="8" y="-107.5" font-family="Helvetica,sans-Serif" font-size="10.00" fill="#000000">/location&#45;finder/src/Location</text>
<text text-anchor="middle" x="76" y="-96.5" font-family="Helvetica,sans-Serif" font-size="10.00" fill="#000000">Finder.cpp</text>
</a>
</g>
</g>
<!-- Node9&#45;&gt;Node10 -->
<g id="edge2" class="edge">
<title>Node9&#45;&gt;Node10</title>
<path fill="none" stroke="#191970" d="M117.7479,-170.1407C110.4862,-160.6363 102.7263,-150.4801 95.8913,-141.5341"/>
<polygon fill="#191970" stroke="#191970" points="115.1132,-172.4572 123.9655,-178.2784 120.6755,-168.2074 115.1132,-172.4572"/>
</g>
<!-- Node9&#45;&gt;Node11 -->
<g id="edge3" class="edge">
<title>Node9&#45;&gt;Node11</title>
<path fill="none" stroke="#191970" d="M178.7032,-171.2894C188.9754,-161.459 200.0701,-150.8415 209.7958,-141.5341"/>
<polygon fill="#191970" stroke="#191970" points="176.2049,-168.8357 171.4001,-178.2784 181.0447,-173.8931 176.2049,-168.8357"/>
</g>
<!-- Node12 -->
<g id="node5" class="node">
<title>Node12</title>
<g id="a_node5"><a xlink:href="Grid-Finder_8module_8cpp.html" target="_top" xlink:title=" ">
<polygon fill="#ffffff" stroke="#000000" points="172.5,-.5 172.5,-52.5 301.5,-52.5 301.5,-.5 172.5,-.5"/>
<text text-anchor="start" x="180.5" y="-40.5" font-family="Helvetica,sans-Serif" font-size="10.00" fill="#000000">/home/pieter/GitHub</text>
<text text-anchor="start" x="180.5" y="-29.5" font-family="Helvetica,sans-Serif" font-size="10.00" fill="#000000">/EAGLE&#45;ZYBO&#45;Linux/src</text>
<text text-anchor="start" x="180.5" y="-18.5" font-family="Helvetica,sans-Serif" font-size="10.00" fill="#000000">/py&#45;grid&#45;finder/src/Grid</text>
<text text-anchor="middle" x="237" y="-7.5" font-family="Helvetica,sans-Serif" font-size="10.00" fill="#000000">&#45;Finder.module.cpp</text>
</a>
</g>
</g>
<!-- Node11&#45;&gt;Node12 -->
<g id="edge4" class="edge">
<title>Node11&#45;&gt;Node12</title>
<path fill="none" stroke="#191970" d="M237,-79.1155C237,-70.2061 237,-60.8475 237,-52.5341"/>
<polygon fill="#191970" stroke="#191970" points="233.5001,-79.2784 237,-89.2784 240.5001,-79.2785 233.5001,-79.2784"/>
</g>
</g>
</svg>
