<?xml version="1.0" encoding="UTF-8" standalone="no"?>
<!DOCTYPE svg PUBLIC "-//W3C//DTD SVG 1.1//EN"
 "http://www.w3.org/Graphics/SVG/1.1/DTD/svg11.dtd">
<!-- Generated by graphviz version 2.40.1 (20161225.0304)
 -->
<!-- Title: /home/pieter/GitHub/EAGLE&#45;ZYBO&#45;Linux/src/grid&#45;finder/include/Angle.hpp Pages: 1 -->
<svg width="467pt" height="284pt"
 viewBox="0.00 0.00 466.63 284.00" xmlns="http://www.w3.org/2000/svg" xmlns:xlink="http://www.w3.org/1999/xlink">
<g id="graph0" class="graph" transform="scale(1 1) rotate(0) translate(4 280)">
<title>/home/pieter/GitHub/EAGLE&#45;ZYBO&#45;Linux/src/grid&#45;finder/include/Angle.hpp</title>
<polygon fill="#ffffff" stroke="transparent" points="-4,4 -4,-280 462.631,-280 462.631,4 -4,4"/>
<!-- Node6 -->
<g id="node1" class="node">
<title>Node6</title>
<g id="a_node1"><a xlink:title=" ">
<polygon fill="#bfbfbf" stroke="#000000" points="155,-234.5 155,-275.5 315,-275.5 315,-234.5 155,-234.5"/>
<text text-anchor="start" x="163" y="-263.5" font-family="Helvetica,sans-Serif" font-size="10.00" fill="#000000">/home/pieter/GitHub</text>
<text text-anchor="start" x="163" y="-252.5" font-family="Helvetica,sans-Serif" font-size="10.00" fill="#000000">/EAGLE&#45;ZYBO&#45;Linux/src</text>
<text text-anchor="middle" x="235" y="-241.5" font-family="Helvetica,sans-Serif" font-size="10.00" fill="#000000">/grid&#45;finder/include/Angle.hpp</text>
</a>
</g>
</g>
<!-- Node7 -->
<g id="node2" class="node">
<title>Node7</title>
<g id="a_node2"><a xlink:href="Bresenham_8hpp.html" target="_top" xlink:title=" ">
<polygon fill="#ffffff" stroke="#000000" points="0,-78.5 0,-119.5 188,-119.5 188,-78.5 0,-78.5"/>
<text text-anchor="start" x="8" y="-107.5" font-family="Helvetica,sans-Serif" font-size="10.00" fill="#000000">/home/pieter/GitHub</text>
<text text-anchor="start" x="8" y="-96.5" font-family="Helvetica,sans-Serif" font-size="10.00" fill="#000000">/EAGLE&#45;ZYBO&#45;Linux/src</text>
<text text-anchor="middle" x="94" y="-85.5" font-family="Helvetica,sans-Serif" font-size="10.00" fill="#000000">/grid&#45;finder/include/Bresenham.hpp</text>
</a>
</g>
</g>
<!-- Node6&#45;&gt;Node7 -->
<g id="edge1" class="edge">
<title>Node6&#45;&gt;Node7</title>
<path fill="none" stroke="#191970" d="M209.5646,-226.8587C181.7116,-196.0427 137.7021,-147.3513 112.8012,-119.8013"/>
<polygon fill="#191970" stroke="#191970" points="206.9743,-229.2125 216.2763,-234.2844 212.1674,-224.5187 206.9743,-229.2125"/>
</g>
<!-- Node8 -->
<g id="node3" class="node">
<title>Node8</title>
<g id="a_node3"><a xlink:href="GridFinder_8hpp.html" target="_top" xlink:title=" ">
<polygon fill="#ffffff" stroke="#000000" points="188.5,-.5 188.5,-41.5 369.5,-41.5 369.5,-.5 188.5,-.5"/>
<text text-anchor="start" x="196.5" y="-29.5" font-family="Helvetica,sans-Serif" font-size="10.00" fill="#000000">/home/pieter/GitHub</text>
<text text-anchor="start" x="196.5" y="-18.5" font-family="Helvetica,sans-Serif" font-size="10.00" fill="#000000">/EAGLE&#45;ZYBO&#45;Linux/src</text>
<text text-anchor="middle" x="279" y="-7.5" font-family="Helvetica,sans-Serif" font-size="10.00" fill="#000000">/grid&#45;finder/include/GridFinder.hpp</text>
</a>
</g>
</g>
<!-- Node6&#45;&gt;Node8 -->
<g id="edge3" class="edge">
<title>Node6&#45;&gt;Node8</title>
<path fill="none" stroke="#191970" d="M229.1751,-224.4912C223.5951,-188.4252 218.2523,-127.1038 235,-78 239.6005,-64.5116 248.829,-51.733 257.6514,-41.7069"/>
<polygon fill="#191970" stroke="#191970" points="225.7285,-225.1025 230.8134,-234.3974 232.6347,-223.9603 225.7285,-225.1025"/>
</g>
<!-- Node9 -->
<g id="node4" class="node">
<title>Node9</title>
<g id="a_node4"><a xlink:href="HelperStructs_8hpp.html" target="_top" xlink:title=" ">
<polygon fill="#ffffff" stroke="#000000" points="244,-78.5 244,-119.5 442,-119.5 442,-78.5 244,-78.5"/>
<text text-anchor="start" x="252" y="-107.5" font-family="Helvetica,sans-Serif" font-size="10.00" fill="#000000">/home/pieter/GitHub</text>
<text text-anchor="start" x="252" y="-96.5" font-family="Helvetica,sans-Serif" font-size="10.00" fill="#000000">/EAGLE&#45;ZYBO&#45;Linux/src</text>
<text text-anchor="middle" x="343" y="-85.5" font-family="Helvetica,sans-Serif" font-size="10.00" fill="#000000">/grid&#45;finder/include/HelperStructs.hpp</text>
</a>
</g>
</g>
<!-- Node6&#45;&gt;Node9 -->
<g id="edge4" class="edge">
<title>Node6&#45;&gt;Node9</title>
<path fill="none" stroke="#191970" d="M242.3124,-224.2817C248.2556,-203.6291 258.124,-176.5341 273,-156 283.2059,-141.9123 297.7217,-129.325 310.891,-119.5856"/>
<polygon fill="#191970" stroke="#191970" points="238.8797,-223.5668 239.631,-234.135 245.6341,-225.4049 238.8797,-223.5668"/>
</g>
<!-- Node10 -->
<g id="node5" class="node">
<title>Node10</title>
<g id="a_node5"><a xlink:href="Line_8hpp.html" target="_top" xlink:title=" ">
<polygon fill="#ffffff" stroke="#000000" points="282,-156.5 282,-197.5 434,-197.5 434,-156.5 282,-156.5"/>
<text text-anchor="start" x="290" y="-185.5" font-family="Helvetica,sans-Serif" font-size="10.00" fill="#000000">/home/pieter/GitHub</text>
<text text-anchor="start" x="290" y="-174.5" font-family="Helvetica,sans-Serif" font-size="10.00" fill="#000000">/EAGLE&#45;ZYBO&#45;Linux/src</text>
<text text-anchor="middle" x="358" y="-163.5" font-family="Helvetica,sans-Serif" font-size="10.00" fill="#000000">/grid&#45;finder/include/Line.hpp</text>
</a>
</g>
</g>
<!-- Node6&#45;&gt;Node10 -->
<g id="edge6" class="edge">
<title>Node6&#45;&gt;Node10</title>
<path fill="none" stroke="#191970" d="M276.3236,-228.7948C292.3975,-218.6016 310.5395,-207.0969 325.6355,-197.5239"/>
<polygon fill="#191970" stroke="#191970" points="274.2095,-225.991 267.6388,-234.3022 277.9583,-231.9025 274.2095,-225.991"/>
</g>
<!-- Node7&#45;&gt;Node8 -->
<g id="edge2" class="edge">
<title>Node7&#45;&gt;Node8</title>
<path fill="none" stroke="#191970" d="M152.4849,-74.3415C177.5385,-63.7784 206.46,-51.5844 230.3216,-41.5239"/>
<polygon fill="#191970" stroke="#191970" points="150.9456,-71.1921 143.0909,-78.3022 153.6652,-77.6422 150.9456,-71.1921"/>
</g>
<!-- Node9&#45;&gt;Node8 -->
<g id="edge5" class="edge">
<title>Node9&#45;&gt;Node8</title>
<path fill="none" stroke="#191970" d="M319.2794,-70.0905C311.5437,-60.6626 303.1148,-50.3899 295.9762,-41.6898"/>
<polygon fill="#191970" stroke="#191970" points="316.8002,-72.5868 325.8492,-78.0974 322.2117,-68.1466 316.8002,-72.5868"/>
</g>
<!-- Node10&#45;&gt;Node8 -->
<g id="edge7" class="edge">
<title>Node10&#45;&gt;Node8</title>
<path fill="none" stroke="#191970" d="M420.2813,-151.0877C432.5685,-142.9984 443.8582,-132.7536 451,-120 460.1203,-103.7131 461.9278,-93.1337 451,-78 440.5488,-63.5264 405.5553,-50.6825 369.8359,-40.8682"/>
<polygon fill="#191970" stroke="#191970" points="418.3702,-148.1537 411.6542,-156.348 422.0144,-154.1303 418.3702,-148.1537"/>
</g>
<!-- Node10&#45;&gt;Node9 -->
<g id="edge8" class="edge">
<title>Node10&#45;&gt;Node9</title>
<path fill="none" stroke="#191970" d="M352.0536,-146.0789C350.3496,-137.2178 348.5336,-127.7747 346.9788,-119.6898"/>
<polygon fill="#191970" stroke="#191970" points="348.6547,-146.9384 353.9803,-156.0974 355.5287,-145.6164 348.6547,-146.9384"/>
</g>
</g>
</svg>
