<?xml version="1.0" encoding="UTF-8" standalone="no"?>
<!DOCTYPE svg PUBLIC "-//W3C//DTD SVG 1.1//EN"
 "http://www.w3.org/Graphics/SVG/1.1/DTD/svg11.dtd">
<!-- Generated by graphviz version 2.40.1 (20161225.0304)
 -->
<!-- Title: /home/pieter/GitHub/EAGLE&#45;ZYBO&#45;Linux/src/grid&#45;finder/include/Angle.hpp Pages: 1 -->
<svg width="734pt" height="484pt"
 viewBox="0.00 0.00 734.09 484.00" xmlns="http://www.w3.org/2000/svg" xmlns:xlink="http://www.w3.org/1999/xlink">
<g id="graph0" class="graph" transform="scale(1 1) rotate(0) translate(4 480)">
<title>/home/pieter/GitHub/EAGLE&#45;ZYBO&#45;Linux/src/grid&#45;finder/include/Angle.hpp</title>
<polygon fill="#ffffff" stroke="transparent" points="-4,4 -4,-480 730.0894,-480 730.0894,4 -4,4"/>
<!-- Node6 -->
<g id="node1" class="node">
<title>Node6</title>
<g id="a_node1"><a xlink:title=" ">
<polygon fill="#bfbfbf" stroke="#000000" points="225.0894,-434.5 225.0894,-475.5 385.0894,-475.5 385.0894,-434.5 225.0894,-434.5"/>
<text text-anchor="start" x="233.0894" y="-463.5" font-family="Helvetica,sans-Serif" font-size="10.00" fill="#000000">/home/pieter/GitHub</text>
<text text-anchor="start" x="233.0894" y="-452.5" font-family="Helvetica,sans-Serif" font-size="10.00" fill="#000000">/EAGLE&#45;ZYBO&#45;Linux/src</text>
<text text-anchor="middle" x="305.0894" y="-441.5" font-family="Helvetica,sans-Serif" font-size="10.00" fill="#000000">/grid&#45;finder/include/Angle.hpp</text>
</a>
</g>
</g>
<!-- Node7 -->
<g id="node2" class="node">
<title>Node7</title>
<g id="a_node2"><a xlink:href="AngleTracker_8hpp.html" target="_top" xlink:title=" ">
<polygon fill="#ffffff" stroke="#000000" points="532.0894,-273 532.0894,-314 726.0894,-314 726.0894,-273 532.0894,-273"/>
<text text-anchor="start" x="540.0894" y="-302" font-family="Helvetica,sans-Serif" font-size="10.00" fill="#000000">/home/pieter/GitHub</text>
<text text-anchor="start" x="540.0894" y="-291" font-family="Helvetica,sans-Serif" font-size="10.00" fill="#000000">/EAGLE&#45;ZYBO&#45;Linux/src</text>
<text text-anchor="middle" x="629.0894" y="-280" font-family="Helvetica,sans-Serif" font-size="10.00" fill="#000000">/grid&#45;finder/include/AngleTracker.hpp</text>
</a>
</g>
</g>
<!-- Node6&#45;&gt;Node7 -->
<g id="edge1" class="edge">
<title>Node6&#45;&gt;Node7</title>
<path fill="none" stroke="#191970" d="M355.5472,-429.849C419.4748,-397.9838 528.4427,-343.6681 587.7162,-314.1228"/>
<polygon fill="#191970" stroke="#191970" points="353.8418,-426.7883 346.4534,-434.3819 356.9646,-433.0532 353.8418,-426.7883"/>
</g>
<!-- Node12 -->
<g id="node7" class="node">
<title>Node12</title>
<g id="a_node7"><a xlink:href="Bresenham_8hpp.html" target="_top" xlink:title=" ">
<polygon fill="#ffffff" stroke="#000000" points="23.0894,-356.5 23.0894,-397.5 211.0894,-397.5 211.0894,-356.5 23.0894,-356.5"/>
<text text-anchor="start" x="31.0894" y="-385.5" font-family="Helvetica,sans-Serif" font-size="10.00" fill="#000000">/home/pieter/GitHub</text>
<text text-anchor="start" x="31.0894" y="-374.5" font-family="Helvetica,sans-Serif" font-size="10.00" fill="#000000">/EAGLE&#45;ZYBO&#45;Linux/src</text>
<text text-anchor="middle" x="117.0894" y="-363.5" font-family="Helvetica,sans-Serif" font-size="10.00" fill="#000000">/grid&#45;finder/include/Bresenham.hpp</text>
</a>
</g>
</g>
<!-- Node6&#45;&gt;Node12 -->
<g id="edge7" class="edge">
<title>Node6&#45;&gt;Node12</title>
<path fill="none" stroke="#191970" d="M245.6561,-430.3415C220.1962,-419.7784 190.8058,-407.5844 166.5572,-397.5239"/>
<polygon fill="#191970" stroke="#191970" points="244.6246,-433.7028 255.2025,-434.3022 247.3072,-427.2372 244.6246,-433.7028"/>
</g>
<!-- Node13 -->
<g id="node8" class="node">
<title>Node13</title>
<g id="a_node8"><a xlink:href="GridFinder_8hpp.html" target="_top" xlink:title=" ">
<polygon fill="#ffffff" stroke="#000000" points="79.5894,-184 79.5894,-225 260.5894,-225 260.5894,-184 79.5894,-184"/>
<text text-anchor="start" x="87.5894" y="-213" font-family="Helvetica,sans-Serif" font-size="10.00" fill="#000000">/home/pieter/GitHub</text>
<text text-anchor="start" x="87.5894" y="-202" font-family="Helvetica,sans-Serif" font-size="10.00" fill="#000000">/EAGLE&#45;ZYBO&#45;Linux/src</text>
<text text-anchor="middle" x="170.0894" y="-191" font-family="Helvetica,sans-Serif" font-size="10.00" fill="#000000">/grid&#45;finder/include/GridFinder.hpp</text>
</a>
</g>
</g>
<!-- Node6&#45;&gt;Node13 -->
<g id="edge11" class="edge">
<title>Node6&#45;&gt;Node13</title>
<path fill="none" stroke="#191970" d="M214.7235,-449.589C138.9555,-442.9415 39.2169,-428.5268 14.0894,-398 -37.33,-335.5316 70.2569,-260.7682 131.5143,-225.2306"/>
<polygon fill="#191970" stroke="#191970" points="214.516,-453.0838 224.7751,-450.4381 215.1053,-446.1087 214.516,-453.0838"/>
</g>
<!-- Node14 -->
<g id="node9" class="node">
<title>Node14</title>
<g id="a_node9"><a xlink:href="HelperStructs_8hpp.html" target="_top" xlink:title=" ">
<polygon fill="#ffffff" stroke="#000000" points="278.0894,-273 278.0894,-314 476.0894,-314 476.0894,-273 278.0894,-273"/>
<text text-anchor="start" x="286.0894" y="-302" font-family="Helvetica,sans-Serif" font-size="10.00" fill="#000000">/home/pieter/GitHub</text>
<text text-anchor="start" x="286.0894" y="-291" font-family="Helvetica,sans-Serif" font-size="10.00" fill="#000000">/EAGLE&#45;ZYBO&#45;Linux/src</text>
<text text-anchor="middle" x="377.0894" y="-280" font-family="Helvetica,sans-Serif" font-size="10.00" fill="#000000">/grid&#45;finder/include/HelperStructs.hpp</text>
</a>
</g>
</g>
<!-- Node6&#45;&gt;Node14 -->
<g id="edge12" class="edge">
<title>Node6&#45;&gt;Node14</title>
<path fill="none" stroke="#191970" d="M361.0361,-428.9002C372.6805,-420.7246 383.4274,-410.4888 390.0894,-398 404.2012,-371.5458 394.8971,-336.0992 386.3872,-314.0385"/>
<polygon fill="#191970" stroke="#191970" points="358.9163,-426.1038 352.4441,-434.492 362.7346,-431.9707 358.9163,-426.1038"/>
</g>
<!-- Node15 -->
<g id="node10" class="node">
<title>Node15</title>
<g id="a_node10"><a xlink:href="Line_8hpp.html" target="_top" xlink:title=" ">
<polygon fill="#ffffff" stroke="#000000" points="229.0894,-356.5 229.0894,-397.5 381.0894,-397.5 381.0894,-356.5 229.0894,-356.5"/>
<text text-anchor="start" x="237.0894" y="-385.5" font-family="Helvetica,sans-Serif" font-size="10.00" fill="#000000">/home/pieter/GitHub</text>
<text text-anchor="start" x="237.0894" y="-374.5" font-family="Helvetica,sans-Serif" font-size="10.00" fill="#000000">/EAGLE&#45;ZYBO&#45;Linux/src</text>
<text text-anchor="middle" x="305.0894" y="-363.5" font-family="Helvetica,sans-Serif" font-size="10.00" fill="#000000">/grid&#45;finder/include/Line.hpp</text>
</a>
</g>
</g>
<!-- Node6&#45;&gt;Node15 -->
<g id="edge15" class="edge">
<title>Node6&#45;&gt;Node15</title>
<path fill="none" stroke="#191970" d="M305.0894,-424.0789C305.0894,-415.2178 305.0894,-405.7747 305.0894,-397.6898"/>
<polygon fill="#191970" stroke="#191970" points="301.5895,-424.0974 305.0894,-434.0974 308.5895,-424.0975 301.5895,-424.0974"/>
</g>
<!-- Node8 -->
<g id="node3" class="node">
<title>Node8</title>
<g id="a_node3"><a xlink:href="LocationFinder_8hpp.html" target="_top" xlink:title=" ">
<polygon fill="#ffffff" stroke="#000000" points="329.5894,-178.5 329.5894,-230.5 458.5894,-230.5 458.5894,-178.5 329.5894,-178.5"/>
<text text-anchor="start" x="337.5894" y="-218.5" font-family="Helvetica,sans-Serif" font-size="10.00" fill="#000000">/home/pieter/GitHub</text>
<text text-anchor="start" x="337.5894" y="-207.5" font-family="Helvetica,sans-Serif" font-size="10.00" fill="#000000">/EAGLE&#45;ZYBO&#45;Linux/src</text>
<text text-anchor="start" x="337.5894" y="-196.5" font-family="Helvetica,sans-Serif" font-size="10.00" fill="#000000">/location&#45;finder/include</text>
<text text-anchor="middle" x="394.0894" y="-185.5" font-family="Helvetica,sans-Serif" font-size="10.00" fill="#000000">/LocationFinder.hpp</text>
</a>
</g>
</g>
<!-- Node7&#45;&gt;Node8 -->
<g id="edge2" class="edge">
<title>Node7&#45;&gt;Node8</title>
<path fill="none" stroke="#191970" d="M565.3258,-269.3512C532.302,-256.8443 492.0606,-241.604 458.888,-229.0407"/>
<polygon fill="#191970" stroke="#191970" points="564.2892,-272.7012 574.8806,-272.9699 566.7684,-266.1549 564.2892,-272.7012"/>
</g>
<!-- Node10 -->
<g id="node5" class="node">
<title>Node10</title>
<g id="a_node5"><a xlink:href="Grid-Finder_8module_8hpp.html" target="_top" xlink:title=" ">
<polygon fill="#ffffff" stroke="#000000" points="390.5894,-89.5 390.5894,-141.5 523.5894,-141.5 523.5894,-89.5 390.5894,-89.5"/>
<text text-anchor="start" x="398.5894" y="-129.5" font-family="Helvetica,sans-Serif" font-size="10.00" fill="#000000">/home/pieter/GitHub</text>
<text text-anchor="start" x="398.5894" y="-118.5" font-family="Helvetica,sans-Serif" font-size="10.00" fill="#000000">/EAGLE&#45;ZYBO&#45;Linux/src</text>
<text text-anchor="start" x="398.5894" y="-107.5" font-family="Helvetica,sans-Serif" font-size="10.00" fill="#000000">/py&#45;grid&#45;finder/include</text>
<text text-anchor="middle" x="457.0894" y="-96.5" font-family="Helvetica,sans-Serif" font-size="10.00" fill="#000000">/Grid&#45;Finder.module.hpp</text>
</a>
</g>
</g>
<!-- Node7&#45;&gt;Node10 -->
<g id="edge6" class="edge">
<title>Node7&#45;&gt;Node10</title>
<path fill="none" stroke="#191970" d="M601.8908,-265.0766C579.4565,-241.6616 546.7715,-207.6152 518.0894,-178 506.4863,-166.0194 493.5921,-152.7951 482.6586,-141.608"/>
<polygon fill="#191970" stroke="#191970" points="599.6406,-267.7873 609.0853,-272.588 604.6958,-262.9453 599.6406,-267.7873"/>
</g>
<!-- Node9 -->
<g id="node4" class="node">
<title>Node9</title>
<g id="a_node4"><a xlink:href="LocationFinder_8cpp.html" target="_top" xlink:title=" ">
<polygon fill="#ffffff" stroke="#000000" points="214.0894,-89.5 214.0894,-141.5 366.0894,-141.5 366.0894,-89.5 214.0894,-89.5"/>
<text text-anchor="start" x="222.0894" y="-129.5" font-family="Helvetica,sans-Serif" font-size="10.00" fill="#000000">/home/pieter/GitHub</text>
<text text-anchor="start" x="222.0894" y="-118.5" font-family="Helvetica,sans-Serif" font-size="10.00" fill="#000000">/EAGLE&#45;ZYBO&#45;Linux/src</text>
<text text-anchor="start" x="222.0894" y="-107.5" font-family="Helvetica,sans-Serif" font-size="10.00" fill="#000000">/location&#45;finder/src/Location</text>
<text text-anchor="middle" x="290.0894" y="-96.5" font-family="Helvetica,sans-Serif" font-size="10.00" fill="#000000">Finder.cpp</text>
</a>
</g>
</g>
<!-- Node8&#45;&gt;Node9 -->
<g id="edge3" class="edge">
<title>Node8&#45;&gt;Node9</title>
<path fill="none" stroke="#191970" d="M355.6159,-171.5755C344.0354,-161.6653 331.493,-150.9319 320.5114,-141.5341"/>
<polygon fill="#191970" stroke="#191970" points="353.5751,-174.4357 363.4485,-178.2784 358.1264,-169.1173 353.5751,-174.4357"/>
</g>
<!-- Node8&#45;&gt;Node10 -->
<g id="edge4" class="edge">
<title>Node8&#45;&gt;Node10</title>
<path fill="none" stroke="#191970" d="M418.6152,-169.8525C425.2842,-160.4313 432.3922,-150.3897 438.6608,-141.5341"/>
<polygon fill="#191970" stroke="#191970" points="415.5717,-168.0942 412.6508,-178.2784 421.2852,-172.1386 415.5717,-168.0942"/>
</g>
<!-- Node11 -->
<g id="node6" class="node">
<title>Node11</title>
<g id="a_node6"><a xlink:href="Grid-Finder_8module_8cpp.html" target="_top" xlink:title=" ">
<polygon fill="#ffffff" stroke="#000000" points="392.5894,-.5 392.5894,-52.5 521.5894,-52.5 521.5894,-.5 392.5894,-.5"/>
<text text-anchor="start" x="400.5894" y="-40.5" font-family="Helvetica,sans-Serif" font-size="10.00" fill="#000000">/home/pieter/GitHub</text>
<text text-anchor="start" x="400.5894" y="-29.5" font-family="Helvetica,sans-Serif" font-size="10.00" fill="#000000">/EAGLE&#45;ZYBO&#45;Linux/src</text>
<text text-anchor="start" x="400.5894" y="-18.5" font-family="Helvetica,sans-Serif" font-size="10.00" fill="#000000">/py&#45;grid&#45;finder/src/Grid</text>
<text text-anchor="middle" x="457.0894" y="-7.5" font-family="Helvetica,sans-Serif" font-size="10.00" fill="#000000">&#45;Finder.module.cpp</text>
</a>
</g>
</g>
<!-- Node10&#45;&gt;Node11 -->
<g id="edge5" class="edge">
<title>Node10&#45;&gt;Node11</title>
<path fill="none" stroke="#191970" d="M457.0894,-79.1155C457.0894,-70.2061 457.0894,-60.8475 457.0894,-52.5341"/>
<polygon fill="#191970" stroke="#191970" points="453.5895,-79.2784 457.0894,-89.2784 460.5895,-79.2785 453.5895,-79.2784"/>
</g>
<!-- Node12&#45;&gt;Node13 -->
<g id="edge8" class="edge">
<title>Node12&#45;&gt;Node13</title>
<path fill="none" stroke="#191970" d="M98.2988,-347.3762C86.3763,-324.5533 75.3803,-292.6668 88.0894,-267 96.8266,-249.3549 113.195,-235.334 129.0235,-225.0808"/>
<polygon fill="#191970" stroke="#191970" points="95.3104,-349.2044 103.2199,-356.2536 101.4327,-345.8106 95.3104,-349.2044"/>
</g>
<!-- Node13&#45;&gt;Node9 -->
<g id="edge9" class="edge">
<title>Node13&#45;&gt;Node9</title>
<path fill="none" stroke="#191970" d="M206.162,-177.7462C221.5159,-166.3587 239.3699,-153.117 254.6536,-141.7816"/>
<polygon fill="#191970" stroke="#191970" points="203.8685,-175.0896 197.9215,-183.8579 208.0385,-180.712 203.8685,-175.0896"/>
</g>
<!-- Node13&#45;&gt;Node10 -->
<g id="edge10" class="edge">
<title>Node13&#45;&gt;Node10</title>
<path fill="none" stroke="#191970" d="M248.5473,-180.914C286.7702,-169.3383 333.3785,-155.0973 375.0894,-142 380.0853,-140.4313 385.2479,-138.7962 390.4381,-137.1422"/>
<polygon fill="#191970" stroke="#191970" points="247.0685,-177.7047 238.5107,-183.9507 249.0958,-184.4047 247.0685,-177.7047"/>
</g>
<!-- Node14&#45;&gt;Node8 -->
<g id="edge14" class="edge">
<title>Node14&#45;&gt;Node8</title>
<path fill="none" stroke="#191970" d="M382.9369,-262.8868C384.9324,-252.4396 387.1447,-240.8575 389.0694,-230.7816"/>
<polygon fill="#191970" stroke="#191970" points="379.4707,-262.3788 381.0323,-272.8579 386.3464,-263.6922 379.4707,-262.3788"/>
</g>
<!-- Node14&#45;&gt;Node13 -->
<g id="edge13" class="edge">
<title>Node14&#45;&gt;Node13</title>
<path fill="none" stroke="#191970" d="M320.0768,-268.9873C288.0021,-255.1968 248.4089,-238.1736 217.9573,-225.0808"/>
<polygon fill="#191970" stroke="#191970" points="318.7702,-272.2353 329.3395,-272.9699 321.5352,-265.8045 318.7702,-272.2353"/>
</g>
<!-- Node15&#45;&gt;Node10 -->
<g id="edge19" class="edge">
<title>Node15&#45;&gt;Node10</title>
<path fill="none" stroke="#191970" d="M391.3008,-359.8571C431.5651,-349.9256 473.2365,-336.1864 485.0894,-320 524.2566,-266.513 492.1925,-183.535 471.3942,-141.6223"/>
<polygon fill="#191970" stroke="#191970" points="390.2949,-356.4991 381.3873,-362.2354 391.9279,-363.3059 390.2949,-356.4991"/>
</g>
<!-- Node15&#45;&gt;Node13 -->
<g id="edge16" class="edge">
<title>Node15&#45;&gt;Node13</title>
<path fill="none" stroke="#191970" d="M219.1504,-355.1588C174.7238,-343.0046 128.4403,-328.6299 122.0894,-320 100.3381,-290.443 128.224,-249.5748 149.6899,-225.2109"/>
<polygon fill="#191970" stroke="#191970" points="218.316,-358.5589 228.8833,-357.7953 220.1462,-351.8024 218.316,-358.5589"/>
</g>
<!-- Node15&#45;&gt;Node14 -->
<g id="edge17" class="edge">
<title>Node15&#45;&gt;Node14</title>
<path fill="none" stroke="#191970" d="M329.6883,-348.4722C339.3913,-337.2193 350.3266,-324.5375 359.2469,-314.1924"/>
<polygon fill="#191970" stroke="#191970" points="326.7668,-346.5006 322.8872,-356.3595 332.0682,-351.0718 326.7668,-346.5006"/>
</g>
<!-- Node16 -->
<g id="node11" class="node">
<title>Node16</title>
<g id="a_node11"><a xlink:href="LocationTracker_8hpp.html" target="_top" xlink:title=" ">
<polygon fill="#ffffff" stroke="#000000" points="130.5894,-267.5 130.5894,-319.5 259.5894,-319.5 259.5894,-267.5 130.5894,-267.5"/>
<text text-anchor="start" x="138.5894" y="-307.5" font-family="Helvetica,sans-Serif" font-size="10.00" fill="#000000">/home/pieter/GitHub</text>
<text text-anchor="start" x="138.5894" y="-296.5" font-family="Helvetica,sans-Serif" font-size="10.00" fill="#000000">/EAGLE&#45;ZYBO&#45;Linux/src</text>
<text text-anchor="start" x="138.5894" y="-285.5" font-family="Helvetica,sans-Serif" font-size="10.00" fill="#000000">/location&#45;finder/include</text>
<text text-anchor="middle" x="195.0894" y="-274.5" font-family="Helvetica,sans-Serif" font-size="10.00" fill="#000000">/LocationTracker.hpp</text>
</a>
</g>
</g>
<!-- Node15&#45;&gt;Node16 -->
<g id="edge18" class="edge">
<title>Node15&#45;&gt;Node16</title>
<path fill="none" stroke="#191970" d="M269.7009,-350.1369C256.8097,-340.3513 242.2645,-329.3102 229.4628,-319.5925"/>
<polygon fill="#191970" stroke="#191970" points="267.8171,-353.1011 277.8984,-356.3595 272.0495,-347.5255 267.8171,-353.1011"/>
</g>
</g>
</svg>
