<?xml version="1.0" encoding="UTF-8" standalone="no"?>
<!DOCTYPE svg PUBLIC "-//W3C//DTD SVG 1.1//EN"
 "http://www.w3.org/Graphics/SVG/1.1/DTD/svg11.dtd">
<!-- Generated by graphviz version 2.40.1 (20161225.0304)
 -->
<!-- Title: /home/pieter/GitHub/EAGLE&#45;ZYBO&#45;Linux/src/grid&#45;finder/include/Angle.hpp Pages: 1 -->
<svg width="747pt" height="473pt"
 viewBox="0.00 0.00 746.50 473.00" xmlns="http://www.w3.org/2000/svg" xmlns:xlink="http://www.w3.org/1999/xlink">
<g id="graph0" class="graph" transform="scale(1 1) rotate(0) translate(4 469)">
<title>/home/pieter/GitHub/EAGLE&#45;ZYBO&#45;Linux/src/grid&#45;finder/include/Angle.hpp</title>
<polygon fill="#ffffff" stroke="transparent" points="-4,4 -4,-469 742.5,-469 742.5,4 -4,4"/>
<!-- Node6 -->
<g id="node1" class="node">
<title>Node6</title>
<g id="a_node1"><a xlink:title=" ">
<polygon fill="#bfbfbf" stroke="#000000" points="264,-423.5 264,-464.5 424,-464.5 424,-423.5 264,-423.5"/>
<text text-anchor="start" x="272" y="-452.5" font-family="Helvetica,sans-Serif" font-size="10.00" fill="#000000">/home/pieter/GitHub</text>
<text text-anchor="start" x="272" y="-441.5" font-family="Helvetica,sans-Serif" font-size="10.00" fill="#000000">/EAGLE&#45;ZYBO&#45;Linux/src</text>
<text text-anchor="middle" x="344" y="-430.5" font-family="Helvetica,sans-Serif" font-size="10.00" fill="#000000">/grid&#45;finder/include/Angle.hpp</text>
</a>
</g>
</g>
<!-- Node7 -->
<g id="node2" class="node">
<title>Node7</title>
<g id="a_node2"><a xlink:href="AngleTracker_8hpp.html" target="_top" xlink:title=" ">
<polygon fill="#ffffff" stroke="#000000" points="0,-267.5 0,-308.5 194,-308.5 194,-267.5 0,-267.5"/>
<text text-anchor="start" x="8" y="-296.5" font-family="Helvetica,sans-Serif" font-size="10.00" fill="#000000">/home/pieter/GitHub</text>
<text text-anchor="start" x="8" y="-285.5" font-family="Helvetica,sans-Serif" font-size="10.00" fill="#000000">/EAGLE&#45;ZYBO&#45;Linux/src</text>
<text text-anchor="middle" x="97" y="-274.5" font-family="Helvetica,sans-Serif" font-size="10.00" fill="#000000">/grid&#45;finder/include/AngleTracker.hpp</text>
</a>
</g>
</g>
<!-- Node6&#45;&gt;Node7 -->
<g id="edge1" class="edge">
<title>Node6&#45;&gt;Node7</title>
<path fill="none" stroke="#191970" d="M273.4435,-419.6063C251.699,-410.7432 228.1842,-399.7276 208,-387 172.3974,-364.5499 137.1319,-330.5529 116.2079,-308.8148"/>
<polygon fill="#191970" stroke="#191970" points="272.3787,-422.9496 282.9641,-423.3982 274.9689,-416.4464 272.3787,-422.9496"/>
</g>
<!-- Node10 -->
<g id="node5" class="node">
<title>Node10</title>
<g id="a_node5"><a xlink:href="Bresenham_8hpp.html" target="_top" xlink:title=" ">
<polygon fill="#ffffff" stroke="#000000" points="250,-345.5 250,-386.5 438,-386.5 438,-345.5 250,-345.5"/>
<text text-anchor="start" x="258" y="-374.5" font-family="Helvetica,sans-Serif" font-size="10.00" fill="#000000">/home/pieter/GitHub</text>
<text text-anchor="start" x="258" y="-363.5" font-family="Helvetica,sans-Serif" font-size="10.00" fill="#000000">/EAGLE&#45;ZYBO&#45;Linux/src</text>
<text text-anchor="middle" x="344" y="-352.5" font-family="Helvetica,sans-Serif" font-size="10.00" fill="#000000">/grid&#45;finder/include/Bresenham.hpp</text>
</a>
</g>
</g>
<!-- Node6&#45;&gt;Node10 -->
<g id="edge4" class="edge">
<title>Node6&#45;&gt;Node10</title>
<path fill="none" stroke="#191970" d="M344,-413.0789C344,-404.2178 344,-394.7747 344,-386.6898"/>
<polygon fill="#191970" stroke="#191970" points="340.5001,-413.0974 344,-423.0974 347.5001,-413.0975 340.5001,-413.0974"/>
</g>
<!-- Node11 -->
<g id="node6" class="node">
<title>Node11</title>
<g id="a_node6"><a xlink:href="GridFinder_8hpp.html" target="_top" xlink:title=" ">
<polygon fill="#ffffff" stroke="#000000" points="410.5,-184 410.5,-225 591.5,-225 591.5,-184 410.5,-184"/>
<text text-anchor="start" x="418.5" y="-213" font-family="Helvetica,sans-Serif" font-size="10.00" fill="#000000">/home/pieter/GitHub</text>
<text text-anchor="start" x="418.5" y="-202" font-family="Helvetica,sans-Serif" font-size="10.00" fill="#000000">/EAGLE&#45;ZYBO&#45;Linux/src</text>
<text text-anchor="middle" x="501" y="-191" font-family="Helvetica,sans-Serif" font-size="10.00" fill="#000000">/grid&#45;finder/include/GridFinder.hpp</text>
</a>
</g>
</g>
<!-- Node6&#45;&gt;Node11 -->
<g id="edge8" class="edge">
<title>Node6&#45;&gt;Node11</title>
<path fill="none" stroke="#191970" d="M273.8304,-418.4995C260.7349,-410.4671 248.7477,-400.1426 241,-387 231.5203,-370.9196 231.4399,-361.0328 241,-345 278.9706,-281.3213 356.9138,-244.7656 417.6067,-225.002"/>
<polygon fill="#191970" stroke="#191970" points="272.1378,-421.5633 282.5626,-423.4536 275.592,-415.4748 272.1378,-421.5633"/>
</g>
<!-- Node13 -->
<g id="node8" class="node">
<title>Node13</title>
<g id="a_node8"><a xlink:href="HelperStructs_8hpp.html" target="_top" xlink:title=" ">
<polygon fill="#ffffff" stroke="#000000" points="533,-267.5 533,-308.5 731,-308.5 731,-267.5 533,-267.5"/>
<text text-anchor="start" x="541" y="-296.5" font-family="Helvetica,sans-Serif" font-size="10.00" fill="#000000">/home/pieter/GitHub</text>
<text text-anchor="start" x="541" y="-285.5" font-family="Helvetica,sans-Serif" font-size="10.00" fill="#000000">/EAGLE&#45;ZYBO&#45;Linux/src</text>
<text text-anchor="middle" x="632" y="-274.5" font-family="Helvetica,sans-Serif" font-size="10.00" fill="#000000">/grid&#45;finder/include/HelperStructs.hpp</text>
</a>
</g>
</g>
<!-- Node6&#45;&gt;Node13 -->
<g id="edge9" class="edge">
<title>Node6&#45;&gt;Node13</title>
<path fill="none" stroke="#191970" d="M434.3217,-436.172C503.8842,-428.199 592.2231,-413.1907 617,-387 636.7118,-366.1634 637.2452,-331.0599 635.1336,-308.7363"/>
<polygon fill="#191970" stroke="#191970" points="433.756,-432.7133 424.2044,-437.2978 434.5302,-439.6703 433.756,-432.7133"/>
</g>
<!-- Node15 -->
<g id="node10" class="node">
<title>Node15</title>
<g id="a_node10"><a xlink:href="Line_8hpp.html" target="_top" xlink:title=" ">
<polygon fill="#ffffff" stroke="#000000" points="456,-345.5 456,-386.5 608,-386.5 608,-345.5 456,-345.5"/>
<text text-anchor="start" x="464" y="-374.5" font-family="Helvetica,sans-Serif" font-size="10.00" fill="#000000">/home/pieter/GitHub</text>
<text text-anchor="start" x="464" y="-363.5" font-family="Helvetica,sans-Serif" font-size="10.00" fill="#000000">/EAGLE&#45;ZYBO&#45;Linux/src</text>
<text text-anchor="middle" x="532" y="-352.5" font-family="Helvetica,sans-Serif" font-size="10.00" fill="#000000">/grid&#45;finder/include/Line.hpp</text>
</a>
</g>
</g>
<!-- Node6&#45;&gt;Node15 -->
<g id="edge13" class="edge">
<title>Node6&#45;&gt;Node15</title>
<path fill="none" stroke="#191970" d="M403.4333,-419.3415C428.8932,-408.7784 458.2837,-396.5844 482.5322,-386.5239"/>
<polygon fill="#191970" stroke="#191970" points="401.7823,-416.2372 393.887,-423.3022 404.4648,-422.7028 401.7823,-416.2372"/>
</g>
<!-- Node8 -->
<g id="node3" class="node">
<title>Node8</title>
<g id="a_node3"><a xlink:href="Grid-Finder_8module_8hpp.html" target="_top" xlink:title=" ">
<polygon fill="#ffffff" stroke="#000000" points="315.5,-89.5 315.5,-141.5 448.5,-141.5 448.5,-89.5 315.5,-89.5"/>
<text text-anchor="start" x="323.5" y="-129.5" font-family="Helvetica,sans-Serif" font-size="10.00" fill="#000000">/home/pieter/GitHub</text>
<text text-anchor="start" x="323.5" y="-118.5" font-family="Helvetica,sans-Serif" font-size="10.00" fill="#000000">/EAGLE&#45;ZYBO&#45;Linux/src</text>
<text text-anchor="start" x="323.5" y="-107.5" font-family="Helvetica,sans-Serif" font-size="10.00" fill="#000000">/py&#45;grid&#45;finder/include</text>
<text text-anchor="middle" x="382" y="-96.5" font-family="Helvetica,sans-Serif" font-size="10.00" fill="#000000">/Grid&#45;Finder.module.hpp</text>
</a>
</g>
</g>
<!-- Node7&#45;&gt;Node8 -->
<g id="edge2" class="edge">
<title>Node7&#45;&gt;Node8</title>
<path fill="none" stroke="#191970" d="M139.7021,-262.154C193.436,-229.6308 285.1897,-174.0957 339.0434,-141.5001"/>
<polygon fill="#191970" stroke="#191970" points="137.8373,-259.1915 131.0946,-267.3638 141.4619,-265.18 137.8373,-259.1915"/>
</g>
<!-- Node9 -->
<g id="node4" class="node">
<title>Node9</title>
<g id="a_node4"><a xlink:href="Grid-Finder_8module_8cpp.html" target="_top" xlink:title=" ">
<polygon fill="#ffffff" stroke="#000000" points="317.5,-.5 317.5,-52.5 446.5,-52.5 446.5,-.5 317.5,-.5"/>
<text text-anchor="start" x="325.5" y="-40.5" font-family="Helvetica,sans-Serif" font-size="10.00" fill="#000000">/home/pieter/GitHub</text>
<text text-anchor="start" x="325.5" y="-29.5" font-family="Helvetica,sans-Serif" font-size="10.00" fill="#000000">/EAGLE&#45;ZYBO&#45;Linux/src</text>
<text text-anchor="start" x="325.5" y="-18.5" font-family="Helvetica,sans-Serif" font-size="10.00" fill="#000000">/py&#45;grid&#45;finder/src/Grid</text>
<text text-anchor="middle" x="382" y="-7.5" font-family="Helvetica,sans-Serif" font-size="10.00" fill="#000000">&#45;Finder.module.cpp</text>
</a>
</g>
</g>
<!-- Node8&#45;&gt;Node9 -->
<g id="edge3" class="edge">
<title>Node8&#45;&gt;Node9</title>
<path fill="none" stroke="#191970" d="M382,-79.1155C382,-70.2061 382,-60.8475 382,-52.5341"/>
<polygon fill="#191970" stroke="#191970" points="378.5001,-79.2784 382,-89.2784 385.5001,-79.2785 378.5001,-79.2784"/>
</g>
<!-- Node10&#45;&gt;Node11 -->
<g id="edge5" class="edge">
<title>Node10&#45;&gt;Node11</title>
<path fill="none" stroke="#191970" d="M371.3285,-337.8882C402.58,-305.741 453.0071,-253.8685 480.874,-225.2029"/>
<polygon fill="#191970" stroke="#191970" points="368.6645,-335.6074 364.2036,-345.2173 373.6837,-340.4867 368.6645,-335.6074"/>
</g>
<!-- Node11&#45;&gt;Node8 -->
<g id="edge7" class="edge">
<title>Node11&#45;&gt;Node8</title>
<path fill="none" stroke="#191970" d="M465.228,-177.7462C450.002,-166.3587 432.2969,-153.117 417.1406,-141.7816"/>
<polygon fill="#191970" stroke="#191970" points="463.2956,-180.6715 473.3999,-183.8579 467.4881,-175.0658 463.2956,-180.6715"/>
</g>
<!-- Node12 -->
<g id="node7" class="node">
<title>Node12</title>
<g id="a_node7"><a xlink:href="LocationFinder_8cpp.html" target="_top" xlink:title=" ">
<polygon fill="#ffffff" stroke="#000000" points="532,-89.5 532,-141.5 684,-141.5 684,-89.5 532,-89.5"/>
<text text-anchor="start" x="540" y="-129.5" font-family="Helvetica,sans-Serif" font-size="10.00" fill="#000000">/home/pieter/GitHub</text>
<text text-anchor="start" x="540" y="-118.5" font-family="Helvetica,sans-Serif" font-size="10.00" fill="#000000">/EAGLE&#45;ZYBO&#45;Linux/src</text>
<text text-anchor="start" x="540" y="-107.5" font-family="Helvetica,sans-Serif" font-size="10.00" fill="#000000">/location&#45;finder/src/Location</text>
<text text-anchor="middle" x="608" y="-96.5" font-family="Helvetica,sans-Serif" font-size="10.00" fill="#000000">Finder.cpp</text>
</a>
</g>
</g>
<!-- Node11&#45;&gt;Node12 -->
<g id="edge6" class="edge">
<title>Node11&#45;&gt;Node12</title>
<path fill="none" stroke="#191970" d="M533.5456,-177.4294C547.1499,-166.1136 562.9012,-153.012 576.403,-141.7816"/>
<polygon fill="#191970" stroke="#191970" points="531.2668,-174.7723 525.8169,-183.8579 535.7432,-180.1539 531.2668,-174.7723"/>
</g>
<!-- Node13&#45;&gt;Node11 -->
<g id="edge10" class="edge">
<title>Node13&#45;&gt;Node11</title>
<path fill="none" stroke="#191970" d="M591.0623,-261.9061C572.5065,-250.0786 550.8754,-236.2908 533.4635,-225.1924"/>
<polygon fill="#191970" stroke="#191970" points="589.3041,-264.9359 599.618,-267.3595 593.0666,-259.0331 589.3041,-264.9359"/>
</g>
<!-- Node14 -->
<g id="node9" class="node">
<title>Node14</title>
<g id="a_node9"><a xlink:href="LocationFinder_8hpp.html" target="_top" xlink:title=" ">
<polygon fill="#ffffff" stroke="#000000" points="609.5,-178.5 609.5,-230.5 738.5,-230.5 738.5,-178.5 609.5,-178.5"/>
<text text-anchor="start" x="617.5" y="-218.5" font-family="Helvetica,sans-Serif" font-size="10.00" fill="#000000">/home/pieter/GitHub</text>
<text text-anchor="start" x="617.5" y="-207.5" font-family="Helvetica,sans-Serif" font-size="10.00" fill="#000000">/EAGLE&#45;ZYBO&#45;Linux/src</text>
<text text-anchor="start" x="617.5" y="-196.5" font-family="Helvetica,sans-Serif" font-size="10.00" fill="#000000">/location&#45;finder/include</text>
<text text-anchor="middle" x="674" y="-185.5" font-family="Helvetica,sans-Serif" font-size="10.00" fill="#000000">/LocationFinder.hpp</text>
</a>
</g>
</g>
<!-- Node13&#45;&gt;Node14 -->
<g id="edge11" class="edge">
<title>Node13&#45;&gt;Node14</title>
<path fill="none" stroke="#191970" d="M646.9344,-258.309C651.4859,-249.2602 656.4532,-239.3847 660.8756,-230.5925"/>
<polygon fill="#191970" stroke="#191970" points="643.7489,-256.8532 642.382,-267.3595 650.0023,-259.9987 643.7489,-256.8532"/>
</g>
<!-- Node14&#45;&gt;Node12 -->
<g id="edge12" class="edge">
<title>Node14&#45;&gt;Node12</title>
<path fill="none" stroke="#191970" d="M648.5201,-170.1407C641.4719,-160.6363 633.9403,-150.4801 627.3062,-141.5341"/>
<polygon fill="#191970" stroke="#191970" points="645.7868,-172.3309 654.5548,-178.2784 651.4095,-168.1612 645.7868,-172.3309"/>
</g>
<!-- Node15&#45;&gt;Node8 -->
<g id="edge16" class="edge">
<title>Node15&#45;&gt;Node8</title>
<path fill="none" stroke="#191970" d="M495.7043,-338.7521C465.5974,-314.0638 424.2479,-274.9072 402,-231 387.6507,-202.6812 383.3629,-165.9864 382.2025,-141.6397"/>
<polygon fill="#191970" stroke="#191970" points="493.8872,-341.7823 503.8726,-345.3238 498.2751,-336.3283 493.8872,-341.7823"/>
</g>
<!-- Node15&#45;&gt;Node11 -->
<g id="edge14" class="edge">
<title>Node15&#45;&gt;Node11</title>
<path fill="none" stroke="#191970" d="M526.0475,-334.9892C519.849,-302.697 510.3138,-253.0218 504.9739,-225.2029"/>
<polygon fill="#191970" stroke="#191970" points="522.6883,-336.0564 528.0108,-345.2173 529.5628,-334.7368 522.6883,-336.0564"/>
</g>
<!-- Node15&#45;&gt;Node13 -->
<g id="edge15" class="edge">
<title>Node15&#45;&gt;Node13</title>
<path fill="none" stroke="#191970" d="M566.6892,-338.9424C579.4822,-328.9639 593.7551,-317.831 605.6874,-308.5239"/>
<polygon fill="#191970" stroke="#191970" points="564.268,-336.3921 558.5356,-345.3022 568.5733,-341.9116 564.268,-336.3921"/>
</g>
</g>
</svg>
