<?xml version="1.0" encoding="UTF-8" standalone="no"?>
<!DOCTYPE svg PUBLIC "-//W3C//DTD SVG 1.1//EN"
 "http://www.w3.org/Graphics/SVG/1.1/DTD/svg11.dtd">
<!-- Generated by graphviz version 2.40.1 (20161225.0304)
 -->
<!-- Title: /home/pieter/GitHub/EAGLE&#45;ZYBO&#45;Linux/src/grid&#45;finder/include/Angle.hpp Pages: 1 -->
<svg width="467pt" height="373pt"
 viewBox="0.00 0.00 466.63 373.00" xmlns="http://www.w3.org/2000/svg" xmlns:xlink="http://www.w3.org/1999/xlink">
<g id="graph0" class="graph" transform="scale(1 1) rotate(0) translate(4 369)">
<title>/home/pieter/GitHub/EAGLE&#45;ZYBO&#45;Linux/src/grid&#45;finder/include/Angle.hpp</title>
<polygon fill="#ffffff" stroke="transparent" points="-4,4 -4,-369 462.631,-369 462.631,4 -4,4"/>
<!-- Node6 -->
<g id="node1" class="node">
<title>Node6</title>
<g id="a_node1"><a xlink:title=" ">
<polygon fill="#bfbfbf" stroke="#000000" points="155,-323.5 155,-364.5 315,-364.5 315,-323.5 155,-323.5"/>
<text text-anchor="start" x="163" y="-352.5" font-family="Helvetica,sans-Serif" font-size="10.00" fill="#000000">/home/pieter/GitHub</text>
<text text-anchor="start" x="163" y="-341.5" font-family="Helvetica,sans-Serif" font-size="10.00" fill="#000000">/EAGLE&#45;ZYBO&#45;Linux/src</text>
<text text-anchor="middle" x="235" y="-330.5" font-family="Helvetica,sans-Serif" font-size="10.00" fill="#000000">/grid&#45;finder/include/Angle.hpp</text>
</a>
</g>
</g>
<!-- Node7 -->
<g id="node2" class="node">
<title>Node7</title>
<g id="a_node2"><a xlink:href="Bresenham_8hpp.html" target="_top" xlink:title=" ">
<polygon fill="#ffffff" stroke="#000000" points="0,-167.5 0,-208.5 188,-208.5 188,-167.5 0,-167.5"/>
<text text-anchor="start" x="8" y="-196.5" font-family="Helvetica,sans-Serif" font-size="10.00" fill="#000000">/home/pieter/GitHub</text>
<text text-anchor="start" x="8" y="-185.5" font-family="Helvetica,sans-Serif" font-size="10.00" fill="#000000">/EAGLE&#45;ZYBO&#45;Linux/src</text>
<text text-anchor="middle" x="94" y="-174.5" font-family="Helvetica,sans-Serif" font-size="10.00" fill="#000000">/grid&#45;finder/include/Bresenham.hpp</text>
</a>
</g>
</g>
<!-- Node6&#45;&gt;Node7 -->
<g id="edge1" class="edge">
<title>Node6&#45;&gt;Node7</title>
<path fill="none" stroke="#191970" d="M209.5646,-315.8587C181.7116,-285.0427 137.7021,-236.3513 112.8012,-208.8013"/>
<polygon fill="#191970" stroke="#191970" points="206.9743,-318.2125 216.2763,-323.2844 212.1674,-313.5187 206.9743,-318.2125"/>
</g>
<!-- Node8 -->
<g id="node3" class="node">
<title>Node8</title>
<g id="a_node3"><a xlink:href="GridFinder_8hpp.html" target="_top" xlink:title=" ">
<polygon fill="#ffffff" stroke="#000000" points="188.5,-89.5 188.5,-130.5 369.5,-130.5 369.5,-89.5 188.5,-89.5"/>
<text text-anchor="start" x="196.5" y="-118.5" font-family="Helvetica,sans-Serif" font-size="10.00" fill="#000000">/home/pieter/GitHub</text>
<text text-anchor="start" x="196.5" y="-107.5" font-family="Helvetica,sans-Serif" font-size="10.00" fill="#000000">/EAGLE&#45;ZYBO&#45;Linux/src</text>
<text text-anchor="middle" x="279" y="-96.5" font-family="Helvetica,sans-Serif" font-size="10.00" fill="#000000">/grid&#45;finder/include/GridFinder.hpp</text>
</a>
</g>
</g>
<!-- Node6&#45;&gt;Node8 -->
<g id="edge5" class="edge">
<title>Node6&#45;&gt;Node8</title>
<path fill="none" stroke="#191970" d="M229.1751,-313.4912C223.5951,-277.4252 218.2523,-216.1038 235,-167 239.6005,-153.5116 248.829,-140.733 257.6514,-130.7069"/>
<polygon fill="#191970" stroke="#191970" points="225.7285,-314.1025 230.8134,-323.3974 232.6347,-312.9603 225.7285,-314.1025"/>
</g>
<!-- Node11 -->
<g id="node6" class="node">
<title>Node11</title>
<g id="a_node6"><a xlink:href="HelperStructs_8hpp.html" target="_top" xlink:title=" ">
<polygon fill="#ffffff" stroke="#000000" points="244,-167.5 244,-208.5 442,-208.5 442,-167.5 244,-167.5"/>
<text text-anchor="start" x="252" y="-196.5" font-family="Helvetica,sans-Serif" font-size="10.00" fill="#000000">/home/pieter/GitHub</text>
<text text-anchor="start" x="252" y="-185.5" font-family="Helvetica,sans-Serif" font-size="10.00" fill="#000000">/EAGLE&#45;ZYBO&#45;Linux/src</text>
<text text-anchor="middle" x="343" y="-174.5" font-family="Helvetica,sans-Serif" font-size="10.00" fill="#000000">/grid&#45;finder/include/HelperStructs.hpp</text>
</a>
</g>
</g>
<!-- Node6&#45;&gt;Node11 -->
<g id="edge6" class="edge">
<title>Node6&#45;&gt;Node11</title>
<path fill="none" stroke="#191970" d="M242.3124,-313.2817C248.2556,-292.6291 258.124,-265.5341 273,-245 283.2059,-230.9123 297.7217,-218.325 310.891,-208.5856"/>
<polygon fill="#191970" stroke="#191970" points="238.8797,-312.5668 239.631,-323.135 245.6341,-314.4049 238.8797,-312.5668"/>
</g>
<!-- Node12 -->
<g id="node7" class="node">
<title>Node12</title>
<g id="a_node7"><a xlink:href="Line_8hpp.html" target="_top" xlink:title=" ">
<polygon fill="#ffffff" stroke="#000000" points="282,-245.5 282,-286.5 434,-286.5 434,-245.5 282,-245.5"/>
<text text-anchor="start" x="290" y="-274.5" font-family="Helvetica,sans-Serif" font-size="10.00" fill="#000000">/home/pieter/GitHub</text>
<text text-anchor="start" x="290" y="-263.5" font-family="Helvetica,sans-Serif" font-size="10.00" fill="#000000">/EAGLE&#45;ZYBO&#45;Linux/src</text>
<text text-anchor="middle" x="358" y="-252.5" font-family="Helvetica,sans-Serif" font-size="10.00" fill="#000000">/grid&#45;finder/include/Line.hpp</text>
</a>
</g>
</g>
<!-- Node6&#45;&gt;Node12 -->
<g id="edge8" class="edge">
<title>Node6&#45;&gt;Node12</title>
<path fill="none" stroke="#191970" d="M276.3236,-317.7948C292.3975,-307.6016 310.5395,-296.0969 325.6355,-286.5239"/>
<polygon fill="#191970" stroke="#191970" points="274.2095,-314.991 267.6388,-323.3022 277.9583,-320.9025 274.2095,-314.991"/>
</g>
<!-- Node7&#45;&gt;Node8 -->
<g id="edge2" class="edge">
<title>Node7&#45;&gt;Node8</title>
<path fill="none" stroke="#191970" d="M152.4849,-163.3415C177.5385,-152.7784 206.46,-140.5844 230.3216,-130.5239"/>
<polygon fill="#191970" stroke="#191970" points="150.9456,-160.1921 143.0909,-167.3022 153.6652,-166.6422 150.9456,-160.1921"/>
</g>
<!-- Node9 -->
<g id="node4" class="node">
<title>Node9</title>
<g id="a_node4"><a xlink:href="LocationFinder_8cpp.html" target="_top" xlink:title=" ">
<polygon fill="#ffffff" stroke="#000000" points="117,-.5 117,-52.5 269,-52.5 269,-.5 117,-.5"/>
<text text-anchor="start" x="125" y="-40.5" font-family="Helvetica,sans-Serif" font-size="10.00" fill="#000000">/home/pieter/GitHub</text>
<text text-anchor="start" x="125" y="-29.5" font-family="Helvetica,sans-Serif" font-size="10.00" fill="#000000">/EAGLE&#45;ZYBO&#45;Linux/src</text>
<text text-anchor="start" x="125" y="-18.5" font-family="Helvetica,sans-Serif" font-size="10.00" fill="#000000">/location&#45;finder/src/Location</text>
<text text-anchor="middle" x="193" y="-7.5" font-family="Helvetica,sans-Serif" font-size="10.00" fill="#000000">Finder.cpp</text>
</a>
</g>
</g>
<!-- Node8&#45;&gt;Node9 -->
<g id="edge3" class="edge">
<title>Node8&#45;&gt;Node9</title>
<path fill="none" stroke="#191970" d="M250.4656,-82.2951C240.6053,-72.7214 229.5964,-62.0325 219.8737,-52.5925"/>
<polygon fill="#191970" stroke="#191970" points="248.1288,-84.9046 257.7416,-89.3595 253.0051,-79.8824 248.1288,-84.9046"/>
</g>
<!-- Node10 -->
<g id="node5" class="node">
<title>Node10</title>
<g id="a_node5"><a xlink:href="Mask_8hpp.html" target="_top" xlink:title=" ">
<polygon fill="#ffffff" stroke="#000000" points="287.5,-6 287.5,-47 444.5,-47 444.5,-6 287.5,-6"/>
<text text-anchor="start" x="295.5" y="-35" font-family="Helvetica,sans-Serif" font-size="10.00" fill="#000000">/home/pieter/GitHub</text>
<text text-anchor="start" x="295.5" y="-24" font-family="Helvetica,sans-Serif" font-size="10.00" fill="#000000">/EAGLE&#45;ZYBO&#45;Linux/src</text>
<text text-anchor="middle" x="366" y="-13" font-family="Helvetica,sans-Serif" font-size="10.00" fill="#000000">/location&#45;finder/src/Mask.hpp</text>
</a>
</g>
</g>
<!-- Node8&#45;&gt;Node10 -->
<g id="edge4" class="edge">
<title>Node8&#45;&gt;Node10</title>
<path fill="none" stroke="#191970" d="M308.0424,-82.126C319.9341,-70.7127 333.4522,-57.7384 344.4403,-47.1924"/>
<polygon fill="#191970" stroke="#191970" points="305.2968,-79.9099 300.5056,-89.3595 310.1439,-84.9602 305.2968,-79.9099"/>
</g>
<!-- Node11&#45;&gt;Node8 -->
<g id="edge7" class="edge">
<title>Node11&#45;&gt;Node8</title>
<path fill="none" stroke="#191970" d="M319.2794,-159.0905C311.5437,-149.6626 303.1148,-139.3899 295.9762,-130.6898"/>
<polygon fill="#191970" stroke="#191970" points="316.8002,-161.5868 325.8492,-167.0974 322.2117,-157.1466 316.8002,-161.5868"/>
</g>
<!-- Node12&#45;&gt;Node8 -->
<g id="edge9" class="edge">
<title>Node12&#45;&gt;Node8</title>
<path fill="none" stroke="#191970" d="M420.2813,-240.0877C432.5685,-231.9984 443.8582,-221.7536 451,-209 460.1203,-192.7131 461.9278,-182.1337 451,-167 440.5488,-152.5264 405.5553,-139.6825 369.8359,-129.8682"/>
<polygon fill="#191970" stroke="#191970" points="418.3702,-237.1537 411.6542,-245.348 422.0144,-243.1303 418.3702,-237.1537"/>
</g>
<!-- Node12&#45;&gt;Node11 -->
<g id="edge10" class="edge">
<title>Node12&#45;&gt;Node11</title>
<path fill="none" stroke="#191970" d="M352.0536,-235.0789C350.3496,-226.2178 348.5336,-216.7747 346.9788,-208.6898"/>
<polygon fill="#191970" stroke="#191970" points="348.6547,-235.9384 353.9803,-245.0974 355.5287,-234.6164 348.6547,-235.9384"/>
</g>
</g>
</svg>
