<?xml version="1.0" encoding="UTF-8" standalone="no"?>
<!DOCTYPE svg PUBLIC "-//W3C//DTD SVG 1.1//EN"
 "http://www.w3.org/Graphics/SVG/1.1/DTD/svg11.dtd">
<!-- Generated by graphviz version 2.40.1 (20161225.0304)
 -->
<!-- Title: /home/pieter/GitHub/Crypto/src/grid&#45;finder/include/Angle.hpp Pages: 1 -->
<svg width="359pt" height="284pt"
 viewBox="0.00 0.00 358.67 284.00" xmlns="http://www.w3.org/2000/svg" xmlns:xlink="http://www.w3.org/1999/xlink">
<g id="graph0" class="graph" transform="scale(1 1) rotate(0) translate(4 280)">
<title>/home/pieter/GitHub/Crypto/src/grid&#45;finder/include/Angle.hpp</title>
<polygon fill="#ffffff" stroke="transparent" points="-4,4 -4,-280 354.6705,-280 354.6705,4 -4,4"/>
<!-- Node6 -->
<g id="node1" class="node">
<title>Node6</title>
<g id="a_node1"><a xlink:title=" ">
<polygon fill="#bfbfbf" stroke="#000000" points="120,-234.5 120,-275.5 242,-275.5 242,-234.5 120,-234.5"/>
<text text-anchor="start" x="128" y="-263.5" font-family="Helvetica,sans-Serif" font-size="10.00" fill="#000000">/home/pieter/GitHub</text>
<text text-anchor="start" x="128" y="-252.5" font-family="Helvetica,sans-Serif" font-size="10.00" fill="#000000">/Crypto/src/grid&#45;finder</text>
<text text-anchor="middle" x="181" y="-241.5" font-family="Helvetica,sans-Serif" font-size="10.00" fill="#000000">/include/Angle.hpp</text>
</a>
</g>
</g>
<!-- Node7 -->
<g id="node2" class="node">
<title>Node7</title>
<g id="a_node2"><a xlink:href="Bresenham_8hpp.html" target="_top" xlink:title=" ">
<polygon fill="#ffffff" stroke="#000000" points="0,-78.5 0,-119.5 134,-119.5 134,-78.5 0,-78.5"/>
<text text-anchor="start" x="8" y="-107.5" font-family="Helvetica,sans-Serif" font-size="10.00" fill="#000000">/home/pieter/GitHub</text>
<text text-anchor="start" x="8" y="-96.5" font-family="Helvetica,sans-Serif" font-size="10.00" fill="#000000">/Crypto/src/grid&#45;finder</text>
<text text-anchor="middle" x="67" y="-85.5" font-family="Helvetica,sans-Serif" font-size="10.00" fill="#000000">/include/Bresenham.hpp</text>
</a>
</g>
</g>
<!-- Node6&#45;&gt;Node7 -->
<g id="edge1" class="edge">
<title>Node6&#45;&gt;Node7</title>
<path fill="none" stroke="#191970" d="M159.8599,-226.0714C137.3138,-195.2189 102.163,-147.1178 82.2009,-119.8013"/>
<polygon fill="#191970" stroke="#191970" points="157.1356,-228.2755 165.8617,-234.2844 162.7873,-224.1454 157.1356,-228.2755"/>
</g>
<!-- Node8 -->
<g id="node3" class="node">
<title>Node8</title>
<g id="a_node3"><a xlink:href="GridFinder_8hpp.html" target="_top" xlink:title=" ">
<polygon fill="#ffffff" stroke="#000000" points="148,-.5 148,-41.5 276,-41.5 276,-.5 148,-.5"/>
<text text-anchor="start" x="156" y="-29.5" font-family="Helvetica,sans-Serif" font-size="10.00" fill="#000000">/home/pieter/GitHub</text>
<text text-anchor="start" x="156" y="-18.5" font-family="Helvetica,sans-Serif" font-size="10.00" fill="#000000">/Crypto/src/grid&#45;finder</text>
<text text-anchor="middle" x="212" y="-7.5" font-family="Helvetica,sans-Serif" font-size="10.00" fill="#000000">/include/GridFinder.hpp</text>
</a>
</g>
</g>
<!-- Node6&#45;&gt;Node8 -->
<g id="edge3" class="edge">
<title>Node6&#45;&gt;Node8</title>
<path fill="none" stroke="#191970" d="M176.463,-224.1502C172.2353,-188.3767 168.3009,-127.9297 181,-78 184.2764,-65.1178 191.1188,-52.001 197.5436,-41.6028"/>
<polygon fill="#191970" stroke="#191970" points="173.0353,-224.9415 177.7664,-234.4213 179.9796,-224.0602 173.0353,-224.9415"/>
</g>
<!-- Node9 -->
<g id="node4" class="node">
<title>Node9</title>
<g id="a_node4"><a xlink:href="HelperStructs_8hpp.html" target="_top" xlink:title=" ">
<polygon fill="#ffffff" stroke="#000000" points="190.5,-78.5 190.5,-119.5 335.5,-119.5 335.5,-78.5 190.5,-78.5"/>
<text text-anchor="start" x="198.5" y="-107.5" font-family="Helvetica,sans-Serif" font-size="10.00" fill="#000000">/home/pieter/GitHub</text>
<text text-anchor="start" x="198.5" y="-96.5" font-family="Helvetica,sans-Serif" font-size="10.00" fill="#000000">/Crypto/src/grid&#45;finder</text>
<text text-anchor="middle" x="263" y="-85.5" font-family="Helvetica,sans-Serif" font-size="10.00" fill="#000000">/include/HelperStructs.hpp</text>
</a>
</g>
</g>
<!-- Node6&#45;&gt;Node9 -->
<g id="edge4" class="edge">
<title>Node6&#45;&gt;Node9</title>
<path fill="none" stroke="#191970" d="M190.1332,-224.5317C196.7738,-204.4116 206.7329,-177.8309 219,-156 226.2263,-143.1398 236.1393,-130.0247 244.7268,-119.622"/>
<polygon fill="#191970" stroke="#191970" points="186.7785,-223.531 187.0564,-234.1222 193.4439,-225.6694 186.7785,-223.531"/>
</g>
<!-- Node10 -->
<g id="node5" class="node">
<title>Node10</title>
<g id="a_node5"><a xlink:href="Line_8hpp.html" target="_top" xlink:title=" ">
<polygon fill="#ffffff" stroke="#000000" points="228,-156.5 228,-197.5 350,-197.5 350,-156.5 228,-156.5"/>
<text text-anchor="start" x="236" y="-185.5" font-family="Helvetica,sans-Serif" font-size="10.00" fill="#000000">/home/pieter/GitHub</text>
<text text-anchor="start" x="236" y="-174.5" font-family="Helvetica,sans-Serif" font-size="10.00" fill="#000000">/Crypto/src/grid&#45;finder</text>
<text text-anchor="middle" x="289" y="-163.5" font-family="Helvetica,sans-Serif" font-size="10.00" fill="#000000">/include/Line.hpp</text>
</a>
</g>
</g>
<!-- Node6&#45;&gt;Node10 -->
<g id="edge6" class="edge">
<title>Node6&#45;&gt;Node10</title>
<path fill="none" stroke="#191970" d="M218.07,-228.2272C231.9869,-218.1761 247.5728,-206.9196 260.5824,-197.5239"/>
<polygon fill="#191970" stroke="#191970" points="215.7161,-225.6099 209.6585,-234.3022 219.8145,-231.2847 215.7161,-225.6099"/>
</g>
<!-- Node7&#45;&gt;Node8 -->
<g id="edge2" class="edge">
<title>Node7&#45;&gt;Node8</title>
<path fill="none" stroke="#191970" d="M114.4029,-73.5005C133.6717,-63.1352 155.6386,-51.3185 173.8467,-41.5239"/>
<polygon fill="#191970" stroke="#191970" points="112.6252,-70.4825 105.4767,-78.3022 115.9414,-76.6471 112.6252,-70.4825"/>
</g>
<!-- Node9&#45;&gt;Node8 -->
<g id="edge5" class="edge">
<title>Node9&#45;&gt;Node8</title>
<path fill="none" stroke="#191970" d="M243.7234,-69.5181C237.6623,-60.2482 231.1016,-50.2141 225.5279,-41.6898"/>
<polygon fill="#191970" stroke="#191970" points="240.931,-71.6431 249.3329,-78.0974 246.7898,-67.8123 240.931,-71.6431"/>
</g>
<!-- Node10&#45;&gt;Node8 -->
<g id="edge7" class="edge">
<title>Node10&#45;&gt;Node8</title>
<path fill="none" stroke="#191970" d="M323.734,-149.4395C331.9385,-140.9623 339.5796,-130.9471 344,-120 350.9892,-102.6912 354.2545,-93.5978 344,-78 328.7102,-54.7432 301.6987,-40.9323 276.0767,-32.7509"/>
<polygon fill="#191970" stroke="#191970" points="321.2076,-147.0136 316.4457,-156.478 326.0704,-152.0489 321.2076,-147.0136"/>
</g>
<!-- Node10&#45;&gt;Node9 -->
<g id="edge8" class="edge">
<title>Node10&#45;&gt;Node9</title>
<path fill="none" stroke="#191970" d="M278.7892,-146.3676C275.8077,-137.4232 272.6209,-127.8626 269.8966,-119.6898"/>
<polygon fill="#191970" stroke="#191970" points="275.5497,-147.7174 282.0325,-156.0974 282.1905,-145.5038 275.5497,-147.7174"/>
</g>
</g>
</svg>
