<?xml version="1.0" encoding="UTF-8" standalone="no"?>
<!DOCTYPE svg PUBLIC "-//W3C//DTD SVG 1.1//EN"
 "http://www.w3.org/Graphics/SVG/1.1/DTD/svg11.dtd">
<!-- Generated by graphviz version 2.40.1 (20161225.0304)
 -->
<!-- Title: /home/pieter/GitHub/EAGLE&#45;ZYBO&#45;Linux/src/utilities/include/ANSIColors.hpp Pages: 1 -->
<svg width="983pt" height="395pt"
 viewBox="0.00 0.00 983.00 395.00" xmlns="http://www.w3.org/2000/svg" xmlns:xlink="http://www.w3.org/1999/xlink">
<g id="graph0" class="graph" transform="scale(1 1) rotate(0) translate(4 391)">
<title>/home/pieter/GitHub/EAGLE&#45;ZYBO&#45;Linux/src/utilities/include/ANSIColors.hpp</title>
<polygon fill="#ffffff" stroke="transparent" points="-4,4 -4,-391 979,-391 979,4 -4,4"/>
<!-- Node1 -->
<g id="node1" class="node">
<title>Node1</title>
<g id="a_node1"><a xlink:title=" ">
<polygon fill="#bfbfbf" stroke="#000000" points="327,-345.5 327,-386.5 500,-386.5 500,-345.5 327,-345.5"/>
<text text-anchor="start" x="335" y="-374.5" font-family="Helvetica,sans-Serif" font-size="10.00" fill="#000000">/home/pieter/GitHub</text>
<text text-anchor="start" x="335" y="-363.5" font-family="Helvetica,sans-Serif" font-size="10.00" fill="#000000">/EAGLE&#45;ZYBO&#45;Linux/src</text>
<text text-anchor="middle" x="413.5" y="-352.5" font-family="Helvetica,sans-Serif" font-size="10.00" fill="#000000">/utilities/include/ANSIColors.hpp</text>
</a>
</g>
</g>
<!-- Node2 -->
<g id="node2" class="node">
<title>Node2</title>
<g id="a_node2"><a xlink:href="baremetal-comm_2include_2SharedMem_8hpp.html" target="_top" xlink:title=" ">
<polygon fill="#ffffff" stroke="#000000" points="167,-256.5 167,-308.5 310,-308.5 310,-256.5 167,-256.5"/>
<text text-anchor="start" x="175" y="-296.5" font-family="Helvetica,sans-Serif" font-size="10.00" fill="#000000">/home/pieter/GitHub</text>
<text text-anchor="start" x="175" y="-285.5" font-family="Helvetica,sans-Serif" font-size="10.00" fill="#000000">/EAGLE&#45;ZYBO&#45;Linux/src</text>
<text text-anchor="start" x="175" y="-274.5" font-family="Helvetica,sans-Serif" font-size="10.00" fill="#000000">/baremetal&#45;comm/include</text>
<text text-anchor="middle" x="238.5" y="-263.5" font-family="Helvetica,sans-Serif" font-size="10.00" fill="#000000">/SharedMem.hpp</text>
</a>
</g>
</g>
<!-- Node1&#45;&gt;Node2 -->
<g id="edge1" class="edge">
<title>Node1&#45;&gt;Node2</title>
<path fill="none" stroke="#191970" d="M360.9772,-340.9391C339.5669,-330.7233 314.812,-318.9117 293.1849,-308.5925"/>
<polygon fill="#191970" stroke="#191970" points="359.709,-344.212 370.2416,-345.3595 362.7235,-337.8943 359.709,-344.212"/>
</g>
<!-- Node3 -->
<g id="node3" class="node">
<title>Node3</title>
<g id="a_node3"><a xlink:href="comm_2include_2SharedMem_8hpp.html" target="_top" xlink:title=" ">
<polygon fill="#ffffff" stroke="#000000" points="328.5,-262 328.5,-303 498.5,-303 498.5,-262 328.5,-262"/>
<text text-anchor="start" x="336.5" y="-291" font-family="Helvetica,sans-Serif" font-size="10.00" fill="#000000">/home/pieter/GitHub</text>
<text text-anchor="start" x="336.5" y="-280" font-family="Helvetica,sans-Serif" font-size="10.00" fill="#000000">/EAGLE&#45;ZYBO&#45;Linux/src</text>
<text text-anchor="middle" x="413.5" y="-269" font-family="Helvetica,sans-Serif" font-size="10.00" fill="#000000">/comm/include/SharedMem.hpp</text>
</a>
</g>
</g>
<!-- Node1&#45;&gt;Node3 -->
<g id="edge2" class="edge">
<title>Node1&#45;&gt;Node3</title>
<path fill="none" stroke="#191970" d="M413.5,-335.1593C413.5,-324.5064 413.5,-312.8344 413.5,-303.1924"/>
<polygon fill="#191970" stroke="#191970" points="410.0001,-335.3595 413.5,-345.3595 417.0001,-335.3596 410.0001,-335.3595"/>
</g>
<!-- Node15 -->
<g id="node15" class="node">
<title>Node15</title>
<g id="a_node15"><a xlink:href="GridFinder_8hpp.html" target="_top" xlink:title=" ">
<polygon fill="#ffffff" stroke="#000000" points="657,-262 657,-303 838,-303 838,-262 657,-262"/>
<text text-anchor="start" x="665" y="-291" font-family="Helvetica,sans-Serif" font-size="10.00" fill="#000000">/home/pieter/GitHub</text>
<text text-anchor="start" x="665" y="-280" font-family="Helvetica,sans-Serif" font-size="10.00" fill="#000000">/EAGLE&#45;ZYBO&#45;Linux/src</text>
<text text-anchor="middle" x="747.5" y="-269" font-family="Helvetica,sans-Serif" font-size="10.00" fill="#000000">/grid&#45;finder/include/GridFinder.hpp</text>
</a>
</g>
</g>
<!-- Node1&#45;&gt;Node15 -->
<g id="edge14" class="edge">
<title>Node1&#45;&gt;Node15</title>
<path fill="none" stroke="#191970" d="M505.487,-343.0033C555.5478,-330.4881 616.9605,-315.1349 665.3946,-303.0263"/>
<polygon fill="#191970" stroke="#191970" points="504.4859,-339.6457 495.6334,-345.4667 506.1837,-346.4367 504.4859,-339.6457"/>
</g>
<!-- Node4 -->
<g id="node4" class="node">
<title>Node4</title>
<g id="a_node4"><a xlink:href="SharedMem_8cpp.html" target="_top" xlink:title=" ">
<polygon fill="#ffffff" stroke="#000000" points="0,-173 0,-214 149,-214 149,-173 0,-173"/>
<text text-anchor="start" x="8" y="-202" font-family="Helvetica,sans-Serif" font-size="10.00" fill="#000000">/home/pieter/GitHub</text>
<text text-anchor="start" x="8" y="-191" font-family="Helvetica,sans-Serif" font-size="10.00" fill="#000000">/EAGLE&#45;ZYBO&#45;Linux/src</text>
<text text-anchor="middle" x="74.5" y="-180" font-family="Helvetica,sans-Serif" font-size="10.00" fill="#000000">/comm/src/SharedMem.cpp</text>
</a>
</g>
</g>
<!-- Node3&#45;&gt;Node4 -->
<g id="edge3" class="edge">
<title>Node3&#45;&gt;Node4</title>
<path fill="none" stroke="#191970" d="M332.5702,-259.3807C328.1551,-258.2144 323.7768,-257.0801 319.5,-256 248.4096,-238.0456 229.3053,-239.0473 158.5,-220 151.7072,-218.1727 144.6435,-216.1464 137.6254,-214.0517"/>
<polygon fill="#191970" stroke="#191970" points="331.7041,-262.772 342.269,-261.9763 333.5138,-256.01 331.7041,-262.772"/>
</g>
<!-- Node5 -->
<g id="node5" class="node">
<title>Node5</title>
<g id="a_node5"><a xlink:href="cryptoPoller_8hpp.html" target="_top" xlink:title=" ">
<polygon fill="#ffffff" stroke="#000000" points="167,-173 167,-214 316,-214 316,-173 167,-173"/>
<text text-anchor="start" x="175" y="-202" font-family="Helvetica,sans-Serif" font-size="10.00" fill="#000000">/home/pieter/GitHub</text>
<text text-anchor="start" x="175" y="-191" font-family="Helvetica,sans-Serif" font-size="10.00" fill="#000000">/EAGLE&#45;ZYBO&#45;Linux/src</text>
<text text-anchor="middle" x="241.5" y="-180" font-family="Helvetica,sans-Serif" font-size="10.00" fill="#000000">/crypto/src/cryptoPoller.hpp</text>
</a>
</g>
</g>
<!-- Node3&#45;&gt;Node5 -->
<g id="edge4" class="edge">
<title>Node3&#45;&gt;Node5</title>
<path fill="none" stroke="#191970" d="M364.5326,-257.1622C338.1378,-243.5044 305.9901,-226.8699 281.1762,-214.0301"/>
<polygon fill="#191970" stroke="#191970" points="363.1175,-260.3707 373.6074,-261.8579 366.3345,-254.1537 363.1175,-260.3707"/>
</g>
<!-- Node9 -->
<g id="node9" class="node">
<title>Node9</title>
<g id="a_node9"><a xlink:href="Logger_8hpp.html" target="_top" xlink:title=" ">
<polygon fill="#ffffff" stroke="#000000" points="341,-173 341,-214 486,-214 486,-173 341,-173"/>
<text text-anchor="start" x="349" y="-202" font-family="Helvetica,sans-Serif" font-size="10.00" fill="#000000">/home/pieter/GitHub</text>
<text text-anchor="start" x="349" y="-191" font-family="Helvetica,sans-Serif" font-size="10.00" fill="#000000">/EAGLE&#45;ZYBO&#45;Linux/src</text>
<text text-anchor="middle" x="413.5" y="-180" font-family="Helvetica,sans-Serif" font-size="10.00" fill="#000000">/logger/include/Logger.hpp</text>
</a>
</g>
</g>
<!-- Node3&#45;&gt;Node9 -->
<g id="edge8" class="edge">
<title>Node3&#45;&gt;Node9</title>
<path fill="none" stroke="#191970" d="M413.5,-251.844C413.5,-239.3522 413.5,-225.2439 413.5,-214.0301"/>
<polygon fill="#191970" stroke="#191970" points="410.0001,-251.8579 413.5,-261.8579 417.0001,-251.8579 410.0001,-251.8579"/>
</g>
<!-- Node13 -->
<g id="node13" class="node">
<title>Node13</title>
<g id="a_node13"><a xlink:href="QRCryptoManager_8hpp.html" target="_top" xlink:title=" ">
<polygon fill="#ffffff" stroke="#000000" points="504,-167.5 504,-219.5 653,-219.5 653,-167.5 504,-167.5"/>
<text text-anchor="start" x="512" y="-207.5" font-family="Helvetica,sans-Serif" font-size="10.00" fill="#000000">/home/pieter/GitHub</text>
<text text-anchor="start" x="512" y="-196.5" font-family="Helvetica,sans-Serif" font-size="10.00" fill="#000000">/EAGLE&#45;ZYBO&#45;Linux/src</text>
<text text-anchor="start" x="512" y="-185.5" font-family="Helvetica,sans-Serif" font-size="10.00" fill="#000000">/qr&#45;crypto&#45;manager/include</text>
<text text-anchor="middle" x="578.5" y="-174.5" font-family="Helvetica,sans-Serif" font-size="10.00" fill="#000000">/QRCryptoManager.hpp</text>
</a>
</g>
</g>
<!-- Node3&#45;&gt;Node13 -->
<g id="edge12" class="edge">
<title>Node3&#45;&gt;Node13</title>
<path fill="none" stroke="#191970" d="M460.8065,-256.9831C482.5194,-245.2714 508.2349,-231.4006 530.0816,-219.6166"/>
<polygon fill="#191970" stroke="#191970" points="458.9087,-254.03 451.769,-261.8579 462.2319,-260.191 458.9087,-254.03"/>
</g>
<!-- Node6 -->
<g id="node6" class="node">
<title>Node6</title>
<g id="a_node6"><a xlink:href="cryptoPoller_8cpp.html" target="_top" xlink:title=" ">
<polygon fill="#ffffff" stroke="#000000" points="4,-84 4,-125 153,-125 153,-84 4,-84"/>
<text text-anchor="start" x="12" y="-113" font-family="Helvetica,sans-Serif" font-size="10.00" fill="#000000">/home/pieter/GitHub</text>
<text text-anchor="start" x="12" y="-102" font-family="Helvetica,sans-Serif" font-size="10.00" fill="#000000">/EAGLE&#45;ZYBO&#45;Linux/src</text>
<text text-anchor="middle" x="78.5" y="-91" font-family="Helvetica,sans-Serif" font-size="10.00" fill="#000000">/crypto/src/cryptoPoller.cpp</text>
</a>
</g>
</g>
<!-- Node5&#45;&gt;Node6 -->
<g id="edge5" class="edge">
<title>Node5&#45;&gt;Node6</title>
<path fill="none" stroke="#191970" d="M194.7669,-167.9831C169.8152,-154.3592 139.5129,-137.8138 116.1002,-125.0301"/>
<polygon fill="#191970" stroke="#191970" points="193.2406,-171.1375 203.6948,-172.8579 196.5952,-164.9936 193.2406,-171.1375"/>
</g>
<!-- Node7 -->
<g id="node7" class="node">
<title>Node7</title>
<g id="a_node7"><a xlink:href="ketje_8hpp.html" target="_top" xlink:title=" ">
<polygon fill="#ffffff" stroke="#000000" points="171,-84 171,-125 300,-125 300,-84 171,-84"/>
<text text-anchor="start" x="179" y="-113" font-family="Helvetica,sans-Serif" font-size="10.00" fill="#000000">/home/pieter/GitHub</text>
<text text-anchor="start" x="179" y="-102" font-family="Helvetica,sans-Serif" font-size="10.00" fill="#000000">/EAGLE&#45;ZYBO&#45;Linux/src</text>
<text text-anchor="middle" x="235.5" y="-91" font-family="Helvetica,sans-Serif" font-size="10.00" fill="#000000">/crypto/src/ketje.hpp</text>
</a>
</g>
</g>
<!-- Node5&#45;&gt;Node7 -->
<g id="edge6" class="edge">
<title>Node5&#45;&gt;Node7</title>
<path fill="none" stroke="#191970" d="M239.4333,-162.844C238.5912,-150.3522 237.64,-136.2439 236.8841,-125.0301"/>
<polygon fill="#191970" stroke="#191970" points="235.9436,-163.116 240.1084,-172.8579 242.9277,-162.6451 235.9436,-163.116"/>
</g>
<!-- Node8 -->
<g id="node8" class="node">
<title>Node8</title>
<g id="a_node8"><a xlink:href="ketje_8cpp.html" target="_top" xlink:title=" ">
<polygon fill="#ffffff" stroke="#000000" points="171,-.5 171,-41.5 300,-41.5 300,-.5 171,-.5"/>
<text text-anchor="start" x="179" y="-29.5" font-family="Helvetica,sans-Serif" font-size="10.00" fill="#000000">/home/pieter/GitHub</text>
<text text-anchor="start" x="179" y="-18.5" font-family="Helvetica,sans-Serif" font-size="10.00" fill="#000000">/EAGLE&#45;ZYBO&#45;Linux/src</text>
<text text-anchor="middle" x="235.5" y="-7.5" font-family="Helvetica,sans-Serif" font-size="10.00" fill="#000000">/crypto/src/ketje.cpp</text>
</a>
</g>
</g>
<!-- Node7&#45;&gt;Node8 -->
<g id="edge7" class="edge">
<title>Node7&#45;&gt;Node8</title>
<path fill="none" stroke="#191970" d="M235.5,-73.6593C235.5,-63.0064 235.5,-51.3344 235.5,-41.6924"/>
<polygon fill="#191970" stroke="#191970" points="232.0001,-73.8595 235.5,-83.8595 239.0001,-73.8596 232.0001,-73.8595"/>
</g>
<!-- Node10 -->
<g id="node10" class="node">
<title>Node10</title>
<g id="a_node10"><a xlink:href="ThreadedLogger_8hpp.html" target="_top" xlink:title=" ">
<polygon fill="#ffffff" stroke="#000000" points="318,-84 318,-125 509,-125 509,-84 318,-84"/>
<text text-anchor="start" x="326" y="-113" font-family="Helvetica,sans-Serif" font-size="10.00" fill="#000000">/home/pieter/GitHub</text>
<text text-anchor="start" x="326" y="-102" font-family="Helvetica,sans-Serif" font-size="10.00" fill="#000000">/EAGLE&#45;ZYBO&#45;Linux/src</text>
<text text-anchor="middle" x="413.5" y="-91" font-family="Helvetica,sans-Serif" font-size="10.00" fill="#000000">/logger/include/ThreadedLogger.hpp</text>
</a>
</g>
</g>
<!-- Node9&#45;&gt;Node10 -->
<g id="edge9" class="edge">
<title>Node9&#45;&gt;Node10</title>
<path fill="none" stroke="#191970" d="M413.5,-162.844C413.5,-150.3522 413.5,-136.2439 413.5,-125.0301"/>
<polygon fill="#191970" stroke="#191970" points="410.0001,-162.8579 413.5,-172.8579 417.0001,-162.8579 410.0001,-162.8579"/>
</g>
<!-- Node12 -->
<g id="node12" class="node">
<title>Node12</title>
<g id="a_node12"><a xlink:href="Logger_8cpp.html" target="_top" xlink:title=" ">
<polygon fill="#ffffff" stroke="#000000" points="527,-84 527,-125 656,-125 656,-84 527,-84"/>
<text text-anchor="start" x="535" y="-113" font-family="Helvetica,sans-Serif" font-size="10.00" fill="#000000">/home/pieter/GitHub</text>
<text text-anchor="start" x="535" y="-102" font-family="Helvetica,sans-Serif" font-size="10.00" fill="#000000">/EAGLE&#45;ZYBO&#45;Linux/src</text>
<text text-anchor="middle" x="591.5" y="-91" font-family="Helvetica,sans-Serif" font-size="10.00" fill="#000000">/logger/src/Logger.cpp</text>
</a>
</g>
</g>
<!-- Node9&#45;&gt;Node12 -->
<g id="edge11" class="edge">
<title>Node9&#45;&gt;Node12</title>
<path fill="none" stroke="#191970" d="M463.818,-168.341C491.2004,-154.6498 524.6481,-137.926 550.4397,-125.0301"/>
<polygon fill="#191970" stroke="#191970" points="462.1632,-165.2552 454.7842,-172.8579 465.2937,-171.5162 462.1632,-165.2552"/>
</g>
<!-- Node11 -->
<g id="node11" class="node">
<title>Node11</title>
<g id="a_node11"><a xlink:href="ThreadedLogger_8cpp.html" target="_top" xlink:title=" ">
<polygon fill="#ffffff" stroke="#000000" points="329,-.5 329,-41.5 498,-41.5 498,-.5 329,-.5"/>
<text text-anchor="start" x="337" y="-29.5" font-family="Helvetica,sans-Serif" font-size="10.00" fill="#000000">/home/pieter/GitHub</text>
<text text-anchor="start" x="337" y="-18.5" font-family="Helvetica,sans-Serif" font-size="10.00" fill="#000000">/EAGLE&#45;ZYBO&#45;Linux/src</text>
<text text-anchor="middle" x="413.5" y="-7.5" font-family="Helvetica,sans-Serif" font-size="10.00" fill="#000000">/logger/src/ThreadedLogger.cpp</text>
</a>
</g>
</g>
<!-- Node10&#45;&gt;Node11 -->
<g id="edge10" class="edge">
<title>Node10&#45;&gt;Node11</title>
<path fill="none" stroke="#191970" d="M413.5,-73.6593C413.5,-63.0064 413.5,-51.3344 413.5,-41.6924"/>
<polygon fill="#191970" stroke="#191970" points="410.0001,-73.8595 413.5,-83.8595 417.0001,-73.8596 410.0001,-73.8595"/>
</g>
<!-- Node14 -->
<g id="node14" class="node">
<title>Node14</title>
<g id="a_node14"><a xlink:href="QRCryptoManager_8cpp.html" target="_top" xlink:title=" ">
<polygon fill="#ffffff" stroke="#000000" points="674,-78.5 674,-130.5 803,-130.5 803,-78.5 674,-78.5"/>
<text text-anchor="start" x="682" y="-118.5" font-family="Helvetica,sans-Serif" font-size="10.00" fill="#000000">/home/pieter/GitHub</text>
<text text-anchor="start" x="682" y="-107.5" font-family="Helvetica,sans-Serif" font-size="10.00" fill="#000000">/EAGLE&#45;ZYBO&#45;Linux/src</text>
<text text-anchor="start" x="682" y="-96.5" font-family="Helvetica,sans-Serif" font-size="10.00" fill="#000000">/qr&#45;crypto&#45;manager/src</text>
<text text-anchor="middle" x="738.5" y="-85.5" font-family="Helvetica,sans-Serif" font-size="10.00" fill="#000000">/QRCryptoManager.cpp</text>
</a>
</g>
</g>
<!-- Node13&#45;&gt;Node14 -->
<g id="edge13" class="edge">
<title>Node13&#45;&gt;Node14</title>
<path fill="none" stroke="#191970" d="M634.622,-162.2821C653.2718,-151.9082 673.8275,-140.4741 691.697,-130.5341"/>
<polygon fill="#191970" stroke="#191970" points="632.6775,-159.3587 625.6399,-167.2784 636.0803,-165.476 632.6775,-159.3587"/>
</g>
<!-- Node16 -->
<g id="node16" class="node">
<title>Node16</title>
<g id="a_node16"><a xlink:href="LocationFinder_8cpp.html" target="_top" xlink:title=" ">
<polygon fill="#ffffff" stroke="#000000" points="671.5,-167.5 671.5,-219.5 823.5,-219.5 823.5,-167.5 671.5,-167.5"/>
<text text-anchor="start" x="679.5" y="-207.5" font-family="Helvetica,sans-Serif" font-size="10.00" fill="#000000">/home/pieter/GitHub</text>
<text text-anchor="start" x="679.5" y="-196.5" font-family="Helvetica,sans-Serif" font-size="10.00" fill="#000000">/EAGLE&#45;ZYBO&#45;Linux/src</text>
<text text-anchor="start" x="679.5" y="-185.5" font-family="Helvetica,sans-Serif" font-size="10.00" fill="#000000">/location&#45;finder/src/Location</text>
<text text-anchor="middle" x="747.5" y="-174.5" font-family="Helvetica,sans-Serif" font-size="10.00" fill="#000000">Finder.cpp</text>
</a>
</g>
</g>
<!-- Node15&#45;&gt;Node16 -->
<g id="edge15" class="edge">
<title>Node15&#45;&gt;Node16</title>
<path fill="none" stroke="#191970" d="M747.5,-251.56C747.5,-241.1985 747.5,-229.7526 747.5,-219.7816"/>
<polygon fill="#191970" stroke="#191970" points="744.0001,-251.8579 747.5,-261.8579 751.0001,-251.8579 744.0001,-251.8579"/>
</g>
<!-- Node17 -->
<g id="node17" class="node">
<title>Node17</title>
<g id="a_node17"><a xlink:href="Grid-Finder_8module_8hpp.html" target="_top" xlink:title=" ">
<polygon fill="#ffffff" stroke="#000000" points="842,-167.5 842,-219.5 975,-219.5 975,-167.5 842,-167.5"/>
<text text-anchor="start" x="850" y="-207.5" font-family="Helvetica,sans-Serif" font-size="10.00" fill="#000000">/home/pieter/GitHub</text>
<text text-anchor="start" x="850" y="-196.5" font-family="Helvetica,sans-Serif" font-size="10.00" fill="#000000">/EAGLE&#45;ZYBO&#45;Linux/src</text>
<text text-anchor="start" x="850" y="-185.5" font-family="Helvetica,sans-Serif" font-size="10.00" fill="#000000">/py&#45;grid&#45;finder/include</text>
<text text-anchor="middle" x="908.5" y="-174.5" font-family="Helvetica,sans-Serif" font-size="10.00" fill="#000000">/Grid&#45;Finder.module.hpp</text>
</a>
</g>
</g>
<!-- Node15&#45;&gt;Node17 -->
<g id="edge16" class="edge">
<title>Node15&#45;&gt;Node17</title>
<path fill="none" stroke="#191970" d="M793.6597,-256.9831C814.8462,-245.2714 839.9383,-231.4006 861.2554,-219.6166"/>
<polygon fill="#191970" stroke="#191970" points="791.8998,-253.9568 784.8413,-261.8579 795.2864,-260.083 791.8998,-253.9568"/>
</g>
<!-- Node18 -->
<g id="node18" class="node">
<title>Node18</title>
<g id="a_node18"><a xlink:href="Grid-Finder_8module_8cpp.html" target="_top" xlink:title=" ">
<polygon fill="#ffffff" stroke="#000000" points="844,-78.5 844,-130.5 973,-130.5 973,-78.5 844,-78.5"/>
<text text-anchor="start" x="852" y="-118.5" font-family="Helvetica,sans-Serif" font-size="10.00" fill="#000000">/home/pieter/GitHub</text>
<text text-anchor="start" x="852" y="-107.5" font-family="Helvetica,sans-Serif" font-size="10.00" fill="#000000">/EAGLE&#45;ZYBO&#45;Linux/src</text>
<text text-anchor="start" x="852" y="-96.5" font-family="Helvetica,sans-Serif" font-size="10.00" fill="#000000">/py&#45;grid&#45;finder/src/Grid</text>
<text text-anchor="middle" x="908.5" y="-85.5" font-family="Helvetica,sans-Serif" font-size="10.00" fill="#000000">&#45;Finder.module.cpp</text>
</a>
</g>
</g>
<!-- Node17&#45;&gt;Node18 -->
<g id="edge17" class="edge">
<title>Node17&#45;&gt;Node18</title>
<path fill="none" stroke="#191970" d="M908.5,-157.1155C908.5,-148.2061 908.5,-138.8475 908.5,-130.5341"/>
<polygon fill="#191970" stroke="#191970" points="905.0001,-157.2784 908.5,-167.2784 912.0001,-157.2785 905.0001,-157.2784"/>
</g>
</g>
</svg>
