<?xml version="1.0" encoding="UTF-8" standalone="no"?>
<!DOCTYPE svg PUBLIC "-//W3C//DTD SVG 1.1//EN"
 "http://www.w3.org/Graphics/SVG/1.1/DTD/svg11.dtd">
<!-- Generated by graphviz version 2.40.1 (20161225.0304)
 -->
<!-- Title: abs Pages: 1 -->
<svg width="717pt" height="154pt"
 viewBox="0.00 0.00 717.00 153.50" xmlns="http://www.w3.org/2000/svg" xmlns:xlink="http://www.w3.org/1999/xlink">
<g id="graph0" class="graph" transform="scale(1 1) rotate(0) translate(4 149.5)">
<title>abs</title>
<polygon fill="#ffffff" stroke="transparent" points="-4,4 -4,-149.5 713,-149.5 713,4 -4,4"/>
<!-- Node1 -->
<g id="node1" class="node">
<title>Node1</title>
<g id="a_node1"><a xlink:title=" ">
<polygon fill="#bfbfbf" stroke="#000000" points="675,-38.5 675,-57.5 709,-57.5 709,-38.5 675,-38.5"/>
<text text-anchor="middle" x="692" y="-45.5" font-family="Helvetica,sans-Serif" font-size="10.00" fill="#000000">abs</text>
</a>
</g>
</g>
<!-- Node2 -->
<g id="node2" class="node">
<title>Node2</title>
<g id="a_node2"><a xlink:href="classGridFinder.html#a187e8c44c7f99237645b49dc2c6745c8" target="_top" xlink:title="Find the middle of a line.">
<polygon fill="#ffffff" stroke="#000000" points="519,-76.5 519,-95.5 639,-95.5 639,-76.5 519,-76.5"/>
<text text-anchor="middle" x="579" y="-83.5" font-family="Helvetica,sans-Serif" font-size="10.00" fill="#000000">GridFinder::getMiddle</text>
</a>
</g>
</g>
<!-- Node1&#45;&gt;Node2 -->
<g id="edge1" class="edge">
<title>Node1&#45;&gt;Node2</title>
<path fill="none" stroke="#191970" d="M665.258,-56.9929C647.8165,-62.8582 625.0808,-70.5038 607.3301,-76.4731"/>
<polygon fill="#191970" stroke="#191970" points="666.4749,-60.2763 674.8377,-53.7714 664.2437,-53.6414 666.4749,-60.2763"/>
</g>
<!-- Node8 -->
<g id="node8" class="node">
<title>Node8</title>
<g id="a_node8"><a xlink:href="classGridFinder.html#a3104d4fe44099faf5179674ecb55cb52" target="_top" xlink:title="This is the main function: it looks for a complete square of the grid, as close to the center of the ...">
<polygon fill="#ffffff" stroke="#000000" points="5,-38.5 5,-57.5 129,-57.5 129,-38.5 5,-38.5"/>
<text text-anchor="middle" x="67" y="-45.5" font-family="Helvetica,sans-Serif" font-size="10.00" fill="#000000">GridFinder::findSquare</text>
</a>
</g>
</g>
<!-- Node1&#45;&gt;Node8 -->
<g id="edge8" class="edge">
<title>Node1&#45;&gt;Node8</title>
<path fill="none" stroke="#191970" d="M664.9241,-48C571.6836,-48 262.3276,-48 129.0127,-48"/>
<polygon fill="#191970" stroke="#191970" points="664.9587,-51.5001 674.9586,-48 664.9586,-44.5001 664.9587,-51.5001"/>
</g>
<!-- Node9 -->
<g id="node9" class="node">
<title>Node9</title>
<g id="a_node9"><a xlink:href="AlmostEqual_8hpp.html#ad6e6b9a489dce5404854e1513e988e0c" target="_top" xlink:title=" ">
<polygon fill="#ffffff" stroke="#000000" points="536,-.5 536,-19.5 622,-19.5 622,-.5 536,-.5"/>
<text text-anchor="middle" x="579" y="-7.5" font-family="Helvetica,sans-Serif" font-size="10.00" fill="#000000">isAlmostEqual</text>
</a>
</g>
</g>
<!-- Node1&#45;&gt;Node9 -->
<g id="edge9" class="edge">
<title>Node1&#45;&gt;Node9</title>
<path fill="none" stroke="#191970" d="M665.258,-39.0071C647.8165,-33.1418 625.0808,-25.4962 607.3301,-19.5269"/>
<polygon fill="#191970" stroke="#191970" points="664.2437,-42.3586 674.8377,-42.2286 666.4749,-35.7237 664.2437,-42.3586"/>
</g>
<!-- Node3 -->
<g id="node3" class="node">
<title>Node3</title>
<g id="a_node3"><a xlink:href="classGridFinder.html#a504ddc8af3a0cc68b68de387ac1a90ea" target="_top" xlink:title="In exceptional cases, we might want to find the middle of a line in a point that happens to lie at th...">
<polygon fill="#ffffff" stroke="#000000" points="340,-115 340,-145 483,-145 483,-115 340,-115"/>
<text text-anchor="start" x="348" y="-133" font-family="Helvetica,sans-Serif" font-size="10.00" fill="#000000">GridFinder::getMiddleWith</text>
<text text-anchor="middle" x="411.5" y="-122" font-family="Helvetica,sans-Serif" font-size="10.00" fill="#000000">Retries</text>
</a>
</g>
</g>
<!-- Node2&#45;&gt;Node3 -->
<g id="edge2" class="edge">
<title>Node2&#45;&gt;Node3</title>
<path fill="none" stroke="#191970" d="M532.9475,-98.0974C513.1369,-103.3013 489.7702,-109.4395 468.8511,-114.9346"/>
<polygon fill="#191970" stroke="#191970" points="533.8724,-101.4732 542.655,-95.5473 532.0939,-94.7029 533.8724,-101.4732"/>
</g>
<!-- Node5 -->
<g id="node5" class="node">
<title>Node5</title>
<g id="a_node5"><a xlink:href="classGridFinder.html#a9050aab45d10d2c2d4859af19b4987b4" target="_top" xlink:title="Check if there could be a valid line going through the given point, and if so, find and return the ac...">
<polygon fill="#ffffff" stroke="#000000" points="351,-76.5 351,-95.5 472,-95.5 472,-76.5 351,-76.5"/>
<text text-anchor="middle" x="411.5" y="-83.5" font-family="Helvetica,sans-Serif" font-size="10.00" fill="#000000">GridFinder::checkLine</text>
</a>
</g>
</g>
<!-- Node2&#45;&gt;Node5 -->
<g id="edge4" class="edge">
<title>Node2&#45;&gt;Node5</title>
<path fill="none" stroke="#191970" d="M508.4935,-86C496.4141,-86 483.9577,-86 472.1638,-86"/>
<polygon fill="#191970" stroke="#191970" points="508.5287,-89.5001 518.5287,-86 508.5286,-82.5001 508.5287,-89.5001"/>
</g>
<!-- Node4 -->
<g id="node4" class="node">
<title>Node4</title>
<g id="a_node4"><a xlink:href="classGridFinder.html#ac78760540b520bc08f716ef77127f1fc" target="_top" xlink:title="Get an estimate of the line through a given pixel. Find an estimate of the slope, then use that to de...">
<polygon fill="#ffffff" stroke="#000000" points="173,-115 173,-145 301,-145 301,-115 173,-115"/>
<text text-anchor="start" x="181" y="-133" font-family="Helvetica,sans-Serif" font-size="10.00" fill="#000000">GridFinder::getFirstLine</text>
<text text-anchor="middle" x="237" y="-122" font-family="Helvetica,sans-Serif" font-size="10.00" fill="#000000">Estimate</text>
</a>
</g>
</g>
<!-- Node3&#45;&gt;Node4 -->
<g id="edge3" class="edge">
<title>Node3&#45;&gt;Node4</title>
<path fill="none" stroke="#191970" d="M329.5054,-130C319.9971,-130 310.4052,-130 301.1837,-130"/>
<polygon fill="#191970" stroke="#191970" points="329.7688,-133.5001 339.7688,-130 329.7687,-126.5001 329.7688,-133.5001"/>
</g>
<!-- Node6 -->
<g id="node6" class="node">
<title>Node6</title>
<g id="a_node6"><a xlink:href="classGridFinder.html#a79b62fc48a9db94ad0530e76ed2c3306" target="_top" xlink:title="Follow the given line to find the line perpendicular to it. Move along the line for minDistance pixel...">
<polygon fill="#ffffff" stroke="#000000" points="170,-76.5 170,-95.5 304,-95.5 304,-76.5 170,-76.5"/>
<text text-anchor="middle" x="237" y="-83.5" font-family="Helvetica,sans-Serif" font-size="10.00" fill="#000000">GridFinder::findNextLine</text>
</a>
</g>
</g>
<!-- Node5&#45;&gt;Node6 -->
<g id="edge5" class="edge">
<title>Node5&#45;&gt;Node6</title>
<path fill="none" stroke="#191970" d="M340.9271,-86C328.8358,-86 316.3005,-86 304.2976,-86"/>
<polygon fill="#191970" stroke="#191970" points="340.9581,-89.5001 350.9581,-86 340.9581,-82.5001 340.9581,-89.5001"/>
</g>
<!-- Node7 -->
<g id="node7" class="node">
<title>Node7</title>
<g id="a_node7"><a xlink:href="classGridFinder.html#ad75180aa82b12c7054e0015adc44a331" target="_top" xlink:title="Equivalent to #findNextLine(LineResult,bool,uint,uint) but also supports optional LineResults.">
<polygon fill="#ffffff" stroke="#000000" points="0,-76.5 0,-95.5 134,-95.5 134,-76.5 0,-76.5"/>
<text text-anchor="middle" x="67" y="-83.5" font-family="Helvetica,sans-Serif" font-size="10.00" fill="#000000">GridFinder::findNextLine</text>
</a>
</g>
</g>
<!-- Node6&#45;&gt;Node7 -->
<g id="edge6" class="edge">
<title>Node6&#45;&gt;Node7</title>
<path fill="none" stroke="#191970" d="M159.5754,-86C151.1241,-86 142.5721,-86 134.2572,-86"/>
<polygon fill="#191970" stroke="#191970" points="159.8115,-89.5001 169.8115,-86 159.8115,-82.5001 159.8115,-89.5001"/>
</g>
<!-- Node6&#45;&gt;Node8 -->
<g id="edge7" class="edge">
<title>Node6&#45;&gt;Node8</title>
<path fill="none" stroke="#191970" d="M184.1019,-74.1757C160.135,-68.8184 132.1765,-62.5689 109.5897,-57.5201"/>
<polygon fill="#191970" stroke="#191970" points="183.5791,-77.6452 194.1018,-76.411 185.1062,-70.8138 183.5791,-77.6452"/>
</g>
<!-- Node10 -->
<g id="node10" class="node">
<title>Node10</title>
<g id="a_node10"><a xlink:href="AlmostEqual_8hpp.html#a04823ed77d957e52a9616a26630948c3" target="_top" xlink:title=" ">
<polygon fill="#ffffff" stroke="#000000" points="368.5,-.5 368.5,-19.5 454.5,-19.5 454.5,-.5 368.5,-.5"/>
<text text-anchor="middle" x="411.5" y="-7.5" font-family="Helvetica,sans-Serif" font-size="10.00" fill="#000000">isAlmostEqual</text>
</a>
</g>
</g>
<!-- Node9&#45;&gt;Node10 -->
<g id="edge10" class="edge">
<title>Node9&#45;&gt;Node10</title>
<path fill="none" stroke="#191970" d="M525.6338,-10C502.7669,-10 476.4041,-10 454.78,-10"/>
<polygon fill="#191970" stroke="#191970" points="525.8646,-13.5001 535.8646,-10 525.8646,-6.5001 525.8646,-13.5001"/>
</g>
</g>
</svg>
