<?xml version="1.0" encoding="UTF-8" standalone="no"?>
<!DOCTYPE svg PUBLIC "-//W3C//DTD SVG 1.1//EN"
 "http://www.w3.org/Graphics/SVG/1.1/DTD/svg11.dtd">
<!-- Generated by graphviz version 2.40.1 (20161225.0304)
 -->
<!-- Title: /home/pieter/GitHub/Crypto/src/matrix/include/Array.hpp Pages: 1 -->
<svg width="806pt" height="362pt"
 viewBox="0.00 0.00 806.00 362.00" xmlns="http://www.w3.org/2000/svg" xmlns:xlink="http://www.w3.org/1999/xlink">
<g id="graph0" class="graph" transform="scale(1 1) rotate(0) translate(4 358)">
<title>/home/pieter/GitHub/Crypto/src/matrix/include/Array.hpp</title>
<polygon fill="#ffffff" stroke="transparent" points="-4,4 -4,-358 802,-358 802,4 -4,4"/>
<!-- Node7 -->
<g id="node1" class="node">
<title>Node7</title>
<g id="a_node1"><a xlink:title=" ">
<polygon fill="#bfbfbf" stroke="#000000" points="161,-312.5 161,-353.5 304,-353.5 304,-312.5 161,-312.5"/>
<text text-anchor="start" x="169" y="-341.5" font-family="Helvetica,sans-Serif" font-size="10.00" fill="#000000">/home/pieter/GitHub</text>
<text text-anchor="start" x="169" y="-330.5" font-family="Helvetica,sans-Serif" font-size="10.00" fill="#000000">/Crypto/src/matrix/include</text>
<text text-anchor="middle" x="232.5" y="-319.5" font-family="Helvetica,sans-Serif" font-size="10.00" fill="#000000">/Array.hpp</text>
</a>
</g>
</g>
<!-- Node8 -->
<g id="node2" class="node">
<title>Node8</title>
<g id="a_node2"><a xlink:href="AlmostEqual_8hpp.html" target="_top" xlink:title=" ">
<polygon fill="#ffffff" stroke="#000000" points="0,-234.5 0,-275.5 143,-275.5 143,-234.5 0,-234.5"/>
<text text-anchor="start" x="8" y="-263.5" font-family="Helvetica,sans-Serif" font-size="10.00" fill="#000000">/home/pieter/GitHub</text>
<text text-anchor="start" x="8" y="-252.5" font-family="Helvetica,sans-Serif" font-size="10.00" fill="#000000">/Crypto/src/matrix/include</text>
<text text-anchor="middle" x="71.5" y="-241.5" font-family="Helvetica,sans-Serif" font-size="10.00" fill="#000000">/AlmostEqual.hpp</text>
</a>
</g>
</g>
<!-- Node7&#45;&gt;Node8 -->
<g id="edge1" class="edge">
<title>Node7&#45;&gt;Node8</title>
<path fill="none" stroke="#191970" d="M180.7361,-307.9218C159.1344,-297.4564 134.355,-285.4515 113.8633,-275.5239"/>
<polygon fill="#191970" stroke="#191970" points="179.2521,-311.092 189.7776,-312.3022 182.3042,-304.7923 179.2521,-311.092"/>
</g>
<!-- Node9 -->
<g id="node3" class="node">
<title>Node9</title>
<g id="a_node3"><a xlink:href="ArrayHelpers_8hpp.html" target="_top" xlink:title=" ">
<polygon fill="#ffffff" stroke="#000000" points="161,-234.5 161,-275.5 304,-275.5 304,-234.5 161,-234.5"/>
<text text-anchor="start" x="169" y="-263.5" font-family="Helvetica,sans-Serif" font-size="10.00" fill="#000000">/home/pieter/GitHub</text>
<text text-anchor="start" x="169" y="-252.5" font-family="Helvetica,sans-Serif" font-size="10.00" fill="#000000">/Crypto/src/matrix/include</text>
<text text-anchor="middle" x="232.5" y="-241.5" font-family="Helvetica,sans-Serif" font-size="10.00" fill="#000000">/ArrayHelpers.hpp</text>
</a>
</g>
</g>
<!-- Node7&#45;&gt;Node9 -->
<g id="edge2" class="edge">
<title>Node7&#45;&gt;Node9</title>
<path fill="none" stroke="#191970" d="M232.5,-302.0789C232.5,-293.2178 232.5,-283.7747 232.5,-275.6898"/>
<polygon fill="#191970" stroke="#191970" points="229.0001,-302.0974 232.5,-312.0974 236.0001,-302.0975 229.0001,-302.0974"/>
</g>
<!-- Node11 -->
<g id="node5" class="node">
<title>Node11</title>
<g id="a_node5"><a xlink:href="Matrix_8hpp.html" target="_top" xlink:title=" ">
<polygon fill="#ffffff" stroke="#000000" points="336,-234.5 336,-275.5 479,-275.5 479,-234.5 336,-234.5"/>
<text text-anchor="start" x="344" y="-263.5" font-family="Helvetica,sans-Serif" font-size="10.00" fill="#000000">/home/pieter/GitHub</text>
<text text-anchor="start" x="344" y="-252.5" font-family="Helvetica,sans-Serif" font-size="10.00" fill="#000000">/Crypto/src/matrix/include</text>
<text text-anchor="middle" x="407.5" y="-241.5" font-family="Helvetica,sans-Serif" font-size="10.00" fill="#000000">/Matrix.hpp</text>
</a>
</g>
</g>
<!-- Node7&#45;&gt;Node11 -->
<g id="edge4" class="edge">
<title>Node7&#45;&gt;Node11</title>
<path fill="none" stroke="#191970" d="M288.137,-308.2018C311.7639,-297.671 338.9805,-285.5401 361.4529,-275.5239"/>
<polygon fill="#191970" stroke="#191970" points="286.6463,-305.0343 278.9373,-312.3022 289.496,-311.4279 286.6463,-305.0343"/>
</g>
<!-- Node10 -->
<g id="node4" class="node">
<title>Node10</title>
<g id="a_node4"><a xlink:href="MatrixHelpers_8hpp.html" target="_top" xlink:title=" ">
<polygon fill="#ffffff" stroke="#000000" points="154,-156.5 154,-197.5 297,-197.5 297,-156.5 154,-156.5"/>
<text text-anchor="start" x="162" y="-185.5" font-family="Helvetica,sans-Serif" font-size="10.00" fill="#000000">/home/pieter/GitHub</text>
<text text-anchor="start" x="162" y="-174.5" font-family="Helvetica,sans-Serif" font-size="10.00" fill="#000000">/Crypto/src/matrix/include</text>
<text text-anchor="middle" x="225.5" y="-163.5" font-family="Helvetica,sans-Serif" font-size="10.00" fill="#000000">/MatrixHelpers.hpp</text>
</a>
</g>
</g>
<!-- Node9&#45;&gt;Node10 -->
<g id="edge3" class="edge">
<title>Node9&#45;&gt;Node10</title>
<path fill="none" stroke="#191970" d="M229.725,-224.0789C228.9298,-215.2178 228.0823,-205.7747 227.3568,-197.6898"/>
<polygon fill="#191970" stroke="#191970" points="226.2442,-224.4503 230.6241,-234.0974 233.2162,-223.8246 226.2442,-224.4503"/>
</g>
<!-- Node11&#45;&gt;Node10 -->
<g id="edge12" class="edge">
<title>Node11&#45;&gt;Node10</title>
<path fill="none" stroke="#191970" d="M349.9635,-230.3415C325.3162,-219.7784 296.8637,-207.5844 273.389,-197.5239"/>
<polygon fill="#191970" stroke="#191970" points="348.635,-233.58 359.2052,-234.3022 351.3924,-227.146 348.635,-233.58"/>
</g>
<!-- Node12 -->
<g id="node6" class="node">
<title>Node12</title>
<g id="a_node6"><a xlink:href="GridFinder_8hpp.html" target="_top" xlink:title=" ">
<polygon fill="#ffffff" stroke="#000000" points="299.5,-.5 299.5,-41.5 427.5,-41.5 427.5,-.5 299.5,-.5"/>
<text text-anchor="start" x="307.5" y="-29.5" font-family="Helvetica,sans-Serif" font-size="10.00" fill="#000000">/home/pieter/GitHub</text>
<text text-anchor="start" x="307.5" y="-18.5" font-family="Helvetica,sans-Serif" font-size="10.00" fill="#000000">/Crypto/src/grid&#45;finder</text>
<text text-anchor="middle" x="363.5" y="-7.5" font-family="Helvetica,sans-Serif" font-size="10.00" fill="#000000">/include/GridFinder.hpp</text>
</a>
</g>
</g>
<!-- Node11&#45;&gt;Node12 -->
<g id="edge5" class="edge">
<title>Node11&#45;&gt;Node12</title>
<path fill="none" stroke="#191970" d="M367.3266,-227.8319C358.1124,-219.4441 349.5482,-209.3753 344.5,-198 321.182,-145.4572 341.7779,-75.8286 354.7848,-41.6789"/>
<polygon fill="#191970" stroke="#191970" points="365.2665,-230.674 375.1564,-234.4741 369.7948,-225.336 365.2665,-230.674"/>
</g>
<!-- Node13 -->
<g id="node7" class="node">
<title>Node13</title>
<g id="a_node7"><a xlink:href="Line_8hpp.html" target="_top" xlink:title=" ">
<polygon fill="#ffffff" stroke="#000000" points="353.5,-156.5 353.5,-197.5 475.5,-197.5 475.5,-156.5 353.5,-156.5"/>
<text text-anchor="start" x="361.5" y="-185.5" font-family="Helvetica,sans-Serif" font-size="10.00" fill="#000000">/home/pieter/GitHub</text>
<text text-anchor="start" x="361.5" y="-174.5" font-family="Helvetica,sans-Serif" font-size="10.00" fill="#000000">/Crypto/src/grid&#45;finder</text>
<text text-anchor="middle" x="414.5" y="-163.5" font-family="Helvetica,sans-Serif" font-size="10.00" fill="#000000">/include/Line.hpp</text>
</a>
</g>
</g>
<!-- Node11&#45;&gt;Node13 -->
<g id="edge6" class="edge">
<title>Node11&#45;&gt;Node13</title>
<path fill="none" stroke="#191970" d="M410.275,-224.0789C411.0702,-215.2178 411.9177,-205.7747 412.6432,-197.6898"/>
<polygon fill="#191970" stroke="#191970" points="406.7838,-223.8246 409.3759,-234.0974 413.7558,-224.4503 406.7838,-223.8246"/>
</g>
<!-- Node15 -->
<g id="node9" class="node">
<title>Node15</title>
<g id="a_node9"><a xlink:href="HouseholderQR_8hpp.html" target="_top" xlink:title=" ">
<polygon fill="#ffffff" stroke="#000000" points="494,-156.5 494,-197.5 637,-197.5 637,-156.5 494,-156.5"/>
<text text-anchor="start" x="502" y="-185.5" font-family="Helvetica,sans-Serif" font-size="10.00" fill="#000000">/home/pieter/GitHub</text>
<text text-anchor="start" x="502" y="-174.5" font-family="Helvetica,sans-Serif" font-size="10.00" fill="#000000">/Crypto/src/matrix/include</text>
<text text-anchor="middle" x="565.5" y="-163.5" font-family="Helvetica,sans-Serif" font-size="10.00" fill="#000000">/HouseholderQR.hpp</text>
</a>
</g>
</g>
<!-- Node11&#45;&gt;Node15 -->
<g id="edge10" class="edge">
<title>Node11&#45;&gt;Node15</title>
<path fill="none" stroke="#191970" d="M458.5835,-229.7816C479.7156,-219.3493 503.906,-207.4072 523.926,-197.5239"/>
<polygon fill="#191970" stroke="#191970" points="456.8438,-226.7371 449.4263,-234.3022 459.9425,-233.0139 456.8438,-226.7371"/>
</g>
<!-- Node17 -->
<g id="node11" class="node">
<title>Node17</title>
<g id="a_node11"><a xlink:href="Randn_8hpp.html" target="_top" xlink:title=" ">
<polygon fill="#ffffff" stroke="#000000" points="655,-156.5 655,-197.5 798,-197.5 798,-156.5 655,-156.5"/>
<text text-anchor="start" x="663" y="-185.5" font-family="Helvetica,sans-Serif" font-size="10.00" fill="#000000">/home/pieter/GitHub</text>
<text text-anchor="start" x="663" y="-174.5" font-family="Helvetica,sans-Serif" font-size="10.00" fill="#000000">/Crypto/src/matrix/include</text>
<text text-anchor="middle" x="726.5" y="-163.5" font-family="Helvetica,sans-Serif" font-size="10.00" fill="#000000">/Randn.hpp</text>
</a>
</g>
</g>
<!-- Node11&#45;&gt;Node17 -->
<g id="edge13" class="edge">
<title>Node11&#45;&gt;Node17</title>
<path fill="none" stroke="#191970" d="M489.2054,-235.9957C535.4297,-225.1234 594.2647,-211.083 646.5,-198 649.2858,-197.3023 652.1247,-196.5854 654.9912,-195.8566"/>
<polygon fill="#191970" stroke="#191970" points="488.1762,-232.6421 479.2415,-238.3362 489.7769,-239.4566 488.1762,-232.6421"/>
</g>
<!-- Node13&#45;&gt;Node12 -->
<g id="edge7" class="edge">
<title>Node13&#45;&gt;Node12</title>
<path fill="none" stroke="#191970" d="M396.2488,-147.4322C391.5435,-138.8293 386.8638,-129.2517 383.5,-120 373.9733,-93.7979 368.5654,-61.9538 365.835,-41.5837"/>
<polygon fill="#191970" stroke="#191970" points="393.3184,-149.3596 401.3034,-156.3231 399.4037,-145.8999 393.3184,-149.3596"/>
</g>
<!-- Node14 -->
<g id="node8" class="node">
<title>Node14</title>
<g id="a_node8"><a xlink:href="HelperStructs_8hpp.html" target="_top" xlink:title=" ">
<polygon fill="#ffffff" stroke="#000000" points="392,-78.5 392,-119.5 537,-119.5 537,-78.5 392,-78.5"/>
<text text-anchor="start" x="400" y="-107.5" font-family="Helvetica,sans-Serif" font-size="10.00" fill="#000000">/home/pieter/GitHub</text>
<text text-anchor="start" x="400" y="-96.5" font-family="Helvetica,sans-Serif" font-size="10.00" fill="#000000">/Crypto/src/grid&#45;finder</text>
<text text-anchor="middle" x="464.5" y="-85.5" font-family="Helvetica,sans-Serif" font-size="10.00" fill="#000000">/include/HelperStructs.hpp</text>
</a>
</g>
</g>
<!-- Node13&#45;&gt;Node14 -->
<g id="edge8" class="edge">
<title>Node13&#45;&gt;Node14</title>
<path fill="none" stroke="#191970" d="M433.3986,-147.5181C439.3409,-138.2482 445.773,-128.2141 451.2373,-119.6898"/>
<polygon fill="#191970" stroke="#191970" points="430.3492,-145.7898 427.8991,-156.0974 436.2424,-149.5675 430.3492,-145.7898"/>
</g>
<!-- Node14&#45;&gt;Node12 -->
<g id="edge9" class="edge">
<title>Node14&#45;&gt;Node12</title>
<path fill="none" stroke="#191970" d="M429.4639,-71.9424C416.543,-61.9639 402.1273,-50.831 390.0758,-41.5239"/>
<polygon fill="#191970" stroke="#191970" points="427.6451,-74.96 437.699,-78.3022 431.9237,-69.4198 427.6451,-74.96"/>
</g>
<!-- Node16 -->
<g id="node10" class="node">
<title>Node16</title>
<g id="a_node10"><a xlink:href="LeastSquares_8hpp.html" target="_top" xlink:title=" ">
<polygon fill="#ffffff" stroke="#000000" points="555,-78.5 555,-119.5 698,-119.5 698,-78.5 555,-78.5"/>
<text text-anchor="start" x="563" y="-107.5" font-family="Helvetica,sans-Serif" font-size="10.00" fill="#000000">/home/pieter/GitHub</text>
<text text-anchor="start" x="563" y="-96.5" font-family="Helvetica,sans-Serif" font-size="10.00" fill="#000000">/Crypto/src/matrix/include</text>
<text text-anchor="middle" x="626.5" y="-85.5" font-family="Helvetica,sans-Serif" font-size="10.00" fill="#000000">/LeastSquares.hpp</text>
</a>
</g>
</g>
<!-- Node15&#45;&gt;Node16 -->
<g id="edge11" class="edge">
<title>Node15&#45;&gt;Node16</title>
<path fill="none" stroke="#191970" d="M588.1087,-148.0905C595.4818,-138.6626 603.5156,-128.3899 610.3195,-119.6898"/>
<polygon fill="#191970" stroke="#191970" points="585.2503,-146.0641 581.8469,-156.0974 590.7643,-150.3764 585.2503,-146.0641"/>
</g>
</g>
</svg>
