<?xml version="1.0" encoding="UTF-8" standalone="no"?>
<!DOCTYPE svg PUBLIC "-//W3C//DTD SVG 1.1//EN"
 "http://www.w3.org/Graphics/SVG/1.1/DTD/svg11.dtd">
<!-- Generated by graphviz version 2.40.1 (20161225.0304)
 -->
<!-- Title: isfinite Pages: 1 -->
<svg width="169pt" height="66pt"
 viewBox="0.00 0.00 169.00 66.00" xmlns="http://www.w3.org/2000/svg" xmlns:xlink="http://www.w3.org/1999/xlink">
<g id="graph0" class="graph" transform="scale(1 1) rotate(0) translate(4 62)">
<title>isfinite</title>
<polygon fill="#ffffff" stroke="transparent" points="-4,4 -4,-62 165,-62 165,4 -4,4"/>
<!-- Node11 -->
<g id="node1" class="node">
<title>Node11</title>
<g id="a_node1"><a xlink:title=" ">
<polygon fill="#bfbfbf" stroke="#000000" points="0,-19.5 0,-38.5 50,-38.5 50,-19.5 0,-19.5"/>
<text text-anchor="middle" x="25" y="-26.5" font-family="Helvetica,sans-Serif" font-size="10.00" fill="#000000">isfinite</text>
</a>
</g>
</g>
<!-- Node12 -->
<g id="node2" class="node">
<title>Node12</title>
<g id="a_node2"><a xlink:href="structArray.html#a9e1b59b422182878c7909c6ca7bfa430" target="_top" xlink:title=" ">
<polygon fill="#ffffff" stroke="#000000" points="86,-38.5 86,-57.5 161,-57.5 161,-38.5 86,-38.5"/>
<text text-anchor="middle" x="123.5" y="-45.5" font-family="Helvetica,sans-Serif" font-size="10.00" fill="#000000">Array::begin</text>
</a>
</g>
</g>
<!-- Node11&#45;&gt;Node12 -->
<g id="edge1" class="edge">
<title>Node11&#45;&gt;Node12</title>
<path fill="none" stroke="#191970" d="M50.1106,-33.8437C57.979,-35.3614 66.9396,-37.0899 75.8313,-38.805"/>
<polygon fill="#191970" stroke="#191970" points="75.2974,-42.2665 85.7793,-40.7239 76.6232,-35.3932 75.2974,-42.2665"/>
</g>
<!-- Node13 -->
<g id="node3" class="node">
<title>Node13</title>
<g id="a_node3"><a xlink:href="structArray.html#ab2762fef4f8caa072636dde951d90702" target="_top" xlink:title=" ">
<polygon fill="#ffffff" stroke="#000000" points="90.5,-.5 90.5,-19.5 156.5,-19.5 156.5,-.5 90.5,-.5"/>
<text text-anchor="middle" x="123.5" y="-7.5" font-family="Helvetica,sans-Serif" font-size="10.00" fill="#000000">Array::end</text>
</a>
</g>
</g>
<!-- Node11&#45;&gt;Node13 -->
<g id="edge2" class="edge">
<title>Node11&#45;&gt;Node13</title>
<path fill="none" stroke="#191970" d="M50.1106,-24.1563C59.2588,-22.3917 69.8833,-20.3423 80.1596,-18.3601"/>
<polygon fill="#191970" stroke="#191970" points="81.0961,-21.744 90.2522,-16.4133 79.7702,-14.8707 81.0961,-21.744"/>
</g>
</g>
</svg>
