<?xml version="1.0" encoding="UTF-8" standalone="no"?>
<!DOCTYPE svg PUBLIC "-//W3C//DTD SVG 1.1//EN"
 "http://www.w3.org/Graphics/SVG/1.1/DTD/svg11.dtd">
<!-- Generated by graphviz version 2.40.1 (20161225.0304)
 -->
<!-- Title: abs Pages: 1 -->
<svg width="903pt" height="192pt"
 viewBox="0.00 0.00 903.00 191.50" xmlns="http://www.w3.org/2000/svg" xmlns:xlink="http://www.w3.org/1999/xlink">
<g id="graph0" class="graph" transform="scale(1 1) rotate(0) translate(4 187.5)">
<title>abs</title>
<polygon fill="#ffffff" stroke="transparent" points="-4,4 -4,-187.5 899,-187.5 899,4 -4,4"/>
<!-- Node1 -->
<g id="node1" class="node">
<title>Node1</title>
<g id="a_node1"><a xlink:title=" ">
<polygon fill="#bfbfbf" stroke="#000000" points="861,-57.5 861,-76.5 895,-76.5 895,-57.5 861,-57.5"/>
<text text-anchor="middle" x="878" y="-64.5" font-family="Helvetica,sans-Serif" font-size="10.00" fill="#000000">abs</text>
</a>
</g>
</g>
<!-- Node2 -->
<g id="node2" class="node">
<title>Node2</title>
<g id="a_node2"><a xlink:href="classGridFinder.html#abcd46f31e256080b2d5d2aee03c0e258" target="_top" xlink:title="Find the middle of a line.">
<polygon fill="#ffffff" stroke="#000000" points="705,-114.5 705,-133.5 825,-133.5 825,-114.5 705,-114.5"/>
<text text-anchor="middle" x="765" y="-121.5" font-family="Helvetica,sans-Serif" font-size="10.00" fill="#000000">GridFinder::getMiddle</text>
</a>
</g>
</g>
<!-- Node1&#45;&gt;Node2 -->
<g id="edge1" class="edge">
<title>Node1&#45;&gt;Node2</title>
<path fill="none" stroke="#191970" d="M855.4229,-82.2829C846.2014,-88.1981 835.2988,-94.7853 825,-100 814.3903,-105.3721 802.2799,-110.4102 791.7305,-114.4698"/>
<polygon fill="#191970" stroke="#191970" points="857.5505,-85.0734 863.9995,-76.6674 853.716,-79.2171 857.5505,-85.0734"/>
</g>
<!-- Node8 -->
<g id="node8" class="node">
<title>Node8</title>
<g id="a_node8"><a xlink:href="classGridFinder.html#a8940ca681fac78274043cf5f1f1f5761" target="_top" xlink:title="This is the main function: it looks for a complete square of the grid, as close to the center of the ...">
<polygon fill="#ffffff" stroke="#000000" points="191,-76.5 191,-95.5 315,-95.5 315,-76.5 191,-76.5"/>
<text text-anchor="middle" x="253" y="-83.5" font-family="Helvetica,sans-Serif" font-size="10.00" fill="#000000">GridFinder::findSquare</text>
</a>
</g>
</g>
<!-- Node1&#45;&gt;Node8 -->
<g id="edge9" class="edge">
<title>Node1&#45;&gt;Node8</title>
<path fill="none" stroke="#191970" d="M850.9241,-67.8231C757.6836,-70.6576 448.3276,-80.062 315.0127,-84.1148"/>
<polygon fill="#191970" stroke="#191970" points="851.0696,-71.3204 860.9586,-67.5181 850.8569,-64.3236 851.0696,-71.3204"/>
</g>
<!-- Node10 -->
<g id="node10" class="node">
<title>Node10</title>
<g id="a_node10"><a xlink:href="namespaceFallback.html#a505e4b4c630f9c62620d4308773ea4b7" target="_top" xlink:title="Calculate the mask of 16 pixels of the RGB image, and store the mask in second parameter.">
<polygon fill="#ffffff" stroke="#000000" points="707.5,-38.5 707.5,-57.5 822.5,-57.5 822.5,-38.5 707.5,-38.5"/>
<text text-anchor="middle" x="765" y="-45.5" font-family="Helvetica,sans-Serif" font-size="10.00" fill="#000000">Fallback::applyMask</text>
</a>
</g>
</g>
<!-- Node1&#45;&gt;Node10 -->
<g id="edge10" class="edge">
<title>Node1&#45;&gt;Node10</title>
<path fill="none" stroke="#191970" d="M850.7947,-62.4257C841.9502,-60.9385 831.7818,-59.2288 821.6086,-57.5183"/>
<polygon fill="#191970" stroke="#191970" points="850.3958,-65.9076 860.8377,-64.1143 851.5565,-59.0045 850.3958,-65.9076"/>
</g>
<!-- Node11 -->
<g id="node11" class="node">
<title>Node11</title>
<g id="a_node11"><a xlink:href="AlmostEqual_8hpp.html#ad6e6b9a489dce5404854e1513e988e0c" target="_top" xlink:title=" ">
<polygon fill="#ffffff" stroke="#000000" points="722,-.5 722,-19.5 808,-19.5 808,-.5 722,-.5"/>
<text text-anchor="middle" x="765" y="-7.5" font-family="Helvetica,sans-Serif" font-size="10.00" fill="#000000">isAlmostEqual</text>
</a>
</g>
</g>
<!-- Node1&#45;&gt;Node11 -->
<g id="edge11" class="edge">
<title>Node1&#45;&gt;Node11</title>
<path fill="none" stroke="#191970" d="M858.7913,-50.9761C849.1198,-43.5107 836.9359,-34.9785 825,-29 817.6729,-25.33 809.4892,-22.1796 801.5796,-19.5593"/>
<polygon fill="#191970" stroke="#191970" points="856.8861,-53.9333 866.8879,-57.4284 861.2487,-48.4589 856.8861,-53.9333"/>
</g>
<!-- Node3 -->
<g id="node3" class="node">
<title>Node3</title>
<g id="a_node3"><a xlink:href="classGridFinder.html#af830abf29ca6dc9c01197a38fe16e1e5" target="_top" xlink:title="In exceptional cases, we might want to find the middle of a line in a point that happens to lie at th...">
<polygon fill="#ffffff" stroke="#000000" points="526,-153 526,-183 669,-183 669,-153 526,-153"/>
<text text-anchor="start" x="534" y="-171" font-family="Helvetica,sans-Serif" font-size="10.00" fill="#000000">GridFinder::getMiddleWith</text>
<text text-anchor="middle" x="597.5" y="-160" font-family="Helvetica,sans-Serif" font-size="10.00" fill="#000000">Retries</text>
</a>
</g>
</g>
<!-- Node2&#45;&gt;Node3 -->
<g id="edge2" class="edge">
<title>Node2&#45;&gt;Node3</title>
<path fill="none" stroke="#191970" d="M718.9475,-136.0974C699.1369,-141.3013 675.7702,-147.4395 654.8511,-152.9346"/>
<polygon fill="#191970" stroke="#191970" points="719.8724,-139.4732 728.655,-133.5473 718.0939,-132.7029 719.8724,-139.4732"/>
</g>
<!-- Node5 -->
<g id="node5" class="node">
<title>Node5</title>
<g id="a_node5"><a xlink:href="classGridFinder.html#ae12ca7921b02b37417d87fc737f0134d" target="_top" xlink:title="Check if there could be a valid line going through the given point, and if so, find and return the ac...">
<polygon fill="#ffffff" stroke="#000000" points="537,-114.5 537,-133.5 658,-133.5 658,-114.5 537,-114.5"/>
<text text-anchor="middle" x="597.5" y="-121.5" font-family="Helvetica,sans-Serif" font-size="10.00" fill="#000000">GridFinder::checkLine</text>
</a>
</g>
</g>
<!-- Node2&#45;&gt;Node5 -->
<g id="edge4" class="edge">
<title>Node2&#45;&gt;Node5</title>
<path fill="none" stroke="#191970" d="M694.4935,-124C682.4141,-124 669.9577,-124 658.1638,-124"/>
<polygon fill="#191970" stroke="#191970" points="694.5287,-127.5001 704.5287,-124 694.5286,-120.5001 694.5287,-127.5001"/>
</g>
<!-- Node4 -->
<g id="node4" class="node">
<title>Node4</title>
<g id="a_node4"><a xlink:href="classGridFinder.html#aaea3af418ab7124f2b25bcc124fccaca" target="_top" xlink:title="Get an estimate of the line through a given pixel. Find an estimate of the slope, then use that to de...">
<polygon fill="#ffffff" stroke="#000000" points="359,-153 359,-183 487,-183 487,-153 359,-153"/>
<text text-anchor="start" x="367" y="-171" font-family="Helvetica,sans-Serif" font-size="10.00" fill="#000000">GridFinder::getFirstLine</text>
<text text-anchor="middle" x="423" y="-160" font-family="Helvetica,sans-Serif" font-size="10.00" fill="#000000">Estimate</text>
</a>
</g>
</g>
<!-- Node3&#45;&gt;Node4 -->
<g id="edge3" class="edge">
<title>Node3&#45;&gt;Node4</title>
<path fill="none" stroke="#191970" d="M515.5054,-168C505.9971,-168 496.4052,-168 487.1837,-168"/>
<polygon fill="#191970" stroke="#191970" points="515.7688,-171.5001 525.7688,-168 515.7687,-164.5001 515.7688,-171.5001"/>
</g>
<!-- Node6 -->
<g id="node6" class="node">
<title>Node6</title>
<g id="a_node6"><a xlink:href="classGridFinder.html#a54369e6368334eb2924ca70ee1f1d438" target="_top" xlink:title="Follow the given line to find the line perpendicular to it. Move along the line for minDistance pixel...">
<polygon fill="#ffffff" stroke="#000000" points="356,-114.5 356,-133.5 490,-133.5 490,-114.5 356,-114.5"/>
<text text-anchor="middle" x="423" y="-121.5" font-family="Helvetica,sans-Serif" font-size="10.00" fill="#000000">GridFinder::findNextLine</text>
</a>
</g>
</g>
<!-- Node5&#45;&gt;Node6 -->
<g id="edge5" class="edge">
<title>Node5&#45;&gt;Node6</title>
<path fill="none" stroke="#191970" d="M526.9271,-124C514.8358,-124 502.3005,-124 490.2976,-124"/>
<polygon fill="#191970" stroke="#191970" points="526.9581,-127.5001 536.9581,-124 526.9581,-120.5001 526.9581,-127.5001"/>
</g>
<!-- Node7 -->
<g id="node7" class="node">
<title>Node7</title>
<g id="a_node7"><a xlink:href="classGridFinder.html#a3edbd3ffbcfe6d373fbaf576e4dca51b" target="_top" xlink:title="Equivalent to #findNextLine(LineResult,bool,uint,uint) but also supports optional LineResults.">
<polygon fill="#ffffff" stroke="#000000" points="186,-114.5 186,-133.5 320,-133.5 320,-114.5 186,-114.5"/>
<text text-anchor="middle" x="253" y="-121.5" font-family="Helvetica,sans-Serif" font-size="10.00" fill="#000000">GridFinder::findNextLine</text>
</a>
</g>
</g>
<!-- Node6&#45;&gt;Node7 -->
<g id="edge6" class="edge">
<title>Node6&#45;&gt;Node7</title>
<path fill="none" stroke="#191970" d="M345.5754,-124C337.1241,-124 328.5721,-124 320.2572,-124"/>
<polygon fill="#191970" stroke="#191970" points="345.8115,-127.5001 355.8115,-124 345.8115,-120.5001 345.8115,-127.5001"/>
</g>
<!-- Node6&#45;&gt;Node8 -->
<g id="edge7" class="edge">
<title>Node6&#45;&gt;Node8</title>
<path fill="none" stroke="#191970" d="M370.1019,-112.1757C346.135,-106.8184 318.1765,-100.5689 295.5897,-95.5201"/>
<polygon fill="#191970" stroke="#191970" points="369.5791,-115.6452 380.1018,-114.411 371.1062,-108.8138 369.5791,-115.6452"/>
</g>
<!-- Node9 -->
<g id="node9" class="node">
<title>Node9</title>
<g id="a_node9"><a xlink:href="classLocationFinder.html#a398bb42565e1e2a499471765f569bc40" target="_top" xlink:title=" ">
<polygon fill="#ffffff" stroke="#000000" points="0,-76.5 0,-95.5 150,-95.5 150,-76.5 0,-76.5"/>
<text text-anchor="middle" x="75" y="-83.5" font-family="Helvetica,sans-Serif" font-size="10.00" fill="#000000">LocationFinder::getLocation</text>
</a>
</g>
</g>
<!-- Node8&#45;&gt;Node9 -->
<g id="edge8" class="edge">
<title>Node8&#45;&gt;Node9</title>
<path fill="none" stroke="#191970" d="M180.4379,-86C170.4268,-86 160.1282,-86 150.0729,-86"/>
<polygon fill="#191970" stroke="#191970" points="180.7443,-89.5001 190.7442,-86 180.7442,-82.5001 180.7443,-89.5001"/>
</g>
<!-- Node12 -->
<g id="node12" class="node">
<title>Node12</title>
<g id="a_node12"><a xlink:href="AlmostEqual_8hpp.html#a04823ed77d957e52a9616a26630948c3" target="_top" xlink:title=" ">
<polygon fill="#ffffff" stroke="#000000" points="554.5,-.5 554.5,-19.5 640.5,-19.5 640.5,-.5 554.5,-.5"/>
<text text-anchor="middle" x="597.5" y="-7.5" font-family="Helvetica,sans-Serif" font-size="10.00" fill="#000000">isAlmostEqual</text>
</a>
</g>
</g>
<!-- Node11&#45;&gt;Node12 -->
<g id="edge12" class="edge">
<title>Node11&#45;&gt;Node12</title>
<path fill="none" stroke="#191970" d="M711.6338,-10C688.7669,-10 662.4041,-10 640.78,-10"/>
<polygon fill="#191970" stroke="#191970" points="711.8646,-13.5001 721.8646,-10 711.8646,-6.5001 711.8646,-13.5001"/>
</g>
</g>
</svg>
