<?xml version="1.0" encoding="UTF-8" standalone="no"?>
<!DOCTYPE svg PUBLIC "-//W3C//DTD SVG 1.1//EN"
 "http://www.w3.org/Graphics/SVG/1.1/DTD/svg11.dtd">
<!-- Generated by graphviz version 2.40.1 (20161225.0304)
 -->
<!-- Title: /home/pieter/GitHub/Crypto/src/matrix/include/ArrayHelpers.hpp Pages: 1 -->
<svg width="441pt" height="162pt"
 viewBox="0.00 0.00 441.00 162.00" xmlns="http://www.w3.org/2000/svg" xmlns:xlink="http://www.w3.org/1999/xlink">
<g id="graph0" class="graph" transform="scale(1 1) rotate(0) translate(4 158)">
<title>/home/pieter/GitHub/Crypto/src/matrix/include/ArrayHelpers.hpp</title>
<polygon fill="#ffffff" stroke="transparent" points="-4,4 -4,-158 437,-158 437,4 -4,4"/>
<!-- Node0 -->
<g id="node1" class="node">
<title>Node0</title>
<g id="a_node1"><a xlink:title=" ">
<polygon fill="#bfbfbf" stroke="#000000" points="31.5,-112.5 31.5,-153.5 174.5,-153.5 174.5,-112.5 31.5,-112.5"/>
<text text-anchor="start" x="39.5" y="-141.5" font-family="Helvetica,sans-Serif" font-size="10.00" fill="#000000">/home/pieter/GitHub</text>
<text text-anchor="start" x="39.5" y="-130.5" font-family="Helvetica,sans-Serif" font-size="10.00" fill="#000000">/Crypto/src/matrix/include</text>
<text text-anchor="middle" x="103" y="-119.5" font-family="Helvetica,sans-Serif" font-size="10.00" fill="#000000">/ArrayHelpers.hpp</text>
</a>
</g>
</g>
<!-- Node1 -->
<g id="node2" class="node">
<title>Node1</title>
<g id="a_node2"><a xlink:href="Array_8hpp.html" target="_top" xlink:title=" ">
<polygon fill="#ffffff" stroke="#000000" points="143,-56.5 143,-75.5 205,-75.5 205,-56.5 143,-56.5"/>
<text text-anchor="middle" x="174" y="-63.5" font-family="Helvetica,sans-Serif" font-size="10.00" fill="#000000">Array.hpp</text>
</a>
</g>
</g>
<!-- Node0&#45;&gt;Node1 -->
<g id="edge1" class="edge">
<title>Node0&#45;&gt;Node1</title>
<path fill="none" stroke="#191970" d="M125.0757,-112.168C135.1253,-102.6846 146.8582,-91.6127 156.3146,-82.689"/>
<polygon fill="#191970" stroke="#191970" points="158.7648,-85.1893 163.6356,-75.7805 153.9605,-80.0982 158.7648,-85.1893"/>
</g>
<!-- Node2 -->
<g id="node3" class="node">
<title>Node2</title>
<g id="a_node3"><a xlink:title=" ">
<polygon fill="#ffffff" stroke="#bfbfbf" points="0,-.5 0,-19.5 64,-19.5 64,-.5 0,-.5"/>
<text text-anchor="middle" x="32" y="-7.5" font-family="Helvetica,sans-Serif" font-size="10.00" fill="#000000">algorithm</text>
</a>
</g>
</g>
<!-- Node0&#45;&gt;Node2 -->
<g id="edge8" class="edge">
<title>Node0&#45;&gt;Node2</title>
<path fill="none" stroke="#191970" d="M91.1162,-112.4126C77.5674,-88.9408 55.6193,-50.918 42.6207,-28.3993"/>
<polygon fill="#191970" stroke="#191970" points="45.5248,-26.4291 37.4942,-19.5182 39.4623,-29.9286 45.5248,-26.4291"/>
</g>
<!-- Node1&#45;&gt;Node2 -->
<g id="edge2" class="edge">
<title>Node1&#45;&gt;Node2</title>
<path fill="none" stroke="#191970" d="M149.5893,-56.3733C126.3858,-47.2226 91.2962,-33.3844 65.4858,-23.2057"/>
<polygon fill="#191970" stroke="#191970" points="66.6789,-19.9139 56.0921,-19.5011 64.1108,-26.4258 66.6789,-19.9139"/>
</g>
<!-- Node3 -->
<g id="node4" class="node">
<title>Node3</title>
<g id="a_node4"><a xlink:title=" ">
<polygon fill="#ffffff" stroke="#bfbfbf" points="82.5,-.5 82.5,-19.5 129.5,-19.5 129.5,-.5 82.5,-.5"/>
<text text-anchor="middle" x="106" y="-7.5" font-family="Helvetica,sans-Serif" font-size="10.00" fill="#000000">cmath</text>
</a>
</g>
</g>
<!-- Node1&#45;&gt;Node3 -->
<g id="edge3" class="edge">
<title>Node1&#45;&gt;Node3</title>
<path fill="none" stroke="#191970" d="M162.1553,-56.2455C152.112,-47.9746 137.5005,-35.9416 125.6996,-26.2232"/>
<polygon fill="#191970" stroke="#191970" points="127.6533,-23.298 117.709,-19.6427 123.2033,-28.7015 127.6533,-23.298"/>
</g>
<!-- Node4 -->
<g id="node5" class="node">
<title>Node4</title>
<g id="a_node5"><a xlink:title=" ">
<polygon fill="#ffffff" stroke="#bfbfbf" points="147.5,-.5 147.5,-19.5 200.5,-19.5 200.5,-.5 147.5,-.5"/>
<text text-anchor="middle" x="174" y="-7.5" font-family="Helvetica,sans-Serif" font-size="10.00" fill="#000000">cstddef</text>
</a>
</g>
</g>
<!-- Node1&#45;&gt;Node4 -->
<g id="edge4" class="edge">
<title>Node1&#45;&gt;Node4</title>
<path fill="none" stroke="#191970" d="M174,-56.2455C174,-48.9382 174,-38.6944 174,-29.7046"/>
<polygon fill="#191970" stroke="#191970" points="177.5001,-29.6426 174,-19.6427 170.5001,-29.6427 177.5001,-29.6426"/>
</g>
<!-- Node5 -->
<g id="node6" class="node">
<title>Node5</title>
<g id="a_node6"><a xlink:title=" ">
<polygon fill="#ffffff" stroke="#bfbfbf" points="219,-.5 219,-19.5 275,-19.5 275,-.5 219,-.5"/>
<text text-anchor="middle" x="247" y="-7.5" font-family="Helvetica,sans-Serif" font-size="10.00" fill="#000000">numeric</text>
</a>
</g>
</g>
<!-- Node1&#45;&gt;Node5 -->
<g id="edge5" class="edge">
<title>Node1&#45;&gt;Node5</title>
<path fill="none" stroke="#191970" d="M186.7156,-56.2455C197.602,-47.8943 213.4883,-35.7076 226.22,-25.9408"/>
<polygon fill="#191970" stroke="#191970" points="228.6261,-28.5063 234.4301,-19.6427 224.3654,-22.9523 228.6261,-28.5063"/>
</g>
<!-- Node6 -->
<g id="node7" class="node">
<title>Node6</title>
<g id="a_node7"><a xlink:title=" ">
<polygon fill="#ffffff" stroke="#bfbfbf" points="293.5,-.5 293.5,-19.5 362.5,-19.5 362.5,-.5 293.5,-.5"/>
<text text-anchor="middle" x="328" y="-7.5" font-family="Helvetica,sans-Serif" font-size="10.00" fill="#000000">type_traits</text>
</a>
</g>
</g>
<!-- Node1&#45;&gt;Node6 -->
<g id="edge6" class="edge">
<title>Node1&#45;&gt;Node6</title>
<path fill="none" stroke="#191970" d="M200.4735,-56.3733C225.8597,-47.1419 264.3645,-33.1402 292.422,-22.9375"/>
<polygon fill="#191970" stroke="#191970" points="293.6701,-26.2079 301.8719,-19.5011 291.2778,-19.6293 293.6701,-26.2079"/>
</g>
<!-- Node7 -->
<g id="node8" class="node">
<title>Node7</title>
<g id="a_node8"><a xlink:title=" ">
<polygon fill="#ffffff" stroke="#bfbfbf" points="381,-.5 381,-19.5 433,-19.5 433,-.5 381,-.5"/>
<text text-anchor="middle" x="407" y="-7.5" font-family="Helvetica,sans-Serif" font-size="10.00" fill="#000000">cassert</text>
</a>
</g>
</g>
<!-- Node1&#45;&gt;Node7 -->
<g id="edge7" class="edge">
<title>Node1&#45;&gt;Node7</title>
<path fill="none" stroke="#191970" d="M205.325,-59.2304C242.5477,-51.0754 306.7456,-36.6626 370.8047,-20.2239"/>
<polygon fill="#191970" stroke="#191970" points="371.8585,-23.5667 380.6653,-17.6768 370.1077,-16.7891 371.8585,-23.5667"/>
</g>
</g>
</svg>
