<?xml version="1.0" encoding="UTF-8" standalone="no"?>
<!DOCTYPE svg PUBLIC "-//W3C//DTD SVG 1.1//EN"
 "http://www.w3.org/Graphics/SVG/1.1/DTD/svg11.dtd">
<!-- Generated by graphviz version 2.40.1 (20161225.0304)
 -->
<!-- Title: generatedArray Pages: 1 -->
<svg width="211pt" height="66pt"
 viewBox="0.00 0.00 211.00 66.00" xmlns="http://www.w3.org/2000/svg" xmlns:xlink="http://www.w3.org/1999/xlink">
<g id="graph0" class="graph" transform="scale(1 1) rotate(0) translate(4 62)">
<title>generatedArray</title>
<polygon fill="#ffffff" stroke="transparent" points="-4,4 -4,-62 207,-62 207,4 -4,4"/>
<!-- Node4 -->
<g id="node1" class="node">
<title>Node4</title>
<g id="a_node1"><a xlink:title="Generate an array where the first value is given, and the subsequent values are calculated as the pre...">
<polygon fill="#bfbfbf" stroke="#000000" points="0,-19.5 0,-38.5 92,-38.5 92,-19.5 0,-19.5"/>
<text text-anchor="middle" x="46" y="-26.5" font-family="Helvetica,sans-Serif" font-size="10.00" fill="#000000">generatedArray</text>
</a>
</g>
</g>
<!-- Node5 -->
<g id="node2" class="node">
<title>Node5</title>
<g id="a_node2"><a xlink:href="structArray.html#ab4b771d23fc515ab924670f80316739e" target="_top" xlink:title=" ">
<polygon fill="#ffffff" stroke="#000000" points="128,-38.5 128,-57.5 203,-57.5 203,-38.5 128,-38.5"/>
<text text-anchor="middle" x="165.5" y="-45.5" font-family="Helvetica,sans-Serif" font-size="10.00" fill="#000000">Array::begin</text>
</a>
</g>
</g>
<!-- Node4&#45;&gt;Node5 -->
<g id="edge1" class="edge">
<title>Node4&#45;&gt;Node5</title>
<path fill="none" stroke="#191970" d="M92.2018,-36.3459C100.6066,-37.6822 109.3889,-39.0786 117.835,-40.4215"/>
<polygon fill="#191970" stroke="#191970" points="117.4971,-43.9116 127.9226,-42.0254 118.5963,-36.9985 117.4971,-43.9116"/>
</g>
<!-- Node6 -->
<g id="node3" class="node">
<title>Node6</title>
<g id="a_node3"><a xlink:href="structArray.html#a325651933815bbdea330a2c576c274cd" target="_top" xlink:title=" ">
<polygon fill="#ffffff" stroke="#000000" points="132.5,-.5 132.5,-19.5 198.5,-19.5 198.5,-.5 132.5,-.5"/>
<text text-anchor="middle" x="165.5" y="-7.5" font-family="Helvetica,sans-Serif" font-size="10.00" fill="#000000">Array::end</text>
</a>
</g>
</g>
<!-- Node4&#45;&gt;Node6 -->
<g id="edge2" class="edge">
<title>Node4&#45;&gt;Node6</title>
<path fill="none" stroke="#191970" d="M92.2018,-21.6541C102.1459,-20.073 112.6185,-18.4079 122.4375,-16.8468"/>
<polygon fill="#191970" stroke="#191970" points="123.0573,-20.2923 132.3837,-15.2654 121.9581,-13.3791 123.0573,-20.2923"/>
</g>
</g>
</svg>
