<?xml version="1.0" encoding="UTF-8" standalone="no"?>
<!DOCTYPE svg PUBLIC "-//W3C//DTD SVG 1.1//EN"
 "http://www.w3.org/Graphics/SVG/1.1/DTD/svg11.dtd">
<!-- Generated by graphviz version 2.40.1 (20161225.0304)
 -->
<!-- Title: /home/pieter/GitHub/EAGLE&#45;ZYBO&#45;Linux/src/matrix/include/Array.hpp Pages: 1 -->
<svg width="951pt" height="362pt"
 viewBox="0.00 0.00 950.50 362.00" xmlns="http://www.w3.org/2000/svg" xmlns:xlink="http://www.w3.org/1999/xlink">
<g id="graph0" class="graph" transform="scale(1 1) rotate(0) translate(4 358)">
<title>/home/pieter/GitHub/EAGLE&#45;ZYBO&#45;Linux/src/matrix/include/Array.hpp</title>
<polygon fill="#ffffff" stroke="transparent" points="-4,4 -4,-358 946.5,-358 946.5,4 -4,4"/>
<!-- Node7 -->
<g id="node1" class="node">
<title>Node7</title>
<g id="a_node1"><a xlink:title=" ">
<polygon fill="#bfbfbf" stroke="#000000" points="213.5,-312.5 213.5,-353.5 352.5,-353.5 352.5,-312.5 213.5,-312.5"/>
<text text-anchor="start" x="221.5" y="-341.5" font-family="Helvetica,sans-Serif" font-size="10.00" fill="#000000">/home/pieter/GitHub</text>
<text text-anchor="start" x="221.5" y="-330.5" font-family="Helvetica,sans-Serif" font-size="10.00" fill="#000000">/EAGLE&#45;ZYBO&#45;Linux/src</text>
<text text-anchor="middle" x="283" y="-319.5" font-family="Helvetica,sans-Serif" font-size="10.00" fill="#000000">/matrix/include/Array.hpp</text>
</a>
</g>
</g>
<!-- Node8 -->
<g id="node2" class="node">
<title>Node8</title>
<g id="a_node2"><a xlink:href="AlmostEqual_8hpp.html" target="_top" xlink:title=" ">
<polygon fill="#ffffff" stroke="#000000" points="0,-234.5 0,-275.5 176,-275.5 176,-234.5 0,-234.5"/>
<text text-anchor="start" x="8" y="-263.5" font-family="Helvetica,sans-Serif" font-size="10.00" fill="#000000">/home/pieter/GitHub</text>
<text text-anchor="start" x="8" y="-252.5" font-family="Helvetica,sans-Serif" font-size="10.00" fill="#000000">/EAGLE&#45;ZYBO&#45;Linux/src</text>
<text text-anchor="middle" x="88" y="-241.5" font-family="Helvetica,sans-Serif" font-size="10.00" fill="#000000">/matrix/include/AlmostEqual.hpp</text>
</a>
</g>
</g>
<!-- Node7&#45;&gt;Node8 -->
<g id="edge1" class="edge">
<title>Node7&#45;&gt;Node8</title>
<path fill="none" stroke="#191970" d="M221.9553,-308.5821C195.455,-297.982 164.7571,-285.7028 139.4392,-275.5757"/>
<polygon fill="#191970" stroke="#191970" points="220.9263,-311.9401 231.511,-312.4044 223.5261,-305.4408 220.9263,-311.9401"/>
</g>
<!-- Node9 -->
<g id="node3" class="node">
<title>Node9</title>
<g id="a_node3"><a xlink:href="ArrayHelpers_8hpp.html" target="_top" xlink:title=" ">
<polygon fill="#ffffff" stroke="#000000" points="194,-234.5 194,-275.5 372,-275.5 372,-234.5 194,-234.5"/>
<text text-anchor="start" x="202" y="-263.5" font-family="Helvetica,sans-Serif" font-size="10.00" fill="#000000">/home/pieter/GitHub</text>
<text text-anchor="start" x="202" y="-252.5" font-family="Helvetica,sans-Serif" font-size="10.00" fill="#000000">/EAGLE&#45;ZYBO&#45;Linux/src</text>
<text text-anchor="middle" x="283" y="-241.5" font-family="Helvetica,sans-Serif" font-size="10.00" fill="#000000">/matrix/include/ArrayHelpers.hpp</text>
</a>
</g>
</g>
<!-- Node7&#45;&gt;Node9 -->
<g id="edge2" class="edge">
<title>Node7&#45;&gt;Node9</title>
<path fill="none" stroke="#191970" d="M283,-302.0789C283,-293.2178 283,-283.7747 283,-275.6898"/>
<polygon fill="#191970" stroke="#191970" points="279.5001,-302.0974 283,-312.0974 286.5001,-302.0975 279.5001,-302.0974"/>
</g>
<!-- Node11 -->
<g id="node5" class="node">
<title>Node11</title>
<g id="a_node5"><a xlink:href="Matrix_8hpp.html" target="_top" xlink:title=" ">
<polygon fill="#ffffff" stroke="#000000" points="411.5,-234.5 411.5,-275.5 556.5,-275.5 556.5,-234.5 411.5,-234.5"/>
<text text-anchor="start" x="419.5" y="-263.5" font-family="Helvetica,sans-Serif" font-size="10.00" fill="#000000">/home/pieter/GitHub</text>
<text text-anchor="start" x="419.5" y="-252.5" font-family="Helvetica,sans-Serif" font-size="10.00" fill="#000000">/EAGLE&#45;ZYBO&#45;Linux/src</text>
<text text-anchor="middle" x="484" y="-241.5" font-family="Helvetica,sans-Serif" font-size="10.00" fill="#000000">/matrix/include/Matrix.hpp</text>
</a>
</g>
</g>
<!-- Node7&#45;&gt;Node11 -->
<g id="edge4" class="edge">
<title>Node7&#45;&gt;Node11</title>
<path fill="none" stroke="#191970" d="M345.5638,-308.7215C372.9611,-298.0897 404.7667,-285.7473 430.9781,-275.5757"/>
<polygon fill="#191970" stroke="#191970" points="344.1297,-305.5236 336.0733,-312.4044 346.6622,-312.0495 344.1297,-305.5236"/>
</g>
<!-- Node10 -->
<g id="node4" class="node">
<title>Node10</title>
<g id="a_node4"><a xlink:href="MatrixHelpers_8hpp.html" target="_top" xlink:title=" ">
<polygon fill="#ffffff" stroke="#000000" points="181,-156.5 181,-197.5 363,-197.5 363,-156.5 181,-156.5"/>
<text text-anchor="start" x="189" y="-185.5" font-family="Helvetica,sans-Serif" font-size="10.00" fill="#000000">/home/pieter/GitHub</text>
<text text-anchor="start" x="189" y="-174.5" font-family="Helvetica,sans-Serif" font-size="10.00" fill="#000000">/EAGLE&#45;ZYBO&#45;Linux/src</text>
<text text-anchor="middle" x="272" y="-163.5" font-family="Helvetica,sans-Serif" font-size="10.00" fill="#000000">/matrix/include/MatrixHelpers.hpp</text>
</a>
</g>
</g>
<!-- Node9&#45;&gt;Node10 -->
<g id="edge3" class="edge">
<title>Node9&#45;&gt;Node10</title>
<path fill="none" stroke="#191970" d="M278.6393,-224.0789C277.3897,-215.2178 276.058,-205.7747 274.9178,-197.6898"/>
<polygon fill="#191970" stroke="#191970" points="275.19,-224.6842 280.0522,-234.0974 282.1214,-223.7066 275.19,-224.6842"/>
</g>
<!-- Node11&#45;&gt;Node10 -->
<g id="edge12" class="edge">
<title>Node11&#45;&gt;Node10</title>
<path fill="none" stroke="#191970" d="M418.3906,-230.8607C389.4088,-220.1976 355.6902,-207.7917 327.9236,-197.5757"/>
<polygon fill="#191970" stroke="#191970" points="417.4287,-234.2361 428.0222,-234.4044 419.8458,-227.6666 417.4287,-234.2361"/>
</g>
<!-- Node12 -->
<g id="node6" class="node">
<title>Node12</title>
<g id="a_node6"><a xlink:href="GridFinder_8hpp.html" target="_top" xlink:title=" ">
<polygon fill="#ffffff" stroke="#000000" points="338.5,-.5 338.5,-41.5 519.5,-41.5 519.5,-.5 338.5,-.5"/>
<text text-anchor="start" x="346.5" y="-29.5" font-family="Helvetica,sans-Serif" font-size="10.00" fill="#000000">/home/pieter/GitHub</text>
<text text-anchor="start" x="346.5" y="-18.5" font-family="Helvetica,sans-Serif" font-size="10.00" fill="#000000">/EAGLE&#45;ZYBO&#45;Linux/src</text>
<text text-anchor="middle" x="429" y="-7.5" font-family="Helvetica,sans-Serif" font-size="10.00" fill="#000000">/grid&#45;finder/include/GridFinder.hpp</text>
</a>
</g>
</g>
<!-- Node11&#45;&gt;Node12 -->
<g id="edge5" class="edge">
<title>Node11&#45;&gt;Node12</title>
<path fill="none" stroke="#191970" d="M436.0792,-228.3582C425.5909,-220.0872 415.8759,-209.9431 410,-198 384.5547,-146.2815 406.268,-75.9784 419.933,-41.6178"/>
<polygon fill="#191970" stroke="#191970" points="434.0666,-231.2226 444.1995,-234.3167 438.2078,-225.5789 434.0666,-231.2226"/>
</g>
<!-- Node13 -->
<g id="node7" class="node">
<title>Node13</title>
<g id="a_node7"><a xlink:href="Line_8hpp.html" target="_top" xlink:title=" ">
<polygon fill="#ffffff" stroke="#000000" points="419,-156.5 419,-197.5 571,-197.5 571,-156.5 419,-156.5"/>
<text text-anchor="start" x="427" y="-185.5" font-family="Helvetica,sans-Serif" font-size="10.00" fill="#000000">/home/pieter/GitHub</text>
<text text-anchor="start" x="427" y="-174.5" font-family="Helvetica,sans-Serif" font-size="10.00" fill="#000000">/EAGLE&#45;ZYBO&#45;Linux/src</text>
<text text-anchor="middle" x="495" y="-163.5" font-family="Helvetica,sans-Serif" font-size="10.00" fill="#000000">/grid&#45;finder/include/Line.hpp</text>
</a>
</g>
</g>
<!-- Node11&#45;&gt;Node13 -->
<g id="edge6" class="edge">
<title>Node11&#45;&gt;Node13</title>
<path fill="none" stroke="#191970" d="M488.3607,-224.0789C489.6103,-215.2178 490.942,-205.7747 492.0822,-197.6898"/>
<polygon fill="#191970" stroke="#191970" points="484.8786,-223.7066 486.9478,-234.0974 491.81,-224.6842 484.8786,-223.7066"/>
</g>
<!-- Node15 -->
<g id="node9" class="node">
<title>Node15</title>
<g id="a_node9"><a xlink:href="HouseholderQR_8hpp.html" target="_top" xlink:title=" ">
<polygon fill="#ffffff" stroke="#000000" points="589,-156.5 589,-197.5 779,-197.5 779,-156.5 589,-156.5"/>
<text text-anchor="start" x="597" y="-185.5" font-family="Helvetica,sans-Serif" font-size="10.00" fill="#000000">/home/pieter/GitHub</text>
<text text-anchor="start" x="597" y="-174.5" font-family="Helvetica,sans-Serif" font-size="10.00" fill="#000000">/EAGLE&#45;ZYBO&#45;Linux/src</text>
<text text-anchor="middle" x="684" y="-163.5" font-family="Helvetica,sans-Serif" font-size="10.00" fill="#000000">/matrix/include/HouseholderQR.hpp</text>
</a>
</g>
</g>
<!-- Node11&#45;&gt;Node15 -->
<g id="edge10" class="edge">
<title>Node11&#45;&gt;Node15</title>
<path fill="none" stroke="#191970" d="M546.2525,-230.7215C573.5135,-220.0897 605.1609,-207.7473 631.2419,-197.5757"/>
<polygon fill="#191970" stroke="#191970" points="544.8541,-227.5101 536.8093,-234.4044 547.3975,-234.0317 544.8541,-227.5101"/>
</g>
<!-- Node17 -->
<g id="node11" class="node">
<title>Node17</title>
<g id="a_node11"><a xlink:href="Randn_8hpp.html" target="_top" xlink:title=" ">
<polygon fill="#ffffff" stroke="#000000" points="797.5,-156.5 797.5,-197.5 942.5,-197.5 942.5,-156.5 797.5,-156.5"/>
<text text-anchor="start" x="805.5" y="-185.5" font-family="Helvetica,sans-Serif" font-size="10.00" fill="#000000">/home/pieter/GitHub</text>
<text text-anchor="start" x="805.5" y="-174.5" font-family="Helvetica,sans-Serif" font-size="10.00" fill="#000000">/EAGLE&#45;ZYBO&#45;Linux/src</text>
<text text-anchor="middle" x="870" y="-163.5" font-family="Helvetica,sans-Serif" font-size="10.00" fill="#000000">/matrix/include/Randn.hpp</text>
</a>
</g>
</g>
<!-- Node11&#45;&gt;Node17 -->
<g id="edge13" class="edge">
<title>Node11&#45;&gt;Node17</title>
<path fill="none" stroke="#191970" d="M566.7574,-240.9896C628.0549,-230.247 713.5076,-214.5038 788,-198 791.013,-197.3325 794.0835,-196.6331 797.1817,-195.9117"/>
<polygon fill="#191970" stroke="#191970" points="565.9998,-237.5688 556.7507,-242.7365 567.2037,-244.4645 565.9998,-237.5688"/>
</g>
<!-- Node13&#45;&gt;Node12 -->
<g id="edge7" class="edge">
<title>Node13&#45;&gt;Node12</title>
<path fill="none" stroke="#191970" d="M467.0602,-148.7856C459.8655,-140.1517 452.8058,-130.2194 448,-120 436.0836,-94.6602 431.6408,-62.3233 429.9845,-41.634"/>
<polygon fill="#191970" stroke="#191970" points="464.429,-151.0937 473.6448,-156.3207 469.7001,-146.4875 464.429,-151.0937"/>
</g>
<!-- Node14 -->
<g id="node8" class="node">
<title>Node14</title>
<g id="a_node8"><a xlink:href="HelperStructs_8hpp.html" target="_top" xlink:title=" ">
<polygon fill="#ffffff" stroke="#000000" points="457,-78.5 457,-119.5 655,-119.5 655,-78.5 457,-78.5"/>
<text text-anchor="start" x="465" y="-107.5" font-family="Helvetica,sans-Serif" font-size="10.00" fill="#000000">/home/pieter/GitHub</text>
<text text-anchor="start" x="465" y="-96.5" font-family="Helvetica,sans-Serif" font-size="10.00" fill="#000000">/EAGLE&#45;ZYBO&#45;Linux/src</text>
<text text-anchor="middle" x="556" y="-85.5" font-family="Helvetica,sans-Serif" font-size="10.00" fill="#000000">/grid&#45;finder/include/HelperStructs.hpp</text>
</a>
</g>
</g>
<!-- Node13&#45;&gt;Node14 -->
<g id="edge8" class="edge">
<title>Node13&#45;&gt;Node14</title>
<path fill="none" stroke="#191970" d="M517.6087,-148.0905C524.9818,-138.6626 533.0156,-128.3899 539.8195,-119.6898"/>
<polygon fill="#191970" stroke="#191970" points="514.7503,-146.0641 511.3469,-156.0974 520.2643,-150.3764 514.7503,-146.0641"/>
</g>
<!-- Node14&#45;&gt;Node12 -->
<g id="edge9" class="edge">
<title>Node14&#45;&gt;Node12</title>
<path fill="none" stroke="#191970" d="M513.3326,-72.7948C496.7359,-62.6016 478.004,-51.0969 462.417,-41.5239"/>
<polygon fill="#191970" stroke="#191970" points="511.9468,-76.0511 522.2998,-78.3022 515.6103,-70.0863 511.9468,-76.0511"/>
</g>
<!-- Node16 -->
<g id="node10" class="node">
<title>Node16</title>
<g id="a_node10"><a xlink:href="LeastSquares_8hpp.html" target="_top" xlink:title=" ">
<polygon fill="#ffffff" stroke="#000000" points="673.5,-78.5 673.5,-119.5 852.5,-119.5 852.5,-78.5 673.5,-78.5"/>
<text text-anchor="start" x="681.5" y="-107.5" font-family="Helvetica,sans-Serif" font-size="10.00" fill="#000000">/home/pieter/GitHub</text>
<text text-anchor="start" x="681.5" y="-96.5" font-family="Helvetica,sans-Serif" font-size="10.00" fill="#000000">/EAGLE&#45;ZYBO&#45;Linux/src</text>
<text text-anchor="middle" x="763" y="-85.5" font-family="Helvetica,sans-Serif" font-size="10.00" fill="#000000">/matrix/include/LeastSquares.hpp</text>
</a>
</g>
</g>
<!-- Node15&#45;&gt;Node16 -->
<g id="edge11" class="edge">
<title>Node15&#45;&gt;Node16</title>
<path fill="none" stroke="#191970" d="M712.4145,-148.9452C722.1969,-139.2866 732.9663,-128.6535 742.0449,-119.6898"/>
<polygon fill="#191970" stroke="#191970" points="709.8275,-146.5809 705.1706,-156.0974 714.7456,-151.5621 709.8275,-146.5809"/>
</g>
</g>
</svg>
