<?xml version="1.0" encoding="UTF-8" standalone="no"?>
<!DOCTYPE svg PUBLIC "-//W3C//DTD SVG 1.1//EN"
 "http://www.w3.org/Graphics/SVG/1.1/DTD/svg11.dtd">
<!-- Generated by graphviz version 2.40.1 (20161225.0304)
 -->
<!-- Title: abs Pages: 1 -->
<svg width="1070pt" height="192pt"
 viewBox="0.00 0.00 1070.00 191.50" xmlns="http://www.w3.org/2000/svg" xmlns:xlink="http://www.w3.org/1999/xlink">
<g id="graph0" class="graph" transform="scale(1 1) rotate(0) translate(4 187.5)">
<title>abs</title>
<polygon fill="#ffffff" stroke="transparent" points="-4,4 -4,-187.5 1066,-187.5 1066,4 -4,4"/>
<!-- Node1 -->
<g id="node1" class="node">
<title>Node1</title>
<g id="a_node1"><a xlink:title=" ">
<polygon fill="#bfbfbf" stroke="#000000" points="1028,-57.5 1028,-76.5 1062,-76.5 1062,-57.5 1028,-57.5"/>
<text text-anchor="middle" x="1045" y="-64.5" font-family="Helvetica,sans-Serif" font-size="10.00" fill="#000000">abs</text>
</a>
</g>
</g>
<!-- Node2 -->
<g id="node2" class="node">
<title>Node2</title>
<g id="a_node2"><a xlink:href="classGridFinder.html#abcd46f31e256080b2d5d2aee03c0e258" target="_top" xlink:title="Find the middle of a line.">
<polygon fill="#ffffff" stroke="#000000" points="872,-114.5 872,-133.5 992,-133.5 992,-114.5 872,-114.5"/>
<text text-anchor="middle" x="932" y="-121.5" font-family="Helvetica,sans-Serif" font-size="10.00" fill="#000000">GridFinder::getMiddle</text>
</a>
</g>
</g>
<!-- Node1&#45;&gt;Node2 -->
<g id="edge1" class="edge">
<title>Node1&#45;&gt;Node2</title>
<path fill="none" stroke="#191970" d="M1022.4229,-82.2829C1013.2014,-88.1981 1002.2988,-94.7853 992,-100 981.3903,-105.3721 969.2799,-110.4102 958.7305,-114.4698"/>
<polygon fill="#191970" stroke="#191970" points="1024.5505,-85.0734 1030.9995,-76.6674 1020.716,-79.2171 1024.5505,-85.0734"/>
</g>
<!-- Node8 -->
<g id="node8" class="node">
<title>Node8</title>
<g id="a_node8"><a xlink:href="classGridFinder.html#a701c0c1e70d01bb8773a89a29f6673a0" target="_top" xlink:title="This is the main function: it looks for a complete square of the grid, as close to the center of the ...">
<polygon fill="#ffffff" stroke="#000000" points="358,-76.5 358,-95.5 482,-95.5 482,-76.5 358,-76.5"/>
<text text-anchor="middle" x="420" y="-83.5" font-family="Helvetica,sans-Serif" font-size="10.00" fill="#000000">GridFinder::findSquare</text>
</a>
</g>
</g>
<!-- Node1&#45;&gt;Node8 -->
<g id="edge11" class="edge">
<title>Node1&#45;&gt;Node8</title>
<path fill="none" stroke="#191970" d="M1017.9241,-67.8231C924.6836,-70.6576 615.3276,-80.062 482.0127,-84.1148"/>
<polygon fill="#191970" stroke="#191970" points="1018.0696,-71.3204 1027.9586,-67.5181 1017.8569,-64.3236 1018.0696,-71.3204"/>
</g>
<!-- Node11 -->
<g id="node11" class="node">
<title>Node11</title>
<g id="a_node11"><a xlink:href="namespaceFallback.html#a505e4b4c630f9c62620d4308773ea4b7" target="_top" xlink:title="Calculate the mask of 16 pixels of the RGB image, and store the mask in second parameter.">
<polygon fill="#ffffff" stroke="#000000" points="874.5,-38.5 874.5,-57.5 989.5,-57.5 989.5,-38.5 874.5,-38.5"/>
<text text-anchor="middle" x="932" y="-45.5" font-family="Helvetica,sans-Serif" font-size="10.00" fill="#000000">Fallback::applyMask</text>
</a>
</g>
</g>
<!-- Node1&#45;&gt;Node11 -->
<g id="edge12" class="edge">
<title>Node1&#45;&gt;Node11</title>
<path fill="none" stroke="#191970" d="M1017.7947,-62.4257C1008.9502,-60.9385 998.7818,-59.2288 988.6086,-57.5183"/>
<polygon fill="#191970" stroke="#191970" points="1017.3958,-65.9076 1027.8377,-64.1143 1018.5565,-59.0045 1017.3958,-65.9076"/>
</g>
<!-- Node12 -->
<g id="node12" class="node">
<title>Node12</title>
<g id="a_node12"><a xlink:href="AlmostEqual_8hpp.html#ad6e6b9a489dce5404854e1513e988e0c" target="_top" xlink:title=" ">
<polygon fill="#ffffff" stroke="#000000" points="889,-.5 889,-19.5 975,-19.5 975,-.5 889,-.5"/>
<text text-anchor="middle" x="932" y="-7.5" font-family="Helvetica,sans-Serif" font-size="10.00" fill="#000000">isAlmostEqual</text>
</a>
</g>
</g>
<!-- Node1&#45;&gt;Node12 -->
<g id="edge13" class="edge">
<title>Node1&#45;&gt;Node12</title>
<path fill="none" stroke="#191970" d="M1025.7913,-50.9761C1016.1198,-43.5107 1003.9359,-34.9785 992,-29 984.6729,-25.33 976.4892,-22.1796 968.5796,-19.5593"/>
<polygon fill="#191970" stroke="#191970" points="1023.8861,-53.9333 1033.8879,-57.4284 1028.2487,-48.4589 1023.8861,-53.9333"/>
</g>
<!-- Node3 -->
<g id="node3" class="node">
<title>Node3</title>
<g id="a_node3"><a xlink:href="classGridFinder.html#af830abf29ca6dc9c01197a38fe16e1e5" target="_top" xlink:title="In exceptional cases, we might want to find the middle of a line in a point that happens to lie at th...">
<polygon fill="#ffffff" stroke="#000000" points="693,-153 693,-183 836,-183 836,-153 693,-153"/>
<text text-anchor="start" x="701" y="-171" font-family="Helvetica,sans-Serif" font-size="10.00" fill="#000000">GridFinder::getMiddleWith</text>
<text text-anchor="middle" x="764.5" y="-160" font-family="Helvetica,sans-Serif" font-size="10.00" fill="#000000">Retries</text>
</a>
</g>
</g>
<!-- Node2&#45;&gt;Node3 -->
<g id="edge2" class="edge">
<title>Node2&#45;&gt;Node3</title>
<path fill="none" stroke="#191970" d="M885.9475,-136.0974C866.1369,-141.3013 842.7702,-147.4395 821.8511,-152.9346"/>
<polygon fill="#191970" stroke="#191970" points="886.8724,-139.4732 895.655,-133.5473 885.0939,-132.7029 886.8724,-139.4732"/>
</g>
<!-- Node5 -->
<g id="node5" class="node">
<title>Node5</title>
<g id="a_node5"><a xlink:href="classGridFinder.html#ae12ca7921b02b37417d87fc737f0134d" target="_top" xlink:title="Check if there could be a valid line going through the given point, and if so, find and return the ac...">
<polygon fill="#ffffff" stroke="#000000" points="704,-114.5 704,-133.5 825,-133.5 825,-114.5 704,-114.5"/>
<text text-anchor="middle" x="764.5" y="-121.5" font-family="Helvetica,sans-Serif" font-size="10.00" fill="#000000">GridFinder::checkLine</text>
</a>
</g>
</g>
<!-- Node2&#45;&gt;Node5 -->
<g id="edge4" class="edge">
<title>Node2&#45;&gt;Node5</title>
<path fill="none" stroke="#191970" d="M861.4935,-124C849.4141,-124 836.9577,-124 825.1638,-124"/>
<polygon fill="#191970" stroke="#191970" points="861.5287,-127.5001 871.5287,-124 861.5286,-120.5001 861.5287,-127.5001"/>
</g>
<!-- Node4 -->
<g id="node4" class="node">
<title>Node4</title>
<g id="a_node4"><a xlink:href="classGridFinder.html#aaea3af418ab7124f2b25bcc124fccaca" target="_top" xlink:title="Get an estimate of the line through a given pixel. Find an estimate of the slope, then use that to de...">
<polygon fill="#ffffff" stroke="#000000" points="526,-153 526,-183 654,-183 654,-153 526,-153"/>
<text text-anchor="start" x="534" y="-171" font-family="Helvetica,sans-Serif" font-size="10.00" fill="#000000">GridFinder::getFirstLine</text>
<text text-anchor="middle" x="590" y="-160" font-family="Helvetica,sans-Serif" font-size="10.00" fill="#000000">Estimate</text>
</a>
</g>
</g>
<!-- Node3&#45;&gt;Node4 -->
<g id="edge3" class="edge">
<title>Node3&#45;&gt;Node4</title>
<path fill="none" stroke="#191970" d="M682.5054,-168C672.9971,-168 663.4052,-168 654.1837,-168"/>
<polygon fill="#191970" stroke="#191970" points="682.7688,-171.5001 692.7688,-168 682.7687,-164.5001 682.7688,-171.5001"/>
</g>
<!-- Node6 -->
<g id="node6" class="node">
<title>Node6</title>
<g id="a_node6"><a xlink:href="classGridFinder.html#a6dec96f8c6ed97647f692fa9f9908595" target="_top" xlink:title="Follow the given line to find the line perpendicular to it. Move along the line for minDistance pixel...">
<polygon fill="#ffffff" stroke="#000000" points="523,-114.5 523,-133.5 657,-133.5 657,-114.5 523,-114.5"/>
<text text-anchor="middle" x="590" y="-121.5" font-family="Helvetica,sans-Serif" font-size="10.00" fill="#000000">GridFinder::findNextLine</text>
</a>
</g>
</g>
<!-- Node5&#45;&gt;Node6 -->
<g id="edge5" class="edge">
<title>Node5&#45;&gt;Node6</title>
<path fill="none" stroke="#191970" d="M693.9271,-124C681.8358,-124 669.3005,-124 657.2976,-124"/>
<polygon fill="#191970" stroke="#191970" points="693.9581,-127.5001 703.9581,-124 693.9581,-120.5001 693.9581,-127.5001"/>
</g>
<!-- Node7 -->
<g id="node7" class="node">
<title>Node7</title>
<g id="a_node7"><a xlink:href="classGridFinder.html#ad1a5448de0df9a84f989f64b55025843" target="_top" xlink:title="Equivalent to #findNextLine(LineResult,bool,uint,uint) but also supports optional LineResults.">
<polygon fill="#ffffff" stroke="#000000" points="353,-114.5 353,-133.5 487,-133.5 487,-114.5 353,-114.5"/>
<text text-anchor="middle" x="420" y="-121.5" font-family="Helvetica,sans-Serif" font-size="10.00" fill="#000000">GridFinder::findNextLine</text>
</a>
</g>
</g>
<!-- Node6&#45;&gt;Node7 -->
<g id="edge6" class="edge">
<title>Node6&#45;&gt;Node7</title>
<path fill="none" stroke="#191970" d="M512.5754,-124C504.1241,-124 495.5721,-124 487.2572,-124"/>
<polygon fill="#191970" stroke="#191970" points="512.8115,-127.5001 522.8115,-124 512.8115,-120.5001 512.8115,-127.5001"/>
</g>
<!-- Node6&#45;&gt;Node8 -->
<g id="edge7" class="edge">
<title>Node6&#45;&gt;Node8</title>
<path fill="none" stroke="#191970" d="M537.1019,-112.1757C513.135,-106.8184 485.1765,-100.5689 462.5897,-95.5201"/>
<polygon fill="#191970" stroke="#191970" points="536.5791,-115.6452 547.1018,-114.411 538.1062,-108.8138 536.5791,-115.6452"/>
</g>
<!-- Node9 -->
<g id="node9" class="node">
<title>Node9</title>
<g id="a_node9"><a xlink:href="classLocationFinder.html#af56756d038d762e04e0c91bac9fc2522" target="_top" xlink:title="Read a new frame, mask it, run GridFinder, and get the position of the drone. The position is the pos...">
<polygon fill="#ffffff" stroke="#000000" points="149,-95.5 149,-114.5 317,-114.5 317,-95.5 149,-95.5"/>
<text text-anchor="middle" x="233" y="-102.5" font-family="Helvetica,sans-Serif" font-size="10.00" fill="#000000">LocationFinder::updateLocation</text>
</a>
</g>
</g>
<!-- Node8&#45;&gt;Node9 -->
<g id="edge8" class="edge">
<title>Node8&#45;&gt;Node9</title>
<path fill="none" stroke="#191970" d="M348.0281,-93.3127C337.9278,-94.3389 327.4731,-95.4011 317.1709,-96.4479"/>
<polygon fill="#191970" stroke="#191970" points="348.3965,-96.7933 357.9915,-92.3003 347.6888,-89.8292 348.3965,-96.7933"/>
</g>
<!-- Node10 -->
<g id="node10" class="node">
<title>Node10</title>
<g id="a_node10"><a xlink:href="Grid-Finder_8module_8hpp.html#a05e720af51446c0f9319fb9455fe1767" target="_top" xlink:title=" ">
<polygon fill="#ffffff" stroke="#000000" points="0,-76.5 0,-95.5 113,-95.5 113,-76.5 0,-76.5"/>
<text text-anchor="middle" x="56.5" y="-83.5" font-family="Helvetica,sans-Serif" font-size="10.00" fill="#000000">PYBIND11_MODULE</text>
</a>
</g>
</g>
<!-- Node8&#45;&gt;Node10 -->
<g id="edge10" class="edge">
<title>Node8&#45;&gt;Node10</title>
<path fill="none" stroke="#191970" d="M347.5872,-86C278.6832,-86 176.4113,-86 113.2349,-86"/>
<polygon fill="#191970" stroke="#191970" points="347.9252,-89.5001 357.9251,-86 347.9251,-82.5001 347.9252,-89.5001"/>
</g>
<!-- Node9&#45;&gt;Node10 -->
<g id="edge9" class="edge">
<title>Node9&#45;&gt;Node10</title>
<path fill="none" stroke="#191970" d="M138.9025,-94.8705C130.0733,-93.9201 121.3225,-92.9781 113.0056,-92.0828"/>
<polygon fill="#191970" stroke="#191970" points="138.5682,-98.3547 148.8854,-95.9452 139.3175,-91.3949 138.5682,-98.3547"/>
</g>
<!-- Node13 -->
<g id="node13" class="node">
<title>Node13</title>
<g id="a_node13"><a xlink:href="AlmostEqual_8hpp.html#a04823ed77d957e52a9616a26630948c3" target="_top" xlink:title=" ">
<polygon fill="#ffffff" stroke="#000000" points="721.5,-.5 721.5,-19.5 807.5,-19.5 807.5,-.5 721.5,-.5"/>
<text text-anchor="middle" x="764.5" y="-7.5" font-family="Helvetica,sans-Serif" font-size="10.00" fill="#000000">isAlmostEqual</text>
</a>
</g>
</g>
<!-- Node12&#45;&gt;Node13 -->
<g id="edge14" class="edge">
<title>Node12&#45;&gt;Node13</title>
<path fill="none" stroke="#191970" d="M878.6338,-10C855.7669,-10 829.4041,-10 807.78,-10"/>
<polygon fill="#191970" stroke="#191970" points="878.8646,-13.5001 888.8646,-10 878.8646,-6.5001 878.8646,-13.5001"/>
</g>
</g>
</svg>
