<?xml version="1.0" encoding="UTF-8" standalone="no"?>
<!DOCTYPE svg PUBLIC "-//W3C//DTD SVG 1.1//EN"
 "http://www.w3.org/Graphics/SVG/1.1/DTD/svg11.dtd">
<!-- Generated by graphviz version 2.40.1 (20161225.0304)
 -->
<!-- Title: filledArray Pages: 1 -->
<svg width="186pt" height="66pt"
 viewBox="0.00 0.00 186.00 66.00" xmlns="http://www.w3.org/2000/svg" xmlns:xlink="http://www.w3.org/1999/xlink">
<g id="graph0" class="graph" transform="scale(1 1) rotate(0) translate(4 62)">
<title>filledArray</title>
<polygon fill="#ffffff" stroke="transparent" points="-4,4 -4,-62 182,-62 182,4 -4,4"/>
<!-- Node0 -->
<g id="node1" class="node">
<title>Node0</title>
<g id="a_node1"><a xlink:title=" ">
<polygon fill="#bfbfbf" stroke="#000000" points="0,-19.5 0,-38.5 67,-38.5 67,-19.5 0,-19.5"/>
<text text-anchor="middle" x="33.5" y="-26.5" font-family="Helvetica,sans-Serif" font-size="10.00" fill="#000000">filledArray</text>
</a>
</g>
</g>
<!-- Node1 -->
<g id="node2" class="node">
<title>Node1</title>
<g id="a_node2"><a xlink:href="structArray.html#ab4b771d23fc515ab924670f80316739e" target="_top" xlink:title=" ">
<polygon fill="#ffffff" stroke="#000000" points="103,-38.5 103,-57.5 178,-57.5 178,-38.5 103,-38.5"/>
<text text-anchor="middle" x="140.5" y="-45.5" font-family="Helvetica,sans-Serif" font-size="10.00" fill="#000000">Array::begin</text>
</a>
</g>
</g>
<!-- Node0&#45;&gt;Node1 -->
<g id="edge1" class="edge">
<title>Node0&#45;&gt;Node1</title>
<path fill="none" stroke="#191970" d="M67.0619,-34.9596C75.2554,-36.4145 84.1769,-37.9987 92.8877,-39.5455"/>
<polygon fill="#191970" stroke="#191970" points="92.5024,-43.0317 102.9603,-41.3341 93.7263,-36.1396 92.5024,-43.0317"/>
</g>
<!-- Node2 -->
<g id="node3" class="node">
<title>Node2</title>
<g id="a_node3"><a xlink:href="structArray.html#a325651933815bbdea330a2c576c274cd" target="_top" xlink:title=" ">
<polygon fill="#ffffff" stroke="#000000" points="107.5,-.5 107.5,-19.5 173.5,-19.5 173.5,-.5 107.5,-.5"/>
<text text-anchor="middle" x="140.5" y="-7.5" font-family="Helvetica,sans-Serif" font-size="10.00" fill="#000000">Array::end</text>
</a>
</g>
</g>
<!-- Node0&#45;&gt;Node2 -->
<g id="edge2" class="edge">
<title>Node0&#45;&gt;Node2</title>
<path fill="none" stroke="#191970" d="M67.0619,-23.0404C76.7148,-21.3263 87.3782,-19.4328 97.517,-17.6325"/>
<polygon fill="#191970" stroke="#191970" points="98.1901,-21.0678 107.4241,-15.8733 96.9662,-14.1756 98.1901,-21.0678"/>
</g>
</g>
</svg>
