<?xml version="1.0" encoding="UTF-8" standalone="no"?>
<!DOCTYPE svg PUBLIC "-//W3C//DTD SVG 1.1//EN"
 "http://www.w3.org/Graphics/SVG/1.1/DTD/svg11.dtd">
<!-- Generated by graphviz version 2.40.1 (20161225.0304)
 -->
<!-- Title: sum Pages: 1 -->
<svg width="394pt" height="142pt"
 viewBox="0.00 0.00 394.00 142.00" xmlns="http://www.w3.org/2000/svg" xmlns:xlink="http://www.w3.org/1999/xlink">
<g id="graph0" class="graph" transform="scale(1 1) rotate(0) translate(4 138)">
<title>sum</title>
<polygon fill="#ffffff" stroke="transparent" points="-4,4 -4,-138 390,-138 390,4 -4,4"/>
<!-- Node74 -->
<g id="node1" class="node">
<title>Node74</title>
<g id="a_node1"><a xlink:title=" ">
<polygon fill="#bfbfbf" stroke="#000000" points="348,-57.5 348,-76.5 386,-76.5 386,-57.5 348,-57.5"/>
<text text-anchor="middle" x="367" y="-64.5" font-family="Helvetica,sans-Serif" font-size="10.00" fill="#000000">sum</text>
</a>
</g>
</g>
<!-- Node75 -->
<g id="node2" class="node">
<title>Node75</title>
<g id="a_node2"><a xlink:href="structSquare.html#a12c1f0ee0bd30021a5a7d7344538fef9" target="_top" xlink:title="Get the average angle of the sides of the square .">
<polygon fill="#ffffff" stroke="#000000" points="212,-114.5 212,-133.5 312,-133.5 312,-114.5 212,-114.5"/>
<text text-anchor="middle" x="262" y="-121.5" font-family="Helvetica,sans-Serif" font-size="10.00" fill="#000000">Square::getAngle</text>
</a>
</g>
</g>
<!-- Node74&#45;&gt;Node75 -->
<g id="edge1" class="edge">
<title>Node74&#45;&gt;Node75</title>
<path fill="none" stroke="#191970" d="M346.7398,-82.7502C336.6618,-90.1211 324.0779,-98.6525 312,-105 305.3417,-108.4992 297.8912,-111.6862 290.8164,-114.4083"/>
<polygon fill="#191970" stroke="#191970" points="348.9705,-85.4523 354.8754,-76.6555 344.7736,-79.8499 348.9705,-85.4523"/>
</g>
<!-- Node76 -->
<g id="node3" class="node">
<title>Node76</title>
<g id="a_node3"><a xlink:href="HouseholderQR_8hpp.html#a16f7547f23439d1eda0fcbde69451ef9" target="_top" xlink:title=" ">
<polygon fill="#ffffff" stroke="#000000" points="216.5,-76.5 216.5,-95.5 307.5,-95.5 307.5,-76.5 216.5,-76.5"/>
<text text-anchor="middle" x="262" y="-83.5" font-family="Helvetica,sans-Serif" font-size="10.00" fill="#000000">householderQR</text>
</a>
</g>
</g>
<!-- Node74&#45;&gt;Node76 -->
<g id="edge2" class="edge">
<title>Node74&#45;&gt;Node76</title>
<path fill="none" stroke="#191970" d="M337.8222,-72.2798C328.4985,-73.9669 317.9431,-75.877 307.7348,-77.7242"/>
<polygon fill="#191970" stroke="#191970" points="338.5244,-75.7096 347.7414,-70.4849 337.2779,-68.8215 338.5244,-75.7096"/>
</g>
<!-- Node77 -->
<g id="node4" class="node">
<title>Node77</title>
<g id="a_node4"><a xlink:href="LeastSquares_8hpp.html#a3e86962f655361a684f770b14c9fe1e2" target="_top" xlink:title=" ">
<polygon fill="#ffffff" stroke="#000000" points="68,-57.5 68,-76.5 176,-76.5 176,-57.5 68,-57.5"/>
<text text-anchor="middle" x="122" y="-64.5" font-family="Helvetica,sans-Serif" font-size="10.00" fill="#000000">solveLeastSquares</text>
</a>
</g>
</g>
<!-- Node74&#45;&gt;Node77 -->
<g id="edge5" class="edge">
<title>Node74&#45;&gt;Node77</title>
<path fill="none" stroke="#191970" d="M337.6741,-67C297.8565,-67 225.9589,-67 176.1835,-67"/>
<polygon fill="#191970" stroke="#191970" points="337.7753,-70.5001 347.7753,-67 337.7752,-63.5001 337.7753,-70.5001"/>
</g>
<!-- Node79 -->
<g id="node6" class="node">
<title>Node79</title>
<g id="a_node6"><a xlink:href="Matrix_8hpp.html#a341f99d67c7fef72e0432138c6d4fc34" target="_top" xlink:title=" ">
<polygon fill="#ffffff" stroke="#000000" points="230.5,-.5 230.5,-19.5 293.5,-19.5 293.5,-.5 230.5,-.5"/>
<text text-anchor="middle" x="262" y="-7.5" font-family="Helvetica,sans-Serif" font-size="10.00" fill="#000000">operator*</text>
</a>
</g>
</g>
<!-- Node74&#45;&gt;Node79 -->
<g id="edge6" class="edge">
<title>Node74&#45;&gt;Node79</title>
<path fill="none" stroke="#191970" d="M343.2094,-52.0676C333.6283,-46.2278 322.4018,-39.6013 312,-34 302.6745,-28.9782 292.1315,-23.8409 283.1391,-19.6145"/>
<polygon fill="#191970" stroke="#191970" points="341.4608,-55.1012 351.8107,-57.3664 345.1324,-49.1413 341.4608,-55.1012"/>
</g>
<!-- Node76&#45;&gt;Node77 -->
<g id="edge3" class="edge">
<title>Node76&#45;&gt;Node77</title>
<path fill="none" stroke="#191970" d="M206.0812,-78.411C196.2434,-77.0759 186.0185,-75.6882 176.2278,-74.3595"/>
<polygon fill="#191970" stroke="#191970" points="205.7789,-81.902 216.1588,-79.7787 206.7203,-74.9656 205.7789,-81.902"/>
</g>
<!-- Node78 -->
<g id="node5" class="node">
<title>Node78</title>
<g id="a_node5"><a xlink:href="LeastSquares_8hpp.html#abc455a395ab6414f5312b56e5b479195" target="_top" xlink:title=" ">
<polygon fill="#ffffff" stroke="#000000" points="0,-57.5 0,-76.5 32,-76.5 32,-57.5 0,-57.5"/>
<text text-anchor="middle" x="16" y="-64.5" font-family="Helvetica,sans-Serif" font-size="10.00" fill="#000000">inv</text>
</a>
</g>
</g>
<!-- Node77&#45;&gt;Node78 -->
<g id="edge4" class="edge">
<title>Node77&#45;&gt;Node78</title>
<path fill="none" stroke="#191970" d="M57.7466,-67C48.2629,-67 39.2831,-67 32.0991,-67"/>
<polygon fill="#191970" stroke="#191970" points="57.7579,-70.5001 67.7579,-67 57.7579,-63.5001 57.7579,-70.5001"/>
</g>
</g>
</svg>
