<?xml version="1.0" encoding="UTF-8" standalone="no"?>
<!DOCTYPE svg PUBLIC "-//W3C//DTD SVG 1.1//EN"
 "http://www.w3.org/Graphics/SVG/1.1/DTD/svg11.dtd">
<!-- Generated by graphviz version 2.40.1 (20161225.0304)
 -->
<!-- Title: /home/pieter/GitHub/EAGLE&#45;ZYBO&#45;Linux/src/matrix/include/Array.hpp Pages: 1 -->
<svg width="1057pt" height="551pt"
 viewBox="0.00 0.00 1056.50 551.00" xmlns="http://www.w3.org/2000/svg" xmlns:xlink="http://www.w3.org/1999/xlink">
<g id="graph0" class="graph" transform="scale(1 1) rotate(0) translate(4 547)">
<title>/home/pieter/GitHub/EAGLE&#45;ZYBO&#45;Linux/src/matrix/include/Array.hpp</title>
<polygon fill="#ffffff" stroke="transparent" points="-4,4 -4,-547 1052.5,-547 1052.5,4 -4,4"/>
<!-- Node7 -->
<g id="node1" class="node">
<title>Node7</title>
<g id="a_node1"><a xlink:title=" ">
<polygon fill="#bfbfbf" stroke="#000000" points="213.5,-501.5 213.5,-542.5 352.5,-542.5 352.5,-501.5 213.5,-501.5"/>
<text text-anchor="start" x="221.5" y="-530.5" font-family="Helvetica,sans-Serif" font-size="10.00" fill="#000000">/home/pieter/GitHub</text>
<text text-anchor="start" x="221.5" y="-519.5" font-family="Helvetica,sans-Serif" font-size="10.00" fill="#000000">/EAGLE&#45;ZYBO&#45;Linux/src</text>
<text text-anchor="middle" x="283" y="-508.5" font-family="Helvetica,sans-Serif" font-size="10.00" fill="#000000">/matrix/include/Array.hpp</text>
</a>
</g>
</g>
<!-- Node8 -->
<g id="node2" class="node">
<title>Node8</title>
<g id="a_node2"><a xlink:href="AlmostEqual_8hpp.html" target="_top" xlink:title=" ">
<polygon fill="#ffffff" stroke="#000000" points="0,-423.5 0,-464.5 176,-464.5 176,-423.5 0,-423.5"/>
<text text-anchor="start" x="8" y="-452.5" font-family="Helvetica,sans-Serif" font-size="10.00" fill="#000000">/home/pieter/GitHub</text>
<text text-anchor="start" x="8" y="-441.5" font-family="Helvetica,sans-Serif" font-size="10.00" fill="#000000">/EAGLE&#45;ZYBO&#45;Linux/src</text>
<text text-anchor="middle" x="88" y="-430.5" font-family="Helvetica,sans-Serif" font-size="10.00" fill="#000000">/matrix/include/AlmostEqual.hpp</text>
</a>
</g>
</g>
<!-- Node7&#45;&gt;Node8 -->
<g id="edge1" class="edge">
<title>Node7&#45;&gt;Node8</title>
<path fill="none" stroke="#191970" d="M221.9553,-497.5821C195.455,-486.982 164.7571,-474.7028 139.4392,-464.5757"/>
<polygon fill="#191970" stroke="#191970" points="220.9263,-500.9401 231.511,-501.4044 223.5261,-494.4408 220.9263,-500.9401"/>
</g>
<!-- Node9 -->
<g id="node3" class="node">
<title>Node9</title>
<g id="a_node3"><a xlink:href="ArrayHelpers_8hpp.html" target="_top" xlink:title=" ">
<polygon fill="#ffffff" stroke="#000000" points="194,-423.5 194,-464.5 372,-464.5 372,-423.5 194,-423.5"/>
<text text-anchor="start" x="202" y="-452.5" font-family="Helvetica,sans-Serif" font-size="10.00" fill="#000000">/home/pieter/GitHub</text>
<text text-anchor="start" x="202" y="-441.5" font-family="Helvetica,sans-Serif" font-size="10.00" fill="#000000">/EAGLE&#45;ZYBO&#45;Linux/src</text>
<text text-anchor="middle" x="283" y="-430.5" font-family="Helvetica,sans-Serif" font-size="10.00" fill="#000000">/matrix/include/ArrayHelpers.hpp</text>
</a>
</g>
</g>
<!-- Node7&#45;&gt;Node9 -->
<g id="edge2" class="edge">
<title>Node7&#45;&gt;Node9</title>
<path fill="none" stroke="#191970" d="M283,-491.0789C283,-482.2178 283,-472.7747 283,-464.6898"/>
<polygon fill="#191970" stroke="#191970" points="279.5001,-491.0974 283,-501.0974 286.5001,-491.0975 279.5001,-491.0974"/>
</g>
<!-- Node11 -->
<g id="node5" class="node">
<title>Node11</title>
<g id="a_node5"><a xlink:href="Matrix_8hpp.html" target="_top" xlink:title=" ">
<polygon fill="#ffffff" stroke="#000000" points="476.5,-423.5 476.5,-464.5 621.5,-464.5 621.5,-423.5 476.5,-423.5"/>
<text text-anchor="start" x="484.5" y="-452.5" font-family="Helvetica,sans-Serif" font-size="10.00" fill="#000000">/home/pieter/GitHub</text>
<text text-anchor="start" x="484.5" y="-441.5" font-family="Helvetica,sans-Serif" font-size="10.00" fill="#000000">/EAGLE&#45;ZYBO&#45;Linux/src</text>
<text text-anchor="middle" x="549" y="-430.5" font-family="Helvetica,sans-Serif" font-size="10.00" fill="#000000">/matrix/include/Matrix.hpp</text>
</a>
</g>
</g>
<!-- Node7&#45;&gt;Node11 -->
<g id="edge4" class="edge">
<title>Node7&#45;&gt;Node11</title>
<path fill="none" stroke="#191970" d="M362.306,-498.7449C399.3676,-487.8772 443.1142,-475.0492 478.9411,-464.5436"/>
<polygon fill="#191970" stroke="#191970" points="361.152,-495.4358 352.5409,-501.6083 363.1217,-502.153 361.152,-495.4358"/>
</g>
<!-- Node10 -->
<g id="node4" class="node">
<title>Node10</title>
<g id="a_node4"><a xlink:href="MatrixHelpers_8hpp.html" target="_top" xlink:title=" ">
<polygon fill="#ffffff" stroke="#000000" points="106,-345.5 106,-386.5 288,-386.5 288,-345.5 106,-345.5"/>
<text text-anchor="start" x="114" y="-374.5" font-family="Helvetica,sans-Serif" font-size="10.00" fill="#000000">/home/pieter/GitHub</text>
<text text-anchor="start" x="114" y="-363.5" font-family="Helvetica,sans-Serif" font-size="10.00" fill="#000000">/EAGLE&#45;ZYBO&#45;Linux/src</text>
<text text-anchor="middle" x="197" y="-352.5" font-family="Helvetica,sans-Serif" font-size="10.00" fill="#000000">/matrix/include/MatrixHelpers.hpp</text>
</a>
</g>
</g>
<!-- Node9&#45;&gt;Node10 -->
<g id="edge3" class="edge">
<title>Node9&#45;&gt;Node10</title>
<path fill="none" stroke="#191970" d="M252.3807,-416.229C241.6487,-406.4953 229.7918,-395.7414 219.8118,-386.6898"/>
<polygon fill="#191970" stroke="#191970" points="250.195,-418.9718 259.9536,-423.0974 254.8977,-413.7867 250.195,-418.9718"/>
</g>
<!-- Node11&#45;&gt;Node10 -->
<g id="edge18" class="edge">
<title>Node11&#45;&gt;Node10</title>
<path fill="none" stroke="#191970" d="M466.7006,-425.7632C413.2068,-413.9095 343.4114,-398.4434 288.2255,-386.2148"/>
<polygon fill="#191970" stroke="#191970" points="465.9718,-429.1865 476.4922,-427.9329 467.4862,-422.3523 465.9718,-429.1865"/>
</g>
<!-- Node12 -->
<g id="node6" class="node">
<title>Node12</title>
<g id="a_node6"><a xlink:href="GridFinder_8hpp.html" target="_top" xlink:title=" ">
<polygon fill="#ffffff" stroke="#000000" points="402.5,-184 402.5,-225 583.5,-225 583.5,-184 402.5,-184"/>
<text text-anchor="start" x="410.5" y="-213" font-family="Helvetica,sans-Serif" font-size="10.00" fill="#000000">/home/pieter/GitHub</text>
<text text-anchor="start" x="410.5" y="-202" font-family="Helvetica,sans-Serif" font-size="10.00" fill="#000000">/EAGLE&#45;ZYBO&#45;Linux/src</text>
<text text-anchor="middle" x="493" y="-191" font-family="Helvetica,sans-Serif" font-size="10.00" fill="#000000">/grid&#45;finder/include/GridFinder.hpp</text>
</a>
</g>
</g>
<!-- Node11&#45;&gt;Node12 -->
<g id="edge5" class="edge">
<title>Node11&#45;&gt;Node12</title>
<path fill="none" stroke="#191970" d="M602.0307,-417.6764C613.2549,-409.4732 623.6252,-399.281 630,-387 638.5999,-370.4324 637.0345,-362.2905 630,-345 608.7516,-292.7727 557.7186,-249.3528 524.2922,-225.1806"/>
<polygon fill="#191970" stroke="#191970" points="600.0576,-414.7855 593.7518,-423.2994 603.9907,-420.5761 600.0576,-414.7855"/>
</g>
<!-- Node16 -->
<g id="node10" class="node">
<title>Node16</title>
<g id="a_node10"><a xlink:href="Line_8hpp.html" target="_top" xlink:title=" ">
<polygon fill="#ffffff" stroke="#000000" points="306,-345.5 306,-386.5 458,-386.5 458,-345.5 306,-345.5"/>
<text text-anchor="start" x="314" y="-374.5" font-family="Helvetica,sans-Serif" font-size="10.00" fill="#000000">/home/pieter/GitHub</text>
<text text-anchor="start" x="314" y="-363.5" font-family="Helvetica,sans-Serif" font-size="10.00" fill="#000000">/EAGLE&#45;ZYBO&#45;Linux/src</text>
<text text-anchor="middle" x="382" y="-352.5" font-family="Helvetica,sans-Serif" font-size="10.00" fill="#000000">/grid&#45;finder/include/Line.hpp</text>
</a>
</g>
</g>
<!-- Node11&#45;&gt;Node16 -->
<g id="edge9" class="edge">
<title>Node11&#45;&gt;Node16</title>
<path fill="none" stroke="#191970" d="M495.6069,-419.0619C473.1299,-408.5637 447.2923,-396.4958 425.9421,-386.5239"/>
<polygon fill="#191970" stroke="#191970" points="494.1439,-422.2415 504.6855,-423.3022 497.1062,-415.8992 494.1439,-422.2415"/>
</g>
<!-- Node19 -->
<g id="node13" class="node">
<title>Node19</title>
<g id="a_node13"><a xlink:href="HouseholderQR_8hpp.html" target="_top" xlink:title=" ">
<polygon fill="#ffffff" stroke="#000000" points="678,-345.5 678,-386.5 868,-386.5 868,-345.5 678,-345.5"/>
<text text-anchor="start" x="686" y="-374.5" font-family="Helvetica,sans-Serif" font-size="10.00" fill="#000000">/home/pieter/GitHub</text>
<text text-anchor="start" x="686" y="-363.5" font-family="Helvetica,sans-Serif" font-size="10.00" fill="#000000">/EAGLE&#45;ZYBO&#45;Linux/src</text>
<text text-anchor="middle" x="773" y="-352.5" font-family="Helvetica,sans-Serif" font-size="10.00" fill="#000000">/matrix/include/HouseholderQR.hpp</text>
</a>
</g>
</g>
<!-- Node11&#45;&gt;Node19 -->
<g id="edge16" class="edge">
<title>Node11&#45;&gt;Node19</title>
<path fill="none" stroke="#191970" d="M617.924,-419.9997C648.6355,-409.3055 684.4451,-396.8361 713.9109,-386.5757"/>
<polygon fill="#191970" stroke="#191970" points="616.4392,-416.8105 608.1464,-423.4044 618.7412,-423.4212 616.4392,-416.8105"/>
</g>
<!-- Node21 -->
<g id="node15" class="node">
<title>Node21</title>
<g id="a_node15"><a xlink:href="Randn_8hpp.html" target="_top" xlink:title=" ">
<polygon fill="#ffffff" stroke="#000000" points="476.5,-345.5 476.5,-386.5 621.5,-386.5 621.5,-345.5 476.5,-345.5"/>
<text text-anchor="start" x="484.5" y="-374.5" font-family="Helvetica,sans-Serif" font-size="10.00" fill="#000000">/home/pieter/GitHub</text>
<text text-anchor="start" x="484.5" y="-363.5" font-family="Helvetica,sans-Serif" font-size="10.00" fill="#000000">/EAGLE&#45;ZYBO&#45;Linux/src</text>
<text text-anchor="middle" x="549" y="-352.5" font-family="Helvetica,sans-Serif" font-size="10.00" fill="#000000">/matrix/include/Randn.hpp</text>
</a>
</g>
</g>
<!-- Node11&#45;&gt;Node21 -->
<g id="edge19" class="edge">
<title>Node11&#45;&gt;Node21</title>
<path fill="none" stroke="#191970" d="M549,-413.0789C549,-404.2178 549,-394.7747 549,-386.6898"/>
<polygon fill="#191970" stroke="#191970" points="545.5001,-413.0974 549,-423.0974 552.5001,-413.0975 545.5001,-413.0974"/>
</g>
<!-- Node22 -->
<g id="node16" class="node">
<title>Node22</title>
<g id="a_node16"><a xlink:href="PyMatrix_8hpp.html" target="_top" xlink:title=" ">
<polygon fill="#ffffff" stroke="#000000" points="875.5,-267.5 875.5,-308.5 1048.5,-308.5 1048.5,-267.5 875.5,-267.5"/>
<text text-anchor="start" x="883.5" y="-296.5" font-family="Helvetica,sans-Serif" font-size="10.00" fill="#000000">/home/pieter/GitHub</text>
<text text-anchor="start" x="883.5" y="-285.5" font-family="Helvetica,sans-Serif" font-size="10.00" fill="#000000">/EAGLE&#45;ZYBO&#45;Linux/src</text>
<text text-anchor="middle" x="962" y="-274.5" font-family="Helvetica,sans-Serif" font-size="10.00" fill="#000000">/py&#45;matrix/include/PyMatrix.hpp</text>
</a>
</g>
</g>
<!-- Node11&#45;&gt;Node22 -->
<g id="edge20" class="edge">
<title>Node11&#45;&gt;Node22</title>
<path fill="none" stroke="#191970" d="M632.0019,-436.023C715.0543,-426.9077 836.1764,-410.1955 877,-387 909.8925,-368.3108 936.0425,-331.8755 950.2494,-308.8004"/>
<polygon fill="#191970" stroke="#191970" points="631.3831,-432.5695 621.8171,-437.1239 632.1353,-439.5289 631.3831,-432.5695"/>
</g>
<!-- Node13 -->
<g id="node7" class="node">
<title>Node13</title>
<g id="a_node7"><a xlink:href="LocationFinder_8cpp.html" target="_top" xlink:title=" ">
<polygon fill="#ffffff" stroke="#000000" points="310,-89.5 310,-141.5 462,-141.5 462,-89.5 310,-89.5"/>
<text text-anchor="start" x="318" y="-129.5" font-family="Helvetica,sans-Serif" font-size="10.00" fill="#000000">/home/pieter/GitHub</text>
<text text-anchor="start" x="318" y="-118.5" font-family="Helvetica,sans-Serif" font-size="10.00" fill="#000000">/EAGLE&#45;ZYBO&#45;Linux/src</text>
<text text-anchor="start" x="318" y="-107.5" font-family="Helvetica,sans-Serif" font-size="10.00" fill="#000000">/location&#45;finder/src/Location</text>
<text text-anchor="middle" x="386" y="-96.5" font-family="Helvetica,sans-Serif" font-size="10.00" fill="#000000">Finder.cpp</text>
</a>
</g>
</g>
<!-- Node12&#45;&gt;Node13 -->
<g id="edge6" class="edge">
<title>Node12&#45;&gt;Node13</title>
<path fill="none" stroke="#191970" d="M460.4544,-177.4294C446.8501,-166.1136 431.0988,-153.012 417.597,-141.7816"/>
<polygon fill="#191970" stroke="#191970" points="458.2568,-180.1539 468.1831,-183.8579 462.7332,-174.7723 458.2568,-180.1539"/>
</g>
<!-- Node14 -->
<g id="node8" class="node">
<title>Node14</title>
<g id="a_node8"><a xlink:href="Grid-Finder_8module_8hpp.html" target="_top" xlink:title=" ">
<polygon fill="#ffffff" stroke="#000000" points="545.5,-89.5 545.5,-141.5 678.5,-141.5 678.5,-89.5 545.5,-89.5"/>
<text text-anchor="start" x="553.5" y="-129.5" font-family="Helvetica,sans-Serif" font-size="10.00" fill="#000000">/home/pieter/GitHub</text>
<text text-anchor="start" x="553.5" y="-118.5" font-family="Helvetica,sans-Serif" font-size="10.00" fill="#000000">/EAGLE&#45;ZYBO&#45;Linux/src</text>
<text text-anchor="start" x="553.5" y="-107.5" font-family="Helvetica,sans-Serif" font-size="10.00" fill="#000000">/py&#45;grid&#45;finder/include</text>
<text text-anchor="middle" x="612" y="-96.5" font-family="Helvetica,sans-Serif" font-size="10.00" fill="#000000">/Grid&#45;Finder.module.hpp</text>
</a>
</g>
</g>
<!-- Node12&#45;&gt;Node14 -->
<g id="edge7" class="edge">
<title>Node12&#45;&gt;Node14</title>
<path fill="none" stroke="#191970" d="M528.772,-177.7462C543.998,-166.3587 561.7031,-153.117 576.8594,-141.7816"/>
<polygon fill="#191970" stroke="#191970" points="526.5119,-175.0658 520.6001,-183.8579 530.7044,-180.6715 526.5119,-175.0658"/>
</g>
<!-- Node15 -->
<g id="node9" class="node">
<title>Node15</title>
<g id="a_node9"><a xlink:href="Grid-Finder_8module_8cpp.html" target="_top" xlink:title=" ">
<polygon fill="#ffffff" stroke="#000000" points="547.5,-.5 547.5,-52.5 676.5,-52.5 676.5,-.5 547.5,-.5"/>
<text text-anchor="start" x="555.5" y="-40.5" font-family="Helvetica,sans-Serif" font-size="10.00" fill="#000000">/home/pieter/GitHub</text>
<text text-anchor="start" x="555.5" y="-29.5" font-family="Helvetica,sans-Serif" font-size="10.00" fill="#000000">/EAGLE&#45;ZYBO&#45;Linux/src</text>
<text text-anchor="start" x="555.5" y="-18.5" font-family="Helvetica,sans-Serif" font-size="10.00" fill="#000000">/py&#45;grid&#45;finder/src/Grid</text>
<text text-anchor="middle" x="612" y="-7.5" font-family="Helvetica,sans-Serif" font-size="10.00" fill="#000000">&#45;Finder.module.cpp</text>
</a>
</g>
</g>
<!-- Node14&#45;&gt;Node15 -->
<g id="edge8" class="edge">
<title>Node14&#45;&gt;Node15</title>
<path fill="none" stroke="#191970" d="M612,-79.1155C612,-70.2061 612,-60.8475 612,-52.5341"/>
<polygon fill="#191970" stroke="#191970" points="608.5001,-79.2784 612,-89.2784 615.5001,-79.2785 608.5001,-79.2784"/>
</g>
<!-- Node16&#45;&gt;Node12 -->
<g id="edge10" class="edge">
<title>Node16&#45;&gt;Node12</title>
<path fill="none" stroke="#191970" d="M440.454,-339.9699C453.2468,-331.7599 465.4913,-321.491 474,-309 491.129,-283.854 494.0706,-247.7113 493.9976,-225.1935"/>
<polygon fill="#191970" stroke="#191970" points="438.3139,-337.1728 431.5491,-345.3268 441.9223,-343.1711 438.3139,-337.1728"/>
</g>
<!-- Node16&#45;&gt;Node14 -->
<g id="edge15" class="edge">
<title>Node16&#45;&gt;Node14</title>
<path fill="none" stroke="#191970" d="M450.8232,-341.3459C499.2472,-320.0827 560.7787,-284.2899 592,-231 608.1511,-203.4326 612.0141,-166.2372 612.5865,-141.5916"/>
<polygon fill="#191970" stroke="#191970" points="449.1454,-338.2566 441.3261,-345.4056 451.8969,-344.6932 449.1454,-338.2566"/>
</g>
<!-- Node17 -->
<g id="node11" class="node">
<title>Node17</title>
<g id="a_node11"><a xlink:href="HelperStructs_8hpp.html" target="_top" xlink:title=" ">
<polygon fill="#ffffff" stroke="#000000" points="267,-267.5 267,-308.5 465,-308.5 465,-267.5 267,-267.5"/>
<text text-anchor="start" x="275" y="-296.5" font-family="Helvetica,sans-Serif" font-size="10.00" fill="#000000">/home/pieter/GitHub</text>
<text text-anchor="start" x="275" y="-285.5" font-family="Helvetica,sans-Serif" font-size="10.00" fill="#000000">/EAGLE&#45;ZYBO&#45;Linux/src</text>
<text text-anchor="middle" x="366" y="-274.5" font-family="Helvetica,sans-Serif" font-size="10.00" fill="#000000">/grid&#45;finder/include/HelperStructs.hpp</text>
</a>
</g>
</g>
<!-- Node16&#45;&gt;Node17 -->
<g id="edge11" class="edge">
<title>Node16&#45;&gt;Node17</title>
<path fill="none" stroke="#191970" d="M375.6572,-335.0789C373.8395,-326.2178 371.9025,-316.7747 370.2441,-308.6898"/>
<polygon fill="#191970" stroke="#191970" points="372.2742,-336.0047 377.7123,-345.0974 379.1314,-334.5981 372.2742,-336.0047"/>
</g>
<!-- Node17&#45;&gt;Node12 -->
<g id="edge12" class="edge">
<title>Node17&#45;&gt;Node12</title>
<path fill="none" stroke="#191970" d="M405.9321,-261.7454C423.8666,-249.9539 444.7239,-236.2406 461.5277,-225.1924"/>
<polygon fill="#191970" stroke="#191970" points="403.8262,-258.9412 397.3933,-267.3595 407.6719,-264.7903 403.8262,-258.9412"/>
</g>
<!-- Node18 -->
<g id="node12" class="node">
<title>Node18</title>
<g id="a_node12"><a xlink:href="LocationFinder_8hpp.html" target="_top" xlink:title=" ">
<polygon fill="#ffffff" stroke="#000000" points="255.5,-178.5 255.5,-230.5 384.5,-230.5 384.5,-178.5 255.5,-178.5"/>
<text text-anchor="start" x="263.5" y="-218.5" font-family="Helvetica,sans-Serif" font-size="10.00" fill="#000000">/home/pieter/GitHub</text>
<text text-anchor="start" x="263.5" y="-207.5" font-family="Helvetica,sans-Serif" font-size="10.00" fill="#000000">/EAGLE&#45;ZYBO&#45;Linux/src</text>
<text text-anchor="start" x="263.5" y="-196.5" font-family="Helvetica,sans-Serif" font-size="10.00" fill="#000000">/location&#45;finder/include</text>
<text text-anchor="middle" x="320" y="-185.5" font-family="Helvetica,sans-Serif" font-size="10.00" fill="#000000">/LocationFinder.hpp</text>
</a>
</g>
</g>
<!-- Node17&#45;&gt;Node18 -->
<g id="edge13" class="edge">
<title>Node17&#45;&gt;Node18</title>
<path fill="none" stroke="#191970" d="M349.8006,-258.5945C344.7729,-249.4682 339.2689,-239.4772 334.3743,-230.5925"/>
<polygon fill="#191970" stroke="#191970" points="346.7383,-260.2895 354.6292,-267.3595 352.8695,-256.9119 346.7383,-260.2895"/>
</g>
<!-- Node18&#45;&gt;Node13 -->
<g id="edge14" class="edge">
<title>Node18&#45;&gt;Node13</title>
<path fill="none" stroke="#191970" d="M345.4799,-170.1407C352.5281,-160.6363 360.0597,-150.4801 366.6938,-141.5341"/>
<polygon fill="#191970" stroke="#191970" points="342.5905,-168.1612 339.4452,-178.2784 348.2132,-172.3309 342.5905,-168.1612"/>
</g>
<!-- Node20 -->
<g id="node14" class="node">
<title>Node20</title>
<g id="a_node14"><a xlink:href="LeastSquares_8hpp.html" target="_top" xlink:title=" ">
<polygon fill="#ffffff" stroke="#000000" points="678.5,-267.5 678.5,-308.5 857.5,-308.5 857.5,-267.5 678.5,-267.5"/>
<text text-anchor="start" x="686.5" y="-296.5" font-family="Helvetica,sans-Serif" font-size="10.00" fill="#000000">/home/pieter/GitHub</text>
<text text-anchor="start" x="686.5" y="-285.5" font-family="Helvetica,sans-Serif" font-size="10.00" fill="#000000">/EAGLE&#45;ZYBO&#45;Linux/src</text>
<text text-anchor="middle" x="768" y="-274.5" font-family="Helvetica,sans-Serif" font-size="10.00" fill="#000000">/matrix/include/LeastSquares.hpp</text>
</a>
</g>
</g>
<!-- Node19&#45;&gt;Node20 -->
<g id="edge17" class="edge">
<title>Node19&#45;&gt;Node20</title>
<path fill="none" stroke="#191970" d="M771.0179,-335.0789C770.4499,-326.2178 769.8445,-316.7747 769.3263,-308.6898"/>
<polygon fill="#191970" stroke="#191970" points="767.5275,-335.3418 771.6601,-345.0974 774.5131,-334.894 767.5275,-335.3418"/>
</g>
<!-- Node22&#45;&gt;Node14 -->
<g id="edge21" class="edge">
<title>Node22&#45;&gt;Node14</title>
<path fill="none" stroke="#191970" d="M910.778,-262.7549C844.9656,-230.3187 731.2989,-174.2973 664.7538,-141.5001"/>
<polygon fill="#191970" stroke="#191970" points="909.6124,-266.0824 920.1295,-267.3638 912.707,-259.8035 909.6124,-266.0824"/>
</g>
</g>
</svg>
