<?xml version="1.0" encoding="UTF-8" standalone="no"?>
<!DOCTYPE svg PUBLIC "-//W3C//DTD SVG 1.1//EN"
 "http://www.w3.org/Graphics/SVG/1.1/DTD/svg11.dtd">
<!-- Generated by graphviz version 2.40.1 (20161225.0304)
 -->
<!-- Title: /home/pieter/GitHub/EAGLE&#45;ZYBO&#45;Linux/src/matrix/include/Array.hpp Pages: 1 -->
<svg width="1652pt" height="729pt"
 viewBox="0.00 0.00 1651.50 729.00" xmlns="http://www.w3.org/2000/svg" xmlns:xlink="http://www.w3.org/1999/xlink">
<g id="graph0" class="graph" transform="scale(1 1) rotate(0) translate(4 725)">
<title>/home/pieter/GitHub/EAGLE&#45;ZYBO&#45;Linux/src/matrix/include/Array.hpp</title>
<polygon fill="#ffffff" stroke="transparent" points="-4,4 -4,-725 1647.5,-725 1647.5,4 -4,4"/>
<!-- Node7 -->
<g id="node1" class="node">
<title>Node7</title>
<g id="a_node1"><a xlink:title=" ">
<polygon fill="#bfbfbf" stroke="#000000" points="213.5,-679.5 213.5,-720.5 352.5,-720.5 352.5,-679.5 213.5,-679.5"/>
<text text-anchor="start" x="221.5" y="-708.5" font-family="Helvetica,sans-Serif" font-size="10.00" fill="#000000">/home/pieter/GitHub</text>
<text text-anchor="start" x="221.5" y="-697.5" font-family="Helvetica,sans-Serif" font-size="10.00" fill="#000000">/EAGLE&#45;ZYBO&#45;Linux/src</text>
<text text-anchor="middle" x="283" y="-686.5" font-family="Helvetica,sans-Serif" font-size="10.00" fill="#000000">/matrix/include/Array.hpp</text>
</a>
</g>
</g>
<!-- Node8 -->
<g id="node2" class="node">
<title>Node8</title>
<g id="a_node2"><a xlink:href="AlmostEqual_8hpp.html" target="_top" xlink:title=" ">
<polygon fill="#ffffff" stroke="#000000" points="0,-601.5 0,-642.5 176,-642.5 176,-601.5 0,-601.5"/>
<text text-anchor="start" x="8" y="-630.5" font-family="Helvetica,sans-Serif" font-size="10.00" fill="#000000">/home/pieter/GitHub</text>
<text text-anchor="start" x="8" y="-619.5" font-family="Helvetica,sans-Serif" font-size="10.00" fill="#000000">/EAGLE&#45;ZYBO&#45;Linux/src</text>
<text text-anchor="middle" x="88" y="-608.5" font-family="Helvetica,sans-Serif" font-size="10.00" fill="#000000">/matrix/include/AlmostEqual.hpp</text>
</a>
</g>
</g>
<!-- Node7&#45;&gt;Node8 -->
<g id="edge1" class="edge">
<title>Node7&#45;&gt;Node8</title>
<path fill="none" stroke="#191970" d="M221.9553,-675.5821C195.455,-664.982 164.7571,-652.7028 139.4392,-642.5757"/>
<polygon fill="#191970" stroke="#191970" points="220.9263,-678.9401 231.511,-679.4044 223.5261,-672.4408 220.9263,-678.9401"/>
</g>
<!-- Node9 -->
<g id="node3" class="node">
<title>Node9</title>
<g id="a_node3"><a xlink:href="ArrayHelpers_8hpp.html" target="_top" xlink:title=" ">
<polygon fill="#ffffff" stroke="#000000" points="194,-601.5 194,-642.5 372,-642.5 372,-601.5 194,-601.5"/>
<text text-anchor="start" x="202" y="-630.5" font-family="Helvetica,sans-Serif" font-size="10.00" fill="#000000">/home/pieter/GitHub</text>
<text text-anchor="start" x="202" y="-619.5" font-family="Helvetica,sans-Serif" font-size="10.00" fill="#000000">/EAGLE&#45;ZYBO&#45;Linux/src</text>
<text text-anchor="middle" x="283" y="-608.5" font-family="Helvetica,sans-Serif" font-size="10.00" fill="#000000">/matrix/include/ArrayHelpers.hpp</text>
</a>
</g>
</g>
<!-- Node7&#45;&gt;Node9 -->
<g id="edge2" class="edge">
<title>Node7&#45;&gt;Node9</title>
<path fill="none" stroke="#191970" d="M283,-669.0789C283,-660.2178 283,-650.7747 283,-642.6898"/>
<polygon fill="#191970" stroke="#191970" points="279.5001,-669.0974 283,-679.0974 286.5001,-669.0975 279.5001,-669.0974"/>
</g>
<!-- Node11 -->
<g id="node5" class="node">
<title>Node11</title>
<g id="a_node5"><a xlink:href="Matrix_8hpp.html" target="_top" xlink:title=" ">
<polygon fill="#ffffff" stroke="#000000" points="607.5,-601.5 607.5,-642.5 752.5,-642.5 752.5,-601.5 607.5,-601.5"/>
<text text-anchor="start" x="615.5" y="-630.5" font-family="Helvetica,sans-Serif" font-size="10.00" fill="#000000">/home/pieter/GitHub</text>
<text text-anchor="start" x="615.5" y="-619.5" font-family="Helvetica,sans-Serif" font-size="10.00" fill="#000000">/EAGLE&#45;ZYBO&#45;Linux/src</text>
<text text-anchor="middle" x="680" y="-608.5" font-family="Helvetica,sans-Serif" font-size="10.00" fill="#000000">/matrix/include/Matrix.hpp</text>
</a>
</g>
</g>
<!-- Node7&#45;&gt;Node11 -->
<g id="edge4" class="edge">
<title>Node7&#45;&gt;Node11</title>
<path fill="none" stroke="#191970" d="M362.4724,-684.3858C433.9784,-670.3367 538.1576,-649.8683 607.4497,-636.2542"/>
<polygon fill="#191970" stroke="#191970" points="361.744,-680.9619 352.6064,-686.3242 363.0936,-687.8306 361.744,-680.9619"/>
</g>
<!-- Node10 -->
<g id="node4" class="node">
<title>Node10</title>
<g id="a_node4"><a xlink:href="MatrixHelpers_8hpp.html" target="_top" xlink:title=" ">
<polygon fill="#ffffff" stroke="#000000" points="66,-523.5 66,-564.5 248,-564.5 248,-523.5 66,-523.5"/>
<text text-anchor="start" x="74" y="-552.5" font-family="Helvetica,sans-Serif" font-size="10.00" fill="#000000">/home/pieter/GitHub</text>
<text text-anchor="start" x="74" y="-541.5" font-family="Helvetica,sans-Serif" font-size="10.00" fill="#000000">/EAGLE&#45;ZYBO&#45;Linux/src</text>
<text text-anchor="middle" x="157" y="-530.5" font-family="Helvetica,sans-Serif" font-size="10.00" fill="#000000">/matrix/include/MatrixHelpers.hpp</text>
</a>
</g>
</g>
<!-- Node9&#45;&gt;Node10 -->
<g id="edge3" class="edge">
<title>Node9&#45;&gt;Node10</title>
<path fill="none" stroke="#191970" d="M240.6686,-595.7948C224.2025,-585.6016 205.6181,-574.0969 190.1539,-564.5239"/>
<polygon fill="#191970" stroke="#191970" points="239.2202,-599.0146 249.5651,-601.3022 242.9047,-593.0627 239.2202,-599.0146"/>
</g>
<!-- Node11&#45;&gt;Node10 -->
<g id="edge20" class="edge">
<title>Node11&#45;&gt;Node10</title>
<path fill="none" stroke="#191970" d="M597.2506,-612.2485C512.7564,-601.932 377.9101,-584.4748 262,-565 257.5084,-564.2453 252.9148,-563.4428 248.2798,-562.6084"/>
<polygon fill="#191970" stroke="#191970" points="596.9511,-615.7377 607.3005,-613.4708 597.7963,-608.789 596.9511,-615.7377"/>
</g>
<!-- Node12 -->
<g id="node6" class="node">
<title>Node12</title>
<g id="a_node6"><a xlink:href="GridFinder_8hpp.html" target="_top" xlink:title=" ">
<polygon fill="#ffffff" stroke="#000000" points="316.5,-351 316.5,-392 497.5,-392 497.5,-351 316.5,-351"/>
<text text-anchor="start" x="324.5" y="-380" font-family="Helvetica,sans-Serif" font-size="10.00" fill="#000000">/home/pieter/GitHub</text>
<text text-anchor="start" x="324.5" y="-369" font-family="Helvetica,sans-Serif" font-size="10.00" fill="#000000">/EAGLE&#45;ZYBO&#45;Linux/src</text>
<text text-anchor="middle" x="407" y="-358" font-family="Helvetica,sans-Serif" font-size="10.00" fill="#000000">/grid&#45;finder/include/GridFinder.hpp</text>
</a>
</g>
</g>
<!-- Node11&#45;&gt;Node12 -->
<g id="edge5" class="edge">
<title>Node11&#45;&gt;Node12</title>
<path fill="none" stroke="#191970" d="M597.5126,-602.9213C501.3428,-578.7716 351.4892,-534.5504 320,-487 306.9941,-467.3605 309.2498,-454.9594 320,-434 329.1665,-416.1282 346.0829,-402.2121 362.5788,-392.0948"/>
<polygon fill="#191970" stroke="#191970" points="596.6748,-606.3195 607.2241,-605.3378 598.3651,-599.5267 596.6748,-606.3195"/>
</g>
<!-- Node16 -->
<g id="node10" class="node">
<title>Node16</title>
<g id="a_node10"><a xlink:href="Line_8hpp.html" target="_top" xlink:title=" ">
<polygon fill="#ffffff" stroke="#000000" points="513,-523.5 513,-564.5 665,-564.5 665,-523.5 513,-523.5"/>
<text text-anchor="start" x="521" y="-552.5" font-family="Helvetica,sans-Serif" font-size="10.00" fill="#000000">/home/pieter/GitHub</text>
<text text-anchor="start" x="521" y="-541.5" font-family="Helvetica,sans-Serif" font-size="10.00" fill="#000000">/EAGLE&#45;ZYBO&#45;Linux/src</text>
<text text-anchor="middle" x="589" y="-530.5" font-family="Helvetica,sans-Serif" font-size="10.00" fill="#000000">/grid&#45;finder/include/Line.hpp</text>
</a>
</g>
</g>
<!-- Node11&#45;&gt;Node16 -->
<g id="edge9" class="edge">
<title>Node11&#45;&gt;Node16</title>
<path fill="none" stroke="#191970" d="M647.9309,-594.5122C636.4883,-584.7043 623.8009,-573.8293 613.1381,-564.6898"/>
<polygon fill="#191970" stroke="#191970" points="645.7433,-597.2469 655.6137,-601.0974 650.2989,-591.9321 645.7433,-597.2469"/>
</g>
<!-- Node20 -->
<g id="node14" class="node">
<title>Node20</title>
<g id="a_node14"><a xlink:href="HouseholderQR_8hpp.html" target="_top" xlink:title=" ">
<polygon fill="#ffffff" stroke="#000000" points="1251,-523.5 1251,-564.5 1441,-564.5 1441,-523.5 1251,-523.5"/>
<text text-anchor="start" x="1259" y="-552.5" font-family="Helvetica,sans-Serif" font-size="10.00" fill="#000000">/home/pieter/GitHub</text>
<text text-anchor="start" x="1259" y="-541.5" font-family="Helvetica,sans-Serif" font-size="10.00" fill="#000000">/EAGLE&#45;ZYBO&#45;Linux/src</text>
<text text-anchor="middle" x="1346" y="-530.5" font-family="Helvetica,sans-Serif" font-size="10.00" fill="#000000">/matrix/include/HouseholderQR.hpp</text>
</a>
</g>
</g>
<!-- Node11&#45;&gt;Node20 -->
<g id="edge18" class="edge">
<title>Node11&#45;&gt;Node20</title>
<path fill="none" stroke="#191970" d="M762.729,-612.4518C860.1536,-601.19 1026.8578,-581.8653 1170,-565 1196.1296,-561.9214 1224.4374,-558.5567 1250.5539,-555.4405"/>
<polygon fill="#191970" stroke="#191970" points="762.1821,-608.9916 752.6501,-613.6167 762.9858,-615.9453 762.1821,-608.9916"/>
</g>
<!-- Node22 -->
<g id="node16" class="node">
<title>Node22</title>
<g id="a_node16"><a xlink:href="Randn_8hpp.html" target="_top" xlink:title=" ">
<polygon fill="#ffffff" stroke="#000000" points="1015.5,-523.5 1015.5,-564.5 1160.5,-564.5 1160.5,-523.5 1015.5,-523.5"/>
<text text-anchor="start" x="1023.5" y="-552.5" font-family="Helvetica,sans-Serif" font-size="10.00" fill="#000000">/home/pieter/GitHub</text>
<text text-anchor="start" x="1023.5" y="-541.5" font-family="Helvetica,sans-Serif" font-size="10.00" fill="#000000">/EAGLE&#45;ZYBO&#45;Linux/src</text>
<text text-anchor="middle" x="1088" y="-530.5" font-family="Helvetica,sans-Serif" font-size="10.00" fill="#000000">/matrix/include/Randn.hpp</text>
</a>
</g>
</g>
<!-- Node11&#45;&gt;Node22 -->
<g id="edge21" class="edge">
<title>Node11&#45;&gt;Node22</title>
<path fill="none" stroke="#191970" d="M762.7681,-609.3483C828.8677,-598.8071 923.7209,-582.7009 1006,-565 1009.017,-564.3509 1012.0909,-563.667 1015.1919,-562.9584"/>
<polygon fill="#191970" stroke="#191970" points="762.149,-605.9026 752.8214,-610.9271 763.2464,-612.8161 762.149,-605.9026"/>
</g>
<!-- Node23 -->
<g id="node17" class="node">
<title>Node23</title>
<g id="a_node17"><a xlink:href="PyMatrix_8hpp.html" target="_top" xlink:title=" ">
<polygon fill="#ffffff" stroke="#000000" points="701.5,-351 701.5,-392 874.5,-392 874.5,-351 701.5,-351"/>
<text text-anchor="start" x="709.5" y="-380" font-family="Helvetica,sans-Serif" font-size="10.00" fill="#000000">/home/pieter/GitHub</text>
<text text-anchor="start" x="709.5" y="-369" font-family="Helvetica,sans-Serif" font-size="10.00" fill="#000000">/EAGLE&#45;ZYBO&#45;Linux/src</text>
<text text-anchor="middle" x="788" y="-358" font-family="Helvetica,sans-Serif" font-size="10.00" fill="#000000">/py&#45;matrix/include/PyMatrix.hpp</text>
</a>
</g>
</g>
<!-- Node11&#45;&gt;Node23 -->
<g id="edge22" class="edge">
<title>Node11&#45;&gt;Node23</title>
<path fill="none" stroke="#191970" d="M693.0303,-591.777C715.2769,-540.1772 760.0242,-436.3882 779.0794,-392.1909"/>
<polygon fill="#191970" stroke="#191970" points="689.7674,-590.5048 689.0223,-601.0734 696.1954,-593.2762 689.7674,-590.5048"/>
</g>
<!-- Node26 -->
<g id="node20" class="node">
<title>Node26</title>
<g id="a_node20"><a xlink:href="Quaternion_8hpp.html" target="_top" xlink:title=" ">
<polygon fill="#ffffff" stroke="#000000" points="809,-523.5 809,-564.5 997,-564.5 997,-523.5 809,-523.5"/>
<text text-anchor="start" x="817" y="-552.5" font-family="Helvetica,sans-Serif" font-size="10.00" fill="#000000">/home/pieter/GitHub</text>
<text text-anchor="start" x="817" y="-541.5" font-family="Helvetica,sans-Serif" font-size="10.00" fill="#000000">/EAGLE&#45;ZYBO&#45;Linux/src</text>
<text text-anchor="middle" x="903" y="-530.5" font-family="Helvetica,sans-Serif" font-size="10.00" fill="#000000">/quaternion/include/Quaternion.hpp</text>
</a>
</g>
</g>
<!-- Node11&#45;&gt;Node26 -->
<g id="edge26" class="edge">
<title>Node11&#45;&gt;Node26</title>
<path fill="none" stroke="#191970" d="M748.6163,-597.9997C779.1907,-587.3055 814.8404,-574.8361 844.1747,-564.5757"/>
<polygon fill="#191970" stroke="#191970" points="747.166,-594.799 738.8823,-601.4044 749.4772,-601.4064 747.166,-594.799"/>
</g>
<!-- Node13 -->
<g id="node7" class="node">
<title>Node13</title>
<g id="a_node7"><a xlink:href="LocationFinder_8cpp.html" target="_top" xlink:title=" ">
<polygon fill="#ffffff" stroke="#000000" points="358,-256.5 358,-308.5 510,-308.5 510,-256.5 358,-256.5"/>
<text text-anchor="start" x="366" y="-296.5" font-family="Helvetica,sans-Serif" font-size="10.00" fill="#000000">/home/pieter/GitHub</text>
<text text-anchor="start" x="366" y="-285.5" font-family="Helvetica,sans-Serif" font-size="10.00" fill="#000000">/EAGLE&#45;ZYBO&#45;Linux/src</text>
<text text-anchor="start" x="366" y="-274.5" font-family="Helvetica,sans-Serif" font-size="10.00" fill="#000000">/location&#45;finder/src/Location</text>
<text text-anchor="middle" x="434" y="-263.5" font-family="Helvetica,sans-Serif" font-size="10.00" fill="#000000">Finder.cpp</text>
</a>
</g>
</g>
<!-- Node12&#45;&gt;Node13 -->
<g id="edge6" class="edge">
<title>Node12&#45;&gt;Node13</title>
<path fill="none" stroke="#191970" d="M416.1882,-341.2129C419.3833,-330.6811 422.9384,-318.9625 426.0269,-308.7816"/>
<polygon fill="#191970" stroke="#191970" points="412.8161,-340.2725 413.2622,-350.8579 419.5146,-342.3047 412.8161,-340.2725"/>
</g>
<!-- Node14 -->
<g id="node8" class="node">
<title>Node14</title>
<g id="a_node8"><a xlink:href="Grid-Finder_8module_8hpp.html" target="_top" xlink:title=" ">
<polygon fill="#ffffff" stroke="#000000" points="580.5,-256.5 580.5,-308.5 713.5,-308.5 713.5,-256.5 580.5,-256.5"/>
<text text-anchor="start" x="588.5" y="-296.5" font-family="Helvetica,sans-Serif" font-size="10.00" fill="#000000">/home/pieter/GitHub</text>
<text text-anchor="start" x="588.5" y="-285.5" font-family="Helvetica,sans-Serif" font-size="10.00" fill="#000000">/EAGLE&#45;ZYBO&#45;Linux/src</text>
<text text-anchor="start" x="588.5" y="-274.5" font-family="Helvetica,sans-Serif" font-size="10.00" fill="#000000">/py&#45;grid&#45;finder/include</text>
<text text-anchor="middle" x="647" y="-263.5" font-family="Helvetica,sans-Serif" font-size="10.00" fill="#000000">/Grid&#45;Finder.module.hpp</text>
</a>
</g>
</g>
<!-- Node12&#45;&gt;Node14 -->
<g id="edge7" class="edge">
<title>Node12&#45;&gt;Node14</title>
<path fill="none" stroke="#191970" d="M472.0812,-347.3657C505.6696,-334.91 546.5772,-319.7401 580.3845,-307.2033"/>
<polygon fill="#191970" stroke="#191970" points="470.5213,-344.2112 462.3622,-350.9699 472.9552,-350.7745 470.5213,-344.2112"/>
</g>
<!-- Node15 -->
<g id="node9" class="node">
<title>Node15</title>
<g id="a_node9"><a xlink:href="Grid-Finder_8module_8cpp.html" target="_top" xlink:title=" ">
<polygon fill="#ffffff" stroke="#000000" points="582.5,-167.5 582.5,-219.5 711.5,-219.5 711.5,-167.5 582.5,-167.5"/>
<text text-anchor="start" x="590.5" y="-207.5" font-family="Helvetica,sans-Serif" font-size="10.00" fill="#000000">/home/pieter/GitHub</text>
<text text-anchor="start" x="590.5" y="-196.5" font-family="Helvetica,sans-Serif" font-size="10.00" fill="#000000">/EAGLE&#45;ZYBO&#45;Linux/src</text>
<text text-anchor="start" x="590.5" y="-185.5" font-family="Helvetica,sans-Serif" font-size="10.00" fill="#000000">/py&#45;grid&#45;finder/src/Grid</text>
<text text-anchor="middle" x="647" y="-174.5" font-family="Helvetica,sans-Serif" font-size="10.00" fill="#000000">&#45;Finder.module.cpp</text>
</a>
</g>
</g>
<!-- Node14&#45;&gt;Node15 -->
<g id="edge8" class="edge">
<title>Node14&#45;&gt;Node15</title>
<path fill="none" stroke="#191970" d="M647,-246.1155C647,-237.2061 647,-227.8475 647,-219.5341"/>
<polygon fill="#191970" stroke="#191970" points="643.5001,-246.2784 647,-256.2784 650.5001,-246.2785 643.5001,-246.2784"/>
</g>
<!-- Node16&#45;&gt;Node12 -->
<g id="edge10" class="edge">
<title>Node16&#45;&gt;Node12</title>
<path fill="none" stroke="#191970" d="M502.8353,-536.2604C437.0381,-528.3561 354.1664,-513.3975 333,-487 318.2644,-468.6226 323.0793,-455.3646 333,-434 341.0031,-416.765 356.3591,-402.5679 371.0174,-392.0847"/>
<polygon fill="#191970" stroke="#191970" points="502.4852,-539.7432 512.8227,-537.4226 503.2943,-532.7901 502.4852,-539.7432"/>
</g>
<!-- Node16&#45;&gt;Node14 -->
<g id="edge17" class="edge">
<title>Node16&#45;&gt;Node14</title>
<path fill="none" stroke="#191970" d="M663.6328,-518.4474C676.9272,-510.47 689.0525,-500.181 697,-487 715.1174,-456.9521 677.9337,-356.9448 658.2095,-308.8191"/>
<polygon fill="#191970" stroke="#191970" points="661.811,-515.4554 654.7597,-523.363 665.2032,-521.5785 661.811,-515.4554"/>
</g>
<!-- Node17 -->
<g id="node11" class="node">
<title>Node17</title>
<g id="a_node11"><a xlink:href="HelperStructs_8hpp.html" target="_top" xlink:title=" ">
<polygon fill="#ffffff" stroke="#000000" points="490,-440 490,-481 688,-481 688,-440 490,-440"/>
<text text-anchor="start" x="498" y="-469" font-family="Helvetica,sans-Serif" font-size="10.00" fill="#000000">/home/pieter/GitHub</text>
<text text-anchor="start" x="498" y="-458" font-family="Helvetica,sans-Serif" font-size="10.00" fill="#000000">/EAGLE&#45;ZYBO&#45;Linux/src</text>
<text text-anchor="middle" x="589" y="-447" font-family="Helvetica,sans-Serif" font-size="10.00" fill="#000000">/grid&#45;finder/include/HelperStructs.hpp</text>
</a>
</g>
</g>
<!-- Node16&#45;&gt;Node17 -->
<g id="edge11" class="edge">
<title>Node16&#45;&gt;Node17</title>
<path fill="none" stroke="#191970" d="M589,-513.1593C589,-502.5064 589,-490.8344 589,-481.1924"/>
<polygon fill="#191970" stroke="#191970" points="585.5001,-513.3595 589,-523.3595 592.5001,-513.3596 585.5001,-513.3595"/>
</g>
<!-- Node19 -->
<g id="node13" class="node">
<title>Node19</title>
<g id="a_node13"><a xlink:href="LocationTracker_8hpp.html" target="_top" xlink:title=" ">
<polygon fill="#ffffff" stroke="#000000" points="342.5,-434.5 342.5,-486.5 471.5,-486.5 471.5,-434.5 342.5,-434.5"/>
<text text-anchor="start" x="350.5" y="-474.5" font-family="Helvetica,sans-Serif" font-size="10.00" fill="#000000">/home/pieter/GitHub</text>
<text text-anchor="start" x="350.5" y="-463.5" font-family="Helvetica,sans-Serif" font-size="10.00" fill="#000000">/EAGLE&#45;ZYBO&#45;Linux/src</text>
<text text-anchor="start" x="350.5" y="-452.5" font-family="Helvetica,sans-Serif" font-size="10.00" fill="#000000">/location&#45;finder/include</text>
<text text-anchor="middle" x="407" y="-441.5" font-family="Helvetica,sans-Serif" font-size="10.00" fill="#000000">/LocationTracker.hpp</text>
</a>
</g>
</g>
<!-- Node16&#45;&gt;Node19 -->
<g id="edge16" class="edge">
<title>Node16&#45;&gt;Node19</title>
<path fill="none" stroke="#191970" d="M534.6757,-519.0765C512.3405,-508.8293 486.4654,-496.958 463.8723,-486.5925"/>
<polygon fill="#191970" stroke="#191970" points="533.4626,-522.3707 544.0112,-523.3595 536.3817,-516.0083 533.4626,-522.3707"/>
</g>
<!-- Node17&#45;&gt;Node12 -->
<g id="edge12" class="edge">
<title>Node17&#45;&gt;Node12</title>
<path fill="none" stroke="#191970" d="M537.5512,-435.341C509.5535,-421.6498 475.3542,-404.926 448.983,-392.0301"/>
<polygon fill="#191970" stroke="#191970" points="536.2671,-438.6091 546.7881,-439.8579 539.3422,-432.3207 536.2671,-438.6091"/>
</g>
<!-- Node18 -->
<g id="node12" class="node">
<title>Node18</title>
<g id="a_node12"><a xlink:href="LocationFinder_8hpp.html" target="_top" xlink:title=" ">
<polygon fill="#ffffff" stroke="#000000" points="515.5,-345.5 515.5,-397.5 644.5,-397.5 644.5,-345.5 515.5,-345.5"/>
<text text-anchor="start" x="523.5" y="-385.5" font-family="Helvetica,sans-Serif" font-size="10.00" fill="#000000">/home/pieter/GitHub</text>
<text text-anchor="start" x="523.5" y="-374.5" font-family="Helvetica,sans-Serif" font-size="10.00" fill="#000000">/EAGLE&#45;ZYBO&#45;Linux/src</text>
<text text-anchor="start" x="523.5" y="-363.5" font-family="Helvetica,sans-Serif" font-size="10.00" fill="#000000">/location&#45;finder/include</text>
<text text-anchor="middle" x="580" y="-352.5" font-family="Helvetica,sans-Serif" font-size="10.00" fill="#000000">/LocationFinder.hpp</text>
</a>
</g>
</g>
<!-- Node17&#45;&gt;Node18 -->
<g id="edge13" class="edge">
<title>Node17&#45;&gt;Node18</title>
<path fill="none" stroke="#191970" d="M585.9043,-429.8868C584.8478,-419.4396 583.6766,-407.8575 582.6577,-397.7816"/>
<polygon fill="#191970" stroke="#191970" points="582.4242,-430.2608 586.9126,-439.8579 589.3886,-429.5565 582.4242,-430.2608"/>
</g>
<!-- Node18&#45;&gt;Node13 -->
<g id="edge14" class="edge">
<title>Node18&#45;&gt;Node13</title>
<path fill="none" stroke="#191970" d="M528.3241,-339.9989C511.4299,-329.7004 492.8654,-318.3837 476.7077,-308.5341"/>
<polygon fill="#191970" stroke="#191970" points="526.6245,-343.0619 536.9848,-345.2784 530.268,-337.0848 526.6245,-343.0619"/>
</g>
<!-- Node18&#45;&gt;Node14 -->
<g id="edge15" class="edge">
<title>Node18&#45;&gt;Node14</title>
<path fill="none" stroke="#191970" d="M605.866,-337.1407C613.021,-327.6363 620.6667,-317.4801 627.4013,-308.5341"/>
<polygon fill="#191970" stroke="#191970" points="602.958,-335.1842 599.7398,-345.2784 608.5505,-339.3942 602.958,-335.1842"/>
</g>
<!-- Node21 -->
<g id="node15" class="node">
<title>Node21</title>
<g id="a_node15"><a xlink:href="LeastSquares_8hpp.html" target="_top" xlink:title=" ">
<polygon fill="#ffffff" stroke="#000000" points="1328.5,-440 1328.5,-481 1507.5,-481 1507.5,-440 1328.5,-440"/>
<text text-anchor="start" x="1336.5" y="-469" font-family="Helvetica,sans-Serif" font-size="10.00" fill="#000000">/home/pieter/GitHub</text>
<text text-anchor="start" x="1336.5" y="-458" font-family="Helvetica,sans-Serif" font-size="10.00" fill="#000000">/EAGLE&#45;ZYBO&#45;Linux/src</text>
<text text-anchor="middle" x="1418" y="-447" font-family="Helvetica,sans-Serif" font-size="10.00" fill="#000000">/matrix/include/LeastSquares.hpp</text>
</a>
</g>
</g>
<!-- Node20&#45;&gt;Node21 -->
<g id="edge19" class="edge">
<title>Node20&#45;&gt;Node21</title>
<path fill="none" stroke="#191970" d="M1370.5989,-515.4722C1380.3019,-504.2193 1391.2371,-491.5375 1400.1575,-481.1924"/>
<polygon fill="#191970" stroke="#191970" points="1367.6774,-513.5006 1363.7978,-523.3595 1372.9788,-518.0718 1367.6774,-513.5006"/>
</g>
<!-- Node23&#45;&gt;Node14 -->
<g id="edge23" class="edge">
<title>Node23&#45;&gt;Node14</title>
<path fill="none" stroke="#191970" d="M746.5772,-345.3537C728.236,-333.7766 706.7114,-320.1902 688.3757,-308.6166"/>
<polygon fill="#191970" stroke="#191970" points="744.9728,-348.4799 755.2974,-350.8579 748.7092,-342.5605 744.9728,-348.4799"/>
</g>
<!-- Node24 -->
<g id="node18" class="node">
<title>Node24</title>
<g id="a_node18"><a xlink:href="PyQuaternion_8cpp.html" target="_top" xlink:title=" ">
<polygon fill="#ffffff" stroke="#000000" points="800,-262 800,-303 994,-303 994,-262 800,-262"/>
<text text-anchor="start" x="808" y="-291" font-family="Helvetica,sans-Serif" font-size="10.00" fill="#000000">/home/pieter/GitHub</text>
<text text-anchor="start" x="808" y="-280" font-family="Helvetica,sans-Serif" font-size="10.00" fill="#000000">/EAGLE&#45;ZYBO&#45;Linux/src</text>
<text text-anchor="middle" x="897" y="-269" font-family="Helvetica,sans-Serif" font-size="10.00" fill="#000000">/py&#45;quaternion/src/PyQuaternion.cpp</text>
</a>
</g>
</g>
<!-- Node23&#45;&gt;Node24 -->
<g id="edge24" class="edge">
<title>Node23&#45;&gt;Node24</title>
<path fill="none" stroke="#191970" d="M821.4664,-344.1742C837.7051,-330.9151 856.8866,-315.2531 871.8563,-303.0301"/>
<polygon fill="#191970" stroke="#191970" points="818.8131,-341.8222 813.2808,-350.8579 823.2403,-347.2443 818.8131,-341.8222"/>
</g>
<!-- Node25 -->
<g id="node19" class="node">
<title>Node25</title>
<g id="a_node19"><a xlink:href="DroneLogEntry_8Python_8cpp.html" target="_top" xlink:title=" ">
<polygon fill="#ffffff" stroke="#000000" points="1012,-256.5 1012,-308.5 1160,-308.5 1160,-256.5 1012,-256.5"/>
<text text-anchor="start" x="1020" y="-296.5" font-family="Helvetica,sans-Serif" font-size="10.00" fill="#000000">/home/pieter/GitHub</text>
<text text-anchor="start" x="1020" y="-285.5" font-family="Helvetica,sans-Serif" font-size="10.00" fill="#000000">/EAGLE&#45;ZYBO&#45;Linux/build</text>
<text text-anchor="start" x="1020" y="-274.5" font-family="Helvetica,sans-Serif" font-size="10.00" fill="#000000">/src/logentry/src&#45;generated</text>
<text text-anchor="middle" x="1086" y="-263.5" font-family="Helvetica,sans-Serif" font-size="10.00" fill="#000000">/DroneLogEntry.Python.cpp</text>
</a>
</g>
</g>
<!-- Node23&#45;&gt;Node25 -->
<g id="edge25" class="edge">
<title>Node23&#45;&gt;Node25</title>
<path fill="none" stroke="#191970" d="M870.0408,-348.196C910.1951,-336.6512 959.2048,-322.3545 1003,-309 1005.8937,-308.1176 1008.8419,-307.2114 1011.8184,-306.2903"/>
<polygon fill="#191970" stroke="#191970" points="868.9428,-344.8698 860.2969,-350.9935 870.8745,-351.598 868.9428,-344.8698"/>
</g>
<!-- Node26&#45;&gt;Node24 -->
<g id="edge27" class="edge">
<title>Node26&#45;&gt;Node24</title>
<path fill="none" stroke="#191970" d="M902.2927,-513.1734C901.0553,-459.244 898.5294,-349.156 897.4769,-303.286"/>
<polygon fill="#191970" stroke="#191970" points="898.8006,-513.5635 902.5292,-523.4805 905.7988,-513.4028 898.8006,-513.5635"/>
</g>
<!-- Node27 -->
<g id="node21" class="node">
<title>Node27</title>
<g id="a_node21"><a xlink:href="EulerAngles_8hpp.html" target="_top" xlink:title=" ">
<polygon fill="#ffffff" stroke="#000000" points="931,-440 931,-481 1123,-481 1123,-440 931,-440"/>
<text text-anchor="start" x="939" y="-469" font-family="Helvetica,sans-Serif" font-size="10.00" fill="#000000">/home/pieter/GitHub</text>
<text text-anchor="start" x="939" y="-458" font-family="Helvetica,sans-Serif" font-size="10.00" fill="#000000">/EAGLE&#45;ZYBO&#45;Linux/src</text>
<text text-anchor="middle" x="1027" y="-447" font-family="Helvetica,sans-Serif" font-size="10.00" fill="#000000">/quaternion/include/EulerAngles.hpp</text>
</a>
</g>
</g>
<!-- Node26&#45;&gt;Node27 -->
<g id="edge28" class="edge">
<title>Node26&#45;&gt;Node27</title>
<path fill="none" stroke="#191970" d="M941.9888,-517.7454C959.4996,-505.9539 979.8643,-492.2406 996.2712,-481.1924"/>
<polygon fill="#191970" stroke="#191970" points="939.9914,-514.8708 933.6517,-523.3595 943.9013,-520.6771 939.9914,-514.8708"/>
</g>
<!-- Node29 -->
<g id="node23" class="node">
<title>Node29</title>
<g id="a_node23"><a xlink:href="LoggerStructs_8hpp.html" target="_top" xlink:title=" ">
<polygon fill="#ffffff" stroke="#000000" points="1141.5,-434.5 1141.5,-486.5 1310.5,-486.5 1310.5,-434.5 1141.5,-434.5"/>
<text text-anchor="start" x="1149.5" y="-474.5" font-family="Helvetica,sans-Serif" font-size="10.00" fill="#000000">/home/pieter/GitHub</text>
<text text-anchor="start" x="1149.5" y="-463.5" font-family="Helvetica,sans-Serif" font-size="10.00" fill="#000000">/EAGLE&#45;ZYBO&#45;Linux/build</text>
<text text-anchor="start" x="1149.5" y="-452.5" font-family="Helvetica,sans-Serif" font-size="10.00" fill="#000000">/src/logentry/include&#45;generated</text>
<text text-anchor="middle" x="1226" y="-441.5" font-family="Helvetica,sans-Serif" font-size="10.00" fill="#000000">/LoggerStructs.hpp</text>
</a>
</g>
</g>
<!-- Node26&#45;&gt;Node29 -->
<g id="edge32" class="edge">
<title>Node26&#45;&gt;Node29</title>
<path fill="none" stroke="#191970" d="M998.0251,-521.0432C1039.275,-510.8982 1088.0989,-498.6489 1132,-487 1135.1138,-486.1738 1138.2832,-485.3242 1141.4828,-484.4593"/>
<polygon fill="#191970" stroke="#191970" points="997.1339,-517.658 988.2567,-523.4412 998.8028,-524.4562 997.1339,-517.658"/>
</g>
<!-- Node27&#45;&gt;Node24 -->
<g id="edge29" class="edge">
<title>Node27&#45;&gt;Node24</title>
<path fill="none" stroke="#191970" d="M993.523,-433.1425C982.0904,-422.84 969.7436,-410.5613 960,-398 936.4807,-367.6795 916.6987,-327.413 905.8776,-303.3125"/>
<polygon fill="#191970" stroke="#191970" points="991.4285,-435.9615 1001.2486,-439.9384 996.0519,-430.7056 991.4285,-435.9615"/>
</g>
<!-- Node28 -->
<g id="node22" class="node">
<title>Node28</title>
<g id="a_node22"><a xlink:href="AnglePrinter_8hpp.html" target="_top" xlink:title=" ">
<polygon fill="#ffffff" stroke="#000000" points="969,-351 969,-392 1163,-392 1163,-351 969,-351"/>
<text text-anchor="start" x="977" y="-380" font-family="Helvetica,sans-Serif" font-size="10.00" fill="#000000">/home/pieter/GitHub</text>
<text text-anchor="start" x="977" y="-369" font-family="Helvetica,sans-Serif" font-size="10.00" fill="#000000">/EAGLE&#45;ZYBO&#45;Linux/src</text>
<text text-anchor="middle" x="1066" y="-358" font-family="Helvetica,sans-Serif" font-size="10.00" fill="#000000">/quaternion/include/AnglePrinter.hpp</text>
</a>
</g>
</g>
<!-- Node27&#45;&gt;Node28 -->
<g id="edge30" class="edge">
<title>Node27&#45;&gt;Node28</title>
<path fill="none" stroke="#191970" d="M1040.106,-430.5915C1045.6597,-417.9177 1051.9915,-403.4682 1057.0036,-392.0301"/>
<polygon fill="#191970" stroke="#191970" points="1036.8533,-429.2939 1036.0454,-439.8579 1043.2648,-432.1035 1036.8533,-429.2939"/>
</g>
<!-- Node28&#45;&gt;Node24 -->
<g id="edge31" class="edge">
<title>Node28&#45;&gt;Node24</title>
<path fill="none" stroke="#191970" d="M1017.8867,-346.1622C991.9522,-332.5044 960.3653,-315.8699 935.9842,-303.0301"/>
<polygon fill="#191970" stroke="#191970" points="1016.3243,-349.2951 1026.8032,-350.8579 1019.5861,-343.1014 1016.3243,-349.2951"/>
</g>
<!-- Node30 -->
<g id="node24" class="node">
<title>Node30</title>
<g id="a_node24"><a xlink:href="LogEntry_8hpp.html" target="_top" xlink:title=" ">
<polygon fill="#ffffff" stroke="#000000" points="1186.5,-345.5 1186.5,-397.5 1355.5,-397.5 1355.5,-345.5 1186.5,-345.5"/>
<text text-anchor="start" x="1194.5" y="-385.5" font-family="Helvetica,sans-Serif" font-size="10.00" fill="#000000">/home/pieter/GitHub</text>
<text text-anchor="start" x="1194.5" y="-374.5" font-family="Helvetica,sans-Serif" font-size="10.00" fill="#000000">/EAGLE&#45;ZYBO&#45;Linux/build</text>
<text text-anchor="start" x="1194.5" y="-363.5" font-family="Helvetica,sans-Serif" font-size="10.00" fill="#000000">/src/logentry/include&#45;generated</text>
<text text-anchor="middle" x="1271" y="-352.5" font-family="Helvetica,sans-Serif" font-size="10.00" fill="#000000">/LogEntry.hpp</text>
</a>
</g>
</g>
<!-- Node29&#45;&gt;Node30 -->
<g id="edge33" class="edge">
<title>Node29&#45;&gt;Node30</title>
<path fill="none" stroke="#191970" d="M1243.8104,-425.2749C1248.4889,-416.0219 1253.4505,-406.209 1257.8367,-397.5341"/>
<polygon fill="#191970" stroke="#191970" points="1240.6469,-423.775 1239.2581,-434.2784 1246.8938,-426.9336 1240.6469,-423.775"/>
</g>
<!-- Node30&#45;&gt;Node25 -->
<g id="edge44" class="edge">
<title>Node30&#45;&gt;Node25</title>
<path fill="none" stroke="#191970" d="M1207.2829,-340.8469C1185.4104,-330.3245 1161.1532,-318.6548 1140.1159,-308.5341"/>
<polygon fill="#191970" stroke="#191970" points="1205.9657,-344.0972 1216.4945,-345.2784 1209.0004,-337.7891 1205.9657,-344.0972"/>
</g>
<!-- Node31 -->
<g id="node25" class="node">
<title>Node31</title>
<g id="a_node25"><a xlink:href="BaremetalCommunicationDef_8hpp.html" target="_top" xlink:title=" ">
<polygon fill="#ffffff" stroke="#000000" points="1178.5,-256.5 1178.5,-308.5 1363.5,-308.5 1363.5,-256.5 1178.5,-256.5"/>
<text text-anchor="start" x="1186.5" y="-296.5" font-family="Helvetica,sans-Serif" font-size="10.00" fill="#000000">/home/pieter/GitHub</text>
<text text-anchor="start" x="1186.5" y="-285.5" font-family="Helvetica,sans-Serif" font-size="10.00" fill="#000000">/EAGLE&#45;ZYBO&#45;Linux/src</text>
<text text-anchor="start" x="1186.5" y="-274.5" font-family="Helvetica,sans-Serif" font-size="10.00" fill="#000000">/baremetal&#45;comm/include</text>
<text text-anchor="middle" x="1271" y="-263.5" font-family="Helvetica,sans-Serif" font-size="10.00" fill="#000000">/BaremetalCommunicationDef.hpp</text>
</a>
</g>
</g>
<!-- Node30&#45;&gt;Node31 -->
<g id="edge34" class="edge">
<title>Node30&#45;&gt;Node31</title>
<path fill="none" stroke="#191970" d="M1271,-335.1155C1271,-326.2061 1271,-316.8475 1271,-308.5341"/>
<polygon fill="#191970" stroke="#191970" points="1267.5001,-335.2784 1271,-345.2784 1274.5001,-335.2785 1267.5001,-335.2784"/>
</g>
<!-- Node32 -->
<g id="node26" class="node">
<title>Node32</title>
<g id="a_node26"><a xlink:href="Logger_8hpp.html" target="_top" xlink:title=" ">
<polygon fill="#ffffff" stroke="#000000" points="1306.5,-173 1306.5,-214 1451.5,-214 1451.5,-173 1306.5,-173"/>
<text text-anchor="start" x="1314.5" y="-202" font-family="Helvetica,sans-Serif" font-size="10.00" fill="#000000">/home/pieter/GitHub</text>
<text text-anchor="start" x="1314.5" y="-191" font-family="Helvetica,sans-Serif" font-size="10.00" fill="#000000">/EAGLE&#45;ZYBO&#45;Linux/src</text>
<text text-anchor="middle" x="1379" y="-180" font-family="Helvetica,sans-Serif" font-size="10.00" fill="#000000">/logger/include/Logger.hpp</text>
</a>
</g>
</g>
<!-- Node30&#45;&gt;Node32 -->
<g id="edge43" class="edge">
<title>Node30&#45;&gt;Node32</title>
<path fill="none" stroke="#191970" d="M1343.3497,-339.6712C1355.0774,-331.3564 1365.7395,-321.2096 1373,-309 1390.344,-279.8335 1387.4033,-238.8403 1383.4015,-214.3462"/>
<polygon fill="#191970" stroke="#191970" points="1341.0763,-336.9778 1334.6551,-345.4051 1344.9301,-342.8215 1341.0763,-336.9778"/>
</g>
<!-- Node38 -->
<g id="node32" class="node">
<title>Node38</title>
<g id="a_node32"><a xlink:href="GetLogData_8hpp.html" target="_top" xlink:title=" ">
<polygon fill="#ffffff" stroke="#000000" points="1442,-262 1442,-303 1622,-303 1622,-262 1442,-262"/>
<text text-anchor="start" x="1450" y="-291" font-family="Helvetica,sans-Serif" font-size="10.00" fill="#000000">/home/pieter/GitHub</text>
<text text-anchor="start" x="1450" y="-280" font-family="Helvetica,sans-Serif" font-size="10.00" fill="#000000">/EAGLE&#45;ZYBO&#45;Linux/src</text>
<text text-anchor="middle" x="1532" y="-269" font-family="Helvetica,sans-Serif" font-size="10.00" fill="#000000">/logentry/include/GetLogData.hpp</text>
</a>
</g>
</g>
<!-- Node30&#45;&gt;Node38 -->
<g id="edge41" class="edge">
<title>Node30&#45;&gt;Node38</title>
<path fill="none" stroke="#191970" d="M1357.4322,-342.0269C1394.8405,-329.2708 1437.7226,-314.6482 1471.6238,-303.0881"/>
<polygon fill="#191970" stroke="#191970" points="1355.8803,-338.8582 1347.5451,-345.3984 1358.1396,-345.4836 1355.8803,-338.8582"/>
</g>
<!-- Node31&#45;&gt;Node32 -->
<g id="edge35" class="edge">
<title>Node31&#45;&gt;Node32</title>
<path fill="none" stroke="#191970" d="M1310.671,-249.8081C1325.1298,-237.893 1341.066,-224.7605 1353.9087,-214.1771"/>
<polygon fill="#191970" stroke="#191970" points="1308.3108,-247.2178 1302.8194,-256.2784 1312.7626,-252.6199 1308.3108,-247.2178"/>
</g>
<!-- Node36 -->
<g id="node30" class="node">
<title>Node36</title>
<g id="a_node30"><a xlink:href="QRCryptoManager_8hpp.html" target="_top" xlink:title=" ">
<polygon fill="#ffffff" stroke="#000000" points="1139.5,-167.5 1139.5,-219.5 1288.5,-219.5 1288.5,-167.5 1139.5,-167.5"/>
<text text-anchor="start" x="1147.5" y="-207.5" font-family="Helvetica,sans-Serif" font-size="10.00" fill="#000000">/home/pieter/GitHub</text>
<text text-anchor="start" x="1147.5" y="-196.5" font-family="Helvetica,sans-Serif" font-size="10.00" fill="#000000">/EAGLE&#45;ZYBO&#45;Linux/src</text>
<text text-anchor="start" x="1147.5" y="-185.5" font-family="Helvetica,sans-Serif" font-size="10.00" fill="#000000">/qr&#45;crypto&#45;manager/include</text>
<text text-anchor="middle" x="1214" y="-174.5" font-family="Helvetica,sans-Serif" font-size="10.00" fill="#000000">/QRCryptoManager.hpp</text>
</a>
</g>
</g>
<!-- Node31&#45;&gt;Node36 -->
<g id="edge39" class="edge">
<title>Node31&#45;&gt;Node36</title>
<path fill="none" stroke="#191970" d="M1248.81,-247.8525C1242.7762,-238.4313 1236.3451,-228.3897 1230.6736,-219.5341"/>
<polygon fill="#191970" stroke="#191970" points="1245.8658,-249.7451 1254.2064,-256.2784 1251.7605,-245.9698 1245.8658,-249.7451"/>
</g>
<!-- Node33 -->
<g id="node27" class="node">
<title>Node33</title>
<g id="a_node27"><a xlink:href="ThreadedLogger_8hpp.html" target="_top" xlink:title=" ">
<polygon fill="#ffffff" stroke="#000000" points="1452.5,-84 1452.5,-125 1643.5,-125 1643.5,-84 1452.5,-84"/>
<text text-anchor="start" x="1460.5" y="-113" font-family="Helvetica,sans-Serif" font-size="10.00" fill="#000000">/home/pieter/GitHub</text>
<text text-anchor="start" x="1460.5" y="-102" font-family="Helvetica,sans-Serif" font-size="10.00" fill="#000000">/EAGLE&#45;ZYBO&#45;Linux/src</text>
<text text-anchor="middle" x="1548" y="-91" font-family="Helvetica,sans-Serif" font-size="10.00" fill="#000000">/logger/include/ThreadedLogger.hpp</text>
</a>
</g>
</g>
<!-- Node32&#45;&gt;Node33 -->
<g id="edge36" class="edge">
<title>Node32&#45;&gt;Node33</title>
<path fill="none" stroke="#191970" d="M1427.1133,-168.1622C1453.0478,-154.5044 1484.6347,-137.8699 1509.0158,-125.0301"/>
<polygon fill="#191970" stroke="#191970" points="1425.4139,-165.1014 1418.1968,-172.8579 1428.6757,-171.2951 1425.4139,-165.1014"/>
</g>
<!-- Node35 -->
<g id="node29" class="node">
<title>Node35</title>
<g id="a_node29"><a xlink:href="Logger_8cpp.html" target="_top" xlink:title=" ">
<polygon fill="#ffffff" stroke="#000000" points="1305.5,-84 1305.5,-125 1434.5,-125 1434.5,-84 1305.5,-84"/>
<text text-anchor="start" x="1313.5" y="-113" font-family="Helvetica,sans-Serif" font-size="10.00" fill="#000000">/home/pieter/GitHub</text>
<text text-anchor="start" x="1313.5" y="-102" font-family="Helvetica,sans-Serif" font-size="10.00" fill="#000000">/EAGLE&#45;ZYBO&#45;Linux/src</text>
<text text-anchor="middle" x="1370" y="-91" font-family="Helvetica,sans-Serif" font-size="10.00" fill="#000000">/logger/src/Logger.cpp</text>
</a>
</g>
</g>
<!-- Node32&#45;&gt;Node35 -->
<g id="edge38" class="edge">
<title>Node32&#45;&gt;Node35</title>
<path fill="none" stroke="#191970" d="M1375.9,-162.844C1374.6367,-150.3522 1373.2101,-136.2439 1372.0761,-125.0301"/>
<polygon fill="#191970" stroke="#191970" points="1372.4242,-163.2608 1376.9126,-172.8579 1379.3886,-162.5565 1372.4242,-163.2608"/>
</g>
<!-- Node34 -->
<g id="node28" class="node">
<title>Node34</title>
<g id="a_node28"><a xlink:href="ThreadedLogger_8cpp.html" target="_top" xlink:title=" ">
<polygon fill="#ffffff" stroke="#000000" points="1463.5,-.5 1463.5,-41.5 1632.5,-41.5 1632.5,-.5 1463.5,-.5"/>
<text text-anchor="start" x="1471.5" y="-29.5" font-family="Helvetica,sans-Serif" font-size="10.00" fill="#000000">/home/pieter/GitHub</text>
<text text-anchor="start" x="1471.5" y="-18.5" font-family="Helvetica,sans-Serif" font-size="10.00" fill="#000000">/EAGLE&#45;ZYBO&#45;Linux/src</text>
<text text-anchor="middle" x="1548" y="-7.5" font-family="Helvetica,sans-Serif" font-size="10.00" fill="#000000">/logger/src/ThreadedLogger.cpp</text>
</a>
</g>
</g>
<!-- Node33&#45;&gt;Node34 -->
<g id="edge37" class="edge">
<title>Node33&#45;&gt;Node34</title>
<path fill="none" stroke="#191970" d="M1548,-73.6593C1548,-63.0064 1548,-51.3344 1548,-41.6924"/>
<polygon fill="#191970" stroke="#191970" points="1544.5001,-73.8595 1548,-83.8595 1551.5001,-73.8596 1544.5001,-73.8595"/>
</g>
<!-- Node37 -->
<g id="node31" class="node">
<title>Node37</title>
<g id="a_node31"><a xlink:href="QRCryptoManager_8cpp.html" target="_top" xlink:title=" ">
<polygon fill="#ffffff" stroke="#000000" points="1149.5,-78.5 1149.5,-130.5 1278.5,-130.5 1278.5,-78.5 1149.5,-78.5"/>
<text text-anchor="start" x="1157.5" y="-118.5" font-family="Helvetica,sans-Serif" font-size="10.00" fill="#000000">/home/pieter/GitHub</text>
<text text-anchor="start" x="1157.5" y="-107.5" font-family="Helvetica,sans-Serif" font-size="10.00" fill="#000000">/EAGLE&#45;ZYBO&#45;Linux/src</text>
<text text-anchor="start" x="1157.5" y="-96.5" font-family="Helvetica,sans-Serif" font-size="10.00" fill="#000000">/qr&#45;crypto&#45;manager/src</text>
<text text-anchor="middle" x="1214" y="-85.5" font-family="Helvetica,sans-Serif" font-size="10.00" fill="#000000">/QRCryptoManager.cpp</text>
</a>
</g>
</g>
<!-- Node36&#45;&gt;Node37 -->
<g id="edge40" class="edge">
<title>Node36&#45;&gt;Node37</title>
<path fill="none" stroke="#191970" d="M1214,-157.1155C1214,-148.2061 1214,-138.8475 1214,-130.5341"/>
<polygon fill="#191970" stroke="#191970" points="1210.5001,-157.2784 1214,-167.2784 1217.5001,-157.2785 1210.5001,-157.2784"/>
</g>
<!-- Node39 -->
<g id="node33" class="node">
<title>Node39</title>
<g id="a_node33"><a xlink:href="GetLogData_8cpp.html" target="_top" xlink:title=" ">
<polygon fill="#ffffff" stroke="#000000" points="1470,-167.5 1470,-219.5 1618,-219.5 1618,-167.5 1470,-167.5"/>
<text text-anchor="start" x="1478" y="-207.5" font-family="Helvetica,sans-Serif" font-size="10.00" fill="#000000">/home/pieter/GitHub</text>
<text text-anchor="start" x="1478" y="-196.5" font-family="Helvetica,sans-Serif" font-size="10.00" fill="#000000">/EAGLE&#45;ZYBO&#45;Linux/build</text>
<text text-anchor="start" x="1478" y="-185.5" font-family="Helvetica,sans-Serif" font-size="10.00" fill="#000000">/src/logentry/src&#45;generated</text>
<text text-anchor="middle" x="1544" y="-174.5" font-family="Helvetica,sans-Serif" font-size="10.00" fill="#000000">/GetLogData.cpp</text>
</a>
</g>
</g>
<!-- Node38&#45;&gt;Node39 -->
<g id="edge42" class="edge">
<title>Node38&#45;&gt;Node39</title>
<path fill="none" stroke="#191970" d="M1536.1276,-251.8868C1537.5362,-241.4396 1539.0979,-229.8575 1540.4564,-219.7816"/>
<polygon fill="#191970" stroke="#191970" points="1532.6509,-251.4799 1534.7832,-261.8579 1539.5881,-252.4153 1532.6509,-251.4799"/>
</g>
</g>
</svg>
