<?xml version="1.0" encoding="UTF-8" standalone="no"?>
<!DOCTYPE svg PUBLIC "-//W3C//DTD SVG 1.1//EN"
 "http://www.w3.org/Graphics/SVG/1.1/DTD/svg11.dtd">
<!-- Generated by graphviz version 2.40.1 (20161225.0304)
 -->
<!-- Title: abs Pages: 1 -->
<svg width="1094pt" height="230pt"
 viewBox="0.00 0.00 1094.00 229.50" xmlns="http://www.w3.org/2000/svg" xmlns:xlink="http://www.w3.org/1999/xlink">
<g id="graph0" class="graph" transform="scale(1 1) rotate(0) translate(4 225.5)">
<title>abs</title>
<polygon fill="#ffffff" stroke="transparent" points="-4,4 -4,-225.5 1090,-225.5 1090,4 -4,4"/>
<!-- Node1 -->
<g id="node1" class="node">
<title>Node1</title>
<g id="a_node1"><a xlink:title=" ">
<polygon fill="#bfbfbf" stroke="#000000" points="1052,-76.5 1052,-95.5 1086,-95.5 1086,-76.5 1052,-76.5"/>
<text text-anchor="middle" x="1069" y="-83.5" font-family="Helvetica,sans-Serif" font-size="10.00" fill="#000000">abs</text>
</a>
</g>
</g>
<!-- Node2 -->
<g id="node2" class="node">
<title>Node2</title>
<g id="a_node2"><a xlink:href="classGridFinder.html#abcd46f31e256080b2d5d2aee03c0e258" target="_top" xlink:title="Find the middle of a line.">
<polygon fill="#ffffff" stroke="#000000" points="884,-152.5 884,-171.5 1004,-171.5 1004,-152.5 884,-152.5"/>
<text text-anchor="middle" x="944" y="-159.5" font-family="Helvetica,sans-Serif" font-size="10.00" fill="#000000">GridFinder::getMiddle</text>
</a>
</g>
</g>
<!-- Node1&#45;&gt;Node2 -->
<g id="edge1" class="edge">
<title>Node1&#45;&gt;Node2</title>
<path fill="none" stroke="#191970" d="M1054.7245,-103.6686C1044.8703,-114.8604 1030.8982,-128.8902 1016,-138 1005.9954,-144.1176 994.2448,-148.8823 983.1715,-152.4954"/>
<polygon fill="#191970" stroke="#191970" points="1057.6059,-105.6824 1061.4045,-95.792 1052.2672,-101.1548 1057.6059,-105.6824"/>
</g>
<!-- Node8 -->
<g id="node8" class="node">
<title>Node8</title>
<g id="a_node8"><a xlink:href="classGridFinder.html#a701c0c1e70d01bb8773a89a29f6673a0" target="_top" xlink:title="This is the main function: it looks for a complete square of the grid, as close to the center of the ...">
<polygon fill="#ffffff" stroke="#000000" points="358,-114.5 358,-133.5 482,-133.5 482,-114.5 358,-114.5"/>
<text text-anchor="middle" x="420" y="-121.5" font-family="Helvetica,sans-Serif" font-size="10.00" fill="#000000">GridFinder::findSquare</text>
</a>
</g>
</g>
<!-- Node1&#45;&gt;Node8 -->
<g id="edge11" class="edge">
<title>Node1&#45;&gt;Node8</title>
<path fill="none" stroke="#191970" d="M1042.2199,-97.4321C1033.9611,-100.4557 1024.7382,-103.3372 1016,-105 824.0416,-141.5281 591.1504,-134.5203 482.0384,-128.3177"/>
<polygon fill="#191970" stroke="#191970" points="1043.6622,-100.6268 1051.7184,-93.7458 1041.1295,-94.101 1043.6622,-100.6268"/>
</g>
<!-- Node11 -->
<g id="node11" class="node">
<title>Node11</title>
<g id="a_node11"><a xlink:href="namespaceFallback.html#a505e4b4c630f9c62620d4308773ea4b7" target="_top" xlink:title="Calculate the mask of 16 pixels of the RGB image, and store the mask in second parameter.">
<polygon fill="#ffffff" stroke="#000000" points="886.5,-76.5 886.5,-95.5 1001.5,-95.5 1001.5,-76.5 886.5,-76.5"/>
<text text-anchor="middle" x="944" y="-83.5" font-family="Helvetica,sans-Serif" font-size="10.00" fill="#000000">Fallback::applyMask</text>
</a>
</g>
</g>
<!-- Node1&#45;&gt;Node11 -->
<g id="edge12" class="edge">
<title>Node1&#45;&gt;Node11</title>
<path fill="none" stroke="#191970" d="M1041.7965,-86C1029.9567,-86 1015.6026,-86 1001.5807,-86"/>
<polygon fill="#191970" stroke="#191970" points="1041.8814,-89.5001 1051.8814,-86 1041.8813,-82.5001 1041.8814,-89.5001"/>
</g>
<!-- Node12 -->
<g id="node12" class="node">
<title>Node12</title>
<g id="a_node12"><a xlink:href="AlmostEqual_8hpp.html#ad6e6b9a489dce5404854e1513e988e0c" target="_top" xlink:title=" ">
<polygon fill="#ffffff" stroke="#000000" points="901,-38.5 901,-57.5 987,-57.5 987,-38.5 901,-38.5"/>
<text text-anchor="middle" x="944" y="-45.5" font-family="Helvetica,sans-Serif" font-size="10.00" fill="#000000">isAlmostEqual</text>
</a>
</g>
</g>
<!-- Node1&#45;&gt;Node12 -->
<g id="edge13" class="edge">
<title>Node1&#45;&gt;Node12</title>
<path fill="none" stroke="#191970" d="M1042.3036,-75.923C1033.9335,-72.9005 1024.6276,-69.6793 1016,-67 1005.2588,-63.6642 993.5027,-60.4014 982.662,-57.5471"/>
<polygon fill="#191970" stroke="#191970" points="1041.3468,-79.3002 1051.9405,-79.4616 1043.7597,-72.7291 1041.3468,-79.3002"/>
</g>
<!-- Node14 -->
<g id="node14" class="node">
<title>Node14</title>
<g id="a_node14"><a xlink:href="classQuaternion.html#afee65eb7b0f6feb1c6c857e271e1d7d1" target="_top" xlink:title=" ">
<polygon fill="#ffffff" stroke="#000000" points="872,-.5 872,-19.5 1016,-19.5 1016,-.5 872,-.5"/>
<text text-anchor="middle" x="944" y="-7.5" font-family="Helvetica,sans-Serif" font-size="10.00" fill="#000000">Quaternion::fromDirection</text>
</a>
</g>
</g>
<!-- Node1&#45;&gt;Node14 -->
<g id="edge15" class="edge">
<title>Node1&#45;&gt;Node14</title>
<path fill="none" stroke="#191970" d="M1056.5453,-67.9241C1046.8891,-55.2352 1032.4155,-38.8372 1016,-29 1009.5683,-25.1457 1002.3551,-22.0626 995.0448,-19.5991"/>
<polygon fill="#191970" stroke="#191970" points="1053.9705,-70.3343 1062.684,-76.3613 1059.6308,-66.2159 1053.9705,-70.3343"/>
</g>
<!-- Node3 -->
<g id="node3" class="node">
<title>Node3</title>
<g id="a_node3"><a xlink:href="classGridFinder.html#af830abf29ca6dc9c01197a38fe16e1e5" target="_top" xlink:title="In exceptional cases, we might want to find the middle of a line in a point that happens to lie at th...">
<polygon fill="#ffffff" stroke="#000000" points="693,-191 693,-221 836,-221 836,-191 693,-191"/>
<text text-anchor="start" x="701" y="-209" font-family="Helvetica,sans-Serif" font-size="10.00" fill="#000000">GridFinder::getMiddleWith</text>
<text text-anchor="middle" x="764.5" y="-198" font-family="Helvetica,sans-Serif" font-size="10.00" fill="#000000">Retries</text>
</a>
</g>
</g>
<!-- Node2&#45;&gt;Node3 -->
<g id="edge2" class="edge">
<title>Node2&#45;&gt;Node3</title>
<path fill="none" stroke="#191970" d="M895.2289,-173.955C873.8759,-179.1892 848.5823,-185.3893 825.9598,-190.9346"/>
<polygon fill="#191970" stroke="#191970" points="896.172,-177.3276 905.0512,-171.5473 894.5054,-170.5288 896.172,-177.3276"/>
</g>
<!-- Node5 -->
<g id="node5" class="node">
<title>Node5</title>
<g id="a_node5"><a xlink:href="classGridFinder.html#ae12ca7921b02b37417d87fc737f0134d" target="_top" xlink:title="Check if there could be a valid line going through the given point, and if so, find and return the ac...">
<polygon fill="#ffffff" stroke="#000000" points="704,-152.5 704,-171.5 825,-171.5 825,-152.5 704,-152.5"/>
<text text-anchor="middle" x="764.5" y="-159.5" font-family="Helvetica,sans-Serif" font-size="10.00" fill="#000000">GridFinder::checkLine</text>
</a>
</g>
</g>
<!-- Node2&#45;&gt;Node5 -->
<g id="edge4" class="edge">
<title>Node2&#45;&gt;Node5</title>
<path fill="none" stroke="#191970" d="M873.4063,-162C857.4775,-162 840.7043,-162 825.2226,-162"/>
<polygon fill="#191970" stroke="#191970" points="873.7298,-165.5001 883.7298,-162 873.7297,-158.5001 873.7298,-165.5001"/>
</g>
<!-- Node4 -->
<g id="node4" class="node">
<title>Node4</title>
<g id="a_node4"><a xlink:href="classGridFinder.html#aaea3af418ab7124f2b25bcc124fccaca" target="_top" xlink:title="Get an estimate of the line through a given pixel. Find an estimate of the slope, then use that to de...">
<polygon fill="#ffffff" stroke="#000000" points="526,-191 526,-221 654,-221 654,-191 526,-191"/>
<text text-anchor="start" x="534" y="-209" font-family="Helvetica,sans-Serif" font-size="10.00" fill="#000000">GridFinder::getFirstLine</text>
<text text-anchor="middle" x="590" y="-198" font-family="Helvetica,sans-Serif" font-size="10.00" fill="#000000">Estimate</text>
</a>
</g>
</g>
<!-- Node3&#45;&gt;Node4 -->
<g id="edge3" class="edge">
<title>Node3&#45;&gt;Node4</title>
<path fill="none" stroke="#191970" d="M682.5054,-206C672.9971,-206 663.4052,-206 654.1837,-206"/>
<polygon fill="#191970" stroke="#191970" points="682.7688,-209.5001 692.7688,-206 682.7687,-202.5001 682.7688,-209.5001"/>
</g>
<!-- Node6 -->
<g id="node6" class="node">
<title>Node6</title>
<g id="a_node6"><a xlink:href="classGridFinder.html#a6dec96f8c6ed97647f692fa9f9908595" target="_top" xlink:title="Follow the given line to find the line perpendicular to it. Move along the line for minDistance pixel...">
<polygon fill="#ffffff" stroke="#000000" points="523,-152.5 523,-171.5 657,-171.5 657,-152.5 523,-152.5"/>
<text text-anchor="middle" x="590" y="-159.5" font-family="Helvetica,sans-Serif" font-size="10.00" fill="#000000">GridFinder::findNextLine</text>
</a>
</g>
</g>
<!-- Node5&#45;&gt;Node6 -->
<g id="edge5" class="edge">
<title>Node5&#45;&gt;Node6</title>
<path fill="none" stroke="#191970" d="M693.9271,-162C681.8358,-162 669.3005,-162 657.2976,-162"/>
<polygon fill="#191970" stroke="#191970" points="693.9581,-165.5001 703.9581,-162 693.9581,-158.5001 693.9581,-165.5001"/>
</g>
<!-- Node7 -->
<g id="node7" class="node">
<title>Node7</title>
<g id="a_node7"><a xlink:href="classGridFinder.html#ad1a5448de0df9a84f989f64b55025843" target="_top" xlink:title="Equivalent to #findNextLine(LineResult,bool,uint,uint) but also supports optional LineResults.">
<polygon fill="#ffffff" stroke="#000000" points="353,-152.5 353,-171.5 487,-171.5 487,-152.5 353,-152.5"/>
<text text-anchor="middle" x="420" y="-159.5" font-family="Helvetica,sans-Serif" font-size="10.00" fill="#000000">GridFinder::findNextLine</text>
</a>
</g>
</g>
<!-- Node6&#45;&gt;Node7 -->
<g id="edge6" class="edge">
<title>Node6&#45;&gt;Node7</title>
<path fill="none" stroke="#191970" d="M512.5754,-162C504.1241,-162 495.5721,-162 487.2572,-162"/>
<polygon fill="#191970" stroke="#191970" points="512.8115,-165.5001 522.8115,-162 512.8115,-158.5001 512.8115,-165.5001"/>
</g>
<!-- Node6&#45;&gt;Node8 -->
<g id="edge7" class="edge">
<title>Node6&#45;&gt;Node8</title>
<path fill="none" stroke="#191970" d="M537.1019,-150.1757C513.135,-144.8184 485.1765,-138.5689 462.5897,-133.5201"/>
<polygon fill="#191970" stroke="#191970" points="536.5791,-153.6452 547.1018,-152.411 538.1062,-146.8138 536.5791,-153.6452"/>
</g>
<!-- Node9 -->
<g id="node9" class="node">
<title>Node9</title>
<g id="a_node9"><a xlink:href="classLocationFinder.html#af56756d038d762e04e0c91bac9fc2522" target="_top" xlink:title="Read a new frame, mask it, run GridFinder, and get the position of the drone. The position is the pos...">
<polygon fill="#ffffff" stroke="#000000" points="149,-133.5 149,-152.5 317,-152.5 317,-133.5 149,-133.5"/>
<text text-anchor="middle" x="233" y="-140.5" font-family="Helvetica,sans-Serif" font-size="10.00" fill="#000000">LocationFinder::updateLocation</text>
</a>
</g>
</g>
<!-- Node8&#45;&gt;Node9 -->
<g id="edge8" class="edge">
<title>Node8&#45;&gt;Node9</title>
<path fill="none" stroke="#191970" d="M348.0281,-131.3127C337.9278,-132.3389 327.4731,-133.4011 317.1709,-134.4479"/>
<polygon fill="#191970" stroke="#191970" points="348.3965,-134.7933 357.9915,-130.3003 347.6888,-127.8292 348.3965,-134.7933"/>
</g>
<!-- Node10 -->
<g id="node10" class="node">
<title>Node10</title>
<g id="a_node10"><a xlink:href="Grid-Finder_8module_8hpp.html#a6849f4dcdb45a7aaadcda6439233d376" target="_top" xlink:title=" ">
<polygon fill="#ffffff" stroke="#000000" points="0,-114.5 0,-133.5 113,-133.5 113,-114.5 0,-114.5"/>
<text text-anchor="middle" x="56.5" y="-121.5" font-family="Helvetica,sans-Serif" font-size="10.00" fill="#000000">PYBIND11_MODULE</text>
</a>
</g>
</g>
<!-- Node8&#45;&gt;Node10 -->
<g id="edge10" class="edge">
<title>Node8&#45;&gt;Node10</title>
<path fill="none" stroke="#191970" d="M347.5872,-124C278.6832,-124 176.4113,-124 113.2349,-124"/>
<polygon fill="#191970" stroke="#191970" points="347.9252,-127.5001 357.9251,-124 347.9251,-120.5001 347.9252,-127.5001"/>
</g>
<!-- Node9&#45;&gt;Node10 -->
<g id="edge9" class="edge">
<title>Node9&#45;&gt;Node10</title>
<path fill="none" stroke="#191970" d="M138.9025,-132.8705C130.0733,-131.9201 121.3225,-130.9781 113.0056,-130.0828"/>
<polygon fill="#191970" stroke="#191970" points="138.5682,-136.3547 148.8854,-133.9452 139.3175,-129.3949 138.5682,-136.3547"/>
</g>
<!-- Node13 -->
<g id="node13" class="node">
<title>Node13</title>
<g id="a_node13"><a xlink:href="AlmostEqual_8hpp.html#a04823ed77d957e52a9616a26630948c3" target="_top" xlink:title=" ">
<polygon fill="#ffffff" stroke="#000000" points="721.5,-38.5 721.5,-57.5 807.5,-57.5 807.5,-38.5 721.5,-38.5"/>
<text text-anchor="middle" x="764.5" y="-45.5" font-family="Helvetica,sans-Serif" font-size="10.00" fill="#000000">isAlmostEqual</text>
</a>
</g>
</g>
<!-- Node12&#45;&gt;Node13 -->
<g id="edge14" class="edge">
<title>Node12&#45;&gt;Node13</title>
<path fill="none" stroke="#191970" d="M890.307,-48C863.857,-48 832.3958,-48 807.5518,-48"/>
<polygon fill="#191970" stroke="#191970" points="890.5481,-51.5001 900.5481,-48 890.548,-44.5001 890.5481,-51.5001"/>
</g>
<!-- Node15 -->
<g id="node15" class="node">
<title>Node15</title>
<g id="a_node15"><a xlink:href="PyQuaternion_8cpp.html#a2957609bcf20d996c14300f7288e3300" target="_top" xlink:title=" ">
<polygon fill="#ffffff" stroke="#000000" points="708,-.5 708,-19.5 821,-19.5 821,-.5 708,-.5"/>
<text text-anchor="middle" x="764.5" y="-7.5" font-family="Helvetica,sans-Serif" font-size="10.00" fill="#000000">PYBIND11_MODULE</text>
</a>
</g>
</g>
<!-- Node14&#45;&gt;Node15 -->
<g id="edge16" class="edge">
<title>Node14&#45;&gt;Node15</title>
<path fill="none" stroke="#191970" d="M861.4112,-10C847.7859,-10 833.939,-10 821.1375,-10"/>
<polygon fill="#191970" stroke="#191970" points="861.7664,-13.5001 871.7664,-10 861.7664,-6.5001 861.7664,-13.5001"/>
</g>
</g>
</svg>
