<?xml version="1.0" encoding="UTF-8" standalone="no"?>
<!DOCTYPE svg PUBLIC "-//W3C//DTD SVG 1.1//EN"
 "http://www.w3.org/Graphics/SVG/1.1/DTD/svg11.dtd">
<!-- Generated by graphviz version 2.40.1 (20161225.0304)
 -->
<!-- Title: /home/pieter/GitHub/EAGLE&#45;ZYBO&#45;Linux/src/matrix/include/Array.hpp Pages: 1 -->
<svg width="951pt" height="451pt"
 viewBox="0.00 0.00 950.50 451.00" xmlns="http://www.w3.org/2000/svg" xmlns:xlink="http://www.w3.org/1999/xlink">
<g id="graph0" class="graph" transform="scale(1 1) rotate(0) translate(4 447)">
<title>/home/pieter/GitHub/EAGLE&#45;ZYBO&#45;Linux/src/matrix/include/Array.hpp</title>
<polygon fill="#ffffff" stroke="transparent" points="-4,4 -4,-447 946.5,-447 946.5,4 -4,4"/>
<!-- Node7 -->
<g id="node1" class="node">
<title>Node7</title>
<g id="a_node1"><a xlink:title=" ">
<polygon fill="#bfbfbf" stroke="#000000" points="213.5,-401.5 213.5,-442.5 352.5,-442.5 352.5,-401.5 213.5,-401.5"/>
<text text-anchor="start" x="221.5" y="-430.5" font-family="Helvetica,sans-Serif" font-size="10.00" fill="#000000">/home/pieter/GitHub</text>
<text text-anchor="start" x="221.5" y="-419.5" font-family="Helvetica,sans-Serif" font-size="10.00" fill="#000000">/EAGLE&#45;ZYBO&#45;Linux/src</text>
<text text-anchor="middle" x="283" y="-408.5" font-family="Helvetica,sans-Serif" font-size="10.00" fill="#000000">/matrix/include/Array.hpp</text>
</a>
</g>
</g>
<!-- Node8 -->
<g id="node2" class="node">
<title>Node8</title>
<g id="a_node2"><a xlink:href="AlmostEqual_8hpp.html" target="_top" xlink:title=" ">
<polygon fill="#ffffff" stroke="#000000" points="0,-323.5 0,-364.5 176,-364.5 176,-323.5 0,-323.5"/>
<text text-anchor="start" x="8" y="-352.5" font-family="Helvetica,sans-Serif" font-size="10.00" fill="#000000">/home/pieter/GitHub</text>
<text text-anchor="start" x="8" y="-341.5" font-family="Helvetica,sans-Serif" font-size="10.00" fill="#000000">/EAGLE&#45;ZYBO&#45;Linux/src</text>
<text text-anchor="middle" x="88" y="-330.5" font-family="Helvetica,sans-Serif" font-size="10.00" fill="#000000">/matrix/include/AlmostEqual.hpp</text>
</a>
</g>
</g>
<!-- Node7&#45;&gt;Node8 -->
<g id="edge1" class="edge">
<title>Node7&#45;&gt;Node8</title>
<path fill="none" stroke="#191970" d="M221.9553,-397.5821C195.455,-386.982 164.7571,-374.7028 139.4392,-364.5757"/>
<polygon fill="#191970" stroke="#191970" points="220.9263,-400.9401 231.511,-401.4044 223.5261,-394.4408 220.9263,-400.9401"/>
</g>
<!-- Node9 -->
<g id="node3" class="node">
<title>Node9</title>
<g id="a_node3"><a xlink:href="ArrayHelpers_8hpp.html" target="_top" xlink:title=" ">
<polygon fill="#ffffff" stroke="#000000" points="194,-323.5 194,-364.5 372,-364.5 372,-323.5 194,-323.5"/>
<text text-anchor="start" x="202" y="-352.5" font-family="Helvetica,sans-Serif" font-size="10.00" fill="#000000">/home/pieter/GitHub</text>
<text text-anchor="start" x="202" y="-341.5" font-family="Helvetica,sans-Serif" font-size="10.00" fill="#000000">/EAGLE&#45;ZYBO&#45;Linux/src</text>
<text text-anchor="middle" x="283" y="-330.5" font-family="Helvetica,sans-Serif" font-size="10.00" fill="#000000">/matrix/include/ArrayHelpers.hpp</text>
</a>
</g>
</g>
<!-- Node7&#45;&gt;Node9 -->
<g id="edge2" class="edge">
<title>Node7&#45;&gt;Node9</title>
<path fill="none" stroke="#191970" d="M283,-391.0789C283,-382.2178 283,-372.7747 283,-364.6898"/>
<polygon fill="#191970" stroke="#191970" points="279.5001,-391.0974 283,-401.0974 286.5001,-391.0975 279.5001,-391.0974"/>
</g>
<!-- Node11 -->
<g id="node5" class="node">
<title>Node11</title>
<g id="a_node5"><a xlink:href="Matrix_8hpp.html" target="_top" xlink:title=" ">
<polygon fill="#ffffff" stroke="#000000" points="411.5,-323.5 411.5,-364.5 556.5,-364.5 556.5,-323.5 411.5,-323.5"/>
<text text-anchor="start" x="419.5" y="-352.5" font-family="Helvetica,sans-Serif" font-size="10.00" fill="#000000">/home/pieter/GitHub</text>
<text text-anchor="start" x="419.5" y="-341.5" font-family="Helvetica,sans-Serif" font-size="10.00" fill="#000000">/EAGLE&#45;ZYBO&#45;Linux/src</text>
<text text-anchor="middle" x="484" y="-330.5" font-family="Helvetica,sans-Serif" font-size="10.00" fill="#000000">/matrix/include/Matrix.hpp</text>
</a>
</g>
</g>
<!-- Node7&#45;&gt;Node11 -->
<g id="edge4" class="edge">
<title>Node7&#45;&gt;Node11</title>
<path fill="none" stroke="#191970" d="M345.5638,-397.7215C372.9611,-387.0897 404.7667,-374.7473 430.9781,-364.5757"/>
<polygon fill="#191970" stroke="#191970" points="344.1297,-394.5236 336.0733,-401.4044 346.6622,-401.0495 344.1297,-394.5236"/>
</g>
<!-- Node10 -->
<g id="node4" class="node">
<title>Node10</title>
<g id="a_node4"><a xlink:href="MatrixHelpers_8hpp.html" target="_top" xlink:title=" ">
<polygon fill="#ffffff" stroke="#000000" points="181,-245.5 181,-286.5 363,-286.5 363,-245.5 181,-245.5"/>
<text text-anchor="start" x="189" y="-274.5" font-family="Helvetica,sans-Serif" font-size="10.00" fill="#000000">/home/pieter/GitHub</text>
<text text-anchor="start" x="189" y="-263.5" font-family="Helvetica,sans-Serif" font-size="10.00" fill="#000000">/EAGLE&#45;ZYBO&#45;Linux/src</text>
<text text-anchor="middle" x="272" y="-252.5" font-family="Helvetica,sans-Serif" font-size="10.00" fill="#000000">/matrix/include/MatrixHelpers.hpp</text>
</a>
</g>
</g>
<!-- Node9&#45;&gt;Node10 -->
<g id="edge3" class="edge">
<title>Node9&#45;&gt;Node10</title>
<path fill="none" stroke="#191970" d="M278.6393,-313.0789C277.3897,-304.2178 276.058,-294.7747 274.9178,-286.6898"/>
<polygon fill="#191970" stroke="#191970" points="275.19,-313.6842 280.0522,-323.0974 282.1214,-312.7066 275.19,-313.6842"/>
</g>
<!-- Node11&#45;&gt;Node10 -->
<g id="edge14" class="edge">
<title>Node11&#45;&gt;Node10</title>
<path fill="none" stroke="#191970" d="M418.3906,-319.8607C389.4088,-309.1976 355.6902,-296.7917 327.9236,-286.5757"/>
<polygon fill="#191970" stroke="#191970" points="417.4287,-323.2361 428.0222,-323.4044 419.8458,-316.6666 417.4287,-323.2361"/>
</g>
<!-- Node12 -->
<g id="node6" class="node">
<title>Node12</title>
<g id="a_node6"><a xlink:href="GridFinder_8hpp.html" target="_top" xlink:title=" ">
<polygon fill="#ffffff" stroke="#000000" points="338.5,-89.5 338.5,-130.5 519.5,-130.5 519.5,-89.5 338.5,-89.5"/>
<text text-anchor="start" x="346.5" y="-118.5" font-family="Helvetica,sans-Serif" font-size="10.00" fill="#000000">/home/pieter/GitHub</text>
<text text-anchor="start" x="346.5" y="-107.5" font-family="Helvetica,sans-Serif" font-size="10.00" fill="#000000">/EAGLE&#45;ZYBO&#45;Linux/src</text>
<text text-anchor="middle" x="429" y="-96.5" font-family="Helvetica,sans-Serif" font-size="10.00" fill="#000000">/grid&#45;finder/include/GridFinder.hpp</text>
</a>
</g>
</g>
<!-- Node11&#45;&gt;Node12 -->
<g id="edge5" class="edge">
<title>Node11&#45;&gt;Node12</title>
<path fill="none" stroke="#191970" d="M436.0792,-317.3582C425.5909,-309.0872 415.8759,-298.9431 410,-287 384.5547,-235.2815 406.268,-164.9784 419.933,-130.6178"/>
<polygon fill="#191970" stroke="#191970" points="434.0666,-320.2226 444.1995,-323.3167 438.2078,-314.5789 434.0666,-320.2226"/>
</g>
<!-- Node15 -->
<g id="node9" class="node">
<title>Node15</title>
<g id="a_node9"><a xlink:href="Line_8hpp.html" target="_top" xlink:title=" ">
<polygon fill="#ffffff" stroke="#000000" points="419,-245.5 419,-286.5 571,-286.5 571,-245.5 419,-245.5"/>
<text text-anchor="start" x="427" y="-274.5" font-family="Helvetica,sans-Serif" font-size="10.00" fill="#000000">/home/pieter/GitHub</text>
<text text-anchor="start" x="427" y="-263.5" font-family="Helvetica,sans-Serif" font-size="10.00" fill="#000000">/EAGLE&#45;ZYBO&#45;Linux/src</text>
<text text-anchor="middle" x="495" y="-252.5" font-family="Helvetica,sans-Serif" font-size="10.00" fill="#000000">/grid&#45;finder/include/Line.hpp</text>
</a>
</g>
</g>
<!-- Node11&#45;&gt;Node15 -->
<g id="edge8" class="edge">
<title>Node11&#45;&gt;Node15</title>
<path fill="none" stroke="#191970" d="M488.3607,-313.0789C489.6103,-304.2178 490.942,-294.7747 492.0822,-286.6898"/>
<polygon fill="#191970" stroke="#191970" points="484.8786,-312.7066 486.9478,-323.0974 491.81,-313.6842 484.8786,-312.7066"/>
</g>
<!-- Node17 -->
<g id="node11" class="node">
<title>Node17</title>
<g id="a_node11"><a xlink:href="HouseholderQR_8hpp.html" target="_top" xlink:title=" ">
<polygon fill="#ffffff" stroke="#000000" points="589,-245.5 589,-286.5 779,-286.5 779,-245.5 589,-245.5"/>
<text text-anchor="start" x="597" y="-274.5" font-family="Helvetica,sans-Serif" font-size="10.00" fill="#000000">/home/pieter/GitHub</text>
<text text-anchor="start" x="597" y="-263.5" font-family="Helvetica,sans-Serif" font-size="10.00" fill="#000000">/EAGLE&#45;ZYBO&#45;Linux/src</text>
<text text-anchor="middle" x="684" y="-252.5" font-family="Helvetica,sans-Serif" font-size="10.00" fill="#000000">/matrix/include/HouseholderQR.hpp</text>
</a>
</g>
</g>
<!-- Node11&#45;&gt;Node17 -->
<g id="edge12" class="edge">
<title>Node11&#45;&gt;Node17</title>
<path fill="none" stroke="#191970" d="M546.2525,-319.7215C573.5135,-309.0897 605.1609,-296.7473 631.2419,-286.5757"/>
<polygon fill="#191970" stroke="#191970" points="544.8541,-316.5101 536.8093,-323.4044 547.3975,-323.0317 544.8541,-316.5101"/>
</g>
<!-- Node19 -->
<g id="node13" class="node">
<title>Node19</title>
<g id="a_node13"><a xlink:href="Randn_8hpp.html" target="_top" xlink:title=" ">
<polygon fill="#ffffff" stroke="#000000" points="797.5,-245.5 797.5,-286.5 942.5,-286.5 942.5,-245.5 797.5,-245.5"/>
<text text-anchor="start" x="805.5" y="-274.5" font-family="Helvetica,sans-Serif" font-size="10.00" fill="#000000">/home/pieter/GitHub</text>
<text text-anchor="start" x="805.5" y="-263.5" font-family="Helvetica,sans-Serif" font-size="10.00" fill="#000000">/EAGLE&#45;ZYBO&#45;Linux/src</text>
<text text-anchor="middle" x="870" y="-252.5" font-family="Helvetica,sans-Serif" font-size="10.00" fill="#000000">/matrix/include/Randn.hpp</text>
</a>
</g>
</g>
<!-- Node11&#45;&gt;Node19 -->
<g id="edge15" class="edge">
<title>Node11&#45;&gt;Node19</title>
<path fill="none" stroke="#191970" d="M566.7574,-329.9896C628.0549,-319.247 713.5076,-303.5038 788,-287 791.013,-286.3325 794.0835,-285.6331 797.1817,-284.9117"/>
<polygon fill="#191970" stroke="#191970" points="565.9998,-326.5688 556.7507,-331.7365 567.2037,-333.4645 565.9998,-326.5688"/>
</g>
<!-- Node13 -->
<g id="node7" class="node">
<title>Node13</title>
<g id="a_node7"><a xlink:href="LocationFinder_8cpp.html" target="_top" xlink:title=" ">
<polygon fill="#ffffff" stroke="#000000" points="267,-.5 267,-52.5 419,-52.5 419,-.5 267,-.5"/>
<text text-anchor="start" x="275" y="-40.5" font-family="Helvetica,sans-Serif" font-size="10.00" fill="#000000">/home/pieter/GitHub</text>
<text text-anchor="start" x="275" y="-29.5" font-family="Helvetica,sans-Serif" font-size="10.00" fill="#000000">/EAGLE&#45;ZYBO&#45;Linux/src</text>
<text text-anchor="start" x="275" y="-18.5" font-family="Helvetica,sans-Serif" font-size="10.00" fill="#000000">/location&#45;finder/src/Location</text>
<text text-anchor="middle" x="343" y="-7.5" font-family="Helvetica,sans-Serif" font-size="10.00" fill="#000000">Finder.cpp</text>
</a>
</g>
</g>
<!-- Node12&#45;&gt;Node13 -->
<g id="edge6" class="edge">
<title>Node12&#45;&gt;Node13</title>
<path fill="none" stroke="#191970" d="M400.4656,-82.2951C390.6053,-72.7214 379.5964,-62.0325 369.8737,-52.5925"/>
<polygon fill="#191970" stroke="#191970" points="398.1288,-84.9046 407.7416,-89.3595 403.0051,-79.8824 398.1288,-84.9046"/>
</g>
<!-- Node14 -->
<g id="node8" class="node">
<title>Node14</title>
<g id="a_node8"><a xlink:href="Mask_8hpp.html" target="_top" xlink:title=" ">
<polygon fill="#ffffff" stroke="#000000" points="437.5,-6 437.5,-47 594.5,-47 594.5,-6 437.5,-6"/>
<text text-anchor="start" x="445.5" y="-35" font-family="Helvetica,sans-Serif" font-size="10.00" fill="#000000">/home/pieter/GitHub</text>
<text text-anchor="start" x="445.5" y="-24" font-family="Helvetica,sans-Serif" font-size="10.00" fill="#000000">/EAGLE&#45;ZYBO&#45;Linux/src</text>
<text text-anchor="middle" x="516" y="-13" font-family="Helvetica,sans-Serif" font-size="10.00" fill="#000000">/location&#45;finder/src/Mask.hpp</text>
</a>
</g>
</g>
<!-- Node12&#45;&gt;Node14 -->
<g id="edge7" class="edge">
<title>Node12&#45;&gt;Node14</title>
<path fill="none" stroke="#191970" d="M458.0424,-82.126C469.9341,-70.7127 483.4522,-57.7384 494.4403,-47.1924"/>
<polygon fill="#191970" stroke="#191970" points="455.2968,-79.9099 450.5056,-89.3595 460.1439,-84.9602 455.2968,-79.9099"/>
</g>
<!-- Node15&#45;&gt;Node12 -->
<g id="edge9" class="edge">
<title>Node15&#45;&gt;Node12</title>
<path fill="none" stroke="#191970" d="M467.0602,-237.7856C459.8655,-229.1517 452.8058,-219.2194 448,-209 436.0836,-183.6602 431.6408,-151.3233 429.9845,-130.634"/>
<polygon fill="#191970" stroke="#191970" points="464.429,-240.0937 473.6448,-245.3207 469.7001,-235.4875 464.429,-240.0937"/>
</g>
<!-- Node16 -->
<g id="node10" class="node">
<title>Node16</title>
<g id="a_node10"><a xlink:href="HelperStructs_8hpp.html" target="_top" xlink:title=" ">
<polygon fill="#ffffff" stroke="#000000" points="457,-167.5 457,-208.5 655,-208.5 655,-167.5 457,-167.5"/>
<text text-anchor="start" x="465" y="-196.5" font-family="Helvetica,sans-Serif" font-size="10.00" fill="#000000">/home/pieter/GitHub</text>
<text text-anchor="start" x="465" y="-185.5" font-family="Helvetica,sans-Serif" font-size="10.00" fill="#000000">/EAGLE&#45;ZYBO&#45;Linux/src</text>
<text text-anchor="middle" x="556" y="-174.5" font-family="Helvetica,sans-Serif" font-size="10.00" fill="#000000">/grid&#45;finder/include/HelperStructs.hpp</text>
</a>
</g>
</g>
<!-- Node15&#45;&gt;Node16 -->
<g id="edge10" class="edge">
<title>Node15&#45;&gt;Node16</title>
<path fill="none" stroke="#191970" d="M517.6087,-237.0905C524.9818,-227.6626 533.0156,-217.3899 539.8195,-208.6898"/>
<polygon fill="#191970" stroke="#191970" points="514.7503,-235.0641 511.3469,-245.0974 520.2643,-239.3764 514.7503,-235.0641"/>
</g>
<!-- Node16&#45;&gt;Node12 -->
<g id="edge11" class="edge">
<title>Node16&#45;&gt;Node12</title>
<path fill="none" stroke="#191970" d="M513.3326,-161.7948C496.7359,-151.6016 478.004,-140.0969 462.417,-130.5239"/>
<polygon fill="#191970" stroke="#191970" points="511.9468,-165.0511 522.2998,-167.3022 515.6103,-159.0863 511.9468,-165.0511"/>
</g>
<!-- Node18 -->
<g id="node12" class="node">
<title>Node18</title>
<g id="a_node12"><a xlink:href="LeastSquares_8hpp.html" target="_top" xlink:title=" ">
<polygon fill="#ffffff" stroke="#000000" points="673.5,-167.5 673.5,-208.5 852.5,-208.5 852.5,-167.5 673.5,-167.5"/>
<text text-anchor="start" x="681.5" y="-196.5" font-family="Helvetica,sans-Serif" font-size="10.00" fill="#000000">/home/pieter/GitHub</text>
<text text-anchor="start" x="681.5" y="-185.5" font-family="Helvetica,sans-Serif" font-size="10.00" fill="#000000">/EAGLE&#45;ZYBO&#45;Linux/src</text>
<text text-anchor="middle" x="763" y="-174.5" font-family="Helvetica,sans-Serif" font-size="10.00" fill="#000000">/matrix/include/LeastSquares.hpp</text>
</a>
</g>
</g>
<!-- Node17&#45;&gt;Node18 -->
<g id="edge13" class="edge">
<title>Node17&#45;&gt;Node18</title>
<path fill="none" stroke="#191970" d="M712.4145,-237.9452C722.1969,-228.2866 732.9663,-217.6535 742.0449,-208.6898"/>
<polygon fill="#191970" stroke="#191970" points="709.8275,-235.5809 705.1706,-245.0974 714.7456,-240.5621 709.8275,-235.5809"/>
</g>
</g>
</svg>
