<?xml version="1.0" encoding="UTF-8" standalone="no"?>
<!DOCTYPE svg PUBLIC "-//W3C//DTD SVG 1.1//EN"
 "http://www.w3.org/Graphics/SVG/1.1/DTD/svg11.dtd">
<!-- Generated by graphviz version 2.40.1 (20161225.0304)
 -->
<!-- Title: /home/pieter/GitHub/EAGLE&#45;ZYBO&#45;Linux/src/matrix/include/Array.hpp Pages: 1 -->
<svg width="1045pt" height="562pt"
 viewBox="0.00 0.00 1044.93 562.00" xmlns="http://www.w3.org/2000/svg" xmlns:xlink="http://www.w3.org/1999/xlink">
<g id="graph0" class="graph" transform="scale(1 1) rotate(0) translate(4 558)">
<title>/home/pieter/GitHub/EAGLE&#45;ZYBO&#45;Linux/src/matrix/include/Array.hpp</title>
<polygon fill="#ffffff" stroke="transparent" points="-4,4 -4,-558 1040.9293,-558 1040.9293,4 -4,4"/>
<!-- Node7 -->
<g id="node1" class="node">
<title>Node7</title>
<g id="a_node1"><a xlink:title=" ">
<polygon fill="#bfbfbf" stroke="#000000" points="213.5,-512.5 213.5,-553.5 352.5,-553.5 352.5,-512.5 213.5,-512.5"/>
<text text-anchor="start" x="221.5" y="-541.5" font-family="Helvetica,sans-Serif" font-size="10.00" fill="#000000">/home/pieter/GitHub</text>
<text text-anchor="start" x="221.5" y="-530.5" font-family="Helvetica,sans-Serif" font-size="10.00" fill="#000000">/EAGLE&#45;ZYBO&#45;Linux/src</text>
<text text-anchor="middle" x="283" y="-519.5" font-family="Helvetica,sans-Serif" font-size="10.00" fill="#000000">/matrix/include/Array.hpp</text>
</a>
</g>
</g>
<!-- Node8 -->
<g id="node2" class="node">
<title>Node8</title>
<g id="a_node2"><a xlink:href="AlmostEqual_8hpp.html" target="_top" xlink:title=" ">
<polygon fill="#ffffff" stroke="#000000" points="0,-434.5 0,-475.5 176,-475.5 176,-434.5 0,-434.5"/>
<text text-anchor="start" x="8" y="-463.5" font-family="Helvetica,sans-Serif" font-size="10.00" fill="#000000">/home/pieter/GitHub</text>
<text text-anchor="start" x="8" y="-452.5" font-family="Helvetica,sans-Serif" font-size="10.00" fill="#000000">/EAGLE&#45;ZYBO&#45;Linux/src</text>
<text text-anchor="middle" x="88" y="-441.5" font-family="Helvetica,sans-Serif" font-size="10.00" fill="#000000">/matrix/include/AlmostEqual.hpp</text>
</a>
</g>
</g>
<!-- Node7&#45;&gt;Node8 -->
<g id="edge1" class="edge">
<title>Node7&#45;&gt;Node8</title>
<path fill="none" stroke="#191970" d="M221.9553,-508.5821C195.455,-497.982 164.7571,-485.7028 139.4392,-475.5757"/>
<polygon fill="#191970" stroke="#191970" points="220.9263,-511.9401 231.511,-512.4044 223.5261,-505.4408 220.9263,-511.9401"/>
</g>
<!-- Node9 -->
<g id="node3" class="node">
<title>Node9</title>
<g id="a_node3"><a xlink:href="ArrayHelpers_8hpp.html" target="_top" xlink:title=" ">
<polygon fill="#ffffff" stroke="#000000" points="194,-434.5 194,-475.5 372,-475.5 372,-434.5 194,-434.5"/>
<text text-anchor="start" x="202" y="-463.5" font-family="Helvetica,sans-Serif" font-size="10.00" fill="#000000">/home/pieter/GitHub</text>
<text text-anchor="start" x="202" y="-452.5" font-family="Helvetica,sans-Serif" font-size="10.00" fill="#000000">/EAGLE&#45;ZYBO&#45;Linux/src</text>
<text text-anchor="middle" x="283" y="-441.5" font-family="Helvetica,sans-Serif" font-size="10.00" fill="#000000">/matrix/include/ArrayHelpers.hpp</text>
</a>
</g>
</g>
<!-- Node7&#45;&gt;Node9 -->
<g id="edge2" class="edge">
<title>Node7&#45;&gt;Node9</title>
<path fill="none" stroke="#191970" d="M283,-502.0789C283,-493.2178 283,-483.7747 283,-475.6898"/>
<polygon fill="#191970" stroke="#191970" points="279.5001,-502.0974 283,-512.0974 286.5001,-502.0975 279.5001,-502.0974"/>
</g>
<!-- Node11 -->
<g id="node5" class="node">
<title>Node11</title>
<g id="a_node5"><a xlink:href="Matrix_8hpp.html" target="_top" xlink:title=" ">
<polygon fill="#ffffff" stroke="#000000" points="421.5,-434.5 421.5,-475.5 566.5,-475.5 566.5,-434.5 421.5,-434.5"/>
<text text-anchor="start" x="429.5" y="-463.5" font-family="Helvetica,sans-Serif" font-size="10.00" fill="#000000">/home/pieter/GitHub</text>
<text text-anchor="start" x="429.5" y="-452.5" font-family="Helvetica,sans-Serif" font-size="10.00" fill="#000000">/EAGLE&#45;ZYBO&#45;Linux/src</text>
<text text-anchor="middle" x="494" y="-441.5" font-family="Helvetica,sans-Serif" font-size="10.00" fill="#000000">/matrix/include/Matrix.hpp</text>
</a>
</g>
</g>
<!-- Node7&#45;&gt;Node11 -->
<g id="edge4" class="edge">
<title>Node7&#45;&gt;Node11</title>
<path fill="none" stroke="#191970" d="M348.2999,-508.8607C377.145,-498.1976 410.7046,-485.7917 438.3402,-475.5757"/>
<polygon fill="#191970" stroke="#191970" points="346.8798,-505.6541 338.7138,-512.4044 349.307,-512.2198 346.8798,-505.6541"/>
</g>
<!-- Node10 -->
<g id="node4" class="node">
<title>Node10</title>
<g id="a_node4"><a xlink:href="MatrixHelpers_8hpp.html" target="_top" xlink:title=" ">
<polygon fill="#ffffff" stroke="#000000" points="161,-356.5 161,-397.5 343,-397.5 343,-356.5 161,-356.5"/>
<text text-anchor="start" x="169" y="-385.5" font-family="Helvetica,sans-Serif" font-size="10.00" fill="#000000">/home/pieter/GitHub</text>
<text text-anchor="start" x="169" y="-374.5" font-family="Helvetica,sans-Serif" font-size="10.00" fill="#000000">/EAGLE&#45;ZYBO&#45;Linux/src</text>
<text text-anchor="middle" x="252" y="-363.5" font-family="Helvetica,sans-Serif" font-size="10.00" fill="#000000">/matrix/include/MatrixHelpers.hpp</text>
</a>
</g>
</g>
<!-- Node9&#45;&gt;Node10 -->
<g id="edge3" class="edge">
<title>Node9&#45;&gt;Node10</title>
<path fill="none" stroke="#191970" d="M270.9402,-424.6559C267.3525,-415.629 263.506,-405.9505 260.2229,-397.6898"/>
<polygon fill="#191970" stroke="#191970" points="267.7466,-426.0972 274.6926,-434.0974 274.2517,-423.5118 267.7466,-426.0972"/>
</g>
<!-- Node11&#45;&gt;Node10 -->
<g id="edge20" class="edge">
<title>Node11&#45;&gt;Node10</title>
<path fill="none" stroke="#191970" d="M420.398,-431.277C387.0285,-420.5216 347.9466,-407.9249 315.8373,-397.5757"/>
<polygon fill="#191970" stroke="#191970" points="419.5092,-434.6678 430.1008,-434.4044 421.6567,-428.0054 419.5092,-434.6678"/>
</g>
<!-- Node12 -->
<g id="node6" class="node">
<title>Node12</title>
<g id="a_node6"><a xlink:href="GridFinder_8hpp.html" target="_top" xlink:title=" ">
<polygon fill="#ffffff" stroke="#000000" points="782.5,-184 782.5,-225 963.5,-225 963.5,-184 782.5,-184"/>
<text text-anchor="start" x="790.5" y="-213" font-family="Helvetica,sans-Serif" font-size="10.00" fill="#000000">/home/pieter/GitHub</text>
<text text-anchor="start" x="790.5" y="-202" font-family="Helvetica,sans-Serif" font-size="10.00" fill="#000000">/EAGLE&#45;ZYBO&#45;Linux/src</text>
<text text-anchor="middle" x="873" y="-191" font-family="Helvetica,sans-Serif" font-size="10.00" fill="#000000">/grid&#45;finder/include/GridFinder.hpp</text>
</a>
</g>
</g>
<!-- Node11&#45;&gt;Node12 -->
<g id="edge5" class="edge">
<title>Node11&#45;&gt;Node12</title>
<path fill="none" stroke="#191970" d="M576.8443,-449.6276C685.5743,-441.653 869.891,-424.6896 932,-398 982.5087,-376.2953 1004.3734,-369.6388 1028,-320 1038.1235,-298.7308 1041.1788,-286.5239 1028,-267 1012.9842,-244.7547 988.5832,-230.4253 963.5397,-221.1955"/>
<polygon fill="#191970" stroke="#191970" points="576.286,-446.1588 566.5647,-450.3713 576.7912,-453.1405 576.286,-446.1588"/>
</g>
<!-- Node16 -->
<g id="node10" class="node">
<title>Node16</title>
<g id="a_node10"><a xlink:href="Line_8hpp.html" target="_top" xlink:title=" ">
<polygon fill="#ffffff" stroke="#000000" points="771,-356.5 771,-397.5 923,-397.5 923,-356.5 771,-356.5"/>
<text text-anchor="start" x="779" y="-385.5" font-family="Helvetica,sans-Serif" font-size="10.00" fill="#000000">/home/pieter/GitHub</text>
<text text-anchor="start" x="779" y="-374.5" font-family="Helvetica,sans-Serif" font-size="10.00" fill="#000000">/EAGLE&#45;ZYBO&#45;Linux/src</text>
<text text-anchor="middle" x="847" y="-363.5" font-family="Helvetica,sans-Serif" font-size="10.00" fill="#000000">/grid&#45;finder/include/Line.hpp</text>
</a>
</g>
</g>
<!-- Node11&#45;&gt;Node16 -->
<g id="edge9" class="edge">
<title>Node11&#45;&gt;Node16</title>
<path fill="none" stroke="#191970" d="M576.6905,-438.1399C629.7428,-427.1434 700.0457,-412.2376 762,-398 764.8148,-397.3531 767.6799,-396.6866 770.5725,-396.0069"/>
<polygon fill="#191970" stroke="#191970" points="575.7383,-434.7627 566.6548,-440.2161 577.1565,-441.6175 575.7383,-434.7627"/>
</g>
<!-- Node20 -->
<g id="node14" class="node">
<title>Node20</title>
<g id="a_node14"><a xlink:href="HouseholderQR_8hpp.html" target="_top" xlink:title=" ">
<polygon fill="#ffffff" stroke="#000000" points="399,-356.5 399,-397.5 589,-397.5 589,-356.5 399,-356.5"/>
<text text-anchor="start" x="407" y="-385.5" font-family="Helvetica,sans-Serif" font-size="10.00" fill="#000000">/home/pieter/GitHub</text>
<text text-anchor="start" x="407" y="-374.5" font-family="Helvetica,sans-Serif" font-size="10.00" fill="#000000">/EAGLE&#45;ZYBO&#45;Linux/src</text>
<text text-anchor="middle" x="494" y="-363.5" font-family="Helvetica,sans-Serif" font-size="10.00" fill="#000000">/matrix/include/HouseholderQR.hpp</text>
</a>
</g>
</g>
<!-- Node11&#45;&gt;Node20 -->
<g id="edge18" class="edge">
<title>Node11&#45;&gt;Node20</title>
<path fill="none" stroke="#191970" d="M494,-424.0789C494,-415.2178 494,-405.7747 494,-397.6898"/>
<polygon fill="#191970" stroke="#191970" points="490.5001,-424.0974 494,-434.0974 497.5001,-424.0975 490.5001,-424.0974"/>
</g>
<!-- Node22 -->
<g id="node16" class="node">
<title>Node22</title>
<g id="a_node16"><a xlink:href="Randn_8hpp.html" target="_top" xlink:title=" ">
<polygon fill="#ffffff" stroke="#000000" points="607.5,-356.5 607.5,-397.5 752.5,-397.5 752.5,-356.5 607.5,-356.5"/>
<text text-anchor="start" x="615.5" y="-385.5" font-family="Helvetica,sans-Serif" font-size="10.00" fill="#000000">/home/pieter/GitHub</text>
<text text-anchor="start" x="615.5" y="-374.5" font-family="Helvetica,sans-Serif" font-size="10.00" fill="#000000">/EAGLE&#45;ZYBO&#45;Linux/src</text>
<text text-anchor="middle" x="680" y="-363.5" font-family="Helvetica,sans-Serif" font-size="10.00" fill="#000000">/matrix/include/Randn.hpp</text>
</a>
</g>
</g>
<!-- Node11&#45;&gt;Node22 -->
<g id="edge21" class="edge">
<title>Node11&#45;&gt;Node22</title>
<path fill="none" stroke="#191970" d="M552.8011,-430.3415C577.9901,-419.7784 607.0679,-407.5844 631.0585,-397.5239"/>
<polygon fill="#191970" stroke="#191970" points="551.2246,-427.2072 543.3563,-434.3022 553.9318,-433.6626 551.2246,-427.2072"/>
</g>
<!-- Node23 -->
<g id="node17" class="node">
<title>Node23</title>
<g id="a_node17"><a xlink:href="PyMatrix_8hpp.html" target="_top" xlink:title=" ">
<polygon fill="#ffffff" stroke="#000000" points="345.5,-184 345.5,-225 518.5,-225 518.5,-184 345.5,-184"/>
<text text-anchor="start" x="353.5" y="-213" font-family="Helvetica,sans-Serif" font-size="10.00" fill="#000000">/home/pieter/GitHub</text>
<text text-anchor="start" x="353.5" y="-202" font-family="Helvetica,sans-Serif" font-size="10.00" fill="#000000">/EAGLE&#45;ZYBO&#45;Linux/src</text>
<text text-anchor="middle" x="432" y="-191" font-family="Helvetica,sans-Serif" font-size="10.00" fill="#000000">/py&#45;matrix/include/PyMatrix.hpp</text>
</a>
</g>
</g>
<!-- Node11&#45;&gt;Node23 -->
<g id="edge22" class="edge">
<title>Node11&#45;&gt;Node23</title>
<path fill="none" stroke="#191970" d="M422.9455,-429.49C409.807,-421.4691 397.7894,-411.1517 390,-398 383.3297,-386.7377 378.4075,-308.3059 391,-267 395.6546,-251.7319 405.3013,-236.7074 414.0684,-225.217"/>
<polygon fill="#191970" stroke="#191970" points="421.2791,-432.5684 431.708,-434.436 424.72,-426.4725 421.2791,-432.5684"/>
</g>
<!-- Node13 -->
<g id="node7" class="node">
<title>Node13</title>
<g id="a_node7"><a xlink:href="LocationFinder_8cpp.html" target="_top" xlink:title=" ">
<polygon fill="#ffffff" stroke="#000000" points="767,-89.5 767,-141.5 919,-141.5 919,-89.5 767,-89.5"/>
<text text-anchor="start" x="775" y="-129.5" font-family="Helvetica,sans-Serif" font-size="10.00" fill="#000000">/home/pieter/GitHub</text>
<text text-anchor="start" x="775" y="-118.5" font-family="Helvetica,sans-Serif" font-size="10.00" fill="#000000">/EAGLE&#45;ZYBO&#45;Linux/src</text>
<text text-anchor="start" x="775" y="-107.5" font-family="Helvetica,sans-Serif" font-size="10.00" fill="#000000">/location&#45;finder/src/Location</text>
<text text-anchor="middle" x="843" y="-96.5" font-family="Helvetica,sans-Serif" font-size="10.00" fill="#000000">Finder.cpp</text>
</a>
</g>
</g>
<!-- Node12&#45;&gt;Node13 -->
<g id="edge6" class="edge">
<title>Node12&#45;&gt;Node13</title>
<path fill="none" stroke="#191970" d="M862.7909,-174.2129C859.2408,-163.6811 855.2907,-151.9625 851.859,-141.7816"/>
<polygon fill="#191970" stroke="#191970" points="859.5311,-175.4998 866.042,-183.8579 866.1644,-173.2638 859.5311,-175.4998"/>
</g>
<!-- Node14 -->
<g id="node8" class="node">
<title>Node14</title>
<g id="a_node8"><a xlink:href="Grid-Finder_8module_8hpp.html" target="_top" xlink:title=" ">
<polygon fill="#ffffff" stroke="#000000" points="586.5,-89.5 586.5,-141.5 719.5,-141.5 719.5,-89.5 586.5,-89.5"/>
<text text-anchor="start" x="594.5" y="-129.5" font-family="Helvetica,sans-Serif" font-size="10.00" fill="#000000">/home/pieter/GitHub</text>
<text text-anchor="start" x="594.5" y="-118.5" font-family="Helvetica,sans-Serif" font-size="10.00" fill="#000000">/EAGLE&#45;ZYBO&#45;Linux/src</text>
<text text-anchor="start" x="594.5" y="-107.5" font-family="Helvetica,sans-Serif" font-size="10.00" fill="#000000">/py&#45;grid&#45;finder/include</text>
<text text-anchor="middle" x="653" y="-96.5" font-family="Helvetica,sans-Serif" font-size="10.00" fill="#000000">/Grid&#45;Finder.module.hpp</text>
</a>
</g>
</g>
<!-- Node12&#45;&gt;Node14 -->
<g id="edge7" class="edge">
<title>Node12&#45;&gt;Node14</title>
<path fill="none" stroke="#191970" d="M812.861,-180.171C783.2306,-168.1842 747.478,-153.7206 717.3043,-141.514"/>
<polygon fill="#191970" stroke="#191970" points="811.6686,-183.4641 822.2513,-183.9699 814.2937,-176.975 811.6686,-183.4641"/>
</g>
<!-- Node15 -->
<g id="node9" class="node">
<title>Node15</title>
<g id="a_node9"><a xlink:href="Grid-Finder_8module_8cpp.html" target="_top" xlink:title=" ">
<polygon fill="#ffffff" stroke="#000000" points="588.5,-.5 588.5,-52.5 717.5,-52.5 717.5,-.5 588.5,-.5"/>
<text text-anchor="start" x="596.5" y="-40.5" font-family="Helvetica,sans-Serif" font-size="10.00" fill="#000000">/home/pieter/GitHub</text>
<text text-anchor="start" x="596.5" y="-29.5" font-family="Helvetica,sans-Serif" font-size="10.00" fill="#000000">/EAGLE&#45;ZYBO&#45;Linux/src</text>
<text text-anchor="start" x="596.5" y="-18.5" font-family="Helvetica,sans-Serif" font-size="10.00" fill="#000000">/py&#45;grid&#45;finder/src/Grid</text>
<text text-anchor="middle" x="653" y="-7.5" font-family="Helvetica,sans-Serif" font-size="10.00" fill="#000000">&#45;Finder.module.cpp</text>
</a>
</g>
</g>
<!-- Node14&#45;&gt;Node15 -->
<g id="edge8" class="edge">
<title>Node14&#45;&gt;Node15</title>
<path fill="none" stroke="#191970" d="M653,-79.1155C653,-70.2061 653,-60.8475 653,-52.5341"/>
<polygon fill="#191970" stroke="#191970" points="649.5001,-79.2784 653,-89.2784 656.5001,-79.2785 649.5001,-79.2784"/>
</g>
<!-- Node16&#45;&gt;Node12 -->
<g id="edge10" class="edge">
<title>Node16&#45;&gt;Node12</title>
<path fill="none" stroke="#191970" d="M851.6627,-346.0646C856.934,-311.0915 865.3689,-255.1292 869.8931,-225.1128"/>
<polygon fill="#191970" stroke="#191970" points="848.1658,-345.7825 850.1362,-356.1925 855.0876,-346.8258 848.1658,-345.7825"/>
</g>
<!-- Node16&#45;&gt;Node14 -->
<g id="edge17" class="edge">
<title>Node16&#45;&gt;Node14</title>
<path fill="none" stroke="#191970" d="M761.0936,-355.4718C699.4775,-339.9324 627.1122,-321.4355 626,-320 585.3129,-267.4874 617.7669,-183.7026 638.7277,-141.538"/>
<polygon fill="#191970" stroke="#191970" points="760.3256,-358.8876 770.8777,-357.9373 762.0361,-352.0998 760.3256,-358.8876"/>
</g>
<!-- Node17 -->
<g id="node11" class="node">
<title>Node17</title>
<g id="a_node11"><a xlink:href="HelperStructs_8hpp.html" target="_top" xlink:title=" ">
<polygon fill="#ffffff" stroke="#000000" points="635,-273 635,-314 833,-314 833,-273 635,-273"/>
<text text-anchor="start" x="643" y="-302" font-family="Helvetica,sans-Serif" font-size="10.00" fill="#000000">/home/pieter/GitHub</text>
<text text-anchor="start" x="643" y="-291" font-family="Helvetica,sans-Serif" font-size="10.00" fill="#000000">/EAGLE&#45;ZYBO&#45;Linux/src</text>
<text text-anchor="middle" x="734" y="-280" font-family="Helvetica,sans-Serif" font-size="10.00" fill="#000000">/grid&#45;finder/include/HelperStructs.hpp</text>
</a>
</g>
</g>
<!-- Node16&#45;&gt;Node17 -->
<g id="edge11" class="edge">
<title>Node16&#45;&gt;Node17</title>
<path fill="none" stroke="#191970" d="M810.5969,-350.1004C794.8388,-338.4561 776.6825,-325.0397 762.0029,-314.1924"/>
<polygon fill="#191970" stroke="#191970" points="808.9449,-353.2315 819.0674,-356.3595 813.1049,-347.6017 808.9449,-353.2315"/>
</g>
<!-- Node19 -->
<g id="node13" class="node">
<title>Node19</title>
<g id="a_node13"><a xlink:href="LocationTracker_8hpp.html" target="_top" xlink:title=" ">
<polygon fill="#ffffff" stroke="#000000" points="889.5,-267.5 889.5,-319.5 1018.5,-319.5 1018.5,-267.5 889.5,-267.5"/>
<text text-anchor="start" x="897.5" y="-307.5" font-family="Helvetica,sans-Serif" font-size="10.00" fill="#000000">/home/pieter/GitHub</text>
<text text-anchor="start" x="897.5" y="-296.5" font-family="Helvetica,sans-Serif" font-size="10.00" fill="#000000">/EAGLE&#45;ZYBO&#45;Linux/src</text>
<text text-anchor="start" x="897.5" y="-285.5" font-family="Helvetica,sans-Serif" font-size="10.00" fill="#000000">/location&#45;finder/include</text>
<text text-anchor="middle" x="954" y="-274.5" font-family="Helvetica,sans-Serif" font-size="10.00" fill="#000000">/LocationTracker.hpp</text>
</a>
</g>
</g>
<!-- Node16&#45;&gt;Node19 -->
<g id="edge16" class="edge">
<title>Node16&#45;&gt;Node19</title>
<path fill="none" stroke="#191970" d="M881.4234,-350.1369C893.963,-340.3513 908.1115,-329.3102 920.5641,-319.5925"/>
<polygon fill="#191970" stroke="#191970" points="879.1798,-347.4481 873.4494,-356.3595 883.4863,-352.9666 879.1798,-347.4481"/>
</g>
<!-- Node17&#45;&gt;Node12 -->
<g id="edge12" class="edge">
<title>Node17&#45;&gt;Node12</title>
<path fill="none" stroke="#191970" d="M774.6944,-267.4438C795.809,-253.9245 821.2333,-237.6456 840.9361,-225.0301"/>
<polygon fill="#191970" stroke="#191970" points="772.7731,-264.518 766.2388,-272.8579 776.5477,-270.4132 772.7731,-264.518"/>
</g>
<!-- Node18 -->
<g id="node12" class="node">
<title>Node18</title>
<g id="a_node12"><a xlink:href="LocationFinder_8hpp.html" target="_top" xlink:title=" ">
<polygon fill="#ffffff" stroke="#000000" points="635.5,-178.5 635.5,-230.5 764.5,-230.5 764.5,-178.5 635.5,-178.5"/>
<text text-anchor="start" x="643.5" y="-218.5" font-family="Helvetica,sans-Serif" font-size="10.00" fill="#000000">/home/pieter/GitHub</text>
<text text-anchor="start" x="643.5" y="-207.5" font-family="Helvetica,sans-Serif" font-size="10.00" fill="#000000">/EAGLE&#45;ZYBO&#45;Linux/src</text>
<text text-anchor="start" x="643.5" y="-196.5" font-family="Helvetica,sans-Serif" font-size="10.00" fill="#000000">/location&#45;finder/include</text>
<text text-anchor="middle" x="700" y="-185.5" font-family="Helvetica,sans-Serif" font-size="10.00" fill="#000000">/LocationFinder.hpp</text>
</a>
</g>
</g>
<!-- Node17&#45;&gt;Node18 -->
<g id="edge13" class="edge">
<title>Node17&#45;&gt;Node18</title>
<path fill="none" stroke="#191970" d="M722.4297,-263.2129C718.4063,-252.6811 713.9295,-240.9625 710.0402,-230.7816"/>
<polygon fill="#191970" stroke="#191970" points="719.276,-264.7654 726.1143,-272.8579 725.8151,-262.2673 719.276,-264.7654"/>
</g>
<!-- Node18&#45;&gt;Node13 -->
<g id="edge14" class="edge">
<title>Node18&#45;&gt;Node13</title>
<path fill="none" stroke="#191970" d="M751.0699,-172.7152C767.4946,-162.4929 785.4894,-151.2933 801.1699,-141.5341"/>
<polygon fill="#191970" stroke="#191970" points="748.7719,-170.0229 742.1313,-178.2784 752.4707,-175.9659 748.7719,-170.0229"/>
</g>
<!-- Node18&#45;&gt;Node14 -->
<g id="edge15" class="edge">
<title>Node18&#45;&gt;Node14</title>
<path fill="none" stroke="#191970" d="M681.398,-169.2749C676.5116,-160.0219 671.3295,-150.209 666.7484,-141.5341"/>
<polygon fill="#191970" stroke="#191970" points="678.3879,-171.0701 686.1527,-178.2784 684.5778,-167.8013 678.3879,-171.0701"/>
</g>
<!-- Node21 -->
<g id="node15" class="node">
<title>Node21</title>
<g id="a_node15"><a xlink:href="LeastSquares_8hpp.html" target="_top" xlink:title=" ">
<polygon fill="#ffffff" stroke="#000000" points="399.5,-273 399.5,-314 578.5,-314 578.5,-273 399.5,-273"/>
<text text-anchor="start" x="407.5" y="-302" font-family="Helvetica,sans-Serif" font-size="10.00" fill="#000000">/home/pieter/GitHub</text>
<text text-anchor="start" x="407.5" y="-291" font-family="Helvetica,sans-Serif" font-size="10.00" fill="#000000">/EAGLE&#45;ZYBO&#45;Linux/src</text>
<text text-anchor="middle" x="489" y="-280" font-family="Helvetica,sans-Serif" font-size="10.00" fill="#000000">/matrix/include/LeastSquares.hpp</text>
</a>
</g>
</g>
<!-- Node20&#45;&gt;Node21 -->
<g id="edge19" class="edge">
<title>Node20&#45;&gt;Node21</title>
<path fill="none" stroke="#191970" d="M492.1532,-346.1593C491.5154,-335.5064 490.8164,-323.8344 490.2391,-314.1924"/>
<polygon fill="#191970" stroke="#191970" points="488.6725,-346.5867 492.764,-356.3595 495.66,-346.1682 488.6725,-346.5867"/>
</g>
<!-- Node23&#45;&gt;Node14 -->
<g id="edge23" class="edge">
<title>Node23&#45;&gt;Node14</title>
<path fill="none" stroke="#191970" d="M492.4123,-180.171C522.1774,-168.1842 558.0926,-153.7206 588.4034,-141.514"/>
<polygon fill="#191970" stroke="#191970" points="490.9479,-176.9876 482.9794,-183.9699 493.5629,-183.4808 490.9479,-176.9876"/>
</g>
</g>
</svg>
