<?xml version="1.0" encoding="UTF-8" standalone="no"?>
<!DOCTYPE svg PUBLIC "-//W3C//DTD SVG 1.1//EN"
 "http://www.w3.org/Graphics/SVG/1.1/DTD/svg11.dtd">
<!-- Generated by graphviz version 2.40.1 (20161225.0304)
 -->
<!-- Title: sum Pages: 1 -->
<svg width="385pt" height="104pt"
 viewBox="0.00 0.00 385.00 104.00" xmlns="http://www.w3.org/2000/svg" xmlns:xlink="http://www.w3.org/1999/xlink">
<g id="graph0" class="graph" transform="scale(1 1) rotate(0) translate(4 100)">
<title>sum</title>
<polygon fill="#ffffff" stroke="transparent" points="-4,4 -4,-100 381,-100 381,4 -4,4"/>
<!-- Node72 -->
<g id="node1" class="node">
<title>Node72</title>
<g id="a_node1"><a xlink:title=" ">
<polygon fill="#bfbfbf" stroke="#000000" points="339,-38.5 339,-57.5 377,-57.5 377,-38.5 339,-38.5"/>
<text text-anchor="middle" x="358" y="-45.5" font-family="Helvetica,sans-Serif" font-size="10.00" fill="#000000">sum</text>
</a>
</g>
</g>
<!-- Node73 -->
<g id="node2" class="node">
<title>Node73</title>
<g id="a_node2"><a xlink:href="HouseholderQR_8hpp.html#a16f7547f23439d1eda0fcbde69451ef9" target="_top" xlink:title=" ">
<polygon fill="#ffffff" stroke="#000000" points="212,-76.5 212,-95.5 303,-95.5 303,-76.5 212,-76.5"/>
<text text-anchor="middle" x="257.5" y="-83.5" font-family="Helvetica,sans-Serif" font-size="10.00" fill="#000000">householderQR</text>
</a>
</g>
</g>
<!-- Node72&#45;&gt;Node73 -->
<g id="edge1" class="edge">
<title>Node72&#45;&gt;Node73</title>
<path fill="none" stroke="#191970" d="M329.0755,-58.9366C314.4927,-64.4505 296.9679,-71.0768 282.9091,-76.3926"/>
<polygon fill="#191970" stroke="#191970" points="330.5068,-62.1374 338.6226,-55.3268 328.031,-55.5898 330.5068,-62.1374"/>
</g>
<!-- Node74 -->
<g id="node3" class="node">
<title>Node74</title>
<g id="a_node3"><a xlink:href="LeastSquares_8hpp.html#a3e86962f655361a684f770b14c9fe1e2" target="_top" xlink:title=" ">
<polygon fill="#ffffff" stroke="#000000" points="68,-57.5 68,-76.5 176,-76.5 176,-57.5 68,-57.5"/>
<text text-anchor="middle" x="122" y="-64.5" font-family="Helvetica,sans-Serif" font-size="10.00" fill="#000000">solveLeastSquares</text>
</a>
</g>
</g>
<!-- Node72&#45;&gt;Node74 -->
<g id="edge4" class="edge">
<title>Node72&#45;&gt;Node74</title>
<path fill="none" stroke="#191970" d="M328.291,-50.3918C290.1985,-53.4586 223.4331,-58.8338 176.1871,-62.6375"/>
<polygon fill="#191970" stroke="#191970" points="329.0003,-53.8461 338.6871,-49.5548 328.4385,-46.8687 329.0003,-53.8461"/>
</g>
<!-- Node76 -->
<g id="node5" class="node">
<title>Node76</title>
<g id="a_node5"><a xlink:href="Matrix_8hpp.html#a341f99d67c7fef72e0432138c6d4fc34" target="_top" xlink:title=" ">
<polygon fill="#ffffff" stroke="#000000" points="226,-.5 226,-19.5 289,-19.5 289,-.5 226,-.5"/>
<text text-anchor="middle" x="257.5" y="-7.5" font-family="Helvetica,sans-Serif" font-size="10.00" fill="#000000">operator*</text>
</a>
</g>
</g>
<!-- Node72&#45;&gt;Node76 -->
<g id="edge5" class="edge">
<title>Node72&#45;&gt;Node76</title>
<path fill="none" stroke="#191970" d="M329.0755,-37.0634C314.4927,-31.5495 296.9679,-24.9232 282.9091,-19.6074"/>
<polygon fill="#191970" stroke="#191970" points="328.031,-40.4102 338.6226,-40.6732 330.5068,-33.8626 328.031,-40.4102"/>
</g>
<!-- Node73&#45;&gt;Node74 -->
<g id="edge2" class="edge">
<title>Node73&#45;&gt;Node74</title>
<path fill="none" stroke="#191970" d="M201.5773,-78.1584C193.209,-76.985 184.5922,-75.7768 176.2592,-74.6083"/>
<polygon fill="#191970" stroke="#191970" points="201.2367,-81.6448 211.6259,-79.5675 202.2088,-74.7127 201.2367,-81.6448"/>
</g>
<!-- Node75 -->
<g id="node4" class="node">
<title>Node75</title>
<g id="a_node4"><a xlink:href="LeastSquares_8hpp.html#abc455a395ab6414f5312b56e5b479195" target="_top" xlink:title=" ">
<polygon fill="#ffffff" stroke="#000000" points="0,-57.5 0,-76.5 32,-76.5 32,-57.5 0,-57.5"/>
<text text-anchor="middle" x="16" y="-64.5" font-family="Helvetica,sans-Serif" font-size="10.00" fill="#000000">inv</text>
</a>
</g>
</g>
<!-- Node74&#45;&gt;Node75 -->
<g id="edge3" class="edge">
<title>Node74&#45;&gt;Node75</title>
<path fill="none" stroke="#191970" d="M57.7466,-67C48.2629,-67 39.2831,-67 32.0991,-67"/>
<polygon fill="#191970" stroke="#191970" points="57.7579,-70.5001 67.7579,-67 57.7579,-63.5001 57.7579,-70.5001"/>
</g>
</g>
</svg>
