<?xml version="1.0" encoding="UTF-8" standalone="no"?>
<!DOCTYPE svg PUBLIC "-//W3C//DTD SVG 1.1//EN"
 "http://www.w3.org/Graphics/SVG/1.1/DTD/svg11.dtd">
<!-- Generated by graphviz version 2.40.1 (20161225.0304)
 -->
<!-- Title: /home/pieter/GitHub/EAGLE&#45;ZYBO&#45;Linux/src/baremetal&#45;comm/include/BaremetalCommunicationDef.hpp Pages: 1 -->
<svg width="398pt" height="173pt"
 viewBox="0.00 0.00 398.00 173.00" xmlns="http://www.w3.org/2000/svg" xmlns:xlink="http://www.w3.org/1999/xlink">
<g id="graph0" class="graph" transform="scale(1 1) rotate(0) translate(4 169)">
<title>/home/pieter/GitHub/EAGLE&#45;ZYBO&#45;Linux/src/baremetal&#45;comm/include/BaremetalCommunicationDef.hpp</title>
<polygon fill="#ffffff" stroke="transparent" points="-4,4 -4,-169 394,-169 394,4 -4,4"/>
<!-- Node0 -->
<g id="node1" class="node">
<title>Node0</title>
<g id="a_node1"><a xlink:title=" ">
<polygon fill="#bfbfbf" stroke="#000000" points="81,-112.5 81,-164.5 266,-164.5 266,-112.5 81,-112.5"/>
<text text-anchor="start" x="89" y="-152.5" font-family="Helvetica,sans-Serif" font-size="10.00" fill="#000000">/home/pieter/GitHub</text>
<text text-anchor="start" x="89" y="-141.5" font-family="Helvetica,sans-Serif" font-size="10.00" fill="#000000">/EAGLE&#45;ZYBO&#45;Linux/src</text>
<text text-anchor="start" x="89" y="-130.5" font-family="Helvetica,sans-Serif" font-size="10.00" fill="#000000">/baremetal&#45;comm/include</text>
<text text-anchor="middle" x="173.5" y="-119.5" font-family="Helvetica,sans-Serif" font-size="10.00" fill="#000000">/BaremetalCommunicationDef.hpp</text>
</a>
</g>
</g>
<!-- Node1 -->
<g id="node2" class="node">
<title>Node1</title>
<g id="a_node2"><a xlink:title=" ">
<polygon fill="#ffffff" stroke="#bfbfbf" points="0,-56.5 0,-75.5 67,-75.5 67,-56.5 0,-56.5"/>
<text text-anchor="middle" x="33.5" y="-63.5" font-family="Helvetica,sans-Serif" font-size="10.00" fill="#000000">LogEntry.h</text>
</a>
</g>
</g>
<!-- Node0&#45;&gt;Node1 -->
<g id="edge1" class="edge">
<title>Node0&#45;&gt;Node1</title>
<path fill="none" stroke="#191970" d="M122.9568,-112.3258C102.0739,-101.5115 78.6815,-89.3976 61.0564,-80.2703"/>
<polygon fill="#191970" stroke="#191970" points="62.4,-77.0246 51.9105,-75.534 59.1809,-83.2406 62.4,-77.0246"/>
</g>
<!-- Node2 -->
<g id="node3" class="node">
<title>Node2</title>
<g id="a_node3"><a xlink:href="SharedStruct_8hpp.html" target="_top" xlink:title=" ">
<polygon fill="#ffffff" stroke="#000000" points="123.5,-56.5 123.5,-75.5 223.5,-75.5 223.5,-56.5 123.5,-56.5"/>
<text text-anchor="middle" x="173.5" y="-63.5" font-family="Helvetica,sans-Serif" font-size="10.00" fill="#000000">SharedStruct.hpp</text>
</a>
</g>
</g>
<!-- Node0&#45;&gt;Node2 -->
<g id="edge2" class="edge">
<title>Node0&#45;&gt;Node2</title>
<path fill="none" stroke="#191970" d="M173.5,-112.3258C173.5,-103.5142 173.5,-93.8397 173.5,-85.621"/>
<polygon fill="#191970" stroke="#191970" points="177.0001,-85.534 173.5,-75.534 170.0001,-85.534 177.0001,-85.534"/>
</g>
<!-- Node3 -->
<g id="node4" class="node">
<title>Node3</title>
<g id="a_node4"><a xlink:title=" ">
<polygon fill="#ffffff" stroke="#bfbfbf" points="36.5,-.5 36.5,-19.5 88.5,-19.5 88.5,-.5 36.5,-.5"/>
<text text-anchor="middle" x="62.5" y="-7.5" font-family="Helvetica,sans-Serif" font-size="10.00" fill="#000000">cassert</text>
</a>
</g>
</g>
<!-- Node0&#45;&gt;Node3 -->
<g id="edge8" class="edge">
<title>Node0&#45;&gt;Node3</title>
<path fill="none" stroke="#191970" d="M147.6989,-112.219C137.1742,-101.2308 125.0284,-88.2008 114.5,-76 100.7408,-60.0552 85.9621,-41.1033 75.69,-27.6075"/>
<polygon fill="#191970" stroke="#191970" points="78.469,-25.4796 69.6465,-19.6131 72.885,-29.7009 78.469,-25.4796"/>
</g>
<!-- Node8 -->
<g id="node9" class="node">
<title>Node8</title>
<g id="a_node9"><a xlink:title=" ">
<polygon fill="#ffffff" stroke="#bfbfbf" points="242,-56.5 242,-75.5 289,-75.5 289,-56.5 242,-56.5"/>
<text text-anchor="middle" x="265.5" y="-63.5" font-family="Helvetica,sans-Serif" font-size="10.00" fill="#000000">cmath</text>
</a>
</g>
</g>
<!-- Node0&#45;&gt;Node8 -->
<g id="edge9" class="edge">
<title>Node0&#45;&gt;Node8</title>
<path fill="none" stroke="#191970" d="M206.7141,-112.3258C219.6747,-102.1123 234.1063,-90.7396 245.427,-81.8184"/>
<polygon fill="#191970" stroke="#191970" points="247.7137,-84.4726 253.4017,-75.534 243.381,-78.9746 247.7137,-84.4726"/>
</g>
<!-- Node9 -->
<g id="node10" class="node">
<title>Node9</title>
<g id="a_node10"><a xlink:title=" ">
<polygon fill="#ffffff" stroke="#bfbfbf" points="307,-56.5 307,-75.5 364,-75.5 364,-56.5 307,-56.5"/>
<text text-anchor="middle" x="335.5" y="-63.5" font-family="Helvetica,sans-Serif" font-size="10.00" fill="#000000">ostream</text>
</a>
</g>
</g>
<!-- Node0&#45;&gt;Node9 -->
<g id="edge10" class="edge">
<title>Node0&#45;&gt;Node9</title>
<path fill="none" stroke="#191970" d="M231.9857,-112.3258C256.7095,-101.2612 284.4732,-88.8361 305.0188,-79.6413"/>
<polygon fill="#191970" stroke="#191970" points="306.4985,-82.8136 314.1964,-75.534 303.6391,-76.4243 306.4985,-82.8136"/>
</g>
<!-- Node2&#45;&gt;Node3 -->
<g id="edge3" class="edge">
<title>Node2&#45;&gt;Node3</title>
<path fill="none" stroke="#191970" d="M154.4184,-56.3733C136.7598,-47.4644 110.2947,-34.1127 90.2902,-24.0203"/>
<polygon fill="#191970" stroke="#191970" points="91.8372,-20.8806 81.3326,-19.5011 88.6842,-27.1303 91.8372,-20.8806"/>
</g>
<!-- Node4 -->
<g id="node5" class="node">
<title>Node4</title>
<g id="a_node5"><a xlink:title=" ">
<polygon fill="#ffffff" stroke="#bfbfbf" points="106.5,-.5 106.5,-19.5 156.5,-19.5 156.5,-.5 106.5,-.5"/>
<text text-anchor="middle" x="131.5" y="-7.5" font-family="Helvetica,sans-Serif" font-size="10.00" fill="#000000">cstdint</text>
</a>
</g>
</g>
<!-- Node2&#45;&gt;Node4 -->
<g id="edge4" class="edge">
<title>Node2&#45;&gt;Node4</title>
<path fill="none" stroke="#191970" d="M166.1842,-56.2455C160.2821,-48.3761 151.8258,-37.101 144.7406,-27.6542"/>
<polygon fill="#191970" stroke="#191970" points="147.5321,-25.5427 138.732,-19.6427 141.932,-29.7427 147.5321,-25.5427"/>
</g>
<!-- Node5 -->
<g id="node6" class="node">
<title>Node5</title>
<g id="a_node6"><a xlink:title=" ">
<polygon fill="#ffffff" stroke="#bfbfbf" points="175,-.5 175,-19.5 240,-19.5 240,-.5 175,-.5"/>
<text text-anchor="middle" x="207.5" y="-7.5" font-family="Helvetica,sans-Serif" font-size="10.00" fill="#000000">stdexcept</text>
</a>
</g>
</g>
<!-- Node2&#45;&gt;Node5 -->
<g id="edge5" class="edge">
<title>Node2&#45;&gt;Node5</title>
<path fill="none" stroke="#191970" d="M179.4223,-56.2455C184.1027,-48.5367 190.7673,-37.5598 196.4289,-28.2348"/>
<polygon fill="#191970" stroke="#191970" points="199.4475,-30.007 201.6455,-19.6427 193.4639,-26.3741 199.4475,-30.007"/>
</g>
<!-- Node6 -->
<g id="node7" class="node">
<title>Node6</title>
<g id="a_node7"><a xlink:title=" ">
<polygon fill="#ffffff" stroke="#bfbfbf" points="258.5,-.5 258.5,-19.5 302.5,-19.5 302.5,-.5 258.5,-.5"/>
<text text-anchor="middle" x="280.5" y="-7.5" font-family="Helvetica,sans-Serif" font-size="10.00" fill="#000000">string</text>
</a>
</g>
</g>
<!-- Node2&#45;&gt;Node6 -->
<g id="edge6" class="edge">
<title>Node2&#45;&gt;Node6</title>
<path fill="none" stroke="#191970" d="M192.138,-56.2455C208.9386,-47.4527 233.8634,-34.4079 252.9618,-24.4125"/>
<polygon fill="#191970" stroke="#191970" points="254.8386,-27.3807 262.0756,-19.6427 251.5927,-21.1787 254.8386,-27.3807"/>
</g>
<!-- Node7 -->
<g id="node8" class="node">
<title>Node7</title>
<g id="a_node8"><a xlink:title=" ">
<polygon fill="#ffffff" stroke="#bfbfbf" points="321,-.5 321,-19.5 390,-19.5 390,-.5 321,-.5"/>
<text text-anchor="middle" x="355.5" y="-7.5" font-family="Helvetica,sans-Serif" font-size="10.00" fill="#000000">type_traits</text>
</a>
</g>
</g>
<!-- Node2&#45;&gt;Node7 -->
<g id="edge7" class="edge">
<title>Node2&#45;&gt;Node7</title>
<path fill="none" stroke="#191970" d="M204.7869,-56.3733C235.1818,-47.021 281.4893,-32.7725 314.75,-22.5385"/>
<polygon fill="#191970" stroke="#191970" points="316.0929,-25.7873 324.6214,-19.5011 314.0342,-19.0968 316.0929,-25.7873"/>
</g>
</g>
</svg>
