<?xml version="1.0" encoding="UTF-8" standalone="no"?>
<!DOCTYPE svg PUBLIC "-//W3C//DTD SVG 1.1//EN"
 "http://www.w3.org/Graphics/SVG/1.1/DTD/svg11.dtd">
<!-- Generated by graphviz version 2.40.1 (20161225.0304)
 -->
<!-- Title: /home/pieter/GitHub/EAGLE&#45;ZYBO&#45;Linux/src/baremetal&#45;comm/include/BaremetalCommunicationDef.hpp Pages: 1 -->
<svg width="742pt" height="397pt"
 viewBox="0.00 0.00 741.50 397.00" xmlns="http://www.w3.org/2000/svg" xmlns:xlink="http://www.w3.org/1999/xlink">
<g id="graph0" class="graph" transform="scale(1 1) rotate(0) translate(4 393)">
<title>/home/pieter/GitHub/EAGLE&#45;ZYBO&#45;Linux/src/baremetal&#45;comm/include/BaremetalCommunicationDef.hpp</title>
<polygon fill="#ffffff" stroke="transparent" points="-4,4 -4,-393 737.5,-393 737.5,4 -4,4"/>
<!-- Node0 -->
<g id="node1" class="node">
<title>Node0</title>
<g id="a_node1"><a xlink:title=" ">
<polygon fill="#bfbfbf" stroke="#000000" points="355,-336.5 355,-388.5 540,-388.5 540,-336.5 355,-336.5"/>
<text text-anchor="start" x="363" y="-376.5" font-family="Helvetica,sans-Serif" font-size="10.00" fill="#000000">/home/pieter/GitHub</text>
<text text-anchor="start" x="363" y="-365.5" font-family="Helvetica,sans-Serif" font-size="10.00" fill="#000000">/EAGLE&#45;ZYBO&#45;Linux/src</text>
<text text-anchor="start" x="363" y="-354.5" font-family="Helvetica,sans-Serif" font-size="10.00" fill="#000000">/baremetal&#45;comm/include</text>
<text text-anchor="middle" x="447.5" y="-343.5" font-family="Helvetica,sans-Serif" font-size="10.00" fill="#000000">/BaremetalCommunicationDef.hpp</text>
</a>
</g>
</g>
<!-- Node1 -->
<g id="node2" class="node">
<title>Node1</title>
<g id="a_node2"><a xlink:href="LogEntry_8hpp.html" target="_top" xlink:title=" ">
<polygon fill="#ffffff" stroke="#000000" points="287,-280.5 287,-299.5 366,-299.5 366,-280.5 287,-280.5"/>
<text text-anchor="middle" x="326.5" y="-287.5" font-family="Helvetica,sans-Serif" font-size="10.00" fill="#000000">LogEntry.hpp</text>
</a>
</g>
</g>
<!-- Node0&#45;&gt;Node1 -->
<g id="edge1" class="edge">
<title>Node0&#45;&gt;Node1</title>
<path fill="none" stroke="#191970" d="M403.8162,-336.3258C386.1017,-325.7118 366.2978,-313.8458 351.1679,-304.7804"/>
<polygon fill="#191970" stroke="#191970" points="352.7889,-301.6715 342.4119,-299.534 349.1911,-307.6761 352.7889,-301.6715"/>
</g>
<!-- Node7 -->
<g id="node8" class="node">
<title>Node7</title>
<g id="a_node8"><a xlink:title=" ">
<polygon fill="#ffffff" stroke="#bfbfbf" points="310,-.5 310,-19.5 357,-19.5 357,-.5 310,-.5"/>
<text text-anchor="middle" x="333.5" y="-7.5" font-family="Helvetica,sans-Serif" font-size="10.00" fill="#000000">cmath</text>
</a>
</g>
</g>
<!-- Node0&#45;&gt;Node7 -->
<g id="edge27" class="edge">
<title>Node0&#45;&gt;Node7</title>
<path fill="none" stroke="#191970" d="M447.5,-336.4123C447.5,-310.4505 447.5,-269.4714 447.5,-234 447.5,-234 447.5,-234 447.5,-122 447.5,-91.4754 448.1664,-79.345 428.5,-56 412.6722,-37.2116 387.3688,-25.4863 366.8549,-18.5791"/>
<polygon fill="#191970" stroke="#191970" points="367.8207,-15.214 357.2317,-15.5655 365.7287,-21.8941 367.8207,-15.214"/>
</g>
<!-- Node14 -->
<g id="node15" class="node">
<title>Node14</title>
<g id="a_node15"><a xlink:title=" ">
<polygon fill="#ffffff" stroke="#bfbfbf" points="362,-56.5 362,-75.5 419,-75.5 419,-56.5 362,-56.5"/>
<text text-anchor="middle" x="390.5" y="-63.5" font-family="Helvetica,sans-Serif" font-size="10.00" fill="#000000">ostream</text>
</a>
</g>
</g>
<!-- Node0&#45;&gt;Node14 -->
<g id="edge28" class="edge">
<title>Node0&#45;&gt;Node14</title>
<path fill="none" stroke="#191970" d="M431.8497,-336.4437C418.1774,-311.1756 400.5,-271.2945 400.5,-234 400.5,-234 400.5,-234 400.5,-178 400.5,-145.5831 396.2925,-108.0969 393.3359,-85.7572"/>
<polygon fill="#191970" stroke="#191970" points="396.7637,-84.992 391.9328,-75.5627 389.8291,-85.9466 396.7637,-84.992"/>
</g>
<!-- Node18 -->
<g id="node19" class="node">
<title>Node18</title>
<g id="a_node19"><a xlink:href="SharedStruct_8hpp.html" target="_top" xlink:title=" ">
<polygon fill="#ffffff" stroke="#000000" points="511.5,-280.5 511.5,-299.5 611.5,-299.5 611.5,-280.5 511.5,-280.5"/>
<text text-anchor="middle" x="561.5" y="-287.5" font-family="Helvetica,sans-Serif" font-size="10.00" fill="#000000">SharedStruct.hpp</text>
</a>
</g>
</g>
<!-- Node0&#45;&gt;Node18 -->
<g id="edge20" class="edge">
<title>Node0&#45;&gt;Node18</title>
<path fill="none" stroke="#191970" d="M488.6566,-336.3258C505.1889,-325.8119 523.6527,-314.0696 537.8545,-305.0377"/>
<polygon fill="#191970" stroke="#191970" points="539.9487,-307.8538 546.5086,-299.534 536.1922,-301.9471 539.9487,-307.8538"/>
</g>
<!-- Node19 -->
<g id="node20" class="node">
<title>Node19</title>
<g id="a_node20"><a xlink:title=" ">
<polygon fill="#ffffff" stroke="#bfbfbf" points="681.5,-224.5 681.5,-243.5 733.5,-243.5 733.5,-224.5 681.5,-224.5"/>
<text text-anchor="middle" x="707.5" y="-231.5" font-family="Helvetica,sans-Serif" font-size="10.00" fill="#000000">cassert</text>
</a>
</g>
</g>
<!-- Node0&#45;&gt;Node19 -->
<g id="edge26" class="edge">
<title>Node0&#45;&gt;Node19</title>
<path fill="none" stroke="#191970" d="M535.5249,-336.468C563.4716,-326.6991 593.9849,-314.4109 620.5,-300 646.0326,-286.1231 672.1798,-265.2024 689.052,-250.6479"/>
<polygon fill="#191970" stroke="#191970" points="691.7728,-252.9167 696.9772,-243.6882 687.1538,-247.6569 691.7728,-252.9167"/>
</g>
<!-- Node2 -->
<g id="node3" class="node">
<title>Node2</title>
<g id="a_node3"><a xlink:href="LoggerStructs_8hpp.html" target="_top" xlink:title=" ">
<polygon fill="#ffffff" stroke="#000000" points="204.5,-224.5 204.5,-243.5 308.5,-243.5 308.5,-224.5 204.5,-224.5"/>
<text text-anchor="middle" x="256.5" y="-231.5" font-family="Helvetica,sans-Serif" font-size="10.00" fill="#000000">LoggerStructs.hpp</text>
</a>
</g>
</g>
<!-- Node1&#45;&gt;Node2 -->
<g id="edge2" class="edge">
<title>Node1&#45;&gt;Node2</title>
<path fill="none" stroke="#191970" d="M314.3069,-280.2455C303.8679,-271.8943 288.6345,-259.7076 276.426,-249.9408"/>
<polygon fill="#191970" stroke="#191970" points="278.5485,-247.1566 268.5533,-243.6427 274.1756,-252.6227 278.5485,-247.1566"/>
</g>
<!-- Node3 -->
<g id="node4" class="node">
<title>Node3</title>
<g id="a_node4"><a xlink:href="Quaternion_8hpp.html" target="_top" xlink:title=" ">
<polygon fill="#ffffff" stroke="#000000" points="182.5,-168.5 182.5,-187.5 274.5,-187.5 274.5,-168.5 182.5,-168.5"/>
<text text-anchor="middle" x="228.5" y="-175.5" font-family="Helvetica,sans-Serif" font-size="10.00" fill="#000000">Quaternion.hpp</text>
</a>
</g>
</g>
<!-- Node2&#45;&gt;Node3 -->
<g id="edge3" class="edge">
<title>Node2&#45;&gt;Node3</title>
<path fill="none" stroke="#191970" d="M251.6228,-224.2455C247.8487,-216.6973 242.5079,-206.0158 237.9099,-196.8197"/>
<polygon fill="#191970" stroke="#191970" points="240.924,-195.0217 233.3213,-187.6427 234.663,-198.1522 240.924,-195.0217"/>
</g>
<!-- Node4 -->
<g id="node5" class="node">
<title>Node4</title>
<g id="a_node5"><a xlink:href="Matrix_8hpp.html" target="_top" xlink:title=" ">
<polygon fill="#ffffff" stroke="#000000" points="194.5,-112.5 194.5,-131.5 262.5,-131.5 262.5,-112.5 194.5,-112.5"/>
<text text-anchor="middle" x="228.5" y="-119.5" font-family="Helvetica,sans-Serif" font-size="10.00" fill="#000000">Matrix.hpp</text>
</a>
</g>
</g>
<!-- Node3&#45;&gt;Node4 -->
<g id="edge4" class="edge">
<title>Node3&#45;&gt;Node4</title>
<path fill="none" stroke="#191970" d="M228.5,-168.2455C228.5,-160.9382 228.5,-150.6944 228.5,-141.7046"/>
<polygon fill="#191970" stroke="#191970" points="232.0001,-141.6426 228.5,-131.6427 225.0001,-141.6427 232.0001,-141.6426"/>
</g>
<!-- Node17 -->
<g id="node18" class="node">
<title>Node17</title>
<g id="a_node18"><a xlink:href="Square_8hpp.html" target="_top" xlink:title=" ">
<polygon fill="#ffffff" stroke="#000000" points="105,-112.5 105,-131.5 176,-131.5 176,-112.5 105,-112.5"/>
<text text-anchor="middle" x="140.5" y="-119.5" font-family="Helvetica,sans-Serif" font-size="10.00" fill="#000000">Square.hpp</text>
</a>
</g>
</g>
<!-- Node3&#45;&gt;Node17 -->
<g id="edge19" class="edge">
<title>Node3&#45;&gt;Node17</title>
<path fill="none" stroke="#191970" d="M213.1716,-168.2455C199.6697,-159.6534 179.7878,-147.0014 164.2314,-137.1018"/>
<polygon fill="#191970" stroke="#191970" points="165.9685,-134.0587 155.6528,-131.6427 162.2103,-139.9643 165.9685,-134.0587"/>
</g>
<!-- Node5 -->
<g id="node6" class="node">
<title>Node5</title>
<g id="a_node6"><a xlink:href="Array_8hpp.html" target="_top" xlink:title=" ">
<polygon fill="#ffffff" stroke="#000000" points="169.5,-56.5 169.5,-75.5 231.5,-75.5 231.5,-56.5 169.5,-56.5"/>
<text text-anchor="middle" x="200.5" y="-63.5" font-family="Helvetica,sans-Serif" font-size="10.00" fill="#000000">Array.hpp</text>
</a>
</g>
</g>
<!-- Node4&#45;&gt;Node5 -->
<g id="edge5" class="edge">
<title>Node4&#45;&gt;Node5</title>
<path fill="none" stroke="#191970" d="M223.6228,-112.2455C219.8487,-104.6973 214.5079,-94.0158 209.9099,-84.8197"/>
<polygon fill="#191970" stroke="#191970" points="212.924,-83.0217 205.3213,-75.6427 206.663,-86.1522 212.924,-83.0217"/>
</g>
<!-- Node6 -->
<g id="node7" class="node">
<title>Node6</title>
<g id="a_node7"><a xlink:title=" ">
<polygon fill="#ffffff" stroke="#bfbfbf" points="74.5,-.5 74.5,-19.5 138.5,-19.5 138.5,-.5 74.5,-.5"/>
<text text-anchor="middle" x="106.5" y="-7.5" font-family="Helvetica,sans-Serif" font-size="10.00" fill="#000000">algorithm</text>
</a>
</g>
</g>
<!-- Node4&#45;&gt;Node6 -->
<g id="edge12" class="edge">
<title>Node4&#45;&gt;Node6</title>
<path fill="none" stroke="#191970" d="M195.8668,-112.4035C159.8652,-101.4908 106.2221,-84.1367 100.5,-76 91.0066,-62.5005 94.0352,-43.4087 98.5339,-29.2293"/>
<polygon fill="#191970" stroke="#191970" points="101.9376,-30.1117 102.0776,-19.5178 95.3617,-27.7121 101.9376,-30.1117"/>
</g>
<!-- Node4&#45;&gt;Node7 -->
<g id="edge14" class="edge">
<title>Node4&#45;&gt;Node7</title>
<path fill="none" stroke="#191970" d="M259.1754,-112.4744C277.6809,-105.2432 300.3403,-93.5113 314.5,-76 325.1484,-62.8312 329.8296,-43.959 331.8872,-29.7656"/>
<polygon fill="#191970" stroke="#191970" points="335.3926,-29.9142 333.0387,-19.5842 328.4369,-29.1275 335.3926,-29.9142"/>
</g>
<!-- Node12 -->
<g id="node13" class="node">
<title>Node12</title>
<g id="a_node13"><a xlink:title=" ">
<polygon fill="#ffffff" stroke="#bfbfbf" points="109.5,-56.5 109.5,-75.5 151.5,-75.5 151.5,-56.5 109.5,-56.5"/>
<text text-anchor="middle" x="130.5" y="-63.5" font-family="Helvetica,sans-Serif" font-size="10.00" fill="#000000">array</text>
</a>
</g>
</g>
<!-- Node4&#45;&gt;Node12 -->
<g id="edge13" class="edge">
<title>Node4&#45;&gt;Node12</title>
<path fill="none" stroke="#191970" d="M211.4297,-112.2455C196.253,-103.5731 173.8379,-90.7645 156.4437,-80.825"/>
<polygon fill="#191970" stroke="#191970" points="157.7936,-77.5653 147.3747,-75.6427 154.3206,-83.643 157.7936,-77.5653"/>
</g>
<!-- Node13 -->
<g id="node14" class="node">
<title>Node13</title>
<g id="a_node14"><a xlink:title=" ">
<polygon fill="#ffffff" stroke="#bfbfbf" points="249.5,-56.5 249.5,-75.5 305.5,-75.5 305.5,-56.5 249.5,-56.5"/>
<text text-anchor="middle" x="277.5" y="-63.5" font-family="Helvetica,sans-Serif" font-size="10.00" fill="#000000">iomanip</text>
</a>
</g>
</g>
<!-- Node4&#45;&gt;Node13 -->
<g id="edge15" class="edge">
<title>Node4&#45;&gt;Node13</title>
<path fill="none" stroke="#191970" d="M237.0351,-112.2455C243.9912,-104.2958 253.9883,-92.8706 262.3051,-83.3656"/>
<polygon fill="#191970" stroke="#191970" points="265.1116,-85.4732 269.0627,-75.6427 259.8436,-80.8637 265.1116,-85.4732"/>
</g>
<!-- Node4&#45;&gt;Node14 -->
<g id="edge16" class="edge">
<title>Node4&#45;&gt;Node14</title>
<path fill="none" stroke="#191970" d="M256.3488,-112.3733C283.1703,-103.1016 323.9127,-89.0178 353.4598,-78.804"/>
<polygon fill="#191970" stroke="#191970" points="354.7069,-82.0762 363.0146,-75.5011 352.4198,-75.4603 354.7069,-82.0762"/>
</g>
<!-- Node15 -->
<g id="node16" class="node">
<title>Node15</title>
<g id="a_node16"><a xlink:href="real__t_8h.html" target="_top" xlink:title=" ">
<polygon fill="#ffffff" stroke="#000000" points="0,-56.5 0,-75.5 53,-75.5 53,-56.5 0,-56.5"/>
<text text-anchor="middle" x="26.5" y="-63.5" font-family="Helvetica,sans-Serif" font-size="10.00" fill="#000000">real_t.h</text>
</a>
</g>
</g>
<!-- Node4&#45;&gt;Node15 -->
<g id="edge17" class="edge">
<title>Node4&#45;&gt;Node15</title>
<path fill="none" stroke="#191970" d="M194.2335,-112.5004C157.811,-102.4031 100.4314,-86.4958 63.1314,-76.1552"/>
<polygon fill="#191970" stroke="#191970" points="63.7491,-72.6945 53.1775,-73.3957 61.879,-79.4401 63.7491,-72.6945"/>
</g>
<!-- Node5&#45;&gt;Node6 -->
<g id="edge6" class="edge">
<title>Node5&#45;&gt;Node6</title>
<path fill="none" stroke="#191970" d="M184.1264,-56.2455C169.5692,-47.5731 148.069,-34.7645 131.3848,-24.825"/>
<polygon fill="#191970" stroke="#191970" points="133.0683,-21.7539 122.6859,-19.6427 129.4856,-27.7676 133.0683,-21.7539"/>
</g>
<!-- Node5&#45;&gt;Node7 -->
<g id="edge7" class="edge">
<title>Node5&#45;&gt;Node7</title>
<path fill="none" stroke="#191970" d="M223.3635,-56.3733C244.905,-47.3032 277.3838,-33.6279 301.4956,-23.4755"/>
<polygon fill="#191970" stroke="#191970" points="303.0767,-26.6075 310.9348,-19.5011 300.3603,-20.156 303.0767,-26.6075"/>
</g>
<!-- Node8 -->
<g id="node9" class="node">
<title>Node8</title>
<g id="a_node9"><a xlink:title=" ">
<polygon fill="#ffffff" stroke="#bfbfbf" points="236,-.5 236,-19.5 289,-19.5 289,-.5 236,-.5"/>
<text text-anchor="middle" x="262.5" y="-7.5" font-family="Helvetica,sans-Serif" font-size="10.00" fill="#000000">cstddef</text>
</a>
</g>
</g>
<!-- Node5&#45;&gt;Node8 -->
<g id="edge8" class="edge">
<title>Node5&#45;&gt;Node8</title>
<path fill="none" stroke="#191970" d="M211.2996,-56.2455C220.3678,-48.0549 233.5206,-36.1749 244.2245,-26.5069"/>
<polygon fill="#191970" stroke="#191970" points="246.7491,-28.9429 251.8242,-19.6427 242.0571,-23.7482 246.7491,-28.9429"/>
</g>
<!-- Node9 -->
<g id="node10" class="node">
<title>Node9</title>
<g id="a_node10"><a xlink:title=" ">
<polygon fill="#ffffff" stroke="#bfbfbf" points="161.5,-.5 161.5,-19.5 217.5,-19.5 217.5,-.5 161.5,-.5"/>
<text text-anchor="middle" x="189.5" y="-7.5" font-family="Helvetica,sans-Serif" font-size="10.00" fill="#000000">numeric</text>
</a>
</g>
</g>
<!-- Node5&#45;&gt;Node9 -->
<g id="edge9" class="edge">
<title>Node5&#45;&gt;Node9</title>
<path fill="none" stroke="#191970" d="M198.5839,-56.2455C197.1486,-48.9382 195.1364,-38.6944 193.3705,-29.7046"/>
<polygon fill="#191970" stroke="#191970" points="196.756,-28.7805 191.3941,-19.6427 189.8873,-30.1298 196.756,-28.7805"/>
</g>
<!-- Node10 -->
<g id="node11" class="node">
<title>Node10</title>
<g id="a_node11"><a xlink:title=" ">
<polygon fill="#ffffff" stroke="#bfbfbf" points="413,-.5 413,-19.5 482,-19.5 482,-.5 413,-.5"/>
<text text-anchor="middle" x="447.5" y="-7.5" font-family="Helvetica,sans-Serif" font-size="10.00" fill="#000000">type_traits</text>
</a>
</g>
</g>
<!-- Node5&#45;&gt;Node10 -->
<g id="edge10" class="edge">
<title>Node5&#45;&gt;Node10</title>
<path fill="none" stroke="#191970" d="M231.9239,-58.0611C234.8209,-57.3543 237.7133,-56.6578 240.5,-56 296.2738,-42.8336 360.7564,-28.671 402.7347,-19.592"/>
<polygon fill="#191970" stroke="#191970" points="403.6056,-22.9847 412.6419,-17.4533 402.1285,-16.1423 403.6056,-22.9847"/>
</g>
<!-- Node11 -->
<g id="node12" class="node">
<title>Node11</title>
<g id="a_node12"><a xlink:title=" ">
<polygon fill="#ffffff" stroke="#bfbfbf" points="560,-.5 560,-19.5 625,-19.5 625,-.5 560,-.5"/>
<text text-anchor="middle" x="592.5" y="-7.5" font-family="Helvetica,sans-Serif" font-size="10.00" fill="#000000">stdexcept</text>
</a>
</g>
</g>
<!-- Node5&#45;&gt;Node11 -->
<g id="edge11" class="edge">
<title>Node5&#45;&gt;Node11</title>
<path fill="none" stroke="#191970" d="M231.8674,-57.7958C234.7763,-57.1446 237.6869,-56.5336 240.5,-56 351.1415,-35.0125 483.1699,-20.55 549.6866,-13.9903"/>
<polygon fill="#191970" stroke="#191970" points="550.1733,-17.4595 559.7864,-13.0055 549.4939,-10.4925 550.1733,-17.4595"/>
</g>
<!-- Node16 -->
<g id="node17" class="node">
<title>Node16</title>
<g id="a_node17"><a xlink:title=" ">
<polygon fill="#ffffff" stroke="#bfbfbf" points="0,-.5 0,-19.5 53,-19.5 53,-.5 0,-.5"/>
<text text-anchor="middle" x="26.5" y="-7.5" font-family="Helvetica,sans-Serif" font-size="10.00" fill="#000000">stdint.h</text>
</a>
</g>
</g>
<!-- Node15&#45;&gt;Node16 -->
<g id="edge18" class="edge">
<title>Node15&#45;&gt;Node16</title>
<path fill="none" stroke="#191970" d="M26.5,-56.2455C26.5,-48.9382 26.5,-38.6944 26.5,-29.7046"/>
<polygon fill="#191970" stroke="#191970" points="30.0001,-29.6426 26.5,-19.6427 23.0001,-29.6427 30.0001,-29.6426"/>
</g>
<!-- Node18&#45;&gt;Node10 -->
<g id="edge25" class="edge">
<title>Node18&#45;&gt;Node10</title>
<path fill="none" stroke="#191970" d="M544.6596,-280.3871C531.8639,-272.2545 514.7682,-259.4679 504.5,-244 487.6177,-218.5689 485.5,-208.5246 485.5,-178 485.5,-178 485.5,-178 485.5,-122 485.5,-87.6118 469.2366,-50.2832 457.989,-28.5791"/>
<polygon fill="#191970" stroke="#191970" points="460.931,-26.6605 453.107,-19.5166 454.7683,-29.9804 460.931,-26.6605"/>
</g>
<!-- Node18&#45;&gt;Node11 -->
<g id="edge23" class="edge">
<title>Node18&#45;&gt;Node11</title>
<path fill="none" stroke="#191970" d="M585.4684,-280.3887C601.5451,-272.7773 621.9917,-260.6464 634.5,-244 652.8369,-219.5969 653.5,-208.5246 653.5,-178 653.5,-178 653.5,-178 653.5,-122 653.5,-84.6364 626.9944,-47.8655 608.9271,-27.141"/>
<polygon fill="#191970" stroke="#191970" points="611.3391,-24.5903 602.0313,-19.5291 606.1513,-29.29 611.3391,-24.5903"/>
</g>
<!-- Node18&#45;&gt;Node19 -->
<g id="edge21" class="edge">
<title>Node18&#45;&gt;Node19</title>
<path fill="none" stroke="#191970" d="M586.5983,-280.3733C610.4555,-271.2226 646.5335,-257.3844 673.071,-247.2057"/>
<polygon fill="#191970" stroke="#191970" points="674.6459,-250.3503 682.7292,-243.5011 672.139,-243.8145 674.6459,-250.3503"/>
</g>
<!-- Node20 -->
<g id="node21" class="node">
<title>Node20</title>
<g id="a_node21"><a xlink:title=" ">
<polygon fill="#ffffff" stroke="#bfbfbf" points="513.5,-224.5 513.5,-243.5 563.5,-243.5 563.5,-224.5 513.5,-224.5"/>
<text text-anchor="middle" x="538.5" y="-231.5" font-family="Helvetica,sans-Serif" font-size="10.00" fill="#000000">cstdint</text>
</a>
</g>
</g>
<!-- Node18&#45;&gt;Node20 -->
<g id="edge22" class="edge">
<title>Node18&#45;&gt;Node20</title>
<path fill="none" stroke="#191970" d="M557.4937,-280.2455C554.4265,-272.7776 550.0997,-262.2427 546.3503,-253.1137"/>
<polygon fill="#191970" stroke="#191970" points="549.4972,-251.5631 542.4604,-243.6427 543.0221,-254.2226 549.4972,-251.5631"/>
</g>
<!-- Node21 -->
<g id="node22" class="node">
<title>Node21</title>
<g id="a_node22"><a xlink:title=" ">
<polygon fill="#ffffff" stroke="#bfbfbf" points="581.5,-224.5 581.5,-243.5 625.5,-243.5 625.5,-224.5 581.5,-224.5"/>
<text text-anchor="middle" x="603.5" y="-231.5" font-family="Helvetica,sans-Serif" font-size="10.00" fill="#000000">string</text>
</a>
</g>
</g>
<!-- Node18&#45;&gt;Node21 -->
<g id="edge24" class="edge">
<title>Node18&#45;&gt;Node21</title>
<path fill="none" stroke="#191970" d="M568.8158,-280.2455C574.7179,-272.3761 583.1742,-261.101 590.2594,-251.6542"/>
<polygon fill="#191970" stroke="#191970" points="593.068,-253.7427 596.268,-243.6427 587.4679,-249.5427 593.068,-253.7427"/>
</g>
</g>
</svg>
