<?xml version="1.0" encoding="UTF-8" standalone="no"?>
<!DOCTYPE svg PUBLIC "-//W3C//DTD SVG 1.1//EN"
 "http://www.w3.org/Graphics/SVG/1.1/DTD/svg11.dtd">
<!-- Generated by graphviz version 2.40.1 (20161225.0304)
 -->
<!-- Title: /home/pieter/GitHub/EAGLE&#45;ZYBO&#45;Linux/src/baremetal&#45;comm/include/SharedMem.hpp Pages: 1 -->
<svg width="934pt" height="117pt"
 viewBox="0.00 0.00 934.00 117.00" xmlns="http://www.w3.org/2000/svg" xmlns:xlink="http://www.w3.org/1999/xlink">
<g id="graph0" class="graph" transform="scale(1 1) rotate(0) translate(4 113)">
<title>/home/pieter/GitHub/EAGLE&#45;ZYBO&#45;Linux/src/baremetal&#45;comm/include/SharedMem.hpp</title>
<polygon fill="#ffffff" stroke="transparent" points="-4,4 -4,-113 930,-113 930,4 -4,4"/>
<!-- Node0 -->
<g id="node1" class="node">
<title>Node0</title>
<g id="a_node1"><a xlink:title=" ">
<polygon fill="#bfbfbf" stroke="#000000" points="382.5,-56.5 382.5,-108.5 525.5,-108.5 525.5,-56.5 382.5,-56.5"/>
<text text-anchor="start" x="390.5" y="-96.5" font-family="Helvetica,sans-Serif" font-size="10.00" fill="#000000">/home/pieter/GitHub</text>
<text text-anchor="start" x="390.5" y="-85.5" font-family="Helvetica,sans-Serif" font-size="10.00" fill="#000000">/EAGLE&#45;ZYBO&#45;Linux/src</text>
<text text-anchor="start" x="390.5" y="-74.5" font-family="Helvetica,sans-Serif" font-size="10.00" fill="#000000">/baremetal&#45;comm/include</text>
<text text-anchor="middle" x="454" y="-63.5" font-family="Helvetica,sans-Serif" font-size="10.00" fill="#000000">/SharedMem.hpp</text>
</a>
</g>
</g>
<!-- Node1 -->
<g id="node2" class="node">
<title>Node1</title>
<g id="a_node2"><a xlink:href="ANSIColors_8hpp.html" target="_top" xlink:title=" ">
<polygon fill="#ffffff" stroke="#000000" points="0,-.5 0,-19.5 92,-19.5 92,-.5 0,-.5"/>
<text text-anchor="middle" x="46" y="-7.5" font-family="Helvetica,sans-Serif" font-size="10.00" fill="#000000">ANSIColors.hpp</text>
</a>
</g>
</g>
<!-- Node0&#45;&gt;Node1 -->
<g id="edge1" class="edge">
<title>Node0&#45;&gt;Node1</title>
<path fill="none" stroke="#191970" d="M382.3178,-69.9083C313.2145,-57.7468 205.3988,-38.7126 102.1835,-20.2069"/>
<polygon fill="#191970" stroke="#191970" points="102.6716,-16.7387 92.2107,-18.4179 101.4356,-23.6287 102.6716,-16.7387"/>
</g>
<!-- Node2 -->
<g id="node3" class="node">
<title>Node2</title>
<g id="a_node3"><a xlink:title=" ">
<polygon fill="#ffffff" stroke="#bfbfbf" points="110,-.5 110,-19.5 166,-19.5 166,-.5 110,-.5"/>
<text text-anchor="middle" x="138" y="-7.5" font-family="Helvetica,sans-Serif" font-size="10.00" fill="#000000">iomanip</text>
</a>
</g>
</g>
<!-- Node0&#45;&gt;Node2 -->
<g id="edge2" class="edge">
<title>Node0&#45;&gt;Node2</title>
<path fill="none" stroke="#191970" d="M382.4116,-67.3622C328.249,-55.7014 251.8151,-38.8045 175.9749,-20.1709"/>
<polygon fill="#191970" stroke="#191970" points="176.7962,-16.7687 166.2489,-17.7708 175.119,-23.5648 176.7962,-16.7687"/>
</g>
<!-- Node3 -->
<g id="node4" class="node">
<title>Node3</title>
<g id="a_node4"><a xlink:title=" ">
<polygon fill="#ffffff" stroke="#bfbfbf" points="184,-.5 184,-19.5 244,-19.5 244,-.5 184,-.5"/>
<text text-anchor="middle" x="214" y="-7.5" font-family="Helvetica,sans-Serif" font-size="10.00" fill="#000000">iostream</text>
</a>
</g>
</g>
<!-- Node0&#45;&gt;Node3 -->
<g id="edge3" class="edge">
<title>Node0&#45;&gt;Node3</title>
<path fill="none" stroke="#191970" d="M382.3172,-60.8458C340.3283,-48.1617 288.8646,-32.6154 253.9791,-22.077"/>
<polygon fill="#191970" stroke="#191970" points="254.7428,-18.6516 244.1579,-19.1102 252.7185,-25.3525 254.7428,-18.6516"/>
</g>
<!-- Node4 -->
<g id="node5" class="node">
<title>Node4</title>
<g id="a_node5"><a xlink:title=" ">
<polygon fill="#ffffff" stroke="#bfbfbf" points="262,-.5 262,-19.5 314,-19.5 314,-.5 262,-.5"/>
<text text-anchor="middle" x="288" y="-7.5" font-family="Helvetica,sans-Serif" font-size="10.00" fill="#000000">cassert</text>
</a>
</g>
</g>
<!-- Node0&#45;&gt;Node4 -->
<g id="edge4" class="edge">
<title>Node0&#45;&gt;Node4</title>
<path fill="none" stroke="#191970" d="M394.0702,-56.3258C368.7359,-45.2612 340.2867,-32.8361 319.2338,-23.6413"/>
<polygon fill="#191970" stroke="#191970" points="320.3945,-20.329 309.8296,-19.534 317.5928,-26.7439 320.3945,-20.329"/>
</g>
<!-- Node5 -->
<g id="node6" class="node">
<title>Node5</title>
<g id="a_node6"><a xlink:title=" ">
<polygon fill="#ffffff" stroke="#bfbfbf" points="332.5,-.5 332.5,-19.5 379.5,-19.5 379.5,-.5 332.5,-.5"/>
<text text-anchor="middle" x="356" y="-7.5" font-family="Helvetica,sans-Serif" font-size="10.00" fill="#000000">cerrno</text>
</a>
</g>
</g>
<!-- Node0&#45;&gt;Node5 -->
<g id="edge5" class="edge">
<title>Node0&#45;&gt;Node5</title>
<path fill="none" stroke="#191970" d="M418.6198,-56.3258C404.6785,-46.0122 389.1395,-34.5165 377.0284,-25.5567"/>
<polygon fill="#191970" stroke="#191970" points="379.0082,-22.6677 368.8873,-19.534 374.845,-28.2951 379.0082,-22.6677"/>
</g>
<!-- Node6 -->
<g id="node7" class="node">
<title>Node6</title>
<g id="a_node7"><a xlink:title=" ">
<polygon fill="#ffffff" stroke="#bfbfbf" points="397.5,-.5 397.5,-19.5 444.5,-19.5 444.5,-.5 397.5,-.5"/>
<text text-anchor="middle" x="421" y="-7.5" font-family="Helvetica,sans-Serif" font-size="10.00" fill="#000000">fcntl.h</text>
</a>
</g>
</g>
<!-- Node0&#45;&gt;Node6 -->
<g id="edge6" class="edge">
<title>Node0&#45;&gt;Node6</title>
<path fill="none" stroke="#191970" d="M442.0862,-56.3258C437.9387,-47.2138 433.3711,-37.179 429.5507,-28.7857"/>
<polygon fill="#191970" stroke="#191970" points="432.668,-27.1855 425.3396,-19.534 426.2969,-30.0855 432.668,-27.1855"/>
</g>
<!-- Node7 -->
<g id="node8" class="node">
<title>Node7</title>
<g id="a_node8"><a xlink:title=" ">
<polygon fill="#ffffff" stroke="#bfbfbf" points="463,-.5 463,-19.5 513,-19.5 513,-.5 463,-.5"/>
<text text-anchor="middle" x="488" y="-7.5" font-family="Helvetica,sans-Serif" font-size="10.00" fill="#000000">stdio.h</text>
</a>
</g>
</g>
<!-- Node0&#45;&gt;Node7 -->
<g id="edge7" class="edge">
<title>Node0&#45;&gt;Node7</title>
<path fill="none" stroke="#191970" d="M466.2748,-56.3258C470.548,-47.2138 475.254,-37.179 479.1902,-28.7857"/>
<polygon fill="#191970" stroke="#191970" points="482.4517,-30.0739 483.5289,-19.534 476.114,-27.1018 482.4517,-30.0739"/>
</g>
<!-- Node8 -->
<g id="node9" class="node">
<title>Node8</title>
<g id="a_node9"><a xlink:title=" ">
<polygon fill="#ffffff" stroke="#bfbfbf" points="531.5,-.5 531.5,-19.5 584.5,-19.5 584.5,-.5 531.5,-.5"/>
<text text-anchor="middle" x="558" y="-7.5" font-family="Helvetica,sans-Serif" font-size="10.00" fill="#000000">stdlib.h</text>
</a>
</g>
</g>
<!-- Node0&#45;&gt;Node8 -->
<g id="edge8" class="edge">
<title>Node0&#45;&gt;Node8</title>
<path fill="none" stroke="#191970" d="M491.5464,-56.3258C506.4848,-45.912 523.1519,-34.2931 536.0575,-25.2965"/>
<polygon fill="#191970" stroke="#191970" points="538.1218,-28.124 544.3236,-19.534 534.1186,-22.3816 538.1218,-28.124"/>
</g>
<!-- Node9 -->
<g id="node10" class="node">
<title>Node9</title>
<g id="a_node10"><a xlink:title=" ">
<polygon fill="#ffffff" stroke="#bfbfbf" points="602.5,-.5 602.5,-19.5 679.5,-19.5 679.5,-.5 602.5,-.5"/>
<text text-anchor="middle" x="641" y="-7.5" font-family="Helvetica,sans-Serif" font-size="10.00" fill="#000000">sys/mman.h</text>
</a>
</g>
</g>
<!-- Node0&#45;&gt;Node9 -->
<g id="edge9" class="edge">
<title>Node0&#45;&gt;Node9</title>
<path fill="none" stroke="#191970" d="M521.2471,-56.4283C550.3284,-45.1534 583.0969,-32.449 606.9952,-23.1837"/>
<polygon fill="#191970" stroke="#191970" points="608.2766,-26.4408 616.3351,-19.5626 605.7461,-19.9142 608.2766,-26.4408"/>
</g>
<!-- Node10 -->
<g id="node11" class="node">
<title>Node10</title>
<g id="a_node11"><a xlink:title=" ">
<polygon fill="#ffffff" stroke="#bfbfbf" points="698,-.5 698,-19.5 762,-19.5 762,-.5 698,-.5"/>
<text text-anchor="middle" x="730" y="-7.5" font-family="Helvetica,sans-Serif" font-size="10.00" fill="#000000">sys/stat.h</text>
</a>
</g>
</g>
<!-- Node0&#45;&gt;Node10 -->
<g id="edge10" class="edge">
<title>Node0&#45;&gt;Node10</title>
<path fill="none" stroke="#191970" d="M525.7953,-63.6407C577.2531,-50.1237 644.806,-32.3789 687.8241,-21.0788"/>
<polygon fill="#191970" stroke="#191970" points="688.8936,-24.4167 697.6762,-18.4908 687.1151,-17.6464 688.8936,-24.4167"/>
</g>
<!-- Node11 -->
<g id="node12" class="node">
<title>Node11</title>
<g id="a_node12"><a xlink:title=" ">
<polygon fill="#ffffff" stroke="#bfbfbf" points="780,-.5 780,-19.5 852,-19.5 852,-.5 780,-.5"/>
<text text-anchor="middle" x="816" y="-7.5" font-family="Helvetica,sans-Serif" font-size="10.00" fill="#000000">sys/types.h</text>
</a>
</g>
</g>
<!-- Node0&#45;&gt;Node11 -->
<g id="edge11" class="edge">
<title>Node0&#45;&gt;Node11</title>
<path fill="none" stroke="#191970" d="M525.5471,-68.9019C587.6003,-56.9916 680.0848,-38.9618 769.8652,-20.2054"/>
<polygon fill="#191970" stroke="#191970" points="770.5968,-23.6282 779.6669,-18.1525 769.1617,-16.7769 770.5968,-23.6282"/>
</g>
<!-- Node12 -->
<g id="node13" class="node">
<title>Node12</title>
<g id="a_node13"><a xlink:title=" ">
<polygon fill="#ffffff" stroke="#bfbfbf" points="870,-.5 870,-19.5 926,-19.5 926,-.5 870,-.5"/>
<text text-anchor="middle" x="898" y="-7.5" font-family="Helvetica,sans-Serif" font-size="10.00" fill="#000000">unistd.h</text>
</a>
</g>
</g>
<!-- Node0&#45;&gt;Node12 -->
<g id="edge12" class="edge">
<title>Node0&#45;&gt;Node12</title>
<path fill="none" stroke="#191970" d="M525.7525,-73.944C605.2533,-63.9099 737.3489,-45.5971 859.8655,-20.061"/>
<polygon fill="#191970" stroke="#191970" points="860.7323,-23.4553 869.7969,-17.9704 859.2903,-16.6054 860.7323,-23.4553"/>
</g>
</g>
</svg>
