<?xml version="1.0" encoding="UTF-8" standalone="no"?>
<!DOCTYPE svg PUBLIC "-//W3C//DTD SVG 1.1//EN"
 "http://www.w3.org/Graphics/SVG/1.1/DTD/svg11.dtd">
<!-- Generated by graphviz version 2.40.1 (20161225.0304)
 -->
<!-- Title: /home/pieter/GitHub/EAGLE&#45;ZYBO&#45;Linux/src/crypto/src/bitString.cpp Pages: 1 -->
<svg width="317pt" height="162pt"
 viewBox="0.00 0.00 316.50 162.00" xmlns="http://www.w3.org/2000/svg" xmlns:xlink="http://www.w3.org/1999/xlink">
<g id="graph0" class="graph" transform="scale(1 1) rotate(0) translate(4 158)">
<title>/home/pieter/GitHub/EAGLE&#45;ZYBO&#45;Linux/src/crypto/src/bitString.cpp</title>
<polygon fill="#ffffff" stroke="transparent" points="-4,4 -4,-158 312.5,-158 312.5,4 -4,4"/>
<!-- Node0 -->
<g id="node1" class="node">
<title>Node0</title>
<g id="a_node1"><a xlink:title=" ">
<polygon fill="#bfbfbf" stroke="#000000" points="145,-112.5 145,-153.5 277,-153.5 277,-112.5 145,-112.5"/>
<text text-anchor="start" x="153" y="-141.5" font-family="Helvetica,sans-Serif" font-size="10.00" fill="#000000">/home/pieter/GitHub</text>
<text text-anchor="start" x="153" y="-130.5" font-family="Helvetica,sans-Serif" font-size="10.00" fill="#000000">/EAGLE&#45;ZYBO&#45;Linux/src</text>
<text text-anchor="middle" x="211" y="-119.5" font-family="Helvetica,sans-Serif" font-size="10.00" fill="#000000">/crypto/src/bitString.cpp</text>
</a>
</g>
</g>
<!-- Node1 -->
<g id="node2" class="node">
<title>Node1</title>
<g id="a_node2"><a xlink:href="bitString_8hpp.html" target="_top" xlink:title=" ">
<polygon fill="#ffffff" stroke="#000000" points="81.5,-56.5 81.5,-75.5 160.5,-75.5 160.5,-56.5 81.5,-56.5"/>
<text text-anchor="middle" x="121" y="-63.5" font-family="Helvetica,sans-Serif" font-size="10.00" fill="#000000">bitString.hpp</text>
</a>
</g>
</g>
<!-- Node0&#45;&gt;Node1 -->
<g id="edge1" class="edge">
<title>Node0&#45;&gt;Node1</title>
<path fill="none" stroke="#191970" d="M183.0168,-112.168C169.8956,-102.4001 154.5108,-90.9469 142.3472,-81.8918"/>
<polygon fill="#191970" stroke="#191970" points="144.2493,-78.9445 134.1379,-75.7805 140.0693,-84.5594 144.2493,-78.9445"/>
</g>
<!-- Node6 -->
<g id="node7" class="node">
<title>Node6</title>
<g id="a_node7"><a xlink:title=" ">
<polygon fill="#ffffff" stroke="#bfbfbf" points="179,-56.5 179,-75.5 243,-75.5 243,-56.5 179,-56.5"/>
<text text-anchor="middle" x="211" y="-63.5" font-family="Helvetica,sans-Serif" font-size="10.00" fill="#000000">algorithm</text>
</a>
</g>
</g>
<!-- Node0&#45;&gt;Node6 -->
<g id="edge6" class="edge">
<title>Node0&#45;&gt;Node6</title>
<path fill="none" stroke="#191970" d="M211,-112.168C211,-103.8226 211,-94.2471 211,-85.9879"/>
<polygon fill="#191970" stroke="#191970" points="214.5001,-85.7804 211,-75.7805 207.5001,-85.7805 214.5001,-85.7804"/>
</g>
<!-- Node7 -->
<g id="node8" class="node">
<title>Node7</title>
<g id="a_node8"><a xlink:title=" ">
<polygon fill="#ffffff" stroke="#bfbfbf" points="261.5,-56.5 261.5,-75.5 308.5,-75.5 308.5,-56.5 261.5,-56.5"/>
<text text-anchor="middle" x="285" y="-63.5" font-family="Helvetica,sans-Serif" font-size="10.00" fill="#000000">deque</text>
</a>
</g>
</g>
<!-- Node0&#45;&gt;Node7 -->
<g id="edge7" class="edge">
<title>Node0&#45;&gt;Node7</title>
<path fill="none" stroke="#191970" d="M234.0084,-112.168C244.4827,-102.6846 256.7114,-91.6127 266.5673,-82.689"/>
<polygon fill="#191970" stroke="#191970" points="269.1338,-85.0868 274.1977,-75.7805 264.4356,-79.8977 269.1338,-85.0868"/>
</g>
<!-- Node2 -->
<g id="node3" class="node">
<title>Node2</title>
<g id="a_node3"><a xlink:title=" ">
<polygon fill="#ffffff" stroke="#bfbfbf" points="0,-.5 0,-19.5 42,-19.5 42,-.5 0,-.5"/>
<text text-anchor="middle" x="21" y="-7.5" font-family="Helvetica,sans-Serif" font-size="10.00" fill="#000000">array</text>
</a>
</g>
</g>
<!-- Node1&#45;&gt;Node2 -->
<g id="edge2" class="edge">
<title>Node1&#45;&gt;Node2</title>
<path fill="none" stroke="#191970" d="M103.5813,-56.2455C87.9515,-47.4928 64.7981,-34.527 46.9815,-24.5496"/>
<polygon fill="#191970" stroke="#191970" points="48.6543,-21.475 38.2191,-19.6427 45.234,-27.5825 48.6543,-21.475"/>
</g>
<!-- Node3 -->
<g id="node4" class="node">
<title>Node3</title>
<g id="a_node4"><a xlink:title=" ">
<polygon fill="#ffffff" stroke="#bfbfbf" points="60,-.5 60,-19.5 110,-19.5 110,-.5 60,-.5"/>
<text text-anchor="middle" x="85" y="-7.5" font-family="Helvetica,sans-Serif" font-size="10.00" fill="#000000">cstdint</text>
</a>
</g>
</g>
<!-- Node1&#45;&gt;Node3 -->
<g id="edge3" class="edge">
<title>Node1&#45;&gt;Node3</title>
<path fill="none" stroke="#191970" d="M114.7293,-56.2455C109.7736,-48.5367 102.717,-37.5598 96.7224,-28.2348"/>
<polygon fill="#191970" stroke="#191970" points="99.5506,-26.1618 91.1989,-19.6427 93.6624,-29.9471 99.5506,-26.1618"/>
</g>
<!-- Node4 -->
<g id="node5" class="node">
<title>Node4</title>
<g id="a_node5"><a xlink:title=" ">
<polygon fill="#ffffff" stroke="#bfbfbf" points="128,-.5 128,-19.5 188,-19.5 188,-.5 128,-.5"/>
<text text-anchor="middle" x="158" y="-7.5" font-family="Helvetica,sans-Serif" font-size="10.00" fill="#000000">iostream</text>
</a>
</g>
</g>
<!-- Node1&#45;&gt;Node4 -->
<g id="edge4" class="edge">
<title>Node1&#45;&gt;Node4</title>
<path fill="none" stroke="#191970" d="M127.4449,-56.2455C132.5382,-48.5367 139.7908,-37.5598 145.952,-28.2348"/>
<polygon fill="#191970" stroke="#191970" points="149.0365,-29.9155 151.6289,-19.6427 143.1962,-26.0566 149.0365,-29.9155"/>
</g>
<!-- Node5 -->
<g id="node6" class="node">
<title>Node5</title>
<g id="a_node6"><a xlink:title=" ">
<polygon fill="#ffffff" stroke="#bfbfbf" points="206.5,-.5 206.5,-19.5 253.5,-19.5 253.5,-.5 206.5,-.5"/>
<text text-anchor="middle" x="230" y="-7.5" font-family="Helvetica,sans-Serif" font-size="10.00" fill="#000000">vector</text>
</a>
</g>
</g>
<!-- Node1&#45;&gt;Node5 -->
<g id="edge5" class="edge">
<title>Node1&#45;&gt;Node5</title>
<path fill="none" stroke="#191970" d="M139.9864,-56.2455C157.1792,-47.4125 182.7238,-34.2887 202.2132,-24.2758"/>
<polygon fill="#191970" stroke="#191970" points="203.9359,-27.3257 211.2312,-19.6427 200.737,-21.0993 203.9359,-27.3257"/>
</g>
</g>
</svg>
