<?xml version="1.0" encoding="UTF-8" standalone="no"?>
<!DOCTYPE svg PUBLIC "-//W3C//DTD SVG 1.1//EN"
 "http://www.w3.org/Graphics/SVG/1.1/DTD/svg11.dtd">
<!-- Generated by graphviz version 2.40.1 (20161225.0304)
 -->
<!-- Title: /home/pieter/GitHub/EAGLE&#45;ZYBO&#45;Linux/src/crypto/src/bitString.hpp Pages: 1 -->
<svg width="262pt" height="106pt"
 viewBox="0.00 0.00 261.50 106.00" xmlns="http://www.w3.org/2000/svg" xmlns:xlink="http://www.w3.org/1999/xlink">
<g id="graph0" class="graph" transform="scale(1 1) rotate(0) translate(4 102)">
<title>/home/pieter/GitHub/EAGLE&#45;ZYBO&#45;Linux/src/crypto/src/bitString.hpp</title>
<polygon fill="#ffffff" stroke="transparent" points="-4,4 -4,-102 257.5,-102 257.5,4 -4,4"/>
<!-- Node0 -->
<g id="node1" class="node">
<title>Node0</title>
<g id="a_node1"><a xlink:title=" ">
<polygon fill="#bfbfbf" stroke="#000000" points="54.5,-56.5 54.5,-97.5 187.5,-97.5 187.5,-56.5 54.5,-56.5"/>
<text text-anchor="start" x="62.5" y="-85.5" font-family="Helvetica,sans-Serif" font-size="10.00" fill="#000000">/home/pieter/GitHub</text>
<text text-anchor="start" x="62.5" y="-74.5" font-family="Helvetica,sans-Serif" font-size="10.00" fill="#000000">/EAGLE&#45;ZYBO&#45;Linux/src</text>
<text text-anchor="middle" x="121" y="-63.5" font-family="Helvetica,sans-Serif" font-size="10.00" fill="#000000">/crypto/src/bitString.hpp</text>
</a>
</g>
</g>
<!-- Node1 -->
<g id="node2" class="node">
<title>Node1</title>
<g id="a_node2"><a xlink:title=" ">
<polygon fill="#ffffff" stroke="#bfbfbf" points="0,-.5 0,-19.5 42,-19.5 42,-.5 0,-.5"/>
<text text-anchor="middle" x="21" y="-7.5" font-family="Helvetica,sans-Serif" font-size="10.00" fill="#000000">array</text>
</a>
</g>
</g>
<!-- Node0&#45;&gt;Node1 -->
<g id="edge1" class="edge">
<title>Node0&#45;&gt;Node1</title>
<path fill="none" stroke="#191970" d="M90.1807,-56.3511C75.2107,-46.3212 57.5368,-34.4797 43.8003,-25.2762"/>
<polygon fill="#191970" stroke="#191970" points="45.6658,-22.3131 35.4099,-19.6546 41.7695,-28.1285 45.6658,-22.3131"/>
</g>
<!-- Node2 -->
<g id="node3" class="node">
<title>Node2</title>
<g id="a_node3"><a xlink:title=" ">
<polygon fill="#ffffff" stroke="#bfbfbf" points="60,-.5 60,-19.5 110,-19.5 110,-.5 60,-.5"/>
<text text-anchor="middle" x="85" y="-7.5" font-family="Helvetica,sans-Serif" font-size="10.00" fill="#000000">cstdint</text>
</a>
</g>
</g>
<!-- Node0&#45;&gt;Node2 -->
<g id="edge2" class="edge">
<title>Node0&#45;&gt;Node2</title>
<path fill="none" stroke="#191970" d="M109.8067,-56.168C105.0678,-47.3484 99.5907,-37.155 94.9904,-28.5933"/>
<polygon fill="#191970" stroke="#191970" points="98.0715,-26.9328 90.2552,-19.7805 91.9053,-30.246 98.0715,-26.9328"/>
</g>
<!-- Node3 -->
<g id="node4" class="node">
<title>Node3</title>
<g id="a_node4"><a xlink:title=" ">
<polygon fill="#ffffff" stroke="#bfbfbf" points="128,-.5 128,-19.5 188,-19.5 188,-.5 128,-.5"/>
<text text-anchor="middle" x="158" y="-7.5" font-family="Helvetica,sans-Serif" font-size="10.00" fill="#000000">iostream</text>
</a>
</g>
</g>
<!-- Node0&#45;&gt;Node3 -->
<g id="edge3" class="edge">
<title>Node0&#45;&gt;Node3</title>
<path fill="none" stroke="#191970" d="M132.5042,-56.168C137.3748,-47.3484 143.004,-37.155 147.7321,-28.5933"/>
<polygon fill="#191970" stroke="#191970" points="150.8284,-30.2263 152.5988,-19.7805 144.7007,-26.8424 150.8284,-30.2263"/>
</g>
<!-- Node4 -->
<g id="node5" class="node">
<title>Node4</title>
<g id="a_node5"><a xlink:title=" ">
<polygon fill="#ffffff" stroke="#bfbfbf" points="206.5,-.5 206.5,-19.5 253.5,-19.5 253.5,-.5 206.5,-.5"/>
<text text-anchor="middle" x="230" y="-7.5" font-family="Helvetica,sans-Serif" font-size="10.00" fill="#000000">vector</text>
</a>
</g>
</g>
<!-- Node0&#45;&gt;Node4 -->
<g id="edge4" class="edge">
<title>Node0&#45;&gt;Node4</title>
<path fill="none" stroke="#191970" d="M154.593,-56.3511C171.0658,-46.2256 190.5421,-34.254 205.5743,-25.0139"/>
<polygon fill="#191970" stroke="#191970" points="207.6068,-27.873 214.2932,-19.6546 203.9411,-21.9095 207.6068,-27.873"/>
</g>
</g>
</svg>
