<?xml version="1.0" encoding="UTF-8" standalone="no"?>
<!DOCTYPE svg PUBLIC "-//W3C//DTD SVG 1.1//EN"
 "http://www.w3.org/Graphics/SVG/1.1/DTD/svg11.dtd">
<!-- Generated by graphviz version 2.40.1 (20161225.0304)
 -->
<!-- Title: /home/pieter/GitHub/EAGLE&#45;ZYBO&#45;Linux/src/crypto/src/bitString.hpp Pages: 1 -->
<svg width="986pt" height="206pt"
 viewBox="0.00 0.00 985.50 206.00" xmlns="http://www.w3.org/2000/svg" xmlns:xlink="http://www.w3.org/1999/xlink">
<g id="graph0" class="graph" transform="scale(1 1) rotate(0) translate(4 202)">
<title>/home/pieter/GitHub/EAGLE&#45;ZYBO&#45;Linux/src/crypto/src/bitString.hpp</title>
<polygon fill="#ffffff" stroke="transparent" points="-4,4 -4,-202 981.5,-202 981.5,4 -4,4"/>
<!-- Node5 -->
<g id="node1" class="node">
<title>Node5</title>
<g id="a_node1"><a xlink:title=" ">
<polygon fill="#bfbfbf" stroke="#000000" points="382.5,-156.5 382.5,-197.5 515.5,-197.5 515.5,-156.5 382.5,-156.5"/>
<text text-anchor="start" x="390.5" y="-185.5" font-family="Helvetica,sans-Serif" font-size="10.00" fill="#000000">/home/pieter/GitHub</text>
<text text-anchor="start" x="390.5" y="-174.5" font-family="Helvetica,sans-Serif" font-size="10.00" fill="#000000">/EAGLE&#45;ZYBO&#45;Linux/src</text>
<text text-anchor="middle" x="449" y="-163.5" font-family="Helvetica,sans-Serif" font-size="10.00" fill="#000000">/crypto/src/bitString.hpp</text>
</a>
</g>
</g>
<!-- Node6 -->
<g id="node2" class="node">
<title>Node6</title>
<g id="a_node2"><a xlink:href="bitString_8cpp.html" target="_top" xlink:title=" ">
<polygon fill="#ffffff" stroke="#000000" points="0,-78.5 0,-119.5 132,-119.5 132,-78.5 0,-78.5"/>
<text text-anchor="start" x="8" y="-107.5" font-family="Helvetica,sans-Serif" font-size="10.00" fill="#000000">/home/pieter/GitHub</text>
<text text-anchor="start" x="8" y="-96.5" font-family="Helvetica,sans-Serif" font-size="10.00" fill="#000000">/EAGLE&#45;ZYBO&#45;Linux/src</text>
<text text-anchor="middle" x="66" y="-85.5" font-family="Helvetica,sans-Serif" font-size="10.00" fill="#000000">/crypto/src/bitString.cpp</text>
</a>
</g>
</g>
<!-- Node5&#45;&gt;Node6 -->
<g id="edge1" class="edge">
<title>Node5&#45;&gt;Node6</title>
<path fill="none" stroke="#191970" d="M372.0719,-164.7403C309.5244,-154.2987 219.1543,-138.1347 141,-120 138.1022,-119.3276 135.1486,-118.6157 132.1702,-117.876"/>
<polygon fill="#191970" stroke="#191970" points="371.8142,-168.2453 382.2524,-166.4303 372.9606,-161.3398 371.8142,-168.2453"/>
</g>
<!-- Node7 -->
<g id="node3" class="node">
<title>Node7</title>
<g id="a_node3"><a xlink:href="crypto_8cpp.html" target="_top" xlink:title=" ">
<polygon fill="#ffffff" stroke="#000000" points="150.5,-78.5 150.5,-119.5 279.5,-119.5 279.5,-78.5 150.5,-78.5"/>
<text text-anchor="start" x="158.5" y="-107.5" font-family="Helvetica,sans-Serif" font-size="10.00" fill="#000000">/home/pieter/GitHub</text>
<text text-anchor="start" x="158.5" y="-96.5" font-family="Helvetica,sans-Serif" font-size="10.00" fill="#000000">/EAGLE&#45;ZYBO&#45;Linux/src</text>
<text text-anchor="middle" x="215" y="-85.5" font-family="Helvetica,sans-Serif" font-size="10.00" fill="#000000">/crypto/src/crypto.cpp</text>
</a>
</g>
</g>
<!-- Node5&#45;&gt;Node7 -->
<g id="edge2" class="edge">
<title>Node5&#45;&gt;Node7</title>
<path fill="none" stroke="#191970" d="M377.4154,-153.1385C345.2405,-142.4135 307.6415,-129.8805 276.727,-119.5757"/>
<polygon fill="#191970" stroke="#191970" points="376.6195,-156.5624 387.2132,-156.4044 378.8331,-149.9217 376.6195,-156.5624"/>
</g>
<!-- Node8 -->
<g id="node4" class="node">
<title>Node8</title>
<g id="a_node4"><a xlink:href="hwImplementation_8hpp.html" target="_top" xlink:title=" ">
<polygon fill="#ffffff" stroke="#000000" points="445,-78.5 445,-119.5 629,-119.5 629,-78.5 445,-78.5"/>
<text text-anchor="start" x="453" y="-107.5" font-family="Helvetica,sans-Serif" font-size="10.00" fill="#000000">/home/pieter/GitHub</text>
<text text-anchor="start" x="453" y="-96.5" font-family="Helvetica,sans-Serif" font-size="10.00" fill="#000000">/EAGLE&#45;ZYBO&#45;Linux/src</text>
<text text-anchor="middle" x="537" y="-85.5" font-family="Helvetica,sans-Serif" font-size="10.00" fill="#000000">/crypto/src/hwImplementation.hpp</text>
</a>
</g>
</g>
<!-- Node5&#45;&gt;Node8 -->
<g id="edge3" class="edge">
<title>Node5&#45;&gt;Node8</title>
<path fill="none" stroke="#191970" d="M480.3314,-149.229C491.313,-139.4953 503.4456,-128.7414 513.6577,-119.6898"/>
<polygon fill="#191970" stroke="#191970" points="477.7443,-146.8451 472.5824,-156.0974 482.3875,-152.0835 477.7443,-146.8451"/>
</g>
<!-- Node10 -->
<g id="node6" class="node">
<title>Node10</title>
<g id="a_node6"><a xlink:href="keccak_8hpp.html" target="_top" xlink:title=" ">
<polygon fill="#ffffff" stroke="#000000" points="297.5,-78.5 297.5,-119.5 426.5,-119.5 426.5,-78.5 297.5,-78.5"/>
<text text-anchor="start" x="305.5" y="-107.5" font-family="Helvetica,sans-Serif" font-size="10.00" fill="#000000">/home/pieter/GitHub</text>
<text text-anchor="start" x="305.5" y="-96.5" font-family="Helvetica,sans-Serif" font-size="10.00" fill="#000000">/EAGLE&#45;ZYBO&#45;Linux/src</text>
<text text-anchor="middle" x="362" y="-85.5" font-family="Helvetica,sans-Serif" font-size="10.00" fill="#000000">/crypto/src/keccak.hpp</text>
</a>
</g>
</g>
<!-- Node5&#45;&gt;Node10 -->
<g id="edge5" class="edge">
<title>Node5&#45;&gt;Node10</title>
<path fill="none" stroke="#191970" d="M418.0247,-149.229C407.1678,-139.4953 395.1731,-128.7414 385.0771,-119.6898"/>
<polygon fill="#191970" stroke="#191970" points="415.9035,-152.028 425.6856,-156.0974 420.5763,-146.8159 415.9035,-152.028"/>
</g>
<!-- Node12 -->
<g id="node8" class="node">
<title>Node12</title>
<g id="a_node8"><a xlink:href="ketje_8hpp.html" target="_top" xlink:title=" ">
<polygon fill="#ffffff" stroke="#000000" points="647.5,-78.5 647.5,-119.5 776.5,-119.5 776.5,-78.5 647.5,-78.5"/>
<text text-anchor="start" x="655.5" y="-107.5" font-family="Helvetica,sans-Serif" font-size="10.00" fill="#000000">/home/pieter/GitHub</text>
<text text-anchor="start" x="655.5" y="-96.5" font-family="Helvetica,sans-Serif" font-size="10.00" fill="#000000">/EAGLE&#45;ZYBO&#45;Linux/src</text>
<text text-anchor="middle" x="712" y="-85.5" font-family="Helvetica,sans-Serif" font-size="10.00" fill="#000000">/crypto/src/ketje.hpp</text>
</a>
</g>
</g>
<!-- Node5&#45;&gt;Node12 -->
<g id="edge8" class="edge">
<title>Node5&#45;&gt;Node12</title>
<path fill="none" stroke="#191970" d="M525.3458,-154.3575C563.9604,-142.9053 610.3243,-129.1548 647.1832,-118.2232"/>
<polygon fill="#191970" stroke="#191970" points="524.298,-151.0175 515.706,-157.2165 526.2884,-157.7286 524.298,-151.0175"/>
</g>
<!-- Node14 -->
<g id="node10" class="node">
<title>Node14</title>
<g id="a_node10"><a xlink:href="swImplementation_8hpp.html" target="_top" xlink:title=" ">
<polygon fill="#ffffff" stroke="#000000" points="794.5,-78.5 794.5,-119.5 977.5,-119.5 977.5,-78.5 794.5,-78.5"/>
<text text-anchor="start" x="802.5" y="-107.5" font-family="Helvetica,sans-Serif" font-size="10.00" fill="#000000">/home/pieter/GitHub</text>
<text text-anchor="start" x="802.5" y="-96.5" font-family="Helvetica,sans-Serif" font-size="10.00" fill="#000000">/EAGLE&#45;ZYBO&#45;Linux/src</text>
<text text-anchor="middle" x="886" y="-85.5" font-family="Helvetica,sans-Serif" font-size="10.00" fill="#000000">/crypto/src/swImplementation.hpp</text>
</a>
</g>
</g>
<!-- Node5&#45;&gt;Node14 -->
<g id="edge11" class="edge">
<title>Node5&#45;&gt;Node14</title>
<path fill="none" stroke="#191970" d="M525.8958,-164.8794C594.3014,-153.8863 696.9967,-136.8655 786,-120 788.7887,-119.4716 791.6195,-118.9271 794.4762,-118.3708"/>
<polygon fill="#191970" stroke="#191970" points="524.9584,-161.4849 515.6386,-166.5239 526.0666,-168.3967 524.9584,-161.4849"/>
</g>
<!-- Node9 -->
<g id="node5" class="node">
<title>Node9</title>
<g id="a_node5"><a xlink:href="hwImplementation_8cpp.html" target="_top" xlink:title=" ">
<polygon fill="#ffffff" stroke="#000000" points="445.5,-.5 445.5,-41.5 628.5,-41.5 628.5,-.5 445.5,-.5"/>
<text text-anchor="start" x="453.5" y="-29.5" font-family="Helvetica,sans-Serif" font-size="10.00" fill="#000000">/home/pieter/GitHub</text>
<text text-anchor="start" x="453.5" y="-18.5" font-family="Helvetica,sans-Serif" font-size="10.00" fill="#000000">/EAGLE&#45;ZYBO&#45;Linux/src</text>
<text text-anchor="middle" x="537" y="-7.5" font-family="Helvetica,sans-Serif" font-size="10.00" fill="#000000">/crypto/src/hwImplementation.cpp</text>
</a>
</g>
</g>
<!-- Node8&#45;&gt;Node9 -->
<g id="edge4" class="edge">
<title>Node8&#45;&gt;Node9</title>
<path fill="none" stroke="#191970" d="M537,-68.0789C537,-59.2178 537,-49.7747 537,-41.6898"/>
<polygon fill="#191970" stroke="#191970" points="533.5001,-68.0974 537,-78.0974 540.5001,-68.0975 533.5001,-68.0974"/>
</g>
<!-- Node10&#45;&gt;Node9 -->
<g id="edge6" class="edge">
<title>Node10&#45;&gt;Node9</title>
<path fill="none" stroke="#191970" d="M417.637,-74.2018C441.2639,-63.671 468.4805,-51.5401 490.9529,-41.5239"/>
<polygon fill="#191970" stroke="#191970" points="416.1463,-71.0343 408.4373,-78.3022 418.996,-77.4279 416.1463,-71.0343"/>
</g>
<!-- Node11 -->
<g id="node7" class="node">
<title>Node11</title>
<g id="a_node7"><a xlink:href="keccak_8cpp.html" target="_top" xlink:title=" ">
<polygon fill="#ffffff" stroke="#000000" points="297.5,-.5 297.5,-41.5 426.5,-41.5 426.5,-.5 297.5,-.5"/>
<text text-anchor="start" x="305.5" y="-29.5" font-family="Helvetica,sans-Serif" font-size="10.00" fill="#000000">/home/pieter/GitHub</text>
<text text-anchor="start" x="305.5" y="-18.5" font-family="Helvetica,sans-Serif" font-size="10.00" fill="#000000">/EAGLE&#45;ZYBO&#45;Linux/src</text>
<text text-anchor="middle" x="362" y="-7.5" font-family="Helvetica,sans-Serif" font-size="10.00" fill="#000000">/crypto/src/keccak.cpp</text>
</a>
</g>
</g>
<!-- Node10&#45;&gt;Node11 -->
<g id="edge7" class="edge">
<title>Node10&#45;&gt;Node11</title>
<path fill="none" stroke="#191970" d="M362,-68.0789C362,-59.2178 362,-49.7747 362,-41.6898"/>
<polygon fill="#191970" stroke="#191970" points="358.5001,-68.0974 362,-78.0974 365.5001,-68.0975 358.5001,-68.0974"/>
</g>
<!-- Node12&#45;&gt;Node9 -->
<g id="edge9" class="edge">
<title>Node12&#45;&gt;Node9</title>
<path fill="none" stroke="#191970" d="M656.363,-74.2018C632.7361,-63.671 605.5195,-51.5401 583.0471,-41.5239"/>
<polygon fill="#191970" stroke="#191970" points="655.004,-77.4279 665.5627,-78.3022 657.8537,-71.0343 655.004,-77.4279"/>
</g>
<!-- Node13 -->
<g id="node9" class="node">
<title>Node13</title>
<g id="a_node9"><a xlink:href="ketje_8cpp.html" target="_top" xlink:title=" ">
<polygon fill="#ffffff" stroke="#000000" points="647.5,-.5 647.5,-41.5 776.5,-41.5 776.5,-.5 647.5,-.5"/>
<text text-anchor="start" x="655.5" y="-29.5" font-family="Helvetica,sans-Serif" font-size="10.00" fill="#000000">/home/pieter/GitHub</text>
<text text-anchor="start" x="655.5" y="-18.5" font-family="Helvetica,sans-Serif" font-size="10.00" fill="#000000">/EAGLE&#45;ZYBO&#45;Linux/src</text>
<text text-anchor="middle" x="712" y="-7.5" font-family="Helvetica,sans-Serif" font-size="10.00" fill="#000000">/crypto/src/ketje.cpp</text>
</a>
</g>
</g>
<!-- Node12&#45;&gt;Node13 -->
<g id="edge10" class="edge">
<title>Node12&#45;&gt;Node13</title>
<path fill="none" stroke="#191970" d="M712,-68.0789C712,-59.2178 712,-49.7747 712,-41.6898"/>
<polygon fill="#191970" stroke="#191970" points="708.5001,-68.0974 712,-78.0974 715.5001,-68.0975 708.5001,-68.0974"/>
</g>
<!-- Node15 -->
<g id="node11" class="node">
<title>Node15</title>
<g id="a_node11"><a xlink:href="swImplementation_8cpp.html" target="_top" xlink:title=" ">
<polygon fill="#ffffff" stroke="#000000" points="795,-.5 795,-41.5 977,-41.5 977,-.5 795,-.5"/>
<text text-anchor="start" x="803" y="-29.5" font-family="Helvetica,sans-Serif" font-size="10.00" fill="#000000">/home/pieter/GitHub</text>
<text text-anchor="start" x="803" y="-18.5" font-family="Helvetica,sans-Serif" font-size="10.00" fill="#000000">/EAGLE&#45;ZYBO&#45;Linux/src</text>
<text text-anchor="middle" x="886" y="-7.5" font-family="Helvetica,sans-Serif" font-size="10.00" fill="#000000">/crypto/src/swImplementation.cpp</text>
</a>
</g>
</g>
<!-- Node14&#45;&gt;Node15 -->
<g id="edge12" class="edge">
<title>Node14&#45;&gt;Node15</title>
<path fill="none" stroke="#191970" d="M886,-68.0789C886,-59.2178 886,-49.7747 886,-41.6898"/>
<polygon fill="#191970" stroke="#191970" points="882.5001,-68.0974 886,-78.0974 889.5001,-68.0975 882.5001,-68.0974"/>
</g>
</g>
</svg>
