<?xml version="1.0" encoding="UTF-8" standalone="no"?>
<!DOCTYPE svg PUBLIC "-//W3C//DTD SVG 1.1//EN"
 "http://www.w3.org/Graphics/SVG/1.1/DTD/svg11.dtd">
<!-- Generated by graphviz version 2.40.1 (20161225.0304)
 -->
<!-- Title: /home/pieter/GitHub/EAGLE&#45;ZYBO&#45;Linux/src/crypto/src/bitString.cpp Pages: 1 -->
<svg width="263pt" height="162pt"
 viewBox="0.00 0.00 262.50 162.00" xmlns="http://www.w3.org/2000/svg" xmlns:xlink="http://www.w3.org/1999/xlink">
<g id="graph0" class="graph" transform="scale(1 1) rotate(0) translate(4 158)">
<title>/home/pieter/GitHub/EAGLE&#45;ZYBO&#45;Linux/src/crypto/src/bitString.cpp</title>
<polygon fill="#ffffff" stroke="transparent" points="-4,4 -4,-158 258.5,-158 258.5,4 -4,4"/>
<!-- Node0 -->
<g id="node1" class="node">
<title>Node0</title>
<g id="a_node1"><a xlink:title=" ">
<polygon fill="#bfbfbf" stroke="#000000" points="56,-112.5 56,-153.5 188,-153.5 188,-112.5 56,-112.5"/>
<text text-anchor="start" x="64" y="-141.5" font-family="Helvetica,sans-Serif" font-size="10.00" fill="#000000">/home/pieter/GitHub</text>
<text text-anchor="start" x="64" y="-130.5" font-family="Helvetica,sans-Serif" font-size="10.00" fill="#000000">/EAGLE&#45;ZYBO&#45;Linux/src</text>
<text text-anchor="middle" x="122" y="-119.5" font-family="Helvetica,sans-Serif" font-size="10.00" fill="#000000">/crypto/src/bitString.cpp</text>
</a>
</g>
</g>
<!-- Node1 -->
<g id="node2" class="node">
<title>Node1</title>
<g id="a_node2"><a xlink:title=" ">
<polygon fill="#ffffff" stroke="#bfbfbf" points="0,-56.5 0,-75.5 64,-75.5 64,-56.5 0,-56.5"/>
<text text-anchor="middle" x="32" y="-63.5" font-family="Helvetica,sans-Serif" font-size="10.00" fill="#000000">algorithm</text>
</a>
</g>
</g>
<!-- Node0&#45;&gt;Node1 -->
<g id="edge1" class="edge">
<title>Node0&#45;&gt;Node1</title>
<path fill="none" stroke="#191970" d="M94.0168,-112.168C80.8956,-102.4001 65.5108,-90.9469 53.3472,-81.8918"/>
<polygon fill="#191970" stroke="#191970" points="55.2493,-78.9445 45.1379,-75.7805 51.0693,-84.5594 55.2493,-78.9445"/>
</g>
<!-- Node2 -->
<g id="node3" class="node">
<title>Node2</title>
<g id="a_node3"><a xlink:href="bitString_8hpp.html" target="_top" xlink:title=" ">
<polygon fill="#ffffff" stroke="#000000" points="82.5,-56.5 82.5,-75.5 161.5,-75.5 161.5,-56.5 82.5,-56.5"/>
<text text-anchor="middle" x="122" y="-63.5" font-family="Helvetica,sans-Serif" font-size="10.00" fill="#000000">bitString.hpp</text>
</a>
</g>
</g>
<!-- Node0&#45;&gt;Node2 -->
<g id="edge2" class="edge">
<title>Node0&#45;&gt;Node2</title>
<path fill="none" stroke="#191970" d="M122,-112.168C122,-103.8226 122,-94.2471 122,-85.9879"/>
<polygon fill="#191970" stroke="#191970" points="125.5001,-85.7804 122,-75.7805 118.5001,-85.7805 125.5001,-85.7804"/>
</g>
<!-- Node7 -->
<g id="node8" class="node">
<title>Node7</title>
<g id="a_node8"><a xlink:title=" ">
<polygon fill="#ffffff" stroke="#bfbfbf" points="179.5,-56.5 179.5,-75.5 226.5,-75.5 226.5,-56.5 179.5,-56.5"/>
<text text-anchor="middle" x="203" y="-63.5" font-family="Helvetica,sans-Serif" font-size="10.00" fill="#000000">deque</text>
</a>
</g>
</g>
<!-- Node0&#45;&gt;Node7 -->
<g id="edge7" class="edge">
<title>Node0&#45;&gt;Node7</title>
<path fill="none" stroke="#191970" d="M147.1849,-112.168C158.8793,-102.4949 172.5716,-91.1692 183.4678,-82.1562"/>
<polygon fill="#191970" stroke="#191970" points="185.7011,-84.8512 191.1759,-75.7805 181.2395,-79.4573 185.7011,-84.8512"/>
</g>
<!-- Node3 -->
<g id="node4" class="node">
<title>Node3</title>
<g id="a_node4"><a xlink:title=" ">
<polygon fill="#ffffff" stroke="#bfbfbf" points="1,-.5 1,-19.5 43,-19.5 43,-.5 1,-.5"/>
<text text-anchor="middle" x="22" y="-7.5" font-family="Helvetica,sans-Serif" font-size="10.00" fill="#000000">array</text>
</a>
</g>
</g>
<!-- Node2&#45;&gt;Node3 -->
<g id="edge3" class="edge">
<title>Node2&#45;&gt;Node3</title>
<path fill="none" stroke="#191970" d="M104.5813,-56.2455C88.9515,-47.4928 65.7981,-34.527 47.9815,-24.5496"/>
<polygon fill="#191970" stroke="#191970" points="49.6543,-21.475 39.2191,-19.6427 46.234,-27.5825 49.6543,-21.475"/>
</g>
<!-- Node4 -->
<g id="node5" class="node">
<title>Node4</title>
<g id="a_node5"><a xlink:title=" ">
<polygon fill="#ffffff" stroke="#bfbfbf" points="61,-.5 61,-19.5 111,-19.5 111,-.5 61,-.5"/>
<text text-anchor="middle" x="86" y="-7.5" font-family="Helvetica,sans-Serif" font-size="10.00" fill="#000000">cstdint</text>
</a>
</g>
</g>
<!-- Node2&#45;&gt;Node4 -->
<g id="edge4" class="edge">
<title>Node2&#45;&gt;Node4</title>
<path fill="none" stroke="#191970" d="M115.7293,-56.2455C110.7736,-48.5367 103.717,-37.5598 97.7224,-28.2348"/>
<polygon fill="#191970" stroke="#191970" points="100.5506,-26.1618 92.1989,-19.6427 94.6624,-29.9471 100.5506,-26.1618"/>
</g>
<!-- Node5 -->
<g id="node6" class="node">
<title>Node5</title>
<g id="a_node6"><a xlink:title=" ">
<polygon fill="#ffffff" stroke="#bfbfbf" points="129,-.5 129,-19.5 189,-19.5 189,-.5 129,-.5"/>
<text text-anchor="middle" x="159" y="-7.5" font-family="Helvetica,sans-Serif" font-size="10.00" fill="#000000">iostream</text>
</a>
</g>
</g>
<!-- Node2&#45;&gt;Node5 -->
<g id="edge5" class="edge">
<title>Node2&#45;&gt;Node5</title>
<path fill="none" stroke="#191970" d="M128.4449,-56.2455C133.5382,-48.5367 140.7908,-37.5598 146.952,-28.2348"/>
<polygon fill="#191970" stroke="#191970" points="150.0365,-29.9155 152.6289,-19.6427 144.1962,-26.0566 150.0365,-29.9155"/>
</g>
<!-- Node6 -->
<g id="node7" class="node">
<title>Node6</title>
<g id="a_node7"><a xlink:title=" ">
<polygon fill="#ffffff" stroke="#bfbfbf" points="207.5,-.5 207.5,-19.5 254.5,-19.5 254.5,-.5 207.5,-.5"/>
<text text-anchor="middle" x="231" y="-7.5" font-family="Helvetica,sans-Serif" font-size="10.00" fill="#000000">vector</text>
</a>
</g>
</g>
<!-- Node2&#45;&gt;Node6 -->
<g id="edge6" class="edge">
<title>Node2&#45;&gt;Node6</title>
<path fill="none" stroke="#191970" d="M140.9864,-56.2455C158.1792,-47.4125 183.7238,-34.2887 203.2132,-24.2758"/>
<polygon fill="#191970" stroke="#191970" points="204.9359,-27.3257 212.2312,-19.6427 201.737,-21.0993 204.9359,-27.3257"/>
</g>
</g>
</svg>
