<?xml version="1.0" encoding="UTF-8" standalone="no"?>
<!DOCTYPE svg PUBLIC "-//W3C//DTD SVG 1.1//EN"
 "http://www.w3.org/Graphics/SVG/1.1/DTD/svg11.dtd">
<!-- Generated by graphviz version 2.40.1 (20161225.0304)
 -->
<!-- Title: /home/pieter/GitHub/EAGLE&#45;ZYBO&#45;Linux/src/crypto/include/bitString.hpp Pages: 1 -->
<svg width="342pt" height="162pt"
 viewBox="0.00 0.00 342.00 162.00" xmlns="http://www.w3.org/2000/svg" xmlns:xlink="http://www.w3.org/1999/xlink">
<g id="graph0" class="graph" transform="scale(1 1) rotate(0) translate(4 158)">
<title>/home/pieter/GitHub/EAGLE&#45;ZYBO&#45;Linux/src/crypto/include/bitString.hpp</title>
<polygon fill="#ffffff" stroke="transparent" points="-4,4 -4,-158 338,-158 338,4 -4,4"/>
<!-- Node0 -->
<g id="node1" class="node">
<title>Node0</title>
<g id="a_node1"><a xlink:title=" ">
<polygon fill="#bfbfbf" stroke="#000000" points="81,-112.5 81,-153.5 235,-153.5 235,-112.5 81,-112.5"/>
<text text-anchor="start" x="89" y="-141.5" font-family="Helvetica,sans-Serif" font-size="10.00" fill="#000000">/home/pieter/GitHub</text>
<text text-anchor="start" x="89" y="-130.5" font-family="Helvetica,sans-Serif" font-size="10.00" fill="#000000">/EAGLE&#45;ZYBO&#45;Linux/src</text>
<text text-anchor="middle" x="158" y="-119.5" font-family="Helvetica,sans-Serif" font-size="10.00" fill="#000000">/crypto/include/bitString.hpp</text>
</a>
</g>
</g>
<!-- Node1 -->
<g id="node2" class="node">
<title>Node1</title>
<g id="a_node2"><a xlink:title=" ">
<polygon fill="#ffffff" stroke="#bfbfbf" points="0,-56.5 0,-75.5 42,-75.5 42,-56.5 0,-56.5"/>
<text text-anchor="middle" x="21" y="-63.5" font-family="Helvetica,sans-Serif" font-size="10.00" fill="#000000">array</text>
</a>
</g>
</g>
<!-- Node0&#45;&gt;Node1 -->
<g id="edge1" class="edge">
<title>Node0&#45;&gt;Node1</title>
<path fill="none" stroke="#191970" d="M115.7776,-112.3511C94.3897,-101.8913 68.9732,-89.4614 49.8472,-80.1077"/>
<polygon fill="#191970" stroke="#191970" points="51.2625,-76.9038 40.7416,-75.6546 48.1872,-83.1921 51.2625,-76.9038"/>
</g>
<!-- Node2 -->
<g id="node3" class="node">
<title>Node2</title>
<g id="a_node3"><a xlink:href="cryptoInstruction_8hpp.html" target="_top" xlink:title=" ">
<polygon fill="#ffffff" stroke="#000000" points="98,-56.5 98,-75.5 218,-75.5 218,-56.5 98,-56.5"/>
<text text-anchor="middle" x="158" y="-63.5" font-family="Helvetica,sans-Serif" font-size="10.00" fill="#000000">cryptoInstruction.hpp</text>
</a>
</g>
</g>
<!-- Node0&#45;&gt;Node2 -->
<g id="edge2" class="edge">
<title>Node0&#45;&gt;Node2</title>
<path fill="none" stroke="#191970" d="M158,-112.168C158,-103.8226 158,-94.2471 158,-85.9879"/>
<polygon fill="#191970" stroke="#191970" points="161.5001,-85.7804 158,-75.7805 154.5001,-85.7805 161.5001,-85.7804"/>
</g>
<!-- Node3 -->
<g id="node4" class="node">
<title>Node3</title>
<g id="a_node4"><a xlink:title=" ">
<polygon fill="#ffffff" stroke="#bfbfbf" points="51,-.5 51,-19.5 101,-19.5 101,-.5 51,-.5"/>
<text text-anchor="middle" x="76" y="-7.5" font-family="Helvetica,sans-Serif" font-size="10.00" fill="#000000">cstdint</text>
</a>
</g>
</g>
<!-- Node0&#45;&gt;Node3 -->
<g id="edge6" class="edge">
<title>Node0&#45;&gt;Node3</title>
<path fill="none" stroke="#191970" d="M124.0934,-112.3288C111.2133,-102.8126 97.5905,-90.4155 89,-76 80.6863,-62.0489 77.5687,-43.7794 76.4553,-29.9997"/>
<polygon fill="#191970" stroke="#191970" points="79.9332,-29.4801 75.9214,-19.6742 72.9426,-29.8416 79.9332,-29.4801"/>
</g>
<!-- Node5 -->
<g id="node6" class="node">
<title>Node5</title>
<g id="a_node6"><a xlink:title=" ">
<polygon fill="#ffffff" stroke="#bfbfbf" points="215.5,-.5 215.5,-19.5 262.5,-19.5 262.5,-.5 215.5,-.5"/>
<text text-anchor="middle" x="239" y="-7.5" font-family="Helvetica,sans-Serif" font-size="10.00" fill="#000000">vector</text>
</a>
</g>
</g>
<!-- Node0&#45;&gt;Node5 -->
<g id="edge8" class="edge">
<title>Node0&#45;&gt;Node5</title>
<path fill="none" stroke="#191970" d="M192.0125,-112.3914C204.9089,-102.8848 218.5152,-90.4779 227,-76 235.1888,-62.0273 238.022,-43.7596 238.9018,-29.9862"/>
<polygon fill="#191970" stroke="#191970" points="242.4108,-29.7807 239.256,-19.6665 235.4149,-29.5405 242.4108,-29.7807"/>
</g>
<!-- Node6 -->
<g id="node7" class="node">
<title>Node6</title>
<g id="a_node7"><a xlink:title=" ">
<polygon fill="#ffffff" stroke="#bfbfbf" points="274,-56.5 274,-75.5 334,-75.5 334,-56.5 274,-56.5"/>
<text text-anchor="middle" x="304" y="-63.5" font-family="Helvetica,sans-Serif" font-size="10.00" fill="#000000">iostream</text>
</a>
</g>
</g>
<!-- Node0&#45;&gt;Node6 -->
<g id="edge7" class="edge">
<title>Node0&#45;&gt;Node6</title>
<path fill="none" stroke="#191970" d="M202.9961,-112.3511C225.9973,-101.7958 253.3703,-89.2342 273.8145,-79.8523"/>
<polygon fill="#191970" stroke="#191970" points="275.3327,-83.0066 282.9615,-75.6546 272.413,-76.6445 275.3327,-83.0066"/>
</g>
<!-- Node2&#45;&gt;Node3 -->
<g id="edge3" class="edge">
<title>Node2&#45;&gt;Node3</title>
<path fill="none" stroke="#191970" d="M143.7167,-56.2455C131.253,-47.7337 112.9549,-35.2375 98.5208,-25.3801"/>
<polygon fill="#191970" stroke="#191970" points="100.3515,-22.392 90.1196,-19.6427 96.4038,-28.1726 100.3515,-22.392"/>
</g>
<!-- Node4 -->
<g id="node5" class="node">
<title>Node4</title>
<g id="a_node5"><a xlink:title=" ">
<polygon fill="#ffffff" stroke="#bfbfbf" points="125.5,-.5 125.5,-19.5 190.5,-19.5 190.5,-.5 125.5,-.5"/>
<text text-anchor="middle" x="158" y="-7.5" font-family="Helvetica,sans-Serif" font-size="10.00" fill="#000000">stdexcept</text>
</a>
</g>
</g>
<!-- Node2&#45;&gt;Node4 -->
<g id="edge4" class="edge">
<title>Node2&#45;&gt;Node4</title>
<path fill="none" stroke="#191970" d="M158,-56.2455C158,-48.9382 158,-38.6944 158,-29.7046"/>
<polygon fill="#191970" stroke="#191970" points="161.5001,-29.6426 158,-19.6427 154.5001,-29.6427 161.5001,-29.6426"/>
</g>
<!-- Node2&#45;&gt;Node5 -->
<g id="edge5" class="edge">
<title>Node2&#45;&gt;Node5</title>
<path fill="none" stroke="#191970" d="M172.1091,-56.2455C184.4209,-47.7337 202.4958,-35.2375 216.7538,-25.3801"/>
<polygon fill="#191970" stroke="#191970" points="218.8174,-28.2085 225.0526,-19.6427 214.8366,-22.4506 218.8174,-28.2085"/>
</g>
</g>
</svg>
