<?xml version="1.0" encoding="UTF-8" standalone="no"?>
<!DOCTYPE svg PUBLIC "-//W3C//DTD SVG 1.1//EN"
 "http://www.w3.org/Graphics/SVG/1.1/DTD/svg11.dtd">
<!-- Generated by graphviz version 2.40.1 (20161225.0304)
 -->
<!-- Title: GridFinder::getFirstLineEstimate Pages: 1 -->
<svg width="502pt" height="191pt"
 viewBox="0.00 0.00 502.00 190.50" xmlns="http://www.w3.org/2000/svg" xmlns:xlink="http://www.w3.org/1999/xlink">
<g id="graph0" class="graph" transform="scale(1 1) rotate(0) translate(4 186.5)">
<title>GridFinder::getFirstLineEstimate</title>
<polygon fill="#ffffff" stroke="transparent" points="-4,4 -4,-186.5 498,-186.5 498,4 -4,4"/>
<!-- Node175 -->
<g id="node1" class="node">
<title>Node175</title>
<g id="a_node1"><a xlink:title="Find the vertical range of white pixels closest to the center of the given column,...">
<polygon fill="#bfbfbf" stroke="#000000" points="0,-69.5 0,-99.5 128,-99.5 128,-69.5 0,-69.5"/>
<text text-anchor="start" x="8" y="-87.5" font-family="Helvetica,sans-Serif" font-size="10.00" fill="#000000">GridFinder::getFirstLine</text>
<text text-anchor="middle" x="64" y="-76.5" font-family="Helvetica,sans-Serif" font-size="10.00" fill="#000000">Estimate</text>
</a>
</g>
</g>
<!-- Node176 -->
<g id="node2" class="node">
<title>Node176</title>
<g id="a_node2"><a xlink:href="classGridFinder.html#a53cfbafaf3cd06baac2a19eeee0cfb73" target="_top" xlink:title="Get the value of the given pixel.">
<polygon fill="#ffffff" stroke="#000000" points="193.5,-163 193.5,-182 281.5,-182 281.5,-163 193.5,-163"/>
<text text-anchor="middle" x="237.5" y="-170" font-family="Helvetica,sans-Serif" font-size="10.00" fill="#000000">GridFinder::get</text>
</a>
</g>
</g>
<!-- Node175&#45;&gt;Node176 -->
<g id="edge1" class="edge">
<title>Node175&#45;&gt;Node176</title>
<path fill="none" stroke="#191970" d="M81.6216,-99.5466C100.7369,-115.1478 132.7267,-139.2151 164,-153.5 170.2021,-156.333 176.8992,-158.7969 183.6379,-160.9252"/>
<polygon fill="#191970" stroke="#191970" points="182.9073,-164.3581 193.4878,-163.8072 184.8731,-157.6398 182.9073,-164.3581"/>
</g>
<!-- Node177 -->
<g id="node3" class="node">
<title>Node177</title>
<g id="a_node3"><a xlink:href="classCenterPointOutLineIterator.html#a4f03738d6ec01d1e3b15b6efeea6c16c" target="_top" xlink:title=" ">
<polygon fill="#ffffff" stroke="#000000" points="164,-113.5 164,-143.5 311,-143.5 311,-113.5 164,-113.5"/>
<text text-anchor="start" x="172" y="-131.5" font-family="Helvetica,sans-Serif" font-size="10.00" fill="#000000">CenterPointOutLineIterator</text>
<text text-anchor="middle" x="237.5" y="-120.5" font-family="Helvetica,sans-Serif" font-size="10.00" fill="#000000">::getCenter</text>
</a>
</g>
</g>
<!-- Node175&#45;&gt;Node177 -->
<g id="edge2" class="edge">
<title>Node175&#45;&gt;Node177</title>
<path fill="none" stroke="#191970" d="M123.2236,-99.5192C137.7991,-103.2156 153.5312,-107.2053 168.5234,-111.0074"/>
<polygon fill="#191970" stroke="#191970" points="167.6954,-114.4081 178.2489,-113.4738 169.4162,-107.6229 167.6954,-114.4081"/>
</g>
<!-- Node178 -->
<g id="node4" class="node">
<title>Node178</title>
<g id="a_node4"><a xlink:href="classGridFinder.html#a0de487d16731e34827c6dbc08c0eeb1b" target="_top" xlink:title="Get an estimate of the first line. Searches in multiple columns, starting from the center,...">
<polygon fill="#ffffff" stroke="#000000" points="173.5,-25.5 173.5,-55.5 301.5,-55.5 301.5,-25.5 173.5,-25.5"/>
<text text-anchor="start" x="181.5" y="-43.5" font-family="Helvetica,sans-Serif" font-size="10.00" fill="#000000">GridFinder::getFirstLine</text>
<text text-anchor="middle" x="237.5" y="-32.5" font-family="Helvetica,sans-Serif" font-size="10.00" fill="#000000">Estimate</text>
</a>
</g>
</g>
<!-- Node175&#45;&gt;Node178 -->
<g id="edge3" class="edge">
<title>Node175&#45;&gt;Node178</title>
<path fill="none" stroke="#191970" d="M123.2236,-69.4808C137.7991,-65.7844 153.5312,-61.7947 168.5234,-57.9926"/>
<polygon fill="#191970" stroke="#191970" points="169.4162,-61.3771 178.2489,-55.5262 167.6954,-54.5919 169.4162,-61.3771"/>
</g>
<!-- Node179 -->
<g id="node5" class="node">
<title>Node179</title>
<g id="a_node5"><a xlink:href="classCenterPointOutLineIterator.html#a6f4fda8865e7d1def0a8614622f0f6ef" target="_top" xlink:title=" ">
<polygon fill="#ffffff" stroke="#000000" points="347,-59.5 347,-89.5 494,-89.5 494,-59.5 347,-59.5"/>
<text text-anchor="start" x="355" y="-77.5" font-family="Helvetica,sans-Serif" font-size="10.00" fill="#000000">CenterPointOutLineIterator</text>
<text text-anchor="middle" x="420.5" y="-66.5" font-family="Helvetica,sans-Serif" font-size="10.00" fill="#000000">::hasNext</text>
</a>
</g>
</g>
<!-- Node175&#45;&gt;Node179 -->
<g id="edge6" class="edge">
<title>Node175&#45;&gt;Node179</title>
<path fill="none" stroke="#191970" d="M128.1468,-82.7007C186.4695,-81.0647 272.9081,-78.64 336.678,-76.8512"/>
<polygon fill="#191970" stroke="#191970" points="336.8124,-80.349 346.7103,-76.5698 336.616,-73.3517 336.8124,-80.349"/>
</g>
<!-- Node180 -->
<g id="node6" class="node">
<title>Node180</title>
<g id="a_node6"><a xlink:href="classCenterPointOutLineIterator.html#a89580e1393d0dfc3ff12c7a5af2a4374" target="_top" xlink:title=" ">
<polygon fill="#ffffff" stroke="#000000" points="347,-.5 347,-30.5 494,-30.5 494,-.5 347,-.5"/>
<text text-anchor="start" x="355" y="-18.5" font-family="Helvetica,sans-Serif" font-size="10.00" fill="#000000">CenterPointOutLineIterator</text>
<text text-anchor="middle" x="420.5" y="-7.5" font-family="Helvetica,sans-Serif" font-size="10.00" fill="#000000">::next</text>
</a>
</g>
</g>
<!-- Node175&#45;&gt;Node180 -->
<g id="edge7" class="edge">
<title>Node175&#45;&gt;Node180</title>
<path fill="none" stroke="#191970" d="M79.3321,-69.3816C97.6738,-52.4617 130.1676,-26.0395 164,-15.5 219.8023,1.8835 285.8081,1.4421 336.8869,-3.116"/>
<polygon fill="#191970" stroke="#191970" points="336.607,-6.6052 346.8962,-4.0785 337.2771,.3627 336.607,-6.6052"/>
</g>
<!-- Node178&#45;&gt;Node179 -->
<g id="edge4" class="edge">
<title>Node178&#45;&gt;Node179</title>
<path fill="none" stroke="#191970" d="M301.5045,-52.3916C312.9389,-54.516 325.0047,-56.7577 336.8916,-58.9662"/>
<polygon fill="#191970" stroke="#191970" points="336.3456,-62.4246 346.8168,-60.8102 337.6244,-55.5424 336.3456,-62.4246"/>
</g>
<!-- Node178&#45;&gt;Node180 -->
<g id="edge5" class="edge">
<title>Node178&#45;&gt;Node180</title>
<path fill="none" stroke="#191970" d="M301.5045,-31.7562C312.9389,-30.1941 325.0047,-28.5458 336.8916,-26.9219"/>
<polygon fill="#191970" stroke="#191970" points="337.3826,-30.3874 346.8168,-25.566 336.435,-23.4519 337.3826,-30.3874"/>
</g>
</g>
</svg>
