<?xml version="1.0" encoding="UTF-8" standalone="no"?>
<!DOCTYPE svg PUBLIC "-//W3C//DTD SVG 1.1//EN"
 "http://www.w3.org/Graphics/SVG/1.1/DTD/svg11.dtd">
<!-- Generated by graphviz version 2.40.1 (20161225.0304)
 -->
<!-- Title: GridFinder::intersect Pages: 1 -->
<svg width="323pt" height="28pt"
 viewBox="0.00 0.00 323.00 28.00" xmlns="http://www.w3.org/2000/svg" xmlns:xlink="http://www.w3.org/1999/xlink">
<g id="graph0" class="graph" transform="scale(1 1) rotate(0) translate(4 24)">
<title>GridFinder::intersect</title>
<polygon fill="#ffffff" stroke="transparent" points="-4,4 -4,-24 319,-24 319,4 -4,4"/>
<!-- Node348 -->
<g id="node1" class="node">
<title>Node348</title>
<g id="a_node1"><a xlink:title="Get the point of intersection of two lines.">
<polygon fill="#bfbfbf" stroke="#000000" points="0,-.5 0,-19.5 115,-19.5 115,-.5 0,-.5"/>
<text text-anchor="middle" x="57.5" y="-7.5" font-family="Helvetica,sans-Serif" font-size="10.00" fill="#000000">GridFinder::intersect</text>
</a>
</g>
</g>
<!-- Node349 -->
<g id="node2" class="node">
<title>Node349</title>
<g id="a_node2"><a xlink:href="classLine.html#af14c90f6f7c18003e35ca3a08be32368" target="_top" xlink:title=" ">
<polygon fill="#ffffff" stroke="#000000" points="151,-.5 151,-19.5 237,-19.5 237,-.5 151,-.5"/>
<text text-anchor="middle" x="194" y="-7.5" font-family="Helvetica,sans-Serif" font-size="10.00" fill="#000000">Line::intersect</text>
</a>
</g>
</g>
<!-- Node348&#45;&gt;Node349 -->
<g id="edge1" class="edge">
<title>Node348&#45;&gt;Node349</title>
<path fill="none" stroke="#191970" d="M115.3883,-10C123.8603,-10 132.5503,-10 140.9198,-10"/>
<polygon fill="#191970" stroke="#191970" points="140.9336,-13.5001 150.9335,-10 140.9335,-6.5001 140.9336,-13.5001"/>
</g>
<!-- Node350 -->
<g id="node3" class="node">
<title>Node350</title>
<g id="a_node3"><a xlink:href="Matrix_8hpp.html#aaac3f553f87e00956b4736107cf40289" target="_top" xlink:title="Calculates u × v, where u, v ⊆ ℝ³.">
<polygon fill="#ffffff" stroke="#000000" points="273,-.5 273,-19.5 315,-19.5 315,-.5 273,-.5"/>
<text text-anchor="middle" x="294" y="-7.5" font-family="Helvetica,sans-Serif" font-size="10.00" fill="#000000">cross</text>
</a>
</g>
</g>
<!-- Node349&#45;&gt;Node350 -->
<g id="edge2" class="edge">
<title>Node349&#45;&gt;Node350</title>
<path fill="none" stroke="#191970" d="M237.2798,-10C245.8682,-10 254.726,-10 262.8146,-10"/>
<polygon fill="#191970" stroke="#191970" points="262.9177,-13.5001 272.9176,-10 262.9176,-6.5001 262.9177,-13.5001"/>
</g>
</g>
</svg>
