<?xml version="1.0" encoding="UTF-8" standalone="no"?>
<!DOCTYPE svg PUBLIC "-//W3C//DTD SVG 1.1//EN"
 "http://www.w3.org/Graphics/SVG/1.1/DTD/svg11.dtd">
<!-- Generated by graphviz version 2.40.1 (20161225.0304)
 -->
<!-- Title: GridFinder::getFirstTwoHalfLines Pages: 1 -->
<svg width="501pt" height="39pt"
 viewBox="0.00 0.00 501.00 39.00" xmlns="http://www.w3.org/2000/svg" xmlns:xlink="http://www.w3.org/1999/xlink">
<g id="graph0" class="graph" transform="scale(1 1) rotate(0) translate(4 35)">
<title>GridFinder::getFirstTwoHalfLines</title>
<polygon fill="#ffffff" stroke="transparent" points="-4,4 -4,-35 497,-35 497,4 -4,4"/>
<!-- Node248 -->
<g id="node1" class="node">
<title>Node248</title>
<g id="a_node1"><a xlink:title="Get the first two lines. These are the two half lines that make up the line closest to the center of ...">
<polygon fill="#bfbfbf" stroke="#000000" points="346,-.5 346,-30.5 493,-30.5 493,-.5 346,-.5"/>
<text text-anchor="start" x="354" y="-18.5" font-family="Helvetica,sans-Serif" font-size="10.00" fill="#000000">GridFinder::getFirstTwoHalf</text>
<text text-anchor="middle" x="419.5" y="-7.5" font-family="Helvetica,sans-Serif" font-size="10.00" fill="#000000">Lines</text>
</a>
</g>
</g>
<!-- Node249 -->
<g id="node2" class="node">
<title>Node249</title>
<g id="a_node2"><a xlink:href="classGridFinder.html#a8940ca681fac78274043cf5f1f1f5761" target="_top" xlink:title="This is the main function: it looks for a complete square of the grid, as close to the center of the ...">
<polygon fill="#ffffff" stroke="#000000" points="186,-6 186,-25 310,-25 310,-6 186,-6"/>
<text text-anchor="middle" x="248" y="-13" font-family="Helvetica,sans-Serif" font-size="10.00" fill="#000000">GridFinder::findSquare</text>
</a>
</g>
</g>
<!-- Node248&#45;&gt;Node249 -->
<g id="edge1" class="edge">
<title>Node248&#45;&gt;Node249</title>
<path fill="none" stroke="#191970" d="M335.6848,-15.5C327.0629,-15.5 318.4149,-15.5 310.0897,-15.5"/>
<polygon fill="#191970" stroke="#191970" points="335.7733,-19.0001 345.7733,-15.5 335.7732,-12.0001 335.7733,-19.0001"/>
</g>
<!-- Node250 -->
<g id="node3" class="node">
<title>Node250</title>
<g id="a_node3"><a xlink:href="classLocationFinder.html#a398bb42565e1e2a499471765f569bc40" target="_top" xlink:title=" ">
<polygon fill="#ffffff" stroke="#000000" points="0,-6 0,-25 150,-25 150,-6 0,-6"/>
<text text-anchor="middle" x="75" y="-13" font-family="Helvetica,sans-Serif" font-size="10.00" fill="#000000">LocationFinder::getLocation</text>
</a>
</g>
</g>
<!-- Node249&#45;&gt;Node250 -->
<g id="edge2" class="edge">
<title>Node249&#45;&gt;Node250</title>
<path fill="none" stroke="#191970" d="M175.4224,-15.5C167.0344,-15.5 158.467,-15.5 150.047,-15.5"/>
<polygon fill="#191970" stroke="#191970" points="175.5431,-19.0001 185.543,-15.5 175.543,-12.0001 175.5431,-19.0001"/>
</g>
</g>
</svg>
