<?xml version="1.0" encoding="UTF-8" standalone="no"?>
<!DOCTYPE svg PUBLIC "-//W3C//DTD SVG 1.1//EN"
 "http://www.w3.org/Graphics/SVG/1.1/DTD/svg11.dtd">
<!-- Generated by graphviz version 2.40.1 (20161225.0304)
 -->
<!-- Title: Angle::getIndex Pages: 1 -->
<svg width="275pt" height="154pt"
 viewBox="0.00 0.00 275.00 154.00" xmlns="http://www.w3.org/2000/svg" xmlns:xlink="http://www.w3.org/1999/xlink">
<g id="graph0" class="graph" transform="scale(1 1) rotate(0) translate(4 150)">
<title>Angle::getIndex</title>
<polygon fill="#ffffff" stroke="transparent" points="-4,4 -4,-150 271,-150 271,4 -4,4"/>
<!-- Node39 -->
<g id="node1" class="node">
<title>Node39</title>
<g id="a_node1"><a xlink:title=" ">
<polygon fill="#bfbfbf" stroke="#000000" points="174,-66.5 174,-85.5 267,-85.5 267,-66.5 174,-66.5"/>
<text text-anchor="middle" x="220.5" y="-73.5" font-family="Helvetica,sans-Serif" font-size="10.00" fill="#000000">Angle::getIndex</text>
</a>
</g>
</g>
<!-- Node40 -->
<g id="node2" class="node">
<title>Node40</title>
<g id="a_node2"><a xlink:href="classAngle.html#a90a26814a60b92e152667b921ef542a4" target="_top" xlink:title=" ">
<polygon fill="#ffffff" stroke="#000000" points="9.5,-126.5 9.5,-145.5 128.5,-145.5 128.5,-126.5 9.5,-126.5"/>
<text text-anchor="middle" x="69" y="-133.5" font-family="Helvetica,sans-Serif" font-size="10.00" fill="#000000">Angle&lt; 360 &gt;::Angle</text>
</a>
</g>
</g>
<!-- Node39&#45;&gt;Node40 -->
<g id="edge1" class="edge">
<title>Node39&#45;&gt;Node40</title>
<path fill="none" stroke="#191970" d="M194.338,-90.6233C178.3991,-99.1195 157.4253,-109.578 138,-117 128.7147,-120.5477 118.4944,-123.7336 108.8303,-126.4373"/>
<polygon fill="#191970" stroke="#191970" points="196.4272,-93.4721 203.5528,-85.6314 193.0929,-87.3172 196.4272,-93.4721"/>
</g>
<!-- Node41 -->
<g id="node3" class="node">
<title>Node41</title>
<g id="a_node3"><a xlink:href="classAngle.html#a50309ff78d5ce30e24c967c5684bad3b" target="_top" xlink:title=" ">
<polygon fill="#ffffff" stroke="#000000" points="3,-88.5 3,-107.5 135,-107.5 135,-88.5 3,-88.5"/>
<text text-anchor="middle" x="69" y="-95.5" font-family="Helvetica,sans-Serif" font-size="10.00" fill="#000000">Angle&lt; 360 &gt;::distance</text>
</a>
</g>
</g>
<!-- Node39&#45;&gt;Node41 -->
<g id="edge2" class="edge">
<title>Node39&#45;&gt;Node41</title>
<path fill="none" stroke="#191970" d="M163.672,-84.2523C154.1474,-85.6354 144.1963,-87.0804 134.4753,-88.492"/>
<polygon fill="#191970" stroke="#191970" points="164.4156,-87.6811 173.8088,-82.7802 163.4096,-80.7537 164.4156,-87.6811"/>
</g>
<!-- Node42 -->
<g id="node4" class="node">
<title>Node42</title>
<g id="a_node4"><a xlink:href="classGridFinder.html#afcc1eed83ee0292966c3c80883069634" target="_top" xlink:title="Similar to findLineAngle, but is more accurate, because it uses the average of the range of angles wi...">
<polygon fill="#ffffff" stroke="#000000" points="0,-39 0,-69 138,-69 138,-39 0,-39"/>
<text text-anchor="start" x="8" y="-57" font-family="Helvetica,sans-Serif" font-size="10.00" fill="#000000">GridFinder::findLineAngle</text>
<text text-anchor="middle" x="69" y="-46" font-family="Helvetica,sans-Serif" font-size="10.00" fill="#000000">AccurateRange</text>
</a>
</g>
</g>
<!-- Node39&#45;&gt;Node42 -->
<g id="edge3" class="edge">
<title>Node39&#45;&gt;Node42</title>
<path fill="none" stroke="#191970" d="M163.7825,-67.7638C155.403,-66.547 146.6913,-65.2819 138.0947,-64.0336"/>
<polygon fill="#191970" stroke="#191970" points="163.4096,-71.2463 173.8088,-69.2198 164.4156,-64.3189 163.4096,-71.2463"/>
</g>
<!-- Node43 -->
<g id="node5" class="node">
<title>Node43</title>
<g id="a_node5"><a xlink:href="structSquare.html#a12c1f0ee0bd30021a5a7d7344538fef9" target="_top" xlink:title="Get the average angle of the sides of the square .">
<polygon fill="#ffffff" stroke="#000000" points="19,-.5 19,-19.5 119,-19.5 119,-.5 19,-.5"/>
<text text-anchor="middle" x="69" y="-7.5" font-family="Helvetica,sans-Serif" font-size="10.00" fill="#000000">Square::getAngle</text>
</a>
</g>
</g>
<!-- Node39&#45;&gt;Node43 -->
<g id="edge4" class="edge">
<title>Node39&#45;&gt;Node43</title>
<path fill="none" stroke="#191970" d="M197.0666,-61.0513C180.9331,-51.236 158.7474,-38.6591 138,-30 128.4467,-26.0128 117.835,-22.5087 107.8554,-19.5936"/>
<polygon fill="#191970" stroke="#191970" points="195.4643,-64.1756 205.8098,-66.4607 199.1473,-58.2229 195.4643,-64.1756"/>
</g>
</g>
</svg>
