<?xml version="1.0" encoding="UTF-8" standalone="no"?>
<!DOCTYPE svg PUBLIC "-//W3C//DTD SVG 1.1//EN"
 "http://www.w3.org/Graphics/SVG/1.1/DTD/svg11.dtd">
<!-- Generated by graphviz version 2.40.1 (20161225.0304)
 -->
<!-- Title: BitString::getLength Pages: 1 -->
<svg width="506pt" height="218pt"
 viewBox="0.00 0.00 506.00 218.00" xmlns="http://www.w3.org/2000/svg" xmlns:xlink="http://www.w3.org/1999/xlink">
<g id="graph0" class="graph" transform="scale(1 1) rotate(0) translate(4 214)">
<title>BitString::getLength</title>
<polygon fill="#ffffff" stroke="transparent" points="-4,4 -4,-214 502,-214 502,4 -4,4"/>
<!-- Node29 -->
<g id="node1" class="node">
<title>Node29</title>
<g id="a_node1"><a xlink:title=" ">
<polygon fill="#bfbfbf" stroke="#000000" points="385,-95.5 385,-114.5 498,-114.5 498,-95.5 385,-95.5"/>
<text text-anchor="middle" x="441.5" y="-102.5" font-family="Helvetica,sans-Serif" font-size="10.00" fill="#000000">BitString::getLength</text>
</a>
</g>
</g>
<!-- Node30 -->
<g id="node2" class="node">
<title>Node30</title>
<g id="a_node2"><a xlink:href="classBitString.html#a6fd895d69b6e106bfb073e0c28dab614" target="_top" xlink:title=" ">
<polygon fill="#ffffff" stroke="#000000" points="191,-190.5 191,-209.5 349,-209.5 349,-190.5 191,-190.5"/>
<text text-anchor="middle" x="270" y="-197.5" font-family="Helvetica,sans-Serif" font-size="10.00" fill="#000000">BitString::toCryptoInstruction</text>
</a>
</g>
</g>
<!-- Node29&#45;&gt;Node30 -->
<g id="edge1" class="edge">
<title>Node29&#45;&gt;Node30</title>
<path fill="none" stroke="#191970" d="M425.7643,-121.8149C408.5469,-139.2089 379.3339,-165.8991 349,-181 341.2969,-184.8348 332.7793,-187.9209 324.2728,-190.3973"/>
<polygon fill="#191970" stroke="#191970" points="428.3533,-124.1725 432.7919,-114.5522 423.3228,-119.3049 428.3533,-124.1725"/>
</g>
<!-- Node32 -->
<g id="node4" class="node">
<title>Node32</title>
<g id="a_node4"><a xlink:href="keccak_8hpp.html#ad2ec31efd2cbbecc017d9c4e61b379f7" target="_top" xlink:title=" ">
<polygon fill="#ffffff" stroke="#000000" points="244.5,-152.5 244.5,-171.5 295.5,-171.5 295.5,-152.5 244.5,-152.5"/>
<text text-anchor="middle" x="270" y="-159.5" font-family="Helvetica,sans-Serif" font-size="10.00" fill="#000000">keccak</text>
</a>
</g>
</g>
<!-- Node29&#45;&gt;Node32 -->
<g id="edge3" class="edge">
<title>Node29&#45;&gt;Node32</title>
<path fill="none" stroke="#191970" d="M411.5637,-118.6702C393.6638,-126.4968 370.3241,-136.1009 349,-143 331.418,-148.6884 311.1434,-153.5304 295.5359,-156.9026"/>
<polygon fill="#191970" stroke="#191970" points="413.176,-121.7841 420.9011,-114.5334 410.3405,-115.384 413.176,-121.7841"/>
</g>
<!-- Node34 -->
<g id="node6" class="node">
<title>Node34</title>
<g id="a_node6"><a xlink:href="classKetje.html#a2aaeeaf71dcf9d83d7c8694154a02117" target="_top" xlink:title=" ">
<polygon fill="#ffffff" stroke="#000000" points="225.5,-114.5 225.5,-133.5 314.5,-133.5 314.5,-114.5 225.5,-114.5"/>
<text text-anchor="middle" x="270" y="-121.5" font-family="Helvetica,sans-Serif" font-size="10.00" fill="#000000">Ketje::initialize</text>
</a>
</g>
</g>
<!-- Node29&#45;&gt;Node34 -->
<g id="edge5" class="edge">
<title>Node29&#45;&gt;Node34</title>
<path fill="none" stroke="#191970" d="M374.7972,-112.3898C354.6298,-114.6241 332.982,-117.0224 314.6276,-119.0558"/>
<polygon fill="#191970" stroke="#191970" points="375.3154,-115.8539 384.8692,-111.274 374.5446,-108.8965 375.3154,-115.8539"/>
</g>
<!-- Node36 -->
<g id="node8" class="node">
<title>Node36</title>
<g id="a_node8"><a xlink:href="classKetje.html#ac4e54ac3a43763223844c3e315012362" target="_top" xlink:title=" ">
<polygon fill="#ffffff" stroke="#000000" points="228.5,-76.5 228.5,-95.5 311.5,-95.5 311.5,-76.5 228.5,-76.5"/>
<text text-anchor="middle" x="270" y="-83.5" font-family="Helvetica,sans-Serif" font-size="10.00" fill="#000000">Ketje::unwrap</text>
</a>
</g>
</g>
<!-- Node29&#45;&gt;Node36 -->
<g id="edge7" class="edge">
<title>Node29&#45;&gt;Node36</title>
<path fill="none" stroke="#191970" d="M374.8951,-97.621C353.592,-95.2609 330.6275,-92.7168 311.6325,-90.6123"/>
<polygon fill="#191970" stroke="#191970" points="374.5446,-101.1035 384.8692,-98.726 375.3154,-94.1461 374.5446,-101.1035"/>
</g>
<!-- Node37 -->
<g id="node9" class="node">
<title>Node37</title>
<g id="a_node9"><a xlink:href="classSWImplementation.html#ad665af8b510aeae4edde309d984ad5d0" target="_top" xlink:title=" ">
<polygon fill="#ffffff" stroke="#000000" points="200,-38.5 200,-57.5 340,-57.5 340,-38.5 200,-38.5"/>
<text text-anchor="middle" x="270" y="-45.5" font-family="Helvetica,sans-Serif" font-size="10.00" fill="#000000">SWImplementation::hash</text>
</a>
</g>
</g>
<!-- Node29&#45;&gt;Node37 -->
<g id="edge9" class="edge">
<title>Node29&#45;&gt;Node37</title>
<path fill="none" stroke="#191970" d="M411.5637,-91.3298C393.6638,-83.5032 370.3241,-73.8991 349,-67 338.1287,-63.4827 326.2279,-60.2891 315.0376,-57.5664"/>
<polygon fill="#191970" stroke="#191970" points="410.3405,-94.616 420.9011,-95.4666 413.176,-88.2159 410.3405,-94.616"/>
</g>
<!-- Node38 -->
<g id="node10" class="node">
<title>Node38</title>
<g id="a_node10"><a xlink:href="classSWImplementation.html#ac382cf923b1138b8da5ffff141c1e80f" target="_top" xlink:title=" ">
<polygon fill="#ffffff" stroke="#000000" points="193.5,-.5 193.5,-19.5 346.5,-19.5 346.5,-.5 193.5,-.5"/>
<text text-anchor="middle" x="270" y="-7.5" font-family="Helvetica,sans-Serif" font-size="10.00" fill="#000000">SWImplementation::decrypt</text>
</a>
</g>
</g>
<!-- Node29&#45;&gt;Node38 -->
<g id="edge10" class="edge">
<title>Node29&#45;&gt;Node38</title>
<path fill="none" stroke="#191970" d="M425.7643,-88.1851C408.5469,-70.7911 379.3339,-44.1009 349,-29 341.2969,-25.1652 332.7793,-22.0791 324.2728,-19.6027"/>
<polygon fill="#191970" stroke="#191970" points="423.3228,-90.6951 432.7919,-95.4478 428.3533,-85.8275 423.3228,-90.6951"/>
</g>
<!-- Node31 -->
<g id="node3" class="node">
<title>Node31</title>
<g id="a_node3"><a xlink:href="crypto_8cpp.html#a7f69ce9864a092ee96aa3b9a299e6074" target="_top" xlink:title="Decrypt the given QR code without retries.">
<polygon fill="#ffffff" stroke="#000000" points="43.5,-190.5 43.5,-209.5 111.5,-209.5 111.5,-190.5 43.5,-190.5"/>
<text text-anchor="middle" x="77.5" y="-197.5" font-family="Helvetica,sans-Serif" font-size="10.00" fill="#000000">tryDecrypt</text>
</a>
</g>
</g>
<!-- Node30&#45;&gt;Node31 -->
<g id="edge2" class="edge">
<title>Node30&#45;&gt;Node31</title>
<path fill="none" stroke="#191970" d="M180.7803,-200C156.2458,-200 131.0989,-200 111.7617,-200"/>
<polygon fill="#191970" stroke="#191970" points="180.8696,-203.5001 190.8695,-200 180.8695,-196.5001 180.8696,-203.5001"/>
</g>
<!-- Node33 -->
<g id="node5" class="node">
<title>Node33</title>
<g id="a_node5"><a xlink:href="classHWImplementation.html#abe2799913267791c526580c8f9ae2fac" target="_top" xlink:title=" ">
<polygon fill="#ffffff" stroke="#000000" points="7,-152.5 7,-171.5 148,-171.5 148,-152.5 7,-152.5"/>
<text text-anchor="middle" x="77.5" y="-159.5" font-family="Helvetica,sans-Serif" font-size="10.00" fill="#000000">HWImplementation::hash</text>
</a>
</g>
</g>
<!-- Node32&#45;&gt;Node33 -->
<g id="edge4" class="edge">
<title>Node32&#45;&gt;Node33</title>
<path fill="none" stroke="#191970" d="M234.3029,-162C210.1152,-162 177.3363,-162 148.0016,-162"/>
<polygon fill="#191970" stroke="#191970" points="234.4375,-165.5001 244.4375,-162 234.4375,-158.5001 234.4375,-165.5001"/>
</g>
<!-- Node35 -->
<g id="node7" class="node">
<title>Node35</title>
<g id="a_node7"><a xlink:href="classHWImplementation.html#a9725062c33ebdc296909f65aa22edbca" target="_top" xlink:title=" ">
<polygon fill="#ffffff" stroke="#000000" points="0,-95.5 0,-114.5 155,-114.5 155,-95.5 0,-95.5"/>
<text text-anchor="middle" x="77.5" y="-102.5" font-family="Helvetica,sans-Serif" font-size="10.00" fill="#000000">HWImplementation::decrypt</text>
</a>
</g>
</g>
<!-- Node34&#45;&gt;Node35 -->
<g id="edge6" class="edge">
<title>Node34&#45;&gt;Node35</title>
<path fill="none" stroke="#191970" d="M215.2517,-118.5963C196.5482,-116.7502 175.2588,-114.6489 155.1036,-112.6596"/>
<polygon fill="#191970" stroke="#191970" points="215.0573,-122.094 225.3528,-119.5933 215.745,-115.1279 215.0573,-122.094"/>
</g>
<!-- Node36&#45;&gt;Node35 -->
<g id="edge8" class="edge">
<title>Node36&#45;&gt;Node35</title>
<path fill="none" stroke="#191970" d="M218.1306,-91.1196C198.8028,-93.0273 176.4183,-95.2366 155.2704,-97.324"/>
<polygon fill="#191970" stroke="#191970" points="218.6225,-94.5881 228.2304,-90.1227 217.9349,-87.622 218.6225,-94.5881"/>
</g>
</g>
</svg>
