<?xml version="1.0" encoding="UTF-8" standalone="no"?>
<!DOCTYPE svg PUBLIC "-//W3C//DTD SVG 1.1//EN"
 "http://www.w3.org/Graphics/SVG/1.1/DTD/svg11.dtd">
<!-- Generated by graphviz version 2.40.1 (20161225.0304)
 -->
<!-- Title: GridFinder::height Pages: 1 -->
<svg width="1178pt" height="443pt"
 viewBox="0.00 0.00 1178.00 443.00" xmlns="http://www.w3.org/2000/svg" xmlns:xlink="http://www.w3.org/1999/xlink">
<g id="graph0" class="graph" transform="scale(1 1) rotate(0) translate(4 439)">
<title>GridFinder::height</title>
<polygon fill="#ffffff" stroke="transparent" points="-4,4 -4,-439 1174,-439 1174,4 -4,4"/>
<!-- Node314 -->
<g id="node1" class="node">
<title>Node314</title>
<g id="a_node1"><a xlink:title="Get the height of the frame.">
<polygon fill="#bfbfbf" stroke="#000000" points="1067,-145 1067,-164 1170,-164 1170,-145 1067,-145"/>
<text text-anchor="middle" x="1118.5" y="-152" font-family="Helvetica,sans-Serif" font-size="10.00" fill="#000000">GridFinder::height</text>
</a>
</g>
</g>
<!-- Node315 -->
<g id="node2" class="node">
<title>Node315</title>
<g id="a_node2"><a xlink:href="classGridFinder.html#ace2c24a54244e7e92618d3fe7ec62fdc" target="_top" xlink:title="Starting from the given pixel, move in the direction of the given angle, and count the number of whit...">
<polygon fill="#ffffff" stroke="#000000" points="904,-344 904,-363 1006,-363 1006,-344 904,-344"/>
<text text-anchor="middle" x="955" y="-351" font-family="Helvetica,sans-Serif" font-size="10.00" fill="#000000">GridFinder::hough</text>
</a>
</g>
</g>
<!-- Node314&#45;&gt;Node315 -->
<g id="edge1" class="edge">
<title>Node314&#45;&gt;Node315</title>
<path fill="none" stroke="#191970" d="M1107.4762,-172.6985C1091.8273,-197.9516 1061.6524,-244.567 1031,-280.5 1009.984,-305.1364 981.698,-330.6024 966.2415,-343.9736"/>
<polygon fill="#191970" stroke="#191970" points="1110.4854,-174.4864 1112.7332,-164.1327 1104.5194,-170.8248 1110.4854,-174.4864"/>
</g>
<!-- Node320 -->
<g id="node7" class="node">
<title>Node320</title>
<g id="a_node7"><a xlink:href="classGridFinder.html#ab5c436911deb269a22a8d5525271fa4e" target="_top" xlink:title="Get the width of the line at a given point.">
<polygon fill="#ffffff" stroke="#000000" points="879,-202.5 879,-232.5 1031,-232.5 1031,-202.5 879,-202.5"/>
<text text-anchor="start" x="887" y="-220.5" font-family="Helvetica,sans-Serif" font-size="10.00" fill="#000000">GridFinder::getWidthAtPoint</text>
<text text-anchor="middle" x="955" y="-209.5" font-family="Helvetica,sans-Serif" font-size="10.00" fill="#000000">OnLine</text>
</a>
</g>
</g>
<!-- Node314&#45;&gt;Node320 -->
<g id="edge6" class="edge">
<title>Node314&#45;&gt;Node320</title>
<path fill="none" stroke="#191970" d="M1084.1137,-167.7498C1057.8059,-177.8867 1021.5083,-191.8729 994.0974,-202.435"/>
<polygon fill="#191970" stroke="#191970" points="1085.5951,-170.9299 1093.6679,-164.0683 1083.0782,-164.398 1085.5951,-170.9299"/>
</g>
<!-- Node324 -->
<g id="node11" class="node">
<title>Node324</title>
<g id="a_node11"><a xlink:href="classGridFinder.html#a54369e6368334eb2924ca70ee1f1d438" target="_top" xlink:title="Follow the given line to find the line perpendicular to it. Move along the line for minDistance pixel...">
<polygon fill="#ffffff" stroke="#000000" points="356,-183 356,-202 490,-202 490,-183 356,-183"/>
<text text-anchor="middle" x="423" y="-190" font-family="Helvetica,sans-Serif" font-size="10.00" fill="#000000">GridFinder::findNextLine</text>
</a>
</g>
</g>
<!-- Node314&#45;&gt;Node324 -->
<g id="edge25" class="edge">
<title>Node314&#45;&gt;Node324</title>
<path fill="none" stroke="#191970" d="M1056.6567,-158.056C1048.0398,-158.545 1039.2987,-159.0377 1031,-159.5 834.4182,-170.4515 602.0559,-182.935 490.0299,-188.9246"/>
<polygon fill="#191970" stroke="#191970" points="1056.8961,-161.5481 1066.6811,-157.4856 1056.4984,-154.5594 1056.8961,-161.5481"/>
</g>
<!-- Node328 -->
<g id="node15" class="node">
<title>Node328</title>
<g id="a_node15"><a xlink:href="classGridFinder.html#a671392ebb7c1324bd9a4e8d321475619" target="_top" xlink:title="Print the mask as &quot;pixels&quot; to the given output stream.">
<polygon fill="#ffffff" stroke="#000000" points="907.5,-88 907.5,-107 1002.5,-107 1002.5,-88 907.5,-88"/>
<text text-anchor="middle" x="955" y="-95" font-family="Helvetica,sans-Serif" font-size="10.00" fill="#000000">GridFinder::print</text>
</a>
</g>
</g>
<!-- Node314&#45;&gt;Node328 -->
<g id="edge15" class="edge">
<title>Node314&#45;&gt;Node328</title>
<path fill="none" stroke="#191970" d="M1084.5572,-141.2041C1068.4099,-135.0061 1048.7873,-127.6575 1031,-121.5 1016.4863,-116.4757 1000.2704,-111.2963 986.5571,-107.041"/>
<polygon fill="#191970" stroke="#191970" points="1083.5252,-144.5573 1094.1147,-144.8935 1086.0461,-138.027 1083.5252,-144.5573"/>
</g>
<!-- Node329 -->
<g id="node16" class="node">
<title>Node329</title>
<g id="a_node16"><a xlink:href="classGridFinder.html#a0cb4d1d344f4830de77ecf1615878656" target="_top" xlink:title="Draw a line on the mask. Used only for testing.">
<polygon fill="#ffffff" stroke="#000000" points="897,-50 897,-69 1013,-69 1013,-50 897,-50"/>
<text text-anchor="middle" x="955" y="-57" font-family="Helvetica,sans-Serif" font-size="10.00" fill="#000000">GridFinder::drawLine</text>
</a>
</g>
</g>
<!-- Node314&#45;&gt;Node329 -->
<g id="edge16" class="edge">
<title>Node314&#45;&gt;Node329</title>
<path fill="none" stroke="#191970" d="M1103.3343,-137.2327C1087.1236,-119.8473 1059.8334,-93.5138 1031,-78.5 1023.6415,-74.6684 1015.4747,-71.584 1007.3025,-69.1082"/>
<polygon fill="#191970" stroke="#191970" points="1101.0434,-139.9158 1110.3605,-144.9598 1106.2225,-135.2065 1101.0434,-139.9158"/>
</g>
<!-- Node331 -->
<g id="node18" class="node">
<title>Node331</title>
<g id="a_node18"><a xlink:href="classGridFinder.html#af8bdc28d95e295618c2f345f2d7eb758" target="_top" xlink:title="Move a pixel in a given direction for a given distance.">
<polygon fill="#ffffff" stroke="#000000" points="905,-252 905,-271 1005,-271 1005,-252 905,-252"/>
<text text-anchor="middle" x="955" y="-259" font-family="Helvetica,sans-Serif" font-size="10.00" fill="#000000">GridFinder::move</text>
</a>
</g>
</g>
<!-- Node314&#45;&gt;Node331 -->
<g id="edge18" class="edge">
<title>Node314&#45;&gt;Node331</title>
<path fill="none" stroke="#191970" d="M1105.78,-172.1653C1090.36,-192.2637 1062.4943,-224.6089 1031,-242.5 1023.0768,-247.0009 1014.0952,-250.4473 1005.1519,-253.0829"/>
<polygon fill="#191970" stroke="#191970" points="1108.599,-174.2399 1111.7795,-164.1337 1102.9908,-170.0507 1108.599,-174.2399"/>
</g>
<!-- Node332 -->
<g id="node19" class="node">
<title>Node332</title>
<g id="a_node19"><a xlink:href="classGridFinder.html#ace2a9cb90cc19a295d0fbe934a79b7e0" target="_top" xlink:title="Get the center pixel of the frame.">
<polygon fill="#ffffff" stroke="#000000" points="371.5,-131 371.5,-150 474.5,-150 474.5,-131 371.5,-131"/>
<text text-anchor="middle" x="423" y="-138" font-family="Helvetica,sans-Serif" font-size="10.00" fill="#000000">GridFinder::center</text>
</a>
</g>
</g>
<!-- Node314&#45;&gt;Node332 -->
<g id="edge22" class="edge">
<title>Node314&#45;&gt;Node332</title>
<path fill="none" stroke="#191970" d="M1056.582,-153.2536C921.022,-150.5249 600.0803,-144.0645 474.5751,-141.5382"/>
<polygon fill="#191970" stroke="#191970" points="1056.7242,-156.7571 1066.7927,-153.4592 1056.8652,-149.7585 1056.7242,-156.7571"/>
</g>
<!-- Node333 -->
<g id="node20" class="node">
<title>Node333</title>
<g id="a_node20"><a xlink:href="classGridFinder.html#ae84004386cbee9606f9a46872cb67be8" target="_top" xlink:title="Find the vertical range of white pixels closest to the center of the given column,...">
<polygon fill="#ffffff" stroke="#000000" points="891,-.5 891,-30.5 1019,-30.5 1019,-.5 891,-.5"/>
<text text-anchor="start" x="899" y="-18.5" font-family="Helvetica,sans-Serif" font-size="10.00" fill="#000000">GridFinder::getFirstLine</text>
<text text-anchor="middle" x="955" y="-7.5" font-family="Helvetica,sans-Serif" font-size="10.00" fill="#000000">Estimate</text>
</a>
</g>
</g>
<!-- Node314&#45;&gt;Node333 -->
<g id="edge24" class="edge">
<title>Node314&#45;&gt;Node333</title>
<path fill="none" stroke="#191970" d="M1109.0395,-136.1206C1095.2,-110.9912 1067.1093,-66.1144 1031,-40.5 1025.562,-36.6425 1019.4914,-33.3527 1013.2166,-30.5533"/>
<polygon fill="#191970" stroke="#191970" points="1105.9815,-137.8242 1113.7829,-144.9928 1112.1546,-134.5238 1105.9815,-137.8242"/>
</g>
<!-- Node316 -->
<g id="node3" class="node">
<title>Node316</title>
<g id="a_node3"><a xlink:href="classGridFinder.html#a04e1362c95151ac77477844a952af0f9" target="_top" xlink:title="Scan 360° around a given pixel, and find the angle with the most white pixels. This version is not ve...">
<polygon fill="#ffffff" stroke="#000000" points="528.5,-347 528.5,-366 666.5,-366 666.5,-347 528.5,-347"/>
<text text-anchor="middle" x="597.5" y="-354" font-family="Helvetica,sans-Serif" font-size="10.00" fill="#000000">GridFinder::findLineAngle</text>
</a>
</g>
</g>
<!-- Node315&#45;&gt;Node316 -->
<g id="edge2" class="edge">
<title>Node315&#45;&gt;Node316</title>
<path fill="none" stroke="#191970" d="M893.9035,-355.4329C877.3841,-355.8746 859.5094,-356.2789 843,-356.5 783.4418,-357.2975 715.7488,-357.2243 666.5512,-356.9934"/>
<polygon fill="#191970" stroke="#191970" points="894.0902,-358.9292 903.9898,-355.1544 893.8969,-351.9319 894.0902,-358.9292"/>
</g>
<!-- Node318 -->
<g id="node5" class="node">
<title>Node318</title>
<g id="a_node5"><a xlink:href="classGridFinder.html#af44b4862dc3f8c725e8ea3739b33c2e6" target="_top" xlink:title=" ">
<polygon fill="#ffffff" stroke="#000000" points="705,-316.5 705,-346.5 843,-346.5 843,-316.5 705,-316.5"/>
<text text-anchor="start" x="713" y="-334.5" font-family="Helvetica,sans-Serif" font-size="10.00" fill="#000000">GridFinder::findLineAngle</text>
<text text-anchor="middle" x="774" y="-323.5" font-family="Helvetica,sans-Serif" font-size="10.00" fill="#000000">Accurate</text>
</a>
</g>
</g>
<!-- Node315&#45;&gt;Node318 -->
<g id="edge4" class="edge">
<title>Node315&#45;&gt;Node318</title>
<path fill="none" stroke="#191970" d="M893.23,-345.992C877.0881,-344.03 859.5857,-341.9027 843.09,-339.8977"/>
<polygon fill="#191970" stroke="#191970" points="893.2675,-349.5223 903.6168,-347.2545 894.1122,-342.5734 893.2675,-349.5223"/>
</g>
<!-- Node319 -->
<g id="node6" class="node">
<title>Node319</title>
<g id="a_node6"><a xlink:href="classGridFinder.html#afcc1eed83ee0292966c3c80883069634" target="_top" xlink:title="Similar to findLineAngle, but is more accurate, because it uses the average of the range of angles wi...">
<polygon fill="#ffffff" stroke="#000000" points="705,-404.5 705,-434.5 843,-434.5 843,-404.5 705,-404.5"/>
<text text-anchor="start" x="713" y="-422.5" font-family="Helvetica,sans-Serif" font-size="10.00" fill="#000000">GridFinder::findLineAngle</text>
<text text-anchor="middle" x="774" y="-411.5" font-family="Helvetica,sans-Serif" font-size="10.00" fill="#000000">AccurateRange</text>
</a>
</g>
</g>
<!-- Node315&#45;&gt;Node319 -->
<g id="edge5" class="edge">
<title>Node315&#45;&gt;Node319</title>
<path fill="none" stroke="#191970" d="M919.0755,-366.5995C889.2202,-377.486 846.7174,-392.9843 815.4302,-404.3929"/>
<polygon fill="#191970" stroke="#191970" points="920.4852,-369.811 928.681,-363.097 918.0871,-363.2346 920.4852,-369.811"/>
</g>
<!-- Node317 -->
<g id="node4" class="node">
<title>Node317</title>
<g id="a_node4"><a xlink:href="classGridFinder.html#aaea3af418ab7124f2b25bcc124fccaca" target="_top" xlink:title="Get an estimate of the line through a given pixel. Find an estimate of the slope, then use that to de...">
<polygon fill="#ffffff" stroke="#000000" points="359,-309.5 359,-339.5 487,-339.5 487,-309.5 359,-309.5"/>
<text text-anchor="start" x="367" y="-327.5" font-family="Helvetica,sans-Serif" font-size="10.00" fill="#000000">GridFinder::getFirstLine</text>
<text text-anchor="middle" x="423" y="-316.5" font-family="Helvetica,sans-Serif" font-size="10.00" fill="#000000">Estimate</text>
</a>
</g>
</g>
<!-- Node316&#45;&gt;Node317 -->
<g id="edge3" class="edge">
<title>Node316&#45;&gt;Node317</title>
<path fill="none" stroke="#191970" d="M535.4858,-345.1278C519.7709,-342.2459 502.8609,-339.145 487.0474,-336.2451"/>
<polygon fill="#191970" stroke="#191970" points="535.1494,-348.6244 545.6167,-346.9856 536.4121,-341.7392 535.1494,-348.6244"/>
</g>
<!-- Node321 -->
<g id="node8" class="node">
<title>Node321</title>
<g id="a_node8"><a xlink:href="classGridFinder.html#abcd46f31e256080b2d5d2aee03c0e258" target="_top" xlink:title="Find the middle of a line.">
<polygon fill="#ffffff" stroke="#000000" points="714,-202 714,-221 834,-221 834,-202 714,-202"/>
<text text-anchor="middle" x="774" y="-209" font-family="Helvetica,sans-Serif" font-size="10.00" fill="#000000">GridFinder::getMiddle</text>
</a>
</g>
</g>
<!-- Node320&#45;&gt;Node321 -->
<g id="edge7" class="edge">
<title>Node320&#45;&gt;Node321</title>
<path fill="none" stroke="#191970" d="M868.5897,-214.6356C856.9633,-214.2502 845.2466,-213.8618 834.2095,-213.4959"/>
<polygon fill="#191970" stroke="#191970" points="868.6538,-218.1395 878.7643,-214.9728 868.8858,-211.1434 868.6538,-218.1395"/>
</g>
<!-- Node322 -->
<g id="node9" class="node">
<title>Node322</title>
<g id="a_node9"><a xlink:href="classGridFinder.html#af830abf29ca6dc9c01197a38fe16e1e5" target="_top" xlink:title="In exceptional cases, we might want to find the middle of a line in a point that happens to lie at th...">
<polygon fill="#ffffff" stroke="#000000" points="526,-278.5 526,-308.5 669,-308.5 669,-278.5 526,-278.5"/>
<text text-anchor="start" x="534" y="-296.5" font-family="Helvetica,sans-Serif" font-size="10.00" fill="#000000">GridFinder::getMiddleWith</text>
<text text-anchor="middle" x="597.5" y="-285.5" font-family="Helvetica,sans-Serif" font-size="10.00" fill="#000000">Retries</text>
</a>
</g>
</g>
<!-- Node321&#45;&gt;Node322 -->
<g id="edge8" class="edge">
<title>Node321&#45;&gt;Node322</title>
<path fill="none" stroke="#191970" d="M744.2004,-225.3446C712.5157,-240.0649 662.5651,-263.2714 629.9162,-278.4398"/>
<polygon fill="#191970" stroke="#191970" points="745.8134,-228.4545 753.4078,-221.0669 742.864,-222.1062 745.8134,-228.4545"/>
</g>
<!-- Node323 -->
<g id="node10" class="node">
<title>Node323</title>
<g id="a_node10"><a xlink:href="classGridFinder.html#ae12ca7921b02b37417d87fc737f0134d" target="_top" xlink:title="Check if there could be a valid line going through the given point, and if so, find and return the ac...">
<polygon fill="#ffffff" stroke="#000000" points="537,-202 537,-221 658,-221 658,-202 537,-202"/>
<text text-anchor="middle" x="597.5" y="-209" font-family="Helvetica,sans-Serif" font-size="10.00" fill="#000000">GridFinder::checkLine</text>
</a>
</g>
</g>
<!-- Node321&#45;&gt;Node323 -->
<g id="edge10" class="edge">
<title>Node321&#45;&gt;Node323</title>
<path fill="none" stroke="#191970" d="M703.4814,-211.5C688.4475,-211.5 672.6975,-211.5 658.0754,-211.5"/>
<polygon fill="#191970" stroke="#191970" points="703.7524,-215.0001 713.7524,-211.5 703.7523,-208.0001 703.7524,-215.0001"/>
</g>
<!-- Node322&#45;&gt;Node317 -->
<g id="edge9" class="edge">
<title>Node322&#45;&gt;Node317</title>
<path fill="none" stroke="#191970" d="M515.8089,-308.0125C506.2012,-309.7193 496.5033,-311.4421 487.1837,-313.0977"/>
<polygon fill="#191970" stroke="#191970" points="516.5351,-311.4383 525.7688,-306.2431 515.3107,-304.5462 516.5351,-311.4383"/>
</g>
<!-- Node323&#45;&gt;Node324 -->
<g id="edge11" class="edge">
<title>Node323&#45;&gt;Node324</title>
<path fill="none" stroke="#191970" d="M526.9271,-203.8159C514.8358,-202.4993 502.3005,-201.1344 490.2976,-199.8275"/>
<polygon fill="#191970" stroke="#191970" points="526.638,-207.305 536.9581,-204.908 527.3957,-200.3461 526.638,-207.305"/>
</g>
<!-- Node325 -->
<g id="node12" class="node">
<title>Node325</title>
<g id="a_node12"><a xlink:href="classGridFinder.html#a3edbd3ffbcfe6d373fbaf576e4dca51b" target="_top" xlink:title="Equivalent to #findNextLine(LineResult,bool,uint,uint) but also supports optional LineResults.">
<polygon fill="#ffffff" stroke="#000000" points="186,-183 186,-202 320,-202 320,-183 186,-183"/>
<text text-anchor="middle" x="253" y="-190" font-family="Helvetica,sans-Serif" font-size="10.00" fill="#000000">GridFinder::findNextLine</text>
</a>
</g>
</g>
<!-- Node324&#45;&gt;Node325 -->
<g id="edge12" class="edge">
<title>Node324&#45;&gt;Node325</title>
<path fill="none" stroke="#191970" d="M345.5754,-192.5C337.1241,-192.5 328.5721,-192.5 320.2572,-192.5"/>
<polygon fill="#191970" stroke="#191970" points="345.8115,-196.0001 355.8115,-192.5 345.8115,-189.0001 345.8115,-196.0001"/>
</g>
<!-- Node326 -->
<g id="node13" class="node">
<title>Node326</title>
<g id="a_node13"><a xlink:href="classGridFinder.html#a8940ca681fac78274043cf5f1f1f5761" target="_top" xlink:title="This is the main function: it looks for a complete square of the grid, as close to the center of the ...">
<polygon fill="#ffffff" stroke="#000000" points="191,-140 191,-159 315,-159 315,-140 191,-140"/>
<text text-anchor="middle" x="253" y="-147" font-family="Helvetica,sans-Serif" font-size="10.00" fill="#000000">GridFinder::findSquare</text>
</a>
</g>
</g>
<!-- Node324&#45;&gt;Node326 -->
<g id="edge13" class="edge">
<title>Node324&#45;&gt;Node326</title>
<path fill="none" stroke="#191970" d="M375.3359,-180.4438C348.5461,-173.6675 315.5811,-165.3293 290.623,-159.0164"/>
<polygon fill="#191970" stroke="#191970" points="374.7185,-183.8978 385.2715,-182.9569 376.4351,-177.1115 374.7185,-183.8978"/>
</g>
<!-- Node327 -->
<g id="node14" class="node">
<title>Node327</title>
<g id="a_node14"><a xlink:href="classLocationFinder.html#a398bb42565e1e2a499471765f569bc40" target="_top" xlink:title=" ">
<polygon fill="#ffffff" stroke="#000000" points="0,-140 0,-159 150,-159 150,-140 0,-140"/>
<text text-anchor="middle" x="75" y="-147" font-family="Helvetica,sans-Serif" font-size="10.00" fill="#000000">LocationFinder::getLocation</text>
</a>
</g>
</g>
<!-- Node326&#45;&gt;Node327 -->
<g id="edge14" class="edge">
<title>Node326&#45;&gt;Node327</title>
<path fill="none" stroke="#191970" d="M180.4379,-149.5C170.4268,-149.5 160.1282,-149.5 150.0729,-149.5"/>
<polygon fill="#191970" stroke="#191970" points="180.7443,-153.0001 190.7442,-149.5 180.7442,-146.0001 180.7443,-153.0001"/>
</g>
<!-- Node330 -->
<g id="node17" class="node">
<title>Node330</title>
<g id="a_node17"><a xlink:href="classGridFinder.html#a38cc6124693e5f533e1598587272f92a" target="_top" xlink:title="Draw a line on the mask. Used only for testing.">
<polygon fill="#ffffff" stroke="#000000" points="716,-50 716,-69 832,-69 832,-50 716,-50"/>
<text text-anchor="middle" x="774" y="-57" font-family="Helvetica,sans-Serif" font-size="10.00" fill="#000000">GridFinder::drawLine</text>
</a>
</g>
</g>
<!-- Node329&#45;&gt;Node330 -->
<g id="edge17" class="edge">
<title>Node329&#45;&gt;Node330</title>
<path fill="none" stroke="#191970" d="M886.6261,-59.5C868.6848,-59.5 849.5076,-59.5 832.1567,-59.5"/>
<polygon fill="#191970" stroke="#191970" points="886.7342,-63.0001 896.7342,-59.5 886.7341,-56.0001 886.7342,-63.0001"/>
</g>
<!-- Node331&#45;&gt;Node321 -->
<g id="edge19" class="edge">
<title>Node331&#45;&gt;Node321</title>
<path fill="none" stroke="#191970" d="M905.6136,-249.4743C896.7364,-247.2215 887.5806,-244.8381 879,-242.5 854.0598,-235.704 825.9847,-227.3798 805.1444,-221.069"/>
<polygon fill="#191970" stroke="#191970" points="904.9208,-252.909 915.4724,-251.9531 906.6277,-246.1203 904.9208,-252.909"/>
</g>
<!-- Node331&#45;&gt;Node322 -->
<g id="edge20" class="edge">
<title>Node331&#45;&gt;Node322</title>
<path fill="none" stroke="#191970" d="M894.8535,-266.8837C832.5945,-272.4566 735.3528,-281.1607 669.1534,-287.0863"/>
<polygon fill="#191970" stroke="#191970" points="895.2666,-270.3609 904.9147,-265.9832 894.6425,-263.3887 895.2666,-270.3609"/>
</g>
<!-- Node331&#45;&gt;Node324 -->
<g id="edge21" class="edge">
<title>Node331&#45;&gt;Node324</title>
<path fill="none" stroke="#191970" d="M894.7218,-262.4398C811.0136,-262.552 655.2732,-258.4306 526,-230.5 496.5643,-224.1401 464.2285,-211.1558 443.785,-202.1466"/>
<polygon fill="#191970" stroke="#191970" points="894.8251,-265.9396 904.8129,-262.4051 894.8009,-258.9396 894.8251,-265.9396"/>
</g>
<!-- Node332&#45;&gt;Node326 -->
<g id="edge23" class="edge">
<title>Node332&#45;&gt;Node326</title>
<path fill="none" stroke="#191970" d="M360.916,-143.7868C345.9764,-144.5777 330.016,-145.4227 315.0767,-146.2136"/>
<polygon fill="#191970" stroke="#191970" points="361.2697,-147.2731 371.0707,-143.2492 360.8996,-140.2829 361.2697,-147.2731"/>
</g>
</g>
</svg>
