<?xml version="1.0" encoding="UTF-8" standalone="no"?>
<!DOCTYPE svg PUBLIC "-//W3C//DTD SVG 1.1//EN"
 "http://www.w3.org/Graphics/SVG/1.1/DTD/svg11.dtd">
<!-- Generated by graphviz version 2.40.1 (20161225.0304)
 -->
<!-- Title: CryptoInstruction::getInstructionType Pages: 1 -->
<svg width="472pt" height="176pt"
 viewBox="0.00 0.00 472.00 176.00" xmlns="http://www.w3.org/2000/svg" xmlns:xlink="http://www.w3.org/1999/xlink">
<g id="graph0" class="graph" transform="scale(1 1) rotate(0) translate(4 172)">
<title>CryptoInstruction::getInstructionType</title>
<polygon fill="#ffffff" stroke="transparent" points="-4,4 -4,-172 468,-172 468,4 -4,4"/>
<!-- Node7 -->
<g id="node1" class="node">
<title>Node7</title>
<g id="a_node1"><a xlink:title=" ">
<polygon fill="#bfbfbf" stroke="#000000" points="357,-71.5 357,-101.5 464,-101.5 464,-71.5 357,-71.5"/>
<text text-anchor="start" x="365" y="-89.5" font-family="Helvetica,sans-Serif" font-size="10.00" fill="#000000">CryptoInstruction::</text>
<text text-anchor="middle" x="410.5" y="-78.5" font-family="Helvetica,sans-Serif" font-size="10.00" fill="#000000">getInstructionType</text>
</a>
</g>
</g>
<!-- Node8 -->
<g id="node2" class="node">
<title>Node8</title>
<g id="a_node2"><a xlink:href="classCryptoInstruction.html#ae110f8e98709f4a2e46e0fe2ba852be4" target="_top" xlink:title=" ">
<polygon fill="#ffffff" stroke="#000000" points="214,-137.5 214,-167.5 321,-167.5 321,-137.5 214,-137.5"/>
<text text-anchor="start" x="222" y="-155.5" font-family="Helvetica,sans-Serif" font-size="10.00" fill="#000000">CryptoInstruction::</text>
<text text-anchor="middle" x="267.5" y="-144.5" font-family="Helvetica,sans-Serif" font-size="10.00" fill="#000000">getXCoordinate</text>
</a>
</g>
</g>
<!-- Node7&#45;&gt;Node8 -->
<g id="edge1" class="edge">
<title>Node7&#45;&gt;Node8</title>
<path fill="none" stroke="#191970" d="M368.3445,-105.9564C346.5608,-116.0104 320.3802,-128.0937 300.1544,-137.4287"/>
<polygon fill="#191970" stroke="#191970" points="370.08,-109.0102 377.6929,-101.6417 367.1466,-102.6545 370.08,-109.0102"/>
</g>
<!-- Node9 -->
<g id="node3" class="node">
<title>Node9</title>
<g id="a_node3"><a xlink:href="classQRCryptoManager.html#adce85dbb0a3457d79025813c2dea59df" target="_top" xlink:title=" ">
<polygon fill="#ffffff" stroke="#000000" points="0,-77 0,-96 178,-96 178,-77 0,-77"/>
<text text-anchor="middle" x="89" y="-84" font-family="Helvetica,sans-Serif" font-size="10.00" fill="#000000">QRCryptoManager::decodeCrypto</text>
</a>
</g>
</g>
<!-- Node7&#45;&gt;Node9 -->
<g id="edge7" class="edge">
<title>Node7&#45;&gt;Node9</title>
<path fill="none" stroke="#191970" d="M346.5524,-88.9045C337.9635,-89.151 329.2679,-89.3615 321,-89.5 273.4511,-90.2967 261.5521,-90.0705 214,-89.5 202.3872,-89.3607 190.169,-89.1485 178.1054,-88.9001"/>
<polygon fill="#191970" stroke="#191970" points="346.6647,-92.4028 356.5538,-88.6007 346.4521,-85.406 346.6647,-92.4028"/>
</g>
<!-- Node10 -->
<g id="node4" class="node">
<title>Node10</title>
<g id="a_node4"><a xlink:href="classCryptoInstruction.html#a380d1bcc44217c483ddbcd3ac68d1f87" target="_top" xlink:title=" ">
<polygon fill="#ffffff" stroke="#000000" points="214,-49.5 214,-79.5 321,-79.5 321,-49.5 214,-49.5"/>
<text text-anchor="start" x="222" y="-67.5" font-family="Helvetica,sans-Serif" font-size="10.00" fill="#000000">CryptoInstruction::</text>
<text text-anchor="middle" x="267.5" y="-56.5" font-family="Helvetica,sans-Serif" font-size="10.00" fill="#000000">getYCoordinate</text>
</a>
</g>
</g>
<!-- Node7&#45;&gt;Node10 -->
<g id="edge3" class="edge">
<title>Node7&#45;&gt;Node10</title>
<path fill="none" stroke="#191970" d="M346.9537,-76.7237C338.4431,-75.4143 329.7802,-74.0816 321.4555,-72.8008"/>
<polygon fill="#191970" stroke="#191970" points="346.4293,-80.1841 356.8452,-78.2454 347.4937,-73.2655 346.4293,-80.1841"/>
</g>
<!-- Node11 -->
<g id="node5" class="node">
<title>Node11</title>
<g id="a_node5"><a xlink:href="classCryptoInstruction.html#ac16d178eea6a08b5257551ddf8fee912" target="_top" xlink:title=" ">
<polygon fill="#ffffff" stroke="#000000" points="214,-.5 214,-30.5 321,-30.5 321,-.5 214,-.5"/>
<text text-anchor="start" x="222" y="-18.5" font-family="Helvetica,sans-Serif" font-size="10.00" fill="#000000">CryptoInstruction::</text>
<text text-anchor="middle" x="267.5" y="-7.5" font-family="Helvetica,sans-Serif" font-size="10.00" fill="#000000">getUnknownData</text>
</a>
</g>
</g>
<!-- Node7&#45;&gt;Node11 -->
<g id="edge5" class="edge">
<title>Node7&#45;&gt;Node11</title>
<path fill="none" stroke="#191970" d="M372.6279,-66.6361C356.7477,-58.411 338.0459,-48.8595 321,-40.5 314.2804,-37.2046 307.0428,-33.7558 300.129,-30.509"/>
<polygon fill="#191970" stroke="#191970" points="371.1306,-69.8023 381.6181,-71.3066 374.3577,-63.5905 371.1306,-69.8023"/>
</g>
<!-- Node8&#45;&gt;Node9 -->
<g id="edge2" class="edge">
<title>Node8&#45;&gt;Node9</title>
<path fill="none" stroke="#191970" d="M216.9748,-133.8184C183.6865,-121.5101 141.482,-105.9051 114.8496,-96.0578"/>
<polygon fill="#191970" stroke="#191970" points="215.9553,-137.173 226.5485,-137.3583 218.3829,-130.6074 215.9553,-137.173"/>
</g>
<!-- Node10&#45;&gt;Node9 -->
<g id="edge4" class="edge">
<title>Node10&#45;&gt;Node9</title>
<path fill="none" stroke="#191970" d="M203.8963,-72.3391C191.713,-73.8407 178.8328,-75.4282 166.2748,-76.9759"/>
<polygon fill="#191970" stroke="#191970" points="204.4474,-75.7978 213.9441,-71.1007 203.591,-68.8503 204.4474,-75.7978"/>
</g>
<!-- Node11&#45;&gt;Node9 -->
<g id="edge6" class="edge">
<title>Node11&#45;&gt;Node9</title>
<path fill="none" stroke="#191970" d="M220.234,-34.3005C185.7666,-48.0102 140.4803,-66.0232 113.1197,-76.9062"/>
<polygon fill="#191970" stroke="#191970" points="221.6464,-37.5055 229.6447,-30.5573 219.0592,-31.0011 221.6464,-37.5055"/>
</g>
</g>
</svg>
