<?xml version="1.0" encoding="UTF-8" standalone="no"?>
<!DOCTYPE svg PUBLIC "-//W3C//DTD SVG 1.1//EN"
 "http://www.w3.org/Graphics/SVG/1.1/DTD/svg11.dtd">
<!-- Generated by graphviz version 2.40.1 (20161225.0304)
 -->
<!-- Title: BresenhamLine::next Pages: 1 -->
<svg width="1362pt" height="276pt"
 viewBox="0.00 0.00 1362.00 275.50" xmlns="http://www.w3.org/2000/svg" xmlns:xlink="http://www.w3.org/1999/xlink">
<g id="graph0" class="graph" transform="scale(1 1) rotate(0) translate(4 271.5)">
<title>BresenhamLine::next</title>
<polygon fill="#ffffff" stroke="transparent" points="-4,4 -4,-271.5 1358,-271.5 1358,4 -4,4"/>
<!-- Node48 -->
<g id="node1" class="node">
<title>Node48</title>
<g id="a_node1"><a xlink:title=" ">
<polygon fill="#bfbfbf" stroke="#000000" points="1234,-82.5 1234,-101.5 1354,-101.5 1354,-82.5 1234,-82.5"/>
<text text-anchor="middle" x="1294" y="-89.5" font-family="Helvetica,sans-Serif" font-size="10.00" fill="#000000">BresenhamLine::next</text>
</a>
</g>
</g>
<!-- Node49 -->
<g id="node2" class="node">
<title>Node49</title>
<g id="a_node2"><a xlink:href="classGridFinder.html#ace2c24a54244e7e92618d3fe7ec62fdc" target="_top" xlink:title="Starting from the given pixel, move in the direction of the given angle, and count the number of whit...">
<polygon fill="#ffffff" stroke="#000000" points="1071,-198.5 1071,-217.5 1173,-217.5 1173,-198.5 1071,-198.5"/>
<text text-anchor="middle" x="1122" y="-205.5" font-family="Helvetica,sans-Serif" font-size="10.00" fill="#000000">GridFinder::hough</text>
</a>
</g>
</g>
<!-- Node48&#45;&gt;Node49 -->
<g id="edge1" class="edge">
<title>Node48&#45;&gt;Node49</title>
<path fill="none" stroke="#191970" d="M1271.2221,-107.3618C1235.1658,-131.6789 1165.9862,-178.3349 1136.2069,-198.4186"/>
<polygon fill="#191970" stroke="#191970" points="1273.2975,-110.1838 1279.6312,-101.6906 1269.3835,-104.3803 1273.2975,-110.1838"/>
</g>
<!-- Node53 -->
<g id="node6" class="node">
<title>Node53</title>
<g id="a_node6"><a xlink:href="classGridFinder.html#ab5c436911deb269a22a8d5525271fa4e" target="_top" xlink:title="Get the width of the line at a given point.">
<polygon fill="#ffffff" stroke="#000000" points="1046,-77 1046,-107 1198,-107 1198,-77 1046,-77"/>
<text text-anchor="start" x="1054" y="-95" font-family="Helvetica,sans-Serif" font-size="10.00" fill="#000000">GridFinder::getWidthAtPoint</text>
<text text-anchor="middle" x="1122" y="-84" font-family="Helvetica,sans-Serif" font-size="10.00" fill="#000000">OnLine</text>
</a>
</g>
</g>
<!-- Node48&#45;&gt;Node53 -->
<g id="edge5" class="edge">
<title>Node48&#45;&gt;Node53</title>
<path fill="none" stroke="#191970" d="M1223.6972,-92C1215.2766,-92 1206.6482,-92 1198.1498,-92"/>
<polygon fill="#191970" stroke="#191970" points="1223.8428,-95.5001 1233.8427,-92 1223.8427,-88.5001 1223.8428,-95.5001"/>
</g>
<!-- Node57 -->
<g id="node10" class="node">
<title>Node57</title>
<g id="a_node10"><a xlink:href="classGridFinder.html#a54369e6368334eb2924ca70ee1f1d438" target="_top" xlink:title="Follow the given line to find the line perpendicular to it. Move along the line for minDistance pixel...">
<polygon fill="#ffffff" stroke="#000000" points="523,-76.5 523,-95.5 657,-95.5 657,-76.5 523,-76.5"/>
<text text-anchor="middle" x="590" y="-83.5" font-family="Helvetica,sans-Serif" font-size="10.00" fill="#000000">GridFinder::findNextLine</text>
</a>
</g>
</g>
<!-- Node48&#45;&gt;Node57 -->
<g id="edge21" class="edge">
<title>Node48&#45;&gt;Node57</title>
<path fill="none" stroke="#191970" d="M1255.2155,-79.4965C1237.9054,-74.5433 1217.1356,-69.4508 1198,-67 1002.9004,-42.0131 769.8636,-63.441 657.36,-76.9725"/>
<polygon fill="#191970" stroke="#191970" points="1254.3873,-82.9013 1264.9691,-82.3758 1256.3692,-76.1877 1254.3873,-82.9013"/>
</g>
<!-- Node62 -->
<g id="node15" class="node">
<title>Node62</title>
<g id="a_node15"><a xlink:href="classGridFinder.html#a3b5caee289831bd2207db3ec542be2b0" target="_top" xlink:title="Draw a line on the mask. Used only for testing.">
<polygon fill="#ffffff" stroke="#000000" points="1064,-.5 1064,-19.5 1180,-19.5 1180,-.5 1064,-.5"/>
<text text-anchor="middle" x="1122" y="-7.5" font-family="Helvetica,sans-Serif" font-size="10.00" fill="#000000">GridFinder::drawLine</text>
</a>
</g>
</g>
<!-- Node48&#45;&gt;Node62 -->
<g id="edge16" class="edge">
<title>Node48&#45;&gt;Node62</title>
<path fill="none" stroke="#191970" d="M1272.0896,-76.6921C1253.1465,-63.9719 1224.6832,-46.066 1198,-34 1185.3924,-28.2989 1171.0378,-23.3897 1158.2248,-19.5236"/>
<polygon fill="#191970" stroke="#191970" points="1270.3395,-79.7348 1280.5747,-82.4717 1274.2802,-73.9494 1270.3395,-79.7348"/>
</g>
<!-- Node63 -->
<g id="node16" class="node">
<title>Node63</title>
<g id="a_node16"><a xlink:href="classGridFinder.html#af8bdc28d95e295618c2f345f2d7eb758" target="_top" xlink:title="Move a pixel in a given direction for a given distance.">
<polygon fill="#ffffff" stroke="#000000" points="1072,-126.5 1072,-145.5 1172,-145.5 1172,-126.5 1072,-126.5"/>
<text text-anchor="middle" x="1122" y="-133.5" font-family="Helvetica,sans-Serif" font-size="10.00" fill="#000000">GridFinder::move</text>
</a>
</g>
</g>
<!-- Node48&#45;&gt;Node63 -->
<g id="edge17" class="edge">
<title>Node48&#45;&gt;Node63</title>
<path fill="none" stroke="#191970" d="M1246.8495,-104.0617C1219.2641,-111.1185 1184.9269,-119.9024 1159.2486,-126.4713"/>
<polygon fill="#191970" stroke="#191970" points="1247.858,-107.4166 1256.6786,-101.5473 1246.1231,-100.6349 1247.858,-107.4166"/>
</g>
<!-- Node50 -->
<g id="node3" class="node">
<title>Node50</title>
<g id="a_node3"><a xlink:href="classGridFinder.html#a04e1362c95151ac77477844a952af0f9" target="_top" xlink:title="Scan 360° around a given pixel, and find the angle with the most white pixels. This version is not ve...">
<polygon fill="#ffffff" stroke="#000000" points="695.5,-202.5 695.5,-221.5 833.5,-221.5 833.5,-202.5 695.5,-202.5"/>
<text text-anchor="middle" x="764.5" y="-209.5" font-family="Helvetica,sans-Serif" font-size="10.00" fill="#000000">GridFinder::findLineAngle</text>
</a>
</g>
</g>
<!-- Node49&#45;&gt;Node50 -->
<g id="edge2" class="edge">
<title>Node49&#45;&gt;Node50</title>
<path fill="none" stroke="#191970" d="M1060.5806,-208.6872C997.5033,-209.393 899.5089,-210.4894 833.7226,-211.2255"/>
<polygon fill="#191970" stroke="#191970" points="1060.8188,-212.1849 1070.779,-208.5731 1060.7404,-205.1853 1060.8188,-212.1849"/>
</g>
<!-- Node52 -->
<g id="node5" class="node">
<title>Node52</title>
<g id="a_node5"><a xlink:href="classGridFinder.html#afcc1eed83ee0292966c3c80883069634" target="_top" xlink:title="Similar to findLineAngle, but is more accurate, because it uses the average of the range of angles wi...">
<polygon fill="#ffffff" stroke="#000000" points="872,-237 872,-267 1010,-267 1010,-237 872,-237"/>
<text text-anchor="start" x="880" y="-255" font-family="Helvetica,sans-Serif" font-size="10.00" fill="#000000">GridFinder::findLineAngle</text>
<text text-anchor="middle" x="941" y="-244" font-family="Helvetica,sans-Serif" font-size="10.00" fill="#000000">AccurateRange</text>
</a>
</g>
</g>
<!-- Node49&#45;&gt;Node52 -->
<g id="edge4" class="edge">
<title>Node49&#45;&gt;Node52</title>
<path fill="none" stroke="#191970" d="M1072.8213,-219.955C1051.2899,-225.1892 1025.7849,-231.3893 1002.9734,-236.9346"/>
<polygon fill="#191970" stroke="#191970" points="1073.8355,-223.3105 1082.7257,-217.5473 1072.1819,-216.5086 1073.8355,-223.3105"/>
</g>
<!-- Node51 -->
<g id="node4" class="node">
<title>Node51</title>
<g id="a_node4"><a xlink:href="classGridFinder.html#aaea3af418ab7124f2b25bcc124fccaca" target="_top" xlink:title="Get an estimate of the line through a given pixel. Find an estimate of the slope, then use that to de...">
<polygon fill="#ffffff" stroke="#000000" points="526,-175 526,-205 654,-205 654,-175 526,-175"/>
<text text-anchor="start" x="534" y="-193" font-family="Helvetica,sans-Serif" font-size="10.00" fill="#000000">GridFinder::getFirstLine</text>
<text text-anchor="middle" x="590" y="-182" font-family="Helvetica,sans-Serif" font-size="10.00" fill="#000000">Estimate</text>
</a>
</g>
</g>
<!-- Node50&#45;&gt;Node51 -->
<g id="edge3" class="edge">
<title>Node50&#45;&gt;Node51</title>
<path fill="none" stroke="#191970" d="M685.3082,-202.0159C674.8343,-200.6954 664.2042,-199.3553 654.0285,-198.0724"/>
<polygon fill="#191970" stroke="#191970" points="684.9231,-205.495 695.2823,-203.2734 685.7987,-198.55 684.9231,-205.495"/>
</g>
<!-- Node54 -->
<g id="node7" class="node">
<title>Node54</title>
<g id="a_node7"><a xlink:href="classGridFinder.html#abcd46f31e256080b2d5d2aee03c0e258" target="_top" xlink:title="Find the middle of a line.">
<polygon fill="#ffffff" stroke="#000000" points="881,-115.5 881,-134.5 1001,-134.5 1001,-115.5 881,-115.5"/>
<text text-anchor="middle" x="941" y="-122.5" font-family="Helvetica,sans-Serif" font-size="10.00" fill="#000000">GridFinder::getMiddle</text>
</a>
</g>
</g>
<!-- Node53&#45;&gt;Node54 -->
<g id="edge6" class="edge">
<title>Node53&#45;&gt;Node54</title>
<path fill="none" stroke="#191970" d="M1035.759,-107.7235C1021.2465,-110.3694 1006.5877,-113.042 993.2796,-115.4684"/>
<polygon fill="#191970" stroke="#191970" points="1036.5543,-111.1363 1045.7643,-105.8993 1035.2987,-104.2498 1036.5543,-111.1363"/>
</g>
<!-- Node55 -->
<g id="node8" class="node">
<title>Node55</title>
<g id="a_node8"><a xlink:href="classGridFinder.html#af830abf29ca6dc9c01197a38fe16e1e5" target="_top" xlink:title="In exceptional cases, we might want to find the middle of a line in a point that happens to lie at th...">
<polygon fill="#ffffff" stroke="#000000" points="693,-153 693,-183 836,-183 836,-153 693,-153"/>
<text text-anchor="start" x="701" y="-171" font-family="Helvetica,sans-Serif" font-size="10.00" fill="#000000">GridFinder::getMiddleWith</text>
<text text-anchor="middle" x="764.5" y="-160" font-family="Helvetica,sans-Serif" font-size="10.00" fill="#000000">Retries</text>
</a>
</g>
</g>
<!-- Node54&#45;&gt;Node55 -->
<g id="edge7" class="edge">
<title>Node54&#45;&gt;Node55</title>
<path fill="none" stroke="#191970" d="M892.1098,-136.9109C871.6799,-141.8882 847.7106,-147.7277 826.0956,-152.9937"/>
<polygon fill="#191970" stroke="#191970" points="892.9416,-140.3107 901.8289,-134.5431 891.2846,-133.5097 892.9416,-140.3107"/>
</g>
<!-- Node56 -->
<g id="node9" class="node">
<title>Node56</title>
<g id="a_node9"><a xlink:href="classGridFinder.html#ae12ca7921b02b37417d87fc737f0134d" target="_top" xlink:title="Check if there could be a valid line going through the given point, and if so, find and return the ac...">
<polygon fill="#ffffff" stroke="#000000" points="704,-114.5 704,-133.5 825,-133.5 825,-114.5 704,-114.5"/>
<text text-anchor="middle" x="764.5" y="-121.5" font-family="Helvetica,sans-Serif" font-size="10.00" fill="#000000">GridFinder::checkLine</text>
</a>
</g>
</g>
<!-- Node54&#45;&gt;Node56 -->
<g id="edge9" class="edge">
<title>Node54&#45;&gt;Node56</title>
<path fill="none" stroke="#191970" d="M870.4814,-124.6005C855.4475,-124.5153 839.6975,-124.426 825.0754,-124.3432"/>
<polygon fill="#191970" stroke="#191970" points="870.7327,-128.1018 880.7524,-124.6587 870.7724,-121.102 870.7327,-128.1018"/>
</g>
<!-- Node55&#45;&gt;Node51 -->
<g id="edge8" class="edge">
<title>Node55&#45;&gt;Node51</title>
<path fill="none" stroke="#191970" d="M682.8089,-178.2992C673.2012,-179.5104 663.5033,-180.7331 654.1837,-181.9081"/>
<polygon fill="#191970" stroke="#191970" points="683.2851,-181.7669 692.7688,-177.0435 682.4095,-174.8219 683.2851,-181.7669"/>
</g>
<!-- Node56&#45;&gt;Node57 -->
<g id="edge10" class="edge">
<title>Node56&#45;&gt;Node57</title>
<path fill="none" stroke="#191970" d="M710.5309,-112.2474C685.8567,-106.8742 657.0052,-100.5914 633.7171,-95.5201"/>
<polygon fill="#191970" stroke="#191970" points="709.9505,-115.703 720.4663,-114.411 711.44,-108.8633 709.9505,-115.703"/>
</g>
<!-- Node58 -->
<g id="node11" class="node">
<title>Node58</title>
<g id="a_node11"><a xlink:href="classGridFinder.html#a3edbd3ffbcfe6d373fbaf576e4dca51b" target="_top" xlink:title="Equivalent to #findNextLine(LineResult,bool,uint,uint) but also supports optional LineResults.">
<polygon fill="#ffffff" stroke="#000000" points="353,-95.5 353,-114.5 487,-114.5 487,-95.5 353,-95.5"/>
<text text-anchor="middle" x="420" y="-102.5" font-family="Helvetica,sans-Serif" font-size="10.00" fill="#000000">GridFinder::findNextLine</text>
</a>
</g>
</g>
<!-- Node57&#45;&gt;Node58 -->
<g id="edge11" class="edge">
<title>Node57&#45;&gt;Node58</title>
<path fill="none" stroke="#191970" d="M512.854,-94.6222C504.3121,-95.5769 495.6634,-96.5435 487.2572,-97.483"/>
<polygon fill="#191970" stroke="#191970" points="513.2622,-98.0985 522.8115,-93.5093 512.4846,-91.1418 513.2622,-98.0985"/>
</g>
<!-- Node59 -->
<g id="node12" class="node">
<title>Node59</title>
<g id="a_node12"><a xlink:href="classGridFinder.html#a8940ca681fac78274043cf5f1f1f5761" target="_top" xlink:title="This is the main function: it looks for a complete square of the grid, as close to the center of the ...">
<polygon fill="#ffffff" stroke="#000000" points="358,-57.5 358,-76.5 482,-76.5 482,-57.5 358,-57.5"/>
<text text-anchor="middle" x="420" y="-64.5" font-family="Helvetica,sans-Serif" font-size="10.00" fill="#000000">GridFinder::findSquare</text>
</a>
</g>
</g>
<!-- Node57&#45;&gt;Node59 -->
<g id="edge12" class="edge">
<title>Node57&#45;&gt;Node59</title>
<path fill="none" stroke="#191970" d="M512.624,-77.3521C502.3644,-76.2054 491.9554,-75.0421 482.0015,-73.9296"/>
<polygon fill="#191970" stroke="#191970" points="512.4846,-80.8582 522.8115,-78.4907 513.2622,-73.9015 512.4846,-80.8582"/>
</g>
<!-- Node60 -->
<g id="node13" class="node">
<title>Node60</title>
<g id="a_node13"><a xlink:href="classLocationFinder.html#af56756d038d762e04e0c91bac9fc2522" target="_top" xlink:title="Read a new frame, mask it, run GridFinder, and get the position of the drone. The position is the pos...">
<polygon fill="#ffffff" stroke="#000000" points="149,-38.5 149,-57.5 317,-57.5 317,-38.5 149,-38.5"/>
<text text-anchor="middle" x="233" y="-45.5" font-family="Helvetica,sans-Serif" font-size="10.00" fill="#000000">LocationFinder::updateLocation</text>
</a>
</g>
</g>
<!-- Node59&#45;&gt;Node60 -->
<g id="edge13" class="edge">
<title>Node59&#45;&gt;Node60</title>
<path fill="none" stroke="#191970" d="M348.0281,-59.6873C337.9278,-58.6611 327.4731,-57.5989 317.1709,-56.5521"/>
<polygon fill="#191970" stroke="#191970" points="347.6888,-63.1708 357.9915,-60.6997 348.3965,-56.2067 347.6888,-63.1708"/>
</g>
<!-- Node61 -->
<g id="node14" class="node">
<title>Node61</title>
<g id="a_node14"><a xlink:href="Grid-Finder_8module_8hpp.html#a05e720af51446c0f9319fb9455fe1767" target="_top" xlink:title=" ">
<polygon fill="#ffffff" stroke="#000000" points="0,-57.5 0,-76.5 113,-76.5 113,-57.5 0,-57.5"/>
<text text-anchor="middle" x="56.5" y="-64.5" font-family="Helvetica,sans-Serif" font-size="10.00" fill="#000000">PYBIND11_MODULE</text>
</a>
</g>
</g>
<!-- Node59&#45;&gt;Node61 -->
<g id="edge15" class="edge">
<title>Node59&#45;&gt;Node61</title>
<path fill="none" stroke="#191970" d="M347.5872,-67C278.6832,-67 176.4113,-67 113.2349,-67"/>
<polygon fill="#191970" stroke="#191970" points="347.9252,-70.5001 357.9251,-67 347.9251,-63.5001 347.9252,-70.5001"/>
</g>
<!-- Node60&#45;&gt;Node61 -->
<g id="edge14" class="edge">
<title>Node60&#45;&gt;Node61</title>
<path fill="none" stroke="#191970" d="M138.9025,-58.1295C130.0733,-59.0799 121.3225,-60.0219 113.0056,-60.9172"/>
<polygon fill="#191970" stroke="#191970" points="139.3175,-61.6051 148.8854,-57.0548 138.5682,-54.6453 139.3175,-61.6051"/>
</g>
<!-- Node63&#45;&gt;Node54 -->
<g id="edge18" class="edge">
<title>Node63&#45;&gt;Node54</title>
<path fill="none" stroke="#191970" d="M1061.3417,-132.3136C1041.9348,-131.1342 1020.4664,-129.8294 1001.0995,-128.6525"/>
<polygon fill="#191970" stroke="#191970" points="1061.3875,-135.8227 1071.5814,-132.9359 1061.8122,-128.8356 1061.3875,-135.8227"/>
</g>
<!-- Node63&#45;&gt;Node55 -->
<g id="edge19" class="edge">
<title>Node63&#45;&gt;Node55</title>
<path fill="none" stroke="#191970" d="M1061.8535,-141.3837C999.5945,-146.9566 902.3528,-155.6607 836.1534,-161.5863"/>
<polygon fill="#191970" stroke="#191970" points="1062.2666,-144.8609 1071.9147,-140.4832 1061.6425,-137.8887 1062.2666,-144.8609"/>
</g>
<!-- Node63&#45;&gt;Node57 -->
<g id="edge20" class="edge">
<title>Node63&#45;&gt;Node57</title>
<path fill="none" stroke="#191970" d="M1075.3468,-123.8301C1065.641,-121.2681 1055.4817,-118.5644 1046,-116 1029.9701,-111.6646 1026.3957,-108.6336 1010,-106 886.5708,-86.1741 740.3315,-83.9234 657.0326,-84.606"/>
<polygon fill="#191970" stroke="#191970" points="1074.6882,-127.2759 1085.2498,-126.4368 1076.4702,-120.5065 1074.6882,-127.2759"/>
</g>
</g>
</svg>
