<?xml version="1.0" encoding="UTF-8" standalone="no"?>
<!DOCTYPE svg PUBLIC "-//W3C//DTD SVG 1.1//EN"
 "http://www.w3.org/Graphics/SVG/1.1/DTD/svg11.dtd">
<!-- Generated by graphviz version 2.40.1 (20161225.0304)
 -->
<!-- Title: Line::leftOfPoint Pages: 1 -->
<svg width="616pt" height="47pt"
 viewBox="0.00 0.00 616.00 47.00" xmlns="http://www.w3.org/2000/svg" xmlns:xlink="http://www.w3.org/1999/xlink">
<g id="graph0" class="graph" transform="scale(1 1) rotate(0) translate(4 43)">
<title>Line::leftOfPoint</title>
<polygon fill="#ffffff" stroke="transparent" points="-4,4 -4,-43 612,-43 612,4 -4,4"/>
<!-- Node15 -->
<g id="node1" class="node">
<title>Node15</title>
<g id="a_node1"><a xlink:title=" ">
<polygon fill="#bfbfbf" stroke="#000000" points="513,-.5 513,-19.5 608,-19.5 608,-.5 513,-.5"/>
<text text-anchor="middle" x="560.5" y="-7.5" font-family="Helvetica,sans-Serif" font-size="10.00" fill="#000000">Line::leftOfPoint</text>
</a>
</g>
</g>
<!-- Node16 -->
<g id="node2" class="node">
<title>Node16</title>
<g id="a_node2"><a xlink:href="classGridFinder.html#a701c0c1e70d01bb8773a89a29f6673a0" target="_top" xlink:title="This is the main function: it looks for a complete square of the grid, as close to the center of the ...">
<polygon fill="#ffffff" stroke="#000000" points="353,-.5 353,-19.5 477,-19.5 477,-.5 353,-.5"/>
<text text-anchor="middle" x="415" y="-7.5" font-family="Helvetica,sans-Serif" font-size="10.00" fill="#000000">GridFinder::findSquare</text>
</a>
</g>
</g>
<!-- Node15&#45;&gt;Node16 -->
<g id="edge1" class="edge">
<title>Node15&#45;&gt;Node16</title>
<path fill="none" stroke="#191970" d="M502.7354,-10C494.2959,-10 485.5752,-10 477.0546,-10"/>
<polygon fill="#191970" stroke="#191970" points="502.8579,-13.5001 512.8579,-10 502.8578,-6.5001 502.8579,-13.5001"/>
</g>
<!-- Node17 -->
<g id="node3" class="node">
<title>Node17</title>
<g id="a_node3"><a xlink:href="classLocationFinder.html#af56756d038d762e04e0c91bac9fc2522" target="_top" xlink:title="Read a new frame, mask it, run GridFinder, and get the position of the drone. The position is the pos...">
<polygon fill="#ffffff" stroke="#000000" points="149,-19.5 149,-38.5 317,-38.5 317,-19.5 149,-19.5"/>
<text text-anchor="middle" x="233" y="-26.5" font-family="Helvetica,sans-Serif" font-size="10.00" fill="#000000">LocationFinder::updateLocation</text>
</a>
</g>
</g>
<!-- Node16&#45;&gt;Node17 -->
<g id="edge2" class="edge">
<title>Node16&#45;&gt;Node17</title>
<path fill="none" stroke="#191970" d="M342.7209,-17.5456C334.2884,-18.4259 325.6317,-19.3297 317.0577,-20.2247"/>
<polygon fill="#191970" stroke="#191970" points="343.2925,-21.0051 352.875,-16.4856 342.5656,-14.0429 343.2925,-21.0051"/>
</g>
<!-- Node18 -->
<g id="node4" class="node">
<title>Node18</title>
<g id="a_node4"><a xlink:href="Grid-Finder_8module_8hpp.html#a6849f4dcdb45a7aaadcda6439233d376" target="_top" xlink:title=" ">
<polygon fill="#ffffff" stroke="#000000" points="0,-.5 0,-19.5 113,-19.5 113,-.5 0,-.5"/>
<text text-anchor="middle" x="56.5" y="-7.5" font-family="Helvetica,sans-Serif" font-size="10.00" fill="#000000">PYBIND11_MODULE</text>
</a>
</g>
</g>
<!-- Node16&#45;&gt;Node18 -->
<g id="edge4" class="edge">
<title>Node16&#45;&gt;Node18</title>
<path fill="none" stroke="#191970" d="M342.797,-10C275.0706,-10 175.1701,-10 113.0574,-10"/>
<polygon fill="#191970" stroke="#191970" points="342.9634,-13.5001 352.9633,-10 342.9633,-6.5001 342.9634,-13.5001"/>
</g>
<!-- Node17&#45;&gt;Node18 -->
<g id="edge3" class="edge">
<title>Node17&#45;&gt;Node18</title>
<path fill="none" stroke="#191970" d="M138.9025,-18.8705C130.0733,-17.9201 121.3225,-16.9781 113.0056,-16.0828"/>
<polygon fill="#191970" stroke="#191970" points="138.5682,-22.3547 148.8854,-19.9452 139.3175,-15.3949 138.5682,-22.3547"/>
</g>
</g>
</svg>
