<?xml version="1.0" encoding="UTF-8" standalone="no"?>
<!DOCTYPE svg PUBLIC "-//W3C//DTD SVG 1.1//EN"
 "http://www.w3.org/Graphics/SVG/1.1/DTD/svg11.dtd">
<!-- Generated by graphviz version 2.40.1 (20161225.0304)
 -->
<!-- Title: BresenhamLine::getCurrentLength Pages: 1 -->
<svg width="1039pt" height="292pt"
 viewBox="0.00 0.00 1039.00 291.50" xmlns="http://www.w3.org/2000/svg" xmlns:xlink="http://www.w3.org/1999/xlink">
<g id="graph0" class="graph" transform="scale(1 1) rotate(0) translate(4 287.5)">
<title>BresenhamLine::getCurrentLength</title>
<polygon fill="#ffffff" stroke="transparent" points="-4,4 -4,-287.5 1035,-287.5 1035,4 -4,4"/>
<!-- Node10 -->
<g id="node1" class="node">
<title>Node10</title>
<g id="a_node1"><a xlink:title=" ">
<polygon fill="#bfbfbf" stroke="#000000" points="881,-61 881,-91 1031,-91 1031,-61 881,-61"/>
<text text-anchor="start" x="889" y="-79" font-family="Helvetica,sans-Serif" font-size="10.00" fill="#000000">BresenhamLine::getCurrent</text>
<text text-anchor="middle" x="956" y="-68" font-family="Helvetica,sans-Serif" font-size="10.00" fill="#000000">Length</text>
</a>
</g>
</g>
<!-- Node11 -->
<g id="node2" class="node">
<title>Node11</title>
<g id="a_node2"><a xlink:href="classGridFinder.html#ae562737b4e1d28a7888aedb53449e0e7" target="_top" xlink:title="Starting from the given pixel, move in the direction of the given angle, and count the number of whit...">
<polygon fill="#ffffff" stroke="#000000" points="718,-187.5 718,-206.5 820,-206.5 820,-187.5 718,-187.5"/>
<text text-anchor="middle" x="769" y="-194.5" font-family="Helvetica,sans-Serif" font-size="10.00" fill="#000000">GridFinder::hough</text>
</a>
</g>
</g>
<!-- Node10&#45;&gt;Node11 -->
<g id="edge1" class="edge">
<title>Node10&#45;&gt;Node11</title>
<path fill="none" stroke="#191970" d="M924.1923,-96.5815C883.3683,-122.997 814.2063,-167.7489 783.9365,-187.3352"/>
<polygon fill="#191970" stroke="#191970" points="926.2001,-99.4511 932.6944,-91.0801 922.3973,-93.5741 926.2001,-99.4511"/>
</g>
<!-- Node16 -->
<g id="node7" class="node">
<title>Node16</title>
<g id="a_node7"><a xlink:href="classGridFinder.html#a83b31c2192a137e56e91d13661f1c658" target="_top" xlink:title="Get the width of the line at a given point.">
<polygon fill="#ffffff" stroke="#000000" points="693,-39 693,-69 845,-69 845,-39 693,-39"/>
<text text-anchor="start" x="701" y="-57" font-family="Helvetica,sans-Serif" font-size="10.00" fill="#000000">GridFinder::getWidthAtPoint</text>
<text text-anchor="middle" x="769" y="-46" font-family="Helvetica,sans-Serif" font-size="10.00" fill="#000000">OnLine</text>
</a>
</g>
</g>
<!-- Node10&#45;&gt;Node16 -->
<g id="edge6" class="edge">
<title>Node10&#45;&gt;Node16</title>
<path fill="none" stroke="#191970" d="M870.7372,-65.9691C862.1579,-64.9598 853.4854,-63.9395 845.0116,-62.9425"/>
<polygon fill="#191970" stroke="#191970" points="870.4078,-69.4544 880.7483,-67.1469 871.2257,-62.5023 870.4078,-69.4544"/>
</g>
<!-- Node23 -->
<g id="node14" class="node">
<title>Node23</title>
<g id="a_node14"><a xlink:href="classGridFinder.html#ae01e82a5f2ac5832d9b931aa305854b8" target="_top" xlink:title="Draw a line on the mask. Used only for testing.">
<polygon fill="#ffffff" stroke="#000000" points="711,-.5 711,-19.5 827,-19.5 827,-.5 711,-.5"/>
<text text-anchor="middle" x="769" y="-7.5" font-family="Helvetica,sans-Serif" font-size="10.00" fill="#000000">GridFinder::drawLine</text>
</a>
</g>
</g>
<!-- Node10&#45;&gt;Node23 -->
<g id="edge14" class="edge">
<title>Node10&#45;&gt;Node23</title>
<path fill="none" stroke="#191970" d="M914.8458,-56.7668C894.1787,-47.5749 868.5787,-36.8859 845,-29 834.5524,-25.5058 823.1076,-22.3206 812.3426,-19.5987"/>
<polygon fill="#191970" stroke="#191970" points="913.4136,-59.9603 923.9694,-60.8693 916.2844,-53.576 913.4136,-59.9603"/>
</g>
<!-- Node24 -->
<g id="node15" class="node">
<title>Node24</title>
<g id="a_node15"><a xlink:href="classGridFinder.html#a9b31ec7807efc6e1fde49f5a56c0d0fa" target="_top" xlink:title="Move a pixel in a given direction for a given distance.">
<polygon fill="#ffffff" stroke="#000000" points="719,-88.5 719,-107.5 819,-107.5 819,-88.5 719,-88.5"/>
<text text-anchor="middle" x="769" y="-95.5" font-family="Helvetica,sans-Serif" font-size="10.00" fill="#000000">GridFinder::move</text>
</a>
</g>
</g>
<!-- Node10&#45;&gt;Node24 -->
<g id="edge15" class="edge">
<title>Node10&#45;&gt;Node24</title>
<path fill="none" stroke="#191970" d="M870.4767,-86.0616C852.9252,-88.1264 834.9961,-90.2358 819.1875,-92.0956"/>
<polygon fill="#191970" stroke="#191970" points="871.2257,-89.4977 880.7483,-84.8531 870.4078,-82.5456 871.2257,-89.4977"/>
</g>
<!-- Node12 -->
<g id="node3" class="node">
<title>Node12</title>
<g id="a_node3"><a xlink:href="classGridFinder.html#a20f10e8136febf04c3a1987a35860ef1" target="_top" xlink:title="Scan 360° around a given pixel, and find the angle with the most white pixels. This version is not ve...">
<polygon fill="#ffffff" stroke="#000000" points="342.5,-170.5 342.5,-189.5 480.5,-189.5 480.5,-170.5 342.5,-170.5"/>
<text text-anchor="middle" x="411.5" y="-177.5" font-family="Helvetica,sans-Serif" font-size="10.00" fill="#000000">GridFinder::findLineAngle</text>
</a>
</g>
</g>
<!-- Node11&#45;&gt;Node12 -->
<g id="edge2" class="edge">
<title>Node11&#45;&gt;Node12</title>
<path fill="none" stroke="#191970" d="M707.5806,-194.0794C644.5033,-191.0799 546.5089,-186.42 480.7226,-183.2917"/>
<polygon fill="#191970" stroke="#191970" points="707.624,-197.5853 717.779,-194.5643 707.9565,-190.5932 707.624,-197.5853"/>
</g>
<!-- Node14 -->
<g id="node5" class="node">
<title>Node14</title>
<g id="a_node5"><a xlink:href="classGridFinder.html#a1ec79b247bf5e64bb9c456eebf420577" target="_top" xlink:title=" ">
<polygon fill="#ffffff" stroke="#000000" points="519,-253 519,-283 657,-283 657,-253 519,-253"/>
<text text-anchor="start" x="527" y="-271" font-family="Helvetica,sans-Serif" font-size="10.00" fill="#000000">GridFinder::findLineAngle</text>
<text text-anchor="middle" x="588" y="-260" font-family="Helvetica,sans-Serif" font-size="10.00" fill="#000000">Accurate</text>
</a>
</g>
</g>
<!-- Node11&#45;&gt;Node14 -->
<g id="edge4" class="edge">
<title>Node11&#45;&gt;Node14</title>
<path fill="none" stroke="#191970" d="M737.9497,-210.6456C715.5868,-220.322 684.6148,-233.4152 657,-244 649.1837,-246.996 640.8114,-250.0424 632.6893,-252.9141"/>
<polygon fill="#191970" stroke="#191970" points="739.4971,-213.7894 747.2732,-206.5934 736.7069,-207.3695 739.4971,-213.7894"/>
</g>
<!-- Node15 -->
<g id="node6" class="node">
<title>Node15</title>
<g id="a_node6"><a xlink:href="classGridFinder.html#aa1dc2d7760adcd45c649f0c8a303563e" target="_top" xlink:title="Similar to findLineAngle, but is more accurate, because it uses the average of the range of angles wi...">
<polygon fill="#ffffff" stroke="#000000" points="519,-204 519,-234 657,-234 657,-204 519,-204"/>
<text text-anchor="start" x="527" y="-222" font-family="Helvetica,sans-Serif" font-size="10.00" fill="#000000">GridFinder::findLineAngle</text>
<text text-anchor="middle" x="588" y="-211" font-family="Helvetica,sans-Serif" font-size="10.00" fill="#000000">AccurateRange</text>
</a>
</g>
</g>
<!-- Node11&#45;&gt;Node15 -->
<g id="edge5" class="edge">
<title>Node11&#45;&gt;Node15</title>
<path fill="none" stroke="#191970" d="M707.23,-204.508C691.0881,-206.47 673.5857,-208.5973 657.09,-210.6023"/>
<polygon fill="#191970" stroke="#191970" points="708.1122,-207.9266 717.6168,-203.2455 707.2675,-200.9777 708.1122,-207.9266"/>
</g>
<!-- Node13 -->
<g id="node4" class="node">
<title>Node13</title>
<g id="a_node4"><a xlink:href="classGridFinder.html#ac78760540b520bc08f716ef77127f1fc" target="_top" xlink:title="Get an estimate of the line through a given pixel. Find an estimate of the slope, then use that to de...">
<polygon fill="#ffffff" stroke="#000000" points="173,-130 173,-160 301,-160 301,-130 173,-130"/>
<text text-anchor="start" x="181" y="-148" font-family="Helvetica,sans-Serif" font-size="10.00" fill="#000000">GridFinder::getFirstLine</text>
<text text-anchor="middle" x="237" y="-137" font-family="Helvetica,sans-Serif" font-size="10.00" fill="#000000">Estimate</text>
</a>
</g>
</g>
<!-- Node12&#45;&gt;Node13 -->
<g id="edge3" class="edge">
<title>Node12&#45;&gt;Node13</title>
<path fill="none" stroke="#191970" d="M353.6154,-168.3899C336.849,-165.027 318.445,-161.3357 301.3113,-157.8991"/>
<polygon fill="#191970" stroke="#191970" points="353.3241,-171.9011 363.8171,-170.4361 354.7007,-165.0378 353.3241,-171.9011"/>
</g>
<!-- Node17 -->
<g id="node8" class="node">
<title>Node17</title>
<g id="a_node8"><a xlink:href="classGridFinder.html#a187e8c44c7f99237645b49dc2c6745c8" target="_top" xlink:title="Find the middle of a line.">
<polygon fill="#ffffff" stroke="#000000" points="528,-44.5 528,-63.5 648,-63.5 648,-44.5 528,-44.5"/>
<text text-anchor="middle" x="588" y="-51.5" font-family="Helvetica,sans-Serif" font-size="10.00" fill="#000000">GridFinder::getMiddle</text>
</a>
</g>
</g>
<!-- Node16&#45;&gt;Node17 -->
<g id="edge7" class="edge">
<title>Node16&#45;&gt;Node17</title>
<path fill="none" stroke="#191970" d="M682.5897,-54C670.9633,-54 659.2466,-54 648.2095,-54"/>
<polygon fill="#191970" stroke="#191970" points="682.7643,-57.5001 692.7643,-54 682.7643,-50.5001 682.7643,-57.5001"/>
</g>
<!-- Node18 -->
<g id="node9" class="node">
<title>Node18</title>
<g id="a_node9"><a xlink:href="classGridFinder.html#a504ddc8af3a0cc68b68de387ac1a90ea" target="_top" xlink:title="In exceptional cases, we might want to find the middle of a line in a point that happens to lie at th...">
<polygon fill="#ffffff" stroke="#000000" points="340,-121 340,-151 483,-151 483,-121 340,-121"/>
<text text-anchor="start" x="348" y="-139" font-family="Helvetica,sans-Serif" font-size="10.00" fill="#000000">GridFinder::getMiddleWith</text>
<text text-anchor="middle" x="411.5" y="-128" font-family="Helvetica,sans-Serif" font-size="10.00" fill="#000000">Retries</text>
</a>
</g>
</g>
<!-- Node17&#45;&gt;Node18 -->
<g id="edge8" class="edge">
<title>Node17&#45;&gt;Node18</title>
<path fill="none" stroke="#191970" d="M558.2004,-67.8446C526.5157,-82.5649 476.5651,-105.7714 443.9162,-120.9398"/>
<polygon fill="#191970" stroke="#191970" points="559.8134,-70.9545 567.4078,-63.5669 556.864,-64.6062 559.8134,-70.9545"/>
</g>
<!-- Node19 -->
<g id="node10" class="node">
<title>Node19</title>
<g id="a_node10"><a xlink:href="classGridFinder.html#a9050aab45d10d2c2d4859af19b4987b4" target="_top" xlink:title="Check if there could be a valid line going through the given point, and if so, find and return the ac...">
<polygon fill="#ffffff" stroke="#000000" points="351,-44.5 351,-63.5 472,-63.5 472,-44.5 351,-44.5"/>
<text text-anchor="middle" x="411.5" y="-51.5" font-family="Helvetica,sans-Serif" font-size="10.00" fill="#000000">GridFinder::checkLine</text>
</a>
</g>
</g>
<!-- Node17&#45;&gt;Node19 -->
<g id="edge10" class="edge">
<title>Node17&#45;&gt;Node19</title>
<path fill="none" stroke="#191970" d="M517.4814,-54C502.4475,-54 486.6975,-54 472.0754,-54"/>
<polygon fill="#191970" stroke="#191970" points="517.7524,-57.5001 527.7524,-54 517.7523,-50.5001 517.7524,-57.5001"/>
</g>
<!-- Node18&#45;&gt;Node13 -->
<g id="edge9" class="edge">
<title>Node18&#45;&gt;Node13</title>
<path fill="none" stroke="#191970" d="M329.5054,-140.2289C319.9971,-140.7193 310.4052,-141.2141 301.1837,-141.6897"/>
<polygon fill="#191970" stroke="#191970" points="329.9623,-143.7101 339.7688,-139.6996 329.6017,-136.7194 329.9623,-143.7101"/>
</g>
<!-- Node20 -->
<g id="node11" class="node">
<title>Node20</title>
<g id="a_node11"><a xlink:href="classGridFinder.html#a79b62fc48a9db94ad0530e76ed2c3306" target="_top" xlink:title="Follow the given line to find the line perpendicular to it. Move along the line for minDistance pixel...">
<polygon fill="#ffffff" stroke="#000000" points="170,-72.5 170,-91.5 304,-91.5 304,-72.5 170,-72.5"/>
<text text-anchor="middle" x="237" y="-79.5" font-family="Helvetica,sans-Serif" font-size="10.00" fill="#000000">GridFinder::findNextLine</text>
</a>
</g>
</g>
<!-- Node19&#45;&gt;Node20 -->
<g id="edge11" class="edge">
<title>Node19&#45;&gt;Node20</title>
<path fill="none" stroke="#191970" d="M341.6661,-65.2054C326.6337,-67.6175 310.8824,-70.1449 296.2965,-72.4854"/>
<polygon fill="#191970" stroke="#191970" points="342.6159,-68.5979 351.9351,-63.5577 341.5068,-61.6863 342.6159,-68.5979"/>
</g>
<!-- Node21 -->
<g id="node12" class="node">
<title>Node21</title>
<g id="a_node12"><a xlink:href="classGridFinder.html#ad75180aa82b12c7054e0015adc44a331" target="_top" xlink:title="Equivalent to #findNextLine(LineResult,bool,uint,uint) but also supports optional LineResults.">
<polygon fill="#ffffff" stroke="#000000" points="0,-91.5 0,-110.5 134,-110.5 134,-91.5 0,-91.5"/>
<text text-anchor="middle" x="67" y="-98.5" font-family="Helvetica,sans-Serif" font-size="10.00" fill="#000000">GridFinder::findNextLine</text>
</a>
</g>
</g>
<!-- Node20&#45;&gt;Node21 -->
<g id="edge12" class="edge">
<title>Node20&#45;&gt;Node21</title>
<path fill="none" stroke="#191970" d="M159.854,-90.6222C151.3121,-91.5769 142.6634,-92.5435 134.2572,-93.483"/>
<polygon fill="#191970" stroke="#191970" points="160.2622,-94.0985 169.8115,-89.5093 159.4846,-87.1418 160.2622,-94.0985"/>
</g>
<!-- Node22 -->
<g id="node13" class="node">
<title>Node22</title>
<g id="a_node13"><a xlink:href="classGridFinder.html#a3104d4fe44099faf5179674ecb55cb52" target="_top" xlink:title="This is the main function: it looks for a complete square of the grid, as close to the center of the ...">
<polygon fill="#ffffff" stroke="#000000" points="5,-53.5 5,-72.5 129,-72.5 129,-53.5 5,-53.5"/>
<text text-anchor="middle" x="67" y="-60.5" font-family="Helvetica,sans-Serif" font-size="10.00" fill="#000000">GridFinder::findSquare</text>
</a>
</g>
</g>
<!-- Node20&#45;&gt;Node22 -->
<g id="edge13" class="edge">
<title>Node20&#45;&gt;Node22</title>
<path fill="none" stroke="#191970" d="M159.624,-73.3521C149.3644,-72.2054 138.9554,-71.0421 129.0015,-69.9296"/>
<polygon fill="#191970" stroke="#191970" points="159.4846,-76.8582 169.8115,-74.4907 160.2622,-69.9015 159.4846,-76.8582"/>
</g>
<!-- Node24&#45;&gt;Node17 -->
<g id="edge16" class="edge">
<title>Node24&#45;&gt;Node17</title>
<path fill="none" stroke="#191970" d="M719.7639,-86.031C690.6707,-78.9586 654.3381,-70.1264 627.1977,-63.5287"/>
<polygon fill="#191970" stroke="#191970" points="719.1819,-89.4914 729.7257,-88.4527 720.8355,-82.6895 719.1819,-89.4914"/>
</g>
<!-- Node24&#45;&gt;Node18 -->
<g id="edge17" class="edge">
<title>Node24&#45;&gt;Node18</title>
<path fill="none" stroke="#191970" d="M708.8535,-104.3932C646.5945,-111.0109 549.3528,-121.3471 483.1534,-128.3837"/>
<polygon fill="#191970" stroke="#191970" points="709.3407,-107.8612 718.9147,-103.3237 708.6008,-100.9004 709.3407,-107.8612"/>
</g>
<!-- Node24&#45;&gt;Node20 -->
<g id="edge18" class="edge">
<title>Node24&#45;&gt;Node20</title>
<path fill="none" stroke="#191970" d="M708.7056,-96.1866C608.5963,-93.1758 408.7784,-87.1663 304.2507,-84.0226"/>
<polygon fill="#191970" stroke="#191970" points="708.85,-99.6925 718.9507,-96.4948 709.0605,-92.6956 708.85,-99.6925"/>
</g>
</g>
</svg>
