<?xml version="1.0" encoding="UTF-8" standalone="no"?>
<!DOCTYPE svg PUBLIC "-//W3C//DTD SVG 1.1//EN"
 "http://www.w3.org/Graphics/SVG/1.1/DTD/svg11.dtd">
<!-- Generated by graphviz version 2.40.1 (20161225.0304)
 -->
<!-- Title: GridFinder::print Pages: 1 -->
<svg width="357pt" height="122pt"
 viewBox="0.00 0.00 357.00 122.00" xmlns="http://www.w3.org/2000/svg" xmlns:xlink="http://www.w3.org/1999/xlink">
<g id="graph0" class="graph" transform="scale(1 1) rotate(0) translate(4 118)">
<title>GridFinder::print</title>
<polygon fill="#ffffff" stroke="transparent" points="-4,4 -4,-118 353,-118 353,4 -4,4"/>
<!-- Node370 -->
<g id="node1" class="node">
<title>Node370</title>
<g id="a_node1"><a xlink:title="Print the mask as &quot;pixels&quot; to the given output stream.">
<polygon fill="#bfbfbf" stroke="#000000" points="0,-56.5 0,-75.5 95,-75.5 95,-56.5 0,-56.5"/>
<text text-anchor="middle" x="47.5" y="-63.5" font-family="Helvetica,sans-Serif" font-size="10.00" fill="#000000">GridFinder::print</text>
</a>
</g>
</g>
<!-- Node371 -->
<g id="node2" class="node">
<title>Node371</title>
<g id="a_node2"><a xlink:href="classGridFinder.html#affd9ae441c8d86b1856a9ef31190e9ab" target="_top" xlink:title="Get the height of the frame.">
<polygon fill="#ffffff" stroke="#000000" points="131,-94.5 131,-113.5 234,-113.5 234,-94.5 131,-94.5"/>
<text text-anchor="middle" x="182.5" y="-101.5" font-family="Helvetica,sans-Serif" font-size="10.00" fill="#000000">GridFinder::height</text>
</a>
</g>
</g>
<!-- Node370&#45;&gt;Node371 -->
<g id="edge1" class="edge">
<title>Node370&#45;&gt;Node371</title>
<path fill="none" stroke="#191970" d="M81.5662,-75.589C98.9135,-80.4719 120.2022,-86.4643 138.7492,-91.685"/>
<polygon fill="#191970" stroke="#191970" points="137.8704,-95.0735 148.4447,-94.4141 139.7671,-88.3354 137.8704,-95.0735"/>
</g>
<!-- Node373 -->
<g id="node4" class="node">
<title>Node373</title>
<g id="a_node4"><a xlink:href="classGridFinder.html#aadfce89f171d55f954a19d700b43ff5c" target="_top" xlink:title="Get the width of the frame.">
<polygon fill="#ffffff" stroke="#000000" points="133,-56.5 133,-75.5 232,-75.5 232,-56.5 133,-56.5"/>
<text text-anchor="middle" x="182.5" y="-63.5" font-family="Helvetica,sans-Serif" font-size="10.00" fill="#000000">GridFinder::width</text>
</a>
</g>
</g>
<!-- Node370&#45;&gt;Node373 -->
<g id="edge3" class="edge">
<title>Node370&#45;&gt;Node373</title>
<path fill="none" stroke="#191970" d="M95.0959,-66C103.9208,-66 113.2441,-66 122.3846,-66"/>
<polygon fill="#191970" stroke="#191970" points="122.5906,-69.5001 132.5906,-66 122.5905,-62.5001 122.5906,-69.5001"/>
</g>
<!-- Node375 -->
<g id="node6" class="node">
<title>Node375</title>
<g id="a_node6"><a xlink:href="classGridFinder.html#afbed8951f70923626b73abdbe05236da" target="_top" xlink:title="Get the value of the given pixel.">
<polygon fill="#ffffff" stroke="#000000" points="138.5,-.5 138.5,-19.5 226.5,-19.5 226.5,-.5 138.5,-.5"/>
<text text-anchor="middle" x="182.5" y="-7.5" font-family="Helvetica,sans-Serif" font-size="10.00" fill="#000000">GridFinder::get</text>
</a>
</g>
</g>
<!-- Node370&#45;&gt;Node375 -->
<g id="edge5" class="edge">
<title>Node370&#45;&gt;Node375</title>
<path fill="none" stroke="#191970" d="M70.7073,-56.3733C92.6699,-47.2629 125.8332,-33.5062 150.3401,-23.3404"/>
<polygon fill="#191970" stroke="#191970" points="151.6997,-26.5657 159.5955,-19.5011 149.0176,-20.0999 151.6997,-26.5657"/>
</g>
<!-- Node372 -->
<g id="node3" class="node">
<title>Node372</title>
<g id="a_node3"><a xlink:href="classMask.html#af845b7d3220b707c8b4c48bf87d045bb" target="_top" xlink:title="Get the height of the mask in pixels.">
<polygon fill="#ffffff" stroke="#000000" points="270,-94.5 270,-113.5 349,-113.5 349,-94.5 270,-94.5"/>
<text text-anchor="middle" x="309.5" y="-101.5" font-family="Helvetica,sans-Serif" font-size="10.00" fill="#000000">Mask::height</text>
</a>
</g>
</g>
<!-- Node371&#45;&gt;Node372 -->
<g id="edge2" class="edge">
<title>Node371&#45;&gt;Node372</title>
<path fill="none" stroke="#191970" d="M234.1558,-104C242.6508,-104 251.4391,-104 259.8831,-104"/>
<polygon fill="#191970" stroke="#191970" points="259.9692,-107.5001 269.9691,-104 259.9691,-100.5001 259.9692,-107.5001"/>
</g>
<!-- Node374 -->
<g id="node5" class="node">
<title>Node374</title>
<g id="a_node5"><a xlink:href="classMask.html#a4124a2daa1f7501d4fd80775b6217679" target="_top" xlink:title="Get the width of the mask in pixels.">
<polygon fill="#ffffff" stroke="#000000" points="272,-56.5 272,-75.5 347,-75.5 347,-56.5 272,-56.5"/>
<text text-anchor="middle" x="309.5" y="-63.5" font-family="Helvetica,sans-Serif" font-size="10.00" fill="#000000">Mask::width</text>
</a>
</g>
</g>
<!-- Node373&#45;&gt;Node374 -->
<g id="edge4" class="edge">
<title>Node373&#45;&gt;Node374</title>
<path fill="none" stroke="#191970" d="M232.3293,-66C242.0255,-66 252.1682,-66 261.7939,-66"/>
<polygon fill="#191970" stroke="#191970" points="261.9904,-69.5001 271.9903,-66 261.9903,-62.5001 261.9904,-69.5001"/>
</g>
<!-- Node375&#45;&gt;Node375 -->
<g id="edge6" class="edge">
<title>Node375&#45;&gt;Node375</title>
<path fill="none" stroke="#191970" d="M163.0797,-19.7571C153.632,-28.5653 160.1055,-38 182.5,-38 196.8465,-38 204.659,-34.128 205.9374,-29.0292"/>
<polygon fill="#191970" stroke="#191970" points="209.1073,-27.5415 201.9203,-19.7571 202.6842,-30.3243 209.1073,-27.5415"/>
</g>
</g>
</svg>
