<?xml version="1.0" encoding="UTF-8" standalone="no"?>
<!DOCTYPE svg PUBLIC "-//W3C//DTD SVG 1.1//EN"
 "http://www.w3.org/Graphics/SVG/1.1/DTD/svg11.dtd">
<!-- Generated by graphviz version 2.40.1 (20161225.0304)
 -->
<!-- Title: BresenhamLine::getCurrentLength Pages: 1 -->
<svg width="1392pt" height="243pt"
 viewBox="0.00 0.00 1392.00 242.50" xmlns="http://www.w3.org/2000/svg" xmlns:xlink="http://www.w3.org/1999/xlink">
<g id="graph0" class="graph" transform="scale(1 1) rotate(0) translate(4 238.5)">
<title>BresenhamLine::getCurrentLength</title>
<polygon fill="#ffffff" stroke="transparent" points="-4,4 -4,-238.5 1388,-238.5 1388,4 -4,4"/>
<!-- Node10 -->
<g id="node1" class="node">
<title>Node10</title>
<g id="a_node1"><a xlink:title=" ">
<polygon fill="#bfbfbf" stroke="#000000" points="1234,-61 1234,-91 1384,-91 1384,-61 1234,-61"/>
<text text-anchor="start" x="1242" y="-79" font-family="Helvetica,sans-Serif" font-size="10.00" fill="#000000">BresenhamLine::getCurrent</text>
<text text-anchor="middle" x="1309" y="-68" font-family="Helvetica,sans-Serif" font-size="10.00" fill="#000000">Length</text>
</a>
</g>
</g>
<!-- Node11 -->
<g id="node2" class="node">
<title>Node11</title>
<g id="a_node2"><a xlink:href="classGridFinder.html#ace2c24a54244e7e92618d3fe7ec62fdc" target="_top" xlink:title="Starting from the given pixel, move in the direction of the given angle, and count the number of whit...">
<polygon fill="#ffffff" stroke="#000000" points="1071,-165.5 1071,-184.5 1173,-184.5 1173,-165.5 1071,-165.5"/>
<text text-anchor="middle" x="1122" y="-172.5" font-family="Helvetica,sans-Serif" font-size="10.00" fill="#000000">GridFinder::hough</text>
</a>
</g>
</g>
<!-- Node10&#45;&gt;Node11 -->
<g id="edge1" class="edge">
<title>Node10&#45;&gt;Node11</title>
<path fill="none" stroke="#191970" d="M1271.7159,-95.7386C1231.9135,-116.8105 1170.4946,-149.3264 1140.1895,-165.3703"/>
<polygon fill="#191970" stroke="#191970" points="1273.3985,-98.8082 1280.5987,-91.036 1270.1232,-92.6216 1273.3985,-98.8082"/>
</g>
<!-- Node15 -->
<g id="node6" class="node">
<title>Node15</title>
<g id="a_node6"><a xlink:href="classGridFinder.html#ab5c436911deb269a22a8d5525271fa4e" target="_top" xlink:title="Get the width of the line at a given point.">
<polygon fill="#ffffff" stroke="#000000" points="1046,-39 1046,-69 1198,-69 1198,-39 1046,-39"/>
<text text-anchor="start" x="1054" y="-57" font-family="Helvetica,sans-Serif" font-size="10.00" fill="#000000">GridFinder::getWidthAtPoint</text>
<text text-anchor="middle" x="1122" y="-46" font-family="Helvetica,sans-Serif" font-size="10.00" fill="#000000">OnLine</text>
</a>
</g>
</g>
<!-- Node10&#45;&gt;Node15 -->
<g id="edge5" class="edge">
<title>Node10&#45;&gt;Node15</title>
<path fill="none" stroke="#191970" d="M1223.7372,-65.9691C1215.1579,-64.9598 1206.4854,-63.9395 1198.0116,-62.9425"/>
<polygon fill="#191970" stroke="#191970" points="1223.4078,-69.4544 1233.7483,-67.1469 1224.2257,-62.5023 1223.4078,-69.4544"/>
</g>
<!-- Node24 -->
<g id="node15" class="node">
<title>Node24</title>
<g id="a_node15"><a xlink:href="classGridFinder.html#a3b5caee289831bd2207db3ec542be2b0" target="_top" xlink:title="Draw a line on the mask. Used only for testing.">
<polygon fill="#ffffff" stroke="#000000" points="1064,-.5 1064,-19.5 1180,-19.5 1180,-.5 1064,-.5"/>
<text text-anchor="middle" x="1122" y="-7.5" font-family="Helvetica,sans-Serif" font-size="10.00" fill="#000000">GridFinder::drawLine</text>
</a>
</g>
</g>
<!-- Node10&#45;&gt;Node24 -->
<g id="edge16" class="edge">
<title>Node10&#45;&gt;Node24</title>
<path fill="none" stroke="#191970" d="M1267.8458,-56.7668C1247.1787,-47.5749 1221.5787,-36.8859 1198,-29 1187.5524,-25.5058 1176.1076,-22.3206 1165.3426,-19.5987"/>
<polygon fill="#191970" stroke="#191970" points="1266.4136,-59.9603 1276.9694,-60.8693 1269.2844,-53.576 1266.4136,-59.9603"/>
</g>
<!-- Node25 -->
<g id="node16" class="node">
<title>Node25</title>
<g id="a_node16"><a xlink:href="classGridFinder.html#af8bdc28d95e295618c2f345f2d7eb758" target="_top" xlink:title="Move a pixel in a given direction for a given distance.">
<polygon fill="#ffffff" stroke="#000000" points="1072,-88.5 1072,-107.5 1172,-107.5 1172,-88.5 1072,-88.5"/>
<text text-anchor="middle" x="1122" y="-95.5" font-family="Helvetica,sans-Serif" font-size="10.00" fill="#000000">GridFinder::move</text>
</a>
</g>
</g>
<!-- Node10&#45;&gt;Node25 -->
<g id="edge17" class="edge">
<title>Node10&#45;&gt;Node25</title>
<path fill="none" stroke="#191970" d="M1223.4767,-86.0616C1205.9252,-88.1264 1187.9961,-90.2358 1172.1875,-92.0956"/>
<polygon fill="#191970" stroke="#191970" points="1224.2257,-89.4977 1233.7483,-84.8531 1223.4078,-82.5456 1224.2257,-89.4977"/>
</g>
<!-- Node12 -->
<g id="node3" class="node">
<title>Node12</title>
<g id="a_node3"><a xlink:href="classGridFinder.html#a04e1362c95151ac77477844a952af0f9" target="_top" xlink:title="Scan 360° around a given pixel, and find the angle with the most white pixels. This version is not ve...">
<polygon fill="#ffffff" stroke="#000000" points="695.5,-170.5 695.5,-189.5 833.5,-189.5 833.5,-170.5 695.5,-170.5"/>
<text text-anchor="middle" x="764.5" y="-177.5" font-family="Helvetica,sans-Serif" font-size="10.00" fill="#000000">GridFinder::findLineAngle</text>
</a>
</g>
</g>
<!-- Node11&#45;&gt;Node12 -->
<g id="edge2" class="edge">
<title>Node11&#45;&gt;Node12</title>
<path fill="none" stroke="#191970" d="M1060.5806,-175.859C997.5033,-176.7412 899.5089,-178.1118 833.7226,-179.0319"/>
<polygon fill="#191970" stroke="#191970" points="1060.8289,-179.356 1070.779,-175.7164 1060.731,-172.3567 1060.8289,-179.356"/>
</g>
<!-- Node14 -->
<g id="node5" class="node">
<title>Node14</title>
<g id="a_node5"><a xlink:href="classGridFinder.html#afcc1eed83ee0292966c3c80883069634" target="_top" xlink:title="Similar to findLineAngle, but is more accurate, because it uses the average of the range of angles wi...">
<polygon fill="#ffffff" stroke="#000000" points="872,-204 872,-234 1010,-234 1010,-204 872,-204"/>
<text text-anchor="start" x="880" y="-222" font-family="Helvetica,sans-Serif" font-size="10.00" fill="#000000">GridFinder::findLineAngle</text>
<text text-anchor="middle" x="941" y="-211" font-family="Helvetica,sans-Serif" font-size="10.00" fill="#000000">AccurateRange</text>
</a>
</g>
</g>
<!-- Node11&#45;&gt;Node14 -->
<g id="edge4" class="edge">
<title>Node11&#45;&gt;Node14</title>
<path fill="none" stroke="#191970" d="M1072.8213,-186.955C1051.2899,-192.1892 1025.7849,-198.3893 1002.9734,-203.9346"/>
<polygon fill="#191970" stroke="#191970" points="1073.8355,-190.3105 1082.7257,-184.5473 1072.1819,-183.5086 1073.8355,-190.3105"/>
</g>
<!-- Node13 -->
<g id="node4" class="node">
<title>Node13</title>
<g id="a_node4"><a xlink:href="classGridFinder.html#aaea3af418ab7124f2b25bcc124fccaca" target="_top" xlink:title="Get an estimate of the line through a given pixel. Find an estimate of the slope, then use that to de...">
<polygon fill="#ffffff" stroke="#000000" points="526,-130 526,-160 654,-160 654,-130 526,-130"/>
<text text-anchor="start" x="534" y="-148" font-family="Helvetica,sans-Serif" font-size="10.00" fill="#000000">GridFinder::getFirstLine</text>
<text text-anchor="middle" x="590" y="-137" font-family="Helvetica,sans-Serif" font-size="10.00" fill="#000000">Estimate</text>
</a>
</g>
</g>
<!-- Node12&#45;&gt;Node13 -->
<g id="edge3" class="edge">
<title>Node12&#45;&gt;Node13</title>
<path fill="none" stroke="#191970" d="M706.6154,-168.3899C689.849,-165.027 671.445,-161.3357 654.3113,-157.8991"/>
<polygon fill="#191970" stroke="#191970" points="706.3241,-171.9011 716.8171,-170.4361 707.7007,-165.0378 706.3241,-171.9011"/>
</g>
<!-- Node16 -->
<g id="node7" class="node">
<title>Node16</title>
<g id="a_node7"><a xlink:href="classGridFinder.html#abcd46f31e256080b2d5d2aee03c0e258" target="_top" xlink:title="Find the middle of a line.">
<polygon fill="#ffffff" stroke="#000000" points="881,-44.5 881,-63.5 1001,-63.5 1001,-44.5 881,-44.5"/>
<text text-anchor="middle" x="941" y="-51.5" font-family="Helvetica,sans-Serif" font-size="10.00" fill="#000000">GridFinder::getMiddle</text>
</a>
</g>
</g>
<!-- Node15&#45;&gt;Node16 -->
<g id="edge6" class="edge">
<title>Node15&#45;&gt;Node16</title>
<path fill="none" stroke="#191970" d="M1035.5897,-54C1023.9633,-54 1012.2466,-54 1001.2095,-54"/>
<polygon fill="#191970" stroke="#191970" points="1035.7643,-57.5001 1045.7643,-54 1035.7643,-50.5001 1035.7643,-57.5001"/>
</g>
<!-- Node17 -->
<g id="node8" class="node">
<title>Node17</title>
<g id="a_node8"><a xlink:href="classGridFinder.html#af830abf29ca6dc9c01197a38fe16e1e5" target="_top" xlink:title="In exceptional cases, we might want to find the middle of a line in a point that happens to lie at th...">
<polygon fill="#ffffff" stroke="#000000" points="693,-121 693,-151 836,-151 836,-121 693,-121"/>
<text text-anchor="start" x="701" y="-139" font-family="Helvetica,sans-Serif" font-size="10.00" fill="#000000">GridFinder::getMiddleWith</text>
<text text-anchor="middle" x="764.5" y="-128" font-family="Helvetica,sans-Serif" font-size="10.00" fill="#000000">Retries</text>
</a>
</g>
</g>
<!-- Node16&#45;&gt;Node17 -->
<g id="edge7" class="edge">
<title>Node16&#45;&gt;Node17</title>
<path fill="none" stroke="#191970" d="M911.2004,-67.8446C879.5157,-82.5649 829.5651,-105.7714 796.9162,-120.9398"/>
<polygon fill="#191970" stroke="#191970" points="912.8134,-70.9545 920.4078,-63.5669 909.864,-64.6062 912.8134,-70.9545"/>
</g>
<!-- Node18 -->
<g id="node9" class="node">
<title>Node18</title>
<g id="a_node9"><a xlink:href="classGridFinder.html#ae12ca7921b02b37417d87fc737f0134d" target="_top" xlink:title="Check if there could be a valid line going through the given point, and if so, find and return the ac...">
<polygon fill="#ffffff" stroke="#000000" points="704,-44.5 704,-63.5 825,-63.5 825,-44.5 704,-44.5"/>
<text text-anchor="middle" x="764.5" y="-51.5" font-family="Helvetica,sans-Serif" font-size="10.00" fill="#000000">GridFinder::checkLine</text>
</a>
</g>
</g>
<!-- Node16&#45;&gt;Node18 -->
<g id="edge9" class="edge">
<title>Node16&#45;&gt;Node18</title>
<path fill="none" stroke="#191970" d="M870.4814,-54C855.4475,-54 839.6975,-54 825.0754,-54"/>
<polygon fill="#191970" stroke="#191970" points="870.7524,-57.5001 880.7524,-54 870.7523,-50.5001 870.7524,-57.5001"/>
</g>
<!-- Node17&#45;&gt;Node13 -->
<g id="edge8" class="edge">
<title>Node17&#45;&gt;Node13</title>
<path fill="none" stroke="#191970" d="M682.5054,-140.2289C672.9971,-140.7193 663.4052,-141.2141 654.1837,-141.6897"/>
<polygon fill="#191970" stroke="#191970" points="682.9623,-143.7101 692.7688,-139.6996 682.6017,-136.7194 682.9623,-143.7101"/>
</g>
<!-- Node19 -->
<g id="node10" class="node">
<title>Node19</title>
<g id="a_node10"><a xlink:href="classGridFinder.html#a6dec96f8c6ed97647f692fa9f9908595" target="_top" xlink:title="Follow the given line to find the line perpendicular to it. Move along the line for minDistance pixel...">
<polygon fill="#ffffff" stroke="#000000" points="523,-72.5 523,-91.5 657,-91.5 657,-72.5 523,-72.5"/>
<text text-anchor="middle" x="590" y="-79.5" font-family="Helvetica,sans-Serif" font-size="10.00" fill="#000000">GridFinder::findNextLine</text>
</a>
</g>
</g>
<!-- Node18&#45;&gt;Node19 -->
<g id="edge10" class="edge">
<title>Node18&#45;&gt;Node19</title>
<path fill="none" stroke="#191970" d="M694.6661,-65.2054C679.6337,-67.6175 663.8824,-70.1449 649.2965,-72.4854"/>
<polygon fill="#191970" stroke="#191970" points="695.6159,-68.5979 704.9351,-63.5577 694.5068,-61.6863 695.6159,-68.5979"/>
</g>
<!-- Node20 -->
<g id="node11" class="node">
<title>Node20</title>
<g id="a_node11"><a xlink:href="classGridFinder.html#ad1a5448de0df9a84f989f64b55025843" target="_top" xlink:title="Equivalent to #findNextLine(LineResult,bool,uint,uint) but also supports optional LineResults.">
<polygon fill="#ffffff" stroke="#000000" points="353,-91.5 353,-110.5 487,-110.5 487,-91.5 353,-91.5"/>
<text text-anchor="middle" x="420" y="-98.5" font-family="Helvetica,sans-Serif" font-size="10.00" fill="#000000">GridFinder::findNextLine</text>
</a>
</g>
</g>
<!-- Node19&#45;&gt;Node20 -->
<g id="edge11" class="edge">
<title>Node19&#45;&gt;Node20</title>
<path fill="none" stroke="#191970" d="M512.854,-90.6222C504.3121,-91.5769 495.6634,-92.5435 487.2572,-93.483"/>
<polygon fill="#191970" stroke="#191970" points="513.2622,-94.0985 522.8115,-89.5093 512.4846,-87.1418 513.2622,-94.0985"/>
</g>
<!-- Node21 -->
<g id="node12" class="node">
<title>Node21</title>
<g id="a_node12"><a xlink:href="classGridFinder.html#a701c0c1e70d01bb8773a89a29f6673a0" target="_top" xlink:title="This is the main function: it looks for a complete square of the grid, as close to the center of the ...">
<polygon fill="#ffffff" stroke="#000000" points="358,-53.5 358,-72.5 482,-72.5 482,-53.5 358,-53.5"/>
<text text-anchor="middle" x="420" y="-60.5" font-family="Helvetica,sans-Serif" font-size="10.00" fill="#000000">GridFinder::findSquare</text>
</a>
</g>
</g>
<!-- Node19&#45;&gt;Node21 -->
<g id="edge12" class="edge">
<title>Node19&#45;&gt;Node21</title>
<path fill="none" stroke="#191970" d="M512.624,-73.3521C502.3644,-72.2054 491.9554,-71.0421 482.0015,-69.9296"/>
<polygon fill="#191970" stroke="#191970" points="512.4846,-76.8582 522.8115,-74.4907 513.2622,-69.9015 512.4846,-76.8582"/>
</g>
<!-- Node22 -->
<g id="node13" class="node">
<title>Node22</title>
<g id="a_node13"><a xlink:href="classLocationFinder.html#af56756d038d762e04e0c91bac9fc2522" target="_top" xlink:title="Read a new frame, mask it, run GridFinder, and get the position of the drone. The position is the pos...">
<polygon fill="#ffffff" stroke="#000000" points="149,-34.5 149,-53.5 317,-53.5 317,-34.5 149,-34.5"/>
<text text-anchor="middle" x="233" y="-41.5" font-family="Helvetica,sans-Serif" font-size="10.00" fill="#000000">LocationFinder::updateLocation</text>
</a>
</g>
</g>
<!-- Node21&#45;&gt;Node22 -->
<g id="edge13" class="edge">
<title>Node21&#45;&gt;Node22</title>
<path fill="none" stroke="#191970" d="M348.0281,-55.6873C337.9278,-54.6611 327.4731,-53.5989 317.1709,-52.5521"/>
<polygon fill="#191970" stroke="#191970" points="347.6888,-59.1708 357.9915,-56.6997 348.3965,-52.2067 347.6888,-59.1708"/>
</g>
<!-- Node23 -->
<g id="node14" class="node">
<title>Node23</title>
<g id="a_node14"><a xlink:href="Grid-Finder_8module_8hpp.html#a6849f4dcdb45a7aaadcda6439233d376" target="_top" xlink:title=" ">
<polygon fill="#ffffff" stroke="#000000" points="0,-53.5 0,-72.5 113,-72.5 113,-53.5 0,-53.5"/>
<text text-anchor="middle" x="56.5" y="-60.5" font-family="Helvetica,sans-Serif" font-size="10.00" fill="#000000">PYBIND11_MODULE</text>
</a>
</g>
</g>
<!-- Node21&#45;&gt;Node23 -->
<g id="edge15" class="edge">
<title>Node21&#45;&gt;Node23</title>
<path fill="none" stroke="#191970" d="M347.5872,-63C278.6832,-63 176.4113,-63 113.2349,-63"/>
<polygon fill="#191970" stroke="#191970" points="347.9252,-66.5001 357.9251,-63 347.9251,-59.5001 347.9252,-66.5001"/>
</g>
<!-- Node22&#45;&gt;Node23 -->
<g id="edge14" class="edge">
<title>Node22&#45;&gt;Node23</title>
<path fill="none" stroke="#191970" d="M138.9025,-54.1295C130.0733,-55.0799 121.3225,-56.0219 113.0056,-56.9172"/>
<polygon fill="#191970" stroke="#191970" points="139.3175,-57.6051 148.8854,-53.0548 138.5682,-50.6453 139.3175,-57.6051"/>
</g>
<!-- Node25&#45;&gt;Node16 -->
<g id="edge18" class="edge">
<title>Node25&#45;&gt;Node16</title>
<path fill="none" stroke="#191970" d="M1072.7639,-86.031C1043.6707,-78.9586 1007.3381,-70.1264 980.1977,-63.5287"/>
<polygon fill="#191970" stroke="#191970" points="1072.1819,-89.4914 1082.7257,-88.4527 1073.8355,-82.6895 1072.1819,-89.4914"/>
</g>
<!-- Node25&#45;&gt;Node17 -->
<g id="edge19" class="edge">
<title>Node25&#45;&gt;Node17</title>
<path fill="none" stroke="#191970" d="M1061.8535,-104.3932C999.5945,-111.0109 902.3528,-121.3471 836.1534,-128.3837"/>
<polygon fill="#191970" stroke="#191970" points="1062.3407,-107.8612 1071.9147,-103.3237 1061.6008,-100.9004 1062.3407,-107.8612"/>
</g>
<!-- Node25&#45;&gt;Node19 -->
<g id="edge20" class="edge">
<title>Node25&#45;&gt;Node19</title>
<path fill="none" stroke="#191970" d="M1061.7056,-96.1866C961.5963,-93.1758 761.7784,-87.1663 657.2507,-84.0226"/>
<polygon fill="#191970" stroke="#191970" points="1061.85,-99.6925 1071.9507,-96.4948 1062.0605,-92.6956 1061.85,-99.6925"/>
</g>
</g>
</svg>
