<?xml version="1.0" encoding="UTF-8" standalone="no"?>
<!DOCTYPE svg PUBLIC "-//W3C//DTD SVG 1.1//EN"
 "http://www.w3.org/Graphics/SVG/1.1/DTD/svg11.dtd">
<!-- Generated by graphviz version 2.40.1 (20161225.0304)
 -->
<!-- Title: GridFinder::findNextLine Pages: 1 -->
<svg width="1316pt" height="515pt"
 viewBox="0.00 0.00 1316.00 515.00" xmlns="http://www.w3.org/2000/svg" xmlns:xlink="http://www.w3.org/1999/xlink">
<g id="graph0" class="graph" transform="scale(1 1) rotate(0) translate(4 511)">
<title>GridFinder::findNextLine</title>
<polygon fill="#ffffff" stroke="transparent" points="-4,4 -4,-511 1312,-511 1312,4 -4,4"/>
<!-- Node128 -->
<g id="node1" class="node">
<title>Node128</title>
<g id="a_node1"><a xlink:title="Equivalent to #findNextLine(LineResult,bool,uint,uint) but also supports optional LineResults.">
<polygon fill="#bfbfbf" stroke="#000000" points="0,-316.5 0,-335.5 134,-335.5 134,-316.5 0,-316.5"/>
<text text-anchor="middle" x="67" y="-323.5" font-family="Helvetica,sans-Serif" font-size="10.00" fill="#000000">GridFinder::findNextLine</text>
</a>
</g>
</g>
<!-- Node129 -->
<g id="node2" class="node">
<title>Node129</title>
<g id="a_node2"><a xlink:href="classGridFinder.html#a54369e6368334eb2924ca70ee1f1d438" target="_top" xlink:title="Follow the given line to find the line perpendicular to it. Move along the line for minDistance pixel...">
<polygon fill="#ffffff" stroke="#000000" points="170,-316.5 170,-335.5 304,-335.5 304,-316.5 170,-316.5"/>
<text text-anchor="middle" x="237" y="-323.5" font-family="Helvetica,sans-Serif" font-size="10.00" fill="#000000">GridFinder::findNextLine</text>
</a>
</g>
</g>
<!-- Node128&#45;&gt;Node129 -->
<g id="edge1" class="edge">
<title>Node128&#45;&gt;Node129</title>
<path fill="none" stroke="#191970" d="M134.1885,-326C142.5021,-326 151.0537,-326 159.5056,-326"/>
<polygon fill="#191970" stroke="#191970" points="159.7429,-329.5001 169.7428,-326 159.7428,-322.5001 159.7429,-329.5001"/>
</g>
<!-- Node130 -->
<g id="node3" class="node">
<title>Node130</title>
<g id="a_node3"><a xlink:href="classAngle.html#aa9c7edb3027272ad1e45098383f0a94d" target="_top" xlink:title=" ">
<polygon fill="#ffffff" stroke="#000000" points="342,-487.5 342,-506.5 459,-506.5 459,-487.5 342,-487.5"/>
<text text-anchor="middle" x="400.5" y="-494.5" font-family="Helvetica,sans-Serif" font-size="10.00" fill="#000000">Angle::perpendicular</text>
</a>
</g>
</g>
<!-- Node129&#45;&gt;Node130 -->
<g id="edge2" class="edge">
<title>Node129&#45;&gt;Node130</title>
<path fill="none" stroke="#191970" d="M241.313,-335.6999C253.2799,-361.58 289.3845,-433.0121 340,-473 345.0623,-476.9993 350.8757,-480.4085 356.8535,-483.2919"/>
<polygon fill="#191970" stroke="#191970" points="355.732,-486.6207 366.2982,-487.3993 358.5237,-480.2015 355.732,-486.6207"/>
</g>
<!-- Node131 -->
<g id="node4" class="node">
<title>Node131</title>
<g id="a_node4"><a xlink:href="classGridFinder.html#af8bdc28d95e295618c2f345f2d7eb758" target="_top" xlink:title="Move a pixel in a given direction for a given distance.">
<polygon fill="#ffffff" stroke="#000000" points="699,-316.5 699,-335.5 799,-335.5 799,-316.5 699,-316.5"/>
<text text-anchor="middle" x="749" y="-323.5" font-family="Helvetica,sans-Serif" font-size="10.00" fill="#000000">GridFinder::move</text>
</a>
</g>
</g>
<!-- Node129&#45;&gt;Node131 -->
<g id="edge3" class="edge">
<title>Node129&#45;&gt;Node131</title>
<path fill="none" stroke="#191970" d="M304.1981,-326C404.5851,-326 592.1865,-326 688.514,-326"/>
<polygon fill="#191970" stroke="#191970" points="688.6715,-329.5001 698.6715,-326 688.6715,-322.5001 688.6715,-329.5001"/>
</g>
<!-- Node132 -->
<g id="node5" class="node">
<title>Node132</title>
<g id="a_node5"><a xlink:href="classGridFinder.html#aadfce89f171d55f954a19d700b43ff5c" target="_top" xlink:title="Get the width of the frame.">
<polygon fill="#ffffff" stroke="#000000" points="886.5,-392.5 886.5,-411.5 985.5,-411.5 985.5,-392.5 886.5,-392.5"/>
<text text-anchor="middle" x="936" y="-399.5" font-family="Helvetica,sans-Serif" font-size="10.00" fill="#000000">GridFinder::width</text>
</a>
</g>
</g>
<!-- Node129&#45;&gt;Node132 -->
<g id="edge13" class="edge">
<title>Node129&#45;&gt;Node132</title>
<path fill="none" stroke="#191970" d="M242.3682,-335.7257C255.4938,-358.3546 291.7005,-414.1884 340,-435 536.4763,-519.6591 803.6557,-446.3158 899.7333,-414.7481"/>
<polygon fill="#191970" stroke="#191970" points="900.9021,-418.0479 909.28,-411.5625 898.6863,-411.4078 900.9021,-418.0479"/>
</g>
<!-- Node134 -->
<g id="node7" class="node">
<title>Node134</title>
<g id="a_node7"><a xlink:href="classGridFinder.html#affd9ae441c8d86b1856a9ef31190e9ab" target="_top" xlink:title="Get the height of the frame.">
<polygon fill="#ffffff" stroke="#000000" points="884.5,-190.5 884.5,-209.5 987.5,-209.5 987.5,-190.5 884.5,-190.5"/>
<text text-anchor="middle" x="936" y="-197.5" font-family="Helvetica,sans-Serif" font-size="10.00" fill="#000000">GridFinder::height</text>
</a>
</g>
</g>
<!-- Node129&#45;&gt;Node134 -->
<g id="edge14" class="edge">
<title>Node129&#45;&gt;Node134</title>
<path fill="none" stroke="#191970" d="M289.8251,-316.4779C416.7598,-293.5969 738.4301,-235.6135 874.1168,-211.1549"/>
<polygon fill="#191970" stroke="#191970" points="875.1157,-214.5313 884.3361,-209.3128 873.8738,-207.6424 875.1157,-214.5313"/>
</g>
<!-- Node136 -->
<g id="node9" class="node">
<title>Node136</title>
<g id="a_node9"><a xlink:href="classBresenhamLine.html#aba0822ee20811d67cd9539ccbe1cd346" target="_top" xlink:title=" ">
<polygon fill="#ffffff" stroke="#000000" points="1047,-335.5 1047,-354.5 1186,-354.5 1186,-335.5 1047,-335.5"/>
<text text-anchor="middle" x="1116.5" y="-342.5" font-family="Helvetica,sans-Serif" font-size="10.00" fill="#000000">BresenhamLine::hasNext</text>
</a>
</g>
</g>
<!-- Node129&#45;&gt;Node136 -->
<g id="edge16" class="edge">
<title>Node129&#45;&gt;Node136</title>
<path fill="none" stroke="#191970" d="M263.3258,-335.6273C283.9317,-342.8076 313.4496,-352.3193 340,-358 568.0801,-406.7999 628.1798,-406.9746 861,-421 927.546,-425.0088 949.7583,-447.342 1011,-421 1032.3713,-411.8075 1028.5698,-397.1973 1047,-383 1058.8934,-373.8382 1073.2822,-365.5797 1085.8752,-359.1204"/>
<polygon fill="#191970" stroke="#191970" points="1087.6849,-362.1296 1095.084,-354.5465 1084.5709,-355.8603 1087.6849,-362.1296"/>
</g>
<!-- Node139 -->
<g id="node12" class="node">
<title>Node139</title>
<g id="a_node12"><a xlink:href="classBresenhamLine.html#a10d505e30945f42a5cd0270c315b104f" target="_top" xlink:title=" ">
<polygon fill="#ffffff" stroke="#000000" points="876,-354.5 876,-373.5 996,-373.5 996,-354.5 876,-354.5"/>
<text text-anchor="middle" x="936" y="-361.5" font-family="Helvetica,sans-Serif" font-size="10.00" fill="#000000">BresenhamLine::next</text>
</a>
</g>
</g>
<!-- Node129&#45;&gt;Node139 -->
<g id="edge15" class="edge">
<title>Node129&#45;&gt;Node139</title>
<path fill="none" stroke="#191970" d="M299.8065,-335.5016C313.0544,-337.2348 326.9666,-338.8544 340,-340 529.5671,-356.6622 754.0847,-361.7698 865.6974,-363.3257"/>
<polygon fill="#191970" stroke="#191970" points="865.7699,-366.8269 875.8159,-363.4612 865.8638,-359.8275 865.7699,-366.8269"/>
</g>
<!-- Node140 -->
<g id="node13" class="node">
<title>Node140</title>
<g id="a_node13"><a xlink:href="classGridFinder.html#afbed8951f70923626b73abdbe05236da" target="_top" xlink:title="Get the value of the given pixel.">
<polygon fill="#ffffff" stroke="#000000" points="892,-76.5 892,-95.5 980,-95.5 980,-76.5 892,-76.5"/>
<text text-anchor="middle" x="936" y="-83.5" font-family="Helvetica,sans-Serif" font-size="10.00" fill="#000000">GridFinder::get</text>
</a>
</g>
</g>
<!-- Node129&#45;&gt;Node140 -->
<g id="edge17" class="edge">
<title>Node129&#45;&gt;Node140</title>
<path fill="none" stroke="#191970" d="M240.8967,-316.4173C252.0621,-290.2289 286.8219,-217.0166 340,-181 510.3576,-65.6197 770.0464,-71.3512 881.7825,-80.2814"/>
<polygon fill="#191970" stroke="#191970" points="881.5495,-83.7741 891.8074,-81.1236 882.1355,-76.7987 881.5495,-83.7741"/>
</g>
<!-- Node141 -->
<g id="node14" class="node">
<title>Node141</title>
<g id="a_node14"><a xlink:href="structPixel.html#ac3b82b3e3cd3b812dc1a0bccb474511f" target="_top" xlink:title=" ">
<polygon fill="#ffffff" stroke="#000000" points="357.5,-.5 357.5,-19.5 443.5,-19.5 443.5,-.5 357.5,-.5"/>
<text text-anchor="middle" x="400.5" y="-7.5" font-family="Helvetica,sans-Serif" font-size="10.00" fill="#000000">Pixel::average</text>
</a>
</g>
</g>
<!-- Node129&#45;&gt;Node141 -->
<g id="edge19" class="edge">
<title>Node129&#45;&gt;Node141</title>
<path fill="none" stroke="#191970" d="M237.5894,-316.4669C240.5639,-276.4306 257.257,-119.995 340,-34 343.6762,-30.1793 348.0372,-26.953 352.7086,-24.2314"/>
<polygon fill="#191970" stroke="#191970" points="354.5978,-27.1999 361.9759,-19.5963 351.4665,-20.9393 354.5978,-27.1999"/>
</g>
<!-- Node142 -->
<g id="node15" class="node">
<title>Node142</title>
<g id="a_node15"><a xlink:href="classGridFinder.html#ae12ca7921b02b37417d87fc737f0134d" target="_top" xlink:title="Check if there could be a valid line going through the given point, and if so, find and return the ac...">
<polygon fill="#ffffff" stroke="#000000" points="340,-190.5 340,-209.5 461,-209.5 461,-190.5 340,-190.5"/>
<text text-anchor="middle" x="400.5" y="-197.5" font-family="Helvetica,sans-Serif" font-size="10.00" fill="#000000">GridFinder::checkLine</text>
</a>
</g>
</g>
<!-- Node129&#45;&gt;Node142 -->
<g id="edge20" class="edge">
<title>Node129&#45;&gt;Node142</title>
<path fill="none" stroke="#191970" d="M244.5183,-316.2659C260.2713,-296.4441 298.7158,-250.9942 340,-224 346.1769,-219.9611 353.1399,-216.421 360.0859,-213.3879"/>
<polygon fill="#191970" stroke="#191970" points="361.5295,-216.5793 369.4718,-209.5671 358.8901,-210.0959 361.5295,-216.5793"/>
</g>
<!-- Node131&#45;&gt;Node132 -->
<g id="edge4" class="edge">
<title>Node131&#45;&gt;Node132</title>
<path fill="none" stroke="#191970" d="M765.1738,-335.6879C786.493,-348.1129 825.4632,-369.6466 861,-383 867.505,-385.4443 874.4437,-387.6767 881.3753,-389.6829"/>
<polygon fill="#191970" stroke="#191970" points="880.9043,-393.1832 891.4744,-392.4587 882.7596,-386.4335 880.9043,-393.1832"/>
</g>
<!-- Node131&#45;&gt;Node134 -->
<g id="edge6" class="edge">
<title>Node131&#45;&gt;Node134</title>
<path fill="none" stroke="#191970" d="M799.3373,-318.6477C808.3587,-315.91 817.3207,-312.1537 825,-307 847.4388,-291.9411 842.1283,-277.3424 861,-258 876.7587,-241.8482 897.1479,-226.3622 912.6889,-215.461"/>
<polygon fill="#191970" stroke="#191970" points="914.9515,-218.1528 921.2072,-209.602 910.9845,-212.3853 914.9515,-218.1528"/>
</g>
<!-- Node131&#45;&gt;Node136 -->
<g id="edge8" class="edge">
<title>Node131&#45;&gt;Node136</title>
<path fill="none" stroke="#191970" d="M799.3287,-328.602C860.4099,-331.76 964.1664,-337.1243 1036.3055,-340.8539"/>
<polygon fill="#191970" stroke="#191970" points="1036.5433,-344.3708 1046.7107,-341.3918 1036.9048,-337.3801 1036.5433,-344.3708"/>
</g>
<!-- Node138 -->
<g id="node11" class="node">
<title>Node138</title>
<g id="a_node11"><a xlink:href="classBresenhamLine.html#ad93a4adf0535a9b4e649bce5ade1bc5e" target="_top" xlink:title=" ">
<polygon fill="#ffffff" stroke="#000000" points="861,-267 861,-297 1011,-297 1011,-267 861,-267"/>
<text text-anchor="start" x="869" y="-285" font-family="Helvetica,sans-Serif" font-size="10.00" fill="#000000">BresenhamLine::getCurrent</text>
<text text-anchor="middle" x="936" y="-274" font-family="Helvetica,sans-Serif" font-size="10.00" fill="#000000">Length</text>
</a>
</g>
</g>
<!-- Node131&#45;&gt;Node138 -->
<g id="edge10" class="edge">
<title>Node131&#45;&gt;Node138</title>
<path fill="none" stroke="#191970" d="M789.5762,-316.4527C810.8182,-311.4545 837.4942,-305.1778 862.2379,-299.3558"/>
<polygon fill="#191970" stroke="#191970" points="863.0397,-302.7628 871.9722,-297.0654 861.4364,-295.9489 863.0397,-302.7628"/>
</g>
<!-- Node131&#45;&gt;Node139 -->
<g id="edge11" class="edge">
<title>Node131&#45;&gt;Node139</title>
<path fill="none" stroke="#191970" d="M796.188,-335.589C821.4205,-340.7165 852.673,-347.0672 879.2268,-352.4632"/>
<polygon fill="#191970" stroke="#191970" points="878.6546,-355.9184 889.1513,-354.4799 880.0486,-349.0586 878.6546,-355.9184"/>
</g>
<!-- Node133 -->
<g id="node6" class="node">
<title>Node133</title>
<g id="a_node6"><a xlink:href="classMask.html#a4124a2daa1f7501d4fd80775b6217679" target="_top" xlink:title="Get the width of the mask in pixels.">
<polygon fill="#ffffff" stroke="#000000" points="1079,-392.5 1079,-411.5 1154,-411.5 1154,-392.5 1079,-392.5"/>
<text text-anchor="middle" x="1116.5" y="-399.5" font-family="Helvetica,sans-Serif" font-size="10.00" fill="#000000">Mask::width</text>
</a>
</g>
</g>
<!-- Node132&#45;&gt;Node133 -->
<g id="edge5" class="edge">
<title>Node132&#45;&gt;Node133</title>
<path fill="none" stroke="#191970" d="M985.8002,-402C1011.6634,-402 1043.1146,-402 1068.6829,-402"/>
<polygon fill="#191970" stroke="#191970" points="1068.8862,-405.5001 1078.8861,-402 1068.8861,-398.5001 1068.8862,-405.5001"/>
</g>
<!-- Node135 -->
<g id="node8" class="node">
<title>Node135</title>
<g id="a_node8"><a xlink:href="classMask.html#af845b7d3220b707c8b4c48bf87d045bb" target="_top" xlink:title="Get the height of the mask in pixels.">
<polygon fill="#ffffff" stroke="#000000" points="1077,-190.5 1077,-209.5 1156,-209.5 1156,-190.5 1077,-190.5"/>
<text text-anchor="middle" x="1116.5" y="-197.5" font-family="Helvetica,sans-Serif" font-size="10.00" fill="#000000">Mask::height</text>
</a>
</g>
</g>
<!-- Node134&#45;&gt;Node135 -->
<g id="edge7" class="edge">
<title>Node134&#45;&gt;Node135</title>
<path fill="none" stroke="#191970" d="M987.7241,-200C1012.5176,-200 1042.0868,-200 1066.6343,-200"/>
<polygon fill="#191970" stroke="#191970" points="1066.8188,-203.5001 1076.8187,-200 1066.8187,-196.5001 1066.8188,-203.5001"/>
</g>
<!-- Node137 -->
<g id="node10" class="node">
<title>Node137</title>
<g id="a_node10"><a xlink:href="structPixel.html#a816d743559e2ac5b35c9c79ac517ad0a" target="_top" xlink:title=" ">
<polygon fill="#ffffff" stroke="#000000" points="1222,-335.5 1222,-354.5 1308,-354.5 1308,-335.5 1222,-335.5"/>
<text text-anchor="middle" x="1265" y="-342.5" font-family="Helvetica,sans-Serif" font-size="10.00" fill="#000000">Pixel::inRange</text>
</a>
</g>
</g>
<!-- Node136&#45;&gt;Node137 -->
<g id="edge9" class="edge">
<title>Node136&#45;&gt;Node137</title>
<path fill="none" stroke="#191970" d="M1186.4016,-345C1194.8647,-345 1203.4033,-345 1211.5758,-345"/>
<polygon fill="#191970" stroke="#191970" points="1211.6984,-348.5001 1221.6984,-345 1211.6984,-341.5001 1211.6984,-348.5001"/>
</g>
<!-- Node139&#45;&gt;Node136 -->
<g id="edge12" class="edge">
<title>Node139&#45;&gt;Node136</title>
<path fill="none" stroke="#191970" d="M996.1039,-357.6733C1009.0978,-356.3055 1023.0336,-354.8386 1036.6494,-353.4053"/>
<polygon fill="#191970" stroke="#191970" points="1037.3996,-356.8458 1046.9782,-352.3181 1036.6667,-349.8842 1037.3996,-356.8458"/>
</g>
<!-- Node140&#45;&gt;Node140 -->
<g id="edge18" class="edge">
<title>Node140&#45;&gt;Node140</title>
<path fill="none" stroke="#191970" d="M908.2568,-95.7571C894.7601,-104.5653 904.0078,-114 936,-114 957.9946,-114 969.239,-109.5406 969.733,-103.8913"/>
<polygon fill="#191970" stroke="#191970" points="972.4911,-101.7341 963.7432,-95.7571 966.8544,-105.8848 972.4911,-101.7341"/>
</g>
<!-- Node143 -->
<g id="node16" class="node">
<title>Node143</title>
<g id="a_node16"><a xlink:href="classGridFinder.html#abcd46f31e256080b2d5d2aee03c0e258" target="_top" xlink:title="Find the middle of a line.">
<polygon fill="#ffffff" stroke="#000000" points="507,-152.5 507,-171.5 627,-171.5 627,-152.5 507,-152.5"/>
<text text-anchor="middle" x="567" y="-159.5" font-family="Helvetica,sans-Serif" font-size="10.00" fill="#000000">GridFinder::getMiddle</text>
</a>
</g>
</g>
<!-- Node142&#45;&gt;Node143 -->
<g id="edge21" class="edge">
<title>Node142&#45;&gt;Node143</title>
<path fill="none" stroke="#191970" d="M442.515,-190.411C464.6844,-185.3513 492.0732,-179.1004 515.511,-173.7512"/>
<polygon fill="#191970" stroke="#191970" points="516.3166,-177.1575 525.2871,-171.5201 514.759,-170.3329 516.3166,-177.1575"/>
</g>
<!-- Node148 -->
<g id="node21" class="node">
<title>Node148</title>
<g id="a_node21"><a xlink:href="classAngle.html#a84ce9a0e2a186ada6997077fd96d6e4c" target="_top" xlink:title=" ">
<polygon fill="#ffffff" stroke="#000000" points="497,-190.5 497,-209.5 637,-209.5 637,-190.5 497,-190.5"/>
<text text-anchor="middle" x="567" y="-197.5" font-family="Helvetica,sans-Serif" font-size="10.00" fill="#000000">Angle&lt; 360 &gt;::resolution</text>
</a>
</g>
</g>
<!-- Node142&#45;&gt;Node148 -->
<g id="edge35" class="edge">
<title>Node142&#45;&gt;Node148</title>
<path fill="none" stroke="#191970" d="M461.0813,-200C469.4351,-200 478.1186,-200 486.7587,-200"/>
<polygon fill="#191970" stroke="#191970" points="486.8594,-203.5001 496.8593,-200 486.8593,-196.5001 486.8594,-203.5001"/>
</g>
<!-- Node143&#45;&gt;Node131 -->
<g id="edge34" class="edge">
<title>Node143&#45;&gt;Node131</title>
<path fill="none" stroke="#191970" d="M623.3935,-171.5022C628.4003,-173.9929 633.0563,-177.1082 637,-181 678.4546,-221.9086 631.1371,-266.5093 673,-307 677.6833,-311.5298 683.2752,-315.0295 689.2717,-317.7262"/>
<polygon fill="#191970" stroke="#191970" points="688.3626,-321.1225 698.9553,-321.3353 690.8073,-314.5633 688.3626,-321.1225"/>
</g>
<!-- Node143&#45;&gt;Node140 -->
<g id="edge22" class="edge">
<title>Node143&#45;&gt;Node140</title>
<path fill="none" stroke="#191970" d="M603.6817,-152.4982C624.0411,-147.3517 649.8559,-141.0348 673,-136 744.8915,-120.3607 828.4348,-104.9446 881.7318,-95.4556"/>
<polygon fill="#191970" stroke="#191970" points="882.4136,-98.8893 891.6485,-93.6963 881.1908,-91.997 882.4136,-98.8893"/>
</g>
<!-- Node144 -->
<g id="node17" class="node">
<title>Node144</title>
<g id="a_node17"><a xlink:href="structCosSin.html#a4c63ac2c483b5caa4012f8c27d58dd96" target="_top" xlink:title=" ">
<polygon fill="#ffffff" stroke="#000000" points="700,-152.5 700,-171.5 798,-171.5 798,-152.5 700,-152.5"/>
<text text-anchor="middle" x="749" y="-159.5" font-family="Helvetica,sans-Serif" font-size="10.00" fill="#000000">CosSin::opposite</text>
</a>
</g>
</g>
<!-- Node143&#45;&gt;Node144 -->
<g id="edge23" class="edge">
<title>Node143&#45;&gt;Node144</title>
<path fill="none" stroke="#191970" d="M627.098,-162C647.201,-162 669.5871,-162 689.6339,-162"/>
<polygon fill="#191970" stroke="#191970" points="689.8794,-165.5001 699.8793,-162 689.8793,-158.5001 689.8794,-165.5001"/>
</g>
<!-- Node145 -->
<g id="node18" class="node">
<title>Node145</title>
<g id="a_node18"><a xlink:href="classGridFinder.html#ab5c436911deb269a22a8d5525271fa4e" target="_top" xlink:title="Get the width of the line at a given point.">
<polygon fill="#ffffff" stroke="#000000" points="673,-267 673,-297 825,-297 825,-267 673,-267"/>
<text text-anchor="start" x="681" y="-285" font-family="Helvetica,sans-Serif" font-size="10.00" fill="#000000">GridFinder::getWidthAtPoint</text>
<text text-anchor="middle" x="749" y="-274" font-family="Helvetica,sans-Serif" font-size="10.00" fill="#000000">OnLine</text>
</a>
</g>
</g>
<!-- Node143&#45;&gt;Node145 -->
<g id="edge24" class="edge">
<title>Node143&#45;&gt;Node145</title>
<path fill="none" stroke="#191970" d="M615.862,-171.5414C623.2241,-174.0207 630.5147,-177.1237 637,-181 656.9693,-192.9358 656.0139,-203.1033 673,-219 688.3766,-233.3905 706.5025,-248.4816 721.1955,-260.2851"/>
<polygon fill="#191970" stroke="#191970" points="719.4009,-263.3304 729.403,-266.8247 723.7631,-257.8558 719.4009,-263.3304"/>
</g>
<!-- Node146 -->
<g id="node19" class="node">
<title>Node146</title>
<g id="a_node19"><a xlink:href="structCosSin.html#adb1d000cc58879b65a63fac849408bfe" target="_top" xlink:title=" ">
<polygon fill="#ffffff" stroke="#000000" points="875,-142.5 875,-161.5 997,-161.5 997,-142.5 875,-142.5"/>
<text text-anchor="middle" x="936" y="-149.5" font-family="Helvetica,sans-Serif" font-size="10.00" fill="#000000">CosSin::perpendicular</text>
</a>
</g>
</g>
<!-- Node143&#45;&gt;Node146 -->
<g id="edge33" class="edge">
<title>Node143&#45;&gt;Node146</title>
<path fill="none" stroke="#191970" d="M610.0876,-152.4884C629.2465,-148.723 652.1427,-144.8545 673,-143 737.7687,-137.2411 811.8117,-140.6676 864.7969,-144.846"/>
<polygon fill="#191970" stroke="#191970" points="864.519,-148.3349 874.7708,-145.661 865.0891,-141.3581 864.519,-148.3349"/>
</g>
<!-- Node147 -->
<g id="node20" class="node">
<title>Node147</title>
<g id="a_node20"><a xlink:href="Array_8hpp.html#a54bae1a9c86ad6bc491b4f10495a759f" target="_top" xlink:title=" ">
<polygon fill="#ffffff" stroke="#000000" points="732,-190.5 732,-209.5 766,-209.5 766,-190.5 732,-190.5"/>
<text text-anchor="middle" x="749" y="-197.5" font-family="Helvetica,sans-Serif" font-size="10.00" fill="#000000">abs</text>
</a>
</g>
</g>
<!-- Node143&#45;&gt;Node147 -->
<g id="edge32" class="edge">
<title>Node143&#45;&gt;Node147</title>
<path fill="none" stroke="#191970" d="M612.9263,-171.589C647.2885,-178.7635 693.1222,-188.3332 721.8476,-194.3308"/>
<polygon fill="#191970" stroke="#191970" points="721.4554,-197.8243 731.9597,-196.4421 722.8861,-190.9721 721.4554,-197.8243"/>
</g>
<!-- Node145&#45;&gt;Node132 -->
<g id="edge25" class="edge">
<title>Node145&#45;&gt;Node132</title>
<path fill="none" stroke="#191970" d="M810.365,-297.1094C815.6417,-299.8731 820.6261,-303.1397 825,-307 853.0224,-331.7322 832.133,-359.259 861,-383 865.6522,-386.8261 870.9759,-389.8948 876.5931,-392.354"/>
<polygon fill="#191970" stroke="#191970" points="875.6639,-395.7424 886.2568,-395.9434 878.1013,-389.1805 875.6639,-395.7424"/>
</g>
<!-- Node145&#45;&gt;Node134 -->
<g id="edge26" class="edge">
<title>Node145&#45;&gt;Node134</title>
<path fill="none" stroke="#191970" d="M793.3967,-266.9326C804.0253,-262.6626 815.1434,-257.6239 825,-252 842.6056,-241.9547 843.0714,-233.4566 861,-224 869.2586,-219.6439 878.4487,-215.9039 887.4856,-212.7613"/>
<polygon fill="#191970" stroke="#191970" points="888.7669,-216.0247 897.18,-209.5849 886.5872,-209.3726 888.7669,-216.0247"/>
</g>
<!-- Node145&#45;&gt;Node136 -->
<g id="edge28" class="edge">
<title>Node145&#45;&gt;Node136</title>
<path fill="none" stroke="#191970" d="M792.6263,-266.9482C845.8241,-251.0628 937.705,-231.6768 1011,-258 1049.4897,-271.8232 1083.9506,-306.4374 1102.3762,-327.6022"/>
<polygon fill="#191970" stroke="#191970" points="1099.919,-330.117 1109.0475,-335.4949 1105.2651,-325.5982 1099.919,-330.117"/>
</g>
<!-- Node145&#45;&gt;Node138 -->
<g id="edge30" class="edge">
<title>Node145&#45;&gt;Node138</title>
<path fill="none" stroke="#191970" d="M825.0601,-282C833.5634,-282 842.2662,-282 850.8736,-282"/>
<polygon fill="#191970" stroke="#191970" points="850.9165,-285.5001 860.9165,-282 850.9165,-278.5001 850.9165,-285.5001"/>
</g>
<!-- Node145&#45;&gt;Node139 -->
<g id="edge29" class="edge">
<title>Node145&#45;&gt;Node139</title>
<path fill="none" stroke="#191970" d="M798.4738,-297.0268C807.3943,-300.0881 816.5424,-303.463 825,-307 855.2536,-319.6521 888.5394,-337.2714 910.6935,-349.5599"/>
<polygon fill="#191970" stroke="#191970" points="909.0298,-352.6396 919.4653,-354.47 912.4489,-346.5314 909.0298,-352.6396"/>
</g>
<!-- Node145&#45;&gt;Node140 -->
<g id="edge31" class="edge">
<title>Node145&#45;&gt;Node140</title>
<path fill="none" stroke="#191970" d="M772.8749,-266.7927C789.3278,-255.3143 810.7184,-238.2803 825,-219 849.6638,-185.7038 834.1885,-164.5924 861,-133 872.6635,-119.2567 889.3856,-108.2399 904.0814,-100.3366"/>
<polygon fill="#191970" stroke="#191970" points="906.0562,-103.2583 913.3725,-95.5952 902.8743,-97.0232 906.0562,-103.2583"/>
</g>
<!-- Node145&#45;&gt;Node146 -->
<g id="edge27" class="edge">
<title>Node145&#45;&gt;Node146</title>
<path fill="none" stroke="#191970" d="M768.597,-266.8247C784.2767,-254.4323 806.6055,-236.2148 825,-219 841.9861,-203.1033 841.6775,-193.9568 861,-181 870.4987,-174.6306 881.5985,-169.368 892.3018,-165.156"/>
<polygon fill="#191970" stroke="#191970" points="893.7986,-168.3342 901.9628,-161.5817 891.3696,-161.7691 893.7986,-168.3342"/>
</g>
</g>
</svg>
