<?xml version="1.0" encoding="UTF-8" standalone="no"?>
<!DOCTYPE svg PUBLIC "-//W3C//DTD SVG 1.1//EN"
 "http://www.w3.org/Graphics/SVG/1.1/DTD/svg11.dtd">
<!-- Generated by graphviz version 2.40.1 (20161225.0304)
 -->
<!-- Title: CryptoException::getExceptionType Pages: 1 -->
<svg width="619pt" height="116pt"
 viewBox="0.00 0.00 619.00 115.50" xmlns="http://www.w3.org/2000/svg" xmlns:xlink="http://www.w3.org/1999/xlink">
<g id="graph0" class="graph" transform="scale(1 1) rotate(0) translate(4 111.5)">
<title>CryptoException::getExceptionType</title>
<polygon fill="#ffffff" stroke="transparent" points="-4,4 -4,-111.5 615,-111.5 615,4 -4,4"/>
<!-- Node5 -->
<g id="node1" class="node">
<title>Node5</title>
<g id="a_node1"><a xlink:title=" ">
<polygon fill="#bfbfbf" stroke="#000000" points="422,-38.5 422,-57.5 611,-57.5 611,-38.5 422,-38.5"/>
<text text-anchor="middle" x="516.5" y="-45.5" font-family="Helvetica,sans-Serif" font-size="10.00" fill="#000000">CryptoException::getExceptionType</text>
</a>
</g>
</g>
<!-- Node6 -->
<g id="node2" class="node">
<title>Node6</title>
<g id="a_node2"><a xlink:href="classCryptoException.html#a94d9def761bd20ed17eb91dedfeebc51" target="_top" xlink:title=" ">
<polygon fill="#ffffff" stroke="#000000" points="219,-77 219,-107 386,-107 386,-77 219,-77"/>
<text text-anchor="start" x="227" y="-95" font-family="Helvetica,sans-Serif" font-size="10.00" fill="#000000">CryptoException::getException</text>
<text text-anchor="middle" x="302.5" y="-84" font-family="Helvetica,sans-Serif" font-size="10.00" fill="#000000">TypeName</text>
</a>
</g>
</g>
<!-- Node5&#45;&gt;Node6 -->
<g id="edge1" class="edge">
<title>Node5&#45;&gt;Node6</title>
<path fill="none" stroke="#191970" d="M460.0756,-59.6013C434.2642,-64.9083 403.3532,-71.2638 375.7725,-76.9346"/>
<polygon fill="#191970" stroke="#191970" points="460.975,-62.9897 470.0652,-57.5473 459.5652,-56.1331 460.975,-62.9897"/>
</g>
<!-- Node8 -->
<g id="node4" class="node">
<title>Node8</title>
<g id="a_node4"><a xlink:href="crypto_8cpp.html#adabfd974d585634ed2e9332c8c164941" target="_top" xlink:title="Decrypt the given QR code.">
<polygon fill="#ffffff" stroke="#000000" points="276,-38.5 276,-57.5 329,-57.5 329,-38.5 276,-38.5"/>
<text text-anchor="middle" x="302.5" y="-45.5" font-family="Helvetica,sans-Serif" font-size="10.00" fill="#000000">decrypt</text>
</a>
</g>
</g>
<!-- Node5&#45;&gt;Node8 -->
<g id="edge3" class="edge">
<title>Node5&#45;&gt;Node8</title>
<path fill="none" stroke="#191970" d="M411.3782,-48C380.8711,-48 350.1604,-48 329.1697,-48"/>
<polygon fill="#191970" stroke="#191970" points="411.702,-51.5001 421.7019,-48 411.7019,-44.5001 411.702,-51.5001"/>
</g>
<!-- Node10 -->
<g id="node6" class="node">
<title>Node10</title>
<g id="a_node6"><a xlink:href="crypto_8cpp.html#a7f69ce9864a092ee96aa3b9a299e6074" target="_top" xlink:title="Decrypt the given QR code without retries.">
<polygon fill="#ffffff" stroke="#000000" points="268.5,-.5 268.5,-19.5 336.5,-19.5 336.5,-.5 268.5,-.5"/>
<text text-anchor="middle" x="302.5" y="-7.5" font-family="Helvetica,sans-Serif" font-size="10.00" fill="#000000">tryDecrypt</text>
</a>
</g>
</g>
<!-- Node5&#45;&gt;Node10 -->
<g id="edge5" class="edge">
<title>Node5&#45;&gt;Node10</title>
<path fill="none" stroke="#191970" d="M452.8103,-36.6906C414.7914,-29.9396 367.9961,-21.6301 336.8165,-16.0936"/>
<polygon fill="#191970" stroke="#191970" points="452.3171,-40.1577 462.775,-38.46 453.541,-33.2655 452.3171,-40.1577"/>
</g>
<!-- Node7 -->
<g id="node3" class="node">
<title>Node7</title>
<g id="a_node3"><a xlink:href="classCryptoException.html#a14be93aed45bc1fe88271b250ed99c2f" target="_top" xlink:title=" ">
<polygon fill="#ffffff" stroke="#000000" points="0,-82.5 0,-101.5 183,-101.5 183,-82.5 0,-82.5"/>
<text text-anchor="middle" x="91.5" y="-89.5" font-family="Helvetica,sans-Serif" font-size="10.00" fill="#000000">CryptoException::CryptoException</text>
</a>
</g>
</g>
<!-- Node6&#45;&gt;Node7 -->
<g id="edge2" class="edge">
<title>Node6&#45;&gt;Node7</title>
<path fill="none" stroke="#191970" d="M208.5474,-92C200.0857,-92 191.5238,-92 183.0828,-92"/>
<polygon fill="#191970" stroke="#191970" points="208.8042,-95.5001 218.8042,-92 208.8041,-88.5001 208.8042,-95.5001"/>
</g>
<!-- Node9 -->
<g id="node5" class="node">
<title>Node9</title>
<g id="a_node5"><a xlink:href="classQRCryptoManager.html#adce85dbb0a3457d79025813c2dea59df" target="_top" xlink:title=" ">
<polygon fill="#ffffff" stroke="#000000" points="2.5,-38.5 2.5,-57.5 180.5,-57.5 180.5,-38.5 2.5,-38.5"/>
<text text-anchor="middle" x="91.5" y="-45.5" font-family="Helvetica,sans-Serif" font-size="10.00" fill="#000000">QRCryptoManager::decodeCrypto</text>
</a>
</g>
</g>
<!-- Node8&#45;&gt;Node9 -->
<g id="edge4" class="edge">
<title>Node8&#45;&gt;Node9</title>
<path fill="none" stroke="#191970" d="M265.5519,-48C241.9887,-48 210.3792,-48 180.5649,-48"/>
<polygon fill="#191970" stroke="#191970" points="265.7767,-51.5001 275.7767,-48 265.7767,-44.5001 265.7767,-51.5001"/>
</g>
</g>
</svg>
