<?xml version="1.0" encoding="UTF-8" standalone="no"?>
<!DOCTYPE svg PUBLIC "-//W3C//DTD SVG 1.1//EN"
 "http://www.w3.org/Graphics/SVG/1.1/DTD/svg11.dtd">
<!-- Generated by graphviz version 2.40.1 (20161225.0304)
 -->
<!-- Title: QRCryptoManager::decodeCrypto Pages: 1 -->
<svg width="574pt" height="290pt"
 viewBox="0.00 0.00 574.00 290.00" xmlns="http://www.w3.org/2000/svg" xmlns:xlink="http://www.w3.org/1999/xlink">
<g id="graph0" class="graph" transform="scale(1 1) rotate(0) translate(4 286)">
<title>QRCryptoManager::decodeCrypto</title>
<polygon fill="#ffffff" stroke="transparent" points="-4,4 -4,-286 570,-286 570,4 -4,4"/>
<!-- Node0 -->
<g id="node1" class="node">
<title>Node0</title>
<g id="a_node1"><a xlink:title=" ">
<polygon fill="#bfbfbf" stroke="#000000" points="0,-142.5 0,-161.5 178,-161.5 178,-142.5 0,-142.5"/>
<text text-anchor="middle" x="89" y="-149.5" font-family="Helvetica,sans-Serif" font-size="10.00" fill="#000000">QRCryptoManager::decodeCrypto</text>
</a>
</g>
</g>
<!-- Node1 -->
<g id="node2" class="node">
<title>Node1</title>
<g id="a_node2"><a xlink:href="namespaceBase64.html#afeefe1a5b78fa9c4ccc1daf9e30d6184" target="_top" xlink:title="Decode the given base64&#45;encoded string.">
<polygon fill="#ffffff" stroke="#000000" points="230.5,-262.5 230.5,-281.5 324.5,-281.5 324.5,-262.5 230.5,-262.5"/>
<text text-anchor="middle" x="277.5" y="-269.5" font-family="Helvetica,sans-Serif" font-size="10.00" fill="#000000">Base64::decode</text>
</a>
</g>
</g>
<!-- Node0&#45;&gt;Node1 -->
<g id="edge1" class="edge">
<title>Node0&#45;&gt;Node1</title>
<path fill="none" stroke="#191970" d="M98.1105,-161.5368C117.5668,-181.375 165.3797,-227.3676 214,-253 218.2308,-255.2304 222.7615,-257.2374 227.3834,-259.0348"/>
<polygon fill="#191970" stroke="#191970" points="226.3367,-262.3773 236.9313,-262.434 228.6845,-255.7827 226.3367,-262.3773"/>
</g>
<!-- Node2 -->
<g id="node3" class="node">
<title>Node2</title>
<g id="a_node3"><a xlink:href="crypto_8hpp.html#ac7aec84cd9b29bd73046db2ea5a8a020" target="_top" xlink:title="Decrypt the given QR code.">
<polygon fill="#ffffff" stroke="#000000" points="251,-224.5 251,-243.5 304,-243.5 304,-224.5 251,-224.5"/>
<text text-anchor="middle" x="277.5" y="-231.5" font-family="Helvetica,sans-Serif" font-size="10.00" fill="#000000">decrypt</text>
</a>
</g>
</g>
<!-- Node0&#45;&gt;Node2 -->
<g id="edge2" class="edge">
<title>Node0&#45;&gt;Node2</title>
<path fill="none" stroke="#191970" d="M108.7174,-161.6938C133.183,-173.595 176.2864,-194.1484 214,-210 222.7767,-213.689 232.3372,-217.4396 241.313,-220.8456"/>
<polygon fill="#191970" stroke="#191970" points="240.1662,-224.1535 250.7585,-224.387 242.6238,-217.599 240.1662,-224.1535"/>
</g>
<!-- Node3 -->
<g id="node4" class="node">
<title>Node3</title>
<g id="a_node4"><a xlink:href="classCryptoInstruction.html#abf404632060ee7fdf292868fb62cd786" target="_top" xlink:title=" ">
<polygon fill="#ffffff" stroke="#000000" points="418,-112 418,-142 525,-142 525,-112 418,-112"/>
<text text-anchor="start" x="426" y="-130" font-family="Helvetica,sans-Serif" font-size="10.00" fill="#000000">CryptoInstruction::</text>
<text text-anchor="middle" x="471.5" y="-119" font-family="Helvetica,sans-Serif" font-size="10.00" fill="#000000">getInstructionType</text>
</a>
</g>
</g>
<!-- Node0&#45;&gt;Node3 -->
<g id="edge3" class="edge">
<title>Node0&#45;&gt;Node3</title>
<path fill="none" stroke="#191970" d="M123.4958,-161.5134C172.276,-173.5892 264.0487,-191.237 341,-177 372.838,-171.1095 406.9451,-157.7731 432.3037,-146.3544"/>
<polygon fill="#191970" stroke="#191970" points="433.9489,-149.4502 441.5713,-142.0915 431.0236,-143.0907 433.9489,-149.4502"/>
</g>
<!-- Node4 -->
<g id="node5" class="node">
<title>Node4</title>
<g id="a_node5"><a xlink:href="classCryptoInstruction.html#ae110f8e98709f4a2e46e0fe2ba852be4" target="_top" xlink:title=" ">
<polygon fill="#ffffff" stroke="#000000" points="224,-137 224,-167 331,-167 331,-137 224,-137"/>
<text text-anchor="start" x="232" y="-155" font-family="Helvetica,sans-Serif" font-size="10.00" fill="#000000">CryptoInstruction::</text>
<text text-anchor="middle" x="277.5" y="-144" font-family="Helvetica,sans-Serif" font-size="10.00" fill="#000000">getXCoordinate</text>
</a>
</g>
</g>
<!-- Node0&#45;&gt;Node4 -->
<g id="edge4" class="edge">
<title>Node0&#45;&gt;Node4</title>
<path fill="none" stroke="#191970" d="M178.0061,-152C189.9753,-152 202.0577,-152 213.4779,-152"/>
<polygon fill="#191970" stroke="#191970" points="213.7574,-155.5001 223.7574,-152 213.7574,-148.5001 213.7574,-155.5001"/>
</g>
<!-- Node5 -->
<g id="node6" class="node">
<title>Node5</title>
<g id="a_node6"><a xlink:href="classCryptoInstruction.html#a380d1bcc44217c483ddbcd3ac68d1f87" target="_top" xlink:title=" ">
<polygon fill="#ffffff" stroke="#000000" points="224,-88 224,-118 331,-118 331,-88 224,-88"/>
<text text-anchor="start" x="232" y="-106" font-family="Helvetica,sans-Serif" font-size="10.00" fill="#000000">CryptoInstruction::</text>
<text text-anchor="middle" x="277.5" y="-95" font-family="Helvetica,sans-Serif" font-size="10.00" fill="#000000">getYCoordinate</text>
</a>
</g>
</g>
<!-- Node0&#45;&gt;Node5 -->
<g id="edge6" class="edge">
<title>Node0&#45;&gt;Node5</title>
<path fill="none" stroke="#191970" d="M125.7922,-142.436C150.82,-135.9301 184.589,-127.1519 213.9134,-119.5291"/>
<polygon fill="#191970" stroke="#191970" points="214.871,-122.8966 223.6688,-116.9933 213.1098,-116.1218 214.871,-122.8966"/>
</g>
<!-- Node6 -->
<g id="node7" class="node">
<title>Node6</title>
<g id="a_node7"><a xlink:href="classCryptoInstruction.html#ac16d178eea6a08b5257551ddf8fee912" target="_top" xlink:title=" ">
<polygon fill="#ffffff" stroke="#000000" points="224,-39 224,-69 331,-69 331,-39 224,-39"/>
<text text-anchor="start" x="232" y="-57" font-family="Helvetica,sans-Serif" font-size="10.00" fill="#000000">CryptoInstruction::</text>
<text text-anchor="middle" x="277.5" y="-46" font-family="Helvetica,sans-Serif" font-size="10.00" fill="#000000">getUnknownData</text>
</a>
</g>
</g>
<!-- Node0&#45;&gt;Node6 -->
<g id="edge8" class="edge">
<title>Node0&#45;&gt;Node6</title>
<path fill="none" stroke="#191970" d="M103.6029,-142.4757C126.5281,-127.7546 172.625,-99.0793 214,-79 218.2403,-76.9422 222.6961,-74.9202 227.1981,-72.9727"/>
<polygon fill="#191970" stroke="#191970" points="228.582,-76.1877 236.4496,-69.0919 225.8742,-69.7326 228.582,-76.1877"/>
</g>
<!-- Node7 -->
<g id="node8" class="node">
<title>Node7</title>
<g id="a_node8"><a xlink:href="classCryptoException.html#a8da6c80ec8c57c2b429ae26bc53cacd7" target="_top" xlink:title=" ">
<polygon fill="#ffffff" stroke="#000000" points="214,-.5 214,-19.5 341,-19.5 341,-.5 214,-.5"/>
<text text-anchor="middle" x="277.5" y="-7.5" font-family="Helvetica,sans-Serif" font-size="10.00" fill="#000000">CryptoException::what</text>
</a>
</g>
</g>
<!-- Node0&#45;&gt;Node7 -->
<g id="edge10" class="edge">
<title>Node0&#45;&gt;Node7</title>
<path fill="none" stroke="#191970" d="M96.0141,-142.4121C113.3722,-119.3685 160.8006,-60.4594 214,-29 217.6215,-26.8584 221.5038,-24.941 225.4986,-23.2274"/>
<polygon fill="#191970" stroke="#191970" points="226.8779,-26.4469 234.954,-19.5894 224.3641,-19.9138 226.8779,-26.4469"/>
</g>
<!-- Node4&#45;&gt;Node3 -->
<g id="edge5" class="edge">
<title>Node4&#45;&gt;Node3</title>
<path fill="none" stroke="#191970" d="M331.0249,-145.1025C354.781,-142.0411 382.9235,-138.4145 407.7573,-135.2143"/>
<polygon fill="#191970" stroke="#191970" points="408.3427,-138.6679 417.8133,-133.9184 407.448,-131.7253 408.3427,-138.6679"/>
</g>
<!-- Node5&#45;&gt;Node3 -->
<g id="edge7" class="edge">
<title>Node5&#45;&gt;Node3</title>
<path fill="none" stroke="#191970" d="M331.0249,-109.6216C354.781,-112.5605 382.9235,-116.0421 407.7573,-119.1143"/>
<polygon fill="#191970" stroke="#191970" points="407.4592,-122.604 417.8133,-120.3584 408.3187,-115.657 407.4592,-122.604"/>
</g>
<!-- Node6&#45;&gt;Node3 -->
<g id="edge9" class="edge">
<title>Node6&#45;&gt;Node3</title>
<path fill="none" stroke="#191970" d="M317.6969,-69.1256C347.8707,-80.4797 389.367,-96.0943 421.6531,-108.2432"/>
<polygon fill="#191970" stroke="#191970" points="420.7626,-111.6476 431.3546,-111.8937 423.2279,-105.0961 420.7626,-111.6476"/>
</g>
<!-- Node8 -->
<g id="node9" class="node">
<title>Node8</title>
<g id="a_node9"><a xlink:href="classCryptoException.html#a7992bed5c54db81f763ed99d6342ca55" target="_top" xlink:title=" ">
<polygon fill="#ffffff" stroke="#000000" points="377,-.5 377,-19.5 566,-19.5 566,-.5 377,-.5"/>
<text text-anchor="middle" x="471.5" y="-7.5" font-family="Helvetica,sans-Serif" font-size="10.00" fill="#000000">CryptoException::getExceptionType</text>
</a>
</g>
</g>
<!-- Node7&#45;&gt;Node8 -->
<g id="edge11" class="edge">
<title>Node7&#45;&gt;Node8</title>
<path fill="none" stroke="#191970" d="M341.0229,-10C349.2831,-10 357.9125,-10 366.6273,-10"/>
<polygon fill="#191970" stroke="#191970" points="366.8798,-13.5001 376.8798,-10 366.8798,-6.5001 366.8798,-13.5001"/>
</g>
</g>
</svg>
