<?xml version="1.0" encoding="UTF-8" standalone="no"?>
<!DOCTYPE svg PUBLIC "-//W3C//DTD SVG 1.1//EN"
 "http://www.w3.org/Graphics/SVG/1.1/DTD/svg11.dtd">
<!-- Generated by graphviz version 2.40.1 (20161225.0304)
 -->
<!-- Title: BresenhamLine::hasNext Pages: 1 -->
<svg width="1537pt" height="270pt"
 viewBox="0.00 0.00 1537.00 269.50" xmlns="http://www.w3.org/2000/svg" xmlns:xlink="http://www.w3.org/1999/xlink">
<g id="graph0" class="graph" transform="scale(1 1) rotate(0) translate(4 265.5)">
<title>BresenhamLine::hasNext</title>
<polygon fill="#ffffff" stroke="transparent" points="-4,4 -4,-265.5 1533,-265.5 1533,4 -4,4"/>
<!-- Node28 -->
<g id="node1" class="node">
<title>Node28</title>
<g id="a_node1"><a xlink:title=" ">
<polygon fill="#bfbfbf" stroke="#000000" points="1390,-86.5 1390,-105.5 1529,-105.5 1529,-86.5 1390,-86.5"/>
<text text-anchor="middle" x="1459.5" y="-93.5" font-family="Helvetica,sans-Serif" font-size="10.00" fill="#000000">BresenhamLine::hasNext</text>
</a>
</g>
</g>
<!-- Node29 -->
<g id="node2" class="node">
<title>Node29</title>
<g id="a_node2"><a xlink:href="classBresenhamLine.html#a10d505e30945f42a5cd0270c315b104f" target="_top" xlink:title=" ">
<polygon fill="#ffffff" stroke="#000000" points="1234,-105.5 1234,-124.5 1354,-124.5 1354,-105.5 1234,-105.5"/>
<text text-anchor="middle" x="1294" y="-112.5" font-family="Helvetica,sans-Serif" font-size="10.00" fill="#000000">BresenhamLine::next</text>
</a>
</g>
</g>
<!-- Node28&#45;&gt;Node29 -->
<g id="edge1" class="edge">
<title>Node28&#45;&gt;Node29</title>
<path fill="none" stroke="#191970" d="M1379.7405,-105.1567C1371.1415,-106.1439 1362.4995,-107.136 1354.1864,-108.0904"/>
<polygon fill="#191970" stroke="#191970" points="1380.2572,-108.6204 1389.7928,-104.0026 1379.4588,-101.6661 1380.2572,-108.6204"/>
</g>
<!-- Node30 -->
<g id="node3" class="node">
<title>Node30</title>
<g id="a_node3"><a xlink:href="classGridFinder.html#ace2c24a54244e7e92618d3fe7ec62fdc" target="_top" xlink:title="Starting from the given pixel, move in the direction of the given angle, and count the number of whit...">
<polygon fill="#ffffff" stroke="#000000" points="1071,-192.5 1071,-211.5 1173,-211.5 1173,-192.5 1071,-192.5"/>
<text text-anchor="middle" x="1122" y="-199.5" font-family="Helvetica,sans-Serif" font-size="10.00" fill="#000000">GridFinder::hough</text>
</a>
</g>
</g>
<!-- Node28&#45;&gt;Node30 -->
<g id="edge23" class="edge">
<title>Node28&#45;&gt;Node30</title>
<path fill="none" stroke="#191970" d="M1437.9043,-111.3789C1417.2967,-125.3344 1384.8991,-145.4431 1354,-157 1294.0515,-179.4219 1221.0149,-191.2273 1173.1024,-197.029"/>
<polygon fill="#191970" stroke="#191970" points="1439.9889,-114.1929 1446.2353,-105.6353 1436.0157,-108.4298 1439.9889,-114.1929"/>
</g>
<!-- Node34 -->
<g id="node7" class="node">
<title>Node34</title>
<g id="a_node7"><a xlink:href="classGridFinder.html#ab5c436911deb269a22a8d5525271fa4e" target="_top" xlink:title="Get the width of the line at a given point.">
<polygon fill="#ffffff" stroke="#000000" points="1046,-143 1046,-173 1198,-173 1198,-143 1046,-143"/>
<text text-anchor="start" x="1054" y="-161" font-family="Helvetica,sans-Serif" font-size="10.00" fill="#000000">GridFinder::getWidthAtPoint</text>
<text text-anchor="middle" x="1122" y="-150" font-family="Helvetica,sans-Serif" font-size="10.00" fill="#000000">OnLine</text>
</a>
</g>
</g>
<!-- Node28&#45;&gt;Node34 -->
<g id="edge24" class="edge">
<title>Node28&#45;&gt;Node34</title>
<path fill="none" stroke="#191970" d="M1428.4911,-109.4238C1407.7816,-117.8227 1379.7243,-128.1285 1354,-134 1302.778,-145.6913 1243.8815,-151.6966 1198.248,-154.7764"/>
<polygon fill="#191970" stroke="#191970" points="1429.834,-112.656 1437.7391,-105.602 1427.1604,-106.1867 1429.834,-112.656"/>
</g>
<!-- Node38 -->
<g id="node11" class="node">
<title>Node38</title>
<g id="a_node11"><a xlink:href="classGridFinder.html#a54369e6368334eb2924ca70ee1f1d438" target="_top" xlink:title="Follow the given line to find the line perpendicular to it. Move along the line for minDistance pixel...">
<polygon fill="#ffffff" stroke="#000000" points="523,-65.5 523,-84.5 657,-84.5 657,-65.5 523,-65.5"/>
<text text-anchor="middle" x="590" y="-72.5" font-family="Helvetica,sans-Serif" font-size="10.00" fill="#000000">GridFinder::findNextLine</text>
</a>
</g>
</g>
<!-- Node28&#45;&gt;Node38 -->
<g id="edge27" class="edge">
<title>Node28&#45;&gt;Node38</title>
<path fill="none" stroke="#191970" d="M1431.1453,-82.1369C1374.0696,-55.549 1240.6283,0 1122,0 1122,0 1122,0 941,0 817.3085,0 674.4035,-45.0923 616.4481,-65.3486"/>
<polygon fill="#191970" stroke="#191970" points="1429.7296,-85.3389 1440.2667,-86.4442 1432.7187,-79.0092 1429.7296,-85.3389"/>
</g>
<!-- Node43 -->
<g id="node16" class="node">
<title>Node43</title>
<g id="a_node16"><a xlink:href="classGridFinder.html#a3b5caee289831bd2207db3ec542be2b0" target="_top" xlink:title="Draw a line on the mask. Used only for testing.">
<polygon fill="#ffffff" stroke="#000000" points="1064,-28.5 1064,-47.5 1180,-47.5 1180,-28.5 1064,-28.5"/>
<text text-anchor="middle" x="1122" y="-35.5" font-family="Helvetica,sans-Serif" font-size="10.00" fill="#000000">GridFinder::drawLine</text>
</a>
</g>
</g>
<!-- Node28&#45;&gt;Node43 -->
<g id="edge25" class="edge">
<title>Node28&#45;&gt;Node43</title>
<path fill="none" stroke="#191970" d="M1393.9232,-84.7305C1330.9066,-73.901 1236.7392,-57.7181 1177.3836,-47.5178"/>
<polygon fill="#191970" stroke="#191970" points="1393.6983,-88.2431 1404.1467,-86.4874 1394.884,-81.3442 1393.6983,-88.2431"/>
</g>
<!-- Node44 -->
<g id="node17" class="node">
<title>Node44</title>
<g id="a_node17"><a xlink:href="classGridFinder.html#af8bdc28d95e295618c2f345f2d7eb758" target="_top" xlink:title="Move a pixel in a given direction for a given distance.">
<polygon fill="#ffffff" stroke="#000000" points="1072,-104.5 1072,-123.5 1172,-123.5 1172,-104.5 1072,-104.5"/>
<text text-anchor="middle" x="1122" y="-111.5" font-family="Helvetica,sans-Serif" font-size="10.00" fill="#000000">GridFinder::move</text>
</a>
</g>
</g>
<!-- Node28&#45;&gt;Node44 -->
<g id="edge26" class="edge">
<title>Node28&#45;&gt;Node44</title>
<path fill="none" stroke="#191970" d="M1379.6362,-92.9093C1336.4517,-92.0163 1282.2318,-92.1489 1234,-96 1213.0925,-97.6694 1190.1969,-101.065 1170.5859,-104.4617"/>
<polygon fill="#191970" stroke="#191970" points="1379.7231,-96.4122 1389.8007,-93.1425 1379.8837,-89.414 1379.7231,-96.4122"/>
</g>
<!-- Node29&#45;&gt;Node30 -->
<g id="edge2" class="edge">
<title>Node29&#45;&gt;Node30</title>
<path fill="none" stroke="#191970" d="M1275.0679,-131.2649C1256.5498,-146.4044 1226.9816,-168.5916 1198,-182 1188.8368,-186.2394 1178.6208,-189.699 1168.7262,-192.4754"/>
<polygon fill="#191970" stroke="#191970" points="1277.5464,-133.7555 1282.9884,-124.665 1273.0653,-128.3777 1277.5464,-133.7555"/>
</g>
<!-- Node29&#45;&gt;Node34 -->
<g id="edge6" class="edge">
<title>Node29&#45;&gt;Node34</title>
<path fill="none" stroke="#191970" d="M1246.0846,-126.9788C1226.235,-131.9413 1202.9934,-137.7517 1182.0252,-142.9937"/>
<polygon fill="#191970" stroke="#191970" points="1246.9751,-130.364 1255.8276,-124.5431 1245.2773,-123.573 1246.9751,-130.364"/>
</g>
<!-- Node29&#45;&gt;Node38 -->
<g id="edge22" class="edge">
<title>Node29&#45;&gt;Node38</title>
<path fill="none" stroke="#191970" d="M1245.3254,-103.2729C1230.2417,-100.0679 1213.5091,-96.9454 1198,-95 1002.8259,-70.5184 769.823,-71.0732 657.3434,-73.1929"/>
<polygon fill="#191970" stroke="#191970" points="1244.9522,-106.7739 1255.4692,-105.4915 1246.4479,-99.9356 1244.9522,-106.7739"/>
</g>
<!-- Node29&#45;&gt;Node43 -->
<g id="edge17" class="edge">
<title>Node29&#45;&gt;Node43</title>
<path fill="none" stroke="#191970" d="M1270.2442,-100.1435C1251.2129,-88.6741 1223.5615,-72.963 1198,-62 1185.0292,-56.437 1170.3293,-51.4969 1157.3374,-47.5666"/>
<polygon fill="#191970" stroke="#191970" points="1268.4881,-103.1721 1278.8474,-105.3939 1272.1347,-97.1969 1268.4881,-103.1721"/>
</g>
<!-- Node29&#45;&gt;Node44 -->
<g id="edge18" class="edge">
<title>Node29&#45;&gt;Node44</title>
<path fill="none" stroke="#191970" d="M1223.7789,-114.5917C1206.4754,-114.4911 1188.2895,-114.3854 1172.154,-114.2916"/>
<polygon fill="#191970" stroke="#191970" points="1223.8225,-118.092 1233.8427,-114.6502 1223.8633,-111.0921 1223.8225,-118.092"/>
</g>
<!-- Node31 -->
<g id="node4" class="node">
<title>Node31</title>
<g id="a_node4"><a xlink:href="classGridFinder.html#a04e1362c95151ac77477844a952af0f9" target="_top" xlink:title="Scan 360° around a given pixel, and find the angle with the most white pixels. This version is not ve...">
<polygon fill="#ffffff" stroke="#000000" points="695.5,-201.5 695.5,-220.5 833.5,-220.5 833.5,-201.5 695.5,-201.5"/>
<text text-anchor="middle" x="764.5" y="-208.5" font-family="Helvetica,sans-Serif" font-size="10.00" fill="#000000">GridFinder::findLineAngle</text>
</a>
</g>
</g>
<!-- Node30&#45;&gt;Node31 -->
<g id="edge3" class="edge">
<title>Node30&#45;&gt;Node31</title>
<path fill="none" stroke="#191970" d="M1060.5806,-203.5462C997.5033,-205.1342 899.5089,-207.6012 833.7226,-209.2573"/>
<polygon fill="#191970" stroke="#191970" points="1060.8703,-207.0401 1070.779,-203.2895 1060.694,-200.0424 1060.8703,-207.0401"/>
</g>
<!-- Node33 -->
<g id="node6" class="node">
<title>Node33</title>
<g id="a_node6"><a xlink:href="classGridFinder.html#afcc1eed83ee0292966c3c80883069634" target="_top" xlink:title="Similar to findLineAngle, but is more accurate, because it uses the average of the range of angles wi...">
<polygon fill="#ffffff" stroke="#000000" points="872,-231 872,-261 1010,-261 1010,-231 872,-231"/>
<text text-anchor="start" x="880" y="-249" font-family="Helvetica,sans-Serif" font-size="10.00" fill="#000000">GridFinder::findLineAngle</text>
<text text-anchor="middle" x="941" y="-238" font-family="Helvetica,sans-Serif" font-size="10.00" fill="#000000">AccurateRange</text>
</a>
</g>
</g>
<!-- Node30&#45;&gt;Node33 -->
<g id="edge5" class="edge">
<title>Node30&#45;&gt;Node33</title>
<path fill="none" stroke="#191970" d="M1072.8213,-213.955C1051.2899,-219.1892 1025.7849,-225.3893 1002.9734,-230.9346"/>
<polygon fill="#191970" stroke="#191970" points="1073.8355,-217.3105 1082.7257,-211.5473 1072.1819,-210.5086 1073.8355,-217.3105"/>
</g>
<!-- Node32 -->
<g id="node5" class="node">
<title>Node32</title>
<g id="a_node5"><a xlink:href="classGridFinder.html#aaea3af418ab7124f2b25bcc124fccaca" target="_top" xlink:title="Get an estimate of the line through a given pixel. Find an estimate of the slope, then use that to de...">
<polygon fill="#ffffff" stroke="#000000" points="526,-123 526,-153 654,-153 654,-123 526,-123"/>
<text text-anchor="start" x="534" y="-141" font-family="Helvetica,sans-Serif" font-size="10.00" fill="#000000">GridFinder::getFirstLine</text>
<text text-anchor="middle" x="590" y="-130" font-family="Helvetica,sans-Serif" font-size="10.00" fill="#000000">Estimate</text>
</a>
</g>
</g>
<!-- Node31&#45;&gt;Node32 -->
<g id="edge4" class="edge">
<title>Node31&#45;&gt;Node32</title>
<path fill="none" stroke="#191970" d="M712.6638,-198.6967C705.973,-196.6808 699.2724,-194.4422 693,-192 665.3426,-181.2312 635.4861,-165.0244 615.0754,-153.1756"/>
<polygon fill="#191970" stroke="#191970" points="711.8311,-202.0989 722.4083,-201.4888 713.7592,-195.3697 711.8311,-202.0989"/>
</g>
<!-- Node35 -->
<g id="node8" class="node">
<title>Node35</title>
<g id="a_node8"><a xlink:href="classGridFinder.html#abcd46f31e256080b2d5d2aee03c0e258" target="_top" xlink:title="Find the middle of a line.">
<polygon fill="#ffffff" stroke="#000000" points="881,-151.5 881,-170.5 1001,-170.5 1001,-151.5 881,-151.5"/>
<text text-anchor="middle" x="941" y="-158.5" font-family="Helvetica,sans-Serif" font-size="10.00" fill="#000000">GridFinder::getMiddle</text>
</a>
</g>
</g>
<!-- Node34&#45;&gt;Node35 -->
<g id="edge7" class="edge">
<title>Node34&#45;&gt;Node35</title>
<path fill="none" stroke="#191970" d="M1035.5897,-159.4322C1023.9633,-159.6249 1012.2466,-159.8191 1001.2095,-160.0021"/>
<polygon fill="#191970" stroke="#191970" points="1035.8237,-162.9289 1045.7643,-159.2636 1035.7076,-155.9299 1035.8237,-162.9289"/>
</g>
<!-- Node36 -->
<g id="node9" class="node">
<title>Node36</title>
<g id="a_node9"><a xlink:href="classGridFinder.html#af830abf29ca6dc9c01197a38fe16e1e5" target="_top" xlink:title="In exceptional cases, we might want to find the middle of a line in a point that happens to lie at th...">
<polygon fill="#ffffff" stroke="#000000" points="693,-114 693,-144 836,-144 836,-114 693,-114"/>
<text text-anchor="start" x="701" y="-132" font-family="Helvetica,sans-Serif" font-size="10.00" fill="#000000">GridFinder::getMiddleWith</text>
<text text-anchor="middle" x="764.5" y="-121" font-family="Helvetica,sans-Serif" font-size="10.00" fill="#000000">Retries</text>
</a>
</g>
</g>
<!-- Node35&#45;&gt;Node36 -->
<g id="edge8" class="edge">
<title>Node35&#45;&gt;Node36</title>
<path fill="none" stroke="#191970" d="M878.6694,-149.6993C864.8839,-147.1999 850.1724,-144.5327 836.0528,-141.9727"/>
<polygon fill="#191970" stroke="#191970" points="878.0581,-153.1454 888.5221,-151.4856 879.3069,-146.2577 878.0581,-153.1454"/>
</g>
<!-- Node37 -->
<g id="node10" class="node">
<title>Node37</title>
<g id="a_node10"><a xlink:href="classGridFinder.html#ae12ca7921b02b37417d87fc737f0134d" target="_top" xlink:title="Check if there could be a valid line going through the given point, and if so, find and return the ac...">
<polygon fill="#ffffff" stroke="#000000" points="704,-163.5 704,-182.5 825,-182.5 825,-163.5 704,-163.5"/>
<text text-anchor="middle" x="764.5" y="-170.5" font-family="Helvetica,sans-Serif" font-size="10.00" fill="#000000">GridFinder::checkLine</text>
</a>
</g>
</g>
<!-- Node35&#45;&gt;Node37 -->
<g id="edge10" class="edge">
<title>Node35&#45;&gt;Node37</title>
<path fill="none" stroke="#191970" d="M870.4814,-165.7945C855.4475,-166.8166 839.6975,-167.8874 825.0754,-168.8816"/>
<polygon fill="#191970" stroke="#191970" points="871.0128,-169.2665 880.7524,-165.0962 870.538,-162.2826 871.0128,-169.2665"/>
</g>
<!-- Node36&#45;&gt;Node32 -->
<g id="edge9" class="edge">
<title>Node36&#45;&gt;Node32</title>
<path fill="none" stroke="#191970" d="M682.5054,-133.2289C672.9971,-133.7193 663.4052,-134.2141 654.1837,-134.6897"/>
<polygon fill="#191970" stroke="#191970" points="682.9623,-136.7101 692.7688,-132.6996 682.6017,-129.7194 682.9623,-136.7101"/>
</g>
<!-- Node37&#45;&gt;Node38 -->
<g id="edge11" class="edge">
<title>Node37&#45;&gt;Node38</title>
<path fill="none" stroke="#191970" d="M706.3127,-159.8094C701.6637,-157.839 697.1619,-155.5825 693,-153 672.6771,-140.3894 675.6434,-127.9825 657,-113 642.7195,-101.5237 624.5353,-91.4477 610.7155,-84.56"/>
<polygon fill="#191970" stroke="#191970" points="705.4088,-163.2092 716.0005,-163.4648 707.88,-156.6599 705.4088,-163.2092"/>
</g>
<!-- Node39 -->
<g id="node12" class="node">
<title>Node39</title>
<g id="a_node12"><a xlink:href="classGridFinder.html#a3edbd3ffbcfe6d373fbaf576e4dca51b" target="_top" xlink:title="Equivalent to #findNextLine(LineResult,bool,uint,uint) but also supports optional LineResults.">
<polygon fill="#ffffff" stroke="#000000" points="353,-84.5 353,-103.5 487,-103.5 487,-84.5 353,-84.5"/>
<text text-anchor="middle" x="420" y="-91.5" font-family="Helvetica,sans-Serif" font-size="10.00" fill="#000000">GridFinder::findNextLine</text>
</a>
</g>
</g>
<!-- Node38&#45;&gt;Node39 -->
<g id="edge12" class="edge">
<title>Node38&#45;&gt;Node39</title>
<path fill="none" stroke="#191970" d="M512.854,-83.6222C504.3121,-84.5769 495.6634,-85.5435 487.2572,-86.483"/>
<polygon fill="#191970" stroke="#191970" points="513.2622,-87.0985 522.8115,-82.5093 512.4846,-80.1418 513.2622,-87.0985"/>
</g>
<!-- Node40 -->
<g id="node13" class="node">
<title>Node40</title>
<g id="a_node13"><a xlink:href="classGridFinder.html#a8940ca681fac78274043cf5f1f1f5761" target="_top" xlink:title="This is the main function: it looks for a complete square of the grid, as close to the center of the ...">
<polygon fill="#ffffff" stroke="#000000" points="358,-46.5 358,-65.5 482,-65.5 482,-46.5 358,-46.5"/>
<text text-anchor="middle" x="420" y="-53.5" font-family="Helvetica,sans-Serif" font-size="10.00" fill="#000000">GridFinder::findSquare</text>
</a>
</g>
</g>
<!-- Node38&#45;&gt;Node40 -->
<g id="edge13" class="edge">
<title>Node38&#45;&gt;Node40</title>
<path fill="none" stroke="#191970" d="M512.624,-66.3521C502.3644,-65.2054 491.9554,-64.0421 482.0015,-62.9296"/>
<polygon fill="#191970" stroke="#191970" points="512.4846,-69.8582 522.8115,-67.4907 513.2622,-62.9015 512.4846,-69.8582"/>
</g>
<!-- Node41 -->
<g id="node14" class="node">
<title>Node41</title>
<g id="a_node14"><a xlink:href="classLocationFinder.html#af56756d038d762e04e0c91bac9fc2522" target="_top" xlink:title="Read a new frame, mask it, run GridFinder, and get the position of the drone. The position is the pos...">
<polygon fill="#ffffff" stroke="#000000" points="149,-27.5 149,-46.5 317,-46.5 317,-27.5 149,-27.5"/>
<text text-anchor="middle" x="233" y="-34.5" font-family="Helvetica,sans-Serif" font-size="10.00" fill="#000000">LocationFinder::updateLocation</text>
</a>
</g>
</g>
<!-- Node40&#45;&gt;Node41 -->
<g id="edge14" class="edge">
<title>Node40&#45;&gt;Node41</title>
<path fill="none" stroke="#191970" d="M348.0281,-48.6873C337.9278,-47.6611 327.4731,-46.5989 317.1709,-45.5521"/>
<polygon fill="#191970" stroke="#191970" points="347.6888,-52.1708 357.9915,-49.6997 348.3965,-45.2067 347.6888,-52.1708"/>
</g>
<!-- Node42 -->
<g id="node15" class="node">
<title>Node42</title>
<g id="a_node15"><a xlink:href="Grid-Finder_8module_8hpp.html#a05e720af51446c0f9319fb9455fe1767" target="_top" xlink:title=" ">
<polygon fill="#ffffff" stroke="#000000" points="0,-46.5 0,-65.5 113,-65.5 113,-46.5 0,-46.5"/>
<text text-anchor="middle" x="56.5" y="-53.5" font-family="Helvetica,sans-Serif" font-size="10.00" fill="#000000">PYBIND11_MODULE</text>
</a>
</g>
</g>
<!-- Node40&#45;&gt;Node42 -->
<g id="edge16" class="edge">
<title>Node40&#45;&gt;Node42</title>
<path fill="none" stroke="#191970" d="M347.5872,-56C278.6832,-56 176.4113,-56 113.2349,-56"/>
<polygon fill="#191970" stroke="#191970" points="347.9252,-59.5001 357.9251,-56 347.9251,-52.5001 347.9252,-59.5001"/>
</g>
<!-- Node41&#45;&gt;Node42 -->
<g id="edge15" class="edge">
<title>Node41&#45;&gt;Node42</title>
<path fill="none" stroke="#191970" d="M138.9025,-47.1295C130.0733,-48.0799 121.3225,-49.0219 113.0056,-49.9172"/>
<polygon fill="#191970" stroke="#191970" points="139.3175,-50.6051 148.8854,-46.0548 138.5682,-43.6453 139.3175,-50.6051"/>
</g>
<!-- Node44&#45;&gt;Node35 -->
<g id="edge19" class="edge">
<title>Node44&#45;&gt;Node35</title>
<path fill="none" stroke="#191970" d="M1073.5479,-125.9928C1064.3911,-128.2933 1054.8968,-130.7018 1046,-133 1022.8014,-138.9926 996.7788,-145.9304 976.4434,-151.4009"/>
<polygon fill="#191970" stroke="#191970" points="1074.4568,-129.3733 1083.3072,-123.5491 1072.7565,-122.5829 1074.4568,-129.3733"/>
</g>
<!-- Node44&#45;&gt;Node36 -->
<g id="edge20" class="edge">
<title>Node44&#45;&gt;Node36</title>
<path fill="none" stroke="#191970" d="M1061.8535,-116.5236C999.5945,-119.1359 902.3528,-123.216 836.1534,-125.9936"/>
<polygon fill="#191970" stroke="#191970" points="1062.0703,-120.0177 1071.9147,-116.1015 1061.7768,-113.0239 1062.0703,-120.0177"/>
</g>
<!-- Node44&#45;&gt;Node38 -->
<g id="edge21" class="edge">
<title>Node44&#45;&gt;Node38</title>
<path fill="none" stroke="#191970" d="M1061.7056,-109.5799C961.5963,-102.2411 761.7784,-87.5928 657.2507,-79.93"/>
<polygon fill="#191970" stroke="#191970" points="1061.7216,-113.0904 1071.9507,-110.331 1062.2334,-106.1091 1061.7216,-113.0904"/>
</g>
</g>
</svg>
