<?xml version="1.0" encoding="UTF-8" standalone="no"?>
<!DOCTYPE svg PUBLIC "-//W3C//DTD SVG 1.1//EN"
 "http://www.w3.org/Graphics/SVG/1.1/DTD/svg11.dtd">
<!-- Generated by graphviz version 2.40.1 (20161225.0304)
 -->
<!-- Title: GridFinder::checkLine Pages: 1 -->
<svg width="655pt" height="85pt"
 viewBox="0.00 0.00 655.00 85.00" xmlns="http://www.w3.org/2000/svg" xmlns:xlink="http://www.w3.org/1999/xlink">
<g id="graph0" class="graph" transform="scale(1 1) rotate(0) translate(4 81)">
<title>GridFinder::checkLine</title>
<polygon fill="#ffffff" stroke="transparent" points="-4,4 -4,-81 651,-81 651,4 -4,4"/>
<!-- Node32 -->
<g id="node1" class="node">
<title>Node32</title>
<g id="a_node1"><a xlink:title="Check if there could be a valid line going through the given point, and if so, find and return the ac...">
<polygon fill="#bfbfbf" stroke="#000000" points="526,-38.5 526,-57.5 647,-57.5 647,-38.5 526,-38.5"/>
<text text-anchor="middle" x="586.5" y="-45.5" font-family="Helvetica,sans-Serif" font-size="10.00" fill="#000000">GridFinder::checkLine</text>
</a>
</g>
</g>
<!-- Node33 -->
<g id="node2" class="node">
<title>Node33</title>
<g id="a_node2"><a xlink:href="classGridFinder.html#a54369e6368334eb2924ca70ee1f1d438" target="_top" xlink:title="Follow the given line to find the line perpendicular to it. Move along the line for minDistance pixel...">
<polygon fill="#ffffff" stroke="#000000" points="356,-38.5 356,-57.5 490,-57.5 490,-38.5 356,-38.5"/>
<text text-anchor="middle" x="423" y="-45.5" font-family="Helvetica,sans-Serif" font-size="10.00" fill="#000000">GridFinder::findNextLine</text>
</a>
</g>
</g>
<!-- Node32&#45;&gt;Node33 -->
<g id="edge1" class="edge">
<title>Node32&#45;&gt;Node33</title>
<path fill="none" stroke="#191970" d="M515.4949,-48C507.1131,-48 498.5779,-48 490.2501,-48"/>
<polygon fill="#191970" stroke="#191970" points="515.6187,-51.5001 525.6186,-48 515.6186,-44.5001 515.6187,-51.5001"/>
</g>
<!-- Node34 -->
<g id="node3" class="node">
<title>Node34</title>
<g id="a_node3"><a xlink:href="classGridFinder.html#a3edbd3ffbcfe6d373fbaf576e4dca51b" target="_top" xlink:title="Equivalent to #findNextLine(LineResult,bool,uint,uint) but also supports optional LineResults.">
<polygon fill="#ffffff" stroke="#000000" points="186,-57.5 186,-76.5 320,-76.5 320,-57.5 186,-57.5"/>
<text text-anchor="middle" x="253" y="-64.5" font-family="Helvetica,sans-Serif" font-size="10.00" fill="#000000">GridFinder::findNextLine</text>
</a>
</g>
</g>
<!-- Node33&#45;&gt;Node34 -->
<g id="edge2" class="edge">
<title>Node33&#45;&gt;Node34</title>
<path fill="none" stroke="#191970" d="M345.854,-56.6222C337.3121,-57.5769 328.6634,-58.5435 320.2572,-59.483"/>
<polygon fill="#191970" stroke="#191970" points="346.2622,-60.0985 355.8115,-55.5093 345.4846,-53.1418 346.2622,-60.0985"/>
</g>
<!-- Node35 -->
<g id="node4" class="node">
<title>Node35</title>
<g id="a_node4"><a xlink:href="classGridFinder.html#a8940ca681fac78274043cf5f1f1f5761" target="_top" xlink:title="This is the main function: it looks for a complete square of the grid, as close to the center of the ...">
<polygon fill="#ffffff" stroke="#000000" points="191,-19.5 191,-38.5 315,-38.5 315,-19.5 191,-19.5"/>
<text text-anchor="middle" x="253" y="-26.5" font-family="Helvetica,sans-Serif" font-size="10.00" fill="#000000">GridFinder::findSquare</text>
</a>
</g>
</g>
<!-- Node33&#45;&gt;Node35 -->
<g id="edge3" class="edge">
<title>Node33&#45;&gt;Node35</title>
<path fill="none" stroke="#191970" d="M345.624,-39.3521C335.3644,-38.2054 324.9554,-37.0421 315.0015,-35.9296"/>
<polygon fill="#191970" stroke="#191970" points="345.4846,-42.8582 355.8115,-40.4907 346.2622,-35.9015 345.4846,-42.8582"/>
</g>
<!-- Node36 -->
<g id="node5" class="node">
<title>Node36</title>
<g id="a_node5"><a xlink:href="classLocationFinder.html#a398bb42565e1e2a499471765f569bc40" target="_top" xlink:title=" ">
<polygon fill="#ffffff" stroke="#000000" points="0,-38.5 0,-57.5 150,-57.5 150,-38.5 0,-38.5"/>
<text text-anchor="middle" x="75" y="-45.5" font-family="Helvetica,sans-Serif" font-size="10.00" fill="#000000">LocationFinder::getLocation</text>
</a>
</g>
</g>
<!-- Node35&#45;&gt;Node36 -->
<g id="edge4" class="edge">
<title>Node35&#45;&gt;Node36</title>
<path fill="none" stroke="#191970" d="M180.754,-36.7117C170.6437,-37.7908 160.2341,-38.902 150.0729,-39.9866"/>
<polygon fill="#191970" stroke="#191970" points="181.1722,-40.187 190.7442,-35.6453 180.4292,-33.2265 181.1722,-40.187"/>
</g>
<!-- Node37 -->
<g id="node6" class="node">
<title>Node37</title>
<g id="a_node6"><a xlink:href="Grid-Finder_8module_8hpp.html#a05e720af51446c0f9319fb9455fe1767" target="_top" xlink:title=" ">
<polygon fill="#ffffff" stroke="#000000" points="18.5,-.5 18.5,-19.5 131.5,-19.5 131.5,-.5 18.5,-.5"/>
<text text-anchor="middle" x="75" y="-7.5" font-family="Helvetica,sans-Serif" font-size="10.00" fill="#000000">PYBIND11_MODULE</text>
</a>
</g>
</g>
<!-- Node35&#45;&gt;Node37 -->
<g id="edge5" class="edge">
<title>Node35&#45;&gt;Node37</title>
<path fill="none" stroke="#191970" d="M180.6768,-21.2801C164.3126,-19.5334 147.1683,-17.7034 131.5649,-16.0378"/>
<polygon fill="#191970" stroke="#191970" points="180.4292,-24.7735 190.7442,-22.3547 181.1722,-17.813 180.4292,-24.7735"/>
</g>
</g>
</svg>
