<?xml version="1.0" encoding="UTF-8" standalone="no"?>
<!DOCTYPE svg PUBLIC "-//W3C//DTD SVG 1.1//EN"
 "http://www.w3.org/Graphics/SVG/1.1/DTD/svg11.dtd">
<!-- Generated by graphviz version 2.40.1 (20161225.0304)
 -->
<!-- Title: GridFinder::drawLine Pages: 1 -->
<svg width="607pt" height="131pt"
 viewBox="0.00 0.00 607.00 131.25" xmlns="http://www.w3.org/2000/svg" xmlns:xlink="http://www.w3.org/1999/xlink">
<g id="graph0" class="graph" transform="scale(1 1) rotate(0) translate(4 127.2525)">
<title>GridFinder::drawLine</title>
<polygon fill="#ffffff" stroke="transparent" points="-4,4 -4,-127.2525 603,-127.2525 603,4 -4,4"/>
<!-- Node24 -->
<g id="node1" class="node">
<title>Node24</title>
<g id="a_node1"><a xlink:title="Draw a line on the mask. Used only for testing.">
<polygon fill="#bfbfbf" stroke="#000000" points="0,-69 0,-88 116,-88 116,-69 0,-69"/>
<text text-anchor="middle" x="58" y="-76" font-family="Helvetica,sans-Serif" font-size="10.00" fill="#000000">GridFinder::drawLine</text>
</a>
</g>
</g>
<!-- Node25 -->
<g id="node2" class="node">
<title>Node25</title>
<g id="a_node2"><a xlink:href="classBresenhamLine.html#aba0822ee20811d67cd9539ccbe1cd346" target="_top" xlink:title=" ">
<polygon fill="#ffffff" stroke="#000000" points="338,-88 338,-107 477,-107 477,-88 338,-88"/>
<text text-anchor="middle" x="407.5" y="-95" font-family="Helvetica,sans-Serif" font-size="10.00" fill="#000000">BresenhamLine::hasNext</text>
</a>
</g>
</g>
<!-- Node24&#45;&gt;Node25 -->
<g id="edge1" class="edge">
<title>Node24&#45;&gt;Node25</title>
<path fill="none" stroke="#191970" d="M75.7341,-88.08C94.1741,-97.4547 124.1812,-111.0897 152,-116.5 222.4051,-130.1926 305.4865,-119.0974 357.3416,-109.0087"/>
<polygon fill="#191970" stroke="#191970" points="358.1683,-112.4126 367.2833,-107.012 356.7899,-105.5497 358.1683,-112.4126"/>
</g>
<!-- Node27 -->
<g id="node4" class="node">
<title>Node27</title>
<g id="a_node4"><a xlink:href="classGridFinder.html#a5fef4e6faa3242e689a3ecb6ef21fb1f" target="_top" xlink:title="Set the value of the given pixel.">
<polygon fill="#ffffff" stroke="#000000" points="183.5,-88 183.5,-107 270.5,-107 270.5,-88 183.5,-88"/>
<text text-anchor="middle" x="227" y="-95" font-family="Helvetica,sans-Serif" font-size="10.00" fill="#000000">GridFinder::set</text>
</a>
</g>
</g>
<!-- Node24&#45;&gt;Node27 -->
<g id="edge3" class="edge">
<title>Node24&#45;&gt;Node27</title>
<path fill="none" stroke="#191970" d="M116.1602,-85.0387C134.6837,-87.1212 155.0834,-89.4147 173.2781,-91.4603"/>
<polygon fill="#191970" stroke="#191970" points="173.0898,-94.9611 183.4182,-92.6003 173.8719,-88.0049 173.0898,-94.9611"/>
</g>
<!-- Node28 -->
<g id="node5" class="node">
<title>Node28</title>
<g id="a_node5"><a xlink:href="classBresenhamLine.html#a10d505e30945f42a5cd0270c315b104f" target="_top" xlink:title=" ">
<polygon fill="#ffffff" stroke="#000000" points="167,-50 167,-69 287,-69 287,-50 167,-50"/>
<text text-anchor="middle" x="227" y="-57" font-family="Helvetica,sans-Serif" font-size="10.00" fill="#000000">BresenhamLine::next</text>
</a>
</g>
</g>
<!-- Node24&#45;&gt;Node28 -->
<g id="edge4" class="edge">
<title>Node24&#45;&gt;Node28</title>
<path fill="none" stroke="#191970" d="M116.1602,-71.9613C129.1708,-70.4985 143.1071,-68.9317 156.5548,-67.4199"/>
<polygon fill="#191970" stroke="#191970" points="157.1733,-70.8725 166.7196,-66.2771 156.3912,-63.9163 157.1733,-70.8725"/>
</g>
<!-- Node29 -->
<g id="node6" class="node">
<title>Node29</title>
<g id="a_node6"><a xlink:href="classBresenhamLine.html#ad93a4adf0535a9b4e649bce5ade1bc5e" target="_top" xlink:title=" ">
<polygon fill="#ffffff" stroke="#000000" points="152,-.5 152,-30.5 302,-30.5 302,-.5 152,-.5"/>
<text text-anchor="start" x="160" y="-18.5" font-family="Helvetica,sans-Serif" font-size="10.00" fill="#000000">BresenhamLine::getCurrent</text>
<text text-anchor="middle" x="227" y="-7.5" font-family="Helvetica,sans-Serif" font-size="10.00" fill="#000000">Length</text>
</a>
</g>
</g>
<!-- Node24&#45;&gt;Node29 -->
<g id="edge6" class="edge">
<title>Node24&#45;&gt;Node29</title>
<path fill="none" stroke="#191970" d="M80.639,-68.8854C99.5834,-60.9518 127.3891,-49.5663 152,-40.5 158.0008,-38.2894 164.3018,-36.0553 170.5948,-33.8795"/>
<polygon fill="#191970" stroke="#191970" points="172.1005,-37.0638 180.433,-30.5202 169.8385,-30.4394 172.1005,-37.0638"/>
</g>
<!-- Node26 -->
<g id="node3" class="node">
<title>Node26</title>
<g id="a_node3"><a xlink:href="structPixel.html#a816d743559e2ac5b35c9c79ac517ad0a" target="_top" xlink:title=" ">
<polygon fill="#ffffff" stroke="#000000" points="513,-88 513,-107 599,-107 599,-88 513,-88"/>
<text text-anchor="middle" x="556" y="-95" font-family="Helvetica,sans-Serif" font-size="10.00" fill="#000000">Pixel::inRange</text>
</a>
</g>
</g>
<!-- Node25&#45;&gt;Node26 -->
<g id="edge2" class="edge">
<title>Node25&#45;&gt;Node26</title>
<path fill="none" stroke="#191970" d="M477.4016,-97.5C485.8647,-97.5 494.4033,-97.5 502.5758,-97.5"/>
<polygon fill="#191970" stroke="#191970" points="502.6984,-101.0001 512.6984,-97.5 502.6984,-94.0001 502.6984,-101.0001"/>
</g>
<!-- Node28&#45;&gt;Node25 -->
<g id="edge5" class="edge">
<title>Node28&#45;&gt;Node25</title>
<path fill="none" stroke="#191970" d="M272.5478,-69.089C296.7959,-74.1939 326.8037,-80.5113 352.3612,-85.8918"/>
<polygon fill="#191970" stroke="#191970" points="351.7732,-89.3447 362.2798,-87.9799 353.2153,-82.4948 351.7732,-89.3447"/>
</g>
</g>
</svg>
