<?xml version="1.0" encoding="UTF-8" standalone="no"?>
<!DOCTYPE svg PUBLIC "-//W3C//DTD SVG 1.1//EN"
 "http://www.w3.org/Graphics/SVG/1.1/DTD/svg11.dtd">
<!-- Generated by graphviz version 2.40.1 (20161225.0304)
 -->
<!-- Title: GridFinder::move Pages: 1 -->
<svg width="969pt" height="135pt"
 viewBox="0.00 0.00 969.00 134.50" xmlns="http://www.w3.org/2000/svg" xmlns:xlink="http://www.w3.org/1999/xlink">
<g id="graph0" class="graph" transform="scale(1 1) rotate(0) translate(4 130.5)">
<title>GridFinder::move</title>
<polygon fill="#ffffff" stroke="transparent" points="-4,4 -4,-130.5 965,-130.5 965,4 -4,4"/>
<!-- Node360 -->
<g id="node1" class="node">
<title>Node360</title>
<g id="a_node1"><a xlink:title="Move a pixel in a given direction for a given distance.">
<polygon fill="#bfbfbf" stroke="#000000" points="861,-60.5 861,-79.5 961,-79.5 961,-60.5 861,-60.5"/>
<text text-anchor="middle" x="911" y="-67.5" font-family="Helvetica,sans-Serif" font-size="10.00" fill="#000000">GridFinder::move</text>
</a>
</g>
</g>
<!-- Node361 -->
<g id="node2" class="node">
<title>Node361</title>
<g id="a_node2"><a xlink:href="classGridFinder.html#abcd46f31e256080b2d5d2aee03c0e258" target="_top" xlink:title="Find the middle of a line.">
<polygon fill="#ffffff" stroke="#000000" points="705,-60.5 705,-79.5 825,-79.5 825,-60.5 705,-60.5"/>
<text text-anchor="middle" x="765" y="-67.5" font-family="Helvetica,sans-Serif" font-size="10.00" fill="#000000">GridFinder::getMiddle</text>
</a>
</g>
</g>
<!-- Node360&#45;&gt;Node361 -->
<g id="edge1" class="edge">
<title>Node360&#45;&gt;Node361</title>
<path fill="none" stroke="#191970" d="M850.6351,-70C842.2189,-70 833.5716,-70 825.1592,-70"/>
<polygon fill="#191970" stroke="#191970" points="850.7551,-73.5001 860.7551,-70 850.755,-66.5001 850.7551,-73.5001"/>
</g>
<!-- Node362 -->
<g id="node3" class="node">
<title>Node362</title>
<g id="a_node3"><a xlink:href="classGridFinder.html#af830abf29ca6dc9c01197a38fe16e1e5" target="_top" xlink:title="In exceptional cases, we might want to find the middle of a line in a point that happens to lie at th...">
<polygon fill="#ffffff" stroke="#000000" points="526,-96 526,-126 669,-126 669,-96 526,-96"/>
<text text-anchor="start" x="534" y="-114" font-family="Helvetica,sans-Serif" font-size="10.00" fill="#000000">GridFinder::getMiddleWith</text>
<text text-anchor="middle" x="597.5" y="-103" font-family="Helvetica,sans-Serif" font-size="10.00" fill="#000000">Retries</text>
</a>
</g>
</g>
<!-- Node360&#45;&gt;Node362 -->
<g id="edge10" class="edge">
<title>Node360&#45;&gt;Node362</title>
<path fill="none" stroke="#191970" d="M862.6434,-81.7591C850.4157,-84.4355 837.271,-87.0585 825,-89 773.167,-97.2011 714.1734,-102.8001 669.2507,-106.2968"/>
<polygon fill="#191970" stroke="#191970" points="863.6684,-85.1163 872.6598,-79.5122 862.1362,-78.286 863.6684,-85.1163"/>
</g>
<!-- Node365 -->
<g id="node6" class="node">
<title>Node365</title>
<g id="a_node6"><a xlink:href="classGridFinder.html#a54369e6368334eb2924ca70ee1f1d438" target="_top" xlink:title="Follow the given line to find the line perpendicular to it. Move along the line for minDistance pixel...">
<polygon fill="#ffffff" stroke="#000000" points="356,-38.5 356,-57.5 490,-57.5 490,-38.5 356,-38.5"/>
<text text-anchor="middle" x="423" y="-45.5" font-family="Helvetica,sans-Serif" font-size="10.00" fill="#000000">GridFinder::findNextLine</text>
</a>
</g>
</g>
<!-- Node360&#45;&gt;Node365 -->
<g id="edge11" class="edge">
<title>Node360&#45;&gt;Node365</title>
<path fill="none" stroke="#191970" d="M865.2265,-58.1248C852.3074,-55.2553 838.1789,-52.5668 825,-51 707.8737,-37.075 570.1966,-40.228 490.1465,-43.9792"/>
<polygon fill="#191970" stroke="#191970" points="864.7558,-61.6081 875.2868,-60.4469 866.3302,-54.7874 864.7558,-61.6081"/>
</g>
<!-- Node361&#45;&gt;Node362 -->
<g id="edge2" class="edge">
<title>Node361&#45;&gt;Node362</title>
<path fill="none" stroke="#191970" d="M715.9957,-81.9951C698.1947,-86.3523 677.8482,-91.3327 659.0978,-95.9223"/>
<polygon fill="#191970" stroke="#191970" points="717.27,-85.2866 726.1511,-79.5093 715.6057,-78.4873 717.27,-85.2866"/>
</g>
<!-- Node364 -->
<g id="node5" class="node">
<title>Node364</title>
<g id="a_node5"><a xlink:href="classGridFinder.html#ae12ca7921b02b37417d87fc737f0134d" target="_top" xlink:title="Check if there could be a valid line going through the given point, and if so, find and return the ac...">
<polygon fill="#ffffff" stroke="#000000" points="537,-57.5 537,-76.5 658,-76.5 658,-57.5 537,-57.5"/>
<text text-anchor="middle" x="597.5" y="-64.5" font-family="Helvetica,sans-Serif" font-size="10.00" fill="#000000">GridFinder::checkLine</text>
</a>
</g>
</g>
<!-- Node361&#45;&gt;Node364 -->
<g id="edge4" class="edge">
<title>Node361&#45;&gt;Node364</title>
<path fill="none" stroke="#191970" d="M694.4935,-68.7372C682.4141,-68.5209 669.9577,-68.2977 658.1638,-68.0865"/>
<polygon fill="#191970" stroke="#191970" points="694.4675,-72.2372 704.5287,-68.9169 694.593,-65.2383 694.4675,-72.2372"/>
</g>
<!-- Node363 -->
<g id="node4" class="node">
<title>Node363</title>
<g id="a_node4"><a xlink:href="classGridFinder.html#aaea3af418ab7124f2b25bcc124fccaca" target="_top" xlink:title="Get an estimate of the line through a given pixel. Find an estimate of the slope, then use that to de...">
<polygon fill="#ffffff" stroke="#000000" points="359,-96 359,-126 487,-126 487,-96 359,-96"/>
<text text-anchor="start" x="367" y="-114" font-family="Helvetica,sans-Serif" font-size="10.00" fill="#000000">GridFinder::getFirstLine</text>
<text text-anchor="middle" x="423" y="-103" font-family="Helvetica,sans-Serif" font-size="10.00" fill="#000000">Estimate</text>
</a>
</g>
</g>
<!-- Node362&#45;&gt;Node363 -->
<g id="edge3" class="edge">
<title>Node362&#45;&gt;Node363</title>
<path fill="none" stroke="#191970" d="M515.5054,-111C505.9971,-111 496.4052,-111 487.1837,-111"/>
<polygon fill="#191970" stroke="#191970" points="515.7688,-114.5001 525.7688,-111 515.7687,-107.5001 515.7688,-114.5001"/>
</g>
<!-- Node364&#45;&gt;Node365 -->
<g id="edge5" class="edge">
<title>Node364&#45;&gt;Node365</title>
<path fill="none" stroke="#191970" d="M526.9271,-59.3159C514.8358,-57.9993 502.3005,-56.6344 490.2976,-55.3275"/>
<polygon fill="#191970" stroke="#191970" points="526.638,-62.805 536.9581,-60.408 527.3957,-55.8461 526.638,-62.805"/>
</g>
<!-- Node366 -->
<g id="node7" class="node">
<title>Node366</title>
<g id="a_node7"><a xlink:href="classGridFinder.html#a3edbd3ffbcfe6d373fbaf576e4dca51b" target="_top" xlink:title="Equivalent to #findNextLine(LineResult,bool,uint,uint) but also supports optional LineResults.">
<polygon fill="#ffffff" stroke="#000000" points="186,-57.5 186,-76.5 320,-76.5 320,-57.5 186,-57.5"/>
<text text-anchor="middle" x="253" y="-64.5" font-family="Helvetica,sans-Serif" font-size="10.00" fill="#000000">GridFinder::findNextLine</text>
</a>
</g>
</g>
<!-- Node365&#45;&gt;Node366 -->
<g id="edge6" class="edge">
<title>Node365&#45;&gt;Node366</title>
<path fill="none" stroke="#191970" d="M345.854,-56.6222C337.3121,-57.5769 328.6634,-58.5435 320.2572,-59.483"/>
<polygon fill="#191970" stroke="#191970" points="346.2622,-60.0985 355.8115,-55.5093 345.4846,-53.1418 346.2622,-60.0985"/>
</g>
<!-- Node367 -->
<g id="node8" class="node">
<title>Node367</title>
<g id="a_node8"><a xlink:href="classGridFinder.html#a8940ca681fac78274043cf5f1f1f5761" target="_top" xlink:title="This is the main function: it looks for a complete square of the grid, as close to the center of the ...">
<polygon fill="#ffffff" stroke="#000000" points="191,-19.5 191,-38.5 315,-38.5 315,-19.5 191,-19.5"/>
<text text-anchor="middle" x="253" y="-26.5" font-family="Helvetica,sans-Serif" font-size="10.00" fill="#000000">GridFinder::findSquare</text>
</a>
</g>
</g>
<!-- Node365&#45;&gt;Node367 -->
<g id="edge7" class="edge">
<title>Node365&#45;&gt;Node367</title>
<path fill="none" stroke="#191970" d="M345.624,-39.3521C335.3644,-38.2054 324.9554,-37.0421 315.0015,-35.9296"/>
<polygon fill="#191970" stroke="#191970" points="345.4846,-42.8582 355.8115,-40.4907 346.2622,-35.9015 345.4846,-42.8582"/>
</g>
<!-- Node368 -->
<g id="node9" class="node">
<title>Node368</title>
<g id="a_node9"><a xlink:href="classLocationFinder.html#a398bb42565e1e2a499471765f569bc40" target="_top" xlink:title=" ">
<polygon fill="#ffffff" stroke="#000000" points="0,-38.5 0,-57.5 150,-57.5 150,-38.5 0,-38.5"/>
<text text-anchor="middle" x="75" y="-45.5" font-family="Helvetica,sans-Serif" font-size="10.00" fill="#000000">LocationFinder::getLocation</text>
</a>
</g>
</g>
<!-- Node367&#45;&gt;Node368 -->
<g id="edge8" class="edge">
<title>Node367&#45;&gt;Node368</title>
<path fill="none" stroke="#191970" d="M180.754,-36.7117C170.6437,-37.7908 160.2341,-38.902 150.0729,-39.9866"/>
<polygon fill="#191970" stroke="#191970" points="181.1722,-40.187 190.7442,-35.6453 180.4292,-33.2265 181.1722,-40.187"/>
</g>
<!-- Node369 -->
<g id="node10" class="node">
<title>Node369</title>
<g id="a_node10"><a xlink:href="Grid-Finder_8module_8hpp.html#a05e720af51446c0f9319fb9455fe1767" target="_top" xlink:title=" ">
<polygon fill="#ffffff" stroke="#000000" points="18.5,-.5 18.5,-19.5 131.5,-19.5 131.5,-.5 18.5,-.5"/>
<text text-anchor="middle" x="75" y="-7.5" font-family="Helvetica,sans-Serif" font-size="10.00" fill="#000000">PYBIND11_MODULE</text>
</a>
</g>
</g>
<!-- Node367&#45;&gt;Node369 -->
<g id="edge9" class="edge">
<title>Node367&#45;&gt;Node369</title>
<path fill="none" stroke="#191970" d="M180.6768,-21.2801C164.3126,-19.5334 147.1683,-17.7034 131.5649,-16.0378"/>
<polygon fill="#191970" stroke="#191970" points="180.4292,-24.7735 190.7442,-22.3547 181.1722,-17.813 180.4292,-24.7735"/>
</g>
</g>
</svg>
