<?xml version="1.0" encoding="UTF-8" standalone="no"?>
<!DOCTYPE svg PUBLIC "-//W3C//DTD SVG 1.1//EN"
 "http://www.w3.org/Graphics/SVG/1.1/DTD/svg11.dtd">
<!-- Generated by graphviz version 2.40.1 (20161225.0304)
 -->
<!-- Title: CryptoImplementation Pages: 1 -->
<svg width="248pt" height="182pt"
 viewBox="0.00 0.00 248.00 182.00" xmlns="http://www.w3.org/2000/svg" xmlns:xlink="http://www.w3.org/1999/xlink">
<g id="graph0" class="graph" transform="scale(1 1) rotate(0) translate(4 178)">
<title>CryptoImplementation</title>
<polygon fill="#ffffff" stroke="transparent" points="-4,4 -4,-178 244,-178 244,4 -4,4"/>
<!-- Node0 -->
<g id="node1" class="node">
<title>Node0</title>
<g id="a_node1"><a xlink:title=" ">
<polygon fill="#bfbfbf" stroke="#000000" points="56.5,-105.5 56.5,-173.5 183.5,-173.5 183.5,-105.5 56.5,-105.5"/>
<text text-anchor="middle" x="120" y="-161.5" font-family="Helvetica,sans-Serif" font-size="10.00" fill="#000000">CryptoImplementation</text>
<polyline fill="none" stroke="#000000" points="56.5,-154.5 183.5,-154.5 "/>
<text text-anchor="middle" x="120" y="-142.5" font-family="Helvetica,sans-Serif" font-size="10.00" fill="#000000"> </text>
<polyline fill="none" stroke="#000000" points="56.5,-135.5 183.5,-135.5 "/>
<text text-anchor="start" x="64.5" y="-123.5" font-family="Helvetica,sans-Serif" font-size="10.00" fill="#000000">+ hash()</text>
<text text-anchor="start" x="64.5" y="-112.5" font-family="Helvetica,sans-Serif" font-size="10.00" fill="#000000">+ decrypt()</text>
</a>
</g>
</g>
<!-- Node1 -->
<g id="node2" class="node">
<title>Node1</title>
<g id="a_node2"><a xlink:href="classHWImplementation.html" target="_top" xlink:title=" ">
<polygon fill="#ffffff" stroke="#000000" points="0,-.5 0,-68.5 112,-68.5 112,-.5 0,-.5"/>
<text text-anchor="middle" x="56" y="-56.5" font-family="Helvetica,sans-Serif" font-size="10.00" fill="#000000">HWImplementation</text>
<polyline fill="none" stroke="#000000" points="0,-49.5 112,-49.5 "/>
<text text-anchor="middle" x="56" y="-37.5" font-family="Helvetica,sans-Serif" font-size="10.00" fill="#000000"> </text>
<polyline fill="none" stroke="#000000" points="0,-30.5 112,-30.5 "/>
<text text-anchor="start" x="8" y="-18.5" font-family="Helvetica,sans-Serif" font-size="10.00" fill="#000000">+ hash()</text>
<text text-anchor="start" x="8" y="-7.5" font-family="Helvetica,sans-Serif" font-size="10.00" fill="#000000">+ decrypt()</text>
</a>
</g>
</g>
<!-- Node0&#45;&gt;Node1 -->
<g id="edge1" class="edge">
<title>Node0&#45;&gt;Node1</title>
<path fill="none" stroke="#191970" d="M93.8968,-96.6744C88.2368,-87.3885 82.3219,-77.6844 76.8937,-68.7788"/>
<polygon fill="none" stroke="#191970" points="91.0278,-98.6923 99.221,-105.4095 97.005,-95.049 91.0278,-98.6923"/>
</g>
<!-- Node2 -->
<g id="node3" class="node">
<title>Node2</title>
<g id="a_node3"><a xlink:href="classSWImplementation.html" target="_top" xlink:title=" ">
<polygon fill="#ffffff" stroke="#000000" points="130,-.5 130,-68.5 240,-68.5 240,-.5 130,-.5"/>
<text text-anchor="middle" x="185" y="-56.5" font-family="Helvetica,sans-Serif" font-size="10.00" fill="#000000">SWImplementation</text>
<polyline fill="none" stroke="#000000" points="130,-49.5 240,-49.5 "/>
<text text-anchor="middle" x="185" y="-37.5" font-family="Helvetica,sans-Serif" font-size="10.00" fill="#000000"> </text>
<polyline fill="none" stroke="#000000" points="130,-30.5 240,-30.5 "/>
<text text-anchor="start" x="138" y="-18.5" font-family="Helvetica,sans-Serif" font-size="10.00" fill="#000000">+ hash()</text>
<text text-anchor="start" x="138" y="-7.5" font-family="Helvetica,sans-Serif" font-size="10.00" fill="#000000">+ decrypt()</text>
</a>
</g>
</g>
<!-- Node0&#45;&gt;Node2 -->
<g id="edge2" class="edge">
<title>Node0&#45;&gt;Node2</title>
<path fill="none" stroke="#191970" d="M146.5111,-96.6744C152.2595,-87.3885 158.2668,-77.6844 163.7798,-68.7788"/>
<polygon fill="none" stroke="#191970" points="143.3913,-95.0646 141.1036,-105.4095 149.3432,-98.7491 143.3913,-95.0646"/>
</g>
</g>
</svg>
