<?xml version="1.0" encoding="UTF-8" standalone="no"?>
<!DOCTYPE svg PUBLIC "-//W3C//DTD SVG 1.1//EN"
 "http://www.w3.org/Graphics/SVG/1.1/DTD/svg11.dtd">
<!-- Generated by graphviz version 2.40.1 (20161225.0304)
 -->
<!-- Title: GridFinder::get Pages: 1 -->
<svg width="977pt" height="271pt"
 viewBox="0.00 0.00 977.00 270.50" xmlns="http://www.w3.org/2000/svg" xmlns:xlink="http://www.w3.org/1999/xlink">
<g id="graph0" class="graph" transform="scale(1 1) rotate(0) translate(4 266.5)">
<title>GridFinder::get</title>
<polygon fill="#ffffff" stroke="transparent" points="-4,4 -4,-266.5 973,-266.5 973,4 -4,4"/>
<!-- Node136 -->
<g id="node1" class="node">
<title>Node136</title>
<g id="a_node1"><a xlink:title="Get the value of the given pixel.">
<polygon fill="#bfbfbf" stroke="#000000" points="881,-107 881,-126 969,-126 969,-107 881,-107"/>
<text text-anchor="middle" x="925" y="-114" font-family="Helvetica,sans-Serif" font-size="10.00" fill="#000000">GridFinder::get</text>
</a>
</g>
</g>
<!-- Node137 -->
<g id="node2" class="node">
<title>Node137</title>
<g id="a_node2"><a xlink:href="classGridFinder.html#ae562737b4e1d28a7888aedb53449e0e7" target="_top" xlink:title="Starting from the given pixel, move in the direction of the given angle, and count the number of whit...">
<polygon fill="#ffffff" stroke="#000000" points="718,-216 718,-235 820,-235 820,-216 718,-216"/>
<text text-anchor="middle" x="769" y="-223" font-family="Helvetica,sans-Serif" font-size="10.00" fill="#000000">GridFinder::hough</text>
</a>
</g>
</g>
<!-- Node136&#45;&gt;Node137 -->
<g id="edge1" class="edge">
<title>Node136&#45;&gt;Node137</title>
<path fill="none" stroke="#191970" d="M913.2692,-134.6036C899.3512,-154.6415 874.3047,-186.4813 845,-204.5 837.1872,-209.3039 828.2582,-213.0317 819.3323,-215.9176"/>
<polygon fill="#191970" stroke="#191970" points="916.3317,-136.3219 919.0172,-126.0731 910.5266,-132.4103 916.3317,-136.3219"/>
</g>
<!-- Node142 -->
<g id="node7" class="node">
<title>Node142</title>
<g id="a_node7"><a xlink:href="classGridFinder.html#a83b31c2192a137e56e91d13661f1c658" target="_top" xlink:title="Get the width of the line at a given point.">
<polygon fill="#ffffff" stroke="#000000" points="693,-164.5 693,-194.5 845,-194.5 845,-164.5 693,-164.5"/>
<text text-anchor="start" x="701" y="-182.5" font-family="Helvetica,sans-Serif" font-size="10.00" fill="#000000">GridFinder::getWidthAtPoint</text>
<text text-anchor="middle" x="769" y="-171.5" font-family="Helvetica,sans-Serif" font-size="10.00" fill="#000000">OnLine</text>
</a>
</g>
</g>
<!-- Node136&#45;&gt;Node142 -->
<g id="edge6" class="edge">
<title>Node136&#45;&gt;Node142</title>
<path fill="none" stroke="#191970" d="M892.3993,-130.0797C877.9057,-136.0828 860.6215,-143.1953 845,-149.5 832.8981,-154.3842 819.679,-159.6324 807.7086,-164.3522"/>
<polygon fill="#191970" stroke="#191970" points="894.0374,-133.1894 901.9327,-126.1244 891.3549,-126.7238 894.0374,-133.1894"/>
</g>
<!-- Node143 -->
<g id="node8" class="node">
<title>Node143</title>
<g id="a_node8"><a xlink:href="classGridFinder.html#a187e8c44c7f99237645b49dc2c6745c8" target="_top" xlink:title="Find the middle of a line.">
<polygon fill="#ffffff" stroke="#000000" points="528,-126 528,-145 648,-145 648,-126 528,-126"/>
<text text-anchor="middle" x="588" y="-133" font-family="Helvetica,sans-Serif" font-size="10.00" fill="#000000">GridFinder::getMiddle</text>
</a>
</g>
</g>
<!-- Node136&#45;&gt;Node143 -->
<g id="edge14" class="edge">
<title>Node136&#45;&gt;Node143</title>
<path fill="none" stroke="#191970" d="M870.7757,-119.5572C809.936,-122.9873 711.5084,-128.5366 648.2944,-132.1006"/>
<polygon fill="#191970" stroke="#191970" points="871.156,-123.0414 880.9431,-118.9839 870.7619,-116.0525 871.156,-123.0414"/>
</g>
<!-- Node146 -->
<g id="node11" class="node">
<title>Node146</title>
<g id="a_node11"><a xlink:href="classGridFinder.html#a79b62fc48a9db94ad0530e76ed2c3306" target="_top" xlink:title="Follow the given line to find the line perpendicular to it. Move along the line for minDistance pixel...">
<polygon fill="#ffffff" stroke="#000000" points="170,-121 170,-140 304,-140 304,-121 170,-121"/>
<text text-anchor="middle" x="237" y="-128" font-family="Helvetica,sans-Serif" font-size="10.00" fill="#000000">GridFinder::findNextLine</text>
</a>
</g>
</g>
<!-- Node136&#45;&gt;Node146 -->
<g id="edge17" class="edge">
<title>Node136&#45;&gt;Node146</title>
<path fill="none" stroke="#191970" d="M870.7076,-114.0574C767.2882,-109.9461 534.9531,-103.3114 340,-116.5 325.9559,-117.4501 310.908,-119.1209 296.7717,-120.985"/>
<polygon fill="#191970" stroke="#191970" points="870.7662,-117.5626 880.9,-114.4711 871.0502,-110.5683 870.7662,-117.5626"/>
</g>
<!-- Node149 -->
<g id="node14" class="node">
<title>Node149</title>
<g id="a_node14"><a xlink:href="classGridFinder.html#aa786429bfa49bf25e792eeeb8795e081" target="_top" xlink:title="Print the mask as &quot;pixels&quot; to the given output stream.">
<polygon fill="#ffffff" stroke="#000000" points="721.5,-50 721.5,-69 816.5,-69 816.5,-50 721.5,-50"/>
<text text-anchor="middle" x="769" y="-57" font-family="Helvetica,sans-Serif" font-size="10.00" fill="#000000">GridFinder::print</text>
</a>
</g>
</g>
<!-- Node136&#45;&gt;Node149 -->
<g id="edge15" class="edge">
<title>Node136&#45;&gt;Node149</title>
<path fill="none" stroke="#191970" d="M893.5382,-102.7946C878.8965,-96.6045 861.177,-89.3786 845,-83.5 830.8249,-78.3489 814.9428,-73.2333 801.3771,-69.0568"/>
<polygon fill="#191970" stroke="#191970" points="892.5549,-106.1802 903.1263,-106.8852 895.3018,-99.7417 892.5549,-106.1802"/>
</g>
<!-- Node150 -->
<g id="node15" class="node">
<title>Node150</title>
<g id="a_node15"><a xlink:href="classGridFinder.html#a05628935998785212ee5320a7e146f2b" target="_top" xlink:title="Find the vertical range of white pixels closest to the center of the given column,...">
<polygon fill="#ffffff" stroke="#000000" points="705,-.5 705,-30.5 833,-30.5 833,-.5 705,-.5"/>
<text text-anchor="start" x="713" y="-18.5" font-family="Helvetica,sans-Serif" font-size="10.00" fill="#000000">GridFinder::getFirstLine</text>
<text text-anchor="middle" x="769" y="-7.5" font-family="Helvetica,sans-Serif" font-size="10.00" fill="#000000">Estimate</text>
</a>
</g>
</g>
<!-- Node136&#45;&gt;Node150 -->
<g id="edge16" class="edge">
<title>Node136&#45;&gt;Node150</title>
<path fill="none" stroke="#191970" d="M910.5756,-98.8443C895.7481,-81.7389 871.1845,-56.1524 845,-40.5 838.6812,-36.7228 831.7213,-33.438 824.6565,-30.6037"/>
<polygon fill="#191970" stroke="#191970" points="908.2711,-101.5398 917.399,-106.9187 913.6177,-97.0216 908.2711,-101.5398"/>
</g>
<!-- Node138 -->
<g id="node3" class="node">
<title>Node138</title>
<g id="a_node3"><a xlink:href="classGridFinder.html#a20f10e8136febf04c3a1987a35860ef1" target="_top" xlink:title="Scan 360° around a given pixel, and find the angle with the most white pixels. This version is not ve...">
<polygon fill="#ffffff" stroke="#000000" points="342.5,-243 342.5,-262 480.5,-262 480.5,-243 342.5,-243"/>
<text text-anchor="middle" x="411.5" y="-250" font-family="Helvetica,sans-Serif" font-size="10.00" fill="#000000">GridFinder::findLineAngle</text>
</a>
</g>
</g>
<!-- Node137&#45;&gt;Node138 -->
<g id="edge2" class="edge">
<title>Node137&#45;&gt;Node138</title>
<path fill="none" stroke="#191970" d="M729.7658,-237.8148C708.4749,-243.8583 681.5574,-250.4768 657,-253.5 597.7764,-260.7908 529.9064,-259.8082 480.5591,-257.4208"/>
<polygon fill="#191970" stroke="#191970" points="730.8026,-241.1584 739.4262,-235.0034 728.8465,-234.4372 730.8026,-241.1584"/>
</g>
<!-- Node140 -->
<g id="node5" class="node">
<title>Node140</title>
<g id="a_node5"><a xlink:href="classGridFinder.html#a1ec79b247bf5e64bb9c456eebf420577" target="_top" xlink:title=" ">
<polygon fill="#ffffff" stroke="#000000" points="519,-213.5 519,-243.5 657,-243.5 657,-213.5 519,-213.5"/>
<text text-anchor="start" x="527" y="-231.5" font-family="Helvetica,sans-Serif" font-size="10.00" fill="#000000">GridFinder::findLineAngle</text>
<text text-anchor="middle" x="588" y="-220.5" font-family="Helvetica,sans-Serif" font-size="10.00" fill="#000000">Accurate</text>
</a>
</g>
</g>
<!-- Node137&#45;&gt;Node140 -->
<g id="edge4" class="edge">
<title>Node137&#45;&gt;Node140</title>
<path fill="none" stroke="#191970" d="M707.23,-226.5238C691.0881,-226.7914 673.5857,-227.0815 657.09,-227.3549"/>
<polygon fill="#191970" stroke="#191970" points="707.6762,-230.017 717.6168,-226.3517 707.5602,-223.018 707.6762,-230.017"/>
</g>
<!-- Node141 -->
<g id="node6" class="node">
<title>Node141</title>
<g id="a_node6"><a xlink:href="classGridFinder.html#aa1dc2d7760adcd45c649f0c8a303563e" target="_top" xlink:title="Similar to findLineAngle, but is more accurate, because it uses the average of the range of angles wi...">
<polygon fill="#ffffff" stroke="#000000" points="519,-164.5 519,-194.5 657,-194.5 657,-164.5 519,-164.5"/>
<text text-anchor="start" x="527" y="-182.5" font-family="Helvetica,sans-Serif" font-size="10.00" fill="#000000">GridFinder::findLineAngle</text>
<text text-anchor="middle" x="588" y="-171.5" font-family="Helvetica,sans-Serif" font-size="10.00" fill="#000000">AccurateRange</text>
</a>
</g>
</g>
<!-- Node137&#45;&gt;Node141 -->
<g id="edge5" class="edge">
<title>Node137&#45;&gt;Node141</title>
<path fill="none" stroke="#191970" d="M721.7195,-213.484C698.9293,-207.692 671.3603,-200.6855 647.1898,-194.5427"/>
<polygon fill="#191970" stroke="#191970" points="720.9427,-216.8977 731.4967,-215.9688 722.6669,-210.1134 720.9427,-216.8977"/>
</g>
<!-- Node139 -->
<g id="node4" class="node">
<title>Node139</title>
<g id="a_node4"><a xlink:href="classGridFinder.html#ac78760540b520bc08f716ef77127f1fc" target="_top" xlink:title="Get an estimate of the line through a given pixel. Find an estimate of the slope, then use that to de...">
<polygon fill="#ffffff" stroke="#000000" points="173,-178.5 173,-208.5 301,-208.5 301,-178.5 173,-178.5"/>
<text text-anchor="start" x="181" y="-196.5" font-family="Helvetica,sans-Serif" font-size="10.00" fill="#000000">GridFinder::getFirstLine</text>
<text text-anchor="middle" x="237" y="-185.5" font-family="Helvetica,sans-Serif" font-size="10.00" fill="#000000">Estimate</text>
</a>
</g>
</g>
<!-- Node138&#45;&gt;Node139 -->
<g id="edge3" class="edge">
<title>Node138&#45;&gt;Node139</title>
<path fill="none" stroke="#191970" d="M373.5517,-239.6693C346.4542,-230.5074 309.9124,-218.1523 281.449,-208.5286"/>
<polygon fill="#191970" stroke="#191970" points="372.481,-243.0019 383.0752,-242.8893 374.7231,-236.3707 372.481,-243.0019"/>
</g>
<!-- Node142&#45;&gt;Node143 -->
<g id="edge7" class="edge">
<title>Node142&#45;&gt;Node143</title>
<path fill="none" stroke="#191970" d="M697.4376,-162.1036C673.479,-156.2794 647.6666,-150.0046 627.1306,-145.0124"/>
<polygon fill="#191970" stroke="#191970" points="696.6725,-165.5195 707.2163,-164.4808 698.3261,-158.7176 696.6725,-165.5195"/>
</g>
<!-- Node144 -->
<g id="node9" class="node">
<title>Node144</title>
<g id="a_node9"><a xlink:href="classGridFinder.html#a504ddc8af3a0cc68b68de387ac1a90ea" target="_top" xlink:title="In exceptional cases, we might want to find the middle of a line in a point that happens to lie at th...">
<polygon fill="#ffffff" stroke="#000000" points="340,-173.5 340,-203.5 483,-203.5 483,-173.5 340,-173.5"/>
<text text-anchor="start" x="348" y="-191.5" font-family="Helvetica,sans-Serif" font-size="10.00" fill="#000000">GridFinder::getMiddleWith</text>
<text text-anchor="middle" x="411.5" y="-180.5" font-family="Helvetica,sans-Serif" font-size="10.00" fill="#000000">Retries</text>
</a>
</g>
</g>
<!-- Node143&#45;&gt;Node144 -->
<g id="edge8" class="edge">
<title>Node143&#45;&gt;Node144</title>
<path fill="none" stroke="#191970" d="M544.8013,-147.9083C536.244,-150.3982 527.3324,-153.0136 519,-155.5 499.6376,-161.2777 478.36,-167.7776 459.8807,-173.4714"/>
<polygon fill="#191970" stroke="#191970" points="545.9987,-151.2054 554.6281,-145.0584 544.0489,-144.4824 545.9987,-151.2054"/>
</g>
<!-- Node145 -->
<g id="node10" class="node">
<title>Node145</title>
<g id="a_node10"><a xlink:href="classGridFinder.html#a9050aab45d10d2c2d4859af19b4987b4" target="_top" xlink:title="Check if there could be a valid line going through the given point, and if so, find and return the ac...">
<polygon fill="#ffffff" stroke="#000000" points="351,-126 351,-145 472,-145 472,-126 351,-126"/>
<text text-anchor="middle" x="411.5" y="-133" font-family="Helvetica,sans-Serif" font-size="10.00" fill="#000000">GridFinder::checkLine</text>
</a>
</g>
</g>
<!-- Node143&#45;&gt;Node145 -->
<g id="edge10" class="edge">
<title>Node143&#45;&gt;Node145</title>
<path fill="none" stroke="#191970" d="M517.4814,-135.5C502.4475,-135.5 486.6975,-135.5 472.0754,-135.5"/>
<polygon fill="#191970" stroke="#191970" points="517.7524,-139.0001 527.7524,-135.5 517.7523,-132.0001 517.7524,-139.0001"/>
</g>
<!-- Node144&#45;&gt;Node139 -->
<g id="edge9" class="edge">
<title>Node144&#45;&gt;Node139</title>
<path fill="none" stroke="#191970" d="M329.5054,-190.8494C319.9971,-191.1219 310.4052,-191.3967 301.1837,-191.6609"/>
<polygon fill="#191970" stroke="#191970" points="329.8731,-194.3404 339.7688,-190.5553 329.6726,-187.3433 329.8731,-194.3404"/>
</g>
<!-- Node145&#45;&gt;Node146 -->
<g id="edge11" class="edge">
<title>Node145&#45;&gt;Node146</title>
<path fill="none" stroke="#191970" d="M340.9271,-133.4779C328.8358,-133.1314 316.3005,-132.7722 304.2976,-132.4283"/>
<polygon fill="#191970" stroke="#191970" points="340.8619,-136.9773 350.9581,-133.7653 341.0625,-129.9802 340.8619,-136.9773"/>
</g>
<!-- Node147 -->
<g id="node12" class="node">
<title>Node147</title>
<g id="a_node12"><a xlink:href="classGridFinder.html#ad75180aa82b12c7054e0015adc44a331" target="_top" xlink:title="Equivalent to #findNextLine(LineResult,bool,uint,uint) but also supports optional LineResults.">
<polygon fill="#ffffff" stroke="#000000" points="0,-140 0,-159 134,-159 134,-140 0,-140"/>
<text text-anchor="middle" x="67" y="-147" font-family="Helvetica,sans-Serif" font-size="10.00" fill="#000000">GridFinder::findNextLine</text>
</a>
</g>
</g>
<!-- Node146&#45;&gt;Node147 -->
<g id="edge12" class="edge">
<title>Node146&#45;&gt;Node147</title>
<path fill="none" stroke="#191970" d="M159.854,-139.1222C151.3121,-140.0769 142.6634,-141.0435 134.2572,-141.983"/>
<polygon fill="#191970" stroke="#191970" points="160.2622,-142.5985 169.8115,-138.0093 159.4846,-135.6418 160.2622,-142.5985"/>
</g>
<!-- Node148 -->
<g id="node13" class="node">
<title>Node148</title>
<g id="a_node13"><a xlink:href="classGridFinder.html#a3104d4fe44099faf5179674ecb55cb52" target="_top" xlink:title="This is the main function: it looks for a complete square of the grid, as close to the center of the ...">
<polygon fill="#ffffff" stroke="#000000" points="5,-102 5,-121 129,-121 129,-102 5,-102"/>
<text text-anchor="middle" x="67" y="-109" font-family="Helvetica,sans-Serif" font-size="10.00" fill="#000000">GridFinder::findSquare</text>
</a>
</g>
</g>
<!-- Node146&#45;&gt;Node148 -->
<g id="edge13" class="edge">
<title>Node146&#45;&gt;Node148</title>
<path fill="none" stroke="#191970" d="M159.624,-121.8521C149.3644,-120.7054 138.9554,-119.5421 129.0015,-118.4296"/>
<polygon fill="#191970" stroke="#191970" points="159.4846,-125.3582 169.8115,-122.9907 160.2622,-118.4015 159.4846,-125.3582"/>
</g>
</g>
</svg>
