<?xml version="1.0" encoding="UTF-8" standalone="no"?>
<!DOCTYPE svg PUBLIC "-//W3C//DTD SVG 1.1//EN"
 "http://www.w3.org/Graphics/SVG/1.1/DTD/svg11.dtd">
<!-- Generated by graphviz version 2.40.1 (20161225.0304)
 -->
<!-- Title: CryptoPoller::reset Pages: 1 -->
<svg width="379pt" height="28pt"
 viewBox="0.00 0.00 379.00 28.00" xmlns="http://www.w3.org/2000/svg" xmlns:xlink="http://www.w3.org/1999/xlink">
<g id="graph0" class="graph" transform="scale(1 1) rotate(0) translate(4 24)">
<title>CryptoPoller::reset</title>
<polygon fill="#ffffff" stroke="transparent" points="-4,4 -4,-24 375,-24 375,4 -4,4"/>
<!-- Node21 -->
<g id="node1" class="node">
<title>Node21</title>
<g id="a_node1"><a xlink:title=" ">
<polygon fill="#bfbfbf" stroke="#000000" points="264,-.5 264,-19.5 371,-19.5 371,-.5 264,-.5"/>
<text text-anchor="middle" x="317.5" y="-7.5" font-family="Helvetica,sans-Serif" font-size="10.00" fill="#000000">CryptoPoller::reset</text>
</a>
</g>
</g>
<!-- Node22 -->
<g id="node2" class="node">
<title>Node22</title>
<g id="a_node2"><a xlink:href="keccak_8hpp.html#ad2ec31efd2cbbecc017d9c4e61b379f7" target="_top" xlink:title=" ">
<polygon fill="#ffffff" stroke="#000000" points="177,-.5 177,-19.5 228,-19.5 228,-.5 177,-.5"/>
<text text-anchor="middle" x="202.5" y="-7.5" font-family="Helvetica,sans-Serif" font-size="10.00" fill="#000000">keccak</text>
</a>
</g>
</g>
<!-- Node21&#45;&gt;Node22 -->
<g id="edge1" class="edge">
<title>Node21&#45;&gt;Node22</title>
<path fill="none" stroke="#191970" d="M253.5334,-10C244.5634,-10 235.8061,-10 228.1495,-10"/>
<polygon fill="#191970" stroke="#191970" points="253.7038,-13.5001 263.7038,-10 253.7037,-6.5001 253.7038,-13.5001"/>
</g>
<!-- Node23 -->
<g id="node3" class="node">
<title>Node23</title>
<g id="a_node3"><a xlink:href="classHWImplementation.html#abe2799913267791c526580c8f9ae2fac" target="_top" xlink:title=" ">
<polygon fill="#ffffff" stroke="#000000" points="0,-.5 0,-19.5 141,-19.5 141,-.5 0,-.5"/>
<text text-anchor="middle" x="70.5" y="-7.5" font-family="Helvetica,sans-Serif" font-size="10.00" fill="#000000">HWImplementation::hash</text>
</a>
</g>
</g>
<!-- Node22&#45;&gt;Node23 -->
<g id="edge2" class="edge">
<title>Node22&#45;&gt;Node23</title>
<path fill="none" stroke="#191970" d="M166.7305,-10C158.749,-10 150.0152,-10 141.1689,-10"/>
<polygon fill="#191970" stroke="#191970" points="166.7357,-13.5001 176.7357,-10 166.7357,-6.5001 166.7357,-13.5001"/>
</g>
</g>
</svg>
