<?xml version="1.0" encoding="UTF-8" standalone="no"?>
<!DOCTYPE svg PUBLIC "-//W3C//DTD SVG 1.1//EN"
 "http://www.w3.org/Graphics/SVG/1.1/DTD/svg11.dtd">
<!-- Generated by graphviz version 2.40.1 (20161225.0304)
 -->
<!-- Title: Mask::width Pages: 1 -->
<svg width="1452pt" height="346pt"
 viewBox="0.00 0.00 1452.00 346.00" xmlns="http://www.w3.org/2000/svg" xmlns:xlink="http://www.w3.org/1999/xlink">
<g id="graph0" class="graph" transform="scale(1 1) rotate(0) translate(4 342)">
<title>Mask::width</title>
<polygon fill="#ffffff" stroke="transparent" points="-4,4 -4,-342 1448,-342 1448,4 -4,4"/>
<!-- Node61 -->
<g id="node1" class="node">
<title>Node61</title>
<g id="a_node1"><a xlink:title="Get the width of the mask in pixels.">
<polygon fill="#bfbfbf" stroke="#000000" points="1369,-72.5 1369,-91.5 1444,-91.5 1444,-72.5 1369,-72.5"/>
<text text-anchor="middle" x="1406.5" y="-79.5" font-family="Helvetica,sans-Serif" font-size="10.00" fill="#000000">Mask::width</text>
</a>
</g>
</g>
<!-- Node62 -->
<g id="node2" class="node">
<title>Node62</title>
<g id="a_node2"><a xlink:href="classGridFinder.html#aadfce89f171d55f954a19d700b43ff5c" target="_top" xlink:title="Get the width of the frame.">
<polygon fill="#ffffff" stroke="#000000" points="1234,-154.5 1234,-173.5 1333,-173.5 1333,-154.5 1234,-154.5"/>
<text text-anchor="middle" x="1283.5" y="-161.5" font-family="Helvetica,sans-Serif" font-size="10.00" fill="#000000">GridFinder::width</text>
</a>
</g>
</g>
<!-- Node61&#45;&gt;Node62 -->
<g id="edge1" class="edge">
<title>Node61&#45;&gt;Node62</title>
<path fill="none" stroke="#191970" d="M1383.3802,-97.4132C1358.336,-114.1093 1319.1461,-140.2359 1298.0737,-154.2842"/>
<polygon fill="#191970" stroke="#191970" points="1385.5282,-100.1877 1391.9073,-91.7285 1381.6453,-94.3633 1385.5282,-100.1877"/>
</g>
<!-- Node75 -->
<g id="node15" class="node">
<title>Node75</title>
<g id="a_node15"><a xlink:href="Grid-Finder_8module_8hpp.html#a6849f4dcdb45a7aaadcda6439233d376" target="_top" xlink:title=" ">
<polygon fill="#ffffff" stroke="#000000" points="0,-28.5 0,-47.5 113,-47.5 113,-28.5 0,-28.5"/>
<text text-anchor="middle" x="56.5" y="-35.5" font-family="Helvetica,sans-Serif" font-size="10.00" fill="#000000">PYBIND11_MODULE</text>
</a>
</g>
</g>
<!-- Node61&#45;&gt;Node75 -->
<g id="edge29" class="edge">
<title>Node61&#45;&gt;Node75</title>
<path fill="none" stroke="#191970" d="M1378.1273,-68.055C1327.8143,-44.6505 1219.1035,0 1122,0 1122,0 1122,0 420,0 299.2599,0 268.6204,-2.595 149,-19 131.9456,-21.3389 113.32,-24.9555 97.2812,-28.4082"/>
<polygon fill="#191970" stroke="#191970" points="1376.8539,-71.3243 1387.3905,-72.4331 1379.8451,-64.9956 1376.8539,-71.3243"/>
</g>
<!-- Node63 -->
<g id="node3" class="node">
<title>Node63</title>
<g id="a_node3"><a xlink:href="classGridFinder.html#ace2c24a54244e7e92618d3fe7ec62fdc" target="_top" xlink:title="Starting from the given pixel, move in the direction of the given angle, and count the number of whit...">
<polygon fill="#ffffff" stroke="#000000" points="1071,-192.5 1071,-211.5 1173,-211.5 1173,-192.5 1071,-192.5"/>
<text text-anchor="middle" x="1122" y="-199.5" font-family="Helvetica,sans-Serif" font-size="10.00" fill="#000000">GridFinder::hough</text>
</a>
</g>
</g>
<!-- Node62&#45;&gt;Node63 -->
<g id="edge2" class="edge">
<title>Node62&#45;&gt;Node63</title>
<path fill="none" stroke="#191970" d="M1232.9417,-175.8961C1210.2412,-181.2374 1183.8219,-187.4537 1162.4602,-192.4799"/>
<polygon fill="#191970" stroke="#191970" points="1233.8142,-179.2864 1242.7467,-173.589 1232.2109,-172.4725 1233.8142,-179.2864"/>
</g>
<!-- Node67 -->
<g id="node7" class="node">
<title>Node67</title>
<g id="a_node7"><a xlink:href="classGridFinder.html#ab5c436911deb269a22a8d5525271fa4e" target="_top" xlink:title="Get the width of the line at a given point.">
<polygon fill="#ffffff" stroke="#000000" points="1046,-105 1046,-135 1198,-135 1198,-105 1046,-105"/>
<text text-anchor="start" x="1054" y="-123" font-family="Helvetica,sans-Serif" font-size="10.00" fill="#000000">GridFinder::getWidthAtPoint</text>
<text text-anchor="middle" x="1122" y="-112" font-family="Helvetica,sans-Serif" font-size="10.00" fill="#000000">OnLine</text>
</a>
</g>
</g>
<!-- Node62&#45;&gt;Node67 -->
<g id="edge6" class="edge">
<title>Node62&#45;&gt;Node67</title>
<path fill="none" stroke="#191970" d="M1238.573,-151.7598C1219.5849,-146.5866 1197.2823,-140.5103 1177.2967,-135.0654"/>
<polygon fill="#191970" stroke="#191970" points="1237.8885,-155.2009 1248.4569,-154.4527 1239.7286,-148.447 1237.8885,-155.2009"/>
</g>
<!-- Node71 -->
<g id="node11" class="node">
<title>Node71</title>
<g id="a_node11"><a xlink:href="classGridFinder.html#a6dec96f8c6ed97647f692fa9f9908595" target="_top" xlink:title="Follow the given line to find the line perpendicular to it. Move along the line for minDistance pixel...">
<polygon fill="#ffffff" stroke="#000000" points="523,-104.5 523,-123.5 657,-123.5 657,-104.5 523,-104.5"/>
<text text-anchor="middle" x="590" y="-111.5" font-family="Helvetica,sans-Serif" font-size="10.00" fill="#000000">GridFinder::findNextLine</text>
</a>
</g>
</g>
<!-- Node62&#45;&gt;Node71 -->
<g id="edge28" class="edge">
<title>Node62&#45;&gt;Node71</title>
<path fill="none" stroke="#191970" d="M1268.7928,-146.6778C1253.2116,-129.7906 1226.9037,-105.2081 1198,-95 991.1245,-21.9362 719.6069,-79.9712 624.6064,-104.4432"/>
<polygon fill="#191970" stroke="#191970" points="1266.2779,-149.1165 1275.5444,-154.253 1271.5036,-144.459 1266.2779,-149.1165"/>
</g>
<!-- Node76 -->
<g id="node16" class="node">
<title>Node76</title>
<g id="a_node16"><a xlink:href="classGridFinder.html#a671392ebb7c1324bd9a4e8d321475619" target="_top" xlink:title="Print the mask as &quot;pixels&quot; to the given output stream.">
<polygon fill="#ffffff" stroke="#000000" points="1074.5,-318.5 1074.5,-337.5 1169.5,-337.5 1169.5,-318.5 1074.5,-318.5"/>
<text text-anchor="middle" x="1122" y="-325.5" font-family="Helvetica,sans-Serif" font-size="10.00" fill="#000000">GridFinder::print</text>
</a>
</g>
</g>
<!-- Node62&#45;&gt;Node76 -->
<g id="edge17" class="edge">
<title>Node62&#45;&gt;Node76</title>
<path fill="none" stroke="#191970" d="M1277.5973,-183.2677C1266.9687,-214.6258 1241.5653,-276.4621 1198,-309 1189.7185,-315.1853 1179.6559,-319.3726 1169.5996,-322.2031"/>
<polygon fill="#191970" stroke="#191970" points="1280.9947,-184.1369 1280.7461,-173.545 1274.3352,-181.9801 1280.9947,-184.1369"/>
</g>
<!-- Node77 -->
<g id="node17" class="node">
<title>Node77</title>
<g id="a_node17"><a xlink:href="classGridFinder.html#a0cb4d1d344f4830de77ecf1615878656" target="_top" xlink:title="Draw a line on the mask. Used only for testing.">
<polygon fill="#ffffff" stroke="#000000" points="1064,-280.5 1064,-299.5 1180,-299.5 1180,-280.5 1064,-280.5"/>
<text text-anchor="middle" x="1122" y="-287.5" font-family="Helvetica,sans-Serif" font-size="10.00" fill="#000000">GridFinder::drawLine</text>
</a>
</g>
</g>
<!-- Node62&#45;&gt;Node77 -->
<g id="edge18" class="edge">
<title>Node62&#45;&gt;Node77</title>
<path fill="none" stroke="#191970" d="M1273.7314,-182.6453C1260.0822,-206.8176 1232.996,-248.529 1198,-271 1191.9345,-274.8947 1185.1229,-277.9911 1178.1343,-280.4529"/>
<polygon fill="#191970" stroke="#191970" points="1276.8688,-184.2027 1278.5933,-173.7491 1270.7263,-180.8456 1276.8688,-184.2027"/>
</g>
<!-- Node79 -->
<g id="node19" class="node">
<title>Node79</title>
<g id="a_node19"><a xlink:href="classGridFinder.html#af8bdc28d95e295618c2f345f2d7eb758" target="_top" xlink:title="Move a pixel in a given direction for a given distance.">
<polygon fill="#ffffff" stroke="#000000" points="1072,-154.5 1072,-173.5 1172,-173.5 1172,-154.5 1072,-154.5"/>
<text text-anchor="middle" x="1122" y="-161.5" font-family="Helvetica,sans-Serif" font-size="10.00" fill="#000000">GridFinder::move</text>
</a>
</g>
</g>
<!-- Node62&#45;&gt;Node79 -->
<g id="edge20" class="edge">
<title>Node62&#45;&gt;Node79</title>
<path fill="none" stroke="#191970" d="M1223.4191,-164C1206.5502,-164 1188.3911,-164 1172.1652,-164"/>
<polygon fill="#191970" stroke="#191970" points="1223.7269,-167.5001 1233.7269,-164 1223.7269,-160.5001 1223.7269,-167.5001"/>
</g>
<!-- Node80 -->
<g id="node20" class="node">
<title>Node80</title>
<g id="a_node20"><a xlink:href="classGridFinder.html#ace2a9cb90cc19a295d0fbe934a79b7e0" target="_top" xlink:title="Get the center pixel of the frame.">
<polygon fill="#ffffff" stroke="#000000" points="538.5,-28.5 538.5,-47.5 641.5,-47.5 641.5,-28.5 538.5,-28.5"/>
<text text-anchor="middle" x="590" y="-35.5" font-family="Helvetica,sans-Serif" font-size="10.00" fill="#000000">GridFinder::center</text>
</a>
</g>
</g>
<!-- Node62&#45;&gt;Node80 -->
<g id="edge24" class="edge">
<title>Node62&#45;&gt;Node80</title>
<path fill="none" stroke="#191970" d="M1274.4235,-145.1314C1261.3911,-120.4527 1234.8263,-78.2199 1198,-60 1101.0802,-12.0486 770.2642,-26.7276 641.6929,-34.5267"/>
<polygon fill="#191970" stroke="#191970" points="1271.3886,-146.8856 1279.031,-154.2235 1277.6326,-143.7213 1271.3886,-146.8856"/>
</g>
<!-- Node81 -->
<g id="node21" class="node">
<title>Node81</title>
<g id="a_node21"><a xlink:href="classGridFinder.html#ae84004386cbee9606f9a46872cb67be8" target="_top" xlink:title="Find the vertical range of white pixels closest to the center of the given column,...">
<polygon fill="#ffffff" stroke="#000000" points="1058,-231 1058,-261 1186,-261 1186,-231 1058,-231"/>
<text text-anchor="start" x="1066" y="-249" font-family="Helvetica,sans-Serif" font-size="10.00" fill="#000000">GridFinder::getFirstLine</text>
<text text-anchor="middle" x="1122" y="-238" font-family="Helvetica,sans-Serif" font-size="10.00" fill="#000000">Estimate</text>
</a>
</g>
</g>
<!-- Node62&#45;&gt;Node81 -->
<g id="edge27" class="edge">
<title>Node62&#45;&gt;Node81</title>
<path fill="none" stroke="#191970" d="M1263.4226,-179.6624C1246.666,-192.1608 1221.7688,-209.4332 1198,-221 1190.5062,-224.6467 1182.3504,-227.9574 1174.2544,-230.8891"/>
<polygon fill="#191970" stroke="#191970" points="1265.541,-182.4486 1271.3942,-173.6173 1261.3113,-176.871 1265.541,-182.4486"/>
</g>
<!-- Node64 -->
<g id="node4" class="node">
<title>Node64</title>
<g id="a_node4"><a xlink:href="classGridFinder.html#a04e1362c95151ac77477844a952af0f9" target="_top" xlink:title="Scan 360° around a given pixel, and find the angle with the most white pixels. This version is not ve...">
<polygon fill="#ffffff" stroke="#000000" points="695.5,-230.5 695.5,-249.5 833.5,-249.5 833.5,-230.5 695.5,-230.5"/>
<text text-anchor="middle" x="764.5" y="-237.5" font-family="Helvetica,sans-Serif" font-size="10.00" fill="#000000">GridFinder::findLineAngle</text>
</a>
</g>
</g>
<!-- Node63&#45;&gt;Node64 -->
<g id="edge3" class="edge">
<title>Node63&#45;&gt;Node64</title>
<path fill="none" stroke="#191970" d="M1060.5806,-208.5285C997.5033,-215.2332 899.5089,-225.6494 833.7226,-232.6421"/>
<polygon fill="#191970" stroke="#191970" points="1061.205,-211.9819 1070.779,-207.4445 1060.465,-205.0211 1061.205,-211.9819"/>
</g>
<!-- Node66 -->
<g id="node6" class="node">
<title>Node66</title>
<g id="a_node6"><a xlink:href="classGridFinder.html#afcc1eed83ee0292966c3c80883069634" target="_top" xlink:title="Similar to findLineAngle, but is more accurate, because it uses the average of the range of angles wi...">
<polygon fill="#ffffff" stroke="#000000" points="872,-257 872,-287 1010,-287 1010,-257 872,-257"/>
<text text-anchor="start" x="880" y="-275" font-family="Helvetica,sans-Serif" font-size="10.00" fill="#000000">GridFinder::findLineAngle</text>
<text text-anchor="middle" x="941" y="-264" font-family="Helvetica,sans-Serif" font-size="10.00" fill="#000000">AccurateRange</text>
</a>
</g>
</g>
<!-- Node63&#45;&gt;Node66 -->
<g id="edge5" class="edge">
<title>Node63&#45;&gt;Node66</title>
<path fill="none" stroke="#191970" d="M1068.1473,-214.3751C1060.6114,-216.6246 1053.0417,-219.1694 1046,-222 1029.0174,-228.8267 1026.412,-233.897 1010,-242 999.5757,-247.1467 988.0599,-252.3408 977.4714,-256.9272"/>
<polygon fill="#191970" stroke="#191970" points="1069.3191,-217.681 1077.9872,-211.5888 1067.4119,-210.9458 1069.3191,-217.681"/>
</g>
<!-- Node65 -->
<g id="node5" class="node">
<title>Node65</title>
<g id="a_node5"><a xlink:href="classGridFinder.html#aaea3af418ab7124f2b25bcc124fccaca" target="_top" xlink:title="Get an estimate of the line through a given pixel. Find an estimate of the slope, then use that to de...">
<polygon fill="#ffffff" stroke="#000000" points="526,-203 526,-233 654,-233 654,-203 526,-203"/>
<text text-anchor="start" x="534" y="-221" font-family="Helvetica,sans-Serif" font-size="10.00" fill="#000000">GridFinder::getFirstLine</text>
<text text-anchor="middle" x="590" y="-210" font-family="Helvetica,sans-Serif" font-size="10.00" fill="#000000">Estimate</text>
</a>
</g>
</g>
<!-- Node64&#45;&gt;Node65 -->
<g id="edge4" class="edge">
<title>Node64&#45;&gt;Node65</title>
<path fill="none" stroke="#191970" d="M685.3082,-230.0159C674.8343,-228.6954 664.2042,-227.3553 654.0285,-226.0724"/>
<polygon fill="#191970" stroke="#191970" points="684.9231,-233.495 695.2823,-231.2734 685.7987,-226.55 684.9231,-233.495"/>
</g>
<!-- Node68 -->
<g id="node8" class="node">
<title>Node68</title>
<g id="a_node8"><a xlink:href="classGridFinder.html#abcd46f31e256080b2d5d2aee03c0e258" target="_top" xlink:title="Find the middle of a line.">
<polygon fill="#ffffff" stroke="#000000" points="881,-104.5 881,-123.5 1001,-123.5 1001,-104.5 881,-104.5"/>
<text text-anchor="middle" x="941" y="-111.5" font-family="Helvetica,sans-Serif" font-size="10.00" fill="#000000">GridFinder::getMiddle</text>
</a>
</g>
</g>
<!-- Node67&#45;&gt;Node68 -->
<g id="edge7" class="edge">
<title>Node67&#45;&gt;Node68</title>
<path fill="none" stroke="#191970" d="M1035.5897,-117.1356C1023.9633,-116.7502 1012.2466,-116.3618 1001.2095,-115.9959"/>
<polygon fill="#191970" stroke="#191970" points="1035.6538,-120.6395 1045.7643,-117.4728 1035.8858,-113.6434 1035.6538,-120.6395"/>
</g>
<!-- Node69 -->
<g id="node9" class="node">
<title>Node69</title>
<g id="a_node9"><a xlink:href="classGridFinder.html#af830abf29ca6dc9c01197a38fe16e1e5" target="_top" xlink:title="In exceptional cases, we might want to find the middle of a line in a point that happens to lie at th...">
<polygon fill="#ffffff" stroke="#000000" points="693,-181 693,-211 836,-211 836,-181 693,-181"/>
<text text-anchor="start" x="701" y="-199" font-family="Helvetica,sans-Serif" font-size="10.00" fill="#000000">GridFinder::getMiddleWith</text>
<text text-anchor="middle" x="764.5" y="-188" font-family="Helvetica,sans-Serif" font-size="10.00" fill="#000000">Retries</text>
</a>
</g>
</g>
<!-- Node68&#45;&gt;Node69 -->
<g id="edge8" class="edge">
<title>Node68&#45;&gt;Node69</title>
<path fill="none" stroke="#191970" d="M911.2004,-127.8446C879.5157,-142.5649 829.5651,-165.7714 796.9162,-180.9398"/>
<polygon fill="#191970" stroke="#191970" points="912.8134,-130.9545 920.4078,-123.5669 909.864,-124.6062 912.8134,-130.9545"/>
</g>
<!-- Node70 -->
<g id="node10" class="node">
<title>Node70</title>
<g id="a_node10"><a xlink:href="classGridFinder.html#ae12ca7921b02b37417d87fc737f0134d" target="_top" xlink:title="Check if there could be a valid line going through the given point, and if so, find and return the ac...">
<polygon fill="#ffffff" stroke="#000000" points="704,-104.5 704,-123.5 825,-123.5 825,-104.5 704,-104.5"/>
<text text-anchor="middle" x="764.5" y="-111.5" font-family="Helvetica,sans-Serif" font-size="10.00" fill="#000000">GridFinder::checkLine</text>
</a>
</g>
</g>
<!-- Node68&#45;&gt;Node70 -->
<g id="edge10" class="edge">
<title>Node68&#45;&gt;Node70</title>
<path fill="none" stroke="#191970" d="M870.4814,-114C855.4475,-114 839.6975,-114 825.0754,-114"/>
<polygon fill="#191970" stroke="#191970" points="870.7524,-117.5001 880.7524,-114 870.7523,-110.5001 870.7524,-117.5001"/>
</g>
<!-- Node69&#45;&gt;Node65 -->
<g id="edge9" class="edge">
<title>Node69&#45;&gt;Node65</title>
<path fill="none" stroke="#191970" d="M682.8089,-206.2992C673.2012,-207.5104 663.5033,-208.7331 654.1837,-209.9081"/>
<polygon fill="#191970" stroke="#191970" points="683.2851,-209.7669 692.7688,-205.0435 682.4095,-202.8219 683.2851,-209.7669"/>
</g>
<!-- Node70&#45;&gt;Node71 -->
<g id="edge11" class="edge">
<title>Node70&#45;&gt;Node71</title>
<path fill="none" stroke="#191970" d="M693.9271,-114C681.8358,-114 669.3005,-114 657.2976,-114"/>
<polygon fill="#191970" stroke="#191970" points="693.9581,-117.5001 703.9581,-114 693.9581,-110.5001 693.9581,-117.5001"/>
</g>
<!-- Node72 -->
<g id="node12" class="node">
<title>Node72</title>
<g id="a_node12"><a xlink:href="classGridFinder.html#ad1a5448de0df9a84f989f64b55025843" target="_top" xlink:title="Equivalent to #findNextLine(LineResult,bool,uint,uint) but also supports optional LineResults.">
<polygon fill="#ffffff" stroke="#000000" points="353,-104.5 353,-123.5 487,-123.5 487,-104.5 353,-104.5"/>
<text text-anchor="middle" x="420" y="-111.5" font-family="Helvetica,sans-Serif" font-size="10.00" fill="#000000">GridFinder::findNextLine</text>
</a>
</g>
</g>
<!-- Node71&#45;&gt;Node72 -->
<g id="edge12" class="edge">
<title>Node71&#45;&gt;Node72</title>
<path fill="none" stroke="#191970" d="M512.5754,-114C504.1241,-114 495.5721,-114 487.2572,-114"/>
<polygon fill="#191970" stroke="#191970" points="512.8115,-117.5001 522.8115,-114 512.8115,-110.5001 512.8115,-117.5001"/>
</g>
<!-- Node73 -->
<g id="node13" class="node">
<title>Node73</title>
<g id="a_node13"><a xlink:href="classGridFinder.html#a701c0c1e70d01bb8773a89a29f6673a0" target="_top" xlink:title="This is the main function: it looks for a complete square of the grid, as close to the center of the ...">
<polygon fill="#ffffff" stroke="#000000" points="358,-66.5 358,-85.5 482,-85.5 482,-66.5 358,-66.5"/>
<text text-anchor="middle" x="420" y="-73.5" font-family="Helvetica,sans-Serif" font-size="10.00" fill="#000000">GridFinder::findSquare</text>
</a>
</g>
</g>
<!-- Node71&#45;&gt;Node73 -->
<g id="edge13" class="edge">
<title>Node71&#45;&gt;Node73</title>
<path fill="none" stroke="#191970" d="M537.1019,-102.1757C513.135,-96.8184 485.1765,-90.5689 462.5897,-85.5201"/>
<polygon fill="#191970" stroke="#191970" points="536.5791,-105.6452 547.1018,-104.411 538.1062,-98.8138 536.5791,-105.6452"/>
</g>
<!-- Node74 -->
<g id="node14" class="node">
<title>Node74</title>
<g id="a_node14"><a xlink:href="classLocationFinder.html#af56756d038d762e04e0c91bac9fc2522" target="_top" xlink:title="Read a new frame, mask it, run GridFinder, and get the position of the drone. The position is the pos...">
<polygon fill="#ffffff" stroke="#000000" points="149,-28.5 149,-47.5 317,-47.5 317,-28.5 149,-28.5"/>
<text text-anchor="middle" x="233" y="-35.5" font-family="Helvetica,sans-Serif" font-size="10.00" fill="#000000">LocationFinder::updateLocation</text>
</a>
</g>
</g>
<!-- Node73&#45;&gt;Node74 -->
<g id="edge14" class="edge">
<title>Node73&#45;&gt;Node74</title>
<path fill="none" stroke="#191970" d="M362.869,-64.3905C336.2733,-58.986 305.0269,-52.6365 279.8487,-47.5201"/>
<polygon fill="#191970" stroke="#191970" points="362.3153,-67.8494 372.812,-66.411 363.7093,-60.9896 362.3153,-67.8494"/>
</g>
<!-- Node73&#45;&gt;Node75 -->
<g id="edge16" class="edge">
<title>Node73&#45;&gt;Node75</title>
<path fill="none" stroke="#191970" d="M347.5722,-73.5326C292.8343,-71.0365 215.9438,-66.1808 149,-57 131.9456,-54.6611 113.32,-51.0445 97.2812,-47.5918"/>
<polygon fill="#191970" stroke="#191970" points="347.7266,-77.0427 357.871,-73.9864 348.0348,-70.0495 347.7266,-77.0427"/>
</g>
<!-- Node74&#45;&gt;Node75 -->
<g id="edge15" class="edge">
<title>Node74&#45;&gt;Node75</title>
<path fill="none" stroke="#191970" d="M138.6177,-38C129.8852,-38 121.233,-38 113.0056,-38"/>
<polygon fill="#191970" stroke="#191970" points="138.8854,-41.5001 148.8854,-38 138.8853,-34.5001 138.8854,-41.5001"/>
</g>
<!-- Node78 -->
<g id="node18" class="node">
<title>Node78</title>
<g id="a_node18"><a xlink:href="classGridFinder.html#a38cc6124693e5f533e1598587272f92a" target="_top" xlink:title="Draw a line on the mask. Used only for testing.">
<polygon fill="#ffffff" stroke="#000000" points="883,-306.5 883,-325.5 999,-325.5 999,-306.5 883,-306.5"/>
<text text-anchor="middle" x="941" y="-313.5" font-family="Helvetica,sans-Serif" font-size="10.00" fill="#000000">GridFinder::drawLine</text>
</a>
</g>
</g>
<!-- Node77&#45;&gt;Node78 -->
<g id="edge19" class="edge">
<title>Node77&#45;&gt;Node78</title>
<path fill="none" stroke="#191970" d="M1053.6261,-299.8217C1035.6848,-302.3989 1016.5076,-305.1536 999.1567,-307.646"/>
<polygon fill="#191970" stroke="#191970" points="1054.3334,-303.2561 1063.7342,-298.3697 1053.3381,-296.3272 1054.3334,-303.2561"/>
</g>
<!-- Node79&#45;&gt;Node68 -->
<g id="edge21" class="edge">
<title>Node79&#45;&gt;Node68</title>
<path fill="none" stroke="#191970" d="M1072.6136,-151.9743C1063.7364,-149.7215 1054.5806,-147.3381 1046,-145 1021.0598,-138.204 992.9847,-129.8798 972.1444,-123.569"/>
<polygon fill="#191970" stroke="#191970" points="1071.9208,-155.409 1082.4724,-154.4531 1073.6277,-148.6203 1071.9208,-155.409"/>
</g>
<!-- Node79&#45;&gt;Node69 -->
<g id="edge22" class="edge">
<title>Node79&#45;&gt;Node69</title>
<path fill="none" stroke="#191970" d="M1061.8535,-169.3837C999.5945,-174.9566 902.3528,-183.6607 836.1534,-189.5863"/>
<polygon fill="#191970" stroke="#191970" points="1062.2666,-172.8609 1071.9147,-168.4832 1061.6425,-165.8887 1062.2666,-172.8609"/>
</g>
<!-- Node79&#45;&gt;Node71 -->
<g id="edge23" class="edge">
<title>Node79&#45;&gt;Node71</title>
<path fill="none" stroke="#191970" d="M1061.9288,-161.7509C978.7727,-158.1617 824.0086,-149.7648 693,-133 674.0616,-130.5765 653.3311,-126.9447 635.4646,-123.5035"/>
<polygon fill="#191970" stroke="#191970" points="1061.8141,-165.2491 1071.9532,-162.1751 1062.1102,-158.2553 1061.8141,-165.2491"/>
</g>
<!-- Node80&#45;&gt;Node73 -->
<g id="edge25" class="edge">
<title>Node80&#45;&gt;Node73</title>
<path fill="none" stroke="#191970" d="M537.1019,-49.8243C513.135,-55.1816 485.1765,-61.4311 462.5897,-66.4799"/>
<polygon fill="#191970" stroke="#191970" points="538.1062,-53.1862 547.1018,-47.589 536.5791,-46.3548 538.1062,-53.1862"/>
</g>
<!-- Node80&#45;&gt;Node74 -->
<g id="edge26" class="edge">
<title>Node80&#45;&gt;Node74</title>
<path fill="none" stroke="#191970" d="M528.3001,-38C469.9947,-38 382.0518,-38 317.2945,-38"/>
<polygon fill="#191970" stroke="#191970" points="528.4704,-41.5001 538.4704,-38 528.4704,-34.5001 528.4704,-41.5001"/>
</g>
</g>
</svg>
