<?xml version="1.0" encoding="UTF-8" standalone="no"?>
<!DOCTYPE svg PUBLIC "-//W3C//DTD SVG 1.1//EN"
 "http://www.w3.org/Graphics/SVG/1.1/DTD/svg11.dtd">
<!-- Generated by graphviz version 2.40.1 (20161225.0304)
 -->
<!-- Title: CryptoPoller::hashAbsorb Pages: 1 -->
<svg width="412pt" height="28pt"
 viewBox="0.00 0.00 412.00 28.00" xmlns="http://www.w3.org/2000/svg" xmlns:xlink="http://www.w3.org/1999/xlink">
<g id="graph0" class="graph" transform="scale(1 1) rotate(0) translate(4 24)">
<title>CryptoPoller::hashAbsorb</title>
<polygon fill="#ffffff" stroke="transparent" points="-4,4 -4,-24 408,-24 408,4 -4,4"/>
<!-- Node3 -->
<g id="node1" class="node">
<title>Node3</title>
<g id="a_node1"><a xlink:title=" ">
<polygon fill="#bfbfbf" stroke="#000000" points="264,-.5 264,-19.5 404,-19.5 404,-.5 264,-.5"/>
<text text-anchor="middle" x="334" y="-7.5" font-family="Helvetica,sans-Serif" font-size="10.00" fill="#000000">CryptoPoller::hashAbsorb</text>
</a>
</g>
</g>
<!-- Node4 -->
<g id="node2" class="node">
<title>Node4</title>
<g id="a_node2"><a xlink:href="keccak_8hpp.html#ad2ec31efd2cbbecc017d9c4e61b379f7" target="_top" xlink:title=" ">
<polygon fill="#ffffff" stroke="#000000" points="177,-.5 177,-19.5 228,-19.5 228,-.5 177,-.5"/>
<text text-anchor="middle" x="202.5" y="-7.5" font-family="Helvetica,sans-Serif" font-size="10.00" fill="#000000">keccak</text>
</a>
</g>
</g>
<!-- Node3&#45;&gt;Node4 -->
<g id="edge1" class="edge">
<title>Node3&#45;&gt;Node4</title>
<path fill="none" stroke="#191970" d="M253.5935,-10C244.4549,-10 235.7143,-10 228.1276,-10"/>
<polygon fill="#191970" stroke="#191970" points="253.6304,-13.5001 263.6303,-10 253.6303,-6.5001 253.6304,-13.5001"/>
</g>
<!-- Node5 -->
<g id="node3" class="node">
<title>Node5</title>
<g id="a_node3"><a xlink:href="classHWImplementation.html#abe2799913267791c526580c8f9ae2fac" target="_top" xlink:title=" ">
<polygon fill="#ffffff" stroke="#000000" points="0,-.5 0,-19.5 141,-19.5 141,-.5 0,-.5"/>
<text text-anchor="middle" x="70.5" y="-7.5" font-family="Helvetica,sans-Serif" font-size="10.00" fill="#000000">HWImplementation::hash</text>
</a>
</g>
</g>
<!-- Node4&#45;&gt;Node5 -->
<g id="edge2" class="edge">
<title>Node4&#45;&gt;Node5</title>
<path fill="none" stroke="#191970" d="M166.7305,-10C158.749,-10 150.0152,-10 141.1689,-10"/>
<polygon fill="#191970" stroke="#191970" points="166.7357,-13.5001 176.7357,-10 166.7357,-6.5001 166.7357,-13.5001"/>
</g>
</g>
</svg>
