<?xml version="1.0" encoding="UTF-8" standalone="no"?>
<!DOCTYPE svg PUBLIC "-//W3C//DTD SVG 1.1//EN"
 "http://www.w3.org/Graphics/SVG/1.1/DTD/svg11.dtd">
<!-- Generated by graphviz version 2.40.1 (20161225.0304)
 -->
<!-- Title: Angle::getIndex Pages: 1 -->
<svg width="424pt" height="230pt"
 viewBox="0.00 0.00 424.00 230.00" xmlns="http://www.w3.org/2000/svg" xmlns:xlink="http://www.w3.org/1999/xlink">
<g id="graph0" class="graph" transform="scale(1 1) rotate(0) translate(4 226)">
<title>Angle::getIndex</title>
<polygon fill="#ffffff" stroke="transparent" points="-4,4 -4,-226 420,-226 420,4 -4,4"/>
<!-- Node39 -->
<g id="node1" class="node">
<title>Node39</title>
<g id="a_node1"><a xlink:title=" ">
<polygon fill="#bfbfbf" stroke="#000000" points="323,-107.5 323,-126.5 416,-126.5 416,-107.5 323,-107.5"/>
<text text-anchor="middle" x="369.5" y="-114.5" font-family="Helvetica,sans-Serif" font-size="10.00" fill="#000000">Angle::getIndex</text>
</a>
</g>
</g>
<!-- Node40 -->
<g id="node2" class="node">
<title>Node40</title>
<g id="a_node2"><a xlink:href="classAngle.html#a90a26814a60b92e152667b921ef542a4" target="_top" xlink:title=" ">
<polygon fill="#ffffff" stroke="#000000" points="158.5,-202.5 158.5,-221.5 277.5,-221.5 277.5,-202.5 158.5,-202.5"/>
<text text-anchor="middle" x="218" y="-209.5" font-family="Helvetica,sans-Serif" font-size="10.00" fill="#000000">Angle&lt; 360 &gt;::Angle</text>
</a>
</g>
</g>
<!-- Node39&#45;&gt;Node40 -->
<g id="edge1" class="edge">
<title>Node39&#45;&gt;Node40</title>
<path fill="none" stroke="#191970" d="M355.0909,-134.4417C339.8841,-151.7467 314.3654,-177.8164 287,-193 280.0466,-196.8581 272.2574,-199.9746 264.4849,-202.4793"/>
<polygon fill="#191970" stroke="#191970" points="357.8435,-136.6083 361.6906,-126.7366 352.5271,-132.0546 357.8435,-136.6083"/>
</g>
<!-- Node41 -->
<g id="node3" class="node">
<title>Node41</title>
<g id="a_node3"><a xlink:href="classAngle.html#a50309ff78d5ce30e24c967c5684bad3b" target="_top" xlink:title=" ">
<polygon fill="#ffffff" stroke="#000000" points="152,-164.5 152,-183.5 284,-183.5 284,-164.5 152,-164.5"/>
<text text-anchor="middle" x="218" y="-171.5" font-family="Helvetica,sans-Serif" font-size="10.00" fill="#000000">Angle&lt; 360 &gt;::distance</text>
</a>
</g>
</g>
<!-- Node39&#45;&gt;Node41 -->
<g id="edge2" class="edge">
<title>Node39&#45;&gt;Node41</title>
<path fill="none" stroke="#191970" d="M341.6747,-131.195C325.9004,-138.8902 305.645,-148.1904 287,-155 277.4298,-158.4953 266.9111,-161.7008 257.0334,-164.4435"/>
<polygon fill="#191970" stroke="#191970" points="343.453,-134.2201 350.863,-126.6476 340.3481,-127.9464 343.453,-134.2201"/>
</g>
<!-- Node42 -->
<g id="node4" class="node">
<title>Node42</title>
<g id="a_node4"><a xlink:href="classAngle.html#a897da4bbf76522fea73951ea55c05ffb" target="_top" xlink:title=" ">
<polygon fill="#ffffff" stroke="#000000" points="154,-126.5 154,-145.5 282,-145.5 282,-126.5 154,-126.5"/>
<text text-anchor="middle" x="218" y="-133.5" font-family="Helvetica,sans-Serif" font-size="10.00" fill="#000000">Angle&lt; 360 &gt;::indexof</text>
</a>
</g>
</g>
<!-- Node39&#45;&gt;Node42 -->
<g id="edge3" class="edge">
<title>Node39&#45;&gt;Node42</title>
<path fill="none" stroke="#191970" d="M312.6252,-124.1328C302.6612,-125.3824 292.2319,-126.6904 282.0884,-127.9625"/>
<polygon fill="#191970" stroke="#191970" points="313.3221,-127.5729 322.8088,-122.8557 312.451,-120.6273 313.3221,-127.5729"/>
</g>
<!-- Node43 -->
<g id="node5" class="node">
<title>Node43</title>
<g id="a_node5"><a xlink:href="classAngleTracker.html#a513f5d6f5b1affe00dcc82a036a3dc61" target="_top" xlink:title=" ">
<polygon fill="#ffffff" stroke="#000000" points="158.5,-88.5 158.5,-107.5 277.5,-107.5 277.5,-88.5 158.5,-88.5"/>
<text text-anchor="middle" x="218" y="-95.5" font-family="Helvetica,sans-Serif" font-size="10.00" fill="#000000">AngleTracker::update</text>
</a>
</g>
</g>
<!-- Node39&#45;&gt;Node43 -->
<g id="edge4" class="edge">
<title>Node39&#45;&gt;Node43</title>
<path fill="none" stroke="#191970" d="M312.5487,-109.8576C301.1561,-108.4288 289.158,-106.9241 277.6763,-105.4842"/>
<polygon fill="#191970" stroke="#191970" points="312.451,-113.3727 322.8088,-111.1443 313.3221,-106.4271 312.451,-113.3727"/>
</g>
<!-- Node45 -->
<g id="node7" class="node">
<title>Node45</title>
<g id="a_node7"><a xlink:href="classGridFinder.html#afcc1eed83ee0292966c3c80883069634" target="_top" xlink:title="Similar to findLineAngle, but is more accurate, because it uses the average of the range of angles wi...">
<polygon fill="#ffffff" stroke="#000000" points="149,-39 149,-69 287,-69 287,-39 149,-39"/>
<text text-anchor="start" x="157" y="-57" font-family="Helvetica,sans-Serif" font-size="10.00" fill="#000000">GridFinder::findLineAngle</text>
<text text-anchor="middle" x="218" y="-46" font-family="Helvetica,sans-Serif" font-size="10.00" fill="#000000">AccurateRange</text>
</a>
</g>
</g>
<!-- Node39&#45;&gt;Node45 -->
<g id="edge6" class="edge">
<title>Node39&#45;&gt;Node45</title>
<path fill="none" stroke="#191970" d="M340.8277,-103.0732C325.08,-95.6072 305.1203,-86.4404 287,-79 278.7496,-75.6123 269.8521,-72.208 261.2783,-69.0495"/>
<polygon fill="#191970" stroke="#191970" points="339.5024,-106.319 350.0344,-107.4714 342.5199,-100.0027 339.5024,-106.319"/>
</g>
<!-- Node46 -->
<g id="node8" class="node">
<title>Node46</title>
<g id="a_node8"><a xlink:href="structSquare.html#a12c1f0ee0bd30021a5a7d7344538fef9" target="_top" xlink:title="Get the average angle of the sides of the square .">
<polygon fill="#ffffff" stroke="#000000" points="168,-.5 168,-19.5 268,-19.5 268,-.5 168,-.5"/>
<text text-anchor="middle" x="218" y="-7.5" font-family="Helvetica,sans-Serif" font-size="10.00" fill="#000000">Square::getAngle</text>
</a>
</g>
</g>
<!-- Node39&#45;&gt;Node46 -->
<g id="edge7" class="edge">
<title>Node39&#45;&gt;Node46</title>
<path fill="none" stroke="#191970" d="M357.1534,-99.1444C342.5951,-79.4068 316.6002,-48.0274 287,-30 279.9696,-25.7183 271.9779,-22.3149 263.9881,-19.6217"/>
<polygon fill="#191970" stroke="#191970" points="354.3352,-101.2205 363.0094,-107.3041 360.0222,-97.139 354.3352,-101.2205"/>
</g>
<!-- Node44 -->
<g id="node6" class="node">
<title>Node44</title>
<g id="a_node6"><a xlink:href="Grid-Finder_8module_8hpp.html#a05e720af51446c0f9319fb9455fe1767" target="_top" xlink:title=" ">
<polygon fill="#ffffff" stroke="#000000" points="0,-44.5 0,-63.5 113,-63.5 113,-44.5 0,-44.5"/>
<text text-anchor="middle" x="56.5" y="-51.5" font-family="Helvetica,sans-Serif" font-size="10.00" fill="#000000">PYBIND11_MODULE</text>
</a>
</g>
</g>
<!-- Node43&#45;&gt;Node44 -->
<g id="edge5" class="edge">
<title>Node43&#45;&gt;Node44</title>
<path fill="none" stroke="#191970" d="M173.0448,-85.7522C147.2615,-78.7276 115.374,-70.04 91.4747,-63.5287"/>
<polygon fill="#191970" stroke="#191970" points="172.3885,-89.2009 182.9569,-88.4527 174.2286,-82.447 172.3885,-89.2009"/>
</g>
<!-- Node46&#45;&gt;Node44 -->
<g id="edge8" class="edge">
<title>Node46&#45;&gt;Node44</title>
<path fill="none" stroke="#191970" d="M173.0448,-22.2478C147.2615,-29.2724 115.374,-37.96 91.4747,-44.4713"/>
<polygon fill="#191970" stroke="#191970" points="174.2286,-25.553 182.9569,-19.5473 172.3885,-18.7991 174.2286,-25.553"/>
</g>
</g>
</svg>
