<?xml version="1.0" encoding="UTF-8" standalone="no"?>
<!DOCTYPE svg PUBLIC "-//W3C//DTD SVG 1.1//EN"
 "http://www.w3.org/Graphics/SVG/1.1/DTD/svg11.dtd">
<!-- Generated by graphviz version 2.40.1 (20161225.0304)
 -->
<!-- Title: GridFinder::findLineAngleAccurate Pages: 1 -->
<svg width="805pt" height="248pt"
 viewBox="0.00 0.00 805.00 247.50" xmlns="http://www.w3.org/2000/svg" xmlns:xlink="http://www.w3.org/1999/xlink">
<g id="graph0" class="graph" transform="scale(1 1) rotate(0) translate(4 243.5)">
<title>GridFinder::findLineAngleAccurate</title>
<polygon fill="#ffffff" stroke="transparent" points="-4,4 -4,-243.5 801,-243.5 801,4 -4,4"/>
<!-- Node70 -->
<g id="node1" class="node">
<title>Node70</title>
<g id="a_node1"><a xlink:title=" ">
<polygon fill="#bfbfbf" stroke="#000000" points="0,-119.5 0,-149.5 138,-149.5 138,-119.5 0,-119.5"/>
<text text-anchor="start" x="8" y="-137.5" font-family="Helvetica,sans-Serif" font-size="10.00" fill="#000000">GridFinder::findLineAngle</text>
<text text-anchor="middle" x="69" y="-126.5" font-family="Helvetica,sans-Serif" font-size="10.00" fill="#000000">Accurate</text>
</a>
</g>
</g>
<!-- Node71 -->
<g id="node2" class="node">
<title>Node71</title>
<g id="a_node2"><a xlink:href="classAngle.html#a84ce9a0e2a186ada6997077fd96d6e4c" target="_top" xlink:title=" ">
<polygon fill="#ffffff" stroke="#000000" points="174,-163 174,-182 314,-182 314,-163 174,-163"/>
<text text-anchor="middle" x="244" y="-170" font-family="Helvetica,sans-Serif" font-size="10.00" fill="#000000">Angle&lt; 360 &gt;::resolution</text>
</a>
</g>
</g>
<!-- Node70&#45;&gt;Node71 -->
<g id="edge1" class="edge">
<title>Node70&#45;&gt;Node71</title>
<path fill="none" stroke="#191970" d="M138.1646,-149.5186C155.4914,-153.281 173.8224,-157.2614 190.2723,-160.8334"/>
<polygon fill="#191970" stroke="#191970" points="189.7308,-164.2973 200.2457,-162.9991 191.2162,-157.4567 189.7308,-164.2973"/>
</g>
<!-- Node72 -->
<g id="node3" class="node">
<title>Node72</title>
<g id="a_node3"><a xlink:href="classGridFinder.html#ace2c24a54244e7e92618d3fe7ec62fdc" target="_top" xlink:title="Starting from the given pixel, move in the direction of the given angle, and count the number of whit...">
<polygon fill="#ffffff" stroke="#000000" points="193,-125 193,-144 295,-144 295,-125 193,-125"/>
<text text-anchor="middle" x="244" y="-132" font-family="Helvetica,sans-Serif" font-size="10.00" fill="#000000">GridFinder::hough</text>
</a>
</g>
</g>
<!-- Node70&#45;&gt;Node72 -->
<g id="edge2" class="edge">
<title>Node70&#45;&gt;Node72</title>
<path fill="none" stroke="#191970" d="M138.1646,-134.5C152.8484,-134.5 168.2534,-134.5 182.6235,-134.5"/>
<polygon fill="#191970" stroke="#191970" points="182.8792,-138.0001 192.8792,-134.5 182.8792,-131.0001 182.8792,-138.0001"/>
</g>
<!-- Node82 -->
<g id="node13" class="node">
<title>Node82</title>
<g id="a_node13"><a xlink:href="classAngle.html#a593164c63d4e2eedc8b473419c179f77" target="_top" xlink:title=" ">
<polygon fill="#ffffff" stroke="#000000" points="178.5,-87 178.5,-106 309.5,-106 309.5,-87 178.5,-87"/>
<text text-anchor="middle" x="244" y="-94" font-family="Helvetica,sans-Serif" font-size="10.00" fill="#000000">Angle&lt; 360 &gt;::average</text>
</a>
</g>
</g>
<!-- Node70&#45;&gt;Node82 -->
<g id="edge14" class="edge">
<title>Node70&#45;&gt;Node82</title>
<path fill="none" stroke="#191970" d="M138.1646,-119.4814C155.4914,-115.719 173.8224,-111.7386 190.2723,-108.1666"/>
<polygon fill="#191970" stroke="#191970" points="191.2162,-111.5433 200.2457,-106.0009 189.7308,-104.7027 191.2162,-111.5433"/>
</g>
<!-- Node73 -->
<g id="node4" class="node">
<title>Node73</title>
<g id="a_node4"><a xlink:href="classGridFinder.html#aadfce89f171d55f954a19d700b43ff5c" target="_top" xlink:title="Get the width of the frame.">
<polygon fill="#ffffff" stroke="#000000" points="375.5,-220 375.5,-239 474.5,-239 474.5,-220 375.5,-220"/>
<text text-anchor="middle" x="425" y="-227" font-family="Helvetica,sans-Serif" font-size="10.00" fill="#000000">GridFinder::width</text>
</a>
</g>
</g>
<!-- Node72&#45;&gt;Node73 -->
<g id="edge3" class="edge">
<title>Node72&#45;&gt;Node73</title>
<path fill="none" stroke="#191970" d="M295.031,-143.4979C301.788,-146.0438 308.3281,-149.3099 314,-153.5 338.0999,-171.3038 325.7503,-192.9009 350,-210.5 354.8053,-213.9874 360.1872,-216.837 365.8034,-219.165"/>
<polygon fill="#191970" stroke="#191970" points="364.8212,-222.5309 375.4157,-222.611 367.1835,-215.9416 364.8212,-222.5309"/>
</g>
<!-- Node75 -->
<g id="node6" class="node">
<title>Node75</title>
<g id="a_node6"><a xlink:href="classGridFinder.html#affd9ae441c8d86b1856a9ef31190e9ab" target="_top" xlink:title="Get the height of the frame.">
<polygon fill="#ffffff" stroke="#000000" points="373.5,-182 373.5,-201 476.5,-201 476.5,-182 373.5,-182"/>
<text text-anchor="middle" x="425" y="-189" font-family="Helvetica,sans-Serif" font-size="10.00" fill="#000000">GridFinder::height</text>
</a>
</g>
</g>
<!-- Node72&#45;&gt;Node75 -->
<g id="edge5" class="edge">
<title>Node72&#45;&gt;Node75</title>
<path fill="none" stroke="#191970" d="M281.9997,-144.0289C292.4382,-146.8591 303.7133,-150.1143 314,-153.5 330.3067,-158.8671 333.8172,-161.7701 350,-167.5 360.9522,-171.3779 372.8981,-175.3259 383.971,-178.8703"/>
<polygon fill="#191970" stroke="#191970" points="383.2508,-182.3135 393.8409,-181.9982 385.3656,-175.6406 383.2508,-182.3135"/>
</g>
<!-- Node77 -->
<g id="node8" class="node">
<title>Node77</title>
<g id="a_node8"><a xlink:href="classBresenhamLine.html#aba0822ee20811d67cd9539ccbe1cd346" target="_top" xlink:title=" ">
<polygon fill="#ffffff" stroke="#000000" points="536,-125 536,-144 675,-144 675,-125 536,-125"/>
<text text-anchor="middle" x="605.5" y="-132" font-family="Helvetica,sans-Serif" font-size="10.00" fill="#000000">BresenhamLine::hasNext</text>
</a>
</g>
</g>
<!-- Node72&#45;&gt;Node77 -->
<g id="edge7" class="edge">
<title>Node72&#45;&gt;Node77</title>
<path fill="none" stroke="#191970" d="M295.0274,-134.5C355.0371,-134.5 455.3671,-134.5 525.6906,-134.5"/>
<polygon fill="#191970" stroke="#191970" points="525.8402,-138.0001 535.8401,-134.5 525.8401,-131.0001 525.8402,-138.0001"/>
</g>
<!-- Node79 -->
<g id="node10" class="node">
<title>Node79</title>
<g id="a_node10"><a xlink:href="classBresenhamLine.html#a10d505e30945f42a5cd0270c315b104f" target="_top" xlink:title=" ">
<polygon fill="#ffffff" stroke="#000000" points="365,-106 365,-125 485,-125 485,-106 365,-106"/>
<text text-anchor="middle" x="425" y="-113" font-family="Helvetica,sans-Serif" font-size="10.00" fill="#000000">BresenhamLine::next</text>
</a>
</g>
</g>
<!-- Node72&#45;&gt;Node79 -->
<g id="edge9" class="edge">
<title>Node72&#45;&gt;Node79</title>
<path fill="none" stroke="#191970" d="M295.3832,-129.1062C313.8064,-127.1723 334.9076,-124.9572 354.6591,-122.8838"/>
<polygon fill="#191970" stroke="#191970" points="355.2636,-126.3397 364.8436,-121.8148 354.5328,-119.378 355.2636,-126.3397"/>
</g>
<!-- Node80 -->
<g id="node11" class="node">
<title>Node80</title>
<g id="a_node11"><a xlink:href="classGridFinder.html#afbed8951f70923626b73abdbe05236da" target="_top" xlink:title="Get the value of the given pixel.">
<polygon fill="#ffffff" stroke="#000000" points="381,-50 381,-69 469,-69 469,-50 381,-50"/>
<text text-anchor="middle" x="425" y="-57" font-family="Helvetica,sans-Serif" font-size="10.00" fill="#000000">GridFinder::get</text>
</a>
</g>
</g>
<!-- Node72&#45;&gt;Node80 -->
<g id="edge11" class="edge">
<title>Node72&#45;&gt;Node80</title>
<path fill="none" stroke="#191970" d="M285.2106,-124.939C294.7935,-122.271 304.8616,-119.1006 314,-115.5 330.8322,-108.8679 333.8861,-104.7251 350,-96.5 365.1303,-88.777 382.0964,-80.3848 396.0598,-73.5483"/>
<polygon fill="#191970" stroke="#191970" points="397.7375,-76.6241 405.1877,-69.0912 394.666,-70.334 397.7375,-76.6241"/>
</g>
<!-- Node81 -->
<g id="node12" class="node">
<title>Node81</title>
<g id="a_node12"><a xlink:href="classBresenhamLine.html#ad93a4adf0535a9b4e649bce5ade1bc5e" target="_top" xlink:title=" ">
<polygon fill="#ffffff" stroke="#000000" points="350,-.5 350,-30.5 500,-30.5 500,-.5 350,-.5"/>
<text text-anchor="start" x="358" y="-18.5" font-family="Helvetica,sans-Serif" font-size="10.00" fill="#000000">BresenhamLine::getCurrent</text>
<text text-anchor="middle" x="425" y="-7.5" font-family="Helvetica,sans-Serif" font-size="10.00" fill="#000000">Length</text>
</a>
</g>
</g>
<!-- Node72&#45;&gt;Node81 -->
<g id="edge13" class="edge">
<title>Node72&#45;&gt;Node81</title>
<path fill="none" stroke="#191970" d="M295.1338,-126.2305C301.9529,-123.5809 308.4833,-120.0919 314,-115.5 342.4183,-91.846 322.2638,-64.9502 350,-40.5 351.9369,-38.7926 353.9942,-37.2011 356.1436,-35.7177"/>
<polygon fill="#191970" stroke="#191970" points="358.0501,-38.6557 364.8318,-30.5157 354.4541,-32.6499 358.0501,-38.6557"/>
</g>
<!-- Node74 -->
<g id="node5" class="node">
<title>Node74</title>
<g id="a_node5"><a xlink:href="classMask.html#a4124a2daa1f7501d4fd80775b6217679" target="_top" xlink:title="Get the width of the mask in pixels.">
<polygon fill="#ffffff" stroke="#000000" points="568,-220 568,-239 643,-239 643,-220 568,-220"/>
<text text-anchor="middle" x="605.5" y="-227" font-family="Helvetica,sans-Serif" font-size="10.00" fill="#000000">Mask::width</text>
</a>
</g>
</g>
<!-- Node73&#45;&gt;Node74 -->
<g id="edge4" class="edge">
<title>Node73&#45;&gt;Node74</title>
<path fill="none" stroke="#191970" d="M474.8002,-229.5C500.6634,-229.5 532.1146,-229.5 557.6829,-229.5"/>
<polygon fill="#191970" stroke="#191970" points="557.8862,-233.0001 567.8861,-229.5 557.8861,-226.0001 557.8862,-233.0001"/>
</g>
<!-- Node76 -->
<g id="node7" class="node">
<title>Node76</title>
<g id="a_node7"><a xlink:href="classMask.html#af845b7d3220b707c8b4c48bf87d045bb" target="_top" xlink:title="Get the height of the mask in pixels.">
<polygon fill="#ffffff" stroke="#000000" points="566,-182 566,-201 645,-201 645,-182 566,-182"/>
<text text-anchor="middle" x="605.5" y="-189" font-family="Helvetica,sans-Serif" font-size="10.00" fill="#000000">Mask::height</text>
</a>
</g>
</g>
<!-- Node75&#45;&gt;Node76 -->
<g id="edge6" class="edge">
<title>Node75&#45;&gt;Node76</title>
<path fill="none" stroke="#191970" d="M476.7241,-191.5C501.5176,-191.5 531.0868,-191.5 555.6343,-191.5"/>
<polygon fill="#191970" stroke="#191970" points="555.8188,-195.0001 565.8187,-191.5 555.8187,-188.0001 555.8188,-195.0001"/>
</g>
<!-- Node78 -->
<g id="node9" class="node">
<title>Node78</title>
<g id="a_node9"><a xlink:href="structPixel.html#a816d743559e2ac5b35c9c79ac517ad0a" target="_top" xlink:title=" ">
<polygon fill="#ffffff" stroke="#000000" points="711,-125 711,-144 797,-144 797,-125 711,-125"/>
<text text-anchor="middle" x="754" y="-132" font-family="Helvetica,sans-Serif" font-size="10.00" fill="#000000">Pixel::inRange</text>
</a>
</g>
</g>
<!-- Node77&#45;&gt;Node78 -->
<g id="edge8" class="edge">
<title>Node77&#45;&gt;Node78</title>
<path fill="none" stroke="#191970" d="M675.4016,-134.5C683.8647,-134.5 692.4033,-134.5 700.5758,-134.5"/>
<polygon fill="#191970" stroke="#191970" points="700.6984,-138.0001 710.6984,-134.5 700.6984,-131.0001 700.6984,-138.0001"/>
</g>
<!-- Node79&#45;&gt;Node77 -->
<g id="edge10" class="edge">
<title>Node79&#45;&gt;Node77</title>
<path fill="none" stroke="#191970" d="M485.1039,-121.8267C498.0978,-123.1945 512.0336,-124.6614 525.6494,-126.0947"/>
<polygon fill="#191970" stroke="#191970" points="525.6667,-129.6158 535.9782,-127.1819 526.3996,-122.6542 525.6667,-129.6158"/>
</g>
<!-- Node80&#45;&gt;Node80 -->
<g id="edge12" class="edge">
<title>Node80&#45;&gt;Node80</title>
<path fill="none" stroke="#191970" d="M397.2568,-69.2571C383.7601,-78.0653 393.0078,-87.5 425,-87.5 446.9946,-87.5 458.239,-83.0406 458.733,-77.3913"/>
<polygon fill="#191970" stroke="#191970" points="461.4911,-75.2341 452.7432,-69.2571 455.8544,-79.3848 461.4911,-75.2341"/>
</g>
</g>
</svg>
