<?xml version="1.0" encoding="UTF-8" standalone="no"?>
<!DOCTYPE svg PUBLIC "-//W3C//DTD SVG 1.1//EN"
 "http://www.w3.org/Graphics/SVG/1.1/DTD/svg11.dtd">
<!-- Generated by graphviz version 2.40.1 (20161225.0304)
 -->
<!-- Title: GridFinder::getFirstLineEstimate Pages: 1 -->
<svg width="665pt" height="88pt"
 viewBox="0.00 0.00 665.00 88.00" xmlns="http://www.w3.org/2000/svg" xmlns:xlink="http://www.w3.org/1999/xlink">
<g id="graph0" class="graph" transform="scale(1 1) rotate(0) translate(4 84)">
<title>GridFinder::getFirstLineEstimate</title>
<polygon fill="#ffffff" stroke="transparent" points="-4,4 -4,-84 661,-84 661,4 -4,4"/>
<!-- Node204 -->
<g id="node1" class="node">
<title>Node204</title>
<g id="a_node1"><a xlink:title="Get an estimate of the first line. Searches in multiple columns, starting from the center,...">
<polygon fill="#bfbfbf" stroke="#000000" points="529,-24.5 529,-54.5 657,-54.5 657,-24.5 529,-24.5"/>
<text text-anchor="start" x="537" y="-42.5" font-family="Helvetica,sans-Serif" font-size="10.00" fill="#000000">GridFinder::getFirstLine</text>
<text text-anchor="middle" x="593" y="-31.5" font-family="Helvetica,sans-Serif" font-size="10.00" fill="#000000">Estimate</text>
</a>
</g>
</g>
<!-- Node205 -->
<g id="node2" class="node">
<title>Node205</title>
<g id="a_node2"><a xlink:href="classGridFinder.html#ae84004386cbee9606f9a46872cb67be8" target="_top" xlink:title="Find the vertical range of white pixels closest to the center of the given column,...">
<polygon fill="#ffffff" stroke="#000000" points="355.5,-49.5 355.5,-79.5 483.5,-79.5 483.5,-49.5 355.5,-49.5"/>
<text text-anchor="start" x="363.5" y="-67.5" font-family="Helvetica,sans-Serif" font-size="10.00" fill="#000000">GridFinder::getFirstLine</text>
<text text-anchor="middle" x="419.5" y="-56.5" font-family="Helvetica,sans-Serif" font-size="10.00" fill="#000000">Estimate</text>
</a>
</g>
</g>
<!-- Node204&#45;&gt;Node205 -->
<g id="edge1" class="edge">
<title>Node204&#45;&gt;Node205</title>
<path fill="none" stroke="#191970" d="M518.7264,-50.2022C507.0482,-51.885 495.0619,-53.6121 483.638,-55.2582"/>
<polygon fill="#191970" stroke="#191970" points="519.4894,-53.6285 528.8879,-48.738 518.491,-46.7001 519.4894,-53.6285"/>
</g>
<!-- Node206 -->
<g id="node3" class="node">
<title>Node206</title>
<g id="a_node3"><a xlink:href="classGridFinder.html#a7c330ed1431434a4a3726c341161bf39" target="_top" xlink:title="Get the first two lines. These are the two half lines that make up the line closest to the center of ...">
<polygon fill="#ffffff" stroke="#000000" points="346,-.5 346,-30.5 493,-30.5 493,-.5 346,-.5"/>
<text text-anchor="start" x="354" y="-18.5" font-family="Helvetica,sans-Serif" font-size="10.00" fill="#000000">GridFinder::getFirstTwoHalf</text>
<text text-anchor="middle" x="419.5" y="-7.5" font-family="Helvetica,sans-Serif" font-size="10.00" fill="#000000">Lines</text>
</a>
</g>
</g>
<!-- Node204&#45;&gt;Node206 -->
<g id="edge2" class="edge">
<title>Node204&#45;&gt;Node206</title>
<path fill="none" stroke="#191970" d="M518.9138,-29.2518C510.3335,-28.0649 501.5844,-26.8546 493.0118,-25.6688"/>
<polygon fill="#191970" stroke="#191970" points="518.5027,-32.7281 528.8879,-30.6315 519.4619,-25.7942 518.5027,-32.7281"/>
</g>
<!-- Node207 -->
<g id="node4" class="node">
<title>Node207</title>
<g id="a_node4"><a xlink:href="classGridFinder.html#a8940ca681fac78274043cf5f1f1f5761" target="_top" xlink:title="This is the main function: it looks for a complete square of the grid, as close to the center of the ...">
<polygon fill="#ffffff" stroke="#000000" points="186,-6 186,-25 310,-25 310,-6 186,-6"/>
<text text-anchor="middle" x="248" y="-13" font-family="Helvetica,sans-Serif" font-size="10.00" fill="#000000">GridFinder::findSquare</text>
</a>
</g>
</g>
<!-- Node206&#45;&gt;Node207 -->
<g id="edge3" class="edge">
<title>Node206&#45;&gt;Node207</title>
<path fill="none" stroke="#191970" d="M335.6848,-15.5C327.0629,-15.5 318.4149,-15.5 310.0897,-15.5"/>
<polygon fill="#191970" stroke="#191970" points="335.7733,-19.0001 345.7733,-15.5 335.7732,-12.0001 335.7733,-19.0001"/>
</g>
<!-- Node208 -->
<g id="node5" class="node">
<title>Node208</title>
<g id="a_node5"><a xlink:href="classLocationFinder.html#a398bb42565e1e2a499471765f569bc40" target="_top" xlink:title=" ">
<polygon fill="#ffffff" stroke="#000000" points="0,-6 0,-25 150,-25 150,-6 0,-6"/>
<text text-anchor="middle" x="75" y="-13" font-family="Helvetica,sans-Serif" font-size="10.00" fill="#000000">LocationFinder::getLocation</text>
</a>
</g>
</g>
<!-- Node207&#45;&gt;Node208 -->
<g id="edge4" class="edge">
<title>Node207&#45;&gt;Node208</title>
<path fill="none" stroke="#191970" d="M175.4224,-15.5C167.0344,-15.5 158.467,-15.5 150.047,-15.5"/>
<polygon fill="#191970" stroke="#191970" points="175.5431,-19.0001 185.543,-15.5 175.543,-12.0001 175.5431,-19.0001"/>
</g>
</g>
</svg>
