<?xml version="1.0" encoding="UTF-8" standalone="no"?>
<!DOCTYPE svg PUBLIC "-//W3C//DTD SVG 1.1//EN"
 "http://www.w3.org/Graphics/SVG/1.1/DTD/svg11.dtd">
<!-- Generated by graphviz version 2.40.1 (20161225.0304)
 -->
<!-- Title: Mask::Mask Pages: 1 -->
<svg width="382pt" height="28pt"
 viewBox="0.00 0.00 382.00 28.00" xmlns="http://www.w3.org/2000/svg" xmlns:xlink="http://www.w3.org/1999/xlink">
<g id="graph0" class="graph" transform="scale(1 1) rotate(0) translate(4 24)">
<title>Mask::Mask</title>
<polygon fill="#ffffff" stroke="transparent" points="-4,4 -4,-24 378,-24 378,4 -4,4"/>
<!-- Node2 -->
<g id="node1" class="node">
<title>Node2</title>
<g id="a_node1"><a xlink:title="Construct a new Mask object from an OpenCV image.">
<polygon fill="#bfbfbf" stroke="#000000" points="0,-.5 0,-19.5 74,-19.5 74,-.5 0,-.5"/>
<text text-anchor="middle" x="37" y="-7.5" font-family="Helvetica,sans-Serif" font-size="10.00" fill="#000000">Mask::Mask</text>
</a>
</g>
</g>
<!-- Node3 -->
<g id="node2" class="node">
<title>Node3</title>
<g id="a_node2"><a xlink:href="classMask.html#ada333d548ba4428ba67a0052821b0417" target="_top" xlink:title="Ensure that an OpenCV matrix has the correct image type, and return a pointer to its data.">
<polygon fill="#ffffff" stroke="#000000" points="110,-.5 110,-19.5 208,-19.5 208,-.5 110,-.5"/>
<text text-anchor="middle" x="159" y="-7.5" font-family="Helvetica,sans-Serif" font-size="10.00" fill="#000000">Mask::toRGB_ptr</text>
</a>
</g>
</g>
<!-- Node2&#45;&gt;Node3 -->
<g id="edge1" class="edge">
<title>Node2&#45;&gt;Node3</title>
<path fill="none" stroke="#191970" d="M74.2669,-10C82.3255,-10 91.0387,-10 99.7059,-10"/>
<polygon fill="#191970" stroke="#191970" points="99.8175,-13.5001 109.8174,-10 99.8174,-6.5001 99.8175,-13.5001"/>
</g>
<!-- Node4 -->
<g id="node3" class="node">
<title>Node4</title>
<g id="a_node3"><a xlink:href="classMask.html#a278f890f8063043a92dd8d8104733661" target="_top" xlink:title="Check if an OpenCV matrix has the correct image type: The matrix should have two dimensions,...">
<polygon fill="#ffffff" stroke="#000000" points="244,-.5 244,-19.5 374,-19.5 374,-.5 244,-.5"/>
<text text-anchor="middle" x="309" y="-7.5" font-family="Helvetica,sans-Serif" font-size="10.00" fill="#000000">Mask::checkImageType</text>
</a>
</g>
</g>
<!-- Node3&#45;&gt;Node4 -->
<g id="edge2" class="edge">
<title>Node3&#45;&gt;Node4</title>
<path fill="none" stroke="#191970" d="M208.1156,-10C216.3447,-10 225.0478,-10 233.7552,-10"/>
<polygon fill="#191970" stroke="#191970" points="233.9508,-13.5001 243.9508,-10 233.9508,-6.5001 233.9508,-13.5001"/>
</g>
</g>
</svg>
