<?xml version="1.0" encoding="UTF-8" standalone="no"?>
<!DOCTYPE svg PUBLIC "-//W3C//DTD SVG 1.1//EN"
 "http://www.w3.org/Graphics/SVG/1.1/DTD/svg11.dtd">
<!-- Generated by graphviz version 2.40.1 (20161225.0304)
 -->
<!-- Title: GridFinder::hough Pages: 1 -->
<svg width="593pt" height="248pt"
 viewBox="0.00 0.00 593.00 247.50" xmlns="http://www.w3.org/2000/svg" xmlns:xlink="http://www.w3.org/1999/xlink">
<g id="graph0" class="graph" transform="scale(1 1) rotate(0) translate(4 243.5)">
<title>GridFinder::hough</title>
<polygon fill="#ffffff" stroke="transparent" points="-4,4 -4,-243.5 589,-243.5 589,4 -4,4"/>
<!-- Node334 -->
<g id="node1" class="node">
<title>Node334</title>
<g id="a_node1"><a xlink:title="Starting from the given pixel, move in the direction of the given angle, and count the number of whit...">
<polygon fill="#bfbfbf" stroke="#000000" points="0,-125 0,-144 102,-144 102,-125 0,-125"/>
<text text-anchor="middle" x="51" y="-132" font-family="Helvetica,sans-Serif" font-size="10.00" fill="#000000">GridFinder::hough</text>
</a>
</g>
</g>
<!-- Node335 -->
<g id="node2" class="node">
<title>Node335</title>
<g id="a_node2"><a xlink:href="classGridFinder.html#aadfce89f171d55f954a19d700b43ff5c" target="_top" xlink:title="Get the width of the frame.">
<polygon fill="#ffffff" stroke="#000000" points="163.5,-220 163.5,-239 262.5,-239 262.5,-220 163.5,-220"/>
<text text-anchor="middle" x="213" y="-227" font-family="Helvetica,sans-Serif" font-size="10.00" fill="#000000">GridFinder::width</text>
</a>
</g>
</g>
<!-- Node334&#45;&gt;Node335 -->
<g id="edge1" class="edge">
<title>Node334&#45;&gt;Node335</title>
<path fill="none" stroke="#191970" d="M59.0865,-144.0311C73.3417,-160.2086 104.6097,-192.9864 138,-210.5 142.9068,-213.0737 148.1795,-215.3112 153.573,-217.2542"/>
<polygon fill="#191970" stroke="#191970" points="152.7661,-220.6723 163.3584,-220.4423 154.9346,-214.0167 152.7661,-220.6723"/>
</g>
<!-- Node337 -->
<g id="node4" class="node">
<title>Node337</title>
<g id="a_node4"><a xlink:href="classGridFinder.html#affd9ae441c8d86b1856a9ef31190e9ab" target="_top" xlink:title="Get the height of the frame.">
<polygon fill="#ffffff" stroke="#000000" points="161.5,-182 161.5,-201 264.5,-201 264.5,-182 161.5,-182"/>
<text text-anchor="middle" x="213" y="-189" font-family="Helvetica,sans-Serif" font-size="10.00" fill="#000000">GridFinder::height</text>
</a>
</g>
</g>
<!-- Node334&#45;&gt;Node337 -->
<g id="edge3" class="edge">
<title>Node334&#45;&gt;Node337</title>
<path fill="none" stroke="#191970" d="M75.2496,-144.0917C92.632,-150.8705 116.6497,-160.0406 138,-167.5 148.9683,-171.3321 160.9196,-175.2648 171.9925,-178.809"/>
<polygon fill="#191970" stroke="#191970" points="171.2709,-182.252 181.8612,-181.9407 173.3882,-175.5799 171.2709,-182.252"/>
</g>
<!-- Node339 -->
<g id="node6" class="node">
<title>Node339</title>
<g id="a_node6"><a xlink:href="classBresenhamLine.html#aba0822ee20811d67cd9539ccbe1cd346" target="_top" xlink:title=" ">
<polygon fill="#ffffff" stroke="#000000" points="324,-125 324,-144 463,-144 463,-125 324,-125"/>
<text text-anchor="middle" x="393.5" y="-132" font-family="Helvetica,sans-Serif" font-size="10.00" fill="#000000">BresenhamLine::hasNext</text>
</a>
</g>
</g>
<!-- Node334&#45;&gt;Node339 -->
<g id="edge5" class="edge">
<title>Node334&#45;&gt;Node339</title>
<path fill="none" stroke="#191970" d="M102.2757,-134.5C158.1624,-134.5 248.3073,-134.5 313.5134,-134.5"/>
<polygon fill="#191970" stroke="#191970" points="313.7554,-138.0001 323.7554,-134.5 313.7554,-131.0001 313.7554,-138.0001"/>
</g>
<!-- Node341 -->
<g id="node8" class="node">
<title>Node341</title>
<g id="a_node8"><a xlink:href="classBresenhamLine.html#a10d505e30945f42a5cd0270c315b104f" target="_top" xlink:title=" ">
<polygon fill="#ffffff" stroke="#000000" points="153,-106 153,-125 273,-125 273,-106 153,-106"/>
<text text-anchor="middle" x="213" y="-113" font-family="Helvetica,sans-Serif" font-size="10.00" fill="#000000">BresenhamLine::next</text>
</a>
</g>
</g>
<!-- Node334&#45;&gt;Node341 -->
<g id="edge7" class="edge">
<title>Node334&#45;&gt;Node341</title>
<path fill="none" stroke="#191970" d="M102.2578,-128.4883C115.037,-126.9895 128.9631,-125.3562 142.4921,-123.7694"/>
<polygon fill="#191970" stroke="#191970" points="143.2106,-127.2093 152.7347,-122.5681 142.3951,-120.2569 143.2106,-127.2093"/>
</g>
<!-- Node342 -->
<g id="node9" class="node">
<title>Node342</title>
<g id="a_node9"><a xlink:href="classGridFinder.html#afbed8951f70923626b73abdbe05236da" target="_top" xlink:title="Get the value of the given pixel.">
<polygon fill="#ffffff" stroke="#000000" points="169,-50 169,-69 257,-69 257,-50 169,-50"/>
<text text-anchor="middle" x="213" y="-57" font-family="Helvetica,sans-Serif" font-size="10.00" fill="#000000">GridFinder::get</text>
</a>
</g>
</g>
<!-- Node334&#45;&gt;Node342 -->
<g id="edge9" class="edge">
<title>Node334&#45;&gt;Node342</title>
<path fill="none" stroke="#191970" d="M71.847,-124.8486C100.0369,-111.7977 150.4955,-88.4373 182.8261,-73.4694"/>
<polygon fill="#191970" stroke="#191970" points="184.6288,-76.4918 192.233,-69.1144 181.6879,-70.1395 184.6288,-76.4918"/>
</g>
<!-- Node343 -->
<g id="node10" class="node">
<title>Node343</title>
<g id="a_node10"><a xlink:href="classBresenhamLine.html#ad93a4adf0535a9b4e649bce5ade1bc5e" target="_top" xlink:title=" ">
<polygon fill="#ffffff" stroke="#000000" points="138,-.5 138,-30.5 288,-30.5 288,-.5 138,-.5"/>
<text text-anchor="start" x="146" y="-18.5" font-family="Helvetica,sans-Serif" font-size="10.00" fill="#000000">BresenhamLine::getCurrent</text>
<text text-anchor="middle" x="213" y="-7.5" font-family="Helvetica,sans-Serif" font-size="10.00" fill="#000000">Length</text>
</a>
</g>
</g>
<!-- Node334&#45;&gt;Node343 -->
<g id="edge11" class="edge">
<title>Node334&#45;&gt;Node343</title>
<path fill="none" stroke="#191970" d="M57.4583,-124.7448C70.4787,-105.8091 101.7492,-63.8843 138,-40.5 141.1249,-38.4842 144.4284,-36.6151 147.8378,-34.8841"/>
<polygon fill="#191970" stroke="#191970" points="149.4525,-37.9936 157.0597,-30.6192 146.5142,-31.6402 149.4525,-37.9936"/>
</g>
<!-- Node336 -->
<g id="node3" class="node">
<title>Node336</title>
<g id="a_node3"><a xlink:href="classMask.html#a4124a2daa1f7501d4fd80775b6217679" target="_top" xlink:title="Get the width of the mask in pixels.">
<polygon fill="#ffffff" stroke="#000000" points="356,-220 356,-239 431,-239 431,-220 356,-220"/>
<text text-anchor="middle" x="393.5" y="-227" font-family="Helvetica,sans-Serif" font-size="10.00" fill="#000000">Mask::width</text>
</a>
</g>
</g>
<!-- Node335&#45;&gt;Node336 -->
<g id="edge2" class="edge">
<title>Node335&#45;&gt;Node336</title>
<path fill="none" stroke="#191970" d="M262.8002,-229.5C288.6634,-229.5 320.1146,-229.5 345.6829,-229.5"/>
<polygon fill="#191970" stroke="#191970" points="345.8862,-233.0001 355.8861,-229.5 345.8861,-226.0001 345.8862,-233.0001"/>
</g>
<!-- Node338 -->
<g id="node5" class="node">
<title>Node338</title>
<g id="a_node5"><a xlink:href="classMask.html#af845b7d3220b707c8b4c48bf87d045bb" target="_top" xlink:title="Get the height of the mask in pixels.">
<polygon fill="#ffffff" stroke="#000000" points="354,-182 354,-201 433,-201 433,-182 354,-182"/>
<text text-anchor="middle" x="393.5" y="-189" font-family="Helvetica,sans-Serif" font-size="10.00" fill="#000000">Mask::height</text>
</a>
</g>
</g>
<!-- Node337&#45;&gt;Node338 -->
<g id="edge4" class="edge">
<title>Node337&#45;&gt;Node338</title>
<path fill="none" stroke="#191970" d="M264.7241,-191.5C289.5176,-191.5 319.0868,-191.5 343.6343,-191.5"/>
<polygon fill="#191970" stroke="#191970" points="343.8188,-195.0001 353.8187,-191.5 343.8187,-188.0001 343.8188,-195.0001"/>
</g>
<!-- Node340 -->
<g id="node7" class="node">
<title>Node340</title>
<g id="a_node7"><a xlink:href="structPixel.html#a816d743559e2ac5b35c9c79ac517ad0a" target="_top" xlink:title=" ">
<polygon fill="#ffffff" stroke="#000000" points="499,-125 499,-144 585,-144 585,-125 499,-125"/>
<text text-anchor="middle" x="542" y="-132" font-family="Helvetica,sans-Serif" font-size="10.00" fill="#000000">Pixel::inRange</text>
</a>
</g>
</g>
<!-- Node339&#45;&gt;Node340 -->
<g id="edge6" class="edge">
<title>Node339&#45;&gt;Node340</title>
<path fill="none" stroke="#191970" d="M463.4016,-134.5C471.8647,-134.5 480.4033,-134.5 488.5758,-134.5"/>
<polygon fill="#191970" stroke="#191970" points="488.6984,-138.0001 498.6984,-134.5 488.6984,-131.0001 488.6984,-138.0001"/>
</g>
<!-- Node341&#45;&gt;Node339 -->
<g id="edge8" class="edge">
<title>Node341&#45;&gt;Node339</title>
<path fill="none" stroke="#191970" d="M273.1039,-121.8267C286.0978,-123.1945 300.0336,-124.6614 313.6494,-126.0947"/>
<polygon fill="#191970" stroke="#191970" points="313.6667,-129.6158 323.9782,-127.1819 314.3996,-122.6542 313.6667,-129.6158"/>
</g>
<!-- Node342&#45;&gt;Node342 -->
<g id="edge10" class="edge">
<title>Node342&#45;&gt;Node342</title>
<path fill="none" stroke="#191970" d="M188.0311,-69.2571C175.8841,-78.0653 184.207,-87.5 213,-87.5 232.3453,-87.5 242.4501,-83.241 243.3144,-77.7746"/>
<polygon fill="#191970" stroke="#191970" points="246.2492,-75.8667 237.9689,-69.2571 240.3201,-79.5877 246.2492,-75.8667"/>
</g>
</g>
</svg>
