<?xml version="1.0" encoding="UTF-8" standalone="no"?>
<!DOCTYPE svg PUBLIC "-//W3C//DTD SVG 1.1//EN"
 "http://www.w3.org/Graphics/SVG/1.1/DTD/svg11.dtd">
<!-- Generated by graphviz version 2.40.1 (20161225.0304)
 -->
<!-- Title: SWImplementation::decrypt Pages: 1 -->
<svg width="320pt" height="104pt"
 viewBox="0.00 0.00 320.00 104.00" xmlns="http://www.w3.org/2000/svg" xmlns:xlink="http://www.w3.org/1999/xlink">
<g id="graph0" class="graph" transform="scale(1 1) rotate(0) translate(4 100)">
<title>SWImplementation::decrypt</title>
<polygon fill="#ffffff" stroke="transparent" points="-4,4 -4,-100 316,-100 316,4 -4,4"/>
<!-- Node0 -->
<g id="node1" class="node">
<title>Node0</title>
<g id="a_node1"><a xlink:title=" ">
<polygon fill="#bfbfbf" stroke="#000000" points="0,-38.5 0,-57.5 153,-57.5 153,-38.5 0,-38.5"/>
<text text-anchor="middle" x="76.5" y="-45.5" font-family="Helvetica,sans-Serif" font-size="10.00" fill="#000000">SWImplementation::decrypt</text>
</a>
</g>
</g>
<!-- Node1 -->
<g id="node2" class="node">
<title>Node1</title>
<g id="a_node2"><a xlink:href="classBitString.html#a39bc6a3bef8f84d2dec75174b35abf89" target="_top" xlink:title=" ">
<polygon fill="#ffffff" stroke="#000000" points="194,-76.5 194,-95.5 307,-95.5 307,-76.5 194,-76.5"/>
<text text-anchor="middle" x="250.5" y="-83.5" font-family="Helvetica,sans-Serif" font-size="10.00" fill="#000000">BitString::getLength</text>
</a>
</g>
</g>
<!-- Node0&#45;&gt;Node1 -->
<g id="edge1" class="edge">
<title>Node0&#45;&gt;Node1</title>
<path fill="none" stroke="#191970" d="M120.4075,-57.589C143.679,-62.6713 172.4538,-68.9554 197.0195,-74.3203"/>
<polygon fill="#191970" stroke="#191970" points="196.3917,-77.7657 206.9082,-76.4799 197.8852,-70.9268 196.3917,-77.7657"/>
</g>
<!-- Node2 -->
<g id="node3" class="node">
<title>Node2</title>
<g id="a_node3"><a xlink:href="classBitString.html#a9978b48556f494fc3e13385cd097ec6c" target="_top" xlink:title=" ">
<polygon fill="#ffffff" stroke="#000000" points="189,-38.5 189,-57.5 312,-57.5 312,-38.5 189,-38.5"/>
<text text-anchor="middle" x="250.5" y="-45.5" font-family="Helvetica,sans-Serif" font-size="10.00" fill="#000000">BitString::toByteArray</text>
</a>
</g>
</g>
<!-- Node0&#45;&gt;Node2 -->
<g id="edge2" class="edge">
<title>Node0&#45;&gt;Node2</title>
<path fill="none" stroke="#191970" d="M153.0721,-48C161.5636,-48 170.1896,-48 178.6201,-48"/>
<polygon fill="#191970" stroke="#191970" points="178.7844,-51.5001 188.7843,-48 178.7843,-44.5001 178.7844,-51.5001"/>
</g>
<!-- Node3 -->
<g id="node4" class="node">
<title>Node3</title>
<g id="a_node4"><a xlink:href="EagleCrypt_8hpp.html#af6725f1d971b7e4c2fe372c3a79aacce" target="_top" xlink:title=" ">
<polygon fill="#ffffff" stroke="#000000" points="234.5,-.5 234.5,-19.5 266.5,-19.5 266.5,-.5 234.5,-.5"/>
<text text-anchor="middle" x="250.5" y="-7.5" font-family="Helvetica,sans-Serif" font-size="10.00" fill="#000000">init</text>
</a>
</g>
</g>
<!-- Node0&#45;&gt;Node3 -->
<g id="edge3" class="edge">
<title>Node0&#45;&gt;Node3</title>
<path fill="none" stroke="#191970" d="M120.4075,-38.411C153.1146,-31.2681 196.6925,-21.7511 224.1773,-15.7486"/>
<polygon fill="#191970" stroke="#191970" points="225.1858,-19.111 234.2087,-13.5579 223.6922,-12.2722 225.1858,-19.111"/>
</g>
</g>
</svg>
