<?xml version="1.0" encoding="UTF-8" standalone="no"?>
<!DOCTYPE svg PUBLIC "-//W3C//DTD SVG 1.1//EN"
 "http://www.w3.org/Graphics/SVG/1.1/DTD/svg11.dtd">
<!-- Generated by graphviz version 2.40.1 (20161225.0304)
 -->
<!-- Title: BitString::reserve Pages: 1 -->
<svg width="601pt" height="66pt"
 viewBox="0.00 0.00 601.00 66.00" xmlns="http://www.w3.org/2000/svg" xmlns:xlink="http://www.w3.org/1999/xlink">
<g id="graph0" class="graph" transform="scale(1 1) rotate(0) translate(4 62)">
<title>BitString::reserve</title>
<polygon fill="#ffffff" stroke="transparent" points="-4,4 -4,-62 597,-62 597,4 -4,4"/>
<!-- Node42 -->
<g id="node1" class="node">
<title>Node42</title>
<g id="a_node1"><a xlink:title=" ">
<polygon fill="#bfbfbf" stroke="#000000" points="492,-19.5 492,-38.5 593,-38.5 593,-19.5 492,-19.5"/>
<text text-anchor="middle" x="542.5" y="-26.5" font-family="Helvetica,sans-Serif" font-size="10.00" fill="#000000">BitString::reserve</text>
</a>
</g>
</g>
<!-- Node43 -->
<g id="node2" class="node">
<title>Node43</title>
<g id="a_node2"><a xlink:href="keccak_8hpp.html#ad2ec31efd2cbbecc017d9c4e61b379f7" target="_top" xlink:title=" ">
<polygon fill="#ffffff" stroke="#000000" points="386,-38.5 386,-57.5 437,-57.5 437,-38.5 386,-38.5"/>
<text text-anchor="middle" x="411.5" y="-45.5" font-family="Helvetica,sans-Serif" font-size="10.00" fill="#000000">keccak</text>
</a>
</g>
</g>
<!-- Node42&#45;&gt;Node43 -->
<g id="edge1" class="edge">
<title>Node42&#45;&gt;Node43</title>
<path fill="none" stroke="#191970" d="M481.6335,-37.828C465.9476,-40.103 449.9057,-42.4297 437.13,-44.2827"/>
<polygon fill="#191970" stroke="#191970" points="482.4579,-41.2451 491.852,-36.3459 481.4531,-34.3176 482.4579,-41.2451"/>
</g>
<!-- Node46 -->
<g id="node5" class="node">
<title>Node46</title>
<g id="a_node5"><a xlink:href="classKetje.html#a2aaeeaf71dcf9d83d7c8694154a02117" target="_top" xlink:title=" ">
<polygon fill="#ffffff" stroke="#000000" points="367,-.5 367,-19.5 456,-19.5 456,-.5 367,-.5"/>
<text text-anchor="middle" x="411.5" y="-7.5" font-family="Helvetica,sans-Serif" font-size="10.00" fill="#000000">Ketje::initialize</text>
</a>
</g>
</g>
<!-- Node42&#45;&gt;Node46 -->
<g id="edge4" class="edge">
<title>Node42&#45;&gt;Node46</title>
<path fill="none" stroke="#191970" d="M481.7645,-20.191C473.0964,-18.9338 464.3165,-17.6604 456.0363,-16.4595"/>
<polygon fill="#191970" stroke="#191970" points="481.4531,-23.6824 491.852,-21.6541 482.4579,-16.7549 481.4531,-23.6824"/>
</g>
<!-- Node44 -->
<g id="node3" class="node">
<title>Node44</title>
<g id="a_node3"><a xlink:href="namespaceHWImplementation.html#a803049b0475e6953f079b68b7e0d3a05" target="_top" xlink:title=" ">
<polygon fill="#ffffff" stroke="#000000" points="183,-38.5 183,-57.5 324,-57.5 324,-38.5 183,-38.5"/>
<text text-anchor="middle" x="253.5" y="-45.5" font-family="Helvetica,sans-Serif" font-size="10.00" fill="#000000">HWImplementation::hash</text>
</a>
</g>
</g>
<!-- Node43&#45;&gt;Node44 -->
<g id="edge2" class="edge">
<title>Node43&#45;&gt;Node44</title>
<path fill="none" stroke="#191970" d="M375.7307,-48C360.4551,-48 342.0636,-48 324.2393,-48"/>
<polygon fill="#191970" stroke="#191970" points="375.763,-51.5001 385.7629,-48 375.7629,-44.5001 375.763,-51.5001"/>
</g>
<!-- Node45 -->
<g id="node4" class="node">
<title>Node45</title>
<g id="a_node4"><a xlink:href="namespaceSWImplementation.html#ab0f297c83760f0be08281d3cac7d84ee" target="_top" xlink:title=" ">
<polygon fill="#ffffff" stroke="#000000" points="0,-38.5 0,-57.5 140,-57.5 140,-38.5 0,-38.5"/>
<text text-anchor="middle" x="70" y="-45.5" font-family="Helvetica,sans-Serif" font-size="10.00" fill="#000000">SWImplementation::hash</text>
</a>
</g>
</g>
<!-- Node44&#45;&gt;Node45 -->
<g id="edge3" class="edge">
<title>Node44&#45;&gt;Node45</title>
<path fill="none" stroke="#191970" d="M172.5179,-48C161.6906,-48 150.6604,-48 140.0417,-48"/>
<polygon fill="#191970" stroke="#191970" points="172.8166,-51.5001 182.8166,-48 172.8166,-44.5001 172.8166,-51.5001"/>
</g>
<!-- Node47 -->
<g id="node6" class="node">
<title>Node47</title>
<g id="a_node6"><a xlink:href="namespaceHWImplementation.html#abc6e81f17d057a26e8491533d5dfdc38" target="_top" xlink:title=" ">
<polygon fill="#ffffff" stroke="#000000" points="176,-.5 176,-19.5 331,-19.5 331,-.5 176,-.5"/>
<text text-anchor="middle" x="253.5" y="-7.5" font-family="Helvetica,sans-Serif" font-size="10.00" fill="#000000">HWImplementation::decrypt</text>
</a>
</g>
</g>
<!-- Node46&#45;&gt;Node47 -->
<g id="edge5" class="edge">
<title>Node46&#45;&gt;Node47</title>
<path fill="none" stroke="#191970" d="M356.4675,-10C348.246,-10 339.6421,-10 331.0608,-10"/>
<polygon fill="#191970" stroke="#191970" points="356.6462,-13.5001 366.6462,-10 356.6461,-6.5001 356.6462,-13.5001"/>
</g>
</g>
</svg>
