<?xml version="1.0" encoding="UTF-8" standalone="no"?>
<!DOCTYPE svg PUBLIC "-//W3C//DTD SVG 1.1//EN"
 "http://www.w3.org/Graphics/SVG/1.1/DTD/svg11.dtd">
<!-- Generated by graphviz version 2.40.1 (20161225.0304)
 -->
<!-- Title: SWImplementation::hash Pages: 1 -->
<svg width="307pt" height="66pt"
 viewBox="0.00 0.00 307.00 66.00" xmlns="http://www.w3.org/2000/svg" xmlns:xlink="http://www.w3.org/1999/xlink">
<g id="graph0" class="graph" transform="scale(1 1) rotate(0) translate(4 62)">
<title>SWImplementation::hash</title>
<polygon fill="#ffffff" stroke="transparent" points="-4,4 -4,-62 303,-62 303,4 -4,4"/>
<!-- Node5 -->
<g id="node1" class="node">
<title>Node5</title>
<g id="a_node1"><a xlink:title=" ">
<polygon fill="#bfbfbf" stroke="#000000" points="0,-19.5 0,-38.5 140,-38.5 140,-19.5 0,-19.5"/>
<text text-anchor="middle" x="70" y="-26.5" font-family="Helvetica,sans-Serif" font-size="10.00" fill="#000000">SWImplementation::hash</text>
</a>
</g>
</g>
<!-- Node6 -->
<g id="node2" class="node">
<title>Node6</title>
<g id="a_node2"><a xlink:href="classBitString.html#a39bc6a3bef8f84d2dec75174b35abf89" target="_top" xlink:title=" ">
<polygon fill="#ffffff" stroke="#000000" points="181,-38.5 181,-57.5 294,-57.5 294,-38.5 181,-38.5"/>
<text text-anchor="middle" x="237.5" y="-45.5" font-family="Helvetica,sans-Serif" font-size="10.00" fill="#000000">BitString::getLength</text>
</a>
</g>
</g>
<!-- Node5&#45;&gt;Node6 -->
<g id="edge1" class="edge">
<title>Node5&#45;&gt;Node6</title>
<path fill="none" stroke="#191970" d="M140.0646,-36.9476C150.2843,-38.1069 160.7836,-39.2978 170.9311,-40.4489"/>
<polygon fill="#191970" stroke="#191970" points="170.6073,-43.9345 180.9381,-41.584 171.3963,-36.9791 170.6073,-43.9345"/>
</g>
<!-- Node7 -->
<g id="node3" class="node">
<title>Node7</title>
<g id="a_node3"><a xlink:href="classBitString.html#a9978b48556f494fc3e13385cd097ec6c" target="_top" xlink:title=" ">
<polygon fill="#ffffff" stroke="#000000" points="176,-.5 176,-19.5 299,-19.5 299,-.5 176,-.5"/>
<text text-anchor="middle" x="237.5" y="-7.5" font-family="Helvetica,sans-Serif" font-size="10.00" fill="#000000">BitString::toByteArray</text>
</a>
</g>
</g>
<!-- Node5&#45;&gt;Node7 -->
<g id="edge2" class="edge">
<title>Node5&#45;&gt;Node7</title>
<path fill="none" stroke="#191970" d="M140.0646,-21.0524C148.6343,-20.0803 157.4005,-19.0859 165.9911,-18.1115"/>
<polygon fill="#191970" stroke="#191970" points="166.4309,-21.5841 175.9727,-16.9792 165.6419,-14.6287 166.4309,-21.5841"/>
</g>
</g>
</svg>
