<?xml version="1.0" encoding="UTF-8" standalone="no"?>
<!DOCTYPE svg PUBLIC "-//W3C//DTD SVG 1.1//EN"
 "http://www.w3.org/Graphics/SVG/1.1/DTD/svg11.dtd">
<!-- Generated by graphviz version 2.40.1 (20161225.0304)
 -->
<!-- Title: Angle::rad Pages: 1 -->
<svg width="242pt" height="78pt"
 viewBox="0.00 0.00 242.00 77.50" xmlns="http://www.w3.org/2000/svg" xmlns:xlink="http://www.w3.org/1999/xlink">
<g id="graph0" class="graph" transform="scale(1 1) rotate(0) translate(4 73.5)">
<title>Angle::rad</title>
<polygon fill="#ffffff" stroke="transparent" points="-4,4 -4,-73.5 238,-73.5 238,4 -4,4"/>
<!-- Node64 -->
<g id="node1" class="node">
<title>Node64</title>
<g id="a_node1"><a xlink:title=" ">
<polygon fill="#bfbfbf" stroke="#000000" points="168,-22.5 168,-41.5 234,-41.5 234,-22.5 168,-22.5"/>
<text text-anchor="middle" x="201" y="-29.5" font-family="Helvetica,sans-Serif" font-size="10.00" fill="#000000">Angle::rad</text>
</a>
</g>
</g>
<!-- Node65 -->
<g id="node2" class="node">
<title>Node65</title>
<g id="a_node2"><a xlink:href="classAngle.html#a75cf91b03632d4dc9bc7c1fda6ad5905" target="_top" xlink:title=" ">
<polygon fill="#ffffff" stroke="#000000" points="0,-39 0,-69 132,-69 132,-39 0,-39"/>
<text text-anchor="start" x="8" y="-57" font-family="Helvetica,sans-Serif" font-size="10.00" fill="#000000">Angle&lt; 360 &gt;::operator</text>
<text text-anchor="middle" x="66" y="-46" font-family="Helvetica,sans-Serif" font-size="10.00" fill="#000000"> double</text>
</a>
</g>
</g>
<!-- Node64&#45;&gt;Node65 -->
<g id="edge1" class="edge">
<title>Node64&#45;&gt;Node65</title>
<path fill="none" stroke="#191970" d="M157.9262,-39.0194C149.7231,-40.3562 140.9636,-41.7837 132.2324,-43.2066"/>
<polygon fill="#191970" stroke="#191970" points="158.6685,-42.4447 167.9753,-37.3818 157.5425,-35.5359 158.6685,-42.4447"/>
</g>
<!-- Node66 -->
<g id="node3" class="node">
<title>Node66</title>
<g id="a_node3"><a xlink:href="classAngle.html#a4ef8c6fb3a420f4b05590d3127feba14" target="_top" xlink:title=" ">
<polygon fill="#ffffff" stroke="#000000" points="11.5,-.5 11.5,-19.5 120.5,-19.5 120.5,-.5 11.5,-.5"/>
<text text-anchor="middle" x="66" y="-7.5" font-family="Helvetica,sans-Serif" font-size="10.00" fill="#000000">Angle&lt; 360 &gt;::deg</text>
</a>
</g>
</g>
<!-- Node64&#45;&gt;Node66 -->
<g id="edge2" class="edge">
<title>Node64&#45;&gt;Node66</title>
<path fill="none" stroke="#191970" d="M157.877,-24.9725C145.994,-23.0361 132.9467,-20.9098 120.5107,-18.8832"/>
<polygon fill="#191970" stroke="#191970" points="157.5425,-28.4641 167.9753,-26.6182 158.6685,-21.5553 157.5425,-28.4641"/>
</g>
</g>
</svg>
