<?xml version="1.0" encoding="UTF-8" standalone="no"?>
<!DOCTYPE svg PUBLIC "-//W3C//DTD SVG 1.1//EN"
 "http://www.w3.org/Graphics/SVG/1.1/DTD/svg11.dtd">
<!-- Generated by graphviz version 2.40.1 (20161225.0304)
 -->
<!-- Title: Angle::sin Pages: 1 -->
<svg width="274pt" height="142pt"
 viewBox="0.00 0.00 274.00 142.00" xmlns="http://www.w3.org/2000/svg" xmlns:xlink="http://www.w3.org/1999/xlink">
<g id="graph0" class="graph" transform="scale(1 1) rotate(0) translate(4 138)">
<title>Angle::sin</title>
<polygon fill="#ffffff" stroke="transparent" points="-4,4 -4,-138 270,-138 270,4 -4,4"/>
<!-- Node93 -->
<g id="node1" class="node">
<title>Node93</title>
<g id="a_node1"><a xlink:title=" ">
<polygon fill="#bfbfbf" stroke="#000000" points="201,-57.5 201,-76.5 266,-76.5 266,-57.5 201,-57.5"/>
<text text-anchor="middle" x="233.5" y="-64.5" font-family="Helvetica,sans-Serif" font-size="10.00" fill="#000000">Angle::sin</text>
</a>
</g>
</g>
<!-- Node94 -->
<g id="node2" class="node">
<title>Node94</title>
<g id="a_node2"><a xlink:href="classAngle.html#a8e1bd6c3c781fdd6ade99388cb394b5e" target="_top" xlink:title=" ">
<polygon fill="#ffffff" stroke="#000000" points="27,-114.5 27,-133.5 138,-133.5 138,-114.5 27,-114.5"/>
<text text-anchor="middle" x="82.5" y="-121.5" font-family="Helvetica,sans-Serif" font-size="10.00" fill="#000000">Angle&lt; 360 &gt;::sind</text>
</a>
</g>
</g>
<!-- Node93&#45;&gt;Node94 -->
<g id="edge1" class="edge">
<title>Node93&#45;&gt;Node94</title>
<path fill="none" stroke="#191970" d="M210.429,-81.9347C197.5017,-89.7471 180.8364,-98.9228 165,-105 155.2573,-108.7387 144.5728,-111.8651 134.2185,-114.4312"/>
<polygon fill="#191970" stroke="#191970" points="212.4599,-84.7937 219.1161,-76.5508 208.7724,-78.8438 212.4599,-84.7937"/>
</g>
<!-- Node95 -->
<g id="node3" class="node">
<title>Node95</title>
<g id="a_node3"><a xlink:href="classAngle.html#a01897132cd9fd91aaddc870e50df157b" target="_top" xlink:title=" ">
<polygon fill="#ffffff" stroke="#000000" points="28,-76.5 28,-95.5 137,-95.5 137,-76.5 28,-76.5"/>
<text text-anchor="middle" x="82.5" y="-83.5" font-family="Helvetica,sans-Serif" font-size="10.00" fill="#000000">Angle&lt; 360 &gt;::sinf</text>
</a>
</g>
</g>
<!-- Node93&#45;&gt;Node95 -->
<g id="edge2" class="edge">
<title>Node93&#45;&gt;Node95</title>
<path fill="none" stroke="#191970" d="M190.747,-72.3795C174.0969,-74.4746 154.8112,-76.9012 137.1712,-79.1208"/>
<polygon fill="#191970" stroke="#191970" points="191.2505,-75.8439 200.7352,-71.1227 190.3765,-68.8986 191.2505,-75.8439"/>
</g>
<!-- Node96 -->
<g id="node4" class="node">
<title>Node96</title>
<g id="a_node4"><a xlink:href="classAngle.html#a677e4343d9f9cc5e1b721c2353552dc8" target="_top" xlink:title=" ">
<polygon fill="#ffffff" stroke="#000000" points="0,-38.5 0,-57.5 165,-57.5 165,-38.5 0,-38.5"/>
<text text-anchor="middle" x="82.5" y="-45.5" font-family="Helvetica,sans-Serif" font-size="10.00" fill="#000000">Angle&lt; 360 &gt;::calculateSinLut</text>
</a>
</g>
</g>
<!-- Node93&#45;&gt;Node96 -->
<g id="edge3" class="edge">
<title>Node93&#45;&gt;Node96</title>
<path fill="none" stroke="#191970" d="M190.5774,-61.5991C180.4556,-60.3255 169.3674,-58.9303 158.2713,-57.5341"/>
<polygon fill="#191970" stroke="#191970" points="190.3765,-65.1014 200.7352,-62.8773 191.2505,-58.1561 190.3765,-65.1014"/>
</g>
<!-- Node97 -->
<g id="node5" class="node">
<title>Node97</title>
<g id="a_node5"><a xlink:href="Angle_8hpp.html#a83e5ef1e65ea1a7e0bc1b5fbcd08bef7" target="_top" xlink:title=" ">
<polygon fill="#ffffff" stroke="#000000" points="45.5,-.5 45.5,-19.5 119.5,-19.5 119.5,-.5 45.5,-.5"/>
<text text-anchor="middle" x="82.5" y="-7.5" font-family="Helvetica,sans-Serif" font-size="10.00" fill="#000000">operator==</text>
</a>
</g>
</g>
<!-- Node93&#45;&gt;Node97 -->
<g id="edge4" class="edge">
<title>Node93&#45;&gt;Node97</title>
<path fill="none" stroke="#191970" d="M210.429,-52.0653C197.5017,-44.2529 180.8364,-35.0772 165,-29 150.5917,-23.4709 134.1239,-19.281 119.7099,-16.262"/>
<polygon fill="#191970" stroke="#191970" points="208.7724,-55.1562 219.1161,-57.4492 212.4599,-49.2063 208.7724,-55.1562"/>
</g>
</g>
</svg>
