<?xml version="1.0" encoding="UTF-8" standalone="no"?>
<!DOCTYPE svg PUBLIC "-//W3C//DTD SVG 1.1//EN"
 "http://www.w3.org/Graphics/SVG/1.1/DTD/svg11.dtd">
<!-- Generated by graphviz version 2.40.1 (20161225.0304)
 -->
<!-- Title: Mask::width Pages: 1 -->
<svg width="1285pt" height="356pt"
 viewBox="0.00 0.00 1285.00 356.00" xmlns="http://www.w3.org/2000/svg" xmlns:xlink="http://www.w3.org/1999/xlink">
<g id="graph0" class="graph" transform="scale(1 1) rotate(0) translate(4 352)">
<title>Mask::width</title>
<polygon fill="#ffffff" stroke="transparent" points="-4,4 -4,-352 1281,-352 1281,4 -4,4"/>
<!-- Node61 -->
<g id="node1" class="node">
<title>Node61</title>
<g id="a_node1"><a xlink:title="Get the width of the mask in pixels.">
<polygon fill="#bfbfbf" stroke="#000000" points="1202,-82.5 1202,-101.5 1277,-101.5 1277,-82.5 1202,-82.5"/>
<text text-anchor="middle" x="1239.5" y="-89.5" font-family="Helvetica,sans-Serif" font-size="10.00" fill="#000000">Mask::width</text>
</a>
</g>
</g>
<!-- Node62 -->
<g id="node2" class="node">
<title>Node62</title>
<g id="a_node2"><a xlink:href="classGridFinder.html#aadfce89f171d55f954a19d700b43ff5c" target="_top" xlink:title="Get the width of the frame.">
<polygon fill="#ffffff" stroke="#000000" points="1067,-164.5 1067,-183.5 1166,-183.5 1166,-164.5 1067,-164.5"/>
<text text-anchor="middle" x="1116.5" y="-171.5" font-family="Helvetica,sans-Serif" font-size="10.00" fill="#000000">GridFinder::width</text>
</a>
</g>
</g>
<!-- Node61&#45;&gt;Node62 -->
<g id="edge1" class="edge">
<title>Node61&#45;&gt;Node62</title>
<path fill="none" stroke="#191970" d="M1216.3802,-107.4132C1191.336,-124.1093 1152.1461,-150.2359 1131.0737,-164.2842"/>
<polygon fill="#191970" stroke="#191970" points="1218.5282,-110.1877 1224.9073,-101.7285 1214.6453,-104.3633 1218.5282,-110.1877"/>
</g>
<!-- Node75 -->
<g id="node15" class="node">
<title>Node75</title>
<g id="a_node15"><a xlink:href="Grid-Finder_8module_8hpp.html#a05e720af51446c0f9319fb9455fe1767" target="_top" xlink:title=" ">
<polygon fill="#ffffff" stroke="#000000" points="18.5,-.5 18.5,-19.5 131.5,-19.5 131.5,-.5 18.5,-.5"/>
<text text-anchor="middle" x="75" y="-7.5" font-family="Helvetica,sans-Serif" font-size="10.00" fill="#000000">PYBIND11_MODULE</text>
</a>
</g>
</g>
<!-- Node61&#45;&gt;Node75 -->
<g id="edge27" class="edge">
<title>Node61&#45;&gt;Node75</title>
<path fill="none" stroke="#191970" d="M1211.1273,-78.055C1160.8143,-54.6505 1052.1035,-10 955,-10 955,-10 955,-10 423,-10 320.2917,-10 200.5321,-10 131.6598,-10"/>
<polygon fill="#191970" stroke="#191970" points="1209.8539,-81.3243 1220.3905,-82.4331 1212.8451,-74.9956 1209.8539,-81.3243"/>
</g>
<!-- Node63 -->
<g id="node3" class="node">
<title>Node63</title>
<g id="a_node3"><a xlink:href="classGridFinder.html#ace2c24a54244e7e92618d3fe7ec62fdc" target="_top" xlink:title="Starting from the given pixel, move in the direction of the given angle, and count the number of whit...">
<polygon fill="#ffffff" stroke="#000000" points="904,-202.5 904,-221.5 1006,-221.5 1006,-202.5 904,-202.5"/>
<text text-anchor="middle" x="955" y="-209.5" font-family="Helvetica,sans-Serif" font-size="10.00" fill="#000000">GridFinder::hough</text>
</a>
</g>
</g>
<!-- Node62&#45;&gt;Node63 -->
<g id="edge2" class="edge">
<title>Node62&#45;&gt;Node63</title>
<path fill="none" stroke="#191970" d="M1065.9417,-185.8961C1043.2412,-191.2374 1016.8219,-197.4537 995.4602,-202.4799"/>
<polygon fill="#191970" stroke="#191970" points="1066.8142,-189.2864 1075.7467,-183.589 1065.2109,-182.4725 1066.8142,-189.2864"/>
</g>
<!-- Node67 -->
<g id="node7" class="node">
<title>Node67</title>
<g id="a_node7"><a xlink:href="classGridFinder.html#ab5c436911deb269a22a8d5525271fa4e" target="_top" xlink:title="Get the width of the line at a given point.">
<polygon fill="#ffffff" stroke="#000000" points="879,-115 879,-145 1031,-145 1031,-115 879,-115"/>
<text text-anchor="start" x="887" y="-133" font-family="Helvetica,sans-Serif" font-size="10.00" fill="#000000">GridFinder::getWidthAtPoint</text>
<text text-anchor="middle" x="955" y="-122" font-family="Helvetica,sans-Serif" font-size="10.00" fill="#000000">OnLine</text>
</a>
</g>
</g>
<!-- Node62&#45;&gt;Node67 -->
<g id="edge6" class="edge">
<title>Node62&#45;&gt;Node67</title>
<path fill="none" stroke="#191970" d="M1071.573,-161.7598C1052.5849,-156.5866 1030.2823,-150.5103 1010.2967,-145.0654"/>
<polygon fill="#191970" stroke="#191970" points="1070.8885,-165.2009 1081.4569,-164.4527 1072.7286,-158.447 1070.8885,-165.2009"/>
</g>
<!-- Node71 -->
<g id="node11" class="node">
<title>Node71</title>
<g id="a_node11"><a xlink:href="classGridFinder.html#a54369e6368334eb2924ca70ee1f1d438" target="_top" xlink:title="Follow the given line to find the line perpendicular to it. Move along the line for minDistance pixel...">
<polygon fill="#ffffff" stroke="#000000" points="356,-95.5 356,-114.5 490,-114.5 490,-95.5 356,-95.5"/>
<text text-anchor="middle" x="423" y="-102.5" font-family="Helvetica,sans-Serif" font-size="10.00" fill="#000000">GridFinder::findNextLine</text>
</a>
</g>
</g>
<!-- Node62&#45;&gt;Node71 -->
<g id="edge26" class="edge">
<title>Node62&#45;&gt;Node71</title>
<path fill="none" stroke="#191970" d="M1101.7928,-156.6778C1086.2116,-139.7906 1059.9037,-115.2081 1031,-105 830.1972,-34.081 568.2778,-74.9425 466.2866,-95.4456"/>
<polygon fill="#191970" stroke="#191970" points="1099.2779,-159.1165 1108.5444,-164.253 1104.5036,-154.459 1099.2779,-159.1165"/>
</g>
<!-- Node76 -->
<g id="node16" class="node">
<title>Node76</title>
<g id="a_node16"><a xlink:href="classGridFinder.html#a671392ebb7c1324bd9a4e8d321475619" target="_top" xlink:title="Print the mask as &quot;pixels&quot; to the given output stream.">
<polygon fill="#ffffff" stroke="#000000" points="907.5,-328.5 907.5,-347.5 1002.5,-347.5 1002.5,-328.5 907.5,-328.5"/>
<text text-anchor="middle" x="955" y="-335.5" font-family="Helvetica,sans-Serif" font-size="10.00" fill="#000000">GridFinder::print</text>
</a>
</g>
</g>
<!-- Node62&#45;&gt;Node76 -->
<g id="edge16" class="edge">
<title>Node62&#45;&gt;Node76</title>
<path fill="none" stroke="#191970" d="M1110.5973,-193.2677C1099.9687,-224.6258 1074.5653,-286.4621 1031,-319 1022.7185,-325.1853 1012.6559,-329.3726 1002.5996,-332.2031"/>
<polygon fill="#191970" stroke="#191970" points="1113.9947,-194.1369 1113.7461,-183.545 1107.3352,-191.9801 1113.9947,-194.1369"/>
</g>
<!-- Node77 -->
<g id="node17" class="node">
<title>Node77</title>
<g id="a_node17"><a xlink:href="classGridFinder.html#a0cb4d1d344f4830de77ecf1615878656" target="_top" xlink:title="Draw a line on the mask. Used only for testing.">
<polygon fill="#ffffff" stroke="#000000" points="897,-290.5 897,-309.5 1013,-309.5 1013,-290.5 897,-290.5"/>
<text text-anchor="middle" x="955" y="-297.5" font-family="Helvetica,sans-Serif" font-size="10.00" fill="#000000">GridFinder::drawLine</text>
</a>
</g>
</g>
<!-- Node62&#45;&gt;Node77 -->
<g id="edge17" class="edge">
<title>Node62&#45;&gt;Node77</title>
<path fill="none" stroke="#191970" d="M1106.7314,-192.6453C1093.0822,-216.8176 1065.996,-258.529 1031,-281 1024.9345,-284.8947 1018.1229,-287.9911 1011.1343,-290.4529"/>
<polygon fill="#191970" stroke="#191970" points="1109.8688,-194.2027 1111.5933,-183.7491 1103.7263,-190.8456 1109.8688,-194.2027"/>
</g>
<!-- Node79 -->
<g id="node19" class="node">
<title>Node79</title>
<g id="a_node19"><a xlink:href="classGridFinder.html#af8bdc28d95e295618c2f345f2d7eb758" target="_top" xlink:title="Move a pixel in a given direction for a given distance.">
<polygon fill="#ffffff" stroke="#000000" points="905,-164.5 905,-183.5 1005,-183.5 1005,-164.5 905,-164.5"/>
<text text-anchor="middle" x="955" y="-171.5" font-family="Helvetica,sans-Serif" font-size="10.00" fill="#000000">GridFinder::move</text>
</a>
</g>
</g>
<!-- Node62&#45;&gt;Node79 -->
<g id="edge19" class="edge">
<title>Node62&#45;&gt;Node79</title>
<path fill="none" stroke="#191970" d="M1056.4191,-174C1039.5502,-174 1021.3911,-174 1005.1652,-174"/>
<polygon fill="#191970" stroke="#191970" points="1056.7269,-177.5001 1066.7269,-174 1056.7269,-170.5001 1056.7269,-177.5001"/>
</g>
<!-- Node80 -->
<g id="node20" class="node">
<title>Node80</title>
<g id="a_node20"><a xlink:href="classGridFinder.html#ace2a9cb90cc19a295d0fbe934a79b7e0" target="_top" xlink:title="Get the center pixel of the frame.">
<polygon fill="#ffffff" stroke="#000000" points="371.5,-38.5 371.5,-57.5 474.5,-57.5 474.5,-38.5 371.5,-38.5"/>
<text text-anchor="middle" x="423" y="-45.5" font-family="Helvetica,sans-Serif" font-size="10.00" fill="#000000">GridFinder::center</text>
</a>
</g>
</g>
<!-- Node62&#45;&gt;Node80 -->
<g id="edge23" class="edge">
<title>Node62&#45;&gt;Node80</title>
<path fill="none" stroke="#191970" d="M1107.7246,-155.1363C1094.8859,-130.0288 1068.3806,-86.6349 1031,-68 934.2364,-19.7615 603.3268,-35.892 474.7117,-44.2838"/>
<polygon fill="#191970" stroke="#191970" points="1104.7016,-156.9212 1112.2457,-164.3601 1110.9871,-153.8403 1104.7016,-156.9212"/>
</g>
<!-- Node81 -->
<g id="node21" class="node">
<title>Node81</title>
<g id="a_node21"><a xlink:href="classGridFinder.html#ae84004386cbee9606f9a46872cb67be8" target="_top" xlink:title="Find the vertical range of white pixels closest to the center of the given column,...">
<polygon fill="#ffffff" stroke="#000000" points="891,-241 891,-271 1019,-271 1019,-241 891,-241"/>
<text text-anchor="start" x="899" y="-259" font-family="Helvetica,sans-Serif" font-size="10.00" fill="#000000">GridFinder::getFirstLine</text>
<text text-anchor="middle" x="955" y="-248" font-family="Helvetica,sans-Serif" font-size="10.00" fill="#000000">Estimate</text>
</a>
</g>
</g>
<!-- Node62&#45;&gt;Node81 -->
<g id="edge25" class="edge">
<title>Node62&#45;&gt;Node81</title>
<path fill="none" stroke="#191970" d="M1096.4226,-189.6624C1079.666,-202.1608 1054.7688,-219.4332 1031,-231 1023.5062,-234.6467 1015.3504,-237.9574 1007.2544,-240.8891"/>
<polygon fill="#191970" stroke="#191970" points="1098.541,-192.4486 1104.3942,-183.6173 1094.3113,-186.871 1098.541,-192.4486"/>
</g>
<!-- Node64 -->
<g id="node4" class="node">
<title>Node64</title>
<g id="a_node4"><a xlink:href="classGridFinder.html#a04e1362c95151ac77477844a952af0f9" target="_top" xlink:title="Scan 360° around a given pixel, and find the angle with the most white pixels. This version is not ve...">
<polygon fill="#ffffff" stroke="#000000" points="528.5,-240.5 528.5,-259.5 666.5,-259.5 666.5,-240.5 528.5,-240.5"/>
<text text-anchor="middle" x="597.5" y="-247.5" font-family="Helvetica,sans-Serif" font-size="10.00" fill="#000000">GridFinder::findLineAngle</text>
</a>
</g>
</g>
<!-- Node63&#45;&gt;Node64 -->
<g id="edge3" class="edge">
<title>Node63&#45;&gt;Node64</title>
<path fill="none" stroke="#191970" d="M893.5806,-218.5285C830.5033,-225.2332 732.5089,-235.6494 666.7226,-242.6421"/>
<polygon fill="#191970" stroke="#191970" points="894.205,-221.9819 903.779,-217.4445 893.465,-215.0211 894.205,-221.9819"/>
</g>
<!-- Node66 -->
<g id="node6" class="node">
<title>Node66</title>
<g id="a_node6"><a xlink:href="classGridFinder.html#afcc1eed83ee0292966c3c80883069634" target="_top" xlink:title="Similar to findLineAngle, but is more accurate, because it uses the average of the range of angles wi...">
<polygon fill="#ffffff" stroke="#000000" points="705,-267 705,-297 843,-297 843,-267 705,-267"/>
<text text-anchor="start" x="713" y="-285" font-family="Helvetica,sans-Serif" font-size="10.00" fill="#000000">GridFinder::findLineAngle</text>
<text text-anchor="middle" x="774" y="-274" font-family="Helvetica,sans-Serif" font-size="10.00" fill="#000000">AccurateRange</text>
</a>
</g>
</g>
<!-- Node63&#45;&gt;Node66 -->
<g id="edge5" class="edge">
<title>Node63&#45;&gt;Node66</title>
<path fill="none" stroke="#191970" d="M901.1473,-224.3751C893.6114,-226.6246 886.0417,-229.1694 879,-232 862.0174,-238.8267 859.412,-243.897 843,-252 832.5757,-257.1467 821.0599,-262.3408 810.4714,-266.9272"/>
<polygon fill="#191970" stroke="#191970" points="902.3191,-227.681 910.9872,-221.5888 900.4119,-220.9458 902.3191,-227.681"/>
</g>
<!-- Node65 -->
<g id="node5" class="node">
<title>Node65</title>
<g id="a_node5"><a xlink:href="classGridFinder.html#aaea3af418ab7124f2b25bcc124fccaca" target="_top" xlink:title="Get an estimate of the line through a given pixel. Find an estimate of the slope, then use that to de...">
<polygon fill="#ffffff" stroke="#000000" points="359,-213 359,-243 487,-243 487,-213 359,-213"/>
<text text-anchor="start" x="367" y="-231" font-family="Helvetica,sans-Serif" font-size="10.00" fill="#000000">GridFinder::getFirstLine</text>
<text text-anchor="middle" x="423" y="-220" font-family="Helvetica,sans-Serif" font-size="10.00" fill="#000000">Estimate</text>
</a>
</g>
</g>
<!-- Node64&#45;&gt;Node65 -->
<g id="edge4" class="edge">
<title>Node64&#45;&gt;Node65</title>
<path fill="none" stroke="#191970" d="M518.3082,-240.0159C507.8343,-238.6954 497.2042,-237.3553 487.0285,-236.0724"/>
<polygon fill="#191970" stroke="#191970" points="517.9231,-243.495 528.2823,-241.2734 518.7987,-236.55 517.9231,-243.495"/>
</g>
<!-- Node68 -->
<g id="node8" class="node">
<title>Node68</title>
<g id="a_node8"><a xlink:href="classGridFinder.html#abcd46f31e256080b2d5d2aee03c0e258" target="_top" xlink:title="Find the middle of a line.">
<polygon fill="#ffffff" stroke="#000000" points="714,-114.5 714,-133.5 834,-133.5 834,-114.5 714,-114.5"/>
<text text-anchor="middle" x="774" y="-121.5" font-family="Helvetica,sans-Serif" font-size="10.00" fill="#000000">GridFinder::getMiddle</text>
</a>
</g>
</g>
<!-- Node67&#45;&gt;Node68 -->
<g id="edge7" class="edge">
<title>Node67&#45;&gt;Node68</title>
<path fill="none" stroke="#191970" d="M868.5897,-127.1356C856.9633,-126.7502 845.2466,-126.3618 834.2095,-125.9959"/>
<polygon fill="#191970" stroke="#191970" points="868.6538,-130.6395 878.7643,-127.4728 868.8858,-123.6434 868.6538,-130.6395"/>
</g>
<!-- Node69 -->
<g id="node9" class="node">
<title>Node69</title>
<g id="a_node9"><a xlink:href="classGridFinder.html#af830abf29ca6dc9c01197a38fe16e1e5" target="_top" xlink:title="In exceptional cases, we might want to find the middle of a line in a point that happens to lie at th...">
<polygon fill="#ffffff" stroke="#000000" points="526,-191 526,-221 669,-221 669,-191 526,-191"/>
<text text-anchor="start" x="534" y="-209" font-family="Helvetica,sans-Serif" font-size="10.00" fill="#000000">GridFinder::getMiddleWith</text>
<text text-anchor="middle" x="597.5" y="-198" font-family="Helvetica,sans-Serif" font-size="10.00" fill="#000000">Retries</text>
</a>
</g>
</g>
<!-- Node68&#45;&gt;Node69 -->
<g id="edge8" class="edge">
<title>Node68&#45;&gt;Node69</title>
<path fill="none" stroke="#191970" d="M744.2004,-137.8446C712.5157,-152.5649 662.5651,-175.7714 629.9162,-190.9398"/>
<polygon fill="#191970" stroke="#191970" points="745.8134,-140.9545 753.4078,-133.5669 742.864,-134.6062 745.8134,-140.9545"/>
</g>
<!-- Node70 -->
<g id="node10" class="node">
<title>Node70</title>
<g id="a_node10"><a xlink:href="classGridFinder.html#ae12ca7921b02b37417d87fc737f0134d" target="_top" xlink:title="Check if there could be a valid line going through the given point, and if so, find and return the ac...">
<polygon fill="#ffffff" stroke="#000000" points="537,-114.5 537,-133.5 658,-133.5 658,-114.5 537,-114.5"/>
<text text-anchor="middle" x="597.5" y="-121.5" font-family="Helvetica,sans-Serif" font-size="10.00" fill="#000000">GridFinder::checkLine</text>
</a>
</g>
</g>
<!-- Node68&#45;&gt;Node70 -->
<g id="edge10" class="edge">
<title>Node68&#45;&gt;Node70</title>
<path fill="none" stroke="#191970" d="M703.4814,-124C688.4475,-124 672.6975,-124 658.0754,-124"/>
<polygon fill="#191970" stroke="#191970" points="703.7524,-127.5001 713.7524,-124 703.7523,-120.5001 703.7524,-127.5001"/>
</g>
<!-- Node69&#45;&gt;Node65 -->
<g id="edge9" class="edge">
<title>Node69&#45;&gt;Node65</title>
<path fill="none" stroke="#191970" d="M515.8089,-216.2992C506.2012,-217.5104 496.5033,-218.7331 487.1837,-219.9081"/>
<polygon fill="#191970" stroke="#191970" points="516.2851,-219.7669 525.7688,-215.0435 515.4095,-212.8219 516.2851,-219.7669"/>
</g>
<!-- Node70&#45;&gt;Node71 -->
<g id="edge11" class="edge">
<title>Node70&#45;&gt;Node71</title>
<path fill="none" stroke="#191970" d="M526.9271,-116.3159C514.8358,-114.9993 502.3005,-113.6344 490.2976,-112.3275"/>
<polygon fill="#191970" stroke="#191970" points="526.638,-119.805 536.9581,-117.408 527.3957,-112.8461 526.638,-119.805"/>
</g>
<!-- Node72 -->
<g id="node12" class="node">
<title>Node72</title>
<g id="a_node12"><a xlink:href="classGridFinder.html#a3edbd3ffbcfe6d373fbaf576e4dca51b" target="_top" xlink:title="Equivalent to #findNextLine(LineResult,bool,uint,uint) but also supports optional LineResults.">
<polygon fill="#ffffff" stroke="#000000" points="186,-95.5 186,-114.5 320,-114.5 320,-95.5 186,-95.5"/>
<text text-anchor="middle" x="253" y="-102.5" font-family="Helvetica,sans-Serif" font-size="10.00" fill="#000000">GridFinder::findNextLine</text>
</a>
</g>
</g>
<!-- Node71&#45;&gt;Node72 -->
<g id="edge12" class="edge">
<title>Node71&#45;&gt;Node72</title>
<path fill="none" stroke="#191970" d="M345.5754,-105C337.1241,-105 328.5721,-105 320.2572,-105"/>
<polygon fill="#191970" stroke="#191970" points="345.8115,-108.5001 355.8115,-105 345.8115,-101.5001 345.8115,-108.5001"/>
</g>
<!-- Node73 -->
<g id="node13" class="node">
<title>Node73</title>
<g id="a_node13"><a xlink:href="classGridFinder.html#a8940ca681fac78274043cf5f1f1f5761" target="_top" xlink:title="This is the main function: it looks for a complete square of the grid, as close to the center of the ...">
<polygon fill="#ffffff" stroke="#000000" points="191,-38.5 191,-57.5 315,-57.5 315,-38.5 191,-38.5"/>
<text text-anchor="middle" x="253" y="-45.5" font-family="Helvetica,sans-Serif" font-size="10.00" fill="#000000">GridFinder::findSquare</text>
</a>
</g>
</g>
<!-- Node71&#45;&gt;Node73 -->
<g id="edge13" class="edge">
<title>Node71&#45;&gt;Node73</title>
<path fill="none" stroke="#191970" d="M384.8488,-92.2081C353.5393,-81.7102 309.8969,-67.0772 281.547,-57.5716"/>
<polygon fill="#191970" stroke="#191970" points="383.9519,-95.5988 394.5458,-95.4595 386.1773,-88.962 383.9519,-95.5988"/>
</g>
<!-- Node74 -->
<g id="node14" class="node">
<title>Node74</title>
<g id="a_node14"><a xlink:href="classLocationFinder.html#a398bb42565e1e2a499471765f569bc40" target="_top" xlink:title=" ">
<polygon fill="#ffffff" stroke="#000000" points="0,-38.5 0,-57.5 150,-57.5 150,-38.5 0,-38.5"/>
<text text-anchor="middle" x="75" y="-45.5" font-family="Helvetica,sans-Serif" font-size="10.00" fill="#000000">LocationFinder::getLocation</text>
</a>
</g>
</g>
<!-- Node73&#45;&gt;Node74 -->
<g id="edge14" class="edge">
<title>Node73&#45;&gt;Node74</title>
<path fill="none" stroke="#191970" d="M180.4379,-48C170.4268,-48 160.1282,-48 150.0729,-48"/>
<polygon fill="#191970" stroke="#191970" points="180.7443,-51.5001 190.7442,-48 180.7442,-44.5001 180.7443,-51.5001"/>
</g>
<!-- Node73&#45;&gt;Node75 -->
<g id="edge15" class="edge">
<title>Node73&#45;&gt;Node75</title>
<path fill="none" stroke="#191970" d="M198.2838,-36.319C173.041,-30.9301 143.4548,-24.6139 119.5939,-19.5201"/>
<polygon fill="#191970" stroke="#191970" points="197.5727,-39.746 208.0831,-38.411 199.0342,-32.9003 197.5727,-39.746"/>
</g>
<!-- Node78 -->
<g id="node18" class="node">
<title>Node78</title>
<g id="a_node18"><a xlink:href="classGridFinder.html#a38cc6124693e5f533e1598587272f92a" target="_top" xlink:title="Draw a line on the mask. Used only for testing.">
<polygon fill="#ffffff" stroke="#000000" points="716,-316.5 716,-335.5 832,-335.5 832,-316.5 716,-316.5"/>
<text text-anchor="middle" x="774" y="-323.5" font-family="Helvetica,sans-Serif" font-size="10.00" fill="#000000">GridFinder::drawLine</text>
</a>
</g>
</g>
<!-- Node77&#45;&gt;Node78 -->
<g id="edge18" class="edge">
<title>Node77&#45;&gt;Node78</title>
<path fill="none" stroke="#191970" d="M886.6261,-309.8217C868.6848,-312.3989 849.5076,-315.1536 832.1567,-317.646"/>
<polygon fill="#191970" stroke="#191970" points="887.3334,-313.2561 896.7342,-308.3697 886.3381,-306.3272 887.3334,-313.2561"/>
</g>
<!-- Node79&#45;&gt;Node68 -->
<g id="edge20" class="edge">
<title>Node79&#45;&gt;Node68</title>
<path fill="none" stroke="#191970" d="M905.6136,-161.9743C896.7364,-159.7215 887.5806,-157.3381 879,-155 854.0598,-148.204 825.9847,-139.8798 805.1444,-133.569"/>
<polygon fill="#191970" stroke="#191970" points="904.9208,-165.409 915.4724,-164.4531 906.6277,-158.6203 904.9208,-165.409"/>
</g>
<!-- Node79&#45;&gt;Node69 -->
<g id="edge21" class="edge">
<title>Node79&#45;&gt;Node69</title>
<path fill="none" stroke="#191970" d="M894.8535,-179.3837C832.5945,-184.9566 735.3528,-193.6607 669.1534,-199.5863"/>
<polygon fill="#191970" stroke="#191970" points="895.2666,-182.8609 904.9147,-178.4832 894.6425,-175.8887 895.2666,-182.8609"/>
</g>
<!-- Node79&#45;&gt;Node71 -->
<g id="edge22" class="edge">
<title>Node79&#45;&gt;Node71</title>
<path fill="none" stroke="#191970" d="M894.7218,-174.9398C811.0136,-175.052 655.2732,-170.9306 526,-143 496.5643,-136.6401 464.2285,-123.6558 443.785,-114.6466"/>
<polygon fill="#191970" stroke="#191970" points="894.8251,-178.4396 904.8129,-174.9051 894.8009,-171.4396 894.8251,-178.4396"/>
</g>
<!-- Node80&#45;&gt;Node73 -->
<g id="edge24" class="edge">
<title>Node80&#45;&gt;Node73</title>
<path fill="none" stroke="#191970" d="M360.916,-48C345.9764,-48 330.016,-48 315.0767,-48"/>
<polygon fill="#191970" stroke="#191970" points="361.0707,-51.5001 371.0707,-48 361.0706,-44.5001 361.0707,-51.5001"/>
</g>
</g>
</svg>
