<?xml version="1.0" encoding="UTF-8" standalone="no"?>
<!DOCTYPE svg PUBLIC "-//W3C//DTD SVG 1.1//EN"
 "http://www.w3.org/Graphics/SVG/1.1/DTD/svg11.dtd">
<!-- Generated by graphviz version 2.40.1 (20161225.0304)
 -->
<!-- Title: Angle::getIndex Pages: 1 -->
<svg width="814pt" height="226pt"
 viewBox="0.00 0.00 814.00 225.97" xmlns="http://www.w3.org/2000/svg" xmlns:xlink="http://www.w3.org/1999/xlink">
<g id="graph0" class="graph" transform="scale(1 1) rotate(0) translate(4 221.9748)">
<title>Angle::getIndex</title>
<polygon fill="#ffffff" stroke="transparent" points="-4,4 -4,-221.9748 810,-221.9748 810,4 -4,4"/>
<!-- Node43 -->
<g id="node1" class="node">
<title>Node43</title>
<g id="a_node1"><a xlink:title=" ">
<polygon fill="#bfbfbf" stroke="#000000" points="713,-103.4748 713,-122.4748 806,-122.4748 806,-103.4748 713,-103.4748"/>
<text text-anchor="middle" x="759.5" y="-110.4748" font-family="Helvetica,sans-Serif" font-size="10.00" fill="#000000">Angle::getIndex</text>
</a>
</g>
</g>
<!-- Node44 -->
<g id="node2" class="node">
<title>Node44</title>
<g id="a_node2"><a xlink:href="classAngle.html#a90a26814a60b92e152667b921ef542a4" target="_top" xlink:title=" ">
<polygon fill="#ffffff" stroke="#000000" points="548.5,-198.4748 548.5,-217.4748 667.5,-217.4748 667.5,-198.4748 548.5,-198.4748"/>
<text text-anchor="middle" x="608" y="-205.4748" font-family="Helvetica,sans-Serif" font-size="10.00" fill="#000000">Angle&lt; 360 &gt;::Angle</text>
</a>
</g>
</g>
<!-- Node43&#45;&gt;Node44 -->
<g id="edge1" class="edge">
<title>Node43&#45;&gt;Node44</title>
<path fill="none" stroke="#191970" d="M745.0909,-130.4165C729.8841,-147.7215 704.3654,-173.7912 677,-188.9748 670.0466,-192.8329 662.2574,-195.9494 654.4849,-198.4541"/>
<polygon fill="#191970" stroke="#191970" points="747.8435,-132.5832 751.6906,-122.7115 742.5271,-128.0294 747.8435,-132.5832"/>
</g>
<!-- Node45 -->
<g id="node3" class="node">
<title>Node45</title>
<g id="a_node3"><a xlink:href="classAngle.html#a50309ff78d5ce30e24c967c5684bad3b" target="_top" xlink:title=" ">
<polygon fill="#ffffff" stroke="#000000" points="542,-160.4748 542,-179.4748 674,-179.4748 674,-160.4748 542,-160.4748"/>
<text text-anchor="middle" x="608" y="-167.4748" font-family="Helvetica,sans-Serif" font-size="10.00" fill="#000000">Angle&lt; 360 &gt;::distance</text>
</a>
</g>
</g>
<!-- Node43&#45;&gt;Node45 -->
<g id="edge2" class="edge">
<title>Node43&#45;&gt;Node45</title>
<path fill="none" stroke="#191970" d="M731.6747,-127.1698C715.9004,-134.865 695.645,-144.1653 677,-150.9748 667.4298,-154.4701 656.9111,-157.6756 647.0334,-160.4183"/>
<polygon fill="#191970" stroke="#191970" points="733.453,-130.1949 740.863,-122.6224 730.3481,-123.9212 733.453,-130.1949"/>
</g>
<!-- Node46 -->
<g id="node4" class="node">
<title>Node46</title>
<g id="a_node4"><a xlink:href="classAngle.html#a897da4bbf76522fea73951ea55c05ffb" target="_top" xlink:title=" ">
<polygon fill="#ffffff" stroke="#000000" points="544,-122.4748 544,-141.4748 672,-141.4748 672,-122.4748 544,-122.4748"/>
<text text-anchor="middle" x="608" y="-129.4748" font-family="Helvetica,sans-Serif" font-size="10.00" fill="#000000">Angle&lt; 360 &gt;::indexof</text>
</a>
</g>
</g>
<!-- Node43&#45;&gt;Node46 -->
<g id="edge3" class="edge">
<title>Node43&#45;&gt;Node46</title>
<path fill="none" stroke="#191970" d="M702.6252,-120.1076C692.6612,-121.3572 682.2319,-122.6652 672.0884,-123.9373"/>
<polygon fill="#191970" stroke="#191970" points="703.3221,-123.5477 712.8088,-118.8305 702.451,-116.6021 703.3221,-123.5477"/>
</g>
<!-- Node47 -->
<g id="node5" class="node">
<title>Node47</title>
<g id="a_node5"><a xlink:href="classAngleTracker.html#a513f5d6f5b1affe00dcc82a036a3dc61" target="_top" xlink:title=" ">
<polygon fill="#ffffff" stroke="#000000" points="548.5,-84.4748 548.5,-103.4748 667.5,-103.4748 667.5,-84.4748 548.5,-84.4748"/>
<text text-anchor="middle" x="608" y="-91.4748" font-family="Helvetica,sans-Serif" font-size="10.00" fill="#000000">AngleTracker::update</text>
</a>
</g>
</g>
<!-- Node43&#45;&gt;Node47 -->
<g id="edge4" class="edge">
<title>Node43&#45;&gt;Node47</title>
<path fill="none" stroke="#191970" d="M702.5487,-105.8324C691.1561,-104.4036 679.158,-102.8989 667.6763,-101.459"/>
<polygon fill="#191970" stroke="#191970" points="702.451,-109.3475 712.8088,-107.1191 703.3221,-102.4019 702.451,-109.3475"/>
</g>
<!-- Node51 -->
<g id="node9" class="node">
<title>Node51</title>
<g id="a_node9"><a xlink:href="classGridFinder.html#afcc1eed83ee0292966c3c80883069634" target="_top" xlink:title="Similar to findLineAngle, but is more accurate, because it uses the average of the range of angles wi...">
<polygon fill="#ffffff" stroke="#000000" points="539,-34.9748 539,-64.9748 677,-64.9748 677,-34.9748 539,-34.9748"/>
<text text-anchor="start" x="547" y="-52.9748" font-family="Helvetica,sans-Serif" font-size="10.00" fill="#000000">GridFinder::findLineAngle</text>
<text text-anchor="middle" x="608" y="-41.9748" font-family="Helvetica,sans-Serif" font-size="10.00" fill="#000000">AccurateRange</text>
</a>
</g>
</g>
<!-- Node43&#45;&gt;Node51 -->
<g id="edge9" class="edge">
<title>Node43&#45;&gt;Node51</title>
<path fill="none" stroke="#191970" d="M730.8277,-99.048C715.08,-91.582 695.1203,-82.4152 677,-74.9748 668.7496,-71.5871 659.8521,-68.1828 651.2783,-65.0243"/>
<polygon fill="#191970" stroke="#191970" points="729.5024,-102.2938 740.0344,-103.4462 732.5199,-95.9775 729.5024,-102.2938"/>
</g>
<!-- Node52 -->
<g id="node10" class="node">
<title>Node52</title>
<g id="a_node10"><a xlink:href="structSquare.html#a12c1f0ee0bd30021a5a7d7344538fef9" target="_top" xlink:title="Get the average angle of the sides of the square .">
<polygon fill="#ffffff" stroke="#000000" points="378,-2.4748 378,-21.4748 478,-21.4748 478,-2.4748 378,-2.4748"/>
<text text-anchor="middle" x="428" y="-9.4748" font-family="Helvetica,sans-Serif" font-size="10.00" fill="#000000">Square::getAngle</text>
</a>
</g>
</g>
<!-- Node43&#45;&gt;Node52 -->
<g id="edge10" class="edge">
<title>Node43&#45;&gt;Node52</title>
<path fill="none" stroke="#191970" d="M748.5373,-94.5969C734.8008,-73.5011 709.1163,-39.895 677,-24.9748 613.4014,4.5711 530.5823,1.9289 478.3368,-3.9951"/>
<polygon fill="#191970" stroke="#191970" points="745.7129,-96.6812 753.9881,-103.2972 751.6448,-92.9647 745.7129,-96.6812"/>
</g>
<!-- Node48 -->
<g id="node6" class="node">
<title>Node48</title>
<g id="a_node6"><a xlink:href="classLocationFinder.html#a93be2c4b05b52c58f5fca5d1514dfbe9" target="_top" xlink:title="Get the position of the center of the frame relative to the given square.">
<polygon fill="#ffffff" stroke="#000000" points="353,-84.4748 353,-103.4748 503,-103.4748 503,-84.4748 353,-84.4748"/>
<text text-anchor="middle" x="428" y="-91.4748" font-family="Helvetica,sans-Serif" font-size="10.00" fill="#000000">LocationFinder::getLocation</text>
</a>
</g>
</g>
<!-- Node47&#45;&gt;Node48 -->
<g id="edge5" class="edge">
<title>Node47&#45;&gt;Node48</title>
<path fill="none" stroke="#191970" d="M537.7541,-93.9748C526.3693,-93.9748 514.5408,-93.9748 503.047,-93.9748"/>
<polygon fill="#191970" stroke="#191970" points="538.0626,-97.4749 548.0626,-93.9748 538.0626,-90.4749 538.0626,-97.4749"/>
</g>
<!-- Node50 -->
<g id="node8" class="node">
<title>Node50</title>
<g id="a_node8"><a xlink:href="Grid-Finder_8module_8hpp.html#a6849f4dcdb45a7aaadcda6439233d376" target="_top" xlink:title=" ">
<polygon fill="#ffffff" stroke="#000000" points="0,-46.4748 0,-65.4748 113,-65.4748 113,-46.4748 0,-46.4748"/>
<text text-anchor="middle" x="56.5" y="-53.4748" font-family="Helvetica,sans-Serif" font-size="10.00" fill="#000000">PYBIND11_MODULE</text>
</a>
</g>
</g>
<!-- Node47&#45;&gt;Node50 -->
<g id="edge8" class="edge">
<title>Node47&#45;&gt;Node50</title>
<path fill="none" stroke="#191970" d="M552.7247,-82.5132C536.7456,-79.5969 519.2361,-76.7807 503,-74.9748 363.4273,-59.4506 198.0168,-56.3806 113.0762,-55.9143"/>
<polygon fill="#191970" stroke="#191970" points="552.5019,-86.0323 562.9755,-84.4344 553.7915,-79.1521 552.5019,-86.0323"/>
</g>
<!-- Node49 -->
<g id="node7" class="node">
<title>Node49</title>
<g id="a_node7"><a xlink:href="classLocationFinder.html#af56756d038d762e04e0c91bac9fc2522" target="_top" xlink:title="Read a new frame, mask it, run GridFinder, and get the position of the drone. The position is the pos...">
<polygon fill="#ffffff" stroke="#000000" points="149,-84.4748 149,-103.4748 317,-103.4748 317,-84.4748 149,-84.4748"/>
<text text-anchor="middle" x="233" y="-91.4748" font-family="Helvetica,sans-Serif" font-size="10.00" fill="#000000">LocationFinder::updateLocation</text>
</a>
</g>
</g>
<!-- Node48&#45;&gt;Node49 -->
<g id="edge6" class="edge">
<title>Node48&#45;&gt;Node49</title>
<path fill="none" stroke="#191970" d="M342.6491,-93.9748C334.1912,-93.9748 325.6095,-93.9748 317.1639,-93.9748"/>
<polygon fill="#191970" stroke="#191970" points="342.8869,-97.4749 352.8868,-93.9748 342.8868,-90.4749 342.8869,-97.4749"/>
</g>
<!-- Node49&#45;&gt;Node50 -->
<g id="edge7" class="edge">
<title>Node49&#45;&gt;Node50</title>
<path fill="none" stroke="#191970" d="M178.4124,-82.2222C153.4553,-76.849 124.2732,-70.5662 100.7181,-65.4949"/>
<polygon fill="#191970" stroke="#191970" points="177.9489,-85.7026 188.4616,-84.3858 179.4223,-78.8594 177.9489,-85.7026"/>
</g>
<!-- Node52&#45;&gt;Node50 -->
<g id="edge11" class="edge">
<title>Node52&#45;&gt;Node50</title>
<path fill="none" stroke="#191970" d="M367.5737,-17.7139C311.0029,-23.2665 224.1609,-32.2506 149,-41.9748 137.4025,-43.4753 125.0117,-45.2391 113.1912,-46.9996"/>
<polygon fill="#191970" stroke="#191970" points="368.1623,-21.1732 377.7748,-16.7177 367.4819,-14.2063 368.1623,-21.1732"/>
</g>
</g>
</svg>
