<?xml version="1.0" encoding="UTF-8" standalone="no"?>
<!DOCTYPE svg PUBLIC "-//W3C//DTD SVG 1.1//EN"
 "http://www.w3.org/Graphics/SVG/1.1/DTD/svg11.dtd">
<!-- Generated by graphviz version 2.40.1 (20161225.0304)
 -->
<!-- Title: Mask::height Pages: 1 -->
<svg width="1293pt" height="393pt"
 viewBox="0.00 0.00 1293.00 393.00" xmlns="http://www.w3.org/2000/svg" xmlns:xlink="http://www.w3.org/1999/xlink">
<g id="graph0" class="graph" transform="scale(1 1) rotate(0) translate(4 389)">
<title>Mask::height</title>
<polygon fill="#ffffff" stroke="transparent" points="-4,4 -4,-389 1289,-389 1289,4 -4,4"/>
<!-- Node24 -->
<g id="node1" class="node">
<title>Node24</title>
<g id="a_node1"><a xlink:title="Get the height of the mask in pixels.">
<polygon fill="#bfbfbf" stroke="#000000" points="1206,-95.5 1206,-114.5 1285,-114.5 1285,-95.5 1206,-95.5"/>
<text text-anchor="middle" x="1245.5" y="-102.5" font-family="Helvetica,sans-Serif" font-size="10.00" fill="#000000">Mask::height</text>
</a>
</g>
</g>
<!-- Node25 -->
<g id="node2" class="node">
<title>Node25</title>
<g id="a_node2"><a xlink:href="classGridFinder.html#affd9ae441c8d86b1856a9ef31190e9ab" target="_top" xlink:title="Get the height of the frame.">
<polygon fill="#ffffff" stroke="#000000" points="1067,-190.5 1067,-209.5 1170,-209.5 1170,-190.5 1067,-190.5"/>
<text text-anchor="middle" x="1118.5" y="-197.5" font-family="Helvetica,sans-Serif" font-size="10.00" fill="#000000">GridFinder::height</text>
</a>
</g>
</g>
<!-- Node24&#45;&gt;Node25 -->
<g id="edge1" class="edge">
<title>Node24&#45;&gt;Node25</title>
<path fill="none" stroke="#191970" d="M1224.1304,-120.9851C1197.5884,-140.8394 1153.1519,-174.0793 1131.3524,-190.386"/>
<polygon fill="#191970" stroke="#191970" points="1226.476,-123.6015 1232.3871,-114.8089 1222.2831,-117.9961 1226.476,-123.6015"/>
</g>
<!-- Node39 -->
<g id="node16" class="node">
<title>Node39</title>
<g id="a_node16"><a xlink:href="Grid-Finder_8module_8hpp.html#a05e720af51446c0f9319fb9455fe1767" target="_top" xlink:title=" ">
<polygon fill="#ffffff" stroke="#000000" points="18.5,-.5 18.5,-19.5 131.5,-19.5 131.5,-.5 18.5,-.5"/>
<text text-anchor="middle" x="75" y="-7.5" font-family="Helvetica,sans-Serif" font-size="10.00" fill="#000000">PYBIND11_MODULE</text>
</a>
</g>
</g>
<!-- Node24&#45;&gt;Node39 -->
<g id="edge28" class="edge">
<title>Node24&#45;&gt;Node39</title>
<path fill="none" stroke="#191970" d="M1219.7209,-90.4293C1170.115,-63.8034 1057.2279,-10 955,-10 955,-10 955,-10 423,-10 320.2917,-10 200.5321,-10 131.6598,-10"/>
<polygon fill="#191970" stroke="#191970" points="1218.3214,-93.6527 1228.7765,-95.3681 1221.6731,-87.5072 1218.3214,-93.6527"/>
</g>
<!-- Node26 -->
<g id="node3" class="node">
<title>Node26</title>
<g id="a_node3"><a xlink:href="classGridFinder.html#ace2c24a54244e7e92618d3fe7ec62fdc" target="_top" xlink:title="Starting from the given pixel, move in the direction of the given angle, and count the number of whit...">
<polygon fill="#ffffff" stroke="#000000" points="904,-228.5 904,-247.5 1006,-247.5 1006,-228.5 904,-228.5"/>
<text text-anchor="middle" x="955" y="-235.5" font-family="Helvetica,sans-Serif" font-size="10.00" fill="#000000">GridFinder::hough</text>
</a>
</g>
</g>
<!-- Node25&#45;&gt;Node26 -->
<g id="edge2" class="edge">
<title>Node25&#45;&gt;Node26</title>
<path fill="none" stroke="#191970" d="M1067.3156,-211.8961C1044.3339,-217.2374 1017.5875,-223.4537 995.9613,-228.4799"/>
<polygon fill="#191970" stroke="#191970" points="1068.294,-215.262 1077.242,-209.589 1066.7093,-208.4438 1068.294,-215.262"/>
</g>
<!-- Node31 -->
<g id="node8" class="node">
<title>Node31</title>
<g id="a_node8"><a xlink:href="classGridFinder.html#ab5c436911deb269a22a8d5525271fa4e" target="_top" xlink:title="Get the width of the line at a given point.">
<polygon fill="#ffffff" stroke="#000000" points="879,-141 879,-171 1031,-171 1031,-141 879,-141"/>
<text text-anchor="start" x="887" y="-159" font-family="Helvetica,sans-Serif" font-size="10.00" fill="#000000">GridFinder::getWidthAtPoint</text>
<text text-anchor="middle" x="955" y="-148" font-family="Helvetica,sans-Serif" font-size="10.00" fill="#000000">OnLine</text>
</a>
</g>
</g>
<!-- Node25&#45;&gt;Node31 -->
<g id="edge7" class="edge">
<title>Node25&#45;&gt;Node31</title>
<path fill="none" stroke="#191970" d="M1073.2821,-187.8313C1054.0015,-182.6426 1031.3078,-176.5354 1010.9815,-171.0654"/>
<polygon fill="#191970" stroke="#191970" points="1072.4569,-191.2337 1083.0229,-190.4527 1074.2761,-184.4742 1072.4569,-191.2337"/>
</g>
<!-- Node35 -->
<g id="node12" class="node">
<title>Node35</title>
<g id="a_node12"><a xlink:href="classGridFinder.html#a54369e6368334eb2924ca70ee1f1d438" target="_top" xlink:title="Follow the given line to find the line perpendicular to it. Move along the line for minDistance pixel...">
<polygon fill="#ffffff" stroke="#000000" points="356,-95.5 356,-114.5 490,-114.5 490,-95.5 356,-95.5"/>
<text text-anchor="middle" x="423" y="-102.5" font-family="Helvetica,sans-Serif" font-size="10.00" fill="#000000">GridFinder::findNextLine</text>
</a>
</g>
</g>
<!-- Node25&#45;&gt;Node35 -->
<g id="edge27" class="edge">
<title>Node25&#45;&gt;Node35</title>
<path fill="none" stroke="#191970" d="M1102.8733,-183.0148C1086.6494,-166.6082 1059.6686,-142.5914 1031,-131 840.4897,-53.9723 588.5015,-78.9823 478.4239,-95.4442"/>
<polygon fill="#191970" stroke="#191970" points="1100.4838,-185.5796 1109.9339,-190.3698 1105.5336,-180.7319 1100.4838,-185.5796"/>
</g>
<!-- Node40 -->
<g id="node17" class="node">
<title>Node40</title>
<g id="a_node17"><a xlink:href="classGridFinder.html#a671392ebb7c1324bd9a4e8d321475619" target="_top" xlink:title="Print the mask as &quot;pixels&quot; to the given output stream.">
<polygon fill="#ffffff" stroke="#000000" points="907.5,-354.5 907.5,-373.5 1002.5,-373.5 1002.5,-354.5 907.5,-354.5"/>
<text text-anchor="middle" x="955" y="-361.5" font-family="Helvetica,sans-Serif" font-size="10.00" fill="#000000">GridFinder::print</text>
</a>
</g>
</g>
<!-- Node25&#45;&gt;Node40 -->
<g id="edge17" class="edge">
<title>Node25&#45;&gt;Node40</title>
<path fill="none" stroke="#191970" d="M1112.3276,-219.2734C1101.2608,-250.6396 1074.9964,-312.4874 1031,-345 1022.6871,-351.1431 1012.6118,-355.3132 1002.5531,-358.1405"/>
<polygon fill="#191970" stroke="#191970" points="1115.7283,-220.1422 1115.6124,-209.548 1109.0964,-217.9022 1115.7283,-220.1422"/>
</g>
<!-- Node41 -->
<g id="node18" class="node">
<title>Node41</title>
<g id="a_node18"><a xlink:href="classGridFinder.html#a0cb4d1d344f4830de77ecf1615878656" target="_top" xlink:title="Draw a line on the mask. Used only for testing.">
<polygon fill="#ffffff" stroke="#000000" points="897,-316.5 897,-335.5 1013,-335.5 1013,-316.5 897,-316.5"/>
<text text-anchor="middle" x="955" y="-323.5" font-family="Helvetica,sans-Serif" font-size="10.00" fill="#000000">GridFinder::drawLine</text>
</a>
</g>
</g>
<!-- Node25&#45;&gt;Node41 -->
<g id="edge18" class="edge">
<title>Node25&#45;&gt;Node41</title>
<path fill="none" stroke="#191970" d="M1108.3915,-218.6434C1094.3002,-242.8136 1066.4449,-284.5227 1031,-307 1024.9126,-310.8603 1018.0882,-313.9366 1011.0929,-316.3881"/>
<polygon fill="#191970" stroke="#191970" points="1111.5453,-220.1764 1113.416,-209.748 1105.4504,-216.7338 1111.5453,-220.1764"/>
</g>
<!-- Node43 -->
<g id="node20" class="node">
<title>Node43</title>
<g id="a_node20"><a xlink:href="classGridFinder.html#af8bdc28d95e295618c2f345f2d7eb758" target="_top" xlink:title="Move a pixel in a given direction for a given distance.">
<polygon fill="#ffffff" stroke="#000000" points="905,-190.5 905,-209.5 1005,-209.5 1005,-190.5 905,-190.5"/>
<text text-anchor="middle" x="955" y="-197.5" font-family="Helvetica,sans-Serif" font-size="10.00" fill="#000000">GridFinder::move</text>
</a>
</g>
</g>
<!-- Node25&#45;&gt;Node43 -->
<g id="edge20" class="edge">
<title>Node25&#45;&gt;Node43</title>
<path fill="none" stroke="#191970" d="M1056.4272,-200C1039.5274,-200 1021.4349,-200 1005.278,-200"/>
<polygon fill="#191970" stroke="#191970" points="1056.7676,-203.5001 1066.7676,-200 1056.7675,-196.5001 1056.7676,-203.5001"/>
</g>
<!-- Node44 -->
<g id="node21" class="node">
<title>Node44</title>
<g id="a_node21"><a xlink:href="classGridFinder.html#ace2a9cb90cc19a295d0fbe934a79b7e0" target="_top" xlink:title="Get the center pixel of the frame.">
<polygon fill="#ffffff" stroke="#000000" points="371.5,-38.5 371.5,-57.5 474.5,-57.5 474.5,-38.5 371.5,-38.5"/>
<text text-anchor="middle" x="423" y="-45.5" font-family="Helvetica,sans-Serif" font-size="10.00" fill="#000000">GridFinder::center</text>
</a>
</g>
</g>
<!-- Node25&#45;&gt;Node44 -->
<g id="edge24" class="edge">
<title>Node25&#45;&gt;Node44</title>
<path fill="none" stroke="#191970" d="M1110.0165,-180.8345C1097.1744,-154.4206 1070.0823,-107.7447 1031,-87 935.3542,-36.2317 603.7743,-41.725 474.8461,-45.9592"/>
<polygon fill="#191970" stroke="#191970" points="1106.9734,-182.5905 1114.372,-190.1741 1113.3175,-179.6319 1106.9734,-182.5905"/>
</g>
<!-- Node45 -->
<g id="node22" class="node">
<title>Node45</title>
<g id="a_node22"><a xlink:href="classGridFinder.html#ae84004386cbee9606f9a46872cb67be8" target="_top" xlink:title="Find the vertical range of white pixels closest to the center of the given column,...">
<polygon fill="#ffffff" stroke="#000000" points="891,-267 891,-297 1019,-297 1019,-267 891,-267"/>
<text text-anchor="start" x="899" y="-285" font-family="Helvetica,sans-Serif" font-size="10.00" fill="#000000">GridFinder::getFirstLine</text>
<text text-anchor="middle" x="955" y="-274" font-family="Helvetica,sans-Serif" font-size="10.00" fill="#000000">Estimate</text>
</a>
</g>
</g>
<!-- Node25&#45;&gt;Node45 -->
<g id="edge26" class="edge">
<title>Node25&#45;&gt;Node45</title>
<path fill="none" stroke="#191970" d="M1097.8957,-215.6307C1080.7137,-228.1106 1055.2172,-245.3737 1031,-257 1023.3618,-260.667 1015.0485,-264.0059 1006.8156,-266.9648"/>
<polygon fill="#191970" stroke="#191970" points="1100.1048,-218.3503 1106.0721,-209.5957 1095.9478,-212.7183 1100.1048,-218.3503"/>
</g>
<!-- Node27 -->
<g id="node4" class="node">
<title>Node27</title>
<g id="a_node4"><a xlink:href="classGridFinder.html#a04e1362c95151ac77477844a952af0f9" target="_top" xlink:title="Scan 360° around a given pixel, and find the angle with the most white pixels. This version is not ve...">
<polygon fill="#ffffff" stroke="#000000" points="528.5,-240.5 528.5,-259.5 666.5,-259.5 666.5,-240.5 528.5,-240.5"/>
<text text-anchor="middle" x="597.5" y="-247.5" font-family="Helvetica,sans-Serif" font-size="10.00" fill="#000000">GridFinder::findLineAngle</text>
</a>
</g>
</g>
<!-- Node26&#45;&gt;Node27 -->
<g id="edge3" class="edge">
<title>Node26&#45;&gt;Node27</title>
<path fill="none" stroke="#191970" d="M893.5806,-240.0616C830.5033,-242.1789 732.5089,-245.4682 666.7226,-247.6764"/>
<polygon fill="#191970" stroke="#191970" points="893.902,-243.5529 903.779,-239.7193 893.6671,-236.5568 893.902,-243.5529"/>
</g>
<!-- Node29 -->
<g id="node6" class="node">
<title>Node29</title>
<g id="a_node6"><a xlink:href="classGridFinder.html#af44b4862dc3f8c725e8ea3739b33c2e6" target="_top" xlink:title=" ">
<polygon fill="#ffffff" stroke="#000000" points="705,-316 705,-346 843,-346 843,-316 705,-316"/>
<text text-anchor="start" x="713" y="-334" font-family="Helvetica,sans-Serif" font-size="10.00" fill="#000000">GridFinder::findLineAngle</text>
<text text-anchor="middle" x="774" y="-323" font-family="Helvetica,sans-Serif" font-size="10.00" fill="#000000">Accurate</text>
</a>
</g>
</g>
<!-- Node26&#45;&gt;Node29 -->
<g id="edge5" class="edge">
<title>Node26&#45;&gt;Node29</title>
<path fill="none" stroke="#191970" d="M894.1083,-249.9279C888.781,-252.1707 883.6537,-254.835 879,-258 856.6545,-273.1971 864.7406,-290.9496 843,-307 838.4083,-310.3899 833.2989,-313.3296 827.9956,-315.8726"/>
<polygon fill="#191970" stroke="#191970" points="895.6861,-253.0764 903.8545,-246.329 893.2613,-246.5097 895.6861,-253.0764"/>
</g>
<!-- Node30 -->
<g id="node7" class="node">
<title>Node30</title>
<g id="a_node7"><a xlink:href="classGridFinder.html#afcc1eed83ee0292966c3c80883069634" target="_top" xlink:title="Similar to findLineAngle, but is more accurate, because it uses the average of the range of angles wi...">
<polygon fill="#ffffff" stroke="#000000" points="705,-267 705,-297 843,-297 843,-267 705,-267"/>
<text text-anchor="start" x="713" y="-285" font-family="Helvetica,sans-Serif" font-size="10.00" fill="#000000">GridFinder::findLineAngle</text>
<text text-anchor="middle" x="774" y="-274" font-family="Helvetica,sans-Serif" font-size="10.00" fill="#000000">AccurateRange</text>
</a>
</g>
</g>
<!-- Node26&#45;&gt;Node30 -->
<g id="edge6" class="edge">
<title>Node26&#45;&gt;Node30</title>
<path fill="none" stroke="#191970" d="M905.8213,-249.955C884.2899,-255.1892 858.7849,-261.3893 835.9734,-266.9346"/>
<polygon fill="#191970" stroke="#191970" points="906.8355,-253.3105 915.7257,-247.5473 905.1819,-246.5086 906.8355,-253.3105"/>
</g>
<!-- Node28 -->
<g id="node5" class="node">
<title>Node28</title>
<g id="a_node5"><a xlink:href="classGridFinder.html#aaea3af418ab7124f2b25bcc124fccaca" target="_top" xlink:title="Get an estimate of the line through a given pixel. Find an estimate of the slope, then use that to de...">
<polygon fill="#ffffff" stroke="#000000" points="359,-213 359,-243 487,-243 487,-213 359,-213"/>
<text text-anchor="start" x="367" y="-231" font-family="Helvetica,sans-Serif" font-size="10.00" fill="#000000">GridFinder::getFirstLine</text>
<text text-anchor="middle" x="423" y="-220" font-family="Helvetica,sans-Serif" font-size="10.00" fill="#000000">Estimate</text>
</a>
</g>
</g>
<!-- Node27&#45;&gt;Node28 -->
<g id="edge4" class="edge">
<title>Node27&#45;&gt;Node28</title>
<path fill="none" stroke="#191970" d="M518.3082,-240.0159C507.8343,-238.6954 497.2042,-237.3553 487.0285,-236.0724"/>
<polygon fill="#191970" stroke="#191970" points="517.9231,-243.495 528.2823,-241.2734 518.7987,-236.55 517.9231,-243.495"/>
</g>
<!-- Node32 -->
<g id="node9" class="node">
<title>Node32</title>
<g id="a_node9"><a xlink:href="classGridFinder.html#abcd46f31e256080b2d5d2aee03c0e258" target="_top" xlink:title="Find the middle of a line.">
<polygon fill="#ffffff" stroke="#000000" points="714,-152.5 714,-171.5 834,-171.5 834,-152.5 714,-152.5"/>
<text text-anchor="middle" x="774" y="-159.5" font-family="Helvetica,sans-Serif" font-size="10.00" fill="#000000">GridFinder::getMiddle</text>
</a>
</g>
</g>
<!-- Node31&#45;&gt;Node32 -->
<g id="edge8" class="edge">
<title>Node31&#45;&gt;Node32</title>
<path fill="none" stroke="#191970" d="M868.5897,-158.8644C856.9633,-159.2498 845.2466,-159.6382 834.2095,-160.0041"/>
<polygon fill="#191970" stroke="#191970" points="868.8858,-162.3566 878.7643,-158.5272 868.6538,-155.3605 868.8858,-162.3566"/>
</g>
<!-- Node33 -->
<g id="node10" class="node">
<title>Node33</title>
<g id="a_node10"><a xlink:href="classGridFinder.html#af830abf29ca6dc9c01197a38fe16e1e5" target="_top" xlink:title="In exceptional cases, we might want to find the middle of a line in a point that happens to lie at th...">
<polygon fill="#ffffff" stroke="#000000" points="526,-191 526,-221 669,-221 669,-191 526,-191"/>
<text text-anchor="start" x="534" y="-209" font-family="Helvetica,sans-Serif" font-size="10.00" fill="#000000">GridFinder::getMiddleWith</text>
<text text-anchor="middle" x="597.5" y="-198" font-family="Helvetica,sans-Serif" font-size="10.00" fill="#000000">Retries</text>
</a>
</g>
</g>
<!-- Node32&#45;&gt;Node33 -->
<g id="edge9" class="edge">
<title>Node32&#45;&gt;Node33</title>
<path fill="none" stroke="#191970" d="M725.7588,-174.0261C704.8229,-179.2453 680.0764,-185.4144 657.9327,-190.9346"/>
<polygon fill="#191970" stroke="#191970" points="726.8457,-177.3624 735.7021,-171.5473 725.1524,-170.5702 726.8457,-177.3624"/>
</g>
<!-- Node34 -->
<g id="node11" class="node">
<title>Node34</title>
<g id="a_node11"><a xlink:href="classGridFinder.html#ae12ca7921b02b37417d87fc737f0134d" target="_top" xlink:title="Check if there could be a valid line going through the given point, and if so, find and return the ac...">
<polygon fill="#ffffff" stroke="#000000" points="537,-152.5 537,-171.5 658,-171.5 658,-152.5 537,-152.5"/>
<text text-anchor="middle" x="597.5" y="-159.5" font-family="Helvetica,sans-Serif" font-size="10.00" fill="#000000">GridFinder::checkLine</text>
</a>
</g>
</g>
<!-- Node32&#45;&gt;Node34 -->
<g id="edge11" class="edge">
<title>Node32&#45;&gt;Node34</title>
<path fill="none" stroke="#191970" d="M703.4814,-162C688.4475,-162 672.6975,-162 658.0754,-162"/>
<polygon fill="#191970" stroke="#191970" points="703.7524,-165.5001 713.7524,-162 703.7523,-158.5001 703.7524,-165.5001"/>
</g>
<!-- Node33&#45;&gt;Node28 -->
<g id="edge10" class="edge">
<title>Node33&#45;&gt;Node28</title>
<path fill="none" stroke="#191970" d="M515.8089,-216.2992C506.2012,-217.5104 496.5033,-218.7331 487.1837,-219.9081"/>
<polygon fill="#191970" stroke="#191970" points="516.2851,-219.7669 525.7688,-215.0435 515.4095,-212.8219 516.2851,-219.7669"/>
</g>
<!-- Node34&#45;&gt;Node35 -->
<g id="edge12" class="edge">
<title>Node34&#45;&gt;Node35</title>
<path fill="none" stroke="#191970" d="M558.7556,-149.3442C526.5888,-138.837 481.529,-124.1184 452.3027,-114.5716"/>
<polygon fill="#191970" stroke="#191970" points="557.7001,-152.6814 568.2926,-152.4595 559.8737,-146.0274 557.7001,-152.6814"/>
</g>
<!-- Node36 -->
<g id="node13" class="node">
<title>Node36</title>
<g id="a_node13"><a xlink:href="classGridFinder.html#a3edbd3ffbcfe6d373fbaf576e4dca51b" target="_top" xlink:title="Equivalent to #findNextLine(LineResult,bool,uint,uint) but also supports optional LineResults.">
<polygon fill="#ffffff" stroke="#000000" points="186,-95.5 186,-114.5 320,-114.5 320,-95.5 186,-95.5"/>
<text text-anchor="middle" x="253" y="-102.5" font-family="Helvetica,sans-Serif" font-size="10.00" fill="#000000">GridFinder::findNextLine</text>
</a>
</g>
</g>
<!-- Node35&#45;&gt;Node36 -->
<g id="edge13" class="edge">
<title>Node35&#45;&gt;Node36</title>
<path fill="none" stroke="#191970" d="M345.5754,-105C337.1241,-105 328.5721,-105 320.2572,-105"/>
<polygon fill="#191970" stroke="#191970" points="345.8115,-108.5001 355.8115,-105 345.8115,-101.5001 345.8115,-108.5001"/>
</g>
<!-- Node37 -->
<g id="node14" class="node">
<title>Node37</title>
<g id="a_node14"><a xlink:href="classGridFinder.html#a8940ca681fac78274043cf5f1f1f5761" target="_top" xlink:title="This is the main function: it looks for a complete square of the grid, as close to the center of the ...">
<polygon fill="#ffffff" stroke="#000000" points="191,-38.5 191,-57.5 315,-57.5 315,-38.5 191,-38.5"/>
<text text-anchor="middle" x="253" y="-45.5" font-family="Helvetica,sans-Serif" font-size="10.00" fill="#000000">GridFinder::findSquare</text>
</a>
</g>
</g>
<!-- Node35&#45;&gt;Node37 -->
<g id="edge14" class="edge">
<title>Node35&#45;&gt;Node37</title>
<path fill="none" stroke="#191970" d="M384.8488,-92.2081C353.5393,-81.7102 309.8969,-67.0772 281.547,-57.5716"/>
<polygon fill="#191970" stroke="#191970" points="383.9519,-95.5988 394.5458,-95.4595 386.1773,-88.962 383.9519,-95.5988"/>
</g>
<!-- Node38 -->
<g id="node15" class="node">
<title>Node38</title>
<g id="a_node15"><a xlink:href="classLocationFinder.html#a398bb42565e1e2a499471765f569bc40" target="_top" xlink:title=" ">
<polygon fill="#ffffff" stroke="#000000" points="0,-38.5 0,-57.5 150,-57.5 150,-38.5 0,-38.5"/>
<text text-anchor="middle" x="75" y="-45.5" font-family="Helvetica,sans-Serif" font-size="10.00" fill="#000000">LocationFinder::getLocation</text>
</a>
</g>
</g>
<!-- Node37&#45;&gt;Node38 -->
<g id="edge15" class="edge">
<title>Node37&#45;&gt;Node38</title>
<path fill="none" stroke="#191970" d="M180.4379,-48C170.4268,-48 160.1282,-48 150.0729,-48"/>
<polygon fill="#191970" stroke="#191970" points="180.7443,-51.5001 190.7442,-48 180.7442,-44.5001 180.7443,-51.5001"/>
</g>
<!-- Node37&#45;&gt;Node39 -->
<g id="edge16" class="edge">
<title>Node37&#45;&gt;Node39</title>
<path fill="none" stroke="#191970" d="M198.2838,-36.319C173.041,-30.9301 143.4548,-24.6139 119.5939,-19.5201"/>
<polygon fill="#191970" stroke="#191970" points="197.5727,-39.746 208.0831,-38.411 199.0342,-32.9003 197.5727,-39.746"/>
</g>
<!-- Node42 -->
<g id="node19" class="node">
<title>Node42</title>
<g id="a_node19"><a xlink:href="classGridFinder.html#a38cc6124693e5f533e1598587272f92a" target="_top" xlink:title="Draw a line on the mask. Used only for testing.">
<polygon fill="#ffffff" stroke="#000000" points="716,-365.5 716,-384.5 832,-384.5 832,-365.5 716,-365.5"/>
<text text-anchor="middle" x="774" y="-372.5" font-family="Helvetica,sans-Serif" font-size="10.00" fill="#000000">GridFinder::drawLine</text>
</a>
</g>
</g>
<!-- Node41&#45;&gt;Node42 -->
<g id="edge19" class="edge">
<title>Node41&#45;&gt;Node42</title>
<path fill="none" stroke="#191970" d="M905.2991,-338.0336C896.5165,-340.2715 887.4742,-342.6477 879,-345 862.8793,-349.4748 859.0665,-351.3343 843,-356 832.1418,-359.1532 820.2844,-362.4655 809.5102,-365.4253"/>
<polygon fill="#191970" stroke="#191970" points="906.2186,-341.4113 915.0605,-335.5742 904.5084,-334.6235 906.2186,-341.4113"/>
</g>
<!-- Node43&#45;&gt;Node32 -->
<g id="edge21" class="edge">
<title>Node43&#45;&gt;Node32</title>
<path fill="none" stroke="#191970" d="M899.3616,-188.319C873.6934,-182.9301 843.6085,-176.6139 819.3455,-171.5201"/>
<polygon fill="#191970" stroke="#191970" points="898.8203,-191.7816 909.3261,-190.411 900.2586,-184.9309 898.8203,-191.7816"/>
</g>
<!-- Node43&#45;&gt;Node33 -->
<g id="edge22" class="edge">
<title>Node43&#45;&gt;Node33</title>
<path fill="none" stroke="#191970" d="M894.8535,-201.0095C832.5945,-202.0544 735.3528,-203.6864 669.1534,-204.7974"/>
<polygon fill="#191970" stroke="#191970" points="894.9749,-204.508 904.9147,-200.8406 894.8574,-197.509 894.9749,-204.508"/>
</g>
<!-- Node43&#45;&gt;Node35 -->
<g id="edge23" class="edge">
<title>Node43&#45;&gt;Node35</title>
<path fill="none" stroke="#191970" d="M895.169,-188.543C889.5273,-186.4358 884.0406,-183.9445 879,-181 858.912,-169.2652 863.935,-153.147 843,-143 782.4695,-113.6615 592.4499,-106.8622 490.0141,-105.3612"/>
<polygon fill="#191970" stroke="#191970" points="894.1646,-191.8975 904.7582,-191.739 896.3779,-185.2566 894.1646,-191.8975"/>
</g>
<!-- Node44&#45;&gt;Node37 -->
<g id="edge25" class="edge">
<title>Node44&#45;&gt;Node37</title>
<path fill="none" stroke="#191970" d="M360.916,-48C345.9764,-48 330.016,-48 315.0767,-48"/>
<polygon fill="#191970" stroke="#191970" points="361.0707,-51.5001 371.0707,-48 361.0706,-44.5001 361.0707,-51.5001"/>
</g>
</g>
</svg>
