<?xml version="1.0" encoding="UTF-8" standalone="no"?>
<!DOCTYPE svg PUBLIC "-//W3C//DTD SVG 1.1//EN"
 "http://www.w3.org/Graphics/SVG/1.1/DTD/svg11.dtd">
<!-- Generated by graphviz version 2.40.1 (20161225.0304)
 -->
<!-- Title: GridFinder::get Pages: 1 -->
<svg width="1163pt" height="271pt"
 viewBox="0.00 0.00 1163.00 270.50" xmlns="http://www.w3.org/2000/svg" xmlns:xlink="http://www.w3.org/1999/xlink">
<g id="graph0" class="graph" transform="scale(1 1) rotate(0) translate(4 266.5)">
<title>GridFinder::get</title>
<polygon fill="#ffffff" stroke="transparent" points="-4,4 -4,-266.5 1159,-266.5 1159,4 -4,4"/>
<!-- Node189 -->
<g id="node1" class="node">
<title>Node189</title>
<g id="a_node1"><a xlink:title="Get the value of the given pixel.">
<polygon fill="#bfbfbf" stroke="#000000" points="1067,-107 1067,-126 1155,-126 1155,-107 1067,-107"/>
<text text-anchor="middle" x="1111" y="-114" font-family="Helvetica,sans-Serif" font-size="10.00" fill="#000000">GridFinder::get</text>
</a>
</g>
</g>
<!-- Node189&#45;&gt;Node189 -->
<g id="edge17" class="edge">
<title>Node189&#45;&gt;Node189</title>
<path fill="none" stroke="#191970" d="M1140.1191,-135.1539C1138.9019,-140.4368 1129.1956,-144.5 1111,-144.5 1083.2734,-144.5 1075.2587,-135.0653 1086.9559,-126.2571"/>
<polygon fill="#191970" stroke="#191970" points="1143.0391,-133.2091 1135.0441,-126.2571 1136.9588,-136.6775 1143.0391,-133.2091"/>
</g>
<!-- Node190 -->
<g id="node2" class="node">
<title>Node190</title>
<g id="a_node2"><a xlink:href="classGridFinder.html#ace2c24a54244e7e92618d3fe7ec62fdc" target="_top" xlink:title="Starting from the given pixel, move in the direction of the given angle, and count the number of whit...">
<polygon fill="#ffffff" stroke="#000000" points="904,-216 904,-235 1006,-235 1006,-216 904,-216"/>
<text text-anchor="middle" x="955" y="-223" font-family="Helvetica,sans-Serif" font-size="10.00" fill="#000000">GridFinder::hough</text>
</a>
</g>
</g>
<!-- Node189&#45;&gt;Node190 -->
<g id="edge1" class="edge">
<title>Node189&#45;&gt;Node190</title>
<path fill="none" stroke="#191970" d="M1099.2692,-134.6036C1085.3512,-154.6415 1060.3047,-186.4813 1031,-204.5 1023.1872,-209.3039 1014.2582,-213.0317 1005.3323,-215.9176"/>
<polygon fill="#191970" stroke="#191970" points="1102.3317,-136.3219 1105.0172,-126.0731 1096.5266,-132.4103 1102.3317,-136.3219"/>
</g>
<!-- Node195 -->
<g id="node7" class="node">
<title>Node195</title>
<g id="a_node7"><a xlink:href="classGridFinder.html#ab5c436911deb269a22a8d5525271fa4e" target="_top" xlink:title="Get the width of the line at a given point.">
<polygon fill="#ffffff" stroke="#000000" points="879,-164.5 879,-194.5 1031,-194.5 1031,-164.5 879,-164.5"/>
<text text-anchor="start" x="887" y="-182.5" font-family="Helvetica,sans-Serif" font-size="10.00" fill="#000000">GridFinder::getWidthAtPoint</text>
<text text-anchor="middle" x="955" y="-171.5" font-family="Helvetica,sans-Serif" font-size="10.00" fill="#000000">OnLine</text>
</a>
</g>
</g>
<!-- Node189&#45;&gt;Node195 -->
<g id="edge6" class="edge">
<title>Node189&#45;&gt;Node195</title>
<path fill="none" stroke="#191970" d="M1078.3993,-130.0797C1063.9057,-136.0828 1046.6215,-143.1953 1031,-149.5 1018.8981,-154.3842 1005.679,-159.6324 993.7086,-164.3522"/>
<polygon fill="#191970" stroke="#191970" points="1080.0374,-133.1894 1087.9327,-126.1244 1077.3549,-126.7238 1080.0374,-133.1894"/>
</g>
<!-- Node196 -->
<g id="node8" class="node">
<title>Node196</title>
<g id="a_node8"><a xlink:href="classGridFinder.html#abcd46f31e256080b2d5d2aee03c0e258" target="_top" xlink:title="Find the middle of a line.">
<polygon fill="#ffffff" stroke="#000000" points="714,-126 714,-145 834,-145 834,-126 714,-126"/>
<text text-anchor="middle" x="774" y="-133" font-family="Helvetica,sans-Serif" font-size="10.00" fill="#000000">GridFinder::getMiddle</text>
</a>
</g>
</g>
<!-- Node189&#45;&gt;Node196 -->
<g id="edge16" class="edge">
<title>Node189&#45;&gt;Node196</title>
<path fill="none" stroke="#191970" d="M1056.7757,-119.5572C995.936,-122.9873 897.5084,-128.5366 834.2944,-132.1006"/>
<polygon fill="#191970" stroke="#191970" points="1057.156,-123.0414 1066.9431,-118.9839 1056.7619,-116.0525 1057.156,-123.0414"/>
</g>
<!-- Node199 -->
<g id="node11" class="node">
<title>Node199</title>
<g id="a_node11"><a xlink:href="classGridFinder.html#a54369e6368334eb2924ca70ee1f1d438" target="_top" xlink:title="Follow the given line to find the line perpendicular to it. Move along the line for minDistance pixel...">
<polygon fill="#ffffff" stroke="#000000" points="356,-121 356,-140 490,-140 490,-121 356,-121"/>
<text text-anchor="middle" x="423" y="-128" font-family="Helvetica,sans-Serif" font-size="10.00" fill="#000000">GridFinder::findNextLine</text>
</a>
</g>
</g>
<!-- Node189&#45;&gt;Node199 -->
<g id="edge20" class="edge">
<title>Node189&#45;&gt;Node199</title>
<path fill="none" stroke="#191970" d="M1056.7076,-114.0574C953.2882,-109.9461 720.9531,-103.3114 526,-116.5 511.9559,-117.4501 496.908,-119.1209 482.7717,-120.985"/>
<polygon fill="#191970" stroke="#191970" points="1056.7662,-117.5626 1066.9,-114.4711 1057.0502,-110.5683 1056.7662,-117.5626"/>
</g>
<!-- Node204 -->
<g id="node16" class="node">
<title>Node204</title>
<g id="a_node16"><a xlink:href="classGridFinder.html#a671392ebb7c1324bd9a4e8d321475619" target="_top" xlink:title="Print the mask as &quot;pixels&quot; to the given output stream.">
<polygon fill="#ffffff" stroke="#000000" points="907.5,-50 907.5,-69 1002.5,-69 1002.5,-50 907.5,-50"/>
<text text-anchor="middle" x="955" y="-57" font-family="Helvetica,sans-Serif" font-size="10.00" fill="#000000">GridFinder::print</text>
</a>
</g>
</g>
<!-- Node189&#45;&gt;Node204 -->
<g id="edge18" class="edge">
<title>Node189&#45;&gt;Node204</title>
<path fill="none" stroke="#191970" d="M1079.5382,-102.7946C1064.8965,-96.6045 1047.177,-89.3786 1031,-83.5 1016.8249,-78.3489 1000.9428,-73.2333 987.3771,-69.0568"/>
<polygon fill="#191970" stroke="#191970" points="1078.5549,-106.1802 1089.1263,-106.8852 1081.3018,-99.7417 1078.5549,-106.1802"/>
</g>
<!-- Node205 -->
<g id="node17" class="node">
<title>Node205</title>
<g id="a_node17"><a xlink:href="classGridFinder.html#ae84004386cbee9606f9a46872cb67be8" target="_top" xlink:title="Find the vertical range of white pixels closest to the center of the given column,...">
<polygon fill="#ffffff" stroke="#000000" points="891,-.5 891,-30.5 1019,-30.5 1019,-.5 891,-.5"/>
<text text-anchor="start" x="899" y="-18.5" font-family="Helvetica,sans-Serif" font-size="10.00" fill="#000000">GridFinder::getFirstLine</text>
<text text-anchor="middle" x="955" y="-7.5" font-family="Helvetica,sans-Serif" font-size="10.00" fill="#000000">Estimate</text>
</a>
</g>
</g>
<!-- Node189&#45;&gt;Node205 -->
<g id="edge19" class="edge">
<title>Node189&#45;&gt;Node205</title>
<path fill="none" stroke="#191970" d="M1096.5756,-98.8443C1081.7481,-81.7389 1057.1845,-56.1524 1031,-40.5 1024.6812,-36.7228 1017.7213,-33.438 1010.6565,-30.6037"/>
<polygon fill="#191970" stroke="#191970" points="1094.2711,-101.5398 1103.399,-106.9187 1099.6177,-97.0216 1094.2711,-101.5398"/>
</g>
<!-- Node191 -->
<g id="node3" class="node">
<title>Node191</title>
<g id="a_node3"><a xlink:href="classGridFinder.html#a04e1362c95151ac77477844a952af0f9" target="_top" xlink:title="Scan 360° around a given pixel, and find the angle with the most white pixels. This version is not ve...">
<polygon fill="#ffffff" stroke="#000000" points="528.5,-243 528.5,-262 666.5,-262 666.5,-243 528.5,-243"/>
<text text-anchor="middle" x="597.5" y="-250" font-family="Helvetica,sans-Serif" font-size="10.00" fill="#000000">GridFinder::findLineAngle</text>
</a>
</g>
</g>
<!-- Node190&#45;&gt;Node191 -->
<g id="edge2" class="edge">
<title>Node190&#45;&gt;Node191</title>
<path fill="none" stroke="#191970" d="M915.7658,-237.8148C894.4749,-243.8583 867.5574,-250.4768 843,-253.5 783.7764,-260.7908 715.9064,-259.8082 666.5591,-257.4208"/>
<polygon fill="#191970" stroke="#191970" points="916.8026,-241.1584 925.4262,-235.0034 914.8465,-234.4372 916.8026,-241.1584"/>
</g>
<!-- Node193 -->
<g id="node5" class="node">
<title>Node193</title>
<g id="a_node5"><a xlink:href="classGridFinder.html#af44b4862dc3f8c725e8ea3739b33c2e6" target="_top" xlink:title=" ">
<polygon fill="#ffffff" stroke="#000000" points="705,-213.5 705,-243.5 843,-243.5 843,-213.5 705,-213.5"/>
<text text-anchor="start" x="713" y="-231.5" font-family="Helvetica,sans-Serif" font-size="10.00" fill="#000000">GridFinder::findLineAngle</text>
<text text-anchor="middle" x="774" y="-220.5" font-family="Helvetica,sans-Serif" font-size="10.00" fill="#000000">Accurate</text>
</a>
</g>
</g>
<!-- Node190&#45;&gt;Node193 -->
<g id="edge4" class="edge">
<title>Node190&#45;&gt;Node193</title>
<path fill="none" stroke="#191970" d="M893.23,-226.5238C877.0881,-226.7914 859.5857,-227.0815 843.09,-227.3549"/>
<polygon fill="#191970" stroke="#191970" points="893.6762,-230.017 903.6168,-226.3517 893.5602,-223.018 893.6762,-230.017"/>
</g>
<!-- Node194 -->
<g id="node6" class="node">
<title>Node194</title>
<g id="a_node6"><a xlink:href="classGridFinder.html#afcc1eed83ee0292966c3c80883069634" target="_top" xlink:title="Similar to findLineAngle, but is more accurate, because it uses the average of the range of angles wi...">
<polygon fill="#ffffff" stroke="#000000" points="705,-164.5 705,-194.5 843,-194.5 843,-164.5 705,-164.5"/>
<text text-anchor="start" x="713" y="-182.5" font-family="Helvetica,sans-Serif" font-size="10.00" fill="#000000">GridFinder::findLineAngle</text>
<text text-anchor="middle" x="774" y="-171.5" font-family="Helvetica,sans-Serif" font-size="10.00" fill="#000000">AccurateRange</text>
</a>
</g>
</g>
<!-- Node190&#45;&gt;Node194 -->
<g id="edge5" class="edge">
<title>Node190&#45;&gt;Node194</title>
<path fill="none" stroke="#191970" d="M907.7195,-213.484C884.9293,-207.692 857.3603,-200.6855 833.1898,-194.5427"/>
<polygon fill="#191970" stroke="#191970" points="906.9427,-216.8977 917.4967,-215.9688 908.6669,-210.1134 906.9427,-216.8977"/>
</g>
<!-- Node192 -->
<g id="node4" class="node">
<title>Node192</title>
<g id="a_node4"><a xlink:href="classGridFinder.html#aaea3af418ab7124f2b25bcc124fccaca" target="_top" xlink:title="Get an estimate of the line through a given pixel. Find an estimate of the slope, then use that to de...">
<polygon fill="#ffffff" stroke="#000000" points="359,-178.5 359,-208.5 487,-208.5 487,-178.5 359,-178.5"/>
<text text-anchor="start" x="367" y="-196.5" font-family="Helvetica,sans-Serif" font-size="10.00" fill="#000000">GridFinder::getFirstLine</text>
<text text-anchor="middle" x="423" y="-185.5" font-family="Helvetica,sans-Serif" font-size="10.00" fill="#000000">Estimate</text>
</a>
</g>
</g>
<!-- Node191&#45;&gt;Node192 -->
<g id="edge3" class="edge">
<title>Node191&#45;&gt;Node192</title>
<path fill="none" stroke="#191970" d="M559.5517,-239.6693C532.4542,-230.5074 495.9124,-218.1523 467.449,-208.5286"/>
<polygon fill="#191970" stroke="#191970" points="558.481,-243.0019 569.0752,-242.8893 560.7231,-236.3707 558.481,-243.0019"/>
</g>
<!-- Node195&#45;&gt;Node196 -->
<g id="edge7" class="edge">
<title>Node195&#45;&gt;Node196</title>
<path fill="none" stroke="#191970" d="M883.4376,-162.1036C859.479,-156.2794 833.6666,-150.0046 813.1306,-145.0124"/>
<polygon fill="#191970" stroke="#191970" points="882.6725,-165.5195 893.2163,-164.4808 884.3261,-158.7176 882.6725,-165.5195"/>
</g>
<!-- Node197 -->
<g id="node9" class="node">
<title>Node197</title>
<g id="a_node9"><a xlink:href="classGridFinder.html#af830abf29ca6dc9c01197a38fe16e1e5" target="_top" xlink:title="In exceptional cases, we might want to find the middle of a line in a point that happens to lie at th...">
<polygon fill="#ffffff" stroke="#000000" points="526,-173.5 526,-203.5 669,-203.5 669,-173.5 526,-173.5"/>
<text text-anchor="start" x="534" y="-191.5" font-family="Helvetica,sans-Serif" font-size="10.00" fill="#000000">GridFinder::getMiddleWith</text>
<text text-anchor="middle" x="597.5" y="-180.5" font-family="Helvetica,sans-Serif" font-size="10.00" fill="#000000">Retries</text>
</a>
</g>
</g>
<!-- Node196&#45;&gt;Node197 -->
<g id="edge8" class="edge">
<title>Node196&#45;&gt;Node197</title>
<path fill="none" stroke="#191970" d="M730.8013,-147.9083C722.244,-150.3982 713.3324,-153.0136 705,-155.5 685.6376,-161.2777 664.36,-167.7776 645.8807,-173.4714"/>
<polygon fill="#191970" stroke="#191970" points="731.9987,-151.2054 740.6281,-145.0584 730.0489,-144.4824 731.9987,-151.2054"/>
</g>
<!-- Node198 -->
<g id="node10" class="node">
<title>Node198</title>
<g id="a_node10"><a xlink:href="classGridFinder.html#ae12ca7921b02b37417d87fc737f0134d" target="_top" xlink:title="Check if there could be a valid line going through the given point, and if so, find and return the ac...">
<polygon fill="#ffffff" stroke="#000000" points="537,-126 537,-145 658,-145 658,-126 537,-126"/>
<text text-anchor="middle" x="597.5" y="-133" font-family="Helvetica,sans-Serif" font-size="10.00" fill="#000000">GridFinder::checkLine</text>
</a>
</g>
</g>
<!-- Node196&#45;&gt;Node198 -->
<g id="edge10" class="edge">
<title>Node196&#45;&gt;Node198</title>
<path fill="none" stroke="#191970" d="M703.4814,-135.5C688.4475,-135.5 672.6975,-135.5 658.0754,-135.5"/>
<polygon fill="#191970" stroke="#191970" points="703.7524,-139.0001 713.7524,-135.5 703.7523,-132.0001 703.7524,-139.0001"/>
</g>
<!-- Node197&#45;&gt;Node192 -->
<g id="edge9" class="edge">
<title>Node197&#45;&gt;Node192</title>
<path fill="none" stroke="#191970" d="M515.5054,-190.8494C505.9971,-191.1219 496.4052,-191.3967 487.1837,-191.6609"/>
<polygon fill="#191970" stroke="#191970" points="515.8731,-194.3404 525.7688,-190.5553 515.6726,-187.3433 515.8731,-194.3404"/>
</g>
<!-- Node198&#45;&gt;Node199 -->
<g id="edge11" class="edge">
<title>Node198&#45;&gt;Node199</title>
<path fill="none" stroke="#191970" d="M526.9271,-133.4779C514.8358,-133.1314 502.3005,-132.7722 490.2976,-132.4283"/>
<polygon fill="#191970" stroke="#191970" points="526.8619,-136.9773 536.9581,-133.7653 527.0625,-129.9802 526.8619,-136.9773"/>
</g>
<!-- Node200 -->
<g id="node12" class="node">
<title>Node200</title>
<g id="a_node12"><a xlink:href="classGridFinder.html#a3edbd3ffbcfe6d373fbaf576e4dca51b" target="_top" xlink:title="Equivalent to #findNextLine(LineResult,bool,uint,uint) but also supports optional LineResults.">
<polygon fill="#ffffff" stroke="#000000" points="186,-140 186,-159 320,-159 320,-140 186,-140"/>
<text text-anchor="middle" x="253" y="-147" font-family="Helvetica,sans-Serif" font-size="10.00" fill="#000000">GridFinder::findNextLine</text>
</a>
</g>
</g>
<!-- Node199&#45;&gt;Node200 -->
<g id="edge12" class="edge">
<title>Node199&#45;&gt;Node200</title>
<path fill="none" stroke="#191970" d="M345.854,-139.1222C337.3121,-140.0769 328.6634,-141.0435 320.2572,-141.983"/>
<polygon fill="#191970" stroke="#191970" points="346.2622,-142.5985 355.8115,-138.0093 345.4846,-135.6418 346.2622,-142.5985"/>
</g>
<!-- Node201 -->
<g id="node13" class="node">
<title>Node201</title>
<g id="a_node13"><a xlink:href="classGridFinder.html#a8940ca681fac78274043cf5f1f1f5761" target="_top" xlink:title="This is the main function: it looks for a complete square of the grid, as close to the center of the ...">
<polygon fill="#ffffff" stroke="#000000" points="191,-102 191,-121 315,-121 315,-102 191,-102"/>
<text text-anchor="middle" x="253" y="-109" font-family="Helvetica,sans-Serif" font-size="10.00" fill="#000000">GridFinder::findSquare</text>
</a>
</g>
</g>
<!-- Node199&#45;&gt;Node201 -->
<g id="edge13" class="edge">
<title>Node199&#45;&gt;Node201</title>
<path fill="none" stroke="#191970" d="M345.624,-121.8521C335.3644,-120.7054 324.9554,-119.5421 315.0015,-118.4296"/>
<polygon fill="#191970" stroke="#191970" points="345.4846,-125.3582 355.8115,-122.9907 346.2622,-118.4015 345.4846,-125.3582"/>
</g>
<!-- Node202 -->
<g id="node14" class="node">
<title>Node202</title>
<g id="a_node14"><a xlink:href="classLocationFinder.html#a398bb42565e1e2a499471765f569bc40" target="_top" xlink:title=" ">
<polygon fill="#ffffff" stroke="#000000" points="0,-121 0,-140 150,-140 150,-121 0,-121"/>
<text text-anchor="middle" x="75" y="-128" font-family="Helvetica,sans-Serif" font-size="10.00" fill="#000000">LocationFinder::getLocation</text>
</a>
</g>
</g>
<!-- Node201&#45;&gt;Node202 -->
<g id="edge14" class="edge">
<title>Node201&#45;&gt;Node202</title>
<path fill="none" stroke="#191970" d="M180.754,-119.2117C170.6437,-120.2908 160.2341,-121.402 150.0729,-122.4866"/>
<polygon fill="#191970" stroke="#191970" points="181.1722,-122.687 190.7442,-118.1453 180.4292,-115.7265 181.1722,-122.687"/>
</g>
<!-- Node203 -->
<g id="node15" class="node">
<title>Node203</title>
<g id="a_node15"><a xlink:href="Grid-Finder_8module_8hpp.html#a05e720af51446c0f9319fb9455fe1767" target="_top" xlink:title=" ">
<polygon fill="#ffffff" stroke="#000000" points="18.5,-83 18.5,-102 131.5,-102 131.5,-83 18.5,-83"/>
<text text-anchor="middle" x="75" y="-90" font-family="Helvetica,sans-Serif" font-size="10.00" fill="#000000">PYBIND11_MODULE</text>
</a>
</g>
</g>
<!-- Node201&#45;&gt;Node203 -->
<g id="edge15" class="edge">
<title>Node201&#45;&gt;Node203</title>
<path fill="none" stroke="#191970" d="M180.6768,-103.7801C164.3126,-102.0334 147.1683,-100.2034 131.5649,-98.5378"/>
<polygon fill="#191970" stroke="#191970" points="180.4292,-107.2735 190.7442,-104.8547 181.1722,-100.313 180.4292,-107.2735"/>
</g>
</g>
</svg>
