<?xml version="1.0" encoding="UTF-8" standalone="no"?>
<!DOCTYPE svg PUBLIC "-//W3C//DTD SVG 1.1//EN"
 "http://www.w3.org/Graphics/SVG/1.1/DTD/svg11.dtd">
<!-- Generated by graphviz version 2.40.1 (20161225.0304)
 -->
<!-- Title: Quaternion::conjugate Pages: 1 -->
<svg width="290pt" height="66pt"
 viewBox="0.00 0.00 290.00 66.00" xmlns="http://www.w3.org/2000/svg" xmlns:xlink="http://www.w3.org/1999/xlink">
<g id="graph0" class="graph" transform="scale(1 1) rotate(0) translate(4 62)">
<title>Quaternion::conjugate</title>
<polygon fill="#ffffff" stroke="transparent" points="-4,4 -4,-62 286,-62 286,4 -4,4"/>
<!-- Node13 -->
<g id="node1" class="node">
<title>Node13</title>
<g id="a_node1"><a xlink:title=" ">
<polygon fill="#bfbfbf" stroke="#000000" points="157,-19.5 157,-38.5 282,-38.5 282,-19.5 157,-19.5"/>
<text text-anchor="middle" x="219.5" y="-26.5" font-family="Helvetica,sans-Serif" font-size="10.00" fill="#000000">Quaternion::conjugate</text>
</a>
</g>
</g>
<!-- Node14 -->
<g id="node2" class="node">
<title>Node14</title>
<g id="a_node2"><a xlink:href="PyQuaternion_8cpp.html#a2957609bcf20d996c14300f7288e3300" target="_top" xlink:title=" ">
<polygon fill="#ffffff" stroke="#000000" points="4,-38.5 4,-57.5 117,-57.5 117,-38.5 4,-38.5"/>
<text text-anchor="middle" x="60.5" y="-45.5" font-family="Helvetica,sans-Serif" font-size="10.00" fill="#000000">PYBIND11_MODULE</text>
</a>
</g>
</g>
<!-- Node13&#45;&gt;Node14 -->
<g id="edge1" class="edge">
<title>Node13&#45;&gt;Node14</title>
<path fill="none" stroke="#191970" d="M146.4894,-37.7245C136.6601,-38.8991 126.6975,-40.0896 117.2082,-41.2235"/>
<polygon fill="#191970" stroke="#191970" points="147.1449,-41.1712 156.659,-36.5093 146.3143,-34.2206 147.1449,-41.1712"/>
</g>
<!-- Node15 -->
<g id="node3" class="node">
<title>Node15</title>
<g id="a_node3"><a xlink:href="classQuaternion.html#a904c725b3d3eaab806e8515768311376" target="_top" xlink:title=" ">
<polygon fill="#ffffff" stroke="#000000" points="0,-.5 0,-19.5 121,-19.5 121,-.5 0,-.5"/>
<text text-anchor="middle" x="60.5" y="-7.5" font-family="Helvetica,sans-Serif" font-size="10.00" fill="#000000">Quaternion::operator&#45;</text>
</a>
</g>
</g>
<!-- Node13&#45;&gt;Node15 -->
<g id="edge2" class="edge">
<title>Node13&#45;&gt;Node15</title>
<path fill="none" stroke="#191970" d="M146.6756,-20.2977C138.1101,-19.2742 129.4404,-18.2382 121.0682,-17.2377"/>
<polygon fill="#191970" stroke="#191970" points="146.3143,-23.7794 156.659,-21.4907 147.1449,-16.8288 146.3143,-23.7794"/>
</g>
</g>
</svg>
