<?xml version="1.0" encoding="UTF-8" standalone="no"?>
<!DOCTYPE svg PUBLIC "-//W3C//DTD SVG 1.1//EN"
 "http://www.w3.org/Graphics/SVG/1.1/DTD/svg11.dtd">
<!-- Generated by graphviz version 2.40.1 (20161225.0304)
 -->
<!-- Title: GridFinder::move Pages: 1 -->
<svg width="1136pt" height="116pt"
 viewBox="0.00 0.00 1136.00 115.50" xmlns="http://www.w3.org/2000/svg" xmlns:xlink="http://www.w3.org/1999/xlink">
<g id="graph0" class="graph" transform="scale(1 1) rotate(0) translate(4 111.5)">
<title>GridFinder::move</title>
<polygon fill="#ffffff" stroke="transparent" points="-4,4 -4,-111.5 1132,-111.5 1132,4 -4,4"/>
<!-- Node364 -->
<g id="node1" class="node">
<title>Node364</title>
<g id="a_node1"><a xlink:title="Move a pixel in a given direction for a given distance.">
<polygon fill="#bfbfbf" stroke="#000000" points="1028,-41.5 1028,-60.5 1128,-60.5 1128,-41.5 1028,-41.5"/>
<text text-anchor="middle" x="1078" y="-48.5" font-family="Helvetica,sans-Serif" font-size="10.00" fill="#000000">GridFinder::move</text>
</a>
</g>
</g>
<!-- Node365 -->
<g id="node2" class="node">
<title>Node365</title>
<g id="a_node2"><a xlink:href="classGridFinder.html#abcd46f31e256080b2d5d2aee03c0e258" target="_top" xlink:title="Find the middle of a line.">
<polygon fill="#ffffff" stroke="#000000" points="872,-41.5 872,-60.5 992,-60.5 992,-41.5 872,-41.5"/>
<text text-anchor="middle" x="932" y="-48.5" font-family="Helvetica,sans-Serif" font-size="10.00" fill="#000000">GridFinder::getMiddle</text>
</a>
</g>
</g>
<!-- Node364&#45;&gt;Node365 -->
<g id="edge1" class="edge">
<title>Node364&#45;&gt;Node365</title>
<path fill="none" stroke="#191970" d="M1017.6351,-51C1009.2189,-51 1000.5716,-51 992.1592,-51"/>
<polygon fill="#191970" stroke="#191970" points="1017.7551,-54.5001 1027.7551,-51 1017.755,-47.5001 1017.7551,-54.5001"/>
</g>
<!-- Node366 -->
<g id="node3" class="node">
<title>Node366</title>
<g id="a_node3"><a xlink:href="classGridFinder.html#af830abf29ca6dc9c01197a38fe16e1e5" target="_top" xlink:title="In exceptional cases, we might want to find the middle of a line in a point that happens to lie at th...">
<polygon fill="#ffffff" stroke="#000000" points="693,-77 693,-107 836,-107 836,-77 693,-77"/>
<text text-anchor="start" x="701" y="-95" font-family="Helvetica,sans-Serif" font-size="10.00" fill="#000000">GridFinder::getMiddleWith</text>
<text text-anchor="middle" x="764.5" y="-84" font-family="Helvetica,sans-Serif" font-size="10.00" fill="#000000">Retries</text>
</a>
</g>
</g>
<!-- Node364&#45;&gt;Node366 -->
<g id="edge11" class="edge">
<title>Node364&#45;&gt;Node366</title>
<path fill="none" stroke="#191970" d="M1029.6434,-62.7591C1017.4157,-65.4355 1004.271,-68.0585 992,-70 940.167,-78.2011 881.1734,-83.8001 836.2507,-87.2968"/>
<polygon fill="#191970" stroke="#191970" points="1030.6684,-66.1163 1039.6598,-60.5122 1029.1362,-59.286 1030.6684,-66.1163"/>
</g>
<!-- Node369 -->
<g id="node6" class="node">
<title>Node369</title>
<g id="a_node6"><a xlink:href="classGridFinder.html#a6dec96f8c6ed97647f692fa9f9908595" target="_top" xlink:title="Follow the given line to find the line perpendicular to it. Move along the line for minDistance pixel...">
<polygon fill="#ffffff" stroke="#000000" points="523,-19.5 523,-38.5 657,-38.5 657,-19.5 523,-19.5"/>
<text text-anchor="middle" x="590" y="-26.5" font-family="Helvetica,sans-Serif" font-size="10.00" fill="#000000">GridFinder::findNextLine</text>
</a>
</g>
</g>
<!-- Node364&#45;&gt;Node369 -->
<g id="edge12" class="edge">
<title>Node364&#45;&gt;Node369</title>
<path fill="none" stroke="#191970" d="M1032.2265,-39.1248C1019.3074,-36.2553 1005.1789,-33.5668 992,-32 874.8737,-18.075 737.1966,-21.228 657.1465,-24.9792"/>
<polygon fill="#191970" stroke="#191970" points="1031.7558,-42.6081 1042.2868,-41.4469 1033.3302,-35.7874 1031.7558,-42.6081"/>
</g>
<!-- Node365&#45;&gt;Node366 -->
<g id="edge2" class="edge">
<title>Node365&#45;&gt;Node366</title>
<path fill="none" stroke="#191970" d="M882.9957,-62.9951C865.1947,-67.3523 844.8482,-72.3327 826.0978,-76.9223"/>
<polygon fill="#191970" stroke="#191970" points="884.27,-66.2866 893.1511,-60.5093 882.6057,-59.4873 884.27,-66.2866"/>
</g>
<!-- Node368 -->
<g id="node5" class="node">
<title>Node368</title>
<g id="a_node5"><a xlink:href="classGridFinder.html#ae12ca7921b02b37417d87fc737f0134d" target="_top" xlink:title="Check if there could be a valid line going through the given point, and if so, find and return the ac...">
<polygon fill="#ffffff" stroke="#000000" points="704,-38.5 704,-57.5 825,-57.5 825,-38.5 704,-38.5"/>
<text text-anchor="middle" x="764.5" y="-45.5" font-family="Helvetica,sans-Serif" font-size="10.00" fill="#000000">GridFinder::checkLine</text>
</a>
</g>
</g>
<!-- Node365&#45;&gt;Node368 -->
<g id="edge4" class="edge">
<title>Node365&#45;&gt;Node368</title>
<path fill="none" stroke="#191970" d="M861.4935,-49.7372C849.4141,-49.5209 836.9577,-49.2977 825.1638,-49.0865"/>
<polygon fill="#191970" stroke="#191970" points="861.4675,-53.2372 871.5287,-49.9169 861.593,-46.2383 861.4675,-53.2372"/>
</g>
<!-- Node367 -->
<g id="node4" class="node">
<title>Node367</title>
<g id="a_node4"><a xlink:href="classGridFinder.html#aaea3af418ab7124f2b25bcc124fccaca" target="_top" xlink:title="Get an estimate of the line through a given pixel. Find an estimate of the slope, then use that to de...">
<polygon fill="#ffffff" stroke="#000000" points="526,-77 526,-107 654,-107 654,-77 526,-77"/>
<text text-anchor="start" x="534" y="-95" font-family="Helvetica,sans-Serif" font-size="10.00" fill="#000000">GridFinder::getFirstLine</text>
<text text-anchor="middle" x="590" y="-84" font-family="Helvetica,sans-Serif" font-size="10.00" fill="#000000">Estimate</text>
</a>
</g>
</g>
<!-- Node366&#45;&gt;Node367 -->
<g id="edge3" class="edge">
<title>Node366&#45;&gt;Node367</title>
<path fill="none" stroke="#191970" d="M682.5054,-92C672.9971,-92 663.4052,-92 654.1837,-92"/>
<polygon fill="#191970" stroke="#191970" points="682.7688,-95.5001 692.7688,-92 682.7687,-88.5001 682.7688,-95.5001"/>
</g>
<!-- Node368&#45;&gt;Node369 -->
<g id="edge5" class="edge">
<title>Node368&#45;&gt;Node369</title>
<path fill="none" stroke="#191970" d="M693.9271,-40.3159C681.8358,-38.9993 669.3005,-37.6344 657.2976,-36.3275"/>
<polygon fill="#191970" stroke="#191970" points="693.638,-43.805 703.9581,-41.408 694.3957,-36.8461 693.638,-43.805"/>
</g>
<!-- Node370 -->
<g id="node7" class="node">
<title>Node370</title>
<g id="a_node7"><a xlink:href="classGridFinder.html#ad1a5448de0df9a84f989f64b55025843" target="_top" xlink:title="Equivalent to #findNextLine(LineResult,bool,uint,uint) but also supports optional LineResults.">
<polygon fill="#ffffff" stroke="#000000" points="353,-38.5 353,-57.5 487,-57.5 487,-38.5 353,-38.5"/>
<text text-anchor="middle" x="420" y="-45.5" font-family="Helvetica,sans-Serif" font-size="10.00" fill="#000000">GridFinder::findNextLine</text>
</a>
</g>
</g>
<!-- Node369&#45;&gt;Node370 -->
<g id="edge6" class="edge">
<title>Node369&#45;&gt;Node370</title>
<path fill="none" stroke="#191970" d="M512.854,-37.6222C504.3121,-38.5769 495.6634,-39.5435 487.2572,-40.483"/>
<polygon fill="#191970" stroke="#191970" points="513.2622,-41.0985 522.8115,-36.5093 512.4846,-34.1418 513.2622,-41.0985"/>
</g>
<!-- Node371 -->
<g id="node8" class="node">
<title>Node371</title>
<g id="a_node8"><a xlink:href="classGridFinder.html#a701c0c1e70d01bb8773a89a29f6673a0" target="_top" xlink:title="This is the main function: it looks for a complete square of the grid, as close to the center of the ...">
<polygon fill="#ffffff" stroke="#000000" points="358,-.5 358,-19.5 482,-19.5 482,-.5 358,-.5"/>
<text text-anchor="middle" x="420" y="-7.5" font-family="Helvetica,sans-Serif" font-size="10.00" fill="#000000">GridFinder::findSquare</text>
</a>
</g>
</g>
<!-- Node369&#45;&gt;Node371 -->
<g id="edge7" class="edge">
<title>Node369&#45;&gt;Node371</title>
<path fill="none" stroke="#191970" d="M512.624,-20.3521C502.3644,-19.2054 491.9554,-18.0421 482.0015,-16.9296"/>
<polygon fill="#191970" stroke="#191970" points="512.4846,-23.8582 522.8115,-21.4907 513.2622,-16.9015 512.4846,-23.8582"/>
</g>
<!-- Node372 -->
<g id="node9" class="node">
<title>Node372</title>
<g id="a_node9"><a xlink:href="classLocationFinder.html#af56756d038d762e04e0c91bac9fc2522" target="_top" xlink:title="Read a new frame, mask it, run GridFinder, and get the position of the drone. The position is the pos...">
<polygon fill="#ffffff" stroke="#000000" points="149,-19.5 149,-38.5 317,-38.5 317,-19.5 149,-19.5"/>
<text text-anchor="middle" x="233" y="-26.5" font-family="Helvetica,sans-Serif" font-size="10.00" fill="#000000">LocationFinder::updateLocation</text>
</a>
</g>
</g>
<!-- Node371&#45;&gt;Node372 -->
<g id="edge8" class="edge">
<title>Node371&#45;&gt;Node372</title>
<path fill="none" stroke="#191970" d="M348.0281,-17.3127C337.9278,-18.3389 327.4731,-19.4011 317.1709,-20.4479"/>
<polygon fill="#191970" stroke="#191970" points="348.3965,-20.7933 357.9915,-16.3003 347.6888,-13.8292 348.3965,-20.7933"/>
</g>
<!-- Node373 -->
<g id="node10" class="node">
<title>Node373</title>
<g id="a_node10"><a xlink:href="Grid-Finder_8module_8hpp.html#a05e720af51446c0f9319fb9455fe1767" target="_top" xlink:title=" ">
<polygon fill="#ffffff" stroke="#000000" points="0,-.5 0,-19.5 113,-19.5 113,-.5 0,-.5"/>
<text text-anchor="middle" x="56.5" y="-7.5" font-family="Helvetica,sans-Serif" font-size="10.00" fill="#000000">PYBIND11_MODULE</text>
</a>
</g>
</g>
<!-- Node371&#45;&gt;Node373 -->
<g id="edge10" class="edge">
<title>Node371&#45;&gt;Node373</title>
<path fill="none" stroke="#191970" d="M347.5872,-10C278.6832,-10 176.4113,-10 113.2349,-10"/>
<polygon fill="#191970" stroke="#191970" points="347.9252,-13.5001 357.9251,-10 347.9251,-6.5001 347.9252,-13.5001"/>
</g>
<!-- Node372&#45;&gt;Node373 -->
<g id="edge9" class="edge">
<title>Node372&#45;&gt;Node373</title>
<path fill="none" stroke="#191970" d="M138.9025,-18.8705C130.0733,-17.9201 121.3225,-16.9781 113.0056,-16.0828"/>
<polygon fill="#191970" stroke="#191970" points="138.5682,-22.3547 148.8854,-19.9452 139.3175,-15.3949 138.5682,-22.3547"/>
</g>
</g>
</svg>
