<?xml version="1.0" encoding="UTF-8" standalone="no"?>
<!DOCTYPE svg PUBLIC "-//W3C//DTD SVG 1.1//EN"
 "http://www.w3.org/Graphics/SVG/1.1/DTD/svg11.dtd">
<!-- Generated by graphviz version 2.40.1 (20161225.0304)
 -->
<!-- Title: GridFinder::findLineAngle Pages: 1 -->
<svg width="805pt" height="248pt"
 viewBox="0.00 0.00 805.00 247.50" xmlns="http://www.w3.org/2000/svg" xmlns:xlink="http://www.w3.org/1999/xlink">
<g id="graph0" class="graph" transform="scale(1 1) rotate(0) translate(4 243.5)">
<title>GridFinder::findLineAngle</title>
<polygon fill="#ffffff" stroke="transparent" points="-4,4 -4,-243.5 801,-243.5 801,4 -4,4"/>
<!-- Node60 -->
<g id="node1" class="node">
<title>Node60</title>
<g id="a_node1"><a xlink:title="Scan 360° around a given pixel, and find the angle with the most white pixels. This version is not ve...">
<polygon fill="#bfbfbf" stroke="#000000" points="0,-144 0,-163 138,-163 138,-144 0,-144"/>
<text text-anchor="middle" x="69" y="-151" font-family="Helvetica,sans-Serif" font-size="10.00" fill="#000000">GridFinder::findLineAngle</text>
</a>
</g>
</g>
<!-- Node61 -->
<g id="node2" class="node">
<title>Node61</title>
<g id="a_node2"><a xlink:href="classAngle.html#a84ce9a0e2a186ada6997077fd96d6e4c" target="_top" xlink:title=" ">
<polygon fill="#ffffff" stroke="#000000" points="174,-163 174,-182 314,-182 314,-163 174,-163"/>
<text text-anchor="middle" x="244" y="-170" font-family="Helvetica,sans-Serif" font-size="10.00" fill="#000000">Angle&lt; 360 &gt;::resolution</text>
</a>
</g>
</g>
<!-- Node60&#45;&gt;Node61 -->
<g id="edge1" class="edge">
<title>Node60&#45;&gt;Node61</title>
<path fill="none" stroke="#191970" d="M138.1646,-161.0093C146.6108,-161.9263 155.2956,-162.8692 163.8848,-163.8018"/>
<polygon fill="#191970" stroke="#191970" points="163.5845,-167.2897 173.9039,-164.8896 164.3401,-160.3306 163.5845,-167.2897"/>
</g>
<!-- Node62 -->
<g id="node3" class="node">
<title>Node62</title>
<g id="a_node3"><a xlink:href="classGridFinder.html#ace2c24a54244e7e92618d3fe7ec62fdc" target="_top" xlink:title="Starting from the given pixel, move in the direction of the given angle, and count the number of whit...">
<polygon fill="#ffffff" stroke="#000000" points="193,-125 193,-144 295,-144 295,-125 193,-125"/>
<text text-anchor="middle" x="244" y="-132" font-family="Helvetica,sans-Serif" font-size="10.00" fill="#000000">GridFinder::hough</text>
</a>
</g>
</g>
<!-- Node60&#45;&gt;Node62 -->
<g id="edge2" class="edge">
<title>Node60&#45;&gt;Node62</title>
<path fill="none" stroke="#191970" d="M138.1646,-145.9907C152.8484,-144.3965 168.2534,-142.7239 182.6235,-141.1637"/>
<polygon fill="#191970" stroke="#191970" points="183.3154,-144.6093 192.8792,-140.0503 182.5598,-137.6502 183.3154,-144.6093"/>
</g>
<!-- Node63 -->
<g id="node4" class="node">
<title>Node63</title>
<g id="a_node4"><a xlink:href="classGridFinder.html#aadfce89f171d55f954a19d700b43ff5c" target="_top" xlink:title="Get the width of the frame.">
<polygon fill="#ffffff" stroke="#000000" points="375.5,-220 375.5,-239 474.5,-239 474.5,-220 375.5,-220"/>
<text text-anchor="middle" x="425" y="-227" font-family="Helvetica,sans-Serif" font-size="10.00" fill="#000000">GridFinder::width</text>
</a>
</g>
</g>
<!-- Node62&#45;&gt;Node63 -->
<g id="edge3" class="edge">
<title>Node62&#45;&gt;Node63</title>
<path fill="none" stroke="#191970" d="M295.031,-143.4979C301.788,-146.0438 308.3281,-149.3099 314,-153.5 338.0999,-171.3038 325.7503,-192.9009 350,-210.5 354.8053,-213.9874 360.1872,-216.837 365.8034,-219.165"/>
<polygon fill="#191970" stroke="#191970" points="364.8212,-222.5309 375.4157,-222.611 367.1835,-215.9416 364.8212,-222.5309"/>
</g>
<!-- Node65 -->
<g id="node6" class="node">
<title>Node65</title>
<g id="a_node6"><a xlink:href="classGridFinder.html#affd9ae441c8d86b1856a9ef31190e9ab" target="_top" xlink:title="Get the height of the frame.">
<polygon fill="#ffffff" stroke="#000000" points="373.5,-182 373.5,-201 476.5,-201 476.5,-182 373.5,-182"/>
<text text-anchor="middle" x="425" y="-189" font-family="Helvetica,sans-Serif" font-size="10.00" fill="#000000">GridFinder::height</text>
</a>
</g>
</g>
<!-- Node62&#45;&gt;Node65 -->
<g id="edge5" class="edge">
<title>Node62&#45;&gt;Node65</title>
<path fill="none" stroke="#191970" d="M281.9997,-144.0289C292.4382,-146.8591 303.7133,-150.1143 314,-153.5 330.3067,-158.8671 333.8172,-161.7701 350,-167.5 360.9522,-171.3779 372.8981,-175.3259 383.971,-178.8703"/>
<polygon fill="#191970" stroke="#191970" points="383.2508,-182.3135 393.8409,-181.9982 385.3656,-175.6406 383.2508,-182.3135"/>
</g>
<!-- Node67 -->
<g id="node8" class="node">
<title>Node67</title>
<g id="a_node8"><a xlink:href="classBresenhamLine.html#aba0822ee20811d67cd9539ccbe1cd346" target="_top" xlink:title=" ">
<polygon fill="#ffffff" stroke="#000000" points="536,-125 536,-144 675,-144 675,-125 536,-125"/>
<text text-anchor="middle" x="605.5" y="-132" font-family="Helvetica,sans-Serif" font-size="10.00" fill="#000000">BresenhamLine::hasNext</text>
</a>
</g>
</g>
<!-- Node62&#45;&gt;Node67 -->
<g id="edge7" class="edge">
<title>Node62&#45;&gt;Node67</title>
<path fill="none" stroke="#191970" d="M295.0274,-134.5C355.0371,-134.5 455.3671,-134.5 525.6906,-134.5"/>
<polygon fill="#191970" stroke="#191970" points="525.8402,-138.0001 535.8401,-134.5 525.8401,-131.0001 525.8402,-138.0001"/>
</g>
<!-- Node69 -->
<g id="node10" class="node">
<title>Node69</title>
<g id="a_node10"><a xlink:href="classBresenhamLine.html#a10d505e30945f42a5cd0270c315b104f" target="_top" xlink:title=" ">
<polygon fill="#ffffff" stroke="#000000" points="365,-106 365,-125 485,-125 485,-106 365,-106"/>
<text text-anchor="middle" x="425" y="-113" font-family="Helvetica,sans-Serif" font-size="10.00" fill="#000000">BresenhamLine::next</text>
</a>
</g>
</g>
<!-- Node62&#45;&gt;Node69 -->
<g id="edge9" class="edge">
<title>Node62&#45;&gt;Node69</title>
<path fill="none" stroke="#191970" d="M295.3832,-129.1062C313.8064,-127.1723 334.9076,-124.9572 354.6591,-122.8838"/>
<polygon fill="#191970" stroke="#191970" points="355.2636,-126.3397 364.8436,-121.8148 354.5328,-119.378 355.2636,-126.3397"/>
</g>
<!-- Node70 -->
<g id="node11" class="node">
<title>Node70</title>
<g id="a_node11"><a xlink:href="classGridFinder.html#afbed8951f70923626b73abdbe05236da" target="_top" xlink:title="Get the value of the given pixel.">
<polygon fill="#ffffff" stroke="#000000" points="381,-50 381,-69 469,-69 469,-50 381,-50"/>
<text text-anchor="middle" x="425" y="-57" font-family="Helvetica,sans-Serif" font-size="10.00" fill="#000000">GridFinder::get</text>
</a>
</g>
</g>
<!-- Node62&#45;&gt;Node70 -->
<g id="edge11" class="edge">
<title>Node62&#45;&gt;Node70</title>
<path fill="none" stroke="#191970" d="M267.292,-124.8486C299.0597,-111.6852 356.1385,-88.0338 392.2168,-73.0842"/>
<polygon fill="#191970" stroke="#191970" points="393.8989,-76.1758 401.7974,-69.1144 391.2192,-69.709 393.8989,-76.1758"/>
</g>
<!-- Node71 -->
<g id="node12" class="node">
<title>Node71</title>
<g id="a_node12"><a xlink:href="classBresenhamLine.html#ad93a4adf0535a9b4e649bce5ade1bc5e" target="_top" xlink:title=" ">
<polygon fill="#ffffff" stroke="#000000" points="350,-.5 350,-30.5 500,-30.5 500,-.5 350,-.5"/>
<text text-anchor="start" x="358" y="-18.5" font-family="Helvetica,sans-Serif" font-size="10.00" fill="#000000">BresenhamLine::getCurrent</text>
<text text-anchor="middle" x="425" y="-7.5" font-family="Helvetica,sans-Serif" font-size="10.00" fill="#000000">Length</text>
</a>
</g>
</g>
<!-- Node62&#45;&gt;Node71 -->
<g id="edge13" class="edge">
<title>Node62&#45;&gt;Node71</title>
<path fill="none" stroke="#191970" d="M252.3691,-124.8283C269.11,-106.039 308.676,-64.3591 350,-40.5 353.6773,-38.3768 357.5612,-36.4017 361.5479,-34.5699"/>
<polygon fill="#191970" stroke="#191970" points="363.1569,-37.6891 370.9884,-30.5534 360.4164,-31.2478 363.1569,-37.6891"/>
</g>
<!-- Node64 -->
<g id="node5" class="node">
<title>Node64</title>
<g id="a_node5"><a xlink:href="classMask.html#a4124a2daa1f7501d4fd80775b6217679" target="_top" xlink:title="Get the width of the mask in pixels.">
<polygon fill="#ffffff" stroke="#000000" points="568,-220 568,-239 643,-239 643,-220 568,-220"/>
<text text-anchor="middle" x="605.5" y="-227" font-family="Helvetica,sans-Serif" font-size="10.00" fill="#000000">Mask::width</text>
</a>
</g>
</g>
<!-- Node63&#45;&gt;Node64 -->
<g id="edge4" class="edge">
<title>Node63&#45;&gt;Node64</title>
<path fill="none" stroke="#191970" d="M474.8002,-229.5C500.6634,-229.5 532.1146,-229.5 557.6829,-229.5"/>
<polygon fill="#191970" stroke="#191970" points="557.8862,-233.0001 567.8861,-229.5 557.8861,-226.0001 557.8862,-233.0001"/>
</g>
<!-- Node66 -->
<g id="node7" class="node">
<title>Node66</title>
<g id="a_node7"><a xlink:href="classMask.html#af845b7d3220b707c8b4c48bf87d045bb" target="_top" xlink:title="Get the height of the mask in pixels.">
<polygon fill="#ffffff" stroke="#000000" points="566,-182 566,-201 645,-201 645,-182 566,-182"/>
<text text-anchor="middle" x="605.5" y="-189" font-family="Helvetica,sans-Serif" font-size="10.00" fill="#000000">Mask::height</text>
</a>
</g>
</g>
<!-- Node65&#45;&gt;Node66 -->
<g id="edge6" class="edge">
<title>Node65&#45;&gt;Node66</title>
<path fill="none" stroke="#191970" d="M476.7241,-191.5C501.5176,-191.5 531.0868,-191.5 555.6343,-191.5"/>
<polygon fill="#191970" stroke="#191970" points="555.8188,-195.0001 565.8187,-191.5 555.8187,-188.0001 555.8188,-195.0001"/>
</g>
<!-- Node68 -->
<g id="node9" class="node">
<title>Node68</title>
<g id="a_node9"><a xlink:href="structPixel.html#a816d743559e2ac5b35c9c79ac517ad0a" target="_top" xlink:title=" ">
<polygon fill="#ffffff" stroke="#000000" points="711,-125 711,-144 797,-144 797,-125 711,-125"/>
<text text-anchor="middle" x="754" y="-132" font-family="Helvetica,sans-Serif" font-size="10.00" fill="#000000">Pixel::inRange</text>
</a>
</g>
</g>
<!-- Node67&#45;&gt;Node68 -->
<g id="edge8" class="edge">
<title>Node67&#45;&gt;Node68</title>
<path fill="none" stroke="#191970" d="M675.4016,-134.5C683.8647,-134.5 692.4033,-134.5 700.5758,-134.5"/>
<polygon fill="#191970" stroke="#191970" points="700.6984,-138.0001 710.6984,-134.5 700.6984,-131.0001 700.6984,-138.0001"/>
</g>
<!-- Node69&#45;&gt;Node67 -->
<g id="edge10" class="edge">
<title>Node69&#45;&gt;Node67</title>
<path fill="none" stroke="#191970" d="M485.1039,-121.8267C498.0978,-123.1945 512.0336,-124.6614 525.6494,-126.0947"/>
<polygon fill="#191970" stroke="#191970" points="525.6667,-129.6158 535.9782,-127.1819 526.3996,-122.6542 525.6667,-129.6158"/>
</g>
<!-- Node70&#45;&gt;Node70 -->
<g id="edge12" class="edge">
<title>Node70&#45;&gt;Node70</title>
<path fill="none" stroke="#191970" d="M397.2568,-69.2571C383.7601,-78.0653 393.0078,-87.5 425,-87.5 446.9946,-87.5 458.239,-83.0406 458.733,-77.3913"/>
<polygon fill="#191970" stroke="#191970" points="461.4911,-75.2341 452.7432,-69.2571 455.8544,-79.3848 461.4911,-75.2341"/>
</g>
</g>
</svg>
