<?xml version="1.0" encoding="UTF-8" standalone="no"?>
<!DOCTYPE svg PUBLIC "-//W3C//DTD SVG 1.1//EN"
 "http://www.w3.org/Graphics/SVG/1.1/DTD/svg11.dtd">
<!-- Generated by graphviz version 2.40.1 (20161225.0304)
 -->
<!-- Title: GridFinder::findSquare Pages: 1 -->
<svg width="1332pt" height="671pt"
 viewBox="0.00 0.00 1332.00 670.50" xmlns="http://www.w3.org/2000/svg" xmlns:xlink="http://www.w3.org/1999/xlink">
<g id="graph0" class="graph" transform="scale(1 1) rotate(0) translate(4 666.5)">
<title>GridFinder::findSquare</title>
<polygon fill="#ffffff" stroke="transparent" points="-4,4 -4,-666.5 1328,-666.5 1328,4 -4,4"/>
<!-- Node150 -->
<g id="node1" class="node">
<title>Node150</title>
<g id="a_node1"><a xlink:title="This is the main function: it looks for a complete square of the grid, as close to the center of the ...">
<polygon fill="#bfbfbf" stroke="#000000" points="0,-354.5 0,-373.5 124,-373.5 124,-354.5 0,-354.5"/>
<text text-anchor="middle" x="62" y="-361.5" font-family="Helvetica,sans-Serif" font-size="10.00" fill="#000000">GridFinder::findSquare</text>
</a>
</g>
</g>
<!-- Node151 -->
<g id="node2" class="node">
<title>Node151</title>
<g id="a_node2"><a xlink:href="Square_8hpp.html#ace3999c20c4c886c00503d56c69ae204" target="_top" xlink:title=" ">
<polygon fill="#ffffff" stroke="#000000" points="212.5,-620.5 212.5,-639.5 241.5,-639.5 241.5,-620.5 212.5,-620.5"/>
<text text-anchor="middle" x="227" y="-627.5" font-family="Helvetica,sans-Serif" font-size="10.00" fill="#000000">sq</text>
</a>
</g>
</g>
<!-- Node150&#45;&gt;Node151 -->
<g id="edge1" class="edge">
<title>Node150&#45;&gt;Node151</title>
<path fill="none" stroke="#191970" d="M63.1249,-373.89C67.772,-410.1956 88.7161,-537.567 160,-606 171.5064,-617.0462 188.4456,-623.0548 202.4123,-626.2975"/>
<polygon fill="#191970" stroke="#191970" points="201.884,-629.7608 212.3742,-628.2757 203.2474,-622.8949 201.884,-629.7608"/>
</g>
<!-- Node152 -->
<g id="node3" class="node">
<title>Node152</title>
<g id="a_node3"><a xlink:href="classGridFinder.html#a7c330ed1431434a4a3726c341161bf39" target="_top" xlink:title="Get the first two lines. These are the two half lines that make up the line closest to the center of ...">
<polygon fill="#ffffff" stroke="#000000" points="330,-583 330,-613 477,-613 477,-583 330,-583"/>
<text text-anchor="start" x="338" y="-601" font-family="Helvetica,sans-Serif" font-size="10.00" fill="#000000">GridFinder::getFirstTwoHalf</text>
<text text-anchor="middle" x="403.5" y="-590" font-family="Helvetica,sans-Serif" font-size="10.00" fill="#000000">Lines</text>
</a>
</g>
</g>
<!-- Node150&#45;&gt;Node152 -->
<g id="edge2" class="edge">
<title>Node150&#45;&gt;Node152</title>
<path fill="none" stroke="#191970" d="M63.381,-373.7593C68.6898,-407.2997 91.0636,-518.4966 160,-568 205.6384,-600.773 268.8965,-607.7368 319.4984,-606.7877"/>
<polygon fill="#191970" stroke="#191970" points="319.8743,-610.2782 329.7667,-606.4847 319.6678,-603.2813 319.8743,-610.2782"/>
</g>
<!-- Node159 -->
<g id="node10" class="node">
<title>Node159</title>
<g id="a_node10"><a xlink:href="classLine.html#ade63ea812bc1673307538a83b82da577" target="_top" xlink:title=" ">
<polygon fill="#ffffff" stroke="#000000" points="179.5,-38.5 179.5,-57.5 274.5,-57.5 274.5,-38.5 179.5,-38.5"/>
<text text-anchor="middle" x="227" y="-45.5" font-family="Helvetica,sans-Serif" font-size="10.00" fill="#000000">Line::leftOfPoint</text>
</a>
</g>
</g>
<!-- Node150&#45;&gt;Node159 -->
<g id="edge9" class="edge">
<title>Node150&#45;&gt;Node159</title>
<path fill="none" stroke="#191970" d="M62.3298,-354.4028C64.2317,-314.1087 76.9094,-156.7833 160,-72 163.8917,-68.029 168.4855,-64.7125 173.4143,-61.943"/>
<polygon fill="#191970" stroke="#191970" points="175.0833,-65.0239 182.5685,-57.5257 172.0411,-58.7195 175.0833,-65.0239"/>
</g>
<!-- Node160 -->
<g id="node11" class="node">
<title>Node160</title>
<g id="a_node11"><a xlink:href="classGridFinder.html#ace2a9cb90cc19a295d0fbe934a79b7e0" target="_top" xlink:title="Get the center pixel of the frame.">
<polygon fill="#ffffff" stroke="#000000" points="713.5,-506.5 713.5,-525.5 816.5,-525.5 816.5,-506.5 713.5,-506.5"/>
<text text-anchor="middle" x="765" y="-513.5" font-family="Helvetica,sans-Serif" font-size="10.00" fill="#000000">GridFinder::center</text>
</a>
</g>
</g>
<!-- Node150&#45;&gt;Node160 -->
<g id="edge10" class="edge">
<title>Node150&#45;&gt;Node160</title>
<path fill="none" stroke="#191970" d="M74.205,-373.5375C110.602,-401.3853 222.5429,-482.7686 330,-517 466.9951,-560.641 509.7289,-547.0663 653,-535 671.4858,-533.4431 691.5077,-530.4652 709.4413,-527.3208"/>
<polygon fill="#191970" stroke="#191970" points="710.2298,-530.735 719.4479,-525.5123 708.9849,-523.8466 710.2298,-530.735"/>
</g>
<!-- Node163 -->
<g id="node14" class="node">
<title>Node163</title>
<g id="a_node14"><a xlink:href="classGridFinder.html#a54369e6368334eb2924ca70ee1f1d438" target="_top" xlink:title="Follow the given line to find the line perpendicular to it. Move along the line for minDistance pixel...">
<polygon fill="#ffffff" stroke="#000000" points="160,-354.5 160,-373.5 294,-373.5 294,-354.5 160,-354.5"/>
<text text-anchor="middle" x="227" y="-361.5" font-family="Helvetica,sans-Serif" font-size="10.00" fill="#000000">GridFinder::findNextLine</text>
</a>
</g>
</g>
<!-- Node150&#45;&gt;Node163 -->
<g id="edge14" class="edge">
<title>Node150&#45;&gt;Node163</title>
<path fill="none" stroke="#191970" d="M124.3794,-364C132.6192,-364 141.1442,-364 149.5975,-364"/>
<polygon fill="#191970" stroke="#191970" points="149.8492,-367.5001 159.8491,-364 149.8491,-360.5001 149.8492,-367.5001"/>
</g>
<!-- Node177 -->
<g id="node28" class="node">
<title>Node177</title>
<g id="a_node28"><a xlink:href="Array_8hpp.html#a54bae1a9c86ad6bc491b4f10495a759f" target="_top" xlink:title=" ">
<polygon fill="#ffffff" stroke="#000000" points="748,-76.5 748,-95.5 782,-95.5 782,-76.5 748,-76.5"/>
<text text-anchor="middle" x="765" y="-83.5" font-family="Helvetica,sans-Serif" font-size="10.00" fill="#000000">abs</text>
</a>
</g>
</g>
<!-- Node150&#45;&gt;Node177 -->
<g id="edge50" class="edge">
<title>Node150&#45;&gt;Node177</title>
<path fill="none" stroke="#191970" d="M68.1852,-354.4656C94.2198,-315.2968 199.5989,-166.1888 330,-110 472.7478,-48.4911 666.6343,-70.2696 737.5661,-81.2538"/>
<polygon fill="#191970" stroke="#191970" points="737.4392,-84.7783 747.8679,-82.9097 738.5501,-77.867 737.4392,-84.7783"/>
</g>
<!-- Node178 -->
<g id="node29" class="node">
<title>Node178</title>
<g id="a_node29"><a xlink:href="classGridFinder.html#ac7202be6727634054a169022b5ce3e01" target="_top" xlink:title="Get the point of intersection of two lines.">
<polygon fill="#ffffff" stroke="#000000" points="169.5,-.5 169.5,-19.5 284.5,-19.5 284.5,-.5 169.5,-.5"/>
<text text-anchor="middle" x="227" y="-7.5" font-family="Helvetica,sans-Serif" font-size="10.00" fill="#000000">GridFinder::intersect</text>
</a>
</g>
</g>
<!-- Node150&#45;&gt;Node178 -->
<g id="edge47" class="edge">
<title>Node150&#45;&gt;Node178</title>
<path fill="none" stroke="#191970" d="M63.5536,-354.2733C71.7086,-304.3695 111.0585,-77.5385 160,-29 161.4487,-27.5633 162.9975,-26.2334 164.6269,-25.0025"/>
<polygon fill="#191970" stroke="#191970" points="166.6695,-27.8554 173.3559,-19.637 163.0038,-21.8919 166.6695,-27.8554"/>
</g>
<!-- Node153 -->
<g id="node4" class="node">
<title>Node153</title>
<g id="a_node4"><a xlink:href="classGridFinder.html#afa715db70f6b6d2a864bc0674fb5abb6" target="_top" xlink:title="Get an estimate of the first line. Searches in multiple columns, starting from the center,...">
<polygon fill="#ffffff" stroke="#000000" points="519,-583 519,-613 647,-613 647,-583 519,-583"/>
<text text-anchor="start" x="527" y="-601" font-family="Helvetica,sans-Serif" font-size="10.00" fill="#000000">GridFinder::getFirstLine</text>
<text text-anchor="middle" x="583" y="-590" font-family="Helvetica,sans-Serif" font-size="10.00" fill="#000000">Estimate</text>
</a>
</g>
</g>
<!-- Node152&#45;&gt;Node153 -->
<g id="edge3" class="edge">
<title>Node152&#45;&gt;Node153</title>
<path fill="none" stroke="#191970" d="M477.0274,-598C487.4113,-598 498.0948,-598 508.4968,-598"/>
<polygon fill="#191970" stroke="#191970" points="508.7836,-601.5001 518.7835,-598 508.7835,-594.5001 508.7836,-601.5001"/>
</g>
<!-- Node158 -->
<g id="node9" class="node">
<title>Node158</title>
<g id="a_node9"><a xlink:href="classAngle.html#a84ce9a0e2a186ada6997077fd96d6e4c" target="_top" xlink:title=" ">
<polygon fill="#ffffff" stroke="#000000" points="513,-506.5 513,-525.5 653,-525.5 653,-506.5 513,-506.5"/>
<text text-anchor="middle" x="583" y="-513.5" font-family="Helvetica,sans-Serif" font-size="10.00" fill="#000000">Angle&lt; 360 &gt;::resolution</text>
</a>
</g>
</g>
<!-- Node152&#45;&gt;Node158 -->
<g id="edge8" class="edge">
<title>Node152&#45;&gt;Node158</title>
<path fill="none" stroke="#191970" d="M436.4231,-582.9599C469.6267,-567.7917 520.4582,-544.5706 552.6956,-529.8438"/>
<polygon fill="#191970" stroke="#191970" points="554.4218,-532.9032 562.0633,-525.5644 551.5131,-526.5361 554.4218,-532.9032"/>
</g>
<!-- Node154 -->
<g id="node5" class="node">
<title>Node154</title>
<g id="a_node5"><a xlink:href="classGridFinder.html#aadfce89f171d55f954a19d700b43ff5c" target="_top" xlink:title="Get the width of the frame.">
<polygon fill="#ffffff" stroke="#000000" points="902.5,-468.5 902.5,-487.5 1001.5,-487.5 1001.5,-468.5 902.5,-468.5"/>
<text text-anchor="middle" x="952" y="-475.5" font-family="Helvetica,sans-Serif" font-size="10.00" fill="#000000">GridFinder::width</text>
</a>
</g>
</g>
<!-- Node153&#45;&gt;Node154 -->
<g id="edge4" class="edge">
<title>Node153&#45;&gt;Node154</title>
<path fill="none" stroke="#191970" d="M647.0675,-583.1837C717.4143,-566.7838 822.8554,-541.7666 841,-535 872.0808,-523.4092 905.6932,-505.2911 927.6887,-492.6011"/>
<polygon fill="#191970" stroke="#191970" points="929.4966,-495.5985 936.3629,-487.5297 925.9635,-489.5555 929.4966,-495.5985"/>
</g>
<!-- Node156 -->
<g id="node7" class="node">
<title>Node156</title>
<g id="a_node7"><a xlink:href="classCenterPointOutLineIterator.html#a6f4fda8865e7d1def0a8614622f0f6ef" target="_top" xlink:title=" ">
<polygon fill="#ffffff" stroke="#000000" points="691.5,-632 691.5,-662 838.5,-662 838.5,-632 691.5,-632"/>
<text text-anchor="start" x="699.5" y="-650" font-family="Helvetica,sans-Serif" font-size="10.00" fill="#000000">CenterPointOutLineIterator</text>
<text text-anchor="middle" x="765" y="-639" font-family="Helvetica,sans-Serif" font-size="10.00" fill="#000000">::hasNext</text>
</a>
</g>
</g>
<!-- Node153&#45;&gt;Node156 -->
<g id="edge6" class="edge">
<title>Node153&#45;&gt;Node156</title>
<path fill="none" stroke="#191970" d="M639.0911,-613.1014C658.1225,-618.2253 679.555,-623.9956 699.2691,-629.3032"/>
<polygon fill="#191970" stroke="#191970" points="698.5281,-632.7283 709.0941,-631.9484 700.3479,-625.969 698.5281,-632.7283"/>
</g>
<!-- Node157 -->
<g id="node8" class="node">
<title>Node157</title>
<g id="a_node8"><a xlink:href="classCenterPointOutLineIterator.html#a89580e1393d0dfc3ff12c7a5af2a4374" target="_top" xlink:title=" ">
<polygon fill="#ffffff" stroke="#000000" points="691.5,-583 691.5,-613 838.5,-613 838.5,-583 691.5,-583"/>
<text text-anchor="start" x="699.5" y="-601" font-family="Helvetica,sans-Serif" font-size="10.00" fill="#000000">CenterPointOutLineIterator</text>
<text text-anchor="middle" x="765" y="-590" font-family="Helvetica,sans-Serif" font-size="10.00" fill="#000000">::next</text>
</a>
</g>
</g>
<!-- Node153&#45;&gt;Node157 -->
<g id="edge7" class="edge">
<title>Node153&#45;&gt;Node157</title>
<path fill="none" stroke="#191970" d="M647.1664,-598C658.2481,-598 669.9128,-598 681.4183,-598"/>
<polygon fill="#191970" stroke="#191970" points="681.4696,-601.5001 691.4696,-598 681.4695,-594.5001 681.4696,-601.5001"/>
</g>
<!-- Node155 -->
<g id="node6" class="node">
<title>Node155</title>
<g id="a_node6"><a xlink:href="classMask.html#a4124a2daa1f7501d4fd80775b6217679" target="_top" xlink:title="Get the width of the mask in pixels.">
<polygon fill="#ffffff" stroke="#000000" points="1095,-468.5 1095,-487.5 1170,-487.5 1170,-468.5 1095,-468.5"/>
<text text-anchor="middle" x="1132.5" y="-475.5" font-family="Helvetica,sans-Serif" font-size="10.00" fill="#000000">Mask::width</text>
</a>
</g>
</g>
<!-- Node154&#45;&gt;Node155 -->
<g id="edge5" class="edge">
<title>Node154&#45;&gt;Node155</title>
<path fill="none" stroke="#191970" d="M1001.8002,-478C1027.6634,-478 1059.1146,-478 1084.6829,-478"/>
<polygon fill="#191970" stroke="#191970" points="1084.8862,-481.5001 1094.8861,-478 1084.8861,-474.5001 1084.8862,-481.5001"/>
</g>
<!-- Node160&#45;&gt;Node154 -->
<g id="edge11" class="edge">
<title>Node160&#45;&gt;Node154</title>
<path fill="none" stroke="#191970" d="M812.188,-506.411C837.4205,-501.2835 868.673,-494.9328 895.2268,-489.5368"/>
<polygon fill="#191970" stroke="#191970" points="896.0486,-492.9414 905.1513,-487.5201 894.6546,-486.0816 896.0486,-492.9414"/>
</g>
<!-- Node161 -->
<g id="node12" class="node">
<title>Node161</title>
<g id="a_node12"><a xlink:href="classGridFinder.html#affd9ae441c8d86b1856a9ef31190e9ab" target="_top" xlink:title="Get the height of the frame.">
<polygon fill="#ffffff" stroke="#000000" points="900.5,-430.5 900.5,-449.5 1003.5,-449.5 1003.5,-430.5 900.5,-430.5"/>
<text text-anchor="middle" x="952" y="-437.5" font-family="Helvetica,sans-Serif" font-size="10.00" fill="#000000">GridFinder::height</text>
</a>
</g>
</g>
<!-- Node160&#45;&gt;Node161 -->
<g id="edge12" class="edge">
<title>Node160&#45;&gt;Node161</title>
<path fill="none" stroke="#191970" d="M781.1738,-506.3121C802.493,-493.8871 841.4632,-472.3534 877,-459 883.505,-456.5557 890.4437,-454.3233 897.3753,-452.3171"/>
<polygon fill="#191970" stroke="#191970" points="898.7596,-455.5665 907.4744,-449.5413 896.9043,-448.8168 898.7596,-455.5665"/>
</g>
<!-- Node162 -->
<g id="node13" class="node">
<title>Node162</title>
<g id="a_node13"><a xlink:href="classMask.html#af845b7d3220b707c8b4c48bf87d045bb" target="_top" xlink:title="Get the height of the mask in pixels.">
<polygon fill="#ffffff" stroke="#000000" points="1093,-430.5 1093,-449.5 1172,-449.5 1172,-430.5 1093,-430.5"/>
<text text-anchor="middle" x="1132.5" y="-437.5" font-family="Helvetica,sans-Serif" font-size="10.00" fill="#000000">Mask::height</text>
</a>
</g>
</g>
<!-- Node161&#45;&gt;Node162 -->
<g id="edge13" class="edge">
<title>Node161&#45;&gt;Node162</title>
<path fill="none" stroke="#191970" d="M1003.7241,-440C1028.5176,-440 1058.0868,-440 1082.6343,-440"/>
<polygon fill="#191970" stroke="#191970" points="1082.8188,-443.5001 1092.8187,-440 1082.8187,-436.5001 1082.8188,-443.5001"/>
</g>
<!-- Node163&#45;&gt;Node154 -->
<g id="edge24" class="edge">
<title>Node163&#45;&gt;Node154</title>
<path fill="none" stroke="#191970" d="M230.9103,-373.8271C241.8774,-399.852 275.7209,-470.3828 330,-497 388.66,-525.7655 411.6797,-498.3059 477,-497 626.5696,-494.0098 802.4726,-485.7284 892.4304,-481.1479"/>
<polygon fill="#191970" stroke="#191970" points="892.6339,-484.6422 902.4418,-480.6354 892.2759,-477.6514 892.6339,-484.6422"/>
</g>
<!-- Node163&#45;&gt;Node161 -->
<g id="edge25" class="edge">
<title>Node163&#45;&gt;Node161</title>
<path fill="none" stroke="#191970" d="M247.3832,-373.547C267.7924,-382.616 300.3428,-395.7647 330,-402 531.4852,-444.3617 777.1433,-444.7406 889.9509,-442.1458"/>
<polygon fill="#191970" stroke="#191970" points="890.2114,-445.6405 900.1222,-441.8952 890.039,-438.6426 890.2114,-445.6405"/>
</g>
<!-- Node164 -->
<g id="node15" class="node">
<title>Node164</title>
<g id="a_node15"><a xlink:href="classAngle.html#aa9c7edb3027272ad1e45098383f0a94d" target="_top" xlink:title=" ">
<polygon fill="#ffffff" stroke="#000000" points="345,-468.5 345,-487.5 462,-487.5 462,-468.5 345,-468.5"/>
<text text-anchor="middle" x="403.5" y="-475.5" font-family="Helvetica,sans-Serif" font-size="10.00" fill="#000000">Angle::perpendicular</text>
</a>
</g>
</g>
<!-- Node163&#45;&gt;Node164 -->
<g id="edge15" class="edge">
<title>Node163&#45;&gt;Node164</title>
<path fill="none" stroke="#191970" d="M235.4044,-373.5542C251.8467,-391.6991 290.156,-431.3517 330,-454 337.7158,-458.3859 346.3488,-462.1071 354.9105,-465.2145"/>
<polygon fill="#191970" stroke="#191970" points="353.8997,-468.5675 364.4941,-468.4648 356.148,-461.9384 353.8997,-468.5675"/>
</g>
<!-- Node165 -->
<g id="node16" class="node">
<title>Node165</title>
<g id="a_node16"><a xlink:href="classGridFinder.html#af8bdc28d95e295618c2f345f2d7eb758" target="_top" xlink:title="Move a pixel in a given direction for a given distance.">
<polygon fill="#ffffff" stroke="#000000" points="715,-392.5 715,-411.5 815,-411.5 815,-392.5 715,-392.5"/>
<text text-anchor="middle" x="765" y="-399.5" font-family="Helvetica,sans-Serif" font-size="10.00" fill="#000000">GridFinder::move</text>
</a>
</g>
</g>
<!-- Node163&#45;&gt;Node165 -->
<g id="edge16" class="edge">
<title>Node163&#45;&gt;Node165</title>
<path fill="none" stroke="#191970" d="M271.1596,-373.537C289.3042,-377.0917 310.5773,-380.7952 330,-383 463.2105,-398.1216 620.627,-401.4103 704.776,-402.0037"/>
<polygon fill="#191970" stroke="#191970" points="704.8951,-405.5044 714.9159,-402.0645 704.9371,-398.5045 704.8951,-405.5044"/>
</g>
<!-- Node166 -->
<g id="node17" class="node">
<title>Node166</title>
<g id="a_node17"><a xlink:href="classBresenhamLine.html#aba0822ee20811d67cd9539ccbe1cd346" target="_top" xlink:title=" ">
<polygon fill="#ffffff" stroke="#000000" points="1063,-310.5 1063,-329.5 1202,-329.5 1202,-310.5 1063,-310.5"/>
<text text-anchor="middle" x="1132.5" y="-317.5" font-family="Helvetica,sans-Serif" font-size="10.00" fill="#000000">BresenhamLine::hasNext</text>
</a>
</g>
</g>
<!-- Node163&#45;&gt;Node166 -->
<g id="edge27" class="edge">
<title>Node163&#45;&gt;Node166</title>
<path fill="none" stroke="#191970" d="M231.3357,-354.4596C243.3591,-329.0124 279.5914,-258.8225 330,-220 425.284,-146.6164 462.7328,-124 583,-124 583,-124 583,-124 765,-124 882.7275,-124 927.4711,-100.1212 1027,-163 1079.6085,-196.2362 1112.1386,-266.2898 1125.4902,-300.4459"/>
<polygon fill="#191970" stroke="#191970" points="1122.3558,-302.0545 1129.1524,-310.182 1128.9077,-299.59 1122.3558,-302.0545"/>
</g>
<!-- Node169 -->
<g id="node20" class="node">
<title>Node169</title>
<g id="a_node20"><a xlink:href="classBresenhamLine.html#a10d505e30945f42a5cd0270c315b104f" target="_top" xlink:title=" ">
<polygon fill="#ffffff" stroke="#000000" points="892,-354.5 892,-373.5 1012,-373.5 1012,-354.5 892,-354.5"/>
<text text-anchor="middle" x="952" y="-361.5" font-family="Helvetica,sans-Serif" font-size="10.00" fill="#000000">BresenhamLine::next</text>
</a>
</g>
</g>
<!-- Node163&#45;&gt;Node169 -->
<g id="edge26" class="edge">
<title>Node163&#45;&gt;Node169</title>
<path fill="none" stroke="#191970" d="M239.4258,-354.3439C257.9296,-340.6415 294.3811,-316.1984 330,-307 485.3503,-266.8815 529.7998,-325.0377 689,-345 754.076,-353.1599 828.6837,-358.1373 881.7734,-360.9387"/>
<polygon fill="#191970" stroke="#191970" points="881.5947,-364.434 891.7617,-361.4535 881.9551,-357.4433 881.5947,-364.434"/>
</g>
<!-- Node170 -->
<g id="node21" class="node">
<title>Node170</title>
<g id="a_node21"><a xlink:href="classGridFinder.html#afbed8951f70923626b73abdbe05236da" target="_top" xlink:title="Get the value of the given pixel.">
<polygon fill="#ffffff" stroke="#000000" points="908,-172.5 908,-191.5 996,-191.5 996,-172.5 908,-172.5"/>
<text text-anchor="middle" x="952" y="-179.5" font-family="Helvetica,sans-Serif" font-size="10.00" fill="#000000">GridFinder::get</text>
</a>
</g>
</g>
<!-- Node163&#45;&gt;Node170 -->
<g id="edge28" class="edge">
<title>Node163&#45;&gt;Node170</title>
<path fill="none" stroke="#191970" d="M237.6257,-354.3475C255.4734,-338.5971 293.1477,-307.2951 330,-289 479.2405,-214.9105 524.1561,-205.2585 689,-181 760.5718,-170.4675 844.2902,-173.3551 897.7058,-177.0858"/>
<polygon fill="#191970" stroke="#191970" points="897.7429,-180.5978 907.9723,-177.8394 898.2555,-173.6166 897.7429,-180.5978"/>
</g>
<!-- Node171 -->
<g id="node22" class="node">
<title>Node171</title>
<g id="a_node22"><a xlink:href="structPixel.html#ac3b82b3e3cd3b812dc1a0bccb474511f" target="_top" xlink:title=" ">
<polygon fill="#ffffff" stroke="#000000" points="360.5,-316.5 360.5,-335.5 446.5,-335.5 446.5,-316.5 360.5,-316.5"/>
<text text-anchor="middle" x="403.5" y="-323.5" font-family="Helvetica,sans-Serif" font-size="10.00" fill="#000000">Pixel::average</text>
</a>
</g>
</g>
<!-- Node163&#45;&gt;Node171 -->
<g id="edge30" class="edge">
<title>Node163&#45;&gt;Node171</title>
<path fill="none" stroke="#191970" d="M271.5384,-354.411C295.6098,-349.2285 325.4859,-342.7962 350.7203,-337.3633"/>
<polygon fill="#191970" stroke="#191970" points="351.4603,-340.7843 360.4996,-335.2579 349.9869,-333.9411 351.4603,-340.7843"/>
</g>
<!-- Node172 -->
<g id="node23" class="node">
<title>Node172</title>
<g id="a_node23"><a xlink:href="classGridFinder.html#ae12ca7921b02b37417d87fc737f0134d" target="_top" xlink:title="Check if there could be a valid line going through the given point, and if so, find and return the ac...">
<polygon fill="#ffffff" stroke="#000000" points="343,-354.5 343,-373.5 464,-373.5 464,-354.5 343,-354.5"/>
<text text-anchor="middle" x="403.5" y="-361.5" font-family="Helvetica,sans-Serif" font-size="10.00" fill="#000000">GridFinder::checkLine</text>
</a>
</g>
</g>
<!-- Node163&#45;&gt;Node172 -->
<g id="edge31" class="edge">
<title>Node163&#45;&gt;Node172</title>
<path fill="none" stroke="#191970" d="M294.2306,-364C306.8373,-364 320.0516,-364 332.7611,-364"/>
<polygon fill="#191970" stroke="#191970" points="332.8244,-367.5001 342.8243,-364 332.8243,-360.5001 332.8244,-367.5001"/>
</g>
<!-- Node165&#45;&gt;Node154 -->
<g id="edge17" class="edge">
<title>Node165&#45;&gt;Node154</title>
<path fill="none" stroke="#191970" d="M781.1738,-411.6879C802.493,-424.1129 841.4632,-445.6466 877,-459 883.505,-461.4443 890.4437,-463.6767 897.3753,-465.6829"/>
<polygon fill="#191970" stroke="#191970" points="896.9043,-469.1832 907.4744,-468.4587 898.7596,-462.4335 896.9043,-469.1832"/>
</g>
<!-- Node165&#45;&gt;Node161 -->
<g id="edge18" class="edge">
<title>Node165&#45;&gt;Node161</title>
<path fill="none" stroke="#191970" d="M812.188,-411.589C837.4205,-416.7165 868.673,-423.0672 895.2268,-428.4632"/>
<polygon fill="#191970" stroke="#191970" points="894.6546,-431.9184 905.1513,-430.4799 896.0486,-425.0586 894.6546,-431.9184"/>
</g>
<!-- Node165&#45;&gt;Node166 -->
<g id="edge19" class="edge">
<title>Node165&#45;&gt;Node166</title>
<path fill="none" stroke="#191970" d="M815.0451,-405.1309C868.7376,-406.9499 955.8844,-405.4169 1027,-383 1059.434,-372.7762 1092.3826,-350.8568 1112.6287,-335.7716"/>
<polygon fill="#191970" stroke="#191970" points="1114.912,-338.4319 1120.7395,-329.5837 1110.6661,-332.8667 1114.912,-338.4319"/>
</g>
<!-- Node168 -->
<g id="node19" class="node">
<title>Node168</title>
<g id="a_node19"><a xlink:href="classBresenhamLine.html#ad93a4adf0535a9b4e649bce5ade1bc5e" target="_top" xlink:title=" ">
<polygon fill="#ffffff" stroke="#000000" points="877,-305 877,-335 1027,-335 1027,-305 877,-305"/>
<text text-anchor="start" x="885" y="-323" font-family="Helvetica,sans-Serif" font-size="10.00" fill="#000000">BresenhamLine::getCurrent</text>
<text text-anchor="middle" x="952" y="-312" font-family="Helvetica,sans-Serif" font-size="10.00" fill="#000000">Length</text>
</a>
</g>
</g>
<!-- Node165&#45;&gt;Node168 -->
<g id="edge21" class="edge">
<title>Node165&#45;&gt;Node168</title>
<path fill="none" stroke="#191970" d="M782.0806,-392.2948C803.7229,-380.2359 842.3813,-359.4841 877,-345 882.3535,-342.7602 887.9845,-340.5782 893.6552,-338.4962"/>
<polygon fill="#191970" stroke="#191970" points="894.9513,-341.75 903.1944,-335.094 892.5997,-335.1568 894.9513,-341.75"/>
</g>
<!-- Node165&#45;&gt;Node169 -->
<g id="edge22" class="edge">
<title>Node165&#45;&gt;Node169</title>
<path fill="none" stroke="#191970" d="M812.188,-392.411C837.4205,-387.2835 868.673,-380.9328 895.2268,-375.5368"/>
<polygon fill="#191970" stroke="#191970" points="896.0486,-378.9414 905.1513,-373.5201 894.6546,-372.0816 896.0486,-378.9414"/>
</g>
<!-- Node167 -->
<g id="node18" class="node">
<title>Node167</title>
<g id="a_node18"><a xlink:href="structPixel.html#a816d743559e2ac5b35c9c79ac517ad0a" target="_top" xlink:title=" ">
<polygon fill="#ffffff" stroke="#000000" points="1238,-310.5 1238,-329.5 1324,-329.5 1324,-310.5 1238,-310.5"/>
<text text-anchor="middle" x="1281" y="-317.5" font-family="Helvetica,sans-Serif" font-size="10.00" fill="#000000">Pixel::inRange</text>
</a>
</g>
</g>
<!-- Node166&#45;&gt;Node167 -->
<g id="edge20" class="edge">
<title>Node166&#45;&gt;Node167</title>
<path fill="none" stroke="#191970" d="M1202.4016,-320C1210.8647,-320 1219.4033,-320 1227.5758,-320"/>
<polygon fill="#191970" stroke="#191970" points="1227.6984,-323.5001 1237.6984,-320 1227.6984,-316.5001 1227.6984,-323.5001"/>
</g>
<!-- Node169&#45;&gt;Node166 -->
<g id="edge23" class="edge">
<title>Node169&#45;&gt;Node166</title>
<path fill="none" stroke="#191970" d="M991.1658,-354.4527C1018.2485,-347.8508 1054.4825,-339.0181 1083.4818,-331.949"/>
<polygon fill="#191970" stroke="#191970" points="1084.5241,-335.2975 1093.4106,-329.5287 1082.8662,-328.4967 1084.5241,-335.2975"/>
</g>
<!-- Node170&#45;&gt;Node170 -->
<g id="edge29" class="edge">
<title>Node170&#45;&gt;Node170</title>
<path fill="none" stroke="#191970" d="M924.2568,-191.7571C910.7601,-200.5653 920.0078,-210 952,-210 973.9946,-210 985.239,-205.5406 985.733,-199.8913"/>
<polygon fill="#191970" stroke="#191970" points="988.4911,-197.7341 979.7432,-191.7571 982.8544,-201.8848 988.4911,-197.7341"/>
</g>
<!-- Node172&#45;&gt;Node158 -->
<g id="edge46" class="edge">
<title>Node172&#45;&gt;Node158</title>
<path fill="none" stroke="#191970" d="M414.7285,-373.5083C444.6977,-398.8861 526.8244,-468.4307 564.124,-500.0158"/>
<polygon fill="#191970" stroke="#191970" points="561.8824,-502.704 571.7757,-506.4953 566.4061,-497.362 561.8824,-502.704"/>
</g>
<!-- Node173 -->
<g id="node24" class="node">
<title>Node173</title>
<g id="a_node24"><a xlink:href="classGridFinder.html#abcd46f31e256080b2d5d2aee03c0e258" target="_top" xlink:title="Find the middle of a line.">
<polygon fill="#ffffff" stroke="#000000" points="523,-266.5 523,-285.5 643,-285.5 643,-266.5 523,-266.5"/>
<text text-anchor="middle" x="583" y="-273.5" font-family="Helvetica,sans-Serif" font-size="10.00" fill="#000000">GridFinder::getMiddle</text>
</a>
</g>
</g>
<!-- Node172&#45;&gt;Node173 -->
<g id="edge32" class="edge">
<title>Node172&#45;&gt;Node173</title>
<path fill="none" stroke="#191970" d="M449.759,-354.4848C458.9696,-351.9146 468.4366,-348.773 477,-345 509.176,-330.8235 542.5715,-307.3863 563.0726,-291.8195"/>
<polygon fill="#191970" stroke="#191970" points="565.2499,-294.5604 571.0282,-285.6799 560.9732,-289.0187 565.2499,-294.5604"/>
</g>
<!-- Node173&#45;&gt;Node165 -->
<g id="edge45" class="edge">
<title>Node173&#45;&gt;Node165</title>
<path fill="none" stroke="#191970" d="M596.979,-285.6778C628.4194,-307.4442 704.9158,-360.4032 742.8783,-386.685"/>
<polygon fill="#191970" stroke="#191970" points="741.0083,-389.6472 751.2225,-392.4617 744.9928,-383.8919 741.0083,-389.6472"/>
</g>
<!-- Node173&#45;&gt;Node170 -->
<g id="edge33" class="edge">
<title>Node173&#45;&gt;Node170</title>
<path fill="none" stroke="#191970" d="M624.7671,-266.4535C644.2737,-262.018 667.8158,-256.6977 689,-252 756.4898,-237.0338 774.3342,-237.2903 841,-219 866.4815,-212.009 894.7261,-202.5697 916.3471,-194.9751"/>
<polygon fill="#191970" stroke="#191970" points="917.5252,-198.2709 925.7812,-191.6309 915.1864,-191.6732 917.5252,-198.2709"/>
</g>
<!-- Node174 -->
<g id="node25" class="node">
<title>Node174</title>
<g id="a_node25"><a xlink:href="structCosSin.html#a4c63ac2c483b5caa4012f8c27d58dd96" target="_top" xlink:title=" ">
<polygon fill="#ffffff" stroke="#000000" points="716,-190.5 716,-209.5 814,-209.5 814,-190.5 716,-190.5"/>
<text text-anchor="middle" x="765" y="-197.5" font-family="Helvetica,sans-Serif" font-size="10.00" fill="#000000">CosSin::opposite</text>
</a>
</g>
</g>
<!-- Node173&#45;&gt;Node174 -->
<g id="edge34" class="edge">
<title>Node173&#45;&gt;Node174</title>
<path fill="none" stroke="#191970" d="M600.6328,-266.3298C621.372,-255.1975 657.0326,-236.8044 689,-224 699.3259,-219.864 710.6611,-215.959 721.3535,-212.5476"/>
<polygon fill="#191970" stroke="#191970" points="722.4376,-215.8759 730.9449,-209.5611 720.3565,-209.1924 722.4376,-215.8759"/>
</g>
<!-- Node175 -->
<g id="node26" class="node">
<title>Node175</title>
<g id="a_node26"><a xlink:href="classGridFinder.html#ab5c436911deb269a22a8d5525271fa4e" target="_top" xlink:title="Get the width of the line at a given point.">
<polygon fill="#ffffff" stroke="#000000" points="689,-305 689,-335 841,-335 841,-305 689,-305"/>
<text text-anchor="start" x="697" y="-323" font-family="Helvetica,sans-Serif" font-size="10.00" fill="#000000">GridFinder::getWidthAtPoint</text>
<text text-anchor="middle" x="765" y="-312" font-family="Helvetica,sans-Serif" font-size="10.00" fill="#000000">OnLine</text>
</a>
</g>
</g>
<!-- Node173&#45;&gt;Node175 -->
<g id="edge35" class="edge">
<title>Node173&#45;&gt;Node175</title>
<path fill="none" stroke="#191970" d="M622.4913,-285.5473C643.0738,-290.5233 668.8984,-296.7666 692.8904,-302.5669"/>
<polygon fill="#191970" stroke="#191970" points="692.1417,-305.9867 702.6842,-304.9346 693.7867,-299.1827 692.1417,-305.9867"/>
</g>
<!-- Node176 -->
<g id="node27" class="node">
<title>Node176</title>
<g id="a_node27"><a xlink:href="structCosSin.html#adb1d000cc58879b65a63fac849408bfe" target="_top" xlink:title=" ">
<polygon fill="#ffffff" stroke="#000000" points="891,-228.5 891,-247.5 1013,-247.5 1013,-228.5 891,-228.5"/>
<text text-anchor="middle" x="952" y="-235.5" font-family="Helvetica,sans-Serif" font-size="10.00" fill="#000000">CosSin::perpendicular</text>
</a>
</g>
</g>
<!-- Node173&#45;&gt;Node176 -->
<g id="edge44" class="edge">
<title>Node173&#45;&gt;Node176</title>
<path fill="none" stroke="#191970" d="M643.0077,-270.9774C695.3332,-266.4642 773.2529,-259.4214 841,-252 853.9243,-250.5842 867.6788,-248.9516 880.9457,-247.3124"/>
<polygon fill="#191970" stroke="#191970" points="881.4845,-250.7725 890.9742,-246.0611 880.6177,-243.8263 881.4845,-250.7725"/>
</g>
<!-- Node173&#45;&gt;Node177 -->
<g id="edge43" class="edge">
<title>Node173&#45;&gt;Node177</title>
<path fill="none" stroke="#191970" d="M592.2756,-266.3167C621.3554,-235.9587 711.0196,-142.3531 748.3857,-103.3446"/>
<polygon fill="#191970" stroke="#191970" points="751.1349,-105.5343 755.5248,-95.8917 746.0799,-100.6921 751.1349,-105.5343"/>
</g>
<!-- Node175&#45;&gt;Node154 -->
<g id="edge36" class="edge">
<title>Node175&#45;&gt;Node154</title>
<path fill="none" stroke="#191970" d="M788.2554,-335.1652C804.6246,-346.7438 826.1742,-363.9174 841,-383 863.9308,-412.5147 848.133,-435.259 877,-459 881.6522,-462.8261 886.9759,-465.8948 892.5931,-468.354"/>
<polygon fill="#191970" stroke="#191970" points="891.6639,-471.7424 902.2568,-471.9434 894.1013,-465.1805 891.6639,-471.7424"/>
</g>
<!-- Node175&#45;&gt;Node161 -->
<g id="edge37" class="edge">
<title>Node175&#45;&gt;Node161</title>
<path fill="none" stroke="#191970" d="M788.6837,-335.1981C824.5902,-358.2397 892.412,-401.7617 928.3177,-424.8028"/>
<polygon fill="#191970" stroke="#191970" points="926.8269,-428.0048 937.1334,-430.4599 930.6075,-422.1135 926.8269,-428.0048"/>
</g>
<!-- Node175&#45;&gt;Node166 -->
<g id="edge39" class="edge">
<title>Node175&#45;&gt;Node166</title>
<path fill="none" stroke="#191970" d="M823.912,-304.94C840.9253,-301.2557 859.5978,-297.8436 877,-296 943.2957,-288.9766 960.7498,-288.5595 1027,-296 1047.7279,-298.3279 1070.3236,-303.1519 1089.2668,-307.8686"/>
<polygon fill="#191970" stroke="#191970" points="1088.5387,-311.295 1099.0945,-310.3861 1090.2758,-304.5139 1088.5387,-311.295"/>
</g>
<!-- Node175&#45;&gt;Node168 -->
<g id="edge41" class="edge">
<title>Node175&#45;&gt;Node168</title>
<path fill="none" stroke="#191970" d="M841.0601,-320C849.5634,-320 858.2662,-320 866.8736,-320"/>
<polygon fill="#191970" stroke="#191970" points="866.9165,-323.5001 876.9165,-320 866.9165,-316.5001 866.9165,-323.5001"/>
</g>
<!-- Node175&#45;&gt;Node169 -->
<g id="edge40" class="edge">
<title>Node175&#45;&gt;Node169</title>
<path fill="none" stroke="#191970" d="M828.8318,-335.0192C852.5959,-340.6108 879.2125,-346.8735 901.6059,-352.1426"/>
<polygon fill="#191970" stroke="#191970" points="901.0364,-355.6041 911.5722,-354.4876 902.6397,-348.7902 901.0364,-355.6041"/>
</g>
<!-- Node175&#45;&gt;Node170 -->
<g id="edge42" class="edge">
<title>Node175&#45;&gt;Node170</title>
<path fill="none" stroke="#191970" d="M781.9562,-304.9337C797.3928,-291.1926 820.7904,-270.3026 841,-252 857.0881,-237.43 859.0875,-231.2578 877,-219 890.0165,-210.0926 905.4913,-202.0822 918.9941,-195.8115"/>
<polygon fill="#191970" stroke="#191970" points="920.7362,-198.8655 928.4144,-191.5651 917.8594,-192.4839 920.7362,-198.8655"/>
</g>
<!-- Node175&#45;&gt;Node176 -->
<g id="edge38" class="edge">
<title>Node175&#45;&gt;Node176</title>
<path fill="none" stroke="#191970" d="M809.3967,-304.9326C820.0253,-300.6626 831.1434,-295.6239 841,-290 858.6056,-279.9547 859.0714,-271.4566 877,-262 885.2586,-257.6439 894.4487,-253.9039 903.4856,-250.7613"/>
<polygon fill="#191970" stroke="#191970" points="904.7669,-254.0247 913.18,-247.5849 902.5872,-247.3726 904.7669,-254.0247"/>
</g>
<!-- Node179 -->
<g id="node30" class="node">
<title>Node179</title>
<g id="a_node30"><a xlink:href="classLine.html#af14c90f6f7c18003e35ca3a08be32368" target="_top" xlink:title=" ">
<polygon fill="#ffffff" stroke="#000000" points="360.5,-.5 360.5,-19.5 446.5,-19.5 446.5,-.5 360.5,-.5"/>
<text text-anchor="middle" x="403.5" y="-7.5" font-family="Helvetica,sans-Serif" font-size="10.00" fill="#000000">Line::intersect</text>
</a>
</g>
</g>
<!-- Node178&#45;&gt;Node179 -->
<g id="edge48" class="edge">
<title>Node178&#45;&gt;Node179</title>
<path fill="none" stroke="#191970" d="M284.7927,-10C305.8642,-10 329.5762,-10 350.236,-10"/>
<polygon fill="#191970" stroke="#191970" points="350.4185,-13.5001 360.4185,-10 350.4185,-6.5001 350.4185,-13.5001"/>
</g>
<!-- Node180 -->
<g id="node31" class="node">
<title>Node180</title>
<g id="a_node31"><a xlink:href="Matrix_8hpp.html#aaac3f553f87e00956b4736107cf40289" target="_top" xlink:title="Calculates u × v, where u, v ⊆ ℝ³.">
<polygon fill="#ffffff" stroke="#000000" points="562,-.5 562,-19.5 604,-19.5 604,-.5 562,-.5"/>
<text text-anchor="middle" x="583" y="-7.5" font-family="Helvetica,sans-Serif" font-size="10.00" fill="#000000">cross</text>
</a>
</g>
</g>
<!-- Node179&#45;&gt;Node180 -->
<g id="edge49" class="edge">
<title>Node179&#45;&gt;Node180</title>
<path fill="none" stroke="#191970" d="M446.9519,-10C479.1531,-10 522.3038,-10 551.2983,-10"/>
<polygon fill="#191970" stroke="#191970" points="551.6653,-13.5001 561.6653,-10 551.6653,-6.5001 551.6653,-13.5001"/>
</g>
</g>
</svg>
