<?xml version="1.0" encoding="UTF-8" standalone="no"?>
<!DOCTYPE svg PUBLIC "-//W3C//DTD SVG 1.1//EN"
 "http://www.w3.org/Graphics/SVG/1.1/DTD/svg11.dtd">
<!-- Generated by graphviz version 2.40.1 (20161225.0304)
 -->
<!-- Title: BresenhamLine::hasNext Pages: 1 -->
<svg width="1370pt" height="270pt"
 viewBox="0.00 0.00 1370.00 269.50" xmlns="http://www.w3.org/2000/svg" xmlns:xlink="http://www.w3.org/1999/xlink">
<g id="graph0" class="graph" transform="scale(1 1) rotate(0) translate(4 265.5)">
<title>BresenhamLine::hasNext</title>
<polygon fill="#ffffff" stroke="transparent" points="-4,4 -4,-265.5 1366,-265.5 1366,4 -4,4"/>
<!-- Node28 -->
<g id="node1" class="node">
<title>Node28</title>
<g id="a_node1"><a xlink:title=" ">
<polygon fill="#bfbfbf" stroke="#000000" points="1223,-86.5 1223,-105.5 1362,-105.5 1362,-86.5 1223,-86.5"/>
<text text-anchor="middle" x="1292.5" y="-93.5" font-family="Helvetica,sans-Serif" font-size="10.00" fill="#000000">BresenhamLine::hasNext</text>
</a>
</g>
</g>
<!-- Node29 -->
<g id="node2" class="node">
<title>Node29</title>
<g id="a_node2"><a xlink:href="classBresenhamLine.html#a10d505e30945f42a5cd0270c315b104f" target="_top" xlink:title=" ">
<polygon fill="#ffffff" stroke="#000000" points="1067,-105.5 1067,-124.5 1187,-124.5 1187,-105.5 1067,-105.5"/>
<text text-anchor="middle" x="1127" y="-112.5" font-family="Helvetica,sans-Serif" font-size="10.00" fill="#000000">BresenhamLine::next</text>
</a>
</g>
</g>
<!-- Node28&#45;&gt;Node29 -->
<g id="edge1" class="edge">
<title>Node28&#45;&gt;Node29</title>
<path fill="none" stroke="#191970" d="M1212.7405,-105.1567C1204.1415,-106.1439 1195.4995,-107.136 1187.1864,-108.0904"/>
<polygon fill="#191970" stroke="#191970" points="1213.2572,-108.6204 1222.7928,-104.0026 1212.4588,-101.6661 1213.2572,-108.6204"/>
</g>
<!-- Node30 -->
<g id="node3" class="node">
<title>Node30</title>
<g id="a_node3"><a xlink:href="classGridFinder.html#ace2c24a54244e7e92618d3fe7ec62fdc" target="_top" xlink:title="Starting from the given pixel, move in the direction of the given angle, and count the number of whit...">
<polygon fill="#ffffff" stroke="#000000" points="904,-192.5 904,-211.5 1006,-211.5 1006,-192.5 904,-192.5"/>
<text text-anchor="middle" x="955" y="-199.5" font-family="Helvetica,sans-Serif" font-size="10.00" fill="#000000">GridFinder::hough</text>
</a>
</g>
</g>
<!-- Node28&#45;&gt;Node30 -->
<g id="edge22" class="edge">
<title>Node28&#45;&gt;Node30</title>
<path fill="none" stroke="#191970" d="M1270.9043,-111.3789C1250.2967,-125.3344 1217.8991,-145.4431 1187,-157 1127.0515,-179.4219 1054.0149,-191.2273 1006.1024,-197.029"/>
<polygon fill="#191970" stroke="#191970" points="1272.9889,-114.1929 1279.2353,-105.6353 1269.0157,-108.4298 1272.9889,-114.1929"/>
</g>
<!-- Node34 -->
<g id="node7" class="node">
<title>Node34</title>
<g id="a_node7"><a xlink:href="classGridFinder.html#ab5c436911deb269a22a8d5525271fa4e" target="_top" xlink:title="Get the width of the line at a given point.">
<polygon fill="#ffffff" stroke="#000000" points="879,-143 879,-173 1031,-173 1031,-143 879,-143"/>
<text text-anchor="start" x="887" y="-161" font-family="Helvetica,sans-Serif" font-size="10.00" fill="#000000">GridFinder::getWidthAtPoint</text>
<text text-anchor="middle" x="955" y="-150" font-family="Helvetica,sans-Serif" font-size="10.00" fill="#000000">OnLine</text>
</a>
</g>
</g>
<!-- Node28&#45;&gt;Node34 -->
<g id="edge23" class="edge">
<title>Node28&#45;&gt;Node34</title>
<path fill="none" stroke="#191970" d="M1261.4911,-109.4238C1240.7816,-117.8227 1212.7243,-128.1285 1187,-134 1135.778,-145.6913 1076.8815,-151.6966 1031.248,-154.7764"/>
<polygon fill="#191970" stroke="#191970" points="1262.834,-112.656 1270.7391,-105.602 1260.1604,-106.1867 1262.834,-112.656"/>
</g>
<!-- Node38 -->
<g id="node11" class="node">
<title>Node38</title>
<g id="a_node11"><a xlink:href="classGridFinder.html#a54369e6368334eb2924ca70ee1f1d438" target="_top" xlink:title="Follow the given line to find the line perpendicular to it. Move along the line for minDistance pixel...">
<polygon fill="#ffffff" stroke="#000000" points="356,-65.5 356,-84.5 490,-84.5 490,-65.5 356,-65.5"/>
<text text-anchor="middle" x="423" y="-72.5" font-family="Helvetica,sans-Serif" font-size="10.00" fill="#000000">GridFinder::findNextLine</text>
</a>
</g>
</g>
<!-- Node28&#45;&gt;Node38 -->
<g id="edge26" class="edge">
<title>Node28&#45;&gt;Node38</title>
<path fill="none" stroke="#191970" d="M1264.1453,-82.1369C1207.0696,-55.549 1073.6283,0 955,0 955,0 955,0 774,0 650.3085,0 507.4035,-45.0923 449.4481,-65.3486"/>
<polygon fill="#191970" stroke="#191970" points="1262.7296,-85.3389 1273.2667,-86.4442 1265.7187,-79.0092 1262.7296,-85.3389"/>
</g>
<!-- Node43 -->
<g id="node16" class="node">
<title>Node43</title>
<g id="a_node16"><a xlink:href="classGridFinder.html#a3b5caee289831bd2207db3ec542be2b0" target="_top" xlink:title="Draw a line on the mask. Used only for testing.">
<polygon fill="#ffffff" stroke="#000000" points="897,-28.5 897,-47.5 1013,-47.5 1013,-28.5 897,-28.5"/>
<text text-anchor="middle" x="955" y="-35.5" font-family="Helvetica,sans-Serif" font-size="10.00" fill="#000000">GridFinder::drawLine</text>
</a>
</g>
</g>
<!-- Node28&#45;&gt;Node43 -->
<g id="edge24" class="edge">
<title>Node28&#45;&gt;Node43</title>
<path fill="none" stroke="#191970" d="M1226.9232,-84.7305C1163.9066,-73.901 1069.7392,-57.7181 1010.3836,-47.5178"/>
<polygon fill="#191970" stroke="#191970" points="1226.6983,-88.2431 1237.1467,-86.4874 1227.884,-81.3442 1226.6983,-88.2431"/>
</g>
<!-- Node44 -->
<g id="node17" class="node">
<title>Node44</title>
<g id="a_node17"><a xlink:href="classGridFinder.html#af8bdc28d95e295618c2f345f2d7eb758" target="_top" xlink:title="Move a pixel in a given direction for a given distance.">
<polygon fill="#ffffff" stroke="#000000" points="905,-104.5 905,-123.5 1005,-123.5 1005,-104.5 905,-104.5"/>
<text text-anchor="middle" x="955" y="-111.5" font-family="Helvetica,sans-Serif" font-size="10.00" fill="#000000">GridFinder::move</text>
</a>
</g>
</g>
<!-- Node28&#45;&gt;Node44 -->
<g id="edge25" class="edge">
<title>Node28&#45;&gt;Node44</title>
<path fill="none" stroke="#191970" d="M1212.6362,-92.9093C1169.4517,-92.0163 1115.2318,-92.1489 1067,-96 1046.0925,-97.6694 1023.1969,-101.065 1003.5859,-104.4617"/>
<polygon fill="#191970" stroke="#191970" points="1212.7231,-96.4122 1222.8007,-93.1425 1212.8837,-89.414 1212.7231,-96.4122"/>
</g>
<!-- Node29&#45;&gt;Node30 -->
<g id="edge2" class="edge">
<title>Node29&#45;&gt;Node30</title>
<path fill="none" stroke="#191970" d="M1108.0679,-131.2649C1089.5498,-146.4044 1059.9816,-168.5916 1031,-182 1021.8368,-186.2394 1011.6208,-189.699 1001.7262,-192.4754"/>
<polygon fill="#191970" stroke="#191970" points="1110.5464,-133.7555 1115.9884,-124.665 1106.0653,-128.3777 1110.5464,-133.7555"/>
</g>
<!-- Node29&#45;&gt;Node34 -->
<g id="edge6" class="edge">
<title>Node29&#45;&gt;Node34</title>
<path fill="none" stroke="#191970" d="M1079.0846,-126.9788C1059.235,-131.9413 1035.9934,-137.7517 1015.0252,-142.9937"/>
<polygon fill="#191970" stroke="#191970" points="1079.9751,-130.364 1088.8276,-124.5431 1078.2773,-123.573 1079.9751,-130.364"/>
</g>
<!-- Node29&#45;&gt;Node38 -->
<g id="edge21" class="edge">
<title>Node29&#45;&gt;Node38</title>
<path fill="none" stroke="#191970" d="M1078.3254,-103.2729C1063.2417,-100.0679 1046.5091,-96.9454 1031,-95 835.8259,-70.5184 602.823,-71.0732 490.3434,-73.1929"/>
<polygon fill="#191970" stroke="#191970" points="1077.9522,-106.7739 1088.4692,-105.4915 1079.4479,-99.9356 1077.9522,-106.7739"/>
</g>
<!-- Node29&#45;&gt;Node43 -->
<g id="edge16" class="edge">
<title>Node29&#45;&gt;Node43</title>
<path fill="none" stroke="#191970" d="M1103.2442,-100.1435C1084.2129,-88.6741 1056.5615,-72.963 1031,-62 1018.0292,-56.437 1003.3293,-51.4969 990.3374,-47.5666"/>
<polygon fill="#191970" stroke="#191970" points="1101.4881,-103.1721 1111.8474,-105.3939 1105.1347,-97.1969 1101.4881,-103.1721"/>
</g>
<!-- Node29&#45;&gt;Node44 -->
<g id="edge17" class="edge">
<title>Node29&#45;&gt;Node44</title>
<path fill="none" stroke="#191970" d="M1056.7789,-114.5917C1039.4754,-114.4911 1021.2895,-114.3854 1005.154,-114.2916"/>
<polygon fill="#191970" stroke="#191970" points="1056.8225,-118.092 1066.8427,-114.6502 1056.8633,-111.0921 1056.8225,-118.092"/>
</g>
<!-- Node31 -->
<g id="node4" class="node">
<title>Node31</title>
<g id="a_node4"><a xlink:href="classGridFinder.html#a04e1362c95151ac77477844a952af0f9" target="_top" xlink:title="Scan 360° around a given pixel, and find the angle with the most white pixels. This version is not ve...">
<polygon fill="#ffffff" stroke="#000000" points="528.5,-201.5 528.5,-220.5 666.5,-220.5 666.5,-201.5 528.5,-201.5"/>
<text text-anchor="middle" x="597.5" y="-208.5" font-family="Helvetica,sans-Serif" font-size="10.00" fill="#000000">GridFinder::findLineAngle</text>
</a>
</g>
</g>
<!-- Node30&#45;&gt;Node31 -->
<g id="edge3" class="edge">
<title>Node30&#45;&gt;Node31</title>
<path fill="none" stroke="#191970" d="M893.5806,-203.5462C830.5033,-205.1342 732.5089,-207.6012 666.7226,-209.2573"/>
<polygon fill="#191970" stroke="#191970" points="893.8703,-207.0401 903.779,-203.2895 893.694,-200.0424 893.8703,-207.0401"/>
</g>
<!-- Node33 -->
<g id="node6" class="node">
<title>Node33</title>
<g id="a_node6"><a xlink:href="classGridFinder.html#afcc1eed83ee0292966c3c80883069634" target="_top" xlink:title="Similar to findLineAngle, but is more accurate, because it uses the average of the range of angles wi...">
<polygon fill="#ffffff" stroke="#000000" points="705,-231 705,-261 843,-261 843,-231 705,-231"/>
<text text-anchor="start" x="713" y="-249" font-family="Helvetica,sans-Serif" font-size="10.00" fill="#000000">GridFinder::findLineAngle</text>
<text text-anchor="middle" x="774" y="-238" font-family="Helvetica,sans-Serif" font-size="10.00" fill="#000000">AccurateRange</text>
</a>
</g>
</g>
<!-- Node30&#45;&gt;Node33 -->
<g id="edge5" class="edge">
<title>Node30&#45;&gt;Node33</title>
<path fill="none" stroke="#191970" d="M905.8213,-213.955C884.2899,-219.1892 858.7849,-225.3893 835.9734,-230.9346"/>
<polygon fill="#191970" stroke="#191970" points="906.8355,-217.3105 915.7257,-211.5473 905.1819,-210.5086 906.8355,-217.3105"/>
</g>
<!-- Node32 -->
<g id="node5" class="node">
<title>Node32</title>
<g id="a_node5"><a xlink:href="classGridFinder.html#aaea3af418ab7124f2b25bcc124fccaca" target="_top" xlink:title="Get an estimate of the line through a given pixel. Find an estimate of the slope, then use that to de...">
<polygon fill="#ffffff" stroke="#000000" points="359,-123 359,-153 487,-153 487,-123 359,-123"/>
<text text-anchor="start" x="367" y="-141" font-family="Helvetica,sans-Serif" font-size="10.00" fill="#000000">GridFinder::getFirstLine</text>
<text text-anchor="middle" x="423" y="-130" font-family="Helvetica,sans-Serif" font-size="10.00" fill="#000000">Estimate</text>
</a>
</g>
</g>
<!-- Node31&#45;&gt;Node32 -->
<g id="edge4" class="edge">
<title>Node31&#45;&gt;Node32</title>
<path fill="none" stroke="#191970" d="M545.6638,-198.6967C538.973,-196.6808 532.2724,-194.4422 526,-192 498.3426,-181.2312 468.4861,-165.0244 448.0754,-153.1756"/>
<polygon fill="#191970" stroke="#191970" points="544.8311,-202.0989 555.4083,-201.4888 546.7592,-195.3697 544.8311,-202.0989"/>
</g>
<!-- Node35 -->
<g id="node8" class="node">
<title>Node35</title>
<g id="a_node8"><a xlink:href="classGridFinder.html#abcd46f31e256080b2d5d2aee03c0e258" target="_top" xlink:title="Find the middle of a line.">
<polygon fill="#ffffff" stroke="#000000" points="714,-151.5 714,-170.5 834,-170.5 834,-151.5 714,-151.5"/>
<text text-anchor="middle" x="774" y="-158.5" font-family="Helvetica,sans-Serif" font-size="10.00" fill="#000000">GridFinder::getMiddle</text>
</a>
</g>
</g>
<!-- Node34&#45;&gt;Node35 -->
<g id="edge7" class="edge">
<title>Node34&#45;&gt;Node35</title>
<path fill="none" stroke="#191970" d="M868.5897,-159.4322C856.9633,-159.6249 845.2466,-159.8191 834.2095,-160.0021"/>
<polygon fill="#191970" stroke="#191970" points="868.8237,-162.9289 878.7643,-159.2636 868.7076,-155.9299 868.8237,-162.9289"/>
</g>
<!-- Node36 -->
<g id="node9" class="node">
<title>Node36</title>
<g id="a_node9"><a xlink:href="classGridFinder.html#af830abf29ca6dc9c01197a38fe16e1e5" target="_top" xlink:title="In exceptional cases, we might want to find the middle of a line in a point that happens to lie at th...">
<polygon fill="#ffffff" stroke="#000000" points="526,-114 526,-144 669,-144 669,-114 526,-114"/>
<text text-anchor="start" x="534" y="-132" font-family="Helvetica,sans-Serif" font-size="10.00" fill="#000000">GridFinder::getMiddleWith</text>
<text text-anchor="middle" x="597.5" y="-121" font-family="Helvetica,sans-Serif" font-size="10.00" fill="#000000">Retries</text>
</a>
</g>
</g>
<!-- Node35&#45;&gt;Node36 -->
<g id="edge8" class="edge">
<title>Node35&#45;&gt;Node36</title>
<path fill="none" stroke="#191970" d="M711.6694,-149.6993C697.8839,-147.1999 683.1724,-144.5327 669.0528,-141.9727"/>
<polygon fill="#191970" stroke="#191970" points="711.0581,-153.1454 721.5221,-151.4856 712.3069,-146.2577 711.0581,-153.1454"/>
</g>
<!-- Node37 -->
<g id="node10" class="node">
<title>Node37</title>
<g id="a_node10"><a xlink:href="classGridFinder.html#ae12ca7921b02b37417d87fc737f0134d" target="_top" xlink:title="Check if there could be a valid line going through the given point, and if so, find and return the ac...">
<polygon fill="#ffffff" stroke="#000000" points="537,-163.5 537,-182.5 658,-182.5 658,-163.5 537,-163.5"/>
<text text-anchor="middle" x="597.5" y="-170.5" font-family="Helvetica,sans-Serif" font-size="10.00" fill="#000000">GridFinder::checkLine</text>
</a>
</g>
</g>
<!-- Node35&#45;&gt;Node37 -->
<g id="edge10" class="edge">
<title>Node35&#45;&gt;Node37</title>
<path fill="none" stroke="#191970" d="M703.4814,-165.7945C688.4475,-166.8166 672.6975,-167.8874 658.0754,-168.8816"/>
<polygon fill="#191970" stroke="#191970" points="704.0128,-169.2665 713.7524,-165.0962 703.538,-162.2826 704.0128,-169.2665"/>
</g>
<!-- Node36&#45;&gt;Node32 -->
<g id="edge9" class="edge">
<title>Node36&#45;&gt;Node32</title>
<path fill="none" stroke="#191970" d="M515.5054,-133.2289C505.9971,-133.7193 496.4052,-134.2141 487.1837,-134.6897"/>
<polygon fill="#191970" stroke="#191970" points="515.9623,-136.7101 525.7688,-132.6996 515.6017,-129.7194 515.9623,-136.7101"/>
</g>
<!-- Node37&#45;&gt;Node38 -->
<g id="edge11" class="edge">
<title>Node37&#45;&gt;Node38</title>
<path fill="none" stroke="#191970" d="M539.3127,-159.8094C534.6637,-157.839 530.1619,-155.5825 526,-153 505.6771,-140.3894 508.6434,-127.9825 490,-113 475.7195,-101.5237 457.5353,-91.4477 443.7155,-84.56"/>
<polygon fill="#191970" stroke="#191970" points="538.4088,-163.2092 549.0005,-163.4648 540.88,-156.6599 538.4088,-163.2092"/>
</g>
<!-- Node39 -->
<g id="node12" class="node">
<title>Node39</title>
<g id="a_node12"><a xlink:href="classGridFinder.html#a3edbd3ffbcfe6d373fbaf576e4dca51b" target="_top" xlink:title="Equivalent to #findNextLine(LineResult,bool,uint,uint) but also supports optional LineResults.">
<polygon fill="#ffffff" stroke="#000000" points="186,-84.5 186,-103.5 320,-103.5 320,-84.5 186,-84.5"/>
<text text-anchor="middle" x="253" y="-91.5" font-family="Helvetica,sans-Serif" font-size="10.00" fill="#000000">GridFinder::findNextLine</text>
</a>
</g>
</g>
<!-- Node38&#45;&gt;Node39 -->
<g id="edge12" class="edge">
<title>Node38&#45;&gt;Node39</title>
<path fill="none" stroke="#191970" d="M345.854,-83.6222C337.3121,-84.5769 328.6634,-85.5435 320.2572,-86.483"/>
<polygon fill="#191970" stroke="#191970" points="346.2622,-87.0985 355.8115,-82.5093 345.4846,-80.1418 346.2622,-87.0985"/>
</g>
<!-- Node40 -->
<g id="node13" class="node">
<title>Node40</title>
<g id="a_node13"><a xlink:href="classGridFinder.html#a8940ca681fac78274043cf5f1f1f5761" target="_top" xlink:title="This is the main function: it looks for a complete square of the grid, as close to the center of the ...">
<polygon fill="#ffffff" stroke="#000000" points="191,-46.5 191,-65.5 315,-65.5 315,-46.5 191,-46.5"/>
<text text-anchor="middle" x="253" y="-53.5" font-family="Helvetica,sans-Serif" font-size="10.00" fill="#000000">GridFinder::findSquare</text>
</a>
</g>
</g>
<!-- Node38&#45;&gt;Node40 -->
<g id="edge13" class="edge">
<title>Node38&#45;&gt;Node40</title>
<path fill="none" stroke="#191970" d="M345.624,-66.3521C335.3644,-65.2054 324.9554,-64.0421 315.0015,-62.9296"/>
<polygon fill="#191970" stroke="#191970" points="345.4846,-69.8582 355.8115,-67.4907 346.2622,-62.9015 345.4846,-69.8582"/>
</g>
<!-- Node41 -->
<g id="node14" class="node">
<title>Node41</title>
<g id="a_node14"><a xlink:href="classLocationFinder.html#a398bb42565e1e2a499471765f569bc40" target="_top" xlink:title=" ">
<polygon fill="#ffffff" stroke="#000000" points="0,-65.5 0,-84.5 150,-84.5 150,-65.5 0,-65.5"/>
<text text-anchor="middle" x="75" y="-72.5" font-family="Helvetica,sans-Serif" font-size="10.00" fill="#000000">LocationFinder::getLocation</text>
</a>
</g>
</g>
<!-- Node40&#45;&gt;Node41 -->
<g id="edge14" class="edge">
<title>Node40&#45;&gt;Node41</title>
<path fill="none" stroke="#191970" d="M180.754,-63.7117C170.6437,-64.7908 160.2341,-65.902 150.0729,-66.9866"/>
<polygon fill="#191970" stroke="#191970" points="181.1722,-67.187 190.7442,-62.6453 180.4292,-60.2265 181.1722,-67.187"/>
</g>
<!-- Node42 -->
<g id="node15" class="node">
<title>Node42</title>
<g id="a_node15"><a xlink:href="Grid-Finder_8module_8hpp.html#a05e720af51446c0f9319fb9455fe1767" target="_top" xlink:title=" ">
<polygon fill="#ffffff" stroke="#000000" points="18.5,-27.5 18.5,-46.5 131.5,-46.5 131.5,-27.5 18.5,-27.5"/>
<text text-anchor="middle" x="75" y="-34.5" font-family="Helvetica,sans-Serif" font-size="10.00" fill="#000000">PYBIND11_MODULE</text>
</a>
</g>
</g>
<!-- Node40&#45;&gt;Node42 -->
<g id="edge15" class="edge">
<title>Node40&#45;&gt;Node42</title>
<path fill="none" stroke="#191970" d="M180.6768,-48.2801C164.3126,-46.5334 147.1683,-44.7034 131.5649,-43.0378"/>
<polygon fill="#191970" stroke="#191970" points="180.4292,-51.7735 190.7442,-49.3547 181.1722,-44.813 180.4292,-51.7735"/>
</g>
<!-- Node44&#45;&gt;Node35 -->
<g id="edge18" class="edge">
<title>Node44&#45;&gt;Node35</title>
<path fill="none" stroke="#191970" d="M906.5479,-125.9928C897.3911,-128.2933 887.8968,-130.7018 879,-133 855.8014,-138.9926 829.7788,-145.9304 809.4434,-151.4009"/>
<polygon fill="#191970" stroke="#191970" points="907.4568,-129.3733 916.3072,-123.5491 905.7565,-122.5829 907.4568,-129.3733"/>
</g>
<!-- Node44&#45;&gt;Node36 -->
<g id="edge19" class="edge">
<title>Node44&#45;&gt;Node36</title>
<path fill="none" stroke="#191970" d="M894.8535,-116.5236C832.5945,-119.1359 735.3528,-123.216 669.1534,-125.9936"/>
<polygon fill="#191970" stroke="#191970" points="895.0703,-120.0177 904.9147,-116.1015 894.7768,-113.0239 895.0703,-120.0177"/>
</g>
<!-- Node44&#45;&gt;Node38 -->
<g id="edge20" class="edge">
<title>Node44&#45;&gt;Node38</title>
<path fill="none" stroke="#191970" d="M894.7056,-109.5799C794.5963,-102.2411 594.7784,-87.5928 490.2507,-79.93"/>
<polygon fill="#191970" stroke="#191970" points="894.7216,-113.0904 904.9507,-110.331 895.2334,-106.1091 894.7216,-113.0904"/>
</g>
</g>
</svg>
