<?xml version="1.0" encoding="UTF-8" standalone="no"?>
<!DOCTYPE svg PUBLIC "-//W3C//DTD SVG 1.1//EN"
 "http://www.w3.org/Graphics/SVG/1.1/DTD/svg11.dtd">
<!-- Generated by graphviz version 2.40.1 (20161225.0304)
 -->
<!-- Title: BitString::splitBlocks Pages: 1 -->
<svg width="436pt" height="66pt"
 viewBox="0.00 0.00 436.00 66.00" xmlns="http://www.w3.org/2000/svg" xmlns:xlink="http://www.w3.org/1999/xlink">
<g id="graph0" class="graph" transform="scale(1 1) rotate(0) translate(4 62)">
<title>BitString::splitBlocks</title>
<polygon fill="#ffffff" stroke="transparent" points="-4,4 -4,-62 432,-62 432,4 -4,4"/>
<!-- Node52 -->
<g id="node1" class="node">
<title>Node52</title>
<g id="a_node1"><a xlink:title=" ">
<polygon fill="#bfbfbf" stroke="#000000" points="310,-19.5 310,-38.5 428,-38.5 428,-19.5 310,-19.5"/>
<text text-anchor="middle" x="369" y="-26.5" font-family="Helvetica,sans-Serif" font-size="10.00" fill="#000000">BitString::splitBlocks</text>
</a>
</g>
</g>
<!-- Node53 -->
<g id="node2" class="node">
<title>Node53</title>
<g id="a_node2"><a xlink:href="keccak_8hpp.html#ad2ec31efd2cbbecc017d9c4e61b379f7" target="_top" xlink:title=" ">
<polygon fill="#ffffff" stroke="#000000" points="207,-38.5 207,-57.5 258,-57.5 258,-38.5 207,-38.5"/>
<text text-anchor="middle" x="232.5" y="-45.5" font-family="Helvetica,sans-Serif" font-size="10.00" fill="#000000">keccak</text>
</a>
</g>
</g>
<!-- Node52&#45;&gt;Node53 -->
<g id="edge1" class="edge">
<title>Node52&#45;&gt;Node53</title>
<path fill="none" stroke="#191970" d="M299.6513,-38.6529C284.7803,-40.7229 269.9788,-42.7832 258.072,-44.4405"/>
<polygon fill="#191970" stroke="#191970" points="300.5011,-42.0685 309.923,-37.2232 299.5359,-35.1353 300.5011,-42.0685"/>
</g>
<!-- Node55 -->
<g id="node4" class="node">
<title>Node55</title>
<g id="a_node4"><a xlink:href="classKetje.html#ac4e54ac3a43763223844c3e315012362" target="_top" xlink:title=" ">
<polygon fill="#ffffff" stroke="#000000" points="191,-.5 191,-19.5 274,-19.5 274,-.5 191,-.5"/>
<text text-anchor="middle" x="232.5" y="-7.5" font-family="Helvetica,sans-Serif" font-size="10.00" fill="#000000">Ketje::unwrap</text>
</a>
</g>
</g>
<!-- Node52&#45;&gt;Node55 -->
<g id="edge3" class="edge">
<title>Node52&#45;&gt;Node55</title>
<path fill="none" stroke="#191970" d="M299.7739,-19.3641C291.108,-18.1579 282.4631,-16.9546 274.3981,-15.832"/>
<polygon fill="#191970" stroke="#191970" points="299.5359,-22.8647 309.923,-20.7768 300.5011,-15.9315 299.5359,-22.8647"/>
</g>
<!-- Node54 -->
<g id="node3" class="node">
<title>Node54</title>
<g id="a_node3"><a xlink:href="classHWImplementation.html#abe2799913267791c526580c8f9ae2fac" target="_top" xlink:title=" ">
<polygon fill="#ffffff" stroke="#000000" points="7,-38.5 7,-57.5 148,-57.5 148,-38.5 7,-38.5"/>
<text text-anchor="middle" x="77.5" y="-45.5" font-family="Helvetica,sans-Serif" font-size="10.00" fill="#000000">HWImplementation::hash</text>
</a>
</g>
</g>
<!-- Node53&#45;&gt;Node54 -->
<g id="edge2" class="edge">
<title>Node53&#45;&gt;Node54</title>
<path fill="none" stroke="#191970" d="M196.8982,-48C182.4149,-48 165.1403,-48 148.2917,-48"/>
<polygon fill="#191970" stroke="#191970" points="196.9049,-51.5001 206.9049,-48 196.9049,-44.5001 196.9049,-51.5001"/>
</g>
<!-- Node56 -->
<g id="node5" class="node">
<title>Node56</title>
<g id="a_node5"><a xlink:href="classHWImplementation.html#a9725062c33ebdc296909f65aa22edbca" target="_top" xlink:title=" ">
<polygon fill="#ffffff" stroke="#000000" points="0,-.5 0,-19.5 155,-19.5 155,-.5 0,-.5"/>
<text text-anchor="middle" x="77.5" y="-7.5" font-family="Helvetica,sans-Serif" font-size="10.00" fill="#000000">HWImplementation::decrypt</text>
</a>
</g>
</g>
<!-- Node55&#45;&gt;Node56 -->
<g id="edge4" class="edge">
<title>Node55&#45;&gt;Node56</title>
<path fill="none" stroke="#191970" d="M180.7571,-10C172.4874,-10 163.7762,-10 155.0639,-10"/>
<polygon fill="#191970" stroke="#191970" points="180.9629,-13.5001 190.9628,-10 180.9628,-6.5001 180.9629,-13.5001"/>
</g>
</g>
</svg>
