<?xml version="1.0" encoding="UTF-8" standalone="no"?>
<!DOCTYPE svg PUBLIC "-//W3C//DTD SVG 1.1//EN"
 "http://www.w3.org/Graphics/SVG/1.1/DTD/svg11.dtd">
<!-- Generated by graphviz version 2.40.1 (20161225.0304)
 -->
<!-- Title: CryptoInstruction Pages: 1 -->
<svg width="365pt" height="248pt"
 viewBox="0.00 0.00 365.00 248.00" xmlns="http://www.w3.org/2000/svg" xmlns:xlink="http://www.w3.org/1999/xlink">
<g id="graph0" class="graph" transform="scale(1 1) rotate(0) translate(4 244)">
<title>CryptoInstruction</title>
<polygon fill="#ffffff" stroke="transparent" points="-4,4 -4,-244 361,-244 361,4 -4,4"/>
<!-- Node1 -->
<g id="node1" class="node">
<title>Node1</title>
<g id="a_node1"><a xlink:title=" ">
<polygon fill="#bfbfbf" stroke="#000000" points="116,-.5 116,-123.5 241,-123.5 241,-.5 116,-.5"/>
<text text-anchor="middle" x="178.5" y="-111.5" font-family="Helvetica,sans-Serif" font-size="10.00" fill="#000000">CryptoInstruction</text>
<polyline fill="none" stroke="#000000" points="116,-104.5 241,-104.5 "/>
<text text-anchor="middle" x="178.5" y="-92.5" font-family="Helvetica,sans-Serif" font-size="10.00" fill="#000000"> </text>
<polyline fill="none" stroke="#000000" points="116,-85.5 241,-85.5 "/>
<text text-anchor="start" x="124" y="-73.5" font-family="Helvetica,sans-Serif" font-size="10.00" fill="#000000">+ CryptoInstruction()</text>
<text text-anchor="start" x="124" y="-62.5" font-family="Helvetica,sans-Serif" font-size="10.00" fill="#000000">+ CryptoInstruction()</text>
<text text-anchor="start" x="124" y="-51.5" font-family="Helvetica,sans-Serif" font-size="10.00" fill="#000000">+ CryptoInstruction()</text>
<text text-anchor="start" x="124" y="-40.5" font-family="Helvetica,sans-Serif" font-size="10.00" fill="#000000">+ getInstructionType()</text>
<text text-anchor="start" x="124" y="-29.5" font-family="Helvetica,sans-Serif" font-size="10.00" fill="#000000">+ getXCoordinate()</text>
<text text-anchor="start" x="124" y="-18.5" font-family="Helvetica,sans-Serif" font-size="10.00" fill="#000000">+ getYCoordinate()</text>
<text text-anchor="start" x="124" y="-7.5" font-family="Helvetica,sans-Serif" font-size="10.00" fill="#000000">+ getUnknownData()</text>
</a>
</g>
</g>
<!-- Node2 -->
<g id="node2" class="node">
<title>Node2</title>
<g id="a_node2"><a xlink:href="structCryptoInstruction_1_1UNKNOWN__t.html" target="_top" xlink:title=" ">
<polygon fill="#ffffff" stroke="#000000" points="0,-171.5 0,-239.5 107,-239.5 107,-171.5 0,-171.5"/>
<text text-anchor="start" x="8" y="-227.5" font-family="Helvetica,sans-Serif" font-size="10.00" fill="#000000">CryptoInstruction::</text>
<text text-anchor="middle" x="53.5" y="-216.5" font-family="Helvetica,sans-Serif" font-size="10.00" fill="#000000">UNKNOWN_t</text>
<polyline fill="none" stroke="#000000" points="0,-209.5 107,-209.5 "/>
<text text-anchor="middle" x="53.5" y="-197.5" font-family="Helvetica,sans-Serif" font-size="10.00" fill="#000000"> </text>
<polyline fill="none" stroke="#000000" points="0,-190.5 107,-190.5 "/>
<text text-anchor="middle" x="53.5" y="-178.5" font-family="Helvetica,sans-Serif" font-size="10.00" fill="#000000"> </text>
</a>
</g>
</g>
<!-- Node2&#45;&gt;Node1 -->
<g id="edge1" class="edge">
<title>Node2&#45;&gt;Node1</title>
<path fill="none" stroke="#404040" d="M83.1541,-171.1991C91.355,-161.7305 100.2643,-151.4602 108.5,-142 111.1053,-139.0073 113.7668,-135.953 116.4565,-132.8686"/>
<polygon fill="none" stroke="#404040" points="116.6928,-132.5978 117.6241,-125.4471 124.583,-123.5564 123.6517,-130.7072 116.6928,-132.5978"/>
<text text-anchor="middle" x="141.5" y="-145" font-family="Helvetica,sans-Serif" font-size="10.00" fill="#000000"> +UNKNOWN</text>
</g>
<!-- Node3 -->
<g id="node3" class="node">
<title>Node3</title>
<g id="a_node3"><a xlink:href="structCryptoInstruction_1_1LAND__t.html" target="_top" xlink:title=" ">
<polygon fill="#ffffff" stroke="#000000" points="125,-171.5 125,-239.5 232,-239.5 232,-171.5 125,-171.5"/>
<text text-anchor="start" x="133" y="-227.5" font-family="Helvetica,sans-Serif" font-size="10.00" fill="#000000">CryptoInstruction::</text>
<text text-anchor="middle" x="178.5" y="-216.5" font-family="Helvetica,sans-Serif" font-size="10.00" fill="#000000">LAND_t</text>
<polyline fill="none" stroke="#000000" points="125,-209.5 232,-209.5 "/>
<text text-anchor="middle" x="178.5" y="-197.5" font-family="Helvetica,sans-Serif" font-size="10.00" fill="#000000"> </text>
<polyline fill="none" stroke="#000000" points="125,-190.5 232,-190.5 "/>
<text text-anchor="middle" x="178.5" y="-178.5" font-family="Helvetica,sans-Serif" font-size="10.00" fill="#000000"> </text>
</a>
</g>
</g>
<!-- Node3&#45;&gt;Node1 -->
<g id="edge2" class="edge">
<title>Node3&#45;&gt;Node1</title>
<path fill="none" stroke="#404040" d="M178.5,-171.4925C178.5,-160.6267 178.5,-148.1465 178.5,-135.5911"/>
<polygon fill="none" stroke="#404040" points="178.5001,-135.5807 174.5,-129.5807 178.5,-123.5807 182.5,-129.5806 178.5001,-135.5807"/>
<text text-anchor="middle" x="198" y="-145" font-family="Helvetica,sans-Serif" font-size="10.00" fill="#000000"> +LAND</text>
</g>
<!-- Node4 -->
<g id="node4" class="node">
<title>Node4</title>
<g id="a_node4"><a xlink:href="structCryptoInstruction_1_1GOTO__t.html" target="_top" xlink:title=" ">
<polygon fill="#ffffff" stroke="#000000" points="250,-171.5 250,-239.5 357,-239.5 357,-171.5 250,-171.5"/>
<text text-anchor="start" x="258" y="-227.5" font-family="Helvetica,sans-Serif" font-size="10.00" fill="#000000">CryptoInstruction::</text>
<text text-anchor="middle" x="303.5" y="-216.5" font-family="Helvetica,sans-Serif" font-size="10.00" fill="#000000">GOTO_t</text>
<polyline fill="none" stroke="#000000" points="250,-209.5 357,-209.5 "/>
<text text-anchor="middle" x="303.5" y="-197.5" font-family="Helvetica,sans-Serif" font-size="10.00" fill="#000000"> </text>
<polyline fill="none" stroke="#000000" points="250,-190.5 357,-190.5 "/>
<text text-anchor="middle" x="303.5" y="-178.5" font-family="Helvetica,sans-Serif" font-size="10.00" fill="#000000"> </text>
</a>
</g>
</g>
<!-- Node4&#45;&gt;Node1 -->
<g id="edge3" class="edge">
<title>Node4&#45;&gt;Node1</title>
<path fill="none" stroke="#404040" d="M273.8767,-171.4925C263.7287,-159.8426 251.9642,-146.3369 240.2355,-132.8724"/>
<polygon fill="none" stroke="#404040" points="240.0237,-132.6292 233.0665,-130.7322 232.1417,-123.5807 239.0989,-125.4776 240.0237,-132.6292"/>
<text text-anchor="middle" x="275.5" y="-145" font-family="Helvetica,sans-Serif" font-size="10.00" fill="#000000"> +GOTO</text>
</g>
</g>
</svg>
