<?xml version="1.0" encoding="UTF-8" standalone="no"?>
<!DOCTYPE svg PUBLIC "-//W3C//DTD SVG 1.1//EN"
 "http://www.w3.org/Graphics/SVG/1.1/DTD/svg11.dtd">
<!-- Generated by graphviz version 2.40.1 (20161225.0304)
 -->
<!-- Title: HWImplementation Pages: 1 -->
<svg width="135pt" height="182pt"
 viewBox="0.00 0.00 135.00 182.00" xmlns="http://www.w3.org/2000/svg" xmlns:xlink="http://www.w3.org/1999/xlink">
<g id="graph0" class="graph" transform="scale(1 1) rotate(0) translate(4 178)">
<title>HWImplementation</title>
<polygon fill="#ffffff" stroke="transparent" points="-4,4 -4,-178 131,-178 131,4 -4,4"/>
<!-- Node0 -->
<g id="node1" class="node">
<title>Node0</title>
<g id="a_node1"><a xlink:title=" ">
<polygon fill="#bfbfbf" stroke="#000000" points="7.5,-.5 7.5,-68.5 119.5,-68.5 119.5,-.5 7.5,-.5"/>
<text text-anchor="middle" x="63.5" y="-56.5" font-family="Helvetica,sans-Serif" font-size="10.00" fill="#000000">HWImplementation</text>
<polyline fill="none" stroke="#000000" points="7.5,-49.5 119.5,-49.5 "/>
<text text-anchor="middle" x="63.5" y="-37.5" font-family="Helvetica,sans-Serif" font-size="10.00" fill="#000000"> </text>
<polyline fill="none" stroke="#000000" points="7.5,-30.5 119.5,-30.5 "/>
<text text-anchor="start" x="15.5" y="-18.5" font-family="Helvetica,sans-Serif" font-size="10.00" fill="#000000">+ hash()</text>
<text text-anchor="start" x="15.5" y="-7.5" font-family="Helvetica,sans-Serif" font-size="10.00" fill="#000000">+ decrypt()</text>
</a>
</g>
</g>
<!-- Node1 -->
<g id="node2" class="node">
<title>Node1</title>
<g id="a_node2"><a xlink:href="classCryptoImplementation.html" target="_top" xlink:title=" ">
<polygon fill="#ffffff" stroke="#000000" points="0,-105.5 0,-173.5 127,-173.5 127,-105.5 0,-105.5"/>
<text text-anchor="middle" x="63.5" y="-161.5" font-family="Helvetica,sans-Serif" font-size="10.00" fill="#000000">CryptoImplementation</text>
<polyline fill="none" stroke="#000000" points="0,-154.5 127,-154.5 "/>
<text text-anchor="middle" x="63.5" y="-142.5" font-family="Helvetica,sans-Serif" font-size="10.00" fill="#000000"> </text>
<polyline fill="none" stroke="#000000" points="0,-135.5 127,-135.5 "/>
<text text-anchor="start" x="8" y="-123.5" font-family="Helvetica,sans-Serif" font-size="10.00" fill="#000000">+ hash()</text>
<text text-anchor="start" x="8" y="-112.5" font-family="Helvetica,sans-Serif" font-size="10.00" fill="#000000">+ decrypt()</text>
</a>
</g>
</g>
<!-- Node1&#45;&gt;Node0 -->
<g id="edge1" class="edge">
<title>Node1&#45;&gt;Node0</title>
<path fill="none" stroke="#191970" d="M63.5,-95.2353C63.5,-86.3902 63.5,-77.2253 63.5,-68.7788"/>
<polygon fill="none" stroke="#191970" points="60.0001,-95.4095 63.5,-105.4095 67.0001,-95.4095 60.0001,-95.4095"/>
</g>
</g>
</svg>
