<?xml version="1.0" encoding="UTF-8" standalone="no"?>
<!DOCTYPE svg PUBLIC "-//W3C//DTD SVG 1.1//EN"
 "http://www.w3.org/Graphics/SVG/1.1/DTD/svg11.dtd">
<!-- Generated by graphviz version 2.40.1 (20161225.0304)
 -->
<!-- Title: GridFinder::drawLine Pages: 1 -->
<svg width="607pt" height="131pt"
 viewBox="0.00 0.00 607.00 131.25" xmlns="http://www.w3.org/2000/svg" xmlns:xlink="http://www.w3.org/1999/xlink">
<g id="graph0" class="graph" transform="scale(1 1) rotate(0) translate(4 127.2525)">
<title>GridFinder::drawLine</title>
<polygon fill="#ffffff" stroke="transparent" points="-4,4 -4,-127.2525 603,-127.2525 603,4 -4,4"/>
<!-- Node38 -->
<g id="node1" class="node">
<title>Node38</title>
<g id="a_node1"><a xlink:title="Draw a line on the mask. Used only for testing.">
<polygon fill="#bfbfbf" stroke="#000000" points="0,-69 0,-88 116,-88 116,-69 0,-69"/>
<text text-anchor="middle" x="58" y="-76" font-family="Helvetica,sans-Serif" font-size="10.00" fill="#000000">GridFinder::drawLine</text>
</a>
</g>
</g>
<!-- Node39 -->
<g id="node2" class="node">
<title>Node39</title>
<g id="a_node2"><a xlink:href="classBresenhamLine.html#aba0822ee20811d67cd9539ccbe1cd346" target="_top" xlink:title=" ">
<polygon fill="#ffffff" stroke="#000000" points="338,-88 338,-107 477,-107 477,-88 338,-88"/>
<text text-anchor="middle" x="407.5" y="-95" font-family="Helvetica,sans-Serif" font-size="10.00" fill="#000000">BresenhamLine::hasNext</text>
</a>
</g>
</g>
<!-- Node38&#45;&gt;Node39 -->
<g id="edge1" class="edge">
<title>Node38&#45;&gt;Node39</title>
<path fill="none" stroke="#191970" d="M75.7341,-88.08C94.1741,-97.4547 124.1812,-111.0897 152,-116.5 222.4051,-130.1926 305.4865,-119.0974 357.3416,-109.0087"/>
<polygon fill="#191970" stroke="#191970" points="358.1683,-112.4126 367.2833,-107.012 356.7899,-105.5497 358.1683,-112.4126"/>
</g>
<!-- Node41 -->
<g id="node4" class="node">
<title>Node41</title>
<g id="a_node4"><a xlink:href="classGridFinder.html#a376419f000b3be1e8db278726a2efbc1" target="_top" xlink:title="Set the value of the given pixel.">
<polygon fill="#ffffff" stroke="#000000" points="183.5,-50 183.5,-69 270.5,-69 270.5,-50 183.5,-50"/>
<text text-anchor="middle" x="227" y="-57" font-family="Helvetica,sans-Serif" font-size="10.00" fill="#000000">GridFinder::set</text>
</a>
</g>
</g>
<!-- Node38&#45;&gt;Node41 -->
<g id="edge3" class="edge">
<title>Node38&#45;&gt;Node41</title>
<path fill="none" stroke="#191970" d="M116.1602,-71.9613C134.6837,-69.8788 155.0834,-67.5853 173.2781,-65.5397"/>
<polygon fill="#191970" stroke="#191970" points="173.8719,-68.9951 183.4182,-64.3997 173.0898,-62.0389 173.8719,-68.9951"/>
</g>
<!-- Node43 -->
<g id="node6" class="node">
<title>Node43</title>
<g id="a_node6"><a xlink:href="classBresenhamLine.html#a10d505e30945f42a5cd0270c315b104f" target="_top" xlink:title=" ">
<polygon fill="#ffffff" stroke="#000000" points="167,-88 167,-107 287,-107 287,-88 167,-88"/>
<text text-anchor="middle" x="227" y="-95" font-family="Helvetica,sans-Serif" font-size="10.00" fill="#000000">BresenhamLine::next</text>
</a>
</g>
</g>
<!-- Node38&#45;&gt;Node43 -->
<g id="edge6" class="edge">
<title>Node38&#45;&gt;Node43</title>
<path fill="none" stroke="#191970" d="M116.1602,-85.0387C129.1708,-86.5015 143.1071,-88.0683 156.5548,-89.5801"/>
<polygon fill="#191970" stroke="#191970" points="156.3912,-93.0837 166.7196,-90.7229 157.1733,-86.1275 156.3912,-93.0837"/>
</g>
<!-- Node44 -->
<g id="node7" class="node">
<title>Node44</title>
<g id="a_node7"><a xlink:href="classBresenhamLine.html#ad93a4adf0535a9b4e649bce5ade1bc5e" target="_top" xlink:title=" ">
<polygon fill="#ffffff" stroke="#000000" points="152,-.5 152,-30.5 302,-30.5 302,-.5 152,-.5"/>
<text text-anchor="start" x="160" y="-18.5" font-family="Helvetica,sans-Serif" font-size="10.00" fill="#000000">BresenhamLine::getCurrent</text>
<text text-anchor="middle" x="227" y="-7.5" font-family="Helvetica,sans-Serif" font-size="10.00" fill="#000000">Length</text>
</a>
</g>
</g>
<!-- Node38&#45;&gt;Node44 -->
<g id="edge8" class="edge">
<title>Node38&#45;&gt;Node44</title>
<path fill="none" stroke="#191970" d="M80.639,-68.8854C99.5834,-60.9518 127.3891,-49.5663 152,-40.5 158.0008,-38.2894 164.3018,-36.0553 170.5948,-33.8795"/>
<polygon fill="#191970" stroke="#191970" points="172.1005,-37.0638 180.433,-30.5202 169.8385,-30.4394 172.1005,-37.0638"/>
</g>
<!-- Node40 -->
<g id="node3" class="node">
<title>Node40</title>
<g id="a_node3"><a xlink:href="structPixel.html#a816d743559e2ac5b35c9c79ac517ad0a" target="_top" xlink:title=" ">
<polygon fill="#ffffff" stroke="#000000" points="513,-69 513,-88 599,-88 599,-69 513,-69"/>
<text text-anchor="middle" x="556" y="-76" font-family="Helvetica,sans-Serif" font-size="10.00" fill="#000000">Pixel::inRange</text>
</a>
</g>
</g>
<!-- Node39&#45;&gt;Node40 -->
<g id="edge2" class="edge">
<title>Node39&#45;&gt;Node40</title>
<path fill="none" stroke="#191970" d="M477.4016,-88.5564C485.8647,-87.4735 494.4033,-86.3811 502.5758,-85.3354"/>
<polygon fill="#191970" stroke="#191970" points="503.2235,-88.7812 512.6984,-84.0403 502.335,-81.8378 503.2235,-88.7812"/>
</g>
<!-- Node42 -->
<g id="node5" class="node">
<title>Node42</title>
<g id="a_node5"><a xlink:href="classMask.html#abd2577692522262d25fcaae6620582e3" target="_top" xlink:title="Set the value of the mask at the given location.">
<polygon fill="#ffffff" stroke="#000000" points="376,-50 376,-69 439,-69 439,-50 376,-50"/>
<text text-anchor="middle" x="407.5" y="-57" font-family="Helvetica,sans-Serif" font-size="10.00" fill="#000000">Mask::set</text>
</a>
</g>
</g>
<!-- Node41&#45;&gt;Node42 -->
<g id="edge4" class="edge">
<title>Node41&#45;&gt;Node42</title>
<path fill="none" stroke="#191970" d="M270.694,-59.5C299.5932,-59.5 337.2626,-59.5 365.7554,-59.5"/>
<polygon fill="#191970" stroke="#191970" points="365.8043,-63.0001 375.8043,-59.5 365.8042,-56.0001 365.8043,-63.0001"/>
</g>
<!-- Node42&#45;&gt;Node40 -->
<g id="edge5" class="edge">
<title>Node42&#45;&gt;Node40</title>
<path fill="none" stroke="#191970" d="M439.357,-63.576C457.8131,-65.9374 481.5245,-68.9712 502.7436,-71.6861"/>
<polygon fill="#191970" stroke="#191970" points="502.5628,-75.1914 512.9261,-72.9889 503.4512,-68.248 502.5628,-75.1914"/>
</g>
<!-- Node43&#45;&gt;Node39 -->
<g id="edge7" class="edge">
<title>Node43&#45;&gt;Node39</title>
<path fill="none" stroke="#191970" d="M287.1039,-97.5C300.0978,-97.5 314.0336,-97.5 327.6494,-97.5"/>
<polygon fill="#191970" stroke="#191970" points="327.9783,-101.0001 337.9782,-97.5 327.9782,-94.0001 327.9783,-101.0001"/>
</g>
</g>
</svg>
