<?xml version="1.0" encoding="UTF-8" standalone="no"?>
<!DOCTYPE svg PUBLIC "-//W3C//DTD SVG 1.1//EN"
 "http://www.w3.org/Graphics/SVG/1.1/DTD/svg11.dtd">
<!-- Generated by graphviz version 2.40.1 (20161225.0304)
 -->
<!-- Title: GridFinder::getFirstTwoHalfLines Pages: 1 -->
<svg width="514pt" height="103pt"
 viewBox="0.00 0.00 514.00 102.50" xmlns="http://www.w3.org/2000/svg" xmlns:xlink="http://www.w3.org/1999/xlink">
<g id="graph0" class="graph" transform="scale(1 1) rotate(0) translate(4 98.5)">
<title>GridFinder::getFirstTwoHalfLines</title>
<polygon fill="#ffffff" stroke="transparent" points="-4,4 -4,-98.5 510,-98.5 510,4 -4,4"/>
<!-- Node182 -->
<g id="node1" class="node">
<title>Node182</title>
<g id="a_node1"><a xlink:title="Get the first two lines. These are the two half lines that make up the line closest to the center of ...">
<polygon fill="#bfbfbf" stroke="#000000" points="0,-17 0,-47 147,-47 147,-17 0,-17"/>
<text text-anchor="start" x="8" y="-35" font-family="Helvetica,sans-Serif" font-size="10.00" fill="#000000">GridFinder::getFirstTwoHalf</text>
<text text-anchor="middle" x="73.5" y="-24" font-family="Helvetica,sans-Serif" font-size="10.00" fill="#000000">Lines</text>
</a>
</g>
</g>
<!-- Node183 -->
<g id="node2" class="node">
<title>Node183</title>
<g id="a_node2"><a xlink:href="classGridFinder.html#a0de487d16731e34827c6dbc08c0eeb1b" target="_top" xlink:title="Get an estimate of the first line. Searches in multiple columns, starting from the center,...">
<polygon fill="#ffffff" stroke="#000000" points="189,-39 189,-69 317,-69 317,-39 189,-39"/>
<text text-anchor="start" x="197" y="-57" font-family="Helvetica,sans-Serif" font-size="10.00" fill="#000000">GridFinder::getFirstLine</text>
<text text-anchor="middle" x="253" y="-46" font-family="Helvetica,sans-Serif" font-size="10.00" fill="#000000">Estimate</text>
</a>
</g>
</g>
<!-- Node182&#45;&gt;Node183 -->
<g id="edge1" class="edge">
<title>Node182&#45;&gt;Node183</title>
<path fill="none" stroke="#191970" d="M147.0274,-41.0117C157.5194,-42.2976 168.3174,-43.6211 178.8218,-44.9085"/>
<polygon fill="#191970" stroke="#191970" points="178.432,-48.3869 188.7835,-46.1295 179.2836,-41.4388 178.432,-48.3869"/>
</g>
<!-- Node186 -->
<g id="node5" class="node">
<title>Node186</title>
<g id="a_node5"><a xlink:href="classAngle.html#a84ce9a0e2a186ada6997077fd96d6e4c" target="_top" xlink:title=" ">
<polygon fill="#ffffff" stroke="#000000" points="183,-.5 183,-19.5 323,-19.5 323,-.5 183,-.5"/>
<text text-anchor="middle" x="253" y="-7.5" font-family="Helvetica,sans-Serif" font-size="10.00" fill="#000000">Angle&lt; 360 &gt;::resolution</text>
</a>
</g>
</g>
<!-- Node182&#45;&gt;Node186 -->
<g id="edge4" class="edge">
<title>Node182&#45;&gt;Node186</title>
<path fill="none" stroke="#191970" d="M147.0274,-22.9883C155.5173,-21.9477 164.2074,-20.8827 172.7803,-19.8319"/>
<polygon fill="#191970" stroke="#191970" points="173.2712,-23.2981 182.7711,-18.6074 172.4196,-16.35 173.2712,-23.2981"/>
</g>
<!-- Node184 -->
<g id="node3" class="node">
<title>Node184</title>
<g id="a_node3"><a xlink:href="classCenterPointOutLineIterator.html#a6f4fda8865e7d1def0a8614622f0f6ef" target="_top" xlink:title=" ">
<polygon fill="#ffffff" stroke="#000000" points="359,-64 359,-94 506,-94 506,-64 359,-64"/>
<text text-anchor="start" x="367" y="-82" font-family="Helvetica,sans-Serif" font-size="10.00" fill="#000000">CenterPointOutLineIterator</text>
<text text-anchor="middle" x="432.5" y="-71" font-family="Helvetica,sans-Serif" font-size="10.00" fill="#000000">::hasNext</text>
</a>
</g>
</g>
<!-- Node183&#45;&gt;Node184 -->
<g id="edge2" class="edge">
<title>Node183&#45;&gt;Node184</title>
<path fill="none" stroke="#191970" d="M317.0434,-62.9197C327.3438,-64.3543 338.1375,-65.8576 348.8162,-67.3449"/>
<polygon fill="#191970" stroke="#191970" points="348.6121,-70.8502 358.9994,-68.7631 349.5778,-63.9171 348.6121,-70.8502"/>
</g>
<!-- Node185 -->
<g id="node4" class="node">
<title>Node185</title>
<g id="a_node4"><a xlink:href="classCenterPointOutLineIterator.html#a89580e1393d0dfc3ff12c7a5af2a4374" target="_top" xlink:title=" ">
<polygon fill="#ffffff" stroke="#000000" points="359,-15 359,-45 506,-45 506,-15 359,-15"/>
<text text-anchor="start" x="367" y="-33" font-family="Helvetica,sans-Serif" font-size="10.00" fill="#000000">CenterPointOutLineIterator</text>
<text text-anchor="middle" x="432.5" y="-22" font-family="Helvetica,sans-Serif" font-size="10.00" fill="#000000">::next</text>
</a>
</g>
</g>
<!-- Node183&#45;&gt;Node185 -->
<g id="edge3" class="edge">
<title>Node183&#45;&gt;Node185</title>
<path fill="none" stroke="#191970" d="M317.0434,-45.4371C327.3438,-44.0599 338.1375,-42.6167 348.8162,-41.1889"/>
<polygon fill="#191970" stroke="#191970" points="349.5515,-44.6218 358.9994,-39.8274 348.6237,-37.6836 349.5515,-44.6218"/>
</g>
</g>
</svg>
