<?xml version="1.0" encoding="UTF-8" standalone="no"?>
<!DOCTYPE svg PUBLIC "-//W3C//DTD SVG 1.1//EN"
 "http://www.w3.org/Graphics/SVG/1.1/DTD/svg11.dtd">
<!-- Generated by graphviz version 2.40.1 (20161225.0304)
 -->
<!-- Title: GridFinder::move Pages: 1 -->
<svg width="591pt" height="94pt"
 viewBox="0.00 0.00 591.00 93.63" xmlns="http://www.w3.org/2000/svg" xmlns:xlink="http://www.w3.org/1999/xlink">
<g id="graph0" class="graph" transform="scale(1 1) rotate(0) translate(4 89.6339)">
<title>GridFinder::move</title>
<polygon fill="#ffffff" stroke="transparent" points="-4,4 -4,-89.6339 587,-89.6339 587,4 -4,4"/>
<!-- Node252 -->
<g id="node1" class="node">
<title>Node252</title>
<g id="a_node1"><a xlink:title="Move a pixel in a given direction for a given distance.">
<polygon fill="#bfbfbf" stroke="#000000" points="0,-44.5 0,-63.5 100,-63.5 100,-44.5 0,-44.5"/>
<text text-anchor="middle" x="50" y="-51.5" font-family="Helvetica,sans-Serif" font-size="10.00" fill="#000000">GridFinder::move</text>
</a>
</g>
</g>
<!-- Node253 -->
<g id="node2" class="node">
<title>Node253</title>
<g id="a_node2"><a xlink:href="classBresenhamLine.html#aba0822ee20811d67cd9539ccbe1cd346" target="_top" xlink:title=" ">
<polygon fill="#ffffff" stroke="#000000" points="322,-44.5 322,-63.5 461,-63.5 461,-44.5 322,-44.5"/>
<text text-anchor="middle" x="391.5" y="-51.5" font-family="Helvetica,sans-Serif" font-size="10.00" fill="#000000">BresenhamLine::hasNext</text>
</a>
</g>
</g>
<!-- Node252&#45;&gt;Node253 -->
<g id="edge1" class="edge">
<title>Node252&#45;&gt;Node253</title>
<path fill="none" stroke="#191970" d="M75.9248,-63.6204C92.777,-69.3507 115.3729,-76.0627 136,-79 202.0008,-88.3986 219.784,-86.7384 286,-79 307.3338,-76.5068 330.6102,-71.2692 349.8586,-66.229"/>
<polygon fill="#191970" stroke="#191970" points="350.7789,-69.6059 359.5255,-63.6269 348.9594,-62.8465 350.7789,-69.6059"/>
</g>
<!-- Node255 -->
<g id="node4" class="node">
<title>Node255</title>
<g id="a_node4"><a xlink:href="classBresenhamLine.html#ad93a4adf0535a9b4e649bce5ade1bc5e" target="_top" xlink:title=" ">
<polygon fill="#ffffff" stroke="#000000" points="136,-39 136,-69 286,-69 286,-39 136,-39"/>
<text text-anchor="start" x="144" y="-57" font-family="Helvetica,sans-Serif" font-size="10.00" fill="#000000">BresenhamLine::getCurrent</text>
<text text-anchor="middle" x="211" y="-46" font-family="Helvetica,sans-Serif" font-size="10.00" fill="#000000">Length</text>
</a>
</g>
</g>
<!-- Node252&#45;&gt;Node255 -->
<g id="edge3" class="edge">
<title>Node252&#45;&gt;Node255</title>
<path fill="none" stroke="#191970" d="M100.0589,-54C108.2195,-54 116.8696,-54 125.5969,-54"/>
<polygon fill="#191970" stroke="#191970" points="125.8527,-57.5001 135.8526,-54 125.8526,-50.5001 125.8527,-57.5001"/>
</g>
<!-- Node256 -->
<g id="node5" class="node">
<title>Node256</title>
<g id="a_node5"><a xlink:href="classBresenhamLine.html#a10d505e30945f42a5cd0270c315b104f" target="_top" xlink:title=" ">
<polygon fill="#ffffff" stroke="#000000" points="151,-.5 151,-19.5 271,-19.5 271,-.5 151,-.5"/>
<text text-anchor="middle" x="211" y="-7.5" font-family="Helvetica,sans-Serif" font-size="10.00" fill="#000000">BresenhamLine::next</text>
</a>
</g>
</g>
<!-- Node252&#45;&gt;Node256 -->
<g id="edge4" class="edge">
<title>Node252&#45;&gt;Node256</title>
<path fill="none" stroke="#191970" d="M83.8771,-44.4487C99.7013,-40.0122 118.8025,-34.6925 136,-30 145.3594,-27.4462 155.386,-24.7471 164.9645,-22.1863"/>
<polygon fill="#191970" stroke="#191970" points="165.977,-25.5387 174.7372,-19.5797 164.1729,-18.7752 165.977,-25.5387"/>
</g>
<!-- Node254 -->
<g id="node3" class="node">
<title>Node254</title>
<g id="a_node3"><a xlink:href="structPixel.html#a816d743559e2ac5b35c9c79ac517ad0a" target="_top" xlink:title=" ">
<polygon fill="#ffffff" stroke="#000000" points="497,-44.5 497,-63.5 583,-63.5 583,-44.5 497,-44.5"/>
<text text-anchor="middle" x="540" y="-51.5" font-family="Helvetica,sans-Serif" font-size="10.00" fill="#000000">Pixel::inRange</text>
</a>
</g>
</g>
<!-- Node253&#45;&gt;Node254 -->
<g id="edge2" class="edge">
<title>Node253&#45;&gt;Node254</title>
<path fill="none" stroke="#191970" d="M461.4016,-54C469.8647,-54 478.4033,-54 486.5758,-54"/>
<polygon fill="#191970" stroke="#191970" points="486.6984,-57.5001 496.6984,-54 486.6984,-50.5001 486.6984,-57.5001"/>
</g>
<!-- Node256&#45;&gt;Node253 -->
<g id="edge5" class="edge">
<title>Node256&#45;&gt;Node253</title>
<path fill="none" stroke="#191970" d="M250.1658,-19.5473C277.2485,-26.1492 313.4825,-34.9819 342.4818,-42.051"/>
<polygon fill="#191970" stroke="#191970" points="341.8662,-45.5033 352.4106,-44.4713 343.5241,-38.7025 341.8662,-45.5033"/>
</g>
</g>
</svg>
