<?xml version="1.0" encoding="UTF-8" standalone="no"?>
<!DOCTYPE svg PUBLIC "-//W3C//DTD SVG 1.1//EN"
 "http://www.w3.org/Graphics/SVG/1.1/DTD/svg11.dtd">
<!-- Generated by graphviz version 2.40.1 (20161225.0304)
 -->
<!-- Title: BresenhamLine::getCurrentLength Pages: 1 -->
<svg width="1225pt" height="292pt"
 viewBox="0.00 0.00 1225.00 291.50" xmlns="http://www.w3.org/2000/svg" xmlns:xlink="http://www.w3.org/1999/xlink">
<g id="graph0" class="graph" transform="scale(1 1) rotate(0) translate(4 287.5)">
<title>BresenhamLine::getCurrentLength</title>
<polygon fill="#ffffff" stroke="transparent" points="-4,4 -4,-287.5 1221,-287.5 1221,4 -4,4"/>
<!-- Node10 -->
<g id="node1" class="node">
<title>Node10</title>
<g id="a_node1"><a xlink:title=" ">
<polygon fill="#bfbfbf" stroke="#000000" points="1067,-61 1067,-91 1217,-91 1217,-61 1067,-61"/>
<text text-anchor="start" x="1075" y="-79" font-family="Helvetica,sans-Serif" font-size="10.00" fill="#000000">BresenhamLine::getCurrent</text>
<text text-anchor="middle" x="1142" y="-68" font-family="Helvetica,sans-Serif" font-size="10.00" fill="#000000">Length</text>
</a>
</g>
</g>
<!-- Node11 -->
<g id="node2" class="node">
<title>Node11</title>
<g id="a_node2"><a xlink:href="classGridFinder.html#ace2c24a54244e7e92618d3fe7ec62fdc" target="_top" xlink:title="Starting from the given pixel, move in the direction of the given angle, and count the number of whit...">
<polygon fill="#ffffff" stroke="#000000" points="904,-187.5 904,-206.5 1006,-206.5 1006,-187.5 904,-187.5"/>
<text text-anchor="middle" x="955" y="-194.5" font-family="Helvetica,sans-Serif" font-size="10.00" fill="#000000">GridFinder::hough</text>
</a>
</g>
</g>
<!-- Node10&#45;&gt;Node11 -->
<g id="edge1" class="edge">
<title>Node10&#45;&gt;Node11</title>
<path fill="none" stroke="#191970" d="M1110.1923,-96.5815C1069.3683,-122.997 1000.2063,-167.7489 969.9365,-187.3352"/>
<polygon fill="#191970" stroke="#191970" points="1112.2001,-99.4511 1118.6944,-91.0801 1108.3973,-93.5741 1112.2001,-99.4511"/>
</g>
<!-- Node16 -->
<g id="node7" class="node">
<title>Node16</title>
<g id="a_node7"><a xlink:href="classGridFinder.html#ab5c436911deb269a22a8d5525271fa4e" target="_top" xlink:title="Get the width of the line at a given point.">
<polygon fill="#ffffff" stroke="#000000" points="879,-39 879,-69 1031,-69 1031,-39 879,-39"/>
<text text-anchor="start" x="887" y="-57" font-family="Helvetica,sans-Serif" font-size="10.00" fill="#000000">GridFinder::getWidthAtPoint</text>
<text text-anchor="middle" x="955" y="-46" font-family="Helvetica,sans-Serif" font-size="10.00" fill="#000000">OnLine</text>
</a>
</g>
</g>
<!-- Node10&#45;&gt;Node16 -->
<g id="edge6" class="edge">
<title>Node10&#45;&gt;Node16</title>
<path fill="none" stroke="#191970" d="M1056.7372,-65.9691C1048.1579,-64.9598 1039.4854,-63.9395 1031.0116,-62.9425"/>
<polygon fill="#191970" stroke="#191970" points="1056.4078,-69.4544 1066.7483,-67.1469 1057.2257,-62.5023 1056.4078,-69.4544"/>
</g>
<!-- Node24 -->
<g id="node15" class="node">
<title>Node24</title>
<g id="a_node15"><a xlink:href="classGridFinder.html#a3b5caee289831bd2207db3ec542be2b0" target="_top" xlink:title="Draw a line on the mask. Used only for testing.">
<polygon fill="#ffffff" stroke="#000000" points="897,-.5 897,-19.5 1013,-19.5 1013,-.5 897,-.5"/>
<text text-anchor="middle" x="955" y="-7.5" font-family="Helvetica,sans-Serif" font-size="10.00" fill="#000000">GridFinder::drawLine</text>
</a>
</g>
</g>
<!-- Node10&#45;&gt;Node24 -->
<g id="edge15" class="edge">
<title>Node10&#45;&gt;Node24</title>
<path fill="none" stroke="#191970" d="M1100.8458,-56.7668C1080.1787,-47.5749 1054.5787,-36.8859 1031,-29 1020.5524,-25.5058 1009.1076,-22.3206 998.3426,-19.5987"/>
<polygon fill="#191970" stroke="#191970" points="1099.4136,-59.9603 1109.9694,-60.8693 1102.2844,-53.576 1099.4136,-59.9603"/>
</g>
<!-- Node25 -->
<g id="node16" class="node">
<title>Node25</title>
<g id="a_node16"><a xlink:href="classGridFinder.html#af8bdc28d95e295618c2f345f2d7eb758" target="_top" xlink:title="Move a pixel in a given direction for a given distance.">
<polygon fill="#ffffff" stroke="#000000" points="905,-88.5 905,-107.5 1005,-107.5 1005,-88.5 905,-88.5"/>
<text text-anchor="middle" x="955" y="-95.5" font-family="Helvetica,sans-Serif" font-size="10.00" fill="#000000">GridFinder::move</text>
</a>
</g>
</g>
<!-- Node10&#45;&gt;Node25 -->
<g id="edge16" class="edge">
<title>Node10&#45;&gt;Node25</title>
<path fill="none" stroke="#191970" d="M1056.4767,-86.0616C1038.9252,-88.1264 1020.9961,-90.2358 1005.1875,-92.0956"/>
<polygon fill="#191970" stroke="#191970" points="1057.2257,-89.4977 1066.7483,-84.8531 1056.4078,-82.5456 1057.2257,-89.4977"/>
</g>
<!-- Node12 -->
<g id="node3" class="node">
<title>Node12</title>
<g id="a_node3"><a xlink:href="classGridFinder.html#a04e1362c95151ac77477844a952af0f9" target="_top" xlink:title="Scan 360° around a given pixel, and find the angle with the most white pixels. This version is not ve...">
<polygon fill="#ffffff" stroke="#000000" points="528.5,-170.5 528.5,-189.5 666.5,-189.5 666.5,-170.5 528.5,-170.5"/>
<text text-anchor="middle" x="597.5" y="-177.5" font-family="Helvetica,sans-Serif" font-size="10.00" fill="#000000">GridFinder::findLineAngle</text>
</a>
</g>
</g>
<!-- Node11&#45;&gt;Node12 -->
<g id="edge2" class="edge">
<title>Node11&#45;&gt;Node12</title>
<path fill="none" stroke="#191970" d="M893.5806,-194.0794C830.5033,-191.0799 732.5089,-186.42 666.7226,-183.2917"/>
<polygon fill="#191970" stroke="#191970" points="893.624,-197.5853 903.779,-194.5643 893.9565,-190.5932 893.624,-197.5853"/>
</g>
<!-- Node14 -->
<g id="node5" class="node">
<title>Node14</title>
<g id="a_node5"><a xlink:href="classGridFinder.html#af44b4862dc3f8c725e8ea3739b33c2e6" target="_top" xlink:title=" ">
<polygon fill="#ffffff" stroke="#000000" points="705,-253 705,-283 843,-283 843,-253 705,-253"/>
<text text-anchor="start" x="713" y="-271" font-family="Helvetica,sans-Serif" font-size="10.00" fill="#000000">GridFinder::findLineAngle</text>
<text text-anchor="middle" x="774" y="-260" font-family="Helvetica,sans-Serif" font-size="10.00" fill="#000000">Accurate</text>
</a>
</g>
</g>
<!-- Node11&#45;&gt;Node14 -->
<g id="edge4" class="edge">
<title>Node11&#45;&gt;Node14</title>
<path fill="none" stroke="#191970" d="M923.9497,-210.6456C901.5868,-220.322 870.6148,-233.4152 843,-244 835.1837,-246.996 826.8114,-250.0424 818.6893,-252.9141"/>
<polygon fill="#191970" stroke="#191970" points="925.4971,-213.7894 933.2732,-206.5934 922.7069,-207.3695 925.4971,-213.7894"/>
</g>
<!-- Node15 -->
<g id="node6" class="node">
<title>Node15</title>
<g id="a_node6"><a xlink:href="classGridFinder.html#afcc1eed83ee0292966c3c80883069634" target="_top" xlink:title="Similar to findLineAngle, but is more accurate, because it uses the average of the range of angles wi...">
<polygon fill="#ffffff" stroke="#000000" points="705,-204 705,-234 843,-234 843,-204 705,-204"/>
<text text-anchor="start" x="713" y="-222" font-family="Helvetica,sans-Serif" font-size="10.00" fill="#000000">GridFinder::findLineAngle</text>
<text text-anchor="middle" x="774" y="-211" font-family="Helvetica,sans-Serif" font-size="10.00" fill="#000000">AccurateRange</text>
</a>
</g>
</g>
<!-- Node11&#45;&gt;Node15 -->
<g id="edge5" class="edge">
<title>Node11&#45;&gt;Node15</title>
<path fill="none" stroke="#191970" d="M893.23,-204.508C877.0881,-206.47 859.5857,-208.5973 843.09,-210.6023"/>
<polygon fill="#191970" stroke="#191970" points="894.1122,-207.9266 903.6168,-203.2455 893.2675,-200.9777 894.1122,-207.9266"/>
</g>
<!-- Node13 -->
<g id="node4" class="node">
<title>Node13</title>
<g id="a_node4"><a xlink:href="classGridFinder.html#aaea3af418ab7124f2b25bcc124fccaca" target="_top" xlink:title="Get an estimate of the line through a given pixel. Find an estimate of the slope, then use that to de...">
<polygon fill="#ffffff" stroke="#000000" points="359,-130 359,-160 487,-160 487,-130 359,-130"/>
<text text-anchor="start" x="367" y="-148" font-family="Helvetica,sans-Serif" font-size="10.00" fill="#000000">GridFinder::getFirstLine</text>
<text text-anchor="middle" x="423" y="-137" font-family="Helvetica,sans-Serif" font-size="10.00" fill="#000000">Estimate</text>
</a>
</g>
</g>
<!-- Node12&#45;&gt;Node13 -->
<g id="edge3" class="edge">
<title>Node12&#45;&gt;Node13</title>
<path fill="none" stroke="#191970" d="M539.6154,-168.3899C522.849,-165.027 504.445,-161.3357 487.3113,-157.8991"/>
<polygon fill="#191970" stroke="#191970" points="539.3241,-171.9011 549.8171,-170.4361 540.7007,-165.0378 539.3241,-171.9011"/>
</g>
<!-- Node17 -->
<g id="node8" class="node">
<title>Node17</title>
<g id="a_node8"><a xlink:href="classGridFinder.html#abcd46f31e256080b2d5d2aee03c0e258" target="_top" xlink:title="Find the middle of a line.">
<polygon fill="#ffffff" stroke="#000000" points="714,-44.5 714,-63.5 834,-63.5 834,-44.5 714,-44.5"/>
<text text-anchor="middle" x="774" y="-51.5" font-family="Helvetica,sans-Serif" font-size="10.00" fill="#000000">GridFinder::getMiddle</text>
</a>
</g>
</g>
<!-- Node16&#45;&gt;Node17 -->
<g id="edge7" class="edge">
<title>Node16&#45;&gt;Node17</title>
<path fill="none" stroke="#191970" d="M868.5897,-54C856.9633,-54 845.2466,-54 834.2095,-54"/>
<polygon fill="#191970" stroke="#191970" points="868.7643,-57.5001 878.7643,-54 868.7643,-50.5001 868.7643,-57.5001"/>
</g>
<!-- Node18 -->
<g id="node9" class="node">
<title>Node18</title>
<g id="a_node9"><a xlink:href="classGridFinder.html#af830abf29ca6dc9c01197a38fe16e1e5" target="_top" xlink:title="In exceptional cases, we might want to find the middle of a line in a point that happens to lie at th...">
<polygon fill="#ffffff" stroke="#000000" points="526,-121 526,-151 669,-151 669,-121 526,-121"/>
<text text-anchor="start" x="534" y="-139" font-family="Helvetica,sans-Serif" font-size="10.00" fill="#000000">GridFinder::getMiddleWith</text>
<text text-anchor="middle" x="597.5" y="-128" font-family="Helvetica,sans-Serif" font-size="10.00" fill="#000000">Retries</text>
</a>
</g>
</g>
<!-- Node17&#45;&gt;Node18 -->
<g id="edge8" class="edge">
<title>Node17&#45;&gt;Node18</title>
<path fill="none" stroke="#191970" d="M744.2004,-67.8446C712.5157,-82.5649 662.5651,-105.7714 629.9162,-120.9398"/>
<polygon fill="#191970" stroke="#191970" points="745.8134,-70.9545 753.4078,-63.5669 742.864,-64.6062 745.8134,-70.9545"/>
</g>
<!-- Node19 -->
<g id="node10" class="node">
<title>Node19</title>
<g id="a_node10"><a xlink:href="classGridFinder.html#ae12ca7921b02b37417d87fc737f0134d" target="_top" xlink:title="Check if there could be a valid line going through the given point, and if so, find and return the ac...">
<polygon fill="#ffffff" stroke="#000000" points="537,-44.5 537,-63.5 658,-63.5 658,-44.5 537,-44.5"/>
<text text-anchor="middle" x="597.5" y="-51.5" font-family="Helvetica,sans-Serif" font-size="10.00" fill="#000000">GridFinder::checkLine</text>
</a>
</g>
</g>
<!-- Node17&#45;&gt;Node19 -->
<g id="edge10" class="edge">
<title>Node17&#45;&gt;Node19</title>
<path fill="none" stroke="#191970" d="M703.4814,-54C688.4475,-54 672.6975,-54 658.0754,-54"/>
<polygon fill="#191970" stroke="#191970" points="703.7524,-57.5001 713.7524,-54 703.7523,-50.5001 703.7524,-57.5001"/>
</g>
<!-- Node18&#45;&gt;Node13 -->
<g id="edge9" class="edge">
<title>Node18&#45;&gt;Node13</title>
<path fill="none" stroke="#191970" d="M515.5054,-140.2289C505.9971,-140.7193 496.4052,-141.2141 487.1837,-141.6897"/>
<polygon fill="#191970" stroke="#191970" points="515.9623,-143.7101 525.7688,-139.6996 515.6017,-136.7194 515.9623,-143.7101"/>
</g>
<!-- Node20 -->
<g id="node11" class="node">
<title>Node20</title>
<g id="a_node11"><a xlink:href="classGridFinder.html#a54369e6368334eb2924ca70ee1f1d438" target="_top" xlink:title="Follow the given line to find the line perpendicular to it. Move along the line for minDistance pixel...">
<polygon fill="#ffffff" stroke="#000000" points="356,-72.5 356,-91.5 490,-91.5 490,-72.5 356,-72.5"/>
<text text-anchor="middle" x="423" y="-79.5" font-family="Helvetica,sans-Serif" font-size="10.00" fill="#000000">GridFinder::findNextLine</text>
</a>
</g>
</g>
<!-- Node19&#45;&gt;Node20 -->
<g id="edge11" class="edge">
<title>Node19&#45;&gt;Node20</title>
<path fill="none" stroke="#191970" d="M527.6661,-65.2054C512.6337,-67.6175 496.8824,-70.1449 482.2965,-72.4854"/>
<polygon fill="#191970" stroke="#191970" points="528.6159,-68.5979 537.9351,-63.5577 527.5068,-61.6863 528.6159,-68.5979"/>
</g>
<!-- Node21 -->
<g id="node12" class="node">
<title>Node21</title>
<g id="a_node12"><a xlink:href="classGridFinder.html#a3edbd3ffbcfe6d373fbaf576e4dca51b" target="_top" xlink:title="Equivalent to #findNextLine(LineResult,bool,uint,uint) but also supports optional LineResults.">
<polygon fill="#ffffff" stroke="#000000" points="186,-91.5 186,-110.5 320,-110.5 320,-91.5 186,-91.5"/>
<text text-anchor="middle" x="253" y="-98.5" font-family="Helvetica,sans-Serif" font-size="10.00" fill="#000000">GridFinder::findNextLine</text>
</a>
</g>
</g>
<!-- Node20&#45;&gt;Node21 -->
<g id="edge12" class="edge">
<title>Node20&#45;&gt;Node21</title>
<path fill="none" stroke="#191970" d="M345.854,-90.6222C337.3121,-91.5769 328.6634,-92.5435 320.2572,-93.483"/>
<polygon fill="#191970" stroke="#191970" points="346.2622,-94.0985 355.8115,-89.5093 345.4846,-87.1418 346.2622,-94.0985"/>
</g>
<!-- Node22 -->
<g id="node13" class="node">
<title>Node22</title>
<g id="a_node13"><a xlink:href="classGridFinder.html#a8940ca681fac78274043cf5f1f1f5761" target="_top" xlink:title="This is the main function: it looks for a complete square of the grid, as close to the center of the ...">
<polygon fill="#ffffff" stroke="#000000" points="191,-53.5 191,-72.5 315,-72.5 315,-53.5 191,-53.5"/>
<text text-anchor="middle" x="253" y="-60.5" font-family="Helvetica,sans-Serif" font-size="10.00" fill="#000000">GridFinder::findSquare</text>
</a>
</g>
</g>
<!-- Node20&#45;&gt;Node22 -->
<g id="edge13" class="edge">
<title>Node20&#45;&gt;Node22</title>
<path fill="none" stroke="#191970" d="M345.624,-73.3521C335.3644,-72.2054 324.9554,-71.0421 315.0015,-69.9296"/>
<polygon fill="#191970" stroke="#191970" points="345.4846,-76.8582 355.8115,-74.4907 346.2622,-69.9015 345.4846,-76.8582"/>
</g>
<!-- Node23 -->
<g id="node14" class="node">
<title>Node23</title>
<g id="a_node14"><a xlink:href="classLocationFinder.html#a398bb42565e1e2a499471765f569bc40" target="_top" xlink:title=" ">
<polygon fill="#ffffff" stroke="#000000" points="0,-53.5 0,-72.5 150,-72.5 150,-53.5 0,-53.5"/>
<text text-anchor="middle" x="75" y="-60.5" font-family="Helvetica,sans-Serif" font-size="10.00" fill="#000000">LocationFinder::getLocation</text>
</a>
</g>
</g>
<!-- Node22&#45;&gt;Node23 -->
<g id="edge14" class="edge">
<title>Node22&#45;&gt;Node23</title>
<path fill="none" stroke="#191970" d="M180.4379,-63C170.4268,-63 160.1282,-63 150.0729,-63"/>
<polygon fill="#191970" stroke="#191970" points="180.7443,-66.5001 190.7442,-63 180.7442,-59.5001 180.7443,-66.5001"/>
</g>
<!-- Node25&#45;&gt;Node17 -->
<g id="edge17" class="edge">
<title>Node25&#45;&gt;Node17</title>
<path fill="none" stroke="#191970" d="M905.7639,-86.031C876.6707,-78.9586 840.3381,-70.1264 813.1977,-63.5287"/>
<polygon fill="#191970" stroke="#191970" points="905.1819,-89.4914 915.7257,-88.4527 906.8355,-82.6895 905.1819,-89.4914"/>
</g>
<!-- Node25&#45;&gt;Node18 -->
<g id="edge18" class="edge">
<title>Node25&#45;&gt;Node18</title>
<path fill="none" stroke="#191970" d="M894.8535,-104.3932C832.5945,-111.0109 735.3528,-121.3471 669.1534,-128.3837"/>
<polygon fill="#191970" stroke="#191970" points="895.3407,-107.8612 904.9147,-103.3237 894.6008,-100.9004 895.3407,-107.8612"/>
</g>
<!-- Node25&#45;&gt;Node20 -->
<g id="edge19" class="edge">
<title>Node25&#45;&gt;Node20</title>
<path fill="none" stroke="#191970" d="M894.7056,-96.1866C794.5963,-93.1758 594.7784,-87.1663 490.2507,-84.0226"/>
<polygon fill="#191970" stroke="#191970" points="894.85,-99.6925 904.9507,-96.4948 895.0605,-92.6956 894.85,-99.6925"/>
</g>
</g>
</svg>
