<?xml version="1.0" encoding="UTF-8" standalone="no"?>
<!DOCTYPE svg PUBLIC "-//W3C//DTD SVG 1.1//EN"
 "http://www.w3.org/Graphics/SVG/1.1/DTD/svg11.dtd">
<!-- Generated by graphviz version 2.40.1 (20161225.0304)
 -->
<!-- Title: GridFinder::findNextLine Pages: 1 -->
<svg width="1146pt" height="515pt"
 viewBox="0.00 0.00 1146.00 515.00" xmlns="http://www.w3.org/2000/svg" xmlns:xlink="http://www.w3.org/1999/xlink">
<g id="graph0" class="graph" transform="scale(1 1) rotate(0) translate(4 511)">
<title>GridFinder::findNextLine</title>
<polygon fill="#ffffff" stroke="transparent" points="-4,4 -4,-511 1142,-511 1142,4 -4,4"/>
<!-- Node89 -->
<g id="node1" class="node">
<title>Node89</title>
<g id="a_node1"><a xlink:title="Follow the given line to find the line perpendicular to it. Move along the line for minDistance pixel...">
<polygon fill="#bfbfbf" stroke="#000000" points="0,-316.5 0,-335.5 134,-335.5 134,-316.5 0,-316.5"/>
<text text-anchor="middle" x="67" y="-323.5" font-family="Helvetica,sans-Serif" font-size="10.00" fill="#000000">GridFinder::findNextLine</text>
</a>
</g>
</g>
<!-- Node90 -->
<g id="node2" class="node">
<title>Node90</title>
<g id="a_node2"><a xlink:href="classAngle.html#aa9c7edb3027272ad1e45098383f0a94d" target="_top" xlink:title=" ">
<polygon fill="#ffffff" stroke="#000000" points="172,-487.5 172,-506.5 289,-506.5 289,-487.5 172,-487.5"/>
<text text-anchor="middle" x="230.5" y="-494.5" font-family="Helvetica,sans-Serif" font-size="10.00" fill="#000000">Angle::perpendicular</text>
</a>
</g>
</g>
<!-- Node89&#45;&gt;Node90 -->
<g id="edge1" class="edge">
<title>Node89&#45;&gt;Node90</title>
<path fill="none" stroke="#191970" d="M71.313,-335.6999C83.2799,-361.58 119.3845,-433.0121 170,-473 175.0623,-476.9993 180.8757,-480.4085 186.8535,-483.2919"/>
<polygon fill="#191970" stroke="#191970" points="185.732,-486.6207 196.2982,-487.3993 188.5237,-480.2015 185.732,-486.6207"/>
</g>
<!-- Node91 -->
<g id="node3" class="node">
<title>Node91</title>
<g id="a_node3"><a xlink:href="classGridFinder.html#af8bdc28d95e295618c2f345f2d7eb758" target="_top" xlink:title="Move a pixel in a given direction for a given distance.">
<polygon fill="#ffffff" stroke="#000000" points="529,-316.5 529,-335.5 629,-335.5 629,-316.5 529,-316.5"/>
<text text-anchor="middle" x="579" y="-323.5" font-family="Helvetica,sans-Serif" font-size="10.00" fill="#000000">GridFinder::move</text>
</a>
</g>
</g>
<!-- Node89&#45;&gt;Node91 -->
<g id="edge2" class="edge">
<title>Node89&#45;&gt;Node91</title>
<path fill="none" stroke="#191970" d="M134.1981,-326C234.5851,-326 422.1865,-326 518.514,-326"/>
<polygon fill="#191970" stroke="#191970" points="518.6715,-329.5001 528.6715,-326 518.6715,-322.5001 518.6715,-329.5001"/>
</g>
<!-- Node92 -->
<g id="node4" class="node">
<title>Node92</title>
<g id="a_node4"><a xlink:href="classGridFinder.html#aadfce89f171d55f954a19d700b43ff5c" target="_top" xlink:title="Get the width of the frame.">
<polygon fill="#ffffff" stroke="#000000" points="716.5,-392.5 716.5,-411.5 815.5,-411.5 815.5,-392.5 716.5,-392.5"/>
<text text-anchor="middle" x="766" y="-399.5" font-family="Helvetica,sans-Serif" font-size="10.00" fill="#000000">GridFinder::width</text>
</a>
</g>
</g>
<!-- Node89&#45;&gt;Node92 -->
<g id="edge12" class="edge">
<title>Node89&#45;&gt;Node92</title>
<path fill="none" stroke="#191970" d="M72.3682,-335.7257C85.4938,-358.3546 121.7005,-414.1884 170,-435 366.4763,-519.6591 633.6557,-446.3158 729.7333,-414.7481"/>
<polygon fill="#191970" stroke="#191970" points="730.9021,-418.0479 739.28,-411.5625 728.6863,-411.4078 730.9021,-418.0479"/>
</g>
<!-- Node94 -->
<g id="node6" class="node">
<title>Node94</title>
<g id="a_node6"><a xlink:href="classGridFinder.html#affd9ae441c8d86b1856a9ef31190e9ab" target="_top" xlink:title="Get the height of the frame.">
<polygon fill="#ffffff" stroke="#000000" points="714.5,-190.5 714.5,-209.5 817.5,-209.5 817.5,-190.5 714.5,-190.5"/>
<text text-anchor="middle" x="766" y="-197.5" font-family="Helvetica,sans-Serif" font-size="10.00" fill="#000000">GridFinder::height</text>
</a>
</g>
</g>
<!-- Node89&#45;&gt;Node94 -->
<g id="edge13" class="edge">
<title>Node89&#45;&gt;Node94</title>
<path fill="none" stroke="#191970" d="M119.8251,-316.4779C246.7598,-293.5969 568.4301,-235.6135 704.1168,-211.1549"/>
<polygon fill="#191970" stroke="#191970" points="705.1157,-214.5313 714.3361,-209.3128 703.8738,-207.6424 705.1157,-214.5313"/>
</g>
<!-- Node96 -->
<g id="node8" class="node">
<title>Node96</title>
<g id="a_node8"><a xlink:href="classBresenhamLine.html#aba0822ee20811d67cd9539ccbe1cd346" target="_top" xlink:title=" ">
<polygon fill="#ffffff" stroke="#000000" points="877,-335.5 877,-354.5 1016,-354.5 1016,-335.5 877,-335.5"/>
<text text-anchor="middle" x="946.5" y="-342.5" font-family="Helvetica,sans-Serif" font-size="10.00" fill="#000000">BresenhamLine::hasNext</text>
</a>
</g>
</g>
<!-- Node89&#45;&gt;Node96 -->
<g id="edge15" class="edge">
<title>Node89&#45;&gt;Node96</title>
<path fill="none" stroke="#191970" d="M93.3258,-335.6273C113.9317,-342.8076 143.4496,-352.3193 170,-358 398.0801,-406.7999 458.1798,-406.9746 691,-421 757.546,-425.0088 779.7583,-447.342 841,-421 862.3713,-411.8075 858.5698,-397.1973 877,-383 888.8934,-373.8382 903.2822,-365.5797 915.8752,-359.1204"/>
<polygon fill="#191970" stroke="#191970" points="917.6849,-362.1296 925.084,-354.5465 914.5709,-355.8603 917.6849,-362.1296"/>
</g>
<!-- Node99 -->
<g id="node11" class="node">
<title>Node99</title>
<g id="a_node11"><a xlink:href="classBresenhamLine.html#a10d505e30945f42a5cd0270c315b104f" target="_top" xlink:title=" ">
<polygon fill="#ffffff" stroke="#000000" points="706,-354.5 706,-373.5 826,-373.5 826,-354.5 706,-354.5"/>
<text text-anchor="middle" x="766" y="-361.5" font-family="Helvetica,sans-Serif" font-size="10.00" fill="#000000">BresenhamLine::next</text>
</a>
</g>
</g>
<!-- Node89&#45;&gt;Node99 -->
<g id="edge14" class="edge">
<title>Node89&#45;&gt;Node99</title>
<path fill="none" stroke="#191970" d="M129.8065,-335.5016C143.0544,-337.2348 156.9666,-338.8544 170,-340 359.5671,-356.6622 584.0847,-361.7698 695.6974,-363.3257"/>
<polygon fill="#191970" stroke="#191970" points="695.7699,-366.8269 705.8159,-363.4612 695.8638,-359.8275 695.7699,-366.8269"/>
</g>
<!-- Node100 -->
<g id="node12" class="node">
<title>Node100</title>
<g id="a_node12"><a xlink:href="classGridFinder.html#afbed8951f70923626b73abdbe05236da" target="_top" xlink:title="Get the value of the given pixel.">
<polygon fill="#ffffff" stroke="#000000" points="722,-76.5 722,-95.5 810,-95.5 810,-76.5 722,-76.5"/>
<text text-anchor="middle" x="766" y="-83.5" font-family="Helvetica,sans-Serif" font-size="10.00" fill="#000000">GridFinder::get</text>
</a>
</g>
</g>
<!-- Node89&#45;&gt;Node100 -->
<g id="edge16" class="edge">
<title>Node89&#45;&gt;Node100</title>
<path fill="none" stroke="#191970" d="M70.8967,-316.4173C82.0621,-290.2289 116.8219,-217.0166 170,-181 340.3576,-65.6197 600.0464,-71.3512 711.7825,-80.2814"/>
<polygon fill="#191970" stroke="#191970" points="711.5495,-83.7741 721.8074,-81.1236 712.1355,-76.7987 711.5495,-83.7741"/>
</g>
<!-- Node101 -->
<g id="node13" class="node">
<title>Node101</title>
<g id="a_node13"><a xlink:href="structPixel.html#ac3b82b3e3cd3b812dc1a0bccb474511f" target="_top" xlink:title=" ">
<polygon fill="#ffffff" stroke="#000000" points="187.5,-.5 187.5,-19.5 273.5,-19.5 273.5,-.5 187.5,-.5"/>
<text text-anchor="middle" x="230.5" y="-7.5" font-family="Helvetica,sans-Serif" font-size="10.00" fill="#000000">Pixel::average</text>
</a>
</g>
</g>
<!-- Node89&#45;&gt;Node101 -->
<g id="edge18" class="edge">
<title>Node89&#45;&gt;Node101</title>
<path fill="none" stroke="#191970" d="M67.5894,-316.4669C70.5639,-276.4306 87.257,-119.995 170,-34 173.6762,-30.1793 178.0372,-26.953 182.7086,-24.2314"/>
<polygon fill="#191970" stroke="#191970" points="184.5978,-27.1999 191.9759,-19.5963 181.4665,-20.9393 184.5978,-27.1999"/>
</g>
<!-- Node102 -->
<g id="node14" class="node">
<title>Node102</title>
<g id="a_node14"><a xlink:href="classGridFinder.html#ae12ca7921b02b37417d87fc737f0134d" target="_top" xlink:title="Check if there could be a valid line going through the given point, and if so, find and return the ac...">
<polygon fill="#ffffff" stroke="#000000" points="170,-190.5 170,-209.5 291,-209.5 291,-190.5 170,-190.5"/>
<text text-anchor="middle" x="230.5" y="-197.5" font-family="Helvetica,sans-Serif" font-size="10.00" fill="#000000">GridFinder::checkLine</text>
</a>
</g>
</g>
<!-- Node89&#45;&gt;Node102 -->
<g id="edge19" class="edge">
<title>Node89&#45;&gt;Node102</title>
<path fill="none" stroke="#191970" d="M74.5183,-316.2659C90.2713,-296.4441 128.7158,-250.9942 170,-224 176.1769,-219.9611 183.1399,-216.421 190.0859,-213.3879"/>
<polygon fill="#191970" stroke="#191970" points="191.5295,-216.5793 199.4718,-209.5671 188.8901,-210.0959 191.5295,-216.5793"/>
</g>
<!-- Node91&#45;&gt;Node92 -->
<g id="edge3" class="edge">
<title>Node91&#45;&gt;Node92</title>
<path fill="none" stroke="#191970" d="M595.1738,-335.6879C616.493,-348.1129 655.4632,-369.6466 691,-383 697.505,-385.4443 704.4437,-387.6767 711.3753,-389.6829"/>
<polygon fill="#191970" stroke="#191970" points="710.9043,-393.1832 721.4744,-392.4587 712.7596,-386.4335 710.9043,-393.1832"/>
</g>
<!-- Node91&#45;&gt;Node94 -->
<g id="edge5" class="edge">
<title>Node91&#45;&gt;Node94</title>
<path fill="none" stroke="#191970" d="M629.3373,-318.6477C638.3587,-315.91 647.3207,-312.1537 655,-307 677.4388,-291.9411 672.1283,-277.3424 691,-258 706.7587,-241.8482 727.1479,-226.3622 742.6889,-215.461"/>
<polygon fill="#191970" stroke="#191970" points="744.9515,-218.1528 751.2072,-209.602 740.9845,-212.3853 744.9515,-218.1528"/>
</g>
<!-- Node91&#45;&gt;Node96 -->
<g id="edge7" class="edge">
<title>Node91&#45;&gt;Node96</title>
<path fill="none" stroke="#191970" d="M629.3287,-328.602C690.4099,-331.76 794.1664,-337.1243 866.3055,-340.8539"/>
<polygon fill="#191970" stroke="#191970" points="866.5433,-344.3708 876.7107,-341.3918 866.9048,-337.3801 866.5433,-344.3708"/>
</g>
<!-- Node98 -->
<g id="node10" class="node">
<title>Node98</title>
<g id="a_node10"><a xlink:href="classBresenhamLine.html#ad93a4adf0535a9b4e649bce5ade1bc5e" target="_top" xlink:title=" ">
<polygon fill="#ffffff" stroke="#000000" points="691,-267 691,-297 841,-297 841,-267 691,-267"/>
<text text-anchor="start" x="699" y="-285" font-family="Helvetica,sans-Serif" font-size="10.00" fill="#000000">BresenhamLine::getCurrent</text>
<text text-anchor="middle" x="766" y="-274" font-family="Helvetica,sans-Serif" font-size="10.00" fill="#000000">Length</text>
</a>
</g>
</g>
<!-- Node91&#45;&gt;Node98 -->
<g id="edge9" class="edge">
<title>Node91&#45;&gt;Node98</title>
<path fill="none" stroke="#191970" d="M619.5762,-316.4527C640.8182,-311.4545 667.4942,-305.1778 692.2379,-299.3558"/>
<polygon fill="#191970" stroke="#191970" points="693.0397,-302.7628 701.9722,-297.0654 691.4364,-295.9489 693.0397,-302.7628"/>
</g>
<!-- Node91&#45;&gt;Node99 -->
<g id="edge10" class="edge">
<title>Node91&#45;&gt;Node99</title>
<path fill="none" stroke="#191970" d="M626.188,-335.589C651.4205,-340.7165 682.673,-347.0672 709.2268,-352.4632"/>
<polygon fill="#191970" stroke="#191970" points="708.6546,-355.9184 719.1513,-354.4799 710.0486,-349.0586 708.6546,-355.9184"/>
</g>
<!-- Node93 -->
<g id="node5" class="node">
<title>Node93</title>
<g id="a_node5"><a xlink:href="classMask.html#a4124a2daa1f7501d4fd80775b6217679" target="_top" xlink:title="Get the width of the mask in pixels.">
<polygon fill="#ffffff" stroke="#000000" points="909,-392.5 909,-411.5 984,-411.5 984,-392.5 909,-392.5"/>
<text text-anchor="middle" x="946.5" y="-399.5" font-family="Helvetica,sans-Serif" font-size="10.00" fill="#000000">Mask::width</text>
</a>
</g>
</g>
<!-- Node92&#45;&gt;Node93 -->
<g id="edge4" class="edge">
<title>Node92&#45;&gt;Node93</title>
<path fill="none" stroke="#191970" d="M815.8002,-402C841.6634,-402 873.1146,-402 898.6829,-402"/>
<polygon fill="#191970" stroke="#191970" points="898.8862,-405.5001 908.8861,-402 898.8861,-398.5001 898.8862,-405.5001"/>
</g>
<!-- Node95 -->
<g id="node7" class="node">
<title>Node95</title>
<g id="a_node7"><a xlink:href="classMask.html#af845b7d3220b707c8b4c48bf87d045bb" target="_top" xlink:title="Get the height of the mask in pixels.">
<polygon fill="#ffffff" stroke="#000000" points="907,-190.5 907,-209.5 986,-209.5 986,-190.5 907,-190.5"/>
<text text-anchor="middle" x="946.5" y="-197.5" font-family="Helvetica,sans-Serif" font-size="10.00" fill="#000000">Mask::height</text>
</a>
</g>
</g>
<!-- Node94&#45;&gt;Node95 -->
<g id="edge6" class="edge">
<title>Node94&#45;&gt;Node95</title>
<path fill="none" stroke="#191970" d="M817.7241,-200C842.5176,-200 872.0868,-200 896.6343,-200"/>
<polygon fill="#191970" stroke="#191970" points="896.8188,-203.5001 906.8187,-200 896.8187,-196.5001 896.8188,-203.5001"/>
</g>
<!-- Node97 -->
<g id="node9" class="node">
<title>Node97</title>
<g id="a_node9"><a xlink:href="structPixel.html#a816d743559e2ac5b35c9c79ac517ad0a" target="_top" xlink:title=" ">
<polygon fill="#ffffff" stroke="#000000" points="1052,-335.5 1052,-354.5 1138,-354.5 1138,-335.5 1052,-335.5"/>
<text text-anchor="middle" x="1095" y="-342.5" font-family="Helvetica,sans-Serif" font-size="10.00" fill="#000000">Pixel::inRange</text>
</a>
</g>
</g>
<!-- Node96&#45;&gt;Node97 -->
<g id="edge8" class="edge">
<title>Node96&#45;&gt;Node97</title>
<path fill="none" stroke="#191970" d="M1016.4016,-345C1024.8647,-345 1033.4033,-345 1041.5758,-345"/>
<polygon fill="#191970" stroke="#191970" points="1041.6984,-348.5001 1051.6984,-345 1041.6984,-341.5001 1041.6984,-348.5001"/>
</g>
<!-- Node99&#45;&gt;Node96 -->
<g id="edge11" class="edge">
<title>Node99&#45;&gt;Node96</title>
<path fill="none" stroke="#191970" d="M826.1039,-357.6733C839.0978,-356.3055 853.0336,-354.8386 866.6494,-353.4053"/>
<polygon fill="#191970" stroke="#191970" points="867.3996,-356.8458 876.9782,-352.3181 866.6667,-349.8842 867.3996,-356.8458"/>
</g>
<!-- Node100&#45;&gt;Node100 -->
<g id="edge17" class="edge">
<title>Node100&#45;&gt;Node100</title>
<path fill="none" stroke="#191970" d="M738.2568,-95.7571C724.7601,-104.5653 734.0078,-114 766,-114 787.9946,-114 799.239,-109.5406 799.733,-103.8913"/>
<polygon fill="#191970" stroke="#191970" points="802.4911,-101.7341 793.7432,-95.7571 796.8544,-105.8848 802.4911,-101.7341"/>
</g>
<!-- Node103 -->
<g id="node15" class="node">
<title>Node103</title>
<g id="a_node15"><a xlink:href="classGridFinder.html#abcd46f31e256080b2d5d2aee03c0e258" target="_top" xlink:title="Find the middle of a line.">
<polygon fill="#ffffff" stroke="#000000" points="337,-152.5 337,-171.5 457,-171.5 457,-152.5 337,-152.5"/>
<text text-anchor="middle" x="397" y="-159.5" font-family="Helvetica,sans-Serif" font-size="10.00" fill="#000000">GridFinder::getMiddle</text>
</a>
</g>
</g>
<!-- Node102&#45;&gt;Node103 -->
<g id="edge20" class="edge">
<title>Node102&#45;&gt;Node103</title>
<path fill="none" stroke="#191970" d="M272.515,-190.411C294.6844,-185.3513 322.0732,-179.1004 345.511,-173.7512"/>
<polygon fill="#191970" stroke="#191970" points="346.3166,-177.1575 355.2871,-171.5201 344.759,-170.3329 346.3166,-177.1575"/>
</g>
<!-- Node108 -->
<g id="node20" class="node">
<title>Node108</title>
<g id="a_node20"><a xlink:href="classAngle.html#a84ce9a0e2a186ada6997077fd96d6e4c" target="_top" xlink:title=" ">
<polygon fill="#ffffff" stroke="#000000" points="327,-190.5 327,-209.5 467,-209.5 467,-190.5 327,-190.5"/>
<text text-anchor="middle" x="397" y="-197.5" font-family="Helvetica,sans-Serif" font-size="10.00" fill="#000000">Angle&lt; 360 &gt;::resolution</text>
</a>
</g>
</g>
<!-- Node102&#45;&gt;Node108 -->
<g id="edge34" class="edge">
<title>Node102&#45;&gt;Node108</title>
<path fill="none" stroke="#191970" d="M291.0813,-200C299.4351,-200 308.1186,-200 316.7587,-200"/>
<polygon fill="#191970" stroke="#191970" points="316.8594,-203.5001 326.8593,-200 316.8593,-196.5001 316.8594,-203.5001"/>
</g>
<!-- Node103&#45;&gt;Node91 -->
<g id="edge33" class="edge">
<title>Node103&#45;&gt;Node91</title>
<path fill="none" stroke="#191970" d="M453.3935,-171.5022C458.4003,-173.9929 463.0563,-177.1082 467,-181 508.4546,-221.9086 461.1371,-266.5093 503,-307 507.6833,-311.5298 513.2752,-315.0295 519.2717,-317.7262"/>
<polygon fill="#191970" stroke="#191970" points="518.3626,-321.1225 528.9553,-321.3353 520.8073,-314.5633 518.3626,-321.1225"/>
</g>
<!-- Node103&#45;&gt;Node100 -->
<g id="edge21" class="edge">
<title>Node103&#45;&gt;Node100</title>
<path fill="none" stroke="#191970" d="M433.6817,-152.4982C454.0411,-147.3517 479.8559,-141.0348 503,-136 574.8915,-120.3607 658.4348,-104.9446 711.7318,-95.4556"/>
<polygon fill="#191970" stroke="#191970" points="712.4136,-98.8893 721.6485,-93.6963 711.1908,-91.997 712.4136,-98.8893"/>
</g>
<!-- Node104 -->
<g id="node16" class="node">
<title>Node104</title>
<g id="a_node16"><a xlink:href="structCosSin.html#a4c63ac2c483b5caa4012f8c27d58dd96" target="_top" xlink:title=" ">
<polygon fill="#ffffff" stroke="#000000" points="530,-152.5 530,-171.5 628,-171.5 628,-152.5 530,-152.5"/>
<text text-anchor="middle" x="579" y="-159.5" font-family="Helvetica,sans-Serif" font-size="10.00" fill="#000000">CosSin::opposite</text>
</a>
</g>
</g>
<!-- Node103&#45;&gt;Node104 -->
<g id="edge22" class="edge">
<title>Node103&#45;&gt;Node104</title>
<path fill="none" stroke="#191970" d="M457.098,-162C477.201,-162 499.5871,-162 519.6339,-162"/>
<polygon fill="#191970" stroke="#191970" points="519.8794,-165.5001 529.8793,-162 519.8793,-158.5001 519.8794,-165.5001"/>
</g>
<!-- Node105 -->
<g id="node17" class="node">
<title>Node105</title>
<g id="a_node17"><a xlink:href="classGridFinder.html#ab5c436911deb269a22a8d5525271fa4e" target="_top" xlink:title="Get the width of the line at a given point.">
<polygon fill="#ffffff" stroke="#000000" points="503,-267 503,-297 655,-297 655,-267 503,-267"/>
<text text-anchor="start" x="511" y="-285" font-family="Helvetica,sans-Serif" font-size="10.00" fill="#000000">GridFinder::getWidthAtPoint</text>
<text text-anchor="middle" x="579" y="-274" font-family="Helvetica,sans-Serif" font-size="10.00" fill="#000000">OnLine</text>
</a>
</g>
</g>
<!-- Node103&#45;&gt;Node105 -->
<g id="edge23" class="edge">
<title>Node103&#45;&gt;Node105</title>
<path fill="none" stroke="#191970" d="M445.862,-171.5414C453.2241,-174.0207 460.5147,-177.1237 467,-181 486.9693,-192.9358 486.0139,-203.1033 503,-219 518.3766,-233.3905 536.5025,-248.4816 551.1955,-260.2851"/>
<polygon fill="#191970" stroke="#191970" points="549.4009,-263.3304 559.403,-266.8247 553.7631,-257.8558 549.4009,-263.3304"/>
</g>
<!-- Node106 -->
<g id="node18" class="node">
<title>Node106</title>
<g id="a_node18"><a xlink:href="structCosSin.html#adb1d000cc58879b65a63fac849408bfe" target="_top" xlink:title=" ">
<polygon fill="#ffffff" stroke="#000000" points="705,-142.5 705,-161.5 827,-161.5 827,-142.5 705,-142.5"/>
<text text-anchor="middle" x="766" y="-149.5" font-family="Helvetica,sans-Serif" font-size="10.00" fill="#000000">CosSin::perpendicular</text>
</a>
</g>
</g>
<!-- Node103&#45;&gt;Node106 -->
<g id="edge32" class="edge">
<title>Node103&#45;&gt;Node106</title>
<path fill="none" stroke="#191970" d="M440.0876,-152.4884C459.2465,-148.723 482.1427,-144.8545 503,-143 567.7687,-137.2411 641.8117,-140.6676 694.7969,-144.846"/>
<polygon fill="#191970" stroke="#191970" points="694.519,-148.3349 704.7708,-145.661 695.0891,-141.3581 694.519,-148.3349"/>
</g>
<!-- Node107 -->
<g id="node19" class="node">
<title>Node107</title>
<g id="a_node19"><a xlink:href="Array_8hpp.html#a54bae1a9c86ad6bc491b4f10495a759f" target="_top" xlink:title=" ">
<polygon fill="#ffffff" stroke="#000000" points="562,-190.5 562,-209.5 596,-209.5 596,-190.5 562,-190.5"/>
<text text-anchor="middle" x="579" y="-197.5" font-family="Helvetica,sans-Serif" font-size="10.00" fill="#000000">abs</text>
</a>
</g>
</g>
<!-- Node103&#45;&gt;Node107 -->
<g id="edge31" class="edge">
<title>Node103&#45;&gt;Node107</title>
<path fill="none" stroke="#191970" d="M442.9263,-171.589C477.2885,-178.7635 523.1222,-188.3332 551.8476,-194.3308"/>
<polygon fill="#191970" stroke="#191970" points="551.4554,-197.8243 561.9597,-196.4421 552.8861,-190.9721 551.4554,-197.8243"/>
</g>
<!-- Node105&#45;&gt;Node92 -->
<g id="edge24" class="edge">
<title>Node105&#45;&gt;Node92</title>
<path fill="none" stroke="#191970" d="M640.365,-297.1094C645.6417,-299.8731 650.6261,-303.1397 655,-307 683.0224,-331.7322 662.133,-359.259 691,-383 695.6522,-386.8261 700.9759,-389.8948 706.5931,-392.354"/>
<polygon fill="#191970" stroke="#191970" points="705.6639,-395.7424 716.2568,-395.9434 708.1013,-389.1805 705.6639,-395.7424"/>
</g>
<!-- Node105&#45;&gt;Node94 -->
<g id="edge25" class="edge">
<title>Node105&#45;&gt;Node94</title>
<path fill="none" stroke="#191970" d="M623.3967,-266.9326C634.0253,-262.6626 645.1434,-257.6239 655,-252 672.6056,-241.9547 673.0714,-233.4566 691,-224 699.2586,-219.6439 708.4487,-215.9039 717.4856,-212.7613"/>
<polygon fill="#191970" stroke="#191970" points="718.7669,-216.0247 727.18,-209.5849 716.5872,-209.3726 718.7669,-216.0247"/>
</g>
<!-- Node105&#45;&gt;Node96 -->
<g id="edge27" class="edge">
<title>Node105&#45;&gt;Node96</title>
<path fill="none" stroke="#191970" d="M622.6263,-266.9482C675.8241,-251.0628 767.705,-231.6768 841,-258 879.4897,-271.8232 913.9506,-306.4374 932.3762,-327.6022"/>
<polygon fill="#191970" stroke="#191970" points="929.919,-330.117 939.0475,-335.4949 935.2651,-325.5982 929.919,-330.117"/>
</g>
<!-- Node105&#45;&gt;Node98 -->
<g id="edge29" class="edge">
<title>Node105&#45;&gt;Node98</title>
<path fill="none" stroke="#191970" d="M655.0601,-282C663.5634,-282 672.2662,-282 680.8736,-282"/>
<polygon fill="#191970" stroke="#191970" points="680.9165,-285.5001 690.9165,-282 680.9165,-278.5001 680.9165,-285.5001"/>
</g>
<!-- Node105&#45;&gt;Node99 -->
<g id="edge28" class="edge">
<title>Node105&#45;&gt;Node99</title>
<path fill="none" stroke="#191970" d="M628.4738,-297.0268C637.3943,-300.0881 646.5424,-303.463 655,-307 685.2536,-319.6521 718.5394,-337.2714 740.6935,-349.5599"/>
<polygon fill="#191970" stroke="#191970" points="739.0298,-352.6396 749.4653,-354.47 742.4489,-346.5314 739.0298,-352.6396"/>
</g>
<!-- Node105&#45;&gt;Node100 -->
<g id="edge30" class="edge">
<title>Node105&#45;&gt;Node100</title>
<path fill="none" stroke="#191970" d="M602.8749,-266.7927C619.3278,-255.3143 640.7184,-238.2803 655,-219 679.6638,-185.7038 664.1885,-164.5924 691,-133 702.6635,-119.2567 719.3856,-108.2399 734.0814,-100.3366"/>
<polygon fill="#191970" stroke="#191970" points="736.0562,-103.2583 743.3725,-95.5952 732.8743,-97.0232 736.0562,-103.2583"/>
</g>
<!-- Node105&#45;&gt;Node106 -->
<g id="edge26" class="edge">
<title>Node105&#45;&gt;Node106</title>
<path fill="none" stroke="#191970" d="M598.597,-266.8247C614.2767,-254.4323 636.6055,-236.2148 655,-219 671.9861,-203.1033 671.6775,-193.9568 691,-181 700.4987,-174.6306 711.5985,-169.368 722.3018,-165.156"/>
<polygon fill="#191970" stroke="#191970" points="723.7986,-168.3342 731.9628,-161.5817 721.3696,-161.7691 723.7986,-168.3342"/>
</g>
</g>
</svg>
