<?xml version="1.0" encoding="UTF-8" standalone="no"?>
<!DOCTYPE svg PUBLIC "-//W3C//DTD SVG 1.1//EN"
 "http://www.w3.org/Graphics/SVG/1.1/DTD/svg11.dtd">
<!-- Generated by graphviz version 2.40.1 (20161225.0304)
 -->
<!-- Title: GridFinder::checkLine Pages: 1 -->
<svg width="976pt" height="327pt"
 viewBox="0.00 0.00 976.00 327.00" xmlns="http://www.w3.org/2000/svg" xmlns:xlink="http://www.w3.org/1999/xlink">
<g id="graph0" class="graph" transform="scale(1 1) rotate(0) translate(4 323)">
<title>GridFinder::checkLine</title>
<polygon fill="#ffffff" stroke="transparent" points="-4,4 -4,-323 972,-323 972,4 -4,4"/>
<!-- Node12 -->
<g id="node1" class="node">
<title>Node12</title>
<g id="a_node1"><a xlink:title="Check if there could be a valid line going through the given point, and if so, find and return the ac...">
<polygon fill="#bfbfbf" stroke="#000000" points="0,-165.5 0,-184.5 121,-184.5 121,-165.5 0,-165.5"/>
<text text-anchor="middle" x="60.5" y="-172.5" font-family="Helvetica,sans-Serif" font-size="10.00" fill="#000000">GridFinder::checkLine</text>
</a>
</g>
</g>
<!-- Node13 -->
<g id="node2" class="node">
<title>Node13</title>
<g id="a_node2"><a xlink:href="classGridFinder.html#abcd46f31e256080b2d5d2aee03c0e258" target="_top" xlink:title="Find the middle of a line.">
<polygon fill="#ffffff" stroke="#000000" points="167,-184.5 167,-203.5 287,-203.5 287,-184.5 167,-184.5"/>
<text text-anchor="middle" x="227" y="-191.5" font-family="Helvetica,sans-Serif" font-size="10.00" fill="#000000">GridFinder::getMiddle</text>
</a>
</g>
</g>
<!-- Node12&#45;&gt;Node13 -->
<g id="edge1" class="edge">
<title>Node12&#45;&gt;Node13</title>
<path fill="none" stroke="#191970" d="M121.0813,-181.9132C132.5878,-183.2262 144.7196,-184.6106 156.5024,-185.9552"/>
<polygon fill="#191970" stroke="#191970" points="156.4102,-189.4673 166.7426,-187.1238 157.2039,-182.5125 156.4102,-189.4673"/>
</g>
<!-- Node28 -->
<g id="node17" class="node">
<title>Node28</title>
<g id="a_node17"><a xlink:href="classAngle.html#a84ce9a0e2a186ada6997077fd96d6e4c" target="_top" xlink:title=" ">
<polygon fill="#ffffff" stroke="#000000" points="157,-146.5 157,-165.5 297,-165.5 297,-146.5 157,-146.5"/>
<text text-anchor="middle" x="227" y="-153.5" font-family="Helvetica,sans-Serif" font-size="10.00" fill="#000000">Angle&lt; 360 &gt;::resolution</text>
</a>
</g>
</g>
<!-- Node12&#45;&gt;Node28 -->
<g id="edge25" class="edge">
<title>Node12&#45;&gt;Node28</title>
<path fill="none" stroke="#191970" d="M121.0813,-168.0868C129.4351,-167.1335 138.1186,-166.1426 146.7587,-165.1567"/>
<polygon fill="#191970" stroke="#191970" points="147.3207,-168.6153 156.8593,-164.004 146.527,-161.6605 147.3207,-168.6153"/>
</g>
<!-- Node14 -->
<g id="node3" class="node">
<title>Node14</title>
<g id="a_node3"><a xlink:href="classGridFinder.html#afbed8951f70923626b73abdbe05236da" target="_top" xlink:title="Get the value of the given pixel.">
<polygon fill="#ffffff" stroke="#000000" points="552,-281.5 552,-300.5 640,-300.5 640,-281.5 552,-281.5"/>
<text text-anchor="middle" x="596" y="-288.5" font-family="Helvetica,sans-Serif" font-size="10.00" fill="#000000">GridFinder::get</text>
</a>
</g>
</g>
<!-- Node13&#45;&gt;Node14 -->
<g id="edge2" class="edge">
<title>Node13&#45;&gt;Node14</title>
<path fill="none" stroke="#191970" d="M236.0793,-203.7504C253.1168,-221.2988 291.887,-257.787 333,-273 401.5499,-298.3654 486.9278,-299.0876 541.4579,-296.0422"/>
<polygon fill="#191970" stroke="#191970" points="541.8402,-299.5252 551.604,-295.412 541.4062,-292.5387 541.8402,-299.5252"/>
</g>
<!-- Node15 -->
<g id="node4" class="node">
<title>Node15</title>
<g id="a_node4"><a xlink:href="structCosSin.html#a4c63ac2c483b5caa4012f8c27d58dd96" target="_top" xlink:title=" ">
<polygon fill="#ffffff" stroke="#000000" points="360,-244.5 360,-263.5 458,-263.5 458,-244.5 360,-244.5"/>
<text text-anchor="middle" x="409" y="-251.5" font-family="Helvetica,sans-Serif" font-size="10.00" fill="#000000">CosSin::opposite</text>
</a>
</g>
</g>
<!-- Node13&#45;&gt;Node15 -->
<g id="edge4" class="edge">
<title>Node13&#45;&gt;Node15</title>
<path fill="none" stroke="#191970" d="M254.8427,-203.6386C276.19,-210.9843 306.4047,-221.2857 333,-230 344.4919,-233.7655 356.9952,-237.7572 368.48,-241.3818"/>
<polygon fill="#191970" stroke="#191970" points="367.6699,-244.796 378.2594,-244.4576 369.7702,-238.1185 367.6699,-244.796"/>
</g>
<!-- Node16 -->
<g id="node5" class="node">
<title>Node16</title>
<g id="a_node5"><a xlink:href="classGridFinder.html#ab5c436911deb269a22a8d5525271fa4e" target="_top" xlink:title="Get the width of the line at a given point.">
<polygon fill="#ffffff" stroke="#000000" points="333,-157 333,-187 485,-187 485,-157 333,-157"/>
<text text-anchor="start" x="341" y="-175" font-family="Helvetica,sans-Serif" font-size="10.00" fill="#000000">GridFinder::getWidthAtPoint</text>
<text text-anchor="middle" x="409" y="-164" font-family="Helvetica,sans-Serif" font-size="10.00" fill="#000000">OnLine</text>
</a>
</g>
</g>
<!-- Node13&#45;&gt;Node16 -->
<g id="edge5" class="edge">
<title>Node13&#45;&gt;Node16</title>
<path fill="none" stroke="#191970" d="M287.098,-186.7354C298.5036,-185.3567 310.6441,-183.8892 322.6754,-182.4348"/>
<polygon fill="#191970" stroke="#191970" points="323.2297,-185.8934 332.7374,-181.2186 322.3896,-178.944 323.2297,-185.8934"/>
</g>
<!-- Node21 -->
<g id="node10" class="node">
<title>Node21</title>
<g id="a_node10"><a xlink:href="structCosSin.html#adb1d000cc58879b65a63fac849408bfe" target="_top" xlink:title=" ">
<polygon fill="#ffffff" stroke="#000000" points="535,-240.5 535,-259.5 657,-259.5 657,-240.5 535,-240.5"/>
<text text-anchor="middle" x="596" y="-247.5" font-family="Helvetica,sans-Serif" font-size="10.00" fill="#000000">CosSin::perpendicular</text>
</a>
</g>
</g>
<!-- Node13&#45;&gt;Node21 -->
<g id="edge18" class="edge">
<title>Node13&#45;&gt;Node21</title>
<path fill="none" stroke="#191970" d="M287.1075,-203.122C352.2169,-213.0031 456.0127,-228.7553 525.069,-239.2354"/>
<polygon fill="#191970" stroke="#191970" points="524.5849,-242.7019 534.9968,-240.7421 525.6352,-235.7812 524.5849,-242.7019"/>
</g>
<!-- Node26 -->
<g id="node15" class="node">
<title>Node26</title>
<g id="a_node15"><a xlink:href="Array_8hpp.html#a54bae1a9c86ad6bc491b4f10495a759f" target="_top" xlink:title=" ">
<polygon fill="#ffffff" stroke="#000000" points="392,-118.5 392,-137.5 426,-137.5 426,-118.5 392,-118.5"/>
<text text-anchor="middle" x="409" y="-125.5" font-family="Helvetica,sans-Serif" font-size="10.00" fill="#000000">abs</text>
</a>
</g>
</g>
<!-- Node13&#45;&gt;Node26 -->
<g id="edge17" class="edge">
<title>Node13&#45;&gt;Node26</title>
<path fill="none" stroke="#191970" d="M272.4117,-184.4978C280.8086,-181.9583 289.3388,-178.8248 297,-175 315.1353,-165.946 314.7748,-155.8716 333,-147 348.2524,-139.5755 366.6831,-134.8755 381.5745,-132.0075"/>
<polygon fill="#191970" stroke="#191970" points="382.4522,-135.4071 391.6962,-130.2303 381.2415,-128.5125 382.4522,-135.4071"/>
</g>
<!-- Node27 -->
<g id="node16" class="node">
<title>Node27</title>
<g id="a_node16"><a xlink:href="classGridFinder.html#af8bdc28d95e295618c2f345f2d7eb758" target="_top" xlink:title="Move a pixel in a given direction for a given distance.">
<polygon fill="#ffffff" stroke="#000000" points="359,-80.5 359,-99.5 459,-99.5 459,-80.5 359,-80.5"/>
<text text-anchor="middle" x="409" y="-87.5" font-family="Helvetica,sans-Serif" font-size="10.00" fill="#000000">GridFinder::move</text>
</a>
</g>
</g>
<!-- Node13&#45;&gt;Node27 -->
<g id="edge19" class="edge">
<title>Node13&#45;&gt;Node27</title>
<path fill="none" stroke="#191970" d="M280.4321,-184.4696C286.3762,-182.0033 292.058,-178.9012 297,-175 323.2264,-154.2968 306.5673,-129.439 333,-109 337.9425,-105.1782 343.5584,-102.1162 349.4469,-99.6644"/>
<polygon fill="#191970" stroke="#191970" points="350.6316,-102.9579 358.8669,-96.2923 348.2724,-96.3674 350.6316,-102.9579"/>
</g>
<!-- Node14&#45;&gt;Node14 -->
<g id="edge3" class="edge">
<title>Node14&#45;&gt;Node14</title>
<path fill="none" stroke="#191970" d="M568.2568,-300.7571C554.7601,-309.5653 564.0078,-319 596,-319 617.9946,-319 629.239,-314.5406 629.733,-308.8913"/>
<polygon fill="#191970" stroke="#191970" points="632.4911,-306.7341 623.7432,-300.7571 626.8544,-310.8848 632.4911,-306.7341"/>
</g>
<!-- Node16&#45;&gt;Node14 -->
<g id="edge16" class="edge">
<title>Node16&#45;&gt;Node14</title>
<path fill="none" stroke="#191970" d="M428.0246,-187.2015C443.5724,-199.7597 466.0059,-218.1894 485,-235 501.4803,-249.5858 501.913,-258.0441 521,-269 527.4727,-272.7153 534.626,-275.8497 541.8687,-278.4812"/>
<polygon fill="#191970" stroke="#191970" points="541.1514,-281.9311 551.745,-281.7654 543.3602,-275.2887 541.1514,-281.9311"/>
</g>
<!-- Node17 -->
<g id="node6" class="node">
<title>Node17</title>
<g id="a_node6"><a xlink:href="classGridFinder.html#aadfce89f171d55f954a19d700b43ff5c" target="_top" xlink:title="Get the width of the frame.">
<polygon fill="#ffffff" stroke="#000000" points="546.5,-76.5 546.5,-95.5 645.5,-95.5 645.5,-76.5 546.5,-76.5"/>
<text text-anchor="middle" x="596" y="-83.5" font-family="Helvetica,sans-Serif" font-size="10.00" fill="#000000">GridFinder::width</text>
</a>
</g>
</g>
<!-- Node16&#45;&gt;Node17 -->
<g id="edge6" class="edge">
<title>Node16&#45;&gt;Node17</title>
<path fill="none" stroke="#191970" d="M466.2246,-156.9942C472.8132,-154.172 479.2291,-150.8638 485,-147 505.4293,-133.3219 500.1067,-117.9581 521,-105 525.78,-102.0354 531.003,-99.5323 536.3962,-97.419"/>
<polygon fill="#191970" stroke="#191970" points="537.9206,-100.5954 546.2286,-94.0207 535.6339,-93.9794 537.9206,-100.5954"/>
</g>
<!-- Node19 -->
<g id="node8" class="node">
<title>Node19</title>
<g id="a_node8"><a xlink:href="classGridFinder.html#affd9ae441c8d86b1856a9ef31190e9ab" target="_top" xlink:title="Get the height of the frame.">
<polygon fill="#ffffff" stroke="#000000" points="544.5,-.5 544.5,-19.5 647.5,-19.5 647.5,-.5 544.5,-.5"/>
<text text-anchor="middle" x="596" y="-7.5" font-family="Helvetica,sans-Serif" font-size="10.00" fill="#000000">GridFinder::height</text>
</a>
</g>
</g>
<!-- Node16&#45;&gt;Node19 -->
<g id="edge8" class="edge">
<title>Node16&#45;&gt;Node19</title>
<path fill="none" stroke="#191970" d="M470.4444,-156.9797C475.7051,-154.198 480.664,-150.9028 485,-147 513.9794,-120.9157 496.7302,-97.5152 521,-67 534.5308,-49.9873 554.2287,-35.2753 570.0423,-25.0609"/>
<polygon fill="#191970" stroke="#191970" points="572.1942,-27.8439 578.8283,-19.5832 568.4907,-21.9038 572.1942,-27.8439"/>
</g>
<!-- Node16&#45;&gt;Node21 -->
<g id="edge10" class="edge">
<title>Node16&#45;&gt;Node21</title>
<path fill="none" stroke="#191970" d="M451.9206,-187.1072C462.911,-191.4703 474.5676,-196.5425 485,-202 502.0389,-210.9136 503.6752,-217.6557 521,-226 529.8673,-230.2709 539.6786,-234.0377 549.2018,-237.2461"/>
<polygon fill="#191970" stroke="#191970" points="548.3785,-240.6578 558.9699,-240.3853 550.5203,-233.9935 548.3785,-240.6578"/>
</g>
<!-- Node22 -->
<g id="node11" class="node">
<title>Node22</title>
<g id="a_node11"><a xlink:href="classBresenhamLine.html#aba0822ee20811d67cd9539ccbe1cd346" target="_top" xlink:title=" ">
<polygon fill="#ffffff" stroke="#000000" points="707,-164.5 707,-183.5 846,-183.5 846,-164.5 707,-164.5"/>
<text text-anchor="middle" x="776.5" y="-171.5" font-family="Helvetica,sans-Serif" font-size="10.00" fill="#000000">BresenhamLine::hasNext</text>
</a>
</g>
</g>
<!-- Node16&#45;&gt;Node22 -->
<g id="edge11" class="edge">
<title>Node16&#45;&gt;Node22</title>
<path fill="none" stroke="#191970" d="M478.0221,-187.0136C492.1711,-189.506 507.0141,-191.7002 521,-193 587.3806,-199.1694 604.5977,-198.9316 671,-193 688.1929,-191.4642 706.7761,-188.5472 723.4853,-185.4515"/>
<polygon fill="#191970" stroke="#191970" points="724.4544,-188.8296 733.6178,-183.5116 723.1381,-181.9544 724.4544,-188.8296"/>
</g>
<!-- Node24 -->
<g id="node13" class="node">
<title>Node24</title>
<g id="a_node13"><a xlink:href="classBresenhamLine.html#a10d505e30945f42a5cd0270c315b104f" target="_top" xlink:title=" ">
<polygon fill="#ffffff" stroke="#000000" points="536,-164.5 536,-183.5 656,-183.5 656,-164.5 536,-164.5"/>
<text text-anchor="middle" x="596" y="-171.5" font-family="Helvetica,sans-Serif" font-size="10.00" fill="#000000">BresenhamLine::next</text>
</a>
</g>
</g>
<!-- Node16&#45;&gt;Node24 -->
<g id="edge13" class="edge">
<title>Node16&#45;&gt;Node24</title>
<path fill="none" stroke="#191970" d="M485.0601,-172.8135C498.5165,-172.9574 512.4727,-173.1067 525.7596,-173.2488"/>
<polygon fill="#191970" stroke="#191970" points="525.7336,-176.7486 535.7705,-173.3558 525.8085,-169.749 525.7336,-176.7486"/>
</g>
<!-- Node25 -->
<g id="node14" class="node">
<title>Node25</title>
<g id="a_node14"><a xlink:href="classBresenhamLine.html#ad93a4adf0535a9b4e649bce5ade1bc5e" target="_top" xlink:title=" ">
<polygon fill="#ffffff" stroke="#000000" points="521,-115 521,-145 671,-145 671,-115 521,-115"/>
<text text-anchor="start" x="529" y="-133" font-family="Helvetica,sans-Serif" font-size="10.00" fill="#000000">BresenhamLine::getCurrent</text>
<text text-anchor="middle" x="596" y="-122" font-family="Helvetica,sans-Serif" font-size="10.00" fill="#000000">Length</text>
</a>
</g>
</g>
<!-- Node16&#45;&gt;Node25 -->
<g id="edge15" class="edge">
<title>Node16&#45;&gt;Node25</title>
<path fill="none" stroke="#191970" d="M475.9831,-156.9557C490.0329,-153.8001 504.9535,-150.449 519.3256,-147.221"/>
<polygon fill="#191970" stroke="#191970" points="520.1805,-150.6162 529.1705,-145.0098 518.6465,-143.7864 520.1805,-150.6162"/>
</g>
<!-- Node18 -->
<g id="node7" class="node">
<title>Node18</title>
<g id="a_node7"><a xlink:href="classMask.html#a4124a2daa1f7501d4fd80775b6217679" target="_top" xlink:title="Get the width of the mask in pixels.">
<polygon fill="#ffffff" stroke="#000000" points="739,-76.5 739,-95.5 814,-95.5 814,-76.5 739,-76.5"/>
<text text-anchor="middle" x="776.5" y="-83.5" font-family="Helvetica,sans-Serif" font-size="10.00" fill="#000000">Mask::width</text>
</a>
</g>
</g>
<!-- Node17&#45;&gt;Node18 -->
<g id="edge7" class="edge">
<title>Node17&#45;&gt;Node18</title>
<path fill="none" stroke="#191970" d="M645.8002,-86C671.6634,-86 703.1146,-86 728.6829,-86"/>
<polygon fill="#191970" stroke="#191970" points="728.8862,-89.5001 738.8861,-86 728.8861,-82.5001 728.8862,-89.5001"/>
</g>
<!-- Node20 -->
<g id="node9" class="node">
<title>Node20</title>
<g id="a_node9"><a xlink:href="classMask.html#af845b7d3220b707c8b4c48bf87d045bb" target="_top" xlink:title="Get the height of the mask in pixels.">
<polygon fill="#ffffff" stroke="#000000" points="737,-.5 737,-19.5 816,-19.5 816,-.5 737,-.5"/>
<text text-anchor="middle" x="776.5" y="-7.5" font-family="Helvetica,sans-Serif" font-size="10.00" fill="#000000">Mask::height</text>
</a>
</g>
</g>
<!-- Node19&#45;&gt;Node20 -->
<g id="edge9" class="edge">
<title>Node19&#45;&gt;Node20</title>
<path fill="none" stroke="#191970" d="M647.7241,-10C672.5176,-10 702.0868,-10 726.6343,-10"/>
<polygon fill="#191970" stroke="#191970" points="726.8188,-13.5001 736.8187,-10 726.8187,-6.5001 726.8188,-13.5001"/>
</g>
<!-- Node23 -->
<g id="node12" class="node">
<title>Node23</title>
<g id="a_node12"><a xlink:href="structPixel.html#a816d743559e2ac5b35c9c79ac517ad0a" target="_top" xlink:title=" ">
<polygon fill="#ffffff" stroke="#000000" points="882,-164.5 882,-183.5 968,-183.5 968,-164.5 882,-164.5"/>
<text text-anchor="middle" x="925" y="-171.5" font-family="Helvetica,sans-Serif" font-size="10.00" fill="#000000">Pixel::inRange</text>
</a>
</g>
</g>
<!-- Node22&#45;&gt;Node23 -->
<g id="edge12" class="edge">
<title>Node22&#45;&gt;Node23</title>
<path fill="none" stroke="#191970" d="M846.4016,-174C854.8647,-174 863.4033,-174 871.5758,-174"/>
<polygon fill="#191970" stroke="#191970" points="871.6984,-177.5001 881.6984,-174 871.6984,-170.5001 871.6984,-177.5001"/>
</g>
<!-- Node24&#45;&gt;Node22 -->
<g id="edge14" class="edge">
<title>Node24&#45;&gt;Node22</title>
<path fill="none" stroke="#191970" d="M656.1039,-174C669.0978,-174 683.0336,-174 696.6494,-174"/>
<polygon fill="#191970" stroke="#191970" points="696.9783,-177.5001 706.9782,-174 696.9782,-170.5001 696.9783,-177.5001"/>
</g>
<!-- Node27&#45;&gt;Node17 -->
<g id="edge20" class="edge">
<title>Node27&#45;&gt;Node17</title>
<path fill="none" stroke="#191970" d="M459.1126,-88.9281C482.8841,-88.4196 511.4633,-87.8083 536.3456,-87.276"/>
<polygon fill="#191970" stroke="#191970" points="536.4747,-90.7742 546.3975,-87.061 536.3249,-83.7758 536.4747,-90.7742"/>
</g>
<!-- Node27&#45;&gt;Node19 -->
<g id="edge21" class="edge">
<title>Node27&#45;&gt;Node19</title>
<path fill="none" stroke="#191970" d="M426.0765,-80.4234C447.7146,-68.533 486.3687,-48.101 521,-34 531.0751,-29.8977 542.1328,-26.0269 552.589,-22.6401"/>
<polygon fill="#191970" stroke="#191970" points="553.8958,-25.8979 562.3779,-19.5494 551.7881,-19.2227 553.8958,-25.8979"/>
</g>
<!-- Node27&#45;&gt;Node22 -->
<g id="edge22" class="edge">
<title>Node27&#45;&gt;Node22</title>
<path fill="none" stroke="#191970" d="M433.3401,-80.4472C481.1231,-63.2546 589.626,-31.9984 671,-67 692.3713,-76.1925 690.7432,-88.3581 707,-105 724.6434,-123.0614 745.2038,-143.3866 759.3602,-157.2718"/>
<polygon fill="#191970" stroke="#191970" points="756.9125,-159.7735 766.5068,-164.2679 761.8093,-154.7714 756.9125,-159.7735"/>
</g>
<!-- Node27&#45;&gt;Node24 -->
<g id="edge24" class="edge">
<title>Node27&#45;&gt;Node24</title>
<path fill="none" stroke="#191970" d="M459.1685,-97.6094C468.2055,-100.3234 477.2164,-104.0053 485,-109 506.556,-122.8325 499.5527,-139.9996 521,-154 524.849,-156.5126 529.0038,-158.7107 533.3146,-160.6335"/>
<polygon fill="#191970" stroke="#191970" points="532.3554,-164.017 542.9426,-164.4183 534.9164,-157.5023 532.3554,-164.017"/>
</g>
<!-- Node27&#45;&gt;Node25 -->
<g id="edge23" class="edge">
<title>Node27&#45;&gt;Node25</title>
<path fill="none" stroke="#191970" d="M453.7912,-99.581C472.3536,-103.5516 494.4697,-108.2823 515.6648,-112.816"/>
<polygon fill="#191970" stroke="#191970" points="515.1369,-116.2822 525.6478,-114.9514 516.6012,-109.437 515.1369,-116.2822"/>
</g>
</g>
</svg>
