<?xml version="1.0" encoding="UTF-8" standalone="no"?>
<!DOCTYPE svg PUBLIC "-//W3C//DTD SVG 1.1//EN"
 "http://www.w3.org/Graphics/SVG/1.1/DTD/svg11.dtd">
<!-- Generated by graphviz version 2.40.1 (20161225.0304)
 -->
<!-- Title: Mask::ptr Pages: 1 -->
<svg width="256pt" height="66pt"
 viewBox="0.00 0.00 256.00 66.00" xmlns="http://www.w3.org/2000/svg" xmlns:xlink="http://www.w3.org/1999/xlink">
<g id="graph0" class="graph" transform="scale(1 1) rotate(0) translate(4 62)">
<title>Mask::ptr</title>
<polygon fill="#ffffff" stroke="transparent" points="-4,4 -4,-62 252,-62 252,4 -4,4"/>
<!-- Node48 -->
<g id="node1" class="node">
<title>Node48</title>
<g id="a_node1"><a xlink:title="Get a pointer to the array of mask bytes.">
<polygon fill="#bfbfbf" stroke="#000000" points="186,-19.5 186,-38.5 248,-38.5 248,-19.5 186,-19.5"/>
<text text-anchor="middle" x="217" y="-26.5" font-family="Helvetica,sans-Serif" font-size="10.00" fill="#000000">Mask::ptr</text>
</a>
</g>
</g>
<!-- Node49 -->
<g id="node2" class="node">
<title>Node49</title>
<g id="a_node2"><a xlink:href="classLocationFinder.html#a398bb42565e1e2a499471765f569bc40" target="_top" xlink:title=" ">
<polygon fill="#ffffff" stroke="#000000" points="0,-38.5 0,-57.5 150,-57.5 150,-38.5 0,-38.5"/>
<text text-anchor="middle" x="75" y="-45.5" font-family="Helvetica,sans-Serif" font-size="10.00" fill="#000000">LocationFinder::getLocation</text>
</a>
</g>
</g>
<!-- Node48&#45;&gt;Node49 -->
<g id="edge1" class="edge">
<title>Node48&#45;&gt;Node49</title>
<path fill="none" stroke="#191970" d="M175.7542,-34.5188C166.4728,-35.7607 156.3633,-37.1134 146.247,-38.4669"/>
<polygon fill="#191970" stroke="#191970" points="176.39,-37.965 185.8375,-33.1696 175.4616,-31.0268 176.39,-37.965"/>
</g>
<!-- Node50 -->
<g id="node3" class="node">
<title>Node50</title>
<g id="a_node3"><a xlink:href="Grid-Finder_8module_8hpp.html#a05e720af51446c0f9319fb9455fe1767" target="_top" xlink:title=" ">
<polygon fill="#ffffff" stroke="#000000" points="18.5,-.5 18.5,-19.5 131.5,-19.5 131.5,-.5 18.5,-.5"/>
<text text-anchor="middle" x="75" y="-7.5" font-family="Helvetica,sans-Serif" font-size="10.00" fill="#000000">PYBIND11_MODULE</text>
</a>
</g>
</g>
<!-- Node48&#45;&gt;Node50 -->
<g id="edge2" class="edge">
<title>Node48&#45;&gt;Node50</title>
<path fill="none" stroke="#191970" d="M175.6918,-23.4728C161.9015,-21.6277 146.2883,-19.5386 131.5437,-17.5657"/>
<polygon fill="#191970" stroke="#191970" points="175.4616,-26.9732 185.8375,-24.8304 176.39,-20.035 175.4616,-26.9732"/>
</g>
</g>
</svg>
