<?xml version="1.0" encoding="UTF-8" standalone="no"?>
<!DOCTYPE svg PUBLIC "-//W3C//DTD SVG 1.1//EN"
 "http://www.w3.org/Graphics/SVG/1.1/DTD/svg11.dtd">
<!-- Generated by graphviz version 2.40.1 (20161225.0304)
 -->
<!-- Title: GridFinder::hough Pages: 1 -->
<svg width="448pt" height="83pt"
 viewBox="0.00 0.00 448.00 83.00" xmlns="http://www.w3.org/2000/svg" xmlns:xlink="http://www.w3.org/1999/xlink">
<g id="graph0" class="graph" transform="scale(1 1) rotate(0) translate(4 79)">
<title>GridFinder::hough</title>
<polygon fill="#ffffff" stroke="transparent" points="-4,4 -4,-79 444,-79 444,4 -4,4"/>
<!-- Node340 -->
<g id="node1" class="node">
<title>Node340</title>
<g id="a_node1"><a xlink:title="Starting from the given pixel, move in the direction of the given angle, and count the number of whit...">
<polygon fill="#bfbfbf" stroke="#000000" points="338,-28 338,-47 440,-47 440,-28 338,-28"/>
<text text-anchor="middle" x="389" y="-35" font-family="Helvetica,sans-Serif" font-size="10.00" fill="#000000">GridFinder::hough</text>
</a>
</g>
</g>
<!-- Node341 -->
<g id="node2" class="node">
<title>Node341</title>
<g id="a_node2"><a xlink:href="classGridFinder.html#a04e1362c95151ac77477844a952af0f9" target="_top" xlink:title="Scan 360° around a given pixel, and find the angle with the most white pixels. This version is not ve...">
<polygon fill="#ffffff" stroke="#000000" points="164,-50 164,-69 302,-69 302,-50 164,-50"/>
<text text-anchor="middle" x="233" y="-57" font-family="Helvetica,sans-Serif" font-size="10.00" fill="#000000">GridFinder::findLineAngle</text>
</a>
</g>
</g>
<!-- Node340&#45;&gt;Node341 -->
<g id="edge1" class="edge">
<title>Node340&#45;&gt;Node341</title>
<path fill="none" stroke="#191970" d="M327.8895,-46.1181C318.862,-47.3913 309.5173,-48.7091 300.3714,-49.9989"/>
<polygon fill="#191970" stroke="#191970" points="328.5065,-49.5659 337.9198,-44.7036 327.529,-42.6344 328.5065,-49.5659"/>
</g>
<!-- Node343 -->
<g id="node4" class="node">
<title>Node343</title>
<g id="a_node4"><a xlink:href="classGridFinder.html#afcc1eed83ee0292966c3c80883069634" target="_top" xlink:title="Similar to findLineAngle, but is more accurate, because it uses the average of the range of angles wi...">
<polygon fill="#ffffff" stroke="#000000" points="164,-.5 164,-30.5 302,-30.5 302,-.5 164,-.5"/>
<text text-anchor="start" x="172" y="-18.5" font-family="Helvetica,sans-Serif" font-size="10.00" fill="#000000">GridFinder::findLineAngle</text>
<text text-anchor="middle" x="233" y="-7.5" font-family="Helvetica,sans-Serif" font-size="10.00" fill="#000000">AccurateRange</text>
</a>
</g>
</g>
<!-- Node340&#45;&gt;Node343 -->
<g id="edge3" class="edge">
<title>Node340&#45;&gt;Node343</title>
<path fill="none" stroke="#191970" d="M327.786,-28.8673C319.3429,-27.6766 310.6243,-26.447 302.0519,-25.2381"/>
<polygon fill="#191970" stroke="#191970" points="327.529,-32.3656 337.9198,-30.2964 328.5065,-25.4341 327.529,-32.3656"/>
</g>
<!-- Node342 -->
<g id="node3" class="node">
<title>Node342</title>
<g id="a_node3"><a xlink:href="classGridFinder.html#aaea3af418ab7124f2b25bcc124fccaca" target="_top" xlink:title="Get an estimate of the line through a given pixel. Find an estimate of the slope, then use that to de...">
<polygon fill="#ffffff" stroke="#000000" points="0,-44.5 0,-74.5 128,-74.5 128,-44.5 0,-44.5"/>
<text text-anchor="start" x="8" y="-62.5" font-family="Helvetica,sans-Serif" font-size="10.00" fill="#000000">GridFinder::getFirstLine</text>
<text text-anchor="middle" x="64" y="-51.5" font-family="Helvetica,sans-Serif" font-size="10.00" fill="#000000">Estimate</text>
</a>
</g>
</g>
<!-- Node341&#45;&gt;Node342 -->
<g id="edge2" class="edge">
<title>Node341&#45;&gt;Node342</title>
<path fill="none" stroke="#191970" d="M153.497,-59.5C145.0258,-59.5 136.4874,-59.5 128.224,-59.5"/>
<polygon fill="#191970" stroke="#191970" points="153.7736,-63.0001 163.7736,-59.5 153.7736,-56.0001 153.7736,-63.0001"/>
</g>
</g>
</svg>
