<?xml version="1.0" encoding="UTF-8" standalone="no"?>
<!DOCTYPE svg PUBLIC "-//W3C//DTD SVG 1.1//EN"
 "http://www.w3.org/Graphics/SVG/1.1/DTD/svg11.dtd">
<!-- Generated by graphviz version 2.40.1 (20161225.0304)
 -->
<!-- Title: GridFinder::center Pages: 1 -->
<svg width="624pt" height="66pt"
 viewBox="0.00 0.00 624.00 66.00" xmlns="http://www.w3.org/2000/svg" xmlns:xlink="http://www.w3.org/1999/xlink">
<g id="graph0" class="graph" transform="scale(1 1) rotate(0) translate(4 62)">
<title>GridFinder::center</title>
<polygon fill="#ffffff" stroke="transparent" points="-4,4 -4,-62 620,-62 620,4 -4,4"/>
<!-- Node11 -->
<g id="node1" class="node">
<title>Node11</title>
<g id="a_node1"><a xlink:title="Get the center pixel of the frame.">
<polygon fill="#bfbfbf" stroke="#000000" points="513,-19.5 513,-38.5 616,-38.5 616,-19.5 513,-19.5"/>
<text text-anchor="middle" x="564.5" y="-26.5" font-family="Helvetica,sans-Serif" font-size="10.00" fill="#000000">GridFinder::center</text>
</a>
</g>
</g>
<!-- Node12 -->
<g id="node2" class="node">
<title>Node12</title>
<g id="a_node2"><a xlink:href="classGridFinder.html#a8940ca681fac78274043cf5f1f1f5761" target="_top" xlink:title="This is the main function: it looks for a complete square of the grid, as close to the center of the ...">
<polygon fill="#ffffff" stroke="#000000" points="353,-.5 353,-19.5 477,-19.5 477,-.5 353,-.5"/>
<text text-anchor="middle" x="415" y="-7.5" font-family="Helvetica,sans-Serif" font-size="10.00" fill="#000000">GridFinder::findSquare</text>
</a>
</g>
</g>
<!-- Node11&#45;&gt;Node12 -->
<g id="edge1" class="edge">
<title>Node11&#45;&gt;Node12</title>
<path fill="none" stroke="#191970" d="M502.5159,-21.1224C494.1081,-20.0539 485.4782,-18.9571 477.0689,-17.8884"/>
<polygon fill="#191970" stroke="#191970" points="502.2702,-24.6193 512.6317,-22.408 503.1528,-17.6751 502.2702,-24.6193"/>
</g>
<!-- Node13 -->
<g id="node3" class="node">
<title>Node13</title>
<g id="a_node3"><a xlink:href="classLocationFinder.html#af56756d038d762e04e0c91bac9fc2522" target="_top" xlink:title="Read a new frame, mask it, run GridFinder, and get the position of the drone. The position is the pos...">
<polygon fill="#ffffff" stroke="#000000" points="149,-38.5 149,-57.5 317,-57.5 317,-38.5 149,-38.5"/>
<text text-anchor="middle" x="233" y="-45.5" font-family="Helvetica,sans-Serif" font-size="10.00" fill="#000000">LocationFinder::updateLocation</text>
</a>
</g>
</g>
<!-- Node11&#45;&gt;Node13 -->
<g id="edge5" class="edge">
<title>Node11&#45;&gt;Node13</title>
<path fill="none" stroke="#191970" d="M502.5727,-32.5494C450.3242,-35.544 375.0339,-39.8593 317.2945,-43.1686"/>
<polygon fill="#191970" stroke="#191970" points="502.9198,-36.0353 512.7031,-31.9688 502.5192,-29.0468 502.9198,-36.0353"/>
</g>
<!-- Node12&#45;&gt;Node13 -->
<g id="edge2" class="edge">
<title>Node12&#45;&gt;Node13</title>
<path fill="none" stroke="#191970" d="M359.0542,-21.681C333.2442,-27.0699 302.9931,-33.3861 278.596,-38.4799"/>
<polygon fill="#191970" stroke="#191970" points="360.0002,-25.059 369.0737,-19.589 358.5694,-18.2068 360.0002,-25.059"/>
</g>
<!-- Node14 -->
<g id="node4" class="node">
<title>Node14</title>
<g id="a_node4"><a xlink:href="Grid-Finder_8module_8hpp.html#a05e720af51446c0f9319fb9455fe1767" target="_top" xlink:title=" ">
<polygon fill="#ffffff" stroke="#000000" points="0,-19.5 0,-38.5 113,-38.5 113,-19.5 0,-19.5"/>
<text text-anchor="middle" x="56.5" y="-26.5" font-family="Helvetica,sans-Serif" font-size="10.00" fill="#000000">PYBIND11_MODULE</text>
</a>
</g>
</g>
<!-- Node12&#45;&gt;Node14 -->
<g id="edge4" class="edge">
<title>Node12&#45;&gt;Node14</title>
<path fill="none" stroke="#191970" d="M342.797,-13.8267C275.0706,-17.4161 175.1701,-22.7107 113.0574,-26.0025"/>
<polygon fill="#191970" stroke="#191970" points="343.1626,-17.3123 352.9633,-13.2879 342.7921,-10.3221 343.1626,-17.3123"/>
</g>
<!-- Node13&#45;&gt;Node14 -->
<g id="edge3" class="edge">
<title>Node13&#45;&gt;Node14</title>
<path fill="none" stroke="#191970" d="M138.9025,-37.8705C130.0733,-36.9201 121.3225,-35.9781 113.0056,-35.0828"/>
<polygon fill="#191970" stroke="#191970" points="138.5682,-41.3547 148.8854,-38.9452 139.3175,-34.3949 138.5682,-41.3547"/>
</g>
</g>
</svg>
