<?xml version="1.0" encoding="UTF-8" standalone="no"?>
<!DOCTYPE svg PUBLIC "-//W3C//DTD SVG 1.1//EN"
 "http://www.w3.org/Graphics/SVG/1.1/DTD/svg11.dtd">
<!-- Generated by graphviz version 2.40.1 (20161225.0304)
 -->
<!-- Title: GridFinder::getFirstLineEstimate Pages: 1 -->
<svg width="319pt" height="88pt"
 viewBox="0.00 0.00 319.00 88.00" xmlns="http://www.w3.org/2000/svg" xmlns:xlink="http://www.w3.org/1999/xlink">
<g id="graph0" class="graph" transform="scale(1 1) rotate(0) translate(4 84)">
<title>GridFinder::getFirstLineEstimate</title>
<polygon fill="#ffffff" stroke="transparent" points="-4,4 -4,-84 315,-84 315,4 -4,4"/>
<!-- Node151 -->
<g id="node1" class="node">
<title>Node151</title>
<g id="a_node1"><a xlink:title="Get an estimate of the first line. Searches in multiple columns, starting from the center,...">
<polygon fill="#bfbfbf" stroke="#000000" points="0,-24.5 0,-54.5 128,-54.5 128,-24.5 0,-24.5"/>
<text text-anchor="start" x="8" y="-42.5" font-family="Helvetica,sans-Serif" font-size="10.00" fill="#000000">GridFinder::getFirstLine</text>
<text text-anchor="middle" x="64" y="-31.5" font-family="Helvetica,sans-Serif" font-size="10.00" fill="#000000">Estimate</text>
</a>
</g>
</g>
<!-- Node152 -->
<g id="node2" class="node">
<title>Node152</title>
<g id="a_node2"><a xlink:href="classCenterPointOutLineIterator.html#a6f4fda8865e7d1def0a8614622f0f6ef" target="_top" xlink:title=" ">
<polygon fill="#ffffff" stroke="#000000" points="164,-49.5 164,-79.5 311,-79.5 311,-49.5 164,-49.5"/>
<text text-anchor="start" x="172" y="-67.5" font-family="Helvetica,sans-Serif" font-size="10.00" fill="#000000">CenterPointOutLineIterator</text>
<text text-anchor="middle" x="237.5" y="-56.5" font-family="Helvetica,sans-Serif" font-size="10.00" fill="#000000">::hasNext</text>
</a>
</g>
</g>
<!-- Node151&#45;&gt;Node152 -->
<g id="edge1" class="edge">
<title>Node151&#45;&gt;Node152</title>
<path fill="none" stroke="#191970" d="M128.1121,-48.738C136.5072,-49.9477 145.2065,-51.2012 153.8643,-52.4488"/>
<polygon fill="#191970" stroke="#191970" points="153.5912,-55.9455 163.9882,-53.9075 154.5896,-49.017 153.5912,-55.9455"/>
</g>
<!-- Node153 -->
<g id="node3" class="node">
<title>Node153</title>
<g id="a_node3"><a xlink:href="classCenterPointOutLineIterator.html#a89580e1393d0dfc3ff12c7a5af2a4374" target="_top" xlink:title=" ">
<polygon fill="#ffffff" stroke="#000000" points="164,-.5 164,-30.5 311,-30.5 311,-.5 164,-.5"/>
<text text-anchor="start" x="172" y="-18.5" font-family="Helvetica,sans-Serif" font-size="10.00" fill="#000000">CenterPointOutLineIterator</text>
<text text-anchor="middle" x="237.5" y="-7.5" font-family="Helvetica,sans-Serif" font-size="10.00" fill="#000000">::next</text>
</a>
</g>
</g>
<!-- Node151&#45;&gt;Node153 -->
<g id="edge2" class="edge">
<title>Node151&#45;&gt;Node153</title>
<path fill="none" stroke="#191970" d="M128.1121,-30.6315C136.5072,-29.4702 145.2065,-28.2668 153.8643,-27.0692"/>
<polygon fill="#191970" stroke="#191970" points="154.5621,-30.5061 163.9882,-25.6688 153.6029,-23.5721 154.5621,-30.5061"/>
</g>
</g>
</svg>
