<?xml version="1.0" encoding="UTF-8" standalone="no"?>
<!DOCTYPE svg PUBLIC "-//W3C//DTD SVG 1.1//EN"
 "http://www.w3.org/Graphics/SVG/1.1/DTD/svg11.dtd">
<!-- Generated by graphviz version 2.40.1 (20161225.0304)
 -->
<!-- Title: GridFinder::getFirstLineEstimate Pages: 1 -->
<svg width="665pt" height="102pt"
 viewBox="0.00 0.00 665.00 101.50" xmlns="http://www.w3.org/2000/svg" xmlns:xlink="http://www.w3.org/1999/xlink">
<g id="graph0" class="graph" transform="scale(1 1) rotate(0) translate(4 97.5)">
<title>GridFinder::getFirstLineEstimate</title>
<polygon fill="#ffffff" stroke="transparent" points="-4,4 -4,-97.5 661,-97.5 661,4 -4,4"/>
<!-- Node196 -->
<g id="node1" class="node">
<title>Node196</title>
<g id="a_node1"><a xlink:title="Get an estimate of the first line. Searches in multiple columns, starting from the center,...">
<polygon fill="#bfbfbf" stroke="#000000" points="529,-38 529,-68 657,-68 657,-38 529,-38"/>
<text text-anchor="start" x="537" y="-56" font-family="Helvetica,sans-Serif" font-size="10.00" fill="#000000">GridFinder::getFirstLine</text>
<text text-anchor="middle" x="593" y="-45" font-family="Helvetica,sans-Serif" font-size="10.00" fill="#000000">Estimate</text>
</a>
</g>
</g>
<!-- Node197 -->
<g id="node2" class="node">
<title>Node197</title>
<g id="a_node2"><a xlink:href="classGridFinder.html#ae84004386cbee9606f9a46872cb67be8" target="_top" xlink:title="Find the vertical range of white pixels closest to the center of the given column,...">
<polygon fill="#ffffff" stroke="#000000" points="355.5,-63 355.5,-93 483.5,-93 483.5,-63 355.5,-63"/>
<text text-anchor="start" x="363.5" y="-81" font-family="Helvetica,sans-Serif" font-size="10.00" fill="#000000">GridFinder::getFirstLine</text>
<text text-anchor="middle" x="419.5" y="-70" font-family="Helvetica,sans-Serif" font-size="10.00" fill="#000000">Estimate</text>
</a>
</g>
</g>
<!-- Node196&#45;&gt;Node197 -->
<g id="edge1" class="edge">
<title>Node196&#45;&gt;Node197</title>
<path fill="none" stroke="#191970" d="M518.7264,-63.7022C507.0482,-65.385 495.0619,-67.1121 483.638,-68.7582"/>
<polygon fill="#191970" stroke="#191970" points="519.4894,-67.1285 528.8879,-62.238 518.491,-60.2001 519.4894,-67.1285"/>
</g>
<!-- Node198 -->
<g id="node3" class="node">
<title>Node198</title>
<g id="a_node3"><a xlink:href="classGridFinder.html#a7c330ed1431434a4a3726c341161bf39" target="_top" xlink:title="Get the first two lines. These are the two half lines that make up the line closest to the center of ...">
<polygon fill="#ffffff" stroke="#000000" points="346,-14 346,-44 493,-44 493,-14 346,-14"/>
<text text-anchor="start" x="354" y="-32" font-family="Helvetica,sans-Serif" font-size="10.00" fill="#000000">GridFinder::getFirstTwoHalf</text>
<text text-anchor="middle" x="419.5" y="-21" font-family="Helvetica,sans-Serif" font-size="10.00" fill="#000000">Lines</text>
</a>
</g>
</g>
<!-- Node196&#45;&gt;Node198 -->
<g id="edge2" class="edge">
<title>Node196&#45;&gt;Node198</title>
<path fill="none" stroke="#191970" d="M518.9138,-42.7518C510.3335,-41.5649 501.5844,-40.3546 493.0118,-39.1688"/>
<polygon fill="#191970" stroke="#191970" points="518.5027,-46.2281 528.8879,-44.1315 519.4619,-39.2942 518.5027,-46.2281"/>
</g>
<!-- Node199 -->
<g id="node4" class="node">
<title>Node199</title>
<g id="a_node4"><a xlink:href="classGridFinder.html#a8940ca681fac78274043cf5f1f1f5761" target="_top" xlink:title="This is the main function: it looks for a complete square of the grid, as close to the center of the ...">
<polygon fill="#ffffff" stroke="#000000" points="186,-19.5 186,-38.5 310,-38.5 310,-19.5 186,-19.5"/>
<text text-anchor="middle" x="248" y="-26.5" font-family="Helvetica,sans-Serif" font-size="10.00" fill="#000000">GridFinder::findSquare</text>
</a>
</g>
</g>
<!-- Node198&#45;&gt;Node199 -->
<g id="edge3" class="edge">
<title>Node198&#45;&gt;Node199</title>
<path fill="none" stroke="#191970" d="M335.6848,-29C327.0629,-29 318.4149,-29 310.0897,-29"/>
<polygon fill="#191970" stroke="#191970" points="335.7733,-32.5001 345.7733,-29 335.7732,-25.5001 335.7733,-32.5001"/>
</g>
<!-- Node200 -->
<g id="node5" class="node">
<title>Node200</title>
<g id="a_node5"><a xlink:href="classLocationFinder.html#a398bb42565e1e2a499471765f569bc40" target="_top" xlink:title=" ">
<polygon fill="#ffffff" stroke="#000000" points="0,-38.5 0,-57.5 150,-57.5 150,-38.5 0,-38.5"/>
<text text-anchor="middle" x="75" y="-45.5" font-family="Helvetica,sans-Serif" font-size="10.00" fill="#000000">LocationFinder::getLocation</text>
</a>
</g>
</g>
<!-- Node199&#45;&gt;Node200 -->
<g id="edge4" class="edge">
<title>Node199&#45;&gt;Node200</title>
<path fill="none" stroke="#191970" d="M175.4224,-36.9709C167.0344,-37.8922 158.467,-38.8331 150.047,-39.7578"/>
<polygon fill="#191970" stroke="#191970" points="175.9849,-40.4303 185.543,-35.8594 175.2207,-33.4721 175.9849,-40.4303"/>
</g>
<!-- Node201 -->
<g id="node6" class="node">
<title>Node201</title>
<g id="a_node6"><a xlink:href="Grid-Finder_8module_8hpp.html#a05e720af51446c0f9319fb9455fe1767" target="_top" xlink:title=" ">
<polygon fill="#ffffff" stroke="#000000" points="18.5,-.5 18.5,-19.5 131.5,-19.5 131.5,-.5 18.5,-.5"/>
<text text-anchor="middle" x="75" y="-7.5" font-family="Helvetica,sans-Serif" font-size="10.00" fill="#000000">PYBIND11_MODULE</text>
</a>
</g>
</g>
<!-- Node199&#45;&gt;Node201 -->
<g id="edge5" class="edge">
<title>Node199&#45;&gt;Node201</title>
<path fill="none" stroke="#191970" d="M175.5037,-21.038C160.8444,-19.428 145.6337,-17.7575 131.6167,-16.218"/>
<polygon fill="#191970" stroke="#191970" points="175.2207,-24.5279 185.543,-22.1406 175.9849,-17.5697 175.2207,-24.5279"/>
</g>
</g>
</svg>
