<?xml version="1.0" encoding="UTF-8" standalone="no"?>
<!DOCTYPE svg PUBLIC "-//W3C//DTD SVG 1.1//EN"
 "http://www.w3.org/Graphics/SVG/1.1/DTD/svg11.dtd">
<!-- Generated by graphviz version 2.40.1 (20161225.0304)
 -->
<!-- Title: BitString::toByteArray Pages: 1 -->
<svg width="320pt" height="66pt"
 viewBox="0.00 0.00 320.00 66.00" xmlns="http://www.w3.org/2000/svg" xmlns:xlink="http://www.w3.org/1999/xlink">
<g id="graph0" class="graph" transform="scale(1 1) rotate(0) translate(4 62)">
<title>BitString::toByteArray</title>
<polygon fill="#ffffff" stroke="transparent" points="-4,4 -4,-62 316,-62 316,4 -4,4"/>
<!-- Node59 -->
<g id="node1" class="node">
<title>Node59</title>
<g id="a_node1"><a xlink:title=" ">
<polygon fill="#bfbfbf" stroke="#000000" points="189,-19.5 189,-38.5 312,-38.5 312,-19.5 189,-19.5"/>
<text text-anchor="middle" x="250.5" y="-26.5" font-family="Helvetica,sans-Serif" font-size="10.00" fill="#000000">BitString::toByteArray</text>
</a>
</g>
</g>
<!-- Node60 -->
<g id="node2" class="node">
<title>Node60</title>
<g id="a_node2"><a xlink:href="namespaceSWImplementation.html#ab0f297c83760f0be08281d3cac7d84ee" target="_top" xlink:title=" ">
<polygon fill="#ffffff" stroke="#000000" points="6.5,-38.5 6.5,-57.5 146.5,-57.5 146.5,-38.5 6.5,-38.5"/>
<text text-anchor="middle" x="76.5" y="-45.5" font-family="Helvetica,sans-Serif" font-size="10.00" fill="#000000">SWImplementation::hash</text>
</a>
</g>
</g>
<!-- Node59&#45;&gt;Node60 -->
<g id="edge1" class="edge">
<title>Node59&#45;&gt;Node60</title>
<path fill="none" stroke="#191970" d="M178.6629,-36.8443C168.1112,-37.9965 157.2525,-39.1822 146.7337,-40.3308"/>
<polygon fill="#191970" stroke="#191970" points="179.1032,-40.3171 188.6642,-35.7522 178.3433,-33.3585 179.1032,-40.3171"/>
</g>
<!-- Node61 -->
<g id="node3" class="node">
<title>Node61</title>
<g id="a_node3"><a xlink:href="namespaceSWImplementation.html#a1da38cf84c412dc43617d7afdcb8efdb" target="_top" xlink:title=" ">
<polygon fill="#ffffff" stroke="#000000" points="0,-.5 0,-19.5 153,-19.5 153,-.5 0,-.5"/>
<text text-anchor="middle" x="76.5" y="-7.5" font-family="Helvetica,sans-Serif" font-size="10.00" fill="#000000">SWImplementation::decrypt</text>
</a>
</g>
</g>
<!-- Node59&#45;&gt;Node61 -->
<g id="edge2" class="edge">
<title>Node59&#45;&gt;Node61</title>
<path fill="none" stroke="#191970" d="M178.529,-21.1411C170.1235,-20.2233 161.525,-19.2843 153.0603,-18.36"/>
<polygon fill="#191970" stroke="#191970" points="178.3433,-24.6415 188.6642,-22.2478 179.1032,-17.6829 178.3433,-24.6415"/>
</g>
</g>
</svg>
