<?xml version="1.0" encoding="UTF-8" standalone="no"?>
<!DOCTYPE svg PUBLIC "-//W3C//DTD SVG 1.1//EN"
 "http://www.w3.org/Graphics/SVG/1.1/DTD/svg11.dtd">
<!-- Generated by graphviz version 2.40.1 (20161225.0304)
 -->
<!-- Title: GridFinder::drawLine Pages: 1 -->
<svg width="378pt" height="66pt"
 viewBox="0.00 0.00 378.00 66.00" xmlns="http://www.w3.org/2000/svg" xmlns:xlink="http://www.w3.org/1999/xlink">
<g id="graph0" class="graph" transform="scale(1 1) rotate(0) translate(4 62)">
<title>GridFinder::drawLine</title>
<polygon fill="#ffffff" stroke="transparent" points="-4,4 -4,-62 374,-62 374,4 -4,4"/>
<!-- Node49 -->
<g id="node1" class="node">
<title>Node49</title>
<g id="a_node1"><a xlink:title="Draw a line on the mask. Used only for testing.">
<polygon fill="#bfbfbf" stroke="#000000" points="0,-19.5 0,-38.5 116,-38.5 116,-19.5 0,-19.5"/>
<text text-anchor="middle" x="58" y="-26.5" font-family="Helvetica,sans-Serif" font-size="10.00" fill="#000000">GridFinder::drawLine</text>
</a>
</g>
</g>
<!-- Node50 -->
<g id="node2" class="node">
<title>Node50</title>
<g id="a_node2"><a xlink:href="classGridFinder.html#aadfce89f171d55f954a19d700b43ff5c" target="_top" xlink:title="Get the width of the frame.">
<polygon fill="#ffffff" stroke="#000000" points="154,-38.5 154,-57.5 253,-57.5 253,-38.5 154,-38.5"/>
<text text-anchor="middle" x="203.5" y="-45.5" font-family="Helvetica,sans-Serif" font-size="10.00" fill="#000000">GridFinder::width</text>
</a>
</g>
</g>
<!-- Node49&#45;&gt;Node50 -->
<g id="edge1" class="edge">
<title>Node49&#45;&gt;Node50</title>
<path fill="none" stroke="#191970" d="M116.3421,-36.6185C125.3031,-37.7887 134.568,-38.9986 143.563,-40.1732"/>
<polygon fill="#191970" stroke="#191970" points="143.2044,-43.656 153.5735,-41.4804 144.1109,-36.7149 143.2044,-43.656"/>
</g>
<!-- Node52 -->
<g id="node4" class="node">
<title>Node52</title>
<g id="a_node4"><a xlink:href="classGridFinder.html#affd9ae441c8d86b1856a9ef31190e9ab" target="_top" xlink:title="Get the height of the frame.">
<polygon fill="#ffffff" stroke="#000000" points="152,-.5 152,-19.5 255,-19.5 255,-.5 152,-.5"/>
<text text-anchor="middle" x="203.5" y="-7.5" font-family="Helvetica,sans-Serif" font-size="10.00" fill="#000000">GridFinder::height</text>
</a>
</g>
</g>
<!-- Node49&#45;&gt;Node52 -->
<g id="edge3" class="edge">
<title>Node49&#45;&gt;Node52</title>
<path fill="none" stroke="#191970" d="M116.3421,-21.3815C124.6607,-20.2952 133.2413,-19.1747 141.6247,-18.0799"/>
<polygon fill="#191970" stroke="#191970" points="142.2594,-21.5269 151.722,-16.7614 141.3529,-14.5858 142.2594,-21.5269"/>
</g>
<!-- Node51 -->
<g id="node3" class="node">
<title>Node51</title>
<g id="a_node3"><a xlink:href="classMask.html#a4124a2daa1f7501d4fd80775b6217679" target="_top" xlink:title="Get the width of the mask in pixels.">
<polygon fill="#ffffff" stroke="#000000" points="293,-38.5 293,-57.5 368,-57.5 368,-38.5 293,-38.5"/>
<text text-anchor="middle" x="330.5" y="-45.5" font-family="Helvetica,sans-Serif" font-size="10.00" fill="#000000">Mask::width</text>
</a>
</g>
</g>
<!-- Node50&#45;&gt;Node51 -->
<g id="edge2" class="edge">
<title>Node50&#45;&gt;Node51</title>
<path fill="none" stroke="#191970" d="M253.3293,-48C263.0255,-48 273.1682,-48 282.7939,-48"/>
<polygon fill="#191970" stroke="#191970" points="282.9904,-51.5001 292.9903,-48 282.9903,-44.5001 282.9904,-51.5001"/>
</g>
<!-- Node53 -->
<g id="node5" class="node">
<title>Node53</title>
<g id="a_node5"><a xlink:href="classMask.html#af845b7d3220b707c8b4c48bf87d045bb" target="_top" xlink:title="Get the height of the mask in pixels.">
<polygon fill="#ffffff" stroke="#000000" points="291,-.5 291,-19.5 370,-19.5 370,-.5 291,-.5"/>
<text text-anchor="middle" x="330.5" y="-7.5" font-family="Helvetica,sans-Serif" font-size="10.00" fill="#000000">Mask::height</text>
</a>
</g>
</g>
<!-- Node52&#45;&gt;Node53 -->
<g id="edge4" class="edge">
<title>Node52&#45;&gt;Node53</title>
<path fill="none" stroke="#191970" d="M255.1558,-10C263.6508,-10 272.4391,-10 280.8831,-10"/>
<polygon fill="#191970" stroke="#191970" points="280.9692,-13.5001 290.9691,-10 280.9691,-6.5001 280.9692,-13.5001"/>
</g>
</g>
</svg>
