<?xml version="1.0" encoding="UTF-8" standalone="no"?>
<!DOCTYPE svg PUBLIC "-//W3C//DTD SVG 1.1//EN"
 "http://www.w3.org/Graphics/SVG/1.1/DTD/svg11.dtd">
<!-- Generated by graphviz version 2.40.1 (20161225.0304)
 -->
<!-- Title: GridFinder::findNextLine Pages: 1 -->
<svg width="1316pt" height="420pt"
 viewBox="0.00 0.00 1316.00 420.00" xmlns="http://www.w3.org/2000/svg" xmlns:xlink="http://www.w3.org/1999/xlink">
<g id="graph0" class="graph" transform="scale(1 1) rotate(0) translate(4 416)">
<title>GridFinder::findNextLine</title>
<polygon fill="#ffffff" stroke="transparent" points="-4,4 -4,-416 1312,-416 1312,4 -4,4"/>
<!-- Node87 -->
<g id="node1" class="node">
<title>Node87</title>
<g id="a_node1"><a xlink:title="Equivalent to #findNextLine(LineResult,bool,uint,uint) but also supports optional LineResults.">
<polygon fill="#bfbfbf" stroke="#000000" points="0,-190.5 0,-209.5 134,-209.5 134,-190.5 0,-190.5"/>
<text text-anchor="middle" x="67" y="-197.5" font-family="Helvetica,sans-Serif" font-size="10.00" fill="#000000">GridFinder::findNextLine</text>
</a>
</g>
</g>
<!-- Node88 -->
<g id="node2" class="node">
<title>Node88</title>
<g id="a_node2"><a xlink:href="classGridFinder.html#a79b62fc48a9db94ad0530e76ed2c3306" target="_top" xlink:title="Follow the given line to find the line perpendicular to it. Move along the line for minDistance pixel...">
<polygon fill="#ffffff" stroke="#000000" points="170,-190.5 170,-209.5 304,-209.5 304,-190.5 170,-190.5"/>
<text text-anchor="middle" x="237" y="-197.5" font-family="Helvetica,sans-Serif" font-size="10.00" fill="#000000">GridFinder::findNextLine</text>
</a>
</g>
</g>
<!-- Node87&#45;&gt;Node88 -->
<g id="edge1" class="edge">
<title>Node87&#45;&gt;Node88</title>
<path fill="none" stroke="#191970" d="M134.1885,-200C142.5021,-200 151.0537,-200 159.5056,-200"/>
<polygon fill="#191970" stroke="#191970" points="159.7429,-203.5001 169.7428,-200 159.7428,-196.5001 159.7429,-203.5001"/>
</g>
<!-- Node89 -->
<g id="node3" class="node">
<title>Node89</title>
<g id="a_node3"><a xlink:href="classAngle.html#aa9c7edb3027272ad1e45098383f0a94d" target="_top" xlink:title=" ">
<polygon fill="#ffffff" stroke="#000000" points="342,-392.5 342,-411.5 459,-411.5 459,-392.5 342,-392.5"/>
<text text-anchor="middle" x="400.5" y="-399.5" font-family="Helvetica,sans-Serif" font-size="10.00" fill="#000000">Angle::perpendicular</text>
</a>
</g>
</g>
<!-- Node88&#45;&gt;Node89 -->
<g id="edge2" class="edge">
<title>Node88&#45;&gt;Node89</title>
<path fill="none" stroke="#191970" d="M240.0036,-209.585C249.6646,-238.9309 282.6941,-328.5505 340,-378 344.6037,-381.9725 349.9452,-385.3354 355.5109,-388.1695"/>
<polygon fill="#191970" stroke="#191970" points="354.4443,-391.5281 364.9986,-392.4539 357.3253,-385.1484 354.4443,-391.5281"/>
</g>
<!-- Node90 -->
<g id="node4" class="node">
<title>Node90</title>
<g id="a_node4"><a xlink:href="classGridFinder.html#a9b31ec7807efc6e1fde49f5a56c0d0fa" target="_top" xlink:title="Move a pixel in a given direction for a given distance.">
<polygon fill="#ffffff" stroke="#000000" points="699,-316.5 699,-335.5 799,-335.5 799,-316.5 699,-316.5"/>
<text text-anchor="middle" x="749" y="-323.5" font-family="Helvetica,sans-Serif" font-size="10.00" fill="#000000">GridFinder::move</text>
</a>
</g>
</g>
<!-- Node88&#45;&gt;Node90 -->
<g id="edge3" class="edge">
<title>Node88&#45;&gt;Node90</title>
<path fill="none" stroke="#191970" d="M275.9035,-209.5739C367.9549,-232.2272 598.9728,-289.0792 700.1968,-313.9898"/>
<polygon fill="#191970" stroke="#191970" points="699.6091,-317.4496 710.1558,-316.4407 701.2819,-310.6524 699.6091,-317.4496"/>
</g>
<!-- Node91 -->
<g id="node5" class="node">
<title>Node91</title>
<g id="a_node5"><a xlink:href="classBresenhamLine.html#aba0822ee20811d67cd9539ccbe1cd346" target="_top" xlink:title=" ">
<polygon fill="#ffffff" stroke="#000000" points="1047,-272.5 1047,-291.5 1186,-291.5 1186,-272.5 1047,-272.5"/>
<text text-anchor="middle" x="1116.5" y="-279.5" font-family="Helvetica,sans-Serif" font-size="10.00" fill="#000000">BresenhamLine::hasNext</text>
</a>
</g>
</g>
<!-- Node88&#45;&gt;Node91 -->
<g id="edge10" class="edge">
<title>Node88&#45;&gt;Node91</title>
<path fill="none" stroke="#191970" d="M248.1128,-190.4917C288.1833,-157.2152 430.1229,-48 567,-48 567,-48 567,-48 749,-48 868.1683,-48 914.2721,-35.3954 1011,-105 1067.0508,-145.3338 1098.5568,-225.4768 1110.6647,-262.4624"/>
<polygon fill="#191970" stroke="#191970" points="1107.47,-263.9713 1113.8053,-272.4633 1114.1484,-261.874 1107.47,-263.9713"/>
</g>
<!-- Node94 -->
<g id="node8" class="node">
<title>Node94</title>
<g id="a_node8"><a xlink:href="classBresenhamLine.html#a10d505e30945f42a5cd0270c315b104f" target="_top" xlink:title=" ">
<polygon fill="#ffffff" stroke="#000000" points="876,-354.5 876,-373.5 996,-373.5 996,-354.5 876,-354.5"/>
<text text-anchor="middle" x="936" y="-361.5" font-family="Helvetica,sans-Serif" font-size="10.00" fill="#000000">BresenhamLine::next</text>
</a>
</g>
</g>
<!-- Node88&#45;&gt;Node94 -->
<g id="edge9" class="edge">
<title>Node88&#45;&gt;Node94</title>
<path fill="none" stroke="#191970" d="M252.1788,-209.522C271.82,-221.5065 307.3956,-242.0827 340,-255 482.5317,-311.4688 521.8493,-319.3587 673,-345 737.7678,-355.9873 812.5637,-360.6268 865.7939,-362.5827"/>
<polygon fill="#191970" stroke="#191970" points="865.6938,-366.0812 875.8086,-362.9284 865.9354,-359.0854 865.6938,-366.0812"/>
</g>
<!-- Node95 -->
<g id="node9" class="node">
<title>Node95</title>
<g id="a_node9"><a xlink:href="classGridFinder.html#a53cfbafaf3cd06baac2a19eeee0cfb73" target="_top" xlink:title="Get the value of the given pixel.">
<polygon fill="#ffffff" stroke="#000000" points="892,-114.5 892,-133.5 980,-133.5 980,-114.5 892,-114.5"/>
<text text-anchor="middle" x="936" y="-121.5" font-family="Helvetica,sans-Serif" font-size="10.00" fill="#000000">GridFinder::get</text>
</a>
</g>
</g>
<!-- Node88&#45;&gt;Node95 -->
<g id="edge11" class="edge">
<title>Node88&#45;&gt;Node95</title>
<path fill="none" stroke="#191970" d="M288.062,-190.4768C304.6243,-187.4157 323.0862,-184.0329 340,-181 487.8696,-154.4847 523.3299,-135.9369 673,-123 740.3046,-117.1824 757.4451,-122.6957 825,-123 843.5318,-123.0835 863.8034,-123.2453 881.8929,-123.4149"/>
<polygon fill="#191970" stroke="#191970" points="881.9432,-126.9155 891.9766,-123.5123 882.0109,-119.9158 881.9432,-126.9155"/>
</g>
<!-- Node96 -->
<g id="node10" class="node">
<title>Node96</title>
<g id="a_node10"><a xlink:href="structPixel.html#ac3b82b3e3cd3b812dc1a0bccb474511f" target="_top" xlink:title=" ">
<polygon fill="#ffffff" stroke="#000000" points="357.5,-.5 357.5,-19.5 443.5,-19.5 443.5,-.5 357.5,-.5"/>
<text text-anchor="middle" x="400.5" y="-7.5" font-family="Helvetica,sans-Serif" font-size="10.00" fill="#000000">Pixel::average</text>
</a>
</g>
</g>
<!-- Node88&#45;&gt;Node96 -->
<g id="edge12" class="edge">
<title>Node88&#45;&gt;Node96</title>
<path fill="none" stroke="#191970" d="M240.4898,-190.2732C251.0561,-162.1255 285.3667,-79.696 340,-34 344.8349,-29.9561 350.4352,-26.5349 356.2378,-23.6572"/>
<polygon fill="#191970" stroke="#191970" points="357.7223,-26.8277 365.4419,-19.571 354.8819,-20.4298 357.7223,-26.8277"/>
</g>
<!-- Node97 -->
<g id="node11" class="node">
<title>Node97</title>
<g id="a_node11"><a xlink:href="classGridFinder.html#a9050aab45d10d2c2d4859af19b4987b4" target="_top" xlink:title="Check if there could be a valid line going through the given point, and if so, find and return the ac...">
<polygon fill="#ffffff" stroke="#000000" points="340,-190.5 340,-209.5 461,-209.5 461,-190.5 340,-190.5"/>
<text text-anchor="middle" x="400.5" y="-197.5" font-family="Helvetica,sans-Serif" font-size="10.00" fill="#000000">GridFinder::checkLine</text>
</a>
</g>
</g>
<!-- Node88&#45;&gt;Node97 -->
<g id="edge13" class="edge">
<title>Node88&#45;&gt;Node97</title>
<path fill="none" stroke="#191970" d="M304.4457,-200C312.7631,-200 321.2845,-200 329.6508,-200"/>
<polygon fill="#191970" stroke="#191970" points="329.7548,-203.5001 339.7548,-200 329.7548,-196.5001 329.7548,-203.5001"/>
</g>
<!-- Node90&#45;&gt;Node91 -->
<g id="edge4" class="edge">
<title>Node90&#45;&gt;Node91</title>
<path fill="none" stroke="#191970" d="M799.0064,-324.7541C851.9272,-322.8809 937.7514,-318.2603 1011,-307 1031.5015,-303.8484 1053.901,-298.7778 1072.766,-294.0242"/>
<polygon fill="#191970" stroke="#191970" points="1073.75,-297.3851 1082.5633,-291.505 1072.0067,-290.6057 1073.75,-297.3851"/>
</g>
<!-- Node93 -->
<g id="node7" class="node">
<title>Node93</title>
<g id="a_node7"><a xlink:href="classBresenhamLine.html#ad93a4adf0535a9b4e649bce5ade1bc5e" target="_top" xlink:title=" ">
<polygon fill="#ffffff" stroke="#000000" points="861,-267 861,-297 1011,-297 1011,-267 861,-267"/>
<text text-anchor="start" x="869" y="-285" font-family="Helvetica,sans-Serif" font-size="10.00" fill="#000000">BresenhamLine::getCurrent</text>
<text text-anchor="middle" x="936" y="-274" font-family="Helvetica,sans-Serif" font-size="10.00" fill="#000000">Length</text>
</a>
</g>
</g>
<!-- Node90&#45;&gt;Node93 -->
<g id="edge6" class="edge">
<title>Node90&#45;&gt;Node93</title>
<path fill="none" stroke="#191970" d="M789.5762,-316.4527C810.8182,-311.4545 837.4942,-305.1778 862.2379,-299.3558"/>
<polygon fill="#191970" stroke="#191970" points="863.0397,-302.7628 871.9722,-297.0654 861.4364,-295.9489 863.0397,-302.7628"/>
</g>
<!-- Node90&#45;&gt;Node94 -->
<g id="edge7" class="edge">
<title>Node90&#45;&gt;Node94</title>
<path fill="none" stroke="#191970" d="M796.188,-335.589C821.4205,-340.7165 852.673,-347.0672 879.2268,-352.4632"/>
<polygon fill="#191970" stroke="#191970" points="878.6546,-355.9184 889.1513,-354.4799 880.0486,-349.0586 878.6546,-355.9184"/>
</g>
<!-- Node92 -->
<g id="node6" class="node">
<title>Node92</title>
<g id="a_node6"><a xlink:href="structPixel.html#a816d743559e2ac5b35c9c79ac517ad0a" target="_top" xlink:title=" ">
<polygon fill="#ffffff" stroke="#000000" points="1222,-272.5 1222,-291.5 1308,-291.5 1308,-272.5 1222,-272.5"/>
<text text-anchor="middle" x="1265" y="-279.5" font-family="Helvetica,sans-Serif" font-size="10.00" fill="#000000">Pixel::inRange</text>
</a>
</g>
</g>
<!-- Node91&#45;&gt;Node92 -->
<g id="edge5" class="edge">
<title>Node91&#45;&gt;Node92</title>
<path fill="none" stroke="#191970" d="M1186.4016,-282C1194.8647,-282 1203.4033,-282 1211.5758,-282"/>
<polygon fill="#191970" stroke="#191970" points="1211.6984,-285.5001 1221.6984,-282 1211.6984,-278.5001 1211.6984,-285.5001"/>
</g>
<!-- Node94&#45;&gt;Node91 -->
<g id="edge8" class="edge">
<title>Node94&#45;&gt;Node91</title>
<path fill="none" stroke="#191970" d="M970.485,-354.4909C983.3968,-350.5354 998.0643,-345.5636 1011,-340 1040.1027,-327.4829 1071.7265,-309.4561 1092.6842,-296.8316"/>
<polygon fill="#191970" stroke="#191970" points="1094.5251,-299.8085 1101.2448,-291.6173 1090.8836,-293.8302 1094.5251,-299.8085"/>
</g>
<!-- Node98 -->
<g id="node12" class="node">
<title>Node98</title>
<g id="a_node12"><a xlink:href="classGridFinder.html#a187e8c44c7f99237645b49dc2c6745c8" target="_top" xlink:title="Find the middle of a line.">
<polygon fill="#ffffff" stroke="#000000" points="507,-209.5 507,-228.5 627,-228.5 627,-209.5 507,-209.5"/>
<text text-anchor="middle" x="567" y="-216.5" font-family="Helvetica,sans-Serif" font-size="10.00" fill="#000000">GridFinder::getMiddle</text>
</a>
</g>
</g>
<!-- Node97&#45;&gt;Node98 -->
<g id="edge14" class="edge">
<title>Node97&#45;&gt;Node98</title>
<path fill="none" stroke="#191970" d="M461.0813,-206.9132C472.5878,-208.2262 484.7196,-209.6106 496.5024,-210.9552"/>
<polygon fill="#191970" stroke="#191970" points="496.4102,-214.4673 506.7426,-212.1238 497.2039,-207.5125 496.4102,-214.4673"/>
</g>
<!-- Node103 -->
<g id="node17" class="node">
<title>Node103</title>
<g id="a_node17"><a xlink:href="classAngle.html#a84ce9a0e2a186ada6997077fd96d6e4c" target="_top" xlink:title=" ">
<polygon fill="#ffffff" stroke="#000000" points="497,-171.5 497,-190.5 637,-190.5 637,-171.5 497,-171.5"/>
<text text-anchor="middle" x="567" y="-178.5" font-family="Helvetica,sans-Serif" font-size="10.00" fill="#000000">Angle&lt; 360 &gt;::resolution</text>
</a>
</g>
</g>
<!-- Node97&#45;&gt;Node103 -->
<g id="edge26" class="edge">
<title>Node97&#45;&gt;Node103</title>
<path fill="none" stroke="#191970" d="M461.0813,-193.0868C469.4351,-192.1335 478.1186,-191.1426 486.7587,-190.1567"/>
<polygon fill="#191970" stroke="#191970" points="487.3207,-193.6153 496.8593,-189.004 486.527,-186.6605 487.3207,-193.6153"/>
</g>
<!-- Node98&#45;&gt;Node90 -->
<g id="edge25" class="edge">
<title>Node98&#45;&gt;Node90</title>
<path fill="none" stroke="#191970" d="M582.721,-228.6196C597.391,-237.9097 619.5723,-252.7747 637,-268 654.7647,-283.5197 652.7092,-294.9697 673,-307 678.0214,-309.9771 683.4954,-312.4901 689.1291,-314.6108"/>
<polygon fill="#191970" stroke="#191970" points="688.1154,-317.9623 698.7093,-317.8222 690.3402,-311.3253 688.1154,-317.9623"/>
</g>
<!-- Node98&#45;&gt;Node95 -->
<g id="edge15" class="edge">
<title>Node98&#45;&gt;Node95</title>
<path fill="none" stroke="#191970" d="M614.9862,-209.4657C622.6146,-206.9753 630.2176,-203.867 637,-200 656.3859,-188.9472 653.0339,-174.9664 673,-165 739.4214,-131.8446 826.0468,-124.1556 881.3633,-123.0276"/>
<polygon fill="#191970" stroke="#191970" points="881.7037,-126.5233 891.6546,-122.8862 881.6074,-119.524 881.7037,-126.5233"/>
</g>
<!-- Node99 -->
<g id="node13" class="node">
<title>Node99</title>
<g id="a_node13"><a xlink:href="structCosSin.html#a4c63ac2c483b5caa4012f8c27d58dd96" target="_top" xlink:title=" ">
<polygon fill="#ffffff" stroke="#000000" points="700,-228.5 700,-247.5 798,-247.5 798,-228.5 700,-228.5"/>
<text text-anchor="middle" x="749" y="-235.5" font-family="Helvetica,sans-Serif" font-size="10.00" fill="#000000">CosSin::opposite</text>
</a>
</g>
</g>
<!-- Node98&#45;&gt;Node99 -->
<g id="edge16" class="edge">
<title>Node98&#45;&gt;Node99</title>
<path fill="none" stroke="#191970" d="M627.098,-225.274C647.2932,-227.3823 669.7925,-229.7311 689.9096,-231.8312"/>
<polygon fill="#191970" stroke="#191970" points="689.5699,-235.3147 699.8793,-232.872 690.2968,-228.3525 689.5699,-235.3147"/>
</g>
<!-- Node100 -->
<g id="node14" class="node">
<title>Node100</title>
<g id="a_node14"><a xlink:href="classGridFinder.html#a83b31c2192a137e56e91d13661f1c658" target="_top" xlink:title="Get the width of the line at a given point.">
<polygon fill="#ffffff" stroke="#000000" points="673,-267 673,-297 825,-297 825,-267 673,-267"/>
<text text-anchor="start" x="681" y="-285" font-family="Helvetica,sans-Serif" font-size="10.00" fill="#000000">GridFinder::getWidthAtPoint</text>
<text text-anchor="middle" x="749" y="-274" font-family="Helvetica,sans-Serif" font-size="10.00" fill="#000000">OnLine</text>
</a>
</g>
</g>
<!-- Node98&#45;&gt;Node100 -->
<g id="edge17" class="edge">
<title>Node98&#45;&gt;Node100</title>
<path fill="none" stroke="#191970" d="M593.0693,-228.5624C614.4845,-236.3653 645.6373,-247.5968 673,-257 679.4428,-259.2141 686.2065,-261.4974 692.9317,-263.7422"/>
<polygon fill="#191970" stroke="#191970" points="692.122,-267.1612 702.7155,-266.991 694.3281,-260.5179 692.122,-267.1612"/>
</g>
<!-- Node101 -->
<g id="node15" class="node">
<title>Node101</title>
<g id="a_node15"><a xlink:href="structCosSin.html#adb1d000cc58879b65a63fac849408bfe" target="_top" xlink:title=" ">
<polygon fill="#ffffff" stroke="#000000" points="875,-171.5 875,-190.5 997,-190.5 997,-171.5 875,-171.5"/>
<text text-anchor="middle" x="936" y="-178.5" font-family="Helvetica,sans-Serif" font-size="10.00" fill="#000000">CosSin::perpendicular</text>
</a>
</g>
</g>
<!-- Node98&#45;&gt;Node101 -->
<g id="edge24" class="edge">
<title>Node98&#45;&gt;Node101</title>
<path fill="none" stroke="#191970" d="M608.2106,-209.439C617.7935,-206.771 627.8616,-203.6006 637,-200 653.8322,-193.3679 655.439,-185.3498 673,-181 736.4962,-165.2721 811.2924,-167.148 864.8543,-171.8501"/>
<polygon fill="#191970" stroke="#191970" points="864.6552,-175.3466 874.9371,-172.7905 865.3053,-168.3769 864.6552,-175.3466"/>
</g>
<!-- Node102 -->
<g id="node16" class="node">
<title>Node102</title>
<g id="a_node16"><a xlink:href="Array_8hpp.html#a54bae1a9c86ad6bc491b4f10495a759f" target="_top" xlink:title=" ">
<polygon fill="#ffffff" stroke="#000000" points="732,-190.5 732,-209.5 766,-209.5 766,-190.5 732,-190.5"/>
<text text-anchor="middle" x="749" y="-197.5" font-family="Helvetica,sans-Serif" font-size="10.00" fill="#000000">abs</text>
</a>
</g>
</g>
<!-- Node98&#45;&gt;Node102 -->
<g id="edge23" class="edge">
<title>Node98&#45;&gt;Node102</title>
<path fill="none" stroke="#191970" d="M627.098,-212.726C659.0264,-209.3928 696.714,-205.4584 721.6417,-202.8561"/>
<polygon fill="#191970" stroke="#191970" points="722.2275,-206.314 731.81,-201.7946 721.5006,-199.3519 722.2275,-206.314"/>
</g>
<!-- Node100&#45;&gt;Node91 -->
<g id="edge19" class="edge">
<title>Node100&#45;&gt;Node91</title>
<path fill="none" stroke="#191970" d="M807.912,-266.94C824.9253,-263.2557 843.5978,-259.8436 861,-258 927.2957,-250.9766 944.7498,-250.5595 1011,-258 1031.7279,-260.3279 1054.3236,-265.1519 1073.2668,-269.8686"/>
<polygon fill="#191970" stroke="#191970" points="1072.5387,-273.295 1083.0945,-272.3861 1074.2758,-266.5139 1072.5387,-273.295"/>
</g>
<!-- Node100&#45;&gt;Node93 -->
<g id="edge21" class="edge">
<title>Node100&#45;&gt;Node93</title>
<path fill="none" stroke="#191970" d="M825.0601,-282C833.5634,-282 842.2662,-282 850.8736,-282"/>
<polygon fill="#191970" stroke="#191970" points="850.9165,-285.5001 860.9165,-282 850.9165,-278.5001 850.9165,-285.5001"/>
</g>
<!-- Node100&#45;&gt;Node94 -->
<g id="edge20" class="edge">
<title>Node100&#45;&gt;Node94</title>
<path fill="none" stroke="#191970" d="M798.4738,-297.0268C807.3943,-300.0881 816.5424,-303.463 825,-307 855.2536,-319.6521 888.5394,-337.2714 910.6935,-349.5599"/>
<polygon fill="#191970" stroke="#191970" points="909.0298,-352.6396 919.4653,-354.47 912.4489,-346.5314 909.0298,-352.6396"/>
</g>
<!-- Node100&#45;&gt;Node95 -->
<g id="edge22" class="edge">
<title>Node100&#45;&gt;Node95</title>
<path fill="none" stroke="#191970" d="M811.4385,-266.8425C816.3693,-264.0911 820.985,-260.8404 825,-257 857.6287,-225.7897 830.8212,-195.5851 861,-162 870.4071,-151.5311 883.3676,-143.5576 895.8703,-137.6848"/>
<polygon fill="#191970" stroke="#191970" points="897.4995,-140.7931 905.2755,-133.5968 894.7091,-134.3732 897.4995,-140.7931"/>
</g>
<!-- Node100&#45;&gt;Node101 -->
<g id="edge18" class="edge">
<title>Node100&#45;&gt;Node101</title>
<path fill="none" stroke="#191970" d="M804.193,-266.9488C811.4047,-264.095 818.528,-260.791 825,-257 843.7287,-246.0297 843.4779,-236.8096 861,-224 875.7103,-213.246 893.336,-203.0211 907.8036,-195.242"/>
<polygon fill="#191970" stroke="#191970" points="909.5792,-198.2625 916.7923,-190.5023 906.3142,-192.0706 909.5792,-198.2625"/>
</g>
</g>
</svg>
