<?xml version="1.0" encoding="UTF-8" standalone="no"?>
<!DOCTYPE svg PUBLIC "-//W3C//DTD SVG 1.1//EN"
 "http://www.w3.org/Graphics/SVG/1.1/DTD/svg11.dtd">
<!-- Generated by graphviz version 2.40.1 (20161225.0304)
 -->
<!-- Title: BresenhamLine::next Pages: 1 -->
<svg width="1009pt" height="325pt"
 viewBox="0.00 0.00 1009.00 324.50" xmlns="http://www.w3.org/2000/svg" xmlns:xlink="http://www.w3.org/1999/xlink">
<g id="graph0" class="graph" transform="scale(1 1) rotate(0) translate(4 320.5)">
<title>BresenhamLine::next</title>
<polygon fill="#ffffff" stroke="transparent" points="-4,4 -4,-320.5 1005,-320.5 1005,4 -4,4"/>
<!-- Node46 -->
<g id="node1" class="node">
<title>Node46</title>
<g id="a_node1"><a xlink:title=" ">
<polygon fill="#bfbfbf" stroke="#000000" points="881,-82.5 881,-101.5 1001,-101.5 1001,-82.5 881,-82.5"/>
<text text-anchor="middle" x="941" y="-89.5" font-family="Helvetica,sans-Serif" font-size="10.00" fill="#000000">BresenhamLine::next</text>
</a>
</g>
</g>
<!-- Node47 -->
<g id="node2" class="node">
<title>Node47</title>
<g id="a_node2"><a xlink:href="classGridFinder.html#ae562737b4e1d28a7888aedb53449e0e7" target="_top" xlink:title="Starting from the given pixel, move in the direction of the given angle, and count the number of whit...">
<polygon fill="#ffffff" stroke="#000000" points="718,-220.5 718,-239.5 820,-239.5 820,-220.5 718,-220.5"/>
<text text-anchor="middle" x="769" y="-227.5" font-family="Helvetica,sans-Serif" font-size="10.00" fill="#000000">GridFinder::hough</text>
</a>
</g>
</g>
<!-- Node46&#45;&gt;Node47 -->
<g id="edge1" class="edge">
<title>Node46&#45;&gt;Node47</title>
<path fill="none" stroke="#191970" d="M921.0187,-108.0315C884.9247,-136.9907 809.9074,-197.179 780.853,-220.49"/>
<polygon fill="#191970" stroke="#191970" points="923.2958,-110.6919 928.9053,-101.7039 918.9151,-105.232 923.2958,-110.6919"/>
</g>
<!-- Node52 -->
<g id="node7" class="node">
<title>Node52</title>
<g id="a_node7"><a xlink:href="classGridFinder.html#a83b31c2192a137e56e91d13661f1c658" target="_top" xlink:title="Get the width of the line at a given point.">
<polygon fill="#ffffff" stroke="#000000" points="693,-77 693,-107 845,-107 845,-77 693,-77"/>
<text text-anchor="start" x="701" y="-95" font-family="Helvetica,sans-Serif" font-size="10.00" fill="#000000">GridFinder::getWidthAtPoint</text>
<text text-anchor="middle" x="769" y="-84" font-family="Helvetica,sans-Serif" font-size="10.00" fill="#000000">OnLine</text>
</a>
</g>
</g>
<!-- Node46&#45;&gt;Node52 -->
<g id="edge6" class="edge">
<title>Node46&#45;&gt;Node52</title>
<path fill="none" stroke="#191970" d="M870.6972,-92C862.2766,-92 853.6482,-92 845.1498,-92"/>
<polygon fill="#191970" stroke="#191970" points="870.8428,-95.5001 880.8427,-92 870.8427,-88.5001 870.8428,-95.5001"/>
</g>
<!-- Node56 -->
<g id="node11" class="node">
<title>Node56</title>
<g id="a_node11"><a xlink:href="classGridFinder.html#a79b62fc48a9db94ad0530e76ed2c3306" target="_top" xlink:title="Follow the given line to find the line perpendicular to it. Move along the line for minDistance pixel...">
<polygon fill="#ffffff" stroke="#000000" points="170,-76.5 170,-95.5 304,-95.5 304,-76.5 170,-76.5"/>
<text text-anchor="middle" x="237" y="-83.5" font-family="Helvetica,sans-Serif" font-size="10.00" fill="#000000">GridFinder::findNextLine</text>
</a>
</g>
</g>
<!-- Node46&#45;&gt;Node56 -->
<g id="edge19" class="edge">
<title>Node46&#45;&gt;Node56</title>
<path fill="none" stroke="#191970" d="M902.2155,-79.4965C884.9054,-74.5433 864.1356,-69.4508 845,-67 649.9004,-42.0131 416.8636,-63.441 304.36,-76.9725"/>
<polygon fill="#191970" stroke="#191970" points="901.3873,-82.9013 911.9691,-82.3758 903.3692,-76.1877 901.3873,-82.9013"/>
</g>
<!-- Node59 -->
<g id="node14" class="node">
<title>Node59</title>
<g id="a_node14"><a xlink:href="classGridFinder.html#ae01e82a5f2ac5832d9b931aa305854b8" target="_top" xlink:title="Draw a line on the mask. Used only for testing.">
<polygon fill="#ffffff" stroke="#000000" points="711,-.5 711,-19.5 827,-19.5 827,-.5 711,-.5"/>
<text text-anchor="middle" x="769" y="-7.5" font-family="Helvetica,sans-Serif" font-size="10.00" fill="#000000">GridFinder::drawLine</text>
</a>
</g>
</g>
<!-- Node46&#45;&gt;Node59 -->
<g id="edge14" class="edge">
<title>Node46&#45;&gt;Node59</title>
<path fill="none" stroke="#191970" d="M919.0896,-76.6921C900.1465,-63.9719 871.6832,-46.066 845,-34 832.3924,-28.2989 818.0378,-23.3897 805.2248,-19.5236"/>
<polygon fill="#191970" stroke="#191970" points="917.3395,-79.7348 927.5747,-82.4717 921.2802,-73.9494 917.3395,-79.7348"/>
</g>
<!-- Node60 -->
<g id="node15" class="node">
<title>Node60</title>
<g id="a_node15"><a xlink:href="classGridFinder.html#a9b31ec7807efc6e1fde49f5a56c0d0fa" target="_top" xlink:title="Move a pixel in a given direction for a given distance.">
<polygon fill="#ffffff" stroke="#000000" points="719,-126.5 719,-145.5 819,-145.5 819,-126.5 719,-126.5"/>
<text text-anchor="middle" x="769" y="-133.5" font-family="Helvetica,sans-Serif" font-size="10.00" fill="#000000">GridFinder::move</text>
</a>
</g>
</g>
<!-- Node46&#45;&gt;Node60 -->
<g id="edge15" class="edge">
<title>Node46&#45;&gt;Node60</title>
<path fill="none" stroke="#191970" d="M893.8495,-104.0617C866.2641,-111.1185 831.9269,-119.9024 806.2486,-126.4713"/>
<polygon fill="#191970" stroke="#191970" points="894.858,-107.4166 903.6786,-101.5473 893.1231,-100.6349 894.858,-107.4166"/>
</g>
<!-- Node48 -->
<g id="node3" class="node">
<title>Node48</title>
<g id="a_node3"><a xlink:href="classGridFinder.html#a20f10e8136febf04c3a1987a35860ef1" target="_top" xlink:title="Scan 360° around a given pixel, and find the angle with the most white pixels. This version is not ve...">
<polygon fill="#ffffff" stroke="#000000" points="342.5,-202.5 342.5,-221.5 480.5,-221.5 480.5,-202.5 342.5,-202.5"/>
<text text-anchor="middle" x="411.5" y="-209.5" font-family="Helvetica,sans-Serif" font-size="10.00" fill="#000000">GridFinder::findLineAngle</text>
</a>
</g>
</g>
<!-- Node47&#45;&gt;Node48 -->
<g id="edge2" class="edge">
<title>Node47&#45;&gt;Node48</title>
<path fill="none" stroke="#191970" d="M707.5806,-226.9076C644.5033,-223.7316 546.5089,-218.7977 480.7226,-215.4853"/>
<polygon fill="#191970" stroke="#191970" points="707.6156,-230.4137 717.779,-227.421 707.9677,-223.4225 707.6156,-230.4137"/>
</g>
<!-- Node50 -->
<g id="node5" class="node">
<title>Node50</title>
<g id="a_node5"><a xlink:href="classGridFinder.html#a1ec79b247bf5e64bb9c456eebf420577" target="_top" xlink:title=" ">
<polygon fill="#ffffff" stroke="#000000" points="519,-237 519,-267 657,-267 657,-237 519,-237"/>
<text text-anchor="start" x="527" y="-255" font-family="Helvetica,sans-Serif" font-size="10.00" fill="#000000">GridFinder::findLineAngle</text>
<text text-anchor="middle" x="588" y="-244" font-family="Helvetica,sans-Serif" font-size="10.00" fill="#000000">Accurate</text>
</a>
</g>
</g>
<!-- Node47&#45;&gt;Node50 -->
<g id="edge4" class="edge">
<title>Node47&#45;&gt;Node50</title>
<path fill="none" stroke="#191970" d="M707.23,-237.508C691.0881,-239.47 673.5857,-241.5973 657.09,-243.6023"/>
<polygon fill="#191970" stroke="#191970" points="708.1122,-240.9266 717.6168,-236.2455 707.2675,-233.9777 708.1122,-240.9266"/>
</g>
<!-- Node51 -->
<g id="node6" class="node">
<title>Node51</title>
<g id="a_node6"><a xlink:href="classGridFinder.html#aa1dc2d7760adcd45c649f0c8a303563e" target="_top" xlink:title="Similar to findLineAngle, but is more accurate, because it uses the average of the range of angles wi...">
<polygon fill="#ffffff" stroke="#000000" points="519,-286 519,-316 657,-316 657,-286 519,-286"/>
<text text-anchor="start" x="527" y="-304" font-family="Helvetica,sans-Serif" font-size="10.00" fill="#000000">GridFinder::findLineAngle</text>
<text text-anchor="middle" x="588" y="-293" font-family="Helvetica,sans-Serif" font-size="10.00" fill="#000000">AccurateRange</text>
</a>
</g>
</g>
<!-- Node47&#45;&gt;Node51 -->
<g id="edge5" class="edge">
<title>Node47&#45;&gt;Node51</title>
<path fill="none" stroke="#191970" d="M737.9497,-243.6456C715.5868,-253.322 684.6148,-266.4152 657,-277 649.1837,-279.996 640.8114,-283.0424 632.6893,-285.9141"/>
<polygon fill="#191970" stroke="#191970" points="739.4971,-246.7894 747.2732,-239.5934 736.7069,-240.3695 739.4971,-246.7894"/>
</g>
<!-- Node49 -->
<g id="node4" class="node">
<title>Node49</title>
<g id="a_node4"><a xlink:href="classGridFinder.html#ac78760540b520bc08f716ef77127f1fc" target="_top" xlink:title="Get an estimate of the line through a given pixel. Find an estimate of the slope, then use that to de...">
<polygon fill="#ffffff" stroke="#000000" points="173,-175 173,-205 301,-205 301,-175 173,-175"/>
<text text-anchor="start" x="181" y="-193" font-family="Helvetica,sans-Serif" font-size="10.00" fill="#000000">GridFinder::getFirstLine</text>
<text text-anchor="middle" x="237" y="-182" font-family="Helvetica,sans-Serif" font-size="10.00" fill="#000000">Estimate</text>
</a>
</g>
</g>
<!-- Node48&#45;&gt;Node49 -->
<g id="edge3" class="edge">
<title>Node48&#45;&gt;Node49</title>
<path fill="none" stroke="#191970" d="M332.3082,-202.0159C321.8343,-200.6954 311.2042,-199.3553 301.0285,-198.0724"/>
<polygon fill="#191970" stroke="#191970" points="331.9231,-205.495 342.2823,-203.2734 332.7987,-198.55 331.9231,-205.495"/>
</g>
<!-- Node53 -->
<g id="node8" class="node">
<title>Node53</title>
<g id="a_node8"><a xlink:href="classGridFinder.html#a187e8c44c7f99237645b49dc2c6745c8" target="_top" xlink:title="Find the middle of a line.">
<polygon fill="#ffffff" stroke="#000000" points="528,-115.5 528,-134.5 648,-134.5 648,-115.5 528,-115.5"/>
<text text-anchor="middle" x="588" y="-122.5" font-family="Helvetica,sans-Serif" font-size="10.00" fill="#000000">GridFinder::getMiddle</text>
</a>
</g>
</g>
<!-- Node52&#45;&gt;Node53 -->
<g id="edge7" class="edge">
<title>Node52&#45;&gt;Node53</title>
<path fill="none" stroke="#191970" d="M682.759,-107.7235C668.2465,-110.3694 653.5877,-113.042 640.2796,-115.4684"/>
<polygon fill="#191970" stroke="#191970" points="683.5543,-111.1363 692.7643,-105.8993 682.2987,-104.2498 683.5543,-111.1363"/>
</g>
<!-- Node54 -->
<g id="node9" class="node">
<title>Node54</title>
<g id="a_node9"><a xlink:href="classGridFinder.html#a504ddc8af3a0cc68b68de387ac1a90ea" target="_top" xlink:title="In exceptional cases, we might want to find the middle of a line in a point that happens to lie at th...">
<polygon fill="#ffffff" stroke="#000000" points="340,-153 340,-183 483,-183 483,-153 340,-153"/>
<text text-anchor="start" x="348" y="-171" font-family="Helvetica,sans-Serif" font-size="10.00" fill="#000000">GridFinder::getMiddleWith</text>
<text text-anchor="middle" x="411.5" y="-160" font-family="Helvetica,sans-Serif" font-size="10.00" fill="#000000">Retries</text>
</a>
</g>
</g>
<!-- Node53&#45;&gt;Node54 -->
<g id="edge8" class="edge">
<title>Node53&#45;&gt;Node54</title>
<path fill="none" stroke="#191970" d="M539.1098,-136.9109C518.6799,-141.8882 494.7106,-147.7277 473.0956,-152.9937"/>
<polygon fill="#191970" stroke="#191970" points="539.9416,-140.3107 548.8289,-134.5431 538.2846,-133.5097 539.9416,-140.3107"/>
</g>
<!-- Node55 -->
<g id="node10" class="node">
<title>Node55</title>
<g id="a_node10"><a xlink:href="classGridFinder.html#a9050aab45d10d2c2d4859af19b4987b4" target="_top" xlink:title="Check if there could be a valid line going through the given point, and if so, find and return the ac...">
<polygon fill="#ffffff" stroke="#000000" points="351,-114.5 351,-133.5 472,-133.5 472,-114.5 351,-114.5"/>
<text text-anchor="middle" x="411.5" y="-121.5" font-family="Helvetica,sans-Serif" font-size="10.00" fill="#000000">GridFinder::checkLine</text>
</a>
</g>
</g>
<!-- Node53&#45;&gt;Node55 -->
<g id="edge10" class="edge">
<title>Node53&#45;&gt;Node55</title>
<path fill="none" stroke="#191970" d="M517.4814,-124.6005C502.4475,-124.5153 486.6975,-124.426 472.0754,-124.3432"/>
<polygon fill="#191970" stroke="#191970" points="517.7327,-128.1018 527.7524,-124.6587 517.7724,-121.102 517.7327,-128.1018"/>
</g>
<!-- Node54&#45;&gt;Node49 -->
<g id="edge9" class="edge">
<title>Node54&#45;&gt;Node49</title>
<path fill="none" stroke="#191970" d="M329.8089,-178.2992C320.2012,-179.5104 310.5033,-180.7331 301.1837,-181.9081"/>
<polygon fill="#191970" stroke="#191970" points="330.2851,-181.7669 339.7688,-177.0435 329.4095,-174.8219 330.2851,-181.7669"/>
</g>
<!-- Node55&#45;&gt;Node56 -->
<g id="edge11" class="edge">
<title>Node55&#45;&gt;Node56</title>
<path fill="none" stroke="#191970" d="M357.5309,-112.2474C332.8567,-106.8742 304.0052,-100.5914 280.7171,-95.5201"/>
<polygon fill="#191970" stroke="#191970" points="356.9505,-115.703 367.4663,-114.411 358.44,-108.8633 356.9505,-115.703"/>
</g>
<!-- Node57 -->
<g id="node12" class="node">
<title>Node57</title>
<g id="a_node12"><a xlink:href="classGridFinder.html#ad75180aa82b12c7054e0015adc44a331" target="_top" xlink:title="Equivalent to #findNextLine(LineResult,bool,uint,uint) but also supports optional LineResults.">
<polygon fill="#ffffff" stroke="#000000" points="0,-95.5 0,-114.5 134,-114.5 134,-95.5 0,-95.5"/>
<text text-anchor="middle" x="67" y="-102.5" font-family="Helvetica,sans-Serif" font-size="10.00" fill="#000000">GridFinder::findNextLine</text>
</a>
</g>
</g>
<!-- Node56&#45;&gt;Node57 -->
<g id="edge12" class="edge">
<title>Node56&#45;&gt;Node57</title>
<path fill="none" stroke="#191970" d="M159.854,-94.6222C151.3121,-95.5769 142.6634,-96.5435 134.2572,-97.483"/>
<polygon fill="#191970" stroke="#191970" points="160.2622,-98.0985 169.8115,-93.5093 159.4846,-91.1418 160.2622,-98.0985"/>
</g>
<!-- Node58 -->
<g id="node13" class="node">
<title>Node58</title>
<g id="a_node13"><a xlink:href="classGridFinder.html#a3104d4fe44099faf5179674ecb55cb52" target="_top" xlink:title="This is the main function: it looks for a complete square of the grid, as close to the center of the ...">
<polygon fill="#ffffff" stroke="#000000" points="5,-57.5 5,-76.5 129,-76.5 129,-57.5 5,-57.5"/>
<text text-anchor="middle" x="67" y="-64.5" font-family="Helvetica,sans-Serif" font-size="10.00" fill="#000000">GridFinder::findSquare</text>
</a>
</g>
</g>
<!-- Node56&#45;&gt;Node58 -->
<g id="edge13" class="edge">
<title>Node56&#45;&gt;Node58</title>
<path fill="none" stroke="#191970" d="M159.624,-77.3521C149.3644,-76.2054 138.9554,-75.0421 129.0015,-73.9296"/>
<polygon fill="#191970" stroke="#191970" points="159.4846,-80.8582 169.8115,-78.4907 160.2622,-73.9015 159.4846,-80.8582"/>
</g>
<!-- Node60&#45;&gt;Node53 -->
<g id="edge16" class="edge">
<title>Node60&#45;&gt;Node53</title>
<path fill="none" stroke="#191970" d="M708.3417,-132.3136C688.9348,-131.1342 667.4664,-129.8294 648.0995,-128.6525"/>
<polygon fill="#191970" stroke="#191970" points="708.3875,-135.8227 718.5814,-132.9359 708.8122,-128.8356 708.3875,-135.8227"/>
</g>
<!-- Node60&#45;&gt;Node54 -->
<g id="edge17" class="edge">
<title>Node60&#45;&gt;Node54</title>
<path fill="none" stroke="#191970" d="M708.8535,-141.3837C646.5945,-146.9566 549.3528,-155.6607 483.1534,-161.5863"/>
<polygon fill="#191970" stroke="#191970" points="709.2666,-144.8609 718.9147,-140.4832 708.6425,-137.8887 709.2666,-144.8609"/>
</g>
<!-- Node60&#45;&gt;Node56 -->
<g id="edge18" class="edge">
<title>Node60&#45;&gt;Node56</title>
<path fill="none" stroke="#191970" d="M722.3468,-123.8301C712.641,-121.2681 702.4817,-118.5644 693,-116 676.9701,-111.6646 673.3957,-108.6336 657,-106 533.5708,-86.1741 387.3315,-83.9234 304.0326,-84.606"/>
<polygon fill="#191970" stroke="#191970" points="721.6882,-127.2759 732.2498,-126.4368 723.4702,-120.5065 721.6882,-127.2759"/>
</g>
</g>
</svg>
