<?xml version="1.0" encoding="UTF-8" standalone="no"?>
<!DOCTYPE svg PUBLIC "-//W3C//DTD SVG 1.1//EN"
 "http://www.w3.org/Graphics/SVG/1.1/DTD/svg11.dtd">
<!-- Generated by graphviz version 2.40.1 (20161225.0304)
 -->
<!-- Title: Mask::generateMask Pages: 1 -->
<svg width="293pt" height="66pt"
 viewBox="0.00 0.00 293.00 66.00" xmlns="http://www.w3.org/2000/svg" xmlns:xlink="http://www.w3.org/1999/xlink">
<g id="graph0" class="graph" transform="scale(1 1) rotate(0) translate(4 62)">
<title>Mask::generateMask</title>
<polygon fill="#ffffff" stroke="transparent" points="-4,4 -4,-62 289,-62 289,4 -4,4"/>
<!-- Node12 -->
<g id="node1" class="node">
<title>Node12</title>
<g id="a_node1"><a xlink:title="Generate the black and white mask of the given image.">
<polygon fill="#bfbfbf" stroke="#000000" points="0,-19.5 0,-38.5 117,-38.5 117,-19.5 0,-19.5"/>
<text text-anchor="middle" x="58.5" y="-26.5" font-family="Helvetica,sans-Serif" font-size="10.00" fill="#000000">Mask::generateMask</text>
</a>
</g>
</g>
<!-- Node13 -->
<g id="node2" class="node">
<title>Node13</title>
<g id="a_node2"><a xlink:href="classMask.html#a5e07140c5f18883bf05b4b755bacbd6a" target="_top" xlink:title="Get the padded length for the data vector.">
<polygon fill="#ffffff" stroke="#000000" points="153,-38.5 153,-57.5 285,-57.5 285,-38.5 153,-38.5"/>
<text text-anchor="middle" x="219" y="-45.5" font-family="Helvetica,sans-Serif" font-size="10.00" fill="#000000">Mask::getPaddedLength</text>
</a>
</g>
</g>
<!-- Node12&#45;&gt;Node13 -->
<g id="edge1" class="edge">
<title>Node12&#45;&gt;Node13</title>
<path fill="none" stroke="#191970" d="M117.3529,-35.967C125.6481,-36.949 134.2723,-37.9699 142.8344,-38.9835"/>
<polygon fill="#191970" stroke="#191970" points="142.4914,-42.4673 152.8335,-40.1672 143.3144,-35.5158 142.4914,-42.4673"/>
</g>
<!-- Node14 -->
<g id="node3" class="node">
<title>Node14</title>
<g id="a_node3"><a xlink:href="Array_8hpp.html#ac1529fab6e725afceb60a62dff0fcef0" target="_top" xlink:title=" ">
<polygon fill="#ffffff" stroke="#000000" points="182,-.5 182,-19.5 256,-19.5 256,-.5 182,-.5"/>
<text text-anchor="middle" x="219" y="-7.5" font-family="Helvetica,sans-Serif" font-size="10.00" fill="#000000">operator++</text>
</a>
</g>
</g>
<!-- Node12&#45;&gt;Node14 -->
<g id="edge2" class="edge">
<title>Node12&#45;&gt;Node14</title>
<path fill="none" stroke="#191970" d="M117.3529,-22.033C135.1343,-19.928 154.4276,-17.6441 171.3797,-15.6373"/>
<polygon fill="#191970" stroke="#191970" points="172.0786,-19.0791 181.5977,-14.4277 171.2556,-12.1276 172.0786,-19.0791"/>
</g>
</g>
</svg>
