<?xml version="1.0" encoding="UTF-8" standalone="no"?>
<!DOCTYPE svg PUBLIC "-//W3C//DTD SVG 1.1//EN"
 "http://www.w3.org/Graphics/SVG/1.1/DTD/svg11.dtd">
<!-- Generated by graphviz version 2.40.1 (20161225.0304)
 -->
<!-- Title: CryptoPoller::start Pages: 1 -->
<svg width="429pt" height="28pt"
 viewBox="0.00 0.00 429.00 28.00" xmlns="http://www.w3.org/2000/svg" xmlns:xlink="http://www.w3.org/1999/xlink">
<g id="graph0" class="graph" transform="scale(1 1) rotate(0) translate(4 24)">
<title>CryptoPoller::start</title>
<polygon fill="#ffffff" stroke="transparent" points="-4,4 -4,-24 425,-24 425,4 -4,4"/>
<!-- Node28 -->
<g id="node1" class="node">
<title>Node28</title>
<g id="a_node1"><a xlink:title=" ">
<polygon fill="#bfbfbf" stroke="#000000" points="316,-.5 316,-19.5 421,-19.5 421,-.5 316,-.5"/>
<text text-anchor="middle" x="368.5" y="-7.5" font-family="Helvetica,sans-Serif" font-size="10.00" fill="#000000">CryptoPoller::start</text>
</a>
</g>
</g>
<!-- Node29 -->
<g id="node2" class="node">
<title>Node29</title>
<g id="a_node2"><a xlink:href="classKetje.html#a2aaeeaf71dcf9d83d7c8694154a02117" target="_top" xlink:title=" ">
<polygon fill="#ffffff" stroke="#000000" points="191,-.5 191,-19.5 280,-19.5 280,-.5 191,-.5"/>
<text text-anchor="middle" x="235.5" y="-7.5" font-family="Helvetica,sans-Serif" font-size="10.00" fill="#000000">Ketje::initialize</text>
</a>
</g>
</g>
<!-- Node28&#45;&gt;Node29 -->
<g id="edge1" class="edge">
<title>Node28&#45;&gt;Node29</title>
<path fill="none" stroke="#191970" d="M305.9004,-10C297.2886,-10 288.5893,-10 280.3829,-10"/>
<polygon fill="#191970" stroke="#191970" points="305.9349,-13.5001 315.9349,-10 305.9348,-6.5001 305.9349,-13.5001"/>
</g>
<!-- Node30 -->
<g id="node3" class="node">
<title>Node30</title>
<g id="a_node3"><a xlink:href="namespaceHWImplementation.html#abc6e81f17d057a26e8491533d5dfdc38" target="_top" xlink:title=" ">
<polygon fill="#ffffff" stroke="#000000" points="0,-.5 0,-19.5 155,-19.5 155,-.5 0,-.5"/>
<text text-anchor="middle" x="77.5" y="-7.5" font-family="Helvetica,sans-Serif" font-size="10.00" fill="#000000">HWImplementation::decrypt</text>
</a>
</g>
</g>
<!-- Node29&#45;&gt;Node30 -->
<g id="edge2" class="edge">
<title>Node29&#45;&gt;Node30</title>
<path fill="none" stroke="#191970" d="M180.4675,-10C172.246,-10 163.6421,-10 155.0608,-10"/>
<polygon fill="#191970" stroke="#191970" points="180.6462,-13.5001 190.6462,-10 180.6461,-6.5001 180.6462,-13.5001"/>
</g>
</g>
</svg>
