<?xml version="1.0" encoding="UTF-8" standalone="no"?>
<!DOCTYPE svg PUBLIC "-//W3C//DTD SVG 1.1//EN"
 "http://www.w3.org/Graphics/SVG/1.1/DTD/svg11.dtd">
<!-- Generated by graphviz version 2.40.1 (20161225.0304)
 -->
<!-- Title: QRCryptoManager::decodeCrypto Pages: 1 -->
<svg width="682pt" height="388pt"
 viewBox="0.00 0.00 682.00 388.00" xmlns="http://www.w3.org/2000/svg" xmlns:xlink="http://www.w3.org/1999/xlink">
<g id="graph0" class="graph" transform="scale(1 1) rotate(0) translate(4 384)">
<title>QRCryptoManager::decodeCrypto</title>
<polygon fill="#ffffff" stroke="transparent" points="-4,4 -4,-384 678,-384 678,4 -4,4"/>
<!-- Node0 -->
<g id="node1" class="node">
<title>Node0</title>
<g id="a_node1"><a xlink:title=" ">
<polygon fill="#bfbfbf" stroke="#000000" points="0,-191.5 0,-210.5 178,-210.5 178,-191.5 0,-191.5"/>
<text text-anchor="middle" x="89" y="-198.5" font-family="Helvetica,sans-Serif" font-size="10.00" fill="#000000">QRCryptoManager::decodeCrypto</text>
</a>
</g>
</g>
<!-- Node1 -->
<g id="node2" class="node">
<title>Node1</title>
<g id="a_node2"><a xlink:href="namespaceBase64.html#afeefe1a5b78fa9c4ccc1daf9e30d6184" target="_top" xlink:title="Decode the given base64&#45;encoded string.">
<polygon fill="#ffffff" stroke="#000000" points="231,-360.5 231,-379.5 325,-379.5 325,-360.5 231,-360.5"/>
<text text-anchor="middle" x="278" y="-367.5" font-family="Helvetica,sans-Serif" font-size="10.00" fill="#000000">Base64::decode</text>
</a>
</g>
</g>
<!-- Node0&#45;&gt;Node1 -->
<g id="edge1" class="edge">
<title>Node0&#45;&gt;Node1</title>
<path fill="none" stroke="#191970" d="M94.3248,-210.7529C109.3973,-237.435 155.1116,-312.2224 214,-351 217.137,-353.0657 220.5053,-354.9128 223.9961,-356.5637"/>
<polygon fill="#191970" stroke="#191970" points="222.8704,-359.886 233.448,-360.4905 225.556,-353.4217 222.8704,-359.886"/>
</g>
<!-- Node2 -->
<g id="node3" class="node">
<title>Node2</title>
<g id="a_node3"><a xlink:href="crypto_8hpp.html#aa78f23ed8adf4a7eefe842c3b1bb942a" target="_top" xlink:title="Decrypt the given QR code.">
<polygon fill="#ffffff" stroke="#000000" points="251.5,-322.5 251.5,-341.5 304.5,-341.5 304.5,-322.5 251.5,-322.5"/>
<text text-anchor="middle" x="278" y="-329.5" font-family="Helvetica,sans-Serif" font-size="10.00" fill="#000000">decrypt</text>
</a>
</g>
</g>
<!-- Node0&#45;&gt;Node2 -->
<g id="edge2" class="edge">
<title>Node0&#45;&gt;Node2</title>
<path fill="none" stroke="#191970" d="M97.8414,-210.5599C117.1549,-230.9611 165.2952,-279.2422 214,-308 222.5699,-313.0601 232.3935,-317.3806 241.7297,-320.903"/>
<polygon fill="#191970" stroke="#191970" points="240.6148,-324.2212 251.2095,-324.2823 242.9653,-317.6276 240.6148,-324.2212"/>
</g>
<!-- Node6 -->
<g id="node7" class="node">
<title>Node6</title>
<g id="a_node7"><a xlink:href="classCryptoInstruction.html#abf404632060ee7fdf292868fb62cd786" target="_top" xlink:title=" ">
<polygon fill="#ffffff" stroke="#000000" points="419,-223 419,-253 526,-253 526,-223 419,-223"/>
<text text-anchor="start" x="427" y="-241" font-family="Helvetica,sans-Serif" font-size="10.00" fill="#000000">CryptoInstruction::</text>
<text text-anchor="middle" x="472.5" y="-230" font-family="Helvetica,sans-Serif" font-size="10.00" fill="#000000">getInstructionType</text>
</a>
</g>
</g>
<!-- Node0&#45;&gt;Node6 -->
<g id="edge6" class="edge">
<title>Node0&#45;&gt;Node6</title>
<path fill="none" stroke="#191970" d="M100.4258,-210.6963C121.315,-227.7129 167.7849,-262.3459 214,-275 285.888,-294.6836 372.0547,-273.8256 424.5118,-256.38"/>
<polygon fill="#191970" stroke="#191970" points="425.8909,-259.6075 434.2214,-253.0612 423.6268,-252.9837 425.8909,-259.6075"/>
</g>
<!-- Node7 -->
<g id="node8" class="node">
<title>Node7</title>
<g id="a_node8"><a xlink:href="classCryptoInstruction.html#ae110f8e98709f4a2e46e0fe2ba852be4" target="_top" xlink:title=" ">
<polygon fill="#ffffff" stroke="#000000" points="224.5,-235 224.5,-265 331.5,-265 331.5,-235 224.5,-235"/>
<text text-anchor="start" x="232.5" y="-253" font-family="Helvetica,sans-Serif" font-size="10.00" fill="#000000">CryptoInstruction::</text>
<text text-anchor="middle" x="278" y="-242" font-family="Helvetica,sans-Serif" font-size="10.00" fill="#000000">getXCoordinate</text>
</a>
</g>
</g>
<!-- Node0&#45;&gt;Node7 -->
<g id="edge7" class="edge">
<title>Node0&#45;&gt;Node7</title>
<path fill="none" stroke="#191970" d="M125.8898,-210.564C151.0805,-217.0949 185.1031,-225.9156 214.5838,-233.5588"/>
<polygon fill="#191970" stroke="#191970" points="213.8298,-236.9789 224.3881,-236.1006 215.5866,-230.2029 213.8298,-236.9789"/>
</g>
<!-- Node8 -->
<g id="node9" class="node">
<title>Node8</title>
<g id="a_node9"><a xlink:href="classCryptoInstruction.html#a380d1bcc44217c483ddbcd3ac68d1f87" target="_top" xlink:title=" ">
<polygon fill="#ffffff" stroke="#000000" points="224.5,-186 224.5,-216 331.5,-216 331.5,-186 224.5,-186"/>
<text text-anchor="start" x="232.5" y="-204" font-family="Helvetica,sans-Serif" font-size="10.00" fill="#000000">CryptoInstruction::</text>
<text text-anchor="middle" x="278" y="-193" font-family="Helvetica,sans-Serif" font-size="10.00" fill="#000000">getYCoordinate</text>
</a>
</g>
</g>
<!-- Node0&#45;&gt;Node8 -->
<g id="edge9" class="edge">
<title>Node0&#45;&gt;Node8</title>
<path fill="none" stroke="#191970" d="M178.2422,-201C190.4396,-201 202.7541,-201 214.3697,-201"/>
<polygon fill="#191970" stroke="#191970" points="214.3768,-204.5001 224.3768,-201 214.3768,-197.5001 214.3768,-204.5001"/>
</g>
<!-- Node9 -->
<g id="node10" class="node">
<title>Node9</title>
<g id="a_node10"><a xlink:href="classCryptoInstruction.html#abedf5de256a040ebd2f8c0aef2496e56" target="_top" xlink:title=" ">
<polygon fill="#ffffff" stroke="#000000" points="214,-137 214,-167 342,-167 342,-137 214,-137"/>
<text text-anchor="start" x="222" y="-155" font-family="Helvetica,sans-Serif" font-size="10.00" fill="#000000">CryptoInstruction::</text>
<text text-anchor="middle" x="278" y="-144" font-family="Helvetica,sans-Serif" font-size="10.00" fill="#000000">getCurrentXCoordinate</text>
</a>
</g>
</g>
<!-- Node0&#45;&gt;Node9 -->
<g id="edge11" class="edge">
<title>Node0&#45;&gt;Node9</title>
<path fill="none" stroke="#191970" d="M125.8898,-191.436C149.8178,-185.2324 181.7145,-176.9629 210.1181,-169.599"/>
<polygon fill="#191970" stroke="#191970" points="211.1987,-172.9346 220.0003,-167.037 209.4419,-166.1587 211.1987,-172.9346"/>
</g>
<!-- Node10 -->
<g id="node11" class="node">
<title>Node10</title>
<g id="a_node11"><a xlink:href="classCryptoInstruction.html#aa8e551d301b0d5b10ad13d796e04efcf" target="_top" xlink:title=" ">
<polygon fill="#ffffff" stroke="#000000" points="214.5,-88 214.5,-118 341.5,-118 341.5,-88 214.5,-88"/>
<text text-anchor="start" x="222.5" y="-106" font-family="Helvetica,sans-Serif" font-size="10.00" fill="#000000">CryptoInstruction::</text>
<text text-anchor="middle" x="278" y="-95" font-family="Helvetica,sans-Serif" font-size="10.00" fill="#000000">getCurrentYCoordinate</text>
</a>
</g>
</g>
<!-- Node0&#45;&gt;Node10 -->
<g id="edge12" class="edge">
<title>Node0&#45;&gt;Node10</title>
<path fill="none" stroke="#191970" d="M103.5963,-191.4623C126.5129,-176.7231 172.5983,-148.0241 214,-128 218.272,-125.9338 222.7617,-123.9061 227.2984,-121.9548"/>
<polygon fill="#191970" stroke="#191970" points="228.7379,-125.1468 236.6217,-118.0689 226.0448,-118.6855 228.7379,-125.1468"/>
</g>
<!-- Node11 -->
<g id="node12" class="node">
<title>Node11</title>
<g id="a_node12"><a xlink:href="classCryptoInstruction.html#ac16d178eea6a08b5257551ddf8fee912" target="_top" xlink:title=" ">
<polygon fill="#ffffff" stroke="#000000" points="224.5,-39 224.5,-69 331.5,-69 331.5,-39 224.5,-39"/>
<text text-anchor="start" x="232.5" y="-57" font-family="Helvetica,sans-Serif" font-size="10.00" fill="#000000">CryptoInstruction::</text>
<text text-anchor="middle" x="278" y="-46" font-family="Helvetica,sans-Serif" font-size="10.00" fill="#000000">getUnknownData</text>
</a>
</g>
</g>
<!-- Node0&#45;&gt;Node11 -->
<g id="edge13" class="edge">
<title>Node0&#45;&gt;Node11</title>
<path fill="none" stroke="#191970" d="M96.419,-191.3069C114.3017,-168.5407 162.158,-111.0868 214,-78 216.4382,-76.4439 218.9924,-74.9665 221.6182,-73.567"/>
<polygon fill="#191970" stroke="#191970" points="223.3058,-76.638 230.7583,-69.1073 220.2362,-70.3469 223.3058,-76.638"/>
</g>
<!-- Node12 -->
<g id="node13" class="node">
<title>Node12</title>
<g id="a_node13"><a xlink:href="classCryptoException.html#a8da6c80ec8c57c2b429ae26bc53cacd7" target="_top" xlink:title=" ">
<polygon fill="#ffffff" stroke="#000000" points="214.5,-.5 214.5,-19.5 341.5,-19.5 341.5,-.5 214.5,-.5"/>
<text text-anchor="middle" x="278" y="-7.5" font-family="Helvetica,sans-Serif" font-size="10.00" fill="#000000">CryptoException::what</text>
</a>
</g>
</g>
<!-- Node0&#45;&gt;Node12 -->
<g id="edge15" class="edge">
<title>Node0&#45;&gt;Node12</title>
<path fill="none" stroke="#191970" d="M93.3341,-191.0929C106.7249,-161.655 150.4039,-73.968 214,-29 216.8302,-26.9988 219.8726,-25.2059 223.0389,-23.5998"/>
<polygon fill="#191970" stroke="#191970" points="224.4807,-26.7893 232.2174,-19.5509 221.6554,-20.3848 224.4807,-26.7893"/>
</g>
<!-- Node3 -->
<g id="node4" class="node">
<title>Node3</title>
<g id="a_node4"><a xlink:href="crypto_8cpp.html#a87b41c8844bdfe408d79abc56562d6e5" target="_top" xlink:title=" ">
<polygon fill="#ffffff" stroke="#000000" points="438.5,-334.5 438.5,-353.5 506.5,-353.5 506.5,-334.5 438.5,-334.5"/>
<text text-anchor="middle" x="472.5" y="-341.5" font-family="Helvetica,sans-Serif" font-size="10.00" fill="#000000">tryDecrypt</text>
</a>
</g>
</g>
<!-- Node2&#45;&gt;Node3 -->
<g id="edge3" class="edge">
<title>Node2&#45;&gt;Node3</title>
<path fill="none" stroke="#191970" d="M304.6366,-333.6434C336.3998,-335.6031 389.9677,-338.908 428.0432,-341.2572"/>
<polygon fill="#191970" stroke="#191970" points="428.1441,-344.77 438.3407,-341.8925 428.5752,-337.7832 428.1441,-344.77"/>
</g>
<!-- Node5 -->
<g id="node6" class="node">
<title>Node5</title>
<g id="a_node6"><a xlink:href="classCryptoException.html#a7992bed5c54db81f763ed99d6342ca55" target="_top" xlink:title=" ">
<polygon fill="#ffffff" stroke="#000000" points="378,-296.5 378,-315.5 567,-315.5 567,-296.5 378,-296.5"/>
<text text-anchor="middle" x="472.5" y="-303.5" font-family="Helvetica,sans-Serif" font-size="10.00" fill="#000000">CryptoException::getExceptionType</text>
</a>
</g>
</g>
<!-- Node2&#45;&gt;Node5 -->
<g id="edge5" class="edge">
<title>Node2&#45;&gt;Node5</title>
<path fill="none" stroke="#191970" d="M304.6366,-328.4393C327.0739,-325.44 360.3917,-320.9862 391.4432,-316.8354"/>
<polygon fill="#191970" stroke="#191970" points="391.9805,-320.2948 401.4285,-315.5006 391.0529,-313.3565 391.9805,-320.2948"/>
</g>
<!-- Node4 -->
<g id="node5" class="node">
<title>Node4</title>
<g id="a_node5"><a xlink:href="cryptoConstants_8hpp.html#a7280faa0414e1e05841a1486f6e8054e" target="_top" xlink:title=" ">
<polygon fill="#ffffff" stroke="#000000" points="603,-334.5 603,-353.5 674,-353.5 674,-334.5 603,-334.5"/>
<text text-anchor="middle" x="638.5" y="-341.5" font-family="Helvetica,sans-Serif" font-size="10.00" fill="#000000">dmKeyPath</text>
</a>
</g>
</g>
<!-- Node3&#45;&gt;Node4 -->
<g id="edge4" class="edge">
<title>Node3&#45;&gt;Node4</title>
<path fill="none" stroke="#191970" d="M506.8953,-344C531.7366,-344 565.5466,-344 592.6769,-344"/>
<polygon fill="#191970" stroke="#191970" points="592.7152,-347.5001 602.7151,-344 592.7151,-340.5001 592.7152,-347.5001"/>
</g>
<!-- Node7&#45;&gt;Node6 -->
<g id="edge8" class="edge">
<title>Node7&#45;&gt;Node6</title>
<path fill="none" stroke="#191970" d="M331.6628,-246.6892C355.4801,-245.2197 383.6952,-243.479 408.593,-241.9428"/>
<polygon fill="#191970" stroke="#191970" points="408.9095,-245.4301 418.675,-241.3208 408.4784,-238.4434 408.9095,-245.4301"/>
</g>
<!-- Node8&#45;&gt;Node6 -->
<g id="edge10" class="edge">
<title>Node8&#45;&gt;Node6</title>
<path fill="none" stroke="#191970" d="M331.6628,-211.2084C355.4801,-215.7392 383.6952,-221.1065 408.593,-225.8429"/>
<polygon fill="#191970" stroke="#191970" points="408.197,-229.3303 418.675,-227.7608 409.5052,-222.4536 408.197,-229.3303"/>
</g>
<!-- Node11&#45;&gt;Node6 -->
<g id="edge14" class="edge">
<title>Node11&#45;&gt;Node6</title>
<path fill="none" stroke="#191970" d="M326.5987,-69.047C332.0167,-71.6365 337.2767,-74.6088 342,-78 394.4328,-115.6452 437.6708,-179.4946 458.707,-214.0583"/>
<polygon fill="#191970" stroke="#191970" points="455.9068,-216.1955 464.0407,-222.9843 461.9157,-212.6048 455.9068,-216.1955"/>
</g>
</g>
</svg>
