<?xml version="1.0" encoding="UTF-8" standalone="no"?>
<!DOCTYPE svg PUBLIC "-//W3C//DTD SVG 1.1//EN"
 "http://www.w3.org/Graphics/SVG/1.1/DTD/svg11.dtd">
<!-- Generated by graphviz version 2.40.1 (20161225.0304)
 -->
<!-- Title: BitString::toCryptoInstruction Pages: 1 -->
<svg width="315pt" height="66pt"
 viewBox="0.00 0.00 315.00 66.00" xmlns="http://www.w3.org/2000/svg" xmlns:xlink="http://www.w3.org/1999/xlink">
<g id="graph0" class="graph" transform="scale(1 1) rotate(0) translate(4 62)">
<title>BitString::toCryptoInstruction</title>
<polygon fill="#ffffff" stroke="transparent" points="-4,4 -4,-62 311,-62 311,4 -4,4"/>
<!-- Node61 -->
<g id="node1" class="node">
<title>Node61</title>
<g id="a_node1"><a xlink:title=" ">
<polygon fill="#bfbfbf" stroke="#000000" points="0,-19.5 0,-38.5 158,-38.5 158,-19.5 0,-19.5"/>
<text text-anchor="middle" x="79" y="-26.5" font-family="Helvetica,sans-Serif" font-size="10.00" fill="#000000">BitString::toCryptoInstruction</text>
</a>
</g>
</g>
<!-- Node62 -->
<g id="node2" class="node">
<title>Node62</title>
<g id="a_node2"><a xlink:href="classBitString.html#a39bc6a3bef8f84d2dec75174b35abf89" target="_top" xlink:title=" ">
<polygon fill="#ffffff" stroke="#000000" points="194,-38.5 194,-57.5 307,-57.5 307,-38.5 194,-38.5"/>
<text text-anchor="middle" x="250.5" y="-45.5" font-family="Helvetica,sans-Serif" font-size="10.00" fill="#000000">BitString::getLength</text>
</a>
</g>
</g>
<!-- Node61&#45;&gt;Node62 -->
<g id="edge1" class="edge">
<title>Node61&#45;&gt;Node62</title>
<path fill="none" stroke="#191970" d="M158.2239,-37.777C166.7097,-38.7171 175.2813,-39.6667 183.6036,-40.5887"/>
<polygon fill="#191970" stroke="#191970" points="183.2843,-44.0747 193.6089,-41.6972 184.0551,-37.1173 183.2843,-44.0747"/>
</g>
<!-- Node63 -->
<g id="node3" class="node">
<title>Node63</title>
<g id="a_node3"><a xlink:href="classBitString.html#aea3337d9a486e42e562914d586066e00" target="_top" xlink:title=" ">
<polygon fill="#ffffff" stroke="#000000" points="198,-.5 198,-19.5 303,-19.5 303,-.5 198,-.5"/>
<text text-anchor="middle" x="250.5" y="-7.5" font-family="Helvetica,sans-Serif" font-size="10.00" fill="#000000">BitString::toVector</text>
</a>
</g>
</g>
<!-- Node61&#45;&gt;Node63 -->
<g id="edge2" class="edge">
<title>Node61&#45;&gt;Node63</title>
<path fill="none" stroke="#191970" d="M158.2239,-20.223C168.0207,-19.1376 177.9318,-18.0396 187.4417,-16.986"/>
<polygon fill="#191970" stroke="#191970" points="188.0254,-20.4429 197.5791,-15.863 187.2545,-13.4855 188.0254,-20.4429"/>
</g>
</g>
</svg>
