<?xml version="1.0" encoding="UTF-8" standalone="no"?>
<!DOCTYPE svg PUBLIC "-//W3C//DTD SVG 1.1//EN"
 "http://www.w3.org/Graphics/SVG/1.1/DTD/svg11.dtd">
<!-- Generated by graphviz version 2.40.1 (20161225.0304)
 -->
<!-- Title: Ketje::unwrap Pages: 1 -->
<svg width="416pt" height="218pt"
 viewBox="0.00 0.00 416.00 218.00" xmlns="http://www.w3.org/2000/svg" xmlns:xlink="http://www.w3.org/1999/xlink">
<g id="graph0" class="graph" transform="scale(1 1) rotate(0) translate(4 214)">
<title>Ketje::unwrap</title>
<polygon fill="#ffffff" stroke="transparent" points="-4,4 -4,-214 412,-214 412,4 -4,4"/>
<!-- Node9 -->
<g id="node1" class="node">
<title>Node9</title>
<g id="a_node1"><a xlink:title=" ">
<polygon fill="#bfbfbf" stroke="#000000" points="0,-95.5 0,-114.5 83,-114.5 83,-95.5 0,-95.5"/>
<text text-anchor="middle" x="41.5" y="-102.5" font-family="Helvetica,sans-Serif" font-size="10.00" fill="#000000">Ketje::unwrap</text>
</a>
</g>
</g>
<!-- Node10 -->
<g id="node2" class="node">
<title>Node10</title>
<g id="a_node2"><a xlink:href="classBitString.html#a9f592521af8d36d2d45f46661d86db2b" target="_top" xlink:title=" ">
<polygon fill="#ffffff" stroke="#000000" points="133,-190.5 133,-209.5 251,-209.5 251,-190.5 133,-190.5"/>
<text text-anchor="middle" x="192" y="-197.5" font-family="Helvetica,sans-Serif" font-size="10.00" fill="#000000">BitString::splitBlocks</text>
</a>
</g>
</g>
<!-- Node9&#45;&gt;Node10 -->
<g id="edge1" class="edge">
<title>Node9&#45;&gt;Node10</title>
<path fill="none" stroke="#191970" d="M48.4735,-114.5438C60.8249,-130.7405 88.1693,-163.5465 119,-181 122.9531,-183.2379 127.1752,-185.2182 131.5209,-186.9695"/>
<polygon fill="#191970" stroke="#191970" points="130.5806,-190.351 141.175,-190.4491 132.9542,-183.7657 130.5806,-190.351"/>
</g>
<!-- Node12 -->
<g id="node4" class="node">
<title>Node12</title>
<g id="a_node4"><a xlink:href="classCryptoPoller.html#a7bcfbc4dda8626c3a61ada489d6dd51c" target="_top" xlink:title=" ">
<polygon fill="#ffffff" stroke="#000000" points="122.5,-152.5 122.5,-171.5 261.5,-171.5 261.5,-152.5 122.5,-152.5"/>
<text text-anchor="middle" x="192" y="-159.5" font-family="Helvetica,sans-Serif" font-size="10.00" fill="#000000">CryptoPoller::normalStep</text>
</a>
</g>
</g>
<!-- Node9&#45;&gt;Node12 -->
<g id="edge3" class="edge">
<title>Node9&#45;&gt;Node12</title>
<path fill="none" stroke="#191970" d="M58.6026,-114.6315C74.0202,-123.0095 97.5042,-135.0253 119,-143 125.517,-145.4177 132.4697,-147.6497 139.3974,-149.669"/>
<polygon fill="#191970" stroke="#191970" points="138.9033,-153.1643 149.4755,-152.4721 140.7791,-146.4203 138.9033,-153.1643"/>
</g>
<!-- Node13 -->
<g id="node5" class="node">
<title>Node13</title>
<g id="a_node5"><a xlink:href="classBitString.html#a3771ed3de6f9941e5d30ac6c1758d180" target="_top" xlink:title=" ">
<polygon fill="#ffffff" stroke="#000000" points="140.5,-114.5 140.5,-133.5 243.5,-133.5 243.5,-114.5 140.5,-114.5"/>
<text text-anchor="middle" x="192" y="-121.5" font-family="Helvetica,sans-Serif" font-size="10.00" fill="#000000">BitString::xorWith</text>
</a>
</g>
</g>
<!-- Node9&#45;&gt;Node13 -->
<g id="edge4" class="edge">
<title>Node9&#45;&gt;Node13</title>
<path fill="none" stroke="#191970" d="M83.0232,-110.2421C97.5831,-112.0803 114.267,-114.1865 130.1311,-116.1893"/>
<polygon fill="#191970" stroke="#191970" points="130.0475,-119.7065 140.4071,-117.4866 130.9243,-112.7616 130.0475,-119.7065"/>
</g>
<!-- Node14 -->
<g id="node6" class="node">
<title>Node14</title>
<g id="a_node6"><a xlink:href="classBitString.html#a39a133d9a366545e41d6a470255a1b64" target="_top" xlink:title=" ">
<polygon fill="#ffffff" stroke="#000000" points="129.5,-76.5 129.5,-95.5 254.5,-95.5 254.5,-76.5 129.5,-76.5"/>
<text text-anchor="middle" x="192" y="-83.5" font-family="Helvetica,sans-Serif" font-size="10.00" fill="#000000">BitString::concatenate</text>
</a>
</g>
</g>
<!-- Node9&#45;&gt;Node14 -->
<g id="edge5" class="edge">
<title>Node9&#45;&gt;Node14</title>
<path fill="none" stroke="#191970" d="M83.0232,-99.7579C94.351,-98.3278 106.9644,-96.7354 119.4772,-95.1557"/>
<polygon fill="#191970" stroke="#191970" points="119.9812,-98.6199 129.4641,-93.8949 119.1044,-91.6751 119.9812,-98.6199"/>
</g>
<!-- Node15 -->
<g id="node7" class="node">
<title>Node15</title>
<g id="a_node7"><a xlink:href="classBitString.html#a39bc6a3bef8f84d2dec75174b35abf89" target="_top" xlink:title=" ">
<polygon fill="#ffffff" stroke="#000000" points="135.5,-38.5 135.5,-57.5 248.5,-57.5 248.5,-38.5 135.5,-38.5"/>
<text text-anchor="middle" x="192" y="-45.5" font-family="Helvetica,sans-Serif" font-size="10.00" fill="#000000">BitString::getLength</text>
</a>
</g>
</g>
<!-- Node9&#45;&gt;Node15 -->
<g id="edge6" class="edge">
<title>Node9&#45;&gt;Node15</title>
<path fill="none" stroke="#191970" d="M58.6026,-95.3685C74.0202,-86.9905 97.5042,-74.9747 119,-67 125.517,-64.5823 132.4697,-62.3503 139.3974,-60.331"/>
<polygon fill="#191970" stroke="#191970" points="140.7791,-63.5797 149.4755,-57.5279 138.9033,-56.8357 140.7791,-63.5797"/>
</g>
<!-- Node16 -->
<g id="node8" class="node">
<title>Node16</title>
<g id="a_node8"><a xlink:href="classCryptoPoller.html#a02b4bddba5ffddcd2528fa7e2f78a86b" target="_top" xlink:title=" ">
<polygon fill="#ffffff" stroke="#000000" points="119,-.5 119,-19.5 265,-19.5 265,-.5 119,-.5"/>
<text text-anchor="middle" x="192" y="-7.5" font-family="Helvetica,sans-Serif" font-size="10.00" fill="#000000">CryptoPoller::normalStride</text>
</a>
</g>
</g>
<!-- Node9&#45;&gt;Node16 -->
<g id="edge7" class="edge">
<title>Node9&#45;&gt;Node16</title>
<path fill="none" stroke="#191970" d="M48.4735,-95.4562C60.8249,-79.2595 88.1693,-46.4535 119,-29 122.9531,-26.7621 127.1752,-24.7818 131.5209,-23.0305"/>
<polygon fill="#191970" stroke="#191970" points="132.9542,-26.2343 141.175,-19.5509 130.5806,-19.649 132.9542,-26.2343"/>
</g>
<!-- Node11 -->
<g id="node3" class="node">
<title>Node11</title>
<g id="a_node3"><a xlink:href="classBitString.html#a129b293aa7369637810c1d54471e1258" target="_top" xlink:title=" ">
<polygon fill="#ffffff" stroke="#000000" points="301,-190.5 301,-209.5 408,-209.5 408,-190.5 301,-190.5"/>
<text text-anchor="middle" x="354.5" y="-197.5" font-family="Helvetica,sans-Serif" font-size="10.00" fill="#000000">BitString::BitString</text>
</a>
</g>
</g>
<!-- Node10&#45;&gt;Node11 -->
<g id="edge2" class="edge">
<title>Node10&#45;&gt;Node11</title>
<path fill="none" stroke="#191970" d="M251.1259,-200C263.9433,-200 277.5558,-200 290.5494,-200"/>
<polygon fill="#191970" stroke="#191970" points="290.8103,-203.5001 300.8102,-200 290.8102,-196.5001 290.8103,-203.5001"/>
</g>
</g>
</svg>
