<?xml version="1.0" encoding="UTF-8" standalone="no"?>
<!DOCTYPE svg PUBLIC "-//W3C//DTD SVG 1.1//EN"
 "http://www.w3.org/Graphics/SVG/1.1/DTD/svg11.dtd">
<!-- Generated by graphviz version 2.40.1 (20161225.0304)
 -->
<!-- Title: GridFinder::getWidthAtPointOnLine Pages: 1 -->
<svg width="643pt" height="192pt"
 viewBox="0.00 0.00 643.00 192.00" xmlns="http://www.w3.org/2000/svg" xmlns:xlink="http://www.w3.org/1999/xlink">
<g id="graph0" class="graph" transform="scale(1 1) rotate(0) translate(4 188)">
<title>GridFinder::getWidthAtPointOnLine</title>
<polygon fill="#ffffff" stroke="transparent" points="-4,4 -4,-188 639,-188 639,4 -4,4"/>
<!-- Node221 -->
<g id="node1" class="node">
<title>Node221</title>
<g id="a_node1"><a xlink:title="Get the width of the line at a given point.">
<polygon fill="#bfbfbf" stroke="#000000" points="0,-83 0,-113 152,-113 152,-83 0,-83"/>
<text text-anchor="start" x="8" y="-101" font-family="Helvetica,sans-Serif" font-size="10.00" fill="#000000">GridFinder::getWidthAtPoint</text>
<text text-anchor="middle" x="76" y="-90" font-family="Helvetica,sans-Serif" font-size="10.00" fill="#000000">OnLine</text>
</a>
</g>
</g>
<!-- Node222 -->
<g id="node2" class="node">
<title>Node222</title>
<g id="a_node2"><a xlink:href="structCosSin.html#adb1d000cc58879b65a63fac849408bfe" target="_top" xlink:title=" ">
<polygon fill="#ffffff" stroke="#000000" points="202,-164.5 202,-183.5 324,-183.5 324,-164.5 202,-164.5"/>
<text text-anchor="middle" x="263" y="-171.5" font-family="Helvetica,sans-Serif" font-size="10.00" fill="#000000">CosSin::perpendicular</text>
</a>
</g>
</g>
<!-- Node221&#45;&gt;Node222 -->
<g id="edge1" class="edge">
<title>Node221&#45;&gt;Node222</title>
<path fill="none" stroke="#191970" d="M105.9789,-113.1656C128.284,-124.1412 159.6423,-138.9297 188,-150 198.433,-154.0728 209.869,-157.9967 220.5978,-161.4499"/>
<polygon fill="#191970" stroke="#191970" points="219.6131,-164.8092 230.2029,-164.4796 221.7189,-158.1334 219.6131,-164.8092"/>
</g>
<!-- Node223 -->
<g id="node3" class="node">
<title>Node223</title>
<g id="a_node3"><a xlink:href="classBresenhamLine.html#aba0822ee20811d67cd9539ccbe1cd346" target="_top" xlink:title=" ">
<polygon fill="#ffffff" stroke="#000000" points="374,-107.5 374,-126.5 513,-126.5 513,-107.5 374,-107.5"/>
<text text-anchor="middle" x="443.5" y="-114.5" font-family="Helvetica,sans-Serif" font-size="10.00" fill="#000000">BresenhamLine::hasNext</text>
</a>
</g>
</g>
<!-- Node221&#45;&gt;Node223 -->
<g id="edge2" class="edge">
<title>Node221&#45;&gt;Node223</title>
<path fill="none" stroke="#191970" d="M152.2961,-112.7027C164.2055,-114.4879 176.4049,-116.0235 188,-117 246.7202,-121.9454 313.3011,-121.7581 363.7713,-120.4334"/>
<polygon fill="#191970" stroke="#191970" points="364.0684,-123.9265 373.9653,-120.1448 363.8702,-116.9293 364.0684,-123.9265"/>
</g>
<!-- Node225 -->
<g id="node5" class="node">
<title>Node225</title>
<g id="a_node5"><a xlink:href="classBresenhamLine.html#a10d505e30945f42a5cd0270c315b104f" target="_top" xlink:title=" ">
<polygon fill="#ffffff" stroke="#000000" points="203,-88.5 203,-107.5 323,-107.5 323,-88.5 203,-88.5"/>
<text text-anchor="middle" x="263" y="-95.5" font-family="Helvetica,sans-Serif" font-size="10.00" fill="#000000">BresenhamLine::next</text>
</a>
</g>
</g>
<!-- Node221&#45;&gt;Node225 -->
<g id="edge4" class="edge">
<title>Node221&#45;&gt;Node225</title>
<path fill="none" stroke="#191970" d="M152.0601,-98C165.5165,-98 179.4727,-98 192.7596,-98"/>
<polygon fill="#191970" stroke="#191970" points="192.7705,-101.5001 202.7705,-98 192.7704,-94.5001 192.7705,-101.5001"/>
</g>
<!-- Node226 -->
<g id="node6" class="node">
<title>Node226</title>
<g id="a_node6"><a xlink:href="classBresenhamLine.html#ad93a4adf0535a9b4e649bce5ade1bc5e" target="_top" xlink:title=" ">
<polygon fill="#ffffff" stroke="#000000" points="188,-39 188,-69 338,-69 338,-39 188,-39"/>
<text text-anchor="start" x="196" y="-57" font-family="Helvetica,sans-Serif" font-size="10.00" fill="#000000">BresenhamLine::getCurrent</text>
<text text-anchor="middle" x="263" y="-46" font-family="Helvetica,sans-Serif" font-size="10.00" fill="#000000">Length</text>
</a>
</g>
</g>
<!-- Node221&#45;&gt;Node226 -->
<g id="edge6" class="edge">
<title>Node221&#45;&gt;Node226</title>
<path fill="none" stroke="#191970" d="M139.8318,-82.9808C155.691,-79.2492 172.8207,-75.2186 189.1178,-71.384"/>
<polygon fill="#191970" stroke="#191970" points="190.2061,-74.7236 199.1386,-69.0262 188.6028,-67.9097 190.2061,-74.7236"/>
</g>
<!-- Node227 -->
<g id="node7" class="node">
<title>Node227</title>
<g id="a_node7"><a xlink:href="classGridFinder.html#a53cfbafaf3cd06baac2a19eeee0cfb73" target="_top" xlink:title="Get the value of the given pixel.">
<polygon fill="#ffffff" stroke="#000000" points="219,-.5 219,-19.5 307,-19.5 307,-.5 219,-.5"/>
<text text-anchor="middle" x="263" y="-7.5" font-family="Helvetica,sans-Serif" font-size="10.00" fill="#000000">GridFinder::get</text>
</a>
</g>
</g>
<!-- Node221&#45;&gt;Node227 -->
<g id="edge7" class="edge">
<title>Node221&#45;&gt;Node227</title>
<path fill="none" stroke="#191970" d="M96.906,-82.7928C118.6986,-67.5589 154.312,-44.3674 188,-30 194.6471,-27.1651 201.8004,-24.6403 208.9561,-22.42"/>
<polygon fill="#191970" stroke="#191970" points="210.0519,-25.7462 218.668,-19.5807 208.0876,-19.0275 210.0519,-25.7462"/>
</g>
<!-- Node224 -->
<g id="node4" class="node">
<title>Node224</title>
<g id="a_node4"><a xlink:href="structPixel.html#a816d743559e2ac5b35c9c79ac517ad0a" target="_top" xlink:title=" ">
<polygon fill="#ffffff" stroke="#000000" points="549,-107.5 549,-126.5 635,-126.5 635,-107.5 549,-107.5"/>
<text text-anchor="middle" x="592" y="-114.5" font-family="Helvetica,sans-Serif" font-size="10.00" fill="#000000">Pixel::inRange</text>
</a>
</g>
</g>
<!-- Node223&#45;&gt;Node224 -->
<g id="edge3" class="edge">
<title>Node223&#45;&gt;Node224</title>
<path fill="none" stroke="#191970" d="M513.4016,-117C521.8647,-117 530.4033,-117 538.5758,-117"/>
<polygon fill="#191970" stroke="#191970" points="538.6984,-120.5001 548.6984,-117 538.6984,-113.5001 538.6984,-120.5001"/>
</g>
<!-- Node225&#45;&gt;Node223 -->
<g id="edge5" class="edge">
<title>Node225&#45;&gt;Node223</title>
<path fill="none" stroke="#191970" d="M323.1039,-104.3267C336.0978,-105.6945 350.0336,-107.1614 363.6494,-108.5947"/>
<polygon fill="#191970" stroke="#191970" points="363.6667,-112.1158 373.9782,-109.6819 364.3996,-105.1542 363.6667,-112.1158"/>
</g>
</g>
</svg>
