<?xml version="1.0" encoding="UTF-8" standalone="no"?>
<!DOCTYPE svg PUBLIC "-//W3C//DTD SVG 1.1//EN"
 "http://www.w3.org/Graphics/SVG/1.1/DTD/svg11.dtd">
<!-- Generated by graphviz version 2.40.1 (20161225.0304)
 -->
<!-- Title: SharedMemReferenceCounter::getFileDescriptor Pages: 1 -->
<svg width="377pt" height="39pt"
 viewBox="0.00 0.00 377.00 39.00" xmlns="http://www.w3.org/2000/svg" xmlns:xlink="http://www.w3.org/1999/xlink">
<g id="graph0" class="graph" transform="scale(1 1) rotate(0) translate(4 35)">
<title>SharedMemReferenceCounter::getFileDescriptor</title>
<polygon fill="#ffffff" stroke="transparent" points="-4,4 -4,-35 373,-35 373,4 -4,4"/>
<!-- Node9 -->
<g id="node1" class="node">
<title>Node9</title>
<g id="a_node1"><a xlink:title="Get a file descriptor to /dev/mem.">
<polygon fill="#bfbfbf" stroke="#000000" points="208,-.5 208,-30.5 369,-30.5 369,-.5 208,-.5"/>
<text text-anchor="start" x="216" y="-18.5" font-family="Helvetica,sans-Serif" font-size="10.00" fill="#000000">SharedMemReferenceCounter</text>
<text text-anchor="middle" x="288.5" y="-7.5" font-family="Helvetica,sans-Serif" font-size="10.00" fill="#000000">::getFileDescriptor</text>
</a>
</g>
</g>
<!-- Node10 -->
<g id="node2" class="node">
<title>Node10</title>
<g id="a_node2"><a xlink:href="classSharedMemory.html#ad574873e9d896232e5b1cc5aed6fe755" target="_top" xlink:title="Construct a new SharedMemory object. Uses mmap to map the page containing the address.">
<polygon fill="#ffffff" stroke="#000000" points="0,-.5 0,-30.5 172,-30.5 172,-.5 0,-.5"/>
<text text-anchor="start" x="8" y="-18.5" font-family="Helvetica,sans-Serif" font-size="10.00" fill="#000000">SharedMemory&lt; FPGARegisters</text>
<text text-anchor="middle" x="86" y="-7.5" font-family="Helvetica,sans-Serif" font-size="10.00" fill="#000000"> &gt;::SharedMemory</text>
</a>
</g>
</g>
<!-- Node9&#45;&gt;Node10 -->
<g id="edge1" class="edge">
<title>Node9&#45;&gt;Node10</title>
<path fill="none" stroke="#191970" d="M197.6662,-15.5C189.2361,-15.5 180.7087,-15.5 172.321,-15.5"/>
<polygon fill="#191970" stroke="#191970" points="197.8848,-19.0001 207.8848,-15.5 197.8848,-12.0001 197.8848,-19.0001"/>
</g>
</g>
</svg>
