<?xml version="1.0" encoding="UTF-8" standalone="no"?>
<!DOCTYPE svg PUBLIC "-//W3C//DTD SVG 1.1//EN"
 "http://www.w3.org/Graphics/SVG/1.1/DTD/svg11.dtd">
<!-- Generated by graphviz version 2.40.1 (20161225.0304)
 -->
<!-- Title: GridFinder::height Pages: 1 -->
<svg width="1345pt" height="375pt"
 viewBox="0.00 0.00 1345.00 374.50" xmlns="http://www.w3.org/2000/svg" xmlns:xlink="http://www.w3.org/1999/xlink">
<g id="graph0" class="graph" transform="scale(1 1) rotate(0) translate(4 370.5)">
<title>GridFinder::height</title>
<polygon fill="#ffffff" stroke="transparent" points="-4,4 -4,-370.5 1341,-370.5 1341,4 -4,4"/>
<!-- Node314 -->
<g id="node1" class="node">
<title>Node314</title>
<g id="a_node1"><a xlink:title="Get the height of the frame.">
<polygon fill="#bfbfbf" stroke="#000000" points="1234,-145 1234,-164 1337,-164 1337,-145 1234,-145"/>
<text text-anchor="middle" x="1285.5" y="-152" font-family="Helvetica,sans-Serif" font-size="10.00" fill="#000000">GridFinder::height</text>
</a>
</g>
</g>
<!-- Node315 -->
<g id="node2" class="node">
<title>Node315</title>
<g id="a_node2"><a xlink:href="classGridFinder.html#ace2c24a54244e7e92618d3fe7ec62fdc" target="_top" xlink:title="Starting from the given pixel, move in the direction of the given angle, and count the number of whit...">
<polygon fill="#ffffff" stroke="#000000" points="1071,-322 1071,-341 1173,-341 1173,-322 1071,-322"/>
<text text-anchor="middle" x="1122" y="-329" font-family="Helvetica,sans-Serif" font-size="10.00" fill="#000000">GridFinder::hough</text>
</a>
</g>
</g>
<!-- Node314&#45;&gt;Node315 -->
<g id="edge1" class="edge">
<title>Node314&#45;&gt;Node315</title>
<path fill="none" stroke="#191970" d="M1275.5474,-173.1013C1260.9671,-199.1968 1231.8309,-247.2046 1198,-280.5 1180.5593,-297.6647 1156.5992,-312.6338 1140.2748,-321.8375"/>
<polygon fill="#191970" stroke="#191970" points="1278.6623,-174.7001 1280.4022,-164.2491 1272.5247,-171.3341 1278.6623,-174.7001"/>
</g>
<!-- Node319 -->
<g id="node6" class="node">
<title>Node319</title>
<g id="a_node6"><a xlink:href="classGridFinder.html#ab5c436911deb269a22a8d5525271fa4e" target="_top" xlink:title="Get the width of the line at a given point.">
<polygon fill="#ffffff" stroke="#000000" points="1046,-202.5 1046,-232.5 1198,-232.5 1198,-202.5 1046,-202.5"/>
<text text-anchor="start" x="1054" y="-220.5" font-family="Helvetica,sans-Serif" font-size="10.00" fill="#000000">GridFinder::getWidthAtPoint</text>
<text text-anchor="middle" x="1122" y="-209.5" font-family="Helvetica,sans-Serif" font-size="10.00" fill="#000000">OnLine</text>
</a>
</g>
</g>
<!-- Node314&#45;&gt;Node319 -->
<g id="edge5" class="edge">
<title>Node314&#45;&gt;Node319</title>
<path fill="none" stroke="#191970" d="M1251.1137,-167.7498C1224.8059,-177.8867 1188.5083,-191.8729 1161.0974,-202.435"/>
<polygon fill="#191970" stroke="#191970" points="1252.5951,-170.9299 1260.6679,-164.0683 1250.0782,-164.398 1252.5951,-170.9299"/>
</g>
<!-- Node323 -->
<g id="node10" class="node">
<title>Node323</title>
<g id="a_node10"><a xlink:href="classGridFinder.html#a6dec96f8c6ed97647f692fa9f9908595" target="_top" xlink:title="Follow the given line to find the line perpendicular to it. Move along the line for minDistance pixel...">
<polygon fill="#ffffff" stroke="#000000" points="523,-202 523,-221 657,-221 657,-202 523,-202"/>
<text text-anchor="middle" x="590" y="-209" font-family="Helvetica,sans-Serif" font-size="10.00" fill="#000000">GridFinder::findNextLine</text>
</a>
</g>
</g>
<!-- Node314&#45;&gt;Node323 -->
<g id="edge27" class="edge">
<title>Node314&#45;&gt;Node323</title>
<path fill="none" stroke="#191970" d="M1223.2922,-158.0707C1081.8799,-166.2481 744.5201,-186.1188 693,-192.5 673.9617,-194.8581 653.1223,-198.4994 635.1995,-201.9659"/>
<polygon fill="#191970" stroke="#191970" points="1223.7516,-161.5501 1233.5331,-157.4791 1223.3479,-154.5617 1223.7516,-161.5501"/>
</g>
<!-- Node328 -->
<g id="node15" class="node">
<title>Node328</title>
<g id="a_node15"><a xlink:href="classGridFinder.html#a671392ebb7c1324bd9a4e8d321475619" target="_top" xlink:title="Print the mask as &quot;pixels&quot; to the given output stream.">
<polygon fill="#ffffff" stroke="#000000" points="1074.5,-88 1074.5,-107 1169.5,-107 1169.5,-88 1074.5,-88"/>
<text text-anchor="middle" x="1122" y="-95" font-family="Helvetica,sans-Serif" font-size="10.00" fill="#000000">GridFinder::print</text>
</a>
</g>
</g>
<!-- Node314&#45;&gt;Node328 -->
<g id="edge16" class="edge">
<title>Node314&#45;&gt;Node328</title>
<path fill="none" stroke="#191970" d="M1251.5572,-141.2041C1235.4099,-135.0061 1215.7873,-127.6575 1198,-121.5 1183.4863,-116.4757 1167.2704,-111.2963 1153.5571,-107.041"/>
<polygon fill="#191970" stroke="#191970" points="1250.5252,-144.5573 1261.1147,-144.8935 1253.0461,-138.027 1250.5252,-144.5573"/>
</g>
<!-- Node329 -->
<g id="node16" class="node">
<title>Node329</title>
<g id="a_node16"><a xlink:href="classGridFinder.html#a0cb4d1d344f4830de77ecf1615878656" target="_top" xlink:title="Draw a line on the mask. Used only for testing.">
<polygon fill="#ffffff" stroke="#000000" points="1064,-50 1064,-69 1180,-69 1180,-50 1064,-50"/>
<text text-anchor="middle" x="1122" y="-57" font-family="Helvetica,sans-Serif" font-size="10.00" fill="#000000">GridFinder::drawLine</text>
</a>
</g>
</g>
<!-- Node314&#45;&gt;Node329 -->
<g id="edge17" class="edge">
<title>Node314&#45;&gt;Node329</title>
<path fill="none" stroke="#191970" d="M1270.3343,-137.2327C1254.1236,-119.8473 1226.8334,-93.5138 1198,-78.5 1190.6415,-74.6684 1182.4747,-71.584 1174.3025,-69.1082"/>
<polygon fill="#191970" stroke="#191970" points="1268.0434,-139.9158 1277.3605,-144.9598 1273.2225,-135.2065 1268.0434,-139.9158"/>
</g>
<!-- Node331 -->
<g id="node18" class="node">
<title>Node331</title>
<g id="a_node18"><a xlink:href="classGridFinder.html#af8bdc28d95e295618c2f345f2d7eb758" target="_top" xlink:title="Move a pixel in a given direction for a given distance.">
<polygon fill="#ffffff" stroke="#000000" points="1072,-252 1072,-271 1172,-271 1172,-252 1072,-252"/>
<text text-anchor="middle" x="1122" y="-259" font-family="Helvetica,sans-Serif" font-size="10.00" fill="#000000">GridFinder::move</text>
</a>
</g>
</g>
<!-- Node314&#45;&gt;Node331 -->
<g id="edge19" class="edge">
<title>Node314&#45;&gt;Node331</title>
<path fill="none" stroke="#191970" d="M1272.78,-172.1653C1257.36,-192.2637 1229.4943,-224.6089 1198,-242.5 1190.0768,-247.0009 1181.0952,-250.4473 1172.1519,-253.0829"/>
<polygon fill="#191970" stroke="#191970" points="1275.599,-174.2399 1278.7795,-164.1337 1269.9908,-170.0507 1275.599,-174.2399"/>
</g>
<!-- Node332 -->
<g id="node19" class="node">
<title>Node332</title>
<g id="a_node19"><a xlink:href="classGridFinder.html#ace2a9cb90cc19a295d0fbe934a79b7e0" target="_top" xlink:title="Get the center pixel of the frame.">
<polygon fill="#ffffff" stroke="#000000" points="538.5,-126 538.5,-145 641.5,-145 641.5,-126 538.5,-126"/>
<text text-anchor="middle" x="590" y="-133" font-family="Helvetica,sans-Serif" font-size="10.00" fill="#000000">GridFinder::center</text>
</a>
</g>
</g>
<!-- Node314&#45;&gt;Node332 -->
<g id="edge23" class="edge">
<title>Node314&#45;&gt;Node332</title>
<path fill="none" stroke="#191970" d="M1223.582,-152.8085C1088.022,-149.1052 767.0803,-140.3376 641.5751,-136.909"/>
<polygon fill="#191970" stroke="#191970" points="1223.7008,-156.313 1233.7927,-153.0874 1223.892,-149.3156 1223.7008,-156.313"/>
</g>
<!-- Node333 -->
<g id="node20" class="node">
<title>Node333</title>
<g id="a_node20"><a xlink:href="classGridFinder.html#ae84004386cbee9606f9a46872cb67be8" target="_top" xlink:title="Find the vertical range of white pixels closest to the center of the given column,...">
<polygon fill="#ffffff" stroke="#000000" points="1058,-.5 1058,-30.5 1186,-30.5 1186,-.5 1058,-.5"/>
<text text-anchor="start" x="1066" y="-18.5" font-family="Helvetica,sans-Serif" font-size="10.00" fill="#000000">GridFinder::getFirstLine</text>
<text text-anchor="middle" x="1122" y="-7.5" font-family="Helvetica,sans-Serif" font-size="10.00" fill="#000000">Estimate</text>
</a>
</g>
</g>
<!-- Node314&#45;&gt;Node333 -->
<g id="edge26" class="edge">
<title>Node314&#45;&gt;Node333</title>
<path fill="none" stroke="#191970" d="M1276.0395,-136.1206C1262.2,-110.9912 1234.1093,-66.1144 1198,-40.5 1192.562,-36.6425 1186.4914,-33.3527 1180.2166,-30.5533"/>
<polygon fill="#191970" stroke="#191970" points="1272.9815,-137.8242 1280.7829,-144.9928 1279.1546,-134.5238 1272.9815,-137.8242"/>
</g>
<!-- Node316 -->
<g id="node3" class="node">
<title>Node316</title>
<g id="a_node3"><a xlink:href="classGridFinder.html#a04e1362c95151ac77477844a952af0f9" target="_top" xlink:title="Scan 360° around a given pixel, and find the angle with the most white pixels. This version is not ve...">
<polygon fill="#ffffff" stroke="#000000" points="695.5,-347 695.5,-366 833.5,-366 833.5,-347 695.5,-347"/>
<text text-anchor="middle" x="764.5" y="-354" font-family="Helvetica,sans-Serif" font-size="10.00" fill="#000000">GridFinder::findLineAngle</text>
</a>
</g>
</g>
<!-- Node315&#45;&gt;Node316 -->
<g id="edge2" class="edge">
<title>Node315&#45;&gt;Node316</title>
<path fill="none" stroke="#191970" d="M1078.7668,-343.4783C1058.1279,-348.5954 1032.9745,-353.967 1010,-356.5 950.6892,-363.039 882.8274,-362.426 833.5054,-360.5278"/>
<polygon fill="#191970" stroke="#191970" points="1079.6784,-346.8579 1088.5066,-341.0002 1077.9523,-340.0741 1079.6784,-346.8579"/>
</g>
<!-- Node318 -->
<g id="node5" class="node">
<title>Node318</title>
<g id="a_node5"><a xlink:href="classGridFinder.html#afcc1eed83ee0292966c3c80883069634" target="_top" xlink:title="Similar to findLineAngle, but is more accurate, because it uses the average of the range of angles wi...">
<polygon fill="#ffffff" stroke="#000000" points="872,-316.5 872,-346.5 1010,-346.5 1010,-316.5 872,-316.5"/>
<text text-anchor="start" x="880" y="-334.5" font-family="Helvetica,sans-Serif" font-size="10.00" fill="#000000">GridFinder::findLineAngle</text>
<text text-anchor="middle" x="941" y="-323.5" font-family="Helvetica,sans-Serif" font-size="10.00" fill="#000000">AccurateRange</text>
</a>
</g>
</g>
<!-- Node315&#45;&gt;Node318 -->
<g id="edge4" class="edge">
<title>Node315&#45;&gt;Node318</title>
<path fill="none" stroke="#191970" d="M1060.23,-331.5C1044.0881,-331.5 1026.5857,-331.5 1010.09,-331.5"/>
<polygon fill="#191970" stroke="#191970" points="1060.6168,-335.0001 1070.6168,-331.5 1060.6168,-328.0001 1060.6168,-335.0001"/>
</g>
<!-- Node317 -->
<g id="node4" class="node">
<title>Node317</title>
<g id="a_node4"><a xlink:href="classGridFinder.html#aaea3af418ab7124f2b25bcc124fccaca" target="_top" xlink:title="Get an estimate of the line through a given pixel. Find an estimate of the slope, then use that to de...">
<polygon fill="#ffffff" stroke="#000000" points="526,-309.5 526,-339.5 654,-339.5 654,-309.5 526,-309.5"/>
<text text-anchor="start" x="534" y="-327.5" font-family="Helvetica,sans-Serif" font-size="10.00" fill="#000000">GridFinder::getFirstLine</text>
<text text-anchor="middle" x="590" y="-316.5" font-family="Helvetica,sans-Serif" font-size="10.00" fill="#000000">Estimate</text>
</a>
</g>
</g>
<!-- Node316&#45;&gt;Node317 -->
<g id="edge3" class="edge">
<title>Node316&#45;&gt;Node317</title>
<path fill="none" stroke="#191970" d="M702.4858,-345.1278C686.7709,-342.2459 669.8609,-339.145 654.0474,-336.2451"/>
<polygon fill="#191970" stroke="#191970" points="702.1494,-348.6244 712.6167,-346.9856 703.4121,-341.7392 702.1494,-348.6244"/>
</g>
<!-- Node320 -->
<g id="node7" class="node">
<title>Node320</title>
<g id="a_node7"><a xlink:href="classGridFinder.html#abcd46f31e256080b2d5d2aee03c0e258" target="_top" xlink:title="Find the middle of a line.">
<polygon fill="#ffffff" stroke="#000000" points="881,-202 881,-221 1001,-221 1001,-202 881,-202"/>
<text text-anchor="middle" x="941" y="-209" font-family="Helvetica,sans-Serif" font-size="10.00" fill="#000000">GridFinder::getMiddle</text>
</a>
</g>
</g>
<!-- Node319&#45;&gt;Node320 -->
<g id="edge6" class="edge">
<title>Node319&#45;&gt;Node320</title>
<path fill="none" stroke="#191970" d="M1035.5897,-214.6356C1023.9633,-214.2502 1012.2466,-213.8618 1001.2095,-213.4959"/>
<polygon fill="#191970" stroke="#191970" points="1035.6538,-218.1395 1045.7643,-214.9728 1035.8858,-211.1434 1035.6538,-218.1395"/>
</g>
<!-- Node321 -->
<g id="node8" class="node">
<title>Node321</title>
<g id="a_node8"><a xlink:href="classGridFinder.html#af830abf29ca6dc9c01197a38fe16e1e5" target="_top" xlink:title="In exceptional cases, we might want to find the middle of a line in a point that happens to lie at th...">
<polygon fill="#ffffff" stroke="#000000" points="693,-278.5 693,-308.5 836,-308.5 836,-278.5 693,-278.5"/>
<text text-anchor="start" x="701" y="-296.5" font-family="Helvetica,sans-Serif" font-size="10.00" fill="#000000">GridFinder::getMiddleWith</text>
<text text-anchor="middle" x="764.5" y="-285.5" font-family="Helvetica,sans-Serif" font-size="10.00" fill="#000000">Retries</text>
</a>
</g>
</g>
<!-- Node320&#45;&gt;Node321 -->
<g id="edge7" class="edge">
<title>Node320&#45;&gt;Node321</title>
<path fill="none" stroke="#191970" d="M911.2004,-225.3446C879.5157,-240.0649 829.5651,-263.2714 796.9162,-278.4398"/>
<polygon fill="#191970" stroke="#191970" points="912.8134,-228.4545 920.4078,-221.0669 909.864,-222.1062 912.8134,-228.4545"/>
</g>
<!-- Node322 -->
<g id="node9" class="node">
<title>Node322</title>
<g id="a_node9"><a xlink:href="classGridFinder.html#ae12ca7921b02b37417d87fc737f0134d" target="_top" xlink:title="Check if there could be a valid line going through the given point, and if so, find and return the ac...">
<polygon fill="#ffffff" stroke="#000000" points="704,-202 704,-221 825,-221 825,-202 704,-202"/>
<text text-anchor="middle" x="764.5" y="-209" font-family="Helvetica,sans-Serif" font-size="10.00" fill="#000000">GridFinder::checkLine</text>
</a>
</g>
</g>
<!-- Node320&#45;&gt;Node322 -->
<g id="edge9" class="edge">
<title>Node320&#45;&gt;Node322</title>
<path fill="none" stroke="#191970" d="M870.4814,-211.5C855.4475,-211.5 839.6975,-211.5 825.0754,-211.5"/>
<polygon fill="#191970" stroke="#191970" points="870.7524,-215.0001 880.7524,-211.5 870.7523,-208.0001 870.7524,-215.0001"/>
</g>
<!-- Node321&#45;&gt;Node317 -->
<g id="edge8" class="edge">
<title>Node321&#45;&gt;Node317</title>
<path fill="none" stroke="#191970" d="M682.8089,-308.0125C673.2012,-309.7193 663.5033,-311.4421 654.1837,-313.0977"/>
<polygon fill="#191970" stroke="#191970" points="683.5351,-311.4383 692.7688,-306.2431 682.3107,-304.5462 683.5351,-311.4383"/>
</g>
<!-- Node322&#45;&gt;Node323 -->
<g id="edge10" class="edge">
<title>Node322&#45;&gt;Node323</title>
<path fill="none" stroke="#191970" d="M693.9271,-211.5C681.8358,-211.5 669.3005,-211.5 657.2976,-211.5"/>
<polygon fill="#191970" stroke="#191970" points="693.9581,-215.0001 703.9581,-211.5 693.9581,-208.0001 693.9581,-215.0001"/>
</g>
<!-- Node324 -->
<g id="node11" class="node">
<title>Node324</title>
<g id="a_node11"><a xlink:href="classGridFinder.html#ad1a5448de0df9a84f989f64b55025843" target="_top" xlink:title="Equivalent to #findNextLine(LineResult,bool,uint,uint) but also supports optional LineResults.">
<polygon fill="#ffffff" stroke="#000000" points="353,-202 353,-221 487,-221 487,-202 353,-202"/>
<text text-anchor="middle" x="420" y="-209" font-family="Helvetica,sans-Serif" font-size="10.00" fill="#000000">GridFinder::findNextLine</text>
</a>
</g>
</g>
<!-- Node323&#45;&gt;Node324 -->
<g id="edge11" class="edge">
<title>Node323&#45;&gt;Node324</title>
<path fill="none" stroke="#191970" d="M512.5754,-211.5C504.1241,-211.5 495.5721,-211.5 487.2572,-211.5"/>
<polygon fill="#191970" stroke="#191970" points="512.8115,-215.0001 522.8115,-211.5 512.8115,-208.0001 512.8115,-215.0001"/>
</g>
<!-- Node325 -->
<g id="node12" class="node">
<title>Node325</title>
<g id="a_node12"><a xlink:href="classGridFinder.html#a701c0c1e70d01bb8773a89a29f6673a0" target="_top" xlink:title="This is the main function: it looks for a complete square of the grid, as close to the center of the ...">
<polygon fill="#ffffff" stroke="#000000" points="358,-164 358,-183 482,-183 482,-164 358,-164"/>
<text text-anchor="middle" x="420" y="-171" font-family="Helvetica,sans-Serif" font-size="10.00" fill="#000000">GridFinder::findSquare</text>
</a>
</g>
</g>
<!-- Node323&#45;&gt;Node325 -->
<g id="edge12" class="edge">
<title>Node323&#45;&gt;Node325</title>
<path fill="none" stroke="#191970" d="M537.1019,-199.6757C513.135,-194.3184 485.1765,-188.0689 462.5897,-183.0201"/>
<polygon fill="#191970" stroke="#191970" points="536.5791,-203.1452 547.1018,-201.911 538.1062,-196.3138 536.5791,-203.1452"/>
</g>
<!-- Node326 -->
<g id="node13" class="node">
<title>Node326</title>
<g id="a_node13"><a xlink:href="classLocationFinder.html#af56756d038d762e04e0c91bac9fc2522" target="_top" xlink:title="Read a new frame, mask it, run GridFinder, and get the position of the drone. The position is the pos...">
<polygon fill="#ffffff" stroke="#000000" points="149,-126 149,-145 317,-145 317,-126 149,-126"/>
<text text-anchor="middle" x="233" y="-133" font-family="Helvetica,sans-Serif" font-size="10.00" fill="#000000">LocationFinder::updateLocation</text>
</a>
</g>
</g>
<!-- Node325&#45;&gt;Node326 -->
<g id="edge13" class="edge">
<title>Node325&#45;&gt;Node326</title>
<path fill="none" stroke="#191970" d="M362.869,-161.8905C336.2733,-156.486 305.0269,-150.1365 279.8487,-145.0201"/>
<polygon fill="#191970" stroke="#191970" points="362.3153,-165.3494 372.812,-163.911 363.7093,-158.4896 362.3153,-165.3494"/>
</g>
<!-- Node327 -->
<g id="node14" class="node">
<title>Node327</title>
<g id="a_node14"><a xlink:href="Grid-Finder_8module_8hpp.html#a6849f4dcdb45a7aaadcda6439233d376" target="_top" xlink:title=" ">
<polygon fill="#ffffff" stroke="#000000" points="0,-145 0,-164 113,-164 113,-145 0,-145"/>
<text text-anchor="middle" x="56.5" y="-152" font-family="Helvetica,sans-Serif" font-size="10.00" fill="#000000">PYBIND11_MODULE</text>
</a>
</g>
</g>
<!-- Node325&#45;&gt;Node327 -->
<g id="edge15" class="edge">
<title>Node325&#45;&gt;Node327</title>
<path fill="none" stroke="#191970" d="M347.5872,-169.715C278.6832,-166.1134 176.4113,-160.7677 113.2349,-157.4655"/>
<polygon fill="#191970" stroke="#191970" points="347.7561,-173.2285 357.9251,-170.2554 348.1215,-166.2381 347.7561,-173.2285"/>
</g>
<!-- Node326&#45;&gt;Node327 -->
<g id="edge14" class="edge">
<title>Node326&#45;&gt;Node327</title>
<path fill="none" stroke="#191970" d="M138.9025,-145.6295C130.0733,-146.5799 121.3225,-147.5219 113.0056,-148.4172"/>
<polygon fill="#191970" stroke="#191970" points="139.3175,-149.1051 148.8854,-144.5548 138.5682,-142.1453 139.3175,-149.1051"/>
</g>
<!-- Node330 -->
<g id="node17" class="node">
<title>Node330</title>
<g id="a_node17"><a xlink:href="classGridFinder.html#a38cc6124693e5f533e1598587272f92a" target="_top" xlink:title="Draw a line on the mask. Used only for testing.">
<polygon fill="#ffffff" stroke="#000000" points="883,-50 883,-69 999,-69 999,-50 883,-50"/>
<text text-anchor="middle" x="941" y="-57" font-family="Helvetica,sans-Serif" font-size="10.00" fill="#000000">GridFinder::drawLine</text>
</a>
</g>
</g>
<!-- Node329&#45;&gt;Node330 -->
<g id="edge18" class="edge">
<title>Node329&#45;&gt;Node330</title>
<path fill="none" stroke="#191970" d="M1053.6261,-59.5C1035.6848,-59.5 1016.5076,-59.5 999.1567,-59.5"/>
<polygon fill="#191970" stroke="#191970" points="1053.7342,-63.0001 1063.7342,-59.5 1053.7341,-56.0001 1053.7342,-63.0001"/>
</g>
<!-- Node331&#45;&gt;Node320 -->
<g id="edge20" class="edge">
<title>Node331&#45;&gt;Node320</title>
<path fill="none" stroke="#191970" d="M1072.6136,-249.4743C1063.7364,-247.2215 1054.5806,-244.8381 1046,-242.5 1021.0598,-235.704 992.9847,-227.3798 972.1444,-221.069"/>
<polygon fill="#191970" stroke="#191970" points="1071.9208,-252.909 1082.4724,-251.9531 1073.6277,-246.1203 1071.9208,-252.909"/>
</g>
<!-- Node331&#45;&gt;Node321 -->
<g id="edge21" class="edge">
<title>Node331&#45;&gt;Node321</title>
<path fill="none" stroke="#191970" d="M1061.8535,-266.8837C999.5945,-272.4566 902.3528,-281.1607 836.1534,-287.0863"/>
<polygon fill="#191970" stroke="#191970" points="1062.2666,-270.3609 1071.9147,-265.9832 1061.6425,-263.3887 1062.2666,-270.3609"/>
</g>
<!-- Node331&#45;&gt;Node323 -->
<g id="edge22" class="edge">
<title>Node331&#45;&gt;Node323</title>
<path fill="none" stroke="#191970" d="M1061.9288,-259.2509C978.7727,-255.6617 824.0086,-247.2648 693,-230.5 674.0616,-228.0765 653.3311,-224.4447 635.4646,-221.0035"/>
<polygon fill="#191970" stroke="#191970" points="1061.8141,-262.7491 1071.9532,-259.6751 1062.1102,-255.7553 1061.8141,-262.7491"/>
</g>
<!-- Node332&#45;&gt;Node325 -->
<g id="edge24" class="edge">
<title>Node332&#45;&gt;Node325</title>
<path fill="none" stroke="#191970" d="M537.1019,-147.3243C513.135,-152.6816 485.1765,-158.9311 462.5897,-163.9799"/>
<polygon fill="#191970" stroke="#191970" points="538.1062,-150.6862 547.1018,-145.089 536.5791,-143.8548 538.1062,-150.6862"/>
</g>
<!-- Node332&#45;&gt;Node326 -->
<g id="edge25" class="edge">
<title>Node332&#45;&gt;Node326</title>
<path fill="none" stroke="#191970" d="M528.3001,-135.5C469.9947,-135.5 382.0518,-135.5 317.2945,-135.5"/>
<polygon fill="#191970" stroke="#191970" points="528.4704,-139.0001 538.4704,-135.5 528.4704,-132.0001 528.4704,-139.0001"/>
</g>
</g>
</svg>
