<?xml version="1.0" encoding="UTF-8" standalone="no"?>
<!DOCTYPE svg PUBLIC "-//W3C//DTD SVG 1.1//EN"
 "http://www.w3.org/Graphics/SVG/1.1/DTD/svg11.dtd">
<!-- Generated by graphviz version 2.40.1 (20161225.0304)
 -->
<!-- Title: Angle::step Pages: 1 -->
<svg width="249pt" height="142pt"
 viewBox="0.00 0.00 249.00 142.00" xmlns="http://www.w3.org/2000/svg" xmlns:xlink="http://www.w3.org/1999/xlink">
<g id="graph0" class="graph" transform="scale(1 1) rotate(0) translate(4 138)">
<title>Angle::step</title>
<polygon fill="#ffffff" stroke="transparent" points="-4,4 -4,-138 245,-138 245,4 -4,4"/>
<!-- Node100 -->
<g id="node1" class="node">
<title>Node100</title>
<g id="a_node1"><a xlink:title=" ">
<polygon fill="#bfbfbf" stroke="#000000" points="170,-57.5 170,-76.5 241,-76.5 241,-57.5 170,-57.5"/>
<text text-anchor="middle" x="205.5" y="-64.5" font-family="Helvetica,sans-Serif" font-size="10.00" fill="#000000">Angle::step</text>
</a>
</g>
</g>
<!-- Node101 -->
<g id="node2" class="node">
<title>Node101</title>
<g id="a_node2"><a xlink:href="classAngle.html#aa2ce213e9b45424e62d818ec6769a71b" target="_top" xlink:title=" ">
<polygon fill="#ffffff" stroke="#000000" points="13.5,-114.5 13.5,-133.5 120.5,-133.5 120.5,-114.5 13.5,-114.5"/>
<text text-anchor="middle" x="67" y="-121.5" font-family="Helvetica,sans-Serif" font-size="10.00" fill="#000000">Angle&lt; 360 &gt;::cos</text>
</a>
</g>
</g>
<!-- Node100&#45;&gt;Node101 -->
<g id="edge1" class="edge">
<title>Node100&#45;&gt;Node101</title>
<path fill="none" stroke="#191970" d="M181.0759,-81.6442C167.5398,-89.3306 150.2128,-98.4789 134,-105 125.1384,-108.5643 115.3656,-111.7381 106.0879,-114.4231"/>
<polygon fill="#191970" stroke="#191970" points="182.8788,-84.6447 189.7811,-76.6067 179.3727,-78.586 182.8788,-84.6447"/>
</g>
<!-- Node102 -->
<g id="node3" class="node">
<title>Node102</title>
<g id="a_node3"><a xlink:href="classAngle.html#adb9bfe045dd75dad8912cf1e741d2820" target="_top" xlink:title=" ">
<polygon fill="#ffffff" stroke="#000000" points="14.5,-76.5 14.5,-95.5 119.5,-95.5 119.5,-76.5 14.5,-76.5"/>
<text text-anchor="middle" x="67" y="-83.5" font-family="Helvetica,sans-Serif" font-size="10.00" fill="#000000">Angle&lt; 360 &gt;::sin</text>
</a>
</g>
</g>
<!-- Node100&#45;&gt;Node102 -->
<g id="edge2" class="edge">
<title>Node100&#45;&gt;Node102</title>
<path fill="none" stroke="#191970" d="M159.7999,-73.2693C146.9093,-75.0377 132.7828,-76.9756 119.526,-78.7943"/>
<polygon fill="#191970" stroke="#191970" points="160.4013,-76.7197 169.8328,-71.893 159.4499,-69.7846 160.4013,-76.7197"/>
</g>
<!-- Node103 -->
<g id="node4" class="node">
<title>Node103</title>
<g id="a_node4"><a xlink:href="classAngle.html#a63862e75b876b7b8555f05a54ac85628" target="_top" xlink:title=" ">
<polygon fill="#ffffff" stroke="#000000" points="0,-38.5 0,-57.5 134,-57.5 134,-38.5 0,-38.5"/>
<text text-anchor="middle" x="67" y="-45.5" font-family="Helvetica,sans-Serif" font-size="10.00" fill="#000000">Angle&lt; 360 &gt;::getIndex</text>
</a>
</g>
</g>
<!-- Node100&#45;&gt;Node103 -->
<g id="edge3" class="edge">
<title>Node100&#45;&gt;Node103</title>
<path fill="none" stroke="#191970" d="M159.7017,-60.7172C151.4585,-59.5864 142.7127,-58.3866 134.0139,-57.1932"/>
<polygon fill="#191970" stroke="#191970" points="159.4499,-64.2154 169.8328,-62.107 160.4013,-57.2803 159.4499,-64.2154"/>
</g>
<!-- Node104 -->
<g id="node5" class="node">
<title>Node104</title>
<g id="a_node5"><a xlink:href="classAngle.html#a4486234b2b0b80fa167cec8d28ee9af0" target="_top" xlink:title=" ">
<polygon fill="#ffffff" stroke="#000000" points="0,-.5 0,-19.5 134,-19.5 134,-.5 0,-.5"/>
<text text-anchor="middle" x="67" y="-7.5" font-family="Helvetica,sans-Serif" font-size="10.00" fill="#000000">Angle&lt; 360 &gt;::getAngle</text>
</a>
</g>
</g>
<!-- Node100&#45;&gt;Node104 -->
<g id="edge4" class="edge">
<title>Node100&#45;&gt;Node104</title>
<path fill="none" stroke="#191970" d="M181.0759,-52.3558C167.5398,-44.6694 150.2128,-35.5211 134,-29 125.1384,-25.4357 115.3656,-22.2619 106.0879,-19.5769"/>
<polygon fill="#191970" stroke="#191970" points="179.3727,-55.414 189.7811,-57.3933 182.8788,-49.3553 179.3727,-55.414"/>
</g>
</g>
</svg>
