<?xml version="1.0" encoding="UTF-8" standalone="no"?>
<!DOCTYPE svg PUBLIC "-//W3C//DTD SVG 1.1//EN"
 "http://www.w3.org/Graphics/SVG/1.1/DTD/svg11.dtd">
<!-- Generated by graphviz version 2.40.1 (20161225.0304)
 -->
<!-- Title: BitString::concatenate Pages: 1 -->
<svg width="443pt" height="104pt"
 viewBox="0.00 0.00 443.00 104.00" xmlns="http://www.w3.org/2000/svg" xmlns:xlink="http://www.w3.org/1999/xlink">
<g id="graph0" class="graph" transform="scale(1 1) rotate(0) translate(4 100)">
<title>BitString::concatenate</title>
<polygon fill="#ffffff" stroke="transparent" points="-4,4 -4,-100 439,-100 439,4 -4,4"/>
<!-- Node18 -->
<g id="node1" class="node">
<title>Node18</title>
<g id="a_node1"><a xlink:title=" ">
<polygon fill="#bfbfbf" stroke="#000000" points="310,-38.5 310,-57.5 435,-57.5 435,-38.5 310,-38.5"/>
<text text-anchor="middle" x="372.5" y="-45.5" font-family="Helvetica,sans-Serif" font-size="10.00" fill="#000000">BitString::concatenate</text>
</a>
</g>
</g>
<!-- Node19 -->
<g id="node2" class="node">
<title>Node19</title>
<g id="a_node2"><a xlink:href="crypto_8cpp.html#a7f69ce9864a092ee96aa3b9a299e6074" target="_top" xlink:title="Decrypt the given QR code without retries.">
<polygon fill="#ffffff" stroke="#000000" points="198.5,-76.5 198.5,-95.5 266.5,-95.5 266.5,-76.5 198.5,-76.5"/>
<text text-anchor="middle" x="232.5" y="-83.5" font-family="Helvetica,sans-Serif" font-size="10.00" fill="#000000">tryDecrypt</text>
</a>
</g>
</g>
<!-- Node18&#45;&gt;Node19 -->
<g id="edge1" class="edge">
<title>Node18&#45;&gt;Node19</title>
<path fill="none" stroke="#191970" d="M327.498,-60.2148C307.828,-65.5538 285.1265,-71.7157 266.8487,-76.6768"/>
<polygon fill="#191970" stroke="#191970" points="328.4381,-63.5864 337.1721,-57.589 326.6044,-56.8308 328.4381,-63.5864"/>
</g>
<!-- Node20 -->
<g id="node3" class="node">
<title>Node20</title>
<g id="a_node3"><a xlink:href="keccak_8hpp.html#ad2ec31efd2cbbecc017d9c4e61b379f7" target="_top" xlink:title=" ">
<polygon fill="#ffffff" stroke="#000000" points="207,-38.5 207,-57.5 258,-57.5 258,-38.5 207,-38.5"/>
<text text-anchor="middle" x="232.5" y="-45.5" font-family="Helvetica,sans-Serif" font-size="10.00" fill="#000000">keccak</text>
</a>
</g>
</g>
<!-- Node18&#45;&gt;Node20 -->
<g id="edge2" class="edge">
<title>Node18&#45;&gt;Node20</title>
<path fill="none" stroke="#191970" d="M299.5946,-48C284.7442,-48 270.0684,-48 258.2469,-48"/>
<polygon fill="#191970" stroke="#191970" points="299.8707,-51.5001 309.8706,-48 299.8706,-44.5001 299.8707,-51.5001"/>
</g>
<!-- Node22 -->
<g id="node5" class="node">
<title>Node22</title>
<g id="a_node5"><a xlink:href="classKetje.html#ac4e54ac3a43763223844c3e315012362" target="_top" xlink:title=" ">
<polygon fill="#ffffff" stroke="#000000" points="191,-.5 191,-19.5 274,-19.5 274,-.5 191,-.5"/>
<text text-anchor="middle" x="232.5" y="-7.5" font-family="Helvetica,sans-Serif" font-size="10.00" fill="#000000">Ketje::unwrap</text>
</a>
</g>
</g>
<!-- Node18&#45;&gt;Node22 -->
<g id="edge4" class="edge">
<title>Node18&#45;&gt;Node22</title>
<path fill="none" stroke="#191970" d="M327.3824,-35.7538C308.0851,-30.516 285.8876,-24.4909 267.8166,-19.5859"/>
<polygon fill="#191970" stroke="#191970" points="326.6044,-39.1692 337.1721,-38.411 328.4381,-32.4136 326.6044,-39.1692"/>
</g>
<!-- Node21 -->
<g id="node4" class="node">
<title>Node21</title>
<g id="a_node4"><a xlink:href="classHWImplementation.html#abe2799913267791c526580c8f9ae2fac" target="_top" xlink:title=" ">
<polygon fill="#ffffff" stroke="#000000" points="7,-38.5 7,-57.5 148,-57.5 148,-38.5 7,-38.5"/>
<text text-anchor="middle" x="77.5" y="-45.5" font-family="Helvetica,sans-Serif" font-size="10.00" fill="#000000">HWImplementation::hash</text>
</a>
</g>
</g>
<!-- Node20&#45;&gt;Node21 -->
<g id="edge3" class="edge">
<title>Node20&#45;&gt;Node21</title>
<path fill="none" stroke="#191970" d="M196.8982,-48C182.4149,-48 165.1403,-48 148.2917,-48"/>
<polygon fill="#191970" stroke="#191970" points="196.9049,-51.5001 206.9049,-48 196.9049,-44.5001 196.9049,-51.5001"/>
</g>
<!-- Node23 -->
<g id="node6" class="node">
<title>Node23</title>
<g id="a_node6"><a xlink:href="classHWImplementation.html#a9725062c33ebdc296909f65aa22edbca" target="_top" xlink:title=" ">
<polygon fill="#ffffff" stroke="#000000" points="0,-.5 0,-19.5 155,-19.5 155,-.5 0,-.5"/>
<text text-anchor="middle" x="77.5" y="-7.5" font-family="Helvetica,sans-Serif" font-size="10.00" fill="#000000">HWImplementation::decrypt</text>
</a>
</g>
</g>
<!-- Node22&#45;&gt;Node23 -->
<g id="edge5" class="edge">
<title>Node22&#45;&gt;Node23</title>
<path fill="none" stroke="#191970" d="M180.7571,-10C172.4874,-10 163.7762,-10 155.0639,-10"/>
<polygon fill="#191970" stroke="#191970" points="180.9629,-13.5001 190.9628,-10 180.9628,-6.5001 180.9629,-13.5001"/>
</g>
</g>
</svg>
