<?xml version="1.0" encoding="UTF-8" standalone="no"?>
<!DOCTYPE svg PUBLIC "-//W3C//DTD SVG 1.1//EN"
 "http://www.w3.org/Graphics/SVG/1.1/DTD/svg11.dtd">
<!-- Generated by graphviz version 2.40.1 (20161225.0304)
 -->
<!-- Title: GridFinder::move Pages: 1 -->
<svg width="783pt" height="116pt"
 viewBox="0.00 0.00 783.00 115.50" xmlns="http://www.w3.org/2000/svg" xmlns:xlink="http://www.w3.org/1999/xlink">
<g id="graph0" class="graph" transform="scale(1 1) rotate(0) translate(4 111.5)">
<title>GridFinder::move</title>
<polygon fill="#ffffff" stroke="transparent" points="-4,4 -4,-111.5 779,-111.5 779,4 -4,4"/>
<!-- Node257 -->
<g id="node1" class="node">
<title>Node257</title>
<g id="a_node1"><a xlink:title="Move a pixel in a given direction for a given distance.">
<polygon fill="#bfbfbf" stroke="#000000" points="675,-41.5 675,-60.5 775,-60.5 775,-41.5 675,-41.5"/>
<text text-anchor="middle" x="725" y="-48.5" font-family="Helvetica,sans-Serif" font-size="10.00" fill="#000000">GridFinder::move</text>
</a>
</g>
</g>
<!-- Node258 -->
<g id="node2" class="node">
<title>Node258</title>
<g id="a_node2"><a xlink:href="classGridFinder.html#a187e8c44c7f99237645b49dc2c6745c8" target="_top" xlink:title="Find the middle of a line.">
<polygon fill="#ffffff" stroke="#000000" points="519,-41.5 519,-60.5 639,-60.5 639,-41.5 519,-41.5"/>
<text text-anchor="middle" x="579" y="-48.5" font-family="Helvetica,sans-Serif" font-size="10.00" fill="#000000">GridFinder::getMiddle</text>
</a>
</g>
</g>
<!-- Node257&#45;&gt;Node258 -->
<g id="edge1" class="edge">
<title>Node257&#45;&gt;Node258</title>
<path fill="none" stroke="#191970" d="M664.6351,-51C656.2189,-51 647.5716,-51 639.1592,-51"/>
<polygon fill="#191970" stroke="#191970" points="664.7551,-54.5001 674.7551,-51 664.755,-47.5001 664.7551,-54.5001"/>
</g>
<!-- Node259 -->
<g id="node3" class="node">
<title>Node259</title>
<g id="a_node3"><a xlink:href="classGridFinder.html#a504ddc8af3a0cc68b68de387ac1a90ea" target="_top" xlink:title="In exceptional cases, we might want to find the middle of a line in a point that happens to lie at th...">
<polygon fill="#ffffff" stroke="#000000" points="340,-77 340,-107 483,-107 483,-77 340,-77"/>
<text text-anchor="start" x="348" y="-95" font-family="Helvetica,sans-Serif" font-size="10.00" fill="#000000">GridFinder::getMiddleWith</text>
<text text-anchor="middle" x="411.5" y="-84" font-family="Helvetica,sans-Serif" font-size="10.00" fill="#000000">Retries</text>
</a>
</g>
</g>
<!-- Node257&#45;&gt;Node259 -->
<g id="edge8" class="edge">
<title>Node257&#45;&gt;Node259</title>
<path fill="none" stroke="#191970" d="M676.6434,-62.7591C664.4157,-65.4355 651.271,-68.0585 639,-70 587.167,-78.2011 528.1734,-83.8001 483.2507,-87.2968"/>
<polygon fill="#191970" stroke="#191970" points="677.6684,-66.1163 686.6598,-60.5122 676.1362,-59.286 677.6684,-66.1163"/>
</g>
<!-- Node262 -->
<g id="node6" class="node">
<title>Node262</title>
<g id="a_node6"><a xlink:href="classGridFinder.html#a79b62fc48a9db94ad0530e76ed2c3306" target="_top" xlink:title="Follow the given line to find the line perpendicular to it. Move along the line for minDistance pixel...">
<polygon fill="#ffffff" stroke="#000000" points="170,-19.5 170,-38.5 304,-38.5 304,-19.5 170,-19.5"/>
<text text-anchor="middle" x="237" y="-26.5" font-family="Helvetica,sans-Serif" font-size="10.00" fill="#000000">GridFinder::findNextLine</text>
</a>
</g>
</g>
<!-- Node257&#45;&gt;Node262 -->
<g id="edge9" class="edge">
<title>Node257&#45;&gt;Node262</title>
<path fill="none" stroke="#191970" d="M679.2265,-39.1248C666.3074,-36.2553 652.1789,-33.5668 639,-32 521.8737,-18.075 384.1966,-21.228 304.1465,-24.9792"/>
<polygon fill="#191970" stroke="#191970" points="678.7558,-42.6081 689.2868,-41.4469 680.3302,-35.7874 678.7558,-42.6081"/>
</g>
<!-- Node258&#45;&gt;Node259 -->
<g id="edge2" class="edge">
<title>Node258&#45;&gt;Node259</title>
<path fill="none" stroke="#191970" d="M529.9957,-62.9951C512.1947,-67.3523 491.8482,-72.3327 473.0978,-76.9223"/>
<polygon fill="#191970" stroke="#191970" points="531.27,-66.2866 540.1511,-60.5093 529.6057,-59.4873 531.27,-66.2866"/>
</g>
<!-- Node261 -->
<g id="node5" class="node">
<title>Node261</title>
<g id="a_node5"><a xlink:href="classGridFinder.html#a9050aab45d10d2c2d4859af19b4987b4" target="_top" xlink:title="Check if there could be a valid line going through the given point, and if so, find and return the ac...">
<polygon fill="#ffffff" stroke="#000000" points="351,-38.5 351,-57.5 472,-57.5 472,-38.5 351,-38.5"/>
<text text-anchor="middle" x="411.5" y="-45.5" font-family="Helvetica,sans-Serif" font-size="10.00" fill="#000000">GridFinder::checkLine</text>
</a>
</g>
</g>
<!-- Node258&#45;&gt;Node261 -->
<g id="edge4" class="edge">
<title>Node258&#45;&gt;Node261</title>
<path fill="none" stroke="#191970" d="M508.4935,-49.7372C496.4141,-49.5209 483.9577,-49.2977 472.1638,-49.0865"/>
<polygon fill="#191970" stroke="#191970" points="508.4675,-53.2372 518.5287,-49.9169 508.593,-46.2383 508.4675,-53.2372"/>
</g>
<!-- Node260 -->
<g id="node4" class="node">
<title>Node260</title>
<g id="a_node4"><a xlink:href="classGridFinder.html#ac78760540b520bc08f716ef77127f1fc" target="_top" xlink:title="Get an estimate of the line through a given pixel. Find an estimate of the slope, then use that to de...">
<polygon fill="#ffffff" stroke="#000000" points="173,-77 173,-107 301,-107 301,-77 173,-77"/>
<text text-anchor="start" x="181" y="-95" font-family="Helvetica,sans-Serif" font-size="10.00" fill="#000000">GridFinder::getFirstLine</text>
<text text-anchor="middle" x="237" y="-84" font-family="Helvetica,sans-Serif" font-size="10.00" fill="#000000">Estimate</text>
</a>
</g>
</g>
<!-- Node259&#45;&gt;Node260 -->
<g id="edge3" class="edge">
<title>Node259&#45;&gt;Node260</title>
<path fill="none" stroke="#191970" d="M329.5054,-92C319.9971,-92 310.4052,-92 301.1837,-92"/>
<polygon fill="#191970" stroke="#191970" points="329.7688,-95.5001 339.7688,-92 329.7687,-88.5001 329.7688,-95.5001"/>
</g>
<!-- Node261&#45;&gt;Node262 -->
<g id="edge5" class="edge">
<title>Node261&#45;&gt;Node262</title>
<path fill="none" stroke="#191970" d="M340.9271,-40.3159C328.8358,-38.9993 316.3005,-37.6344 304.2976,-36.3275"/>
<polygon fill="#191970" stroke="#191970" points="340.638,-43.805 350.9581,-41.408 341.3957,-36.8461 340.638,-43.805"/>
</g>
<!-- Node263 -->
<g id="node7" class="node">
<title>Node263</title>
<g id="a_node7"><a xlink:href="classGridFinder.html#ad75180aa82b12c7054e0015adc44a331" target="_top" xlink:title="Equivalent to #findNextLine(LineResult,bool,uint,uint) but also supports optional LineResults.">
<polygon fill="#ffffff" stroke="#000000" points="0,-38.5 0,-57.5 134,-57.5 134,-38.5 0,-38.5"/>
<text text-anchor="middle" x="67" y="-45.5" font-family="Helvetica,sans-Serif" font-size="10.00" fill="#000000">GridFinder::findNextLine</text>
</a>
</g>
</g>
<!-- Node262&#45;&gt;Node263 -->
<g id="edge6" class="edge">
<title>Node262&#45;&gt;Node263</title>
<path fill="none" stroke="#191970" d="M159.854,-37.6222C151.3121,-38.5769 142.6634,-39.5435 134.2572,-40.483"/>
<polygon fill="#191970" stroke="#191970" points="160.2622,-41.0985 169.8115,-36.5093 159.4846,-34.1418 160.2622,-41.0985"/>
</g>
<!-- Node264 -->
<g id="node8" class="node">
<title>Node264</title>
<g id="a_node8"><a xlink:href="classGridFinder.html#a3104d4fe44099faf5179674ecb55cb52" target="_top" xlink:title="This is the main function: it looks for a complete square of the grid, as close to the center of the ...">
<polygon fill="#ffffff" stroke="#000000" points="5,-.5 5,-19.5 129,-19.5 129,-.5 5,-.5"/>
<text text-anchor="middle" x="67" y="-7.5" font-family="Helvetica,sans-Serif" font-size="10.00" fill="#000000">GridFinder::findSquare</text>
</a>
</g>
</g>
<!-- Node262&#45;&gt;Node264 -->
<g id="edge7" class="edge">
<title>Node262&#45;&gt;Node264</title>
<path fill="none" stroke="#191970" d="M159.624,-20.3521C149.3644,-19.2054 138.9554,-18.0421 129.0015,-16.9296"/>
<polygon fill="#191970" stroke="#191970" points="159.4846,-23.8582 169.8115,-21.4907 160.2622,-16.9015 159.4846,-23.8582"/>
</g>
</g>
</svg>
