<?xml version="1.0" encoding="UTF-8" standalone="no"?>
<!DOCTYPE svg PUBLIC "-//W3C//DTD SVG 1.1//EN"
 "http://www.w3.org/Graphics/SVG/1.1/DTD/svg11.dtd">
<!-- Generated by graphviz version 2.40.1 (20161225.0304)
 -->
<!-- Title: Line::Line Pages: 1 -->
<svg width="355pt" height="66pt"
 viewBox="0.00 0.00 355.00 66.00" xmlns="http://www.w3.org/2000/svg" xmlns:xlink="http://www.w3.org/1999/xlink">
<g id="graph0" class="graph" transform="scale(1 1) rotate(0) translate(4 62)">
<title>Line::Line</title>
<polygon fill="#ffffff" stroke="transparent" points="-4,4 -4,-62 351,-62 351,4 -4,4"/>
<!-- Node2 -->
<g id="node1" class="node">
<title>Node2</title>
<g id="a_node1"><a xlink:title=" ">
<polygon fill="#bfbfbf" stroke="#000000" points="0,-19.5 0,-38.5 63,-38.5 63,-19.5 0,-19.5"/>
<text text-anchor="middle" x="31.5" y="-26.5" font-family="Helvetica,sans-Serif" font-size="10.00" fill="#000000">Line::Line</text>
</a>
</g>
</g>
<!-- Node3 -->
<g id="node2" class="node">
<title>Node3</title>
<g id="a_node2"><a xlink:href="structCosSin.html#a5bfa62f2c4c84de02d4c65f0cd2512d0" target="_top" xlink:title=" ">
<polygon fill="#ffffff" stroke="#000000" points="100,-38.5 100,-57.5 174,-57.5 174,-38.5 100,-38.5"/>
<text text-anchor="middle" x="137" y="-45.5" font-family="Helvetica,sans-Serif" font-size="10.00" fill="#000000">CosSin::sinf</text>
</a>
</g>
</g>
<!-- Node2&#45;&gt;Node3 -->
<g id="edge1" class="edge">
<title>Node2&#45;&gt;Node3</title>
<path fill="none" stroke="#191970" d="M63.1535,-34.7006C71.5322,-36.2096 80.7611,-37.8717 89.7726,-39.4946"/>
<polygon fill="#191970" stroke="#191970" points="89.3356,-42.9721 99.7977,-41.3001 90.5764,-36.083 89.3356,-42.9721"/>
</g>
<!-- Node5 -->
<g id="node4" class="node">
<title>Node5</title>
<g id="a_node4"><a xlink:href="structCosSin.html#af6e1ce0260161ef98d338b6ce3d61b25" target="_top" xlink:title=" ">
<polygon fill="#ffffff" stroke="#000000" points="99,-.5 99,-19.5 175,-19.5 175,-.5 99,-.5"/>
<text text-anchor="middle" x="137" y="-7.5" font-family="Helvetica,sans-Serif" font-size="10.00" fill="#000000">CosSin::cosf</text>
</a>
</g>
</g>
<!-- Node2&#45;&gt;Node5 -->
<g id="edge3" class="edge">
<title>Node2&#45;&gt;Node5</title>
<path fill="none" stroke="#191970" d="M63.1535,-23.2994C71.1804,-21.8538 79.9875,-20.2677 88.6363,-18.71"/>
<polygon fill="#191970" stroke="#191970" points="89.439,-22.1219 98.6603,-16.9048 88.1982,-15.2327 89.439,-22.1219"/>
</g>
<!-- Node4 -->
<g id="node3" class="node">
<title>Node4</title>
<g id="a_node3"><a xlink:href="structCosSin.html#a749d8e9cc59e1cf72f4d1e93e4fcfe0d" target="_top" xlink:title=" ">
<polygon fill="#ffffff" stroke="#000000" points="211,-19.5 211,-38.5 347,-38.5 347,-19.5 211,-19.5"/>
<text text-anchor="middle" x="279" y="-26.5" font-family="Helvetica,sans-Serif" font-size="10.00" fill="#000000">CosSin::getScalingFactor</text>
</a>
</g>
</g>
<!-- Node3&#45;&gt;Node4 -->
<g id="edge2" class="edge">
<title>Node3&#45;&gt;Node4</title>
<path fill="none" stroke="#191970" d="M174.3088,-43.008C182.5761,-41.9018 191.6368,-40.6894 200.8598,-39.4554"/>
<polygon fill="#191970" stroke="#191970" points="201.4542,-42.9071 210.9016,-38.1118 200.5258,-35.969 201.4542,-42.9071"/>
</g>
<!-- Node5&#45;&gt;Node4 -->
<g id="edge4" class="edge">
<title>Node5&#45;&gt;Node4</title>
<path fill="none" stroke="#191970" d="M175.0534,-15.0917C183.1114,-16.1698 191.8969,-17.3454 200.8354,-18.5414"/>
<polygon fill="#191970" stroke="#191970" points="200.5859,-22.0391 210.9617,-19.8963 201.5143,-15.1009 200.5859,-22.0391"/>
</g>
</g>
</svg>
