<?xml version="1.0" encoding="UTF-8" standalone="no"?>
<!DOCTYPE svg PUBLIC "-//W3C//DTD SVG 1.1//EN"
 "http://www.w3.org/Graphics/SVG/1.1/DTD/svg11.dtd">
<!-- Generated by graphviz version 2.40.1 (20161225.0304)
 -->
<!-- Title: GridFinder::get Pages: 1 -->
<svg width="1163pt" height="242pt"
 viewBox="0.00 0.00 1163.00 241.50" xmlns="http://www.w3.org/2000/svg" xmlns:xlink="http://www.w3.org/1999/xlink">
<g id="graph0" class="graph" transform="scale(1 1) rotate(0) translate(4 237.5)">
<title>GridFinder::get</title>
<polygon fill="#ffffff" stroke="transparent" points="-4,4 -4,-237.5 1159,-237.5 1159,4 -4,4"/>
<!-- Node175 -->
<g id="node1" class="node">
<title>Node175</title>
<g id="a_node1"><a xlink:title="Get the value of the given pixel.">
<polygon fill="#bfbfbf" stroke="#000000" points="1067,-107 1067,-126 1155,-126 1155,-107 1067,-107"/>
<text text-anchor="middle" x="1111" y="-114" font-family="Helvetica,sans-Serif" font-size="10.00" fill="#000000">GridFinder::get</text>
</a>
</g>
</g>
<!-- Node175&#45;&gt;Node175 -->
<g id="edge16" class="edge">
<title>Node175&#45;&gt;Node175</title>
<path fill="none" stroke="#191970" d="M1140.1191,-135.1539C1138.9019,-140.4368 1129.1956,-144.5 1111,-144.5 1083.2734,-144.5 1075.2587,-135.0653 1086.9559,-126.2571"/>
<polygon fill="#191970" stroke="#191970" points="1143.0391,-133.2091 1135.0441,-126.2571 1136.9588,-136.6775 1143.0391,-133.2091"/>
</g>
<!-- Node176 -->
<g id="node2" class="node">
<title>Node176</title>
<g id="a_node2"><a xlink:href="classGridFinder.html#ace2c24a54244e7e92618d3fe7ec62fdc" target="_top" xlink:title="Starting from the given pixel, move in the direction of the given angle, and count the number of whit...">
<polygon fill="#ffffff" stroke="#000000" points="904,-214 904,-233 1006,-233 1006,-214 904,-214"/>
<text text-anchor="middle" x="955" y="-221" font-family="Helvetica,sans-Serif" font-size="10.00" fill="#000000">GridFinder::hough</text>
</a>
</g>
</g>
<!-- Node175&#45;&gt;Node176 -->
<g id="edge1" class="edge">
<title>Node175&#45;&gt;Node176</title>
<path fill="none" stroke="#191970" d="M1099.3495,-134.736C1085.5045,-154.8943 1060.5242,-186.8432 1031,-204.5 1023.4129,-209.0374 1014.7791,-212.4956 1006.1191,-215.13"/>
<polygon fill="#191970" stroke="#191970" points="1102.4373,-136.4135 1105.0634,-126.1493 1096.6096,-132.5355 1102.4373,-136.4135"/>
</g>
<!-- Node180 -->
<g id="node6" class="node">
<title>Node180</title>
<g id="a_node6"><a xlink:href="classGridFinder.html#ab5c436911deb269a22a8d5525271fa4e" target="_top" xlink:title="Get the width of the line at a given point.">
<polygon fill="#ffffff" stroke="#000000" points="879,-164.5 879,-194.5 1031,-194.5 1031,-164.5 879,-164.5"/>
<text text-anchor="start" x="887" y="-182.5" font-family="Helvetica,sans-Serif" font-size="10.00" fill="#000000">GridFinder::getWidthAtPoint</text>
<text text-anchor="middle" x="955" y="-171.5" font-family="Helvetica,sans-Serif" font-size="10.00" fill="#000000">OnLine</text>
</a>
</g>
</g>
<!-- Node175&#45;&gt;Node180 -->
<g id="edge5" class="edge">
<title>Node175&#45;&gt;Node180</title>
<path fill="none" stroke="#191970" d="M1078.3993,-130.0797C1063.9057,-136.0828 1046.6215,-143.1953 1031,-149.5 1018.8981,-154.3842 1005.679,-159.6324 993.7086,-164.3522"/>
<polygon fill="#191970" stroke="#191970" points="1080.0374,-133.1894 1087.9327,-126.1244 1077.3549,-126.7238 1080.0374,-133.1894"/>
</g>
<!-- Node181 -->
<g id="node7" class="node">
<title>Node181</title>
<g id="a_node7"><a xlink:href="classGridFinder.html#abcd46f31e256080b2d5d2aee03c0e258" target="_top" xlink:title="Find the middle of a line.">
<polygon fill="#ffffff" stroke="#000000" points="714,-126 714,-145 834,-145 834,-126 714,-126"/>
<text text-anchor="middle" x="774" y="-133" font-family="Helvetica,sans-Serif" font-size="10.00" fill="#000000">GridFinder::getMiddle</text>
</a>
</g>
</g>
<!-- Node175&#45;&gt;Node181 -->
<g id="edge15" class="edge">
<title>Node175&#45;&gt;Node181</title>
<path fill="none" stroke="#191970" d="M1056.7757,-119.5572C995.936,-122.9873 897.5084,-128.5366 834.2944,-132.1006"/>
<polygon fill="#191970" stroke="#191970" points="1057.156,-123.0414 1066.9431,-118.9839 1056.7619,-116.0525 1057.156,-123.0414"/>
</g>
<!-- Node184 -->
<g id="node10" class="node">
<title>Node184</title>
<g id="a_node10"><a xlink:href="classGridFinder.html#a54369e6368334eb2924ca70ee1f1d438" target="_top" xlink:title="Follow the given line to find the line perpendicular to it. Move along the line for minDistance pixel...">
<polygon fill="#ffffff" stroke="#000000" points="356,-116 356,-135 490,-135 490,-116 356,-116"/>
<text text-anchor="middle" x="423" y="-123" font-family="Helvetica,sans-Serif" font-size="10.00" fill="#000000">GridFinder::findNextLine</text>
</a>
</g>
</g>
<!-- Node175&#45;&gt;Node184 -->
<g id="edge19" class="edge">
<title>Node175&#45;&gt;Node184</title>
<path fill="none" stroke="#191970" d="M1056.7557,-114.9234C953.4174,-112.2699 721.2132,-107.9875 526,-116.5 514.4332,-117.0044 502.1565,-117.8259 490.2619,-118.7728"/>
<polygon fill="#191970" stroke="#191970" points="1056.8517,-118.427 1066.94,-115.1905 1057.0352,-111.4295 1056.8517,-118.427"/>
</g>
<!-- Node189 -->
<g id="node15" class="node">
<title>Node189</title>
<g id="a_node15"><a xlink:href="classGridFinder.html#a671392ebb7c1324bd9a4e8d321475619" target="_top" xlink:title="Print the mask as &quot;pixels&quot; to the given output stream.">
<polygon fill="#ffffff" stroke="#000000" points="907.5,-50 907.5,-69 1002.5,-69 1002.5,-50 907.5,-50"/>
<text text-anchor="middle" x="955" y="-57" font-family="Helvetica,sans-Serif" font-size="10.00" fill="#000000">GridFinder::print</text>
</a>
</g>
</g>
<!-- Node175&#45;&gt;Node189 -->
<g id="edge17" class="edge">
<title>Node175&#45;&gt;Node189</title>
<path fill="none" stroke="#191970" d="M1079.5382,-102.7946C1064.8965,-96.6045 1047.177,-89.3786 1031,-83.5 1016.8249,-78.3489 1000.9428,-73.2333 987.3771,-69.0568"/>
<polygon fill="#191970" stroke="#191970" points="1078.5549,-106.1802 1089.1263,-106.8852 1081.3018,-99.7417 1078.5549,-106.1802"/>
</g>
<!-- Node190 -->
<g id="node16" class="node">
<title>Node190</title>
<g id="a_node16"><a xlink:href="classGridFinder.html#ae84004386cbee9606f9a46872cb67be8" target="_top" xlink:title="Find the vertical range of white pixels closest to the center of the given column,...">
<polygon fill="#ffffff" stroke="#000000" points="891,-.5 891,-30.5 1019,-30.5 1019,-.5 891,-.5"/>
<text text-anchor="start" x="899" y="-18.5" font-family="Helvetica,sans-Serif" font-size="10.00" fill="#000000">GridFinder::getFirstLine</text>
<text text-anchor="middle" x="955" y="-7.5" font-family="Helvetica,sans-Serif" font-size="10.00" fill="#000000">Estimate</text>
</a>
</g>
</g>
<!-- Node175&#45;&gt;Node190 -->
<g id="edge18" class="edge">
<title>Node175&#45;&gt;Node190</title>
<path fill="none" stroke="#191970" d="M1096.5756,-98.8443C1081.7481,-81.7389 1057.1845,-56.1524 1031,-40.5 1024.6812,-36.7228 1017.7213,-33.438 1010.6565,-30.6037"/>
<polygon fill="#191970" stroke="#191970" points="1094.2711,-101.5398 1103.399,-106.9187 1099.6177,-97.0216 1094.2711,-101.5398"/>
</g>
<!-- Node177 -->
<g id="node3" class="node">
<title>Node177</title>
<g id="a_node3"><a xlink:href="classGridFinder.html#a04e1362c95151ac77477844a952af0f9" target="_top" xlink:title="Scan 360° around a given pixel, and find the angle with the most white pixels. This version is not ve...">
<polygon fill="#ffffff" stroke="#000000" points="528.5,-214 528.5,-233 666.5,-233 666.5,-214 528.5,-214"/>
<text text-anchor="middle" x="597.5" y="-221" font-family="Helvetica,sans-Serif" font-size="10.00" fill="#000000">GridFinder::findLineAngle</text>
</a>
</g>
</g>
<!-- Node176&#45;&gt;Node177 -->
<g id="edge2" class="edge">
<title>Node176&#45;&gt;Node177</title>
<path fill="none" stroke="#191970" d="M893.5806,-223.5C830.5033,-223.5 732.5089,-223.5 666.7226,-223.5"/>
<polygon fill="#191970" stroke="#191970" points="893.779,-227.0001 903.779,-223.5 893.7789,-220.0001 893.779,-227.0001"/>
</g>
<!-- Node179 -->
<g id="node5" class="node">
<title>Node179</title>
<g id="a_node5"><a xlink:href="classGridFinder.html#afcc1eed83ee0292966c3c80883069634" target="_top" xlink:title="Similar to findLineAngle, but is more accurate, because it uses the average of the range of angles wi...">
<polygon fill="#ffffff" stroke="#000000" points="705,-164.5 705,-194.5 843,-194.5 843,-164.5 705,-164.5"/>
<text text-anchor="start" x="713" y="-182.5" font-family="Helvetica,sans-Serif" font-size="10.00" fill="#000000">GridFinder::findLineAngle</text>
<text text-anchor="middle" x="774" y="-171.5" font-family="Helvetica,sans-Serif" font-size="10.00" fill="#000000">AccurateRange</text>
</a>
</g>
</g>
<!-- Node176&#45;&gt;Node179 -->
<g id="edge4" class="edge">
<title>Node176&#45;&gt;Node179</title>
<path fill="none" stroke="#191970" d="M905.8213,-211.545C884.2899,-206.3108 858.7849,-200.1107 835.9734,-194.5654"/>
<polygon fill="#191970" stroke="#191970" points="905.1819,-214.9914 915.7257,-213.9527 906.8355,-208.1895 905.1819,-214.9914"/>
</g>
<!-- Node178 -->
<g id="node4" class="node">
<title>Node178</title>
<g id="a_node4"><a xlink:href="classGridFinder.html#aaea3af418ab7124f2b25bcc124fccaca" target="_top" xlink:title="Get an estimate of the line through a given pixel. Find an estimate of the slope, then use that to de...">
<polygon fill="#ffffff" stroke="#000000" points="359,-173.5 359,-203.5 487,-203.5 487,-173.5 359,-173.5"/>
<text text-anchor="start" x="367" y="-191.5" font-family="Helvetica,sans-Serif" font-size="10.00" fill="#000000">GridFinder::getFirstLine</text>
<text text-anchor="middle" x="423" y="-180.5" font-family="Helvetica,sans-Serif" font-size="10.00" fill="#000000">Estimate</text>
</a>
</g>
</g>
<!-- Node177&#45;&gt;Node178 -->
<g id="edge3" class="edge">
<title>Node177&#45;&gt;Node178</title>
<path fill="none" stroke="#191970" d="M539.6154,-211.8899C522.849,-208.527 504.445,-204.8357 487.3113,-201.3991"/>
<polygon fill="#191970" stroke="#191970" points="539.3241,-215.4011 549.8171,-213.9361 540.7007,-208.5378 539.3241,-215.4011"/>
</g>
<!-- Node180&#45;&gt;Node181 -->
<g id="edge6" class="edge">
<title>Node180&#45;&gt;Node181</title>
<path fill="none" stroke="#191970" d="M883.4376,-162.1036C859.479,-156.2794 833.6666,-150.0046 813.1306,-145.0124"/>
<polygon fill="#191970" stroke="#191970" points="882.6725,-165.5195 893.2163,-164.4808 884.3261,-158.7176 882.6725,-165.5195"/>
</g>
<!-- Node182 -->
<g id="node8" class="node">
<title>Node182</title>
<g id="a_node8"><a xlink:href="classGridFinder.html#af830abf29ca6dc9c01197a38fe16e1e5" target="_top" xlink:title="In exceptional cases, we might want to find the middle of a line in a point that happens to lie at th...">
<polygon fill="#ffffff" stroke="#000000" points="526,-164.5 526,-194.5 669,-194.5 669,-164.5 526,-164.5"/>
<text text-anchor="start" x="534" y="-182.5" font-family="Helvetica,sans-Serif" font-size="10.00" fill="#000000">GridFinder::getMiddleWith</text>
<text text-anchor="middle" x="597.5" y="-171.5" font-family="Helvetica,sans-Serif" font-size="10.00" fill="#000000">Retries</text>
</a>
</g>
</g>
<!-- Node181&#45;&gt;Node182 -->
<g id="edge7" class="edge">
<title>Node181&#45;&gt;Node182</title>
<path fill="none" stroke="#191970" d="M725.7588,-147.5261C704.8229,-152.7453 680.0764,-158.9144 657.9327,-164.4346"/>
<polygon fill="#191970" stroke="#191970" points="726.8457,-150.8624 735.7021,-145.0473 725.1524,-144.0702 726.8457,-150.8624"/>
</g>
<!-- Node183 -->
<g id="node9" class="node">
<title>Node183</title>
<g id="a_node9"><a xlink:href="classGridFinder.html#ae12ca7921b02b37417d87fc737f0134d" target="_top" xlink:title="Check if there could be a valid line going through the given point, and if so, find and return the ac...">
<polygon fill="#ffffff" stroke="#000000" points="537,-126 537,-145 658,-145 658,-126 537,-126"/>
<text text-anchor="middle" x="597.5" y="-133" font-family="Helvetica,sans-Serif" font-size="10.00" fill="#000000">GridFinder::checkLine</text>
</a>
</g>
</g>
<!-- Node181&#45;&gt;Node183 -->
<g id="edge9" class="edge">
<title>Node181&#45;&gt;Node183</title>
<path fill="none" stroke="#191970" d="M703.4814,-135.5C688.4475,-135.5 672.6975,-135.5 658.0754,-135.5"/>
<polygon fill="#191970" stroke="#191970" points="703.7524,-139.0001 713.7524,-135.5 703.7523,-132.0001 703.7524,-139.0001"/>
</g>
<!-- Node182&#45;&gt;Node178 -->
<g id="edge8" class="edge">
<title>Node182&#45;&gt;Node178</title>
<path fill="none" stroke="#191970" d="M515.5054,-183.7289C505.9971,-184.2193 496.4052,-184.7141 487.1837,-185.1897"/>
<polygon fill="#191970" stroke="#191970" points="515.9623,-187.2101 525.7688,-183.1996 515.6017,-180.2194 515.9623,-187.2101"/>
</g>
<!-- Node183&#45;&gt;Node184 -->
<g id="edge10" class="edge">
<title>Node183&#45;&gt;Node184</title>
<path fill="none" stroke="#191970" d="M526.9271,-131.4557C514.8358,-130.7628 502.3005,-130.0444 490.2976,-129.3566"/>
<polygon fill="#191970" stroke="#191970" points="526.7742,-134.9526 536.9581,-132.0305 527.1748,-127.9641 526.7742,-134.9526"/>
</g>
<!-- Node185 -->
<g id="node11" class="node">
<title>Node185</title>
<g id="a_node11"><a xlink:href="classGridFinder.html#a3edbd3ffbcfe6d373fbaf576e4dca51b" target="_top" xlink:title="Equivalent to #findNextLine(LineResult,bool,uint,uint) but also supports optional LineResults.">
<polygon fill="#ffffff" stroke="#000000" points="186,-135 186,-154 320,-154 320,-135 186,-135"/>
<text text-anchor="middle" x="253" y="-142" font-family="Helvetica,sans-Serif" font-size="10.00" fill="#000000">GridFinder::findNextLine</text>
</a>
</g>
</g>
<!-- Node184&#45;&gt;Node185 -->
<g id="edge11" class="edge">
<title>Node184&#45;&gt;Node185</title>
<path fill="none" stroke="#191970" d="M345.854,-134.1222C337.3121,-135.0769 328.6634,-136.0435 320.2572,-136.983"/>
<polygon fill="#191970" stroke="#191970" points="346.2622,-137.5985 355.8115,-133.0093 345.4846,-130.6418 346.2622,-137.5985"/>
</g>
<!-- Node186 -->
<g id="node12" class="node">
<title>Node186</title>
<g id="a_node12"><a xlink:href="classGridFinder.html#a8940ca681fac78274043cf5f1f1f5761" target="_top" xlink:title="This is the main function: it looks for a complete square of the grid, as close to the center of the ...">
<polygon fill="#ffffff" stroke="#000000" points="191,-97 191,-116 315,-116 315,-97 191,-97"/>
<text text-anchor="middle" x="253" y="-104" font-family="Helvetica,sans-Serif" font-size="10.00" fill="#000000">GridFinder::findSquare</text>
</a>
</g>
</g>
<!-- Node184&#45;&gt;Node186 -->
<g id="edge12" class="edge">
<title>Node184&#45;&gt;Node186</title>
<path fill="none" stroke="#191970" d="M345.624,-116.8521C335.3644,-115.7054 324.9554,-114.5421 315.0015,-113.4296"/>
<polygon fill="#191970" stroke="#191970" points="345.4846,-120.3582 355.8115,-117.9907 346.2622,-113.4015 345.4846,-120.3582"/>
</g>
<!-- Node187 -->
<g id="node13" class="node">
<title>Node187</title>
<g id="a_node13"><a xlink:href="classLocationFinder.html#a398bb42565e1e2a499471765f569bc40" target="_top" xlink:title=" ">
<polygon fill="#ffffff" stroke="#000000" points="0,-116 0,-135 150,-135 150,-116 0,-116"/>
<text text-anchor="middle" x="75" y="-123" font-family="Helvetica,sans-Serif" font-size="10.00" fill="#000000">LocationFinder::getLocation</text>
</a>
</g>
</g>
<!-- Node186&#45;&gt;Node187 -->
<g id="edge13" class="edge">
<title>Node186&#45;&gt;Node187</title>
<path fill="none" stroke="#191970" d="M180.754,-114.2117C170.6437,-115.2908 160.2341,-116.402 150.0729,-117.4866"/>
<polygon fill="#191970" stroke="#191970" points="181.1722,-117.687 190.7442,-113.1453 180.4292,-110.7265 181.1722,-117.687"/>
</g>
<!-- Node188 -->
<g id="node14" class="node">
<title>Node188</title>
<g id="a_node14"><a xlink:href="Grid-Finder_8module_8hpp.html#a05e720af51446c0f9319fb9455fe1767" target="_top" xlink:title=" ">
<polygon fill="#ffffff" stroke="#000000" points="18.5,-78 18.5,-97 131.5,-97 131.5,-78 18.5,-78"/>
<text text-anchor="middle" x="75" y="-85" font-family="Helvetica,sans-Serif" font-size="10.00" fill="#000000">PYBIND11_MODULE</text>
</a>
</g>
</g>
<!-- Node186&#45;&gt;Node188 -->
<g id="edge14" class="edge">
<title>Node186&#45;&gt;Node188</title>
<path fill="none" stroke="#191970" d="M180.6768,-98.7801C164.3126,-97.0334 147.1683,-95.2034 131.5649,-93.5378"/>
<polygon fill="#191970" stroke="#191970" points="180.4292,-102.2735 190.7442,-99.8547 181.1722,-95.313 180.4292,-102.2735"/>
</g>
</g>
</svg>
