<?xml version="1.0" encoding="UTF-8" standalone="no"?>
<!DOCTYPE svg PUBLIC "-//W3C//DTD SVG 1.1//EN"
 "http://www.w3.org/Graphics/SVG/1.1/DTD/svg11.dtd">
<!-- Generated by graphviz version 2.40.1 (20161225.0304)
 -->
<!-- Title: BitString::reserve Pages: 1 -->
<svg width="425pt" height="104pt"
 viewBox="0.00 0.00 425.00 104.00" xmlns="http://www.w3.org/2000/svg" xmlns:xlink="http://www.w3.org/1999/xlink">
<g id="graph0" class="graph" transform="scale(1 1) rotate(0) translate(4 100)">
<title>BitString::reserve</title>
<polygon fill="#ffffff" stroke="transparent" points="-4,4 -4,-100 421,-100 421,4 -4,4"/>
<!-- Node42 -->
<g id="node1" class="node">
<title>Node42</title>
<g id="a_node1"><a xlink:title=" ">
<polygon fill="#bfbfbf" stroke="#000000" points="316,-38.5 316,-57.5 417,-57.5 417,-38.5 316,-38.5"/>
<text text-anchor="middle" x="366.5" y="-45.5" font-family="Helvetica,sans-Serif" font-size="10.00" fill="#000000">BitString::reserve</text>
</a>
</g>
</g>
<!-- Node43 -->
<g id="node2" class="node">
<title>Node43</title>
<g id="a_node2"><a xlink:href="crypto_8cpp.html#a7f69ce9864a092ee96aa3b9a299e6074" target="_top" xlink:title="Decrypt the given QR code without retries.">
<polygon fill="#ffffff" stroke="#000000" points="201.5,-76.5 201.5,-95.5 269.5,-95.5 269.5,-76.5 201.5,-76.5"/>
<text text-anchor="middle" x="235.5" y="-83.5" font-family="Helvetica,sans-Serif" font-size="10.00" fill="#000000">tryDecrypt</text>
</a>
</g>
</g>
<!-- Node42&#45;&gt;Node43 -->
<g id="edge1" class="edge">
<title>Node42&#45;&gt;Node43</title>
<path fill="none" stroke="#191970" d="M323.7852,-60.3906C305.8453,-65.5945 285.3004,-71.5541 268.5463,-76.4141"/>
<polygon fill="#191970" stroke="#191970" points="324.8142,-63.7364 333.4432,-57.589 322.864,-57.0136 324.8142,-63.7364"/>
</g>
<!-- Node44 -->
<g id="node3" class="node">
<title>Node44</title>
<g id="a_node3"><a xlink:href="keccak_8hpp.html#ad2ec31efd2cbbecc017d9c4e61b379f7" target="_top" xlink:title=" ">
<polygon fill="#ffffff" stroke="#000000" points="210,-38.5 210,-57.5 261,-57.5 261,-38.5 210,-38.5"/>
<text text-anchor="middle" x="235.5" y="-45.5" font-family="Helvetica,sans-Serif" font-size="10.00" fill="#000000">keccak</text>
</a>
</g>
</g>
<!-- Node42&#45;&gt;Node44 -->
<g id="edge2" class="edge">
<title>Node42&#45;&gt;Node44</title>
<path fill="none" stroke="#191970" d="M305.6335,-48C289.9476,-48 273.9057,-48 261.13,-48"/>
<polygon fill="#191970" stroke="#191970" points="305.852,-51.5001 315.852,-48 305.8519,-44.5001 305.852,-51.5001"/>
</g>
<!-- Node46 -->
<g id="node5" class="node">
<title>Node46</title>
<g id="a_node5"><a xlink:href="classKetje.html#a2aaeeaf71dcf9d83d7c8694154a02117" target="_top" xlink:title=" ">
<polygon fill="#ffffff" stroke="#000000" points="191,-.5 191,-19.5 280,-19.5 280,-.5 191,-.5"/>
<text text-anchor="middle" x="235.5" y="-7.5" font-family="Helvetica,sans-Serif" font-size="10.00" fill="#000000">Ketje::initialize</text>
</a>
</g>
</g>
<!-- Node42&#45;&gt;Node46 -->
<g id="edge4" class="edge">
<title>Node42&#45;&gt;Node46</title>
<path fill="none" stroke="#191970" d="M323.7852,-35.6094C305.8453,-30.4055 285.3004,-24.4459 268.5463,-19.5859"/>
<polygon fill="#191970" stroke="#191970" points="322.864,-38.9864 333.4432,-38.411 324.8142,-32.2636 322.864,-38.9864"/>
</g>
<!-- Node45 -->
<g id="node4" class="node">
<title>Node45</title>
<g id="a_node4"><a xlink:href="classHWImplementation.html#abe2799913267791c526580c8f9ae2fac" target="_top" xlink:title=" ">
<polygon fill="#ffffff" stroke="#000000" points="7,-38.5 7,-57.5 148,-57.5 148,-38.5 7,-38.5"/>
<text text-anchor="middle" x="77.5" y="-45.5" font-family="Helvetica,sans-Serif" font-size="10.00" fill="#000000">HWImplementation::hash</text>
</a>
</g>
</g>
<!-- Node44&#45;&gt;Node45 -->
<g id="edge3" class="edge">
<title>Node44&#45;&gt;Node45</title>
<path fill="none" stroke="#191970" d="M199.7307,-48C184.4551,-48 166.0636,-48 148.2393,-48"/>
<polygon fill="#191970" stroke="#191970" points="199.763,-51.5001 209.7629,-48 199.7629,-44.5001 199.763,-51.5001"/>
</g>
<!-- Node47 -->
<g id="node6" class="node">
<title>Node47</title>
<g id="a_node6"><a xlink:href="classHWImplementation.html#a9725062c33ebdc296909f65aa22edbca" target="_top" xlink:title=" ">
<polygon fill="#ffffff" stroke="#000000" points="0,-.5 0,-19.5 155,-19.5 155,-.5 0,-.5"/>
<text text-anchor="middle" x="77.5" y="-7.5" font-family="Helvetica,sans-Serif" font-size="10.00" fill="#000000">HWImplementation::decrypt</text>
</a>
</g>
</g>
<!-- Node46&#45;&gt;Node47 -->
<g id="edge5" class="edge">
<title>Node46&#45;&gt;Node47</title>
<path fill="none" stroke="#191970" d="M180.4675,-10C172.246,-10 163.6421,-10 155.0608,-10"/>
<polygon fill="#191970" stroke="#191970" points="180.6462,-13.5001 190.6462,-10 180.6461,-6.5001 180.6462,-13.5001"/>
</g>
</g>
</svg>
