<?xml version="1.0" encoding="UTF-8" standalone="no"?>
<!DOCTYPE svg PUBLIC "-//W3C//DTD SVG 1.1//EN"
 "http://www.w3.org/Graphics/SVG/1.1/DTD/svg11.dtd">
<!-- Generated by graphviz version 2.40.1 (20161225.0304)
 -->
<!-- Title: GridFinder::findLineAngleAccurate Pages: 1 -->
<svg width="805pt" height="137pt"
 viewBox="0.00 0.00 805.00 137.32" xmlns="http://www.w3.org/2000/svg" xmlns:xlink="http://www.w3.org/1999/xlink">
<g id="graph0" class="graph" transform="scale(1 1) rotate(0) translate(4 133.3176)">
<title>GridFinder::findLineAngleAccurate</title>
<polygon fill="#ffffff" stroke="transparent" points="-4,4 -4,-133.3176 801,-133.3176 801,4 -4,4"/>
<!-- Node47 -->
<g id="node1" class="node">
<title>Node47</title>
<g id="a_node1"><a xlink:title=" ">
<polygon fill="#bfbfbf" stroke="#000000" points="0,-63.5 0,-93.5 138,-93.5 138,-63.5 0,-63.5"/>
<text text-anchor="start" x="8" y="-81.5" font-family="Helvetica,sans-Serif" font-size="10.00" fill="#000000">GridFinder::findLineAngle</text>
<text text-anchor="middle" x="69" y="-70.5" font-family="Helvetica,sans-Serif" font-size="10.00" fill="#000000">Accurate</text>
</a>
</g>
</g>
<!-- Node48 -->
<g id="node2" class="node">
<title>Node48</title>
<g id="a_node2"><a xlink:href="classAngle.html#a84ce9a0e2a186ada6997077fd96d6e4c" target="_top" xlink:title=" ">
<polygon fill="#ffffff" stroke="#000000" points="174,-107 174,-126 314,-126 314,-107 174,-107"/>
<text text-anchor="middle" x="244" y="-114" font-family="Helvetica,sans-Serif" font-size="10.00" fill="#000000">Angle&lt; 360 &gt;::resolution</text>
</a>
</g>
</g>
<!-- Node47&#45;&gt;Node48 -->
<g id="edge1" class="edge">
<title>Node47&#45;&gt;Node48</title>
<path fill="none" stroke="#191970" d="M138.1646,-93.5186C155.4914,-97.281 173.8224,-101.2614 190.2723,-104.8334"/>
<polygon fill="#191970" stroke="#191970" points="189.7308,-108.2973 200.2457,-106.9991 191.2162,-101.4567 189.7308,-108.2973"/>
</g>
<!-- Node49 -->
<g id="node3" class="node">
<title>Node49</title>
<g id="a_node3"><a xlink:href="classGridFinder.html#ae562737b4e1d28a7888aedb53449e0e7" target="_top" xlink:title="Starting from the given pixel, move in the direction of the given angle, and count the number of whit...">
<polygon fill="#ffffff" stroke="#000000" points="193,-69 193,-88 295,-88 295,-69 193,-69"/>
<text text-anchor="middle" x="244" y="-76" font-family="Helvetica,sans-Serif" font-size="10.00" fill="#000000">GridFinder::hough</text>
</a>
</g>
</g>
<!-- Node47&#45;&gt;Node49 -->
<g id="edge2" class="edge">
<title>Node47&#45;&gt;Node49</title>
<path fill="none" stroke="#191970" d="M138.1646,-78.5C152.8484,-78.5 168.2534,-78.5 182.6235,-78.5"/>
<polygon fill="#191970" stroke="#191970" points="182.8792,-82.0001 192.8792,-78.5 182.8792,-75.0001 182.8792,-82.0001"/>
</g>
<!-- Node55 -->
<g id="node9" class="node">
<title>Node55</title>
<g id="a_node9"><a xlink:href="classAngle.html#a593164c63d4e2eedc8b473419c179f77" target="_top" xlink:title=" ">
<polygon fill="#ffffff" stroke="#000000" points="178.5,-31 178.5,-50 309.5,-50 309.5,-31 178.5,-31"/>
<text text-anchor="middle" x="244" y="-38" font-family="Helvetica,sans-Serif" font-size="10.00" fill="#000000">Angle&lt; 360 &gt;::average</text>
</a>
</g>
</g>
<!-- Node47&#45;&gt;Node55 -->
<g id="edge9" class="edge">
<title>Node47&#45;&gt;Node55</title>
<path fill="none" stroke="#191970" d="M138.1646,-63.4814C155.4914,-59.719 173.8224,-55.7386 190.2723,-52.1666"/>
<polygon fill="#191970" stroke="#191970" points="191.2162,-55.5433 200.2457,-50.0009 189.7308,-48.7027 191.2162,-55.5433"/>
</g>
<!-- Node50 -->
<g id="node4" class="node">
<title>Node50</title>
<g id="a_node4"><a xlink:href="classBresenhamLine.html#aba0822ee20811d67cd9539ccbe1cd346" target="_top" xlink:title=" ">
<polygon fill="#ffffff" stroke="#000000" points="536,-107 536,-126 675,-126 675,-107 536,-107"/>
<text text-anchor="middle" x="605.5" y="-114" font-family="Helvetica,sans-Serif" font-size="10.00" fill="#000000">BresenhamLine::hasNext</text>
</a>
</g>
</g>
<!-- Node49&#45;&gt;Node50 -->
<g id="edge3" class="edge">
<title>Node49&#45;&gt;Node50</title>
<path fill="none" stroke="#191970" d="M285.2106,-88.061C294.7935,-90.729 304.8616,-93.8994 314,-97.5 330.8322,-104.1321 332.439,-112.1502 350,-116.5 407.6216,-130.7728 474.8222,-130.1229 525.8394,-126.252"/>
<polygon fill="#191970" stroke="#191970" points="526.137,-129.7394 535.8195,-125.4383 525.5681,-122.7626 526.137,-129.7394"/>
</g>
<!-- Node52 -->
<g id="node6" class="node">
<title>Node52</title>
<g id="a_node6"><a xlink:href="classBresenhamLine.html#a10d505e30945f42a5cd0270c315b104f" target="_top" xlink:title=" ">
<polygon fill="#ffffff" stroke="#000000" points="365,-88 365,-107 485,-107 485,-88 365,-88"/>
<text text-anchor="middle" x="425" y="-95" font-family="Helvetica,sans-Serif" font-size="10.00" fill="#000000">BresenhamLine::next</text>
</a>
</g>
</g>
<!-- Node49&#45;&gt;Node52 -->
<g id="edge5" class="edge">
<title>Node49&#45;&gt;Node52</title>
<path fill="none" stroke="#191970" d="M295.3832,-83.8938C313.8064,-85.8277 334.9076,-88.0428 354.6591,-90.1162"/>
<polygon fill="#191970" stroke="#191970" points="354.5328,-93.622 364.8436,-91.1852 355.2636,-86.6603 354.5328,-93.622"/>
</g>
<!-- Node53 -->
<g id="node7" class="node">
<title>Node53</title>
<g id="a_node7"><a xlink:href="classGridFinder.html#a53cfbafaf3cd06baac2a19eeee0cfb73" target="_top" xlink:title="Get the value of the given pixel.">
<polygon fill="#ffffff" stroke="#000000" points="381,-50 381,-69 469,-69 469,-50 381,-50"/>
<text text-anchor="middle" x="425" y="-57" font-family="Helvetica,sans-Serif" font-size="10.00" fill="#000000">GridFinder::get</text>
</a>
</g>
</g>
<!-- Node49&#45;&gt;Node53 -->
<g id="edge7" class="edge">
<title>Node49&#45;&gt;Node53</title>
<path fill="none" stroke="#191970" d="M295.3832,-73.1062C318.9774,-70.6294 346.964,-67.6916 370.8827,-65.1808"/>
<polygon fill="#191970" stroke="#191970" points="371.28,-68.6584 380.8599,-64.1335 370.5491,-61.6967 371.28,-68.6584"/>
</g>
<!-- Node54 -->
<g id="node8" class="node">
<title>Node54</title>
<g id="a_node8"><a xlink:href="classBresenhamLine.html#ad93a4adf0535a9b4e649bce5ade1bc5e" target="_top" xlink:title=" ">
<polygon fill="#ffffff" stroke="#000000" points="350,-.5 350,-30.5 500,-30.5 500,-.5 350,-.5"/>
<text text-anchor="start" x="358" y="-18.5" font-family="Helvetica,sans-Serif" font-size="10.00" fill="#000000">BresenhamLine::getCurrent</text>
<text text-anchor="middle" x="425" y="-7.5" font-family="Helvetica,sans-Serif" font-size="10.00" fill="#000000">Length</text>
</a>
</g>
</g>
<!-- Node49&#45;&gt;Node54 -->
<g id="edge8" class="edge">
<title>Node49&#45;&gt;Node54</title>
<path fill="none" stroke="#191970" d="M285.2106,-68.939C294.7935,-66.271 304.8616,-63.1006 314,-59.5 330.8322,-52.8679 333.3625,-47.6066 350,-40.5 355.1277,-38.3097 360.5166,-36.1851 365.9548,-34.1603"/>
<polygon fill="#191970" stroke="#191970" points="367.5291,-37.3134 375.7509,-30.6311 365.1565,-30.7278 367.5291,-37.3134"/>
</g>
<!-- Node51 -->
<g id="node5" class="node">
<title>Node51</title>
<g id="a_node5"><a xlink:href="structPixel.html#a816d743559e2ac5b35c9c79ac517ad0a" target="_top" xlink:title=" ">
<polygon fill="#ffffff" stroke="#000000" points="711,-107 711,-126 797,-126 797,-107 711,-107"/>
<text text-anchor="middle" x="754" y="-114" font-family="Helvetica,sans-Serif" font-size="10.00" fill="#000000">Pixel::inRange</text>
</a>
</g>
</g>
<!-- Node50&#45;&gt;Node51 -->
<g id="edge4" class="edge">
<title>Node50&#45;&gt;Node51</title>
<path fill="none" stroke="#191970" d="M675.4016,-116.5C683.8647,-116.5 692.4033,-116.5 700.5758,-116.5"/>
<polygon fill="#191970" stroke="#191970" points="700.6984,-120.0001 710.6984,-116.5 700.6984,-113.0001 700.6984,-120.0001"/>
</g>
<!-- Node52&#45;&gt;Node50 -->
<g id="edge6" class="edge">
<title>Node52&#45;&gt;Node50</title>
<path fill="none" stroke="#191970" d="M485.1039,-103.8267C498.0978,-105.1945 512.0336,-106.6614 525.6494,-108.0947"/>
<polygon fill="#191970" stroke="#191970" points="525.6667,-111.6158 535.9782,-109.1819 526.3996,-104.6542 525.6667,-111.6158"/>
</g>
</g>
</svg>
