<?xml version="1.0" encoding="UTF-8" standalone="no"?>
<!DOCTYPE svg PUBLIC "-//W3C//DTD SVG 1.1//EN"
 "http://www.w3.org/Graphics/SVG/1.1/DTD/svg11.dtd">
<!-- Generated by graphviz version 2.40.1 (20161225.0304)
 -->
<!-- Title: MulticastSender::send Pages: 1 -->
<svg width="292pt" height="66pt"
 viewBox="0.00 0.00 292.00 66.00" xmlns="http://www.w3.org/2000/svg" xmlns:xlink="http://www.w3.org/1999/xlink">
<g id="graph0" class="graph" transform="scale(1 1) rotate(0) translate(4 62)">
<title>MulticastSender::send</title>
<polygon fill="#ffffff" stroke="transparent" points="-4,4 -4,-62 288,-62 288,4 -4,4"/>
<!-- Node14 -->
<g id="node1" class="node">
<title>Node14</title>
<g id="a_node1"><a xlink:title=" ">
<polygon fill="#bfbfbf" stroke="#000000" points="160,-19.5 160,-38.5 284,-38.5 284,-19.5 160,-19.5"/>
<text text-anchor="middle" x="222" y="-26.5" font-family="Helvetica,sans-Serif" font-size="10.00" fill="#000000">MulticastSender::send</text>
</a>
</g>
</g>
<!-- Node15 -->
<g id="node2" class="node">
<title>Node15</title>
<g id="a_node2"><a xlink:href="classMulticastSender.html#aa8f381568b0b483f7c93e0fc4755b4c7" target="_top" xlink:title=" ">
<polygon fill="#ffffff" stroke="#000000" points="0,-38.5 0,-57.5 124,-57.5 124,-38.5 0,-38.5"/>
<text text-anchor="middle" x="62" y="-45.5" font-family="Helvetica,sans-Serif" font-size="10.00" fill="#000000">MulticastSender::send</text>
</a>
</g>
</g>
<!-- Node14&#45;&gt;Node15 -->
<g id="edge1" class="edge">
<title>Node14&#45;&gt;Node15</title>
<path fill="none" stroke="#191970" d="M149.7333,-37.5817C141.1922,-38.5959 132.5324,-39.6243 124.1482,-40.6199"/>
<polygon fill="#191970" stroke="#191970" points="150.1642,-41.0552 159.6817,-36.4003 149.3387,-34.104 150.1642,-41.0552"/>
</g>
<!-- Node16 -->
<g id="node3" class="node">
<title>Node16</title>
<g id="a_node3"><a xlink:href="classLogger.html#ad905325c0f6a7f835e7e54c66e7300b2" target="_top" xlink:title="Update the logger: check if there is new logging data from Baremetal, and if so, send it over UDP.">
<polygon fill="#ffffff" stroke="#000000" points="17.5,-.5 17.5,-19.5 106.5,-19.5 106.5,-.5 17.5,-.5"/>
<text text-anchor="middle" x="62" y="-7.5" font-family="Helvetica,sans-Serif" font-size="10.00" fill="#000000">Logger::update</text>
</a>
</g>
</g>
<!-- Node14&#45;&gt;Node16 -->
<g id="edge2" class="edge">
<title>Node14&#45;&gt;Node16</title>
<path fill="none" stroke="#191970" d="M149.6076,-20.4034C134.9414,-18.6618 119.931,-16.8793 106.5722,-15.293"/>
<polygon fill="#191970" stroke="#191970" points="149.3387,-23.896 159.6817,-21.5997 150.1642,-16.9448 149.3387,-23.896"/>
</g>
</g>
</svg>
