<?xml version="1.0" encoding="UTF-8" standalone="no"?>
<!DOCTYPE svg PUBLIC "-//W3C//DTD SVG 1.1//EN"
 "http://www.w3.org/Graphics/SVG/1.1/DTD/svg11.dtd">
<!-- Generated by graphviz version 2.40.1 (20161225.0304)
 -->
<!-- Title: LocationFinder::getLocation Pages: 1 -->
<svg width="1518pt" height="671pt"
 viewBox="0.00 0.00 1518.00 670.50" xmlns="http://www.w3.org/2000/svg" xmlns:xlink="http://www.w3.org/1999/xlink">
<g id="graph0" class="graph" transform="scale(1 1) rotate(0) translate(4 666.5)">
<title>LocationFinder::getLocation</title>
<polygon fill="#ffffff" stroke="transparent" points="-4,4 -4,-666.5 1514,-666.5 1514,4 -4,4"/>
<!-- Node4 -->
<g id="node1" class="node">
<title>Node4</title>
<g id="a_node1"><a xlink:title=" ">
<polygon fill="#bfbfbf" stroke="#000000" points="0,-373.5 0,-392.5 150,-392.5 150,-373.5 0,-373.5"/>
<text text-anchor="middle" x="75" y="-380.5" font-family="Helvetica,sans-Serif" font-size="10.00" fill="#000000">LocationFinder::getLocation</text>
</a>
</g>
</g>
<!-- Node5 -->
<g id="node2" class="node">
<title>Node5</title>
<g id="a_node2"><a xlink:href="classMask.html#aa0a965ed4da7d946e842d02ee0166ec3" target="_top" xlink:title="Get a pointer to the array of mask bytes.">
<polygon fill="#ffffff" stroke="#000000" points="217,-392.5 217,-411.5 279,-411.5 279,-392.5 217,-392.5"/>
<text text-anchor="middle" x="248" y="-399.5" font-family="Helvetica,sans-Serif" font-size="10.00" fill="#000000">Mask::ptr</text>
</a>
</g>
</g>
<!-- Node4&#45;&gt;Node5 -->
<g id="edge1" class="edge">
<title>Node4&#45;&gt;Node5</title>
<path fill="none" stroke="#191970" d="M150.1256,-391.2508C169.4572,-393.3739 189.5602,-395.5818 206.4814,-397.4402"/>
<polygon fill="#191970" stroke="#191970" points="206.2483,-400.9355 216.5707,-398.5482 207.0126,-393.9774 206.2483,-400.9355"/>
</g>
<!-- Node6 -->
<g id="node3" class="node">
<title>Node6</title>
<g id="a_node3"><a xlink:href="classGridFinder.html#a8940ca681fac78274043cf5f1f1f5761" target="_top" xlink:title="This is the main function: it looks for a complete square of the grid, as close to the center of the ...">
<polygon fill="#ffffff" stroke="#000000" points="186,-354.5 186,-373.5 310,-373.5 310,-354.5 186,-354.5"/>
<text text-anchor="middle" x="248" y="-361.5" font-family="Helvetica,sans-Serif" font-size="10.00" fill="#000000">GridFinder::findSquare</text>
</a>
</g>
</g>
<!-- Node4&#45;&gt;Node6 -->
<g id="edge2" class="edge">
<title>Node4&#45;&gt;Node6</title>
<path fill="none" stroke="#191970" d="M150.1256,-374.7492C158.6181,-373.8165 167.2594,-372.8675 175.7145,-371.9389"/>
<polygon fill="#191970" stroke="#191970" points="176.3548,-375.3897 185.9129,-370.8188 175.5906,-368.4315 176.3548,-375.3897"/>
</g>
<!-- Node7 -->
<g id="node4" class="node">
<title>Node7</title>
<g id="a_node4"><a xlink:href="Square_8hpp.html#ace3999c20c4c886c00503d56c69ae204" target="_top" xlink:title=" ">
<polygon fill="#ffffff" stroke="#000000" points="398.5,-620.5 398.5,-639.5 427.5,-639.5 427.5,-620.5 398.5,-620.5"/>
<text text-anchor="middle" x="413" y="-627.5" font-family="Helvetica,sans-Serif" font-size="10.00" fill="#000000">sq</text>
</a>
</g>
</g>
<!-- Node6&#45;&gt;Node7 -->
<g id="edge3" class="edge">
<title>Node6&#45;&gt;Node7</title>
<path fill="none" stroke="#191970" d="M298.1436,-373.6608C302.5981,-376.1166 306.6719,-379.1804 310,-383 375.9522,-458.6922 281.8293,-528.7916 346,-606 356.4224,-618.5399 373.904,-624.5289 388.3971,-627.3887"/>
<polygon fill="#191970" stroke="#191970" points="387.8516,-630.8458 398.2785,-628.9669 388.9557,-623.9334 387.8516,-630.8458"/>
</g>
<!-- Node8 -->
<g id="node5" class="node">
<title>Node8</title>
<g id="a_node5"><a xlink:href="classGridFinder.html#a7c330ed1431434a4a3726c341161bf39" target="_top" xlink:title="Get the first two lines. These are the two half lines that make up the line closest to the center of ...">
<polygon fill="#ffffff" stroke="#000000" points="516,-583 516,-613 663,-613 663,-583 516,-583"/>
<text text-anchor="start" x="524" y="-601" font-family="Helvetica,sans-Serif" font-size="10.00" fill="#000000">GridFinder::getFirstTwoHalf</text>
<text text-anchor="middle" x="589.5" y="-590" font-family="Helvetica,sans-Serif" font-size="10.00" fill="#000000">Lines</text>
</a>
</g>
</g>
<!-- Node6&#45;&gt;Node8 -->
<g id="edge4" class="edge">
<title>Node6&#45;&gt;Node8</title>
<path fill="none" stroke="#191970" d="M297.7203,-373.6094C302.3145,-376.0713 306.5357,-379.1507 310,-383 366.0353,-445.2619 284.7444,-510.8664 346,-568 368.7194,-589.1905 444.6145,-595.9722 505.7048,-597.8855"/>
<polygon fill="#191970" stroke="#191970" points="505.6658,-601.3856 515.7581,-598.1614 505.858,-594.3883 505.6658,-601.3856"/>
</g>
<!-- Node15 -->
<g id="node12" class="node">
<title>Node15</title>
<g id="a_node12"><a xlink:href="classLine.html#ade63ea812bc1673307538a83b82da577" target="_top" xlink:title=" ">
<polygon fill="#ffffff" stroke="#000000" points="365.5,-38.5 365.5,-57.5 460.5,-57.5 460.5,-38.5 365.5,-38.5"/>
<text text-anchor="middle" x="413" y="-45.5" font-family="Helvetica,sans-Serif" font-size="10.00" fill="#000000">Line::leftOfPoint</text>
</a>
</g>
</g>
<!-- Node6&#45;&gt;Node15 -->
<g id="edge11" class="edge">
<title>Node6&#45;&gt;Node15</title>
<path fill="none" stroke="#191970" d="M248.3298,-354.4028C250.2317,-314.1087 262.9094,-156.7833 346,-72 349.8917,-68.029 354.4855,-64.7125 359.4143,-61.943"/>
<polygon fill="#191970" stroke="#191970" points="361.0833,-65.0239 368.5685,-57.5257 358.0411,-58.7195 361.0833,-65.0239"/>
</g>
<!-- Node16 -->
<g id="node13" class="node">
<title>Node16</title>
<g id="a_node13"><a xlink:href="classGridFinder.html#ace2a9cb90cc19a295d0fbe934a79b7e0" target="_top" xlink:title="Get the center pixel of the frame.">
<polygon fill="#ffffff" stroke="#000000" points="899.5,-506.5 899.5,-525.5 1002.5,-525.5 1002.5,-506.5 899.5,-506.5"/>
<text text-anchor="middle" x="951" y="-513.5" font-family="Helvetica,sans-Serif" font-size="10.00" fill="#000000">GridFinder::center</text>
</a>
</g>
</g>
<!-- Node6&#45;&gt;Node16 -->
<g id="edge12" class="edge">
<title>Node6&#45;&gt;Node16</title>
<path fill="none" stroke="#191970" d="M285.3542,-373.5994C293.6346,-376.2328 302.2481,-379.3786 310,-383 408.9554,-429.229 412.9361,-480.8459 516,-517 651.6728,-564.593 695.7289,-547.0663 839,-535 857.4858,-533.4431 877.5077,-530.4652 895.4413,-527.3208"/>
<polygon fill="#191970" stroke="#191970" points="896.2298,-530.735 905.4479,-525.5123 894.9849,-523.8466 896.2298,-530.735"/>
</g>
<!-- Node19 -->
<g id="node16" class="node">
<title>Node19</title>
<g id="a_node16"><a xlink:href="classGridFinder.html#a54369e6368334eb2924ca70ee1f1d438" target="_top" xlink:title="Follow the given line to find the line perpendicular to it. Move along the line for minDistance pixel...">
<polygon fill="#ffffff" stroke="#000000" points="346,-354.5 346,-373.5 480,-373.5 480,-354.5 346,-354.5"/>
<text text-anchor="middle" x="413" y="-361.5" font-family="Helvetica,sans-Serif" font-size="10.00" fill="#000000">GridFinder::findNextLine</text>
</a>
</g>
</g>
<!-- Node6&#45;&gt;Node19 -->
<g id="edge16" class="edge">
<title>Node6&#45;&gt;Node19</title>
<path fill="none" stroke="#191970" d="M310.3794,-364C318.6192,-364 327.1442,-364 335.5975,-364"/>
<polygon fill="#191970" stroke="#191970" points="335.8492,-367.5001 345.8491,-364 335.8491,-360.5001 335.8492,-367.5001"/>
</g>
<!-- Node33 -->
<g id="node30" class="node">
<title>Node33</title>
<g id="a_node30"><a xlink:href="Array_8hpp.html#a54bae1a9c86ad6bc491b4f10495a759f" target="_top" xlink:title=" ">
<polygon fill="#ffffff" stroke="#000000" points="934,-76.5 934,-95.5 968,-95.5 968,-76.5 934,-76.5"/>
<text text-anchor="middle" x="951" y="-83.5" font-family="Helvetica,sans-Serif" font-size="10.00" fill="#000000">abs</text>
</a>
</g>
</g>
<!-- Node6&#45;&gt;Node33 -->
<g id="edge52" class="edge">
<title>Node6&#45;&gt;Node33</title>
<path fill="none" stroke="#191970" d="M254.1852,-354.4656C280.2198,-315.2968 385.5989,-166.1888 516,-110 658.7478,-48.4911 852.6343,-70.2696 923.5661,-81.2538"/>
<polygon fill="#191970" stroke="#191970" points="923.4392,-84.7783 933.8679,-82.9097 924.5501,-77.867 923.4392,-84.7783"/>
</g>
<!-- Node34 -->
<g id="node31" class="node">
<title>Node34</title>
<g id="a_node31"><a xlink:href="classGridFinder.html#ac7202be6727634054a169022b5ce3e01" target="_top" xlink:title="Get the point of intersection of two lines.">
<polygon fill="#ffffff" stroke="#000000" points="355.5,-.5 355.5,-19.5 470.5,-19.5 470.5,-.5 355.5,-.5"/>
<text text-anchor="middle" x="413" y="-7.5" font-family="Helvetica,sans-Serif" font-size="10.00" fill="#000000">GridFinder::intersect</text>
</a>
</g>
</g>
<!-- Node6&#45;&gt;Node34 -->
<g id="edge49" class="edge">
<title>Node6&#45;&gt;Node34</title>
<path fill="none" stroke="#191970" d="M249.5536,-354.2733C257.7086,-304.3695 297.0585,-77.5385 346,-29 347.4487,-27.5633 348.9975,-26.2334 350.6269,-25.0025"/>
<polygon fill="#191970" stroke="#191970" points="352.6695,-27.8554 359.3559,-19.637 349.0038,-21.8919 352.6695,-27.8554"/>
</g>
<!-- Node9 -->
<g id="node6" class="node">
<title>Node9</title>
<g id="a_node6"><a xlink:href="classGridFinder.html#afa715db70f6b6d2a864bc0674fb5abb6" target="_top" xlink:title="Get an estimate of the first line. Searches in multiple columns, starting from the center,...">
<polygon fill="#ffffff" stroke="#000000" points="705,-583 705,-613 833,-613 833,-583 705,-583"/>
<text text-anchor="start" x="713" y="-601" font-family="Helvetica,sans-Serif" font-size="10.00" fill="#000000">GridFinder::getFirstLine</text>
<text text-anchor="middle" x="769" y="-590" font-family="Helvetica,sans-Serif" font-size="10.00" fill="#000000">Estimate</text>
</a>
</g>
</g>
<!-- Node8&#45;&gt;Node9 -->
<g id="edge5" class="edge">
<title>Node8&#45;&gt;Node9</title>
<path fill="none" stroke="#191970" d="M663.0274,-598C673.4113,-598 684.0948,-598 694.4968,-598"/>
<polygon fill="#191970" stroke="#191970" points="694.7836,-601.5001 704.7835,-598 694.7835,-594.5001 694.7836,-601.5001"/>
</g>
<!-- Node14 -->
<g id="node11" class="node">
<title>Node14</title>
<g id="a_node11"><a xlink:href="classAngle.html#a84ce9a0e2a186ada6997077fd96d6e4c" target="_top" xlink:title=" ">
<polygon fill="#ffffff" stroke="#000000" points="699,-506.5 699,-525.5 839,-525.5 839,-506.5 699,-506.5"/>
<text text-anchor="middle" x="769" y="-513.5" font-family="Helvetica,sans-Serif" font-size="10.00" fill="#000000">Angle&lt; 360 &gt;::resolution</text>
</a>
</g>
</g>
<!-- Node8&#45;&gt;Node14 -->
<g id="edge10" class="edge">
<title>Node8&#45;&gt;Node14</title>
<path fill="none" stroke="#191970" d="M622.4231,-582.9599C655.6267,-567.7917 706.4582,-544.5706 738.6956,-529.8438"/>
<polygon fill="#191970" stroke="#191970" points="740.4218,-532.9032 748.0633,-525.5644 737.5131,-526.5361 740.4218,-532.9032"/>
</g>
<!-- Node10 -->
<g id="node7" class="node">
<title>Node10</title>
<g id="a_node7"><a xlink:href="classGridFinder.html#aadfce89f171d55f954a19d700b43ff5c" target="_top" xlink:title="Get the width of the frame.">
<polygon fill="#ffffff" stroke="#000000" points="1088.5,-468.5 1088.5,-487.5 1187.5,-487.5 1187.5,-468.5 1088.5,-468.5"/>
<text text-anchor="middle" x="1138" y="-475.5" font-family="Helvetica,sans-Serif" font-size="10.00" fill="#000000">GridFinder::width</text>
</a>
</g>
</g>
<!-- Node9&#45;&gt;Node10 -->
<g id="edge6" class="edge">
<title>Node9&#45;&gt;Node10</title>
<path fill="none" stroke="#191970" d="M833.0675,-583.1837C903.4143,-566.7838 1008.8554,-541.7666 1027,-535 1058.0808,-523.4092 1091.6932,-505.2911 1113.6887,-492.6011"/>
<polygon fill="#191970" stroke="#191970" points="1115.4966,-495.5985 1122.3629,-487.5297 1111.9635,-489.5555 1115.4966,-495.5985"/>
</g>
<!-- Node12 -->
<g id="node9" class="node">
<title>Node12</title>
<g id="a_node9"><a xlink:href="classCenterPointOutLineIterator.html#a6f4fda8865e7d1def0a8614622f0f6ef" target="_top" xlink:title=" ">
<polygon fill="#ffffff" stroke="#000000" points="877.5,-632 877.5,-662 1024.5,-662 1024.5,-632 877.5,-632"/>
<text text-anchor="start" x="885.5" y="-650" font-family="Helvetica,sans-Serif" font-size="10.00" fill="#000000">CenterPointOutLineIterator</text>
<text text-anchor="middle" x="951" y="-639" font-family="Helvetica,sans-Serif" font-size="10.00" fill="#000000">::hasNext</text>
</a>
</g>
</g>
<!-- Node9&#45;&gt;Node12 -->
<g id="edge8" class="edge">
<title>Node9&#45;&gt;Node12</title>
<path fill="none" stroke="#191970" d="M825.0911,-613.1014C844.1225,-618.2253 865.555,-623.9956 885.2691,-629.3032"/>
<polygon fill="#191970" stroke="#191970" points="884.5281,-632.7283 895.0941,-631.9484 886.3479,-625.969 884.5281,-632.7283"/>
</g>
<!-- Node13 -->
<g id="node10" class="node">
<title>Node13</title>
<g id="a_node10"><a xlink:href="classCenterPointOutLineIterator.html#a89580e1393d0dfc3ff12c7a5af2a4374" target="_top" xlink:title=" ">
<polygon fill="#ffffff" stroke="#000000" points="877.5,-583 877.5,-613 1024.5,-613 1024.5,-583 877.5,-583"/>
<text text-anchor="start" x="885.5" y="-601" font-family="Helvetica,sans-Serif" font-size="10.00" fill="#000000">CenterPointOutLineIterator</text>
<text text-anchor="middle" x="951" y="-590" font-family="Helvetica,sans-Serif" font-size="10.00" fill="#000000">::next</text>
</a>
</g>
</g>
<!-- Node9&#45;&gt;Node13 -->
<g id="edge9" class="edge">
<title>Node9&#45;&gt;Node13</title>
<path fill="none" stroke="#191970" d="M833.1664,-598C844.2481,-598 855.9128,-598 867.4183,-598"/>
<polygon fill="#191970" stroke="#191970" points="867.4696,-601.5001 877.4696,-598 867.4695,-594.5001 867.4696,-601.5001"/>
</g>
<!-- Node11 -->
<g id="node8" class="node">
<title>Node11</title>
<g id="a_node8"><a xlink:href="classMask.html#a4124a2daa1f7501d4fd80775b6217679" target="_top" xlink:title="Get the width of the mask in pixels.">
<polygon fill="#ffffff" stroke="#000000" points="1281,-468.5 1281,-487.5 1356,-487.5 1356,-468.5 1281,-468.5"/>
<text text-anchor="middle" x="1318.5" y="-475.5" font-family="Helvetica,sans-Serif" font-size="10.00" fill="#000000">Mask::width</text>
</a>
</g>
</g>
<!-- Node10&#45;&gt;Node11 -->
<g id="edge7" class="edge">
<title>Node10&#45;&gt;Node11</title>
<path fill="none" stroke="#191970" d="M1187.8002,-478C1213.6634,-478 1245.1146,-478 1270.6829,-478"/>
<polygon fill="#191970" stroke="#191970" points="1270.8862,-481.5001 1280.8861,-478 1270.8861,-474.5001 1270.8862,-481.5001"/>
</g>
<!-- Node16&#45;&gt;Node10 -->
<g id="edge13" class="edge">
<title>Node16&#45;&gt;Node10</title>
<path fill="none" stroke="#191970" d="M998.188,-506.411C1023.4205,-501.2835 1054.673,-494.9328 1081.2268,-489.5368"/>
<polygon fill="#191970" stroke="#191970" points="1082.0486,-492.9414 1091.1513,-487.5201 1080.6546,-486.0816 1082.0486,-492.9414"/>
</g>
<!-- Node17 -->
<g id="node14" class="node">
<title>Node17</title>
<g id="a_node14"><a xlink:href="classGridFinder.html#affd9ae441c8d86b1856a9ef31190e9ab" target="_top" xlink:title="Get the height of the frame.">
<polygon fill="#ffffff" stroke="#000000" points="1086.5,-430.5 1086.5,-449.5 1189.5,-449.5 1189.5,-430.5 1086.5,-430.5"/>
<text text-anchor="middle" x="1138" y="-437.5" font-family="Helvetica,sans-Serif" font-size="10.00" fill="#000000">GridFinder::height</text>
</a>
</g>
</g>
<!-- Node16&#45;&gt;Node17 -->
<g id="edge14" class="edge">
<title>Node16&#45;&gt;Node17</title>
<path fill="none" stroke="#191970" d="M967.1738,-506.3121C988.493,-493.8871 1027.4632,-472.3534 1063,-459 1069.505,-456.5557 1076.4437,-454.3233 1083.3753,-452.3171"/>
<polygon fill="#191970" stroke="#191970" points="1084.7596,-455.5665 1093.4744,-449.5413 1082.9043,-448.8168 1084.7596,-455.5665"/>
</g>
<!-- Node18 -->
<g id="node15" class="node">
<title>Node18</title>
<g id="a_node15"><a xlink:href="classMask.html#af845b7d3220b707c8b4c48bf87d045bb" target="_top" xlink:title="Get the height of the mask in pixels.">
<polygon fill="#ffffff" stroke="#000000" points="1279,-430.5 1279,-449.5 1358,-449.5 1358,-430.5 1279,-430.5"/>
<text text-anchor="middle" x="1318.5" y="-437.5" font-family="Helvetica,sans-Serif" font-size="10.00" fill="#000000">Mask::height</text>
</a>
</g>
</g>
<!-- Node17&#45;&gt;Node18 -->
<g id="edge15" class="edge">
<title>Node17&#45;&gt;Node18</title>
<path fill="none" stroke="#191970" d="M1189.7241,-440C1214.5176,-440 1244.0868,-440 1268.6343,-440"/>
<polygon fill="#191970" stroke="#191970" points="1268.8188,-443.5001 1278.8187,-440 1268.8187,-436.5001 1268.8188,-443.5001"/>
</g>
<!-- Node19&#45;&gt;Node10 -->
<g id="edge26" class="edge">
<title>Node19&#45;&gt;Node10</title>
<path fill="none" stroke="#191970" d="M416.9103,-373.8271C427.8774,-399.852 461.7209,-470.3828 516,-497 574.66,-525.7655 597.6797,-498.3059 663,-497 812.5696,-494.0098 988.4726,-485.7284 1078.4304,-481.1479"/>
<polygon fill="#191970" stroke="#191970" points="1078.6339,-484.6422 1088.4418,-480.6354 1078.2759,-477.6514 1078.6339,-484.6422"/>
</g>
<!-- Node19&#45;&gt;Node17 -->
<g id="edge27" class="edge">
<title>Node19&#45;&gt;Node17</title>
<path fill="none" stroke="#191970" d="M433.3832,-373.547C453.7924,-382.616 486.3428,-395.7647 516,-402 717.4852,-444.3617 963.1433,-444.7406 1075.9509,-442.1458"/>
<polygon fill="#191970" stroke="#191970" points="1076.2114,-445.6405 1086.1222,-441.8952 1076.039,-438.6426 1076.2114,-445.6405"/>
</g>
<!-- Node20 -->
<g id="node17" class="node">
<title>Node20</title>
<g id="a_node17"><a xlink:href="classAngle.html#aa9c7edb3027272ad1e45098383f0a94d" target="_top" xlink:title=" ">
<polygon fill="#ffffff" stroke="#000000" points="531,-468.5 531,-487.5 648,-487.5 648,-468.5 531,-468.5"/>
<text text-anchor="middle" x="589.5" y="-475.5" font-family="Helvetica,sans-Serif" font-size="10.00" fill="#000000">Angle::perpendicular</text>
</a>
</g>
</g>
<!-- Node19&#45;&gt;Node20 -->
<g id="edge17" class="edge">
<title>Node19&#45;&gt;Node20</title>
<path fill="none" stroke="#191970" d="M421.4044,-373.5542C437.8467,-391.6991 476.156,-431.3517 516,-454 523.7158,-458.3859 532.3488,-462.1071 540.9105,-465.2145"/>
<polygon fill="#191970" stroke="#191970" points="539.8997,-468.5675 550.4941,-468.4648 542.148,-461.9384 539.8997,-468.5675"/>
</g>
<!-- Node21 -->
<g id="node18" class="node">
<title>Node21</title>
<g id="a_node18"><a xlink:href="classGridFinder.html#af8bdc28d95e295618c2f345f2d7eb758" target="_top" xlink:title="Move a pixel in a given direction for a given distance.">
<polygon fill="#ffffff" stroke="#000000" points="901,-392.5 901,-411.5 1001,-411.5 1001,-392.5 901,-392.5"/>
<text text-anchor="middle" x="951" y="-399.5" font-family="Helvetica,sans-Serif" font-size="10.00" fill="#000000">GridFinder::move</text>
</a>
</g>
</g>
<!-- Node19&#45;&gt;Node21 -->
<g id="edge18" class="edge">
<title>Node19&#45;&gt;Node21</title>
<path fill="none" stroke="#191970" d="M457.1596,-373.537C475.3042,-377.0917 496.5773,-380.7952 516,-383 649.2105,-398.1216 806.627,-401.4103 890.776,-402.0037"/>
<polygon fill="#191970" stroke="#191970" points="890.8951,-405.5044 900.9159,-402.0645 890.9371,-398.5045 890.8951,-405.5044"/>
</g>
<!-- Node22 -->
<g id="node19" class="node">
<title>Node22</title>
<g id="a_node19"><a xlink:href="classBresenhamLine.html#aba0822ee20811d67cd9539ccbe1cd346" target="_top" xlink:title=" ">
<polygon fill="#ffffff" stroke="#000000" points="1249,-310.5 1249,-329.5 1388,-329.5 1388,-310.5 1249,-310.5"/>
<text text-anchor="middle" x="1318.5" y="-317.5" font-family="Helvetica,sans-Serif" font-size="10.00" fill="#000000">BresenhamLine::hasNext</text>
</a>
</g>
</g>
<!-- Node19&#45;&gt;Node22 -->
<g id="edge29" class="edge">
<title>Node19&#45;&gt;Node22</title>
<path fill="none" stroke="#191970" d="M417.3357,-354.4596C429.3591,-329.0124 465.5914,-258.8225 516,-220 611.284,-146.6164 648.7328,-124 769,-124 769,-124 769,-124 951,-124 1068.7275,-124 1113.4711,-100.1212 1213,-163 1265.6085,-196.2362 1298.1386,-266.2898 1311.4902,-300.4459"/>
<polygon fill="#191970" stroke="#191970" points="1308.3558,-302.0545 1315.1524,-310.182 1314.9077,-299.59 1308.3558,-302.0545"/>
</g>
<!-- Node25 -->
<g id="node22" class="node">
<title>Node25</title>
<g id="a_node22"><a xlink:href="classBresenhamLine.html#a10d505e30945f42a5cd0270c315b104f" target="_top" xlink:title=" ">
<polygon fill="#ffffff" stroke="#000000" points="1078,-354.5 1078,-373.5 1198,-373.5 1198,-354.5 1078,-354.5"/>
<text text-anchor="middle" x="1138" y="-361.5" font-family="Helvetica,sans-Serif" font-size="10.00" fill="#000000">BresenhamLine::next</text>
</a>
</g>
</g>
<!-- Node19&#45;&gt;Node25 -->
<g id="edge28" class="edge">
<title>Node19&#45;&gt;Node25</title>
<path fill="none" stroke="#191970" d="M425.4258,-354.3439C443.9296,-340.6415 480.3811,-316.1984 516,-307 671.3503,-266.8815 715.7998,-325.0377 875,-345 940.076,-353.1599 1014.6837,-358.1373 1067.7734,-360.9387"/>
<polygon fill="#191970" stroke="#191970" points="1067.5947,-364.434 1077.7617,-361.4535 1067.9551,-357.4433 1067.5947,-364.434"/>
</g>
<!-- Node26 -->
<g id="node23" class="node">
<title>Node26</title>
<g id="a_node23"><a xlink:href="classGridFinder.html#afbed8951f70923626b73abdbe05236da" target="_top" xlink:title="Get the value of the given pixel.">
<polygon fill="#ffffff" stroke="#000000" points="1094,-172.5 1094,-191.5 1182,-191.5 1182,-172.5 1094,-172.5"/>
<text text-anchor="middle" x="1138" y="-179.5" font-family="Helvetica,sans-Serif" font-size="10.00" fill="#000000">GridFinder::get</text>
</a>
</g>
</g>
<!-- Node19&#45;&gt;Node26 -->
<g id="edge30" class="edge">
<title>Node19&#45;&gt;Node26</title>
<path fill="none" stroke="#191970" d="M423.6257,-354.3475C441.4734,-338.5971 479.1477,-307.2951 516,-289 665.2405,-214.9105 710.1561,-205.2585 875,-181 946.5718,-170.4675 1030.2902,-173.3551 1083.7058,-177.0858"/>
<polygon fill="#191970" stroke="#191970" points="1083.7429,-180.5978 1093.9723,-177.8394 1084.2555,-173.6166 1083.7429,-180.5978"/>
</g>
<!-- Node27 -->
<g id="node24" class="node">
<title>Node27</title>
<g id="a_node24"><a xlink:href="structPixel.html#ac3b82b3e3cd3b812dc1a0bccb474511f" target="_top" xlink:title=" ">
<polygon fill="#ffffff" stroke="#000000" points="546.5,-316.5 546.5,-335.5 632.5,-335.5 632.5,-316.5 546.5,-316.5"/>
<text text-anchor="middle" x="589.5" y="-323.5" font-family="Helvetica,sans-Serif" font-size="10.00" fill="#000000">Pixel::average</text>
</a>
</g>
</g>
<!-- Node19&#45;&gt;Node27 -->
<g id="edge32" class="edge">
<title>Node19&#45;&gt;Node27</title>
<path fill="none" stroke="#191970" d="M457.5384,-354.411C481.6098,-349.2285 511.4859,-342.7962 536.7203,-337.3633"/>
<polygon fill="#191970" stroke="#191970" points="537.4603,-340.7843 546.4996,-335.2579 535.9869,-333.9411 537.4603,-340.7843"/>
</g>
<!-- Node28 -->
<g id="node25" class="node">
<title>Node28</title>
<g id="a_node25"><a xlink:href="classGridFinder.html#ae12ca7921b02b37417d87fc737f0134d" target="_top" xlink:title="Check if there could be a valid line going through the given point, and if so, find and return the ac...">
<polygon fill="#ffffff" stroke="#000000" points="529,-354.5 529,-373.5 650,-373.5 650,-354.5 529,-354.5"/>
<text text-anchor="middle" x="589.5" y="-361.5" font-family="Helvetica,sans-Serif" font-size="10.00" fill="#000000">GridFinder::checkLine</text>
</a>
</g>
</g>
<!-- Node19&#45;&gt;Node28 -->
<g id="edge33" class="edge">
<title>Node19&#45;&gt;Node28</title>
<path fill="none" stroke="#191970" d="M480.2306,-364C492.8373,-364 506.0516,-364 518.7611,-364"/>
<polygon fill="#191970" stroke="#191970" points="518.8244,-367.5001 528.8243,-364 518.8243,-360.5001 518.8244,-367.5001"/>
</g>
<!-- Node21&#45;&gt;Node10 -->
<g id="edge19" class="edge">
<title>Node21&#45;&gt;Node10</title>
<path fill="none" stroke="#191970" d="M967.1738,-411.6879C988.493,-424.1129 1027.4632,-445.6466 1063,-459 1069.505,-461.4443 1076.4437,-463.6767 1083.3753,-465.6829"/>
<polygon fill="#191970" stroke="#191970" points="1082.9043,-469.1832 1093.4744,-468.4587 1084.7596,-462.4335 1082.9043,-469.1832"/>
</g>
<!-- Node21&#45;&gt;Node17 -->
<g id="edge20" class="edge">
<title>Node21&#45;&gt;Node17</title>
<path fill="none" stroke="#191970" d="M998.188,-411.589C1023.4205,-416.7165 1054.673,-423.0672 1081.2268,-428.4632"/>
<polygon fill="#191970" stroke="#191970" points="1080.6546,-431.9184 1091.1513,-430.4799 1082.0486,-425.0586 1080.6546,-431.9184"/>
</g>
<!-- Node21&#45;&gt;Node22 -->
<g id="edge21" class="edge">
<title>Node21&#45;&gt;Node22</title>
<path fill="none" stroke="#191970" d="M1001.0451,-405.1309C1054.7376,-406.9499 1141.8844,-405.4169 1213,-383 1245.434,-372.7762 1278.3826,-350.8568 1298.6287,-335.7716"/>
<polygon fill="#191970" stroke="#191970" points="1300.912,-338.4319 1306.7395,-329.5837 1296.6661,-332.8667 1300.912,-338.4319"/>
</g>
<!-- Node24 -->
<g id="node21" class="node">
<title>Node24</title>
<g id="a_node21"><a xlink:href="classBresenhamLine.html#ad93a4adf0535a9b4e649bce5ade1bc5e" target="_top" xlink:title=" ">
<polygon fill="#ffffff" stroke="#000000" points="1063,-305 1063,-335 1213,-335 1213,-305 1063,-305"/>
<text text-anchor="start" x="1071" y="-323" font-family="Helvetica,sans-Serif" font-size="10.00" fill="#000000">BresenhamLine::getCurrent</text>
<text text-anchor="middle" x="1138" y="-312" font-family="Helvetica,sans-Serif" font-size="10.00" fill="#000000">Length</text>
</a>
</g>
</g>
<!-- Node21&#45;&gt;Node24 -->
<g id="edge23" class="edge">
<title>Node21&#45;&gt;Node24</title>
<path fill="none" stroke="#191970" d="M968.0806,-392.2948C989.7229,-380.2359 1028.3813,-359.4841 1063,-345 1068.3535,-342.7602 1073.9845,-340.5782 1079.6552,-338.4962"/>
<polygon fill="#191970" stroke="#191970" points="1080.9513,-341.75 1089.1944,-335.094 1078.5997,-335.1568 1080.9513,-341.75"/>
</g>
<!-- Node21&#45;&gt;Node25 -->
<g id="edge24" class="edge">
<title>Node21&#45;&gt;Node25</title>
<path fill="none" stroke="#191970" d="M998.188,-392.411C1023.4205,-387.2835 1054.673,-380.9328 1081.2268,-375.5368"/>
<polygon fill="#191970" stroke="#191970" points="1082.0486,-378.9414 1091.1513,-373.5201 1080.6546,-372.0816 1082.0486,-378.9414"/>
</g>
<!-- Node23 -->
<g id="node20" class="node">
<title>Node23</title>
<g id="a_node20"><a xlink:href="structPixel.html#a816d743559e2ac5b35c9c79ac517ad0a" target="_top" xlink:title=" ">
<polygon fill="#ffffff" stroke="#000000" points="1424,-310.5 1424,-329.5 1510,-329.5 1510,-310.5 1424,-310.5"/>
<text text-anchor="middle" x="1467" y="-317.5" font-family="Helvetica,sans-Serif" font-size="10.00" fill="#000000">Pixel::inRange</text>
</a>
</g>
</g>
<!-- Node22&#45;&gt;Node23 -->
<g id="edge22" class="edge">
<title>Node22&#45;&gt;Node23</title>
<path fill="none" stroke="#191970" d="M1388.4016,-320C1396.8647,-320 1405.4033,-320 1413.5758,-320"/>
<polygon fill="#191970" stroke="#191970" points="1413.6984,-323.5001 1423.6984,-320 1413.6984,-316.5001 1413.6984,-323.5001"/>
</g>
<!-- Node25&#45;&gt;Node22 -->
<g id="edge25" class="edge">
<title>Node25&#45;&gt;Node22</title>
<path fill="none" stroke="#191970" d="M1177.1658,-354.4527C1204.2485,-347.8508 1240.4825,-339.0181 1269.4818,-331.949"/>
<polygon fill="#191970" stroke="#191970" points="1270.5241,-335.2975 1279.4106,-329.5287 1268.8662,-328.4967 1270.5241,-335.2975"/>
</g>
<!-- Node26&#45;&gt;Node26 -->
<g id="edge31" class="edge">
<title>Node26&#45;&gt;Node26</title>
<path fill="none" stroke="#191970" d="M1110.2568,-191.7571C1096.7601,-200.5653 1106.0078,-210 1138,-210 1159.9946,-210 1171.239,-205.5406 1171.733,-199.8913"/>
<polygon fill="#191970" stroke="#191970" points="1174.4911,-197.7341 1165.7432,-191.7571 1168.8544,-201.8848 1174.4911,-197.7341"/>
</g>
<!-- Node28&#45;&gt;Node14 -->
<g id="edge48" class="edge">
<title>Node28&#45;&gt;Node14</title>
<path fill="none" stroke="#191970" d="M600.7285,-373.5083C630.6977,-398.8861 712.8244,-468.4307 750.124,-500.0158"/>
<polygon fill="#191970" stroke="#191970" points="747.8824,-502.704 757.7757,-506.4953 752.4061,-497.362 747.8824,-502.704"/>
</g>
<!-- Node29 -->
<g id="node26" class="node">
<title>Node29</title>
<g id="a_node26"><a xlink:href="classGridFinder.html#abcd46f31e256080b2d5d2aee03c0e258" target="_top" xlink:title="Find the middle of a line.">
<polygon fill="#ffffff" stroke="#000000" points="709,-266.5 709,-285.5 829,-285.5 829,-266.5 709,-266.5"/>
<text text-anchor="middle" x="769" y="-273.5" font-family="Helvetica,sans-Serif" font-size="10.00" fill="#000000">GridFinder::getMiddle</text>
</a>
</g>
</g>
<!-- Node28&#45;&gt;Node29 -->
<g id="edge34" class="edge">
<title>Node28&#45;&gt;Node29</title>
<path fill="none" stroke="#191970" d="M635.759,-354.4848C644.9696,-351.9146 654.4366,-348.773 663,-345 695.176,-330.8235 728.5715,-307.3863 749.0726,-291.8195"/>
<polygon fill="#191970" stroke="#191970" points="751.2499,-294.5604 757.0282,-285.6799 746.9732,-289.0187 751.2499,-294.5604"/>
</g>
<!-- Node29&#45;&gt;Node21 -->
<g id="edge47" class="edge">
<title>Node29&#45;&gt;Node21</title>
<path fill="none" stroke="#191970" d="M782.979,-285.6778C814.4194,-307.4442 890.9158,-360.4032 928.8783,-386.685"/>
<polygon fill="#191970" stroke="#191970" points="927.0083,-389.6472 937.2225,-392.4617 930.9928,-383.8919 927.0083,-389.6472"/>
</g>
<!-- Node29&#45;&gt;Node26 -->
<g id="edge35" class="edge">
<title>Node29&#45;&gt;Node26</title>
<path fill="none" stroke="#191970" d="M810.7671,-266.4535C830.2737,-262.018 853.8158,-256.6977 875,-252 942.4898,-237.0338 960.3342,-237.2903 1027,-219 1052.4815,-212.009 1080.7261,-202.5697 1102.3471,-194.9751"/>
<polygon fill="#191970" stroke="#191970" points="1103.5252,-198.2709 1111.7812,-191.6309 1101.1864,-191.6732 1103.5252,-198.2709"/>
</g>
<!-- Node30 -->
<g id="node27" class="node">
<title>Node30</title>
<g id="a_node27"><a xlink:href="structCosSin.html#a4c63ac2c483b5caa4012f8c27d58dd96" target="_top" xlink:title=" ">
<polygon fill="#ffffff" stroke="#000000" points="902,-190.5 902,-209.5 1000,-209.5 1000,-190.5 902,-190.5"/>
<text text-anchor="middle" x="951" y="-197.5" font-family="Helvetica,sans-Serif" font-size="10.00" fill="#000000">CosSin::opposite</text>
</a>
</g>
</g>
<!-- Node29&#45;&gt;Node30 -->
<g id="edge36" class="edge">
<title>Node29&#45;&gt;Node30</title>
<path fill="none" stroke="#191970" d="M786.6328,-266.3298C807.372,-255.1975 843.0326,-236.8044 875,-224 885.3259,-219.864 896.6611,-215.959 907.3535,-212.5476"/>
<polygon fill="#191970" stroke="#191970" points="908.4376,-215.8759 916.9449,-209.5611 906.3565,-209.1924 908.4376,-215.8759"/>
</g>
<!-- Node31 -->
<g id="node28" class="node">
<title>Node31</title>
<g id="a_node28"><a xlink:href="classGridFinder.html#ab5c436911deb269a22a8d5525271fa4e" target="_top" xlink:title="Get the width of the line at a given point.">
<polygon fill="#ffffff" stroke="#000000" points="875,-305 875,-335 1027,-335 1027,-305 875,-305"/>
<text text-anchor="start" x="883" y="-323" font-family="Helvetica,sans-Serif" font-size="10.00" fill="#000000">GridFinder::getWidthAtPoint</text>
<text text-anchor="middle" x="951" y="-312" font-family="Helvetica,sans-Serif" font-size="10.00" fill="#000000">OnLine</text>
</a>
</g>
</g>
<!-- Node29&#45;&gt;Node31 -->
<g id="edge37" class="edge">
<title>Node29&#45;&gt;Node31</title>
<path fill="none" stroke="#191970" d="M808.4913,-285.5473C829.0738,-290.5233 854.8984,-296.7666 878.8904,-302.5669"/>
<polygon fill="#191970" stroke="#191970" points="878.1417,-305.9867 888.6842,-304.9346 879.7867,-299.1827 878.1417,-305.9867"/>
</g>
<!-- Node32 -->
<g id="node29" class="node">
<title>Node32</title>
<g id="a_node29"><a xlink:href="structCosSin.html#adb1d000cc58879b65a63fac849408bfe" target="_top" xlink:title=" ">
<polygon fill="#ffffff" stroke="#000000" points="1077,-228.5 1077,-247.5 1199,-247.5 1199,-228.5 1077,-228.5"/>
<text text-anchor="middle" x="1138" y="-235.5" font-family="Helvetica,sans-Serif" font-size="10.00" fill="#000000">CosSin::perpendicular</text>
</a>
</g>
</g>
<!-- Node29&#45;&gt;Node32 -->
<g id="edge46" class="edge">
<title>Node29&#45;&gt;Node32</title>
<path fill="none" stroke="#191970" d="M829.0077,-270.9774C881.3332,-266.4642 959.2529,-259.4214 1027,-252 1039.9243,-250.5842 1053.6788,-248.9516 1066.9457,-247.3124"/>
<polygon fill="#191970" stroke="#191970" points="1067.4845,-250.7725 1076.9742,-246.0611 1066.6177,-243.8263 1067.4845,-250.7725"/>
</g>
<!-- Node29&#45;&gt;Node33 -->
<g id="edge45" class="edge">
<title>Node29&#45;&gt;Node33</title>
<path fill="none" stroke="#191970" d="M778.2756,-266.3167C807.3554,-235.9587 897.0196,-142.3531 934.3857,-103.3446"/>
<polygon fill="#191970" stroke="#191970" points="937.1349,-105.5343 941.5248,-95.8917 932.0799,-100.6921 937.1349,-105.5343"/>
</g>
<!-- Node31&#45;&gt;Node10 -->
<g id="edge38" class="edge">
<title>Node31&#45;&gt;Node10</title>
<path fill="none" stroke="#191970" d="M974.2554,-335.1652C990.6246,-346.7438 1012.1742,-363.9174 1027,-383 1049.9308,-412.5147 1034.133,-435.259 1063,-459 1067.6522,-462.8261 1072.9759,-465.8948 1078.5931,-468.354"/>
<polygon fill="#191970" stroke="#191970" points="1077.6639,-471.7424 1088.2568,-471.9434 1080.1013,-465.1805 1077.6639,-471.7424"/>
</g>
<!-- Node31&#45;&gt;Node17 -->
<g id="edge39" class="edge">
<title>Node31&#45;&gt;Node17</title>
<path fill="none" stroke="#191970" d="M974.6837,-335.1981C1010.5902,-358.2397 1078.412,-401.7617 1114.3177,-424.8028"/>
<polygon fill="#191970" stroke="#191970" points="1112.8269,-428.0048 1123.1334,-430.4599 1116.6075,-422.1135 1112.8269,-428.0048"/>
</g>
<!-- Node31&#45;&gt;Node22 -->
<g id="edge41" class="edge">
<title>Node31&#45;&gt;Node22</title>
<path fill="none" stroke="#191970" d="M1009.912,-304.94C1026.9253,-301.2557 1045.5978,-297.8436 1063,-296 1129.2957,-288.9766 1146.7498,-288.5595 1213,-296 1233.7279,-298.3279 1256.3236,-303.1519 1275.2668,-307.8686"/>
<polygon fill="#191970" stroke="#191970" points="1274.5387,-311.295 1285.0945,-310.3861 1276.2758,-304.5139 1274.5387,-311.295"/>
</g>
<!-- Node31&#45;&gt;Node24 -->
<g id="edge43" class="edge">
<title>Node31&#45;&gt;Node24</title>
<path fill="none" stroke="#191970" d="M1027.0601,-320C1035.5634,-320 1044.2662,-320 1052.8736,-320"/>
<polygon fill="#191970" stroke="#191970" points="1052.9165,-323.5001 1062.9165,-320 1052.9165,-316.5001 1052.9165,-323.5001"/>
</g>
<!-- Node31&#45;&gt;Node25 -->
<g id="edge42" class="edge">
<title>Node31&#45;&gt;Node25</title>
<path fill="none" stroke="#191970" d="M1014.8318,-335.0192C1038.5959,-340.6108 1065.2125,-346.8735 1087.6059,-352.1426"/>
<polygon fill="#191970" stroke="#191970" points="1087.0364,-355.6041 1097.5722,-354.4876 1088.6397,-348.7902 1087.0364,-355.6041"/>
</g>
<!-- Node31&#45;&gt;Node26 -->
<g id="edge44" class="edge">
<title>Node31&#45;&gt;Node26</title>
<path fill="none" stroke="#191970" d="M967.9562,-304.9337C983.3928,-291.1926 1006.7904,-270.3026 1027,-252 1043.0881,-237.43 1045.0875,-231.2578 1063,-219 1076.0165,-210.0926 1091.4913,-202.0822 1104.9941,-195.8115"/>
<polygon fill="#191970" stroke="#191970" points="1106.7362,-198.8655 1114.4144,-191.5651 1103.8594,-192.4839 1106.7362,-198.8655"/>
</g>
<!-- Node31&#45;&gt;Node32 -->
<g id="edge40" class="edge">
<title>Node31&#45;&gt;Node32</title>
<path fill="none" stroke="#191970" d="M995.3967,-304.9326C1006.0253,-300.6626 1017.1434,-295.6239 1027,-290 1044.6056,-279.9547 1045.0714,-271.4566 1063,-262 1071.2586,-257.6439 1080.4487,-253.9039 1089.4856,-250.7613"/>
<polygon fill="#191970" stroke="#191970" points="1090.7669,-254.0247 1099.18,-247.5849 1088.5872,-247.3726 1090.7669,-254.0247"/>
</g>
<!-- Node35 -->
<g id="node32" class="node">
<title>Node35</title>
<g id="a_node32"><a xlink:href="classLine.html#af14c90f6f7c18003e35ca3a08be32368" target="_top" xlink:title=" ">
<polygon fill="#ffffff" stroke="#000000" points="546.5,-.5 546.5,-19.5 632.5,-19.5 632.5,-.5 546.5,-.5"/>
<text text-anchor="middle" x="589.5" y="-7.5" font-family="Helvetica,sans-Serif" font-size="10.00" fill="#000000">Line::intersect</text>
</a>
</g>
</g>
<!-- Node34&#45;&gt;Node35 -->
<g id="edge50" class="edge">
<title>Node34&#45;&gt;Node35</title>
<path fill="none" stroke="#191970" d="M470.7927,-10C491.8642,-10 515.5762,-10 536.236,-10"/>
<polygon fill="#191970" stroke="#191970" points="536.4185,-13.5001 546.4185,-10 536.4185,-6.5001 536.4185,-13.5001"/>
</g>
<!-- Node36 -->
<g id="node33" class="node">
<title>Node36</title>
<g id="a_node33"><a xlink:href="Matrix_8hpp.html#aaac3f553f87e00956b4736107cf40289" target="_top" xlink:title="Calculates u × v, where u, v ⊆ ℝ³.">
<polygon fill="#ffffff" stroke="#000000" points="748,-.5 748,-19.5 790,-19.5 790,-.5 748,-.5"/>
<text text-anchor="middle" x="769" y="-7.5" font-family="Helvetica,sans-Serif" font-size="10.00" fill="#000000">cross</text>
</a>
</g>
</g>
<!-- Node35&#45;&gt;Node36 -->
<g id="edge51" class="edge">
<title>Node35&#45;&gt;Node36</title>
<path fill="none" stroke="#191970" d="M632.9519,-10C665.1531,-10 708.3038,-10 737.2983,-10"/>
<polygon fill="#191970" stroke="#191970" points="737.6653,-13.5001 747.6653,-10 737.6653,-6.5001 737.6653,-13.5001"/>
</g>
</g>
</svg>
