<?xml version="1.0" encoding="UTF-8" standalone="no"?>
<!DOCTYPE svg PUBLIC "-//W3C//DTD SVG 1.1//EN"
 "http://www.w3.org/Graphics/SVG/1.1/DTD/svg11.dtd">
<!-- Generated by graphviz version 2.40.1 (20161225.0304)
 -->
<!-- Title: Line::intersect Pages: 1 -->
<svg width="591pt" height="28pt"
 viewBox="0.00 0.00 591.00 28.00" xmlns="http://www.w3.org/2000/svg" xmlns:xlink="http://www.w3.org/1999/xlink">
<g id="graph0" class="graph" transform="scale(1 1) rotate(0) translate(4 24)">
<title>Line::intersect</title>
<polygon fill="#ffffff" stroke="transparent" points="-4,4 -4,-24 587,-24 587,4 -4,4"/>
<!-- Node9 -->
<g id="node1" class="node">
<title>Node9</title>
<g id="a_node1"><a xlink:title=" ">
<polygon fill="#bfbfbf" stroke="#000000" points="497,-.5 497,-19.5 583,-19.5 583,-.5 497,-.5"/>
<text text-anchor="middle" x="540" y="-7.5" font-family="Helvetica,sans-Serif" font-size="10.00" fill="#000000">Line::intersect</text>
</a>
</g>
</g>
<!-- Node10 -->
<g id="node2" class="node">
<title>Node10</title>
<g id="a_node2"><a xlink:href="classGridFinder.html#ac7202be6727634054a169022b5ce3e01" target="_top" xlink:title="Get the point of intersection of two lines.">
<polygon fill="#ffffff" stroke="#000000" points="346,-.5 346,-19.5 461,-19.5 461,-.5 346,-.5"/>
<text text-anchor="middle" x="403.5" y="-7.5" font-family="Helvetica,sans-Serif" font-size="10.00" fill="#000000">GridFinder::intersect</text>
</a>
</g>
</g>
<!-- Node9&#45;&gt;Node10 -->
<g id="edge1" class="edge">
<title>Node9&#45;&gt;Node10</title>
<path fill="none" stroke="#191970" d="M486.5535,-10C478.2969,-10 469.7367,-10 461.3883,-10"/>
<polygon fill="#191970" stroke="#191970" points="486.8106,-13.5001 496.8105,-10 486.8105,-6.5001 486.8106,-13.5001"/>
</g>
<!-- Node11 -->
<g id="node3" class="node">
<title>Node11</title>
<g id="a_node3"><a xlink:href="classGridFinder.html#a8940ca681fac78274043cf5f1f1f5761" target="_top" xlink:title="This is the main function: it looks for a complete square of the grid, as close to the center of the ...">
<polygon fill="#ffffff" stroke="#000000" points="186,-.5 186,-19.5 310,-19.5 310,-.5 186,-.5"/>
<text text-anchor="middle" x="248" y="-7.5" font-family="Helvetica,sans-Serif" font-size="10.00" fill="#000000">GridFinder::findSquare</text>
</a>
</g>
</g>
<!-- Node10&#45;&gt;Node11 -->
<g id="edge2" class="edge">
<title>Node10&#45;&gt;Node11</title>
<path fill="none" stroke="#191970" d="M335.433,-10C327.0152,-10 318.4436,-10 310.1211,-10"/>
<polygon fill="#191970" stroke="#191970" points="335.5976,-13.5001 345.5975,-10 335.5975,-6.5001 335.5976,-13.5001"/>
</g>
<!-- Node12 -->
<g id="node4" class="node">
<title>Node12</title>
<g id="a_node4"><a xlink:href="classLocationFinder.html#a398bb42565e1e2a499471765f569bc40" target="_top" xlink:title=" ">
<polygon fill="#ffffff" stroke="#000000" points="0,-.5 0,-19.5 150,-19.5 150,-.5 0,-.5"/>
<text text-anchor="middle" x="75" y="-7.5" font-family="Helvetica,sans-Serif" font-size="10.00" fill="#000000">LocationFinder::getLocation</text>
</a>
</g>
</g>
<!-- Node11&#45;&gt;Node12 -->
<g id="edge3" class="edge">
<title>Node11&#45;&gt;Node12</title>
<path fill="none" stroke="#191970" d="M175.4224,-10C167.0344,-10 158.467,-10 150.047,-10"/>
<polygon fill="#191970" stroke="#191970" points="175.5431,-13.5001 185.543,-10 175.543,-6.5001 175.5431,-13.5001"/>
</g>
</g>
</svg>
