<?xml version="1.0" encoding="UTF-8" standalone="no"?>
<!DOCTYPE svg PUBLIC "-//W3C//DTD SVG 1.1//EN"
 "http://www.w3.org/Graphics/SVG/1.1/DTD/svg11.dtd">
<!-- Generated by graphviz version 2.40.1 (20161225.0304)
 -->
<!-- Title: BitString::toVector Pages: 1 -->
<svg width="411pt" height="28pt"
 viewBox="0.00 0.00 411.00 28.00" xmlns="http://www.w3.org/2000/svg" xmlns:xlink="http://www.w3.org/1999/xlink">
<g id="graph0" class="graph" transform="scale(1 1) rotate(0) translate(4 24)">
<title>BitString::toVector</title>
<polygon fill="#ffffff" stroke="transparent" points="-4,4 -4,-24 407,-24 407,4 -4,4"/>
<!-- Node69 -->
<g id="node1" class="node">
<title>Node69</title>
<g id="a_node1"><a xlink:title=" ">
<polygon fill="#bfbfbf" stroke="#000000" points="298,-.5 298,-19.5 403,-19.5 403,-.5 298,-.5"/>
<text text-anchor="middle" x="350.5" y="-7.5" font-family="Helvetica,sans-Serif" font-size="10.00" fill="#000000">BitString::toVector</text>
</a>
</g>
</g>
<!-- Node70 -->
<g id="node2" class="node">
<title>Node70</title>
<g id="a_node2"><a xlink:href="classBitString.html#a6fd895d69b6e106bfb073e0c28dab614" target="_top" xlink:title=" ">
<polygon fill="#ffffff" stroke="#000000" points="104,-.5 104,-19.5 262,-19.5 262,-.5 104,-.5"/>
<text text-anchor="middle" x="183" y="-7.5" font-family="Helvetica,sans-Serif" font-size="10.00" fill="#000000">BitString::toCryptoInstruction</text>
</a>
</g>
</g>
<!-- Node69&#45;&gt;Node70 -->
<g id="edge1" class="edge">
<title>Node69&#45;&gt;Node70</title>
<path fill="none" stroke="#191970" d="M287.8594,-10C279.433,-10 270.7016,-10 262.0376,-10"/>
<polygon fill="#191970" stroke="#191970" points="287.9616,-13.5001 297.9615,-10 287.9615,-6.5001 287.9616,-13.5001"/>
</g>
<!-- Node71 -->
<g id="node3" class="node">
<title>Node71</title>
<g id="a_node3"><a xlink:href="crypto_8cpp.html#a7f69ce9864a092ee96aa3b9a299e6074" target="_top" xlink:title="Decrypt the given QR code without retries.">
<polygon fill="#ffffff" stroke="#000000" points="0,-.5 0,-19.5 68,-19.5 68,-.5 0,-.5"/>
<text text-anchor="middle" x="34" y="-7.5" font-family="Helvetica,sans-Serif" font-size="10.00" fill="#000000">tryDecrypt</text>
</a>
</g>
</g>
<!-- Node70&#45;&gt;Node71 -->
<g id="edge2" class="edge">
<title>Node70&#45;&gt;Node71</title>
<path fill="none" stroke="#191970" d="M93.5089,-10C84.5687,-10 75.929,-10 68.134,-10"/>
<polygon fill="#191970" stroke="#191970" points="93.7012,-13.5001 103.7012,-10 93.7012,-6.5001 93.7012,-13.5001"/>
</g>
</g>
</svg>
