<?xml version="1.0" encoding="UTF-8" standalone="no"?>
<!DOCTYPE svg PUBLIC "-//W3C//DTD SVG 1.1//EN"
 "http://www.w3.org/Graphics/SVG/1.1/DTD/svg11.dtd">
<!-- Generated by graphviz version 2.40.1 (20161225.0304)
 -->
<!-- Title: GridFinder::getWidthAtPointOnLine Pages: 1 -->
<svg width="1021pt" height="97pt"
 viewBox="0.00 0.00 1021.00 96.50" xmlns="http://www.w3.org/2000/svg" xmlns:xlink="http://www.w3.org/1999/xlink">
<g id="graph0" class="graph" transform="scale(1 1) rotate(0) translate(4 92.5)">
<title>GridFinder::getWidthAtPointOnLine</title>
<polygon fill="#ffffff" stroke="transparent" points="-4,4 -4,-92.5 1017,-92.5 1017,4 -4,4"/>
<!-- Node303 -->
<g id="node1" class="node">
<title>Node303</title>
<g id="a_node1"><a xlink:title="Get the width of the line at a given point.">
<polygon fill="#bfbfbf" stroke="#000000" points="861,-36 861,-66 1013,-66 1013,-36 861,-36"/>
<text text-anchor="start" x="869" y="-54" font-family="Helvetica,sans-Serif" font-size="10.00" fill="#000000">GridFinder::getWidthAtPoint</text>
<text text-anchor="middle" x="937" y="-43" font-family="Helvetica,sans-Serif" font-size="10.00" fill="#000000">OnLine</text>
</a>
</g>
</g>
<!-- Node304 -->
<g id="node2" class="node">
<title>Node304</title>
<g id="a_node2"><a xlink:href="classGridFinder.html#abcd46f31e256080b2d5d2aee03c0e258" target="_top" xlink:title="Find the middle of a line.">
<polygon fill="#ffffff" stroke="#000000" points="705,-41.5 705,-60.5 825,-60.5 825,-41.5 705,-41.5"/>
<text text-anchor="middle" x="765" y="-48.5" font-family="Helvetica,sans-Serif" font-size="10.00" fill="#000000">GridFinder::getMiddle</text>
</a>
</g>
</g>
<!-- Node303&#45;&gt;Node304 -->
<g id="edge1" class="edge">
<title>Node303&#45;&gt;Node304</title>
<path fill="none" stroke="#191970" d="M850.6837,-51C842.0438,-51 833.4082,-51 825.1256,-51"/>
<polygon fill="#191970" stroke="#191970" points="850.8072,-54.5001 860.8072,-51 850.8071,-47.5001 850.8072,-54.5001"/>
</g>
<!-- Node305 -->
<g id="node3" class="node">
<title>Node305</title>
<g id="a_node3"><a xlink:href="classGridFinder.html#af830abf29ca6dc9c01197a38fe16e1e5" target="_top" xlink:title="In exceptional cases, we might want to find the middle of a line in a point that happens to lie at th...">
<polygon fill="#ffffff" stroke="#000000" points="526,-58 526,-88 669,-88 669,-58 526,-58"/>
<text text-anchor="start" x="534" y="-76" font-family="Helvetica,sans-Serif" font-size="10.00" fill="#000000">GridFinder::getMiddleWith</text>
<text text-anchor="middle" x="597.5" y="-65" font-family="Helvetica,sans-Serif" font-size="10.00" fill="#000000">Retries</text>
</a>
</g>
</g>
<!-- Node304&#45;&gt;Node305 -->
<g id="edge2" class="edge">
<title>Node304&#45;&gt;Node305</title>
<path fill="none" stroke="#191970" d="M694.3967,-60.2733C685.9975,-61.3764 677.4174,-62.5034 669.0057,-63.6082"/>
<polygon fill="#191970" stroke="#191970" points="695.0696,-63.715 704.5287,-58.9425 694.158,-56.7746 695.0696,-63.715"/>
</g>
<!-- Node307 -->
<g id="node5" class="node">
<title>Node307</title>
<g id="a_node5"><a xlink:href="classGridFinder.html#ae12ca7921b02b37417d87fc737f0134d" target="_top" xlink:title="Check if there could be a valid line going through the given point, and if so, find and return the ac...">
<polygon fill="#ffffff" stroke="#000000" points="537,-19.5 537,-38.5 658,-38.5 658,-19.5 537,-19.5"/>
<text text-anchor="middle" x="597.5" y="-26.5" font-family="Helvetica,sans-Serif" font-size="10.00" fill="#000000">GridFinder::checkLine</text>
</a>
</g>
</g>
<!-- Node304&#45;&gt;Node307 -->
<g id="edge4" class="edge">
<title>Node304&#45;&gt;Node307</title>
<path fill="none" stroke="#191970" d="M694.4935,-41.7394C682.4141,-40.1529 669.9577,-38.5168 658.1638,-36.9678"/>
<polygon fill="#191970" stroke="#191970" points="694.158,-45.2254 704.5287,-43.0575 695.0696,-38.285 694.158,-45.2254"/>
</g>
<!-- Node306 -->
<g id="node4" class="node">
<title>Node306</title>
<g id="a_node4"><a xlink:href="classGridFinder.html#aaea3af418ab7124f2b25bcc124fccaca" target="_top" xlink:title="Get an estimate of the line through a given pixel. Find an estimate of the slope, then use that to de...">
<polygon fill="#ffffff" stroke="#000000" points="359,-58 359,-88 487,-88 487,-58 359,-58"/>
<text text-anchor="start" x="367" y="-76" font-family="Helvetica,sans-Serif" font-size="10.00" fill="#000000">GridFinder::getFirstLine</text>
<text text-anchor="middle" x="423" y="-65" font-family="Helvetica,sans-Serif" font-size="10.00" fill="#000000">Estimate</text>
</a>
</g>
</g>
<!-- Node305&#45;&gt;Node306 -->
<g id="edge3" class="edge">
<title>Node305&#45;&gt;Node306</title>
<path fill="none" stroke="#191970" d="M515.5054,-73C505.9971,-73 496.4052,-73 487.1837,-73"/>
<polygon fill="#191970" stroke="#191970" points="515.7688,-76.5001 525.7688,-73 515.7687,-69.5001 515.7688,-76.5001"/>
</g>
<!-- Node308 -->
<g id="node6" class="node">
<title>Node308</title>
<g id="a_node6"><a xlink:href="classGridFinder.html#a54369e6368334eb2924ca70ee1f1d438" target="_top" xlink:title="Follow the given line to find the line perpendicular to it. Move along the line for minDistance pixel...">
<polygon fill="#ffffff" stroke="#000000" points="356,-19.5 356,-38.5 490,-38.5 490,-19.5 356,-19.5"/>
<text text-anchor="middle" x="423" y="-26.5" font-family="Helvetica,sans-Serif" font-size="10.00" fill="#000000">GridFinder::findNextLine</text>
</a>
</g>
</g>
<!-- Node307&#45;&gt;Node308 -->
<g id="edge5" class="edge">
<title>Node307&#45;&gt;Node308</title>
<path fill="none" stroke="#191970" d="M526.9271,-29C514.8358,-29 502.3005,-29 490.2976,-29"/>
<polygon fill="#191970" stroke="#191970" points="526.9581,-32.5001 536.9581,-29 526.9581,-25.5001 526.9581,-32.5001"/>
</g>
<!-- Node309 -->
<g id="node7" class="node">
<title>Node309</title>
<g id="a_node7"><a xlink:href="classGridFinder.html#a3edbd3ffbcfe6d373fbaf576e4dca51b" target="_top" xlink:title="Equivalent to #findNextLine(LineResult,bool,uint,uint) but also supports optional LineResults.">
<polygon fill="#ffffff" stroke="#000000" points="186,-38.5 186,-57.5 320,-57.5 320,-38.5 186,-38.5"/>
<text text-anchor="middle" x="253" y="-45.5" font-family="Helvetica,sans-Serif" font-size="10.00" fill="#000000">GridFinder::findNextLine</text>
</a>
</g>
</g>
<!-- Node308&#45;&gt;Node309 -->
<g id="edge6" class="edge">
<title>Node308&#45;&gt;Node309</title>
<path fill="none" stroke="#191970" d="M345.854,-37.6222C337.3121,-38.5769 328.6634,-39.5435 320.2572,-40.483"/>
<polygon fill="#191970" stroke="#191970" points="346.2622,-41.0985 355.8115,-36.5093 345.4846,-34.1418 346.2622,-41.0985"/>
</g>
<!-- Node310 -->
<g id="node8" class="node">
<title>Node310</title>
<g id="a_node8"><a xlink:href="classGridFinder.html#a8940ca681fac78274043cf5f1f1f5761" target="_top" xlink:title="This is the main function: it looks for a complete square of the grid, as close to the center of the ...">
<polygon fill="#ffffff" stroke="#000000" points="191,-.5 191,-19.5 315,-19.5 315,-.5 191,-.5"/>
<text text-anchor="middle" x="253" y="-7.5" font-family="Helvetica,sans-Serif" font-size="10.00" fill="#000000">GridFinder::findSquare</text>
</a>
</g>
</g>
<!-- Node308&#45;&gt;Node310 -->
<g id="edge7" class="edge">
<title>Node308&#45;&gt;Node310</title>
<path fill="none" stroke="#191970" d="M345.624,-20.3521C335.3644,-19.2054 324.9554,-18.0421 315.0015,-16.9296"/>
<polygon fill="#191970" stroke="#191970" points="345.4846,-23.8582 355.8115,-21.4907 346.2622,-16.9015 345.4846,-23.8582"/>
</g>
<!-- Node311 -->
<g id="node9" class="node">
<title>Node311</title>
<g id="a_node9"><a xlink:href="classLocationFinder.html#a398bb42565e1e2a499471765f569bc40" target="_top" xlink:title=" ">
<polygon fill="#ffffff" stroke="#000000" points="0,-.5 0,-19.5 150,-19.5 150,-.5 0,-.5"/>
<text text-anchor="middle" x="75" y="-7.5" font-family="Helvetica,sans-Serif" font-size="10.00" fill="#000000">LocationFinder::getLocation</text>
</a>
</g>
</g>
<!-- Node310&#45;&gt;Node311 -->
<g id="edge8" class="edge">
<title>Node310&#45;&gt;Node311</title>
<path fill="none" stroke="#191970" d="M180.4379,-10C170.4268,-10 160.1282,-10 150.0729,-10"/>
<polygon fill="#191970" stroke="#191970" points="180.7443,-13.5001 190.7442,-10 180.7442,-6.5001 180.7443,-13.5001"/>
</g>
</g>
</svg>
