<?xml version="1.0" encoding="UTF-8" standalone="no"?>
<!DOCTYPE svg PUBLIC "-//W3C//DTD SVG 1.1//EN"
 "http://www.w3.org/Graphics/SVG/1.1/DTD/svg11.dtd">
<!-- Generated by graphviz version 2.40.1 (20161225.0304)
 -->
<!-- Title: GridFinder::findLineAngle Pages: 1 -->
<svg width="805pt" height="137pt"
 viewBox="0.00 0.00 805.00 137.32" xmlns="http://www.w3.org/2000/svg" xmlns:xlink="http://www.w3.org/1999/xlink">
<g id="graph0" class="graph" transform="scale(1 1) rotate(0) translate(4 133.3176)">
<title>GridFinder::findLineAngle</title>
<polygon fill="#ffffff" stroke="transparent" points="-4,4 -4,-133.3176 801,-133.3176 801,4 -4,4"/>
<!-- Node37 -->
<g id="node1" class="node">
<title>Node37</title>
<g id="a_node1"><a xlink:title="Scan 360° around a given pixel, and find the angle with the most white pixels. This version is not ve...">
<polygon fill="#bfbfbf" stroke="#000000" points="0,-88 0,-107 138,-107 138,-88 0,-88"/>
<text text-anchor="middle" x="69" y="-95" font-family="Helvetica,sans-Serif" font-size="10.00" fill="#000000">GridFinder::findLineAngle</text>
</a>
</g>
</g>
<!-- Node38 -->
<g id="node2" class="node">
<title>Node38</title>
<g id="a_node2"><a xlink:href="classAngle.html#a84ce9a0e2a186ada6997077fd96d6e4c" target="_top" xlink:title=" ">
<polygon fill="#ffffff" stroke="#000000" points="174,-107 174,-126 314,-126 314,-107 174,-107"/>
<text text-anchor="middle" x="244" y="-114" font-family="Helvetica,sans-Serif" font-size="10.00" fill="#000000">Angle&lt; 360 &gt;::resolution</text>
</a>
</g>
</g>
<!-- Node37&#45;&gt;Node38 -->
<g id="edge1" class="edge">
<title>Node37&#45;&gt;Node38</title>
<path fill="none" stroke="#191970" d="M138.1646,-105.0093C146.6108,-105.9263 155.2956,-106.8692 163.8848,-107.8018"/>
<polygon fill="#191970" stroke="#191970" points="163.5845,-111.2897 173.9039,-108.8896 164.3401,-104.3306 163.5845,-111.2897"/>
</g>
<!-- Node39 -->
<g id="node3" class="node">
<title>Node39</title>
<g id="a_node3"><a xlink:href="classGridFinder.html#ae562737b4e1d28a7888aedb53449e0e7" target="_top" xlink:title="Starting from the given pixel, move in the direction of the given angle, and count the number of whit...">
<polygon fill="#ffffff" stroke="#000000" points="193,-69 193,-88 295,-88 295,-69 193,-69"/>
<text text-anchor="middle" x="244" y="-76" font-family="Helvetica,sans-Serif" font-size="10.00" fill="#000000">GridFinder::hough</text>
</a>
</g>
</g>
<!-- Node37&#45;&gt;Node39 -->
<g id="edge2" class="edge">
<title>Node37&#45;&gt;Node39</title>
<path fill="none" stroke="#191970" d="M138.1646,-89.9907C152.8484,-88.3965 168.2534,-86.7239 182.6235,-85.1637"/>
<polygon fill="#191970" stroke="#191970" points="183.3154,-88.6093 192.8792,-84.0503 182.5598,-81.6502 183.3154,-88.6093"/>
</g>
<!-- Node40 -->
<g id="node4" class="node">
<title>Node40</title>
<g id="a_node4"><a xlink:href="classBresenhamLine.html#aba0822ee20811d67cd9539ccbe1cd346" target="_top" xlink:title=" ">
<polygon fill="#ffffff" stroke="#000000" points="536,-107 536,-126 675,-126 675,-107 536,-107"/>
<text text-anchor="middle" x="605.5" y="-114" font-family="Helvetica,sans-Serif" font-size="10.00" fill="#000000">BresenhamLine::hasNext</text>
</a>
</g>
</g>
<!-- Node39&#45;&gt;Node40 -->
<g id="edge3" class="edge">
<title>Node39&#45;&gt;Node40</title>
<path fill="none" stroke="#191970" d="M285.2106,-88.061C294.7935,-90.729 304.8616,-93.8994 314,-97.5 330.8322,-104.1321 332.439,-112.1502 350,-116.5 407.6216,-130.7728 474.8222,-130.1229 525.8394,-126.252"/>
<polygon fill="#191970" stroke="#191970" points="526.137,-129.7394 535.8195,-125.4383 525.5681,-122.7626 526.137,-129.7394"/>
</g>
<!-- Node42 -->
<g id="node6" class="node">
<title>Node42</title>
<g id="a_node6"><a xlink:href="classBresenhamLine.html#a10d505e30945f42a5cd0270c315b104f" target="_top" xlink:title=" ">
<polygon fill="#ffffff" stroke="#000000" points="365,-88 365,-107 485,-107 485,-88 365,-88"/>
<text text-anchor="middle" x="425" y="-95" font-family="Helvetica,sans-Serif" font-size="10.00" fill="#000000">BresenhamLine::next</text>
</a>
</g>
</g>
<!-- Node39&#45;&gt;Node42 -->
<g id="edge5" class="edge">
<title>Node39&#45;&gt;Node42</title>
<path fill="none" stroke="#191970" d="M295.3832,-83.8938C313.8064,-85.8277 334.9076,-88.0428 354.6591,-90.1162"/>
<polygon fill="#191970" stroke="#191970" points="354.5328,-93.622 364.8436,-91.1852 355.2636,-86.6603 354.5328,-93.622"/>
</g>
<!-- Node43 -->
<g id="node7" class="node">
<title>Node43</title>
<g id="a_node7"><a xlink:href="classGridFinder.html#a53cfbafaf3cd06baac2a19eeee0cfb73" target="_top" xlink:title="Get the value of the given pixel.">
<polygon fill="#ffffff" stroke="#000000" points="381,-50 381,-69 469,-69 469,-50 381,-50"/>
<text text-anchor="middle" x="425" y="-57" font-family="Helvetica,sans-Serif" font-size="10.00" fill="#000000">GridFinder::get</text>
</a>
</g>
</g>
<!-- Node39&#45;&gt;Node43 -->
<g id="edge7" class="edge">
<title>Node39&#45;&gt;Node43</title>
<path fill="none" stroke="#191970" d="M295.3832,-73.1062C318.9774,-70.6294 346.964,-67.6916 370.8827,-65.1808"/>
<polygon fill="#191970" stroke="#191970" points="371.28,-68.6584 380.8599,-64.1335 370.5491,-61.6967 371.28,-68.6584"/>
</g>
<!-- Node44 -->
<g id="node8" class="node">
<title>Node44</title>
<g id="a_node8"><a xlink:href="classBresenhamLine.html#ad93a4adf0535a9b4e649bce5ade1bc5e" target="_top" xlink:title=" ">
<polygon fill="#ffffff" stroke="#000000" points="350,-.5 350,-30.5 500,-30.5 500,-.5 350,-.5"/>
<text text-anchor="start" x="358" y="-18.5" font-family="Helvetica,sans-Serif" font-size="10.00" fill="#000000">BresenhamLine::getCurrent</text>
<text text-anchor="middle" x="425" y="-7.5" font-family="Helvetica,sans-Serif" font-size="10.00" fill="#000000">Length</text>
</a>
</g>
</g>
<!-- Node39&#45;&gt;Node44 -->
<g id="edge8" class="edge">
<title>Node39&#45;&gt;Node44</title>
<path fill="none" stroke="#191970" d="M270.0792,-68.9665C291.5002,-61.1803 322.6559,-49.9573 350,-40.5 356.362,-38.2996 363.0392,-36.0247 369.6773,-33.7846"/>
<polygon fill="#191970" stroke="#191970" points="370.9691,-37.0429 379.3336,-30.5402 368.7396,-30.4074 370.9691,-37.0429"/>
</g>
<!-- Node41 -->
<g id="node5" class="node">
<title>Node41</title>
<g id="a_node5"><a xlink:href="structPixel.html#a816d743559e2ac5b35c9c79ac517ad0a" target="_top" xlink:title=" ">
<polygon fill="#ffffff" stroke="#000000" points="711,-107 711,-126 797,-126 797,-107 711,-107"/>
<text text-anchor="middle" x="754" y="-114" font-family="Helvetica,sans-Serif" font-size="10.00" fill="#000000">Pixel::inRange</text>
</a>
</g>
</g>
<!-- Node40&#45;&gt;Node41 -->
<g id="edge4" class="edge">
<title>Node40&#45;&gt;Node41</title>
<path fill="none" stroke="#191970" d="M675.4016,-116.5C683.8647,-116.5 692.4033,-116.5 700.5758,-116.5"/>
<polygon fill="#191970" stroke="#191970" points="700.6984,-120.0001 710.6984,-116.5 700.6984,-113.0001 700.6984,-120.0001"/>
</g>
<!-- Node42&#45;&gt;Node40 -->
<g id="edge6" class="edge">
<title>Node42&#45;&gt;Node40</title>
<path fill="none" stroke="#191970" d="M485.1039,-103.8267C498.0978,-105.1945 512.0336,-106.6614 525.6494,-108.0947"/>
<polygon fill="#191970" stroke="#191970" points="525.6667,-111.6158 535.9782,-109.1819 526.3996,-104.6542 525.6667,-111.6158"/>
</g>
</g>
</svg>
