<?xml version="1.0" encoding="UTF-8" standalone="no"?>
<!DOCTYPE svg PUBLIC "-//W3C//DTD SVG 1.1//EN"
 "http://www.w3.org/Graphics/SVG/1.1/DTD/svg11.dtd">
<!-- Generated by graphviz version 2.40.1 (20161225.0304)
 -->
<!-- Title: Line::leftOfPoint Pages: 1 -->
<svg width="449pt" height="28pt"
 viewBox="0.00 0.00 449.00 28.00" xmlns="http://www.w3.org/2000/svg" xmlns:xlink="http://www.w3.org/1999/xlink">
<g id="graph0" class="graph" transform="scale(1 1) rotate(0) translate(4 24)">
<title>Line::leftOfPoint</title>
<polygon fill="#ffffff" stroke="transparent" points="-4,4 -4,-24 445,-24 445,4 -4,4"/>
<!-- Node14 -->
<g id="node1" class="node">
<title>Node14</title>
<g id="a_node1"><a xlink:title=" ">
<polygon fill="#bfbfbf" stroke="#000000" points="346,-.5 346,-19.5 441,-19.5 441,-.5 346,-.5"/>
<text text-anchor="middle" x="393.5" y="-7.5" font-family="Helvetica,sans-Serif" font-size="10.00" fill="#000000">Line::leftOfPoint</text>
</a>
</g>
</g>
<!-- Node15 -->
<g id="node2" class="node">
<title>Node15</title>
<g id="a_node2"><a xlink:href="classGridFinder.html#a8940ca681fac78274043cf5f1f1f5761" target="_top" xlink:title="This is the main function: it looks for a complete square of the grid, as close to the center of the ...">
<polygon fill="#ffffff" stroke="#000000" points="186,-.5 186,-19.5 310,-19.5 310,-.5 186,-.5"/>
<text text-anchor="middle" x="248" y="-7.5" font-family="Helvetica,sans-Serif" font-size="10.00" fill="#000000">GridFinder::findSquare</text>
</a>
</g>
</g>
<!-- Node14&#45;&gt;Node15 -->
<g id="edge1" class="edge">
<title>Node14&#45;&gt;Node15</title>
<path fill="none" stroke="#191970" d="M335.7354,-10C327.2959,-10 318.5752,-10 310.0546,-10"/>
<polygon fill="#191970" stroke="#191970" points="335.8579,-13.5001 345.8579,-10 335.8578,-6.5001 335.8579,-13.5001"/>
</g>
<!-- Node16 -->
<g id="node3" class="node">
<title>Node16</title>
<g id="a_node3"><a xlink:href="classLocationFinder.html#a398bb42565e1e2a499471765f569bc40" target="_top" xlink:title=" ">
<polygon fill="#ffffff" stroke="#000000" points="0,-.5 0,-19.5 150,-19.5 150,-.5 0,-.5"/>
<text text-anchor="middle" x="75" y="-7.5" font-family="Helvetica,sans-Serif" font-size="10.00" fill="#000000">LocationFinder::getLocation</text>
</a>
</g>
</g>
<!-- Node15&#45;&gt;Node16 -->
<g id="edge2" class="edge">
<title>Node15&#45;&gt;Node16</title>
<path fill="none" stroke="#191970" d="M175.4224,-10C167.0344,-10 158.467,-10 150.047,-10"/>
<polygon fill="#191970" stroke="#191970" points="175.5431,-13.5001 185.543,-10 175.543,-6.5001 175.5431,-13.5001"/>
</g>
</g>
</svg>
