<?xml version="1.0" encoding="UTF-8" standalone="no"?>
<!DOCTYPE svg PUBLIC "-//W3C//DTD SVG 1.1//EN"
 "http://www.w3.org/Graphics/SVG/1.1/DTD/svg11.dtd">
<!-- Generated by graphviz version 2.40.1 (20161225.0304)
 -->
<!-- Title: GridFinder::checkLine Pages: 1 -->
<svg width="469pt" height="66pt"
 viewBox="0.00 0.00 469.00 66.00" xmlns="http://www.w3.org/2000/svg" xmlns:xlink="http://www.w3.org/1999/xlink">
<g id="graph0" class="graph" transform="scale(1 1) rotate(0) translate(4 62)">
<title>GridFinder::checkLine</title>
<polygon fill="#ffffff" stroke="transparent" points="-4,4 -4,-62 465,-62 465,4 -4,4"/>
<!-- Node20 -->
<g id="node1" class="node">
<title>Node20</title>
<g id="a_node1"><a xlink:title="Check if there could be a valid line going through the given point, and if so, find and return the ac...">
<polygon fill="#bfbfbf" stroke="#000000" points="340,-19.5 340,-38.5 461,-38.5 461,-19.5 340,-19.5"/>
<text text-anchor="middle" x="400.5" y="-26.5" font-family="Helvetica,sans-Serif" font-size="10.00" fill="#000000">GridFinder::checkLine</text>
</a>
</g>
</g>
<!-- Node21 -->
<g id="node2" class="node">
<title>Node21</title>
<g id="a_node2"><a xlink:href="classGridFinder.html#a79b62fc48a9db94ad0530e76ed2c3306" target="_top" xlink:title="Follow the given line to find the line perpendicular to it. Move along the line for minDistance pixel...">
<polygon fill="#ffffff" stroke="#000000" points="170,-19.5 170,-38.5 304,-38.5 304,-19.5 170,-19.5"/>
<text text-anchor="middle" x="237" y="-26.5" font-family="Helvetica,sans-Serif" font-size="10.00" fill="#000000">GridFinder::findNextLine</text>
</a>
</g>
</g>
<!-- Node20&#45;&gt;Node21 -->
<g id="edge1" class="edge">
<title>Node20&#45;&gt;Node21</title>
<path fill="none" stroke="#191970" d="M329.4949,-29C321.1131,-29 312.5779,-29 304.2501,-29"/>
<polygon fill="#191970" stroke="#191970" points="329.6187,-32.5001 339.6186,-29 329.6186,-25.5001 329.6187,-32.5001"/>
</g>
<!-- Node22 -->
<g id="node3" class="node">
<title>Node22</title>
<g id="a_node3"><a xlink:href="classGridFinder.html#ad75180aa82b12c7054e0015adc44a331" target="_top" xlink:title="Equivalent to #findNextLine(LineResult,bool,uint,uint) but also supports optional LineResults.">
<polygon fill="#ffffff" stroke="#000000" points="0,-38.5 0,-57.5 134,-57.5 134,-38.5 0,-38.5"/>
<text text-anchor="middle" x="67" y="-45.5" font-family="Helvetica,sans-Serif" font-size="10.00" fill="#000000">GridFinder::findNextLine</text>
</a>
</g>
</g>
<!-- Node21&#45;&gt;Node22 -->
<g id="edge2" class="edge">
<title>Node21&#45;&gt;Node22</title>
<path fill="none" stroke="#191970" d="M159.854,-37.6222C151.3121,-38.5769 142.6634,-39.5435 134.2572,-40.483"/>
<polygon fill="#191970" stroke="#191970" points="160.2622,-41.0985 169.8115,-36.5093 159.4846,-34.1418 160.2622,-41.0985"/>
</g>
<!-- Node23 -->
<g id="node4" class="node">
<title>Node23</title>
<g id="a_node4"><a xlink:href="classGridFinder.html#a3104d4fe44099faf5179674ecb55cb52" target="_top" xlink:title="This is the main function: it looks for a complete square of the grid, as close to the center of the ...">
<polygon fill="#ffffff" stroke="#000000" points="5,-.5 5,-19.5 129,-19.5 129,-.5 5,-.5"/>
<text text-anchor="middle" x="67" y="-7.5" font-family="Helvetica,sans-Serif" font-size="10.00" fill="#000000">GridFinder::findSquare</text>
</a>
</g>
</g>
<!-- Node21&#45;&gt;Node23 -->
<g id="edge3" class="edge">
<title>Node21&#45;&gt;Node23</title>
<path fill="none" stroke="#191970" d="M159.624,-20.3521C149.3644,-19.2054 138.9554,-18.0421 129.0015,-16.9296"/>
<polygon fill="#191970" stroke="#191970" points="159.4846,-23.8582 169.8115,-21.4907 160.2622,-16.9015 159.4846,-23.8582"/>
</g>
</g>
</svg>
