<?xml version="1.0" encoding="UTF-8" standalone="no"?>
<!DOCTYPE svg PUBLIC "-//W3C//DTD SVG 1.1//EN"
 "http://www.w3.org/Graphics/SVG/1.1/DTD/svg11.dtd">
<!-- Generated by graphviz version 2.40.1 (20161225.0304)
 -->
<!-- Title: GridFinder::checkLine Pages: 1 -->
<svg width="976pt" height="230pt"
 viewBox="0.00 0.00 976.00 230.00" xmlns="http://www.w3.org/2000/svg" xmlns:xlink="http://www.w3.org/1999/xlink">
<g id="graph0" class="graph" transform="scale(1 1) rotate(0) translate(4 226)">
<title>GridFinder::checkLine</title>
<polygon fill="#ffffff" stroke="transparent" points="-4,4 -4,-226 972,-226 972,4 -4,4"/>
<!-- Node7 -->
<g id="node1" class="node">
<title>Node7</title>
<g id="a_node1"><a xlink:title="Check if there could be a valid line going through the given point, and if so, find and return the ac...">
<polygon fill="#bfbfbf" stroke="#000000" points="0,-79.5 0,-98.5 121,-98.5 121,-79.5 0,-79.5"/>
<text text-anchor="middle" x="60.5" y="-86.5" font-family="Helvetica,sans-Serif" font-size="10.00" fill="#000000">GridFinder::checkLine</text>
</a>
</g>
</g>
<!-- Node8 -->
<g id="node2" class="node">
<title>Node8</title>
<g id="a_node2"><a xlink:href="classGridFinder.html#a187e8c44c7f99237645b49dc2c6745c8" target="_top" xlink:title="Find the middle of a line.">
<polygon fill="#ffffff" stroke="#000000" points="167,-98.5 167,-117.5 287,-117.5 287,-98.5 167,-98.5"/>
<text text-anchor="middle" x="227" y="-105.5" font-family="Helvetica,sans-Serif" font-size="10.00" fill="#000000">GridFinder::getMiddle</text>
</a>
</g>
</g>
<!-- Node7&#45;&gt;Node8 -->
<g id="edge1" class="edge">
<title>Node7&#45;&gt;Node8</title>
<path fill="none" stroke="#191970" d="M121.0813,-95.9132C132.5878,-97.2262 144.7196,-98.6106 156.5024,-99.9552"/>
<polygon fill="#191970" stroke="#191970" points="156.4102,-103.4673 166.7426,-101.1238 157.2039,-96.5125 156.4102,-103.4673"/>
</g>
<!-- Node19 -->
<g id="node13" class="node">
<title>Node19</title>
<g id="a_node13"><a xlink:href="classAngle.html#a84ce9a0e2a186ada6997077fd96d6e4c" target="_top" xlink:title=" ">
<polygon fill="#ffffff" stroke="#000000" points="157,-60.5 157,-79.5 297,-79.5 297,-60.5 157,-60.5"/>
<text text-anchor="middle" x="227" y="-67.5" font-family="Helvetica,sans-Serif" font-size="10.00" fill="#000000">Angle&lt; 360 &gt;::resolution</text>
</a>
</g>
</g>
<!-- Node7&#45;&gt;Node19 -->
<g id="edge18" class="edge">
<title>Node7&#45;&gt;Node19</title>
<path fill="none" stroke="#191970" d="M121.0813,-82.0868C129.4351,-81.1335 138.1186,-80.1426 146.7587,-79.1567"/>
<polygon fill="#191970" stroke="#191970" points="147.3207,-82.6153 156.8593,-78.004 146.527,-75.6605 147.3207,-82.6153"/>
</g>
<!-- Node9 -->
<g id="node3" class="node">
<title>Node9</title>
<g id="a_node3"><a xlink:href="classGridFinder.html#a53cfbafaf3cd06baac2a19eeee0cfb73" target="_top" xlink:title="Get the value of the given pixel.">
<polygon fill="#ffffff" stroke="#000000" points="552,-202.5 552,-221.5 640,-221.5 640,-202.5 552,-202.5"/>
<text text-anchor="middle" x="596" y="-209.5" font-family="Helvetica,sans-Serif" font-size="10.00" fill="#000000">GridFinder::get</text>
</a>
</g>
</g>
<!-- Node8&#45;&gt;Node9 -->
<g id="edge2" class="edge">
<title>Node8&#45;&gt;Node9</title>
<path fill="none" stroke="#191970" d="M237.8185,-117.6315C256.0182,-133.2271 294.5541,-163.6998 333,-178 401.9157,-203.6337 487.203,-210.5166 541.6132,-212.0677"/>
<polygon fill="#191970" stroke="#191970" points="541.6566,-215.5696 551.7358,-212.3048 541.8205,-208.5715 541.6566,-215.5696"/>
</g>
<!-- Node10 -->
<g id="node4" class="node">
<title>Node10</title>
<g id="a_node4"><a xlink:href="structCosSin.html#a4c63ac2c483b5caa4012f8c27d58dd96" target="_top" xlink:title=" ">
<polygon fill="#ffffff" stroke="#000000" points="360,-38.5 360,-57.5 458,-57.5 458,-38.5 360,-38.5"/>
<text text-anchor="middle" x="409" y="-45.5" font-family="Helvetica,sans-Serif" font-size="10.00" fill="#000000">CosSin::opposite</text>
</a>
</g>
</g>
<!-- Node8&#45;&gt;Node10 -->
<g id="edge3" class="edge">
<title>Node8&#45;&gt;Node10</title>
<path fill="none" stroke="#191970" d="M269.858,-98.4355C278.9826,-95.8301 288.442,-92.687 297,-89 314.2209,-81.5808 315.7055,-74.2461 333,-67 338.8447,-64.5512 345.0795,-62.3643 351.3687,-60.4252"/>
<polygon fill="#191970" stroke="#191970" points="352.6075,-63.7108 361.2484,-57.58 350.6703,-56.9842 352.6075,-63.7108"/>
</g>
<!-- Node11 -->
<g id="node5" class="node">
<title>Node11</title>
<g id="a_node5"><a xlink:href="classGridFinder.html#a83b31c2192a137e56e91d13661f1c658" target="_top" xlink:title="Get the width of the line at a given point.">
<polygon fill="#ffffff" stroke="#000000" points="333,-115 333,-145 485,-145 485,-115 333,-115"/>
<text text-anchor="start" x="341" y="-133" font-family="Helvetica,sans-Serif" font-size="10.00" fill="#000000">GridFinder::getWidthAtPoint</text>
<text text-anchor="middle" x="409" y="-122" font-family="Helvetica,sans-Serif" font-size="10.00" fill="#000000">OnLine</text>
</a>
</g>
</g>
<!-- Node8&#45;&gt;Node11 -->
<g id="edge4" class="edge">
<title>Node8&#45;&gt;Node11</title>
<path fill="none" stroke="#191970" d="M287.098,-115.2646C298.5036,-116.6433 310.6441,-118.1108 322.6754,-119.5652"/>
<polygon fill="#191970" stroke="#191970" points="322.3896,-123.056 332.7374,-120.7814 323.2297,-116.1066 322.3896,-123.056"/>
</g>
<!-- Node12 -->
<g id="node6" class="node">
<title>Node12</title>
<g id="a_node6"><a xlink:href="structCosSin.html#adb1d000cc58879b65a63fac849408bfe" target="_top" xlink:title=" ">
<polygon fill="#ffffff" stroke="#000000" points="535,-164.5 535,-183.5 657,-183.5 657,-164.5 535,-164.5"/>
<text text-anchor="middle" x="596" y="-171.5" font-family="Helvetica,sans-Serif" font-size="10.00" fill="#000000">CosSin::perpendicular</text>
</a>
</g>
</g>
<!-- Node8&#45;&gt;Node12 -->
<g id="edge13" class="edge">
<title>Node8&#45;&gt;Node12</title>
<path fill="none" stroke="#191970" d="M243.6092,-117.5414C263.9484,-128.7028 299.7976,-146.7081 333,-155 396.527,-170.8652 471.1662,-174.9332 524.6695,-175.434"/>
<polygon fill="#191970" stroke="#191970" points="524.7233,-178.9343 534.7422,-175.4886 524.7613,-171.9344 524.7233,-178.9343"/>
</g>
<!-- Node17 -->
<g id="node11" class="node">
<title>Node17</title>
<g id="a_node11"><a xlink:href="Array_8hpp.html#a54bae1a9c86ad6bc491b4f10495a759f" target="_top" xlink:title=" ">
<polygon fill="#ffffff" stroke="#000000" points="392,-.5 392,-19.5 426,-19.5 426,-.5 392,-.5"/>
<text text-anchor="middle" x="409" y="-7.5" font-family="Helvetica,sans-Serif" font-size="10.00" fill="#000000">abs</text>
</a>
</g>
</g>
<!-- Node8&#45;&gt;Node17 -->
<g id="edge12" class="edge">
<title>Node8&#45;&gt;Node17</title>
<path fill="none" stroke="#191970" d="M279.92,-98.4161C286.0195,-95.96 291.8785,-92.8749 297,-89 321.8,-70.2364 308.013,-47.5139 333,-29 347.0285,-18.6057 366.0989,-13.8583 381.6268,-11.7081"/>
<polygon fill="#191970" stroke="#191970" points="382.1492,-15.1719 391.7055,-10.5971 381.3821,-8.214 382.1492,-15.1719"/>
</g>
<!-- Node18 -->
<g id="node12" class="node">
<title>Node18</title>
<g id="a_node12"><a xlink:href="classGridFinder.html#a9b31ec7807efc6e1fde49f5a56c0d0fa" target="_top" xlink:title="Move a pixel in a given direction for a given distance.">
<polygon fill="#ffffff" stroke="#000000" points="359,-76.5 359,-95.5 459,-95.5 459,-76.5 359,-76.5"/>
<text text-anchor="middle" x="409" y="-83.5" font-family="Helvetica,sans-Serif" font-size="10.00" fill="#000000">GridFinder::move</text>
</a>
</g>
</g>
<!-- Node8&#45;&gt;Node18 -->
<g id="edge14" class="edge">
<title>Node8&#45;&gt;Node18</title>
<path fill="none" stroke="#191970" d="M287.098,-100.7354C306.9365,-98.3374 328.9983,-95.6705 348.8413,-93.2719"/>
<polygon fill="#191970" stroke="#191970" points="349.4845,-96.7198 358.9922,-92.0449 348.6444,-89.7703 349.4845,-96.7198"/>
</g>
<!-- Node11&#45;&gt;Node9 -->
<g id="edge11" class="edge">
<title>Node11&#45;&gt;Node9</title>
<path fill="none" stroke="#191970" d="M431.7023,-145.1456C453.7199,-159.2501 488.4759,-180 521,-193 527.6885,-195.6734 534.8658,-198.0605 542.0336,-200.1639"/>
<polygon fill="#191970" stroke="#191970" points="541.1838,-203.5603 551.7553,-202.8567 543.0524,-196.8143 541.1838,-203.5603"/>
</g>
<!-- Node11&#45;&gt;Node12 -->
<g id="edge5" class="edge">
<title>Node11&#45;&gt;Node12</title>
<path fill="none" stroke="#191970" d="M472.8318,-145.0192C496.5959,-150.6108 523.2125,-156.8735 545.6059,-162.1426"/>
<polygon fill="#191970" stroke="#191970" points="545.0364,-165.6041 555.5722,-164.4876 546.6397,-158.7902 545.0364,-165.6041"/>
</g>
<!-- Node13 -->
<g id="node7" class="node">
<title>Node13</title>
<g id="a_node7"><a xlink:href="classBresenhamLine.html#aba0822ee20811d67cd9539ccbe1cd346" target="_top" xlink:title=" ">
<polygon fill="#ffffff" stroke="#000000" points="707,-88.5 707,-107.5 846,-107.5 846,-88.5 707,-88.5"/>
<text text-anchor="middle" x="776.5" y="-95.5" font-family="Helvetica,sans-Serif" font-size="10.00" fill="#000000">BresenhamLine::hasNext</text>
</a>
</g>
</g>
<!-- Node11&#45;&gt;Node13 -->
<g id="edge6" class="edge">
<title>Node11&#45;&gt;Node13</title>
<path fill="none" stroke="#191970" d="M485.1655,-128.8043C537.5612,-127.3498 608.6722,-124.1288 671,-117 687.2294,-115.1437 704.732,-112.3268 720.7269,-109.4262"/>
<polygon fill="#191970" stroke="#191970" points="721.8001,-112.7867 730.9915,-107.5172 720.5201,-105.9047 721.8001,-112.7867"/>
</g>
<!-- Node15 -->
<g id="node9" class="node">
<title>Node15</title>
<g id="a_node9"><a xlink:href="classBresenhamLine.html#a10d505e30945f42a5cd0270c315b104f" target="_top" xlink:title=" ">
<polygon fill="#ffffff" stroke="#000000" points="536,-88.5 536,-107.5 656,-107.5 656,-88.5 536,-88.5"/>
<text text-anchor="middle" x="596" y="-95.5" font-family="Helvetica,sans-Serif" font-size="10.00" fill="#000000">BresenhamLine::next</text>
</a>
</g>
</g>
<!-- Node11&#45;&gt;Node15 -->
<g id="edge8" class="edge">
<title>Node11&#45;&gt;Node15</title>
<path fill="none" stroke="#191970" d="M485.0601,-116.9844C500.0949,-114.4116 515.7535,-111.732 530.4056,-109.2247"/>
<polygon fill="#191970" stroke="#191970" points="531.1022,-112.6565 540.3685,-107.5198 529.9214,-105.7568 531.1022,-112.6565"/>
</g>
<!-- Node16 -->
<g id="node10" class="node">
<title>Node16</title>
<g id="a_node10"><a xlink:href="classBresenhamLine.html#ad93a4adf0535a9b4e649bce5ade1bc5e" target="_top" xlink:title=" ">
<polygon fill="#ffffff" stroke="#000000" points="521,-39 521,-69 671,-69 671,-39 521,-39"/>
<text text-anchor="start" x="529" y="-57" font-family="Helvetica,sans-Serif" font-size="10.00" fill="#000000">BresenhamLine::getCurrent</text>
<text text-anchor="middle" x="596" y="-46" font-family="Helvetica,sans-Serif" font-size="10.00" fill="#000000">Length</text>
</a>
</g>
</g>
<!-- Node11&#45;&gt;Node16 -->
<g id="edge10" class="edge">
<title>Node11&#45;&gt;Node16</title>
<path fill="none" stroke="#191970" d="M461.7809,-114.9864C469.7275,-112.0585 477.6996,-108.7234 485,-105 502.5818,-96.0327 503.436,-88.002 521,-79 525.2788,-76.807 529.791,-74.746 534.3926,-72.822"/>
<polygon fill="#191970" stroke="#191970" points="535.8981,-75.9908 543.9174,-69.0668 533.3305,-69.4786 535.8981,-75.9908"/>
</g>
<!-- Node14 -->
<g id="node8" class="node">
<title>Node14</title>
<g id="a_node8"><a xlink:href="structPixel.html#a816d743559e2ac5b35c9c79ac517ad0a" target="_top" xlink:title=" ">
<polygon fill="#ffffff" stroke="#000000" points="882,-88.5 882,-107.5 968,-107.5 968,-88.5 882,-88.5"/>
<text text-anchor="middle" x="925" y="-95.5" font-family="Helvetica,sans-Serif" font-size="10.00" fill="#000000">Pixel::inRange</text>
</a>
</g>
</g>
<!-- Node13&#45;&gt;Node14 -->
<g id="edge7" class="edge">
<title>Node13&#45;&gt;Node14</title>
<path fill="none" stroke="#191970" d="M846.4016,-98C854.8647,-98 863.4033,-98 871.5758,-98"/>
<polygon fill="#191970" stroke="#191970" points="871.6984,-101.5001 881.6984,-98 871.6984,-94.5001 871.6984,-101.5001"/>
</g>
<!-- Node15&#45;&gt;Node13 -->
<g id="edge9" class="edge">
<title>Node15&#45;&gt;Node13</title>
<path fill="none" stroke="#191970" d="M656.1039,-98C669.0978,-98 683.0336,-98 696.6494,-98"/>
<polygon fill="#191970" stroke="#191970" points="696.9783,-101.5001 706.9782,-98 696.9782,-94.5001 696.9783,-101.5001"/>
</g>
<!-- Node18&#45;&gt;Node13 -->
<g id="edge15" class="edge">
<title>Node18&#45;&gt;Node13</title>
<path fill="none" stroke="#191970" d="M459.2418,-77.739C468.1764,-75.0883 477.1318,-71.5964 485,-67 505.088,-55.2652 499.6287,-38.1925 521,-29 582.2417,-2.658 607.1095,-9.962 671,-29 705.5025,-39.281 739.2255,-64.8399 758.9245,-81.7971"/>
<polygon fill="#191970" stroke="#191970" points="756.6597,-84.4664 766.4697,-88.4682 761.2964,-79.2222 756.6597,-84.4664"/>
</g>
<!-- Node18&#45;&gt;Node15 -->
<g id="edge17" class="edge">
<title>Node18&#45;&gt;Node15</title>
<path fill="none" stroke="#191970" d="M459.1126,-89.2158C479.565,-90.5282 503.5762,-92.0691 525.7298,-93.4907"/>
<polygon fill="#191970" stroke="#191970" points="525.5547,-96.9866 535.7584,-94.1342 526.0031,-90.0009 525.5547,-96.9866"/>
</g>
<!-- Node18&#45;&gt;Node16 -->
<g id="edge16" class="edge">
<title>Node18&#45;&gt;Node16</title>
<path fill="none" stroke="#191970" d="M459.1126,-77.4246C474.9391,-74.7163 492.8967,-71.6433 510.4756,-68.6352"/>
<polygon fill="#191970" stroke="#191970" points="511.4966,-72.0114 520.763,-66.8748 510.3159,-65.1117 511.4966,-72.0114"/>
</g>
</g>
</svg>
