<?xml version="1.0" encoding="UTF-8" standalone="no"?>
<!DOCTYPE svg PUBLIC "-//W3C//DTD SVG 1.1//EN"
 "http://www.w3.org/Graphics/SVG/1.1/DTD/svg11.dtd">
<!-- Generated by graphviz version 2.40.1 (20161225.0304)
 -->
<!-- Title: Angle::getIndex Pages: 1 -->
<svg width="275pt" height="78pt"
 viewBox="0.00 0.00 275.00 77.50" xmlns="http://www.w3.org/2000/svg" xmlns:xlink="http://www.w3.org/1999/xlink">
<g id="graph0" class="graph" transform="scale(1 1) rotate(0) translate(4 73.5)">
<title>Angle::getIndex</title>
<polygon fill="#ffffff" stroke="transparent" points="-4,4 -4,-73.5 271,-73.5 271,4 -4,4"/>
<!-- Node37 -->
<g id="node1" class="node">
<title>Node37</title>
<g id="a_node1"><a xlink:title=" ">
<polygon fill="#bfbfbf" stroke="#000000" points="174,-28 174,-47 267,-47 267,-28 174,-28"/>
<text text-anchor="middle" x="220.5" y="-35" font-family="Helvetica,sans-Serif" font-size="10.00" fill="#000000">Angle::getIndex</text>
</a>
</g>
</g>
<!-- Node38 -->
<g id="node2" class="node">
<title>Node38</title>
<g id="a_node2"><a xlink:href="classAngle.html#a90a26814a60b92e152667b921ef542a4" target="_top" xlink:title=" ">
<polygon fill="#ffffff" stroke="#000000" points="9.5,-50 9.5,-69 128.5,-69 128.5,-50 9.5,-50"/>
<text text-anchor="middle" x="69" y="-57" font-family="Helvetica,sans-Serif" font-size="10.00" fill="#000000">Angle&lt; 360 &gt;::Angle</text>
</a>
</g>
</g>
<!-- Node37&#45;&gt;Node38 -->
<g id="edge1" class="edge">
<title>Node37&#45;&gt;Node38</title>
<path fill="none" stroke="#191970" d="M163.8973,-45.7195C152.401,-47.389 140.2751,-49.1498 128.6763,-50.8341"/>
<polygon fill="#191970" stroke="#191970" points="164.4156,-49.1811 173.8088,-44.2802 163.4096,-42.2537 164.4156,-49.1811"/>
</g>
<!-- Node39 -->
<g id="node3" class="node">
<title>Node39</title>
<g id="a_node3"><a xlink:href="classGridFinder.html#afcc1eed83ee0292966c3c80883069634" target="_top" xlink:title="Similar to findLineAngle, but is more accurate, because it uses the average of the range of angles wi...">
<polygon fill="#ffffff" stroke="#000000" points="0,-.5 0,-30.5 138,-30.5 138,-.5 0,-.5"/>
<text text-anchor="start" x="8" y="-18.5" font-family="Helvetica,sans-Serif" font-size="10.00" fill="#000000">GridFinder::findLineAngle</text>
<text text-anchor="middle" x="69" y="-7.5" font-family="Helvetica,sans-Serif" font-size="10.00" fill="#000000">AccurateRange</text>
</a>
</g>
</g>
<!-- Node37&#45;&gt;Node39 -->
<g id="edge2" class="edge">
<title>Node37&#45;&gt;Node39</title>
<path fill="none" stroke="#191970" d="M163.7825,-29.2638C155.403,-28.047 146.6913,-26.7819 138.0947,-25.5336"/>
<polygon fill="#191970" stroke="#191970" points="163.4096,-32.7463 173.8088,-30.7198 164.4156,-25.8189 163.4096,-32.7463"/>
</g>
</g>
</svg>
