<?xml version="1.0" encoding="UTF-8" standalone="no"?>
<!DOCTYPE svg PUBLIC "-//W3C//DTD SVG 1.1//EN"
 "http://www.w3.org/Graphics/SVG/1.1/DTD/svg11.dtd">
<!-- Generated by graphviz version 2.40.1 (20161225.0304)
 -->
<!-- Title: GridFinder::hough Pages: 1 -->
<svg width="593pt" height="135pt"
 viewBox="0.00 0.00 593.00 135.40" xmlns="http://www.w3.org/2000/svg" xmlns:xlink="http://www.w3.org/1999/xlink">
<g id="graph0" class="graph" transform="scale(1 1) rotate(0) translate(4 131.3993)">
<title>GridFinder::hough</title>
<polygon fill="#ffffff" stroke="transparent" points="-4,4 -4,-131.3993 589,-131.3993 589,4 -4,4"/>
<!-- Node236 -->
<g id="node1" class="node">
<title>Node236</title>
<g id="a_node1"><a xlink:title="Starting from the given pixel, move in the direction of the given angle, and count the number of whit...">
<polygon fill="#bfbfbf" stroke="#000000" points="0,-69 0,-88 102,-88 102,-69 0,-69"/>
<text text-anchor="middle" x="51" y="-76" font-family="Helvetica,sans-Serif" font-size="10.00" fill="#000000">GridFinder::hough</text>
</a>
</g>
</g>
<!-- Node237 -->
<g id="node2" class="node">
<title>Node237</title>
<g id="a_node2"><a xlink:href="classBresenhamLine.html#aba0822ee20811d67cd9539ccbe1cd346" target="_top" xlink:title=" ">
<polygon fill="#ffffff" stroke="#000000" points="324,-107 324,-126 463,-126 463,-107 324,-107"/>
<text text-anchor="middle" x="393.5" y="-114" font-family="Helvetica,sans-Serif" font-size="10.00" fill="#000000">BresenhamLine::hasNext</text>
</a>
</g>
</g>
<!-- Node236&#45;&gt;Node237 -->
<g id="edge1" class="edge">
<title>Node236&#45;&gt;Node237</title>
<path fill="none" stroke="#191970" d="M67.3191,-88.0737C84.3107,-97.4435 112.0244,-111.0746 138,-116.5 195.8864,-128.5904 262.7728,-128.0883 313.5869,-124.8303"/>
<polygon fill="#191970" stroke="#191970" points="314.1173,-128.3021 323.8522,-124.1209 313.6346,-121.3188 314.1173,-128.3021"/>
</g>
<!-- Node239 -->
<g id="node4" class="node">
<title>Node239</title>
<g id="a_node4"><a xlink:href="classBresenhamLine.html#a10d505e30945f42a5cd0270c315b104f" target="_top" xlink:title=" ">
<polygon fill="#ffffff" stroke="#000000" points="153,-88 153,-107 273,-107 273,-88 153,-88"/>
<text text-anchor="middle" x="213" y="-95" font-family="Helvetica,sans-Serif" font-size="10.00" fill="#000000">BresenhamLine::next</text>
</a>
</g>
</g>
<!-- Node236&#45;&gt;Node239 -->
<g id="edge3" class="edge">
<title>Node236&#45;&gt;Node239</title>
<path fill="none" stroke="#191970" d="M102.2578,-84.5117C115.037,-86.0105 128.9631,-87.6438 142.4921,-89.2306"/>
<polygon fill="#191970" stroke="#191970" points="142.3951,-92.7431 152.7347,-90.4319 143.2106,-85.7907 142.3951,-92.7431"/>
</g>
<!-- Node240 -->
<g id="node5" class="node">
<title>Node240</title>
<g id="a_node5"><a xlink:href="classGridFinder.html#a53cfbafaf3cd06baac2a19eeee0cfb73" target="_top" xlink:title="Get the value of the given pixel.">
<polygon fill="#ffffff" stroke="#000000" points="169,-50 169,-69 257,-69 257,-50 169,-50"/>
<text text-anchor="middle" x="213" y="-57" font-family="Helvetica,sans-Serif" font-size="10.00" fill="#000000">GridFinder::get</text>
</a>
</g>
</g>
<!-- Node236&#45;&gt;Node240 -->
<g id="edge5" class="edge">
<title>Node236&#45;&gt;Node240</title>
<path fill="none" stroke="#191970" d="M102.2578,-72.4883C120.2414,-70.3791 140.4964,-68.0035 158.7195,-65.8662"/>
<polygon fill="#191970" stroke="#191970" points="159.3691,-69.3141 168.8933,-64.673 158.5537,-62.3618 159.3691,-69.3141"/>
</g>
<!-- Node241 -->
<g id="node6" class="node">
<title>Node241</title>
<g id="a_node6"><a xlink:href="classBresenhamLine.html#ad93a4adf0535a9b4e649bce5ade1bc5e" target="_top" xlink:title=" ">
<polygon fill="#ffffff" stroke="#000000" points="138,-.5 138,-30.5 288,-30.5 288,-.5 138,-.5"/>
<text text-anchor="start" x="146" y="-18.5" font-family="Helvetica,sans-Serif" font-size="10.00" fill="#000000">BresenhamLine::getCurrent</text>
<text text-anchor="middle" x="213" y="-7.5" font-family="Helvetica,sans-Serif" font-size="10.00" fill="#000000">Length</text>
</a>
</g>
</g>
<!-- Node236&#45;&gt;Node241 -->
<g id="edge6" class="edge">
<title>Node236&#45;&gt;Node241</title>
<path fill="none" stroke="#191970" d="M71.5252,-68.9104C89.0188,-60.8884 114.9213,-49.366 138,-40.5 143.8016,-38.2713 149.8972,-36.0488 156.0015,-33.9001"/>
<polygon fill="#191970" stroke="#191970" points="157.2533,-37.1707 165.5599,-30.5941 154.9651,-30.5552 157.2533,-37.1707"/>
</g>
<!-- Node238 -->
<g id="node3" class="node">
<title>Node238</title>
<g id="a_node3"><a xlink:href="structPixel.html#a816d743559e2ac5b35c9c79ac517ad0a" target="_top" xlink:title=" ">
<polygon fill="#ffffff" stroke="#000000" points="499,-107 499,-126 585,-126 585,-107 499,-107"/>
<text text-anchor="middle" x="542" y="-114" font-family="Helvetica,sans-Serif" font-size="10.00" fill="#000000">Pixel::inRange</text>
</a>
</g>
</g>
<!-- Node237&#45;&gt;Node238 -->
<g id="edge2" class="edge">
<title>Node237&#45;&gt;Node238</title>
<path fill="none" stroke="#191970" d="M463.4016,-116.5C471.8647,-116.5 480.4033,-116.5 488.5758,-116.5"/>
<polygon fill="#191970" stroke="#191970" points="488.6984,-120.0001 498.6984,-116.5 488.6984,-113.0001 488.6984,-120.0001"/>
</g>
<!-- Node239&#45;&gt;Node237 -->
<g id="edge4" class="edge">
<title>Node239&#45;&gt;Node237</title>
<path fill="none" stroke="#191970" d="M273.1039,-103.8267C286.0978,-105.1945 300.0336,-106.6614 313.6494,-108.0947"/>
<polygon fill="#191970" stroke="#191970" points="313.6667,-111.6158 323.9782,-109.1819 314.3996,-104.6542 313.6667,-111.6158"/>
</g>
</g>
</svg>
