<?xml version="1.0" encoding="UTF-8" standalone="no"?>
<!DOCTYPE svg PUBLIC "-//W3C//DTD SVG 1.1//EN"
 "http://www.w3.org/Graphics/SVG/1.1/DTD/svg11.dtd">
<!-- Generated by graphviz version 2.40.1 (20161225.0304)
 -->
<!-- Title: GridFinder::getMiddle Pages: 1 -->
<svg width="799pt" height="230pt"
 viewBox="0.00 0.00 799.00 230.00" xmlns="http://www.w3.org/2000/svg" xmlns:xlink="http://www.w3.org/1999/xlink">
<g id="graph0" class="graph" transform="scale(1 1) rotate(0) translate(4 226)">
<title>GridFinder::getMiddle</title>
<polygon fill="#ffffff" stroke="transparent" points="-4,4 -4,-226 795,-226 795,4 -4,4"/>
<!-- Node189 -->
<g id="node1" class="node">
<title>Node189</title>
<g id="a_node1"><a xlink:title="Find the middle of a line.">
<polygon fill="#bfbfbf" stroke="#000000" points="0,-98.5 0,-117.5 120,-117.5 120,-98.5 0,-98.5"/>
<text text-anchor="middle" x="60" y="-105.5" font-family="Helvetica,sans-Serif" font-size="10.00" fill="#000000">GridFinder::getMiddle</text>
</a>
</g>
</g>
<!-- Node190 -->
<g id="node2" class="node">
<title>Node190</title>
<g id="a_node2"><a xlink:href="classGridFinder.html#a53cfbafaf3cd06baac2a19eeee0cfb73" target="_top" xlink:title="Get the value of the given pixel.">
<polygon fill="#ffffff" stroke="#000000" points="375,-202.5 375,-221.5 463,-221.5 463,-202.5 375,-202.5"/>
<text text-anchor="middle" x="419" y="-209.5" font-family="Helvetica,sans-Serif" font-size="10.00" fill="#000000">GridFinder::get</text>
</a>
</g>
</g>
<!-- Node189&#45;&gt;Node190 -->
<g id="edge1" class="edge">
<title>Node189&#45;&gt;Node190</title>
<path fill="none" stroke="#191970" d="M69.3197,-117.5533C85.3764,-133.3488 120.0125,-164.5923 156,-179 224.4294,-206.396 310.1891,-212.4283 364.8029,-213.1058"/>
<polygon fill="#191970" stroke="#191970" points="364.9378,-216.6067 374.9612,-213.1744 364.9851,-209.6069 364.9378,-216.6067"/>
</g>
<!-- Node191 -->
<g id="node3" class="node">
<title>Node191</title>
<g id="a_node3"><a xlink:href="structCosSin.html#a4c63ac2c483b5caa4012f8c27d58dd96" target="_top" xlink:title=" ">
<polygon fill="#ffffff" stroke="#000000" points="183,-38.5 183,-57.5 281,-57.5 281,-38.5 183,-38.5"/>
<text text-anchor="middle" x="232" y="-45.5" font-family="Helvetica,sans-Serif" font-size="10.00" fill="#000000">CosSin::opposite</text>
</a>
</g>
</g>
<!-- Node189&#45;&gt;Node191 -->
<g id="edge2" class="edge">
<title>Node189&#45;&gt;Node191</title>
<path fill="none" stroke="#191970" d="M79.8664,-98.4154C99.0335,-89.4331 129.03,-76.0666 156,-67 163.3421,-64.5318 171.179,-62.2213 178.927,-60.1207"/>
<polygon fill="#191970" stroke="#191970" points="179.8619,-63.494 188.6498,-57.576 178.0894,-56.7221 179.8619,-63.494"/>
</g>
<!-- Node192 -->
<g id="node4" class="node">
<title>Node192</title>
<g id="a_node4"><a xlink:href="classGridFinder.html#a83b31c2192a137e56e91d13661f1c658" target="_top" xlink:title="Get the width of the line at a given point.">
<polygon fill="#ffffff" stroke="#000000" points="156,-115 156,-145 308,-145 308,-115 156,-115"/>
<text text-anchor="start" x="164" y="-133" font-family="Helvetica,sans-Serif" font-size="10.00" fill="#000000">GridFinder::getWidthAtPoint</text>
<text text-anchor="middle" x="232" y="-122" font-family="Helvetica,sans-Serif" font-size="10.00" fill="#000000">OnLine</text>
</a>
</g>
</g>
<!-- Node189&#45;&gt;Node192 -->
<g id="edge3" class="edge">
<title>Node189&#45;&gt;Node192</title>
<path fill="none" stroke="#191970" d="M120.1573,-115.6945C128.4431,-116.7543 137.0817,-117.8593 145.7241,-118.9647"/>
<polygon fill="#191970" stroke="#191970" points="145.4869,-122.4628 155.8502,-120.2599 146.3751,-115.5194 145.4869,-122.4628"/>
</g>
<!-- Node193 -->
<g id="node5" class="node">
<title>Node193</title>
<g id="a_node5"><a xlink:href="structCosSin.html#adb1d000cc58879b65a63fac849408bfe" target="_top" xlink:title=" ">
<polygon fill="#ffffff" stroke="#000000" points="358,-164.5 358,-183.5 480,-183.5 480,-164.5 358,-164.5"/>
<text text-anchor="middle" x="419" y="-171.5" font-family="Helvetica,sans-Serif" font-size="10.00" fill="#000000">CosSin::perpendicular</text>
</a>
</g>
</g>
<!-- Node189&#45;&gt;Node193 -->
<g id="edge12" class="edge">
<title>Node189&#45;&gt;Node193</title>
<path fill="none" stroke="#191970" d="M74.9115,-117.5648C93.2032,-128.7493 125.5437,-146.7772 156,-155 219.3185,-172.0951 294.1358,-176.0068 347.7509,-176.1369"/>
<polygon fill="#191970" stroke="#191970" points="347.8511,-179.6368 357.8443,-176.1174 347.8375,-172.6368 347.8511,-179.6368"/>
</g>
<!-- Node198 -->
<g id="node10" class="node">
<title>Node198</title>
<g id="a_node10"><a xlink:href="Array_8hpp.html#a54bae1a9c86ad6bc491b4f10495a759f" target="_top" xlink:title=" ">
<polygon fill="#ffffff" stroke="#000000" points="215,-.5 215,-19.5 249,-19.5 249,-.5 215,-.5"/>
<text text-anchor="middle" x="232" y="-7.5" font-family="Helvetica,sans-Serif" font-size="10.00" fill="#000000">abs</text>
</a>
</g>
</g>
<!-- Node189&#45;&gt;Node198 -->
<g id="edge11" class="edge">
<title>Node189&#45;&gt;Node198</title>
<path fill="none" stroke="#191970" d="M68.799,-98.371C84.6052,-81.6688 119.5694,-47.3577 156,-29 171.2466,-21.3171 189.8148,-16.6004 204.781,-13.7882"/>
<polygon fill="#191970" stroke="#191970" points="205.6706,-17.1874 214.9432,-12.062 204.4982,-10.2862 205.6706,-17.1874"/>
</g>
<!-- Node199 -->
<g id="node11" class="node">
<title>Node199</title>
<g id="a_node11"><a xlink:href="classGridFinder.html#a9b31ec7807efc6e1fde49f5a56c0d0fa" target="_top" xlink:title="Move a pixel in a given direction for a given distance.">
<polygon fill="#ffffff" stroke="#000000" points="182,-76.5 182,-95.5 282,-95.5 282,-76.5 182,-76.5"/>
<text text-anchor="middle" x="232" y="-83.5" font-family="Helvetica,sans-Serif" font-size="10.00" fill="#000000">GridFinder::move</text>
</a>
</g>
</g>
<!-- Node189&#45;&gt;Node199 -->
<g id="edge13" class="edge">
<title>Node189&#45;&gt;Node199</title>
<path fill="none" stroke="#191970" d="M120.1573,-100.3055C136.8439,-98.1711 154.9615,-95.8538 171.6587,-93.7181"/>
<polygon fill="#191970" stroke="#191970" points="172.3709,-97.1556 181.846,-92.4151 171.4827,-90.2122 172.3709,-97.1556"/>
</g>
<!-- Node192&#45;&gt;Node190 -->
<g id="edge10" class="edge">
<title>Node192&#45;&gt;Node190</title>
<path fill="none" stroke="#191970" d="M254.7023,-145.1456C276.7199,-159.2501 311.4759,-180 344,-193 350.6885,-195.6734 357.8658,-198.0605 365.0336,-200.1639"/>
<polygon fill="#191970" stroke="#191970" points="364.1838,-203.5603 374.7553,-202.8567 366.0524,-196.8143 364.1838,-203.5603"/>
</g>
<!-- Node192&#45;&gt;Node193 -->
<g id="edge4" class="edge">
<title>Node192&#45;&gt;Node193</title>
<path fill="none" stroke="#191970" d="M295.8318,-145.0192C319.5959,-150.6108 346.2125,-156.8735 368.6059,-162.1426"/>
<polygon fill="#191970" stroke="#191970" points="368.0364,-165.6041 378.5722,-164.4876 369.6397,-158.7902 368.0364,-165.6041"/>
</g>
<!-- Node194 -->
<g id="node6" class="node">
<title>Node194</title>
<g id="a_node6"><a xlink:href="classBresenhamLine.html#aba0822ee20811d67cd9539ccbe1cd346" target="_top" xlink:title=" ">
<polygon fill="#ffffff" stroke="#000000" points="530,-88.5 530,-107.5 669,-107.5 669,-88.5 530,-88.5"/>
<text text-anchor="middle" x="599.5" y="-95.5" font-family="Helvetica,sans-Serif" font-size="10.00" fill="#000000">BresenhamLine::hasNext</text>
</a>
</g>
</g>
<!-- Node192&#45;&gt;Node194 -->
<g id="edge5" class="edge">
<title>Node192&#45;&gt;Node194</title>
<path fill="none" stroke="#191970" d="M308.1655,-128.8043C360.5612,-127.3498 431.6722,-124.1288 494,-117 510.2294,-115.1437 527.732,-112.3268 543.7269,-109.4262"/>
<polygon fill="#191970" stroke="#191970" points="544.8001,-112.7867 553.9915,-107.5172 543.5201,-105.9047 544.8001,-112.7867"/>
</g>
<!-- Node196 -->
<g id="node8" class="node">
<title>Node196</title>
<g id="a_node8"><a xlink:href="classBresenhamLine.html#a10d505e30945f42a5cd0270c315b104f" target="_top" xlink:title=" ">
<polygon fill="#ffffff" stroke="#000000" points="359,-88.5 359,-107.5 479,-107.5 479,-88.5 359,-88.5"/>
<text text-anchor="middle" x="419" y="-95.5" font-family="Helvetica,sans-Serif" font-size="10.00" fill="#000000">BresenhamLine::next</text>
</a>
</g>
</g>
<!-- Node192&#45;&gt;Node196 -->
<g id="edge7" class="edge">
<title>Node192&#45;&gt;Node196</title>
<path fill="none" stroke="#191970" d="M308.0601,-116.9844C323.0949,-114.4116 338.7535,-111.732 353.4056,-109.2247"/>
<polygon fill="#191970" stroke="#191970" points="354.1022,-112.6565 363.3685,-107.5198 352.9214,-105.7568 354.1022,-112.6565"/>
</g>
<!-- Node197 -->
<g id="node9" class="node">
<title>Node197</title>
<g id="a_node9"><a xlink:href="classBresenhamLine.html#ad93a4adf0535a9b4e649bce5ade1bc5e" target="_top" xlink:title=" ">
<polygon fill="#ffffff" stroke="#000000" points="344,-39 344,-69 494,-69 494,-39 344,-39"/>
<text text-anchor="start" x="352" y="-57" font-family="Helvetica,sans-Serif" font-size="10.00" fill="#000000">BresenhamLine::getCurrent</text>
<text text-anchor="middle" x="419" y="-46" font-family="Helvetica,sans-Serif" font-size="10.00" fill="#000000">Length</text>
</a>
</g>
</g>
<!-- Node192&#45;&gt;Node197 -->
<g id="edge9" class="edge">
<title>Node192&#45;&gt;Node197</title>
<path fill="none" stroke="#191970" d="M284.7809,-114.9864C292.7275,-112.0585 300.6996,-108.7234 308,-105 325.5818,-96.0327 326.436,-88.002 344,-79 348.2788,-76.807 352.791,-74.746 357.3926,-72.822"/>
<polygon fill="#191970" stroke="#191970" points="358.8981,-75.9908 366.9174,-69.0668 356.3305,-69.4786 358.8981,-75.9908"/>
</g>
<!-- Node195 -->
<g id="node7" class="node">
<title>Node195</title>
<g id="a_node7"><a xlink:href="structPixel.html#a816d743559e2ac5b35c9c79ac517ad0a" target="_top" xlink:title=" ">
<polygon fill="#ffffff" stroke="#000000" points="705,-88.5 705,-107.5 791,-107.5 791,-88.5 705,-88.5"/>
<text text-anchor="middle" x="748" y="-95.5" font-family="Helvetica,sans-Serif" font-size="10.00" fill="#000000">Pixel::inRange</text>
</a>
</g>
</g>
<!-- Node194&#45;&gt;Node195 -->
<g id="edge6" class="edge">
<title>Node194&#45;&gt;Node195</title>
<path fill="none" stroke="#191970" d="M669.4016,-98C677.8647,-98 686.4033,-98 694.5758,-98"/>
<polygon fill="#191970" stroke="#191970" points="694.6984,-101.5001 704.6984,-98 694.6984,-94.5001 694.6984,-101.5001"/>
</g>
<!-- Node196&#45;&gt;Node194 -->
<g id="edge8" class="edge">
<title>Node196&#45;&gt;Node194</title>
<path fill="none" stroke="#191970" d="M479.1039,-98C492.0978,-98 506.0336,-98 519.6494,-98"/>
<polygon fill="#191970" stroke="#191970" points="519.9783,-101.5001 529.9782,-98 519.9782,-94.5001 519.9783,-101.5001"/>
</g>
<!-- Node199&#45;&gt;Node194 -->
<g id="edge14" class="edge">
<title>Node199&#45;&gt;Node194</title>
<path fill="none" stroke="#191970" d="M282.2418,-77.739C291.1764,-75.0883 300.1318,-71.5964 308,-67 328.088,-55.2652 322.6287,-38.1925 344,-29 405.2417,-2.658 430.1095,-9.962 494,-29 528.5025,-39.281 562.2255,-64.8399 581.9245,-81.7971"/>
<polygon fill="#191970" stroke="#191970" points="579.6597,-84.4664 589.4697,-88.4682 584.2964,-79.2222 579.6597,-84.4664"/>
</g>
<!-- Node199&#45;&gt;Node196 -->
<g id="edge16" class="edge">
<title>Node199&#45;&gt;Node196</title>
<path fill="none" stroke="#191970" d="M282.1126,-89.2158C302.565,-90.5282 326.5762,-92.0691 348.7298,-93.4907"/>
<polygon fill="#191970" stroke="#191970" points="348.5547,-96.9866 358.7584,-94.1342 349.0031,-90.0009 348.5547,-96.9866"/>
</g>
<!-- Node199&#45;&gt;Node197 -->
<g id="edge15" class="edge">
<title>Node199&#45;&gt;Node197</title>
<path fill="none" stroke="#191970" d="M282.1126,-77.4246C297.9391,-74.7163 315.8967,-71.6433 333.4756,-68.6352"/>
<polygon fill="#191970" stroke="#191970" points="334.4966,-72.0114 343.763,-66.8748 333.3159,-65.1117 334.4966,-72.0114"/>
</g>
</g>
</svg>
