<?xml version="1.0" encoding="UTF-8" standalone="no"?>
<!DOCTYPE svg PUBLIC "-//W3C//DTD SVG 1.1//EN"
 "http://www.w3.org/Graphics/SVG/1.1/DTD/svg11.dtd">
<!-- Generated by graphviz version 2.40.1 (20161225.0304)
 -->
<!-- Title: GridFinder::getFirstLineEstimate Pages: 1 -->
<svg width="832pt" height="88pt"
 viewBox="0.00 0.00 832.00 88.00" xmlns="http://www.w3.org/2000/svg" xmlns:xlink="http://www.w3.org/1999/xlink">
<g id="graph0" class="graph" transform="scale(1 1) rotate(0) translate(4 84)">
<title>GridFinder::getFirstLineEstimate</title>
<polygon fill="#ffffff" stroke="transparent" points="-4,4 -4,-84 828,-84 828,4 -4,4"/>
<!-- Node196 -->
<g id="node1" class="node">
<title>Node196</title>
<g id="a_node1"><a xlink:title="Get an estimate of the first line. Searches in multiple columns, starting from the center,...">
<polygon fill="#bfbfbf" stroke="#000000" points="696,-24.5 696,-54.5 824,-54.5 824,-24.5 696,-24.5"/>
<text text-anchor="start" x="704" y="-42.5" font-family="Helvetica,sans-Serif" font-size="10.00" fill="#000000">GridFinder::getFirstLine</text>
<text text-anchor="middle" x="760" y="-31.5" font-family="Helvetica,sans-Serif" font-size="10.00" fill="#000000">Estimate</text>
</a>
</g>
</g>
<!-- Node197 -->
<g id="node2" class="node">
<title>Node197</title>
<g id="a_node2"><a xlink:href="classGridFinder.html#ae84004386cbee9606f9a46872cb67be8" target="_top" xlink:title="Find the vertical range of white pixels closest to the center of the given column,...">
<polygon fill="#ffffff" stroke="#000000" points="522.5,-49.5 522.5,-79.5 650.5,-79.5 650.5,-49.5 522.5,-49.5"/>
<text text-anchor="start" x="530.5" y="-67.5" font-family="Helvetica,sans-Serif" font-size="10.00" fill="#000000">GridFinder::getFirstLine</text>
<text text-anchor="middle" x="586.5" y="-56.5" font-family="Helvetica,sans-Serif" font-size="10.00" fill="#000000">Estimate</text>
</a>
</g>
</g>
<!-- Node196&#45;&gt;Node197 -->
<g id="edge1" class="edge">
<title>Node196&#45;&gt;Node197</title>
<path fill="none" stroke="#191970" d="M685.7264,-50.2022C674.0482,-51.885 662.0619,-53.6121 650.638,-55.2582"/>
<polygon fill="#191970" stroke="#191970" points="686.4894,-53.6285 695.8879,-48.738 685.491,-46.7001 686.4894,-53.6285"/>
</g>
<!-- Node198 -->
<g id="node3" class="node">
<title>Node198</title>
<g id="a_node3"><a xlink:href="classGridFinder.html#a7c330ed1431434a4a3726c341161bf39" target="_top" xlink:title="Get the first two lines. These are the two half lines that make up the line closest to the center of ...">
<polygon fill="#ffffff" stroke="#000000" points="513,-.5 513,-30.5 660,-30.5 660,-.5 513,-.5"/>
<text text-anchor="start" x="521" y="-18.5" font-family="Helvetica,sans-Serif" font-size="10.00" fill="#000000">GridFinder::getFirstTwoHalf</text>
<text text-anchor="middle" x="586.5" y="-7.5" font-family="Helvetica,sans-Serif" font-size="10.00" fill="#000000">Lines</text>
</a>
</g>
</g>
<!-- Node196&#45;&gt;Node198 -->
<g id="edge2" class="edge">
<title>Node196&#45;&gt;Node198</title>
<path fill="none" stroke="#191970" d="M685.9138,-29.2518C677.3335,-28.0649 668.5844,-26.8546 660.0118,-25.6688"/>
<polygon fill="#191970" stroke="#191970" points="685.5027,-32.7281 695.8879,-30.6315 686.4619,-25.7942 685.5027,-32.7281"/>
</g>
<!-- Node199 -->
<g id="node4" class="node">
<title>Node199</title>
<g id="a_node4"><a xlink:href="classGridFinder.html#a8940ca681fac78274043cf5f1f1f5761" target="_top" xlink:title="This is the main function: it looks for a complete square of the grid, as close to the center of the ...">
<polygon fill="#ffffff" stroke="#000000" points="353,-6 353,-25 477,-25 477,-6 353,-6"/>
<text text-anchor="middle" x="415" y="-13" font-family="Helvetica,sans-Serif" font-size="10.00" fill="#000000">GridFinder::findSquare</text>
</a>
</g>
</g>
<!-- Node198&#45;&gt;Node199 -->
<g id="edge3" class="edge">
<title>Node198&#45;&gt;Node199</title>
<path fill="none" stroke="#191970" d="M502.6848,-15.5C494.0629,-15.5 485.4149,-15.5 477.0897,-15.5"/>
<polygon fill="#191970" stroke="#191970" points="502.7733,-19.0001 512.7733,-15.5 502.7732,-12.0001 502.7733,-19.0001"/>
</g>
<!-- Node200 -->
<g id="node5" class="node">
<title>Node200</title>
<g id="a_node5"><a xlink:href="classLocationFinder.html#af56756d038d762e04e0c91bac9fc2522" target="_top" xlink:title="Read a new frame, mask it, run GridFinder, and get the position of the drone. The position is the pos...">
<polygon fill="#ffffff" stroke="#000000" points="149,-25 149,-44 317,-44 317,-25 149,-25"/>
<text text-anchor="middle" x="233" y="-32" font-family="Helvetica,sans-Serif" font-size="10.00" fill="#000000">LocationFinder::updateLocation</text>
</a>
</g>
</g>
<!-- Node199&#45;&gt;Node200 -->
<g id="edge4" class="edge">
<title>Node199&#45;&gt;Node200</title>
<path fill="none" stroke="#191970" d="M342.7209,-23.0456C334.2884,-23.9259 325.6317,-24.8297 317.0577,-25.7247"/>
<polygon fill="#191970" stroke="#191970" points="343.2925,-26.5051 352.875,-21.9856 342.5656,-19.5429 343.2925,-26.5051"/>
</g>
<!-- Node201 -->
<g id="node6" class="node">
<title>Node201</title>
<g id="a_node6"><a xlink:href="Grid-Finder_8module_8hpp.html#a05e720af51446c0f9319fb9455fe1767" target="_top" xlink:title=" ">
<polygon fill="#ffffff" stroke="#000000" points="0,-6 0,-25 113,-25 113,-6 0,-6"/>
<text text-anchor="middle" x="56.5" y="-13" font-family="Helvetica,sans-Serif" font-size="10.00" fill="#000000">PYBIND11_MODULE</text>
</a>
</g>
</g>
<!-- Node199&#45;&gt;Node201 -->
<g id="edge6" class="edge">
<title>Node199&#45;&gt;Node201</title>
<path fill="none" stroke="#191970" d="M342.797,-15.5C275.0706,-15.5 175.1701,-15.5 113.0574,-15.5"/>
<polygon fill="#191970" stroke="#191970" points="342.9634,-19.0001 352.9633,-15.5 342.9633,-12.0001 342.9634,-19.0001"/>
</g>
<!-- Node200&#45;&gt;Node201 -->
<g id="edge5" class="edge">
<title>Node200&#45;&gt;Node201</title>
<path fill="none" stroke="#191970" d="M138.9025,-24.3705C130.0733,-23.4201 121.3225,-22.4781 113.0056,-21.5828"/>
<polygon fill="#191970" stroke="#191970" points="138.5682,-27.8547 148.8854,-25.4452 139.3175,-20.8949 138.5682,-27.8547"/>
</g>
</g>
</svg>
