<?xml version="1.0" encoding="UTF-8" standalone="no"?>
<!DOCTYPE svg PUBLIC "-//W3C//DTD SVG 1.1//EN"
 "http://www.w3.org/Graphics/SVG/1.1/DTD/svg11.dtd">
<!-- Generated by graphviz version 2.40.1 (20161225.0304)
 -->
<!-- Title: GridFinder::drawLine Pages: 1 -->
<svg width="530pt" height="75pt"
 viewBox="0.00 0.00 530.00 75.00" xmlns="http://www.w3.org/2000/svg" xmlns:xlink="http://www.w3.org/1999/xlink">
<g id="graph0" class="graph" transform="scale(1 1) rotate(0) translate(4 71)">
<title>GridFinder::drawLine</title>
<polygon fill="#ffffff" stroke="transparent" points="-4,4 -4,-71 526,-71 526,4 -4,4"/>
<!-- Node46 -->
<g id="node1" class="node">
<title>Node46</title>
<g id="a_node1"><a xlink:title="Draw a line on the mask. Used only for testing.">
<polygon fill="#bfbfbf" stroke="#000000" points="0,-28.5 0,-47.5 116,-47.5 116,-28.5 0,-28.5"/>
<text text-anchor="middle" x="58" y="-35.5" font-family="Helvetica,sans-Serif" font-size="10.00" fill="#000000">GridFinder::drawLine</text>
</a>
</g>
</g>
<!-- Node47 -->
<g id="node2" class="node">
<title>Node47</title>
<g id="a_node2"><a xlink:href="classGridFinder.html#aadfce89f171d55f954a19d700b43ff5c" target="_top" xlink:title="Get the width of the frame.">
<polygon fill="#ffffff" stroke="#000000" points="306,-47.5 306,-66.5 405,-66.5 405,-47.5 306,-47.5"/>
<text text-anchor="middle" x="355.5" y="-54.5" font-family="Helvetica,sans-Serif" font-size="10.00" fill="#000000">GridFinder::width</text>
</a>
</g>
</g>
<!-- Node46&#45;&gt;Node47 -->
<g id="edge1" class="edge">
<title>Node46&#45;&gt;Node47</title>
<path fill="none" stroke="#191970" d="M96.1541,-47.5098C113.1337,-51.2748 133.4452,-55.1436 152,-57 200.1257,-61.8151 254.9745,-61.4803 295.5935,-60.1267"/>
<polygon fill="#191970" stroke="#191970" points="295.7347,-63.6239 305.601,-59.7631 295.4805,-56.6285 295.7347,-63.6239"/>
</g>
<!-- Node49 -->
<g id="node4" class="node">
<title>Node49</title>
<g id="a_node4"><a xlink:href="classGridFinder.html#affd9ae441c8d86b1856a9ef31190e9ab" target="_top" xlink:title="Get the height of the frame.">
<polygon fill="#ffffff" stroke="#000000" points="304,-.5 304,-19.5 407,-19.5 407,-.5 304,-.5"/>
<text text-anchor="middle" x="355.5" y="-7.5" font-family="Helvetica,sans-Serif" font-size="10.00" fill="#000000">GridFinder::height</text>
</a>
</g>
</g>
<!-- Node46&#45;&gt;Node49 -->
<g id="edge3" class="edge">
<title>Node46&#45;&gt;Node49</title>
<path fill="none" stroke="#191970" d="M98.0299,-28.4825C114.6331,-24.9081 134.1518,-21.1851 152,-19 199.3069,-13.2085 253.2031,-11.0205 293.6402,-10.247"/>
<polygon fill="#191970" stroke="#191970" points="293.941,-13.7425 303.8811,-10.0757 293.8239,-6.7435 293.941,-13.7425"/>
</g>
<!-- Node51 -->
<g id="node6" class="node">
<title>Node51</title>
<g id="a_node6"><a xlink:href="classGridFinder.html#a0cb4d1d344f4830de77ecf1615878656" target="_top" xlink:title="Draw a line on the mask. Used only for testing.">
<polygon fill="#ffffff" stroke="#000000" points="152,-28.5 152,-47.5 268,-47.5 268,-28.5 152,-28.5"/>
<text text-anchor="middle" x="210" y="-35.5" font-family="Helvetica,sans-Serif" font-size="10.00" fill="#000000">GridFinder::drawLine</text>
</a>
</g>
</g>
<!-- Node46&#45;&gt;Node51 -->
<g id="edge5" class="edge">
<title>Node46&#45;&gt;Node51</title>
<path fill="none" stroke="#191970" d="M116.3325,-38C124.6057,-38 133.1747,-38 141.617,-38"/>
<polygon fill="#191970" stroke="#191970" points="141.8237,-41.5001 151.8236,-38 141.8236,-34.5001 141.8237,-41.5001"/>
</g>
<!-- Node48 -->
<g id="node3" class="node">
<title>Node48</title>
<g id="a_node3"><a xlink:href="classMask.html#a4124a2daa1f7501d4fd80775b6217679" target="_top" xlink:title="Get the width of the mask in pixels.">
<polygon fill="#ffffff" stroke="#000000" points="445,-47.5 445,-66.5 520,-66.5 520,-47.5 445,-47.5"/>
<text text-anchor="middle" x="482.5" y="-54.5" font-family="Helvetica,sans-Serif" font-size="10.00" fill="#000000">Mask::width</text>
</a>
</g>
</g>
<!-- Node47&#45;&gt;Node48 -->
<g id="edge2" class="edge">
<title>Node47&#45;&gt;Node48</title>
<path fill="none" stroke="#191970" d="M405.3293,-57C415.0255,-57 425.1682,-57 434.7939,-57"/>
<polygon fill="#191970" stroke="#191970" points="434.9904,-60.5001 444.9903,-57 434.9903,-53.5001 434.9904,-60.5001"/>
</g>
<!-- Node50 -->
<g id="node5" class="node">
<title>Node50</title>
<g id="a_node5"><a xlink:href="classMask.html#af845b7d3220b707c8b4c48bf87d045bb" target="_top" xlink:title="Get the height of the mask in pixels.">
<polygon fill="#ffffff" stroke="#000000" points="443,-.5 443,-19.5 522,-19.5 522,-.5 443,-.5"/>
<text text-anchor="middle" x="482.5" y="-7.5" font-family="Helvetica,sans-Serif" font-size="10.00" fill="#000000">Mask::height</text>
</a>
</g>
</g>
<!-- Node49&#45;&gt;Node50 -->
<g id="edge4" class="edge">
<title>Node49&#45;&gt;Node50</title>
<path fill="none" stroke="#191970" d="M407.1558,-10C415.6508,-10 424.4391,-10 432.8831,-10"/>
<polygon fill="#191970" stroke="#191970" points="432.9692,-13.5001 442.9691,-10 432.9691,-6.5001 432.9692,-13.5001"/>
</g>
<!-- Node51&#45;&gt;Node47 -->
<g id="edge6" class="edge">
<title>Node51&#45;&gt;Node47</title>
<path fill="none" stroke="#191970" d="M268.3421,-45.6185C277.3031,-46.7887 286.568,-47.9986 295.563,-49.1732"/>
<polygon fill="#191970" stroke="#191970" points="295.2044,-52.656 305.5735,-50.4804 296.1109,-45.7149 295.2044,-52.656"/>
</g>
<!-- Node51&#45;&gt;Node49 -->
<g id="edge7" class="edge">
<title>Node51&#45;&gt;Node49</title>
<path fill="none" stroke="#191970" d="M259.6659,-28.4423C271.3714,-26.1897 283.9665,-23.7659 296.0542,-21.4397"/>
<polygon fill="#191970" stroke="#191970" points="296.8995,-24.8414 306.0579,-19.5146 295.5767,-17.9675 296.8995,-24.8414"/>
</g>
</g>
</svg>
