<?xml version="1.0" encoding="UTF-8" standalone="no"?>
<!DOCTYPE svg PUBLIC "-//W3C//DTD SVG 1.1//EN"
 "http://www.w3.org/Graphics/SVG/1.1/DTD/svg11.dtd">
<!-- Generated by graphviz version 2.40.1 (20161225.0304)
 -->
<!-- Title: CenterPointOutLineIterator::hasNext Pages: 1 -->
<svg width="319pt" height="39pt"
 viewBox="0.00 0.00 319.00 39.00" xmlns="http://www.w3.org/2000/svg" xmlns:xlink="http://www.w3.org/1999/xlink">
<g id="graph0" class="graph" transform="scale(1 1) rotate(0) translate(4 35)">
<title>CenterPointOutLineIterator::hasNext</title>
<polygon fill="#ffffff" stroke="transparent" points="-4,4 -4,-35 315,-35 315,4 -4,4"/>
<!-- Node6 -->
<g id="node1" class="node">
<title>Node6</title>
<g id="a_node1"><a xlink:title=" ">
<polygon fill="#bfbfbf" stroke="#000000" points="164,-.5 164,-30.5 311,-30.5 311,-.5 164,-.5"/>
<text text-anchor="start" x="172" y="-18.5" font-family="Helvetica,sans-Serif" font-size="10.00" fill="#000000">CenterPointOutLineIterator</text>
<text text-anchor="middle" x="237.5" y="-7.5" font-family="Helvetica,sans-Serif" font-size="10.00" fill="#000000">::hasNext</text>
</a>
</g>
</g>
<!-- Node7 -->
<g id="node2" class="node">
<title>Node7</title>
<g id="a_node2"><a xlink:href="classGridFinder.html#a05628935998785212ee5320a7e146f2b" target="_top" xlink:title="Find the vertical range of white pixels closest to the center of the given column,...">
<polygon fill="#ffffff" stroke="#000000" points="0,-.5 0,-30.5 128,-30.5 128,-.5 0,-.5"/>
<text text-anchor="start" x="8" y="-18.5" font-family="Helvetica,sans-Serif" font-size="10.00" fill="#000000">GridFinder::getFirstLine</text>
<text text-anchor="middle" x="64" y="-7.5" font-family="Helvetica,sans-Serif" font-size="10.00" fill="#000000">Estimate</text>
</a>
</g>
</g>
<!-- Node6&#45;&gt;Node7 -->
<g id="edge1" class="edge">
<title>Node6&#45;&gt;Node7</title>
<path fill="none" stroke="#191970" d="M153.8079,-15.5C145.1601,-15.5 136.4717,-15.5 128.087,-15.5"/>
<polygon fill="#191970" stroke="#191970" points="153.9204,-19.0001 163.9204,-15.5 153.9203,-12.0001 153.9204,-19.0001"/>
</g>
</g>
</svg>
