<?xml version="1.0" encoding="UTF-8" standalone="no"?>
<!DOCTYPE svg PUBLIC "-//W3C//DTD SVG 1.1//EN"
 "http://www.w3.org/Graphics/SVG/1.1/DTD/svg11.dtd">
<!-- Generated by graphviz version 2.40.1 (20161225.0304)
 -->
<!-- Title: GridFinder::getWidthAtPointOnLine Pages: 1 -->
<svg width="643pt" height="286pt"
 viewBox="0.00 0.00 643.00 286.00" xmlns="http://www.w3.org/2000/svg" xmlns:xlink="http://www.w3.org/1999/xlink">
<g id="graph0" class="graph" transform="scale(1 1) rotate(0) translate(4 282)">
<title>GridFinder::getWidthAtPointOnLine</title>
<polygon fill="#ffffff" stroke="transparent" points="-4,4 -4,-282 639,-282 639,4 -4,4"/>
<!-- Node287 -->
<g id="node1" class="node">
<title>Node287</title>
<g id="a_node1"><a xlink:title="Get the width of the line at a given point.">
<polygon fill="#bfbfbf" stroke="#000000" points="0,-139 0,-169 152,-169 152,-139 0,-139"/>
<text text-anchor="start" x="8" y="-157" font-family="Helvetica,sans-Serif" font-size="10.00" fill="#000000">GridFinder::getWidthAtPoint</text>
<text text-anchor="middle" x="76" y="-146" font-family="Helvetica,sans-Serif" font-size="10.00" fill="#000000">OnLine</text>
</a>
</g>
</g>
<!-- Node288 -->
<g id="node2" class="node">
<title>Node288</title>
<g id="a_node2"><a xlink:href="classGridFinder.html#aadfce89f171d55f954a19d700b43ff5c" target="_top" xlink:title="Get the width of the frame.">
<polygon fill="#ffffff" stroke="#000000" points="213.5,-258.5 213.5,-277.5 312.5,-277.5 312.5,-258.5 213.5,-258.5"/>
<text text-anchor="middle" x="263" y="-265.5" font-family="Helvetica,sans-Serif" font-size="10.00" fill="#000000">GridFinder::width</text>
</a>
</g>
</g>
<!-- Node287&#45;&gt;Node288 -->
<g id="edge1" class="edge">
<title>Node287&#45;&gt;Node288</title>
<path fill="none" stroke="#191970" d="M89.6204,-169.2941C109.2678,-190.4037 147.6557,-228.212 188,-249 192.9254,-251.5379 198.2108,-253.7512 203.6122,-255.6786"/>
<polygon fill="#191970" stroke="#191970" points="202.8158,-259.0995 213.4076,-258.8477 204.9705,-252.4394 202.8158,-259.0995"/>
</g>
<!-- Node290 -->
<g id="node4" class="node">
<title>Node290</title>
<g id="a_node4"><a xlink:href="classGridFinder.html#affd9ae441c8d86b1856a9ef31190e9ab" target="_top" xlink:title="Get the height of the frame.">
<polygon fill="#ffffff" stroke="#000000" points="211.5,-220.5 211.5,-239.5 314.5,-239.5 314.5,-220.5 211.5,-220.5"/>
<text text-anchor="middle" x="263" y="-227.5" font-family="Helvetica,sans-Serif" font-size="10.00" fill="#000000">GridFinder::height</text>
</a>
</g>
</g>
<!-- Node287&#45;&gt;Node290 -->
<g id="edge3" class="edge">
<title>Node287&#45;&gt;Node290</title>
<path fill="none" stroke="#191970" d="M101.5045,-169.0526C123.7355,-181.6628 157.1606,-199.4117 188,-211 194.505,-213.4443 201.4437,-215.6767 208.3753,-217.6829"/>
<polygon fill="#191970" stroke="#191970" points="207.9043,-221.1832 218.4744,-220.4587 209.7596,-214.4335 207.9043,-221.1832"/>
</g>
<!-- Node292 -->
<g id="node6" class="node">
<title>Node292</title>
<g id="a_node6"><a xlink:href="structCosSin.html#adb1d000cc58879b65a63fac849408bfe" target="_top" xlink:title=" ">
<polygon fill="#ffffff" stroke="#000000" points="202,-182.5 202,-201.5 324,-201.5 324,-182.5 202,-182.5"/>
<text text-anchor="middle" x="263" y="-189.5" font-family="Helvetica,sans-Serif" font-size="10.00" fill="#000000">CosSin::perpendicular</text>
</a>
</g>
</g>
<!-- Node287&#45;&gt;Node292 -->
<g id="edge5" class="edge">
<title>Node287&#45;&gt;Node292</title>
<path fill="none" stroke="#191970" d="M149.9074,-169.0186C168.5969,-172.8165 188.3799,-176.8366 206.085,-180.4344"/>
<polygon fill="#191970" stroke="#191970" points="205.7487,-183.9375 216.2455,-182.4991 207.1428,-177.0777 205.7487,-183.9375"/>
</g>
<!-- Node293 -->
<g id="node7" class="node">
<title>Node293</title>
<g id="a_node7"><a xlink:href="classBresenhamLine.html#aba0822ee20811d67cd9539ccbe1cd346" target="_top" xlink:title=" ">
<polygon fill="#ffffff" stroke="#000000" points="374,-125.5 374,-144.5 513,-144.5 513,-125.5 374,-125.5"/>
<text text-anchor="middle" x="443.5" y="-132.5" font-family="Helvetica,sans-Serif" font-size="10.00" fill="#000000">BresenhamLine::hasNext</text>
</a>
</g>
</g>
<!-- Node287&#45;&gt;Node293 -->
<g id="edge6" class="edge">
<title>Node287&#45;&gt;Node293</title>
<path fill="none" stroke="#191970" d="M152.1462,-150.0632C213.9834,-146.8662 300.9236,-142.3713 363.7184,-139.1248"/>
<polygon fill="#191970" stroke="#191970" points="364.1668,-142.6063 373.9727,-138.5946 363.8053,-135.6157 364.1668,-142.6063"/>
</g>
<!-- Node295 -->
<g id="node9" class="node">
<title>Node295</title>
<g id="a_node9"><a xlink:href="classBresenhamLine.html#a10d505e30945f42a5cd0270c315b104f" target="_top" xlink:title=" ">
<polygon fill="#ffffff" stroke="#000000" points="203,-106.5 203,-125.5 323,-125.5 323,-106.5 203,-106.5"/>
<text text-anchor="middle" x="263" y="-113.5" font-family="Helvetica,sans-Serif" font-size="10.00" fill="#000000">BresenhamLine::next</text>
</a>
</g>
</g>
<!-- Node287&#45;&gt;Node295 -->
<g id="edge8" class="edge">
<title>Node287&#45;&gt;Node295</title>
<path fill="none" stroke="#191970" d="M149.9074,-138.9814C168.5969,-135.1835 188.3799,-131.1634 206.085,-127.5656"/>
<polygon fill="#191970" stroke="#191970" points="207.1428,-130.9223 216.2455,-125.5009 205.7487,-124.0625 207.1428,-130.9223"/>
</g>
<!-- Node296 -->
<g id="node10" class="node">
<title>Node296</title>
<g id="a_node10"><a xlink:href="classBresenhamLine.html#ad93a4adf0535a9b4e649bce5ade1bc5e" target="_top" xlink:title=" ">
<polygon fill="#ffffff" stroke="#000000" points="188,-57 188,-87 338,-87 338,-57 188,-57"/>
<text text-anchor="start" x="196" y="-75" font-family="Helvetica,sans-Serif" font-size="10.00" fill="#000000">BresenhamLine::getCurrent</text>
<text text-anchor="middle" x="263" y="-64" font-family="Helvetica,sans-Serif" font-size="10.00" fill="#000000">Length</text>
</a>
</g>
</g>
<!-- Node287&#45;&gt;Node296 -->
<g id="edge10" class="edge">
<title>Node287&#45;&gt;Node296</title>
<path fill="none" stroke="#191970" d="M103.0769,-138.7798C125.4327,-126.5667 158.2119,-109.463 188,-97 193.3535,-94.7602 198.9845,-92.5782 204.6552,-90.4962"/>
<polygon fill="#191970" stroke="#191970" points="205.9513,-93.75 214.1944,-87.094 203.5997,-87.1568 205.9513,-93.75"/>
</g>
<!-- Node297 -->
<g id="node11" class="node">
<title>Node297</title>
<g id="a_node11"><a xlink:href="classGridFinder.html#afbed8951f70923626b73abdbe05236da" target="_top" xlink:title="Get the value of the given pixel.">
<polygon fill="#ffffff" stroke="#000000" points="219,-.5 219,-19.5 307,-19.5 307,-.5 219,-.5"/>
<text text-anchor="middle" x="263" y="-7.5" font-family="Helvetica,sans-Serif" font-size="10.00" fill="#000000">GridFinder::get</text>
</a>
</g>
</g>
<!-- Node287&#45;&gt;Node297 -->
<g id="edge11" class="edge">
<title>Node287&#45;&gt;Node297</title>
<path fill="none" stroke="#191970" d="M89.2652,-138.6445C109.0789,-116.374 148.3368,-74.7471 188,-47 200.8283,-38.0258 216.1558,-30.0472 229.6014,-23.8178"/>
<polygon fill="#191970" stroke="#191970" points="231.3061,-26.8891 238.9966,-19.6016 228.4401,-20.5027 231.3061,-26.8891"/>
</g>
<!-- Node289 -->
<g id="node3" class="node">
<title>Node289</title>
<g id="a_node3"><a xlink:href="classMask.html#a4124a2daa1f7501d4fd80775b6217679" target="_top" xlink:title="Get the width of the mask in pixels.">
<polygon fill="#ffffff" stroke="#000000" points="406,-258.5 406,-277.5 481,-277.5 481,-258.5 406,-258.5"/>
<text text-anchor="middle" x="443.5" y="-265.5" font-family="Helvetica,sans-Serif" font-size="10.00" fill="#000000">Mask::width</text>
</a>
</g>
</g>
<!-- Node288&#45;&gt;Node289 -->
<g id="edge2" class="edge">
<title>Node288&#45;&gt;Node289</title>
<path fill="none" stroke="#191970" d="M312.8002,-268C338.6634,-268 370.1146,-268 395.6829,-268"/>
<polygon fill="#191970" stroke="#191970" points="395.8862,-271.5001 405.8861,-268 395.8861,-264.5001 395.8862,-271.5001"/>
</g>
<!-- Node291 -->
<g id="node5" class="node">
<title>Node291</title>
<g id="a_node5"><a xlink:href="classMask.html#af845b7d3220b707c8b4c48bf87d045bb" target="_top" xlink:title="Get the height of the mask in pixels.">
<polygon fill="#ffffff" stroke="#000000" points="404,-220.5 404,-239.5 483,-239.5 483,-220.5 404,-220.5"/>
<text text-anchor="middle" x="443.5" y="-227.5" font-family="Helvetica,sans-Serif" font-size="10.00" fill="#000000">Mask::height</text>
</a>
</g>
</g>
<!-- Node290&#45;&gt;Node291 -->
<g id="edge4" class="edge">
<title>Node290&#45;&gt;Node291</title>
<path fill="none" stroke="#191970" d="M314.7241,-230C339.5176,-230 369.0868,-230 393.6343,-230"/>
<polygon fill="#191970" stroke="#191970" points="393.8188,-233.5001 403.8187,-230 393.8187,-226.5001 393.8188,-233.5001"/>
</g>
<!-- Node294 -->
<g id="node8" class="node">
<title>Node294</title>
<g id="a_node8"><a xlink:href="structPixel.html#a816d743559e2ac5b35c9c79ac517ad0a" target="_top" xlink:title=" ">
<polygon fill="#ffffff" stroke="#000000" points="549,-125.5 549,-144.5 635,-144.5 635,-125.5 549,-125.5"/>
<text text-anchor="middle" x="592" y="-132.5" font-family="Helvetica,sans-Serif" font-size="10.00" fill="#000000">Pixel::inRange</text>
</a>
</g>
</g>
<!-- Node293&#45;&gt;Node294 -->
<g id="edge7" class="edge">
<title>Node293&#45;&gt;Node294</title>
<path fill="none" stroke="#191970" d="M513.4016,-135C521.8647,-135 530.4033,-135 538.5758,-135"/>
<polygon fill="#191970" stroke="#191970" points="538.6984,-138.5001 548.6984,-135 538.6984,-131.5001 538.6984,-138.5001"/>
</g>
<!-- Node295&#45;&gt;Node293 -->
<g id="edge9" class="edge">
<title>Node295&#45;&gt;Node293</title>
<path fill="none" stroke="#191970" d="M323.1039,-122.3267C336.0978,-123.6945 350.0336,-125.1614 363.6494,-126.5947"/>
<polygon fill="#191970" stroke="#191970" points="363.6667,-130.1158 373.9782,-127.6819 364.3996,-123.1542 363.6667,-130.1158"/>
</g>
<!-- Node297&#45;&gt;Node297 -->
<g id="edge12" class="edge">
<title>Node297&#45;&gt;Node297</title>
<path fill="none" stroke="#191970" d="M235.2568,-19.7571C221.7601,-28.5653 231.0078,-38 263,-38 284.9946,-38 296.239,-33.5406 296.733,-27.8913"/>
<polygon fill="#191970" stroke="#191970" points="299.4911,-25.7341 290.7432,-19.7571 293.8544,-29.8848 299.4911,-25.7341"/>
</g>
</g>
</svg>
