<?xml version="1.0" encoding="UTF-8" standalone="no"?>
<!DOCTYPE svg PUBLIC "-//W3C//DTD SVG 1.1//EN"
 "http://www.w3.org/Graphics/SVG/1.1/DTD/svg11.dtd">
<!-- Generated by graphviz version 2.40.1 (20161225.0304)
 -->
<!-- Title: GridFinder::getFirstLineEstimate Pages: 1 -->
<svg width="613pt" height="294pt"
 viewBox="0.00 0.00 613.00 293.50" xmlns="http://www.w3.org/2000/svg" xmlns:xlink="http://www.w3.org/1999/xlink">
<g id="graph0" class="graph" transform="scale(1 1) rotate(0) translate(4 289.5)">
<title>GridFinder::getFirstLineEstimate</title>
<polygon fill="#ffffff" stroke="transparent" points="-4,4 -4,-289.5 609,-289.5 609,4 -4,4"/>
<!-- Node238 -->
<g id="node1" class="node">
<title>Node238</title>
<g id="a_node1"><a xlink:title="Find the vertical range of white pixels closest to the center of the given column,...">
<polygon fill="#bfbfbf" stroke="#000000" points="0,-138.5 0,-168.5 128,-168.5 128,-138.5 0,-138.5"/>
<text text-anchor="start" x="8" y="-156.5" font-family="Helvetica,sans-Serif" font-size="10.00" fill="#000000">GridFinder::getFirstLine</text>
<text text-anchor="middle" x="64" y="-145.5" font-family="Helvetica,sans-Serif" font-size="10.00" fill="#000000">Estimate</text>
</a>
</g>
</g>
<!-- Node239 -->
<g id="node2" class="node">
<title>Node239</title>
<g id="a_node2"><a xlink:href="classGridFinder.html#aadfce89f171d55f954a19d700b43ff5c" target="_top" xlink:title="Get the width of the frame.">
<polygon fill="#ffffff" stroke="#000000" points="371,-266 371,-285 470,-285 470,-266 371,-266"/>
<text text-anchor="middle" x="420.5" y="-273" font-family="Helvetica,sans-Serif" font-size="10.00" fill="#000000">GridFinder::width</text>
</a>
</g>
</g>
<!-- Node238&#45;&gt;Node239 -->
<g id="edge1" class="edge">
<title>Node238&#45;&gt;Node239</title>
<path fill="none" stroke="#191970" d="M75.6125,-168.8523C92.503,-189.9074 126.0086,-227.1088 164,-244.5 226.8378,-273.265 306.9457,-278.6348 360.7758,-278.3506"/>
<polygon fill="#191970" stroke="#191970" points="360.8872,-281.8496 370.8445,-278.23 360.8033,-274.8501 360.8872,-281.8496"/>
</g>
<!-- Node241 -->
<g id="node4" class="node">
<title>Node241</title>
<g id="a_node4"><a xlink:href="classGridFinder.html#affd9ae441c8d86b1856a9ef31190e9ab" target="_top" xlink:title="Get the height of the frame.">
<polygon fill="#ffffff" stroke="#000000" points="186,-106 186,-125 289,-125 289,-106 186,-106"/>
<text text-anchor="middle" x="237.5" y="-113" font-family="Helvetica,sans-Serif" font-size="10.00" fill="#000000">GridFinder::height</text>
</a>
</g>
</g>
<!-- Node238&#45;&gt;Node241 -->
<g id="edge3" class="edge">
<title>Node238&#45;&gt;Node241</title>
<path fill="none" stroke="#191970" d="M128.1121,-139.4582C146.4295,-135.4463 166.1948,-131.1173 183.8186,-127.2573"/>
<polygon fill="#191970" stroke="#191970" points="184.9011,-130.6033 193.9207,-125.0447 183.4034,-123.7653 184.9011,-130.6033"/>
</g>
<!-- Node243 -->
<g id="node6" class="node">
<title>Node243</title>
<g id="a_node6"><a xlink:href="classGridFinder.html#afbed8951f70923626b73abdbe05236da" target="_top" xlink:title="Get the value of the given pixel.">
<polygon fill="#ffffff" stroke="#000000" points="193.5,-50 193.5,-69 281.5,-69 281.5,-50 193.5,-50"/>
<text text-anchor="middle" x="237.5" y="-57" font-family="Helvetica,sans-Serif" font-size="10.00" fill="#000000">GridFinder::get</text>
</a>
</g>
</g>
<!-- Node238&#45;&gt;Node243 -->
<g id="edge5" class="edge">
<title>Node238&#45;&gt;Node243</title>
<path fill="none" stroke="#191970" d="M89.695,-138.3676C109.7738,-126.6613 138.4639,-110.1935 164,-96.5 178.4875,-88.7312 194.8012,-80.4709 208.3722,-73.7304"/>
<polygon fill="#191970" stroke="#191970" points="210.289,-76.6874 217.704,-69.1198 207.1882,-70.4116 210.289,-76.6874"/>
</g>
<!-- Node244 -->
<g id="node7" class="node">
<title>Node244</title>
<g id="a_node7"><a xlink:href="classCenterPointOutLineIterator.html#a4f03738d6ec01d1e3b15b6efeea6c16c" target="_top" xlink:title=" ">
<polygon fill="#ffffff" stroke="#000000" points="164,-.5 164,-30.5 311,-30.5 311,-.5 164,-.5"/>
<text text-anchor="start" x="172" y="-18.5" font-family="Helvetica,sans-Serif" font-size="10.00" fill="#000000">CenterPointOutLineIterator</text>
<text text-anchor="middle" x="237.5" y="-7.5" font-family="Helvetica,sans-Serif" font-size="10.00" fill="#000000">::getCenter</text>
</a>
</g>
</g>
<!-- Node238&#45;&gt;Node244 -->
<g id="edge7" class="edge">
<title>Node238&#45;&gt;Node244</title>
<path fill="none" stroke="#191970" d="M73.4984,-138.4407C89.3959,-114.4039 123.6513,-67.347 164,-40.5 166.9509,-38.5366 170.0711,-36.7127 173.2946,-35.0205"/>
<polygon fill="#191970" stroke="#191970" points="175.0725,-38.0506 182.5984,-30.5933 172.0647,-31.7298 175.0725,-38.0506"/>
</g>
<!-- Node245 -->
<g id="node8" class="node">
<title>Node245</title>
<g id="a_node8"><a xlink:href="classGridFinder.html#afa715db70f6b6d2a864bc0674fb5abb6" target="_top" xlink:title="Get an estimate of the first line. Searches in multiple columns, starting from the center,...">
<polygon fill="#ffffff" stroke="#000000" points="173.5,-182.5 173.5,-212.5 301.5,-212.5 301.5,-182.5 173.5,-182.5"/>
<text text-anchor="start" x="181.5" y="-200.5" font-family="Helvetica,sans-Serif" font-size="10.00" fill="#000000">GridFinder::getFirstLine</text>
<text text-anchor="middle" x="237.5" y="-189.5" font-family="Helvetica,sans-Serif" font-size="10.00" fill="#000000">Estimate</text>
</a>
</g>
</g>
<!-- Node238&#45;&gt;Node245 -->
<g id="edge8" class="edge">
<title>Node238&#45;&gt;Node245</title>
<path fill="none" stroke="#191970" d="M123.2236,-168.5192C137.7991,-172.2156 153.5312,-176.2053 168.5234,-180.0074"/>
<polygon fill="#191970" stroke="#191970" points="167.6954,-183.4081 178.2489,-182.4738 169.4162,-176.6229 167.6954,-183.4081"/>
</g>
<!-- Node246 -->
<g id="node9" class="node">
<title>Node246</title>
<g id="a_node9"><a xlink:href="classCenterPointOutLineIterator.html#a6f4fda8865e7d1def0a8614622f0f6ef" target="_top" xlink:title=" ">
<polygon fill="#ffffff" stroke="#000000" points="347,-213.5 347,-243.5 494,-243.5 494,-213.5 347,-213.5"/>
<text text-anchor="start" x="355" y="-231.5" font-family="Helvetica,sans-Serif" font-size="10.00" fill="#000000">CenterPointOutLineIterator</text>
<text text-anchor="middle" x="420.5" y="-220.5" font-family="Helvetica,sans-Serif" font-size="10.00" fill="#000000">::hasNext</text>
</a>
</g>
</g>
<!-- Node238&#45;&gt;Node246 -->
<g id="edge12" class="edge">
<title>Node238&#45;&gt;Node246</title>
<path fill="none" stroke="#191970" d="M79.7064,-168.7792C98.1475,-185.5794 130.4938,-211.6307 164,-222.5 219.6104,-240.5398 285.6211,-241.6589 336.7502,-238.4657"/>
<polygon fill="#191970" stroke="#191970" points="337.0352,-241.9545 346.7701,-237.7733 336.5526,-234.9711 337.0352,-241.9545"/>
</g>
<!-- Node247 -->
<g id="node10" class="node">
<title>Node247</title>
<g id="a_node10"><a xlink:href="classCenterPointOutLineIterator.html#a89580e1393d0dfc3ff12c7a5af2a4374" target="_top" xlink:title=" ">
<polygon fill="#ffffff" stroke="#000000" points="347,-157.5 347,-187.5 494,-187.5 494,-157.5 347,-157.5"/>
<text text-anchor="start" x="355" y="-175.5" font-family="Helvetica,sans-Serif" font-size="10.00" fill="#000000">CenterPointOutLineIterator</text>
<text text-anchor="middle" x="420.5" y="-164.5" font-family="Helvetica,sans-Serif" font-size="10.00" fill="#000000">::next</text>
</a>
</g>
</g>
<!-- Node238&#45;&gt;Node247 -->
<g id="edge13" class="edge">
<title>Node238&#45;&gt;Node247</title>
<path fill="none" stroke="#191970" d="M128.1468,-156.9188C186.4695,-160.0271 272.9081,-164.634 336.678,-168.0326"/>
<polygon fill="#191970" stroke="#191970" points="336.5381,-171.53 346.7103,-168.5673 336.9108,-164.54 336.5381,-171.53"/>
</g>
<!-- Node240 -->
<g id="node3" class="node">
<title>Node240</title>
<g id="a_node3"><a xlink:href="classMask.html#a4124a2daa1f7501d4fd80775b6217679" target="_top" xlink:title="Get the width of the mask in pixels.">
<polygon fill="#ffffff" stroke="#000000" points="530,-266 530,-285 605,-285 605,-266 530,-266"/>
<text text-anchor="middle" x="567.5" y="-273" font-family="Helvetica,sans-Serif" font-size="10.00" fill="#000000">Mask::width</text>
</a>
</g>
</g>
<!-- Node239&#45;&gt;Node240 -->
<g id="edge2" class="edge">
<title>Node239&#45;&gt;Node240</title>
<path fill="none" stroke="#191970" d="M470.2675,-275.5C486.2558,-275.5 503.9224,-275.5 519.7617,-275.5"/>
<polygon fill="#191970" stroke="#191970" points="519.8705,-279.0001 529.8705,-275.5 519.8705,-272.0001 519.8705,-279.0001"/>
</g>
<!-- Node242 -->
<g id="node5" class="node">
<title>Node242</title>
<g id="a_node5"><a xlink:href="classMask.html#af845b7d3220b707c8b4c48bf87d045bb" target="_top" xlink:title="Get the height of the mask in pixels.">
<polygon fill="#ffffff" stroke="#000000" points="381,-106 381,-125 460,-125 460,-106 381,-106"/>
<text text-anchor="middle" x="420.5" y="-113" font-family="Helvetica,sans-Serif" font-size="10.00" fill="#000000">Mask::height</text>
</a>
</g>
</g>
<!-- Node241&#45;&gt;Node242 -->
<g id="edge4" class="edge">
<title>Node241&#45;&gt;Node242</title>
<path fill="none" stroke="#191970" d="M289.451,-115.5C314.9912,-115.5 345.6221,-115.5 370.8457,-115.5"/>
<polygon fill="#191970" stroke="#191970" points="370.9361,-119.0001 380.9361,-115.5 370.9361,-112.0001 370.9361,-119.0001"/>
</g>
<!-- Node243&#45;&gt;Node243 -->
<g id="edge6" class="edge">
<title>Node243&#45;&gt;Node243</title>
<path fill="none" stroke="#191970" d="M210.9898,-69.2571C198.093,-78.0653 206.9297,-87.5 237.5,-87.5 258.0394,-87.5 268.768,-83.241 269.6856,-77.7746"/>
<polygon fill="#191970" stroke="#191970" points="272.4679,-75.6381 264.0102,-69.2571 266.6426,-79.5197 272.4679,-75.6381"/>
</g>
<!-- Node245&#45;&gt;Node239 -->
<g id="edge9" class="edge">
<title>Node245&#45;&gt;Node239</title>
<path fill="none" stroke="#191970" d="M263.8642,-212.7044C285.6581,-224.8489 317.674,-241.7261 347,-253.5 355.6236,-256.9622 365.0056,-260.1713 374.0923,-263.008"/>
<polygon fill="#191970" stroke="#191970" points="373.2017,-266.3951 383.7865,-265.9344 375.2247,-259.6938 373.2017,-266.3951"/>
</g>
<!-- Node245&#45;&gt;Node246 -->
<g id="edge10" class="edge">
<title>Node245&#45;&gt;Node246</title>
<path fill="none" stroke="#191970" d="M301.5045,-208.3423C312.9389,-210.2793 325.0047,-212.3232 336.8916,-214.3368"/>
<polygon fill="#191970" stroke="#191970" points="336.3726,-217.7987 346.8168,-216.0181 337.5418,-210.897 336.3726,-217.7987"/>
</g>
<!-- Node245&#45;&gt;Node247 -->
<g id="edge11" class="edge">
<title>Node245&#45;&gt;Node247</title>
<path fill="none" stroke="#191970" d="M301.5045,-188.7562C312.9389,-187.1941 325.0047,-185.5458 336.8916,-183.9219"/>
<polygon fill="#191970" stroke="#191970" points="337.3826,-187.3874 346.8168,-182.566 336.435,-180.4519 337.3826,-187.3874"/>
</g>
</g>
</svg>
