<?xml version="1.0" encoding="UTF-8" standalone="no"?>
<!DOCTYPE svg PUBLIC "-//W3C//DTD SVG 1.1//EN"
 "http://www.w3.org/Graphics/SVG/1.1/DTD/svg11.dtd">
<!-- Generated by graphviz version 2.40.1 (20161225.0304)
 -->
<!-- Title: GridFinder::findSquare Pages: 1 -->
<svg width="1332pt" height="732pt"
 viewBox="0.00 0.00 1332.00 731.55" xmlns="http://www.w3.org/2000/svg" xmlns:xlink="http://www.w3.org/1999/xlink">
<g id="graph0" class="graph" transform="scale(1 1) rotate(0) translate(4 727.5535)">
<title>GridFinder::findSquare</title>
<polygon fill="#ffffff" stroke="transparent" points="-4,4 -4,-727.5535 1328,-727.5535 1328,4 -4,4"/>
<!-- Node136 -->
<g id="node1" class="node">
<title>Node136</title>
<g id="a_node1"><a xlink:title="This is the main function: it looks for a complete square of the grid, as close to the center of the ...">
<polygon fill="#bfbfbf" stroke="#000000" points="0,-190.5 0,-209.5 124,-209.5 124,-190.5 0,-190.5"/>
<text text-anchor="middle" x="62" y="-197.5" font-family="Helvetica,sans-Serif" font-size="10.00" fill="#000000">GridFinder::findSquare</text>
</a>
</g>
</g>
<!-- Node137 -->
<g id="node2" class="node">
<title>Node137</title>
<g id="a_node2"><a xlink:href="Square_8hpp.html#ace3999c20c4c886c00503d56c69ae204" target="_top" xlink:title=" ">
<polygon fill="#ffffff" stroke="#000000" points="212.5,-664.5 212.5,-683.5 241.5,-683.5 241.5,-664.5 212.5,-664.5"/>
<text text-anchor="middle" x="227" y="-671.5" font-family="Helvetica,sans-Serif" font-size="10.00" fill="#000000">sq</text>
</a>
</g>
</g>
<!-- Node136&#45;&gt;Node137 -->
<g id="edge1" class="edge">
<title>Node136&#45;&gt;Node137</title>
<path fill="none" stroke="#191970" d="M62.843,-209.6651C68.1712,-268.7007 98.9307,-580.4593 160,-650 170.6549,-662.133 187.892,-668.1328 202.2141,-671.0995"/>
<polygon fill="#191970" stroke="#191970" points="201.9972,-674.6124 212.4407,-672.8282 203.164,-667.7103 201.9972,-674.6124"/>
</g>
<!-- Node138 -->
<g id="node3" class="node">
<title>Node138</title>
<g id="a_node3"><a xlink:href="classGridFinder.html#a7c330ed1431434a4a3726c341161bf39" target="_top" xlink:title="Get the first two lines. These are the two half lines that make up the line closest to the center of ...">
<polygon fill="#ffffff" stroke="#000000" points="330,-577 330,-607 477,-607 477,-577 330,-577"/>
<text text-anchor="start" x="338" y="-595" font-family="Helvetica,sans-Serif" font-size="10.00" fill="#000000">GridFinder::getFirstTwoHalf</text>
<text text-anchor="middle" x="403.5" y="-584" font-family="Helvetica,sans-Serif" font-size="10.00" fill="#000000">Lines</text>
</a>
</g>
</g>
<!-- Node136&#45;&gt;Node138 -->
<g id="edge2" class="edge">
<title>Node136&#45;&gt;Node138</title>
<path fill="none" stroke="#191970" d="M65.4761,-209.6062C76.448,-239.1904 112.4523,-330.8521 160,-396 222.2554,-481.2998 241.6973,-504.0826 330,-562 336.0216,-565.9496 342.647,-569.5366 349.3789,-572.7446"/>
<polygon fill="#191970" stroke="#191970" points="348.0223,-575.9722 358.578,-576.8827 350.894,-569.5883 348.0223,-575.9722"/>
</g>
<!-- Node145 -->
<g id="node10" class="node">
<title>Node145</title>
<g id="a_node10"><a xlink:href="classLine.html#ade63ea812bc1673307538a83b82da577" target="_top" xlink:title=" ">
<polygon fill="#ffffff" stroke="#000000" points="179.5,-152.5 179.5,-171.5 274.5,-171.5 274.5,-152.5 179.5,-152.5"/>
<text text-anchor="middle" x="227" y="-159.5" font-family="Helvetica,sans-Serif" font-size="10.00" fill="#000000">Line::leftOfPoint</text>
</a>
</g>
</g>
<!-- Node136&#45;&gt;Node145 -->
<g id="edge9" class="edge">
<title>Node136&#45;&gt;Node145</title>
<path fill="none" stroke="#191970" d="M103.6365,-190.411C125.5081,-185.3739 152.506,-179.1562 175.6636,-173.8229"/>
<polygon fill="#191970" stroke="#191970" points="176.7036,-177.1751 185.6629,-171.5201 175.1325,-170.3537 176.7036,-177.1751"/>
</g>
<!-- Node146 -->
<g id="node11" class="node">
<title>Node146</title>
<g id="a_node11"><a xlink:href="classGridFinder.html#ace2a9cb90cc19a295d0fbe934a79b7e0" target="_top" xlink:title="Get the center pixel of the frame.">
<polygon fill="#ffffff" stroke="#000000" points="713.5,-576.5 713.5,-595.5 816.5,-595.5 816.5,-576.5 713.5,-576.5"/>
<text text-anchor="middle" x="765" y="-583.5" font-family="Helvetica,sans-Serif" font-size="10.00" fill="#000000">GridFinder::center</text>
</a>
</g>
</g>
<!-- Node136&#45;&gt;Node146 -->
<g id="edge10" class="edge">
<title>Node136&#45;&gt;Node146</title>
<path fill="none" stroke="#191970" d="M63.3929,-209.562C69.2495,-247.1768 94.6665,-387.4273 160,-480 215.9525,-559.2806 238.4911,-584.7165 330,-617 397.1119,-640.6764 600.2318,-612.8632 703.4186,-596.4143"/>
<polygon fill="#191970" stroke="#191970" points="704.0685,-599.8548 713.3857,-594.8112 702.9568,-592.9436 704.0685,-599.8548"/>
</g>
<!-- Node149 -->
<g id="node14" class="node">
<title>Node149</title>
<g id="a_node14"><a xlink:href="Line_8hpp.html#a974a3a31d46a7379a41b2f20ff12916d" target="_top" xlink:title=" ">
<polygon fill="#ffffff" stroke="#000000" points="205,-114.5 205,-133.5 249,-133.5 249,-114.5 205,-114.5"/>
<text text-anchor="middle" x="227" y="-121.5" font-family="Helvetica,sans-Serif" font-size="10.00" fill="#000000">round</text>
</a>
</g>
</g>
<!-- Node136&#45;&gt;Node149 -->
<g id="edge14" class="edge">
<title>Node136&#45;&gt;Node149</title>
<path fill="none" stroke="#191970" d="M76.0202,-190.3221C94.5319,-177.908 128.4769,-156.386 160,-143 171.0766,-138.2964 183.668,-134.3782 194.9219,-131.3457"/>
<polygon fill="#191970" stroke="#191970" points="195.9822,-134.6871 204.7992,-128.8126 194.2432,-127.9066 195.9822,-134.6871"/>
</g>
<!-- Node150 -->
<g id="node15" class="node">
<title>Node150</title>
<g id="a_node15"><a xlink:href="classGridFinder.html#a6dec96f8c6ed97647f692fa9f9908595" target="_top" xlink:title="Follow the given line to find the line perpendicular to it. Move along the line for minDistance pixel...">
<polygon fill="#ffffff" stroke="#000000" points="160,-367.5 160,-386.5 294,-386.5 294,-367.5 160,-367.5"/>
<text text-anchor="middle" x="227" y="-374.5" font-family="Helvetica,sans-Serif" font-size="10.00" fill="#000000">GridFinder::findNextLine</text>
</a>
</g>
</g>
<!-- Node136&#45;&gt;Node150 -->
<g id="edge15" class="edge">
<title>Node136&#45;&gt;Node150</title>
<path fill="none" stroke="#191970" d="M70.8711,-209.5163C97.5061,-238.0884 177.0403,-323.4069 211.1643,-360.0127"/>
<polygon fill="#191970" stroke="#191970" points="208.7061,-362.5085 218.085,-367.4367 213.8264,-357.7354 208.7061,-362.5085"/>
</g>
<!-- Node164 -->
<g id="node29" class="node">
<title>Node164</title>
<g id="a_node29"><a xlink:href="Array_8hpp.html#a2a94116476a44c5d54a8b9d67075def4" target="_top" xlink:title=" ">
<polygon fill="#ffffff" stroke="#000000" points="748,-171.5 748,-190.5 782,-190.5 782,-171.5 748,-171.5"/>
<text text-anchor="middle" x="765" y="-178.5" font-family="Helvetica,sans-Serif" font-size="10.00" fill="#000000">abs</text>
</a>
</g>
</g>
<!-- Node136&#45;&gt;Node164 -->
<g id="edge54" class="edge">
<title>Node136&#45;&gt;Node164</title>
<path fill="none" stroke="#191970" d="M124.0782,-198.3222C270.8974,-194.3541 634.8671,-184.5171 737.6036,-181.7404"/>
<polygon fill="#191970" stroke="#191970" points="737.8685,-185.2347 747.7702,-181.4657 737.6793,-178.2372 737.8685,-185.2347"/>
</g>
<!-- Node165 -->
<g id="node30" class="node">
<title>Node165</title>
<g id="a_node30"><a xlink:href="classGridFinder.html#ac7202be6727634054a169022b5ce3e01" target="_top" xlink:title="Get the point of intersection of two lines.">
<polygon fill="#ffffff" stroke="#000000" points="169.5,-76.5 169.5,-95.5 284.5,-95.5 284.5,-76.5 169.5,-76.5"/>
<text text-anchor="middle" x="227" y="-83.5" font-family="Helvetica,sans-Serif" font-size="10.00" fill="#000000">GridFinder::intersect</text>
</a>
</g>
</g>
<!-- Node136&#45;&gt;Node165 -->
<g id="edge48" class="edge">
<title>Node136&#45;&gt;Node165</title>
<path fill="none" stroke="#191970" d="M69.2229,-190.3207C84.063,-171.121 119.9719,-128.0831 160,-105 163.8753,-102.7652 168.03,-100.7795 172.3024,-99.0176"/>
<polygon fill="#191970" stroke="#191970" points="173.6181,-102.2627 181.7805,-95.5081 171.1874,-95.6983 173.6181,-102.2627"/>
</g>
<!-- Node168 -->
<g id="node33" class="node">
<title>Node168</title>
<g id="a_node33"><a xlink:href="structPoint.html#a94f25dd17cb1d1cefb726eaa673a8505" target="_top" xlink:title=" ">
<polygon fill="#ffffff" stroke="#000000" points="163,-38.5 163,-57.5 291,-57.5 291,-38.5 163,-38.5"/>
<text text-anchor="middle" x="227" y="-45.5" font-family="Helvetica,sans-Serif" font-size="10.00" fill="#000000">Point::distanceSquared</text>
</a>
</g>
</g>
<!-- Node136&#45;&gt;Node168 -->
<g id="edge51" class="edge">
<title>Node136&#45;&gt;Node168</title>
<path fill="none" stroke="#191970" d="M66.3647,-190.2553C77.9026,-165.6309 111.6742,-100.4923 160,-67 162.8694,-65.0113 165.9439,-63.2296 169.1407,-61.6333"/>
<polygon fill="#191970" stroke="#191970" points="170.6281,-64.8033 178.4052,-57.6083 167.8387,-58.383 170.6281,-64.8033"/>
</g>
<!-- Node139 -->
<g id="node4" class="node">
<title>Node139</title>
<g id="a_node4"><a xlink:href="classGridFinder.html#afa715db70f6b6d2a864bc0674fb5abb6" target="_top" xlink:title="Get an estimate of the first line. Searches in multiple columns, starting from the center,...">
<polygon fill="#ffffff" stroke="#000000" points="519,-665 519,-695 647,-695 647,-665 519,-665"/>
<text text-anchor="start" x="527" y="-683" font-family="Helvetica,sans-Serif" font-size="10.00" fill="#000000">GridFinder::getFirstLine</text>
<text text-anchor="middle" x="583" y="-672" font-family="Helvetica,sans-Serif" font-size="10.00" fill="#000000">Estimate</text>
</a>
</g>
</g>
<!-- Node138&#45;&gt;Node139 -->
<g id="edge3" class="edge">
<title>Node138&#45;&gt;Node139</title>
<path fill="none" stroke="#191970" d="M434.3572,-607.1277C464.3725,-621.8428 510.1217,-644.2714 542.9344,-660.3578"/>
<polygon fill="#191970" stroke="#191970" points="541.726,-663.6633 552.2457,-664.9227 544.8074,-657.378 541.726,-663.6633"/>
</g>
<!-- Node144 -->
<g id="node9" class="node">
<title>Node144</title>
<g id="a_node9"><a xlink:href="classAngle.html#a84ce9a0e2a186ada6997077fd96d6e4c" target="_top" xlink:title=" ">
<polygon fill="#ffffff" stroke="#000000" points="513,-500.5 513,-519.5 653,-519.5 653,-500.5 513,-500.5"/>
<text text-anchor="middle" x="583" y="-507.5" font-family="Helvetica,sans-Serif" font-size="10.00" fill="#000000">Angle&lt; 360 &gt;::resolution</text>
</a>
</g>
</g>
<!-- Node138&#45;&gt;Node144 -->
<g id="edge8" class="edge">
<title>Node138&#45;&gt;Node144</title>
<path fill="none" stroke="#191970" d="M436.4231,-576.9599C469.6267,-561.7917 520.4582,-538.5706 552.6956,-523.8438"/>
<polygon fill="#191970" stroke="#191970" points="554.4218,-526.9032 562.0633,-519.5644 551.5131,-520.5361 554.4218,-526.9032"/>
</g>
<!-- Node140 -->
<g id="node5" class="node">
<title>Node140</title>
<g id="a_node5"><a xlink:href="classGridFinder.html#aadfce89f171d55f954a19d700b43ff5c" target="_top" xlink:title="Get the width of the frame.">
<polygon fill="#ffffff" stroke="#000000" points="902.5,-538.5 902.5,-557.5 1001.5,-557.5 1001.5,-538.5 902.5,-538.5"/>
<text text-anchor="middle" x="952" y="-545.5" font-family="Helvetica,sans-Serif" font-size="10.00" fill="#000000">GridFinder::width</text>
</a>
</g>
</g>
<!-- Node139&#45;&gt;Node140 -->
<g id="edge4" class="edge">
<title>Node139&#45;&gt;Node140</title>
<path fill="none" stroke="#191970" d="M618.6952,-695.1481C670.7373,-714.7513 769.0649,-742.2394 841,-705 897.6858,-675.6549 931.6193,-602.5531 945.1633,-567.4351"/>
<polygon fill="#191970" stroke="#191970" points="948.5236,-568.4395 948.7146,-557.8464 941.9593,-566.0083 948.5236,-568.4395"/>
</g>
<!-- Node142 -->
<g id="node7" class="node">
<title>Node142</title>
<g id="a_node7"><a xlink:href="classCenterPointOutLineIterator.html#a6f4fda8865e7d1def0a8614622f0f6ef" target="_top" xlink:title=" ">
<polygon fill="#ffffff" stroke="#000000" points="691.5,-665 691.5,-695 838.5,-695 838.5,-665 691.5,-665"/>
<text text-anchor="start" x="699.5" y="-683" font-family="Helvetica,sans-Serif" font-size="10.00" fill="#000000">CenterPointOutLineIterator</text>
<text text-anchor="middle" x="765" y="-672" font-family="Helvetica,sans-Serif" font-size="10.00" fill="#000000">::hasNext</text>
</a>
</g>
</g>
<!-- Node139&#45;&gt;Node142 -->
<g id="edge6" class="edge">
<title>Node139&#45;&gt;Node142</title>
<path fill="none" stroke="#191970" d="M647.1664,-680C658.2481,-680 669.9128,-680 681.4183,-680"/>
<polygon fill="#191970" stroke="#191970" points="681.4696,-683.5001 691.4696,-680 681.4695,-676.5001 681.4696,-683.5001"/>
</g>
<!-- Node143 -->
<g id="node8" class="node">
<title>Node143</title>
<g id="a_node8"><a xlink:href="classCenterPointOutLineIterator.html#a89580e1393d0dfc3ff12c7a5af2a4374" target="_top" xlink:title=" ">
<polygon fill="#ffffff" stroke="#000000" points="691.5,-616 691.5,-646 838.5,-646 838.5,-616 691.5,-616"/>
<text text-anchor="start" x="699.5" y="-634" font-family="Helvetica,sans-Serif" font-size="10.00" fill="#000000">CenterPointOutLineIterator</text>
<text text-anchor="middle" x="765" y="-623" font-family="Helvetica,sans-Serif" font-size="10.00" fill="#000000">::next</text>
</a>
</g>
</g>
<!-- Node139&#45;&gt;Node143 -->
<g id="edge7" class="edge">
<title>Node139&#45;&gt;Node143</title>
<path fill="none" stroke="#191970" d="M639.0911,-664.8986C658.1225,-659.7747 679.555,-654.0044 699.2691,-648.6968"/>
<polygon fill="#191970" stroke="#191970" points="700.3479,-652.031 709.0941,-646.0516 698.5281,-645.2717 700.3479,-652.031"/>
</g>
<!-- Node141 -->
<g id="node6" class="node">
<title>Node141</title>
<g id="a_node6"><a xlink:href="classMask.html#a4124a2daa1f7501d4fd80775b6217679" target="_top" xlink:title="Get the width of the mask in pixels.">
<polygon fill="#ffffff" stroke="#000000" points="1095,-538.5 1095,-557.5 1170,-557.5 1170,-538.5 1095,-538.5"/>
<text text-anchor="middle" x="1132.5" y="-545.5" font-family="Helvetica,sans-Serif" font-size="10.00" fill="#000000">Mask::width</text>
</a>
</g>
</g>
<!-- Node140&#45;&gt;Node141 -->
<g id="edge5" class="edge">
<title>Node140&#45;&gt;Node141</title>
<path fill="none" stroke="#191970" d="M1001.8002,-548C1027.6634,-548 1059.1146,-548 1084.6829,-548"/>
<polygon fill="#191970" stroke="#191970" points="1084.8862,-551.5001 1094.8861,-548 1084.8861,-544.5001 1084.8862,-551.5001"/>
</g>
<!-- Node146&#45;&gt;Node140 -->
<g id="edge11" class="edge">
<title>Node146&#45;&gt;Node140</title>
<path fill="none" stroke="#191970" d="M812.188,-576.411C837.4205,-571.2835 868.673,-564.9328 895.2268,-559.5368"/>
<polygon fill="#191970" stroke="#191970" points="896.0486,-562.9414 905.1513,-557.5201 894.6546,-556.0816 896.0486,-562.9414"/>
</g>
<!-- Node147 -->
<g id="node12" class="node">
<title>Node147</title>
<g id="a_node12"><a xlink:href="classGridFinder.html#affd9ae441c8d86b1856a9ef31190e9ab" target="_top" xlink:title="Get the height of the frame.">
<polygon fill="#ffffff" stroke="#000000" points="900.5,-487.5 900.5,-506.5 1003.5,-506.5 1003.5,-487.5 900.5,-487.5"/>
<text text-anchor="middle" x="952" y="-494.5" font-family="Helvetica,sans-Serif" font-size="10.00" fill="#000000">GridFinder::height</text>
</a>
</g>
</g>
<!-- Node146&#45;&gt;Node147 -->
<g id="edge12" class="edge">
<title>Node146&#45;&gt;Node147</title>
<path fill="none" stroke="#191970" d="M783.0496,-576.3387C805.0325,-564.683 843.3957,-544.6982 877,-529 890.5936,-522.6498 905.7864,-516.0729 918.9244,-510.5453"/>
<polygon fill="#191970" stroke="#191970" points="920.63,-513.6261 928.5101,-506.5441 917.9335,-507.1663 920.63,-513.6261"/>
</g>
<!-- Node148 -->
<g id="node13" class="node">
<title>Node148</title>
<g id="a_node13"><a xlink:href="classMask.html#af845b7d3220b707c8b4c48bf87d045bb" target="_top" xlink:title="Get the height of the mask in pixels.">
<polygon fill="#ffffff" stroke="#000000" points="1093,-487.5 1093,-506.5 1172,-506.5 1172,-487.5 1093,-487.5"/>
<text text-anchor="middle" x="1132.5" y="-494.5" font-family="Helvetica,sans-Serif" font-size="10.00" fill="#000000">Mask::height</text>
</a>
</g>
</g>
<!-- Node147&#45;&gt;Node148 -->
<g id="edge13" class="edge">
<title>Node147&#45;&gt;Node148</title>
<path fill="none" stroke="#191970" d="M1003.7241,-497C1028.5176,-497 1058.0868,-497 1082.6343,-497"/>
<polygon fill="#191970" stroke="#191970" points="1082.8188,-500.5001 1092.8187,-497 1082.8187,-493.5001 1082.8188,-500.5001"/>
</g>
<!-- Node150&#45;&gt;Node140 -->
<g id="edge25" class="edge">
<title>Node150&#45;&gt;Node140</title>
<path fill="none" stroke="#191970" d="M286.9672,-386.547C289.4891,-388.1246 291.8545,-389.9319 294,-392 339.3263,-435.6919 280.7393,-489.7975 330,-529 373.2373,-563.4089 744.6293,-554.9551 892.0522,-550.172"/>
<polygon fill="#191970" stroke="#191970" points="892.393,-553.6628 902.272,-549.8346 892.1619,-546.6666 892.393,-553.6628"/>
</g>
<!-- Node150&#45;&gt;Node147 -->
<g id="edge26" class="edge">
<title>Node150&#45;&gt;Node147</title>
<path fill="none" stroke="#191970" d="M283.739,-386.6372C287.3287,-388.1708 290.786,-389.9458 294,-392 316.1709,-406.1703 307.0705,-426.0932 330,-439 378.0513,-466.0476 742.2947,-486.7245 890.0327,-494.0832"/>
<polygon fill="#191970" stroke="#191970" points="890.1278,-497.5921 900.2884,-494.5899 890.4733,-490.6006 890.1278,-497.5921"/>
</g>
<!-- Node151 -->
<g id="node16" class="node">
<title>Node151</title>
<g id="a_node16"><a xlink:href="classAngle.html#aa9c7edb3027272ad1e45098383f0a94d" target="_top" xlink:title=" ">
<polygon fill="#ffffff" stroke="#000000" points="345,-500.5 345,-519.5 462,-519.5 462,-500.5 345,-500.5"/>
<text text-anchor="middle" x="403.5" y="-507.5" font-family="Helvetica,sans-Serif" font-size="10.00" fill="#000000">Angle::perpendicular</text>
</a>
</g>
</g>
<!-- Node150&#45;&gt;Node151 -->
<g id="edge16" class="edge">
<title>Node150&#45;&gt;Node151</title>
<path fill="none" stroke="#191970" d="M233.5354,-386.6814C248.27,-407.7888 286.2311,-458.2745 330,-486 336.9332,-490.3919 344.7471,-494.0549 352.6256,-497.0866"/>
<polygon fill="#191970" stroke="#191970" points="351.6181,-500.4427 362.2128,-500.4782 353.9527,-493.8435 351.6181,-500.4427"/>
</g>
<!-- Node152 -->
<g id="node17" class="node">
<title>Node152</title>
<g id="a_node17"><a xlink:href="classGridFinder.html#af8bdc28d95e295618c2f345f2d7eb758" target="_top" xlink:title="Move a pixel in a given direction for a given distance.">
<polygon fill="#ffffff" stroke="#000000" points="715,-449.5 715,-468.5 815,-468.5 815,-449.5 715,-449.5"/>
<text text-anchor="middle" x="765" y="-456.5" font-family="Helvetica,sans-Serif" font-size="10.00" fill="#000000">GridFinder::move</text>
</a>
</g>
</g>
<!-- Node150&#45;&gt;Node152 -->
<g id="edge17" class="edge">
<title>Node150&#45;&gt;Node152</title>
<path fill="none" stroke="#191970" d="M276.0645,-386.5297C282.1685,-388.1399 288.2728,-389.9615 294,-392 310.8529,-397.9984 312.8478,-404.9206 330,-410 459.8942,-448.4665 619.8019,-457.1214 704.9482,-458.8305"/>
<polygon fill="#191970" stroke="#191970" points="704.8943,-462.3299 714.9542,-459.006 705.0171,-455.331 704.8943,-462.3299"/>
</g>
<!-- Node153 -->
<g id="node18" class="node">
<title>Node153</title>
<g id="a_node18"><a xlink:href="classBresenhamLine.html#aba0822ee20811d67cd9539ccbe1cd346" target="_top" xlink:title=" ">
<polygon fill="#ffffff" stroke="#000000" points="1063,-367.5 1063,-386.5 1202,-386.5 1202,-367.5 1063,-367.5"/>
<text text-anchor="middle" x="1132.5" y="-374.5" font-family="Helvetica,sans-Serif" font-size="10.00" fill="#000000">BresenhamLine::hasNext</text>
</a>
</g>
</g>
<!-- Node150&#45;&gt;Node153 -->
<g id="edge28" class="edge">
<title>Node150&#45;&gt;Node153</title>
<path fill="none" stroke="#191970" d="M232.8346,-367.4878C246.968,-345.1273 285.1949,-288.5827 330,-255 428.3981,-181.2478 460.0302,-143 583,-143 583,-143 583,-143 765,-143 822.4085,-143 990.0653,-192.4602 1027,-220 1076.6491,-257.02 1110.4017,-324.6995 1124.7347,-357.7756"/>
<polygon fill="#191970" stroke="#191970" points="1121.6008,-359.3525 1128.7014,-367.2159 1128.0543,-356.6408 1121.6008,-359.3525"/>
</g>
<!-- Node156 -->
<g id="node21" class="node">
<title>Node156</title>
<g id="a_node21"><a xlink:href="classBresenhamLine.html#a10d505e30945f42a5cd0270c315b104f" target="_top" xlink:title=" ">
<polygon fill="#ffffff" stroke="#000000" points="892,-411.5 892,-430.5 1012,-430.5 1012,-411.5 892,-411.5"/>
<text text-anchor="middle" x="952" y="-418.5" font-family="Helvetica,sans-Serif" font-size="10.00" fill="#000000">BresenhamLine::next</text>
</a>
</g>
</g>
<!-- Node150&#45;&gt;Node156 -->
<g id="edge27" class="edge">
<title>Node150&#45;&gt;Node156</title>
<path fill="none" stroke="#191970" d="M294.2306,-381.0802C431.3031,-389.3991 741.8827,-408.2481 881.5913,-416.7269"/>
<polygon fill="#191970" stroke="#191970" points="881.5598,-420.2314 891.7535,-417.3437 881.9839,-413.2442 881.5598,-420.2314"/>
</g>
<!-- Node157 -->
<g id="node22" class="node">
<title>Node157</title>
<g id="a_node22"><a xlink:href="classGridFinder.html#afbed8951f70923626b73abdbe05236da" target="_top" xlink:title="Get the value of the given pixel.">
<polygon fill="#ffffff" stroke="#000000" points="908,-229.5 908,-248.5 996,-248.5 996,-229.5 908,-229.5"/>
<text text-anchor="middle" x="952" y="-236.5" font-family="Helvetica,sans-Serif" font-size="10.00" fill="#000000">GridFinder::get</text>
</a>
</g>
</g>
<!-- Node150&#45;&gt;Node157 -->
<g id="edge29" class="edge">
<title>Node150&#45;&gt;Node157</title>
<path fill="none" stroke="#191970" d="M236.4362,-367.2554C253.3882,-350.4428 290.8918,-316.3185 330,-301 527.7349,-223.5484 786.6142,-228.278 897.6206,-234.8055"/>
<polygon fill="#191970" stroke="#191970" points="897.6978,-238.3169 907.8945,-235.4401 898.1294,-231.3302 897.6978,-238.3169"/>
</g>
<!-- Node158 -->
<g id="node23" class="node">
<title>Node158</title>
<g id="a_node23"><a xlink:href="structPixel.html#ac3b82b3e3cd3b812dc1a0bccb474511f" target="_top" xlink:title=" ">
<polygon fill="#ffffff" stroke="#000000" points="360.5,-348.5 360.5,-367.5 446.5,-367.5 446.5,-348.5 360.5,-348.5"/>
<text text-anchor="middle" x="403.5" y="-355.5" font-family="Helvetica,sans-Serif" font-size="10.00" fill="#000000">Pixel::average</text>
</a>
</g>
</g>
<!-- Node150&#45;&gt;Node158 -->
<g id="edge31" class="edge">
<title>Node150&#45;&gt;Node158</title>
<path fill="none" stroke="#191970" d="M294.2306,-369.7627C312.7981,-367.7639 332.6838,-365.6233 350.3332,-363.7233"/>
<polygon fill="#191970" stroke="#191970" points="350.8717,-367.1857 360.4397,-362.6354 350.1225,-360.2259 350.8717,-367.1857"/>
</g>
<!-- Node159 -->
<g id="node24" class="node">
<title>Node159</title>
<g id="a_node24"><a xlink:href="classGridFinder.html#ae12ca7921b02b37417d87fc737f0134d" target="_top" xlink:title="Check if there could be a valid line going through the given point, and if so, find and return the ac...">
<polygon fill="#ffffff" stroke="#000000" points="343,-310.5 343,-329.5 464,-329.5 464,-310.5 343,-310.5"/>
<text text-anchor="middle" x="403.5" y="-317.5" font-family="Helvetica,sans-Serif" font-size="10.00" fill="#000000">GridFinder::checkLine</text>
</a>
</g>
</g>
<!-- Node150&#45;&gt;Node159 -->
<g id="edge32" class="edge">
<title>Node150&#45;&gt;Node159</title>
<path fill="none" stroke="#191970" d="M250.9059,-367.4029C271.6324,-359.27 302.5321,-347.5933 330,-339 337.6907,-336.594 345.9003,-334.2535 353.9422,-332.0844"/>
<polygon fill="#191970" stroke="#191970" points="354.8459,-335.4658 363.6223,-329.5308 353.0603,-328.6974 354.8459,-335.4658"/>
</g>
<!-- Node152&#45;&gt;Node140 -->
<g id="edge18" class="edge">
<title>Node152&#45;&gt;Node140</title>
<path fill="none" stroke="#191970" d="M783.0496,-468.6613C805.0325,-480.317 843.3957,-500.3018 877,-516 890.5936,-522.3502 905.7864,-528.9271 918.9244,-534.4547"/>
<polygon fill="#191970" stroke="#191970" points="917.9335,-537.8337 928.5101,-538.4559 920.63,-531.3739 917.9335,-537.8337"/>
</g>
<!-- Node152&#45;&gt;Node147 -->
<g id="edge19" class="edge">
<title>Node152&#45;&gt;Node147</title>
<path fill="none" stroke="#191970" d="M812.188,-468.589C837.4205,-473.7165 868.673,-480.0672 895.2268,-485.4632"/>
<polygon fill="#191970" stroke="#191970" points="894.6546,-488.9184 905.1513,-487.4799 896.0486,-482.0586 894.6546,-488.9184"/>
</g>
<!-- Node152&#45;&gt;Node153 -->
<g id="edge20" class="edge">
<title>Node152&#45;&gt;Node153</title>
<path fill="none" stroke="#191970" d="M815.0451,-462.1309C868.7376,-463.9499 955.8844,-462.4169 1027,-440 1059.434,-429.7762 1092.3826,-407.8568 1112.6287,-392.7716"/>
<polygon fill="#191970" stroke="#191970" points="1114.912,-395.4319 1120.7395,-386.5837 1110.6661,-389.8667 1114.912,-395.4319"/>
</g>
<!-- Node155 -->
<g id="node20" class="node">
<title>Node155</title>
<g id="a_node20"><a xlink:href="classBresenhamLine.html#ad93a4adf0535a9b4e649bce5ade1bc5e" target="_top" xlink:title=" ">
<polygon fill="#ffffff" stroke="#000000" points="877,-362 877,-392 1027,-392 1027,-362 877,-362"/>
<text text-anchor="start" x="885" y="-380" font-family="Helvetica,sans-Serif" font-size="10.00" fill="#000000">BresenhamLine::getCurrent</text>
<text text-anchor="middle" x="952" y="-369" font-family="Helvetica,sans-Serif" font-size="10.00" fill="#000000">Length</text>
</a>
</g>
</g>
<!-- Node152&#45;&gt;Node155 -->
<g id="edge22" class="edge">
<title>Node152&#45;&gt;Node155</title>
<path fill="none" stroke="#191970" d="M782.0806,-449.2948C803.7229,-437.2359 842.3813,-416.4841 877,-402 882.3535,-399.7602 887.9845,-397.5782 893.6552,-395.4962"/>
<polygon fill="#191970" stroke="#191970" points="894.9513,-398.75 903.1944,-392.094 892.5997,-392.1568 894.9513,-398.75"/>
</g>
<!-- Node152&#45;&gt;Node156 -->
<g id="edge23" class="edge">
<title>Node152&#45;&gt;Node156</title>
<path fill="none" stroke="#191970" d="M812.188,-449.411C837.4205,-444.2835 868.673,-437.9328 895.2268,-432.5368"/>
<polygon fill="#191970" stroke="#191970" points="896.0486,-435.9414 905.1513,-430.5201 894.6546,-429.0816 896.0486,-435.9414"/>
</g>
<!-- Node154 -->
<g id="node19" class="node">
<title>Node154</title>
<g id="a_node19"><a xlink:href="structPixel.html#a816d743559e2ac5b35c9c79ac517ad0a" target="_top" xlink:title=" ">
<polygon fill="#ffffff" stroke="#000000" points="1238,-367.5 1238,-386.5 1324,-386.5 1324,-367.5 1238,-367.5"/>
<text text-anchor="middle" x="1281" y="-374.5" font-family="Helvetica,sans-Serif" font-size="10.00" fill="#000000">Pixel::inRange</text>
</a>
</g>
</g>
<!-- Node153&#45;&gt;Node154 -->
<g id="edge21" class="edge">
<title>Node153&#45;&gt;Node154</title>
<path fill="none" stroke="#191970" d="M1202.4016,-377C1210.8647,-377 1219.4033,-377 1227.5758,-377"/>
<polygon fill="#191970" stroke="#191970" points="1227.6984,-380.5001 1237.6984,-377 1227.6984,-373.5001 1227.6984,-380.5001"/>
</g>
<!-- Node156&#45;&gt;Node153 -->
<g id="edge24" class="edge">
<title>Node156&#45;&gt;Node153</title>
<path fill="none" stroke="#191970" d="M991.1658,-411.4527C1018.2485,-404.8508 1054.4825,-396.0181 1083.4818,-388.949"/>
<polygon fill="#191970" stroke="#191970" points="1084.5241,-392.2975 1093.4106,-386.5287 1082.8662,-385.4967 1084.5241,-392.2975"/>
</g>
<!-- Node157&#45;&gt;Node157 -->
<g id="edge30" class="edge">
<title>Node157&#45;&gt;Node157</title>
<path fill="none" stroke="#191970" d="M924.2568,-248.7571C910.7601,-257.5653 920.0078,-267 952,-267 973.9946,-267 985.239,-262.5406 985.733,-256.8913"/>
<polygon fill="#191970" stroke="#191970" points="988.4911,-254.7341 979.7432,-248.7571 982.8544,-258.8848 988.4911,-254.7341"/>
</g>
<!-- Node159&#45;&gt;Node144 -->
<g id="edge47" class="edge">
<title>Node159&#45;&gt;Node144</title>
<path fill="none" stroke="#191970" d="M459.3734,-329.5212C465.6543,-331.9891 471.6924,-335.094 477,-339 531.0485,-378.7751 563.6741,-455.1615 576.5902,-490.8039"/>
<polygon fill="#191970" stroke="#191970" points="573.3654,-492.1855 579.9678,-500.4716 579.9737,-489.8767 573.3654,-492.1855"/>
</g>
<!-- Node160 -->
<g id="node25" class="node">
<title>Node160</title>
<g id="a_node25"><a xlink:href="classGridFinder.html#abcd46f31e256080b2d5d2aee03c0e258" target="_top" xlink:title="Find the middle of a line.">
<polygon fill="#ffffff" stroke="#000000" points="523,-310.5 523,-329.5 643,-329.5 643,-310.5 523,-310.5"/>
<text text-anchor="middle" x="583" y="-317.5" font-family="Helvetica,sans-Serif" font-size="10.00" fill="#000000">GridFinder::getMiddle</text>
</a>
</g>
</g>
<!-- Node159&#45;&gt;Node160 -->
<g id="edge33" class="edge">
<title>Node159&#45;&gt;Node160</title>
<path fill="none" stroke="#191970" d="M464.2705,-320C479.7889,-320 496.6021,-320 512.5603,-320"/>
<polygon fill="#191970" stroke="#191970" points="512.9015,-323.5001 522.9015,-320 512.9015,-316.5001 512.9015,-323.5001"/>
</g>
<!-- Node160&#45;&gt;Node152 -->
<g id="edge46" class="edge">
<title>Node160&#45;&gt;Node152</title>
<path fill="none" stroke="#191970" d="M595.3563,-329.6545C615.0839,-345.0468 654.9444,-376.059 689,-402 707.4257,-416.0353 728.5071,-431.8254 743.7853,-443.2211"/>
<polygon fill="#191970" stroke="#191970" points="741.9363,-446.2081 752.0464,-449.3764 746.1188,-440.5949 741.9363,-446.2081"/>
</g>
<!-- Node160&#45;&gt;Node157 -->
<g id="edge34" class="edge">
<title>Node160&#45;&gt;Node157</title>
<path fill="none" stroke="#191970" d="M626.4141,-310.4701C694.1919,-295.592 824.9792,-266.8826 898.4861,-250.747"/>
<polygon fill="#191970" stroke="#191970" points="899.4485,-254.1191 908.4655,-248.5563 897.9476,-247.2819 899.4485,-254.1191"/>
</g>
<!-- Node161 -->
<g id="node26" class="node">
<title>Node161</title>
<g id="a_node26"><a xlink:href="structCosSin.html#a4c63ac2c483b5caa4012f8c27d58dd96" target="_top" xlink:title=" ">
<polygon fill="#ffffff" stroke="#000000" points="716,-323.5 716,-342.5 814,-342.5 814,-323.5 716,-323.5"/>
<text text-anchor="middle" x="765" y="-330.5" font-family="Helvetica,sans-Serif" font-size="10.00" fill="#000000">CosSin::opposite</text>
</a>
</g>
</g>
<!-- Node160&#45;&gt;Node161 -->
<g id="edge35" class="edge">
<title>Node160&#45;&gt;Node161</title>
<path fill="none" stroke="#191970" d="M643.098,-324.2927C663.201,-325.7286 685.5871,-327.3276 705.6339,-328.7596"/>
<polygon fill="#191970" stroke="#191970" points="705.6553,-332.2699 715.8793,-329.4914 706.1541,-325.2877 705.6553,-332.2699"/>
</g>
<!-- Node162 -->
<g id="node27" class="node">
<title>Node162</title>
<g id="a_node27"><a xlink:href="classGridFinder.html#ab5c436911deb269a22a8d5525271fa4e" target="_top" xlink:title="Get the width of the line at a given point.">
<polygon fill="#ffffff" stroke="#000000" points="689,-362 689,-392 841,-392 841,-362 689,-362"/>
<text text-anchor="start" x="697" y="-380" font-family="Helvetica,sans-Serif" font-size="10.00" fill="#000000">GridFinder::getWidthAtPoint</text>
<text text-anchor="middle" x="765" y="-369" font-family="Helvetica,sans-Serif" font-size="10.00" fill="#000000">OnLine</text>
</a>
</g>
</g>
<!-- Node160&#45;&gt;Node162 -->
<g id="edge36" class="edge">
<title>Node160&#45;&gt;Node162</title>
<path fill="none" stroke="#191970" d="M613.4627,-329.5405C638.9385,-337.5192 675.9991,-349.1261 707.0924,-358.8641"/>
<polygon fill="#191970" stroke="#191970" points="706.3667,-362.3044 716.9557,-361.9532 708.4588,-355.6243 706.3667,-362.3044"/>
</g>
<!-- Node163 -->
<g id="node28" class="node">
<title>Node163</title>
<g id="a_node28"><a xlink:href="structCosSin.html#adb1d000cc58879b65a63fac849408bfe" target="_top" xlink:title=" ">
<polygon fill="#ffffff" stroke="#000000" points="891,-285.5 891,-304.5 1013,-304.5 1013,-285.5 891,-285.5"/>
<text text-anchor="middle" x="952" y="-292.5" font-family="Helvetica,sans-Serif" font-size="10.00" fill="#000000">CosSin::perpendicular</text>
</a>
</g>
</g>
<!-- Node160&#45;&gt;Node163 -->
<g id="edge45" class="edge">
<title>Node160&#45;&gt;Node163</title>
<path fill="none" stroke="#191970" d="M643.1075,-315.9277C708.0835,-311.5255 811.5875,-304.513 880.6441,-299.8344"/>
<polygon fill="#191970" stroke="#191970" points="881.2563,-303.301 890.9968,-299.133 880.7831,-296.3171 881.2563,-303.301"/>
</g>
<!-- Node160&#45;&gt;Node164 -->
<g id="edge44" class="edge">
<title>Node160&#45;&gt;Node164</title>
<path fill="none" stroke="#191970" d="M595.5096,-310.446C626.2905,-286.9375 705.9653,-226.0869 744.0832,-196.975"/>
<polygon fill="#191970" stroke="#191970" points="746.5799,-199.4721 752.4029,-190.6209 742.3312,-193.909 746.5799,-199.4721"/>
</g>
<!-- Node162&#45;&gt;Node140 -->
<g id="edge37" class="edge">
<title>Node162&#45;&gt;Node140</title>
<path fill="none" stroke="#191970" d="M788.2554,-392.1652C804.6246,-403.7438 826.1742,-420.9174 841,-440 863.9308,-469.5147 850.0599,-490.093 877,-516 885.203,-523.8884 895.65,-529.9781 906.1227,-534.6208"/>
<polygon fill="#191970" stroke="#191970" points="905.1013,-537.9831 915.6842,-538.4879 907.726,-531.4937 905.1013,-537.9831"/>
</g>
<!-- Node162&#45;&gt;Node147 -->
<g id="edge38" class="edge">
<title>Node162&#45;&gt;Node147</title>
<path fill="none" stroke="#191970" d="M788.6837,-392.1981C824.5902,-415.2397 892.412,-458.7617 928.3177,-481.8028"/>
<polygon fill="#191970" stroke="#191970" points="926.8269,-485.0048 937.1334,-487.4599 930.6075,-479.1135 926.8269,-485.0048"/>
</g>
<!-- Node162&#45;&gt;Node153 -->
<g id="edge40" class="edge">
<title>Node162&#45;&gt;Node153</title>
<path fill="none" stroke="#191970" d="M823.912,-361.94C840.9253,-358.2557 859.5978,-354.8436 877,-353 943.2957,-345.9766 960.7498,-345.5595 1027,-353 1047.7279,-355.3279 1070.3236,-360.1519 1089.2668,-364.8686"/>
<polygon fill="#191970" stroke="#191970" points="1088.5387,-368.295 1099.0945,-367.3861 1090.2758,-361.5139 1088.5387,-368.295"/>
</g>
<!-- Node162&#45;&gt;Node155 -->
<g id="edge42" class="edge">
<title>Node162&#45;&gt;Node155</title>
<path fill="none" stroke="#191970" d="M841.0601,-377C849.5634,-377 858.2662,-377 866.8736,-377"/>
<polygon fill="#191970" stroke="#191970" points="866.9165,-380.5001 876.9165,-377 866.9165,-373.5001 866.9165,-380.5001"/>
</g>
<!-- Node162&#45;&gt;Node156 -->
<g id="edge41" class="edge">
<title>Node162&#45;&gt;Node156</title>
<path fill="none" stroke="#191970" d="M828.8318,-392.0192C852.5959,-397.6108 879.2125,-403.8735 901.6059,-409.1426"/>
<polygon fill="#191970" stroke="#191970" points="901.0364,-412.6041 911.5722,-411.4876 902.6397,-405.7902 901.0364,-412.6041"/>
</g>
<!-- Node162&#45;&gt;Node157 -->
<g id="edge43" class="edge">
<title>Node162&#45;&gt;Node157</title>
<path fill="none" stroke="#191970" d="M826.365,-361.8906C831.6417,-359.1269 836.6261,-355.8603 841,-352 869.0224,-327.2678 850.7827,-302.6382 877,-276 886.8201,-266.0223 899.8825,-258.3118 912.3517,-252.5761"/>
<polygon fill="#191970" stroke="#191970" points="913.8927,-255.7237 921.7079,-248.5701 911.1374,-249.2887 913.8927,-255.7237"/>
</g>
<!-- Node162&#45;&gt;Node163 -->
<g id="edge39" class="edge">
<title>Node162&#45;&gt;Node163</title>
<path fill="none" stroke="#191970" d="M820.193,-361.9488C827.4047,-359.095 834.528,-355.791 841,-352 859.7287,-341.0297 858.227,-329.8944 877,-319 884.6461,-314.5628 893.2148,-310.8359 901.7521,-307.7436"/>
<polygon fill="#191970" stroke="#191970" points="902.9677,-311.0275 911.3269,-304.5179 900.7328,-304.3938 902.9677,-311.0275"/>
</g>
<!-- Node166 -->
<g id="node31" class="node">
<title>Node166</title>
<g id="a_node31"><a xlink:href="classLine.html#af14c90f6f7c18003e35ca3a08be32368" target="_top" xlink:title=" ">
<polygon fill="#ffffff" stroke="#000000" points="360.5,-76.5 360.5,-95.5 446.5,-95.5 446.5,-76.5 360.5,-76.5"/>
<text text-anchor="middle" x="403.5" y="-83.5" font-family="Helvetica,sans-Serif" font-size="10.00" fill="#000000">Line::intersect</text>
</a>
</g>
</g>
<!-- Node165&#45;&gt;Node166 -->
<g id="edge49" class="edge">
<title>Node165&#45;&gt;Node166</title>
<path fill="none" stroke="#191970" d="M284.7927,-86C305.8642,-86 329.5762,-86 350.236,-86"/>
<polygon fill="#191970" stroke="#191970" points="350.4185,-89.5001 360.4185,-86 350.4185,-82.5001 350.4185,-89.5001"/>
</g>
<!-- Node167 -->
<g id="node32" class="node">
<title>Node167</title>
<g id="a_node32"><a xlink:href="Matrix_8hpp.html#ad67efeedccae466877bcdc358c4e67ca" target="_top" xlink:title="Calculates u × v, where u, v ⊆ ℝ³.">
<polygon fill="#ffffff" stroke="#000000" points="562,-76.5 562,-95.5 604,-95.5 604,-76.5 562,-76.5"/>
<text text-anchor="middle" x="583" y="-83.5" font-family="Helvetica,sans-Serif" font-size="10.00" fill="#000000">cross</text>
</a>
</g>
</g>
<!-- Node166&#45;&gt;Node167 -->
<g id="edge50" class="edge">
<title>Node166&#45;&gt;Node167</title>
<path fill="none" stroke="#191970" d="M446.9519,-86C479.1531,-86 522.3038,-86 551.2983,-86"/>
<polygon fill="#191970" stroke="#191970" points="551.6653,-89.5001 561.6653,-86 551.6653,-82.5001 551.6653,-89.5001"/>
</g>
<!-- Node169 -->
<g id="node34" class="node">
<title>Node169</title>
<g id="a_node34"><a xlink:href="structPoint.html#a482c5bbc38af3c934eac31cb645aeba1" target="_top" xlink:title=" ">
<polygon fill="#ffffff" stroke="#000000" points="371,-.5 371,-19.5 436,-19.5 436,-.5 371,-.5"/>
<text text-anchor="middle" x="403.5" y="-7.5" font-family="Helvetica,sans-Serif" font-size="10.00" fill="#000000">Point::vec</text>
</a>
</g>
</g>
<!-- Node168&#45;&gt;Node169 -->
<g id="edge52" class="edge">
<title>Node168&#45;&gt;Node169</title>
<path fill="none" stroke="#191970" d="M271.5384,-38.411C298.9762,-32.5037 333.9559,-24.9727 361.0067,-19.1487"/>
<polygon fill="#191970" stroke="#191970" points="361.9144,-22.5336 370.9537,-17.0071 360.441,-15.6904 361.9144,-22.5336"/>
</g>
<!-- Node170 -->
<g id="node35" class="node">
<title>Node170</title>
<g id="a_node35"><a xlink:href="Matrix_8hpp.html#abec71070cc8e64b7c426b3bfde2af39d" target="_top" xlink:title=" ">
<polygon fill="#ffffff" stroke="#000000" points="377,-38.5 377,-57.5 430,-57.5 430,-38.5 377,-38.5"/>
<text text-anchor="middle" x="403.5" y="-45.5" font-family="Helvetica,sans-Serif" font-size="10.00" fill="#000000">normsq</text>
</a>
</g>
</g>
<!-- Node168&#45;&gt;Node170 -->
<g id="edge53" class="edge">
<title>Node168&#45;&gt;Node170</title>
<path fill="none" stroke="#191970" d="M291.2198,-48C316.6313,-48 344.9204,-48 366.7458,-48"/>
<polygon fill="#191970" stroke="#191970" points="366.9,-51.5001 376.9,-48 366.9,-44.5001 366.9,-51.5001"/>
</g>
</g>
</svg>
