<?xml version="1.0" encoding="UTF-8" standalone="no"?>
<!DOCTYPE svg PUBLIC "-//W3C//DTD SVG 1.1//EN"
 "http://www.w3.org/Graphics/SVG/1.1/DTD/svg11.dtd">
<!-- Generated by graphviz version 2.40.1 (20161225.0304)
 -->
<!-- Title: CryptoPoller::normalStep Pages: 1 -->
<svg width="457pt" height="28pt"
 viewBox="0.00 0.00 457.00 28.00" xmlns="http://www.w3.org/2000/svg" xmlns:xlink="http://www.w3.org/1999/xlink">
<g id="graph0" class="graph" transform="scale(1 1) rotate(0) translate(4 24)">
<title>CryptoPoller::normalStep</title>
<polygon fill="#ffffff" stroke="transparent" points="-4,4 -4,-24 453,-24 453,4 -4,4"/>
<!-- Node13 -->
<g id="node1" class="node">
<title>Node13</title>
<g id="a_node1"><a xlink:title=" ">
<polygon fill="#bfbfbf" stroke="#000000" points="310,-.5 310,-19.5 449,-19.5 449,-.5 310,-.5"/>
<text text-anchor="middle" x="379.5" y="-7.5" font-family="Helvetica,sans-Serif" font-size="10.00" fill="#000000">CryptoPoller::normalStep</text>
</a>
</g>
</g>
<!-- Node14 -->
<g id="node2" class="node">
<title>Node14</title>
<g id="a_node2"><a xlink:href="classKetje.html#ac4e54ac3a43763223844c3e315012362" target="_top" xlink:title=" ">
<polygon fill="#ffffff" stroke="#000000" points="191,-.5 191,-19.5 274,-19.5 274,-.5 191,-.5"/>
<text text-anchor="middle" x="232.5" y="-7.5" font-family="Helvetica,sans-Serif" font-size="10.00" fill="#000000">Ketje::unwrap</text>
</a>
</g>
</g>
<!-- Node13&#45;&gt;Node14 -->
<g id="edge1" class="edge">
<title>Node13&#45;&gt;Node14</title>
<path fill="none" stroke="#191970" d="M299.6018,-10C290.8732,-10 282.2658,-10 274.2771,-10"/>
<polygon fill="#191970" stroke="#191970" points="299.8744,-13.5001 309.8744,-10 299.8743,-6.5001 299.8744,-13.5001"/>
</g>
<!-- Node15 -->
<g id="node3" class="node">
<title>Node15</title>
<g id="a_node3"><a xlink:href="namespaceHWImplementation.html#abc6e81f17d057a26e8491533d5dfdc38" target="_top" xlink:title=" ">
<polygon fill="#ffffff" stroke="#000000" points="0,-.5 0,-19.5 155,-19.5 155,-.5 0,-.5"/>
<text text-anchor="middle" x="77.5" y="-7.5" font-family="Helvetica,sans-Serif" font-size="10.00" fill="#000000">HWImplementation::decrypt</text>
</a>
</g>
</g>
<!-- Node14&#45;&gt;Node15 -->
<g id="edge2" class="edge">
<title>Node14&#45;&gt;Node15</title>
<path fill="none" stroke="#191970" d="M180.7571,-10C172.4874,-10 163.7762,-10 155.0639,-10"/>
<polygon fill="#191970" stroke="#191970" points="180.9629,-13.5001 190.9628,-10 180.9628,-6.5001 180.9629,-13.5001"/>
</g>
</g>
</svg>
