<?xml version="1.0" encoding="UTF-8" standalone="no"?>
<!DOCTYPE svg PUBLIC "-//W3C//DTD SVG 1.1//EN"
 "http://www.w3.org/Graphics/SVG/1.1/DTD/svg11.dtd">
<!-- Generated by graphviz version 2.40.1 (20161225.0304)
 -->
<!-- Title: GridFinder::getMiddleWithRetries Pages: 1 -->
<svg width="978pt" height="263pt"
 viewBox="0.00 0.00 978.00 263.04" xmlns="http://www.w3.org/2000/svg" xmlns:xlink="http://www.w3.org/1999/xlink">
<g id="graph0" class="graph" transform="scale(1 1) rotate(0) translate(4 259.0441)">
<title>GridFinder::getMiddleWithRetries</title>
<polygon fill="#ffffff" stroke="transparent" points="-4,4 -4,-259.0441 974,-259.0441 974,4 -4,4"/>
<!-- Node207 -->
<g id="node1" class="node">
<title>Node207</title>
<g id="a_node1"><a xlink:title="In exceptional cases, we might want to find the middle of a line in a point that happens to lie at th...">
<polygon fill="#bfbfbf" stroke="#000000" points="0,-81.9658 0,-111.9658 143,-111.9658 143,-81.9658 0,-81.9658"/>
<text text-anchor="start" x="8" y="-99.9658" font-family="Helvetica,sans-Serif" font-size="10.00" fill="#000000">GridFinder::getMiddleWith</text>
<text text-anchor="middle" x="71.5" y="-88.9658" font-family="Helvetica,sans-Serif" font-size="10.00" fill="#000000">Retries</text>
</a>
</g>
</g>
<!-- Node208 -->
<g id="node2" class="node">
<title>Node208</title>
<g id="a_node2"><a xlink:href="classGridFinder.html#a187e8c44c7f99237645b49dc2c6745c8" target="_top" xlink:title="Find the middle of a line.">
<polygon fill="#ffffff" stroke="#000000" points="179,-131.4658 179,-150.4658 299,-150.4658 299,-131.4658 179,-131.4658"/>
<text text-anchor="middle" x="239" y="-138.4658" font-family="Helvetica,sans-Serif" font-size="10.00" fill="#000000">GridFinder::getMiddle</text>
</a>
</g>
</g>
<!-- Node207&#45;&gt;Node208 -->
<g id="edge1" class="edge">
<title>Node207&#45;&gt;Node208</title>
<path fill="none" stroke="#191970" d="M128.6755,-111.985C149.6739,-117.501 173.1588,-123.6702 193.0457,-128.8942"/>
<polygon fill="#191970" stroke="#191970" points="192.2268,-132.2978 202.788,-131.4534 194.0053,-125.5275 192.2268,-132.2978"/>
</g>
<!-- Node218 -->
<g id="node12" class="node">
<title>Node218</title>
<g id="a_node12"><a xlink:href="classGridFinder.html#a9b31ec7807efc6e1fde49f5a56c0d0fa" target="_top" xlink:title="Move a pixel in a given direction for a given distance.">
<polygon fill="#ffffff" stroke="#000000" points="361,-43.4658 361,-62.4658 461,-62.4658 461,-43.4658 361,-43.4658"/>
<text text-anchor="middle" x="411" y="-50.4658" font-family="Helvetica,sans-Serif" font-size="10.00" fill="#000000">GridFinder::move</text>
</a>
</g>
</g>
<!-- Node207&#45;&gt;Node218 -->
<g id="edge18" class="edge">
<title>Node207&#45;&gt;Node218</title>
<path fill="none" stroke="#191970" d="M143.0844,-87.6883C204.7481,-79.6965 292.7435,-68.2921 350.8346,-60.7634"/>
<polygon fill="#191970" stroke="#191970" points="351.4955,-64.2071 360.9626,-59.4508 350.5957,-57.2652 351.4955,-64.2071"/>
</g>
<!-- Node209 -->
<g id="node3" class="node">
<title>Node209</title>
<g id="a_node3"><a xlink:href="classGridFinder.html#a53cfbafaf3cd06baac2a19eeee0cfb73" target="_top" xlink:title="Get the value of the given pixel.">
<polygon fill="#ffffff" stroke="#000000" points="554,-223.4658 554,-242.4658 642,-242.4658 642,-223.4658 554,-223.4658"/>
<text text-anchor="middle" x="598" y="-230.4658" font-family="Helvetica,sans-Serif" font-size="10.00" fill="#000000">GridFinder::get</text>
</a>
</g>
</g>
<!-- Node208&#45;&gt;Node209 -->
<g id="edge2" class="edge">
<title>Node208&#45;&gt;Node209</title>
<path fill="none" stroke="#191970" d="M244.9381,-150.6668C258.1155,-171.1367 292.061,-218.3115 335,-235.9658 405.0271,-264.7574 494.6754,-254.9933 549.149,-244.5404"/>
<polygon fill="#191970" stroke="#191970" points="550.1108,-247.9173 559.2283,-242.5209 548.7356,-241.0537 550.1108,-247.9173"/>
</g>
<!-- Node210 -->
<g id="node4" class="node">
<title>Node210</title>
<g id="a_node4"><a xlink:href="structCosSin.html#a4c63ac2c483b5caa4012f8c27d58dd96" target="_top" xlink:title=" ">
<polygon fill="#ffffff" stroke="#000000" points="362,-207.4658 362,-226.4658 460,-226.4658 460,-207.4658 362,-207.4658"/>
<text text-anchor="middle" x="411" y="-214.4658" font-family="Helvetica,sans-Serif" font-size="10.00" fill="#000000">CosSin::opposite</text>
</a>
</g>
</g>
<!-- Node208&#45;&gt;Node210 -->
<g id="edge3" class="edge">
<title>Node208&#45;&gt;Node210</title>
<path fill="none" stroke="#191970" d="M252.3296,-150.5971C270.2889,-163.161 303.6318,-185.0573 335,-197.9658 340.9427,-200.4113 347.2808,-202.6014 353.6658,-204.5469"/>
<polygon fill="#191970" stroke="#191970" points="353.1115,-208.0283 363.688,-207.4046 355.031,-201.2966 353.1115,-208.0283"/>
</g>
<!-- Node211 -->
<g id="node5" class="node">
<title>Node211</title>
<g id="a_node5"><a xlink:href="classGridFinder.html#a83b31c2192a137e56e91d13661f1c658" target="_top" xlink:title="Get the width of the line at a given point.">
<polygon fill="#ffffff" stroke="#000000" points="335,-81.9658 335,-111.9658 487,-111.9658 487,-81.9658 335,-81.9658"/>
<text text-anchor="start" x="343" y="-99.9658" font-family="Helvetica,sans-Serif" font-size="10.00" fill="#000000">GridFinder::getWidthAtPoint</text>
<text text-anchor="middle" x="411" y="-88.9658" font-family="Helvetica,sans-Serif" font-size="10.00" fill="#000000">OnLine</text>
</a>
</g>
</g>
<!-- Node208&#45;&gt;Node211 -->
<g id="edge4" class="edge">
<title>Node208&#45;&gt;Node211</title>
<path fill="none" stroke="#191970" d="M276.3214,-131.4185C295.6002,-126.4867 319.7452,-120.3101 342.2474,-114.5537"/>
<polygon fill="#191970" stroke="#191970" points="343.2875,-117.9004 352.1081,-112.0312 341.5527,-111.1188 343.2875,-117.9004"/>
</g>
<!-- Node212 -->
<g id="node6" class="node">
<title>Node212</title>
<g id="a_node6"><a xlink:href="structCosSin.html#adb1d000cc58879b65a63fac849408bfe" target="_top" xlink:title=" ">
<polygon fill="#ffffff" stroke="#000000" points="537,-147.4658 537,-166.4658 659,-166.4658 659,-147.4658 537,-147.4658"/>
<text text-anchor="middle" x="598" y="-154.4658" font-family="Helvetica,sans-Serif" font-size="10.00" fill="#000000">CosSin::perpendicular</text>
</a>
</g>
</g>
<!-- Node208&#45;&gt;Node212 -->
<g id="edge13" class="edge">
<title>Node208&#45;&gt;Node212</title>
<path fill="none" stroke="#191970" d="M299.0885,-143.6439C361.8373,-146.4405 460.2163,-150.825 526.8173,-153.7933"/>
<polygon fill="#191970" stroke="#191970" points="526.6678,-157.29 536.8137,-154.2388 526.9795,-150.297 526.6678,-157.29"/>
</g>
<!-- Node217 -->
<g id="node11" class="node">
<title>Node217</title>
<g id="a_node11"><a xlink:href="Array_8hpp.html#a54bae1a9c86ad6bc491b4f10495a759f" target="_top" xlink:title=" ">
<polygon fill="#ffffff" stroke="#000000" points="394,-169.4658 394,-188.4658 428,-188.4658 428,-169.4658 394,-169.4658"/>
<text text-anchor="middle" x="411" y="-176.4658" font-family="Helvetica,sans-Serif" font-size="10.00" fill="#000000">abs</text>
</a>
</g>
</g>
<!-- Node208&#45;&gt;Node217 -->
<g id="edge12" class="edge">
<title>Node208&#45;&gt;Node217</title>
<path fill="none" stroke="#191970" d="M282.4029,-150.5548C314.2069,-157.5813 356.4092,-166.905 383.6383,-172.9208"/>
<polygon fill="#191970" stroke="#191970" points="383.1113,-176.3887 393.6309,-175.1285 384.6215,-169.5535 383.1113,-176.3887"/>
</g>
<!-- Node208&#45;&gt;Node218 -->
<g id="edge14" class="edge">
<title>Node208&#45;&gt;Node218</title>
<path fill="none" stroke="#191970" d="M249.3789,-131.4312C266.1331,-116.546 300.7366,-87.8496 335,-71.9658 340.2962,-69.5106 345.9529,-67.3446 351.7002,-65.4398"/>
<polygon fill="#191970" stroke="#191970" points="352.8681,-68.7428 361.4107,-62.4759 350.8245,-62.0478 352.8681,-68.7428"/>
</g>
<!-- Node211&#45;&gt;Node209 -->
<g id="edge11" class="edge">
<title>Node211&#45;&gt;Node209</title>
<path fill="none" stroke="#191970" d="M431.7268,-112.0398C467.3184,-137.9246 539.7281,-190.5862 576.1068,-217.0435"/>
<polygon fill="#191970" stroke="#191970" points="574.389,-220.1219 584.535,-223.1731 578.5062,-214.4607 574.389,-220.1219"/>
</g>
<!-- Node211&#45;&gt;Node212 -->
<g id="edge5" class="edge">
<title>Node211&#45;&gt;Node212</title>
<path fill="none" stroke="#191970" d="M457.8597,-112.0428C477.9195,-118.4931 501.6067,-126.1047 523,-132.9658 534.4783,-136.6471 546.9469,-140.6396 558.3619,-144.2922"/>
<polygon fill="#191970" stroke="#191970" points="557.4797,-147.6846 568.0706,-147.3982 559.6127,-141.0175 557.4797,-147.6846"/>
</g>
<!-- Node213 -->
<g id="node7" class="node">
<title>Node213</title>
<g id="a_node7"><a xlink:href="classBresenhamLine.html#aba0822ee20811d67cd9539ccbe1cd346" target="_top" xlink:title=" ">
<polygon fill="#ffffff" stroke="#000000" points="709,-71.4658 709,-90.4658 848,-90.4658 848,-71.4658 709,-71.4658"/>
<text text-anchor="middle" x="778.5" y="-78.4658" font-family="Helvetica,sans-Serif" font-size="10.00" fill="#000000">BresenhamLine::hasNext</text>
</a>
</g>
</g>
<!-- Node211&#45;&gt;Node213 -->
<g id="edge6" class="edge">
<title>Node211&#45;&gt;Node213</title>
<path fill="none" stroke="#191970" d="M487.1112,-101.8634C539.4828,-104.2478 610.5873,-105.5411 673,-99.9658 690.1929,-98.43 708.7761,-95.513 725.4853,-92.4173"/>
<polygon fill="#191970" stroke="#191970" points="726.4544,-95.7954 735.6178,-90.4774 725.1381,-88.9203 726.4544,-95.7954"/>
</g>
<!-- Node215 -->
<g id="node9" class="node">
<title>Node215</title>
<g id="a_node9"><a xlink:href="classBresenhamLine.html#a10d505e30945f42a5cd0270c315b104f" target="_top" xlink:title=" ">
<polygon fill="#ffffff" stroke="#000000" points="538,-71.4658 538,-90.4658 658,-90.4658 658,-71.4658 538,-71.4658"/>
<text text-anchor="middle" x="598" y="-78.4658" font-family="Helvetica,sans-Serif" font-size="10.00" fill="#000000">BresenhamLine::next</text>
</a>
</g>
</g>
<!-- Node211&#45;&gt;Node215 -->
<g id="edge8" class="edge">
<title>Node211&#45;&gt;Node215</title>
<path fill="none" stroke="#191970" d="M487.0601,-90.458C500.5165,-89.3066 514.4727,-88.1125 527.7596,-86.9757"/>
<polygon fill="#191970" stroke="#191970" points="528.1053,-90.459 537.7705,-86.1191 527.5085,-83.4845 528.1053,-90.459"/>
</g>
<!-- Node216 -->
<g id="node10" class="node">
<title>Node216</title>
<g id="a_node10"><a xlink:href="classBresenhamLine.html#ad93a4adf0535a9b4e649bce5ade1bc5e" target="_top" xlink:title=" ">
<polygon fill="#ffffff" stroke="#000000" points="523,-21.9658 523,-51.9658 673,-51.9658 673,-21.9658 523,-21.9658"/>
<text text-anchor="start" x="531" y="-39.9658" font-family="Helvetica,sans-Serif" font-size="10.00" fill="#000000">BresenhamLine::getCurrent</text>
<text text-anchor="middle" x="598" y="-28.9658" font-family="Helvetica,sans-Serif" font-size="10.00" fill="#000000">Length</text>
</a>
</g>
</g>
<!-- Node211&#45;&gt;Node216 -->
<g id="edge10" class="edge">
<title>Node211&#45;&gt;Node216</title>
<path fill="none" stroke="#191970" d="M458.188,-81.8253C483.5316,-73.6936 514.9485,-63.6134 541.5774,-55.0693"/>
<polygon fill="#191970" stroke="#191970" points="542.6988,-58.3853 551.1513,-51.9975 540.5601,-51.72 542.6988,-58.3853"/>
</g>
<!-- Node214 -->
<g id="node8" class="node">
<title>Node214</title>
<g id="a_node8"><a xlink:href="structPixel.html#a816d743559e2ac5b35c9c79ac517ad0a" target="_top" xlink:title=" ">
<polygon fill="#ffffff" stroke="#000000" points="884,-71.4658 884,-90.4658 970,-90.4658 970,-71.4658 884,-71.4658"/>
<text text-anchor="middle" x="927" y="-78.4658" font-family="Helvetica,sans-Serif" font-size="10.00" fill="#000000">Pixel::inRange</text>
</a>
</g>
</g>
<!-- Node213&#45;&gt;Node214 -->
<g id="edge7" class="edge">
<title>Node213&#45;&gt;Node214</title>
<path fill="none" stroke="#191970" d="M848.4016,-80.9658C856.8647,-80.9658 865.4033,-80.9658 873.5758,-80.9658"/>
<polygon fill="#191970" stroke="#191970" points="873.6984,-84.4659 883.6984,-80.9658 873.6984,-77.4659 873.6984,-84.4659"/>
</g>
<!-- Node215&#45;&gt;Node213 -->
<g id="edge9" class="edge">
<title>Node215&#45;&gt;Node213</title>
<path fill="none" stroke="#191970" d="M658.1039,-80.9658C671.0978,-80.9658 685.0336,-80.9658 698.6494,-80.9658"/>
<polygon fill="#191970" stroke="#191970" points="698.9783,-84.4659 708.9782,-80.9658 698.9782,-77.4659 698.9783,-84.4659"/>
</g>
<!-- Node218&#45;&gt;Node213 -->
<g id="edge15" class="edge">
<title>Node218&#45;&gt;Node213</title>
<path fill="none" stroke="#191970" d="M430.6426,-43.3677C452.5563,-33.2381 489.3591,-17.9298 523,-11.9658 588.6431,-.3284 609.1095,7.0722 673,-11.9658 707.5025,-22.2468 741.2255,-47.8057 760.9245,-64.7629"/>
<polygon fill="#191970" stroke="#191970" points="758.6597,-67.4323 768.4697,-71.434 763.2964,-62.1881 758.6597,-67.4323"/>
</g>
<!-- Node218&#45;&gt;Node215 -->
<g id="edge17" class="edge">
<title>Node218&#45;&gt;Node215</title>
<path fill="none" stroke="#191970" d="M461.1126,-60.4693C481.565,-63.5317 505.5762,-67.1269 527.7298,-70.4441"/>
<polygon fill="#191970" stroke="#191970" points="527.3503,-73.9262 537.7584,-71.9457 528.3869,-67.0034 527.3503,-73.9262"/>
</g>
<!-- Node218&#45;&gt;Node216 -->
<g id="edge16" class="edge">
<title>Node218&#45;&gt;Node216</title>
<path fill="none" stroke="#191970" d="M461.1126,-48.6781C476.9391,-47.324 494.8967,-45.7875 512.4756,-44.2834"/>
<polygon fill="#191970" stroke="#191970" points="513.0978,-47.743 522.763,-43.4032 512.501,-40.7685 513.0978,-47.743"/>
</g>
</g>
</svg>
