<?xml version="1.0" encoding="UTF-8" standalone="no"?>
<!DOCTYPE svg PUBLIC "-//W3C//DTD SVG 1.1//EN"
 "http://www.w3.org/Graphics/SVG/1.1/DTD/svg11.dtd">
<!-- Generated by graphviz version 2.40.1 (20161225.0304)
 -->
<!-- Title: LocationFinder::getLocation Pages: 1 -->
<svg width="578pt" height="370pt"
 viewBox="0.00 0.00 578.00 370.00" xmlns="http://www.w3.org/2000/svg" xmlns:xlink="http://www.w3.org/1999/xlink">
<g id="graph0" class="graph" transform="scale(1 1) rotate(0) translate(4 366)">
<title>LocationFinder::getLocation</title>
<polygon fill="#ffffff" stroke="transparent" points="-4,4 -4,-366 574,-366 574,4 -4,4"/>
<!-- Node15 -->
<g id="node1" class="node">
<title>Node15</title>
<g id="a_node1"><a xlink:title="Get the position of the center of the frame relative to the given square.">
<polygon fill="#bfbfbf" stroke="#000000" points="0,-171.5 0,-190.5 150,-190.5 150,-171.5 0,-171.5"/>
<text text-anchor="middle" x="75" y="-178.5" font-family="Helvetica,sans-Serif" font-size="10.00" fill="#000000">LocationFinder::getLocation</text>
</a>
</g>
</g>
<!-- Node16 -->
<g id="node2" class="node">
<title>Node16</title>
<g id="a_node2"><a xlink:href="Square_8hpp.html#ace3999c20c4c886c00503d56c69ae204" target="_top" xlink:title=" ">
<polygon fill="#ffffff" stroke="#000000" points="231,-342.5 231,-361.5 260,-361.5 260,-342.5 231,-342.5"/>
<text text-anchor="middle" x="245.5" y="-349.5" font-family="Helvetica,sans-Serif" font-size="10.00" fill="#000000">sq</text>
</a>
</g>
</g>
<!-- Node15&#45;&gt;Node16 -->
<g id="edge1" class="edge">
<title>Node15&#45;&gt;Node16</title>
<path fill="none" stroke="#191970" d="M79.4286,-190.8357C92.0468,-217.7525 130.8645,-293.2566 186,-333 196.2371,-340.3792 209.4626,-344.9757 220.844,-347.7947"/>
<polygon fill="#191970" stroke="#191970" points="220.1254,-351.2201 230.6393,-349.9126 221.6048,-344.3782 220.1254,-351.2201"/>
</g>
<!-- Node17 -->
<g id="node3" class="node">
<title>Node17</title>
<g id="a_node3"><a xlink:href="classAngleTracker.html#a513f5d6f5b1affe00dcc82a036a3dc61" target="_top" xlink:title=" ">
<polygon fill="#ffffff" stroke="#000000" points="186,-304.5 186,-323.5 305,-323.5 305,-304.5 186,-304.5"/>
<text text-anchor="middle" x="245.5" y="-311.5" font-family="Helvetica,sans-Serif" font-size="10.00" fill="#000000">AngleTracker::update</text>
</a>
</g>
</g>
<!-- Node15&#45;&gt;Node17 -->
<g id="edge2" class="edge">
<title>Node15&#45;&gt;Node17</title>
<path fill="none" stroke="#191970" d="M81.8656,-190.8068C97.6943,-212.7056 139.0134,-265.9387 186,-295 189.3791,-297.09 193.0098,-298.9709 196.7509,-300.6598"/>
<polygon fill="#191970" stroke="#191970" points="195.6139,-303.9752 206.197,-304.4722 198.2337,-297.4839 195.6139,-303.9752"/>
</g>
<!-- Node20 -->
<g id="node6" class="node">
<title>Node20</title>
<g id="a_node6"><a xlink:href="structPoint.html#a8d557ec879d09e79de4bfb6dba117b71" target="_top" xlink:title=" ">
<polygon fill="#ffffff" stroke="#000000" points="205.5,-266.5 205.5,-285.5 285.5,-285.5 285.5,-266.5 205.5,-266.5"/>
<text text-anchor="middle" x="245.5" y="-273.5" font-family="Helvetica,sans-Serif" font-size="10.00" fill="#000000">Point::invalid</text>
</a>
</g>
</g>
<!-- Node15&#45;&gt;Node20 -->
<g id="edge5" class="edge">
<title>Node15&#45;&gt;Node20</title>
<path fill="none" stroke="#191970" d="M86.6054,-190.6598C106.0616,-206.4458 146.9741,-237.92 186,-257 190.396,-259.1492 195.0909,-261.1311 199.8429,-262.9379"/>
<polygon fill="#191970" stroke="#191970" points="199.0046,-266.3541 209.5993,-266.398 201.3444,-259.7567 199.0046,-266.3541"/>
</g>
<!-- Node21 -->
<g id="node7" class="node">
<title>Node21</title>
<g id="a_node7"><a xlink:href="Matrix_8hpp.html#aab34fe0fbeddb432c56d5a0bd5fed48d" target="_top" xlink:title=" ">
<polygon fill="#ffffff" stroke="#000000" points="226.5,-228.5 226.5,-247.5 264.5,-247.5 264.5,-228.5 226.5,-228.5"/>
<text text-anchor="middle" x="245.5" y="-235.5" font-family="Helvetica,sans-Serif" font-size="10.00" fill="#000000">diag</text>
</a>
</g>
</g>
<!-- Node15&#45;&gt;Node21 -->
<g id="edge6" class="edge">
<title>Node15&#45;&gt;Node21</title>
<path fill="none" stroke="#191970" d="M103.5379,-190.5405C135.0171,-201.0644 185.3775,-217.9004 216.8868,-228.4343"/>
<polygon fill="#191970" stroke="#191970" points="215.8131,-231.7657 226.4069,-231.617 218.0326,-225.1269 215.8131,-231.7657"/>
</g>
<!-- Node23 -->
<g id="node9" class="node">
<title>Node23</title>
<g id="a_node9"><a xlink:href="classAngle.html#ae86dc5141bbe946f1b2101064626ea5b" target="_top" xlink:title=" ">
<polygon fill="#ffffff" stroke="#000000" points="369.5,-190.5 369.5,-209.5 440.5,-209.5 440.5,-190.5 369.5,-190.5"/>
<text text-anchor="middle" x="405" y="-197.5" font-family="Helvetica,sans-Serif" font-size="10.00" fill="#000000">Angle::cosf</text>
</a>
</g>
</g>
<!-- Node15&#45;&gt;Node23 -->
<g id="edge8" class="edge">
<title>Node15&#45;&gt;Node23</title>
<path fill="none" stroke="#191970" d="M150.295,-185.3352C214.4966,-189.0316 304.7313,-194.227 358.7814,-197.3389"/>
<polygon fill="#191970" stroke="#191970" points="358.9058,-200.8518 369.0905,-197.9325 359.3082,-193.8634 358.9058,-200.8518"/>
</g>
<!-- Node24 -->
<g id="node10" class="node">
<title>Node24</title>
<g id="a_node10"><a xlink:href="classAngle.html#a01897132cd9fd91aaddc870e50df157b" target="_top" xlink:title=" ">
<polygon fill="#ffffff" stroke="#000000" points="371,-133.5 371,-152.5 439,-152.5 439,-133.5 371,-133.5"/>
<text text-anchor="middle" x="405" y="-140.5" font-family="Helvetica,sans-Serif" font-size="10.00" fill="#000000">Angle::sinf</text>
</a>
</g>
</g>
<!-- Node15&#45;&gt;Node24 -->
<g id="edge9" class="edge">
<title>Node15&#45;&gt;Node24</title>
<path fill="none" stroke="#191970" d="M96.1483,-171.4091C118.088,-162.0257 153.6512,-148.3838 186,-143 245.8944,-133.0318 316.2859,-135.5003 360.7702,-138.7681"/>
<polygon fill="#191970" stroke="#191970" points="360.7084,-142.2738 370.9506,-139.5634 361.2537,-135.2951 360.7084,-142.2738"/>
</g>
<!-- Node25 -->
<g id="node11" class="node">
<title>Node25</title>
<g id="a_node11"><a xlink:href="structPoint.html#ab0fa03b5388829db9118785408deba75" target="_top" xlink:title=" ">
<polygon fill="#ffffff" stroke="#000000" points="201,-76.5 201,-95.5 290,-95.5 290,-76.5 201,-76.5"/>
<text text-anchor="middle" x="245.5" y="-83.5" font-family="Helvetica,sans-Serif" font-size="10.00" fill="#000000">Point::distance</text>
</a>
</g>
</g>
<!-- Node15&#45;&gt;Node25 -->
<g id="edge10" class="edge">
<title>Node15&#45;&gt;Node25</title>
<path fill="none" stroke="#191970" d="M88.1873,-171.4165C108.5056,-156.92 148.9986,-129.0864 186,-110 193.3896,-106.1883 201.5288,-102.5588 209.3521,-99.3295"/>
<polygon fill="#191970" stroke="#191970" points="210.6818,-102.5673 218.6666,-95.6034 208.0819,-96.068 210.6818,-102.5673"/>
</g>
<!-- Node27 -->
<g id="node13" class="node">
<title>Node27</title>
<g id="a_node13"><a xlink:href="structPoint.html#a482c5bbc38af3c934eac31cb645aeba1" target="_top" xlink:title=" ">
<polygon fill="#ffffff" stroke="#000000" points="505,-38.5 505,-57.5 570,-57.5 570,-38.5 505,-38.5"/>
<text text-anchor="middle" x="537.5" y="-45.5" font-family="Helvetica,sans-Serif" font-size="10.00" fill="#000000">Point::vec</text>
</a>
</g>
</g>
<!-- Node15&#45;&gt;Node27 -->
<g id="edge19" class="edge">
<title>Node15&#45;&gt;Node27</title>
<path fill="none" stroke="#191970" d="M80.738,-171.3465C95.0629,-148.2857 134.9439,-90.1912 186,-67 288.6751,-20.3619 425.9595,-31.0864 494.6132,-40.7101"/>
<polygon fill="#191970" stroke="#191970" points="494.2282,-44.191 504.6296,-42.1756 495.2416,-37.2647 494.2282,-44.191"/>
</g>
<!-- Node29 -->
<g id="node15" class="node">
<title>Node29</title>
<g id="a_node15"><a xlink:href="structPoint.html#a1da0707b7db8d7a162e52f13c1809e34" target="_top" xlink:title=" ">
<polygon fill="#ffffff" stroke="#000000" points="361.5,-.5 361.5,-19.5 448.5,-19.5 448.5,-.5 361.5,-.5"/>
<text text-anchor="middle" x="405" y="-7.5" font-family="Helvetica,sans-Serif" font-size="10.00" fill="#000000">Point::average</text>
</a>
</g>
</g>
<!-- Node15&#45;&gt;Node29 -->
<g id="edge14" class="edge">
<title>Node15&#45;&gt;Node29</title>
<path fill="none" stroke="#191970" d="M78.9739,-171.2929C90.6773,-144.1 127.885,-67.0122 186,-34 236.5523,-5.2837 304.2822,-2.2075 350.9683,-4.4472"/>
<polygon fill="#191970" stroke="#191970" points="350.9979,-7.9546 361.1832,-5.0378 351.402,-.9663 350.9979,-7.9546"/>
</g>
<!-- Node30 -->
<g id="node16" class="node">
<title>Node30</title>
<g id="a_node16"><a xlink:href="Line_8hpp.html#aa04453ec6020fc09580f0a009ae1a4d2" target="_top" xlink:title=" ">
<polygon fill="#ffffff" stroke="#000000" points="222.5,-152.5 222.5,-171.5 268.5,-171.5 268.5,-152.5 222.5,-152.5"/>
<text text-anchor="middle" x="245.5" y="-159.5" font-family="Helvetica,sans-Serif" font-size="10.00" fill="#000000">rotate</text>
</a>
</g>
</g>
<!-- Node15&#45;&gt;Node30 -->
<g id="edge16" class="edge">
<title>Node15&#45;&gt;Node30</title>
<path fill="none" stroke="#191970" d="M150.2801,-172.611C171.8517,-170.2071 194.2868,-167.707 211.958,-165.7378"/>
<polygon fill="#191970" stroke="#191970" points="212.744,-169.172 222.2948,-164.5859 211.9687,-162.215 212.744,-169.172"/>
</g>
<!-- Node18 -->
<g id="node4" class="node">
<title>Node18</title>
<g id="a_node4"><a xlink:href="classAngle.html#a189165d5417fcc5489298a8c913a0e38" target="_top" xlink:title=" ">
<polygon fill="#ffffff" stroke="#000000" points="358.5,-323.5 358.5,-342.5 451.5,-342.5 451.5,-323.5 358.5,-323.5"/>
<text text-anchor="middle" x="405" y="-330.5" font-family="Helvetica,sans-Serif" font-size="10.00" fill="#000000">Angle::getIndex</text>
</a>
</g>
</g>
<!-- Node17&#45;&gt;Node18 -->
<g id="edge3" class="edge">
<title>Node17&#45;&gt;Node18</title>
<path fill="none" stroke="#191970" d="M305.3457,-321.129C319.4297,-322.8067 334.3984,-324.5898 348.3375,-326.2502"/>
<polygon fill="#191970" stroke="#191970" points="347.934,-329.7268 358.2778,-327.4344 348.7621,-322.776 347.934,-329.7268"/>
</g>
<!-- Node19 -->
<g id="node5" class="node">
<title>Node19</title>
<g id="a_node5"><a xlink:href="classAngle.html#a897da4bbf76522fea73951ea55c05ffb" target="_top" xlink:title=" ">
<polygon fill="#ffffff" stroke="#000000" points="341,-285.5 341,-304.5 469,-304.5 469,-285.5 341,-285.5"/>
<text text-anchor="middle" x="405" y="-292.5" font-family="Helvetica,sans-Serif" font-size="10.00" fill="#000000">Angle&lt; 360 &gt;::indexof</text>
</a>
</g>
</g>
<!-- Node17&#45;&gt;Node19 -->
<g id="edge4" class="edge">
<title>Node17&#45;&gt;Node19</title>
<path fill="none" stroke="#191970" d="M305.3457,-306.871C313.6687,-305.8796 322.3008,-304.8513 330.8467,-303.8333"/>
<polygon fill="#191970" stroke="#191970" points="331.2998,-307.3042 340.8156,-302.6458 330.4718,-300.3533 331.2998,-307.3042"/>
</g>
<!-- Node22 -->
<g id="node8" class="node">
<title>Node22</title>
<g id="a_node8"><a xlink:href="Matrix_8hpp.html#a045270fbe2cc7b50f4aa1f25212009fd" target="_top" xlink:title=" ">
<polygon fill="#ffffff" stroke="#000000" points="363.5,-228.5 363.5,-247.5 446.5,-247.5 446.5,-228.5 363.5,-228.5"/>
<text text-anchor="middle" x="405" y="-235.5" font-family="Helvetica,sans-Serif" font-size="10.00" fill="#000000">diagElements</text>
</a>
</g>
</g>
<!-- Node21&#45;&gt;Node22 -->
<g id="edge7" class="edge">
<title>Node21&#45;&gt;Node22</title>
<path fill="none" stroke="#191970" d="M264.7394,-238C286.5506,-238 323.0107,-238 353.2908,-238"/>
<polygon fill="#191970" stroke="#191970" points="353.2927,-241.5001 363.2926,-238 353.2926,-234.5001 353.2927,-241.5001"/>
</g>
<!-- Node26 -->
<g id="node12" class="node">
<title>Node26</title>
<g id="a_node12"><a xlink:href="structPoint.html#a94f25dd17cb1d1cefb726eaa673a8505" target="_top" xlink:title=" ">
<polygon fill="#ffffff" stroke="#000000" points="341,-76.5 341,-95.5 469,-95.5 469,-76.5 341,-76.5"/>
<text text-anchor="middle" x="405" y="-83.5" font-family="Helvetica,sans-Serif" font-size="10.00" fill="#000000">Point::distanceSquared</text>
</a>
</g>
</g>
<!-- Node25&#45;&gt;Node26 -->
<g id="edge11" class="edge">
<title>Node25&#45;&gt;Node26</title>
<path fill="none" stroke="#191970" d="M290.3541,-86C302.9587,-86 317.0119,-86 330.84,-86"/>
<polygon fill="#191970" stroke="#191970" points="330.8452,-89.5001 340.8452,-86 330.8452,-82.5001 330.8452,-89.5001"/>
</g>
<!-- Node26&#45;&gt;Node27 -->
<g id="edge12" class="edge">
<title>Node26&#45;&gt;Node27</title>
<path fill="none" stroke="#191970" d="M438.4353,-76.411C455.6416,-71.4764 476.7988,-65.4087 495.1367,-60.1495"/>
<polygon fill="#191970" stroke="#191970" points="496.3438,-63.4445 504.9914,-57.3232 494.414,-56.7157 496.3438,-63.4445"/>
</g>
<!-- Node28 -->
<g id="node14" class="node">
<title>Node28</title>
<g id="a_node14"><a xlink:href="Matrix_8hpp.html#abec71070cc8e64b7c426b3bfde2af39d" target="_top" xlink:title=" ">
<polygon fill="#ffffff" stroke="#000000" points="511,-76.5 511,-95.5 564,-95.5 564,-76.5 511,-76.5"/>
<text text-anchor="middle" x="537.5" y="-83.5" font-family="Helvetica,sans-Serif" font-size="10.00" fill="#000000">normsq</text>
</a>
</g>
</g>
<!-- Node26&#45;&gt;Node28 -->
<g id="edge13" class="edge">
<title>Node26&#45;&gt;Node28</title>
<path fill="none" stroke="#191970" d="M469.3093,-86C480.0589,-86 490.8767,-86 500.6293,-86"/>
<polygon fill="#191970" stroke="#191970" points="500.7403,-89.5001 510.7402,-86 500.7402,-82.5001 500.7403,-89.5001"/>
</g>
<!-- Node29&#45;&gt;Node27 -->
<g id="edge15" class="edge">
<title>Node29&#45;&gt;Node27</title>
<path fill="none" stroke="#191970" d="M438.4353,-19.589C455.6416,-24.5236 476.7988,-30.5913 495.1367,-35.8505"/>
<polygon fill="#191970" stroke="#191970" points="494.414,-39.2843 504.9914,-38.6768 496.3438,-32.5555 494.414,-39.2843"/>
</g>
<!-- Node30&#45;&gt;Node23 -->
<g id="edge17" class="edge">
<title>Node30&#45;&gt;Node23</title>
<path fill="none" stroke="#191970" d="M268.6927,-167.5255C292.446,-173.1846 329.9908,-182.1295 359.6676,-189.1998"/>
<polygon fill="#191970" stroke="#191970" points="358.86,-192.6053 369.399,-191.5182 360.4824,-185.7959 358.86,-192.6053"/>
</g>
<!-- Node30&#45;&gt;Node24 -->
<g id="edge18" class="edge">
<title>Node30&#45;&gt;Node24</title>
<path fill="none" stroke="#191970" d="M268.6927,-159.2372C292.7292,-156.374 330.8879,-151.8284 360.7255,-148.2741"/>
<polygon fill="#191970" stroke="#191970" points="361.3799,-151.721 370.8956,-147.0626 360.5518,-144.7701 361.3799,-151.721"/>
</g>
</g>
</svg>
