<?xml version="1.0" encoding="UTF-8" standalone="no"?>
<!DOCTYPE svg PUBLIC "-//W3C//DTD SVG 1.1//EN"
 "http://www.w3.org/Graphics/SVG/1.1/DTD/svg11.dtd">
<!-- Generated by graphviz version 2.40.1 (20161225.0304)
 -->
<!-- Title: BitString::concatenate Pages: 1 -->
<svg width="619pt" height="66pt"
 viewBox="0.00 0.00 619.00 66.00" xmlns="http://www.w3.org/2000/svg" xmlns:xlink="http://www.w3.org/1999/xlink">
<g id="graph0" class="graph" transform="scale(1 1) rotate(0) translate(4 62)">
<title>BitString::concatenate</title>
<polygon fill="#ffffff" stroke="transparent" points="-4,4 -4,-62 615,-62 615,4 -4,4"/>
<!-- Node19 -->
<g id="node1" class="node">
<title>Node19</title>
<g id="a_node1"><a xlink:title=" ">
<polygon fill="#bfbfbf" stroke="#000000" points="486,-19.5 486,-38.5 611,-38.5 611,-19.5 486,-19.5"/>
<text text-anchor="middle" x="548.5" y="-26.5" font-family="Helvetica,sans-Serif" font-size="10.00" fill="#000000">BitString::concatenate</text>
</a>
</g>
</g>
<!-- Node20 -->
<g id="node2" class="node">
<title>Node20</title>
<g id="a_node2"><a xlink:href="keccak_8hpp.html#ad2ec31efd2cbbecc017d9c4e61b379f7" target="_top" xlink:title=" ">
<polygon fill="#ffffff" stroke="#000000" points="383,-38.5 383,-57.5 434,-57.5 434,-38.5 383,-38.5"/>
<text text-anchor="middle" x="408.5" y="-45.5" font-family="Helvetica,sans-Serif" font-size="10.00" fill="#000000">keccak</text>
</a>
</g>
</g>
<!-- Node19&#45;&gt;Node20 -->
<g id="edge1" class="edge">
<title>Node19&#45;&gt;Node20</title>
<path fill="none" stroke="#191970" d="M475.5946,-38.8943C460.7442,-40.9097 446.0684,-42.9014 434.2469,-44.5058"/>
<polygon fill="#191970" stroke="#191970" points="476.4322,-42.3128 485.8706,-37.4997 475.4908,-35.3764 476.4322,-42.3128"/>
</g>
<!-- Node23 -->
<g id="node5" class="node">
<title>Node23</title>
<g id="a_node5"><a xlink:href="classKetje.html#ac4e54ac3a43763223844c3e315012362" target="_top" xlink:title=" ">
<polygon fill="#ffffff" stroke="#000000" points="367,-.5 367,-19.5 450,-19.5 450,-.5 367,-.5"/>
<text text-anchor="middle" x="408.5" y="-7.5" font-family="Helvetica,sans-Serif" font-size="10.00" fill="#000000">Ketje::unwrap</text>
</a>
</g>
</g>
<!-- Node19&#45;&gt;Node23 -->
<g id="edge4" class="edge">
<title>Node19&#45;&gt;Node23</title>
<path fill="none" stroke="#191970" d="M475.9202,-19.1499C467.101,-17.953 458.3365,-16.7635 450.1877,-15.6576"/>
<polygon fill="#191970" stroke="#191970" points="475.4908,-22.6236 485.8706,-20.5003 476.4322,-15.6872 475.4908,-22.6236"/>
</g>
<!-- Node21 -->
<g id="node3" class="node">
<title>Node21</title>
<g id="a_node3"><a xlink:href="namespaceHWImplementation.html#a803049b0475e6953f079b68b7e0d3a05" target="_top" xlink:title=" ">
<polygon fill="#ffffff" stroke="#000000" points="183,-38.5 183,-57.5 324,-57.5 324,-38.5 183,-38.5"/>
<text text-anchor="middle" x="253.5" y="-45.5" font-family="Helvetica,sans-Serif" font-size="10.00" fill="#000000">HWImplementation::hash</text>
</a>
</g>
</g>
<!-- Node20&#45;&gt;Node21 -->
<g id="edge2" class="edge">
<title>Node20&#45;&gt;Node21</title>
<path fill="none" stroke="#191970" d="M372.8982,-48C358.4149,-48 341.1403,-48 324.2917,-48"/>
<polygon fill="#191970" stroke="#191970" points="372.9049,-51.5001 382.9049,-48 372.9049,-44.5001 372.9049,-51.5001"/>
</g>
<!-- Node22 -->
<g id="node4" class="node">
<title>Node22</title>
<g id="a_node4"><a xlink:href="namespaceSWImplementation.html#ab0f297c83760f0be08281d3cac7d84ee" target="_top" xlink:title=" ">
<polygon fill="#ffffff" stroke="#000000" points="0,-38.5 0,-57.5 140,-57.5 140,-38.5 0,-38.5"/>
<text text-anchor="middle" x="70" y="-45.5" font-family="Helvetica,sans-Serif" font-size="10.00" fill="#000000">SWImplementation::hash</text>
</a>
</g>
</g>
<!-- Node21&#45;&gt;Node22 -->
<g id="edge3" class="edge">
<title>Node21&#45;&gt;Node22</title>
<path fill="none" stroke="#191970" d="M172.5179,-48C161.6906,-48 150.6604,-48 140.0417,-48"/>
<polygon fill="#191970" stroke="#191970" points="172.8166,-51.5001 182.8166,-48 172.8166,-44.5001 172.8166,-51.5001"/>
</g>
<!-- Node24 -->
<g id="node6" class="node">
<title>Node24</title>
<g id="a_node6"><a xlink:href="namespaceHWImplementation.html#abc6e81f17d057a26e8491533d5dfdc38" target="_top" xlink:title=" ">
<polygon fill="#ffffff" stroke="#000000" points="176,-.5 176,-19.5 331,-19.5 331,-.5 176,-.5"/>
<text text-anchor="middle" x="253.5" y="-7.5" font-family="Helvetica,sans-Serif" font-size="10.00" fill="#000000">HWImplementation::decrypt</text>
</a>
</g>
</g>
<!-- Node23&#45;&gt;Node24 -->
<g id="edge5" class="edge">
<title>Node23&#45;&gt;Node24</title>
<path fill="none" stroke="#191970" d="M356.7571,-10C348.4874,-10 339.7762,-10 331.0639,-10"/>
<polygon fill="#191970" stroke="#191970" points="356.9629,-13.5001 366.9628,-10 356.9628,-6.5001 356.9629,-13.5001"/>
</g>
</g>
</svg>
