<?xml version="1.0" encoding="UTF-8" standalone="no"?>
<!DOCTYPE svg PUBLIC "-//W3C//DTD SVG 1.1//EN"
 "http://www.w3.org/Graphics/SVG/1.1/DTD/svg11.dtd">
<!-- Generated by graphviz version 2.40.1 (20161225.0304)
 -->
<!-- Title: Quaternion::unit Pages: 1 -->
<svg width="432pt" height="80pt"
 viewBox="0.00 0.00 432.00 80.19" xmlns="http://www.w3.org/2000/svg" xmlns:xlink="http://www.w3.org/1999/xlink">
<g id="graph0" class="graph" transform="scale(1 1) rotate(0) translate(4 76.1902)">
<title>Quaternion::unit</title>
<polygon fill="#ffffff" stroke="transparent" points="-4,4 -4,-76.1902 428,-76.1902 428,4 -4,4"/>
<!-- Node61 -->
<g id="node1" class="node">
<title>Node61</title>
<g id="a_node1"><a xlink:title=" ">
<polygon fill="#bfbfbf" stroke="#000000" points="329,-38.5 329,-57.5 424,-57.5 424,-38.5 329,-38.5"/>
<text text-anchor="middle" x="376.5" y="-45.5" font-family="Helvetica,sans-Serif" font-size="10.00" fill="#000000">Quaternion::unit</text>
</a>
</g>
</g>
<!-- Node62 -->
<g id="node2" class="node">
<title>Node62</title>
<g id="a_node2"><a xlink:href="PyQuaternion_8cpp.html#a2957609bcf20d996c14300f7288e3300" target="_top" xlink:title=" ">
<polygon fill="#ffffff" stroke="#000000" points="0,-38.5 0,-57.5 113,-57.5 113,-38.5 0,-38.5"/>
<text text-anchor="middle" x="56.5" y="-45.5" font-family="Helvetica,sans-Serif" font-size="10.00" fill="#000000">PYBIND11_MODULE</text>
</a>
</g>
</g>
<!-- Node61&#45;&gt;Node62 -->
<g id="edge1" class="edge">
<title>Node61&#45;&gt;Node62</title>
<path fill="none" stroke="#191970" d="M332.7763,-59.8839C320.0496,-62.8149 306.0567,-65.5333 293,-67 229.4,-74.1446 212.6719,-73.4717 149,-67 130.7325,-65.1433 110.744,-61.2744 94.0369,-57.5095"/>
<polygon fill="#191970" stroke="#191970" points="333.7635,-63.2464 342.6694,-57.5075 332.1285,-56.44 333.7635,-63.2464"/>
</g>
<!-- Node63 -->
<g id="node3" class="node">
<title>Node63</title>
<g id="a_node3"><a xlink:href="classQuaternion.html#a188c088f67eaa4274851953394d1edc4" target="_top" xlink:title=" ">
<polygon fill="#ffffff" stroke="#000000" points="155.5,-38.5 155.5,-57.5 286.5,-57.5 286.5,-38.5 155.5,-38.5"/>
<text text-anchor="middle" x="221" y="-45.5" font-family="Helvetica,sans-Serif" font-size="10.00" fill="#000000">Quaternion::Quaternion</text>
</a>
</g>
</g>
<!-- Node61&#45;&gt;Node63 -->
<g id="edge2" class="edge">
<title>Node61&#45;&gt;Node63</title>
<path fill="none" stroke="#191970" d="M318.7167,-48C308.2292,-48 297.2218,-48 286.5305,-48"/>
<polygon fill="#191970" stroke="#191970" points="319,-51.5001 328.9999,-48 318.9999,-44.5001 319,-51.5001"/>
</g>
<!-- Node64 -->
<g id="node4" class="node">
<title>Node64</title>
<g id="a_node4"><a xlink:href="classQuaternion.html#afee65eb7b0f6feb1c6c857e271e1d7d1" target="_top" xlink:title=" ">
<polygon fill="#ffffff" stroke="#000000" points="149,-.5 149,-19.5 293,-19.5 293,-.5 149,-.5"/>
<text text-anchor="middle" x="221" y="-7.5" font-family="Helvetica,sans-Serif" font-size="10.00" fill="#000000">Quaternion::fromDirection</text>
</a>
</g>
</g>
<!-- Node61&#45;&gt;Node64 -->
<g id="edge3" class="edge">
<title>Node61&#45;&gt;Node64</title>
<path fill="none" stroke="#191970" d="M327.5258,-36.032C305.7348,-30.7069 280.4328,-24.5238 259.957,-19.5201"/>
<polygon fill="#191970" stroke="#191970" points="326.7157,-39.437 337.2608,-38.411 328.3775,-32.6371 326.7157,-39.437"/>
</g>
<!-- Node64&#45;&gt;Node62 -->
<g id="edge4" class="edge">
<title>Node64&#45;&gt;Node62</title>
<path fill="none" stroke="#191970" d="M169.5025,-21.8961C146.3803,-27.2374 119.4703,-33.4537 97.7118,-38.4799"/>
<polygon fill="#191970" stroke="#191970" points="170.5341,-25.25 179.4897,-19.589 168.9585,-18.4296 170.5341,-25.25"/>
</g>
</g>
</svg>
