<?xml version="1.0" encoding="UTF-8" standalone="no"?>
<!DOCTYPE svg PUBLIC "-//W3C//DTD SVG 1.1//EN"
 "http://www.w3.org/Graphics/SVG/1.1/DTD/svg11.dtd">
<!-- Generated by graphviz version 2.40.1 (20161225.0304)
 -->
<!-- Title: GridFinder::move Pages: 1 -->
<svg width="969pt" height="116pt"
 viewBox="0.00 0.00 969.00 115.50" xmlns="http://www.w3.org/2000/svg" xmlns:xlink="http://www.w3.org/1999/xlink">
<g id="graph0" class="graph" transform="scale(1 1) rotate(0) translate(4 111.5)">
<title>GridFinder::move</title>
<polygon fill="#ffffff" stroke="transparent" points="-4,4 -4,-111.5 965,-111.5 965,4 -4,4"/>
<!-- Node364 -->
<g id="node1" class="node">
<title>Node364</title>
<g id="a_node1"><a xlink:title="Move a pixel in a given direction for a given distance.">
<polygon fill="#bfbfbf" stroke="#000000" points="861,-41.5 861,-60.5 961,-60.5 961,-41.5 861,-41.5"/>
<text text-anchor="middle" x="911" y="-48.5" font-family="Helvetica,sans-Serif" font-size="10.00" fill="#000000">GridFinder::move</text>
</a>
</g>
</g>
<!-- Node365 -->
<g id="node2" class="node">
<title>Node365</title>
<g id="a_node2"><a xlink:href="classGridFinder.html#abcd46f31e256080b2d5d2aee03c0e258" target="_top" xlink:title="Find the middle of a line.">
<polygon fill="#ffffff" stroke="#000000" points="705,-41.5 705,-60.5 825,-60.5 825,-41.5 705,-41.5"/>
<text text-anchor="middle" x="765" y="-48.5" font-family="Helvetica,sans-Serif" font-size="10.00" fill="#000000">GridFinder::getMiddle</text>
</a>
</g>
</g>
<!-- Node364&#45;&gt;Node365 -->
<g id="edge1" class="edge">
<title>Node364&#45;&gt;Node365</title>
<path fill="none" stroke="#191970" d="M850.6351,-51C842.2189,-51 833.5716,-51 825.1592,-51"/>
<polygon fill="#191970" stroke="#191970" points="850.7551,-54.5001 860.7551,-51 850.755,-47.5001 850.7551,-54.5001"/>
</g>
<!-- Node366 -->
<g id="node3" class="node">
<title>Node366</title>
<g id="a_node3"><a xlink:href="classGridFinder.html#af830abf29ca6dc9c01197a38fe16e1e5" target="_top" xlink:title="In exceptional cases, we might want to find the middle of a line in a point that happens to lie at th...">
<polygon fill="#ffffff" stroke="#000000" points="526,-77 526,-107 669,-107 669,-77 526,-77"/>
<text text-anchor="start" x="534" y="-95" font-family="Helvetica,sans-Serif" font-size="10.00" fill="#000000">GridFinder::getMiddleWith</text>
<text text-anchor="middle" x="597.5" y="-84" font-family="Helvetica,sans-Serif" font-size="10.00" fill="#000000">Retries</text>
</a>
</g>
</g>
<!-- Node364&#45;&gt;Node366 -->
<g id="edge9" class="edge">
<title>Node364&#45;&gt;Node366</title>
<path fill="none" stroke="#191970" d="M862.6434,-62.7591C850.4157,-65.4355 837.271,-68.0585 825,-70 773.167,-78.2011 714.1734,-83.8001 669.2507,-87.2968"/>
<polygon fill="#191970" stroke="#191970" points="863.6684,-66.1163 872.6598,-60.5122 862.1362,-59.286 863.6684,-66.1163"/>
</g>
<!-- Node369 -->
<g id="node6" class="node">
<title>Node369</title>
<g id="a_node6"><a xlink:href="classGridFinder.html#a54369e6368334eb2924ca70ee1f1d438" target="_top" xlink:title="Follow the given line to find the line perpendicular to it. Move along the line for minDistance pixel...">
<polygon fill="#ffffff" stroke="#000000" points="356,-19.5 356,-38.5 490,-38.5 490,-19.5 356,-19.5"/>
<text text-anchor="middle" x="423" y="-26.5" font-family="Helvetica,sans-Serif" font-size="10.00" fill="#000000">GridFinder::findNextLine</text>
</a>
</g>
</g>
<!-- Node364&#45;&gt;Node369 -->
<g id="edge10" class="edge">
<title>Node364&#45;&gt;Node369</title>
<path fill="none" stroke="#191970" d="M865.2265,-39.1248C852.3074,-36.2553 838.1789,-33.5668 825,-32 707.8737,-18.075 570.1966,-21.228 490.1465,-24.9792"/>
<polygon fill="#191970" stroke="#191970" points="864.7558,-42.6081 875.2868,-41.4469 866.3302,-35.7874 864.7558,-42.6081"/>
</g>
<!-- Node365&#45;&gt;Node366 -->
<g id="edge2" class="edge">
<title>Node365&#45;&gt;Node366</title>
<path fill="none" stroke="#191970" d="M715.9957,-62.9951C698.1947,-67.3523 677.8482,-72.3327 659.0978,-76.9223"/>
<polygon fill="#191970" stroke="#191970" points="717.27,-66.2866 726.1511,-60.5093 715.6057,-59.4873 717.27,-66.2866"/>
</g>
<!-- Node368 -->
<g id="node5" class="node">
<title>Node368</title>
<g id="a_node5"><a xlink:href="classGridFinder.html#ae12ca7921b02b37417d87fc737f0134d" target="_top" xlink:title="Check if there could be a valid line going through the given point, and if so, find and return the ac...">
<polygon fill="#ffffff" stroke="#000000" points="537,-38.5 537,-57.5 658,-57.5 658,-38.5 537,-38.5"/>
<text text-anchor="middle" x="597.5" y="-45.5" font-family="Helvetica,sans-Serif" font-size="10.00" fill="#000000">GridFinder::checkLine</text>
</a>
</g>
</g>
<!-- Node365&#45;&gt;Node368 -->
<g id="edge4" class="edge">
<title>Node365&#45;&gt;Node368</title>
<path fill="none" stroke="#191970" d="M694.4935,-49.7372C682.4141,-49.5209 669.9577,-49.2977 658.1638,-49.0865"/>
<polygon fill="#191970" stroke="#191970" points="694.4675,-53.2372 704.5287,-49.9169 694.593,-46.2383 694.4675,-53.2372"/>
</g>
<!-- Node367 -->
<g id="node4" class="node">
<title>Node367</title>
<g id="a_node4"><a xlink:href="classGridFinder.html#aaea3af418ab7124f2b25bcc124fccaca" target="_top" xlink:title="Get an estimate of the line through a given pixel. Find an estimate of the slope, then use that to de...">
<polygon fill="#ffffff" stroke="#000000" points="359,-77 359,-107 487,-107 487,-77 359,-77"/>
<text text-anchor="start" x="367" y="-95" font-family="Helvetica,sans-Serif" font-size="10.00" fill="#000000">GridFinder::getFirstLine</text>
<text text-anchor="middle" x="423" y="-84" font-family="Helvetica,sans-Serif" font-size="10.00" fill="#000000">Estimate</text>
</a>
</g>
</g>
<!-- Node366&#45;&gt;Node367 -->
<g id="edge3" class="edge">
<title>Node366&#45;&gt;Node367</title>
<path fill="none" stroke="#191970" d="M515.5054,-92C505.9971,-92 496.4052,-92 487.1837,-92"/>
<polygon fill="#191970" stroke="#191970" points="515.7688,-95.5001 525.7688,-92 515.7687,-88.5001 515.7688,-95.5001"/>
</g>
<!-- Node368&#45;&gt;Node369 -->
<g id="edge5" class="edge">
<title>Node368&#45;&gt;Node369</title>
<path fill="none" stroke="#191970" d="M526.9271,-40.3159C514.8358,-38.9993 502.3005,-37.6344 490.2976,-36.3275"/>
<polygon fill="#191970" stroke="#191970" points="526.638,-43.805 536.9581,-41.408 527.3957,-36.8461 526.638,-43.805"/>
</g>
<!-- Node370 -->
<g id="node7" class="node">
<title>Node370</title>
<g id="a_node7"><a xlink:href="classGridFinder.html#a3edbd3ffbcfe6d373fbaf576e4dca51b" target="_top" xlink:title="Equivalent to #findNextLine(LineResult,bool,uint,uint) but also supports optional LineResults.">
<polygon fill="#ffffff" stroke="#000000" points="186,-38.5 186,-57.5 320,-57.5 320,-38.5 186,-38.5"/>
<text text-anchor="middle" x="253" y="-45.5" font-family="Helvetica,sans-Serif" font-size="10.00" fill="#000000">GridFinder::findNextLine</text>
</a>
</g>
</g>
<!-- Node369&#45;&gt;Node370 -->
<g id="edge6" class="edge">
<title>Node369&#45;&gt;Node370</title>
<path fill="none" stroke="#191970" d="M345.854,-37.6222C337.3121,-38.5769 328.6634,-39.5435 320.2572,-40.483"/>
<polygon fill="#191970" stroke="#191970" points="346.2622,-41.0985 355.8115,-36.5093 345.4846,-34.1418 346.2622,-41.0985"/>
</g>
<!-- Node371 -->
<g id="node8" class="node">
<title>Node371</title>
<g id="a_node8"><a xlink:href="classGridFinder.html#a8940ca681fac78274043cf5f1f1f5761" target="_top" xlink:title="This is the main function: it looks for a complete square of the grid, as close to the center of the ...">
<polygon fill="#ffffff" stroke="#000000" points="191,-.5 191,-19.5 315,-19.5 315,-.5 191,-.5"/>
<text text-anchor="middle" x="253" y="-7.5" font-family="Helvetica,sans-Serif" font-size="10.00" fill="#000000">GridFinder::findSquare</text>
</a>
</g>
</g>
<!-- Node369&#45;&gt;Node371 -->
<g id="edge7" class="edge">
<title>Node369&#45;&gt;Node371</title>
<path fill="none" stroke="#191970" d="M345.624,-20.3521C335.3644,-19.2054 324.9554,-18.0421 315.0015,-16.9296"/>
<polygon fill="#191970" stroke="#191970" points="345.4846,-23.8582 355.8115,-21.4907 346.2622,-16.9015 345.4846,-23.8582"/>
</g>
<!-- Node372 -->
<g id="node9" class="node">
<title>Node372</title>
<g id="a_node9"><a xlink:href="classLocationFinder.html#a398bb42565e1e2a499471765f569bc40" target="_top" xlink:title=" ">
<polygon fill="#ffffff" stroke="#000000" points="0,-.5 0,-19.5 150,-19.5 150,-.5 0,-.5"/>
<text text-anchor="middle" x="75" y="-7.5" font-family="Helvetica,sans-Serif" font-size="10.00" fill="#000000">LocationFinder::getLocation</text>
</a>
</g>
</g>
<!-- Node371&#45;&gt;Node372 -->
<g id="edge8" class="edge">
<title>Node371&#45;&gt;Node372</title>
<path fill="none" stroke="#191970" d="M180.4379,-10C170.4268,-10 160.1282,-10 150.0729,-10"/>
<polygon fill="#191970" stroke="#191970" points="180.7443,-13.5001 190.7442,-10 180.7442,-6.5001 180.7443,-13.5001"/>
</g>
</g>
</svg>
