<?xml version="1.0" encoding="UTF-8" standalone="no"?>
<!DOCTYPE svg PUBLIC "-//W3C//DTD SVG 1.1//EN"
 "http://www.w3.org/Graphics/SVG/1.1/DTD/svg11.dtd">
<!-- Generated by graphviz version 2.40.1 (20161225.0304)
 -->
<!-- Title: GridFinder::findSquare Pages: 1 -->
<svg width="1333pt" height="537pt"
 viewBox="0.00 0.00 1333.00 536.50" xmlns="http://www.w3.org/2000/svg" xmlns:xlink="http://www.w3.org/1999/xlink">
<g id="graph0" class="graph" transform="scale(1 1) rotate(0) translate(4 532.5)">
<title>GridFinder::findSquare</title>
<polygon fill="#ffffff" stroke="transparent" points="-4,4 -4,-532.5 1329,-532.5 1329,4 -4,4"/>
<!-- Node105 -->
<g id="node1" class="node">
<title>Node105</title>
<g id="a_node1"><a xlink:title="This is the main function: it looks for a complete square of the grid, as close to the center of the ...">
<polygon fill="#bfbfbf" stroke="#000000" points="0,-114.5 0,-133.5 124,-133.5 124,-114.5 0,-114.5"/>
<text text-anchor="middle" x="62" y="-121.5" font-family="Helvetica,sans-Serif" font-size="10.00" fill="#000000">GridFinder::findSquare</text>
</a>
</g>
</g>
<!-- Node106 -->
<g id="node2" class="node">
<title>Node106</title>
<g id="a_node2"><a xlink:href="Square_8hpp.html#ace3999c20c4c886c00503d56c69ae204" target="_top" xlink:title=" ">
<polygon fill="#ffffff" stroke="#000000" points="219,-390.5 219,-409.5 248,-409.5 248,-390.5 219,-390.5"/>
<text text-anchor="middle" x="233.5" y="-397.5" font-family="Helvetica,sans-Serif" font-size="10.00" fill="#000000">sq</text>
</a>
</g>
</g>
<!-- Node105&#45;&gt;Node106 -->
<g id="edge1" class="edge">
<title>Node105&#45;&gt;Node106</title>
<path fill="none" stroke="#191970" d="M62.6235,-133.6625C65.6019,-171.5013 81.6974,-310.9637 160,-381 173.3295,-392.9223 193.1774,-397.544 208.8891,-399.2547"/>
<polygon fill="#191970" stroke="#191970" points="208.7364,-402.7532 218.9747,-400.028 209.2716,-395.7737 208.7364,-402.7532"/>
</g>
<!-- Node107 -->
<g id="node3" class="node">
<title>Node107</title>
<g id="a_node3"><a xlink:href="classGridFinder.html#a8ac6a50ff32685b1e958cbb0a88ca4dc" target="_top" xlink:title="Get the first two lines. These are the two half lines that make up the line closest to the center of ...">
<polygon fill="#ffffff" stroke="#000000" points="160,-341 160,-371 307,-371 307,-341 160,-341"/>
<text text-anchor="start" x="168" y="-359" font-family="Helvetica,sans-Serif" font-size="10.00" fill="#000000">GridFinder::getFirstTwoHalf</text>
<text text-anchor="middle" x="233.5" y="-348" font-family="Helvetica,sans-Serif" font-size="10.00" fill="#000000">Lines</text>
</a>
</g>
</g>
<!-- Node105&#45;&gt;Node107 -->
<g id="edge2" class="edge">
<title>Node105&#45;&gt;Node107</title>
<path fill="none" stroke="#191970" d="M69.1508,-133.6734C94.328,-167.7323 179.3343,-282.7262 216.2027,-332.6007"/>
<polygon fill="#191970" stroke="#191970" points="213.5407,-334.8876 222.2996,-340.8485 219.1697,-330.7265 213.5407,-334.8876"/>
</g>
<!-- Node112 -->
<g id="node8" class="node">
<title>Node112</title>
<g id="a_node8"><a xlink:href="classLine.html#ade63ea812bc1673307538a83b82da577" target="_top" xlink:title=" ">
<polygon fill="#ffffff" stroke="#000000" points="186,-76.5 186,-95.5 281,-95.5 281,-76.5 186,-76.5"/>
<text text-anchor="middle" x="233.5" y="-83.5" font-family="Helvetica,sans-Serif" font-size="10.00" fill="#000000">Line::leftOfPoint</text>
</a>
</g>
</g>
<!-- Node105&#45;&gt;Node112 -->
<g id="edge7" class="edge">
<title>Node105&#45;&gt;Node112</title>
<path fill="none" stroke="#191970" d="M105.2767,-114.411C128.1119,-109.3513 156.3232,-103.1004 180.4648,-97.7512"/>
<polygon fill="#191970" stroke="#191970" points="181.5285,-101.1005 190.5345,-95.5201 180.0141,-94.2663 181.5285,-101.1005"/>
</g>
<!-- Node113 -->
<g id="node9" class="node">
<title>Node113</title>
<g id="a_node9"><a xlink:href="classGridFinder.html#af5906137a7b42eeeb983781128fcd463" target="_top" xlink:title="Get the center pixel of the frame.">
<polygon fill="#ffffff" stroke="#000000" points="182,-38.5 182,-57.5 285,-57.5 285,-38.5 182,-38.5"/>
<text text-anchor="middle" x="233.5" y="-45.5" font-family="Helvetica,sans-Serif" font-size="10.00" fill="#000000">GridFinder::center</text>
</a>
</g>
</g>
<!-- Node105&#45;&gt;Node113 -->
<g id="edge8" class="edge">
<title>Node105&#45;&gt;Node113</title>
<path fill="none" stroke="#191970" d="M75.656,-114.4237C94.0435,-101.9207 128.1406,-80.0917 160,-67 165.9201,-64.5673 172.2391,-62.3738 178.5926,-60.4164"/>
<polygon fill="#191970" stroke="#191970" points="179.9196,-63.676 188.5526,-57.5342 177.9738,-56.9519 179.9196,-63.676"/>
</g>
<!-- Node114 -->
<g id="node10" class="node">
<title>Node114</title>
<g id="a_node10"><a xlink:href="classGridFinder.html#a79b62fc48a9db94ad0530e76ed2c3306" target="_top" xlink:title="Follow the given line to find the line perpendicular to it. Move along the line for minDistance pixel...">
<polygon fill="#ffffff" stroke="#000000" points="166.5,-210.5 166.5,-229.5 300.5,-229.5 300.5,-210.5 166.5,-210.5"/>
<text text-anchor="middle" x="233.5" y="-217.5" font-family="Helvetica,sans-Serif" font-size="10.00" fill="#000000">GridFinder::findNextLine</text>
</a>
</g>
</g>
<!-- Node105&#45;&gt;Node114 -->
<g id="edge9" class="edge">
<title>Node105&#45;&gt;Node114</title>
<path fill="none" stroke="#191970" d="M79.0711,-133.5558C109.2475,-150.4476 172.1718,-185.6705 207.6788,-205.5462"/>
<polygon fill="#191970" stroke="#191970" points="206.0624,-208.6524 216.498,-210.4828 209.4816,-202.5442 206.0624,-208.6524"/>
</g>
<!-- Node128 -->
<g id="node24" class="node">
<title>Node128</title>
<g id="a_node24"><a xlink:href="Array_8hpp.html#a54bae1a9c86ad6bc491b4f10495a759f" target="_top" xlink:title=" ">
<polygon fill="#ffffff" stroke="#000000" points="749,-114.5 749,-133.5 783,-133.5 783,-114.5 749,-114.5"/>
<text text-anchor="middle" x="766" y="-121.5" font-family="Helvetica,sans-Serif" font-size="10.00" fill="#000000">abs</text>
</a>
</g>
</g>
<!-- Node105&#45;&gt;Node128 -->
<g id="edge38" class="edge">
<title>Node105&#45;&gt;Node128</title>
<path fill="none" stroke="#191970" d="M124.1665,-124C271.1946,-124 635.6819,-124 738.5646,-124"/>
<polygon fill="#191970" stroke="#191970" points="738.7458,-127.5001 748.7457,-124 738.7457,-120.5001 738.7458,-127.5001"/>
</g>
<!-- Node129 -->
<g id="node25" class="node">
<title>Node129</title>
<g id="a_node25"><a xlink:href="classGridFinder.html#a5657aed220771995d8fd1b9e3779b226" target="_top" xlink:title="Get the point of intersection of two lines.">
<polygon fill="#ffffff" stroke="#000000" points="176,-.5 176,-19.5 291,-19.5 291,-.5 176,-.5"/>
<text text-anchor="middle" x="233.5" y="-7.5" font-family="Helvetica,sans-Serif" font-size="10.00" fill="#000000">GridFinder::intersect</text>
</a>
</g>
</g>
<!-- Node105&#45;&gt;Node129 -->
<g id="edge35" class="edge">
<title>Node105&#45;&gt;Node129</title>
<path fill="none" stroke="#191970" d="M69.1774,-114.2407C83.9358,-94.8975 119.705,-51.614 160,-29 163.9868,-26.7625 168.2427,-24.7826 172.6215,-23.0314"/>
<polygon fill="#191970" stroke="#191970" points="174.1103,-26.2161 182.347,-19.5522 171.7525,-19.6252 174.1103,-26.2161"/>
</g>
<!-- Node108 -->
<g id="node4" class="node">
<title>Node108</title>
<g id="a_node4"><a xlink:href="classGridFinder.html#a0de487d16731e34827c6dbc08c0eeb1b" target="_top" xlink:title="Get an estimate of the first line. Searches in multiple columns, starting from the center,...">
<polygon fill="#ffffff" stroke="#000000" points="343,-459 343,-489 471,-489 471,-459 343,-459"/>
<text text-anchor="start" x="351" y="-477" font-family="Helvetica,sans-Serif" font-size="10.00" fill="#000000">GridFinder::getFirstLine</text>
<text text-anchor="middle" x="407" y="-466" font-family="Helvetica,sans-Serif" font-size="10.00" fill="#000000">Estimate</text>
</a>
</g>
</g>
<!-- Node107&#45;&gt;Node108 -->
<g id="edge3" class="edge">
<title>Node107&#45;&gt;Node108</title>
<path fill="none" stroke="#191970" d="M291.4498,-371.0882C297.0163,-373.8652 302.3212,-377.1404 307,-381 331.877,-401.5216 319.294,-422.1362 343,-444 347.0028,-447.6918 351.541,-451.0051 356.3085,-453.9602"/>
<polygon fill="#191970" stroke="#191970" points="354.6414,-457.0382 365.0719,-458.897 358.0772,-450.9393 354.6414,-457.0382"/>
</g>
<!-- Node111 -->
<g id="node7" class="node">
<title>Node111</title>
<g id="a_node7"><a xlink:href="classAngle.html#a84ce9a0e2a186ada6997077fd96d6e4c" target="_top" xlink:title=" ">
<polygon fill="#ffffff" stroke="#000000" points="510.5,-352.5 510.5,-371.5 650.5,-371.5 650.5,-352.5 510.5,-352.5"/>
<text text-anchor="middle" x="580.5" y="-359.5" font-family="Helvetica,sans-Serif" font-size="10.00" fill="#000000">Angle&lt; 360 &gt;::resolution</text>
</a>
</g>
</g>
<!-- Node107&#45;&gt;Node111 -->
<g id="edge6" class="edge">
<title>Node107&#45;&gt;Node111</title>
<path fill="none" stroke="#191970" d="M307.0898,-357.2724C363.6737,-358.2508 441.7644,-359.6011 500.0058,-360.6082"/>
<polygon fill="#191970" stroke="#191970" points="500.2138,-364.1122 510.2728,-360.7857 500.3349,-357.1132 500.2138,-364.1122"/>
</g>
<!-- Node109 -->
<g id="node5" class="node">
<title>Node109</title>
<g id="a_node5"><a xlink:href="classCenterPointOutLineIterator.html#a6f4fda8865e7d1def0a8614622f0f6ef" target="_top" xlink:title=" ">
<polygon fill="#ffffff" stroke="#000000" points="507,-498 507,-528 654,-528 654,-498 507,-498"/>
<text text-anchor="start" x="515" y="-516" font-family="Helvetica,sans-Serif" font-size="10.00" fill="#000000">CenterPointOutLineIterator</text>
<text text-anchor="middle" x="580.5" y="-505" font-family="Helvetica,sans-Serif" font-size="10.00" fill="#000000">::hasNext</text>
</a>
</g>
</g>
<!-- Node108&#45;&gt;Node109 -->
<g id="edge4" class="edge">
<title>Node108&#45;&gt;Node109</title>
<path fill="none" stroke="#191970" d="M471.1121,-488.4114C481.7546,-490.8036 492.8858,-493.3057 503.8018,-495.7595"/>
<polygon fill="#191970" stroke="#191970" points="503.2219,-499.2164 513.7461,-497.9948 504.7571,-492.3868 503.2219,-499.2164"/>
</g>
<!-- Node110 -->
<g id="node6" class="node">
<title>Node110</title>
<g id="a_node6"><a xlink:href="classCenterPointOutLineIterator.html#a89580e1393d0dfc3ff12c7a5af2a4374" target="_top" xlink:title=" ">
<polygon fill="#ffffff" stroke="#000000" points="507,-449 507,-479 654,-479 654,-449 507,-449"/>
<text text-anchor="start" x="515" y="-467" font-family="Helvetica,sans-Serif" font-size="10.00" fill="#000000">CenterPointOutLineIterator</text>
<text text-anchor="middle" x="580.5" y="-456" font-family="Helvetica,sans-Serif" font-size="10.00" fill="#000000">::next</text>
</a>
</g>
</g>
<!-- Node108&#45;&gt;Node110 -->
<g id="edge5" class="edge">
<title>Node108&#45;&gt;Node110</title>
<path fill="none" stroke="#191970" d="M471.1121,-470.3048C479.5072,-469.8209 488.2065,-469.3195 496.8643,-468.8205"/>
<polygon fill="#191970" stroke="#191970" points="497.2062,-472.3067 506.9882,-468.237 496.8033,-465.3183 497.2062,-472.3067"/>
</g>
<!-- Node115 -->
<g id="node11" class="node">
<title>Node115</title>
<g id="a_node11"><a xlink:href="classAngle.html#aa9c7edb3027272ad1e45098383f0a94d" target="_top" xlink:title=" ">
<polygon fill="#ffffff" stroke="#000000" points="348.5,-267.5 348.5,-286.5 465.5,-286.5 465.5,-267.5 348.5,-267.5"/>
<text text-anchor="middle" x="407" y="-274.5" font-family="Helvetica,sans-Serif" font-size="10.00" fill="#000000">Angle::perpendicular</text>
</a>
</g>
</g>
<!-- Node114&#45;&gt;Node115 -->
<g id="edge10" class="edge">
<title>Node114&#45;&gt;Node115</title>
<path fill="none" stroke="#191970" d="M259.9388,-229.553C282.0468,-237.45 314.4585,-248.8162 343,-258 349.6717,-260.1468 356.7624,-262.3394 363.7019,-264.4366"/>
<polygon fill="#191970" stroke="#191970" points="363.1109,-267.9129 373.6944,-267.4242 365.1162,-261.2062 363.1109,-267.9129"/>
</g>
<!-- Node116 -->
<g id="node12" class="node">
<title>Node116</title>
<g id="a_node12"><a xlink:href="classGridFinder.html#a9b31ec7807efc6e1fde49f5a56c0d0fa" target="_top" xlink:title="Move a pixel in a given direction for a given distance.">
<polygon fill="#ffffff" stroke="#000000" points="716,-354.5 716,-373.5 816,-373.5 816,-354.5 716,-354.5"/>
<text text-anchor="middle" x="766" y="-361.5" font-family="Helvetica,sans-Serif" font-size="10.00" fill="#000000">GridFinder::move</text>
</a>
</g>
</g>
<!-- Node114&#45;&gt;Node116 -->
<g id="edge11" class="edge">
<title>Node114&#45;&gt;Node116</title>
<path fill="none" stroke="#191970" d="M243.7236,-229.5725C262.0422,-246.1189 302.3576,-279.8441 343,-296 472.9045,-347.6387 516.1686,-319.6709 654,-343 671.3655,-345.9393 690.1981,-349.3739 707.3771,-352.6039"/>
<polygon fill="#191970" stroke="#191970" points="706.8009,-356.0569 717.2772,-354.4768 708.1021,-349.1789 706.8009,-356.0569"/>
</g>
<!-- Node117 -->
<g id="node13" class="node">
<title>Node117</title>
<g id="a_node13"><a xlink:href="classBresenhamLine.html#aba0822ee20811d67cd9539ccbe1cd346" target="_top" xlink:title=" ">
<polygon fill="#ffffff" stroke="#000000" points="1064,-310.5 1064,-329.5 1203,-329.5 1203,-310.5 1064,-310.5"/>
<text text-anchor="middle" x="1133.5" y="-317.5" font-family="Helvetica,sans-Serif" font-size="10.00" fill="#000000">BresenhamLine::hasNext</text>
</a>
</g>
</g>
<!-- Node114&#45;&gt;Node117 -->
<g id="edge18" class="edge">
<title>Node114&#45;&gt;Node117</title>
<path fill="none" stroke="#191970" d="M247.2959,-210.3631C292.6729,-179.6381 442.3012,-86 580.5,-86 580.5,-86 580.5,-86 766,-86 841.6504,-86 1020.1521,-174.9752 1028,-181 1072.2599,-214.9783 1107.442,-272.013 1123.699,-301.3407"/>
<polygon fill="#191970" stroke="#191970" points="1120.6313,-303.0259 1128.4725,-310.151 1126.786,-299.6913 1120.6313,-303.0259"/>
</g>
<!-- Node120 -->
<g id="node16" class="node">
<title>Node120</title>
<g id="a_node16"><a xlink:href="classBresenhamLine.html#a10d505e30945f42a5cd0270c315b104f" target="_top" xlink:title=" ">
<polygon fill="#ffffff" stroke="#000000" points="893,-392.5 893,-411.5 1013,-411.5 1013,-392.5 893,-392.5"/>
<text text-anchor="middle" x="953" y="-399.5" font-family="Helvetica,sans-Serif" font-size="10.00" fill="#000000">BresenhamLine::next</text>
</a>
</g>
</g>
<!-- Node114&#45;&gt;Node120 -->
<g id="edge17" class="edge">
<title>Node114&#45;&gt;Node120</title>
<path fill="none" stroke="#191970" d="M240.9224,-229.666C257.2141,-250.2561 298.2388,-298.7798 343,-326 514.224,-430.1247 762.4583,-422.3877 882.6048,-410.8691"/>
<polygon fill="#191970" stroke="#191970" points="883.1751,-414.3297 892.7786,-409.855 882.4807,-407.3642 883.1751,-414.3297"/>
</g>
<!-- Node121 -->
<g id="node17" class="node">
<title>Node121</title>
<g id="a_node17"><a xlink:href="classGridFinder.html#a53cfbafaf3cd06baac2a19eeee0cfb73" target="_top" xlink:title="Get the value of the given pixel.">
<polygon fill="#ffffff" stroke="#000000" points="909,-190.5 909,-209.5 997,-209.5 997,-190.5 909,-190.5"/>
<text text-anchor="middle" x="953" y="-197.5" font-family="Helvetica,sans-Serif" font-size="10.00" fill="#000000">GridFinder::get</text>
</a>
</g>
</g>
<!-- Node114&#45;&gt;Node121 -->
<g id="edge19" class="edge">
<title>Node114&#45;&gt;Node121</title>
<path fill="none" stroke="#191970" d="M254.3481,-210.4099C275.9799,-201.0271 311.0534,-187.3857 343,-182 545.9257,-147.7899 792.0782,-175.8541 899.0448,-191.3878"/>
<polygon fill="#191970" stroke="#191970" points="898.5521,-194.8529 908.9558,-192.8495 899.5735,-187.9278 898.5521,-194.8529"/>
</g>
<!-- Node122 -->
<g id="node18" class="node">
<title>Node122</title>
<g id="a_node18"><a xlink:href="structPixel.html#ac3b82b3e3cd3b812dc1a0bccb474511f" target="_top" xlink:title=" ">
<polygon fill="#ffffff" stroke="#000000" points="364,-191.5 364,-210.5 450,-210.5 450,-191.5 364,-191.5"/>
<text text-anchor="middle" x="407" y="-198.5" font-family="Helvetica,sans-Serif" font-size="10.00" fill="#000000">Pixel::average</text>
</a>
</g>
</g>
<!-- Node114&#45;&gt;Node122 -->
<g id="edge20" class="edge">
<title>Node114&#45;&gt;Node122</title>
<path fill="none" stroke="#191970" d="M300.5796,-212.6541C318.1894,-210.7257 336.9407,-208.6722 353.7192,-206.8348"/>
<polygon fill="#191970" stroke="#191970" points="354.3238,-210.2896 363.8833,-205.7217 353.5617,-203.3312 354.3238,-210.2896"/>
</g>
<!-- Node123 -->
<g id="node19" class="node">
<title>Node123</title>
<g id="a_node19"><a xlink:href="classGridFinder.html#a9050aab45d10d2c2d4859af19b4987b4" target="_top" xlink:title="Check if there could be a valid line going through the given point, and if so, find and return the ac...">
<polygon fill="#ffffff" stroke="#000000" points="346.5,-229.5 346.5,-248.5 467.5,-248.5 467.5,-229.5 346.5,-229.5"/>
<text text-anchor="middle" x="407" y="-236.5" font-family="Helvetica,sans-Serif" font-size="10.00" fill="#000000">GridFinder::checkLine</text>
</a>
</g>
</g>
<!-- Node114&#45;&gt;Node123 -->
<g id="edge21" class="edge">
<title>Node114&#45;&gt;Node123</title>
<path fill="none" stroke="#191970" d="M300.5796,-227.3459C312.2326,-228.622 324.3854,-229.9529 336.1356,-231.2396"/>
<polygon fill="#191970" stroke="#191970" points="336.0136,-234.7471 346.3353,-232.3566 336.7757,-227.7887 336.0136,-234.7471"/>
</g>
<!-- Node116&#45;&gt;Node117 -->
<g id="edge12" class="edge">
<title>Node116&#45;&gt;Node117</title>
<path fill="none" stroke="#191970" d="M816.0064,-362.7541C868.9272,-360.8809 954.7514,-356.2603 1028,-345 1048.5015,-341.8484 1070.901,-336.7778 1089.766,-332.0242"/>
<polygon fill="#191970" stroke="#191970" points="1090.75,-335.3851 1099.5633,-329.505 1089.0067,-328.6057 1090.75,-335.3851"/>
</g>
<!-- Node119 -->
<g id="node15" class="node">
<title>Node119</title>
<g id="a_node15"><a xlink:href="classBresenhamLine.html#ad93a4adf0535a9b4e649bce5ade1bc5e" target="_top" xlink:title=" ">
<polygon fill="#ffffff" stroke="#000000" points="878,-305 878,-335 1028,-335 1028,-305 878,-305"/>
<text text-anchor="start" x="886" y="-323" font-family="Helvetica,sans-Serif" font-size="10.00" fill="#000000">BresenhamLine::getCurrent</text>
<text text-anchor="middle" x="953" y="-312" font-family="Helvetica,sans-Serif" font-size="10.00" fill="#000000">Length</text>
</a>
</g>
</g>
<!-- Node116&#45;&gt;Node119 -->
<g id="edge14" class="edge">
<title>Node116&#45;&gt;Node119</title>
<path fill="none" stroke="#191970" d="M806.5762,-354.4527C827.8182,-349.4545 854.4942,-343.1778 879.2379,-337.3558"/>
<polygon fill="#191970" stroke="#191970" points="880.0397,-340.7628 888.9722,-335.0654 878.4364,-333.9489 880.0397,-340.7628"/>
</g>
<!-- Node116&#45;&gt;Node120 -->
<g id="edge15" class="edge">
<title>Node116&#45;&gt;Node120</title>
<path fill="none" stroke="#191970" d="M813.188,-373.589C838.4205,-378.7165 869.673,-385.0672 896.2268,-390.4632"/>
<polygon fill="#191970" stroke="#191970" points="895.6546,-393.9184 906.1513,-392.4799 897.0486,-387.0586 895.6546,-393.9184"/>
</g>
<!-- Node118 -->
<g id="node14" class="node">
<title>Node118</title>
<g id="a_node14"><a xlink:href="structPixel.html#a816d743559e2ac5b35c9c79ac517ad0a" target="_top" xlink:title=" ">
<polygon fill="#ffffff" stroke="#000000" points="1239,-310.5 1239,-329.5 1325,-329.5 1325,-310.5 1239,-310.5"/>
<text text-anchor="middle" x="1282" y="-317.5" font-family="Helvetica,sans-Serif" font-size="10.00" fill="#000000">Pixel::inRange</text>
</a>
</g>
</g>
<!-- Node117&#45;&gt;Node118 -->
<g id="edge13" class="edge">
<title>Node117&#45;&gt;Node118</title>
<path fill="none" stroke="#191970" d="M1203.4016,-320C1211.8647,-320 1220.4033,-320 1228.5758,-320"/>
<polygon fill="#191970" stroke="#191970" points="1228.6984,-323.5001 1238.6984,-320 1228.6984,-316.5001 1228.6984,-323.5001"/>
</g>
<!-- Node120&#45;&gt;Node117 -->
<g id="edge16" class="edge">
<title>Node120&#45;&gt;Node117</title>
<path fill="none" stroke="#191970" d="M987.485,-392.4909C1000.3968,-388.5354 1015.0643,-383.5636 1028,-378 1057.1027,-365.4829 1088.7265,-347.4561 1109.6842,-334.8316"/>
<polygon fill="#191970" stroke="#191970" points="1111.5251,-337.8085 1118.2448,-329.6173 1107.8836,-331.8302 1111.5251,-337.8085"/>
</g>
<!-- Node123&#45;&gt;Node111 -->
<g id="edge34" class="edge">
<title>Node123&#45;&gt;Node111</title>
<path fill="none" stroke="#191970" d="M449.4873,-248.5362C456.9153,-251.0546 464.3772,-254.1717 471,-258 510.8526,-281.0363 547.5451,-321.3916 566.6673,-344.4752"/>
<polygon fill="#191970" stroke="#191970" points="564.0851,-346.8476 573.1058,-352.4044 569.5193,-342.4351 564.0851,-346.8476"/>
</g>
<!-- Node124 -->
<g id="node20" class="node">
<title>Node124</title>
<g id="a_node20"><a xlink:href="classGridFinder.html#a187e8c44c7f99237645b49dc2c6745c8" target="_top" xlink:title="Find the middle of a line.">
<polygon fill="#ffffff" stroke="#000000" points="520.5,-229.5 520.5,-248.5 640.5,-248.5 640.5,-229.5 520.5,-229.5"/>
<text text-anchor="middle" x="580.5" y="-236.5" font-family="Helvetica,sans-Serif" font-size="10.00" fill="#000000">GridFinder::getMiddle</text>
</a>
</g>
</g>
<!-- Node123&#45;&gt;Node124 -->
<g id="edge22" class="edge">
<title>Node123&#45;&gt;Node124</title>
<path fill="none" stroke="#191970" d="M467.6819,-239C481.4428,-239 496.1684,-239 510.2871,-239"/>
<polygon fill="#191970" stroke="#191970" points="510.4381,-242.5001 520.438,-239 510.438,-235.5001 510.4381,-242.5001"/>
</g>
<!-- Node124&#45;&gt;Node116 -->
<g id="edge33" class="edge">
<title>Node124&#45;&gt;Node116</title>
<path fill="none" stroke="#191970" d="M591.4197,-248.6927C605.9604,-261.6916 632.3617,-285.6162 654,-307 670.5475,-323.3529 669.912,-333.2652 690,-345 695.0406,-347.9445 700.5273,-350.4358 706.169,-352.543"/>
<polygon fill="#191970" stroke="#191970" points="705.1646,-355.8975 715.7582,-355.739 707.3779,-349.2566 705.1646,-355.8975"/>
</g>
<!-- Node124&#45;&gt;Node121 -->
<g id="edge23" class="edge">
<title>Node124&#45;&gt;Node121</title>
<path fill="none" stroke="#191970" d="M640.7626,-232.6906C712.1518,-225.2163 830.0302,-212.8747 898.7028,-205.6848"/>
<polygon fill="#191970" stroke="#191970" points="899.2955,-209.142 908.8767,-204.6196 898.5665,-202.18 899.2955,-209.142"/>
</g>
<!-- Node125 -->
<g id="node21" class="node">
<title>Node125</title>
<g id="a_node21"><a xlink:href="structCosSin.html#a4c63ac2c483b5caa4012f8c27d58dd96" target="_top" xlink:title=" ">
<polygon fill="#ffffff" stroke="#000000" points="717,-266.5 717,-285.5 815,-285.5 815,-266.5 717,-266.5"/>
<text text-anchor="middle" x="766" y="-273.5" font-family="Helvetica,sans-Serif" font-size="10.00" fill="#000000">CosSin::opposite</text>
</a>
</g>
</g>
<!-- Node124&#45;&gt;Node125 -->
<g id="edge24" class="edge">
<title>Node124&#45;&gt;Node125</title>
<path fill="none" stroke="#191970" d="M628.2709,-248.5284C652.6263,-253.3864 682.4416,-259.3334 708.0954,-264.4503"/>
<polygon fill="#191970" stroke="#191970" points="707.5775,-267.9159 718.069,-266.4396 708.9468,-261.0511 707.5775,-267.9159"/>
</g>
<!-- Node126 -->
<g id="node22" class="node">
<title>Node126</title>
<g id="a_node22"><a xlink:href="classGridFinder.html#a83b31c2192a137e56e91d13661f1c658" target="_top" xlink:title="Get the width of the line at a given point.">
<polygon fill="#ffffff" stroke="#000000" points="690,-305 690,-335 842,-335 842,-305 690,-305"/>
<text text-anchor="start" x="698" y="-323" font-family="Helvetica,sans-Serif" font-size="10.00" fill="#000000">GridFinder::getWidthAtPoint</text>
<text text-anchor="middle" x="766" y="-312" font-family="Helvetica,sans-Serif" font-size="10.00" fill="#000000">OnLine</text>
</a>
</g>
</g>
<!-- Node124&#45;&gt;Node126 -->
<g id="edge25" class="edge">
<title>Node124&#45;&gt;Node126</title>
<path fill="none" stroke="#191970" d="M597.1838,-248.5635C618.327,-260.4404 656.106,-280.8585 690,-295 695.42,-297.2614 701.1228,-299.4577 706.8672,-301.5488"/>
<polygon fill="#191970" stroke="#191970" points="705.9363,-304.9319 716.5311,-304.9616 708.2673,-298.3314 705.9363,-304.9319"/>
</g>
<!-- Node127 -->
<g id="node23" class="node">
<title>Node127</title>
<g id="a_node23"><a xlink:href="structCosSin.html#adb1d000cc58879b65a63fac849408bfe" target="_top" xlink:title=" ">
<polygon fill="#ffffff" stroke="#000000" points="892,-228.5 892,-247.5 1014,-247.5 1014,-228.5 892,-228.5"/>
<text text-anchor="middle" x="953" y="-235.5" font-family="Helvetica,sans-Serif" font-size="10.00" fill="#000000">CosSin::perpendicular</text>
</a>
</g>
</g>
<!-- Node124&#45;&gt;Node127 -->
<g id="edge32" class="edge">
<title>Node124&#45;&gt;Node127</title>
<path fill="none" stroke="#191970" d="M640.7626,-238.8382C706.6069,-238.6615 811.9992,-238.3785 881.8555,-238.191"/>
<polygon fill="#191970" stroke="#191970" points="881.9048,-241.691 891.8953,-238.164 881.8859,-234.691 881.9048,-241.691"/>
</g>
<!-- Node124&#45;&gt;Node128 -->
<g id="edge31" class="edge">
<title>Node124&#45;&gt;Node128</title>
<path fill="none" stroke="#191970" d="M595.9966,-229.393C628.3226,-209.3526 703.1475,-162.9651 741.8467,-138.9737"/>
<polygon fill="#191970" stroke="#191970" points="743.762,-141.9044 750.4171,-133.6606 740.0736,-135.9549 743.762,-141.9044"/>
</g>
<!-- Node126&#45;&gt;Node117 -->
<g id="edge27" class="edge">
<title>Node126&#45;&gt;Node117</title>
<path fill="none" stroke="#191970" d="M824.912,-304.94C841.9253,-301.2557 860.5978,-297.8436 878,-296 944.2957,-288.9766 961.7498,-288.5595 1028,-296 1048.7279,-298.3279 1071.3236,-303.1519 1090.2668,-307.8686"/>
<polygon fill="#191970" stroke="#191970" points="1089.5387,-311.295 1100.0945,-310.3861 1091.2758,-304.5139 1089.5387,-311.295"/>
</g>
<!-- Node126&#45;&gt;Node119 -->
<g id="edge29" class="edge">
<title>Node126&#45;&gt;Node119</title>
<path fill="none" stroke="#191970" d="M842.0601,-320C850.5634,-320 859.2662,-320 867.8736,-320"/>
<polygon fill="#191970" stroke="#191970" points="867.9165,-323.5001 877.9165,-320 867.9165,-316.5001 867.9165,-323.5001"/>
</g>
<!-- Node126&#45;&gt;Node120 -->
<g id="edge28" class="edge">
<title>Node126&#45;&gt;Node120</title>
<path fill="none" stroke="#191970" d="M815.4738,-335.0268C824.3943,-338.0881 833.5424,-341.463 842,-345 872.2536,-357.6521 905.5394,-375.2714 927.6935,-387.5599"/>
<polygon fill="#191970" stroke="#191970" points="926.0298,-390.6396 936.4653,-392.47 929.4489,-384.5314 926.0298,-390.6396"/>
</g>
<!-- Node126&#45;&gt;Node121 -->
<g id="edge30" class="edge">
<title>Node126&#45;&gt;Node121</title>
<path fill="none" stroke="#191970" d="M827.365,-304.8906C832.6417,-302.1269 837.6261,-298.8603 842,-295 870.0224,-270.2678 849.133,-242.741 878,-219 884.1273,-213.9607 891.4195,-210.2354 899.0128,-207.4859"/>
<polygon fill="#191970" stroke="#191970" points="900.197,-210.7835 908.7271,-204.4996 898.1401,-204.0926 900.197,-210.7835"/>
</g>
<!-- Node126&#45;&gt;Node127 -->
<g id="edge26" class="edge">
<title>Node126&#45;&gt;Node127</title>
<path fill="none" stroke="#191970" d="M821.193,-304.9488C828.4047,-302.095 835.528,-298.791 842,-295 860.7287,-284.0297 859.227,-272.8944 878,-262 885.6461,-257.5628 894.2148,-253.8359 902.7521,-250.7436"/>
<polygon fill="#191970" stroke="#191970" points="903.9677,-254.0275 912.3269,-247.5179 901.7328,-247.3938 903.9677,-254.0275"/>
</g>
<!-- Node130 -->
<g id="node26" class="node">
<title>Node130</title>
<g id="a_node26"><a xlink:href="classLine.html#af14c90f6f7c18003e35ca3a08be32368" target="_top" xlink:title=" ">
<polygon fill="#ffffff" stroke="#000000" points="364,-.5 364,-19.5 450,-19.5 450,-.5 364,-.5"/>
<text text-anchor="middle" x="407" y="-7.5" font-family="Helvetica,sans-Serif" font-size="10.00" fill="#000000">Line::intersect</text>
</a>
</g>
</g>
<!-- Node129&#45;&gt;Node130 -->
<g id="edge36" class="edge">
<title>Node129&#45;&gt;Node130</title>
<path fill="none" stroke="#191970" d="M291.273,-10C311.4196,-10 333.9219,-10 353.6892,-10"/>
<polygon fill="#191970" stroke="#191970" points="353.75,-13.5001 363.7499,-10 353.7499,-6.5001 353.75,-13.5001"/>
</g>
<!-- Node131 -->
<g id="node27" class="node">
<title>Node131</title>
<g id="a_node27"><a xlink:href="Matrix_8hpp.html#aaac3f553f87e00956b4736107cf40289" target="_top" xlink:title="Calculates u × v, where u, v ⊆ ℝ³.">
<polygon fill="#ffffff" stroke="#000000" points="559.5,-.5 559.5,-19.5 601.5,-19.5 601.5,-.5 559.5,-.5"/>
<text text-anchor="middle" x="580.5" y="-7.5" font-family="Helvetica,sans-Serif" font-size="10.00" fill="#000000">cross</text>
</a>
</g>
</g>
<!-- Node130&#45;&gt;Node131 -->
<g id="edge37" class="edge">
<title>Node130&#45;&gt;Node131</title>
<path fill="none" stroke="#191970" d="M450.3338,-10C480.9922,-10 521.3981,-10 549.0092,-10"/>
<polygon fill="#191970" stroke="#191970" points="549.2757,-13.5001 559.2757,-10 549.2757,-6.5001 549.2757,-13.5001"/>
</g>
</g>
</svg>
