<?xml version="1.0" encoding="UTF-8" standalone="no"?>
<!DOCTYPE svg PUBLIC "-//W3C//DTD SVG 1.1//EN"
 "http://www.w3.org/Graphics/SVG/1.1/DTD/svg11.dtd">
<!-- Generated by graphviz version 2.40.1 (20161225.0304)
 -->
<!-- Title: /home/pieter/GitHub/EAGLE&#45;ZYBO&#45;Linux/src/comm/include/SharedMem.hpp Pages: 1 -->
<svg width="654pt" height="306pt"
 viewBox="0.00 0.00 654.00 306.00" xmlns="http://www.w3.org/2000/svg" xmlns:xlink="http://www.w3.org/1999/xlink">
<g id="graph0" class="graph" transform="scale(1 1) rotate(0) translate(4 302)">
<title>/home/pieter/GitHub/EAGLE&#45;ZYBO&#45;Linux/src/comm/include/SharedMem.hpp</title>
<polygon fill="#ffffff" stroke="transparent" points="-4,4 -4,-302 650,-302 650,4 -4,4"/>
<!-- Node13 -->
<g id="node1" class="node">
<title>Node13</title>
<g id="a_node1"><a xlink:title=" ">
<polygon fill="#bfbfbf" stroke="#000000" points="238.5,-256.5 238.5,-297.5 408.5,-297.5 408.5,-256.5 238.5,-256.5"/>
<text text-anchor="start" x="246.5" y="-285.5" font-family="Helvetica,sans-Serif" font-size="10.00" fill="#000000">/home/pieter/GitHub</text>
<text text-anchor="start" x="246.5" y="-274.5" font-family="Helvetica,sans-Serif" font-size="10.00" fill="#000000">/EAGLE&#45;ZYBO&#45;Linux/src</text>
<text text-anchor="middle" x="323.5" y="-263.5" font-family="Helvetica,sans-Serif" font-size="10.00" fill="#000000">/comm/include/SharedMem.hpp</text>
</a>
</g>
</g>
<!-- Node14 -->
<g id="node2" class="node">
<title>Node14</title>
<g id="a_node2"><a xlink:href="SharedMem_8cpp.html" target="_top" xlink:title=" ">
<polygon fill="#ffffff" stroke="#000000" points="0,-173 0,-214 149,-214 149,-173 0,-173"/>
<text text-anchor="start" x="8" y="-202" font-family="Helvetica,sans-Serif" font-size="10.00" fill="#000000">/home/pieter/GitHub</text>
<text text-anchor="start" x="8" y="-191" font-family="Helvetica,sans-Serif" font-size="10.00" fill="#000000">/EAGLE&#45;ZYBO&#45;Linux/src</text>
<text text-anchor="middle" x="74.5" y="-180" font-family="Helvetica,sans-Serif" font-size="10.00" fill="#000000">/comm/src/SharedMem.cpp</text>
</a>
</g>
</g>
<!-- Node13&#45;&gt;Node14 -->
<g id="edge1" class="edge">
<title>Node13&#45;&gt;Node14</title>
<path fill="none" stroke="#191970" d="M252.598,-253.2236C215.7886,-240.8799 171.2537,-225.9455 135.9264,-214.0988"/>
<polygon fill="#191970" stroke="#191970" points="251.6749,-256.6056 262.2688,-256.4667 253.9005,-249.9688 251.6749,-256.6056"/>
</g>
<!-- Node15 -->
<g id="node3" class="node">
<title>Node15</title>
<g id="a_node3"><a xlink:href="cryptoPoller_8hpp.html" target="_top" xlink:title=" ">
<polygon fill="#ffffff" stroke="#000000" points="167,-173 167,-214 316,-214 316,-173 167,-173"/>
<text text-anchor="start" x="175" y="-202" font-family="Helvetica,sans-Serif" font-size="10.00" fill="#000000">/home/pieter/GitHub</text>
<text text-anchor="start" x="175" y="-191" font-family="Helvetica,sans-Serif" font-size="10.00" fill="#000000">/EAGLE&#45;ZYBO&#45;Linux/src</text>
<text text-anchor="middle" x="241.5" y="-180" font-family="Helvetica,sans-Serif" font-size="10.00" fill="#000000">/crypto/src/cryptoPoller.hpp</text>
</a>
</g>
</g>
<!-- Node13&#45;&gt;Node15 -->
<g id="edge2" class="edge">
<title>Node13&#45;&gt;Node15</title>
<path fill="none" stroke="#191970" d="M296.1267,-249.126C284.9185,-237.7127 272.1772,-224.7384 261.8207,-214.1924"/>
<polygon fill="#191970" stroke="#191970" points="293.7264,-251.677 303.2303,-256.3595 298.7208,-246.7723 293.7264,-251.677"/>
</g>
<!-- Node19 -->
<g id="node7" class="node">
<title>Node19</title>
<g id="a_node7"><a xlink:href="Logger_8hpp.html" target="_top" xlink:title=" ">
<polygon fill="#ffffff" stroke="#000000" points="334,-173 334,-214 479,-214 479,-173 334,-173"/>
<text text-anchor="start" x="342" y="-202" font-family="Helvetica,sans-Serif" font-size="10.00" fill="#000000">/home/pieter/GitHub</text>
<text text-anchor="start" x="342" y="-191" font-family="Helvetica,sans-Serif" font-size="10.00" fill="#000000">/EAGLE&#45;ZYBO&#45;Linux/src</text>
<text text-anchor="middle" x="406.5" y="-180" font-family="Helvetica,sans-Serif" font-size="10.00" fill="#000000">/logger/include/Logger.hpp</text>
</a>
</g>
</g>
<!-- Node13&#45;&gt;Node19 -->
<g id="edge6" class="edge">
<title>Node13&#45;&gt;Node19</title>
<path fill="none" stroke="#191970" d="M351.2071,-249.126C362.552,-237.7127 375.4487,-224.7384 385.9315,-214.1924"/>
<polygon fill="#191970" stroke="#191970" points="348.5844,-246.7998 344.0169,-256.3595 353.549,-251.7347 348.5844,-246.7998"/>
</g>
<!-- Node21 -->
<g id="node9" class="node">
<title>Node21</title>
<g id="a_node9"><a xlink:href="QRCryptoManager_8hpp.html" target="_top" xlink:title=" ">
<polygon fill="#ffffff" stroke="#000000" points="497,-167.5 497,-219.5 646,-219.5 646,-167.5 497,-167.5"/>
<text text-anchor="start" x="505" y="-207.5" font-family="Helvetica,sans-Serif" font-size="10.00" fill="#000000">/home/pieter/GitHub</text>
<text text-anchor="start" x="505" y="-196.5" font-family="Helvetica,sans-Serif" font-size="10.00" fill="#000000">/EAGLE&#45;ZYBO&#45;Linux/src</text>
<text text-anchor="start" x="505" y="-185.5" font-family="Helvetica,sans-Serif" font-size="10.00" fill="#000000">/qr&#45;crypto&#45;manager/include</text>
<text text-anchor="middle" x="571.5" y="-174.5" font-family="Helvetica,sans-Serif" font-size="10.00" fill="#000000">/QRCryptoManager.hpp</text>
</a>
</g>
</g>
<!-- Node13&#45;&gt;Node21 -->
<g id="edge8" class="edge">
<title>Node13&#45;&gt;Node21</title>
<path fill="none" stroke="#191970" d="M394.2172,-253.19C426.2207,-242.4146 464.0714,-229.6705 496.5635,-218.7306"/>
<polygon fill="#191970" stroke="#191970" points="392.8456,-249.9586 384.4853,-256.4667 395.0793,-256.5927 392.8456,-249.9586"/>
</g>
<!-- Node16 -->
<g id="node4" class="node">
<title>Node16</title>
<g id="a_node4"><a xlink:href="cryptoPoller_8cpp.html" target="_top" xlink:title=" ">
<polygon fill="#ffffff" stroke="#000000" points="19,-84 19,-125 168,-125 168,-84 19,-84"/>
<text text-anchor="start" x="27" y="-113" font-family="Helvetica,sans-Serif" font-size="10.00" fill="#000000">/home/pieter/GitHub</text>
<text text-anchor="start" x="27" y="-102" font-family="Helvetica,sans-Serif" font-size="10.00" fill="#000000">/EAGLE&#45;ZYBO&#45;Linux/src</text>
<text text-anchor="middle" x="93.5" y="-91" font-family="Helvetica,sans-Serif" font-size="10.00" fill="#000000">/crypto/src/cryptoPoller.cpp</text>
</a>
</g>
</g>
<!-- Node15&#45;&gt;Node16 -->
<g id="edge3" class="edge">
<title>Node15&#45;&gt;Node16</title>
<path fill="none" stroke="#191970" d="M198.4702,-167.6239C175.9298,-154.0692 148.7118,-137.7017 127.64,-125.0301"/>
<polygon fill="#191970" stroke="#191970" points="196.8003,-170.7038 207.1738,-172.8579 200.4077,-164.705 196.8003,-170.7038"/>
</g>
<!-- Node17 -->
<g id="node5" class="node">
<title>Node17</title>
<g id="a_node5"><a xlink:href="ketje_8hpp.html" target="_top" xlink:title=" ">
<polygon fill="#ffffff" stroke="#000000" points="186,-84 186,-125 315,-125 315,-84 186,-84"/>
<text text-anchor="start" x="194" y="-113" font-family="Helvetica,sans-Serif" font-size="10.00" fill="#000000">/home/pieter/GitHub</text>
<text text-anchor="start" x="194" y="-102" font-family="Helvetica,sans-Serif" font-size="10.00" fill="#000000">/EAGLE&#45;ZYBO&#45;Linux/src</text>
<text text-anchor="middle" x="250.5" y="-91" font-family="Helvetica,sans-Serif" font-size="10.00" fill="#000000">/crypto/src/ketje.hpp</text>
</a>
</g>
</g>
<!-- Node15&#45;&gt;Node17 -->
<g id="edge4" class="edge">
<title>Node15&#45;&gt;Node17</title>
<path fill="none" stroke="#191970" d="M244.6,-162.844C245.8633,-150.3522 247.2899,-136.2439 248.4239,-125.0301"/>
<polygon fill="#191970" stroke="#191970" points="241.1114,-162.5565 243.5874,-172.8579 248.0758,-163.2608 241.1114,-162.5565"/>
</g>
<!-- Node18 -->
<g id="node6" class="node">
<title>Node18</title>
<g id="a_node6"><a xlink:href="ketje_8cpp.html" target="_top" xlink:title=" ">
<polygon fill="#ffffff" stroke="#000000" points="186,-.5 186,-41.5 315,-41.5 315,-.5 186,-.5"/>
<text text-anchor="start" x="194" y="-29.5" font-family="Helvetica,sans-Serif" font-size="10.00" fill="#000000">/home/pieter/GitHub</text>
<text text-anchor="start" x="194" y="-18.5" font-family="Helvetica,sans-Serif" font-size="10.00" fill="#000000">/EAGLE&#45;ZYBO&#45;Linux/src</text>
<text text-anchor="middle" x="250.5" y="-7.5" font-family="Helvetica,sans-Serif" font-size="10.00" fill="#000000">/crypto/src/ketje.cpp</text>
</a>
</g>
</g>
<!-- Node17&#45;&gt;Node18 -->
<g id="edge5" class="edge">
<title>Node17&#45;&gt;Node18</title>
<path fill="none" stroke="#191970" d="M250.5,-73.6593C250.5,-63.0064 250.5,-51.3344 250.5,-41.6924"/>
<polygon fill="#191970" stroke="#191970" points="247.0001,-73.8595 250.5,-83.8595 254.0001,-73.8596 247.0001,-73.8595"/>
</g>
<!-- Node20 -->
<g id="node8" class="node">
<title>Node20</title>
<g id="a_node8"><a xlink:href="Logger_8cpp.html" target="_top" xlink:title=" ">
<polygon fill="#ffffff" stroke="#000000" points="342,-84 342,-125 471,-125 471,-84 342,-84"/>
<text text-anchor="start" x="350" y="-113" font-family="Helvetica,sans-Serif" font-size="10.00" fill="#000000">/home/pieter/GitHub</text>
<text text-anchor="start" x="350" y="-102" font-family="Helvetica,sans-Serif" font-size="10.00" fill="#000000">/EAGLE&#45;ZYBO&#45;Linux/src</text>
<text text-anchor="middle" x="406.5" y="-91" font-family="Helvetica,sans-Serif" font-size="10.00" fill="#000000">/logger/src/Logger.cpp</text>
</a>
</g>
</g>
<!-- Node19&#45;&gt;Node20 -->
<g id="edge7" class="edge">
<title>Node19&#45;&gt;Node20</title>
<path fill="none" stroke="#191970" d="M406.5,-162.844C406.5,-150.3522 406.5,-136.2439 406.5,-125.0301"/>
<polygon fill="#191970" stroke="#191970" points="403.0001,-162.8579 406.5,-172.8579 410.0001,-162.8579 403.0001,-162.8579"/>
</g>
<!-- Node22 -->
<g id="node10" class="node">
<title>Node22</title>
<g id="a_node10"><a xlink:href="QRCryptoManager_8cpp.html" target="_top" xlink:title=" ">
<polygon fill="#ffffff" stroke="#000000" points="507,-78.5 507,-130.5 636,-130.5 636,-78.5 507,-78.5"/>
<text text-anchor="start" x="515" y="-118.5" font-family="Helvetica,sans-Serif" font-size="10.00" fill="#000000">/home/pieter/GitHub</text>
<text text-anchor="start" x="515" y="-107.5" font-family="Helvetica,sans-Serif" font-size="10.00" fill="#000000">/EAGLE&#45;ZYBO&#45;Linux/src</text>
<text text-anchor="start" x="515" y="-96.5" font-family="Helvetica,sans-Serif" font-size="10.00" fill="#000000">/qr&#45;crypto&#45;manager/src</text>
<text text-anchor="middle" x="571.5" y="-85.5" font-family="Helvetica,sans-Serif" font-size="10.00" fill="#000000">/QRCryptoManager.cpp</text>
</a>
</g>
</g>
<!-- Node21&#45;&gt;Node22 -->
<g id="edge9" class="edge">
<title>Node21&#45;&gt;Node22</title>
<path fill="none" stroke="#191970" d="M571.5,-157.1155C571.5,-148.2061 571.5,-138.8475 571.5,-130.5341"/>
<polygon fill="#191970" stroke="#191970" points="568.0001,-157.2784 571.5,-167.2784 575.0001,-157.2785 568.0001,-157.2784"/>
</g>
</g>
</svg>
