<?xml version="1.0" encoding="UTF-8" standalone="no"?>
<!DOCTYPE svg PUBLIC "-//W3C//DTD SVG 1.1//EN"
 "http://www.w3.org/Graphics/SVG/1.1/DTD/svg11.dtd">
<!-- Generated by graphviz version 2.40.1 (20161225.0304)
 -->
<!-- Title: /home/pieter/GitHub/EAGLE&#45;ZYBO&#45;Linux/src/comm/include/SharedMem.hpp Pages: 1 -->
<svg width="810pt" height="306pt"
 viewBox="0.00 0.00 810.00 306.00" xmlns="http://www.w3.org/2000/svg" xmlns:xlink="http://www.w3.org/1999/xlink">
<g id="graph0" class="graph" transform="scale(1 1) rotate(0) translate(4 302)">
<title>/home/pieter/GitHub/EAGLE&#45;ZYBO&#45;Linux/src/comm/include/SharedMem.hpp</title>
<polygon fill="#ffffff" stroke="transparent" points="-4,4 -4,-302 806,-302 806,4 -4,4"/>
<!-- Node13 -->
<g id="node1" class="node">
<title>Node13</title>
<g id="a_node1"><a xlink:title=" ">
<polygon fill="#bfbfbf" stroke="#000000" points="241.5,-256.5 241.5,-297.5 411.5,-297.5 411.5,-256.5 241.5,-256.5"/>
<text text-anchor="start" x="249.5" y="-285.5" font-family="Helvetica,sans-Serif" font-size="10.00" fill="#000000">/home/pieter/GitHub</text>
<text text-anchor="start" x="249.5" y="-274.5" font-family="Helvetica,sans-Serif" font-size="10.00" fill="#000000">/EAGLE&#45;ZYBO&#45;Linux/src</text>
<text text-anchor="middle" x="326.5" y="-263.5" font-family="Helvetica,sans-Serif" font-size="10.00" fill="#000000">/comm/include/SharedMem.hpp</text>
</a>
</g>
</g>
<!-- Node14 -->
<g id="node2" class="node">
<title>Node14</title>
<g id="a_node2"><a xlink:href="SharedMem_8cpp.html" target="_top" xlink:title=" ">
<polygon fill="#ffffff" stroke="#000000" points="0,-173 0,-214 149,-214 149,-173 0,-173"/>
<text text-anchor="start" x="8" y="-202" font-family="Helvetica,sans-Serif" font-size="10.00" fill="#000000">/home/pieter/GitHub</text>
<text text-anchor="start" x="8" y="-191" font-family="Helvetica,sans-Serif" font-size="10.00" fill="#000000">/EAGLE&#45;ZYBO&#45;Linux/src</text>
<text text-anchor="middle" x="74.5" y="-180" font-family="Helvetica,sans-Serif" font-size="10.00" fill="#000000">/comm/src/SharedMem.cpp</text>
</a>
</g>
</g>
<!-- Node13&#45;&gt;Node14 -->
<g id="edge1" class="edge">
<title>Node13&#45;&gt;Node14</title>
<path fill="none" stroke="#191970" d="M254.7437,-253.2236C217.4909,-240.8799 172.4194,-225.9455 136.6664,-214.0988"/>
<polygon fill="#191970" stroke="#191970" points="253.9378,-256.6436 264.5311,-256.4667 256.1395,-249.9989 253.9378,-256.6436"/>
</g>
<!-- Node15 -->
<g id="node3" class="node">
<title>Node15</title>
<g id="a_node3"><a xlink:href="cryptoPoller_8hpp.html" target="_top" xlink:title=" ">
<polygon fill="#ffffff" stroke="#000000" points="167,-173 167,-214 316,-214 316,-173 167,-173"/>
<text text-anchor="start" x="175" y="-202" font-family="Helvetica,sans-Serif" font-size="10.00" fill="#000000">/home/pieter/GitHub</text>
<text text-anchor="start" x="175" y="-191" font-family="Helvetica,sans-Serif" font-size="10.00" fill="#000000">/EAGLE&#45;ZYBO&#45;Linux/src</text>
<text text-anchor="middle" x="241.5" y="-180" font-family="Helvetica,sans-Serif" font-size="10.00" fill="#000000">/crypto/src/cryptoPoller.hpp</text>
</a>
</g>
</g>
<!-- Node13&#45;&gt;Node15 -->
<g id="edge2" class="edge">
<title>Node13&#45;&gt;Node15</title>
<path fill="none" stroke="#191970" d="M298.1253,-249.126C286.507,-237.7127 273.2995,-224.7384 262.5641,-214.1924"/>
<polygon fill="#191970" stroke="#191970" points="295.9022,-251.8485 305.4888,-256.3595 300.8078,-246.8549 295.9022,-251.8485"/>
</g>
<!-- Node19 -->
<g id="node7" class="node">
<title>Node19</title>
<g id="a_node7"><a xlink:href="Logger_8hpp.html" target="_top" xlink:title=" ">
<polygon fill="#ffffff" stroke="#000000" points="340,-173 340,-214 485,-214 485,-173 340,-173"/>
<text text-anchor="start" x="348" y="-202" font-family="Helvetica,sans-Serif" font-size="10.00" fill="#000000">/home/pieter/GitHub</text>
<text text-anchor="start" x="348" y="-191" font-family="Helvetica,sans-Serif" font-size="10.00" fill="#000000">/EAGLE&#45;ZYBO&#45;Linux/src</text>
<text text-anchor="middle" x="412.5" y="-180" font-family="Helvetica,sans-Serif" font-size="10.00" fill="#000000">/logger/include/Logger.hpp</text>
</a>
</g>
</g>
<!-- Node13&#45;&gt;Node19 -->
<g id="edge6" class="edge">
<title>Node13&#45;&gt;Node19</title>
<path fill="none" stroke="#191970" d="M355.2085,-249.126C366.9635,-237.7127 380.3263,-224.7384 391.1881,-214.1924"/>
<polygon fill="#191970" stroke="#191970" points="352.4949,-246.8824 347.7584,-256.3595 357.3712,-251.9046 352.4949,-246.8824"/>
</g>
<!-- Node23 -->
<g id="node11" class="node">
<title>Node23</title>
<g id="a_node11"><a xlink:href="QRCryptoManager_8hpp.html" target="_top" xlink:title=" ">
<polygon fill="#ffffff" stroke="#000000" points="583,-167.5 583,-219.5 732,-219.5 732,-167.5 583,-167.5"/>
<text text-anchor="start" x="591" y="-207.5" font-family="Helvetica,sans-Serif" font-size="10.00" fill="#000000">/home/pieter/GitHub</text>
<text text-anchor="start" x="591" y="-196.5" font-family="Helvetica,sans-Serif" font-size="10.00" fill="#000000">/EAGLE&#45;ZYBO&#45;Linux/src</text>
<text text-anchor="start" x="591" y="-185.5" font-family="Helvetica,sans-Serif" font-size="10.00" fill="#000000">/qr&#45;crypto&#45;manager/include</text>
<text text-anchor="middle" x="657.5" y="-174.5" font-family="Helvetica,sans-Serif" font-size="10.00" fill="#000000">/QRCryptoManager.hpp</text>
</a>
</g>
</g>
<!-- Node13&#45;&gt;Node23 -->
<g id="edge10" class="edge">
<title>Node13&#45;&gt;Node23</title>
<path fill="none" stroke="#191970" d="M417.7819,-253.9727C469.7458,-240.864 534.0213,-224.6495 582.9315,-212.3111"/>
<polygon fill="#191970" stroke="#191970" points="416.7357,-250.6269 407.8956,-256.4667 418.448,-257.4142 416.7357,-250.6269"/>
</g>
<!-- Node16 -->
<g id="node4" class="node">
<title>Node16</title>
<g id="a_node4"><a xlink:href="cryptoPoller_8cpp.html" target="_top" xlink:title=" ">
<polygon fill="#ffffff" stroke="#000000" points="3,-84 3,-125 152,-125 152,-84 3,-84"/>
<text text-anchor="start" x="11" y="-113" font-family="Helvetica,sans-Serif" font-size="10.00" fill="#000000">/home/pieter/GitHub</text>
<text text-anchor="start" x="11" y="-102" font-family="Helvetica,sans-Serif" font-size="10.00" fill="#000000">/EAGLE&#45;ZYBO&#45;Linux/src</text>
<text text-anchor="middle" x="77.5" y="-91" font-family="Helvetica,sans-Serif" font-size="10.00" fill="#000000">/crypto/src/cryptoPoller.cpp</text>
</a>
</g>
</g>
<!-- Node15&#45;&gt;Node16 -->
<g id="edge3" class="edge">
<title>Node15&#45;&gt;Node16</title>
<path fill="none" stroke="#191970" d="M194.4802,-167.9831C169.3754,-154.3592 138.8873,-137.8138 115.3308,-125.0301"/>
<polygon fill="#191970" stroke="#191970" points="193.0043,-171.1643 203.4629,-172.8579 196.3431,-165.0119 193.0043,-171.1643"/>
</g>
<!-- Node17 -->
<g id="node5" class="node">
<title>Node17</title>
<g id="a_node5"><a xlink:href="ketje_8hpp.html" target="_top" xlink:title=" ">
<polygon fill="#ffffff" stroke="#000000" points="170,-84 170,-125 299,-125 299,-84 170,-84"/>
<text text-anchor="start" x="178" y="-113" font-family="Helvetica,sans-Serif" font-size="10.00" fill="#000000">/home/pieter/GitHub</text>
<text text-anchor="start" x="178" y="-102" font-family="Helvetica,sans-Serif" font-size="10.00" fill="#000000">/EAGLE&#45;ZYBO&#45;Linux/src</text>
<text text-anchor="middle" x="234.5" y="-91" font-family="Helvetica,sans-Serif" font-size="10.00" fill="#000000">/crypto/src/ketje.hpp</text>
</a>
</g>
</g>
<!-- Node15&#45;&gt;Node17 -->
<g id="edge4" class="edge">
<title>Node15&#45;&gt;Node17</title>
<path fill="none" stroke="#191970" d="M239.0889,-162.844C238.1064,-150.3522 236.9967,-136.2439 236.1147,-125.0301"/>
<polygon fill="#191970" stroke="#191970" points="235.6031,-163.1632 239.8765,-172.8579 242.5815,-162.6142 235.6031,-163.1632"/>
</g>
<!-- Node18 -->
<g id="node6" class="node">
<title>Node18</title>
<g id="a_node6"><a xlink:href="ketje_8cpp.html" target="_top" xlink:title=" ">
<polygon fill="#ffffff" stroke="#000000" points="170,-.5 170,-41.5 299,-41.5 299,-.5 170,-.5"/>
<text text-anchor="start" x="178" y="-29.5" font-family="Helvetica,sans-Serif" font-size="10.00" fill="#000000">/home/pieter/GitHub</text>
<text text-anchor="start" x="178" y="-18.5" font-family="Helvetica,sans-Serif" font-size="10.00" fill="#000000">/EAGLE&#45;ZYBO&#45;Linux/src</text>
<text text-anchor="middle" x="234.5" y="-7.5" font-family="Helvetica,sans-Serif" font-size="10.00" fill="#000000">/crypto/src/ketje.cpp</text>
</a>
</g>
</g>
<!-- Node17&#45;&gt;Node18 -->
<g id="edge5" class="edge">
<title>Node17&#45;&gt;Node18</title>
<path fill="none" stroke="#191970" d="M234.5,-73.6593C234.5,-63.0064 234.5,-51.3344 234.5,-41.6924"/>
<polygon fill="#191970" stroke="#191970" points="231.0001,-73.8595 234.5,-83.8595 238.0001,-73.8596 231.0001,-73.8595"/>
</g>
<!-- Node20 -->
<g id="node8" class="node">
<title>Node20</title>
<g id="a_node8"><a xlink:href="ThreadedLogger_8hpp.html" target="_top" xlink:title=" ">
<polygon fill="#ffffff" stroke="#000000" points="317,-84 317,-125 508,-125 508,-84 317,-84"/>
<text text-anchor="start" x="325" y="-113" font-family="Helvetica,sans-Serif" font-size="10.00" fill="#000000">/home/pieter/GitHub</text>
<text text-anchor="start" x="325" y="-102" font-family="Helvetica,sans-Serif" font-size="10.00" fill="#000000">/EAGLE&#45;ZYBO&#45;Linux/src</text>
<text text-anchor="middle" x="412.5" y="-91" font-family="Helvetica,sans-Serif" font-size="10.00" fill="#000000">/logger/include/ThreadedLogger.hpp</text>
</a>
</g>
</g>
<!-- Node19&#45;&gt;Node20 -->
<g id="edge7" class="edge">
<title>Node19&#45;&gt;Node20</title>
<path fill="none" stroke="#191970" d="M412.5,-162.844C412.5,-150.3522 412.5,-136.2439 412.5,-125.0301"/>
<polygon fill="#191970" stroke="#191970" points="409.0001,-162.8579 412.5,-172.8579 416.0001,-162.8579 409.0001,-162.8579"/>
</g>
<!-- Node22 -->
<g id="node10" class="node">
<title>Node22</title>
<g id="a_node10"><a xlink:href="Logger_8cpp.html" target="_top" xlink:title=" ">
<polygon fill="#ffffff" stroke="#000000" points="526,-84 526,-125 655,-125 655,-84 526,-84"/>
<text text-anchor="start" x="534" y="-113" font-family="Helvetica,sans-Serif" font-size="10.00" fill="#000000">/home/pieter/GitHub</text>
<text text-anchor="start" x="534" y="-102" font-family="Helvetica,sans-Serif" font-size="10.00" fill="#000000">/EAGLE&#45;ZYBO&#45;Linux/src</text>
<text text-anchor="middle" x="590.5" y="-91" font-family="Helvetica,sans-Serif" font-size="10.00" fill="#000000">/logger/src/Logger.cpp</text>
</a>
</g>
</g>
<!-- Node19&#45;&gt;Node22 -->
<g id="edge9" class="edge">
<title>Node19&#45;&gt;Node22</title>
<path fill="none" stroke="#191970" d="M462.818,-168.341C490.2004,-154.6498 523.6481,-137.926 549.4397,-125.0301"/>
<polygon fill="#191970" stroke="#191970" points="461.1632,-165.2552 453.7842,-172.8579 464.2937,-171.5162 461.1632,-165.2552"/>
</g>
<!-- Node21 -->
<g id="node9" class="node">
<title>Node21</title>
<g id="a_node9"><a xlink:href="ThreadedLogger_8cpp.html" target="_top" xlink:title=" ">
<polygon fill="#ffffff" stroke="#000000" points="328,-.5 328,-41.5 497,-41.5 497,-.5 328,-.5"/>
<text text-anchor="start" x="336" y="-29.5" font-family="Helvetica,sans-Serif" font-size="10.00" fill="#000000">/home/pieter/GitHub</text>
<text text-anchor="start" x="336" y="-18.5" font-family="Helvetica,sans-Serif" font-size="10.00" fill="#000000">/EAGLE&#45;ZYBO&#45;Linux/src</text>
<text text-anchor="middle" x="412.5" y="-7.5" font-family="Helvetica,sans-Serif" font-size="10.00" fill="#000000">/logger/src/ThreadedLogger.cpp</text>
</a>
</g>
</g>
<!-- Node20&#45;&gt;Node21 -->
<g id="edge8" class="edge">
<title>Node20&#45;&gt;Node21</title>
<path fill="none" stroke="#191970" d="M412.5,-73.6593C412.5,-63.0064 412.5,-51.3344 412.5,-41.6924"/>
<polygon fill="#191970" stroke="#191970" points="409.0001,-73.8595 412.5,-83.8595 416.0001,-73.8596 409.0001,-73.8595"/>
</g>
<!-- Node24 -->
<g id="node12" class="node">
<title>Node24</title>
<g id="a_node12"><a xlink:href="QRCryptoManager_8cpp.html" target="_top" xlink:title=" ">
<polygon fill="#ffffff" stroke="#000000" points="673,-78.5 673,-130.5 802,-130.5 802,-78.5 673,-78.5"/>
<text text-anchor="start" x="681" y="-118.5" font-family="Helvetica,sans-Serif" font-size="10.00" fill="#000000">/home/pieter/GitHub</text>
<text text-anchor="start" x="681" y="-107.5" font-family="Helvetica,sans-Serif" font-size="10.00" fill="#000000">/EAGLE&#45;ZYBO&#45;Linux/src</text>
<text text-anchor="start" x="681" y="-96.5" font-family="Helvetica,sans-Serif" font-size="10.00" fill="#000000">/qr&#45;crypto&#45;manager/src</text>
<text text-anchor="middle" x="737.5" y="-85.5" font-family="Helvetica,sans-Serif" font-size="10.00" fill="#000000">/QRCryptoManager.cpp</text>
</a>
</g>
</g>
<!-- Node23&#45;&gt;Node24 -->
<g id="edge11" class="edge">
<title>Node23&#45;&gt;Node24</title>
<path fill="none" stroke="#191970" d="M687.8677,-159.7159C696.5587,-150.0472 705.8948,-139.6608 714.0985,-130.5341"/>
<polygon fill="#191970" stroke="#191970" points="685.152,-157.5015 681.0699,-167.2784 690.358,-162.1811 685.152,-157.5015"/>
</g>
</g>
</svg>
