<?xml version="1.0" encoding="UTF-8" standalone="no"?>
<!DOCTYPE svg PUBLIC "-//W3C//DTD SVG 1.1//EN"
 "http://www.w3.org/Graphics/SVG/1.1/DTD/svg11.dtd">
<!-- Generated by graphviz version 2.40.1 (20161225.0304)
 -->
<!-- Title: /home/pieter/GitHub/EAGLE&#45;ZYBO&#45;Linux/src/crypto/src/cryptoPoller.hpp Pages: 1 -->
<svg width="477pt" height="162pt"
 viewBox="0.00 0.00 477.00 162.00" xmlns="http://www.w3.org/2000/svg" xmlns:xlink="http://www.w3.org/1999/xlink">
<g id="graph0" class="graph" transform="scale(1 1) rotate(0) translate(4 158)">
<title>/home/pieter/GitHub/EAGLE&#45;ZYBO&#45;Linux/src/crypto/src/cryptoPoller.hpp</title>
<polygon fill="#ffffff" stroke="transparent" points="-4,4 -4,-158 473,-158 473,4 -4,4"/>
<!-- Node0 -->
<g id="node1" class="node">
<title>Node0</title>
<g id="a_node1"><a xlink:title=" ">
<polygon fill="#bfbfbf" stroke="#000000" points="119.5,-112.5 119.5,-153.5 268.5,-153.5 268.5,-112.5 119.5,-112.5"/>
<text text-anchor="start" x="127.5" y="-141.5" font-family="Helvetica,sans-Serif" font-size="10.00" fill="#000000">/home/pieter/GitHub</text>
<text text-anchor="start" x="127.5" y="-130.5" font-family="Helvetica,sans-Serif" font-size="10.00" fill="#000000">/EAGLE&#45;ZYBO&#45;Linux/src</text>
<text text-anchor="middle" x="194" y="-119.5" font-family="Helvetica,sans-Serif" font-size="10.00" fill="#000000">/crypto/src/cryptoPoller.hpp</text>
</a>
</g>
</g>
<!-- Node1 -->
<g id="node2" class="node">
<title>Node1</title>
<g id="a_node2"><a xlink:title=" ">
<polygon fill="#ffffff" stroke="#bfbfbf" points="0,-56.5 0,-75.5 50,-75.5 50,-56.5 0,-56.5"/>
<text text-anchor="middle" x="25" y="-63.5" font-family="Helvetica,sans-Serif" font-size="10.00" fill="#000000">cstdint</text>
</a>
</g>
</g>
<!-- Node0&#45;&gt;Node1 -->
<g id="edge1" class="edge">
<title>Node0&#45;&gt;Node1</title>
<path fill="none" stroke="#191970" d="M141.9154,-112.3511C114.8089,-101.6047 82.457,-88.7788 58.6638,-79.346"/>
<polygon fill="#191970" stroke="#191970" points="59.9388,-76.0865 49.3527,-75.6546 57.3589,-82.5938 59.9388,-76.0865"/>
</g>
<!-- Node2 -->
<g id="node3" class="node">
<title>Node2</title>
<g id="a_node3"><a xlink:href="wrapper_8h.html" target="_top" xlink:title=" ">
<polygon fill="#ffffff" stroke="#000000" points="68.5,-56.5 68.5,-75.5 133.5,-75.5 133.5,-56.5 68.5,-56.5"/>
<text text-anchor="middle" x="101" y="-63.5" font-family="Helvetica,sans-Serif" font-size="10.00" fill="#000000">wrapper.h</text>
</a>
</g>
</g>
<!-- Node0&#45;&gt;Node2 -->
<g id="edge2" class="edge">
<title>Node0&#45;&gt;Node2</title>
<path fill="none" stroke="#191970" d="M165.3381,-112.3511C151.5485,-102.4167 135.2921,-90.7051 122.5702,-81.5398"/>
<polygon fill="#191970" stroke="#191970" points="124.5608,-78.6602 114.4012,-75.6546 120.469,-84.3398 124.5608,-78.6602"/>
</g>
<!-- Node4 -->
<g id="node5" class="node">
<title>Node4</title>
<g id="a_node5"><a xlink:href="PerfTimer_8hpp.html" target="_top" xlink:title=" ">
<polygon fill="#ffffff" stroke="#000000" points="151.5,-56.5 151.5,-75.5 236.5,-75.5 236.5,-56.5 151.5,-56.5"/>
<text text-anchor="middle" x="194" y="-63.5" font-family="Helvetica,sans-Serif" font-size="10.00" fill="#000000">PerfTimer.hpp</text>
</a>
</g>
</g>
<!-- Node0&#45;&gt;Node4 -->
<g id="edge4" class="edge">
<title>Node0&#45;&gt;Node4</title>
<path fill="none" stroke="#191970" d="M194,-112.168C194,-103.8226 194,-94.2471 194,-85.9879"/>
<polygon fill="#191970" stroke="#191970" points="197.5001,-85.7804 194,-75.7805 190.5001,-85.7805 197.5001,-85.7804"/>
</g>
<!-- Node6 -->
<g id="node7" class="node">
<title>Node6</title>
<g id="a_node7"><a xlink:href="cryptoException_8hpp.html" target="_top" xlink:title=" ">
<polygon fill="#ffffff" stroke="#000000" points="255,-56.5 255,-75.5 371,-75.5 371,-56.5 255,-56.5"/>
<text text-anchor="middle" x="313" y="-63.5" font-family="Helvetica,sans-Serif" font-size="10.00" fill="#000000">cryptoException.hpp</text>
</a>
</g>
</g>
<!-- Node0&#45;&gt;Node6 -->
<g id="edge6" class="edge">
<title>Node0&#45;&gt;Node6</title>
<path fill="none" stroke="#191970" d="M230.6749,-112.3511C248.8286,-102.1301 270.3236,-90.0279 286.7966,-80.7532"/>
<polygon fill="#191970" stroke="#191970" points="288.8555,-83.6106 295.8522,-75.6546 285.4213,-77.5109 288.8555,-83.6106"/>
</g>
<!-- Node8 -->
<g id="node9" class="node">
<title>Node8</title>
<g id="a_node9"><a xlink:href="registers_8hpp.html" target="_top" xlink:title=" ">
<polygon fill="#ffffff" stroke="#000000" points="389,-56.5 389,-75.5 469,-75.5 469,-56.5 389,-56.5"/>
<text text-anchor="middle" x="429" y="-63.5" font-family="Helvetica,sans-Serif" font-size="10.00" fill="#000000">registers.hpp</text>
</a>
</g>
</g>
<!-- Node0&#45;&gt;Node8 -->
<g id="edge8" class="edge">
<title>Node0&#45;&gt;Node8</title>
<path fill="none" stroke="#191970" d="M266.1048,-112.4425C305.2317,-101.2871 352.2946,-87.8692 385.7509,-78.3306"/>
<polygon fill="#191970" stroke="#191970" points="387.0161,-81.6094 395.6732,-75.5017 385.0968,-74.8777 387.0161,-81.6094"/>
</g>
<!-- Node3 -->
<g id="node4" class="node">
<title>Node3</title>
<g id="a_node4"><a xlink:title=" ">
<polygon fill="#ffffff" stroke="#bfbfbf" points="74.5,-.5 74.5,-19.5 127.5,-19.5 127.5,-.5 74.5,-.5"/>
<text text-anchor="middle" x="101" y="-7.5" font-family="Helvetica,sans-Serif" font-size="10.00" fill="#000000">stdint.h</text>
</a>
</g>
</g>
<!-- Node2&#45;&gt;Node3 -->
<g id="edge3" class="edge">
<title>Node2&#45;&gt;Node3</title>
<path fill="none" stroke="#191970" d="M101,-56.2455C101,-48.9382 101,-38.6944 101,-29.7046"/>
<polygon fill="#191970" stroke="#191970" points="104.5001,-29.6426 101,-19.6427 97.5001,-29.6427 104.5001,-29.6426"/>
</g>
<!-- Node5 -->
<g id="node6" class="node">
<title>Node5</title>
<g id="a_node6"><a xlink:title=" ">
<polygon fill="#ffffff" stroke="#bfbfbf" points="169,-.5 169,-19.5 219,-19.5 219,-.5 169,-.5"/>
<text text-anchor="middle" x="194" y="-7.5" font-family="Helvetica,sans-Serif" font-size="10.00" fill="#000000">chrono</text>
</a>
</g>
</g>
<!-- Node4&#45;&gt;Node5 -->
<g id="edge5" class="edge">
<title>Node4&#45;&gt;Node5</title>
<path fill="none" stroke="#191970" d="M194,-56.2455C194,-48.9382 194,-38.6944 194,-29.7046"/>
<polygon fill="#191970" stroke="#191970" points="197.5001,-29.6426 194,-19.6427 190.5001,-29.6427 197.5001,-29.6426"/>
</g>
<!-- Node7 -->
<g id="node8" class="node">
<title>Node7</title>
<g id="a_node8"><a xlink:title=" ">
<polygon fill="#ffffff" stroke="#bfbfbf" points="280.5,-.5 280.5,-19.5 345.5,-19.5 345.5,-.5 280.5,-.5"/>
<text text-anchor="middle" x="313" y="-7.5" font-family="Helvetica,sans-Serif" font-size="10.00" fill="#000000">exception</text>
</a>
</g>
</g>
<!-- Node6&#45;&gt;Node7 -->
<g id="edge7" class="edge">
<title>Node6&#45;&gt;Node7</title>
<path fill="none" stroke="#191970" d="M313,-56.2455C313,-48.9382 313,-38.6944 313,-29.7046"/>
<polygon fill="#191970" stroke="#191970" points="316.5001,-29.6426 313,-19.6427 309.5001,-29.6427 316.5001,-29.6426"/>
</g>
</g>
</svg>
