<?xml version="1.0" encoding="UTF-8" standalone="no"?>
<!DOCTYPE svg PUBLIC "-//W3C//DTD SVG 1.1//EN"
 "http://www.w3.org/Graphics/SVG/1.1/DTD/svg11.dtd">
<!-- Generated by graphviz version 2.40.1 (20161225.0304)
 -->
<!-- Title: /home/pieter/GitHub/EAGLE&#45;ZYBO&#45;Linux/src/crypto/include/cryptoInstruction.hpp Pages: 1 -->
<svg width="923pt" height="451pt"
 viewBox="0.00 0.00 922.61 451.00" xmlns="http://www.w3.org/2000/svg" xmlns:xlink="http://www.w3.org/1999/xlink">
<g id="graph0" class="graph" transform="scale(1 1) rotate(0) translate(4 447)">
<title>/home/pieter/GitHub/EAGLE&#45;ZYBO&#45;Linux/src/crypto/include/cryptoInstruction.hpp</title>
<polygon fill="#ffffff" stroke="transparent" points="-4,4 -4,-447 918.6119,-447 918.6119,4 -4,4"/>
<!-- Node4 -->
<g id="node1" class="node">
<title>Node4</title>
<g id="a_node1"><a xlink:title=" ">
<polygon fill="#bfbfbf" stroke="#000000" points="147,-401.5 147,-442.5 342,-442.5 342,-401.5 147,-401.5"/>
<text text-anchor="start" x="155" y="-430.5" font-family="Helvetica,sans-Serif" font-size="10.00" fill="#000000">/home/pieter/GitHub</text>
<text text-anchor="start" x="155" y="-419.5" font-family="Helvetica,sans-Serif" font-size="10.00" fill="#000000">/EAGLE&#45;ZYBO&#45;Linux/src</text>
<text text-anchor="middle" x="244.5" y="-408.5" font-family="Helvetica,sans-Serif" font-size="10.00" fill="#000000">/crypto/include/cryptoInstruction.hpp</text>
</a>
</g>
</g>
<!-- Node5 -->
<g id="node2" class="node">
<title>Node5</title>
<g id="a_node2"><a xlink:href="bitString_8hpp.html" target="_top" xlink:title=" ">
<polygon fill="#ffffff" stroke="#000000" points="454.5,-323.5 454.5,-364.5 608.5,-364.5 608.5,-323.5 454.5,-323.5"/>
<text text-anchor="start" x="462.5" y="-352.5" font-family="Helvetica,sans-Serif" font-size="10.00" fill="#000000">/home/pieter/GitHub</text>
<text text-anchor="start" x="462.5" y="-341.5" font-family="Helvetica,sans-Serif" font-size="10.00" fill="#000000">/EAGLE&#45;ZYBO&#45;Linux/src</text>
<text text-anchor="middle" x="531.5" y="-330.5" font-family="Helvetica,sans-Serif" font-size="10.00" fill="#000000">/crypto/include/bitString.hpp</text>
</a>
</g>
</g>
<!-- Node4&#45;&gt;Node5 -->
<g id="edge1" class="edge">
<title>Node4&#45;&gt;Node5</title>
<path fill="none" stroke="#191970" d="M330.0095,-398.7605C369.9686,-387.9005 417.1401,-375.0804 455.7921,-364.5757"/>
<polygon fill="#191970" stroke="#191970" points="329.0133,-395.4042 320.2813,-401.4044 330.8492,-402.1592 329.0133,-395.4042"/>
</g>
<!-- Node7 -->
<g id="node4" class="node">
<title>Node7</title>
<g id="a_node4"><a xlink:href="crypto_8hpp.html" target="_top" xlink:title=" ">
<polygon fill="#ffffff" stroke="#000000" points="0,-89.5 0,-130.5 143,-130.5 143,-89.5 0,-89.5"/>
<text text-anchor="start" x="8" y="-118.5" font-family="Helvetica,sans-Serif" font-size="10.00" fill="#000000">/home/pieter/GitHub</text>
<text text-anchor="start" x="8" y="-107.5" font-family="Helvetica,sans-Serif" font-size="10.00" fill="#000000">/EAGLE&#45;ZYBO&#45;Linux/src</text>
<text text-anchor="middle" x="71.5" y="-96.5" font-family="Helvetica,sans-Serif" font-size="10.00" fill="#000000">/crypto/include/crypto.hpp</text>
</a>
</g>
</g>
<!-- Node4&#45;&gt;Node7 -->
<g id="edge22" class="edge">
<title>Node4&#45;&gt;Node7</title>
<path fill="none" stroke="#191970" d="M207.5816,-394.8565C162.2175,-358.6152 88.6534,-289.5534 67.5,-209 60.597,-182.7129 63.7385,-151.1628 67.1554,-130.8595"/>
<polygon fill="#191970" stroke="#191970" points="205.6787,-397.8124 215.7049,-401.2369 210.0026,-392.3075 205.6787,-397.8124"/>
</g>
<!-- Node6 -->
<g id="node3" class="node">
<title>Node6</title>
<g id="a_node3"><a xlink:href="cryptoImplementation_8hpp.html" target="_top" xlink:title=" ">
<polygon fill="#ffffff" stroke="#000000" points="120,-245.5 120,-286.5 341,-286.5 341,-245.5 120,-245.5"/>
<text text-anchor="start" x="128" y="-274.5" font-family="Helvetica,sans-Serif" font-size="10.00" fill="#000000">/home/pieter/GitHub</text>
<text text-anchor="start" x="128" y="-263.5" font-family="Helvetica,sans-Serif" font-size="10.00" fill="#000000">/EAGLE&#45;ZYBO&#45;Linux/src</text>
<text text-anchor="middle" x="230.5" y="-252.5" font-family="Helvetica,sans-Serif" font-size="10.00" fill="#000000">/crypto/include/cryptoImplementation.hpp</text>
</a>
</g>
</g>
<!-- Node5&#45;&gt;Node6 -->
<g id="edge2" class="edge">
<title>Node5&#45;&gt;Node6</title>
<path fill="none" stroke="#191970" d="M444.5975,-321.4804C402.0707,-310.4602 351.242,-297.2886 309.7837,-286.5453"/>
<polygon fill="#191970" stroke="#191970" points="443.8176,-324.8939 454.3759,-324.0144 445.5736,-318.1177 443.8176,-324.8939"/>
</g>
<!-- Node8 -->
<g id="node5" class="node">
<title>Node8</title>
<g id="a_node5"><a xlink:href="crypto_8cpp.html" target="_top" xlink:title=" ">
<polygon fill="#ffffff" stroke="#000000" points="330,-6 330,-47 459,-47 459,-6 330,-6"/>
<text text-anchor="start" x="338" y="-35" font-family="Helvetica,sans-Serif" font-size="10.00" fill="#000000">/home/pieter/GitHub</text>
<text text-anchor="start" x="338" y="-24" font-family="Helvetica,sans-Serif" font-size="10.00" fill="#000000">/EAGLE&#45;ZYBO&#45;Linux/src</text>
<text text-anchor="middle" x="394.5" y="-13" font-family="Helvetica,sans-Serif" font-size="10.00" fill="#000000">/crypto/src/crypto.cpp</text>
</a>
</g>
</g>
<!-- Node5&#45;&gt;Node8 -->
<g id="edge15" class="edge">
<title>Node5&#45;&gt;Node8</title>
<path fill="none" stroke="#191970" d="M618.9032,-337.7127C746.6756,-324.483 963.2532,-284.5064 904.5,-167 878.661,-115.322 853.759,-111.3997 800.5,-89 740.1846,-63.6325 557.7351,-42.5193 459.2321,-32.5953"/>
<polygon fill="#191970" stroke="#191970" points="618.3276,-334.2527 608.7251,-338.7297 619.0236,-341.218 618.3276,-334.2527"/>
</g>
<!-- Node14 -->
<g id="node11" class="node">
<title>Node14</title>
<g id="a_node11"><a xlink:href="bitString_8cpp.html" target="_top" xlink:title=" ">
<polygon fill="#ffffff" stroke="#000000" points="391.5,-245.5 391.5,-286.5 523.5,-286.5 523.5,-245.5 391.5,-245.5"/>
<text text-anchor="start" x="399.5" y="-274.5" font-family="Helvetica,sans-Serif" font-size="10.00" fill="#000000">/home/pieter/GitHub</text>
<text text-anchor="start" x="399.5" y="-263.5" font-family="Helvetica,sans-Serif" font-size="10.00" fill="#000000">/EAGLE&#45;ZYBO&#45;Linux/src</text>
<text text-anchor="middle" x="457.5" y="-252.5" font-family="Helvetica,sans-Serif" font-size="10.00" fill="#000000">/crypto/src/bitString.cpp</text>
</a>
</g>
</g>
<!-- Node5&#45;&gt;Node14 -->
<g id="edge14" class="edge">
<title>Node5&#45;&gt;Node14</title>
<path fill="none" stroke="#191970" d="M504.6142,-315.6609C495.523,-306.0783 485.5495,-295.5657 477.1288,-286.6898"/>
<polygon fill="#191970" stroke="#191970" points="502.2476,-318.2517 511.6694,-323.0974 507.3259,-313.4338 502.2476,-318.2517"/>
</g>
<!-- Node15 -->
<g id="node12" class="node">
<title>Node15</title>
<g id="a_node12"><a xlink:href="keccak_8hpp.html" target="_top" xlink:title=" ">
<polygon fill="#ffffff" stroke="#000000" points="689,-245.5 689,-286.5 818,-286.5 818,-245.5 689,-245.5"/>
<text text-anchor="start" x="697" y="-274.5" font-family="Helvetica,sans-Serif" font-size="10.00" fill="#000000">/home/pieter/GitHub</text>
<text text-anchor="start" x="697" y="-263.5" font-family="Helvetica,sans-Serif" font-size="10.00" fill="#000000">/EAGLE&#45;ZYBO&#45;Linux/src</text>
<text text-anchor="middle" x="753.5" y="-252.5" font-family="Helvetica,sans-Serif" font-size="10.00" fill="#000000">/crypto/src/keccak.hpp</text>
</a>
</g>
</g>
<!-- Node5&#45;&gt;Node15 -->
<g id="edge16" class="edge">
<title>Node5&#45;&gt;Node15</title>
<path fill="none" stroke="#191970" d="M599.8086,-319.9997C630.2459,-309.3055 665.7358,-296.8361 694.9385,-286.5757"/>
<polygon fill="#191970" stroke="#191970" points="598.3927,-316.7874 590.1183,-323.4044 600.7131,-323.3916 598.3927,-316.7874"/>
</g>
<!-- Node17 -->
<g id="node14" class="node">
<title>Node17</title>
<g id="a_node14"><a xlink:href="ketje_8hpp.html" target="_top" xlink:title=" ">
<polygon fill="#ffffff" stroke="#000000" points="542,-245.5 542,-286.5 671,-286.5 671,-245.5 542,-245.5"/>
<text text-anchor="start" x="550" y="-274.5" font-family="Helvetica,sans-Serif" font-size="10.00" fill="#000000">/home/pieter/GitHub</text>
<text text-anchor="start" x="550" y="-263.5" font-family="Helvetica,sans-Serif" font-size="10.00" fill="#000000">/EAGLE&#45;ZYBO&#45;Linux/src</text>
<text text-anchor="middle" x="606.5" y="-252.5" font-family="Helvetica,sans-Serif" font-size="10.00" fill="#000000">/crypto/src/ketje.hpp</text>
</a>
</g>
</g>
<!-- Node5&#45;&gt;Node17 -->
<g id="edge19" class="edge">
<title>Node5&#45;&gt;Node17</title>
<path fill="none" stroke="#191970" d="M558.7492,-315.6609C567.9632,-306.0783 578.0715,-295.5657 586.606,-286.6898"/>
<polygon fill="#191970" stroke="#191970" points="556.0068,-313.4632 551.5986,-323.0974 561.0527,-318.315 556.0068,-313.4632"/>
</g>
<!-- Node6&#45;&gt;Node7 -->
<g id="edge3" class="edge">
<title>Node6&#45;&gt;Node7</title>
<path fill="none" stroke="#191970" d="M130.1851,-240.9632C114.3115,-233.0445 99.5251,-222.6458 88.5,-209 70.5261,-186.7536 68.6045,-152.3808 69.5446,-130.5484"/>
<polygon fill="#191970" stroke="#191970" points="129.092,-244.3142 139.6366,-245.3449 132.0362,-237.9635 129.092,-244.3142"/>
</g>
<!-- Node10 -->
<g id="node7" class="node">
<title>Node10</title>
<g id="a_node7"><a xlink:href="hwImplementation_8hpp.html" target="_top" xlink:title=" ">
<polygon fill="#ffffff" stroke="#000000" points="319,-167.5 319,-208.5 524,-208.5 524,-167.5 319,-167.5"/>
<text text-anchor="start" x="327" y="-196.5" font-family="Helvetica,sans-Serif" font-size="10.00" fill="#000000">/home/pieter/GitHub</text>
<text text-anchor="start" x="327" y="-185.5" font-family="Helvetica,sans-Serif" font-size="10.00" fill="#000000">/EAGLE&#45;ZYBO&#45;Linux/src</text>
<text text-anchor="middle" x="421.5" y="-174.5" font-family="Helvetica,sans-Serif" font-size="10.00" fill="#000000">/crypto/include/hwImplementation.hpp</text>
</a>
</g>
</g>
<!-- Node6&#45;&gt;Node10 -->
<g id="edge6" class="edge">
<title>Node6&#45;&gt;Node10</title>
<path fill="none" stroke="#191970" d="M290.2925,-241.5821C316.2492,-230.982 346.3174,-218.7028 371.116,-208.5757"/>
<polygon fill="#191970" stroke="#191970" points="288.8674,-238.3834 280.9328,-245.4044 291.5139,-244.8639 288.8674,-238.3834"/>
</g>
<!-- Node12 -->
<g id="node9" class="node">
<title>Node12</title>
<g id="a_node9"><a xlink:href="swImplementation_8hpp.html" target="_top" xlink:title=" ">
<polygon fill="#ffffff" stroke="#000000" points="97.5,-167.5 97.5,-208.5 301.5,-208.5 301.5,-167.5 97.5,-167.5"/>
<text text-anchor="start" x="105.5" y="-196.5" font-family="Helvetica,sans-Serif" font-size="10.00" fill="#000000">/home/pieter/GitHub</text>
<text text-anchor="start" x="105.5" y="-185.5" font-family="Helvetica,sans-Serif" font-size="10.00" fill="#000000">/EAGLE&#45;ZYBO&#45;Linux/src</text>
<text text-anchor="middle" x="199.5" y="-174.5" font-family="Helvetica,sans-Serif" font-size="10.00" fill="#000000">/crypto/include/swImplementation.hpp</text>
</a>
</g>
</g>
<!-- Node6&#45;&gt;Node12 -->
<g id="edge10" class="edge">
<title>Node6&#45;&gt;Node12</title>
<path fill="none" stroke="#191970" d="M218.4402,-235.6559C214.8525,-226.629 211.006,-216.9505 207.7229,-208.6898"/>
<polygon fill="#191970" stroke="#191970" points="215.2466,-237.0972 222.1926,-245.0974 221.7517,-234.5118 215.2466,-237.0972"/>
</g>
<!-- Node7&#45;&gt;Node8 -->
<g id="edge4" class="edge">
<title>Node7&#45;&gt;Node8</title>
<path fill="none" stroke="#191970" d="M152.8201,-88.9181C218.9484,-71.8092 283.3282,-55.1858 329.7857,-43.1959"/>
<polygon fill="#191970" stroke="#191970" points="151.8571,-85.552 143.0527,-91.4454 153.6106,-92.3288 151.8571,-85.552"/>
</g>
<!-- Node9 -->
<g id="node6" class="node">
<title>Node9</title>
<g id="a_node6"><a xlink:href="QRCryptoManager_8cpp.html" target="_top" xlink:title=" ">
<polygon fill="#ffffff" stroke="#000000" points="7,-.5 7,-52.5 136,-52.5 136,-.5 7,-.5"/>
<text text-anchor="start" x="15" y="-40.5" font-family="Helvetica,sans-Serif" font-size="10.00" fill="#000000">/home/pieter/GitHub</text>
<text text-anchor="start" x="15" y="-29.5" font-family="Helvetica,sans-Serif" font-size="10.00" fill="#000000">/EAGLE&#45;ZYBO&#45;Linux/src</text>
<text text-anchor="start" x="15" y="-18.5" font-family="Helvetica,sans-Serif" font-size="10.00" fill="#000000">/qr&#45;crypto&#45;manager/src</text>
<text text-anchor="middle" x="71.5" y="-7.5" font-family="Helvetica,sans-Serif" font-size="10.00" fill="#000000">/QRCryptoManager.cpp</text>
</a>
</g>
</g>
<!-- Node7&#45;&gt;Node9 -->
<g id="edge5" class="edge">
<title>Node7&#45;&gt;Node9</title>
<path fill="none" stroke="#191970" d="M71.5,-79.1618C71.5,-70.4305 71.5,-61.0145 71.5,-52.5925"/>
<polygon fill="#191970" stroke="#191970" points="68.0001,-79.3595 71.5,-89.3595 75.0001,-79.3596 68.0001,-79.3595"/>
</g>
<!-- Node10&#45;&gt;Node7 -->
<g id="edge7" class="edge">
<title>Node10&#45;&gt;Node7</title>
<path fill="none" stroke="#191970" d="M309.5174,-165.4428C261.118,-155.391 203.9064,-143.1038 152.5,-131 149.389,-130.2675 146.2146,-129.5058 143.0105,-128.7254"/>
<polygon fill="#191970" stroke="#191970" points="308.8883,-168.8867 319.3904,-167.4877 310.3081,-162.0322 308.8883,-168.8867"/>
</g>
<!-- Node10&#45;&gt;Node8 -->
<g id="edge8" class="edge">
<title>Node10&#45;&gt;Node8</title>
<path fill="none" stroke="#191970" d="M416.3155,-156.9892C410.9168,-124.697 402.612,-75.0218 397.9612,-47.2029"/>
<polygon fill="#191970" stroke="#191970" points="412.9244,-157.9314 418.0255,-167.2173 419.8286,-156.7771 412.9244,-157.9314"/>
</g>
<!-- Node11 -->
<g id="node8" class="node">
<title>Node11</title>
<g id="a_node8"><a xlink:href="hwImplementation_8cpp.html" target="_top" xlink:title=" ">
<polygon fill="#ffffff" stroke="#000000" points="608,-89.5 608,-130.5 791,-130.5 791,-89.5 608,-89.5"/>
<text text-anchor="start" x="616" y="-118.5" font-family="Helvetica,sans-Serif" font-size="10.00" fill="#000000">/home/pieter/GitHub</text>
<text text-anchor="start" x="616" y="-107.5" font-family="Helvetica,sans-Serif" font-size="10.00" fill="#000000">/EAGLE&#45;ZYBO&#45;Linux/src</text>
<text text-anchor="middle" x="699.5" y="-96.5" font-family="Helvetica,sans-Serif" font-size="10.00" fill="#000000">/crypto/src/hwImplementation.cpp</text>
</a>
</g>
</g>
<!-- Node10&#45;&gt;Node11 -->
<g id="edge9" class="edge">
<title>Node10&#45;&gt;Node11</title>
<path fill="none" stroke="#191970" d="M504.5736,-164.6916C543.2272,-153.8463 588.8055,-141.0582 626.1662,-130.5757"/>
<polygon fill="#191970" stroke="#191970" points="503.5875,-161.333 494.9049,-167.4044 505.4786,-168.0728 503.5875,-161.333"/>
</g>
<!-- Node12&#45;&gt;Node7 -->
<g id="edge11" class="edge">
<title>Node12&#45;&gt;Node7</title>
<path fill="none" stroke="#191970" d="M156.9607,-162.0776C140.1191,-151.8148 121.0353,-140.1856 105.1802,-130.5239"/>
<polygon fill="#191970" stroke="#191970" points="155.1737,-165.0873 165.5344,-167.3022 158.8163,-159.1097 155.1737,-165.0873"/>
</g>
<!-- Node12&#45;&gt;Node8 -->
<g id="edge12" class="edge">
<title>Node12&#45;&gt;Node8</title>
<path fill="none" stroke="#191970" d="M301.4793,-163.5861C320.1192,-155.5612 338.1745,-144.9643 352.5,-131 375.8822,-108.2073 386.6312,-70.6818 391.2789,-47.3446"/>
<polygon fill="#191970" stroke="#191970" points="299.9449,-160.4316 291.9968,-167.4371 302.5789,-166.9171 299.9449,-160.4316"/>
</g>
<!-- Node13 -->
<g id="node10" class="node">
<title>Node13</title>
<g id="a_node10"><a xlink:href="swImplementation_8cpp.html" target="_top" xlink:title=" ">
<polygon fill="#ffffff" stroke="#000000" points="161.5,-89.5 161.5,-130.5 343.5,-130.5 343.5,-89.5 161.5,-89.5"/>
<text text-anchor="start" x="169.5" y="-118.5" font-family="Helvetica,sans-Serif" font-size="10.00" fill="#000000">/home/pieter/GitHub</text>
<text text-anchor="start" x="169.5" y="-107.5" font-family="Helvetica,sans-Serif" font-size="10.00" fill="#000000">/EAGLE&#45;ZYBO&#45;Linux/src</text>
<text text-anchor="middle" x="252.5" y="-96.5" font-family="Helvetica,sans-Serif" font-size="10.00" fill="#000000">/crypto/src/swImplementation.cpp</text>
</a>
</g>
</g>
<!-- Node12&#45;&gt;Node13 -->
<g id="edge13" class="edge">
<title>Node12&#45;&gt;Node13</title>
<path fill="none" stroke="#191970" d="M219.3379,-158.8046C225.6907,-149.4552 232.5897,-139.302 238.4415,-130.6898"/>
<polygon fill="#191970" stroke="#191970" points="216.4283,-156.8591 213.703,-167.0974 222.2182,-160.7933 216.4283,-156.8591"/>
</g>
<!-- Node15&#45;&gt;Node11 -->
<g id="edge17" class="edge">
<title>Node15&#45;&gt;Node11</title>
<path fill="none" stroke="#191970" d="M742.9334,-235.4743C732.2394,-204.5805 715.9945,-157.6509 706.7004,-130.8013"/>
<polygon fill="#191970" stroke="#191970" points="739.7506,-236.9794 746.3292,-245.2844 746.3655,-234.6896 739.7506,-236.9794"/>
</g>
<!-- Node16 -->
<g id="node13" class="node">
<title>Node16</title>
<g id="a_node13"><a xlink:href="keccak_8cpp.html" target="_top" xlink:title=" ">
<polygon fill="#ffffff" stroke="#000000" points="766,-167.5 766,-208.5 895,-208.5 895,-167.5 766,-167.5"/>
<text text-anchor="start" x="774" y="-196.5" font-family="Helvetica,sans-Serif" font-size="10.00" fill="#000000">/home/pieter/GitHub</text>
<text text-anchor="start" x="774" y="-185.5" font-family="Helvetica,sans-Serif" font-size="10.00" fill="#000000">/EAGLE&#45;ZYBO&#45;Linux/src</text>
<text text-anchor="middle" x="830.5" y="-174.5" font-family="Helvetica,sans-Serif" font-size="10.00" fill="#000000">/crypto/src/keccak.cpp</text>
</a>
</g>
</g>
<!-- Node15&#45;&gt;Node16 -->
<g id="edge18" class="edge">
<title>Node15&#45;&gt;Node16</title>
<path fill="none" stroke="#191970" d="M781.1951,-237.9452C790.7298,-228.2866 801.2266,-217.6535 810.0755,-208.6898"/>
<polygon fill="#191970" stroke="#191970" points="778.6691,-235.522 774.1346,-245.0974 783.6507,-240.4397 778.6691,-235.522"/>
</g>
<!-- Node17&#45;&gt;Node11 -->
<g id="edge20" class="edge">
<title>Node17&#45;&gt;Node11</title>
<path fill="none" stroke="#191970" d="M651.972,-239.2308C662.8171,-230.8355 673.3165,-220.6633 680.5,-209 695.2765,-185.0085 698.9818,-152.037 699.6971,-130.8699"/>
<polygon fill="#191970" stroke="#191970" points="649.6727,-236.5759 643.6604,-245.2996 653.8006,-242.2292 649.6727,-236.5759"/>
</g>
<!-- Node18 -->
<g id="node15" class="node">
<title>Node18</title>
<g id="a_node15"><a xlink:href="ketje_8cpp.html" target="_top" xlink:title=" ">
<polygon fill="#ffffff" stroke="#000000" points="542,-167.5 542,-208.5 671,-208.5 671,-167.5 542,-167.5"/>
<text text-anchor="start" x="550" y="-196.5" font-family="Helvetica,sans-Serif" font-size="10.00" fill="#000000">/home/pieter/GitHub</text>
<text text-anchor="start" x="550" y="-185.5" font-family="Helvetica,sans-Serif" font-size="10.00" fill="#000000">/EAGLE&#45;ZYBO&#45;Linux/src</text>
<text text-anchor="middle" x="606.5" y="-174.5" font-family="Helvetica,sans-Serif" font-size="10.00" fill="#000000">/crypto/src/ketje.cpp</text>
</a>
</g>
</g>
<!-- Node17&#45;&gt;Node18 -->
<g id="edge21" class="edge">
<title>Node17&#45;&gt;Node18</title>
<path fill="none" stroke="#191970" d="M606.5,-235.0789C606.5,-226.2178 606.5,-216.7747 606.5,-208.6898"/>
<polygon fill="#191970" stroke="#191970" points="603.0001,-235.0974 606.5,-245.0974 610.0001,-235.0975 603.0001,-235.0974"/>
</g>
</g>
</svg>
