<?xml version="1.0" encoding="UTF-8" standalone="no"?>
<!DOCTYPE svg PUBLIC "-//W3C//DTD SVG 1.1//EN"
 "http://www.w3.org/Graphics/SVG/1.1/DTD/svg11.dtd">
<!-- Generated by graphviz version 2.40.1 (20161225.0304)
 -->
<!-- Title: /home/pieter/GitHub/EAGLE&#45;ZYBO&#45;Linux/src/crypto/include/crypto.hpp Pages: 1 -->
<svg width="527pt" height="330pt"
 viewBox="0.00 0.00 527.00 330.00" xmlns="http://www.w3.org/2000/svg" xmlns:xlink="http://www.w3.org/1999/xlink">
<g id="graph0" class="graph" transform="scale(1 1) rotate(0) translate(4 326)">
<title>/home/pieter/GitHub/EAGLE&#45;ZYBO&#45;Linux/src/crypto/include/crypto.hpp</title>
<polygon fill="#ffffff" stroke="transparent" points="-4,4 -4,-326 523,-326 523,4 -4,4"/>
<!-- Node0 -->
<g id="node1" class="node">
<title>Node0</title>
<g id="a_node1"><a xlink:title=" ">
<polygon fill="#bfbfbf" stroke="#000000" points="165.5,-280.5 165.5,-321.5 308.5,-321.5 308.5,-280.5 165.5,-280.5"/>
<text text-anchor="start" x="173.5" y="-309.5" font-family="Helvetica,sans-Serif" font-size="10.00" fill="#000000">/home/pieter/GitHub</text>
<text text-anchor="start" x="173.5" y="-298.5" font-family="Helvetica,sans-Serif" font-size="10.00" fill="#000000">/EAGLE&#45;ZYBO&#45;Linux/src</text>
<text text-anchor="middle" x="237" y="-287.5" font-family="Helvetica,sans-Serif" font-size="10.00" fill="#000000">/crypto/include/crypto.hpp</text>
</a>
</g>
</g>
<!-- Node1 -->
<g id="node2" class="node">
<title>Node1</title>
<g id="a_node2"><a xlink:href="cryptoException_8hpp.html" target="_top" xlink:title=" ">
<polygon fill="#ffffff" stroke="#000000" points="0,-224.5 0,-243.5 116,-243.5 116,-224.5 0,-224.5"/>
<text text-anchor="middle" x="58" y="-231.5" font-family="Helvetica,sans-Serif" font-size="10.00" fill="#000000">cryptoException.hpp</text>
</a>
</g>
</g>
<!-- Node0&#45;&gt;Node1 -->
<g id="edge1" class="edge">
<title>Node0&#45;&gt;Node1</title>
<path fill="none" stroke="#191970" d="M181.8335,-280.3511C152.9955,-269.557 118.5521,-256.6647 93.3202,-247.2204"/>
<polygon fill="#191970" stroke="#191970" points="94.3861,-243.8823 83.7937,-243.6546 91.9322,-250.4381 94.3861,-243.8823"/>
</g>
<!-- Node4 -->
<g id="node5" class="node">
<title>Node4</title>
<g id="a_node5"><a xlink:href="cryptoImplementation_8hpp.html" target="_top" xlink:title=" ">
<polygon fill="#ffffff" stroke="#000000" points="205,-168.5 205,-187.5 351,-187.5 351,-168.5 205,-168.5"/>
<text text-anchor="middle" x="278" y="-175.5" font-family="Helvetica,sans-Serif" font-size="10.00" fill="#000000">cryptoImplementation.hpp</text>
</a>
</g>
</g>
<!-- Node0&#45;&gt;Node4 -->
<g id="edge4" class="edge">
<title>Node0&#45;&gt;Node4</title>
<path fill="none" stroke="#191970" d="M194.9244,-280.348C171.1164,-265.7569 148.7077,-245.1103 163,-224 173.7311,-208.1497 190.9038,-197.7606 208.7409,-190.9511"/>
<polygon fill="#191970" stroke="#191970" points="210.3686,-194.0922 218.682,-187.5243 208.0873,-187.4743 210.3686,-194.0922"/>
</g>
<!-- Node7 -->
<g id="node8" class="node">
<title>Node7</title>
<g id="a_node8"><a xlink:href="cryptoInstruction_8hpp.html" target="_top" xlink:title=" ">
<polygon fill="#ffffff" stroke="#000000" points="399,-56.5 399,-75.5 519,-75.5 519,-56.5 399,-56.5"/>
<text text-anchor="middle" x="459" y="-63.5" font-family="Helvetica,sans-Serif" font-size="10.00" fill="#000000">cryptoInstruction.hpp</text>
</a>
</g>
</g>
<!-- Node0&#45;&gt;Node7 -->
<g id="edge14" class="edge">
<title>Node0&#45;&gt;Node7</title>
<path fill="none" stroke="#191970" d="M308.5399,-292.1664C366.1677,-283.4072 440.5256,-267.8171 459,-244 495.2178,-197.3082 477.33,-121.0573 465.9576,-85.4563"/>
<polygon fill="#191970" stroke="#191970" points="469.2116,-84.1518 462.7046,-75.7905 462.5772,-86.3846 469.2116,-84.1518"/>
</g>
<!-- Node12 -->
<g id="node13" class="node">
<title>Node12</title>
<g id="a_node13"><a xlink:href="hwImplementation_8hpp.html" target="_top" xlink:title=" ">
<polygon fill="#ffffff" stroke="#000000" points="172,-224.5 172,-243.5 302,-243.5 302,-224.5 172,-224.5"/>
<text text-anchor="middle" x="237" y="-231.5" font-family="Helvetica,sans-Serif" font-size="10.00" fill="#000000">hwImplementation.hpp</text>
</a>
</g>
</g>
<!-- Node0&#45;&gt;Node12 -->
<g id="edge15" class="edge">
<title>Node0&#45;&gt;Node12</title>
<path fill="none" stroke="#191970" d="M237,-280.168C237,-271.8226 237,-262.2471 237,-253.9879"/>
<polygon fill="#191970" stroke="#191970" points="240.5001,-253.7804 237,-243.7805 233.5001,-253.7805 240.5001,-253.7804"/>
</g>
<!-- Node13 -->
<g id="node14" class="node">
<title>Node13</title>
<g id="a_node14"><a xlink:href="swImplementation_8hpp.html" target="_top" xlink:title=" ">
<polygon fill="#ffffff" stroke="#000000" points="320.5,-224.5 320.5,-243.5 449.5,-243.5 449.5,-224.5 320.5,-224.5"/>
<text text-anchor="middle" x="385" y="-231.5" font-family="Helvetica,sans-Serif" font-size="10.00" fill="#000000">swImplementation.hpp</text>
</a>
</g>
</g>
<!-- Node0&#45;&gt;Node13 -->
<g id="edge17" class="edge">
<title>Node0&#45;&gt;Node13</title>
<path fill="none" stroke="#191970" d="M282.6125,-280.3511C305.9287,-269.7958 333.6768,-257.2342 354.401,-247.8523"/>
<polygon fill="#191970" stroke="#191970" points="356.0068,-250.9673 363.6733,-243.6546 353.1199,-244.5903 356.0068,-250.9673"/>
</g>
<!-- Node2 -->
<g id="node3" class="node">
<title>Node2</title>
<g id="a_node3"><a xlink:title=" ">
<polygon fill="#ffffff" stroke="#bfbfbf" points="22.5,-168.5 22.5,-187.5 87.5,-187.5 87.5,-168.5 22.5,-168.5"/>
<text text-anchor="middle" x="55" y="-175.5" font-family="Helvetica,sans-Serif" font-size="10.00" fill="#000000">exception</text>
</a>
</g>
</g>
<!-- Node1&#45;&gt;Node2 -->
<g id="edge2" class="edge">
<title>Node1&#45;&gt;Node2</title>
<path fill="none" stroke="#191970" d="M57.4774,-224.2455C57.086,-216.9382 56.5372,-206.6944 56.0556,-197.7046"/>
<polygon fill="#191970" stroke="#191970" points="59.5466,-197.4411 55.5166,-187.6427 52.5566,-197.8156 59.5466,-197.4411"/>
</g>
<!-- Node3 -->
<g id="node4" class="node">
<title>Node3</title>
<g id="a_node4"><a xlink:title=" ">
<polygon fill="#ffffff" stroke="#bfbfbf" points="106,-168.5 106,-187.5 150,-187.5 150,-168.5 106,-168.5"/>
<text text-anchor="middle" x="128" y="-175.5" font-family="Helvetica,sans-Serif" font-size="10.00" fill="#000000">string</text>
</a>
</g>
</g>
<!-- Node1&#45;&gt;Node3 -->
<g id="edge3" class="edge">
<title>Node1&#45;&gt;Node3</title>
<path fill="none" stroke="#191970" d="M70.1931,-224.2455C80.6321,-215.8943 95.8655,-203.7076 108.074,-193.9408"/>
<polygon fill="#191970" stroke="#191970" points="110.3244,-196.6227 115.9467,-187.6427 105.9515,-191.1566 110.3244,-196.6227"/>
</g>
<!-- Node5 -->
<g id="node6" class="node">
<title>Node5</title>
<g id="a_node6"><a xlink:href="bitString_8hpp.html" target="_top" xlink:title=" ">
<polygon fill="#ffffff" stroke="#000000" points="257.5,-112.5 257.5,-131.5 336.5,-131.5 336.5,-112.5 257.5,-112.5"/>
<text text-anchor="middle" x="297" y="-119.5" font-family="Helvetica,sans-Serif" font-size="10.00" fill="#000000">bitString.hpp</text>
</a>
</g>
</g>
<!-- Node4&#45;&gt;Node5 -->
<g id="edge5" class="edge">
<title>Node4&#45;&gt;Node5</title>
<path fill="none" stroke="#191970" d="M281.3095,-168.2455C283.8433,-160.7776 287.4177,-150.2427 290.515,-141.1137"/>
<polygon fill="#191970" stroke="#191970" points="293.8298,-142.237 293.7284,-131.6427 287.2009,-139.9879 293.8298,-142.237"/>
</g>
<!-- Node6 -->
<g id="node7" class="node">
<title>Node6</title>
<g id="a_node7"><a xlink:title=" ">
<polygon fill="#ffffff" stroke="#bfbfbf" points="301,-56.5 301,-75.5 343,-75.5 343,-56.5 301,-56.5"/>
<text text-anchor="middle" x="322" y="-63.5" font-family="Helvetica,sans-Serif" font-size="10.00" fill="#000000">array</text>
</a>
</g>
</g>
<!-- Node5&#45;&gt;Node6 -->
<g id="edge6" class="edge">
<title>Node5&#45;&gt;Node6</title>
<path fill="none" stroke="#191970" d="M301.3547,-112.2455C304.7244,-104.6973 309.493,-94.0158 313.5983,-84.8197"/>
<polygon fill="#191970" stroke="#191970" points="316.8147,-86.2009 317.6952,-75.6427 310.4227,-83.3473 316.8147,-86.2009"/>
</g>
<!-- Node5&#45;&gt;Node7 -->
<g id="edge7" class="edge">
<title>Node5&#45;&gt;Node7</title>
<path fill="none" stroke="#191970" d="M324.8488,-112.3733C351.6703,-103.1016 392.4127,-89.0178 421.9598,-78.804"/>
<polygon fill="#191970" stroke="#191970" points="423.2069,-82.0762 431.5146,-75.5011 420.9198,-75.4603 423.2069,-82.0762"/>
</g>
<!-- Node8 -->
<g id="node9" class="node">
<title>Node8</title>
<g id="a_node9"><a xlink:title=" ">
<polygon fill="#ffffff" stroke="#bfbfbf" points="352,-.5 352,-19.5 402,-19.5 402,-.5 352,-.5"/>
<text text-anchor="middle" x="377" y="-7.5" font-family="Helvetica,sans-Serif" font-size="10.00" fill="#000000">cstdint</text>
</a>
</g>
</g>
<!-- Node5&#45;&gt;Node8 -->
<g id="edge11" class="edge">
<title>Node5&#45;&gt;Node8</title>
<path fill="none" stroke="#191970" d="M312.4062,-112.3631C324.6086,-104.0423 341.3228,-91.0136 352,-76 361.9738,-61.9754 368.5287,-43.4731 372.4141,-29.628"/>
<polygon fill="#191970" stroke="#191970" points="375.8669,-30.2545 374.972,-19.6975 369.0881,-28.5083 375.8669,-30.2545"/>
</g>
<!-- Node10 -->
<g id="node11" class="node">
<title>Node10</title>
<g id="a_node11"><a xlink:title=" ">
<polygon fill="#ffffff" stroke="#bfbfbf" points="271.5,-.5 271.5,-19.5 318.5,-19.5 318.5,-.5 271.5,-.5"/>
<text text-anchor="middle" x="295" y="-7.5" font-family="Helvetica,sans-Serif" font-size="10.00" fill="#000000">vector</text>
</a>
</g>
</g>
<!-- Node5&#45;&gt;Node10 -->
<g id="edge13" class="edge">
<title>Node5&#45;&gt;Node10</title>
<path fill="none" stroke="#191970" d="M295.6176,-112.1547C294.3864,-102.8576 292.6781,-88.5134 292,-76 291.1648,-60.5863 292.0368,-43.1389 293.0518,-30.0557"/>
<polygon fill="#191970" stroke="#191970" points="296.5604,-30.1087 293.9414,-19.8427 289.5868,-29.5012 296.5604,-30.1087"/>
</g>
<!-- Node11 -->
<g id="node12" class="node">
<title>Node11</title>
<g id="a_node12"><a xlink:title=" ">
<polygon fill="#ffffff" stroke="#bfbfbf" points="185,-56.5 185,-75.5 245,-75.5 245,-56.5 185,-56.5"/>
<text text-anchor="middle" x="215" y="-63.5" font-family="Helvetica,sans-Serif" font-size="10.00" fill="#000000">iostream</text>
</a>
</g>
</g>
<!-- Node5&#45;&gt;Node11 -->
<g id="edge12" class="edge">
<title>Node5&#45;&gt;Node11</title>
<path fill="none" stroke="#191970" d="M282.7167,-112.2455C270.253,-103.7337 251.9549,-91.2375 237.5208,-81.3801"/>
<polygon fill="#191970" stroke="#191970" points="239.3515,-78.392 229.1196,-75.6427 235.4038,-84.1726 239.3515,-78.392"/>
</g>
<!-- Node7&#45;&gt;Node8 -->
<g id="edge8" class="edge">
<title>Node7&#45;&gt;Node8</title>
<path fill="none" stroke="#191970" d="M444.7167,-56.2455C432.253,-47.7337 413.9549,-35.2375 399.5208,-25.3801"/>
<polygon fill="#191970" stroke="#191970" points="401.3515,-22.392 391.1196,-19.6427 397.4038,-28.1726 401.3515,-22.392"/>
</g>
<!-- Node9 -->
<g id="node10" class="node">
<title>Node9</title>
<g id="a_node10"><a xlink:title=" ">
<polygon fill="#ffffff" stroke="#bfbfbf" points="426.5,-.5 426.5,-19.5 491.5,-19.5 491.5,-.5 426.5,-.5"/>
<text text-anchor="middle" x="459" y="-7.5" font-family="Helvetica,sans-Serif" font-size="10.00" fill="#000000">stdexcept</text>
</a>
</g>
</g>
<!-- Node7&#45;&gt;Node9 -->
<g id="edge9" class="edge">
<title>Node7&#45;&gt;Node9</title>
<path fill="none" stroke="#191970" d="M459,-56.2455C459,-48.9382 459,-38.6944 459,-29.7046"/>
<polygon fill="#191970" stroke="#191970" points="462.5001,-29.6426 459,-19.6427 455.5001,-29.6427 462.5001,-29.6426"/>
</g>
<!-- Node7&#45;&gt;Node10 -->
<g id="edge10" class="edge">
<title>Node7&#45;&gt;Node10</title>
<path fill="none" stroke="#191970" d="M430.8074,-56.3733C402.3382,-46.6521 358.3767,-31.6408 328.2295,-21.3467"/>
<polygon fill="#191970" stroke="#191970" points="329.1722,-17.9702 318.5776,-18.0509 326.9101,-24.5946 329.1722,-17.9702"/>
</g>
<!-- Node12&#45;&gt;Node4 -->
<g id="edge16" class="edge">
<title>Node12&#45;&gt;Node4</title>
<path fill="none" stroke="#191970" d="M244.1417,-224.2455C249.8444,-216.4564 257.99,-205.3308 264.8625,-195.9439"/>
<polygon fill="#191970" stroke="#191970" points="267.8568,-197.7789 270.9402,-187.6427 262.2087,-193.6437 267.8568,-197.7789"/>
</g>
<!-- Node13&#45;&gt;Node4 -->
<g id="edge18" class="edge">
<title>Node13&#45;&gt;Node4</title>
<path fill="none" stroke="#191970" d="M366.362,-224.2455C349.5614,-215.4527 324.6366,-202.4079 305.5382,-192.4125"/>
<polygon fill="#191970" stroke="#191970" points="306.9073,-189.1787 296.4244,-187.6427 303.6614,-195.3807 306.9073,-189.1787"/>
</g>
</g>
</svg>
