<?xml version="1.0" encoding="UTF-8" standalone="no"?>
<!DOCTYPE svg PUBLIC "-//W3C//DTD SVG 1.1//EN"
 "http://www.w3.org/Graphics/SVG/1.1/DTD/svg11.dtd">
<!-- Generated by graphviz version 2.40.1 (20161225.0304)
 -->
<!-- Title: /home/pieter/GitHub/EAGLE&#45;ZYBO&#45;Linux/src/crypto/include/crypto.hpp Pages: 1 -->
<svg width="352pt" height="162pt"
 viewBox="0.00 0.00 352.00 162.00" xmlns="http://www.w3.org/2000/svg" xmlns:xlink="http://www.w3.org/1999/xlink">
<g id="graph0" class="graph" transform="scale(1 1) rotate(0) translate(4 158)">
<title>/home/pieter/GitHub/EAGLE&#45;ZYBO&#45;Linux/src/crypto/include/crypto.hpp</title>
<polygon fill="#ffffff" stroke="transparent" points="-4,4 -4,-158 348,-158 348,4 -4,4"/>
<!-- Node0 -->
<g id="node1" class="node">
<title>Node0</title>
<g id="a_node1"><a xlink:title=" ">
<polygon fill="#bfbfbf" stroke="#000000" points="102,-112.5 102,-153.5 245,-153.5 245,-112.5 102,-112.5"/>
<text text-anchor="start" x="110" y="-141.5" font-family="Helvetica,sans-Serif" font-size="10.00" fill="#000000">/home/pieter/GitHub</text>
<text text-anchor="start" x="110" y="-130.5" font-family="Helvetica,sans-Serif" font-size="10.00" fill="#000000">/EAGLE&#45;ZYBO&#45;Linux/src</text>
<text text-anchor="middle" x="173.5" y="-119.5" font-family="Helvetica,sans-Serif" font-size="10.00" fill="#000000">/crypto/include/crypto.hpp</text>
</a>
</g>
</g>
<!-- Node1 -->
<g id="node2" class="node">
<title>Node1</title>
<g id="a_node2"><a xlink:href="cryptoException_8hpp.html" target="_top" xlink:title=" ">
<polygon fill="#ffffff" stroke="#000000" points="47.5,-56.5 47.5,-75.5 163.5,-75.5 163.5,-56.5 47.5,-56.5"/>
<text text-anchor="middle" x="105.5" y="-63.5" font-family="Helvetica,sans-Serif" font-size="10.00" fill="#000000">cryptoException.hpp</text>
</a>
</g>
</g>
<!-- Node0&#45;&gt;Node1 -->
<g id="edge1" class="edge">
<title>Node0&#45;&gt;Node1</title>
<path fill="none" stroke="#191970" d="M152.3571,-112.168C142.8284,-102.7794 131.7195,-91.834 122.7105,-82.9574"/>
<polygon fill="#191970" stroke="#191970" points="125.0062,-80.3058 115.4264,-75.7805 120.0932,-85.2921 125.0062,-80.3058"/>
</g>
<!-- Node4 -->
<g id="node5" class="node">
<title>Node4</title>
<g id="a_node5"><a xlink:href="cryptoInstruction_8hpp.html" target="_top" xlink:title=" ">
<polygon fill="#ffffff" stroke="#000000" points="183.5,-56.5 183.5,-75.5 303.5,-75.5 303.5,-56.5 183.5,-56.5"/>
<text text-anchor="middle" x="243.5" y="-63.5" font-family="Helvetica,sans-Serif" font-size="10.00" fill="#000000">cryptoInstruction.hpp</text>
</a>
</g>
</g>
<!-- Node0&#45;&gt;Node4 -->
<g id="edge4" class="edge">
<title>Node0&#45;&gt;Node4</title>
<path fill="none" stroke="#191970" d="M195.2647,-112.168C205.0738,-102.7794 216.5093,-91.834 225.7833,-82.9574"/>
<polygon fill="#191970" stroke="#191970" points="228.4775,-85.2235 233.2816,-75.7805 223.6373,-80.1666 228.4775,-85.2235"/>
</g>
<!-- Node2 -->
<g id="node3" class="node">
<title>Node2</title>
<g id="a_node3"><a xlink:title=" ">
<polygon fill="#ffffff" stroke="#bfbfbf" points="0,-.5 0,-19.5 65,-19.5 65,-.5 0,-.5"/>
<text text-anchor="middle" x="32.5" y="-7.5" font-family="Helvetica,sans-Serif" font-size="10.00" fill="#000000">exception</text>
</a>
</g>
</g>
<!-- Node1&#45;&gt;Node2 -->
<g id="edge2" class="edge">
<title>Node1&#45;&gt;Node2</title>
<path fill="none" stroke="#191970" d="M92.7844,-56.2455C81.898,-47.8943 66.0117,-35.7076 53.28,-25.9408"/>
<polygon fill="#191970" stroke="#191970" points="55.1346,-22.9523 45.0699,-19.6427 50.8739,-28.5063 55.1346,-22.9523"/>
</g>
<!-- Node3 -->
<g id="node4" class="node">
<title>Node3</title>
<g id="a_node4"><a xlink:title=" ">
<polygon fill="#ffffff" stroke="#bfbfbf" points="83.5,-.5 83.5,-19.5 127.5,-19.5 127.5,-.5 83.5,-.5"/>
<text text-anchor="middle" x="105.5" y="-7.5" font-family="Helvetica,sans-Serif" font-size="10.00" fill="#000000">string</text>
</a>
</g>
</g>
<!-- Node1&#45;&gt;Node3 -->
<g id="edge3" class="edge">
<title>Node1&#45;&gt;Node3</title>
<path fill="none" stroke="#191970" d="M105.5,-56.2455C105.5,-48.9382 105.5,-38.6944 105.5,-29.7046"/>
<polygon fill="#191970" stroke="#191970" points="109.0001,-29.6426 105.5,-19.6427 102.0001,-29.6427 109.0001,-29.6426"/>
</g>
<!-- Node5 -->
<g id="node6" class="node">
<title>Node5</title>
<g id="a_node6"><a xlink:title=" ">
<polygon fill="#ffffff" stroke="#bfbfbf" points="145.5,-.5 145.5,-19.5 195.5,-19.5 195.5,-.5 145.5,-.5"/>
<text text-anchor="middle" x="170.5" y="-7.5" font-family="Helvetica,sans-Serif" font-size="10.00" fill="#000000">cstdint</text>
</a>
</g>
</g>
<!-- Node4&#45;&gt;Node5 -->
<g id="edge5" class="edge">
<title>Node4&#45;&gt;Node5</title>
<path fill="none" stroke="#191970" d="M230.7844,-56.2455C219.898,-47.8943 204.0117,-35.7076 191.28,-25.9408"/>
<polygon fill="#191970" stroke="#191970" points="193.1346,-22.9523 183.0699,-19.6427 188.8739,-28.5063 193.1346,-22.9523"/>
</g>
<!-- Node6 -->
<g id="node7" class="node">
<title>Node6</title>
<g id="a_node7"><a xlink:title=" ">
<polygon fill="#ffffff" stroke="#bfbfbf" points="214,-.5 214,-19.5 279,-19.5 279,-.5 214,-.5"/>
<text text-anchor="middle" x="246.5" y="-7.5" font-family="Helvetica,sans-Serif" font-size="10.00" fill="#000000">stdexcept</text>
</a>
</g>
</g>
<!-- Node4&#45;&gt;Node6 -->
<g id="edge6" class="edge">
<title>Node4&#45;&gt;Node6</title>
<path fill="none" stroke="#191970" d="M244.0226,-56.2455C244.414,-48.9382 244.9628,-38.6944 245.4444,-29.7046"/>
<polygon fill="#191970" stroke="#191970" points="248.9434,-29.8156 245.9834,-19.6427 241.9534,-29.4411 248.9434,-29.8156"/>
</g>
<!-- Node7 -->
<g id="node8" class="node">
<title>Node7</title>
<g id="a_node8"><a xlink:title=" ">
<polygon fill="#ffffff" stroke="#bfbfbf" points="297,-.5 297,-19.5 344,-19.5 344,-.5 297,-.5"/>
<text text-anchor="middle" x="320.5" y="-7.5" font-family="Helvetica,sans-Serif" font-size="10.00" fill="#000000">vector</text>
</a>
</g>
</g>
<!-- Node4&#45;&gt;Node7 -->
<g id="edge7" class="edge">
<title>Node4&#45;&gt;Node7</title>
<path fill="none" stroke="#191970" d="M256.9124,-56.2455C268.5057,-47.814 285.4748,-35.4729 298.9678,-25.6598"/>
<polygon fill="#191970" stroke="#191970" points="301.2126,-28.355 307.2413,-19.6427 297.0953,-22.6938 301.2126,-28.355"/>
</g>
</g>
</svg>
