<?xml version="1.0" encoding="UTF-8" standalone="no"?>
<!DOCTYPE svg PUBLIC "-//W3C//DTD SVG 1.1//EN"
 "http://www.w3.org/Graphics/SVG/1.1/DTD/svg11.dtd">
<!-- Generated by graphviz version 2.40.1 (20161225.0304)
 -->
<!-- Title: /home/pieter/GitHub/EAGLE&#45;ZYBO&#45;Linux/src/crypto/include/cryptoImplementation.hpp Pages: 1 -->
<svg width="630pt" height="295pt"
 viewBox="0.00 0.00 629.50 295.00" xmlns="http://www.w3.org/2000/svg" xmlns:xlink="http://www.w3.org/1999/xlink">
<g id="graph0" class="graph" transform="scale(1 1) rotate(0) translate(4 291)">
<title>/home/pieter/GitHub/EAGLE&#45;ZYBO&#45;Linux/src/crypto/include/cryptoImplementation.hpp</title>
<polygon fill="#ffffff" stroke="transparent" points="-4,4 -4,-291 625.5,-291 625.5,4 -4,4"/>
<!-- Node8 -->
<g id="node1" class="node">
<title>Node8</title>
<g id="a_node1"><a xlink:title=" ">
<polygon fill="#bfbfbf" stroke="#000000" points="201,-245.5 201,-286.5 422,-286.5 422,-245.5 201,-245.5"/>
<text text-anchor="start" x="209" y="-274.5" font-family="Helvetica,sans-Serif" font-size="10.00" fill="#000000">/home/pieter/GitHub</text>
<text text-anchor="start" x="209" y="-263.5" font-family="Helvetica,sans-Serif" font-size="10.00" fill="#000000">/EAGLE&#45;ZYBO&#45;Linux/src</text>
<text text-anchor="middle" x="311.5" y="-252.5" font-family="Helvetica,sans-Serif" font-size="10.00" fill="#000000">/crypto/include/cryptoImplementation.hpp</text>
</a>
</g>
</g>
<!-- Node9 -->
<g id="node2" class="node">
<title>Node9</title>
<g id="a_node2"><a xlink:href="crypto_8hpp.html" target="_top" xlink:title=" ">
<polygon fill="#ffffff" stroke="#000000" points="240,-89.5 240,-130.5 383,-130.5 383,-89.5 240,-89.5"/>
<text text-anchor="start" x="248" y="-118.5" font-family="Helvetica,sans-Serif" font-size="10.00" fill="#000000">/home/pieter/GitHub</text>
<text text-anchor="start" x="248" y="-107.5" font-family="Helvetica,sans-Serif" font-size="10.00" fill="#000000">/EAGLE&#45;ZYBO&#45;Linux/src</text>
<text text-anchor="middle" x="311.5" y="-96.5" font-family="Helvetica,sans-Serif" font-size="10.00" fill="#000000">/crypto/include/crypto.hpp</text>
</a>
</g>
</g>
<!-- Node8&#45;&gt;Node9 -->
<g id="edge1" class="edge">
<title>Node8&#45;&gt;Node9</title>
<path fill="none" stroke="#191970" d="M311.5,-235.0704C311.5,-204.1728 311.5,-157.5341 311.5,-130.8013"/>
<polygon fill="#191970" stroke="#191970" points="308.0001,-235.2844 311.5,-245.2844 315.0001,-235.2844 308.0001,-235.2844"/>
</g>
<!-- Node12 -->
<g id="node5" class="node">
<title>Node12</title>
<g id="a_node5"><a xlink:href="hwImplementation_8hpp.html" target="_top" xlink:title=" ">
<polygon fill="#ffffff" stroke="#000000" points="78,-167.5 78,-208.5 283,-208.5 283,-167.5 78,-167.5"/>
<text text-anchor="start" x="86" y="-196.5" font-family="Helvetica,sans-Serif" font-size="10.00" fill="#000000">/home/pieter/GitHub</text>
<text text-anchor="start" x="86" y="-185.5" font-family="Helvetica,sans-Serif" font-size="10.00" fill="#000000">/EAGLE&#45;ZYBO&#45;Linux/src</text>
<text text-anchor="middle" x="180.5" y="-174.5" font-family="Helvetica,sans-Serif" font-size="10.00" fill="#000000">/crypto/include/hwImplementation.hpp</text>
</a>
</g>
</g>
<!-- Node8&#45;&gt;Node12 -->
<g id="edge4" class="edge">
<title>Node8&#45;&gt;Node12</title>
<path fill="none" stroke="#191970" d="M267.9637,-240.0776C250.7274,-229.8148 231.1963,-218.1856 214.9696,-208.5239"/>
<polygon fill="#191970" stroke="#191970" points="266.3555,-243.1935 276.7383,-245.3022 269.9367,-237.1789 266.3555,-243.1935"/>
</g>
<!-- Node14 -->
<g id="node7" class="node">
<title>Node14</title>
<g id="a_node7"><a xlink:href="swImplementation_8hpp.html" target="_top" xlink:title=" ">
<polygon fill="#ffffff" stroke="#000000" points="339.5,-167.5 339.5,-208.5 543.5,-208.5 543.5,-167.5 339.5,-167.5"/>
<text text-anchor="start" x="347.5" y="-196.5" font-family="Helvetica,sans-Serif" font-size="10.00" fill="#000000">/home/pieter/GitHub</text>
<text text-anchor="start" x="347.5" y="-185.5" font-family="Helvetica,sans-Serif" font-size="10.00" fill="#000000">/EAGLE&#45;ZYBO&#45;Linux/src</text>
<text text-anchor="middle" x="441.5" y="-174.5" font-family="Helvetica,sans-Serif" font-size="10.00" fill="#000000">/crypto/include/swImplementation.hpp</text>
</a>
</g>
</g>
<!-- Node8&#45;&gt;Node14 -->
<g id="edge8" class="edge">
<title>Node8&#45;&gt;Node14</title>
<path fill="none" stroke="#191970" d="M354.704,-240.0776C371.8087,-229.8148 391.1907,-218.1856 407.2936,-208.5239"/>
<polygon fill="#191970" stroke="#191970" points="352.7705,-237.156 345.9963,-245.3022 356.372,-243.1584 352.7705,-237.156"/>
</g>
<!-- Node10 -->
<g id="node3" class="node">
<title>Node10</title>
<g id="a_node3"><a xlink:href="crypto_8cpp.html" target="_top" xlink:title=" ">
<polygon fill="#ffffff" stroke="#000000" points="197,-6 197,-47 326,-47 326,-6 197,-6"/>
<text text-anchor="start" x="205" y="-35" font-family="Helvetica,sans-Serif" font-size="10.00" fill="#000000">/home/pieter/GitHub</text>
<text text-anchor="start" x="205" y="-24" font-family="Helvetica,sans-Serif" font-size="10.00" fill="#000000">/EAGLE&#45;ZYBO&#45;Linux/src</text>
<text text-anchor="middle" x="261.5" y="-13" font-family="Helvetica,sans-Serif" font-size="10.00" fill="#000000">/crypto/src/crypto.cpp</text>
</a>
</g>
</g>
<!-- Node9&#45;&gt;Node10 -->
<g id="edge2" class="edge">
<title>Node9&#45;&gt;Node10</title>
<path fill="none" stroke="#191970" d="M293.8266,-80.4854C287.2381,-69.4826 279.9049,-57.2362 273.8907,-47.1924"/>
<polygon fill="#191970" stroke="#191970" points="291.0002,-82.5782 299.1404,-89.3595 297.0058,-78.982 291.0002,-82.5782"/>
</g>
<!-- Node11 -->
<g id="node4" class="node">
<title>Node11</title>
<g id="a_node4"><a xlink:href="QRCryptoManager_8cpp.html" target="_top" xlink:title=" ">
<polygon fill="#ffffff" stroke="#000000" points="344,-.5 344,-52.5 473,-52.5 473,-.5 344,-.5"/>
<text text-anchor="start" x="352" y="-40.5" font-family="Helvetica,sans-Serif" font-size="10.00" fill="#000000">/home/pieter/GitHub</text>
<text text-anchor="start" x="352" y="-29.5" font-family="Helvetica,sans-Serif" font-size="10.00" fill="#000000">/EAGLE&#45;ZYBO&#45;Linux/src</text>
<text text-anchor="start" x="352" y="-18.5" font-family="Helvetica,sans-Serif" font-size="10.00" fill="#000000">/qr&#45;crypto&#45;manager/src</text>
<text text-anchor="middle" x="408.5" y="-7.5" font-family="Helvetica,sans-Serif" font-size="10.00" fill="#000000">/QRCryptoManager.cpp</text>
</a>
</g>
</g>
<!-- Node9&#45;&gt;Node11 -->
<g id="edge3" class="edge">
<title>Node9&#45;&gt;Node11</title>
<path fill="none" stroke="#191970" d="M343.3574,-82.5763C354.562,-72.9311 367.1152,-62.1251 378.1889,-52.5925"/>
<polygon fill="#191970" stroke="#191970" points="340.7729,-80.183 335.4775,-89.3595 345.3397,-85.4881 340.7729,-80.183"/>
</g>
<!-- Node12&#45;&gt;Node9 -->
<g id="edge5" class="edge">
<title>Node12&#45;&gt;Node9</title>
<path fill="none" stroke="#191970" d="M224.0363,-162.0776C241.2726,-151.8148 260.8037,-140.1856 277.0304,-130.5239"/>
<polygon fill="#191970" stroke="#191970" points="222.0633,-159.1789 215.2617,-167.3022 225.6445,-165.1935 222.0633,-159.1789"/>
</g>
<!-- Node12&#45;&gt;Node10 -->
<g id="edge6" class="edge">
<title>Node12&#45;&gt;Node10</title>
<path fill="none" stroke="#191970" d="M195.4242,-158.2438C211.5977,-125.9966 236.982,-75.3847 251.1165,-47.2029"/>
<polygon fill="#191970" stroke="#191970" points="192.2782,-156.7094 190.9235,-167.2173 198.5353,-159.8477 192.2782,-156.7094"/>
</g>
<!-- Node13 -->
<g id="node6" class="node">
<title>Node13</title>
<g id="a_node6"><a xlink:href="hwImplementation_8cpp.html" target="_top" xlink:title=" ">
<polygon fill="#ffffff" stroke="#000000" points="0,-89.5 0,-130.5 183,-130.5 183,-89.5 0,-89.5"/>
<text text-anchor="start" x="8" y="-118.5" font-family="Helvetica,sans-Serif" font-size="10.00" fill="#000000">/home/pieter/GitHub</text>
<text text-anchor="start" x="8" y="-107.5" font-family="Helvetica,sans-Serif" font-size="10.00" fill="#000000">/EAGLE&#45;ZYBO&#45;Linux/src</text>
<text text-anchor="middle" x="91.5" y="-96.5" font-family="Helvetica,sans-Serif" font-size="10.00" fill="#000000">/crypto/src/hwImplementation.cpp</text>
</a>
</g>
</g>
<!-- Node12&#45;&gt;Node13 -->
<g id="edge7" class="edge">
<title>Node12&#45;&gt;Node13</title>
<path fill="none" stroke="#191970" d="M148.8126,-160.229C137.7062,-150.4953 125.4357,-139.7414 115.1076,-130.6898"/>
<polygon fill="#191970" stroke="#191970" points="146.8222,-163.1386 156.6496,-167.0974 151.436,-157.8742 146.8222,-163.1386"/>
</g>
<!-- Node14&#45;&gt;Node9 -->
<g id="edge9" class="edge">
<title>Node14&#45;&gt;Node9</title>
<path fill="none" stroke="#191970" d="M398.296,-162.0776C381.1913,-151.8148 361.8093,-140.1856 345.7064,-130.5239"/>
<polygon fill="#191970" stroke="#191970" points="396.628,-165.1584 407.0037,-167.3022 400.2295,-159.156 396.628,-165.1584"/>
</g>
<!-- Node14&#45;&gt;Node10 -->
<g id="edge10" class="edge">
<title>Node14&#45;&gt;Node10</title>
<path fill="none" stroke="#191970" d="M432.1282,-157.7863C424.1918,-136.342 410.9639,-108.0873 391.5,-89 379.3865,-77.1209 343.6761,-60.3072 312.742,-47.1107"/>
<polygon fill="#191970" stroke="#191970" points="428.8882,-159.1237 435.5044,-167.3988 435.4927,-156.804 428.8882,-159.1237"/>
</g>
<!-- Node15 -->
<g id="node8" class="node">
<title>Node15</title>
<g id="a_node8"><a xlink:href="swImplementation_8cpp.html" target="_top" xlink:title=" ">
<polygon fill="#ffffff" stroke="#000000" points="439.5,-89.5 439.5,-130.5 621.5,-130.5 621.5,-89.5 439.5,-89.5"/>
<text text-anchor="start" x="447.5" y="-118.5" font-family="Helvetica,sans-Serif" font-size="10.00" fill="#000000">/home/pieter/GitHub</text>
<text text-anchor="start" x="447.5" y="-107.5" font-family="Helvetica,sans-Serif" font-size="10.00" fill="#000000">/EAGLE&#45;ZYBO&#45;Linux/src</text>
<text text-anchor="middle" x="530.5" y="-96.5" font-family="Helvetica,sans-Serif" font-size="10.00" fill="#000000">/crypto/src/swImplementation.cpp</text>
</a>
</g>
</g>
<!-- Node14&#45;&gt;Node15 -->
<g id="edge11" class="edge">
<title>Node14&#45;&gt;Node15</title>
<path fill="none" stroke="#191970" d="M473.1874,-160.229C484.2938,-150.4953 496.5643,-139.7414 506.8924,-130.6898"/>
<polygon fill="#191970" stroke="#191970" points="470.564,-157.8742 465.3504,-167.0974 475.1778,-163.1386 470.564,-157.8742"/>
</g>
</g>
</svg>
