<?xml version="1.0" encoding="UTF-8" standalone="no"?>
<!DOCTYPE svg PUBLIC "-//W3C//DTD SVG 1.1//EN"
 "http://www.w3.org/Graphics/SVG/1.1/DTD/svg11.dtd">
<!-- Generated by graphviz version 2.40.1 (20161225.0304)
 -->
<!-- Title: tryDecrypt Pages: 1 -->
<svg width="450pt" height="241pt"
 viewBox="0.00 0.00 450.00 241.00" xmlns="http://www.w3.org/2000/svg" xmlns:xlink="http://www.w3.org/1999/xlink">
<g id="graph0" class="graph" transform="scale(1 1) rotate(0) translate(4 237)">
<title>tryDecrypt</title>
<polygon fill="#ffffff" stroke="transparent" points="-4,4 -4,-237 446,-237 446,4 -4,4"/>
<!-- Node6 -->
<g id="node1" class="node">
<title>Node6</title>
<g id="a_node1"><a xlink:title="Decrypt the given QR code without retries.">
<polygon fill="#bfbfbf" stroke="#000000" points="0,-106.5 0,-125.5 68,-125.5 68,-106.5 0,-106.5"/>
<text text-anchor="middle" x="34" y="-113.5" font-family="Helvetica,sans-Serif" font-size="10.00" fill="#000000">tryDecrypt</text>
</a>
</g>
</g>
<!-- Node7 -->
<g id="node2" class="node">
<title>Node7</title>
<g id="a_node2"><a xlink:href="classBitString.html#a9ce7e8bef847437b601aa3c3385f343a" target="_top" xlink:title=" ">
<polygon fill="#ffffff" stroke="#000000" points="148,-213.5 148,-232.5 249,-232.5 249,-213.5 148,-213.5"/>
<text text-anchor="middle" x="198.5" y="-220.5" font-family="Helvetica,sans-Serif" font-size="10.00" fill="#000000">BitString::reserve</text>
</a>
</g>
</g>
<!-- Node6&#45;&gt;Node7 -->
<g id="edge1" class="edge">
<title>Node6&#45;&gt;Node7</title>
<path fill="none" stroke="#191970" d="M38.6426,-125.5093C48.1482,-143.8965 71.6857,-184.2491 104,-204 114.1512,-210.2046 125.9524,-214.4283 137.7042,-217.2929"/>
<polygon fill="#191970" stroke="#191970" points="137.0159,-220.7248 147.5267,-219.3932 138.4796,-213.8795 137.0159,-220.7248"/>
</g>
<!-- Node8 -->
<g id="node3" class="node">
<title>Node8</title>
<g id="a_node3"><a xlink:href="classBitString.html#a39a133d9a366545e41d6a470255a1b64" target="_top" xlink:title=" ">
<polygon fill="#ffffff" stroke="#000000" points="136,-175.5 136,-194.5 261,-194.5 261,-175.5 136,-175.5"/>
<text text-anchor="middle" x="198.5" y="-182.5" font-family="Helvetica,sans-Serif" font-size="10.00" fill="#000000">BitString::concatenate</text>
</a>
</g>
</g>
<!-- Node6&#45;&gt;Node8 -->
<g id="edge2" class="edge">
<title>Node6&#45;&gt;Node8</title>
<path fill="none" stroke="#191970" d="M44.5061,-125.7159C57.4826,-137.162 80.7086,-155.8954 104,-166 111.0164,-169.044 118.5394,-171.6066 126.1647,-173.7628"/>
<polygon fill="#191970" stroke="#191970" points="125.2883,-177.1513 135.8474,-176.2823 127.051,-170.3769 125.2883,-177.1513"/>
</g>
<!-- Node9 -->
<g id="node4" class="node">
<title>Node9</title>
<g id="a_node4"><a xlink:href="classCryptoImplementation.html#a048dcba0a26121872c00574581a05af5" target="_top" xlink:title=" ">
<polygon fill="#ffffff" stroke="#000000" points="135,-126 135,-156 262,-156 262,-126 135,-126"/>
<text text-anchor="start" x="143" y="-144" font-family="Helvetica,sans-Serif" font-size="10.00" fill="#000000">CryptoImplementation</text>
<text text-anchor="middle" x="198.5" y="-133" font-family="Helvetica,sans-Serif" font-size="10.00" fill="#000000">::hash</text>
</a>
</g>
</g>
<!-- Node6&#45;&gt;Node9 -->
<g id="edge3" class="edge">
<title>Node6&#45;&gt;Node9</title>
<path fill="none" stroke="#191970" d="M68.0845,-121.18C84.5882,-123.6882 105.0867,-126.8035 124.9071,-129.8157"/>
<polygon fill="#191970" stroke="#191970" points="124.46,-133.2878 134.8724,-131.3302 125.5118,-126.3673 124.46,-133.2878"/>
</g>
<!-- Node10 -->
<g id="node5" class="node">
<title>Node10</title>
<g id="a_node5"><a xlink:href="classCryptoImplementation.html#a9e99ba638d4e44c8fb5e06d59d0ec6f5" target="_top" xlink:title=" ">
<polygon fill="#ffffff" stroke="#000000" points="135,-77 135,-107 262,-107 262,-77 135,-77"/>
<text text-anchor="start" x="143" y="-95" font-family="Helvetica,sans-Serif" font-size="10.00" fill="#000000">CryptoImplementation</text>
<text text-anchor="middle" x="198.5" y="-84" font-family="Helvetica,sans-Serif" font-size="10.00" fill="#000000">::decrypt</text>
</a>
</g>
</g>
<!-- Node6&#45;&gt;Node10 -->
<g id="edge4" class="edge">
<title>Node6&#45;&gt;Node10</title>
<path fill="none" stroke="#191970" d="M68.0845,-111.0272C84.5882,-108.6193 105.0867,-105.6287 124.9071,-102.737"/>
<polygon fill="#191970" stroke="#191970" points="125.4825,-106.1902 134.8724,-101.2831 124.4719,-99.2635 125.4825,-106.1902"/>
</g>
<!-- Node11 -->
<g id="node6" class="node">
<title>Node11</title>
<g id="a_node6"><a xlink:href="classBitString.html#a6fd895d69b6e106bfb073e0c28dab614" target="_top" xlink:title=" ">
<polygon fill="#ffffff" stroke="#000000" points="119.5,-38.5 119.5,-57.5 277.5,-57.5 277.5,-38.5 119.5,-38.5"/>
<text text-anchor="middle" x="198.5" y="-45.5" font-family="Helvetica,sans-Serif" font-size="10.00" fill="#000000">BitString::toCryptoInstruction</text>
</a>
</g>
</g>
<!-- Node6&#45;&gt;Node11 -->
<g id="edge5" class="edge">
<title>Node6&#45;&gt;Node11</title>
<path fill="none" stroke="#191970" d="M45.0614,-106.3401C58.2096,-95.375 81.2453,-77.75 104,-68 111.099,-64.9582 118.7022,-62.3636 126.3984,-60.1536"/>
<polygon fill="#191970" stroke="#191970" points="127.4016,-63.5086 136.1658,-57.5554 125.6021,-56.7438 127.4016,-63.5086"/>
</g>
<!-- Node14 -->
<g id="node9" class="node">
<title>Node14</title>
<g id="a_node9"><a xlink:href="classCryptoException.html#a7992bed5c54db81f763ed99d6342ca55" target="_top" xlink:title=" ">
<polygon fill="#ffffff" stroke="#000000" points="104,-.5 104,-19.5 293,-19.5 293,-.5 104,-.5"/>
<text text-anchor="middle" x="198.5" y="-7.5" font-family="Helvetica,sans-Serif" font-size="10.00" fill="#000000">CryptoException::getExceptionType</text>
</a>
</g>
</g>
<!-- Node6&#45;&gt;Node14 -->
<g id="edge8" class="edge">
<title>Node6&#45;&gt;Node14</title>
<path fill="none" stroke="#191970" d="M38.8214,-106.3156C48.4742,-88.0086 72.0213,-48.4236 104,-29 107.4416,-26.9096 111.0712,-25.0443 114.8229,-23.3802"/>
<polygon fill="#191970" stroke="#191970" points="116.3274,-26.55 124.3629,-19.6448 113.7751,-20.0318 116.3274,-26.55"/>
</g>
<!-- Node12 -->
<g id="node7" class="node">
<title>Node12</title>
<g id="a_node7"><a xlink:href="classBitString.html#a39bc6a3bef8f84d2dec75174b35abf89" target="_top" xlink:title=" ">
<polygon fill="#ffffff" stroke="#000000" points="329,-57.5 329,-76.5 442,-76.5 442,-57.5 329,-57.5"/>
<text text-anchor="middle" x="385.5" y="-64.5" font-family="Helvetica,sans-Serif" font-size="10.00" fill="#000000">BitString::getLength</text>
</a>
</g>
</g>
<!-- Node11&#45;&gt;Node12 -->
<g id="edge6" class="edge">
<title>Node11&#45;&gt;Node12</title>
<path fill="none" stroke="#191970" d="M277.5338,-56.0302C291.2757,-57.4264 305.4449,-58.8661 318.815,-60.2245"/>
<polygon fill="#191970" stroke="#191970" points="318.5604,-63.7166 328.863,-61.2454 319.2681,-56.7524 318.5604,-63.7166"/>
</g>
<!-- Node13 -->
<g id="node8" class="node">
<title>Node13</title>
<g id="a_node8"><a xlink:href="classBitString.html#aea3337d9a486e42e562914d586066e00" target="_top" xlink:title=" ">
<polygon fill="#ffffff" stroke="#000000" points="333,-19.5 333,-38.5 438,-38.5 438,-19.5 333,-19.5"/>
<text text-anchor="middle" x="385.5" y="-26.5" font-family="Helvetica,sans-Serif" font-size="10.00" fill="#000000">BitString::toVector</text>
</a>
</g>
</g>
<!-- Node11&#45;&gt;Node13 -->
<g id="edge7" class="edge">
<title>Node11&#45;&gt;Node13</title>
<path fill="none" stroke="#191970" d="M277.5338,-39.9698C292.5334,-38.4458 308.0421,-36.8701 322.4649,-35.4046"/>
<polygon fill="#191970" stroke="#191970" points="323.1573,-38.8524 332.7523,-34.3594 322.4497,-31.8882 323.1573,-38.8524"/>
</g>
</g>
</svg>
