<?xml version="1.0" encoding="UTF-8" standalone="no"?>
<!DOCTYPE svg PUBLIC "-//W3C//DTD SVG 1.1//EN"
 "http://www.w3.org/Graphics/SVG/1.1/DTD/svg11.dtd">
<!-- Generated by graphviz version 2.40.1 (20161225.0304)
 -->
<!-- Title: /home/pieter/GitHub/EAGLE&#45;ZYBO&#45;Linux/src/crypto/include/cryptoException.hpp Pages: 1 -->
<svg width="601pt" height="295pt"
 viewBox="0.00 0.00 601.00 295.00" xmlns="http://www.w3.org/2000/svg" xmlns:xlink="http://www.w3.org/1999/xlink">
<g id="graph0" class="graph" transform="scale(1 1) rotate(0) translate(4 291)">
<title>/home/pieter/GitHub/EAGLE&#45;ZYBO&#45;Linux/src/crypto/include/cryptoException.hpp</title>
<polygon fill="#ffffff" stroke="transparent" points="-4,4 -4,-291 597,-291 597,4 -4,4"/>
<!-- Node2 -->
<g id="node1" class="node">
<title>Node2</title>
<g id="a_node1"><a xlink:title=" ">
<polygon fill="#bfbfbf" stroke="#000000" points="196,-245.5 196,-286.5 387,-286.5 387,-245.5 196,-245.5"/>
<text text-anchor="start" x="204" y="-274.5" font-family="Helvetica,sans-Serif" font-size="10.00" fill="#000000">/home/pieter/GitHub</text>
<text text-anchor="start" x="204" y="-263.5" font-family="Helvetica,sans-Serif" font-size="10.00" fill="#000000">/EAGLE&#45;ZYBO&#45;Linux/src</text>
<text text-anchor="middle" x="291.5" y="-252.5" font-family="Helvetica,sans-Serif" font-size="10.00" fill="#000000">/crypto/include/cryptoException.hpp</text>
</a>
</g>
</g>
<!-- Node3 -->
<g id="node2" class="node">
<title>Node3</title>
<g id="a_node2"><a xlink:href="crypto_8hpp.html" target="_top" xlink:title=" ">
<polygon fill="#ffffff" stroke="#000000" points="138,-167.5 138,-208.5 281,-208.5 281,-167.5 138,-167.5"/>
<text text-anchor="start" x="146" y="-196.5" font-family="Helvetica,sans-Serif" font-size="10.00" fill="#000000">/home/pieter/GitHub</text>
<text text-anchor="start" x="146" y="-185.5" font-family="Helvetica,sans-Serif" font-size="10.00" fill="#000000">/EAGLE&#45;ZYBO&#45;Linux/src</text>
<text text-anchor="middle" x="209.5" y="-174.5" font-family="Helvetica,sans-Serif" font-size="10.00" fill="#000000">/crypto/include/crypto.hpp</text>
</a>
</g>
</g>
<!-- Node2&#45;&gt;Node3 -->
<g id="edge1" class="edge">
<title>Node2&#45;&gt;Node3</title>
<path fill="none" stroke="#191970" d="M262.0065,-237.9452C251.8526,-228.2866 240.6742,-217.6535 231.2508,-208.6898"/>
<polygon fill="#191970" stroke="#191970" points="259.8676,-240.7412 269.5255,-245.0974 264.6922,-235.6693 259.8676,-240.7412"/>
</g>
<!-- Node6 -->
<g id="node5" class="node">
<title>Node6</title>
<g id="a_node5"><a xlink:href="cryptoPoller_8hpp.html" target="_top" xlink:title=" ">
<polygon fill="#ffffff" stroke="#000000" points="299,-167.5 299,-208.5 448,-208.5 448,-167.5 299,-167.5"/>
<text text-anchor="start" x="307" y="-196.5" font-family="Helvetica,sans-Serif" font-size="10.00" fill="#000000">/home/pieter/GitHub</text>
<text text-anchor="start" x="307" y="-185.5" font-family="Helvetica,sans-Serif" font-size="10.00" fill="#000000">/EAGLE&#45;ZYBO&#45;Linux/src</text>
<text text-anchor="middle" x="373.5" y="-174.5" font-family="Helvetica,sans-Serif" font-size="10.00" fill="#000000">/crypto/src/cryptoPoller.hpp</text>
</a>
</g>
</g>
<!-- Node2&#45;&gt;Node6 -->
<g id="edge4" class="edge">
<title>Node2&#45;&gt;Node6</title>
<path fill="none" stroke="#191970" d="M320.9935,-237.9452C331.1474,-228.2866 342.3258,-217.6535 351.7492,-208.6898"/>
<polygon fill="#191970" stroke="#191970" points="318.3078,-235.6693 313.4745,-245.0974 323.1324,-240.7412 318.3078,-235.6693"/>
</g>
<!-- Node4 -->
<g id="node3" class="node">
<title>Node4</title>
<g id="a_node3"><a xlink:href="crypto_8cpp.html" target="_top" xlink:title=" ">
<polygon fill="#ffffff" stroke="#000000" points="0,-84 0,-125 129,-125 129,-84 0,-84"/>
<text text-anchor="start" x="8" y="-113" font-family="Helvetica,sans-Serif" font-size="10.00" fill="#000000">/home/pieter/GitHub</text>
<text text-anchor="start" x="8" y="-102" font-family="Helvetica,sans-Serif" font-size="10.00" fill="#000000">/EAGLE&#45;ZYBO&#45;Linux/src</text>
<text text-anchor="middle" x="64.5" y="-91" font-family="Helvetica,sans-Serif" font-size="10.00" fill="#000000">/crypto/src/crypto.cpp</text>
</a>
</g>
</g>
<!-- Node3&#45;&gt;Node4 -->
<g id="edge2" class="edge">
<title>Node3&#45;&gt;Node4</title>
<path fill="none" stroke="#191970" d="M164.9884,-162.3674C144.1842,-150.3871 119.7476,-136.315 100.1814,-125.0476"/>
<polygon fill="#191970" stroke="#191970" points="163.2448,-165.4022 173.6573,-167.3595 166.7381,-159.3361 163.2448,-165.4022"/>
</g>
<!-- Node5 -->
<g id="node4" class="node">
<title>Node5</title>
<g id="a_node4"><a xlink:href="QRCryptoManager_8cpp.html" target="_top" xlink:title=" ">
<polygon fill="#ffffff" stroke="#000000" points="147,-78.5 147,-130.5 276,-130.5 276,-78.5 147,-78.5"/>
<text text-anchor="start" x="155" y="-118.5" font-family="Helvetica,sans-Serif" font-size="10.00" fill="#000000">/home/pieter/GitHub</text>
<text text-anchor="start" x="155" y="-107.5" font-family="Helvetica,sans-Serif" font-size="10.00" fill="#000000">/EAGLE&#45;ZYBO&#45;Linux/src</text>
<text text-anchor="start" x="155" y="-96.5" font-family="Helvetica,sans-Serif" font-size="10.00" fill="#000000">/qr&#45;crypto&#45;manager/src</text>
<text text-anchor="middle" x="211.5" y="-85.5" font-family="Helvetica,sans-Serif" font-size="10.00" fill="#000000">/QRCryptoManager.cpp</text>
</a>
</g>
</g>
<!-- Node3&#45;&gt;Node5 -->
<g id="edge3" class="edge">
<title>Node3&#45;&gt;Node5</title>
<path fill="none" stroke="#191970" d="M210.2386,-157.1618C210.4478,-148.4305 210.6733,-139.0145 210.875,-130.5925"/>
<polygon fill="#191970" stroke="#191970" points="206.7349,-157.2786 209.9944,-167.3595 213.7329,-157.4463 206.7349,-157.2786"/>
</g>
<!-- Node7 -->
<g id="node6" class="node">
<title>Node7</title>
<g id="a_node6"><a xlink:href="cryptoPoller_8cpp.html" target="_top" xlink:title=" ">
<polygon fill="#ffffff" stroke="#000000" points="297,-84 297,-125 446,-125 446,-84 297,-84"/>
<text text-anchor="start" x="305" y="-113" font-family="Helvetica,sans-Serif" font-size="10.00" fill="#000000">/home/pieter/GitHub</text>
<text text-anchor="start" x="305" y="-102" font-family="Helvetica,sans-Serif" font-size="10.00" fill="#000000">/EAGLE&#45;ZYBO&#45;Linux/src</text>
<text text-anchor="middle" x="371.5" y="-91" font-family="Helvetica,sans-Serif" font-size="10.00" fill="#000000">/crypto/src/cryptoPoller.cpp</text>
</a>
</g>
</g>
<!-- Node6&#45;&gt;Node7 -->
<g id="edge5" class="edge">
<title>Node6&#45;&gt;Node7</title>
<path fill="none" stroke="#191970" d="M372.7613,-157.1593C372.5061,-146.5064 372.2266,-134.8344 371.9956,-125.1924"/>
<polygon fill="#191970" stroke="#191970" points="369.2671,-157.4463 373.0056,-167.3595 376.2651,-157.2786 369.2671,-157.4463"/>
</g>
<!-- Node8 -->
<g id="node7" class="node">
<title>Node8</title>
<g id="a_node7"><a xlink:href="ketje_8hpp.html" target="_top" xlink:title=" ">
<polygon fill="#ffffff" stroke="#000000" points="464,-84 464,-125 593,-125 593,-84 464,-84"/>
<text text-anchor="start" x="472" y="-113" font-family="Helvetica,sans-Serif" font-size="10.00" fill="#000000">/home/pieter/GitHub</text>
<text text-anchor="start" x="472" y="-102" font-family="Helvetica,sans-Serif" font-size="10.00" fill="#000000">/EAGLE&#45;ZYBO&#45;Linux/src</text>
<text text-anchor="middle" x="528.5" y="-91" font-family="Helvetica,sans-Serif" font-size="10.00" fill="#000000">/crypto/src/ketje.hpp</text>
</a>
</g>
</g>
<!-- Node6&#45;&gt;Node8 -->
<g id="edge6" class="edge">
<title>Node6&#45;&gt;Node8</title>
<path fill="none" stroke="#191970" d="M420.7838,-162.5278C443.087,-150.5128 469.3489,-136.3653 490.3578,-125.0476"/>
<polygon fill="#191970" stroke="#191970" points="418.9585,-159.5355 411.8146,-167.3595 422.2784,-165.6981 418.9585,-159.5355"/>
</g>
<!-- Node9 -->
<g id="node8" class="node">
<title>Node9</title>
<g id="a_node8"><a xlink:href="ketje_8cpp.html" target="_top" xlink:title=" ">
<polygon fill="#ffffff" stroke="#000000" points="464,-.5 464,-41.5 593,-41.5 593,-.5 464,-.5"/>
<text text-anchor="start" x="472" y="-29.5" font-family="Helvetica,sans-Serif" font-size="10.00" fill="#000000">/home/pieter/GitHub</text>
<text text-anchor="start" x="472" y="-18.5" font-family="Helvetica,sans-Serif" font-size="10.00" fill="#000000">/EAGLE&#45;ZYBO&#45;Linux/src</text>
<text text-anchor="middle" x="528.5" y="-7.5" font-family="Helvetica,sans-Serif" font-size="10.00" fill="#000000">/crypto/src/ketje.cpp</text>
</a>
</g>
</g>
<!-- Node8&#45;&gt;Node9 -->
<g id="edge7" class="edge">
<title>Node8&#45;&gt;Node9</title>
<path fill="none" stroke="#191970" d="M528.5,-73.6593C528.5,-63.0064 528.5,-51.3344 528.5,-41.6924"/>
<polygon fill="#191970" stroke="#191970" points="525.0001,-73.8595 528.5,-83.8595 532.0001,-73.8596 525.0001,-73.8595"/>
</g>
</g>
</svg>
