<?xml version="1.0" encoding="UTF-8" standalone="no"?>
<!DOCTYPE svg PUBLIC "-//W3C//DTD SVG 1.1//EN"
 "http://www.w3.org/Graphics/SVG/1.1/DTD/svg11.dtd">
<!-- Generated by graphviz version 2.40.1 (20161225.0304)
 -->
<!-- Title: decrypt Pages: 1 -->
<svg width="275pt" height="66pt"
 viewBox="0.00 0.00 275.00 66.00" xmlns="http://www.w3.org/2000/svg" xmlns:xlink="http://www.w3.org/1999/xlink">
<g id="graph0" class="graph" transform="scale(1 1) rotate(0) translate(4 62)">
<title>decrypt</title>
<polygon fill="#ffffff" stroke="transparent" points="-4,4 -4,-62 271,-62 271,4 -4,4"/>
<!-- Node1 -->
<g id="node1" class="node">
<title>Node1</title>
<g id="a_node1"><a xlink:title="Decrypt the given QR code.">
<polygon fill="#bfbfbf" stroke="#000000" points="214,-19.5 214,-38.5 267,-38.5 267,-19.5 214,-19.5"/>
<text text-anchor="middle" x="240.5" y="-26.5" font-family="Helvetica,sans-Serif" font-size="10.00" fill="#000000">decrypt</text>
</a>
</g>
</g>
<!-- Node2 -->
<g id="node2" class="node">
<title>Node2</title>
<g id="a_node2"><a xlink:href="namespaceSWImplementation.html#a1da38cf84c412dc43617d7afdcb8efdb" target="_top" xlink:title=" ">
<polygon fill="#ffffff" stroke="#000000" points="12.5,-38.5 12.5,-57.5 165.5,-57.5 165.5,-38.5 12.5,-38.5"/>
<text text-anchor="middle" x="89" y="-45.5" font-family="Helvetica,sans-Serif" font-size="10.00" fill="#000000">SWImplementation::decrypt</text>
</a>
</g>
</g>
<!-- Node1&#45;&gt;Node2 -->
<g id="edge1" class="edge">
<title>Node1&#45;&gt;Node2</title>
<path fill="none" stroke="#191970" d="M203.5129,-33.6386C191.7781,-35.1103 178.3445,-36.7951 164.9043,-38.4806"/>
<polygon fill="#191970" stroke="#191970" points="204.2769,-37.0703 213.7636,-32.3531 203.4057,-30.1247 204.2769,-37.0703"/>
</g>
<!-- Node3 -->
<g id="node3" class="node">
<title>Node3</title>
<g id="a_node3"><a xlink:href="classQRCryptoManager.html#adce85dbb0a3457d79025813c2dea59df" target="_top" xlink:title=" ">
<polygon fill="#ffffff" stroke="#000000" points="0,-.5 0,-19.5 178,-19.5 178,-.5 0,-.5"/>
<text text-anchor="middle" x="89" y="-7.5" font-family="Helvetica,sans-Serif" font-size="10.00" fill="#000000">QRCryptoManager::decodeCrypto</text>
</a>
</g>
</g>
<!-- Node1&#45;&gt;Node3 -->
<g id="edge2" class="edge">
<title>Node1&#45;&gt;Node3</title>
<path fill="none" stroke="#191970" d="M203.5129,-24.3614C191.7781,-22.8897 178.3445,-21.2049 164.9043,-19.5194"/>
<polygon fill="#191970" stroke="#191970" points="203.4057,-27.8753 213.7636,-25.6469 204.2769,-20.9297 203.4057,-27.8753"/>
</g>
</g>
</svg>
