<?xml version="1.0" encoding="UTF-8" standalone="no"?>
<!DOCTYPE svg PUBLIC "-//W3C//DTD SVG 1.1//EN"
 "http://www.w3.org/Graphics/SVG/1.1/DTD/svg11.dtd">
<!-- Generated by graphviz version 2.40.1 (20161225.0304)
 -->
<!-- Title: /home/pieter/GitHub/EAGLE&#45;ZYBO&#45;Linux/src/crypto/src/crypto.cpp Pages: 1 -->
<svg width="761pt" height="386pt"
 viewBox="0.00 0.00 761.21 386.00" xmlns="http://www.w3.org/2000/svg" xmlns:xlink="http://www.w3.org/1999/xlink">
<g id="graph0" class="graph" transform="scale(1 1) rotate(0) translate(4 382)">
<title>/home/pieter/GitHub/EAGLE&#45;ZYBO&#45;Linux/src/crypto/src/crypto.cpp</title>
<polygon fill="#ffffff" stroke="transparent" points="-4,4 -4,-382 757.2092,-382 757.2092,4 -4,4"/>
<!-- Node0 -->
<g id="node1" class="node">
<title>Node0</title>
<g id="a_node1"><a xlink:title=" ">
<polygon fill="#bfbfbf" stroke="#000000" points="260.2092,-336.5 260.2092,-377.5 389.2092,-377.5 389.2092,-336.5 260.2092,-336.5"/>
<text text-anchor="start" x="268.2092" y="-365.5" font-family="Helvetica,sans-Serif" font-size="10.00" fill="#000000">/home/pieter/GitHub</text>
<text text-anchor="start" x="268.2092" y="-354.5" font-family="Helvetica,sans-Serif" font-size="10.00" fill="#000000">/EAGLE&#45;ZYBO&#45;Linux/src</text>
<text text-anchor="middle" x="324.7092" y="-343.5" font-family="Helvetica,sans-Serif" font-size="10.00" fill="#000000">/crypto/src/crypto.cpp</text>
</a>
</g>
</g>
<!-- Node1 -->
<g id="node2" class="node">
<title>Node1</title>
<g id="a_node2"><a xlink:href="crypto_8hpp.html" target="_top" xlink:title=" ">
<polygon fill="#ffffff" stroke="#000000" points="290.7092,-280.5 290.7092,-299.5 358.7092,-299.5 358.7092,-280.5 290.7092,-280.5"/>
<text text-anchor="middle" x="324.7092" y="-287.5" font-family="Helvetica,sans-Serif" font-size="10.00" fill="#000000">crypto.hpp</text>
</a>
</g>
</g>
<!-- Node0&#45;&gt;Node1 -->
<g id="edge1" class="edge">
<title>Node0&#45;&gt;Node1</title>
<path fill="none" stroke="#191970" d="M324.7092,-336.168C324.7092,-327.8226 324.7092,-318.2471 324.7092,-309.9879"/>
<polygon fill="#191970" stroke="#191970" points="328.2093,-309.7804 324.7092,-299.7805 321.2093,-309.7805 328.2093,-309.7804"/>
</g>
<!-- Node4 -->
<g id="node5" class="node">
<title>Node4</title>
<g id="a_node5"><a xlink:title=" ">
<polygon fill="#ffffff" stroke="#bfbfbf" points="505.7092,-168.5 505.7092,-187.5 549.7092,-187.5 549.7092,-168.5 505.7092,-168.5"/>
<text text-anchor="middle" x="527.7092" y="-175.5" font-family="Helvetica,sans-Serif" font-size="10.00" fill="#000000">string</text>
</a>
</g>
</g>
<!-- Node0&#45;&gt;Node4 -->
<g id="edge24" class="edge">
<title>Node0&#45;&gt;Node4</title>
<path fill="none" stroke="#191970" d="M386.006,-336.4436C429.1006,-318.7561 484.4479,-288.8993 515.7092,-244 525.0557,-230.5759 527.7585,-212.0152 528.2943,-197.995"/>
<polygon fill="#191970" stroke="#191970" points="531.7946,-197.9269 528.3449,-187.9094 524.7947,-197.8917 531.7946,-197.9269"/>
</g>
<!-- Node6 -->
<g id="node7" class="node">
<title>Node6</title>
<g id="a_node7"><a xlink:href="bitString_8hpp.html" target="_top" xlink:title=" ">
<polygon fill="#ffffff" stroke="#000000" points="192.2092,-112.5 192.2092,-131.5 271.2092,-131.5 271.2092,-112.5 192.2092,-112.5"/>
<text text-anchor="middle" x="231.7092" y="-119.5" font-family="Helvetica,sans-Serif" font-size="10.00" fill="#000000">bitString.hpp</text>
</a>
</g>
</g>
<!-- Node0&#45;&gt;Node6 -->
<g id="edge20" class="edge">
<title>Node0&#45;&gt;Node6</title>
<path fill="none" stroke="#191970" d="M259.9148,-342.9583C176.5937,-323.4363 39.0901,-285.754 9.7092,-244 -37.6425,-176.7073 102.8025,-142.6107 181.8319,-129.1316"/>
<polygon fill="#191970" stroke="#191970" points="182.7862,-132.5215 192.0827,-127.4396 181.6462,-125.6149 182.7862,-132.5215"/>
</g>
<!-- Node13 -->
<g id="node14" class="node">
<title>Node13</title>
<g id="a_node14"><a xlink:href="hwImplementation_8hpp.html" target="_top" xlink:title=" ">
<polygon fill="#ffffff" stroke="#000000" points="18.7092,-224.5 18.7092,-243.5 148.7092,-243.5 148.7092,-224.5 18.7092,-224.5"/>
<text text-anchor="middle" x="83.7092" y="-231.5" font-family="Helvetica,sans-Serif" font-size="10.00" fill="#000000">hwImplementation.hpp</text>
</a>
</g>
</g>
<!-- Node0&#45;&gt;Node13 -->
<g id="edge23" class="edge">
<title>Node0&#45;&gt;Node13</title>
<path fill="none" stroke="#191970" d="M284.3712,-336.4126C235.2882,-311.3619 153.7305,-269.737 111.2865,-248.0748"/>
<polygon fill="#191970" stroke="#191970" points="112.8567,-244.9467 102.3586,-243.5182 109.6745,-251.1816 112.8567,-244.9467"/>
</g>
<!-- Node14 -->
<g id="node15" class="node">
<title>Node14</title>
<g id="a_node15"><a xlink:href="swImplementation_8hpp.html" target="_top" xlink:title=" ">
<polygon fill="#ffffff" stroke="#000000" points="167.2092,-224.5 167.2092,-243.5 296.2092,-243.5 296.2092,-224.5 167.2092,-224.5"/>
<text text-anchor="middle" x="231.7092" y="-231.5" font-family="Helvetica,sans-Serif" font-size="10.00" fill="#000000">swImplementation.hpp</text>
</a>
</g>
</g>
<!-- Node0&#45;&gt;Node14 -->
<g id="edge25" class="edge">
<title>Node0&#45;&gt;Node14</title>
<path fill="none" stroke="#191970" d="M309.143,-336.4126C291.1573,-312.625 261.8717,-273.8924 244.9401,-251.499"/>
<polygon fill="#191970" stroke="#191970" points="247.7288,-249.3839 238.9058,-243.5182 242.1451,-253.6057 247.7288,-249.3839"/>
</g>
<!-- Node15 -->
<g id="node16" class="node">
<title>Node15</title>
<g id="a_node16"><a xlink:href="cryptoConstants_8hpp.html" target="_top" xlink:title=" ">
<polygon fill="#ffffff" stroke="#000000" points="563.2092,-280.5 563.2092,-299.5 680.2092,-299.5 680.2092,-280.5 563.2092,-280.5"/>
<text text-anchor="middle" x="621.7092" y="-287.5" font-family="Helvetica,sans-Serif" font-size="10.00" fill="#000000">cryptoConstants.hpp</text>
</a>
</g>
</g>
<!-- Node0&#45;&gt;Node15 -->
<g id="edge21" class="edge">
<title>Node0&#45;&gt;Node15</title>
<path fill="none" stroke="#191970" d="M389.5201,-342.3794C443.4922,-330.2038 519.363,-313.0882 569.496,-301.7787"/>
<polygon fill="#191970" stroke="#191970" points="570.4908,-305.1424 579.4754,-299.5275 568.9503,-298.3139 570.4908,-305.1424"/>
</g>
<!-- Node16 -->
<g id="node17" class="node">
<title>Node16</title>
<g id="a_node17"><a xlink:title=" ">
<polygon fill="#ffffff" stroke="#bfbfbf" points="698.2092,-280.5 698.2092,-299.5 753.2092,-299.5 753.2092,-280.5 698.2092,-280.5"/>
<text text-anchor="middle" x="725.7092" y="-287.5" font-family="Helvetica,sans-Serif" font-size="10.00" fill="#000000">fstream</text>
</a>
</g>
</g>
<!-- Node0&#45;&gt;Node16 -->
<g id="edge22" class="edge">
<title>Node0&#45;&gt;Node16</title>
<path fill="none" stroke="#191970" d="M389.4114,-349.2032C460.5526,-340.1128 578.3387,-323.5399 687.9773,-300.2051"/>
<polygon fill="#191970" stroke="#191970" points="688.8408,-303.5995 697.8805,-298.0739 687.368,-296.7562 688.8408,-303.5995"/>
</g>
<!-- Node2 -->
<g id="node3" class="node">
<title>Node2</title>
<g id="a_node3"><a xlink:href="cryptoException_8hpp.html" target="_top" xlink:title=" ">
<polygon fill="#ffffff" stroke="#000000" points="390.7092,-224.5 390.7092,-243.5 506.7092,-243.5 506.7092,-224.5 390.7092,-224.5"/>
<text text-anchor="middle" x="448.7092" y="-231.5" font-family="Helvetica,sans-Serif" font-size="10.00" fill="#000000">cryptoException.hpp</text>
</a>
</g>
</g>
<!-- Node1&#45;&gt;Node2 -->
<g id="edge2" class="edge">
<title>Node1&#45;&gt;Node2</title>
<path fill="none" stroke="#191970" d="M346.0255,-280.3733C365.9307,-271.3838 395.8527,-257.8706 418.2691,-247.7471"/>
<polygon fill="#191970" stroke="#191970" points="419.9978,-250.8068 427.671,-243.5011 417.1167,-244.4272 419.9978,-250.8068"/>
</g>
<!-- Node5 -->
<g id="node6" class="node">
<title>Node5</title>
<g id="a_node6"><a xlink:href="cryptoImplementation_8hpp.html" target="_top" xlink:title=" ">
<polygon fill="#ffffff" stroke="#000000" points="158.7092,-168.5 158.7092,-187.5 304.7092,-187.5 304.7092,-168.5 158.7092,-168.5"/>
<text text-anchor="middle" x="231.7092" y="-175.5" font-family="Helvetica,sans-Serif" font-size="10.00" fill="#000000">cryptoImplementation.hpp</text>
</a>
</g>
</g>
<!-- Node1&#45;&gt;Node5 -->
<g id="edge5" class="edge">
<title>Node1&#45;&gt;Node5</title>
<path fill="none" stroke="#191970" d="M324.0578,-280.0672C322.6959,-266.2243 318.5109,-240.9287 305.7092,-224 295.3055,-210.2424 279.489,-199.6145 265.1454,-192.0576"/>
<polygon fill="#191970" stroke="#191970" points="266.5189,-188.8322 256.004,-187.5331 263.4138,-195.1058 266.5189,-188.8322"/>
</g>
<!-- Node8 -->
<g id="node9" class="node">
<title>Node8</title>
<g id="a_node9"><a xlink:href="cryptoInstruction_8hpp.html" target="_top" xlink:title=" ">
<polygon fill="#ffffff" stroke="#000000" points="300.7092,-56.5 300.7092,-75.5 420.7092,-75.5 420.7092,-56.5 300.7092,-56.5"/>
<text text-anchor="middle" x="360.7092" y="-63.5" font-family="Helvetica,sans-Serif" font-size="10.00" fill="#000000">cryptoInstruction.hpp</text>
</a>
</g>
</g>
<!-- Node1&#45;&gt;Node8 -->
<g id="edge15" class="edge">
<title>Node1&#45;&gt;Node8</title>
<path fill="none" stroke="#191970" d="M326.256,-280.375C331.7142,-246.4133 350.1426,-131.7472 357.5689,-85.5392"/>
<polygon fill="#191970" stroke="#191970" points="361.0368,-86.0178 359.168,-75.5891 354.1255,-84.907 361.0368,-86.0178"/>
</g>
<!-- Node1&#45;&gt;Node13 -->
<g id="edge16" class="edge">
<title>Node1&#45;&gt;Node13</title>
<path fill="none" stroke="#191970" d="M290.6909,-282.0953C250.0752,-272.6577 181.7544,-256.7823 134.7877,-245.8689"/>
<polygon fill="#191970" stroke="#191970" points="135.3461,-242.4055 124.8134,-243.5512 133.7617,-249.2238 135.3461,-242.4055"/>
</g>
<!-- Node1&#45;&gt;Node14 -->
<g id="edge18" class="edge">
<title>Node1&#45;&gt;Node14</title>
<path fill="none" stroke="#191970" d="M308.5098,-280.2455C294.1074,-271.5731 272.8359,-258.7645 256.3292,-248.825"/>
<polygon fill="#191970" stroke="#191970" points="258.0952,-245.8028 247.7229,-243.6427 254.4842,-251.7996 258.0952,-245.8028"/>
</g>
<!-- Node3 -->
<g id="node4" class="node">
<title>Node3</title>
<g id="a_node4"><a xlink:title=" ">
<polygon fill="#ffffff" stroke="#bfbfbf" points="416.2092,-168.5 416.2092,-187.5 481.2092,-187.5 481.2092,-168.5 416.2092,-168.5"/>
<text text-anchor="middle" x="448.7092" y="-175.5" font-family="Helvetica,sans-Serif" font-size="10.00" fill="#000000">exception</text>
</a>
</g>
</g>
<!-- Node2&#45;&gt;Node3 -->
<g id="edge3" class="edge">
<title>Node2&#45;&gt;Node3</title>
<path fill="none" stroke="#191970" d="M448.7092,-224.2455C448.7092,-216.9382 448.7092,-206.6944 448.7092,-197.7046"/>
<polygon fill="#191970" stroke="#191970" points="452.2093,-197.6426 448.7092,-187.6427 445.2093,-197.6427 452.2093,-197.6426"/>
</g>
<!-- Node2&#45;&gt;Node4 -->
<g id="edge4" class="edge">
<title>Node2&#45;&gt;Node4</title>
<path fill="none" stroke="#191970" d="M462.4699,-224.2455C474.3644,-215.814 491.7742,-203.4729 505.6177,-193.6598"/>
<polygon fill="#191970" stroke="#191970" points="507.9719,-196.2811 514.1061,-187.6427 503.9238,-190.5704 507.9719,-196.2811"/>
</g>
<!-- Node5&#45;&gt;Node6 -->
<g id="edge6" class="edge">
<title>Node5&#45;&gt;Node6</title>
<path fill="none" stroke="#191970" d="M231.7092,-168.2455C231.7092,-160.9382 231.7092,-150.6944 231.7092,-141.7046"/>
<polygon fill="#191970" stroke="#191970" points="235.2093,-141.6426 231.7092,-131.6427 228.2093,-141.6427 235.2093,-141.6426"/>
</g>
<!-- Node7 -->
<g id="node8" class="node">
<title>Node7</title>
<g id="a_node8"><a xlink:title=" ">
<polygon fill="#ffffff" stroke="#bfbfbf" points="86.7092,-56.5 86.7092,-75.5 128.7092,-75.5 128.7092,-56.5 86.7092,-56.5"/>
<text text-anchor="middle" x="107.7092" y="-63.5" font-family="Helvetica,sans-Serif" font-size="10.00" fill="#000000">array</text>
</a>
</g>
</g>
<!-- Node6&#45;&gt;Node7 -->
<g id="edge7" class="edge">
<title>Node6&#45;&gt;Node7</title>
<path fill="none" stroke="#191970" d="M210.3928,-112.3733C190.4876,-103.3838 160.5656,-89.8706 138.1492,-79.7471"/>
<polygon fill="#191970" stroke="#191970" points="139.3016,-76.4272 128.7474,-75.5011 136.4205,-82.8068 139.3016,-76.4272"/>
</g>
<!-- Node6&#45;&gt;Node8 -->
<g id="edge8" class="edge">
<title>Node6&#45;&gt;Node8</title>
<path fill="none" stroke="#191970" d="M253.885,-112.3733C274.6858,-103.3435 306.0008,-89.7494 329.355,-79.6111"/>
<polygon fill="#191970" stroke="#191970" points="331.0434,-82.6938 338.8226,-75.5011 328.2559,-76.2727 331.0434,-82.6938"/>
</g>
<!-- Node9 -->
<g id="node10" class="node">
<title>Node9</title>
<g id="a_node10"><a xlink:title=" ">
<polygon fill="#ffffff" stroke="#bfbfbf" points="276.7092,-.5 276.7092,-19.5 326.7092,-19.5 326.7092,-.5 276.7092,-.5"/>
<text text-anchor="middle" x="301.7092" y="-7.5" font-family="Helvetica,sans-Serif" font-size="10.00" fill="#000000">cstdint</text>
</a>
</g>
</g>
<!-- Node6&#45;&gt;Node9 -->
<g id="edge12" class="edge">
<title>Node6&#45;&gt;Node9</title>
<path fill="none" stroke="#191970" d="M237.6773,-112.4509C249.3525,-93.7707 275.3818,-52.1238 290.4116,-28.0761"/>
<polygon fill="#191970" stroke="#191970" points="293.4241,-29.8599 295.7561,-19.5249 287.4881,-26.1499 293.4241,-29.8599"/>
</g>
<!-- Node11 -->
<g id="node12" class="node">
<title>Node11</title>
<g id="a_node12"><a xlink:title=" ">
<polygon fill="#ffffff" stroke="#bfbfbf" points="211.2092,-.5 211.2092,-19.5 258.2092,-19.5 258.2092,-.5 211.2092,-.5"/>
<text text-anchor="middle" x="234.7092" y="-7.5" font-family="Helvetica,sans-Serif" font-size="10.00" fill="#000000">vector</text>
</a>
</g>
</g>
<!-- Node6&#45;&gt;Node11 -->
<g id="edge14" class="edge">
<title>Node6&#45;&gt;Node11</title>
<path fill="none" stroke="#191970" d="M231.9649,-112.4509C232.4542,-94.184 233.5318,-53.9553 234.1815,-29.6976"/>
<polygon fill="#191970" stroke="#191970" points="237.6849,-29.6151 234.454,-19.5249 230.6874,-29.4276 237.6849,-29.6151"/>
</g>
<!-- Node12 -->
<g id="node13" class="node">
<title>Node12</title>
<g id="a_node13"><a xlink:title=" ">
<polygon fill="#ffffff" stroke="#bfbfbf" points="146.7092,-56.5 146.7092,-75.5 206.7092,-75.5 206.7092,-56.5 146.7092,-56.5"/>
<text text-anchor="middle" x="176.7092" y="-63.5" font-family="Helvetica,sans-Serif" font-size="10.00" fill="#000000">iostream</text>
</a>
</g>
</g>
<!-- Node6&#45;&gt;Node12 -->
<g id="edge13" class="edge">
<title>Node6&#45;&gt;Node12</title>
<path fill="none" stroke="#191970" d="M222.1289,-112.2455C214.1634,-104.1352 202.6451,-92.4075 193.2012,-82.7919"/>
<polygon fill="#191970" stroke="#191970" points="195.6838,-80.3247 186.1796,-75.6427 190.6897,-85.2297 195.6838,-80.3247"/>
</g>
<!-- Node8&#45;&gt;Node9 -->
<g id="edge9" class="edge">
<title>Node8&#45;&gt;Node9</title>
<path fill="none" stroke="#191970" d="M350.4321,-56.2455C341.8873,-48.1352 329.5314,-36.4075 319.4006,-26.7919"/>
<polygon fill="#191970" stroke="#191970" points="321.531,-23.9884 311.8684,-19.6427 316.712,-29.0655 321.531,-23.9884"/>
</g>
<!-- Node10 -->
<g id="node11" class="node">
<title>Node10</title>
<g id="a_node11"><a xlink:title=" ">
<polygon fill="#ffffff" stroke="#bfbfbf" points="345.2092,-.5 345.2092,-19.5 410.2092,-19.5 410.2092,-.5 345.2092,-.5"/>
<text text-anchor="middle" x="377.7092" y="-7.5" font-family="Helvetica,sans-Serif" font-size="10.00" fill="#000000">stdexcept</text>
</a>
</g>
</g>
<!-- Node8&#45;&gt;Node10 -->
<g id="edge10" class="edge">
<title>Node8&#45;&gt;Node10</title>
<path fill="none" stroke="#191970" d="M363.6703,-56.2455C365.913,-48.8579 369.0668,-38.4689 371.8172,-29.4087"/>
<polygon fill="#191970" stroke="#191970" points="375.2261,-30.2282 374.7819,-19.6427 368.5279,-28.1948 375.2261,-30.2282"/>
</g>
<!-- Node8&#45;&gt;Node11 -->
<g id="edge11" class="edge">
<title>Node8&#45;&gt;Node11</title>
<path fill="none" stroke="#191970" d="M339.049,-56.3733C318.732,-47.3435 288.1452,-33.7494 265.3342,-23.6111"/>
<polygon fill="#191970" stroke="#191970" points="266.6463,-20.3642 256.0867,-19.5011 263.8033,-26.7609 266.6463,-20.3642"/>
</g>
<!-- Node13&#45;&gt;Node5 -->
<g id="edge17" class="edge">
<title>Node13&#45;&gt;Node5</title>
<path fill="none" stroke="#191970" d="M109.1513,-224.3733C133.4418,-215.1822 170.23,-201.2624 197.1635,-191.0713"/>
<polygon fill="#191970" stroke="#191970" points="198.4848,-194.3136 206.599,-187.5011 196.0075,-187.7666 198.4848,-194.3136"/>
</g>
<!-- Node14&#45;&gt;Node5 -->
<g id="edge19" class="edge">
<title>Node14&#45;&gt;Node5</title>
<path fill="none" stroke="#191970" d="M231.7092,-224.2455C231.7092,-216.9382 231.7092,-206.6944 231.7092,-197.7046"/>
<polygon fill="#191970" stroke="#191970" points="235.2093,-197.6426 231.7092,-187.6427 228.2093,-197.6427 235.2093,-197.6426"/>
</g>
</g>
</svg>
