<?xml version="1.0" encoding="UTF-8" standalone="no"?>
<!DOCTYPE svg PUBLIC "-//W3C//DTD SVG 1.1//EN"
 "http://www.w3.org/Graphics/SVG/1.1/DTD/svg11.dtd">
<!-- Generated by graphviz version 2.40.1 (20161225.0304)
 -->
<!-- Title: /home/pieter/GitHub/EAGLE&#45;ZYBO&#45;Linux/src/crypto/include/cryptoInstruction.hpp Pages: 1 -->
<svg width="203pt" height="106pt"
 viewBox="0.00 0.00 203.00 106.00" xmlns="http://www.w3.org/2000/svg" xmlns:xlink="http://www.w3.org/1999/xlink">
<g id="graph0" class="graph" transform="scale(1 1) rotate(0) translate(4 102)">
<title>/home/pieter/GitHub/EAGLE&#45;ZYBO&#45;Linux/src/crypto/include/cryptoInstruction.hpp</title>
<polygon fill="#ffffff" stroke="transparent" points="-4,4 -4,-102 199,-102 199,4 -4,4"/>
<!-- Node0 -->
<g id="node1" class="node">
<title>Node0</title>
<g id="a_node1"><a xlink:title=" ">
<polygon fill="#bfbfbf" stroke="#000000" points="0,-56.5 0,-97.5 195,-97.5 195,-56.5 0,-56.5"/>
<text text-anchor="start" x="8" y="-85.5" font-family="Helvetica,sans-Serif" font-size="10.00" fill="#000000">/home/pieter/GitHub</text>
<text text-anchor="start" x="8" y="-74.5" font-family="Helvetica,sans-Serif" font-size="10.00" fill="#000000">/EAGLE&#45;ZYBO&#45;Linux/src</text>
<text text-anchor="middle" x="97.5" y="-63.5" font-family="Helvetica,sans-Serif" font-size="10.00" fill="#000000">/crypto/include/cryptoInstruction.hpp</text>
</a>
</g>
</g>
<!-- Node1 -->
<g id="node2" class="node">
<title>Node1</title>
<g id="a_node2"><a xlink:title=" ">
<polygon fill="#ffffff" stroke="#bfbfbf" points="39.5,-.5 39.5,-19.5 89.5,-19.5 89.5,-.5 39.5,-.5"/>
<text text-anchor="middle" x="64.5" y="-7.5" font-family="Helvetica,sans-Serif" font-size="10.00" fill="#000000">cstdint</text>
</a>
</g>
</g>
<!-- Node0&#45;&gt;Node1 -->
<g id="edge1" class="edge">
<title>Node0&#45;&gt;Node1</title>
<path fill="none" stroke="#191970" d="M87.2395,-56.168C82.9422,-47.4433 77.9827,-37.374 73.7942,-28.87"/>
<polygon fill="#191970" stroke="#191970" points="76.8756,-27.2049 69.3172,-19.7805 70.596,-30.2979 76.8756,-27.2049"/>
</g>
<!-- Node2 -->
<g id="node3" class="node">
<title>Node2</title>
<g id="a_node3"><a xlink:title=" ">
<polygon fill="#ffffff" stroke="#bfbfbf" points="108,-.5 108,-19.5 155,-19.5 155,-.5 108,-.5"/>
<text text-anchor="middle" x="131.5" y="-7.5" font-family="Helvetica,sans-Serif" font-size="10.00" fill="#000000">vector</text>
</a>
</g>
</g>
<!-- Node0&#45;&gt;Node2 -->
<g id="edge2" class="edge">
<title>Node0&#45;&gt;Node2</title>
<path fill="none" stroke="#191970" d="M108.0714,-56.168C112.4989,-47.4433 117.6087,-37.374 121.9242,-28.87"/>
<polygon fill="#191970" stroke="#191970" points="125.1326,-30.2818 126.5368,-19.7805 118.8903,-27.1141 125.1326,-30.2818"/>
</g>
</g>
</svg>
