<?xml version="1.0" encoding="UTF-8" standalone="no"?>
<!DOCTYPE svg PUBLIC "-//W3C//DTD SVG 1.1//EN"
 "http://www.w3.org/Graphics/SVG/1.1/DTD/svg11.dtd">
<!-- Generated by graphviz version 2.40.1 (20161225.0304)
 -->
<!-- Title: /home/pieter/GitHub/EAGLE&#45;ZYBO&#45;Linux/src/crypto/src/cryptoPoller.cpp Pages: 1 -->
<svg width="374pt" height="218pt"
 viewBox="0.00 0.00 374.00 218.00" xmlns="http://www.w3.org/2000/svg" xmlns:xlink="http://www.w3.org/1999/xlink">
<g id="graph0" class="graph" transform="scale(1 1) rotate(0) translate(4 214)">
<title>/home/pieter/GitHub/EAGLE&#45;ZYBO&#45;Linux/src/crypto/src/cryptoPoller.cpp</title>
<polygon fill="#ffffff" stroke="transparent" points="-4,4 -4,-214 370,-214 370,4 -4,4"/>
<!-- Node0 -->
<g id="node1" class="node">
<title>Node0</title>
<g id="a_node1"><a xlink:title=" ">
<polygon fill="#bfbfbf" stroke="#000000" points="138.5,-168.5 138.5,-209.5 287.5,-209.5 287.5,-168.5 138.5,-168.5"/>
<text text-anchor="start" x="146.5" y="-197.5" font-family="Helvetica,sans-Serif" font-size="10.00" fill="#000000">/home/pieter/GitHub</text>
<text text-anchor="start" x="146.5" y="-186.5" font-family="Helvetica,sans-Serif" font-size="10.00" fill="#000000">/EAGLE&#45;ZYBO&#45;Linux/src</text>
<text text-anchor="middle" x="213" y="-175.5" font-family="Helvetica,sans-Serif" font-size="10.00" fill="#000000">/crypto/src/cryptoPoller.cpp</text>
</a>
</g>
</g>
<!-- Node1 -->
<g id="node2" class="node">
<title>Node1</title>
<g id="a_node2"><a xlink:href="PerfTimer_8hpp.html" target="_top" xlink:title=" ">
<polygon fill="#ffffff" stroke="#000000" points="35.5,-112.5 35.5,-131.5 120.5,-131.5 120.5,-112.5 35.5,-112.5"/>
<text text-anchor="middle" x="78" y="-119.5" font-family="Helvetica,sans-Serif" font-size="10.00" fill="#000000">PerfTimer.hpp</text>
</a>
</g>
</g>
<!-- Node0&#45;&gt;Node1 -->
<g id="edge1" class="edge">
<title>Node0&#45;&gt;Node1</title>
<path fill="none" stroke="#191970" d="M171.394,-168.3511C150.3183,-157.8913 125.2729,-145.4614 106.4261,-136.1077"/>
<polygon fill="#191970" stroke="#191970" points="107.9669,-132.9651 97.4534,-131.6546 104.8549,-139.2354 107.9669,-132.9651"/>
</g>
<!-- Node3 -->
<g id="node4" class="node">
<title>Node3</title>
<g id="a_node4"><a xlink:href="cryptoPoller_8hpp.html" target="_top" xlink:title=" ">
<polygon fill="#ffffff" stroke="#000000" points="165.5,-112.5 165.5,-131.5 260.5,-131.5 260.5,-112.5 165.5,-112.5"/>
<text text-anchor="middle" x="213" y="-119.5" font-family="Helvetica,sans-Serif" font-size="10.00" fill="#000000">cryptoPoller.hpp</text>
</a>
</g>
</g>
<!-- Node0&#45;&gt;Node3 -->
<g id="edge3" class="edge">
<title>Node0&#45;&gt;Node3</title>
<path fill="none" stroke="#191970" d="M213,-168.168C213,-159.8226 213,-150.2471 213,-141.9879"/>
<polygon fill="#191970" stroke="#191970" points="216.5001,-141.7804 213,-131.7805 209.5001,-141.7805 216.5001,-141.7804"/>
</g>
<!-- Node8 -->
<g id="node9" class="node">
<title>Node8</title>
<g id="a_node9"><a xlink:title=" ">
<polygon fill="#ffffff" stroke="#bfbfbf" points="278.5,-112.5 278.5,-131.5 343.5,-131.5 343.5,-112.5 278.5,-112.5"/>
<text text-anchor="middle" x="311" y="-119.5" font-family="Helvetica,sans-Serif" font-size="10.00" fill="#000000">wrapper.h</text>
</a>
</g>
</g>
<!-- Node0&#45;&gt;Node8 -->
<g id="edge8" class="edge">
<title>Node0&#45;&gt;Node8</title>
<path fill="none" stroke="#191970" d="M243.2029,-168.3511C257.7338,-158.4167 274.8642,-146.7051 288.2701,-137.5398"/>
<polygon fill="#191970" stroke="#191970" points="290.5985,-140.1878 296.8783,-131.6546 286.6478,-134.4092 290.5985,-140.1878"/>
</g>
<!-- Node2 -->
<g id="node3" class="node">
<title>Node2</title>
<g id="a_node3"><a xlink:title=" ">
<polygon fill="#ffffff" stroke="#bfbfbf" points="0,-56.5 0,-75.5 50,-75.5 50,-56.5 0,-56.5"/>
<text text-anchor="middle" x="25" y="-63.5" font-family="Helvetica,sans-Serif" font-size="10.00" fill="#000000">chrono</text>
</a>
</g>
</g>
<!-- Node1&#45;&gt;Node2 -->
<g id="edge2" class="edge">
<title>Node1&#45;&gt;Node2</title>
<path fill="none" stroke="#191970" d="M68.7681,-112.2455C61.1683,-104.2155 50.2123,-92.6394 41.1632,-83.0781"/>
<polygon fill="#191970" stroke="#191970" points="43.542,-80.4998 34.1261,-75.6427 38.4579,-85.3115 43.542,-80.4998"/>
</g>
<!-- Node4 -->
<g id="node5" class="node">
<title>Node4</title>
<g id="a_node5"><a xlink:title=" ">
<polygon fill="#ffffff" stroke="#bfbfbf" points="68.5,-56.5 68.5,-75.5 163.5,-75.5 163.5,-56.5 68.5,-56.5"/>
<text text-anchor="middle" x="116" y="-63.5" font-family="Helvetica,sans-Serif" font-size="10.00" fill="#000000">SharedMem.hpp</text>
</a>
</g>
</g>
<!-- Node3&#45;&gt;Node4 -->
<g id="edge4" class="edge">
<title>Node3&#45;&gt;Node4</title>
<path fill="none" stroke="#191970" d="M196.1039,-112.2455C181.082,-103.5731 158.8957,-90.7645 141.679,-80.825"/>
<polygon fill="#191970" stroke="#191970" points="143.1128,-77.6114 132.7025,-75.6427 139.6129,-83.6737 143.1128,-77.6114"/>
</g>
<!-- Node5 -->
<g id="node6" class="node">
<title>Node5</title>
<g id="a_node6"><a xlink:href="cryptoException_8hpp.html" target="_top" xlink:title=" ">
<polygon fill="#ffffff" stroke="#000000" points="182,-56.5 182,-75.5 298,-75.5 298,-56.5 182,-56.5"/>
<text text-anchor="middle" x="240" y="-63.5" font-family="Helvetica,sans-Serif" font-size="10.00" fill="#000000">cryptoException.hpp</text>
</a>
</g>
</g>
<!-- Node3&#45;&gt;Node5 -->
<g id="edge5" class="edge">
<title>Node3&#45;&gt;Node5</title>
<path fill="none" stroke="#191970" d="M217.703,-112.2455C221.3424,-104.6973 226.4924,-94.0158 230.9262,-84.8197"/>
<polygon fill="#191970" stroke="#191970" points="234.1605,-86.1704 235.3509,-75.6427 227.8551,-83.1303 234.1605,-86.1704"/>
</g>
<!-- Node7 -->
<g id="node8" class="node">
<title>Node7</title>
<g id="a_node8"><a xlink:title=" ">
<polygon fill="#ffffff" stroke="#bfbfbf" points="316,-56.5 316,-75.5 366,-75.5 366,-56.5 316,-56.5"/>
<text text-anchor="middle" x="341" y="-63.5" font-family="Helvetica,sans-Serif" font-size="10.00" fill="#000000">cstdint</text>
</a>
</g>
</g>
<!-- Node3&#45;&gt;Node7 -->
<g id="edge7" class="edge">
<title>Node3&#45;&gt;Node7</title>
<path fill="none" stroke="#191970" d="M235.004,-112.3733C255.6435,-103.3435 286.7158,-89.7494 309.8889,-79.6111"/>
<polygon fill="#191970" stroke="#191970" points="311.5245,-82.7159 319.2831,-75.5011 308.7187,-76.3028 311.5245,-82.7159"/>
</g>
<!-- Node6 -->
<g id="node7" class="node">
<title>Node6</title>
<g id="a_node7"><a xlink:title=" ">
<polygon fill="#ffffff" stroke="#bfbfbf" points="207.5,-.5 207.5,-19.5 272.5,-19.5 272.5,-.5 207.5,-.5"/>
<text text-anchor="middle" x="240" y="-7.5" font-family="Helvetica,sans-Serif" font-size="10.00" fill="#000000">exception</text>
</a>
</g>
</g>
<!-- Node5&#45;&gt;Node6 -->
<g id="edge6" class="edge">
<title>Node5&#45;&gt;Node6</title>
<path fill="none" stroke="#191970" d="M240,-56.2455C240,-48.9382 240,-38.6944 240,-29.7046"/>
<polygon fill="#191970" stroke="#191970" points="243.5001,-29.6426 240,-19.6427 236.5001,-29.6427 243.5001,-29.6426"/>
</g>
</g>
</svg>
