<?xml version="1.0" encoding="UTF-8" standalone="no"?>
<!DOCTYPE svg PUBLIC "-//W3C//DTD SVG 1.1//EN"
 "http://www.w3.org/Graphics/SVG/1.1/DTD/svg11.dtd">
<!-- Generated by graphviz version 2.40.1 (20161225.0304)
 -->
<!-- Title: /home/pieter/GitHub/EAGLE&#45;ZYBO&#45;Linux/src/crypto/src/cryptoPoller.hpp Pages: 1 -->
<svg width="538pt" height="206pt"
 viewBox="0.00 0.00 538.00 206.00" xmlns="http://www.w3.org/2000/svg" xmlns:xlink="http://www.w3.org/1999/xlink">
<g id="graph0" class="graph" transform="scale(1 1) rotate(0) translate(4 202)">
<title>/home/pieter/GitHub/EAGLE&#45;ZYBO&#45;Linux/src/crypto/src/cryptoPoller.hpp</title>
<polygon fill="#ffffff" stroke="transparent" points="-4,4 -4,-202 534,-202 534,4 -4,4"/>
<!-- Node18 -->
<g id="node1" class="node">
<title>Node18</title>
<g id="a_node1"><a xlink:title=" ">
<polygon fill="#bfbfbf" stroke="#000000" points="157,-156.5 157,-197.5 306,-197.5 306,-156.5 157,-156.5"/>
<text text-anchor="start" x="165" y="-185.5" font-family="Helvetica,sans-Serif" font-size="10.00" fill="#000000">/home/pieter/GitHub</text>
<text text-anchor="start" x="165" y="-174.5" font-family="Helvetica,sans-Serif" font-size="10.00" fill="#000000">/EAGLE&#45;ZYBO&#45;Linux/src</text>
<text text-anchor="middle" x="231.5" y="-163.5" font-family="Helvetica,sans-Serif" font-size="10.00" fill="#000000">/crypto/src/cryptoPoller.hpp</text>
</a>
</g>
</g>
<!-- Node19 -->
<g id="node2" class="node">
<title>Node19</title>
<g id="a_node2"><a xlink:href="cryptoPoller_8cpp.html" target="_top" xlink:title=" ">
<polygon fill="#ffffff" stroke="#000000" points="0,-78.5 0,-119.5 149,-119.5 149,-78.5 0,-78.5"/>
<text text-anchor="start" x="8" y="-107.5" font-family="Helvetica,sans-Serif" font-size="10.00" fill="#000000">/home/pieter/GitHub</text>
<text text-anchor="start" x="8" y="-96.5" font-family="Helvetica,sans-Serif" font-size="10.00" fill="#000000">/EAGLE&#45;ZYBO&#45;Linux/src</text>
<text text-anchor="middle" x="74.5" y="-85.5" font-family="Helvetica,sans-Serif" font-size="10.00" fill="#000000">/crypto/src/cryptoPoller.cpp</text>
</a>
</g>
</g>
<!-- Node18&#45;&gt;Node19 -->
<g id="edge1" class="edge">
<title>Node18&#45;&gt;Node19</title>
<path fill="none" stroke="#191970" d="M180.7399,-151.7816C159.7415,-141.3493 135.7042,-129.4072 115.8108,-119.5239"/>
<polygon fill="#191970" stroke="#191970" points="179.3261,-154.9873 189.8391,-156.3022 182.4407,-148.7184 179.3261,-154.9873"/>
</g>
<!-- Node20 -->
<g id="node3" class="node">
<title>Node20</title>
<g id="a_node3"><a xlink:href="keccak_8cpp.html" target="_top" xlink:title=" ">
<polygon fill="#ffffff" stroke="#000000" points="167,-78.5 167,-119.5 296,-119.5 296,-78.5 167,-78.5"/>
<text text-anchor="start" x="175" y="-107.5" font-family="Helvetica,sans-Serif" font-size="10.00" fill="#000000">/home/pieter/GitHub</text>
<text text-anchor="start" x="175" y="-96.5" font-family="Helvetica,sans-Serif" font-size="10.00" fill="#000000">/EAGLE&#45;ZYBO&#45;Linux/src</text>
<text text-anchor="middle" x="231.5" y="-85.5" font-family="Helvetica,sans-Serif" font-size="10.00" fill="#000000">/crypto/src/keccak.cpp</text>
</a>
</g>
</g>
<!-- Node18&#45;&gt;Node20 -->
<g id="edge2" class="edge">
<title>Node18&#45;&gt;Node20</title>
<path fill="none" stroke="#191970" d="M231.5,-146.0789C231.5,-137.2178 231.5,-127.7747 231.5,-119.6898"/>
<polygon fill="#191970" stroke="#191970" points="228.0001,-146.0974 231.5,-156.0974 235.0001,-146.0975 228.0001,-146.0974"/>
</g>
<!-- Node21 -->
<g id="node4" class="node">
<title>Node21</title>
<g id="a_node4"><a xlink:href="ketje_8hpp.html" target="_top" xlink:title=" ">
<polygon fill="#ffffff" stroke="#000000" points="314,-78.5 314,-119.5 443,-119.5 443,-78.5 314,-78.5"/>
<text text-anchor="start" x="322" y="-107.5" font-family="Helvetica,sans-Serif" font-size="10.00" fill="#000000">/home/pieter/GitHub</text>
<text text-anchor="start" x="322" y="-96.5" font-family="Helvetica,sans-Serif" font-size="10.00" fill="#000000">/EAGLE&#45;ZYBO&#45;Linux/src</text>
<text text-anchor="middle" x="378.5" y="-85.5" font-family="Helvetica,sans-Serif" font-size="10.00" fill="#000000">/crypto/src/ketje.hpp</text>
</a>
</g>
</g>
<!-- Node18&#45;&gt;Node21 -->
<g id="edge3" class="edge">
<title>Node18&#45;&gt;Node21</title>
<path fill="none" stroke="#191970" d="M279.5567,-151.5005C299.0913,-141.1352 321.3612,-129.3185 339.8204,-119.5239"/>
<polygon fill="#191970" stroke="#191970" points="277.7003,-148.5233 270.5074,-156.3022 280.9814,-154.7067 277.7003,-148.5233"/>
</g>
<!-- Node22 -->
<g id="node5" class="node">
<title>Node22</title>
<g id="a_node5"><a xlink:href="hwImplementation_8cpp.html" target="_top" xlink:title=" ">
<polygon fill="#ffffff" stroke="#000000" points="200,-.5 200,-41.5 383,-41.5 383,-.5 200,-.5"/>
<text text-anchor="start" x="208" y="-29.5" font-family="Helvetica,sans-Serif" font-size="10.00" fill="#000000">/home/pieter/GitHub</text>
<text text-anchor="start" x="208" y="-18.5" font-family="Helvetica,sans-Serif" font-size="10.00" fill="#000000">/EAGLE&#45;ZYBO&#45;Linux/src</text>
<text text-anchor="middle" x="291.5" y="-7.5" font-family="Helvetica,sans-Serif" font-size="10.00" fill="#000000">/crypto/src/hwImplementation.cpp</text>
</a>
</g>
</g>
<!-- Node21&#45;&gt;Node22 -->
<g id="edge4" class="edge">
<title>Node21&#45;&gt;Node22</title>
<path fill="none" stroke="#191970" d="M347.5247,-71.229C336.6678,-61.4953 324.6731,-50.7414 314.5771,-41.6898"/>
<polygon fill="#191970" stroke="#191970" points="345.4035,-74.028 355.1856,-78.0974 350.0763,-68.8159 345.4035,-74.028"/>
</g>
<!-- Node23 -->
<g id="node6" class="node">
<title>Node23</title>
<g id="a_node6"><a xlink:href="ketje_8cpp.html" target="_top" xlink:title=" ">
<polygon fill="#ffffff" stroke="#000000" points="401,-.5 401,-41.5 530,-41.5 530,-.5 401,-.5"/>
<text text-anchor="start" x="409" y="-29.5" font-family="Helvetica,sans-Serif" font-size="10.00" fill="#000000">/home/pieter/GitHub</text>
<text text-anchor="start" x="409" y="-18.5" font-family="Helvetica,sans-Serif" font-size="10.00" fill="#000000">/EAGLE&#45;ZYBO&#45;Linux/src</text>
<text text-anchor="middle" x="465.5" y="-7.5" font-family="Helvetica,sans-Serif" font-size="10.00" fill="#000000">/crypto/src/ketje.cpp</text>
</a>
</g>
</g>
<!-- Node21&#45;&gt;Node23 -->
<g id="edge5" class="edge">
<title>Node21&#45;&gt;Node23</title>
<path fill="none" stroke="#191970" d="M409.4753,-71.229C420.3322,-61.4953 432.3269,-50.7414 442.4229,-41.6898"/>
<polygon fill="#191970" stroke="#191970" points="406.9237,-68.8159 401.8144,-78.0974 411.5965,-74.028 406.9237,-68.8159"/>
</g>
</g>
</svg>
