<?xml version="1.0" encoding="UTF-8" standalone="no"?>
<!DOCTYPE svg PUBLIC "-//W3C//DTD SVG 1.1//EN"
 "http://www.w3.org/Graphics/SVG/1.1/DTD/svg11.dtd">
<!-- Generated by graphviz version 2.40.1 (20161225.0304)
 -->
<!-- Title: /home/pieter/GitHub/EAGLE&#45;ZYBO&#45;Linux/src/crypto/src/cryptoPoller.hpp Pages: 1 -->
<svg width="1111pt" height="162pt"
 viewBox="0.00 0.00 1111.00 162.00" xmlns="http://www.w3.org/2000/svg" xmlns:xlink="http://www.w3.org/1999/xlink">
<g id="graph0" class="graph" transform="scale(1 1) rotate(0) translate(4 158)">
<title>/home/pieter/GitHub/EAGLE&#45;ZYBO&#45;Linux/src/crypto/src/cryptoPoller.hpp</title>
<polygon fill="#ffffff" stroke="transparent" points="-4,4 -4,-158 1107,-158 1107,4 -4,4"/>
<!-- Node0 -->
<g id="node1" class="node">
<title>Node0</title>
<g id="a_node1"><a xlink:title=" ">
<polygon fill="#bfbfbf" stroke="#000000" points="902.5,-112.5 902.5,-153.5 1051.5,-153.5 1051.5,-112.5 902.5,-112.5"/>
<text text-anchor="start" x="910.5" y="-141.5" font-family="Helvetica,sans-Serif" font-size="10.00" fill="#000000">/home/pieter/GitHub</text>
<text text-anchor="start" x="910.5" y="-130.5" font-family="Helvetica,sans-Serif" font-size="10.00" fill="#000000">/EAGLE&#45;ZYBO&#45;Linux/src</text>
<text text-anchor="middle" x="977" y="-119.5" font-family="Helvetica,sans-Serif" font-size="10.00" fill="#000000">/crypto/src/cryptoPoller.hpp</text>
</a>
</g>
</g>
<!-- Node1 -->
<g id="node2" class="node">
<title>Node1</title>
<g id="a_node2"><a xlink:href="SharedMem_8hpp.html" target="_top" xlink:title=" ">
<polygon fill="#ffffff" stroke="#000000" points="440.5,-56.5 440.5,-75.5 535.5,-75.5 535.5,-56.5 440.5,-56.5"/>
<text text-anchor="middle" x="488" y="-63.5" font-family="Helvetica,sans-Serif" font-size="10.00" fill="#000000">SharedMem.hpp</text>
</a>
</g>
</g>
<!-- Node0&#45;&gt;Node1 -->
<g id="edge1" class="edge">
<title>Node0&#45;&gt;Node1</title>
<path fill="none" stroke="#191970" d="M902.4655,-122.7877C804.4796,-109.3622 634.411,-86.0604 545.6582,-73.9"/>
<polygon fill="#191970" stroke="#191970" points="545.8905,-70.3992 535.5079,-72.5093 544.9402,-77.3344 545.8905,-70.3992"/>
</g>
<!-- Node14 -->
<g id="node15" class="node">
<title>Node14</title>
<g id="a_node15"><a xlink:href="cryptoException_8hpp.html" target="_top" xlink:title=" ">
<polygon fill="#ffffff" stroke="#000000" points="919,-56.5 919,-75.5 1035,-75.5 1035,-56.5 919,-56.5"/>
<text text-anchor="middle" x="977" y="-63.5" font-family="Helvetica,sans-Serif" font-size="10.00" fill="#000000">cryptoException.hpp</text>
</a>
</g>
</g>
<!-- Node0&#45;&gt;Node14 -->
<g id="edge14" class="edge">
<title>Node0&#45;&gt;Node14</title>
<path fill="none" stroke="#191970" d="M977,-112.168C977,-103.8226 977,-94.2471 977,-85.9879"/>
<polygon fill="#191970" stroke="#191970" points="980.5001,-85.7804 977,-75.7805 973.5001,-85.7805 980.5001,-85.7804"/>
</g>
<!-- Node17 -->
<g id="node18" class="node">
<title>Node17</title>
<g id="a_node18"><a xlink:title=" ">
<polygon fill="#ffffff" stroke="#bfbfbf" points="1053,-56.5 1053,-75.5 1103,-75.5 1103,-56.5 1053,-56.5"/>
<text text-anchor="middle" x="1078" y="-63.5" font-family="Helvetica,sans-Serif" font-size="10.00" fill="#000000">cstdint</text>
</a>
</g>
</g>
<!-- Node0&#45;&gt;Node17 -->
<g id="edge17" class="edge">
<title>Node0&#45;&gt;Node17</title>
<path fill="none" stroke="#191970" d="M1008.1275,-112.3511C1023.2472,-102.3212 1041.0978,-90.4797 1054.9717,-81.2762"/>
<polygon fill="#191970" stroke="#191970" points="1057.0476,-84.0992 1063.446,-75.6546 1053.178,-78.266 1057.0476,-84.0992"/>
</g>
<!-- Node2 -->
<g id="node3" class="node">
<title>Node2</title>
<g id="a_node3"><a xlink:href="ANSIColors_8hpp.html" target="_top" xlink:title=" ">
<polygon fill="#ffffff" stroke="#000000" points="0,-.5 0,-19.5 92,-19.5 92,-.5 0,-.5"/>
<text text-anchor="middle" x="46" y="-7.5" font-family="Helvetica,sans-Serif" font-size="10.00" fill="#000000">ANSIColors.hpp</text>
</a>
</g>
</g>
<!-- Node1&#45;&gt;Node2 -->
<g id="edge2" class="edge">
<title>Node1&#45;&gt;Node2</title>
<path fill="none" stroke="#191970" d="M440.2106,-61.276C368.8628,-54.0131 230.0544,-39.0738 102.152,-20.1002"/>
<polygon fill="#191970" stroke="#191970" points="102.5868,-16.6264 92.1792,-18.6091 101.5517,-23.5494 102.5868,-16.6264"/>
</g>
<!-- Node3 -->
<g id="node4" class="node">
<title>Node3</title>
<g id="a_node4"><a xlink:title=" ">
<polygon fill="#ffffff" stroke="#bfbfbf" points="110,-.5 110,-19.5 166,-19.5 166,-.5 110,-.5"/>
<text text-anchor="middle" x="138" y="-7.5" font-family="Helvetica,sans-Serif" font-size="10.00" fill="#000000">iomanip</text>
</a>
</g>
</g>
<!-- Node1&#45;&gt;Node3 -->
<g id="edge3" class="edge">
<title>Node1&#45;&gt;Node3</title>
<path fill="none" stroke="#191970" d="M440.2337,-60.7584C380.5705,-53.8184 275.2307,-40.2745 176.0816,-20.0338"/>
<polygon fill="#191970" stroke="#191970" points="176.7009,-16.5879 166.1992,-17.9895 175.2828,-23.4427 176.7009,-16.5879"/>
</g>
<!-- Node4 -->
<g id="node5" class="node">
<title>Node4</title>
<g id="a_node5"><a xlink:title=" ">
<polygon fill="#ffffff" stroke="#bfbfbf" points="184,-.5 184,-19.5 244,-19.5 244,-.5 184,-.5"/>
<text text-anchor="middle" x="214" y="-7.5" font-family="Helvetica,sans-Serif" font-size="10.00" fill="#000000">iostream</text>
</a>
</g>
</g>
<!-- Node1&#45;&gt;Node4 -->
<g id="edge4" class="edge">
<title>Node1&#45;&gt;Node4</title>
<path fill="none" stroke="#191970" d="M440.1216,-57.4649C394.6527,-49.1716 324.1628,-35.8301 254.0762,-20.1523"/>
<polygon fill="#191970" stroke="#191970" points="254.7169,-16.7089 244.192,-17.9248 253.1779,-23.5377 254.7169,-16.7089"/>
</g>
<!-- Node5 -->
<g id="node6" class="node">
<title>Node5</title>
<g id="a_node6"><a xlink:title=" ">
<polygon fill="#ffffff" stroke="#bfbfbf" points="262,-.5 262,-19.5 314,-19.5 314,-.5 262,-.5"/>
<text text-anchor="middle" x="288" y="-7.5" font-family="Helvetica,sans-Serif" font-size="10.00" fill="#000000">cassert</text>
</a>
</g>
</g>
<!-- Node1&#45;&gt;Node5 -->
<g id="edge5" class="edge">
<title>Node1&#45;&gt;Node5</title>
<path fill="none" stroke="#191970" d="M453.5356,-56.461C422.1644,-47.7628 374.313,-34.457 324.1019,-20.3001"/>
<polygon fill="#191970" stroke="#191970" points="324.9428,-16.9008 314.3681,-17.5533 323.0417,-23.6377 324.9428,-16.9008"/>
</g>
<!-- Node6 -->
<g id="node7" class="node">
<title>Node6</title>
<g id="a_node7"><a xlink:title=" ">
<polygon fill="#ffffff" stroke="#bfbfbf" points="332.5,-.5 332.5,-19.5 379.5,-19.5 379.5,-.5 332.5,-.5"/>
<text text-anchor="middle" x="356" y="-7.5" font-family="Helvetica,sans-Serif" font-size="10.00" fill="#000000">cerrno</text>
</a>
</g>
</g>
<!-- Node1&#45;&gt;Node6 -->
<g id="edge6" class="edge">
<title>Node1&#45;&gt;Node6</title>
<path fill="none" stroke="#191970" d="M465.3084,-56.3733C443.9289,-47.3032 411.6943,-33.6279 387.7638,-23.4755"/>
<polygon fill="#191970" stroke="#191970" points="388.9683,-20.1846 378.3955,-19.5011 386.2344,-26.6287 388.9683,-20.1846"/>
</g>
<!-- Node7 -->
<g id="node8" class="node">
<title>Node7</title>
<g id="a_node8"><a xlink:title=" ">
<polygon fill="#ffffff" stroke="#bfbfbf" points="397.5,-.5 397.5,-19.5 444.5,-19.5 444.5,-.5 397.5,-.5"/>
<text text-anchor="middle" x="421" y="-7.5" font-family="Helvetica,sans-Serif" font-size="10.00" fill="#000000">fcntl.h</text>
</a>
</g>
</g>
<!-- Node1&#45;&gt;Node7 -->
<g id="edge7" class="edge">
<title>Node1&#45;&gt;Node7</title>
<path fill="none" stroke="#191970" d="M476.3295,-56.2455C466.4339,-47.9746 452.0373,-35.9416 440.4099,-26.2232"/>
<polygon fill="#191970" stroke="#191970" points="442.4542,-23.3703 432.5368,-19.6427 437.965,-28.7413 442.4542,-23.3703"/>
</g>
<!-- Node8 -->
<g id="node9" class="node">
<title>Node8</title>
<g id="a_node9"><a xlink:title=" ">
<polygon fill="#ffffff" stroke="#bfbfbf" points="463,-.5 463,-19.5 513,-19.5 513,-.5 463,-.5"/>
<text text-anchor="middle" x="488" y="-7.5" font-family="Helvetica,sans-Serif" font-size="10.00" fill="#000000">stdio.h</text>
</a>
</g>
</g>
<!-- Node1&#45;&gt;Node8 -->
<g id="edge8" class="edge">
<title>Node1&#45;&gt;Node8</title>
<path fill="none" stroke="#191970" d="M488,-56.2455C488,-48.9382 488,-38.6944 488,-29.7046"/>
<polygon fill="#191970" stroke="#191970" points="491.5001,-29.6426 488,-19.6427 484.5001,-29.6427 491.5001,-29.6426"/>
</g>
<!-- Node9 -->
<g id="node10" class="node">
<title>Node9</title>
<g id="a_node10"><a xlink:title=" ">
<polygon fill="#ffffff" stroke="#bfbfbf" points="531.5,-.5 531.5,-19.5 584.5,-19.5 584.5,-.5 531.5,-.5"/>
<text text-anchor="middle" x="558" y="-7.5" font-family="Helvetica,sans-Serif" font-size="10.00" fill="#000000">stdlib.h</text>
</a>
</g>
</g>
<!-- Node1&#45;&gt;Node9 -->
<g id="edge9" class="edge">
<title>Node1&#45;&gt;Node9</title>
<path fill="none" stroke="#191970" d="M500.1931,-56.2455C510.6321,-47.8943 525.8655,-35.7076 538.074,-25.9408"/>
<polygon fill="#191970" stroke="#191970" points="540.3244,-28.6227 545.9467,-19.6427 535.9515,-23.1566 540.3244,-28.6227"/>
</g>
<!-- Node10 -->
<g id="node11" class="node">
<title>Node10</title>
<g id="a_node11"><a xlink:title=" ">
<polygon fill="#ffffff" stroke="#bfbfbf" points="602.5,-.5 602.5,-19.5 679.5,-19.5 679.5,-.5 602.5,-.5"/>
<text text-anchor="middle" x="641" y="-7.5" font-family="Helvetica,sans-Serif" font-size="10.00" fill="#000000">sys/mman.h</text>
</a>
</g>
</g>
<!-- Node1&#45;&gt;Node10 -->
<g id="edge10" class="edge">
<title>Node1&#45;&gt;Node10</title>
<path fill="none" stroke="#191970" d="M514.3016,-56.3733C539.4128,-47.1822 577.4438,-33.2624 605.2872,-23.0713"/>
<polygon fill="#191970" stroke="#191970" points="606.8538,-26.2251 615.0416,-19.5011 604.4478,-19.6516 606.8538,-26.2251"/>
</g>
<!-- Node11 -->
<g id="node12" class="node">
<title>Node11</title>
<g id="a_node12"><a xlink:title=" ">
<polygon fill="#ffffff" stroke="#bfbfbf" points="698,-.5 698,-19.5 762,-19.5 762,-.5 698,-.5"/>
<text text-anchor="middle" x="730" y="-7.5" font-family="Helvetica,sans-Serif" font-size="10.00" fill="#000000">sys/stat.h</text>
</a>
</g>
</g>
<!-- Node1&#45;&gt;Node11 -->
<g id="edge11" class="edge">
<title>Node1&#45;&gt;Node11</title>
<path fill="none" stroke="#191970" d="M529.7748,-56.4899C570.251,-47.2523 633.3612,-32.7879 688,-20 688.1004,-19.9765 688.2008,-19.953 688.3015,-19.9294"/>
<polygon fill="#191970" stroke="#191970" points="688.9706,-23.3677 697.9024,-17.6691 687.3664,-16.554 688.9706,-23.3677"/>
</g>
<!-- Node12 -->
<g id="node13" class="node">
<title>Node12</title>
<g id="a_node13"><a xlink:title=" ">
<polygon fill="#ffffff" stroke="#bfbfbf" points="780,-.5 780,-19.5 852,-19.5 852,-.5 780,-.5"/>
<text text-anchor="middle" x="816" y="-7.5" font-family="Helvetica,sans-Serif" font-size="10.00" fill="#000000">sys/types.h</text>
</a>
</g>
</g>
<!-- Node1&#45;&gt;Node12 -->
<g id="edge12" class="edge">
<title>Node1&#45;&gt;Node12</title>
<path fill="none" stroke="#191970" d="M535.7166,-59.1005C590.0537,-51.0531 681.7097,-36.9018 769.7985,-20.1519"/>
<polygon fill="#191970" stroke="#191970" points="770.5251,-23.5765 779.688,-18.2574 769.208,-16.7015 770.5251,-23.5765"/>
</g>
<!-- Node13 -->
<g id="node14" class="node">
<title>Node13</title>
<g id="a_node14"><a xlink:title=" ">
<polygon fill="#ffffff" stroke="#bfbfbf" points="870,-.5 870,-19.5 926,-19.5 926,-.5 870,-.5"/>
<text text-anchor="middle" x="898" y="-7.5" font-family="Helvetica,sans-Serif" font-size="10.00" fill="#000000">unistd.h</text>
</a>
</g>
</g>
<!-- Node1&#45;&gt;Node13 -->
<g id="edge13" class="edge">
<title>Node1&#45;&gt;Node13</title>
<path fill="none" stroke="#191970" d="M535.7385,-62.2864C605.1342,-56.4118 738.0184,-43.3707 859.9353,-19.9811"/>
<polygon fill="#191970" stroke="#191970" points="860.6677,-23.4043 869.8147,-18.058 859.3301,-16.5333 860.6677,-23.4043"/>
</g>
<!-- Node15 -->
<g id="node16" class="node">
<title>Node15</title>
<g id="a_node16"><a xlink:title=" ">
<polygon fill="#ffffff" stroke="#bfbfbf" points="944.5,-.5 944.5,-19.5 1009.5,-19.5 1009.5,-.5 944.5,-.5"/>
<text text-anchor="middle" x="977" y="-7.5" font-family="Helvetica,sans-Serif" font-size="10.00" fill="#000000">exception</text>
</a>
</g>
</g>
<!-- Node14&#45;&gt;Node15 -->
<g id="edge15" class="edge">
<title>Node14&#45;&gt;Node15</title>
<path fill="none" stroke="#191970" d="M977,-56.2455C977,-48.9382 977,-38.6944 977,-29.7046"/>
<polygon fill="#191970" stroke="#191970" points="980.5001,-29.6426 977,-19.6427 973.5001,-29.6427 980.5001,-29.6426"/>
</g>
<!-- Node16 -->
<g id="node17" class="node">
<title>Node16</title>
<g id="a_node17"><a xlink:title=" ">
<polygon fill="#ffffff" stroke="#bfbfbf" points="1028,-.5 1028,-19.5 1072,-19.5 1072,-.5 1028,-.5"/>
<text text-anchor="middle" x="1050" y="-7.5" font-family="Helvetica,sans-Serif" font-size="10.00" fill="#000000">string</text>
</a>
</g>
</g>
<!-- Node14&#45;&gt;Node16 -->
<g id="edge16" class="edge">
<title>Node14&#45;&gt;Node16</title>
<path fill="none" stroke="#191970" d="M989.7156,-56.2455C1000.602,-47.8943 1016.4883,-35.7076 1029.22,-25.9408"/>
<polygon fill="#191970" stroke="#191970" points="1031.6261,-28.5063 1037.4301,-19.6427 1027.3654,-22.9523 1031.6261,-28.5063"/>
</g>
</g>
</svg>
