<?xml version="1.0" encoding="UTF-8" standalone="no"?>
<!DOCTYPE svg PUBLIC "-//W3C//DTD SVG 1.1//EN"
 "http://www.w3.org/Graphics/SVG/1.1/DTD/svg11.dtd">
<!-- Generated by graphviz version 2.40.1 (20161225.0304)
 -->
<!-- Title: decrypt Pages: 1 -->
<svg width="393pt" height="66pt"
 viewBox="0.00 0.00 393.00 66.00" xmlns="http://www.w3.org/2000/svg" xmlns:xlink="http://www.w3.org/1999/xlink">
<g id="graph0" class="graph" transform="scale(1 1) rotate(0) translate(4 62)">
<title>decrypt</title>
<polygon fill="#ffffff" stroke="transparent" points="-4,4 -4,-62 389,-62 389,4 -4,4"/>
<!-- Node0 -->
<g id="node1" class="node">
<title>Node0</title>
<g id="a_node1"><a xlink:title="Decrypt the given QR code.">
<polygon fill="#bfbfbf" stroke="#000000" points="0,-19.5 0,-38.5 53,-38.5 53,-19.5 0,-19.5"/>
<text text-anchor="middle" x="26.5" y="-26.5" font-family="Helvetica,sans-Serif" font-size="10.00" fill="#000000">decrypt</text>
</a>
</g>
</g>
<!-- Node1 -->
<g id="node2" class="node">
<title>Node1</title>
<g id="a_node2"><a xlink:href="crypto_8cpp.html#a87b41c8844bdfe408d79abc56562d6e5" target="_top" xlink:title=" ">
<polygon fill="#ffffff" stroke="#000000" points="149.5,-38.5 149.5,-57.5 217.5,-57.5 217.5,-38.5 149.5,-38.5"/>
<text text-anchor="middle" x="183.5" y="-45.5" font-family="Helvetica,sans-Serif" font-size="10.00" fill="#000000">tryDecrypt</text>
</a>
</g>
</g>
<!-- Node0&#45;&gt;Node1 -->
<g id="edge1" class="edge">
<title>Node0&#45;&gt;Node1</title>
<path fill="none" stroke="#191970" d="M53.1329,-32.2231C76.6383,-35.0677 111.3736,-39.2713 139.0803,-42.6244"/>
<polygon fill="#191970" stroke="#191970" points="138.9688,-46.1363 149.3169,-43.8632 139.8099,-39.187 138.9688,-46.1363"/>
</g>
<!-- Node3 -->
<g id="node4" class="node">
<title>Node3</title>
<g id="a_node4"><a xlink:href="classCryptoException.html#a7992bed5c54db81f763ed99d6342ca55" target="_top" xlink:title=" ">
<polygon fill="#ffffff" stroke="#000000" points="89,-.5 89,-19.5 278,-19.5 278,-.5 89,-.5"/>
<text text-anchor="middle" x="183.5" y="-7.5" font-family="Helvetica,sans-Serif" font-size="10.00" fill="#000000">CryptoException::getExceptionType</text>
</a>
</g>
</g>
<!-- Node0&#45;&gt;Node3 -->
<g id="edge3" class="edge">
<title>Node0&#45;&gt;Node3</title>
<path fill="none" stroke="#191970" d="M53.1329,-25.7769C64.9743,-24.3439 79.6657,-22.5659 94.8727,-20.7256"/>
<polygon fill="#191970" stroke="#191970" points="95.4085,-24.1864 104.9156,-19.5102 94.5675,-17.2371 95.4085,-24.1864"/>
</g>
<!-- Node2 -->
<g id="node3" class="node">
<title>Node2</title>
<g id="a_node3"><a xlink:href="cryptoConstants_8hpp.html#a7280faa0414e1e05841a1486f6e8054e" target="_top" xlink:title=" ">
<polygon fill="#ffffff" stroke="#000000" points="314,-38.5 314,-57.5 385,-57.5 385,-38.5 314,-38.5"/>
<text text-anchor="middle" x="349.5" y="-45.5" font-family="Helvetica,sans-Serif" font-size="10.00" fill="#000000">dmKeyPath</text>
</a>
</g>
</g>
<!-- Node1&#45;&gt;Node2 -->
<g id="edge2" class="edge">
<title>Node1&#45;&gt;Node2</title>
<path fill="none" stroke="#191970" d="M217.8953,-48C242.7366,-48 276.5466,-48 303.6769,-48"/>
<polygon fill="#191970" stroke="#191970" points="303.7152,-51.5001 313.7151,-48 303.7151,-44.5001 303.7152,-51.5001"/>
</g>
</g>
</svg>
