<?xml version="1.0" encoding="UTF-8" standalone="no"?>
<!DOCTYPE svg PUBLIC "-//W3C//DTD SVG 1.1//EN"
 "http://www.w3.org/Graphics/SVG/1.1/DTD/svg11.dtd">
<!-- Generated by graphviz version 2.40.1 (20161225.0304)
 -->
<!-- Title: /home/pieter/GitHub/EAGLE&#45;ZYBO&#45;Linux/src/utilities/include/Degrees.hpp Pages: 1 -->
<svg width="462pt" height="395pt"
 viewBox="0.00 0.00 461.50 395.00" xmlns="http://www.w3.org/2000/svg" xmlns:xlink="http://www.w3.org/1999/xlink">
<g id="graph0" class="graph" transform="scale(1 1) rotate(0) translate(4 391)">
<title>/home/pieter/GitHub/EAGLE&#45;ZYBO&#45;Linux/src/utilities/include/Degrees.hpp</title>
<polygon fill="#ffffff" stroke="transparent" points="-4,4 -4,-391 457.5,-391 457.5,4 -4,4"/>
<!-- Node2 -->
<g id="node1" class="node">
<title>Node2</title>
<g id="a_node1"><a xlink:title=" ">
<polygon fill="#bfbfbf" stroke="#000000" points="124.5,-345.5 124.5,-386.5 283.5,-386.5 283.5,-345.5 124.5,-345.5"/>
<text text-anchor="start" x="132.5" y="-374.5" font-family="Helvetica,sans-Serif" font-size="10.00" fill="#000000">/home/pieter/GitHub</text>
<text text-anchor="start" x="132.5" y="-363.5" font-family="Helvetica,sans-Serif" font-size="10.00" fill="#000000">/EAGLE&#45;ZYBO&#45;Linux/src</text>
<text text-anchor="middle" x="204" y="-352.5" font-family="Helvetica,sans-Serif" font-size="10.00" fill="#000000">/utilities/include/Degrees.hpp</text>
</a>
</g>
</g>
<!-- Node3 -->
<g id="node2" class="node">
<title>Node3</title>
<g id="a_node2"><a xlink:href="AngleTracker_8hpp.html" target="_top" xlink:title=" ">
<polygon fill="#ffffff" stroke="#000000" points="0,-267.5 0,-308.5 194,-308.5 194,-267.5 0,-267.5"/>
<text text-anchor="start" x="8" y="-296.5" font-family="Helvetica,sans-Serif" font-size="10.00" fill="#000000">/home/pieter/GitHub</text>
<text text-anchor="start" x="8" y="-285.5" font-family="Helvetica,sans-Serif" font-size="10.00" fill="#000000">/EAGLE&#45;ZYBO&#45;Linux/src</text>
<text text-anchor="middle" x="97" y="-274.5" font-family="Helvetica,sans-Serif" font-size="10.00" fill="#000000">/grid&#45;finder/include/AngleTracker.hpp</text>
</a>
</g>
</g>
<!-- Node2&#45;&gt;Node3 -->
<g id="edge1" class="edge">
<title>Node2&#45;&gt;Node3</title>
<path fill="none" stroke="#191970" d="M167.2732,-339.2272C153.4852,-329.1761 138.0436,-317.9196 125.1545,-308.5239"/>
<polygon fill="#191970" stroke="#191970" points="165.4643,-342.2398 175.6069,-345.3022 169.5878,-336.5832 165.4643,-342.2398"/>
</g>
<!-- Node6 -->
<g id="node5" class="node">
<title>Node6</title>
<g id="a_node5"><a xlink:href="HelperStructs_8hpp.html" target="_top" xlink:title=" ">
<polygon fill="#ffffff" stroke="#000000" points="212,-267.5 212,-308.5 410,-308.5 410,-267.5 212,-267.5"/>
<text text-anchor="start" x="220" y="-296.5" font-family="Helvetica,sans-Serif" font-size="10.00" fill="#000000">/home/pieter/GitHub</text>
<text text-anchor="start" x="220" y="-285.5" font-family="Helvetica,sans-Serif" font-size="10.00" fill="#000000">/EAGLE&#45;ZYBO&#45;Linux/src</text>
<text text-anchor="middle" x="311" y="-274.5" font-family="Helvetica,sans-Serif" font-size="10.00" fill="#000000">/grid&#45;finder/include/HelperStructs.hpp</text>
</a>
</g>
</g>
<!-- Node2&#45;&gt;Node6 -->
<g id="edge4" class="edge">
<title>Node2&#45;&gt;Node6</title>
<path fill="none" stroke="#191970" d="M240.7268,-339.2272C254.5148,-329.1761 269.9564,-317.9196 282.8455,-308.5239"/>
<polygon fill="#191970" stroke="#191970" points="238.4122,-336.5832 232.3931,-345.3022 242.5357,-342.2398 238.4122,-336.5832"/>
</g>
<!-- Node4 -->
<g id="node3" class="node">
<title>Node4</title>
<g id="a_node3"><a xlink:href="Grid-Finder_8module_8hpp.html" target="_top" xlink:title=" ">
<polygon fill="#ffffff" stroke="#000000" points="89.5,-89.5 89.5,-141.5 222.5,-141.5 222.5,-89.5 89.5,-89.5"/>
<text text-anchor="start" x="97.5" y="-129.5" font-family="Helvetica,sans-Serif" font-size="10.00" fill="#000000">/home/pieter/GitHub</text>
<text text-anchor="start" x="97.5" y="-118.5" font-family="Helvetica,sans-Serif" font-size="10.00" fill="#000000">/EAGLE&#45;ZYBO&#45;Linux/src</text>
<text text-anchor="start" x="97.5" y="-107.5" font-family="Helvetica,sans-Serif" font-size="10.00" fill="#000000">/py&#45;grid&#45;finder/include</text>
<text text-anchor="middle" x="156" y="-96.5" font-family="Helvetica,sans-Serif" font-size="10.00" fill="#000000">/Grid&#45;Finder.module.hpp</text>
</a>
</g>
</g>
<!-- Node3&#45;&gt;Node4 -->
<g id="edge2" class="edge">
<title>Node3&#45;&gt;Node4</title>
<path fill="none" stroke="#191970" d="M99.0037,-257.4603C101.2575,-234.8871 106.013,-203.7353 116,-178 120.9403,-165.2694 128.6474,-152.3658 135.9829,-141.6152"/>
<polygon fill="#191970" stroke="#191970" points="95.5119,-257.2127 98.1102,-267.484 102.4843,-257.8343 95.5119,-257.2127"/>
</g>
<!-- Node5 -->
<g id="node4" class="node">
<title>Node5</title>
<g id="a_node4"><a xlink:href="Grid-Finder_8module_8cpp.html" target="_top" xlink:title=" ">
<polygon fill="#ffffff" stroke="#000000" points="91.5,-.5 91.5,-52.5 220.5,-52.5 220.5,-.5 91.5,-.5"/>
<text text-anchor="start" x="99.5" y="-40.5" font-family="Helvetica,sans-Serif" font-size="10.00" fill="#000000">/home/pieter/GitHub</text>
<text text-anchor="start" x="99.5" y="-29.5" font-family="Helvetica,sans-Serif" font-size="10.00" fill="#000000">/EAGLE&#45;ZYBO&#45;Linux/src</text>
<text text-anchor="start" x="99.5" y="-18.5" font-family="Helvetica,sans-Serif" font-size="10.00" fill="#000000">/py&#45;grid&#45;finder/src/Grid</text>
<text text-anchor="middle" x="156" y="-7.5" font-family="Helvetica,sans-Serif" font-size="10.00" fill="#000000">&#45;Finder.module.cpp</text>
</a>
</g>
</g>
<!-- Node4&#45;&gt;Node5 -->
<g id="edge3" class="edge">
<title>Node4&#45;&gt;Node5</title>
<path fill="none" stroke="#191970" d="M156,-79.1155C156,-70.2061 156,-60.8475 156,-52.5341"/>
<polygon fill="#191970" stroke="#191970" points="152.5001,-79.2784 156,-89.2784 159.5001,-79.2785 152.5001,-79.2784"/>
</g>
<!-- Node7 -->
<g id="node6" class="node">
<title>Node7</title>
<g id="a_node6"><a xlink:href="GridFinder_8hpp.html" target="_top" xlink:title=" ">
<polygon fill="#ffffff" stroke="#000000" points="125.5,-184 125.5,-225 306.5,-225 306.5,-184 125.5,-184"/>
<text text-anchor="start" x="133.5" y="-213" font-family="Helvetica,sans-Serif" font-size="10.00" fill="#000000">/home/pieter/GitHub</text>
<text text-anchor="start" x="133.5" y="-202" font-family="Helvetica,sans-Serif" font-size="10.00" fill="#000000">/EAGLE&#45;ZYBO&#45;Linux/src</text>
<text text-anchor="middle" x="216" y="-191" font-family="Helvetica,sans-Serif" font-size="10.00" fill="#000000">/grid&#45;finder/include/GridFinder.hpp</text>
</a>
</g>
</g>
<!-- Node6&#45;&gt;Node7 -->
<g id="edge5" class="edge">
<title>Node6&#45;&gt;Node7</title>
<path fill="none" stroke="#191970" d="M279.6576,-260.4517C266.5833,-248.9601 251.6549,-235.8388 239.5422,-225.1924"/>
<polygon fill="#191970" stroke="#191970" points="277.6951,-263.3866 287.5168,-267.3595 282.3164,-258.1288 277.6951,-263.3866"/>
</g>
<!-- Node9 -->
<g id="node8" class="node">
<title>Node9</title>
<g id="a_node8"><a xlink:href="LocationFinder_8hpp.html" target="_top" xlink:title=" ">
<polygon fill="#ffffff" stroke="#000000" points="324.5,-178.5 324.5,-230.5 453.5,-230.5 453.5,-178.5 324.5,-178.5"/>
<text text-anchor="start" x="332.5" y="-218.5" font-family="Helvetica,sans-Serif" font-size="10.00" fill="#000000">/home/pieter/GitHub</text>
<text text-anchor="start" x="332.5" y="-207.5" font-family="Helvetica,sans-Serif" font-size="10.00" fill="#000000">/EAGLE&#45;ZYBO&#45;Linux/src</text>
<text text-anchor="start" x="332.5" y="-196.5" font-family="Helvetica,sans-Serif" font-size="10.00" fill="#000000">/location&#45;finder/include</text>
<text text-anchor="middle" x="389" y="-185.5" font-family="Helvetica,sans-Serif" font-size="10.00" fill="#000000">/LocationFinder.hpp</text>
</a>
</g>
</g>
<!-- Node6&#45;&gt;Node9 -->
<g id="edge8" class="edge">
<title>Node6&#45;&gt;Node9</title>
<path fill="none" stroke="#191970" d="M337.1434,-260.0132C346.0188,-250.512 355.8944,-239.94 364.6261,-230.5925"/>
<polygon fill="#191970" stroke="#191970" points="334.5496,-257.6627 330.2809,-267.3595 339.6649,-262.4411 334.5496,-257.6627"/>
</g>
<!-- Node7&#45;&gt;Node4 -->
<g id="edge7" class="edge">
<title>Node7&#45;&gt;Node4</title>
<path fill="none" stroke="#191970" d="M196.4559,-175.5096C189.1349,-164.6502 180.8645,-152.3823 173.7179,-141.7816"/>
<polygon fill="#191970" stroke="#191970" points="193.5919,-177.5227 202.084,-183.8579 199.3961,-173.6097 193.5919,-177.5227"/>
</g>
<!-- Node8 -->
<g id="node7" class="node">
<title>Node8</title>
<g id="a_node7"><a xlink:href="LocationFinder_8cpp.html" target="_top" xlink:title=" ">
<polygon fill="#ffffff" stroke="#000000" points="277,-89.5 277,-141.5 429,-141.5 429,-89.5 277,-89.5"/>
<text text-anchor="start" x="285" y="-129.5" font-family="Helvetica,sans-Serif" font-size="10.00" fill="#000000">/home/pieter/GitHub</text>
<text text-anchor="start" x="285" y="-118.5" font-family="Helvetica,sans-Serif" font-size="10.00" fill="#000000">/EAGLE&#45;ZYBO&#45;Linux/src</text>
<text text-anchor="start" x="285" y="-107.5" font-family="Helvetica,sans-Serif" font-size="10.00" fill="#000000">/location&#45;finder/src/Location</text>
<text text-anchor="middle" x="353" y="-96.5" font-family="Helvetica,sans-Serif" font-size="10.00" fill="#000000">Finder.cpp</text>
</a>
</g>
</g>
<!-- Node7&#45;&gt;Node8 -->
<g id="edge6" class="edge">
<title>Node7&#45;&gt;Node8</title>
<path fill="none" stroke="#191970" d="M256.2477,-178.3537C274.0686,-166.7766 294.9826,-153.1902 312.7981,-141.6166"/>
<polygon fill="#191970" stroke="#191970" points="254.254,-175.4751 247.7749,-183.8579 258.0675,-181.3452 254.254,-175.4751"/>
</g>
<!-- Node9&#45;&gt;Node8 -->
<g id="edge9" class="edge">
<title>Node9&#45;&gt;Node8</title>
<path fill="none" stroke="#191970" d="M374.6346,-168.9856C370.9262,-159.8176 367.003,-150.1186 363.5307,-141.5341"/>
<polygon fill="#191970" stroke="#191970" points="371.399,-170.3205 378.3935,-178.2784 377.8883,-167.6956 371.399,-170.3205"/>
</g>
</g>
</svg>
