<?xml version="1.0" encoding="UTF-8" standalone="no"?>
<!DOCTYPE svg PUBLIC "-//W3C//DTD SVG 1.1//EN"
 "http://www.w3.org/Graphics/SVG/1.1/DTD/svg11.dtd">
<!-- Generated by graphviz version 2.40.1 (20161225.0304)
 -->
<!-- Title: /home/pieter/GitHub/EAGLE&#45;ZYBO&#45;Linux/src/utilities/include/Degrees.hpp Pages: 1 -->
<svg width="436pt" height="395pt"
 viewBox="0.00 0.00 435.50 395.00" xmlns="http://www.w3.org/2000/svg" xmlns:xlink="http://www.w3.org/1999/xlink">
<g id="graph0" class="graph" transform="scale(1 1) rotate(0) translate(4 391)">
<title>/home/pieter/GitHub/EAGLE&#45;ZYBO&#45;Linux/src/utilities/include/Degrees.hpp</title>
<polygon fill="#ffffff" stroke="transparent" points="-4,4 -4,-391 431.5,-391 431.5,4 -4,4"/>
<!-- Node2 -->
<g id="node1" class="node">
<title>Node2</title>
<g id="a_node1"><a xlink:title=" ">
<polygon fill="#bfbfbf" stroke="#000000" points="144,-345.5 144,-386.5 303,-386.5 303,-345.5 144,-345.5"/>
<text text-anchor="start" x="152" y="-374.5" font-family="Helvetica,sans-Serif" font-size="10.00" fill="#000000">/home/pieter/GitHub</text>
<text text-anchor="start" x="152" y="-363.5" font-family="Helvetica,sans-Serif" font-size="10.00" fill="#000000">/EAGLE&#45;ZYBO&#45;Linux/src</text>
<text text-anchor="middle" x="223.5" y="-352.5" font-family="Helvetica,sans-Serif" font-size="10.00" fill="#000000">/utilities/include/Degrees.hpp</text>
</a>
</g>
</g>
<!-- Node3 -->
<g id="node2" class="node">
<title>Node3</title>
<g id="a_node2"><a xlink:href="AngleTracker_8hpp.html" target="_top" xlink:title=" ">
<polygon fill="#ffffff" stroke="#000000" points="233.5,-267.5 233.5,-308.5 427.5,-308.5 427.5,-267.5 233.5,-267.5"/>
<text text-anchor="start" x="241.5" y="-296.5" font-family="Helvetica,sans-Serif" font-size="10.00" fill="#000000">/home/pieter/GitHub</text>
<text text-anchor="start" x="241.5" y="-285.5" font-family="Helvetica,sans-Serif" font-size="10.00" fill="#000000">/EAGLE&#45;ZYBO&#45;Linux/src</text>
<text text-anchor="middle" x="330.5" y="-274.5" font-family="Helvetica,sans-Serif" font-size="10.00" fill="#000000">/grid&#45;finder/include/AngleTracker.hpp</text>
</a>
</g>
</g>
<!-- Node2&#45;&gt;Node3 -->
<g id="edge1" class="edge">
<title>Node2&#45;&gt;Node3</title>
<path fill="none" stroke="#191970" d="M260.2268,-339.2272C274.0148,-329.1761 289.4564,-317.9196 302.3455,-308.5239"/>
<polygon fill="#191970" stroke="#191970" points="257.9122,-336.5832 251.8931,-345.3022 262.0357,-342.2398 257.9122,-336.5832"/>
</g>
<!-- Node8 -->
<g id="node7" class="node">
<title>Node8</title>
<g id="a_node7"><a xlink:href="HelperStructs_8hpp.html" target="_top" xlink:title=" ">
<polygon fill="#ffffff" stroke="#000000" points="17.5,-267.5 17.5,-308.5 215.5,-308.5 215.5,-267.5 17.5,-267.5"/>
<text text-anchor="start" x="25.5" y="-296.5" font-family="Helvetica,sans-Serif" font-size="10.00" fill="#000000">/home/pieter/GitHub</text>
<text text-anchor="start" x="25.5" y="-285.5" font-family="Helvetica,sans-Serif" font-size="10.00" fill="#000000">/EAGLE&#45;ZYBO&#45;Linux/src</text>
<text text-anchor="middle" x="116.5" y="-274.5" font-family="Helvetica,sans-Serif" font-size="10.00" fill="#000000">/grid&#45;finder/include/HelperStructs.hpp</text>
</a>
</g>
</g>
<!-- Node2&#45;&gt;Node8 -->
<g id="edge7" class="edge">
<title>Node2&#45;&gt;Node8</title>
<path fill="none" stroke="#191970" d="M186.7732,-339.2272C172.9852,-329.1761 157.5436,-317.9196 144.6545,-308.5239"/>
<polygon fill="#191970" stroke="#191970" points="184.9643,-342.2398 195.1069,-345.3022 189.0878,-336.5832 184.9643,-342.2398"/>
</g>
<!-- Node4 -->
<g id="node3" class="node">
<title>Node4</title>
<g id="a_node3"><a xlink:href="LocationFinder_8hpp.html" target="_top" xlink:title=" ">
<polygon fill="#ffffff" stroke="#000000" points="199,-178.5 199,-230.5 328,-230.5 328,-178.5 199,-178.5"/>
<text text-anchor="start" x="207" y="-218.5" font-family="Helvetica,sans-Serif" font-size="10.00" fill="#000000">/home/pieter/GitHub</text>
<text text-anchor="start" x="207" y="-207.5" font-family="Helvetica,sans-Serif" font-size="10.00" fill="#000000">/EAGLE&#45;ZYBO&#45;Linux/src</text>
<text text-anchor="start" x="207" y="-196.5" font-family="Helvetica,sans-Serif" font-size="10.00" fill="#000000">/location&#45;finder/include</text>
<text text-anchor="middle" x="263.5" y="-185.5" font-family="Helvetica,sans-Serif" font-size="10.00" fill="#000000">/LocationFinder.hpp</text>
</a>
</g>
</g>
<!-- Node3&#45;&gt;Node4 -->
<g id="edge2" class="edge">
<title>Node3&#45;&gt;Node4</title>
<path fill="none" stroke="#191970" d="M307.5896,-259.4475C300.0842,-250.0938 291.7883,-239.7549 284.4365,-230.5925"/>
<polygon fill="#191970" stroke="#191970" points="304.95,-261.7504 313.9382,-267.3595 310.4097,-257.3695 304.95,-261.7504"/>
</g>
<!-- Node6 -->
<g id="node5" class="node">
<title>Node6</title>
<g id="a_node5"><a xlink:href="Grid-Finder_8module_8hpp.html" target="_top" xlink:title=" ">
<polygon fill="#ffffff" stroke="#000000" points="197,-89.5 197,-141.5 330,-141.5 330,-89.5 197,-89.5"/>
<text text-anchor="start" x="205" y="-129.5" font-family="Helvetica,sans-Serif" font-size="10.00" fill="#000000">/home/pieter/GitHub</text>
<text text-anchor="start" x="205" y="-118.5" font-family="Helvetica,sans-Serif" font-size="10.00" fill="#000000">/EAGLE&#45;ZYBO&#45;Linux/src</text>
<text text-anchor="start" x="205" y="-107.5" font-family="Helvetica,sans-Serif" font-size="10.00" fill="#000000">/py&#45;grid&#45;finder/include</text>
<text text-anchor="middle" x="263.5" y="-96.5" font-family="Helvetica,sans-Serif" font-size="10.00" fill="#000000">/Grid&#45;Finder.module.hpp</text>
</a>
</g>
</g>
<!-- Node3&#45;&gt;Node6 -->
<g id="edge6" class="edge">
<title>Node3&#45;&gt;Node6</title>
<path fill="none" stroke="#191970" d="M340.0165,-257.5876C345.4422,-234.6526 349.1016,-202.9844 337.5,-178 330.8426,-163.663 319.097,-151.428 306.8975,-141.6845"/>
<polygon fill="#191970" stroke="#191970" points="336.5799,-256.8962 337.4477,-267.4554 343.3541,-258.6596 336.5799,-256.8962"/>
</g>
<!-- Node5 -->
<g id="node4" class="node">
<title>Node5</title>
<g id="a_node4"><a xlink:href="LocationFinder_8cpp.html" target="_top" xlink:title=" ">
<polygon fill="#ffffff" stroke="#000000" points="20.5,-89.5 20.5,-141.5 172.5,-141.5 172.5,-89.5 20.5,-89.5"/>
<text text-anchor="start" x="28.5" y="-129.5" font-family="Helvetica,sans-Serif" font-size="10.00" fill="#000000">/home/pieter/GitHub</text>
<text text-anchor="start" x="28.5" y="-118.5" font-family="Helvetica,sans-Serif" font-size="10.00" fill="#000000">/EAGLE&#45;ZYBO&#45;Linux/src</text>
<text text-anchor="start" x="28.5" y="-107.5" font-family="Helvetica,sans-Serif" font-size="10.00" fill="#000000">/location&#45;finder/src/Location</text>
<text text-anchor="middle" x="96.5" y="-96.5" font-family="Helvetica,sans-Serif" font-size="10.00" fill="#000000">Finder.cpp</text>
</a>
</g>
</g>
<!-- Node4&#45;&gt;Node5 -->
<g id="edge3" class="edge">
<title>Node4&#45;&gt;Node5</title>
<path fill="none" stroke="#191970" d="M205.453,-173.5648C185.8473,-163.1162 164.1714,-151.5644 145.3506,-141.5341"/>
<polygon fill="#191970" stroke="#191970" points="203.8266,-176.664 214.2977,-178.2784 207.1189,-170.4865 203.8266,-176.664"/>
</g>
<!-- Node4&#45;&gt;Node6 -->
<g id="edge4" class="edge">
<title>Node4&#45;&gt;Node6</title>
<path fill="none" stroke="#191970" d="M263.5,-168.1155C263.5,-159.2061 263.5,-149.8475 263.5,-141.5341"/>
<polygon fill="#191970" stroke="#191970" points="260.0001,-168.2784 263.5,-178.2784 267.0001,-168.2785 260.0001,-168.2784"/>
</g>
<!-- Node7 -->
<g id="node6" class="node">
<title>Node7</title>
<g id="a_node6"><a xlink:href="Grid-Finder_8module_8cpp.html" target="_top" xlink:title=" ">
<polygon fill="#ffffff" stroke="#000000" points="199,-.5 199,-52.5 328,-52.5 328,-.5 199,-.5"/>
<text text-anchor="start" x="207" y="-40.5" font-family="Helvetica,sans-Serif" font-size="10.00" fill="#000000">/home/pieter/GitHub</text>
<text text-anchor="start" x="207" y="-29.5" font-family="Helvetica,sans-Serif" font-size="10.00" fill="#000000">/EAGLE&#45;ZYBO&#45;Linux/src</text>
<text text-anchor="start" x="207" y="-18.5" font-family="Helvetica,sans-Serif" font-size="10.00" fill="#000000">/py&#45;grid&#45;finder/src/Grid</text>
<text text-anchor="middle" x="263.5" y="-7.5" font-family="Helvetica,sans-Serif" font-size="10.00" fill="#000000">&#45;Finder.module.cpp</text>
</a>
</g>
</g>
<!-- Node6&#45;&gt;Node7 -->
<g id="edge5" class="edge">
<title>Node6&#45;&gt;Node7</title>
<path fill="none" stroke="#191970" d="M263.5,-79.1155C263.5,-70.2061 263.5,-60.8475 263.5,-52.5341"/>
<polygon fill="#191970" stroke="#191970" points="260.0001,-79.2784 263.5,-89.2784 267.0001,-79.2785 260.0001,-79.2784"/>
</g>
<!-- Node8&#45;&gt;Node4 -->
<g id="edge11" class="edge">
<title>Node8&#45;&gt;Node4</title>
<path fill="none" stroke="#191970" d="M161.833,-262.2496C179.535,-252.1944 199.8052,-240.6804 217.5646,-230.5925"/>
<polygon fill="#191970" stroke="#191970" points="159.8035,-259.3771 152.8371,-267.3595 163.2609,-265.4637 159.8035,-259.3771"/>
</g>
<!-- Node9 -->
<g id="node8" class="node">
<title>Node9</title>
<g id="a_node8"><a xlink:href="GridFinder_8hpp.html" target="_top" xlink:title=" ">
<polygon fill="#ffffff" stroke="#000000" points="0,-184 0,-225 181,-225 181,-184 0,-184"/>
<text text-anchor="start" x="8" y="-213" font-family="Helvetica,sans-Serif" font-size="10.00" fill="#000000">/home/pieter/GitHub</text>
<text text-anchor="start" x="8" y="-202" font-family="Helvetica,sans-Serif" font-size="10.00" fill="#000000">/EAGLE&#45;ZYBO&#45;Linux/src</text>
<text text-anchor="middle" x="90.5" y="-191" font-family="Helvetica,sans-Serif" font-size="10.00" fill="#000000">/grid&#45;finder/include/GridFinder.hpp</text>
</a>
</g>
</g>
<!-- Node8&#45;&gt;Node9 -->
<g id="edge8" class="edge">
<title>Node8&#45;&gt;Node9</title>
<path fill="none" stroke="#191970" d="M107.0005,-257.4918C103.6556,-246.7498 99.9767,-234.9349 96.9431,-225.1924"/>
<polygon fill="#191970" stroke="#191970" points="103.7582,-258.8523 110.073,-267.3595 110.4417,-256.7711 103.7582,-258.8523"/>
</g>
<!-- Node9&#45;&gt;Node5 -->
<g id="edge9" class="edge">
<title>Node9&#45;&gt;Node5</title>
<path fill="none" stroke="#191970" d="M92.5858,-173.56C93.2844,-163.1985 94.056,-151.7526 94.7282,-141.7816"/>
<polygon fill="#191970" stroke="#191970" points="89.0722,-173.6451 91.8916,-183.8579 96.0564,-174.116 89.0722,-173.6451"/>
</g>
<!-- Node9&#45;&gt;Node6 -->
<g id="edge10" class="edge">
<title>Node9&#45;&gt;Node6</title>
<path fill="none" stroke="#191970" d="M139.7956,-179.1399C162.625,-167.3952 189.7258,-153.4532 212.7341,-141.6166"/>
<polygon fill="#191970" stroke="#191970" points="137.9157,-176.1709 130.6245,-183.8579 141.1179,-182.3955 137.9157,-176.1709"/>
</g>
</g>
</svg>
