<?xml version="1.0" encoding="UTF-8" standalone="no"?>
<!DOCTYPE svg PUBLIC "-//W3C//DTD SVG 1.1//EN"
 "http://www.w3.org/Graphics/SVG/1.1/DTD/svg11.dtd">
<!-- Generated by graphviz version 2.40.1 (20161225.0304)
 -->
<!-- Title: /home/pieter/GitHub/EAGLE&#45;ZYBO&#45;Linux/src/logentry Pages: 1 -->
<svg width="186pt" height="159pt"
 viewBox="0.00 0.00 186.00 159.00" xmlns="http://www.w3.org/2000/svg" xmlns:xlink="http://www.w3.org/1999/xlink">
<g id="graph0" class="graph" transform="scale(1 1) rotate(0) translate(4 155)">
<title>/home/pieter/GitHub/EAGLE&#45;ZYBO&#45;Linux/src/logentry</title>
<polygon fill="#ffffff" stroke="transparent" points="-4,4 -4,-155 182,-155 182,4 -4,4"/>
<g id="clust1" class="cluster">
<title>clusterdir_68267d1309a1af8e8297ef4c3efbcdba</title>
<g id="a_clust1"><a xlink:href="dir_68267d1309a1af8e8297ef4c3efbcdba.html" target="_top" xlink:title="src">
<polygon fill="#ddddee" stroke="#000000" points="8,-56 8,-143 170,-143 170,-56 8,-56"/>
<text text-anchor="middle" x="89" y="-131" font-family="Helvetica,sans-Serif" font-size="10.00" fill="#000000">src</text>
</a>
</g>
</g>
<g id="clust2" class="cluster">
<title>clusterdir_d471c9e7d7d2cd1463b667d184ac6f80</title>
<g id="a_clust2"><a xlink:href="dir_d471c9e7d7d2cd1463b667d184ac6f80.html" target="_top">
<polygon fill="#eeeeff" stroke="#000000" points="16,-64 16,-116 162,-116 162,-64 16,-64"/>
</a>
</g>
</g>
<!-- dir_d471c9e7d7d2cd1463b667d184ac6f80 -->
<g id="node1" class="node">
<title>dir_d471c9e7d7d2cd1463b667d184ac6f80</title>
<text text-anchor="middle" x="125" y="-87.5" font-family="Helvetica,sans-Serif" font-size="10.00" fill="#000000">logentry</text>
</g>
<!-- dir_540c6296be5543f1dba86310a014ff43 -->
<g id="node2" class="node">
<title>dir_540c6296be5543f1dba86310a014ff43</title>
<g id="a_node2"><a xlink:href="dir_540c6296be5543f1dba86310a014ff43.html" target="_top" xlink:title="include">
<polygon fill="#ffffff" stroke="#000000" points="78,-108 24,-108 24,-72 78,-72 78,-108"/>
<text text-anchor="middle" x="51" y="-87.5" font-family="Helvetica,sans-Serif" font-size="10.00" fill="#000000">include</text>
</a>
</g>
</g>
<!-- dir_4fef79e7177ba769987a8da36c892c5f -->
<g id="node3" class="node">
<title>dir_4fef79e7177ba769987a8da36c892c5f</title>
<g id="a_node3"><a xlink:href="dir_4fef79e7177ba769987a8da36c892c5f.html" target="_top" xlink:title="build">
<polygon fill="#ffffff" stroke="#ff0000" points="78,-36 24,-36 24,0 78,0 78,-36"/>
<text text-anchor="middle" x="51" y="-15.5" font-family="Helvetica,sans-Serif" font-size="10.00" fill="#000000">build</text>
</a>
</g>
</g>
<!-- dir_540c6296be5543f1dba86310a014ff43&#45;&gt;dir_4fef79e7177ba769987a8da36c892c5f -->
<g id="edge2" class="edge">
<title>dir_540c6296be5543f1dba86310a014ff43&#45;&gt;dir_4fef79e7177ba769987a8da36c892c5f</title>
<path fill="none" stroke="#000000" d="M45.0476,-71.8314C44.2972,-64.131 44.0763,-54.9743 44.3849,-46.4166"/>
<polygon fill="#000000" stroke="#000000" points="47.8792,-46.6161 45.024,-36.4133 40.8935,-46.1697 47.8792,-46.6161"/>
<g id="a_edge2&#45;headlabel"><a xlink:href="dir_000029_000000.html" target="_top" xlink:title="1">
<text text-anchor="middle" x="50.4836" y="-47.8844" font-family="Helvetica,sans-Serif" font-size="10.00" fill="#000000">1</text>
</a>
</g>
</g>
<!-- dir_4fef79e7177ba769987a8da36c892c5f&#45;&gt;dir_540c6296be5543f1dba86310a014ff43 -->
<g id="edge1" class="edge">
<title>dir_4fef79e7177ba769987a8da36c892c5f&#45;&gt;dir_540c6296be5543f1dba86310a014ff43</title>
<path fill="none" stroke="#000000" d="M56.976,-36.4133C57.7071,-44.0593 57.9203,-53.1084 57.6155,-61.5726"/>
<polygon fill="#000000" stroke="#000000" points="54.1048,-61.6264 56.9524,-71.8314 61.0902,-62.078 54.1048,-61.6264"/>
<g id="a_edge1&#45;headlabel"><a xlink:href="dir_000000_000029.html" target="_top" xlink:title="1">
<text text-anchor="middle" x="51.5032" y="-55.3562" font-family="Helvetica,sans-Serif" font-size="10.00" fill="#000000">1</text>
</a>
</g>
</g>
</g>
</svg>
