<?xml version="1.0" encoding="UTF-8" standalone="no"?>
<!DOCTYPE svg PUBLIC "-//W3C//DTD SVG 1.1//EN"
 "http://www.w3.org/Graphics/SVG/1.1/DTD/svg11.dtd">
<!-- Generated by graphviz version 2.40.1 (20161225.0304)
 -->
<!-- Title: /home/pieter/GitHub/EAGLE&#45;ZYBO&#45;Linux/src/qr&#45;crypto&#45;manager Pages: 1 -->
<svg width="445pt" height="231pt"
 viewBox="0.00 0.00 444.50 231.00" xmlns="http://www.w3.org/2000/svg" xmlns:xlink="http://www.w3.org/1999/xlink">
<g id="graph0" class="graph" transform="scale(1 1) rotate(0) translate(4 227)">
<title>/home/pieter/GitHub/EAGLE&#45;ZYBO&#45;Linux/src/qr&#45;crypto&#45;manager</title>
<polygon fill="#ffffff" stroke="transparent" points="-4,4 -4,-227 440.5,-227 440.5,4 -4,4"/>
<g id="clust1" class="cluster">
<title>clusterdir_68267d1309a1af8e8297ef4c3efbcdba</title>
<g id="a_clust1"><a xlink:href="dir_68267d1309a1af8e8297ef4c3efbcdba.html" target="_top" xlink:title="src">
<polygon fill="#ddddee" stroke="#000000" points="8,-56 8,-215 219,-215 219,-56 8,-56"/>
<text text-anchor="middle" x="113.5" y="-203" font-family="Helvetica,sans-Serif" font-size="10.00" fill="#000000">src</text>
</a>
</g>
</g>
<g id="clust2" class="cluster">
<title>clusterdir_2b5615639a780788a137586f580a6a22</title>
<g id="a_clust2"><a xlink:href="dir_2b5615639a780788a137586f580a6a22.html" target="_top">
<polygon fill="#eeeeff" stroke="#000000" points="16,-64 16,-188 211,-188 211,-64 16,-64"/>
</a>
</g>
</g>
<!-- dir_2b5615639a780788a137586f580a6a22 -->
<g id="node1" class="node">
<title>dir_2b5615639a780788a137586f580a6a22</title>
<text text-anchor="middle" x="150" y="-159.5" font-family="Helvetica,sans-Serif" font-size="10.00" fill="#000000">qr&#45;crypto&#45;manager</text>
</g>
<!-- dir_421be899e9c3b101231a6427a95f73ea -->
<g id="node2" class="node">
<title>dir_421be899e9c3b101231a6427a95f73ea</title>
<g id="a_node2"><a xlink:href="dir_421be899e9c3b101231a6427a95f73ea.html" target="_top" xlink:title="include">
<polygon fill="#ffffff" stroke="#000000" points="140,-108 86,-108 86,-72 140,-72 140,-108"/>
<text text-anchor="middle" x="113" y="-87.5" font-family="Helvetica,sans-Serif" font-size="10.00" fill="#000000">include</text>
</a>
</g>
</g>
<!-- dir_d0537398ec3fe72d8d4f5c6709d28acc -->
<g id="node6" class="node">
<title>dir_d0537398ec3fe72d8d4f5c6709d28acc</title>
<g id="a_node6"><a xlink:href="dir_d0537398ec3fe72d8d4f5c6709d28acc.html" target="_top" xlink:title="comm">
<polygon fill="#ffffff" stroke="#ff0000" points="210,-36 156,-36 156,0 210,0 210,-36"/>
<text text-anchor="middle" x="183" y="-15.5" font-family="Helvetica,sans-Serif" font-size="10.00" fill="#000000">comm</text>
</a>
</g>
</g>
<!-- dir_421be899e9c3b101231a6427a95f73ea&#45;&gt;dir_d0537398ec3fe72d8d4f5c6709d28acc -->
<g id="edge6" class="edge">
<title>dir_421be899e9c3b101231a6427a95f73ea&#45;&gt;dir_d0537398ec3fe72d8d4f5c6709d28acc</title>
<path fill="none" stroke="#000000" d="M130.664,-71.8314C138.9732,-63.2848 149.0264,-52.9443 158.0918,-43.6198"/>
<polygon fill="#000000" stroke="#000000" points="160.6369,-46.023 165.0982,-36.4133 155.6179,-41.1435 160.6369,-46.023"/>
<g id="a_edge6&#45;headlabel"><a xlink:href="dir_000034_000004.html" target="_top" xlink:title="2">
<text text-anchor="middle" x="160.1669" y="-48.0795" font-family="Helvetica,sans-Serif" font-size="10.00" fill="#000000">2</text>
</a>
</g>
</g>
<!-- dir_ef6536ef615fa1de28d5fe188f6220b4 -->
<g id="node3" class="node">
<title>dir_ef6536ef615fa1de28d5fe188f6220b4</title>
<g id="a_node3"><a xlink:href="dir_ef6536ef615fa1de28d5fe188f6220b4.html" target="_top" xlink:title="src">
<polygon fill="#ffffff" stroke="#000000" points="78,-180 24,-180 24,-144 78,-144 78,-180"/>
<text text-anchor="middle" x="51" y="-159.5" font-family="Helvetica,sans-Serif" font-size="10.00" fill="#000000">src</text>
</a>
</g>
</g>
<!-- dir_ef6536ef615fa1de28d5fe188f6220b4&#45;&gt;dir_421be899e9c3b101231a6427a95f73ea -->
<g id="edge5" class="edge">
<title>dir_ef6536ef615fa1de28d5fe188f6220b4&#45;&gt;dir_421be899e9c3b101231a6427a95f73ea</title>
<path fill="none" stroke="#000000" d="M66.6452,-143.8314C73.8591,-135.454 82.557,-125.3531 90.4605,-116.1749"/>
<polygon fill="#000000" stroke="#000000" points="93.2711,-118.2748 97.1441,-108.4133 87.9667,-113.7071 93.2711,-118.2748"/>
<g id="a_edge5&#45;headlabel"><a xlink:href="dir_000035_000034.html" target="_top" xlink:title="1">
<text text-anchor="middle" x="93.077" y="-120.3514" font-family="Helvetica,sans-Serif" font-size="10.00" fill="#000000">1</text>
</a>
</g>
</g>
<!-- dir_4261af1259721e3e39e0d2dd7354b511 -->
<g id="node4" class="node">
<title>dir_4261af1259721e3e39e0d2dd7354b511</title>
<g id="a_node4"><a xlink:href="dir_4261af1259721e3e39e0d2dd7354b511.html" target="_top" xlink:title="crypto">
<polygon fill="#ffffff" stroke="#ff0000" points="281,-108 227,-108 227,-72 281,-72 281,-108"/>
<text text-anchor="middle" x="254" y="-87.5" font-family="Helvetica,sans-Serif" font-size="10.00" fill="#000000">crypto</text>
</a>
</g>
</g>
<!-- dir_ef6536ef615fa1de28d5fe188f6220b4&#45;&gt;dir_4261af1259721e3e39e0d2dd7354b511 -->
<g id="edge2" class="edge">
<title>dir_ef6536ef615fa1de28d5fe188f6220b4&#45;&gt;dir_4261af1259721e3e39e0d2dd7354b511</title>
<path fill="none" stroke="#000000" d="M78.2409,-148.0819C81.4934,-146.6191 84.7964,-145.2223 88,-144 142.814,-123.0859 159.9758,-128.3548 215,-108 215.8568,-107.6831 216.7208,-107.3552 217.5896,-107.0183"/>
<polygon fill="#000000" stroke="#000000" points="219.0541,-110.2001 226.9537,-103.1399 216.3755,-103.7329 219.0541,-110.2001"/>
<g id="a_edge2&#45;headlabel"><a xlink:href="dir_000035_000007.html" target="_top" xlink:title="1">
<text text-anchor="middle" x="216.8195" y="-111.6987" font-family="Helvetica,sans-Serif" font-size="10.00" fill="#000000">1</text>
</a>
</g>
</g>
<!-- dir_9ab17fd7f07b28ef7164bcc825435f04 -->
<g id="node5" class="node">
<title>dir_9ab17fd7f07b28ef7164bcc825435f04</title>
<g id="a_node5"><a xlink:href="dir_9ab17fd7f07b28ef7164bcc825435f04.html" target="_top" xlink:title="base64">
<polygon fill="#ffffff" stroke="#ff0000" points="353,-108 299,-108 299,-72 353,-72 353,-108"/>
<text text-anchor="middle" x="326" y="-87.5" font-family="Helvetica,sans-Serif" font-size="10.00" fill="#000000">base64</text>
</a>
</g>
</g>
<!-- dir_ef6536ef615fa1de28d5fe188f6220b4&#45;&gt;dir_9ab17fd7f07b28ef7164bcc825435f04 -->
<g id="edge3" class="edge">
<title>dir_ef6536ef615fa1de28d5fe188f6220b4&#45;&gt;dir_9ab17fd7f07b28ef7164bcc825435f04</title>
<path fill="none" stroke="#000000" d="M78.128,-147.7622C81.4008,-146.3568 84.7394,-145.0609 88,-144 171.7535,-116.7486 201.4061,-135.3152 289.2766,-107.7064"/>
<polygon fill="#000000" stroke="#000000" points="290.4033,-111.0205 298.8293,-104.5977 288.2371,-104.3641 290.4033,-111.0205"/>
<g id="a_edge3&#45;headlabel"><a xlink:href="dir_000035_000001.html" target="_top" xlink:title="1">
<text text-anchor="middle" x="287.8637" y="-112.3327" font-family="Helvetica,sans-Serif" font-size="10.00" fill="#000000">1</text>
</a>
</g>
</g>
<!-- dir_a6001fb970975ebb58a93b6f2462248e -->
<g id="node7" class="node">
<title>dir_a6001fb970975ebb58a93b6f2462248e</title>
<g id="a_node7"><a xlink:href="dir_a6001fb970975ebb58a93b6f2462248e.html" target="_top" xlink:title="qr&#45;decode">
<polygon fill="#ffffff" stroke="#ff0000" points="436.5,-108 371.5,-108 371.5,-72 436.5,-72 436.5,-108"/>
<text text-anchor="middle" x="404" y="-87.5" font-family="Helvetica,sans-Serif" font-size="10.00" fill="#000000">qr&#45;decode</text>
</a>
</g>
</g>
<!-- dir_ef6536ef615fa1de28d5fe188f6220b4&#45;&gt;dir_a6001fb970975ebb58a93b6f2462248e -->
<g id="edge4" class="edge">
<title>dir_ef6536ef615fa1de28d5fe188f6220b4&#45;&gt;dir_a6001fb970975ebb58a93b6f2462248e</title>
<path fill="none" stroke="#000000" d="M78.0816,-147.6141C81.3627,-146.2352 84.716,-144.9861 88,-144 202.5338,-109.6084 241.4976,-138.8652 361.3713,-107.6938"/>
<polygon fill="#000000" stroke="#000000" points="362.5436,-111.003 371.2914,-105.0259 360.7256,-104.2431 362.5436,-111.003"/>
<g id="a_edge4&#45;headlabel"><a xlink:href="dir_000035_000036.html" target="_top" xlink:title="1">
<text text-anchor="middle" x="359.8097" y="-112.1783" font-family="Helvetica,sans-Serif" font-size="10.00" fill="#000000">1</text>
</a>
</g>
</g>
<!-- dir_4261af1259721e3e39e0d2dd7354b511&#45;&gt;dir_d0537398ec3fe72d8d4f5c6709d28acc -->
<g id="edge1" class="edge">
<title>dir_4261af1259721e3e39e0d2dd7354b511&#45;&gt;dir_d0537398ec3fe72d8d4f5c6709d28acc</title>
<path fill="none" stroke="#000000" d="M236.0837,-71.8314C227.6558,-63.2848 217.459,-52.9443 208.264,-43.6198"/>
<polygon fill="#000000" stroke="#000000" points="210.6711,-41.0761 201.1575,-36.4133 205.6869,-45.9912 210.6711,-41.0761"/>
<g id="a_edge1&#45;headlabel"><a xlink:href="dir_000007_000004.html" target="_top" xlink:title="1">
<text text-anchor="middle" x="215.2167" y="-39.142" font-family="Helvetica,sans-Serif" font-size="10.00" fill="#000000">1</text>
</a>
</g>
</g>
</g>
</svg>
