<?xml version="1.0" encoding="UTF-8" standalone="no"?>
<!DOCTYPE svg PUBLIC "-//W3C//DTD SVG 1.1//EN"
 "http://www.w3.org/Graphics/SVG/1.1/DTD/svg11.dtd">
<!-- Generated by graphviz version 2.40.1 (20161225.0304)
 -->
<!-- Title: /home/pieter/GitHub/EAGLE&#45;ZYBO&#45;Linux/src/comm Pages: 1 -->
<svg width="254pt" height="159pt"
 viewBox="0.00 0.00 254.00 159.00" xmlns="http://www.w3.org/2000/svg" xmlns:xlink="http://www.w3.org/1999/xlink">
<g id="graph0" class="graph" transform="scale(1 1) rotate(0) translate(4 155)">
<title>/home/pieter/GitHub/EAGLE&#45;ZYBO&#45;Linux/src/comm</title>
<polygon fill="#ffffff" stroke="transparent" points="-4,4 -4,-155 250,-155 250,4 -4,4"/>
<g id="clust1" class="cluster">
<title>clusterdir_68267d1309a1af8e8297ef4c3efbcdba</title>
<g id="a_clust1"><a xlink:href="dir_68267d1309a1af8e8297ef4c3efbcdba.html" target="_top" xlink:title="src">
<polygon fill="#ddddee" stroke="#000000" points="8,-56 8,-143 238,-143 238,-56 8,-56"/>
<text text-anchor="middle" x="123" y="-131" font-family="Helvetica,sans-Serif" font-size="10.00" fill="#000000">src</text>
</a>
</g>
</g>
<g id="clust2" class="cluster">
<title>clusterdir_d0537398ec3fe72d8d4f5c6709d28acc</title>
<g id="a_clust2"><a xlink:href="dir_d0537398ec3fe72d8d4f5c6709d28acc.html" target="_top">
<polygon fill="#eeeeff" stroke="#000000" points="16,-64 16,-116 230,-116 230,-64 16,-64"/>
</a>
</g>
</g>
<!-- dir_d0537398ec3fe72d8d4f5c6709d28acc -->
<g id="node1" class="node">
<title>dir_d0537398ec3fe72d8d4f5c6709d28acc</title>
<text text-anchor="middle" x="195" y="-87.5" font-family="Helvetica,sans-Serif" font-size="10.00" fill="#000000">comm</text>
</g>
<!-- dir_225aa3d730566d390ed41d5f871c6b76 -->
<g id="node2" class="node">
<title>dir_225aa3d730566d390ed41d5f871c6b76</title>
<g id="a_node2"><a xlink:href="dir_225aa3d730566d390ed41d5f871c6b76.html" target="_top" xlink:title="include">
<polygon fill="#ffffff" stroke="#000000" points="150,-108 96,-108 96,-72 150,-72 150,-108"/>
<text text-anchor="middle" x="123" y="-87.5" font-family="Helvetica,sans-Serif" font-size="10.00" fill="#000000">include</text>
</a>
</g>
</g>
<!-- dir_7b5d38f1875f1b693f62ca6a108a1129 -->
<g id="node4" class="node">
<title>dir_7b5d38f1875f1b693f62ca6a108a1129</title>
<g id="a_node4"><a xlink:href="dir_7b5d38f1875f1b693f62ca6a108a1129.html" target="_top" xlink:title="utilities">
<polygon fill="#ffffff" stroke="#ff0000" points="150,-36 96,-36 96,0 150,0 150,-36"/>
<text text-anchor="middle" x="123" y="-15.5" font-family="Helvetica,sans-Serif" font-size="10.00" fill="#000000">utilities</text>
</a>
</g>
</g>
<!-- dir_225aa3d730566d390ed41d5f871c6b76&#45;&gt;dir_7b5d38f1875f1b693f62ca6a108a1129 -->
<g id="edge1" class="edge">
<title>dir_225aa3d730566d390ed41d5f871c6b76&#45;&gt;dir_7b5d38f1875f1b693f62ca6a108a1129</title>
<path fill="none" stroke="#000000" d="M123,-71.8314C123,-64.131 123,-54.9743 123,-46.4166"/>
<polygon fill="#000000" stroke="#000000" points="126.5001,-46.4132 123,-36.4133 119.5001,-46.4133 126.5001,-46.4132"/>
<g id="a_edge1&#45;headlabel"><a xlink:href="dir_000004_000041.html" target="_top" xlink:title="1">
<text text-anchor="middle" x="129.3393" y="-47.5079" font-family="Helvetica,sans-Serif" font-size="10.00" fill="#000000">1</text>
</a>
</g>
</g>
<!-- dir_ea75abf3b3fed6afa1ed679bc85cdcb2 -->
<g id="node3" class="node">
<title>dir_ea75abf3b3fed6afa1ed679bc85cdcb2</title>
<g id="a_node3"><a xlink:href="dir_ea75abf3b3fed6afa1ed679bc85cdcb2.html" target="_top" xlink:title="src">
<polygon fill="#ffffff" stroke="#000000" points="78,-108 24,-108 24,-72 78,-72 78,-108"/>
<text text-anchor="middle" x="51" y="-87.5" font-family="Helvetica,sans-Serif" font-size="10.00" fill="#000000">src</text>
</a>
</g>
</g>
</g>
</svg>
