<?xml version="1.0" encoding="UTF-8" standalone="no"?>
<!DOCTYPE svg PUBLIC "-//W3C//DTD SVG 1.1//EN"
 "http://www.w3.org/Graphics/SVG/1.1/DTD/svg11.dtd">
<!-- Generated by graphviz version 2.40.1 (20161225.0304)
 -->
<!-- Title: /home/pieter/GitHub/EAGLE&#45;ZYBO&#45;Linux/src/grid&#45;finder/include Pages: 1 -->
<svg width="206pt" height="151pt"
 viewBox="0.00 0.00 206.00 151.00" xmlns="http://www.w3.org/2000/svg" xmlns:xlink="http://www.w3.org/1999/xlink">
<g id="graph0" class="graph" transform="scale(1 1) rotate(0) translate(4 147)">
<title>/home/pieter/GitHub/EAGLE&#45;ZYBO&#45;Linux/src/grid&#45;finder/include</title>
<polygon fill="#ffffff" stroke="transparent" points="-4,4 -4,-147 202,-147 202,4 -4,4"/>
<g id="clust1" class="cluster">
<title>clusterdir_920a55bcfa35c5c1cf06a9da66085a54</title>
<g id="a_clust1"><a xlink:href="dir_920a55bcfa35c5c1cf06a9da66085a54.html" target="_top" xlink:title="grid&#45;finder">
<polygon fill="#ddddee" stroke="#000000" points="64,-64 64,-135 134,-135 134,-64 64,-64"/>
<text text-anchor="middle" x="99" y="-123" font-family="Helvetica,sans-Serif" font-size="10.00" fill="#000000">grid&#45;finder</text>
</a>
</g>
</g>
<!-- dir_afa3d1259580e3936d4bca43dab30921 -->
<g id="node1" class="node">
<title>dir_afa3d1259580e3936d4bca43dab30921</title>
<g id="a_node1"><a xlink:href="dir_afa3d1259580e3936d4bca43dab30921.html" target="_top" xlink:title="include">
<polygon fill="#eeeeff" stroke="#000000" points="126,-108 72,-108 72,-72 126,-72 126,-108"/>
<text text-anchor="middle" x="99" y="-87.5" font-family="Helvetica,sans-Serif" font-size="10.00" fill="#000000">include</text>
</a>
</g>
</g>
<!-- dir_40d7732de2983c682bb99d86585a563c -->
<g id="node2" class="node">
<title>dir_40d7732de2983c682bb99d86585a563c</title>
<g id="a_node2"><a xlink:href="dir_40d7732de2983c682bb99d86585a563c.html" target="_top" xlink:title="matrix">
<polygon fill="#ffffff" stroke="#ff0000" points="54,-36 0,-36 0,0 54,0 54,-36"/>
<text text-anchor="middle" x="27" y="-15.5" font-family="Helvetica,sans-Serif" font-size="10.00" fill="#000000">matrix</text>
</a>
</g>
</g>
<!-- dir_afa3d1259580e3936d4bca43dab30921&#45;&gt;dir_40d7732de2983c682bb99d86585a563c -->
<g id="edge1" class="edge">
<title>dir_afa3d1259580e3936d4bca43dab30921&#45;&gt;dir_40d7732de2983c682bb99d86585a563c</title>
<path fill="none" stroke="#000000" d="M80.8314,-71.8314C72.2848,-63.2848 61.9443,-52.9443 52.6198,-43.6198"/>
<polygon fill="#000000" stroke="#000000" points="54.9592,-41.0095 45.4133,-36.4133 50.0095,-45.9592 54.9592,-41.0095"/>
<g id="a_edge1&#45;headlabel"><a xlink:href="dir_000011_000021.html" target="_top" xlink:title="2">
<text text-anchor="middle" x="59.5087" y="-39.0436" font-family="Helvetica,sans-Serif" font-size="10.00" fill="#000000">2</text>
</a>
</g>
</g>
<!-- dir_7b5d38f1875f1b693f62ca6a108a1129 -->
<g id="node3" class="node">
<title>dir_7b5d38f1875f1b693f62ca6a108a1129</title>
<g id="a_node3"><a xlink:href="dir_7b5d38f1875f1b693f62ca6a108a1129.html" target="_top" xlink:title="utilities">
<polygon fill="#ffffff" stroke="#ff0000" points="126,-36 72,-36 72,0 126,0 126,-36"/>
<text text-anchor="middle" x="99" y="-15.5" font-family="Helvetica,sans-Serif" font-size="10.00" fill="#000000">utilities</text>
</a>
</g>
</g>
<!-- dir_afa3d1259580e3936d4bca43dab30921&#45;&gt;dir_7b5d38f1875f1b693f62ca6a108a1129 -->
<g id="edge2" class="edge">
<title>dir_afa3d1259580e3936d4bca43dab30921&#45;&gt;dir_7b5d38f1875f1b693f62ca6a108a1129</title>
<path fill="none" stroke="#000000" d="M99,-71.8314C99,-64.131 99,-54.9743 99,-46.4166"/>
<polygon fill="#000000" stroke="#000000" points="102.5001,-46.4132 99,-36.4133 95.5001,-46.4133 102.5001,-46.4132"/>
<g id="a_edge2&#45;headlabel"><a xlink:href="dir_000011_000031.html" target="_top" xlink:title="3">
<text text-anchor="middle" x="105.3393" y="-47.5079" font-family="Helvetica,sans-Serif" font-size="10.00" fill="#000000">3</text>
</a>
</g>
</g>
<!-- dir_d2da34f738933fa17ec589dd95f08c72 -->
<g id="node4" class="node">
<title>dir_d2da34f738933fa17ec589dd95f08c72</title>
<g id="a_node4"><a xlink:href="dir_d2da34f738933fa17ec589dd95f08c72.html" target="_top" xlink:title="mask">
<polygon fill="#ffffff" stroke="#ff0000" points="198,-36 144,-36 144,0 198,0 198,-36"/>
<text text-anchor="middle" x="171" y="-15.5" font-family="Helvetica,sans-Serif" font-size="10.00" fill="#000000">mask</text>
</a>
</g>
</g>
<!-- dir_afa3d1259580e3936d4bca43dab30921&#45;&gt;dir_d2da34f738933fa17ec589dd95f08c72 -->
<g id="edge3" class="edge">
<title>dir_afa3d1259580e3936d4bca43dab30921&#45;&gt;dir_d2da34f738933fa17ec589dd95f08c72</title>
<path fill="none" stroke="#000000" d="M117.1686,-71.8314C125.7152,-63.2848 136.0557,-52.9443 145.3802,-43.6198"/>
<polygon fill="#000000" stroke="#000000" points="147.9905,-45.9592 152.5867,-36.4133 143.0408,-41.0095 147.9905,-45.9592"/>
<g id="a_edge3&#45;headlabel"><a xlink:href="dir_000011_000018.html" target="_top" xlink:title="1">
<text text-anchor="middle" x="147.4564" y="-48.0087" font-family="Helvetica,sans-Serif" font-size="10.00" fill="#000000">1</text>
</a>
</g>
</g>
</g>
</svg>
