<?xml version="1.0" encoding="UTF-8" standalone="no"?>
<!DOCTYPE svg PUBLIC "-//W3C//DTD SVG 1.1//EN"
 "http://www.w3.org/Graphics/SVG/1.1/DTD/svg11.dtd">
<!-- Generated by graphviz version 2.40.1 (20161225.0304)
 -->
<!-- Title: /home/pieter/GitHub/EAGLE&#45;ZYBO&#45;Linux/src Pages: 1 -->
<svg width="488pt" height="292pt"
 viewBox="0.00 0.00 488.00 292.00" xmlns="http://www.w3.org/2000/svg" xmlns:xlink="http://www.w3.org/1999/xlink">
<g id="graph0" class="graph" transform="scale(1 1) rotate(0) translate(4 288)">
<title>/home/pieter/GitHub/EAGLE&#45;ZYBO&#45;Linux/src</title>
<polygon fill="#ffffff" stroke="transparent" points="-4,4 -4,-288 484,-288 484,4 -4,4"/>
<g id="clust1" class="cluster">
<title>clusterdir_68267d1309a1af8e8297ef4c3efbcdba</title>
<g id="a_clust1"><a xlink:href="dir_68267d1309a1af8e8297ef4c3efbcdba.html" target="_top">
<polygon fill="#eeeeff" stroke="#000000" points="8,-8 8,-276 472,-276 472,-8 8,-8"/>
</a>
</g>
</g>
<!-- dir_68267d1309a1af8e8297ef4c3efbcdba -->
<g id="node1" class="node">
<title>dir_68267d1309a1af8e8297ef4c3efbcdba</title>
<text text-anchor="middle" x="437" y="-247.5" font-family="Helvetica,sans-Serif" font-size="10.00" fill="#000000">src</text>
</g>
<!-- dir_9ab17fd7f07b28ef7164bcc825435f04 -->
<g id="node2" class="node">
<title>dir_9ab17fd7f07b28ef7164bcc825435f04</title>
<g id="a_node2"><a xlink:href="dir_9ab17fd7f07b28ef7164bcc825435f04.html" target="_top" xlink:title="base64">
<polygon fill="#ffffff" stroke="#ff0000" points="70,-196 16,-196 16,-160 70,-160 70,-196"/>
<text text-anchor="middle" x="43" y="-175.5" font-family="Helvetica,sans-Serif" font-size="10.00" fill="#000000">base64</text>
</a>
</g>
</g>
<!-- dir_d0537398ec3fe72d8d4f5c6709d28acc -->
<g id="node3" class="node">
<title>dir_d0537398ec3fe72d8d4f5c6709d28acc</title>
<g id="a_node3"><a xlink:href="dir_d0537398ec3fe72d8d4f5c6709d28acc.html" target="_top" xlink:title="comm">
<polygon fill="#ffffff" stroke="#ff0000" points="214,-124 160,-124 160,-88 214,-88 214,-124"/>
<text text-anchor="middle" x="187" y="-103.5" font-family="Helvetica,sans-Serif" font-size="10.00" fill="#000000">comm</text>
</a>
</g>
</g>
<!-- dir_7b5d38f1875f1b693f62ca6a108a1129 -->
<g id="node16" class="node">
<title>dir_7b5d38f1875f1b693f62ca6a108a1129</title>
<g id="a_node16"><a xlink:href="dir_7b5d38f1875f1b693f62ca6a108a1129.html" target="_top" xlink:title="utilities">
<polygon fill="#ffffff" stroke="#ff0000" points="214,-52 160,-52 160,-16 214,-16 214,-52"/>
<text text-anchor="middle" x="187" y="-31.5" font-family="Helvetica,sans-Serif" font-size="10.00" fill="#000000">utilities</text>
</a>
</g>
</g>
<!-- dir_d0537398ec3fe72d8d4f5c6709d28acc&#45;&gt;dir_7b5d38f1875f1b693f62ca6a108a1129 -->
<g id="edge10" class="edge">
<title>dir_d0537398ec3fe72d8d4f5c6709d28acc&#45;&gt;dir_7b5d38f1875f1b693f62ca6a108a1129</title>
<path fill="none" stroke="#000000" d="M187,-87.8314C187,-80.131 187,-70.9743 187,-62.4166"/>
<polygon fill="#000000" stroke="#000000" points="190.5001,-62.4132 187,-52.4133 183.5001,-62.4133 190.5001,-62.4132"/>
<g id="a_edge10&#45;headlabel"><a xlink:href="dir_000004_000039.html" target="_top" xlink:title="1">
<text text-anchor="middle" x="193.3393" y="-63.5079" font-family="Helvetica,sans-Serif" font-size="10.00" fill="#000000">1</text>
</a>
</g>
</g>
<!-- dir_4261af1259721e3e39e0d2dd7354b511 -->
<g id="node4" class="node">
<title>dir_4261af1259721e3e39e0d2dd7354b511</title>
<g id="a_node4"><a xlink:href="dir_4261af1259721e3e39e0d2dd7354b511.html" target="_top" xlink:title="crypto">
<polygon fill="#ffffff" stroke="#ff0000" points="142,-196 88,-196 88,-160 142,-160 142,-196"/>
<text text-anchor="middle" x="115" y="-175.5" font-family="Helvetica,sans-Serif" font-size="10.00" fill="#000000">crypto</text>
</a>
</g>
</g>
<!-- dir_4261af1259721e3e39e0d2dd7354b511&#45;&gt;dir_d0537398ec3fe72d8d4f5c6709d28acc -->
<g id="edge2" class="edge">
<title>dir_4261af1259721e3e39e0d2dd7354b511&#45;&gt;dir_d0537398ec3fe72d8d4f5c6709d28acc</title>
<path fill="none" stroke="#000000" d="M133.1686,-159.8314C141.7152,-151.2848 152.0557,-140.9443 161.3802,-131.6198"/>
<polygon fill="#000000" stroke="#000000" points="163.9905,-133.9592 168.5867,-124.4133 159.0408,-129.0095 163.9905,-133.9592"/>
<g id="a_edge2&#45;headlabel"><a xlink:href="dir_000007_000004.html" target="_top" xlink:title="1">
<text text-anchor="middle" x="163.4564" y="-136.0087" font-family="Helvetica,sans-Serif" font-size="10.00" fill="#000000">1</text>
</a>
</g>
</g>
<!-- dir_4261af1259721e3e39e0d2dd7354b511&#45;&gt;dir_7b5d38f1875f1b693f62ca6a108a1129 -->
<g id="edge1" class="edge">
<title>dir_4261af1259721e3e39e0d2dd7354b511&#45;&gt;dir_7b5d38f1875f1b693f62ca6a108a1129</title>
<path fill="none" stroke="#000000" d="M120.9822,-159.9232C127.3995,-141.3939 138.3864,-111.9789 151,-88 155.8275,-78.8228 161.8366,-69.2651 167.5539,-60.7865"/>
<polygon fill="#000000" stroke="#000000" points="170.5412,-62.62 173.3445,-52.4027 164.7815,-58.6418 170.5412,-62.62"/>
<g id="a_edge1&#45;headlabel"><a xlink:href="dir_000007_000039.html" target="_top" xlink:title="1">
<text text-anchor="middle" x="170.8346" y="-64.6912" font-family="Helvetica,sans-Serif" font-size="10.00" fill="#000000">1</text>
</a>
</g>
</g>
<!-- dir_9f42a264daae6f1215a4a8774a60c231 -->
<g id="node5" class="node">
<title>dir_9f42a264daae6f1215a4a8774a60c231</title>
<g id="a_node5"><a xlink:href="dir_9f42a264daae6f1215a4a8774a60c231.html" target="_top" xlink:title="greet">
<polygon fill="#ffffff" stroke="#ff0000" points="392,-268 338,-268 338,-232 392,-232 392,-268"/>
<text text-anchor="middle" x="365" y="-247.5" font-family="Helvetica,sans-Serif" font-size="10.00" fill="#000000">greet</text>
</a>
</g>
</g>
<!-- dir_920a55bcfa35c5c1cf06a9da66085a54 -->
<g id="node6" class="node">
<title>dir_920a55bcfa35c5c1cf06a9da66085a54</title>
<g id="a_node6"><a xlink:href="dir_920a55bcfa35c5c1cf06a9da66085a54.html" target="_top" xlink:title="grid&#45;finder">
<polygon fill="#ffffff" stroke="#ff0000" points="400.5,-124 333.5,-124 333.5,-88 400.5,-88 400.5,-124"/>
<text text-anchor="middle" x="367" y="-103.5" font-family="Helvetica,sans-Serif" font-size="10.00" fill="#000000">grid&#45;finder</text>
</a>
</g>
</g>
<!-- dir_d2da34f738933fa17ec589dd95f08c72 -->
<g id="node10" class="node">
<title>dir_d2da34f738933fa17ec589dd95f08c72</title>
<g id="a_node10"><a xlink:href="dir_d2da34f738933fa17ec589dd95f08c72.html" target="_top" xlink:title="mask">
<polygon fill="#ffffff" stroke="#ff0000" points="394,-52 340,-52 340,-16 394,-16 394,-52"/>
<text text-anchor="middle" x="367" y="-31.5" font-family="Helvetica,sans-Serif" font-size="10.00" fill="#000000">mask</text>
</a>
</g>
</g>
<!-- dir_920a55bcfa35c5c1cf06a9da66085a54&#45;&gt;dir_d2da34f738933fa17ec589dd95f08c72 -->
<g id="edge5" class="edge">
<title>dir_920a55bcfa35c5c1cf06a9da66085a54&#45;&gt;dir_d2da34f738933fa17ec589dd95f08c72</title>
<path fill="none" stroke="#000000" d="M361.0476,-87.8314C360.2972,-80.131 360.0763,-70.9743 360.3849,-62.4166"/>
<polygon fill="#000000" stroke="#000000" points="363.8792,-62.6161 361.024,-52.4133 356.8935,-62.1697 363.8792,-62.6161"/>
<g id="a_edge5&#45;headlabel"><a xlink:href="dir_000013_000023.html" target="_top" xlink:title="1">
<text text-anchor="middle" x="366.4836" y="-63.8844" font-family="Helvetica,sans-Serif" font-size="10.00" fill="#000000">1</text>
</a>
</g>
</g>
<!-- dir_40d7732de2983c682bb99d86585a563c -->
<g id="node11" class="node">
<title>dir_40d7732de2983c682bb99d86585a563c</title>
<g id="a_node11"><a xlink:href="dir_40d7732de2983c682bb99d86585a563c.html" target="_top" xlink:title="matrix">
<polygon fill="#ffffff" stroke="#ff0000" points="316,-52 262,-52 262,-16 316,-16 316,-52"/>
<text text-anchor="middle" x="289" y="-31.5" font-family="Helvetica,sans-Serif" font-size="10.00" fill="#000000">matrix</text>
</a>
</g>
</g>
<!-- dir_920a55bcfa35c5c1cf06a9da66085a54&#45;&gt;dir_40d7732de2983c682bb99d86585a563c -->
<g id="edge3" class="edge">
<title>dir_920a55bcfa35c5c1cf06a9da66085a54&#45;&gt;dir_40d7732de2983c682bb99d86585a563c</title>
<path fill="none" stroke="#000000" d="M347.3173,-87.8314C337.8949,-79.1337 326.4599,-68.5783 316.2204,-59.1265"/>
<polygon fill="#000000" stroke="#000000" points="318.3984,-56.3738 308.6764,-52.1628 313.6505,-61.5175 318.3984,-56.3738"/>
<g id="a_edge3&#45;headlabel"><a xlink:href="dir_000013_000026.html" target="_top" xlink:title="2">
<text text-anchor="middle" x="322.9656" y="-54.2257" font-family="Helvetica,sans-Serif" font-size="10.00" fill="#000000">2</text>
</a>
</g>
</g>
<!-- dir_920a55bcfa35c5c1cf06a9da66085a54&#45;&gt;dir_7b5d38f1875f1b693f62ca6a108a1129 -->
<g id="edge4" class="edge">
<title>dir_920a55bcfa35c5c1cf06a9da66085a54&#45;&gt;dir_7b5d38f1875f1b693f62ca6a108a1129</title>
<path fill="none" stroke="#000000" d="M333.113,-91.3672C330.3726,-90.2173 327.6426,-89.083 325,-88 290.7151,-73.9495 251.33,-58.6174 223.4342,-47.8925"/>
<polygon fill="#000000" stroke="#000000" points="224.6636,-44.6155 214.0734,-44.3008 222.1559,-51.1509 224.6636,-44.6155"/>
<g id="a_edge4&#45;headlabel"><a xlink:href="dir_000013_000039.html" target="_top" xlink:title="3">
<text text-anchor="middle" x="229.0367" y="-40.7523" font-family="Helvetica,sans-Serif" font-size="10.00" fill="#000000">3</text>
</a>
</g>
</g>
<!-- dir_8f9e3926995673004d1bb228b2422cc7 -->
<g id="node7" class="node">
<title>dir_8f9e3926995673004d1bb228b2422cc7</title>
<g id="a_node7"><a xlink:href="dir_8f9e3926995673004d1bb228b2422cc7.html" target="_top" xlink:title="location&#45;finder">
<polygon fill="#ffffff" stroke="#ff0000" points="463.5,-196 376.5,-196 376.5,-160 463.5,-160 463.5,-196"/>
<text text-anchor="middle" x="420" y="-175.5" font-family="Helvetica,sans-Serif" font-size="10.00" fill="#000000">location&#45;finder</text>
</a>
</g>
</g>
<!-- dir_8f9e3926995673004d1bb228b2422cc7&#45;&gt;dir_920a55bcfa35c5c1cf06a9da66085a54 -->
<g id="edge8" class="edge">
<title>dir_8f9e3926995673004d1bb228b2422cc7&#45;&gt;dir_920a55bcfa35c5c1cf06a9da66085a54</title>
<path fill="none" stroke="#000000" d="M406.6259,-159.8314C400.5838,-151.6232 393.3237,-141.7606 386.6779,-132.7323"/>
<polygon fill="#000000" stroke="#000000" points="389.3011,-130.3918 380.5542,-124.4133 383.6637,-134.5415 389.3011,-130.3918"/>
<g id="a_edge8&#45;headlabel"><a xlink:href="dir_000015_000013.html" target="_top" xlink:title="4">
<text text-anchor="middle" x="393.7186" y="-129.1035" font-family="Helvetica,sans-Serif" font-size="10.00" fill="#000000">4</text>
</a>
</g>
</g>
<!-- dir_8f9e3926995673004d1bb228b2422cc7&#45;&gt;dir_d2da34f738933fa17ec589dd95f08c72 -->
<g id="edge9" class="edge">
<title>dir_8f9e3926995673004d1bb228b2422cc7&#45;&gt;dir_d2da34f738933fa17ec589dd95f08c72</title>
<path fill="none" stroke="#000000" d="M420.8815,-159.6821C421.1245,-140.9608 419.6597,-111.3953 410,-88 405.8837,-78.0306 399.3471,-68.3967 392.6006,-60.0946"/>
<polygon fill="#000000" stroke="#000000" points="395.0434,-57.5676 385.8661,-52.2734 389.7389,-62.1351 395.0434,-57.5676"/>
<g id="a_edge9&#45;headlabel"><a xlink:href="dir_000015_000023.html" target="_top" xlink:title="1">
<text text-anchor="middle" x="399.5404" y="-55.9389" font-family="Helvetica,sans-Serif" font-size="10.00" fill="#000000">1</text>
</a>
</g>
</g>
<!-- dir_d471c9e7d7d2cd1463b667d184ac6f80 -->
<g id="node8" class="node">
<title>dir_d471c9e7d7d2cd1463b667d184ac6f80</title>
<g id="a_node8"><a xlink:href="dir_d471c9e7d7d2cd1463b667d184ac6f80.html" target="_top" xlink:title="logentry">
<polygon fill="#ffffff" stroke="#ff0000" points="319.5,-268 262.5,-268 262.5,-232 319.5,-232 319.5,-268"/>
<text text-anchor="middle" x="291" y="-247.5" font-family="Helvetica,sans-Serif" font-size="10.00" fill="#000000">logentry</text>
</a>
</g>
</g>
<!-- dir_ffde1fbcaa8d6b0d34e29c3bddf7a801 -->
<g id="node9" class="node">
<title>dir_ffde1fbcaa8d6b0d34e29c3bddf7a801</title>
<g id="a_node9"><a xlink:href="dir_ffde1fbcaa8d6b0d34e29c3bddf7a801.html" target="_top" xlink:title="logger">
<polygon fill="#ffffff" stroke="#ff0000" points="214,-196 160,-196 160,-160 214,-160 214,-196"/>
<text text-anchor="middle" x="187" y="-175.5" font-family="Helvetica,sans-Serif" font-size="10.00" fill="#000000">logger</text>
</a>
</g>
</g>
<!-- dir_ffde1fbcaa8d6b0d34e29c3bddf7a801&#45;&gt;dir_d0537398ec3fe72d8d4f5c6709d28acc -->
<g id="edge6" class="edge">
<title>dir_ffde1fbcaa8d6b0d34e29c3bddf7a801&#45;&gt;dir_d0537398ec3fe72d8d4f5c6709d28acc</title>
<path fill="none" stroke="#000000" d="M187,-159.8314C187,-152.131 187,-142.9743 187,-134.4166"/>
<polygon fill="#000000" stroke="#000000" points="190.5001,-134.4132 187,-124.4133 183.5001,-134.4133 190.5001,-134.4132"/>
<g id="a_edge6&#45;headlabel"><a xlink:href="dir_000020_000004.html" target="_top" xlink:title="2">
<text text-anchor="middle" x="193.3393" y="-135.5079" font-family="Helvetica,sans-Serif" font-size="10.00" fill="#000000">2</text>
</a>
</g>
</g>
<!-- dir_d2da34f738933fa17ec589dd95f08c72&#45;&gt;dir_920a55bcfa35c5c1cf06a9da66085a54 -->
<g id="edge11" class="edge">
<title>dir_d2da34f738933fa17ec589dd95f08c72&#45;&gt;dir_920a55bcfa35c5c1cf06a9da66085a54</title>
<path fill="none" stroke="#000000" d="M372.976,-52.4133C373.7071,-60.0593 373.9203,-69.1084 373.6155,-77.5726"/>
<polygon fill="#000000" stroke="#000000" points="370.1048,-77.6264 372.9524,-87.8314 377.0902,-78.078 370.1048,-77.6264"/>
<g id="a_edge11&#45;headlabel"><a xlink:href="dir_000023_000013.html" target="_top" xlink:title="1">
<text text-anchor="middle" x="367.5032" y="-71.3562" font-family="Helvetica,sans-Serif" font-size="10.00" fill="#000000">1</text>
</a>
</g>
</g>
<!-- dir_78013b9138429c0bcb36eab7f16ba065 -->
<g id="node12" class="node">
<title>dir_78013b9138429c0bcb36eab7f16ba065</title>
<g id="a_node12"><a xlink:href="dir_78013b9138429c0bcb36eab7f16ba065.html" target="_top" xlink:title="py&#45;grid&#45;finder">
<polygon fill="#ffffff" stroke="#ff0000" points="244.5,-268 161.5,-268 161.5,-232 244.5,-232 244.5,-268"/>
<text text-anchor="middle" x="203" y="-247.5" font-family="Helvetica,sans-Serif" font-size="10.00" fill="#000000">py&#45;grid&#45;finder</text>
</a>
</g>
</g>
<!-- dir_78013b9138429c0bcb36eab7f16ba065&#45;&gt;dir_920a55bcfa35c5c1cf06a9da66085a54 -->
<g id="edge16" class="edge">
<title>dir_78013b9138429c0bcb36eab7f16ba065&#45;&gt;dir_920a55bcfa35c5c1cf06a9da66085a54</title>
<path fill="none" stroke="#000000" d="M244.66,-233.944C278.8279,-220.4821 322.5804,-202.4542 329,-196 345.83,-179.0792 355.6392,-153.569 361.0609,-134.0237"/>
<polygon fill="#000000" stroke="#000000" points="364.4997,-134.7024 363.5743,-124.148 357.716,-132.9759 364.4997,-134.7024"/>
<g id="a_edge16&#45;headlabel"><a xlink:href="dir_000028_000013.html" target="_top" xlink:title="3">
<text text-anchor="middle" x="366.3648" y="-136.3862" font-family="Helvetica,sans-Serif" font-size="10.00" fill="#000000">3</text>
</a>
</g>
</g>
<!-- dir_78013b9138429c0bcb36eab7f16ba065&#45;&gt;dir_8f9e3926995673004d1bb228b2422cc7 -->
<g id="edge18" class="edge">
<title>dir_78013b9138429c0bcb36eab7f16ba065&#45;&gt;dir_8f9e3926995673004d1bb228b2422cc7</title>
<path fill="none" stroke="#000000" d="M244.7193,-235.1809C247.8568,-234.0954 250.9766,-233.0251 254,-232 291.4549,-219.3004 333.8602,-205.516 366.4359,-195.0528"/>
<polygon fill="#000000" stroke="#000000" points="367.7601,-198.3038 376.2136,-191.9172 365.6225,-191.6382 367.7601,-198.3038"/>
<g id="a_edge18&#45;headlabel"><a xlink:href="dir_000028_000015.html" target="_top" xlink:title="1">
<text text-anchor="middle" x="365.2043" y="-199.6051" font-family="Helvetica,sans-Serif" font-size="10.00" fill="#000000">1</text>
</a>
</g>
</g>
<!-- dir_e933f813a55dc21e057ace61f7557bd3 -->
<g id="node13" class="node">
<title>dir_e933f813a55dc21e057ace61f7557bd3</title>
<g id="a_node13"><a xlink:href="dir_e933f813a55dc21e057ace61f7557bd3.html" target="_top" xlink:title="py&#45;matrix">
<polygon fill="#ffffff" stroke="#ff0000" points="315.5,-124 250.5,-124 250.5,-88 315.5,-88 315.5,-124"/>
<text text-anchor="middle" x="283" y="-103.5" font-family="Helvetica,sans-Serif" font-size="10.00" fill="#000000">py&#45;matrix</text>
</a>
</g>
</g>
<!-- dir_78013b9138429c0bcb36eab7f16ba065&#45;&gt;dir_e933f813a55dc21e057ace61f7557bd3 -->
<g id="edge17" class="edge">
<title>dir_78013b9138429c0bcb36eab7f16ba065&#45;&gt;dir_e933f813a55dc21e057ace61f7557bd3</title>
<path fill="none" stroke="#000000" d="M244.6174,-233.7017C277.0609,-220.5774 317.3764,-203.1755 322,-196 335.0163,-175.7997 321.8317,-150.522 307.3769,-131.9027"/>
<polygon fill="#000000" stroke="#000000" points="310.0177,-129.6037 300.9571,-124.1123 304.6156,-134.0554 310.0177,-129.6037"/>
<g id="a_edge17&#45;headlabel"><a xlink:href="dir_000028_000031.html" target="_top" xlink:title="1">
<text text-anchor="middle" x="314.4948" y="-128.0722" font-family="Helvetica,sans-Serif" font-size="10.00" fill="#000000">1</text>
</a>
</g>
</g>
<!-- dir_e933f813a55dc21e057ace61f7557bd3&#45;&gt;dir_40d7732de2983c682bb99d86585a563c -->
<g id="edge7" class="edge">
<title>dir_e933f813a55dc21e057ace61f7557bd3&#45;&gt;dir_40d7732de2983c682bb99d86585a563c</title>
<path fill="none" stroke="#000000" d="M284.5141,-87.8314C285.1558,-80.131 285.9188,-70.9743 286.6319,-62.4166"/>
<polygon fill="#000000" stroke="#000000" points="290.1229,-62.6694 287.4656,-52.4133 283.1471,-62.088 290.1229,-62.6694"/>
<g id="a_edge7&#45;headlabel"><a xlink:href="dir_000031_000026.html" target="_top" xlink:title="1">
<text text-anchor="middle" x="292.654" y="-63.9874" font-family="Helvetica,sans-Serif" font-size="10.00" fill="#000000">1</text>
</a>
</g>
</g>
<!-- dir_2b5615639a780788a137586f580a6a22 -->
<g id="node14" class="node">
<title>dir_2b5615639a780788a137586f580a6a22</title>
<g id="a_node14"><a xlink:href="dir_2b5615639a780788a137586f580a6a22.html" target="_top" xlink:title="qr&#45;crypto&#45;manager">
<polygon fill="#ffffff" stroke="#ff0000" points="143.5,-268 36.5,-268 36.5,-232 143.5,-232 143.5,-268"/>
<text text-anchor="middle" x="90" y="-247.5" font-family="Helvetica,sans-Serif" font-size="10.00" fill="#000000">qr&#45;crypto&#45;manager</text>
</a>
</g>
</g>
<!-- dir_2b5615639a780788a137586f580a6a22&#45;&gt;dir_9ab17fd7f07b28ef7164bcc825435f04 -->
<g id="edge13" class="edge">
<title>dir_2b5615639a780788a137586f580a6a22&#45;&gt;dir_9ab17fd7f07b28ef7164bcc825435f04</title>
<path fill="none" stroke="#000000" d="M78.1399,-231.8314C72.8371,-223.7079 66.4763,-213.9637 60.6327,-205.0118"/>
<polygon fill="#000000" stroke="#000000" points="63.4169,-202.8739 55.0198,-196.4133 57.5552,-206.7003 63.4169,-202.8739"/>
<g id="a_edge13&#45;headlabel"><a xlink:href="dir_000033_000001.html" target="_top" xlink:title="1">
<text text-anchor="middle" x="67.7593" y="-201.8319" font-family="Helvetica,sans-Serif" font-size="10.00" fill="#000000">1</text>
</a>
</g>
</g>
<!-- dir_2b5615639a780788a137586f580a6a22&#45;&gt;dir_d0537398ec3fe72d8d4f5c6709d28acc -->
<g id="edge14" class="edge">
<title>dir_2b5615639a780788a137586f580a6a22&#45;&gt;dir_d0537398ec3fe72d8d4f5c6709d28acc</title>
<path fill="none" stroke="#000000" d="M143.5677,-234.5032C146.755,-233.6408 149.9171,-232.8002 153,-232 221.035,-214.3397 263.3193,-251.0694 307,-196 316.943,-183.4646 315.6875,-173.436 307,-160 297.4019,-145.1558 255.5575,-128.5255 223.9599,-117.6929"/>
<polygon fill="#000000" stroke="#000000" points="224.7088,-114.2525 214.1149,-114.3892 222.4818,-120.8888 224.7088,-114.2525"/>
<g id="a_edge14&#45;headlabel"><a xlink:href="dir_000033_000004.html" target="_top" xlink:title="2">
<text text-anchor="middle" x="229.0199" y="-110.2043" font-family="Helvetica,sans-Serif" font-size="10.00" fill="#000000">2</text>
</a>
</g>
</g>
<!-- dir_2b5615639a780788a137586f580a6a22&#45;&gt;dir_4261af1259721e3e39e0d2dd7354b511 -->
<g id="edge12" class="edge">
<title>dir_2b5615639a780788a137586f580a6a22&#45;&gt;dir_4261af1259721e3e39e0d2dd7354b511</title>
<path fill="none" stroke="#000000" d="M96.3086,-231.8314C99.0117,-224.0463 102.2316,-214.7729 105.231,-206.1347"/>
<polygon fill="#000000" stroke="#000000" points="108.6327,-207.0081 108.6065,-196.4133 102.02,-204.7119 108.6327,-207.0081"/>
<g id="a_edge12&#45;headlabel"><a xlink:href="dir_000033_000007.html" target="_top" xlink:title="1">
<text text-anchor="middle" x="110.1359" y="-208.8351" font-family="Helvetica,sans-Serif" font-size="10.00" fill="#000000">1</text>
</a>
</g>
</g>
<!-- dir_a6001fb970975ebb58a93b6f2462248e -->
<g id="node15" class="node">
<title>dir_a6001fb970975ebb58a93b6f2462248e</title>
<g id="a_node15"><a xlink:href="dir_a6001fb970975ebb58a93b6f2462248e.html" target="_top" xlink:title="qr&#45;decode">
<polygon fill="#ffffff" stroke="#ff0000" points="297.5,-196 232.5,-196 232.5,-160 297.5,-160 297.5,-196"/>
<text text-anchor="middle" x="265" y="-175.5" font-family="Helvetica,sans-Serif" font-size="10.00" fill="#000000">qr&#45;decode</text>
</a>
</g>
</g>
<!-- dir_2b5615639a780788a137586f580a6a22&#45;&gt;dir_a6001fb970975ebb58a93b6f2462248e -->
<g id="edge15" class="edge">
<title>dir_2b5615639a780788a137586f580a6a22&#45;&gt;dir_a6001fb970975ebb58a93b6f2462248e</title>
<path fill="none" stroke="#000000" d="M135.0289,-231.9675C160.8304,-221.5725 193.7911,-208.1874 223,-196 223.0961,-195.9599 223.1923,-195.9197 223.2886,-195.8795"/>
<polygon fill="#000000" stroke="#000000" points="224.6082,-199.1216 232.4668,-192.0158 221.8922,-192.67 224.6082,-199.1216"/>
<g id="a_edge15&#45;headlabel"><a xlink:href="dir_000033_000036.html" target="_top" xlink:title="1">
<text text-anchor="middle" x="222.3968" y="-200.6331" font-family="Helvetica,sans-Serif" font-size="10.00" fill="#000000">1</text>
</a>
</g>
</g>
</g>
</svg>
