<?xml version="1.0" encoding="UTF-8" standalone="no"?>
<!DOCTYPE svg PUBLIC "-//W3C//DTD SVG 1.1//EN"
 "http://www.w3.org/Graphics/SVG/1.1/DTD/svg11.dtd">
<!-- Generated by graphviz version 2.40.1 (20161225.0304)
 -->
<!-- Title: /home/pieter/GitHub/EAGLE&#45;ZYBO&#45;Linux/src/logger Pages: 1 -->
<svg width="198pt" height="303pt"
 viewBox="0.00 0.00 198.00 303.00" xmlns="http://www.w3.org/2000/svg" xmlns:xlink="http://www.w3.org/1999/xlink">
<g id="graph0" class="graph" transform="scale(1 1) rotate(0) translate(4 299)">
<title>/home/pieter/GitHub/EAGLE&#45;ZYBO&#45;Linux/src/logger</title>
<polygon fill="#ffffff" stroke="transparent" points="-4,4 -4,-299 194,-299 194,4 -4,4"/>
<g id="clust1" class="cluster">
<title>clusterdir_68267d1309a1af8e8297ef4c3efbcdba</title>
<g id="a_clust1"><a xlink:href="dir_68267d1309a1af8e8297ef4c3efbcdba.html" target="_top" xlink:title="src">
<polygon fill="#ddddee" stroke="#000000" points="24,-128 24,-287 182,-287 182,-128 24,-128"/>
<text text-anchor="middle" x="103" y="-275" font-family="Helvetica,sans-Serif" font-size="10.00" fill="#000000">src</text>
</a>
</g>
</g>
<g id="clust2" class="cluster">
<title>clusterdir_ffde1fbcaa8d6b0d34e29c3bddf7a801</title>
<g id="a_clust2"><a xlink:href="dir_ffde1fbcaa8d6b0d34e29c3bddf7a801.html" target="_top">
<polygon fill="#eeeeff" stroke="#000000" points="32,-136 32,-260 174,-260 174,-136 32,-136"/>
</a>
</g>
</g>
<!-- dir_ffde1fbcaa8d6b0d34e29c3bddf7a801 -->
<g id="node1" class="node">
<title>dir_ffde1fbcaa8d6b0d34e29c3bddf7a801</title>
<text text-anchor="middle" x="139" y="-231.5" font-family="Helvetica,sans-Serif" font-size="10.00" fill="#000000">logger</text>
</g>
<!-- dir_926e49a18849677eb7f09bd6efbd9682 -->
<g id="node2" class="node">
<title>dir_926e49a18849677eb7f09bd6efbd9682</title>
<g id="a_node2"><a xlink:href="dir_926e49a18849677eb7f09bd6efbd9682.html" target="_top" xlink:title="include">
<polygon fill="#ffffff" stroke="#000000" points="94,-180 40,-180 40,-144 94,-144 94,-180"/>
<text text-anchor="middle" x="67" y="-159.5" font-family="Helvetica,sans-Serif" font-size="10.00" fill="#000000">include</text>
</a>
</g>
</g>
<!-- dir_4fef79e7177ba769987a8da36c892c5f -->
<g id="node4" class="node">
<title>dir_4fef79e7177ba769987a8da36c892c5f</title>
<g id="a_node4"><a xlink:href="dir_4fef79e7177ba769987a8da36c892c5f.html" target="_top" xlink:title="build">
<polygon fill="#ffffff" stroke="#ff0000" points="54,-36 0,-36 0,0 54,0 54,-36"/>
<text text-anchor="middle" x="27" y="-15.5" font-family="Helvetica,sans-Serif" font-size="10.00" fill="#000000">build</text>
</a>
</g>
</g>
<!-- dir_926e49a18849677eb7f09bd6efbd9682&#45;&gt;dir_4fef79e7177ba769987a8da36c892c5f -->
<g id="edge2" class="edge">
<title>dir_926e49a18849677eb7f09bd6efbd9682&#45;&gt;dir_4fef79e7177ba769987a8da36c892c5f</title>
<path fill="none" stroke="#000000" d="M39.8066,-144.9149C27.6546,-135.64 14.6034,-122.9955 8,-108 -.7832,-88.0544 5.1978,-63.7974 12.6977,-45.4942"/>
<polygon fill="#000000" stroke="#000000" points="15.9382,-46.8209 16.8116,-36.2621 9.5443,-43.9716 15.9382,-46.8209"/>
<g id="a_edge2&#45;headlabel"><a xlink:href="dir_000031_000000.html" target="_top" xlink:title="1">
<text text-anchor="middle" x="17.0685" y="-48.7599" font-family="Helvetica,sans-Serif" font-size="10.00" fill="#000000">1</text>
</a>
</g>
</g>
<!-- dir_cc2494ece34082706c88d264c8a52186 -->
<g id="node5" class="node">
<title>dir_cc2494ece34082706c88d264c8a52186</title>
<g id="a_node5"><a xlink:href="dir_cc2494ece34082706c88d264c8a52186.html" target="_top" xlink:title="baremetal&#45;comm">
<polygon fill="#ffffff" stroke="#ff0000" points="117.5,-108 16.5,-108 16.5,-72 117.5,-72 117.5,-108"/>
<text text-anchor="middle" x="67" y="-87.5" font-family="Helvetica,sans-Serif" font-size="10.00" fill="#000000">baremetal&#45;comm</text>
</a>
</g>
</g>
<!-- dir_926e49a18849677eb7f09bd6efbd9682&#45;&gt;dir_cc2494ece34082706c88d264c8a52186 -->
<g id="edge3" class="edge">
<title>dir_926e49a18849677eb7f09bd6efbd9682&#45;&gt;dir_cc2494ece34082706c88d264c8a52186</title>
<path fill="none" stroke="#000000" d="M67,-143.8314C67,-136.131 67,-126.9743 67,-118.4166"/>
<polygon fill="#000000" stroke="#000000" points="70.5001,-118.4132 67,-108.4133 63.5001,-118.4133 70.5001,-118.4132"/>
<g id="a_edge3&#45;headlabel"><a xlink:href="dir_000031_000006.html" target="_top" xlink:title="1">
<text text-anchor="middle" x="73.3393" y="-119.5079" font-family="Helvetica,sans-Serif" font-size="10.00" fill="#000000">1</text>
</a>
</g>
</g>
<!-- dir_d0537398ec3fe72d8d4f5c6709d28acc -->
<g id="node6" class="node">
<title>dir_d0537398ec3fe72d8d4f5c6709d28acc</title>
<g id="a_node6"><a xlink:href="dir_d0537398ec3fe72d8d4f5c6709d28acc.html" target="_top" xlink:title="comm">
<polygon fill="#ffffff" stroke="#ff0000" points="190,-108 136,-108 136,-72 190,-72 190,-108"/>
<text text-anchor="middle" x="163" y="-87.5" font-family="Helvetica,sans-Serif" font-size="10.00" fill="#000000">comm</text>
</a>
</g>
</g>
<!-- dir_926e49a18849677eb7f09bd6efbd9682&#45;&gt;dir_d0537398ec3fe72d8d4f5c6709d28acc -->
<g id="edge4" class="edge">
<title>dir_926e49a18849677eb7f09bd6efbd9682&#45;&gt;dir_d0537398ec3fe72d8d4f5c6709d28acc</title>
<path fill="none" stroke="#000000" d="M91.2249,-143.8314C103.1628,-134.8779 117.7256,-123.9558 130.606,-114.2955"/>
<polygon fill="#000000" stroke="#000000" points="132.8829,-116.9629 138.7829,-108.1628 128.6829,-111.3629 132.8829,-116.9629"/>
<g id="a_edge4&#45;headlabel"><a xlink:href="dir_000031_000011.html" target="_top" xlink:title="1">
<text text-anchor="middle" x="131.7108" y="-118.891" font-family="Helvetica,sans-Serif" font-size="10.00" fill="#000000">1</text>
</a>
</g>
</g>
<!-- dir_ab9c8554d9140fd8e600a51e9a012cdd -->
<g id="node3" class="node">
<title>dir_ab9c8554d9140fd8e600a51e9a012cdd</title>
<g id="a_node3"><a xlink:href="dir_ab9c8554d9140fd8e600a51e9a012cdd.html" target="_top" xlink:title="src">
<polygon fill="#ffffff" stroke="#000000" points="94,-252 40,-252 40,-216 94,-216 94,-252"/>
<text text-anchor="middle" x="67" y="-231.5" font-family="Helvetica,sans-Serif" font-size="10.00" fill="#000000">src</text>
</a>
</g>
</g>
<!-- dir_ab9c8554d9140fd8e600a51e9a012cdd&#45;&gt;dir_926e49a18849677eb7f09bd6efbd9682 -->
<g id="edge1" class="edge">
<title>dir_ab9c8554d9140fd8e600a51e9a012cdd&#45;&gt;dir_926e49a18849677eb7f09bd6efbd9682</title>
<path fill="none" stroke="#000000" d="M67,-215.8314C67,-208.131 67,-198.9743 67,-190.4166"/>
<polygon fill="#000000" stroke="#000000" points="70.5001,-190.4132 67,-180.4133 63.5001,-190.4133 70.5001,-190.4132"/>
<g id="a_edge1&#45;headlabel"><a xlink:href="dir_000032_000031.html" target="_top" xlink:title="3">
<text text-anchor="middle" x="73.3393" y="-191.5079" font-family="Helvetica,sans-Serif" font-size="10.00" fill="#000000">3</text>
</a>
</g>
</g>
<!-- dir_cc2494ece34082706c88d264c8a52186&#45;&gt;dir_4fef79e7177ba769987a8da36c892c5f -->
<g id="edge5" class="edge">
<title>dir_cc2494ece34082706c88d264c8a52186&#45;&gt;dir_4fef79e7177ba769987a8da36c892c5f</title>
<path fill="none" stroke="#000000" d="M56.9063,-71.8314C52.4403,-63.7925 47.0925,-54.1666 42.1621,-45.2918"/>
<polygon fill="#000000" stroke="#000000" points="45.1456,-43.4551 37.2296,-36.4133 39.0265,-46.8546 45.1456,-43.4551"/>
<g id="a_edge5&#45;headlabel"><a xlink:href="dir_000006_000000.html" target="_top" xlink:title="1">
<text text-anchor="middle" x="49.3732" y="-42.7185" font-family="Helvetica,sans-Serif" font-size="10.00" fill="#000000">1</text>
</a>
</g>
</g>
</g>
</svg>
