<?xml version="1.0" encoding="UTF-8" standalone="no"?>
<!DOCTYPE svg PUBLIC "-//W3C//DTD SVG 1.1//EN"
 "http://www.w3.org/Graphics/SVG/1.1/DTD/svg11.dtd">
<!-- Generated by graphviz version 2.40.1 (20161225.0304)
 -->
<!-- Title: /home/pieter/GitHub/EAGLE&#45;ZYBO&#45;Linux/src Pages: 1 -->
<svg width="568pt" height="292pt"
 viewBox="0.00 0.00 568.00 292.00" xmlns="http://www.w3.org/2000/svg" xmlns:xlink="http://www.w3.org/1999/xlink">
<g id="graph0" class="graph" transform="scale(1 1) rotate(0) translate(4 288)">
<title>/home/pieter/GitHub/EAGLE&#45;ZYBO&#45;Linux/src</title>
<polygon fill="#ffffff" stroke="transparent" points="-4,4 -4,-288 564,-288 564,4 -4,4"/>
<g id="clust1" class="cluster">
<title>clusterdir_68267d1309a1af8e8297ef4c3efbcdba</title>
<g id="a_clust1"><a xlink:href="dir_68267d1309a1af8e8297ef4c3efbcdba.html" target="_top">
<polygon fill="#eeeeff" stroke="#000000" points="8,-8 8,-276 552,-276 552,-8 8,-8"/>
</a>
</g>
</g>
<!-- dir_68267d1309a1af8e8297ef4c3efbcdba -->
<g id="node1" class="node">
<title>dir_68267d1309a1af8e8297ef4c3efbcdba</title>
<text text-anchor="middle" x="517" y="-247.5" font-family="Helvetica,sans-Serif" font-size="10.00" fill="#000000">src</text>
</g>
<!-- dir_cc2494ece34082706c88d264c8a52186 -->
<g id="node2" class="node">
<title>dir_cc2494ece34082706c88d264c8a52186</title>
<g id="a_node2"><a xlink:href="dir_cc2494ece34082706c88d264c8a52186.html" target="_top" xlink:title="baremetal&#45;comm">
<polygon fill="#ffffff" stroke="#ff0000" points="189.5,-124 88.5,-124 88.5,-88 189.5,-88 189.5,-124"/>
<text text-anchor="middle" x="139" y="-103.5" font-family="Helvetica,sans-Serif" font-size="10.00" fill="#000000">baremetal&#45;comm</text>
</a>
</g>
</g>
<!-- dir_7b5d38f1875f1b693f62ca6a108a1129 -->
<g id="node17" class="node">
<title>dir_7b5d38f1875f1b693f62ca6a108a1129</title>
<g id="a_node17"><a xlink:href="dir_7b5d38f1875f1b693f62ca6a108a1129.html" target="_top" xlink:title="utilities">
<polygon fill="#ffffff" stroke="#ff0000" points="214,-52 160,-52 160,-16 214,-16 214,-52"/>
<text text-anchor="middle" x="187" y="-31.5" font-family="Helvetica,sans-Serif" font-size="10.00" fill="#000000">utilities</text>
</a>
</g>
</g>
<!-- dir_cc2494ece34082706c88d264c8a52186&#45;&gt;dir_7b5d38f1875f1b693f62ca6a108a1129 -->
<g id="edge7" class="edge">
<title>dir_cc2494ece34082706c88d264c8a52186&#45;&gt;dir_7b5d38f1875f1b693f62ca6a108a1129</title>
<path fill="none" stroke="#000000" d="M151.1124,-87.8314C156.5281,-79.7079 163.0242,-69.9637 168.9921,-61.0118"/>
<polygon fill="#000000" stroke="#000000" points="172.0896,-62.6753 174.7245,-52.4133 166.2653,-58.7923 172.0896,-62.6753"/>
<g id="a_edge7&#45;headlabel"><a xlink:href="dir_000001_000041.html" target="_top" xlink:title="1">
<text text-anchor="middle" x="172.4581" y="-64.7411" font-family="Helvetica,sans-Serif" font-size="10.00" fill="#000000">1</text>
</a>
</g>
</g>
<!-- dir_9ab17fd7f07b28ef7164bcc825435f04 -->
<g id="node3" class="node">
<title>dir_9ab17fd7f07b28ef7164bcc825435f04</title>
<g id="a_node3"><a xlink:href="dir_9ab17fd7f07b28ef7164bcc825435f04.html" target="_top" xlink:title="base64">
<polygon fill="#ffffff" stroke="#ff0000" points="418,-124 364,-124 364,-88 418,-88 418,-124"/>
<text text-anchor="middle" x="391" y="-103.5" font-family="Helvetica,sans-Serif" font-size="10.00" fill="#000000">base64</text>
</a>
</g>
</g>
<!-- dir_d0537398ec3fe72d8d4f5c6709d28acc -->
<g id="node4" class="node">
<title>dir_d0537398ec3fe72d8d4f5c6709d28acc</title>
<g id="a_node4"><a xlink:href="dir_d0537398ec3fe72d8d4f5c6709d28acc.html" target="_top" xlink:title="comm">
<polygon fill="#ffffff" stroke="#ff0000" points="70,-124 16,-124 16,-88 70,-88 70,-124"/>
<text text-anchor="middle" x="43" y="-103.5" font-family="Helvetica,sans-Serif" font-size="10.00" fill="#000000">comm</text>
</a>
</g>
</g>
<!-- dir_d0537398ec3fe72d8d4f5c6709d28acc&#45;&gt;dir_7b5d38f1875f1b693f62ca6a108a1129 -->
<g id="edge10" class="edge">
<title>dir_d0537398ec3fe72d8d4f5c6709d28acc&#45;&gt;dir_7b5d38f1875f1b693f62ca6a108a1129</title>
<path fill="none" stroke="#000000" d="M70.0853,-92.4574C92.7693,-81.1153 125.3567,-64.8217 150.3681,-52.316"/>
<polygon fill="#000000" stroke="#000000" points="152.1675,-55.3294 159.5466,-47.7267 149.037,-49.0684 152.1675,-55.3294"/>
<g id="a_edge10&#45;headlabel"><a xlink:href="dir_000003_000041.html" target="_top" xlink:title="1">
<text text-anchor="middle" x="150.2222" y="-56.9764" font-family="Helvetica,sans-Serif" font-size="10.00" fill="#000000">1</text>
</a>
</g>
</g>
<!-- dir_4261af1259721e3e39e0d2dd7354b511 -->
<g id="node5" class="node">
<title>dir_4261af1259721e3e39e0d2dd7354b511</title>
<g id="a_node5"><a xlink:href="dir_4261af1259721e3e39e0d2dd7354b511.html" target="_top" xlink:title="crypto">
<polygon fill="#ffffff" stroke="#ff0000" points="262,-124 208,-124 208,-88 262,-88 262,-124"/>
<text text-anchor="middle" x="235" y="-103.5" font-family="Helvetica,sans-Serif" font-size="10.00" fill="#000000">crypto</text>
</a>
</g>
</g>
<!-- dir_4261af1259721e3e39e0d2dd7354b511&#45;&gt;dir_7b5d38f1875f1b693f62ca6a108a1129 -->
<g id="edge1" class="edge">
<title>dir_4261af1259721e3e39e0d2dd7354b511&#45;&gt;dir_7b5d38f1875f1b693f62ca6a108a1129</title>
<path fill="none" stroke="#000000" d="M222.8876,-87.8314C217.4719,-79.7079 210.9758,-69.9637 205.0079,-61.0118"/>
<polygon fill="#000000" stroke="#000000" points="207.7347,-58.7923 199.2755,-52.4133 201.9104,-62.6753 207.7347,-58.7923"/>
<g id="a_edge1&#45;headlabel"><a xlink:href="dir_000009_000041.html" target="_top" xlink:title="1">
<text text-anchor="middle" x="212.091" y="-57.7083" font-family="Helvetica,sans-Serif" font-size="10.00" fill="#000000">1</text>
</a>
</g>
</g>
<!-- dir_9f42a264daae6f1215a4a8774a60c231 -->
<g id="node6" class="node">
<title>dir_9f42a264daae6f1215a4a8774a60c231</title>
<g id="a_node6"><a xlink:href="dir_9f42a264daae6f1215a4a8774a60c231.html" target="_top" xlink:title="greet">
<polygon fill="#ffffff" stroke="#ff0000" points="472,-268 418,-268 418,-232 472,-232 472,-268"/>
<text text-anchor="middle" x="445" y="-247.5" font-family="Helvetica,sans-Serif" font-size="10.00" fill="#000000">greet</text>
</a>
</g>
</g>
<!-- dir_920a55bcfa35c5c1cf06a9da66085a54 -->
<g id="node7" class="node">
<title>dir_920a55bcfa35c5c1cf06a9da66085a54</title>
<g id="a_node7"><a xlink:href="dir_920a55bcfa35c5c1cf06a9da66085a54.html" target="_top" xlink:title="grid&#45;finder">
<polygon fill="#ffffff" stroke="#ff0000" points="523.5,-124 456.5,-124 456.5,-88 523.5,-88 523.5,-124"/>
<text text-anchor="middle" x="490" y="-103.5" font-family="Helvetica,sans-Serif" font-size="10.00" fill="#000000">grid&#45;finder</text>
</a>
</g>
</g>
<!-- dir_d2da34f738933fa17ec589dd95f08c72 -->
<g id="node11" class="node">
<title>dir_d2da34f738933fa17ec589dd95f08c72</title>
<g id="a_node11"><a xlink:href="dir_d2da34f738933fa17ec589dd95f08c72.html" target="_top" xlink:title="mask">
<polygon fill="#ffffff" stroke="#ff0000" points="536,-52 482,-52 482,-16 536,-16 536,-52"/>
<text text-anchor="middle" x="509" y="-31.5" font-family="Helvetica,sans-Serif" font-size="10.00" fill="#000000">mask</text>
</a>
</g>
</g>
<!-- dir_920a55bcfa35c5c1cf06a9da66085a54&#45;&gt;dir_d2da34f738933fa17ec589dd95f08c72 -->
<g id="edge4" class="edge">
<title>dir_920a55bcfa35c5c1cf06a9da66085a54&#45;&gt;dir_d2da34f738933fa17ec589dd95f08c72</title>
<path fill="none" stroke="#000000" d="M488.8421,-87.8314C490.1378,-80.0463 492.3675,-70.7729 494.9708,-62.1347"/>
<polygon fill="#000000" stroke="#000000" points="498.3685,-63.0061 498.1649,-52.4133 491.7183,-60.8211 498.3685,-63.0061"/>
<g id="a_edge4&#45;headlabel"><a xlink:href="dir_000015_000025.html" target="_top" xlink:title="1">
<text text-anchor="middle" x="499.944" y="-64.8074" font-family="Helvetica,sans-Serif" font-size="10.00" fill="#000000">1</text>
</a>
</g>
</g>
<!-- dir_40d7732de2983c682bb99d86585a563c -->
<g id="node12" class="node">
<title>dir_40d7732de2983c682bb99d86585a563c</title>
<g id="a_node12"><a xlink:href="dir_40d7732de2983c682bb99d86585a563c.html" target="_top" xlink:title="matrix">
<polygon fill="#ffffff" stroke="#ff0000" points="464,-52 410,-52 410,-16 464,-16 464,-52"/>
<text text-anchor="middle" x="437" y="-31.5" font-family="Helvetica,sans-Serif" font-size="10.00" fill="#000000">matrix</text>
</a>
</g>
</g>
<!-- dir_920a55bcfa35c5c1cf06a9da66085a54&#45;&gt;dir_40d7732de2983c682bb99d86585a563c -->
<g id="edge2" class="edge">
<title>dir_920a55bcfa35c5c1cf06a9da66085a54&#45;&gt;dir_40d7732de2983c682bb99d86585a563c</title>
<path fill="none" stroke="#000000" d="M476.6259,-87.8314C470.5838,-79.6232 463.3237,-69.7606 456.6779,-60.7323"/>
<polygon fill="#000000" stroke="#000000" points="459.3011,-58.3918 450.5542,-52.4133 453.6637,-62.5415 459.3011,-58.3918"/>
<g id="a_edge2&#45;headlabel"><a xlink:href="dir_000015_000028.html" target="_top" xlink:title="2">
<text text-anchor="middle" x="463.7186" y="-57.1035" font-family="Helvetica,sans-Serif" font-size="10.00" fill="#000000">2</text>
</a>
</g>
</g>
<!-- dir_920a55bcfa35c5c1cf06a9da66085a54&#45;&gt;dir_7b5d38f1875f1b693f62ca6a108a1129 -->
<g id="edge3" class="edge">
<title>dir_920a55bcfa35c5c1cf06a9da66085a54&#45;&gt;dir_7b5d38f1875f1b693f62ca6a108a1129</title>
<path fill="none" stroke="#000000" d="M456.42,-96.0223C446.9369,-93.3091 436.5892,-90.4466 427,-88 355.6327,-69.7916 271.5037,-51.6096 224.1948,-41.6817"/>
<polygon fill="#000000" stroke="#000000" points="224.6188,-38.1947 214.1142,-39.5743 223.1863,-45.0466 224.6188,-38.1947"/>
<g id="a_edge3&#45;headlabel"><a xlink:href="dir_000015_000041.html" target="_top" xlink:title="3">
<text text-anchor="middle" x="228.7183" y="-33.651" font-family="Helvetica,sans-Serif" font-size="10.00" fill="#000000">3</text>
</a>
</g>
</g>
<!-- dir_8f9e3926995673004d1bb228b2422cc7 -->
<g id="node8" class="node">
<title>dir_8f9e3926995673004d1bb228b2422cc7</title>
<g id="a_node8"><a xlink:href="dir_8f9e3926995673004d1bb228b2422cc7.html" target="_top" xlink:title="location&#45;finder">
<polygon fill="#ffffff" stroke="#ff0000" points="533.5,-196 446.5,-196 446.5,-160 533.5,-160 533.5,-196"/>
<text text-anchor="middle" x="490" y="-175.5" font-family="Helvetica,sans-Serif" font-size="10.00" fill="#000000">location&#45;finder</text>
</a>
</g>
</g>
<!-- dir_8f9e3926995673004d1bb228b2422cc7&#45;&gt;dir_920a55bcfa35c5c1cf06a9da66085a54 -->
<g id="edge8" class="edge">
<title>dir_8f9e3926995673004d1bb228b2422cc7&#45;&gt;dir_920a55bcfa35c5c1cf06a9da66085a54</title>
<path fill="none" stroke="#000000" d="M490,-159.8314C490,-152.131 490,-142.9743 490,-134.4166"/>
<polygon fill="#000000" stroke="#000000" points="493.5001,-134.4132 490,-124.4133 486.5001,-134.4133 493.5001,-134.4132"/>
<g id="a_edge8&#45;headlabel"><a xlink:href="dir_000017_000015.html" target="_top" xlink:title="4">
<text text-anchor="middle" x="496.3393" y="-135.5079" font-family="Helvetica,sans-Serif" font-size="10.00" fill="#000000">4</text>
</a>
</g>
</g>
<!-- dir_8f9e3926995673004d1bb228b2422cc7&#45;&gt;dir_d2da34f738933fa17ec589dd95f08c72 -->
<g id="edge9" class="edge">
<title>dir_8f9e3926995673004d1bb228b2422cc7&#45;&gt;dir_d2da34f738933fa17ec589dd95f08c72</title>
<path fill="none" stroke="#000000" d="M509.4956,-159.9663C518.5103,-150.2894 528.2551,-137.5757 533,-124 540.2029,-103.3916 533.1348,-79.4904 524.844,-61.5003"/>
<polygon fill="#000000" stroke="#000000" points="527.7883,-59.5612 520.1952,-52.1724 521.5233,-62.6836 527.7883,-59.5612"/>
<g id="a_edge9&#45;headlabel"><a xlink:href="dir_000017_000025.html" target="_top" xlink:title="1">
<text text-anchor="middle" x="531.9328" y="-59.012" font-family="Helvetica,sans-Serif" font-size="10.00" fill="#000000">1</text>
</a>
</g>
</g>
<!-- dir_d471c9e7d7d2cd1463b667d184ac6f80 -->
<g id="node9" class="node">
<title>dir_d471c9e7d7d2cd1463b667d184ac6f80</title>
<g id="a_node9"><a xlink:href="dir_d471c9e7d7d2cd1463b667d184ac6f80.html" target="_top" xlink:title="logentry">
<polygon fill="#ffffff" stroke="#ff0000" points="399.5,-268 342.5,-268 342.5,-232 399.5,-232 399.5,-268"/>
<text text-anchor="middle" x="371" y="-247.5" font-family="Helvetica,sans-Serif" font-size="10.00" fill="#000000">logentry</text>
</a>
</g>
</g>
<!-- dir_ffde1fbcaa8d6b0d34e29c3bddf7a801 -->
<g id="node10" class="node">
<title>dir_ffde1fbcaa8d6b0d34e29c3bddf7a801</title>
<g id="a_node10"><a xlink:href="dir_ffde1fbcaa8d6b0d34e29c3bddf7a801.html" target="_top" xlink:title="logger">
<polygon fill="#ffffff" stroke="#ff0000" points="166,-196 112,-196 112,-160 166,-160 166,-196"/>
<text text-anchor="middle" x="139" y="-175.5" font-family="Helvetica,sans-Serif" font-size="10.00" fill="#000000">logger</text>
</a>
</g>
</g>
<!-- dir_ffde1fbcaa8d6b0d34e29c3bddf7a801&#45;&gt;dir_cc2494ece34082706c88d264c8a52186 -->
<g id="edge5" class="edge">
<title>dir_ffde1fbcaa8d6b0d34e29c3bddf7a801&#45;&gt;dir_cc2494ece34082706c88d264c8a52186</title>
<path fill="none" stroke="#000000" d="M139,-159.8314C139,-152.131 139,-142.9743 139,-134.4166"/>
<polygon fill="#000000" stroke="#000000" points="142.5001,-134.4132 139,-124.4133 135.5001,-134.4133 142.5001,-134.4132"/>
<g id="a_edge5&#45;headlabel"><a xlink:href="dir_000022_000001.html" target="_top" xlink:title="1">
<text text-anchor="middle" x="145.3393" y="-135.5079" font-family="Helvetica,sans-Serif" font-size="10.00" fill="#000000">1</text>
</a>
</g>
</g>
<!-- dir_d2da34f738933fa17ec589dd95f08c72&#45;&gt;dir_920a55bcfa35c5c1cf06a9da66085a54 -->
<g id="edge11" class="edge">
<title>dir_d2da34f738933fa17ec589dd95f08c72&#45;&gt;dir_920a55bcfa35c5c1cf06a9da66085a54</title>
<path fill="none" stroke="#000000" d="M510.117,-52.4133C508.8018,-60.2292 506.5585,-69.5113 503.9474,-78.136"/>
<polygon fill="#000000" stroke="#000000" points="500.558,-77.2382 500.7469,-87.8314 507.2052,-79.4325 500.558,-77.2382"/>
<g id="a_edge11&#45;headlabel"><a xlink:href="dir_000025_000015.html" target="_top" xlink:title="1">
<text text-anchor="middle" x="498.9886" y="-70.4348" font-family="Helvetica,sans-Serif" font-size="10.00" fill="#000000">1</text>
</a>
</g>
</g>
<!-- dir_78013b9138429c0bcb36eab7f16ba065 -->
<g id="node13" class="node">
<title>dir_78013b9138429c0bcb36eab7f16ba065</title>
<g id="a_node13"><a xlink:href="dir_78013b9138429c0bcb36eab7f16ba065.html" target="_top" xlink:title="py&#45;grid&#45;finder">
<polygon fill="#ffffff" stroke="#ff0000" points="324.5,-268 241.5,-268 241.5,-232 324.5,-232 324.5,-268"/>
<text text-anchor="middle" x="283" y="-247.5" font-family="Helvetica,sans-Serif" font-size="10.00" fill="#000000">py&#45;grid&#45;finder</text>
</a>
</g>
</g>
<!-- dir_78013b9138429c0bcb36eab7f16ba065&#45;&gt;dir_920a55bcfa35c5c1cf06a9da66085a54 -->
<g id="edge16" class="edge">
<title>dir_78013b9138429c0bcb36eab7f16ba065&#45;&gt;dir_920a55bcfa35c5c1cf06a9da66085a54</title>
<path fill="none" stroke="#000000" d="M324.5345,-233.747C354.289,-221.7079 391.4068,-205.7614 405,-196 422.6302,-183.3396 423.1378,-175.8185 438,-160 446.7726,-150.6629 456.4873,-140.5222 465.1224,-131.5764"/>
<polygon fill="#000000" stroke="#000000" points="467.6401,-134.0077 472.0776,-124.3869 462.6091,-129.1406 467.6401,-134.0077"/>
<g id="a_edge16&#45;headlabel"><a xlink:href="dir_000030_000015.html" target="_top" xlink:title="3">
<text text-anchor="middle" x="467.1815" y="-136.0653" font-family="Helvetica,sans-Serif" font-size="10.00" fill="#000000">3</text>
</a>
</g>
</g>
<!-- dir_78013b9138429c0bcb36eab7f16ba065&#45;&gt;dir_8f9e3926995673004d1bb228b2422cc7 -->
<g id="edge18" class="edge">
<title>dir_78013b9138429c0bcb36eab7f16ba065&#45;&gt;dir_8f9e3926995673004d1bb228b2422cc7</title>
<path fill="none" stroke="#000000" d="M324.7413,-235.2447C327.8737,-234.1445 330.9864,-233.0534 334,-232 368.1779,-220.0533 406.6122,-206.7476 436.7793,-196.3334"/>
<polygon fill="#000000" stroke="#000000" points="437.9563,-199.6298 446.2675,-193.0591 435.6727,-193.0127 437.9563,-199.6298"/>
<g id="a_edge18&#45;headlabel"><a xlink:href="dir_000030_000017.html" target="_top" xlink:title="1">
<text text-anchor="middle" x="435.4845" y="-200.9863" font-family="Helvetica,sans-Serif" font-size="10.00" fill="#000000">1</text>
</a>
</g>
</g>
<!-- dir_e933f813a55dc21e057ace61f7557bd3 -->
<g id="node14" class="node">
<title>dir_e933f813a55dc21e057ace61f7557bd3</title>
<g id="a_node14"><a xlink:href="dir_e933f813a55dc21e057ace61f7557bd3.html" target="_top" xlink:title="py&#45;matrix">
<polygon fill="#ffffff" stroke="#ff0000" points="395.5,-196 330.5,-196 330.5,-160 395.5,-160 395.5,-196"/>
<text text-anchor="middle" x="363" y="-175.5" font-family="Helvetica,sans-Serif" font-size="10.00" fill="#000000">py&#45;matrix</text>
</a>
</g>
</g>
<!-- dir_78013b9138429c0bcb36eab7f16ba065&#45;&gt;dir_e933f813a55dc21e057ace61f7557bd3 -->
<g id="edge17" class="edge">
<title>dir_78013b9138429c0bcb36eab7f16ba065&#45;&gt;dir_e933f813a55dc21e057ace61f7557bd3</title>
<path fill="none" stroke="#000000" d="M303.1874,-231.8314C312.8514,-223.1337 324.5796,-212.5783 335.0816,-203.1265"/>
<polygon fill="#000000" stroke="#000000" points="337.7275,-205.454 342.8191,-196.1628 333.0447,-200.251 337.7275,-205.454"/>
<g id="a_edge17&#45;headlabel"><a xlink:href="dir_000030_000033.html" target="_top" xlink:title="1">
<text text-anchor="middle" x="336.955" y="-207.4691" font-family="Helvetica,sans-Serif" font-size="10.00" fill="#000000">1</text>
</a>
</g>
</g>
<!-- dir_e933f813a55dc21e057ace61f7557bd3&#45;&gt;dir_40d7732de2983c682bb99d86585a563c -->
<g id="edge6" class="edge">
<title>dir_e933f813a55dc21e057ace61f7557bd3&#45;&gt;dir_40d7732de2983c682bb99d86585a563c</title>
<path fill="none" stroke="#000000" d="M393.3581,-159.8417C405.8881,-150.712 419.2644,-138.4924 427,-124 437.0871,-105.1023 439.2693,-80.8247 439.1038,-62.2478"/>
<polygon fill="#000000" stroke="#000000" points="442.5957,-61.9353 438.7772,-52.0526 435.5993,-62.1596 442.5957,-61.9353"/>
<g id="a_edge6&#45;headlabel"><a xlink:href="dir_000033_000028.html" target="_top" xlink:title="1">
<text text-anchor="middle" x="445.5486" y="-62.9372" font-family="Helvetica,sans-Serif" font-size="10.00" fill="#000000">1</text>
</a>
</g>
</g>
<!-- dir_2b5615639a780788a137586f580a6a22 -->
<g id="node15" class="node">
<title>dir_2b5615639a780788a137586f580a6a22</title>
<g id="a_node15"><a xlink:href="dir_2b5615639a780788a137586f580a6a22.html" target="_top" xlink:title="qr&#45;crypto&#45;manager">
<polygon fill="#ffffff" stroke="#ff0000" points="296.5,-196 189.5,-196 189.5,-160 296.5,-160 296.5,-196"/>
<text text-anchor="middle" x="243" y="-175.5" font-family="Helvetica,sans-Serif" font-size="10.00" fill="#000000">qr&#45;crypto&#45;manager</text>
</a>
</g>
</g>
<!-- dir_2b5615639a780788a137586f580a6a22&#45;&gt;dir_cc2494ece34082706c88d264c8a52186 -->
<g id="edge14" class="edge">
<title>dir_2b5615639a780788a137586f580a6a22&#45;&gt;dir_cc2494ece34082706c88d264c8a52186</title>
<path fill="none" stroke="#000000" d="M216.7564,-159.8314C203.7005,-150.7927 187.7465,-139.7476 173.6953,-130.0198"/>
<polygon fill="#000000" stroke="#000000" points="175.4494,-126.9773 165.2352,-124.1628 171.4649,-132.7326 175.4494,-126.9773"/>
<g id="a_edge14&#45;headlabel"><a xlink:href="dir_000035_000001.html" target="_top" xlink:title="1">
<text text-anchor="middle" x="180.021" y="-124.1889" font-family="Helvetica,sans-Serif" font-size="10.00" fill="#000000">1</text>
</a>
</g>
</g>
<!-- dir_2b5615639a780788a137586f580a6a22&#45;&gt;dir_9ab17fd7f07b28ef7164bcc825435f04 -->
<g id="edge13" class="edge">
<title>dir_2b5615639a780788a137586f580a6a22&#45;&gt;dir_9ab17fd7f07b28ef7164bcc825435f04</title>
<path fill="none" stroke="#000000" d="M280.9106,-159.8884C300.5987,-150.4448 325.2405,-138.5671 354.6232,-124.1583"/>
<polygon fill="#000000" stroke="#000000" points="356.4609,-127.1551 363.8939,-119.6052 353.3751,-120.872 356.4609,-127.1551"/>
<g id="a_edge13&#45;headlabel"><a xlink:href="dir_000035_000005.html" target="_top" xlink:title="1">
<text text-anchor="middle" x="354.486" y="-128.7882" font-family="Helvetica,sans-Serif" font-size="10.00" fill="#000000">1</text>
</a>
</g>
</g>
<!-- dir_2b5615639a780788a137586f580a6a22&#45;&gt;dir_4261af1259721e3e39e0d2dd7354b511 -->
<g id="edge12" class="edge">
<title>dir_2b5615639a780788a137586f580a6a22&#45;&gt;dir_4261af1259721e3e39e0d2dd7354b511</title>
<path fill="none" stroke="#000000" d="M240.9813,-159.8314C240.1257,-152.131 239.1083,-142.9743 238.1574,-134.4166"/>
<polygon fill="#000000" stroke="#000000" points="241.6289,-133.9656 237.0459,-124.4133 234.6717,-134.7386 241.6289,-133.9656"/>
<g id="a_edge12&#45;headlabel"><a xlink:href="dir_000035_000009.html" target="_top" xlink:title="1">
<text text-anchor="middle" x="244.8477" y="-134.7247" font-family="Helvetica,sans-Serif" font-size="10.00" fill="#000000">1</text>
</a>
</g>
</g>
<!-- dir_a6001fb970975ebb58a93b6f2462248e -->
<g id="node16" class="node">
<title>dir_a6001fb970975ebb58a93b6f2462248e</title>
<g id="a_node16"><a xlink:href="dir_a6001fb970975ebb58a93b6f2462248e.html" target="_top" xlink:title="qr&#45;decode">
<polygon fill="#ffffff" stroke="#ff0000" points="345.5,-124 280.5,-124 280.5,-88 345.5,-88 345.5,-124"/>
<text text-anchor="middle" x="313" y="-103.5" font-family="Helvetica,sans-Serif" font-size="10.00" fill="#000000">qr&#45;decode</text>
</a>
</g>
</g>
<!-- dir_2b5615639a780788a137586f580a6a22&#45;&gt;dir_a6001fb970975ebb58a93b6f2462248e -->
<g id="edge15" class="edge">
<title>dir_2b5615639a780788a137586f580a6a22&#45;&gt;dir_a6001fb970975ebb58a93b6f2462248e</title>
<path fill="none" stroke="#000000" d="M260.664,-159.8314C268.9732,-151.2848 279.0264,-140.9443 288.0918,-131.6198"/>
<polygon fill="#000000" stroke="#000000" points="290.6369,-134.023 295.0982,-124.4133 285.6179,-129.1435 290.6369,-134.023"/>
<g id="a_edge15&#45;headlabel"><a xlink:href="dir_000035_000038.html" target="_top" xlink:title="1">
<text text-anchor="middle" x="290.1669" y="-136.0795" font-family="Helvetica,sans-Serif" font-size="10.00" fill="#000000">1</text>
</a>
</g>
</g>
</g>
</svg>
