<?xml version="1.0" encoding="UTF-8" standalone="no"?>
<!DOCTYPE svg PUBLIC "-//W3C//DTD SVG 1.1//EN"
 "http://www.w3.org/Graphics/SVG/1.1/DTD/svg11.dtd">
<!-- Generated by graphviz version 2.40.1 (20161225.0304)
 -->
<!-- Title: /home/pieter/GitHub/EAGLE&#45;ZYBO&#45;Linux/src Pages: 1 -->
<svg width="416pt" height="220pt"
 viewBox="0.00 0.00 416.00 220.00" xmlns="http://www.w3.org/2000/svg" xmlns:xlink="http://www.w3.org/1999/xlink">
<g id="graph0" class="graph" transform="scale(1 1) rotate(0) translate(4 216)">
<title>/home/pieter/GitHub/EAGLE&#45;ZYBO&#45;Linux/src</title>
<polygon fill="#ffffff" stroke="transparent" points="-4,4 -4,-216 412,-216 412,4 -4,4"/>
<g id="clust1" class="cluster">
<title>clusterdir_68267d1309a1af8e8297ef4c3efbcdba</title>
<g id="a_clust1"><a xlink:href="dir_68267d1309a1af8e8297ef4c3efbcdba.html" target="_top">
<polygon fill="#eeeeff" stroke="#000000" points="8,-8 8,-204 400,-204 400,-8 8,-8"/>
</a>
</g>
</g>
<!-- dir_68267d1309a1af8e8297ef4c3efbcdba -->
<g id="node1" class="node">
<title>dir_68267d1309a1af8e8297ef4c3efbcdba</title>
<text text-anchor="middle" x="365" y="-175.5" font-family="Helvetica,sans-Serif" font-size="10.00" fill="#000000">src</text>
</g>
<!-- dir_d0537398ec3fe72d8d4f5c6709d28acc -->
<g id="node2" class="node">
<title>dir_d0537398ec3fe72d8d4f5c6709d28acc</title>
<g id="a_node2"><a xlink:href="dir_d0537398ec3fe72d8d4f5c6709d28acc.html" target="_top" xlink:title="comm">
<polygon fill="#ffffff" stroke="#ff0000" points="320,-124 266,-124 266,-88 320,-88 320,-124"/>
<text text-anchor="middle" x="293" y="-103.5" font-family="Helvetica,sans-Serif" font-size="10.00" fill="#000000">comm</text>
</a>
</g>
</g>
<!-- dir_4261af1259721e3e39e0d2dd7354b511 -->
<g id="node3" class="node">
<title>dir_4261af1259721e3e39e0d2dd7354b511</title>
<g id="a_node3"><a xlink:href="dir_4261af1259721e3e39e0d2dd7354b511.html" target="_top" xlink:title="crypto">
<polygon fill="#ffffff" stroke="#ff0000" points="320,-196 266,-196 266,-160 320,-160 320,-196"/>
<text text-anchor="middle" x="293" y="-175.5" font-family="Helvetica,sans-Serif" font-size="10.00" fill="#000000">crypto</text>
</a>
</g>
</g>
<!-- dir_4261af1259721e3e39e0d2dd7354b511&#45;&gt;dir_d0537398ec3fe72d8d4f5c6709d28acc -->
<g id="edge1" class="edge">
<title>dir_4261af1259721e3e39e0d2dd7354b511&#45;&gt;dir_d0537398ec3fe72d8d4f5c6709d28acc</title>
<path fill="none" stroke="#000000" d="M293,-159.8314C293,-152.131 293,-142.9743 293,-134.4166"/>
<polygon fill="#000000" stroke="#000000" points="296.5001,-134.4132 293,-124.4133 289.5001,-134.4133 296.5001,-134.4132"/>
<g id="a_edge1&#45;headlabel"><a xlink:href="dir_000004_000001.html" target="_top" xlink:title="1">
<text text-anchor="middle" x="299.3393" y="-135.5079" font-family="Helvetica,sans-Serif" font-size="10.00" fill="#000000">1</text>
</a>
</g>
</g>
<!-- dir_9f42a264daae6f1215a4a8774a60c231 -->
<g id="node4" class="node">
<title>dir_9f42a264daae6f1215a4a8774a60c231</title>
<g id="a_node4"><a xlink:href="dir_9f42a264daae6f1215a4a8774a60c231.html" target="_top" xlink:title="greet">
<polygon fill="#ffffff" stroke="#ff0000" points="248,-196 194,-196 194,-160 248,-160 248,-196"/>
<text text-anchor="middle" x="221" y="-175.5" font-family="Helvetica,sans-Serif" font-size="10.00" fill="#000000">greet</text>
</a>
</g>
</g>
<!-- dir_920a55bcfa35c5c1cf06a9da66085a54 -->
<g id="node5" class="node">
<title>dir_920a55bcfa35c5c1cf06a9da66085a54</title>
<g id="a_node5"><a xlink:href="dir_920a55bcfa35c5c1cf06a9da66085a54.html" target="_top" xlink:title="grid&#45;finder">
<polygon fill="#ffffff" stroke="#ff0000" points="191.5,-124 124.5,-124 124.5,-88 191.5,-88 191.5,-124"/>
<text text-anchor="middle" x="158" y="-103.5" font-family="Helvetica,sans-Serif" font-size="10.00" fill="#000000">grid&#45;finder</text>
</a>
</g>
</g>
<!-- dir_d2da34f738933fa17ec589dd95f08c72 -->
<g id="node8" class="node">
<title>dir_d2da34f738933fa17ec589dd95f08c72</title>
<g id="a_node8"><a xlink:href="dir_d2da34f738933fa17ec589dd95f08c72.html" target="_top" xlink:title="mask">
<polygon fill="#ffffff" stroke="#ff0000" points="132,-52 78,-52 78,-16 132,-16 132,-52"/>
<text text-anchor="middle" x="105" y="-31.5" font-family="Helvetica,sans-Serif" font-size="10.00" fill="#000000">mask</text>
</a>
</g>
</g>
<!-- dir_920a55bcfa35c5c1cf06a9da66085a54&#45;&gt;dir_d2da34f738933fa17ec589dd95f08c72 -->
<g id="edge4" class="edge">
<title>dir_920a55bcfa35c5c1cf06a9da66085a54&#45;&gt;dir_d2da34f738933fa17ec589dd95f08c72</title>
<path fill="none" stroke="#000000" d="M138.6735,-87.8314C131.8315,-79.6232 124.3732,-69.7606 118.1308,-60.7323"/>
<polygon fill="#000000" stroke="#000000" points="121.0409,-58.7877 112.5782,-52.4133 115.2187,-62.6738 121.0409,-58.7877"/>
<g id="a_edge4&#45;headlabel"><a xlink:href="dir_000010_000018.html" target="_top" xlink:title="1">
<text text-anchor="middle" x="125.398" y="-57.7013" font-family="Helvetica,sans-Serif" font-size="10.00" fill="#000000">1</text>
</a>
</g>
</g>
<!-- dir_40d7732de2983c682bb99d86585a563c -->
<g id="node9" class="node">
<title>dir_40d7732de2983c682bb99d86585a563c</title>
<g id="a_node9"><a xlink:href="dir_40d7732de2983c682bb99d86585a563c.html" target="_top" xlink:title="matrix">
<polygon fill="#ffffff" stroke="#ff0000" points="276,-52 222,-52 222,-16 276,-16 276,-52"/>
<text text-anchor="middle" x="249" y="-31.5" font-family="Helvetica,sans-Serif" font-size="10.00" fill="#000000">matrix</text>
</a>
</g>
</g>
<!-- dir_920a55bcfa35c5c1cf06a9da66085a54&#45;&gt;dir_40d7732de2983c682bb99d86585a563c -->
<g id="edge2" class="edge">
<title>dir_920a55bcfa35c5c1cf06a9da66085a54&#45;&gt;dir_40d7732de2983c682bb99d86585a563c</title>
<path fill="none" stroke="#000000" d="M180.9631,-87.8314C192.1715,-78.9632 205.8209,-68.1637 217.9439,-58.5718"/>
<polygon fill="#000000" stroke="#000000" points="220.3737,-61.1125 226.0442,-52.1628 216.0303,-55.6229 220.3737,-61.1125"/>
<g id="a_edge2&#45;headlabel"><a xlink:href="dir_000010_000021.html" target="_top" xlink:title="2">
<text text-anchor="middle" x="219.3164" y="-63.0694" font-family="Helvetica,sans-Serif" font-size="10.00" fill="#000000">2</text>
</a>
</g>
</g>
<!-- dir_7b5d38f1875f1b693f62ca6a108a1129 -->
<g id="node10" class="node">
<title>dir_7b5d38f1875f1b693f62ca6a108a1129</title>
<g id="a_node10"><a xlink:href="dir_7b5d38f1875f1b693f62ca6a108a1129.html" target="_top" xlink:title="utilities">
<polygon fill="#ffffff" stroke="#ff0000" points="204,-52 150,-52 150,-16 204,-16 204,-52"/>
<text text-anchor="middle" x="177" y="-31.5" font-family="Helvetica,sans-Serif" font-size="10.00" fill="#000000">utilities</text>
</a>
</g>
</g>
<!-- dir_920a55bcfa35c5c1cf06a9da66085a54&#45;&gt;dir_7b5d38f1875f1b693f62ca6a108a1129 -->
<g id="edge3" class="edge">
<title>dir_920a55bcfa35c5c1cf06a9da66085a54&#45;&gt;dir_7b5d38f1875f1b693f62ca6a108a1129</title>
<path fill="none" stroke="#000000" d="M162.7945,-87.8314C164.8489,-80.0463 167.296,-70.7729 169.5756,-62.1347"/>
<polygon fill="#000000" stroke="#000000" points="172.9735,-62.9753 172.1409,-52.4133 166.2052,-61.1892 172.9735,-62.9753"/>
<g id="a_edge3&#45;headlabel"><a xlink:href="dir_000010_000023.html" target="_top" xlink:title="1">
<text text-anchor="middle" x="174.8017" y="-64.6754" font-family="Helvetica,sans-Serif" font-size="10.00" fill="#000000">1</text>
</a>
</g>
</g>
<!-- dir_8f9e3926995673004d1bb228b2422cc7 -->
<g id="node6" class="node">
<title>dir_8f9e3926995673004d1bb228b2422cc7</title>
<g id="a_node6"><a xlink:href="dir_8f9e3926995673004d1bb228b2422cc7.html" target="_top" xlink:title="location&#45;finder">
<polygon fill="#ffffff" stroke="#ff0000" points="175.5,-196 88.5,-196 88.5,-160 175.5,-160 175.5,-196"/>
<text text-anchor="middle" x="132" y="-175.5" font-family="Helvetica,sans-Serif" font-size="10.00" fill="#000000">location&#45;finder</text>
</a>
</g>
</g>
<!-- dir_8f9e3926995673004d1bb228b2422cc7&#45;&gt;dir_920a55bcfa35c5c1cf06a9da66085a54 -->
<g id="edge5" class="edge">
<title>dir_8f9e3926995673004d1bb228b2422cc7&#45;&gt;dir_920a55bcfa35c5c1cf06a9da66085a54</title>
<path fill="none" stroke="#000000" d="M138.5609,-159.8314C141.4027,-151.9617 144.7937,-142.5712 147.9419,-133.8533"/>
<polygon fill="#000000" stroke="#000000" points="151.2462,-135.0076 151.3508,-124.4133 144.6623,-132.63 151.2462,-135.0076"/>
<g id="a_edge5&#45;headlabel"><a xlink:href="dir_000012_000010.html" target="_top" xlink:title="2">
<text text-anchor="middle" x="152.6959" y="-136.8528" font-family="Helvetica,sans-Serif" font-size="10.00" fill="#000000">2</text>
</a>
</g>
</g>
<!-- dir_8f9e3926995673004d1bb228b2422cc7&#45;&gt;dir_d2da34f738933fa17ec589dd95f08c72 -->
<g id="edge6" class="edge">
<title>dir_8f9e3926995673004d1bb228b2422cc7&#45;&gt;dir_d2da34f738933fa17ec589dd95f08c72</title>
<path fill="none" stroke="#000000" d="M125.7512,-159.6991C122.4211,-149.3324 118.506,-136.0625 116,-124 111.7375,-103.4825 108.9335,-79.9662 107.2238,-62.1183"/>
<polygon fill="#000000" stroke="#000000" points="110.7021,-61.7191 106.3192,-52.0733 103.7304,-62.347 110.7021,-61.7191"/>
<g id="a_edge6&#45;headlabel"><a xlink:href="dir_000012_000018.html" target="_top" xlink:title="1">
<text text-anchor="middle" x="113.8523" y="-62.5445" font-family="Helvetica,sans-Serif" font-size="10.00" fill="#000000">1</text>
</a>
</g>
</g>
<!-- dir_ffde1fbcaa8d6b0d34e29c3bddf7a801 -->
<g id="node7" class="node">
<title>dir_ffde1fbcaa8d6b0d34e29c3bddf7a801</title>
<g id="a_node7"><a xlink:href="dir_ffde1fbcaa8d6b0d34e29c3bddf7a801.html" target="_top" xlink:title="logger">
<polygon fill="#ffffff" stroke="#ff0000" points="70,-196 16,-196 16,-160 70,-160 70,-196"/>
<text text-anchor="middle" x="43" y="-175.5" font-family="Helvetica,sans-Serif" font-size="10.00" fill="#000000">logger</text>
</a>
</g>
</g>
<!-- dir_d2da34f738933fa17ec589dd95f08c72&#45;&gt;dir_920a55bcfa35c5c1cf06a9da66085a54 -->
<g id="edge7" class="edge">
<title>dir_d2da34f738933fa17ec589dd95f08c72&#45;&gt;dir_920a55bcfa35c5c1cf06a9da66085a54</title>
<path fill="none" stroke="#000000" d="M124.5302,-52.4133C131.3136,-60.569 138.6828,-70.3212 144.8618,-79.257"/>
<polygon fill="#000000" stroke="#000000" points="142.1189,-81.4525 150.5783,-87.8314 147.9432,-77.5694 142.1189,-81.4525"/>
<g id="a_edge7&#45;headlabel"><a xlink:href="dir_000018_000010.html" target="_top" xlink:title="1">
<text text-anchor="middle" x="137.7626" y="-77.5366" font-family="Helvetica,sans-Serif" font-size="10.00" fill="#000000">1</text>
</a>
</g>
</g>
</g>
</svg>
