<?xml version="1.0" encoding="UTF-8" standalone="no"?>
<!DOCTYPE svg PUBLIC "-//W3C//DTD SVG 1.1//EN"
 "http://www.w3.org/Graphics/SVG/1.1/DTD/svg11.dtd">
<!-- Generated by graphviz version 2.40.1 (20161225.0304)
 -->
<!-- Title: /home/pieter/GitHub/EAGLE&#45;ZYBO&#45;Linux/src/py&#45;grid&#45;finder/include Pages: 1 -->
<svg width="195pt" height="223pt"
 viewBox="0.00 0.00 194.50 223.00" xmlns="http://www.w3.org/2000/svg" xmlns:xlink="http://www.w3.org/1999/xlink">
<g id="graph0" class="graph" transform="scale(1 1) rotate(0) translate(4 219)">
<title>/home/pieter/GitHub/EAGLE&#45;ZYBO&#45;Linux/src/py&#45;grid&#45;finder/include</title>
<polygon fill="#ffffff" stroke="transparent" points="-4,4 -4,-219 190.5,-219 190.5,4 -4,4"/>
<g id="clust1" class="cluster">
<title>clusterdir_78013b9138429c0bcb36eab7f16ba065</title>
<g id="a_clust1"><a xlink:href="dir_78013b9138429c0bcb36eab7f16ba065.html" target="_top" xlink:title="py&#45;grid&#45;finder">
<polygon fill="#ddddee" stroke="#000000" points="8,-136 8,-207 91,-207 91,-136 8,-136"/>
<text text-anchor="middle" x="49.5" y="-195" font-family="Helvetica,sans-Serif" font-size="10.00" fill="#000000">py&#45;grid&#45;finder</text>
</a>
</g>
</g>
<!-- dir_78dd38711051a706052e744536a15451 -->
<g id="node1" class="node">
<title>dir_78dd38711051a706052e744536a15451</title>
<g id="a_node1"><a xlink:href="dir_78dd38711051a706052e744536a15451.html" target="_top" xlink:title="include">
<polygon fill="#eeeeff" stroke="#000000" points="76,-180 22,-180 22,-144 76,-144 76,-180"/>
<text text-anchor="middle" x="49" y="-159.5" font-family="Helvetica,sans-Serif" font-size="10.00" fill="#000000">include</text>
</a>
</g>
</g>
<!-- dir_920a55bcfa35c5c1cf06a9da66085a54 -->
<g id="node2" class="node">
<title>dir_920a55bcfa35c5c1cf06a9da66085a54</title>
<g id="a_node2"><a xlink:href="dir_920a55bcfa35c5c1cf06a9da66085a54.html" target="_top" xlink:title="grid&#45;finder">
<polygon fill="#ffffff" stroke="#ff0000" points="98.5,-36 31.5,-36 31.5,0 98.5,0 98.5,-36"/>
<text text-anchor="middle" x="65" y="-15.5" font-family="Helvetica,sans-Serif" font-size="10.00" fill="#000000">grid&#45;finder</text>
</a>
</g>
</g>
<!-- dir_78dd38711051a706052e744536a15451&#45;&gt;dir_920a55bcfa35c5c1cf06a9da66085a54 -->
<g id="edge1" class="edge">
<title>dir_78dd38711051a706052e744536a15451&#45;&gt;dir_920a55bcfa35c5c1cf06a9da66085a54</title>
<path fill="none" stroke="#000000" d="M30.396,-143.8067C21.7967,-134.0891 12.5063,-121.3872 8,-108 2.8956,-92.8361 1.6779,-86.698 8,-72 12.7491,-60.9589 20.9885,-51.1176 29.7506,-42.9593"/>
<polygon fill="#000000" stroke="#000000" points="32.245,-45.4291 37.5106,-36.2354 27.661,-40.1388 32.245,-45.4291"/>
<g id="a_edge1&#45;headlabel"><a xlink:href="dir_000039_000023.html" target="_top" xlink:title="3">
<text text-anchor="middle" x="31.3877" y="-47.4288" font-family="Helvetica,sans-Serif" font-size="10.00" fill="#000000">3</text>
</a>
</g>
</g>
<!-- dir_e933f813a55dc21e057ace61f7557bd3 -->
<g id="node3" class="node">
<title>dir_e933f813a55dc21e057ace61f7557bd3</title>
<g id="a_node3"><a xlink:href="dir_e933f813a55dc21e057ace61f7557bd3.html" target="_top" xlink:title="py&#45;matrix">
<polygon fill="#ffffff" stroke="#ff0000" points="81.5,-108 16.5,-108 16.5,-72 81.5,-72 81.5,-108"/>
<text text-anchor="middle" x="49" y="-87.5" font-family="Helvetica,sans-Serif" font-size="10.00" fill="#000000">py&#45;matrix</text>
</a>
</g>
</g>
<!-- dir_78dd38711051a706052e744536a15451&#45;&gt;dir_e933f813a55dc21e057ace61f7557bd3 -->
<g id="edge2" class="edge">
<title>dir_78dd38711051a706052e744536a15451&#45;&gt;dir_e933f813a55dc21e057ace61f7557bd3</title>
<path fill="none" stroke="#000000" d="M49,-143.8314C49,-136.131 49,-126.9743 49,-118.4166"/>
<polygon fill="#000000" stroke="#000000" points="52.5001,-118.4132 49,-108.4133 45.5001,-118.4133 52.5001,-118.4132"/>
<g id="a_edge2&#45;headlabel"><a xlink:href="dir_000039_000041.html" target="_top" xlink:title="1">
<text text-anchor="middle" x="55.3393" y="-119.5079" font-family="Helvetica,sans-Serif" font-size="10.00" fill="#000000">1</text>
</a>
</g>
</g>
<!-- dir_8f9e3926995673004d1bb228b2422cc7 -->
<g id="node4" class="node">
<title>dir_8f9e3926995673004d1bb228b2422cc7</title>
<g id="a_node4"><a xlink:href="dir_8f9e3926995673004d1bb228b2422cc7.html" target="_top" xlink:title="location&#45;finder">
<polygon fill="#ffffff" stroke="#ff0000" points="186.5,-108 99.5,-108 99.5,-72 186.5,-72 186.5,-108"/>
<text text-anchor="middle" x="143" y="-87.5" font-family="Helvetica,sans-Serif" font-size="10.00" fill="#000000">location&#45;finder</text>
</a>
</g>
</g>
<!-- dir_78dd38711051a706052e744536a15451&#45;&gt;dir_8f9e3926995673004d1bb228b2422cc7 -->
<g id="edge3" class="edge">
<title>dir_78dd38711051a706052e744536a15451&#45;&gt;dir_8f9e3926995673004d1bb228b2422cc7</title>
<path fill="none" stroke="#000000" d="M72.7202,-143.8314C84.4094,-134.8779 98.6688,-123.9558 111.2809,-114.2955"/>
<polygon fill="#000000" stroke="#000000" points="113.4769,-117.0222 119.2874,-108.1628 109.2203,-111.4651 113.4769,-117.0222"/>
<g id="a_edge3&#45;headlabel"><a xlink:href="dir_000039_000025.html" target="_top" xlink:title="1">
<text text-anchor="middle" x="112.3497" y="-118.962" font-family="Helvetica,sans-Serif" font-size="10.00" fill="#000000">1</text>
</a>
</g>
</g>
<!-- dir_8f9e3926995673004d1bb228b2422cc7&#45;&gt;dir_920a55bcfa35c5c1cf06a9da66085a54 -->
<g id="edge4" class="edge">
<title>dir_8f9e3926995673004d1bb228b2422cc7&#45;&gt;dir_920a55bcfa35c5c1cf06a9da66085a54</title>
<path fill="none" stroke="#000000" d="M123.3173,-71.8314C113.8949,-63.1337 102.4599,-52.5783 92.2204,-43.1265"/>
<polygon fill="#000000" stroke="#000000" points="94.3984,-40.3738 84.6764,-36.1628 89.6505,-45.5175 94.3984,-40.3738"/>
<g id="a_edge4&#45;headlabel"><a xlink:href="dir_000025_000023.html" target="_top" xlink:title="4">
<text text-anchor="middle" x="98.9656" y="-38.2257" font-family="Helvetica,sans-Serif" font-size="10.00" fill="#000000">4</text>
</a>
</g>
</g>
</g>
</svg>
