<?xml version="1.0" encoding="UTF-8" standalone="no"?>
<!DOCTYPE svg PUBLIC "-//W3C//DTD SVG 1.1//EN"
 "http://www.w3.org/Graphics/SVG/1.1/DTD/svg11.dtd">
<!-- Generated by graphviz version 2.40.1 (20161225.0304)
 -->
<!-- Title: /home/pieter/GitHub/EAGLE&#45;ZYBO&#45;Linux/src/logger Pages: 1 -->
<svg width="182pt" height="231pt"
 viewBox="0.00 0.00 182.00 231.00" xmlns="http://www.w3.org/2000/svg" xmlns:xlink="http://www.w3.org/1999/xlink">
<g id="graph0" class="graph" transform="scale(1 1) rotate(0) translate(4 227)">
<title>/home/pieter/GitHub/EAGLE&#45;ZYBO&#45;Linux/src/logger</title>
<polygon fill="#ffffff" stroke="transparent" points="-4,4 -4,-227 178,-227 178,4 -4,4"/>
<g id="clust1" class="cluster">
<title>clusterdir_68267d1309a1af8e8297ef4c3efbcdba</title>
<g id="a_clust1"><a xlink:href="dir_68267d1309a1af8e8297ef4c3efbcdba.html" target="_top" xlink:title="src">
<polygon fill="#ddddee" stroke="#000000" points="8,-56 8,-215 166,-215 166,-56 8,-56"/>
<text text-anchor="middle" x="87" y="-203" font-family="Helvetica,sans-Serif" font-size="10.00" fill="#000000">src</text>
</a>
</g>
</g>
<g id="clust2" class="cluster">
<title>clusterdir_ffde1fbcaa8d6b0d34e29c3bddf7a801</title>
<g id="a_clust2"><a xlink:href="dir_ffde1fbcaa8d6b0d34e29c3bddf7a801.html" target="_top">
<polygon fill="#eeeeff" stroke="#000000" points="16,-64 16,-188 158,-188 158,-64 16,-64"/>
</a>
</g>
</g>
<!-- dir_ffde1fbcaa8d6b0d34e29c3bddf7a801 -->
<g id="node1" class="node">
<title>dir_ffde1fbcaa8d6b0d34e29c3bddf7a801</title>
<text text-anchor="middle" x="123" y="-159.5" font-family="Helvetica,sans-Serif" font-size="10.00" fill="#000000">logger</text>
</g>
<!-- dir_926e49a18849677eb7f09bd6efbd9682 -->
<g id="node2" class="node">
<title>dir_926e49a18849677eb7f09bd6efbd9682</title>
<g id="a_node2"><a xlink:href="dir_926e49a18849677eb7f09bd6efbd9682.html" target="_top" xlink:title="include">
<polygon fill="#ffffff" stroke="#000000" points="78,-108 24,-108 24,-72 78,-72 78,-108"/>
<text text-anchor="middle" x="51" y="-87.5" font-family="Helvetica,sans-Serif" font-size="10.00" fill="#000000">include</text>
</a>
</g>
</g>
<!-- dir_d0537398ec3fe72d8d4f5c6709d28acc -->
<g id="node4" class="node">
<title>dir_d0537398ec3fe72d8d4f5c6709d28acc</title>
<g id="a_node4"><a xlink:href="dir_d0537398ec3fe72d8d4f5c6709d28acc.html" target="_top" xlink:title="comm">
<polygon fill="#ffffff" stroke="#ff0000" points="78,-36 24,-36 24,0 78,0 78,-36"/>
<text text-anchor="middle" x="51" y="-15.5" font-family="Helvetica,sans-Serif" font-size="10.00" fill="#000000">comm</text>
</a>
</g>
</g>
<!-- dir_926e49a18849677eb7f09bd6efbd9682&#45;&gt;dir_d0537398ec3fe72d8d4f5c6709d28acc -->
<g id="edge2" class="edge">
<title>dir_926e49a18849677eb7f09bd6efbd9682&#45;&gt;dir_d0537398ec3fe72d8d4f5c6709d28acc</title>
<path fill="none" stroke="#000000" d="M51,-71.8314C51,-64.131 51,-54.9743 51,-46.4166"/>
<polygon fill="#000000" stroke="#000000" points="54.5001,-46.4132 51,-36.4133 47.5001,-46.4133 54.5001,-46.4132"/>
<g id="a_edge2&#45;headlabel"><a xlink:href="dir_000021_000004.html" target="_top" xlink:title="2">
<text text-anchor="middle" x="57.3393" y="-47.5079" font-family="Helvetica,sans-Serif" font-size="10.00" fill="#000000">2</text>
</a>
</g>
</g>
<!-- dir_ab9c8554d9140fd8e600a51e9a012cdd -->
<g id="node3" class="node">
<title>dir_ab9c8554d9140fd8e600a51e9a012cdd</title>
<g id="a_node3"><a xlink:href="dir_ab9c8554d9140fd8e600a51e9a012cdd.html" target="_top" xlink:title="src">
<polygon fill="#ffffff" stroke="#000000" points="78,-180 24,-180 24,-144 78,-144 78,-180"/>
<text text-anchor="middle" x="51" y="-159.5" font-family="Helvetica,sans-Serif" font-size="10.00" fill="#000000">src</text>
</a>
</g>
</g>
<!-- dir_ab9c8554d9140fd8e600a51e9a012cdd&#45;&gt;dir_926e49a18849677eb7f09bd6efbd9682 -->
<g id="edge1" class="edge">
<title>dir_ab9c8554d9140fd8e600a51e9a012cdd&#45;&gt;dir_926e49a18849677eb7f09bd6efbd9682</title>
<path fill="none" stroke="#000000" d="M51,-143.8314C51,-136.131 51,-126.9743 51,-118.4166"/>
<polygon fill="#000000" stroke="#000000" points="54.5001,-118.4132 51,-108.4133 47.5001,-118.4133 54.5001,-118.4132"/>
<g id="a_edge1&#45;headlabel"><a xlink:href="dir_000022_000021.html" target="_top" xlink:title="2">
<text text-anchor="middle" x="57.3393" y="-119.5079" font-family="Helvetica,sans-Serif" font-size="10.00" fill="#000000">2</text>
</a>
</g>
</g>
</g>
</svg>
