<?xml version="1.0" encoding="UTF-8" standalone="no"?>
<!DOCTYPE svg PUBLIC "-//W3C//DTD SVG 1.1//EN"
 "http://www.w3.org/Graphics/SVG/1.1/DTD/svg11.dtd">
<!-- Generated by graphviz version 2.40.1 (20161225.0304)
 -->
<!-- Title: /home/pieter/GitHub/EAGLE&#45;ZYBO&#45;Linux/src/location&#45;finder Pages: 1 -->
<svg width="216pt" height="303pt"
 viewBox="0.00 0.00 216.00 303.00" xmlns="http://www.w3.org/2000/svg" xmlns:xlink="http://www.w3.org/1999/xlink">
<g id="graph0" class="graph" transform="scale(1 1) rotate(0) translate(4 299)">
<title>/home/pieter/GitHub/EAGLE&#45;ZYBO&#45;Linux/src/location&#45;finder</title>
<polygon fill="#ffffff" stroke="transparent" points="-4,4 -4,-299 212,-299 212,4 -4,4"/>
<g id="clust1" class="cluster">
<title>clusterdir_68267d1309a1af8e8297ef4c3efbcdba</title>
<g id="a_clust1"><a xlink:href="dir_68267d1309a1af8e8297ef4c3efbcdba.html" target="_top" xlink:title="src">
<polygon fill="#ddddee" stroke="#000000" points="8,-128 8,-287 200,-287 200,-128 8,-128"/>
<text text-anchor="middle" x="104" y="-275" font-family="Helvetica,sans-Serif" font-size="10.00" fill="#000000">src</text>
</a>
</g>
</g>
<g id="clust2" class="cluster">
<title>clusterdir_8f9e3926995673004d1bb228b2422cc7</title>
<g id="a_clust2"><a xlink:href="dir_8f9e3926995673004d1bb228b2422cc7.html" target="_top">
<polygon fill="#eeeeff" stroke="#000000" points="16,-136 16,-260 192,-260 192,-136 16,-136"/>
</a>
</g>
</g>
<!-- dir_8f9e3926995673004d1bb228b2422cc7 -->
<g id="node1" class="node">
<title>dir_8f9e3926995673004d1bb228b2422cc7</title>
<text text-anchor="middle" x="140" y="-231.5" font-family="Helvetica,sans-Serif" font-size="10.00" fill="#000000">location&#45;finder</text>
</g>
<!-- dir_6b96d718196495e61c8640dec6769ec7 -->
<g id="node2" class="node">
<title>dir_6b96d718196495e61c8640dec6769ec7</title>
<g id="a_node2"><a xlink:href="dir_6b96d718196495e61c8640dec6769ec7.html" target="_top" xlink:title="include">
<polygon fill="#ffffff" stroke="#000000" points="78,-180 24,-180 24,-144 78,-144 78,-180"/>
<text text-anchor="middle" x="51" y="-159.5" font-family="Helvetica,sans-Serif" font-size="10.00" fill="#000000">include</text>
</a>
</g>
</g>
<!-- dir_920a55bcfa35c5c1cf06a9da66085a54 -->
<g id="node4" class="node">
<title>dir_920a55bcfa35c5c1cf06a9da66085a54</title>
<g id="a_node4"><a xlink:href="dir_920a55bcfa35c5c1cf06a9da66085a54.html" target="_top" xlink:title="grid&#45;finder">
<polygon fill="#ffffff" stroke="#ff0000" points="115.5,-108 48.5,-108 48.5,-72 115.5,-72 115.5,-108"/>
<text text-anchor="middle" x="82" y="-87.5" font-family="Helvetica,sans-Serif" font-size="10.00" fill="#000000">grid&#45;finder</text>
</a>
</g>
</g>
<!-- dir_6b96d718196495e61c8640dec6769ec7&#45;&gt;dir_920a55bcfa35c5c1cf06a9da66085a54 -->
<g id="edge1" class="edge">
<title>dir_6b96d718196495e61c8640dec6769ec7&#45;&gt;dir_920a55bcfa35c5c1cf06a9da66085a54</title>
<path fill="none" stroke="#000000" d="M58.8226,-143.8314C62.2109,-135.9617 66.2541,-126.5712 70.0076,-117.8533"/>
<polygon fill="#000000" stroke="#000000" points="73.3321,-118.9822 74.0721,-108.4133 66.9027,-116.214 73.3321,-118.9822"/>
<g id="a_edge1&#45;headlabel"><a xlink:href="dir_000018_000015.html" target="_top" xlink:title="3">
<text text-anchor="middle" x="74.5185" y="-120.9066" font-family="Helvetica,sans-Serif" font-size="10.00" fill="#000000">3</text>
</a>
</g>
</g>
<!-- dir_541b4f741840367a3edb240142f9e0cb -->
<g id="node3" class="node">
<title>dir_541b4f741840367a3edb240142f9e0cb</title>
<g id="a_node3"><a xlink:href="dir_541b4f741840367a3edb240142f9e0cb.html" target="_top" xlink:title="src">
<polygon fill="#ffffff" stroke="#000000" points="78,-252 24,-252 24,-216 78,-216 78,-252"/>
<text text-anchor="middle" x="51" y="-231.5" font-family="Helvetica,sans-Serif" font-size="10.00" fill="#000000">src</text>
</a>
</g>
</g>
<!-- dir_541b4f741840367a3edb240142f9e0cb&#45;&gt;dir_6b96d718196495e61c8640dec6769ec7 -->
<g id="edge3" class="edge">
<title>dir_541b4f741840367a3edb240142f9e0cb&#45;&gt;dir_6b96d718196495e61c8640dec6769ec7</title>
<path fill="none" stroke="#000000" d="M51,-215.8314C51,-208.131 51,-198.9743 51,-190.4166"/>
<polygon fill="#000000" stroke="#000000" points="54.5001,-190.4132 51,-180.4133 47.5001,-190.4133 54.5001,-190.4132"/>
<g id="a_edge3&#45;headlabel"><a xlink:href="dir_000019_000018.html" target="_top" xlink:title="1">
<text text-anchor="middle" x="57.3393" y="-191.5079" font-family="Helvetica,sans-Serif" font-size="10.00" fill="#000000">1</text>
</a>
</g>
</g>
<!-- dir_541b4f741840367a3edb240142f9e0cb&#45;&gt;dir_920a55bcfa35c5c1cf06a9da66085a54 -->
<g id="edge4" class="edge">
<title>dir_541b4f741840367a3edb240142f9e0cb&#45;&gt;dir_920a55bcfa35c5c1cf06a9da66085a54</title>
<path fill="none" stroke="#000000" d="M66.9905,-215.9169C74.6538,-206.0371 83.0166,-193.1563 87,-180 93.1033,-159.8422 91.4073,-136.0045 88.4258,-117.9274"/>
<polygon fill="#000000" stroke="#000000" points="91.8516,-117.206 86.5709,-108.021 84.9712,-118.4943 91.8516,-117.206"/>
<g id="a_edge4&#45;headlabel"><a xlink:href="dir_000019_000015.html" target="_top" xlink:title="1">
<text text-anchor="middle" x="95.3038" y="-117.7167" font-family="Helvetica,sans-Serif" font-size="10.00" fill="#000000">1</text>
</a>
</g>
</g>
<!-- dir_d2da34f738933fa17ec589dd95f08c72 -->
<g id="node5" class="node">
<title>dir_d2da34f738933fa17ec589dd95f08c72</title>
<g id="a_node5"><a xlink:href="dir_d2da34f738933fa17ec589dd95f08c72.html" target="_top" xlink:title="mask">
<polygon fill="#ffffff" stroke="#ff0000" points="109,-36 55,-36 55,0 109,0 109,-36"/>
<text text-anchor="middle" x="82" y="-15.5" font-family="Helvetica,sans-Serif" font-size="10.00" fill="#000000">mask</text>
</a>
</g>
</g>
<!-- dir_541b4f741840367a3edb240142f9e0cb&#45;&gt;dir_d2da34f738933fa17ec589dd95f08c72 -->
<g id="edge5" class="edge">
<title>dir_541b4f741840367a3edb240142f9e0cb&#45;&gt;dir_d2da34f738933fa17ec589dd95f08c72</title>
<path fill="none" stroke="#000000" d="M72.7319,-215.8711C83.1633,-206.1699 95.0838,-193.4632 103,-180 119.9598,-151.1561 120.0569,-141.0934 125,-108 127.3637,-92.1756 130.279,-87.104 125,-72 121.4043,-61.7121 114.9372,-51.9193 108.0924,-43.568"/>
<polygon fill="#000000" stroke="#000000" points="110.7164,-41.2517 101.4956,-36.0337 105.4498,-45.863 110.7164,-41.2517"/>
<g id="a_edge5&#45;headlabel"><a xlink:href="dir_000019_000025.html" target="_top" xlink:title="1">
<text text-anchor="middle" x="115.2205" y="-39.5858" font-family="Helvetica,sans-Serif" font-size="10.00" fill="#000000">1</text>
</a>
</g>
</g>
<!-- dir_920a55bcfa35c5c1cf06a9da66085a54&#45;&gt;dir_d2da34f738933fa17ec589dd95f08c72 -->
<g id="edge2" class="edge">
<title>dir_920a55bcfa35c5c1cf06a9da66085a54&#45;&gt;dir_d2da34f738933fa17ec589dd95f08c72</title>
<path fill="none" stroke="#000000" d="M76.0476,-71.8314C75.2972,-64.131 75.0763,-54.9743 75.3849,-46.4166"/>
<polygon fill="#000000" stroke="#000000" points="78.8792,-46.6161 76.024,-36.4133 71.8935,-46.1697 78.8792,-46.6161"/>
<g id="a_edge2&#45;headlabel"><a xlink:href="dir_000015_000025.html" target="_top" xlink:title="1">
<text text-anchor="middle" x="81.4836" y="-47.8844" font-family="Helvetica,sans-Serif" font-size="10.00" fill="#000000">1</text>
</a>
</g>
</g>
<!-- dir_d2da34f738933fa17ec589dd95f08c72&#45;&gt;dir_920a55bcfa35c5c1cf06a9da66085a54 -->
<g id="edge6" class="edge">
<title>dir_d2da34f738933fa17ec589dd95f08c72&#45;&gt;dir_920a55bcfa35c5c1cf06a9da66085a54</title>
<path fill="none" stroke="#000000" d="M87.976,-36.4133C88.7071,-44.0593 88.9203,-53.1084 88.6155,-61.5726"/>
<polygon fill="#000000" stroke="#000000" points="85.1048,-61.6264 87.9524,-71.8314 92.0902,-62.078 85.1048,-61.6264"/>
<g id="a_edge6&#45;headlabel"><a xlink:href="dir_000025_000015.html" target="_top" xlink:title="1">
<text text-anchor="middle" x="82.5032" y="-55.3562" font-family="Helvetica,sans-Serif" font-size="10.00" fill="#000000">1</text>
</a>
</g>
</g>
</g>
</svg>
