<?xml version="1.0" encoding="UTF-8" standalone="no"?>
<!DOCTYPE svg PUBLIC "-//W3C//DTD SVG 1.1//EN"
 "http://www.w3.org/Graphics/SVG/1.1/DTD/svg11.dtd">
<!-- Generated by graphviz version 2.40.1 (20161225.0304)
 -->
<!-- Title: /home/pieter/GitHub/EAGLE&#45;ZYBO&#45;Linux/src/crypto/src Pages: 1 -->
<svg width="206pt" height="151pt"
 viewBox="0.00 0.00 206.00 151.00" xmlns="http://www.w3.org/2000/svg" xmlns:xlink="http://www.w3.org/1999/xlink">
<g id="graph0" class="graph" transform="scale(1 1) rotate(0) translate(4 147)">
<title>/home/pieter/GitHub/EAGLE&#45;ZYBO&#45;Linux/src/crypto/src</title>
<polygon fill="#ffffff" stroke="transparent" points="-4,4 -4,-147 202,-147 202,4 -4,4"/>
<g id="clust1" class="cluster">
<title>clusterdir_4261af1259721e3e39e0d2dd7354b511</title>
<g id="a_clust1"><a xlink:href="dir_4261af1259721e3e39e0d2dd7354b511.html" target="_top" xlink:title="crypto">
<polygon fill="#ddddee" stroke="#000000" points="64,-64 64,-135 134,-135 134,-64 64,-64"/>
<text text-anchor="middle" x="99" y="-123" font-family="Helvetica,sans-Serif" font-size="10.00" fill="#000000">crypto</text>
</a>
</g>
</g>
<!-- dir_55e250dd341373e0cb8728b6db6bcdc0 -->
<g id="node1" class="node">
<title>dir_55e250dd341373e0cb8728b6db6bcdc0</title>
<g id="a_node1"><a xlink:href="dir_55e250dd341373e0cb8728b6db6bcdc0.html" target="_top" xlink:title="src">
<polygon fill="#eeeeff" stroke="#000000" points="126,-108 72,-108 72,-72 126,-72 126,-108"/>
<text text-anchor="middle" x="99" y="-87.5" font-family="Helvetica,sans-Serif" font-size="10.00" fill="#000000">src</text>
</a>
</g>
</g>
<!-- dir_a12f9ff70e97ab9b25e4c1d80233d3e3 -->
<g id="node2" class="node">
<title>dir_a12f9ff70e97ab9b25e4c1d80233d3e3</title>
<g id="a_node2"><a xlink:href="dir_a12f9ff70e97ab9b25e4c1d80233d3e3.html" target="_top" xlink:title="include">
<polygon fill="none" stroke="#000000" points="54,-36 0,-36 0,0 54,0 54,-36"/>
<text text-anchor="middle" x="27" y="-15.5" font-family="Helvetica,sans-Serif" font-size="10.00" fill="#000000">include</text>
</a>
</g>
</g>
<!-- dir_55e250dd341373e0cb8728b6db6bcdc0&#45;&gt;dir_a12f9ff70e97ab9b25e4c1d80233d3e3 -->
<g id="edge1" class="edge">
<title>dir_55e250dd341373e0cb8728b6db6bcdc0&#45;&gt;dir_a12f9ff70e97ab9b25e4c1d80233d3e3</title>
<path fill="none" stroke="#000000" d="M80.8314,-71.8314C72.2848,-63.2848 61.9443,-52.9443 52.6198,-43.6198"/>
<polygon fill="#000000" stroke="#000000" points="54.9592,-41.0095 45.4133,-36.4133 50.0095,-45.9592 54.9592,-41.0095"/>
<g id="a_edge1&#45;headlabel"><a xlink:href="dir_000009_000008.html" target="_top" xlink:title="2">
<text text-anchor="middle" x="59.5087" y="-39.0436" font-family="Helvetica,sans-Serif" font-size="10.00" fill="#000000">2</text>
</a>
</g>
</g>
<!-- dir_7b5d38f1875f1b693f62ca6a108a1129 -->
<g id="node3" class="node">
<title>dir_7b5d38f1875f1b693f62ca6a108a1129</title>
<g id="a_node3"><a xlink:href="dir_7b5d38f1875f1b693f62ca6a108a1129.html" target="_top" xlink:title="utilities">
<polygon fill="#ffffff" stroke="#ff0000" points="126,-36 72,-36 72,0 126,0 126,-36"/>
<text text-anchor="middle" x="99" y="-15.5" font-family="Helvetica,sans-Serif" font-size="10.00" fill="#000000">utilities</text>
</a>
</g>
</g>
<!-- dir_55e250dd341373e0cb8728b6db6bcdc0&#45;&gt;dir_7b5d38f1875f1b693f62ca6a108a1129 -->
<g id="edge2" class="edge">
<title>dir_55e250dd341373e0cb8728b6db6bcdc0&#45;&gt;dir_7b5d38f1875f1b693f62ca6a108a1129</title>
<path fill="none" stroke="#000000" d="M99,-71.8314C99,-64.131 99,-54.9743 99,-46.4166"/>
<polygon fill="#000000" stroke="#000000" points="102.5001,-46.4132 99,-36.4133 95.5001,-46.4133 102.5001,-46.4132"/>
<g id="a_edge2&#45;headlabel"><a xlink:href="dir_000009_000034.html" target="_top" xlink:title="1">
<text text-anchor="middle" x="105.3393" y="-47.5079" font-family="Helvetica,sans-Serif" font-size="10.00" fill="#000000">1</text>
</a>
</g>
</g>
<!-- dir_d0537398ec3fe72d8d4f5c6709d28acc -->
<g id="node4" class="node">
<title>dir_d0537398ec3fe72d8d4f5c6709d28acc</title>
<g id="a_node4"><a xlink:href="dir_d0537398ec3fe72d8d4f5c6709d28acc.html" target="_top" xlink:title="comm">
<polygon fill="#ffffff" stroke="#ff0000" points="198,-36 144,-36 144,0 198,0 198,-36"/>
<text text-anchor="middle" x="171" y="-15.5" font-family="Helvetica,sans-Serif" font-size="10.00" fill="#000000">comm</text>
</a>
</g>
</g>
<!-- dir_55e250dd341373e0cb8728b6db6bcdc0&#45;&gt;dir_d0537398ec3fe72d8d4f5c6709d28acc -->
<g id="edge3" class="edge">
<title>dir_55e250dd341373e0cb8728b6db6bcdc0&#45;&gt;dir_d0537398ec3fe72d8d4f5c6709d28acc</title>
<path fill="none" stroke="#000000" d="M117.1686,-71.8314C125.7152,-63.2848 136.0557,-52.9443 145.3802,-43.6198"/>
<polygon fill="#000000" stroke="#000000" points="147.9905,-45.9592 152.5867,-36.4133 143.0408,-41.0095 147.9905,-45.9592"/>
<g id="a_edge3&#45;headlabel"><a xlink:href="dir_000009_000004.html" target="_top" xlink:title="2">
<text text-anchor="middle" x="147.4564" y="-48.0087" font-family="Helvetica,sans-Serif" font-size="10.00" fill="#000000">2</text>
</a>
</g>
</g>
</g>
</svg>
