<?xml version="1.0" encoding="UTF-8" standalone="no"?>
<!DOCTYPE svg PUBLIC "-//W3C//DTD SVG 1.1//EN"
 "http://www.w3.org/Graphics/SVG/1.1/DTD/svg11.dtd">
<!-- Generated by graphviz version 2.40.1 (20161225.0304)
 -->
<!-- Title: /home/pieter/GitHub/EAGLE&#45;ZYBO&#45;Linux/src/greet Pages: 1 -->
<svg width="182pt" height="183pt"
 viewBox="0.00 0.00 182.00 183.00" xmlns="http://www.w3.org/2000/svg" xmlns:xlink="http://www.w3.org/1999/xlink">
<g id="graph0" class="graph" transform="scale(1 1) rotate(0) translate(4 179)">
<title>/home/pieter/GitHub/EAGLE&#45;ZYBO&#45;Linux/src/greet</title>
<polygon fill="#ffffff" stroke="transparent" points="-4,4 -4,-179 178,-179 178,4 -4,4"/>
<g id="clust1" class="cluster">
<title>clusterdir_68267d1309a1af8e8297ef4c3efbcdba</title>
<g id="a_clust1"><a xlink:href="dir_68267d1309a1af8e8297ef4c3efbcdba.html" target="_top" xlink:title="src">
<polygon fill="#ddddee" stroke="#000000" points="8,-8 8,-167 166,-167 166,-8 8,-8"/>
<text text-anchor="middle" x="87" y="-155" font-family="Helvetica,sans-Serif" font-size="10.00" fill="#000000">src</text>
</a>
</g>
</g>
<g id="clust2" class="cluster">
<title>clusterdir_9f42a264daae6f1215a4a8774a60c231</title>
<g id="a_clust2"><a xlink:href="dir_9f42a264daae6f1215a4a8774a60c231.html" target="_top">
<polygon fill="#eeeeff" stroke="#000000" points="16,-16 16,-140 158,-140 158,-16 16,-16"/>
</a>
</g>
</g>
<!-- dir_9f42a264daae6f1215a4a8774a60c231 -->
<g id="node1" class="node">
<title>dir_9f42a264daae6f1215a4a8774a60c231</title>
<text text-anchor="middle" x="123" y="-111.5" font-family="Helvetica,sans-Serif" font-size="10.00" fill="#000000">greet</text>
</g>
<!-- dir_defcd70949f97dabb2e852c51988a4af -->
<g id="node2" class="node">
<title>dir_defcd70949f97dabb2e852c51988a4af</title>
<g id="a_node2"><a xlink:href="dir_defcd70949f97dabb2e852c51988a4af.html" target="_top" xlink:title="include">
<polygon fill="#ffffff" stroke="#000000" points="78,-60 24,-60 24,-24 78,-24 78,-60"/>
<text text-anchor="middle" x="51" y="-39.5" font-family="Helvetica,sans-Serif" font-size="10.00" fill="#000000">include</text>
</a>
</g>
</g>
<!-- dir_3da3ac0ce7db195be021ffdfd786c0c9 -->
<g id="node3" class="node">
<title>dir_3da3ac0ce7db195be021ffdfd786c0c9</title>
<g id="a_node3"><a xlink:href="dir_3da3ac0ce7db195be021ffdfd786c0c9.html" target="_top" xlink:title="src">
<polygon fill="#ffffff" stroke="#000000" points="78,-132 24,-132 24,-96 78,-96 78,-132"/>
<text text-anchor="middle" x="51" y="-111.5" font-family="Helvetica,sans-Serif" font-size="10.00" fill="#000000">src</text>
</a>
</g>
</g>
<!-- dir_3da3ac0ce7db195be021ffdfd786c0c9&#45;&gt;dir_defcd70949f97dabb2e852c51988a4af -->
<g id="edge1" class="edge">
<title>dir_3da3ac0ce7db195be021ffdfd786c0c9&#45;&gt;dir_defcd70949f97dabb2e852c51988a4af</title>
<path fill="none" stroke="#000000" d="M51,-95.8314C51,-88.131 51,-78.9743 51,-70.4166"/>
<polygon fill="#000000" stroke="#000000" points="54.5001,-70.4132 51,-60.4133 47.5001,-70.4133 54.5001,-70.4132"/>
<g id="a_edge1&#45;headlabel"><a xlink:href="dir_000012_000011.html" target="_top" xlink:title="1">
<text text-anchor="middle" x="57.3393" y="-71.5079" font-family="Helvetica,sans-Serif" font-size="10.00" fill="#000000">1</text>
</a>
</g>
</g>
</g>
</svg>
