<?xml version="1.0" encoding="UTF-8" standalone="no"?>
<!DOCTYPE svg PUBLIC "-//W3C//DTD SVG 1.1//EN"
 "http://www.w3.org/Graphics/SVG/1.1/DTD/svg11.dtd">
<!-- Generated by graphviz version 2.40.1 (20161225.0304)
 -->
<!-- Title: /home/pieter/GitHub/EAGLE&#45;ZYBO&#45;Linux/src/crypto/src Pages: 1 -->
<svg width="244pt" height="223pt"
 viewBox="0.00 0.00 244.00 223.00" xmlns="http://www.w3.org/2000/svg" xmlns:xlink="http://www.w3.org/1999/xlink">
<g id="graph0" class="graph" transform="scale(1 1) rotate(0) translate(4 219)">
<title>/home/pieter/GitHub/EAGLE&#45;ZYBO&#45;Linux/src/crypto/src</title>
<polygon fill="#ffffff" stroke="transparent" points="-4,4 -4,-219 240,-219 240,4 -4,4"/>
<g id="clust1" class="cluster">
<title>clusterdir_4261af1259721e3e39e0d2dd7354b511</title>
<g id="a_clust1"><a xlink:href="dir_4261af1259721e3e39e0d2dd7354b511.html" target="_top" xlink:title="crypto">
<polygon fill="#ddddee" stroke="#000000" points="74,-136 74,-207 144,-207 144,-136 74,-136"/>
<text text-anchor="middle" x="109" y="-195" font-family="Helvetica,sans-Serif" font-size="10.00" fill="#000000">crypto</text>
</a>
</g>
</g>
<!-- dir_55e250dd341373e0cb8728b6db6bcdc0 -->
<g id="node1" class="node">
<title>dir_55e250dd341373e0cb8728b6db6bcdc0</title>
<g id="a_node1"><a xlink:href="dir_55e250dd341373e0cb8728b6db6bcdc0.html" target="_top" xlink:title="src">
<polygon fill="#eeeeff" stroke="#000000" points="136,-180 82,-180 82,-144 136,-144 136,-180"/>
<text text-anchor="middle" x="109" y="-159.5" font-family="Helvetica,sans-Serif" font-size="10.00" fill="#000000">src</text>
</a>
</g>
</g>
<!-- dir_a12f9ff70e97ab9b25e4c1d80233d3e3 -->
<g id="node2" class="node">
<title>dir_a12f9ff70e97ab9b25e4c1d80233d3e3</title>
<g id="a_node2"><a xlink:href="dir_a12f9ff70e97ab9b25e4c1d80233d3e3.html" target="_top" xlink:title="include">
<polygon fill="none" stroke="#000000" points="54,-108 0,-108 0,-72 54,-72 54,-108"/>
<text text-anchor="middle" x="27" y="-87.5" font-family="Helvetica,sans-Serif" font-size="10.00" fill="#000000">include</text>
</a>
</g>
</g>
<!-- dir_55e250dd341373e0cb8728b6db6bcdc0&#45;&gt;dir_a12f9ff70e97ab9b25e4c1d80233d3e3 -->
<g id="edge1" class="edge">
<title>dir_55e250dd341373e0cb8728b6db6bcdc0&#45;&gt;dir_a12f9ff70e97ab9b25e4c1d80233d3e3</title>
<path fill="none" stroke="#000000" d="M88.3079,-143.8314C78.3052,-135.0485 66.145,-124.3712 55.3001,-114.8489"/>
<polygon fill="#000000" stroke="#000000" points="57.5092,-112.1308 47.6854,-108.1628 52.8906,-117.3909 57.5092,-112.1308"/>
<g id="a_edge1&#45;headlabel"><a xlink:href="dir_000011_000010.html" target="_top" xlink:title="3">
<text text-anchor="middle" x="62.0836" y="-109.869" font-family="Helvetica,sans-Serif" font-size="10.00" fill="#000000">3</text>
</a>
</g>
</g>
<!-- dir_7b5d38f1875f1b693f62ca6a108a1129 -->
<g id="node3" class="node">
<title>dir_7b5d38f1875f1b693f62ca6a108a1129</title>
<g id="a_node3"><a xlink:href="dir_7b5d38f1875f1b693f62ca6a108a1129.html" target="_top" xlink:title="utilities">
<polygon fill="#ffffff" stroke="#ff0000" points="136,-36 82,-36 82,0 136,0 136,-36"/>
<text text-anchor="middle" x="109" y="-15.5" font-family="Helvetica,sans-Serif" font-size="10.00" fill="#000000">utilities</text>
</a>
</g>
</g>
<!-- dir_55e250dd341373e0cb8728b6db6bcdc0&#45;&gt;dir_7b5d38f1875f1b693f62ca6a108a1129 -->
<g id="edge2" class="edge">
<title>dir_55e250dd341373e0cb8728b6db6bcdc0&#45;&gt;dir_7b5d38f1875f1b693f62ca6a108a1129</title>
<path fill="none" stroke="#000000" d="M105.585,-143.5804C103.8291,-133.1767 101.8774,-119.9092 101,-108 99.8244,-92.0432 99.8244,-87.9568 101,-72 101.6169,-63.6264 102.7649,-54.5812 104.0026,-46.3322"/>
<polygon fill="#000000" stroke="#000000" points="107.4648,-46.8463 105.585,-36.4196 100.5523,-45.7428 107.4648,-46.8463"/>
<g id="a_edge2&#45;headlabel"><a xlink:href="dir_000011_000044.html" target="_top" xlink:title="1">
<text text-anchor="middle" x="109.702" y="-48.3436" font-family="Helvetica,sans-Serif" font-size="10.00" fill="#000000">1</text>
</a>
</g>
</g>
<!-- dir_d0537398ec3fe72d8d4f5c6709d28acc -->
<g id="node4" class="node">
<title>dir_d0537398ec3fe72d8d4f5c6709d28acc</title>
<g id="a_node4"><a xlink:href="dir_d0537398ec3fe72d8d4f5c6709d28acc.html" target="_top" xlink:title="comm">
<polygon fill="#ffffff" stroke="#ff0000" points="164,-108 110,-108 110,-72 164,-72 164,-108"/>
<text text-anchor="middle" x="137" y="-87.5" font-family="Helvetica,sans-Serif" font-size="10.00" fill="#000000">comm</text>
</a>
</g>
</g>
<!-- dir_55e250dd341373e0cb8728b6db6bcdc0&#45;&gt;dir_d0537398ec3fe72d8d4f5c6709d28acc -->
<g id="edge3" class="edge">
<title>dir_55e250dd341373e0cb8728b6db6bcdc0&#45;&gt;dir_d0537398ec3fe72d8d4f5c6709d28acc</title>
<path fill="none" stroke="#000000" d="M116.0656,-143.8314C119.126,-135.9617 122.7779,-126.5712 126.1682,-117.8533"/>
<polygon fill="#000000" stroke="#000000" points="129.4768,-119.0019 129.8393,-108.4133 122.9527,-116.4647 129.4768,-119.0019"/>
<g id="a_edge3&#45;headlabel"><a xlink:href="dir_000011_000006.html" target="_top" xlink:title="2">
<text text-anchor="middle" x="130.8202" y="-120.8812" font-family="Helvetica,sans-Serif" font-size="10.00" fill="#000000">2</text>
</a>
</g>
</g>
<!-- dir_91e236abda27321aea0f636eebe48640 -->
<g id="node5" class="node">
<title>dir_91e236abda27321aea0f636eebe48640</title>
<g id="a_node5"><a xlink:href="dir_91e236abda27321aea0f636eebe48640.html" target="_top" xlink:title="xkcp">
<polygon fill="#ffffff" stroke="#ff0000" points="236,-108 182,-108 182,-72 236,-72 236,-108"/>
<text text-anchor="middle" x="209" y="-87.5" font-family="Helvetica,sans-Serif" font-size="10.00" fill="#000000">xkcp</text>
</a>
</g>
</g>
<!-- dir_55e250dd341373e0cb8728b6db6bcdc0&#45;&gt;dir_91e236abda27321aea0f636eebe48640 -->
<g id="edge4" class="edge">
<title>dir_55e250dd341373e0cb8728b6db6bcdc0&#45;&gt;dir_91e236abda27321aea0f636eebe48640</title>
<path fill="none" stroke="#000000" d="M134.2342,-143.8314C146.788,-134.7927 162.1283,-123.7476 175.6391,-114.0198"/>
<polygon fill="#000000" stroke="#000000" points="177.7036,-116.8463 183.7739,-108.1628 173.6134,-111.1655 177.7036,-116.8463"/>
<g id="a_edge4&#45;headlabel"><a xlink:href="dir_000011_000012.html" target="_top" xlink:title="1">
<text text-anchor="middle" x="176.4454" y="-118.7508" font-family="Helvetica,sans-Serif" font-size="10.00" fill="#000000">1</text>
</a>
</g>
</g>
<!-- dir_d0537398ec3fe72d8d4f5c6709d28acc&#45;&gt;dir_7b5d38f1875f1b693f62ca6a108a1129 -->
<g id="edge5" class="edge">
<title>dir_d0537398ec3fe72d8d4f5c6709d28acc&#45;&gt;dir_7b5d38f1875f1b693f62ca6a108a1129</title>
<path fill="none" stroke="#000000" d="M129.9344,-71.8314C126.874,-63.9617 123.2221,-54.5712 119.8318,-45.8533"/>
<polygon fill="#000000" stroke="#000000" points="123.0473,-44.4647 116.1607,-36.4133 116.5232,-47.0019 123.0473,-44.4647"/>
<g id="a_edge5&#45;headlabel"><a xlink:href="dir_000006_000044.html" target="_top" xlink:title="1">
<text text-anchor="middle" x="126.9963" y="-44.2859" font-family="Helvetica,sans-Serif" font-size="10.00" fill="#000000">1</text>
</a>
</g>
</g>
</g>
</svg>
