<?xml version="1.0" encoding="UTF-8" standalone="no"?>
<!DOCTYPE svg PUBLIC "-//W3C//DTD SVG 1.1//EN"
 "http://www.w3.org/Graphics/SVG/1.1/DTD/svg11.dtd">
<!-- Generated by graphviz version 2.40.1 (20161225.0304)
 -->
<!-- Title: /home/pieter/GitHub/EAGLE&#45;ZYBO&#45;Linux/src/base64 Pages: 1 -->
<svg width="182pt" height="183pt"
 viewBox="0.00 0.00 182.00 183.00" xmlns="http://www.w3.org/2000/svg" xmlns:xlink="http://www.w3.org/1999/xlink">
<g id="graph0" class="graph" transform="scale(1 1) rotate(0) translate(4 179)">
<title>/home/pieter/GitHub/EAGLE&#45;ZYBO&#45;Linux/src/base64</title>
<polygon fill="#ffffff" stroke="transparent" points="-4,4 -4,-179 178,-179 178,4 -4,4"/>
<g id="clust1" class="cluster">
<title>clusterdir_68267d1309a1af8e8297ef4c3efbcdba</title>
<g id="a_clust1"><a xlink:href="dir_68267d1309a1af8e8297ef4c3efbcdba.html" target="_top" xlink:title="src">
<polygon fill="#ddddee" stroke="#000000" points="8,-8 8,-167 166,-167 166,-8 8,-8"/>
<text text-anchor="middle" x="87" y="-155" font-family="Helvetica,sans-Serif" font-size="10.00" fill="#000000">src</text>
</a>
</g>
</g>
<g id="clust2" class="cluster">
<title>clusterdir_9ab17fd7f07b28ef7164bcc825435f04</title>
<g id="a_clust2"><a xlink:href="dir_9ab17fd7f07b28ef7164bcc825435f04.html" target="_top">
<polygon fill="#eeeeff" stroke="#000000" points="16,-16 16,-140 158,-140 158,-16 16,-16"/>
</a>
</g>
</g>
<!-- dir_9ab17fd7f07b28ef7164bcc825435f04 -->
<g id="node1" class="node">
<title>dir_9ab17fd7f07b28ef7164bcc825435f04</title>
<text text-anchor="middle" x="123" y="-111.5" font-family="Helvetica,sans-Serif" font-size="10.00" fill="#000000">base64</text>
</g>
<!-- dir_83bd33d94b9ef7b37f12bb4a08da7564 -->
<g id="node2" class="node">
<title>dir_83bd33d94b9ef7b37f12bb4a08da7564</title>
<g id="a_node2"><a xlink:href="dir_83bd33d94b9ef7b37f12bb4a08da7564.html" target="_top" xlink:title="include">
<polygon fill="#ffffff" stroke="#000000" points="78,-60 24,-60 24,-24 78,-24 78,-60"/>
<text text-anchor="middle" x="51" y="-39.5" font-family="Helvetica,sans-Serif" font-size="10.00" fill="#000000">include</text>
</a>
</g>
</g>
<!-- dir_0fcae91cf641a1d06ad041f975088b60 -->
<g id="node3" class="node">
<title>dir_0fcae91cf641a1d06ad041f975088b60</title>
<g id="a_node3"><a xlink:href="dir_0fcae91cf641a1d06ad041f975088b60.html" target="_top" xlink:title="src">
<polygon fill="#ffffff" stroke="#000000" points="78,-132 24,-132 24,-96 78,-96 78,-132"/>
<text text-anchor="middle" x="51" y="-111.5" font-family="Helvetica,sans-Serif" font-size="10.00" fill="#000000">src</text>
</a>
</g>
</g>
<!-- dir_0fcae91cf641a1d06ad041f975088b60&#45;&gt;dir_83bd33d94b9ef7b37f12bb4a08da7564 -->
<g id="edge1" class="edge">
<title>dir_0fcae91cf641a1d06ad041f975088b60&#45;&gt;dir_83bd33d94b9ef7b37f12bb4a08da7564</title>
<path fill="none" stroke="#000000" d="M51,-95.8314C51,-88.131 51,-78.9743 51,-70.4166"/>
<polygon fill="#000000" stroke="#000000" points="54.5001,-70.4132 51,-60.4133 47.5001,-70.4133 54.5001,-70.4132"/>
<g id="a_edge1&#45;headlabel"><a xlink:href="dir_000005_000004.html" target="_top" xlink:title="1">
<text text-anchor="middle" x="57.3393" y="-71.5079" font-family="Helvetica,sans-Serif" font-size="10.00" fill="#000000">1</text>
</a>
</g>
</g>
</g>
</svg>
