<?xml version="1.0" encoding="UTF-8" standalone="no"?>
<!DOCTYPE svg PUBLIC "-//W3C//DTD SVG 1.1//EN"
 "http://www.w3.org/Graphics/SVG/1.1/DTD/svg11.dtd">
<!-- Generated by graphviz version 2.40.1 (20161225.0304)
 -->
<!-- Title: /home/pieter/GitHub/EAGLE&#45;ZYBO&#45;Linux/src/logger/include Pages: 1 -->
<svg width="109pt" height="151pt"
 viewBox="0.00 0.00 109.00 151.00" xmlns="http://www.w3.org/2000/svg" xmlns:xlink="http://www.w3.org/1999/xlink">
<g id="graph0" class="graph" transform="scale(1 1) rotate(0) translate(4 147)">
<title>/home/pieter/GitHub/EAGLE&#45;ZYBO&#45;Linux/src/logger/include</title>
<polygon fill="#ffffff" stroke="transparent" points="-4,4 -4,-147 105,-147 105,4 -4,4"/>
<g id="clust1" class="cluster">
<title>clusterdir_ffde1fbcaa8d6b0d34e29c3bddf7a801</title>
<g id="a_clust1"><a xlink:href="dir_ffde1fbcaa8d6b0d34e29c3bddf7a801.html" target="_top" xlink:title="logger">
<polygon fill="#ddddee" stroke="#000000" points="15.5,-64 15.5,-135 85.5,-135 85.5,-64 15.5,-64"/>
<text text-anchor="middle" x="50.5" y="-123" font-family="Helvetica,sans-Serif" font-size="10.00" fill="#000000">logger</text>
</a>
</g>
</g>
<!-- dir_926e49a18849677eb7f09bd6efbd9682 -->
<g id="node1" class="node">
<title>dir_926e49a18849677eb7f09bd6efbd9682</title>
<g id="a_node1"><a xlink:href="dir_926e49a18849677eb7f09bd6efbd9682.html" target="_top" xlink:title="include">
<polygon fill="#eeeeff" stroke="#000000" points="77.5,-108 23.5,-108 23.5,-72 77.5,-72 77.5,-108"/>
<text text-anchor="middle" x="50.5" y="-87.5" font-family="Helvetica,sans-Serif" font-size="10.00" fill="#000000">include</text>
</a>
</g>
</g>
<!-- dir_cc2494ece34082706c88d264c8a52186 -->
<g id="node2" class="node">
<title>dir_cc2494ece34082706c88d264c8a52186</title>
<g id="a_node2"><a xlink:href="dir_cc2494ece34082706c88d264c8a52186.html" target="_top" xlink:title="baremetal&#45;comm">
<polygon fill="#ffffff" stroke="#ff0000" points="101,-36 0,-36 0,0 101,0 101,-36"/>
<text text-anchor="middle" x="50.5" y="-15.5" font-family="Helvetica,sans-Serif" font-size="10.00" fill="#000000">baremetal&#45;comm</text>
</a>
</g>
</g>
<!-- dir_926e49a18849677eb7f09bd6efbd9682&#45;&gt;dir_cc2494ece34082706c88d264c8a52186 -->
<g id="edge1" class="edge">
<title>dir_926e49a18849677eb7f09bd6efbd9682&#45;&gt;dir_cc2494ece34082706c88d264c8a52186</title>
<path fill="none" stroke="#000000" d="M50.5,-71.8314C50.5,-64.131 50.5,-54.9743 50.5,-46.4166"/>
<polygon fill="#000000" stroke="#000000" points="54.0001,-46.4132 50.5,-36.4133 47.0001,-46.4133 54.0001,-46.4132"/>
<g id="a_edge1&#45;headlabel"><a xlink:href="dir_000023_000001.html" target="_top" xlink:title="1">
<text text-anchor="middle" x="56.8393" y="-47.5079" font-family="Helvetica,sans-Serif" font-size="10.00" fill="#000000">1</text>
</a>
</g>
</g>
</g>
</svg>
