<?xml version="1.0" encoding="UTF-8" standalone="no"?>
<!DOCTYPE svg PUBLIC "-//W3C//DTD SVG 1.1//EN"
 "http://www.w3.org/Graphics/SVG/1.1/DTD/svg11.dtd">
<!-- Generated by graphviz version 2.40.1 (20161225.0304)
 -->
<!-- Title: /home/pieter/GitHub/EAGLE&#45;ZYBO&#45;Linux/src/qr&#45;crypto&#45;manager/src Pages: 1 -->
<svg width="290pt" height="151pt"
 viewBox="0.00 0.00 290.00 151.00" xmlns="http://www.w3.org/2000/svg" xmlns:xlink="http://www.w3.org/1999/xlink">
<g id="graph0" class="graph" transform="scale(1 1) rotate(0) translate(4 147)">
<title>/home/pieter/GitHub/EAGLE&#45;ZYBO&#45;Linux/src/qr&#45;crypto&#45;manager/src</title>
<polygon fill="#ffffff" stroke="transparent" points="-4,4 -4,-147 286,-147 286,4 -4,4"/>
<g id="clust1" class="cluster">
<title>clusterdir_2b5615639a780788a137586f580a6a22</title>
<g id="a_clust1"><a xlink:href="dir_2b5615639a780788a137586f580a6a22.html" target="_top" xlink:title="qr&#45;crypto&#45;manager">
<polygon fill="#ddddee" stroke="#000000" points="85,-64 85,-135 192,-135 192,-64 85,-64"/>
<text text-anchor="middle" x="138.5" y="-123" font-family="Helvetica,sans-Serif" font-size="10.00" fill="#000000">qr&#45;crypto&#45;manager</text>
</a>
</g>
</g>
<!-- dir_ef6536ef615fa1de28d5fe188f6220b4 -->
<g id="node1" class="node">
<title>dir_ef6536ef615fa1de28d5fe188f6220b4</title>
<g id="a_node1"><a xlink:href="dir_ef6536ef615fa1de28d5fe188f6220b4.html" target="_top" xlink:title="src">
<polygon fill="#eeeeff" stroke="#000000" points="165,-108 111,-108 111,-72 165,-72 165,-108"/>
<text text-anchor="middle" x="138" y="-87.5" font-family="Helvetica,sans-Serif" font-size="10.00" fill="#000000">src</text>
</a>
</g>
</g>
<!-- dir_4261af1259721e3e39e0d2dd7354b511 -->
<g id="node2" class="node">
<title>dir_4261af1259721e3e39e0d2dd7354b511</title>
<g id="a_node2"><a xlink:href="dir_4261af1259721e3e39e0d2dd7354b511.html" target="_top" xlink:title="crypto">
<polygon fill="#ffffff" stroke="#ff0000" points="54,-36 0,-36 0,0 54,0 54,-36"/>
<text text-anchor="middle" x="27" y="-15.5" font-family="Helvetica,sans-Serif" font-size="10.00" fill="#000000">crypto</text>
</a>
</g>
</g>
<!-- dir_ef6536ef615fa1de28d5fe188f6220b4&#45;&gt;dir_4261af1259721e3e39e0d2dd7354b511 -->
<g id="edge1" class="edge">
<title>dir_ef6536ef615fa1de28d5fe188f6220b4&#45;&gt;dir_4261af1259721e3e39e0d2dd7354b511</title>
<path fill="none" stroke="#000000" d="M110.8463,-72.3868C96.3331,-62.9728 78.2848,-51.2658 62.6548,-41.1274"/>
<polygon fill="#000000" stroke="#000000" points="64.5523,-38.1865 54.258,-35.6809 60.743,-44.0592 64.5523,-38.1865"/>
<g id="a_edge1&#45;headlabel"><a xlink:href="dir_000035_000007.html" target="_top" xlink:title="1">
<text text-anchor="middle" x="69.1132" y="-35.2606" font-family="Helvetica,sans-Serif" font-size="10.00" fill="#000000">1</text>
</a>
</g>
</g>
<!-- dir_9ab17fd7f07b28ef7164bcc825435f04 -->
<g id="node3" class="node">
<title>dir_9ab17fd7f07b28ef7164bcc825435f04</title>
<g id="a_node3"><a xlink:href="dir_9ab17fd7f07b28ef7164bcc825435f04.html" target="_top" xlink:title="base64">
<polygon fill="#ffffff" stroke="#ff0000" points="126,-36 72,-36 72,0 126,0 126,-36"/>
<text text-anchor="middle" x="99" y="-15.5" font-family="Helvetica,sans-Serif" font-size="10.00" fill="#000000">base64</text>
</a>
</g>
</g>
<!-- dir_ef6536ef615fa1de28d5fe188f6220b4&#45;&gt;dir_9ab17fd7f07b28ef7164bcc825435f04 -->
<g id="edge2" class="edge">
<title>dir_ef6536ef615fa1de28d5fe188f6220b4&#45;&gt;dir_9ab17fd7f07b28ef7164bcc825435f04</title>
<path fill="none" stroke="#000000" d="M128.1587,-71.8314C123.8043,-63.7925 118.5902,-54.1666 113.7831,-45.2918"/>
<polygon fill="#000000" stroke="#000000" points="116.8143,-43.5392 108.9739,-36.4133 110.6592,-46.8732 116.8143,-43.5392"/>
<g id="a_edge2&#45;headlabel"><a xlink:href="dir_000035_000001.html" target="_top" xlink:title="1">
<text text-anchor="middle" x="121.0228" y="-42.8476" font-family="Helvetica,sans-Serif" font-size="10.00" fill="#000000">1</text>
</a>
</g>
</g>
<!-- dir_a6001fb970975ebb58a93b6f2462248e -->
<g id="node4" class="node">
<title>dir_a6001fb970975ebb58a93b6f2462248e</title>
<g id="a_node4"><a xlink:href="dir_a6001fb970975ebb58a93b6f2462248e.html" target="_top" xlink:title="qr&#45;decode">
<polygon fill="#ffffff" stroke="#ff0000" points="209.5,-36 144.5,-36 144.5,0 209.5,0 209.5,-36"/>
<text text-anchor="middle" x="177" y="-15.5" font-family="Helvetica,sans-Serif" font-size="10.00" fill="#000000">qr&#45;decode</text>
</a>
</g>
</g>
<!-- dir_ef6536ef615fa1de28d5fe188f6220b4&#45;&gt;dir_a6001fb970975ebb58a93b6f2462248e -->
<g id="edge3" class="edge">
<title>dir_ef6536ef615fa1de28d5fe188f6220b4&#45;&gt;dir_a6001fb970975ebb58a93b6f2462248e</title>
<path fill="none" stroke="#000000" d="M147.8413,-71.8314C152.1957,-63.7925 157.4098,-54.1666 162.2169,-45.2918"/>
<polygon fill="#000000" stroke="#000000" points="165.3408,-46.8732 167.0261,-36.4133 159.1857,-43.5392 165.3408,-46.8732"/>
<g id="a_edge3&#45;headlabel"><a xlink:href="dir_000035_000036.html" target="_top" xlink:title="1">
<text text-anchor="middle" x="166.1253" y="-48.8862" font-family="Helvetica,sans-Serif" font-size="10.00" fill="#000000">1</text>
</a>
</g>
</g>
<!-- dir_421be899e9c3b101231a6427a95f73ea -->
<g id="node5" class="node">
<title>dir_421be899e9c3b101231a6427a95f73ea</title>
<g id="a_node5"><a xlink:href="dir_421be899e9c3b101231a6427a95f73ea.html" target="_top" xlink:title="include">
<polygon fill="none" stroke="#000000" points="282,-36 228,-36 228,0 282,0 282,-36"/>
<text text-anchor="middle" x="255" y="-15.5" font-family="Helvetica,sans-Serif" font-size="10.00" fill="#000000">include</text>
</a>
</g>
</g>
<!-- dir_ef6536ef615fa1de28d5fe188f6220b4&#45;&gt;dir_421be899e9c3b101231a6427a95f73ea -->
<g id="edge4" class="edge">
<title>dir_ef6536ef615fa1de28d5fe188f6220b4&#45;&gt;dir_421be899e9c3b101231a6427a95f73ea</title>
<path fill="none" stroke="#000000" d="M165.1362,-73.3008C181.1172,-63.4663 201.5316,-50.9036 218.8632,-40.238"/>
<polygon fill="#000000" stroke="#000000" points="220.9234,-43.0799 227.6056,-34.8581 217.2547,-37.1183 220.9234,-43.0799"/>
<g id="a_edge4&#45;headlabel"><a xlink:href="dir_000035_000034.html" target="_top" xlink:title="1">
<text text-anchor="middle" x="219.3501" y="-44.8819" font-family="Helvetica,sans-Serif" font-size="10.00" fill="#000000">1</text>
</a>
</g>
</g>
</g>
</svg>
