<?xml version="1.0" encoding="UTF-8" standalone="no"?>
<!DOCTYPE svg PUBLIC "-//W3C//DTD SVG 1.1//EN"
 "http://www.w3.org/Graphics/SVG/1.1/DTD/svg11.dtd">
<!-- Generated by graphviz version 2.40.1 (20161225.0304)
 -->
<!-- Title: /home/pieter/GitHub/EAGLE&#45;ZYBO&#45;Linux/src/py&#45;matrix/include Pages: 1 -->
<svg width="94pt" height="151pt"
 viewBox="0.00 0.00 94.00 151.00" xmlns="http://www.w3.org/2000/svg" xmlns:xlink="http://www.w3.org/1999/xlink">
<g id="graph0" class="graph" transform="scale(1 1) rotate(0) translate(4 147)">
<title>/home/pieter/GitHub/EAGLE&#45;ZYBO&#45;Linux/src/py&#45;matrix/include</title>
<polygon fill="#ffffff" stroke="transparent" points="-4,4 -4,-147 90,-147 90,4 -4,4"/>
<g id="clust1" class="cluster">
<title>clusterdir_e933f813a55dc21e057ace61f7557bd3</title>
<g id="a_clust1"><a xlink:href="dir_e933f813a55dc21e057ace61f7557bd3.html" target="_top" xlink:title="py&#45;matrix">
<polygon fill="#ddddee" stroke="#000000" points="8,-64 8,-135 78,-135 78,-64 8,-64"/>
<text text-anchor="middle" x="43" y="-123" font-family="Helvetica,sans-Serif" font-size="10.00" fill="#000000">py&#45;matrix</text>
</a>
</g>
</g>
<!-- dir_b75e504a33bf0c7c431d91651c33a958 -->
<g id="node1" class="node">
<title>dir_b75e504a33bf0c7c431d91651c33a958</title>
<g id="a_node1"><a xlink:href="dir_b75e504a33bf0c7c431d91651c33a958.html" target="_top" xlink:title="include">
<polygon fill="#eeeeff" stroke="#000000" points="70,-108 16,-108 16,-72 70,-72 70,-108"/>
<text text-anchor="middle" x="43" y="-87.5" font-family="Helvetica,sans-Serif" font-size="10.00" fill="#000000">include</text>
</a>
</g>
</g>
<!-- dir_40d7732de2983c682bb99d86585a563c -->
<g id="node2" class="node">
<title>dir_40d7732de2983c682bb99d86585a563c</title>
<g id="a_node2"><a xlink:href="dir_40d7732de2983c682bb99d86585a563c.html" target="_top" xlink:title="matrix">
<polygon fill="#ffffff" stroke="#ff0000" points="70,-36 16,-36 16,0 70,0 70,-36"/>
<text text-anchor="middle" x="43" y="-15.5" font-family="Helvetica,sans-Serif" font-size="10.00" fill="#000000">matrix</text>
</a>
</g>
</g>
<!-- dir_b75e504a33bf0c7c431d91651c33a958&#45;&gt;dir_40d7732de2983c682bb99d86585a563c -->
<g id="edge1" class="edge">
<title>dir_b75e504a33bf0c7c431d91651c33a958&#45;&gt;dir_40d7732de2983c682bb99d86585a563c</title>
<path fill="none" stroke="#000000" d="M43,-71.8314C43,-64.131 43,-54.9743 43,-46.4166"/>
<polygon fill="#000000" stroke="#000000" points="46.5001,-46.4132 43,-36.4133 39.5001,-46.4133 46.5001,-46.4132"/>
<g id="a_edge1&#45;headlabel"><a xlink:href="dir_000030_000024.html" target="_top" xlink:title="1">
<text text-anchor="middle" x="49.3393" y="-47.5079" font-family="Helvetica,sans-Serif" font-size="10.00" fill="#000000">1</text>
</a>
</g>
</g>
</g>
</svg>
