<?xml version="1.0" encoding="UTF-8" standalone="no"?>
<!DOCTYPE svg PUBLIC "-//W3C//DTD SVG 1.1//EN"
 "http://www.w3.org/Graphics/SVG/1.1/DTD/svg11.dtd">
<!-- Generated by graphviz version 2.40.1 (20161225.0304)
 -->
<!-- Title: /home/pieter/GitHub/EAGLE&#45;ZYBO&#45;Linux/src/logger Pages: 1 -->
<svg width="230pt" height="231pt"
 viewBox="0.00 0.00 229.50 231.00" xmlns="http://www.w3.org/2000/svg" xmlns:xlink="http://www.w3.org/1999/xlink">
<g id="graph0" class="graph" transform="scale(1 1) rotate(0) translate(4 227)">
<title>/home/pieter/GitHub/EAGLE&#45;ZYBO&#45;Linux/src/logger</title>
<polygon fill="#ffffff" stroke="transparent" points="-4,4 -4,-227 225.5,-227 225.5,4 -4,4"/>
<g id="clust1" class="cluster">
<title>clusterdir_68267d1309a1af8e8297ef4c3efbcdba</title>
<g id="a_clust1"><a xlink:href="dir_68267d1309a1af8e8297ef4c3efbcdba.html" target="_top" xlink:title="src">
<polygon fill="#ddddee" stroke="#000000" points="55.5,-56 55.5,-215 213.5,-215 213.5,-56 55.5,-56"/>
<text text-anchor="middle" x="134.5" y="-203" font-family="Helvetica,sans-Serif" font-size="10.00" fill="#000000">src</text>
</a>
</g>
</g>
<g id="clust2" class="cluster">
<title>clusterdir_ffde1fbcaa8d6b0d34e29c3bddf7a801</title>
<g id="a_clust2"><a xlink:href="dir_ffde1fbcaa8d6b0d34e29c3bddf7a801.html" target="_top">
<polygon fill="#eeeeff" stroke="#000000" points="63.5,-64 63.5,-188 205.5,-188 205.5,-64 63.5,-64"/>
</a>
</g>
</g>
<!-- dir_ffde1fbcaa8d6b0d34e29c3bddf7a801 -->
<g id="node1" class="node">
<title>dir_ffde1fbcaa8d6b0d34e29c3bddf7a801</title>
<text text-anchor="middle" x="170.5" y="-159.5" font-family="Helvetica,sans-Serif" font-size="10.00" fill="#000000">logger</text>
</g>
<!-- dir_926e49a18849677eb7f09bd6efbd9682 -->
<g id="node2" class="node">
<title>dir_926e49a18849677eb7f09bd6efbd9682</title>
<g id="a_node2"><a xlink:href="dir_926e49a18849677eb7f09bd6efbd9682.html" target="_top" xlink:title="include">
<polygon fill="#ffffff" stroke="#000000" points="125.5,-108 71.5,-108 71.5,-72 125.5,-72 125.5,-108"/>
<text text-anchor="middle" x="98.5" y="-87.5" font-family="Helvetica,sans-Serif" font-size="10.00" fill="#000000">include</text>
</a>
</g>
</g>
<!-- dir_cc2494ece34082706c88d264c8a52186 -->
<g id="node4" class="node">
<title>dir_cc2494ece34082706c88d264c8a52186</title>
<g id="a_node4"><a xlink:href="dir_cc2494ece34082706c88d264c8a52186.html" target="_top" xlink:title="baremetal&#45;comm">
<polygon fill="#ffffff" stroke="#ff0000" points="101,-36 0,-36 0,0 101,0 101,-36"/>
<text text-anchor="middle" x="50.5" y="-15.5" font-family="Helvetica,sans-Serif" font-size="10.00" fill="#000000">baremetal&#45;comm</text>
</a>
</g>
</g>
<!-- dir_926e49a18849677eb7f09bd6efbd9682&#45;&gt;dir_cc2494ece34082706c88d264c8a52186 -->
<g id="edge2" class="edge">
<title>dir_926e49a18849677eb7f09bd6efbd9682&#45;&gt;dir_cc2494ece34082706c88d264c8a52186</title>
<path fill="none" stroke="#000000" d="M86.3876,-71.8314C80.9719,-63.7079 74.4758,-53.9637 68.5079,-45.0118"/>
<polygon fill="#000000" stroke="#000000" points="71.2347,-42.7923 62.7755,-36.4133 65.4104,-46.6753 71.2347,-42.7923"/>
<g id="a_edge2&#45;headlabel"><a xlink:href="dir_000026_000001.html" target="_top" xlink:title="1">
<text text-anchor="middle" x="75.591" y="-41.7083" font-family="Helvetica,sans-Serif" font-size="10.00" fill="#000000">1</text>
</a>
</g>
</g>
<!-- dir_d0537398ec3fe72d8d4f5c6709d28acc -->
<g id="node5" class="node">
<title>dir_d0537398ec3fe72d8d4f5c6709d28acc</title>
<g id="a_node5"><a xlink:href="dir_d0537398ec3fe72d8d4f5c6709d28acc.html" target="_top" xlink:title="comm">
<polygon fill="#ffffff" stroke="#ff0000" points="173.5,-36 119.5,-36 119.5,0 173.5,0 173.5,-36"/>
<text text-anchor="middle" x="146.5" y="-15.5" font-family="Helvetica,sans-Serif" font-size="10.00" fill="#000000">comm</text>
</a>
</g>
</g>
<!-- dir_926e49a18849677eb7f09bd6efbd9682&#45;&gt;dir_d0537398ec3fe72d8d4f5c6709d28acc -->
<g id="edge3" class="edge">
<title>dir_926e49a18849677eb7f09bd6efbd9682&#45;&gt;dir_d0537398ec3fe72d8d4f5c6709d28acc</title>
<path fill="none" stroke="#000000" d="M110.6124,-71.8314C116.0281,-63.7079 122.5242,-53.9637 128.4921,-45.0118"/>
<polygon fill="#000000" stroke="#000000" points="131.5896,-46.6753 134.2245,-36.4133 125.7653,-42.7923 131.5896,-46.6753"/>
<g id="a_edge3&#45;headlabel"><a xlink:href="dir_000026_000006.html" target="_top" xlink:title="1">
<text text-anchor="middle" x="131.9581" y="-48.7411" font-family="Helvetica,sans-Serif" font-size="10.00" fill="#000000">1</text>
</a>
</g>
</g>
<!-- dir_ab9c8554d9140fd8e600a51e9a012cdd -->
<g id="node3" class="node">
<title>dir_ab9c8554d9140fd8e600a51e9a012cdd</title>
<g id="a_node3"><a xlink:href="dir_ab9c8554d9140fd8e600a51e9a012cdd.html" target="_top" xlink:title="src">
<polygon fill="#ffffff" stroke="#000000" points="125.5,-180 71.5,-180 71.5,-144 125.5,-144 125.5,-180"/>
<text text-anchor="middle" x="98.5" y="-159.5" font-family="Helvetica,sans-Serif" font-size="10.00" fill="#000000">src</text>
</a>
</g>
</g>
<!-- dir_ab9c8554d9140fd8e600a51e9a012cdd&#45;&gt;dir_926e49a18849677eb7f09bd6efbd9682 -->
<g id="edge1" class="edge">
<title>dir_ab9c8554d9140fd8e600a51e9a012cdd&#45;&gt;dir_926e49a18849677eb7f09bd6efbd9682</title>
<path fill="none" stroke="#000000" d="M98.5,-143.8314C98.5,-136.131 98.5,-126.9743 98.5,-118.4166"/>
<polygon fill="#000000" stroke="#000000" points="102.0001,-118.4132 98.5,-108.4133 95.0001,-118.4133 102.0001,-118.4132"/>
<g id="a_edge1&#45;headlabel"><a xlink:href="dir_000027_000026.html" target="_top" xlink:title="3">
<text text-anchor="middle" x="104.8393" y="-119.5079" font-family="Helvetica,sans-Serif" font-size="10.00" fill="#000000">3</text>
</a>
</g>
</g>
</g>
</svg>
