<?xml version="1.0" encoding="UTF-8" standalone="no"?>
<!DOCTYPE svg PUBLIC "-//W3C//DTD SVG 1.1//EN"
 "http://www.w3.org/Graphics/SVG/1.1/DTD/svg11.dtd">
<!-- Generated by graphviz version 2.40.1 (20161225.0304)
 -->
<!-- Title: /home/pieter/GitHub/EAGLE&#45;ZYBO&#45;Linux/src/grid&#45;finder Pages: 1 -->
<svg width="244pt" height="159pt"
 viewBox="0.00 0.00 244.00 159.00" xmlns="http://www.w3.org/2000/svg" xmlns:xlink="http://www.w3.org/1999/xlink">
<g id="graph0" class="graph" transform="scale(1 1) rotate(0) translate(4 155)">
<title>/home/pieter/GitHub/EAGLE&#45;ZYBO&#45;Linux/src/grid&#45;finder</title>
<polygon fill="#ffffff" stroke="transparent" points="-4,4 -4,-155 240,-155 240,4 -4,4"/>
<g id="clust1" class="cluster">
<title>clusterdir_68267d1309a1af8e8297ef4c3efbcdba</title>
<g id="a_clust1"><a xlink:href="dir_68267d1309a1af8e8297ef4c3efbcdba.html" target="_top" xlink:title="src">
<polygon fill="#ddddee" stroke="#000000" points="56,-56 56,-143 228,-143 228,-56 56,-56"/>
<text text-anchor="middle" x="142" y="-131" font-family="Helvetica,sans-Serif" font-size="10.00" fill="#000000">src</text>
</a>
</g>
</g>
<g id="clust2" class="cluster">
<title>clusterdir_920a55bcfa35c5c1cf06a9da66085a54</title>
<g id="a_clust2"><a xlink:href="dir_920a55bcfa35c5c1cf06a9da66085a54.html" target="_top">
<polygon fill="#eeeeff" stroke="#000000" points="64,-64 64,-116 220,-116 220,-64 64,-64"/>
</a>
</g>
</g>
<!-- dir_920a55bcfa35c5c1cf06a9da66085a54 -->
<g id="node1" class="node">
<title>dir_920a55bcfa35c5c1cf06a9da66085a54</title>
<text text-anchor="middle" x="178" y="-87.5" font-family="Helvetica,sans-Serif" font-size="10.00" fill="#000000">grid&#45;finder</text>
</g>
<!-- dir_afa3d1259580e3936d4bca43dab30921 -->
<g id="node2" class="node">
<title>dir_afa3d1259580e3936d4bca43dab30921</title>
<g id="a_node2"><a xlink:href="dir_afa3d1259580e3936d4bca43dab30921.html" target="_top" xlink:title="include">
<polygon fill="#ffffff" stroke="#000000" points="126,-108 72,-108 72,-72 126,-72 126,-108"/>
<text text-anchor="middle" x="99" y="-87.5" font-family="Helvetica,sans-Serif" font-size="10.00" fill="#000000">include</text>
</a>
</g>
</g>
<!-- dir_40d7732de2983c682bb99d86585a563c -->
<g id="node3" class="node">
<title>dir_40d7732de2983c682bb99d86585a563c</title>
<g id="a_node3"><a xlink:href="dir_40d7732de2983c682bb99d86585a563c.html" target="_top" xlink:title="matrix">
<polygon fill="#ffffff" stroke="#ff0000" points="54,-36 0,-36 0,0 54,0 54,-36"/>
<text text-anchor="middle" x="27" y="-15.5" font-family="Helvetica,sans-Serif" font-size="10.00" fill="#000000">matrix</text>
</a>
</g>
</g>
<!-- dir_afa3d1259580e3936d4bca43dab30921&#45;&gt;dir_40d7732de2983c682bb99d86585a563c -->
<g id="edge1" class="edge">
<title>dir_afa3d1259580e3936d4bca43dab30921&#45;&gt;dir_40d7732de2983c682bb99d86585a563c</title>
<path fill="none" stroke="#000000" d="M80.8314,-71.8314C72.2848,-63.2848 61.9443,-52.9443 52.6198,-43.6198"/>
<polygon fill="#000000" stroke="#000000" points="54.9592,-41.0095 45.4133,-36.4133 50.0095,-45.9592 54.9592,-41.0095"/>
<g id="a_edge1&#45;headlabel"><a xlink:href="dir_000011_000021.html" target="_top" xlink:title="2">
<text text-anchor="middle" x="59.5087" y="-39.0436" font-family="Helvetica,sans-Serif" font-size="10.00" fill="#000000">2</text>
</a>
</g>
</g>
<!-- dir_7b5d38f1875f1b693f62ca6a108a1129 -->
<g id="node4" class="node">
<title>dir_7b5d38f1875f1b693f62ca6a108a1129</title>
<g id="a_node4"><a xlink:href="dir_7b5d38f1875f1b693f62ca6a108a1129.html" target="_top" xlink:title="utilities">
<polygon fill="#ffffff" stroke="#ff0000" points="126,-36 72,-36 72,0 126,0 126,-36"/>
<text text-anchor="middle" x="99" y="-15.5" font-family="Helvetica,sans-Serif" font-size="10.00" fill="#000000">utilities</text>
</a>
</g>
</g>
<!-- dir_afa3d1259580e3936d4bca43dab30921&#45;&gt;dir_7b5d38f1875f1b693f62ca6a108a1129 -->
<g id="edge2" class="edge">
<title>dir_afa3d1259580e3936d4bca43dab30921&#45;&gt;dir_7b5d38f1875f1b693f62ca6a108a1129</title>
<path fill="none" stroke="#000000" d="M99,-71.8314C99,-64.131 99,-54.9743 99,-46.4166"/>
<polygon fill="#000000" stroke="#000000" points="102.5001,-46.4132 99,-36.4133 95.5001,-46.4133 102.5001,-46.4132"/>
<g id="a_edge2&#45;headlabel"><a xlink:href="dir_000011_000031.html" target="_top" xlink:title="2">
<text text-anchor="middle" x="105.3393" y="-47.5079" font-family="Helvetica,sans-Serif" font-size="10.00" fill="#000000">2</text>
</a>
</g>
</g>
<!-- dir_d2da34f738933fa17ec589dd95f08c72 -->
<g id="node5" class="node">
<title>dir_d2da34f738933fa17ec589dd95f08c72</title>
<g id="a_node5"><a xlink:href="dir_d2da34f738933fa17ec589dd95f08c72.html" target="_top" xlink:title="mask">
<polygon fill="#ffffff" stroke="#ff0000" points="198,-36 144,-36 144,0 198,0 198,-36"/>
<text text-anchor="middle" x="171" y="-15.5" font-family="Helvetica,sans-Serif" font-size="10.00" fill="#000000">mask</text>
</a>
</g>
</g>
<!-- dir_afa3d1259580e3936d4bca43dab30921&#45;&gt;dir_d2da34f738933fa17ec589dd95f08c72 -->
<g id="edge3" class="edge">
<title>dir_afa3d1259580e3936d4bca43dab30921&#45;&gt;dir_d2da34f738933fa17ec589dd95f08c72</title>
<path fill="none" stroke="#000000" d="M111.2162,-71.8314C119.0663,-63.1337 129.4496,-52.5783 139.4049,-43.1265"/>
<polygon fill="#000000" stroke="#000000" points="141.9508,-45.5384 146.8853,-36.1628 137.1812,-40.4148 141.9508,-45.5384"/>
<g id="a_edge3&#45;headlabel"><a xlink:href="dir_000011_000018.html" target="_top" xlink:title="1">
<text text-anchor="middle" x="141.2544" y="-47.5658" font-family="Helvetica,sans-Serif" font-size="10.00" fill="#000000">1</text>
</a>
</g>
</g>
<!-- dir_d2da34f738933fa17ec589dd95f08c72&#45;&gt;dir_afa3d1259580e3936d4bca43dab30921 -->
<g id="edge4" class="edge">
<title>dir_d2da34f738933fa17ec589dd95f08c72&#45;&gt;dir_afa3d1259580e3936d4bca43dab30921</title>
<path fill="none" stroke="#000000" d="M158.5627,-36.4133C150.7259,-45.0787 140.4215,-55.5464 130.5436,-64.9223"/>
<polygon fill="#000000" stroke="#000000" points="128.0561,-62.4561 123.121,-71.8314 132.8255,-67.5799 128.0561,-62.4561"/>
<g id="a_edge4&#45;headlabel"><a xlink:href="dir_000018_000011.html" target="_top" xlink:title="1">
<text text-anchor="middle" x="128.7528" y="-55.4287" font-family="Helvetica,sans-Serif" font-size="10.00" fill="#000000">1</text>
</a>
</g>
</g>
</g>
</svg>
