<?xml version="1.0" encoding="UTF-8" standalone="no"?>
<!DOCTYPE svg PUBLIC "-//W3C//DTD SVG 1.1//EN"
 "http://www.w3.org/Graphics/SVG/1.1/DTD/svg11.dtd">
<!-- Generated by graphviz version 2.40.1 (20161225.0304)
 -->
<!-- Title: /home/pieter/GitHub/EAGLE&#45;ZYBO&#45;Linux/build/src/logentry/src&#45;generated Pages: 1 -->
<svg width="160pt" height="223pt"
 viewBox="0.00 0.00 159.50 223.00" xmlns="http://www.w3.org/2000/svg" xmlns:xlink="http://www.w3.org/1999/xlink">
<g id="graph0" class="graph" transform="scale(1 1) rotate(0) translate(4 219)">
<title>/home/pieter/GitHub/EAGLE&#45;ZYBO&#45;Linux/build/src/logentry/src&#45;generated</title>
<polygon fill="#ffffff" stroke="transparent" points="-4,4 -4,-219 155.5,-219 155.5,4 -4,4"/>
<g id="clust1" class="cluster">
<title>clusterdir_d8dd38f9c34bfdb9aec84a8eb3a812fb</title>
<g id="a_clust1"><a xlink:href="dir_d8dd38f9c34bfdb9aec84a8eb3a812fb.html" target="_top" xlink:title="logentry">
<polygon fill="#ddddee" stroke="#000000" points="43.5,-136 43.5,-207 143.5,-207 143.5,-136 43.5,-136"/>
<text text-anchor="middle" x="93.5" y="-195" font-family="Helvetica,sans-Serif" font-size="10.00" fill="#000000">logentry</text>
</a>
</g>
</g>
<!-- dir_38d5e4ed5b3c13df0f16108d00b470c2 -->
<g id="node1" class="node">
<title>dir_38d5e4ed5b3c13df0f16108d00b470c2</title>
<g id="a_node1"><a xlink:href="dir_38d5e4ed5b3c13df0f16108d00b470c2.html" target="_top" xlink:title="src&#45;generated">
<polygon fill="#eeeeff" stroke="#000000" points="135.5,-180 51.5,-180 51.5,-144 135.5,-144 135.5,-180"/>
<text text-anchor="middle" x="93.5" y="-159.5" font-family="Helvetica,sans-Serif" font-size="10.00" fill="#000000">src&#45;generated</text>
</a>
</g>
</g>
<!-- dir_17f9f329ee1074264f00064b46d69b84 -->
<g id="node2" class="node">
<title>dir_17f9f329ee1074264f00064b46d69b84</title>
<g id="a_node2"><a xlink:href="dir_17f9f329ee1074264f00064b46d69b84.html" target="_top" xlink:title="include&#45;generated">
<polygon fill="none" stroke="#000000" points="105,-108 0,-108 0,-72 105,-72 105,-108"/>
<text text-anchor="middle" x="52.5" y="-87.5" font-family="Helvetica,sans-Serif" font-size="10.00" fill="#000000">include&#45;generated</text>
</a>
</g>
</g>
<!-- dir_38d5e4ed5b3c13df0f16108d00b470c2&#45;&gt;dir_17f9f329ee1074264f00064b46d69b84 -->
<g id="edge3" class="edge">
<title>dir_38d5e4ed5b3c13df0f16108d00b470c2&#45;&gt;dir_17f9f329ee1074264f00064b46d69b84</title>
<path fill="none" stroke="#000000" d="M83.154,-143.8314C78.5763,-135.7925 73.0948,-126.1666 68.0412,-117.2918"/>
<polygon fill="#000000" stroke="#000000" points="70.9752,-115.3712 62.9853,-108.4133 64.8923,-118.8351 70.9752,-115.3712"/>
<g id="a_edge3&#45;headlabel"><a xlink:href="dir_000004_000003.html" target="_top" xlink:title="1">
<text text-anchor="middle" x="75.2212" y="-114.5899" font-family="Helvetica,sans-Serif" font-size="10.00" fill="#000000">1</text>
</a>
</g>
</g>
<!-- dir_68267d1309a1af8e8297ef4c3efbcdba -->
<g id="node3" class="node">
<title>dir_68267d1309a1af8e8297ef4c3efbcdba</title>
<g id="a_node3"><a xlink:href="dir_68267d1309a1af8e8297ef4c3efbcdba.html" target="_top" xlink:title="src">
<polygon fill="#ffffff" stroke="#ff0000" points="79.5,-36 25.5,-36 25.5,0 79.5,0 79.5,-36"/>
<text text-anchor="middle" x="52.5" y="-15.5" font-family="Helvetica,sans-Serif" font-size="10.00" fill="#000000">src</text>
</a>
</g>
</g>
<!-- dir_38d5e4ed5b3c13df0f16108d00b470c2&#45;&gt;dir_68267d1309a1af8e8297ef4c3efbcdba -->
<g id="edge4" class="edge">
<title>dir_38d5e4ed5b3c13df0f16108d00b470c2&#45;&gt;dir_68267d1309a1af8e8297ef4c3efbcdba</title>
<path fill="none" stroke="#000000" d="M104.4504,-143.73C114.1362,-125.0468 125.2011,-95.5112 114.5,-72 108.7513,-59.3696 98.4273,-48.5444 87.8321,-39.975"/>
<polygon fill="#000000" stroke="#000000" points="89.8375,-37.1034 79.7484,-33.869 85.6184,-42.6891 89.8375,-37.1034"/>
<g id="a_edge4&#45;headlabel"><a xlink:href="dir_000004_000005.html" target="_top" xlink:title="2">
<text text-anchor="middle" x="94.4171" y="-34.5044" font-family="Helvetica,sans-Serif" font-size="10.00" fill="#000000">2</text>
</a>
</g>
</g>
<!-- dir_17f9f329ee1074264f00064b46d69b84&#45;&gt;dir_68267d1309a1af8e8297ef4c3efbcdba -->
<g id="edge1" class="edge">
<title>dir_17f9f329ee1074264f00064b46d69b84&#45;&gt;dir_68267d1309a1af8e8297ef4c3efbcdba</title>
<path fill="none" stroke="#000000" d="M46.5476,-71.8314C45.7972,-64.131 45.5763,-54.9743 45.8849,-46.4166"/>
<polygon fill="#000000" stroke="#000000" points="49.3792,-46.6161 46.524,-36.4133 42.3935,-46.1697 49.3792,-46.6161"/>
<g id="a_edge1&#45;headlabel"><a xlink:href="dir_000003_000005.html" target="_top" xlink:title="1">
<text text-anchor="middle" x="51.9836" y="-47.8844" font-family="Helvetica,sans-Serif" font-size="10.00" fill="#000000">1</text>
</a>
</g>
</g>
<!-- dir_68267d1309a1af8e8297ef4c3efbcdba&#45;&gt;dir_17f9f329ee1074264f00064b46d69b84 -->
<g id="edge2" class="edge">
<title>dir_68267d1309a1af8e8297ef4c3efbcdba&#45;&gt;dir_17f9f329ee1074264f00064b46d69b84</title>
<path fill="none" stroke="#000000" d="M58.476,-36.4133C59.2071,-44.0593 59.4203,-53.1084 59.1155,-61.5726"/>
<polygon fill="#000000" stroke="#000000" points="55.6048,-61.6264 58.4524,-71.8314 62.5902,-62.078 55.6048,-61.6264"/>
<g id="a_edge2&#45;headlabel"><a xlink:href="dir_000005_000003.html" target="_top" xlink:title="3">
<text text-anchor="middle" x="53.0032" y="-55.3562" font-family="Helvetica,sans-Serif" font-size="10.00" fill="#000000">3</text>
</a>
</g>
</g>
</g>
</svg>
