<?xml version="1.0" encoding="UTF-8" standalone="no"?>
<!DOCTYPE svg PUBLIC "-//W3C//DTD SVG 1.1//EN"
 "http://www.w3.org/Graphics/SVG/1.1/DTD/svg11.dtd">
<!-- Generated by graphviz version 2.40.1 (20161225.0304)
 -->
<!-- Title: /home/pieter/GitHub/EAGLE&#45;ZYBO&#45;Linux/src/mask/include Pages: 1 -->
<svg width="94pt" height="151pt"
 viewBox="0.00 0.00 94.00 151.00" xmlns="http://www.w3.org/2000/svg" xmlns:xlink="http://www.w3.org/1999/xlink">
<g id="graph0" class="graph" transform="scale(1 1) rotate(0) translate(4 147)">
<title>/home/pieter/GitHub/EAGLE&#45;ZYBO&#45;Linux/src/mask/include</title>
<polygon fill="#ffffff" stroke="transparent" points="-4,4 -4,-147 90,-147 90,4 -4,4"/>
<g id="clust1" class="cluster">
<title>clusterdir_d2da34f738933fa17ec589dd95f08c72</title>
<g id="a_clust1"><a xlink:href="dir_d2da34f738933fa17ec589dd95f08c72.html" target="_top" xlink:title="mask">
<polygon fill="#ddddee" stroke="#000000" points="8,-64 8,-135 78,-135 78,-64 8,-64"/>
<text text-anchor="middle" x="43" y="-123" font-family="Helvetica,sans-Serif" font-size="10.00" fill="#000000">mask</text>
</a>
</g>
</g>
<!-- dir_604f50b333523450b3414047794d12ba -->
<g id="node1" class="node">
<title>dir_604f50b333523450b3414047794d12ba</title>
<g id="a_node1"><a xlink:href="dir_604f50b333523450b3414047794d12ba.html" target="_top" xlink:title="include">
<polygon fill="#eeeeff" stroke="#000000" points="70,-108 16,-108 16,-72 70,-72 70,-108"/>
<text text-anchor="middle" x="43" y="-87.5" font-family="Helvetica,sans-Serif" font-size="10.00" fill="#000000">include</text>
</a>
</g>
</g>
<!-- dir_920a55bcfa35c5c1cf06a9da66085a54 -->
<g id="node2" class="node">
<title>dir_920a55bcfa35c5c1cf06a9da66085a54</title>
<g id="a_node2"><a xlink:href="dir_920a55bcfa35c5c1cf06a9da66085a54.html" target="_top" xlink:title="grid&#45;finder">
<polygon fill="#ffffff" stroke="#ff0000" points="76.5,-36 9.5,-36 9.5,0 76.5,0 76.5,-36"/>
<text text-anchor="middle" x="43" y="-15.5" font-family="Helvetica,sans-Serif" font-size="10.00" fill="#000000">grid&#45;finder</text>
</a>
</g>
</g>
<!-- dir_604f50b333523450b3414047794d12ba&#45;&gt;dir_920a55bcfa35c5c1cf06a9da66085a54 -->
<g id="edge1" class="edge">
<title>dir_604f50b333523450b3414047794d12ba&#45;&gt;dir_920a55bcfa35c5c1cf06a9da66085a54</title>
<path fill="none" stroke="#000000" d="M43,-71.8314C43,-64.131 43,-54.9743 43,-46.4166"/>
<polygon fill="#000000" stroke="#000000" points="46.5001,-46.4132 43,-36.4133 39.5001,-46.4133 46.5001,-46.4132"/>
<g id="a_edge1&#45;headlabel"><a xlink:href="dir_000022_000013.html" target="_top" xlink:title="1">
<text text-anchor="middle" x="49.3393" y="-47.5079" font-family="Helvetica,sans-Serif" font-size="10.00" fill="#000000">1</text>
</a>
</g>
</g>
</g>
</svg>
