<?xml version="1.0" encoding="UTF-8" standalone="no"?>
<!DOCTYPE svg PUBLIC "-//W3C//DTD SVG 1.1//EN"
 "http://www.w3.org/Graphics/SVG/1.1/DTD/svg11.dtd">
<!-- Generated by graphviz version 2.40.1 (20161225.0304)
 -->
<!-- Title: /home/pieter/GitHub/EAGLE&#45;ZYBO&#45;Linux/src/crypto Pages: 1 -->
<svg width="236pt" height="231pt"
 viewBox="0.00 0.00 236.00 231.00" xmlns="http://www.w3.org/2000/svg" xmlns:xlink="http://www.w3.org/1999/xlink">
<g id="graph0" class="graph" transform="scale(1 1) rotate(0) translate(4 227)">
<title>/home/pieter/GitHub/EAGLE&#45;ZYBO&#45;Linux/src/crypto</title>
<polygon fill="#ffffff" stroke="transparent" points="-4,4 -4,-227 232,-227 232,4 -4,4"/>
<g id="clust1" class="cluster">
<title>clusterdir_68267d1309a1af8e8297ef4c3efbcdba</title>
<g id="a_clust1"><a xlink:href="dir_68267d1309a1af8e8297ef4c3efbcdba.html" target="_top" xlink:title="src">
<polygon fill="#ddddee" stroke="#000000" points="8,-56 8,-215 166,-215 166,-56 8,-56"/>
<text text-anchor="middle" x="87" y="-203" font-family="Helvetica,sans-Serif" font-size="10.00" fill="#000000">src</text>
</a>
</g>
</g>
<g id="clust2" class="cluster">
<title>clusterdir_4261af1259721e3e39e0d2dd7354b511</title>
<g id="a_clust2"><a xlink:href="dir_4261af1259721e3e39e0d2dd7354b511.html" target="_top">
<polygon fill="#eeeeff" stroke="#000000" points="16,-64 16,-188 158,-188 158,-64 16,-64"/>
</a>
</g>
</g>
<!-- dir_4261af1259721e3e39e0d2dd7354b511 -->
<g id="node1" class="node">
<title>dir_4261af1259721e3e39e0d2dd7354b511</title>
<text text-anchor="middle" x="123" y="-159.5" font-family="Helvetica,sans-Serif" font-size="10.00" fill="#000000">crypto</text>
</g>
<!-- dir_a12f9ff70e97ab9b25e4c1d80233d3e3 -->
<g id="node2" class="node">
<title>dir_a12f9ff70e97ab9b25e4c1d80233d3e3</title>
<g id="a_node2"><a xlink:href="dir_a12f9ff70e97ab9b25e4c1d80233d3e3.html" target="_top" xlink:title="include">
<polygon fill="#ffffff" stroke="#000000" points="78,-108 24,-108 24,-72 78,-72 78,-108"/>
<text text-anchor="middle" x="51" y="-87.5" font-family="Helvetica,sans-Serif" font-size="10.00" fill="#000000">include</text>
</a>
</g>
</g>
<!-- dir_55e250dd341373e0cb8728b6db6bcdc0 -->
<g id="node3" class="node">
<title>dir_55e250dd341373e0cb8728b6db6bcdc0</title>
<g id="a_node3"><a xlink:href="dir_55e250dd341373e0cb8728b6db6bcdc0.html" target="_top" xlink:title="src">
<polygon fill="#ffffff" stroke="#000000" points="78,-180 24,-180 24,-144 78,-144 78,-180"/>
<text text-anchor="middle" x="51" y="-159.5" font-family="Helvetica,sans-Serif" font-size="10.00" fill="#000000">src</text>
</a>
</g>
</g>
<!-- dir_55e250dd341373e0cb8728b6db6bcdc0&#45;&gt;dir_a12f9ff70e97ab9b25e4c1d80233d3e3 -->
<g id="edge1" class="edge">
<title>dir_55e250dd341373e0cb8728b6db6bcdc0&#45;&gt;dir_a12f9ff70e97ab9b25e4c1d80233d3e3</title>
<path fill="none" stroke="#000000" d="M51,-143.8314C51,-136.131 51,-126.9743 51,-118.4166"/>
<polygon fill="#000000" stroke="#000000" points="54.5001,-118.4132 51,-108.4133 47.5001,-118.4133 54.5001,-118.4132"/>
<g id="a_edge1&#45;headlabel"><a xlink:href="dir_000009_000008.html" target="_top" xlink:title="2">
<text text-anchor="middle" x="57.3393" y="-119.5079" font-family="Helvetica,sans-Serif" font-size="10.00" fill="#000000">2</text>
</a>
</g>
</g>
<!-- dir_7b5d38f1875f1b693f62ca6a108a1129 -->
<g id="node4" class="node">
<title>dir_7b5d38f1875f1b693f62ca6a108a1129</title>
<g id="a_node4"><a xlink:href="dir_7b5d38f1875f1b693f62ca6a108a1129.html" target="_top" xlink:title="utilities">
<polygon fill="#ffffff" stroke="#ff0000" points="190,-36 136,-36 136,0 190,0 190,-36"/>
<text text-anchor="middle" x="163" y="-15.5" font-family="Helvetica,sans-Serif" font-size="10.00" fill="#000000">utilities</text>
</a>
</g>
</g>
<!-- dir_55e250dd341373e0cb8728b6db6bcdc0&#45;&gt;dir_7b5d38f1875f1b693f62ca6a108a1129 -->
<g id="edge2" class="edge">
<title>dir_55e250dd341373e0cb8728b6db6bcdc0&#45;&gt;dir_7b5d38f1875f1b693f62ca6a108a1129</title>
<path fill="none" stroke="#000000" d="M65.1849,-143.7623C84.793,-118.5518 120.292,-72.9103 142.7038,-44.0952"/>
<polygon fill="#000000" stroke="#000000" points="145.5536,-46.132 148.9303,-36.0896 140.0281,-41.8344 145.5536,-46.132"/>
<g id="a_edge2&#45;headlabel"><a xlink:href="dir_000009_000039.html" target="_top" xlink:title="1">
<text text-anchor="middle" x="145.5879" y="-48.2125" font-family="Helvetica,sans-Serif" font-size="10.00" fill="#000000">1</text>
</a>
</g>
</g>
<!-- dir_d0537398ec3fe72d8d4f5c6709d28acc -->
<g id="node5" class="node">
<title>dir_d0537398ec3fe72d8d4f5c6709d28acc</title>
<g id="a_node5"><a xlink:href="dir_d0537398ec3fe72d8d4f5c6709d28acc.html" target="_top" xlink:title="comm">
<polygon fill="#ffffff" stroke="#ff0000" points="228,-108 174,-108 174,-72 228,-72 228,-108"/>
<text text-anchor="middle" x="201" y="-87.5" font-family="Helvetica,sans-Serif" font-size="10.00" fill="#000000">comm</text>
</a>
</g>
</g>
<!-- dir_55e250dd341373e0cb8728b6db6bcdc0&#45;&gt;dir_d0537398ec3fe72d8d4f5c6709d28acc -->
<g id="edge3" class="edge">
<title>dir_55e250dd341373e0cb8728b6db6bcdc0&#45;&gt;dir_d0537398ec3fe72d8d4f5c6709d28acc</title>
<path fill="none" stroke="#000000" d="M78.0963,-148.3747C81.096,-146.8893 84.1099,-145.4068 87,-144 112.8442,-131.4197 142.1537,-117.5449 164.5818,-107.0097"/>
<polygon fill="#000000" stroke="#000000" points="166.1753,-110.1282 173.7424,-102.7126 163.2025,-103.7908 166.1753,-110.1282"/>
<g id="a_edge3&#45;headlabel"><a xlink:href="dir_000009_000004.html" target="_top" xlink:title="1">
<text text-anchor="middle" x="164.1268" y="-111.7252" font-family="Helvetica,sans-Serif" font-size="10.00" fill="#000000">1</text>
</a>
</g>
</g>
<!-- dir_d0537398ec3fe72d8d4f5c6709d28acc&#45;&gt;dir_7b5d38f1875f1b693f62ca6a108a1129 -->
<g id="edge4" class="edge">
<title>dir_d0537398ec3fe72d8d4f5c6709d28acc&#45;&gt;dir_7b5d38f1875f1b693f62ca6a108a1129</title>
<path fill="none" stroke="#000000" d="M191.411,-71.8314C187.1683,-63.7925 182.0879,-54.1666 177.404,-45.2918"/>
<polygon fill="#000000" stroke="#000000" points="180.4811,-43.6235 172.7181,-36.4133 174.2904,-46.8908 180.4811,-43.6235"/>
<g id="a_edge4&#45;headlabel"><a xlink:href="dir_000004_000039.html" target="_top" xlink:title="1">
<text text-anchor="middle" x="184.6699" y="-42.9772" font-family="Helvetica,sans-Serif" font-size="10.00" fill="#000000">1</text>
</a>
</g>
</g>
</g>
</svg>
