<?xml version="1.0" encoding="UTF-8" standalone="no"?>
<!DOCTYPE svg PUBLIC "-//W3C//DTD SVG 1.1//EN"
 "http://www.w3.org/Graphics/SVG/1.1/DTD/svg11.dtd">
<!-- Generated by graphviz version 2.40.1 (20161225.0304)
 -->
<!-- Title: /home/pieter/GitHub/EAGLE&#45;ZYBO&#45;Linux/src Pages: 1 -->
<svg width="715pt" height="364pt"
 viewBox="0.00 0.00 715.00 364.00" xmlns="http://www.w3.org/2000/svg" xmlns:xlink="http://www.w3.org/1999/xlink">
<g id="graph0" class="graph" transform="scale(1 1) rotate(0) translate(4 360)">
<title>/home/pieter/GitHub/EAGLE&#45;ZYBO&#45;Linux/src</title>
<polygon fill="#ffffff" stroke="transparent" points="-4,4 -4,-360 711,-360 711,4 -4,4"/>
<g id="clust1" class="cluster">
<title>clusterdir_68267d1309a1af8e8297ef4c3efbcdba</title>
<g id="a_clust1"><a xlink:href="dir_68267d1309a1af8e8297ef4c3efbcdba.html" target="_top">
<polygon fill="#eeeeff" stroke="#000000" points="8,-8 8,-348 643,-348 643,-8 8,-8"/>
</a>
</g>
</g>
<!-- dir_68267d1309a1af8e8297ef4c3efbcdba -->
<g id="node1" class="node">
<title>dir_68267d1309a1af8e8297ef4c3efbcdba</title>
<text text-anchor="middle" x="608" y="-319.5" font-family="Helvetica,sans-Serif" font-size="10.00" fill="#000000">src</text>
</g>
<!-- dir_cc2494ece34082706c88d264c8a52186 -->
<g id="node2" class="node">
<title>dir_cc2494ece34082706c88d264c8a52186</title>
<g id="a_node2"><a xlink:href="dir_cc2494ece34082706c88d264c8a52186.html" target="_top" xlink:title="baremetal&#45;comm">
<polygon fill="#ffffff" stroke="#ff0000" points="365.5,-268 264.5,-268 264.5,-232 365.5,-232 365.5,-268"/>
<text text-anchor="middle" x="315" y="-247.5" font-family="Helvetica,sans-Serif" font-size="10.00" fill="#000000">baremetal&#45;comm</text>
</a>
</g>
</g>
<!-- dir_4fef79e7177ba769987a8da36c892c5f -->
<g id="node21" class="node">
<title>dir_4fef79e7177ba769987a8da36c892c5f</title>
<g id="a_node21"><a xlink:href="dir_4fef79e7177ba769987a8da36c892c5f.html" target="_top" xlink:title="build">
<polygon fill="#ffffff" stroke="#ff0000" points="707,-268 653,-268 653,-232 707,-232 707,-268"/>
<text text-anchor="middle" x="680" y="-247.5" font-family="Helvetica,sans-Serif" font-size="10.00" fill="#000000">build</text>
</a>
</g>
</g>
<!-- dir_cc2494ece34082706c88d264c8a52186&#45;&gt;dir_4fef79e7177ba769987a8da36c892c5f -->
<g id="edge19" class="edge">
<title>dir_cc2494ece34082706c88d264c8a52186&#45;&gt;dir_4fef79e7177ba769987a8da36c892c5f</title>
<path fill="none" stroke="#000000" d="M359.4281,-268.0887C379.1556,-275.1875 402.8748,-282.4716 425,-286 471.7427,-293.4543 593.6068,-302.4221 638,-286 644.6569,-283.5375 650.9706,-279.4963 656.5845,-274.9933"/>
<polygon fill="#000000" stroke="#000000" points="659.0974,-277.4433 664.2673,-268.1955 654.4587,-272.2009 659.0974,-277.4433"/>
<g id="a_edge19&#45;headlabel"><a xlink:href="dir_000006_000000.html" target="_top" xlink:title="1">
<text text-anchor="middle" x="658.2868" y="-279.4517" font-family="Helvetica,sans-Serif" font-size="10.00" fill="#000000">1</text>
</a>
</g>
</g>
<!-- dir_9ab17fd7f07b28ef7164bcc825435f04 -->
<g id="node3" class="node">
<title>dir_9ab17fd7f07b28ef7164bcc825435f04</title>
<g id="a_node3"><a xlink:href="dir_9ab17fd7f07b28ef7164bcc825435f04.html" target="_top" xlink:title="base64">
<polygon fill="#ffffff" stroke="#ff0000" points="154,-268 100,-268 100,-232 154,-232 154,-268"/>
<text text-anchor="middle" x="127" y="-247.5" font-family="Helvetica,sans-Serif" font-size="10.00" fill="#000000">base64</text>
</a>
</g>
</g>
<!-- dir_d0537398ec3fe72d8d4f5c6709d28acc -->
<g id="node4" class="node">
<title>dir_d0537398ec3fe72d8d4f5c6709d28acc</title>
<g id="a_node4"><a xlink:href="dir_d0537398ec3fe72d8d4f5c6709d28acc.html" target="_top" xlink:title="comm">
<polygon fill="#ffffff" stroke="#ff0000" points="337,-196 283,-196 283,-160 337,-160 337,-196"/>
<text text-anchor="middle" x="310" y="-175.5" font-family="Helvetica,sans-Serif" font-size="10.00" fill="#000000">comm</text>
</a>
</g>
</g>
<!-- dir_7b5d38f1875f1b693f62ca6a108a1129 -->
<g id="node20" class="node">
<title>dir_7b5d38f1875f1b693f62ca6a108a1129</title>
<g id="a_node20"><a xlink:href="dir_7b5d38f1875f1b693f62ca6a108a1129.html" target="_top" xlink:title="utilities">
<polygon fill="#ffffff" stroke="#ff0000" points="351,-124 297,-124 297,-88 351,-88 351,-124"/>
<text text-anchor="middle" x="324" y="-103.5" font-family="Helvetica,sans-Serif" font-size="10.00" fill="#000000">utilities</text>
</a>
</g>
</g>
<!-- dir_d0537398ec3fe72d8d4f5c6709d28acc&#45;&gt;dir_7b5d38f1875f1b693f62ca6a108a1129 -->
<g id="edge22" class="edge">
<title>dir_d0537398ec3fe72d8d4f5c6709d28acc&#45;&gt;dir_7b5d38f1875f1b693f62ca6a108a1129</title>
<path fill="none" stroke="#000000" d="M313.5328,-159.8314C315.0301,-152.131 316.8105,-142.9743 318.4745,-134.4166"/>
<polygon fill="#000000" stroke="#000000" points="321.9465,-134.8975 320.4196,-124.4133 315.0752,-133.5614 321.9465,-134.8975"/>
<g id="a_edge22&#45;headlabel"><a xlink:href="dir_000011_000055.html" target="_top" xlink:title="1">
<text text-anchor="middle" x="324.0476" y="-136.4679" font-family="Helvetica,sans-Serif" font-size="10.00" fill="#000000">1</text>
</a>
</g>
</g>
<!-- dir_4261af1259721e3e39e0d2dd7354b511 -->
<g id="node5" class="node">
<title>dir_4261af1259721e3e39e0d2dd7354b511</title>
<g id="a_node5"><a xlink:href="dir_4261af1259721e3e39e0d2dd7354b511.html" target="_top" xlink:title="crypto">
<polygon fill="#ffffff" stroke="#ff0000" points="226,-268 172,-268 172,-232 226,-232 226,-268"/>
<text text-anchor="middle" x="199" y="-247.5" font-family="Helvetica,sans-Serif" font-size="10.00" fill="#000000">crypto</text>
</a>
</g>
</g>
<!-- dir_4261af1259721e3e39e0d2dd7354b511&#45;&gt;dir_d0537398ec3fe72d8d4f5c6709d28acc -->
<g id="edge2" class="edge">
<title>dir_4261af1259721e3e39e0d2dd7354b511&#45;&gt;dir_d0537398ec3fe72d8d4f5c6709d28acc</title>
<path fill="none" stroke="#000000" d="M226.1537,-232.3868C240.6669,-222.9728 258.7152,-211.2658 274.3452,-201.1274"/>
<polygon fill="#000000" stroke="#000000" points="276.257,-204.0592 282.742,-195.6809 272.4477,-198.1865 276.257,-204.0592"/>
<g id="a_edge2&#45;headlabel"><a xlink:href="dir_000014_000011.html" target="_top" xlink:title="2">
<text text-anchor="middle" x="274.7864" y="-205.8974" font-family="Helvetica,sans-Serif" font-size="10.00" fill="#000000">2</text>
</a>
</g>
</g>
<!-- dir_4261af1259721e3e39e0d2dd7354b511&#45;&gt;dir_7b5d38f1875f1b693f62ca6a108a1129 -->
<g id="edge1" class="edge">
<title>dir_4261af1259721e3e39e0d2dd7354b511&#45;&gt;dir_7b5d38f1875f1b693f62ca6a108a1129</title>
<path fill="none" stroke="#000000" d="M213.6691,-231.8373C228.594,-213.492 252.5211,-184.4476 274,-160 282.2181,-150.646 291.425,-140.5884 299.677,-131.7183"/>
<polygon fill="#000000" stroke="#000000" points="302.3616,-133.9718 306.6341,-124.2766 297.2482,-129.1913 302.3616,-133.9718"/>
<g id="a_edge1&#45;headlabel"><a xlink:href="dir_000014_000055.html" target="_top" xlink:title="1">
<text text-anchor="middle" x="301.9808" y="-136.0366" font-family="Helvetica,sans-Serif" font-size="10.00" fill="#000000">1</text>
</a>
</g>
</g>
<!-- dir_9f42a264daae6f1215a4a8774a60c231 -->
<g id="node6" class="node">
<title>dir_9f42a264daae6f1215a4a8774a60c231</title>
<g id="a_node6"><a xlink:href="dir_9f42a264daae6f1215a4a8774a60c231.html" target="_top" xlink:title="greet">
<polygon fill="#ffffff" stroke="#ff0000" points="563,-340 509,-340 509,-304 563,-304 563,-340"/>
<text text-anchor="middle" x="536" y="-319.5" font-family="Helvetica,sans-Serif" font-size="10.00" fill="#000000">greet</text>
</a>
</g>
</g>
<!-- dir_920a55bcfa35c5c1cf06a9da66085a54 -->
<g id="node7" class="node">
<title>dir_920a55bcfa35c5c1cf06a9da66085a54</title>
<g id="a_node7"><a xlink:href="dir_920a55bcfa35c5c1cf06a9da66085a54.html" target="_top" xlink:title="grid&#45;finder">
<polygon fill="#ffffff" stroke="#ff0000" points="443.5,-196 376.5,-196 376.5,-160 443.5,-160 443.5,-196"/>
<text text-anchor="middle" x="410" y="-175.5" font-family="Helvetica,sans-Serif" font-size="10.00" fill="#000000">grid&#45;finder</text>
</a>
</g>
</g>
<!-- dir_d2da34f738933fa17ec589dd95f08c72 -->
<g id="node11" class="node">
<title>dir_d2da34f738933fa17ec589dd95f08c72</title>
<g id="a_node11"><a xlink:href="dir_d2da34f738933fa17ec589dd95f08c72.html" target="_top" xlink:title="mask">
<polygon fill="#ffffff" stroke="#ff0000" points="437,-124 383,-124 383,-88 437,-88 437,-124"/>
<text text-anchor="middle" x="410" y="-103.5" font-family="Helvetica,sans-Serif" font-size="10.00" fill="#000000">mask</text>
</a>
</g>
</g>
<!-- dir_920a55bcfa35c5c1cf06a9da66085a54&#45;&gt;dir_d2da34f738933fa17ec589dd95f08c72 -->
<g id="edge5" class="edge">
<title>dir_920a55bcfa35c5c1cf06a9da66085a54&#45;&gt;dir_d2da34f738933fa17ec589dd95f08c72</title>
<path fill="none" stroke="#000000" d="M404.0476,-159.8314C403.2972,-152.131 403.0763,-142.9743 403.3849,-134.4166"/>
<polygon fill="#000000" stroke="#000000" points="406.8792,-134.6161 404.024,-124.4133 399.8935,-134.1697 406.8792,-134.6161"/>
<g id="a_edge5&#45;headlabel"><a xlink:href="dir_000023_000033.html" target="_top" xlink:title="1">
<text text-anchor="middle" x="409.4836" y="-135.8844" font-family="Helvetica,sans-Serif" font-size="10.00" fill="#000000">1</text>
</a>
</g>
</g>
<!-- dir_40d7732de2983c682bb99d86585a563c -->
<g id="node12" class="node">
<title>dir_40d7732de2983c682bb99d86585a563c</title>
<g id="a_node12"><a xlink:href="dir_40d7732de2983c682bb99d86585a563c.html" target="_top" xlink:title="matrix">
<polygon fill="#ffffff" stroke="#ff0000" points="544,-124 490,-124 490,-88 544,-88 544,-124"/>
<text text-anchor="middle" x="517" y="-103.5" font-family="Helvetica,sans-Serif" font-size="10.00" fill="#000000">matrix</text>
</a>
</g>
</g>
<!-- dir_920a55bcfa35c5c1cf06a9da66085a54&#45;&gt;dir_40d7732de2983c682bb99d86585a563c -->
<g id="edge3" class="edge">
<title>dir_920a55bcfa35c5c1cf06a9da66085a54&#45;&gt;dir_40d7732de2983c682bb99d86585a563c</title>
<path fill="none" stroke="#000000" d="M437.0006,-159.8314C450.4331,-150.7927 466.8473,-139.7476 481.3039,-130.0198"/>
<polygon fill="#000000" stroke="#000000" points="483.6654,-132.6494 490.008,-124.1628 479.7575,-126.8418 483.6654,-132.6494"/>
<g id="a_edge3&#45;headlabel"><a xlink:href="dir_000023_000036.html" target="_top" xlink:title="2">
<text text-anchor="middle" x="482.2682" y="-134.5118" font-family="Helvetica,sans-Serif" font-size="10.00" fill="#000000">2</text>
</a>
</g>
</g>
<!-- dir_920a55bcfa35c5c1cf06a9da66085a54&#45;&gt;dir_7b5d38f1875f1b693f62ca6a108a1129 -->
<g id="edge4" class="edge">
<title>dir_920a55bcfa35c5c1cf06a9da66085a54&#45;&gt;dir_7b5d38f1875f1b693f62ca6a108a1129</title>
<path fill="none" stroke="#000000" d="M388.2986,-159.8314C377.8079,-151.0485 365.0545,-140.3712 353.6806,-130.8489"/>
<polygon fill="#000000" stroke="#000000" points="355.6089,-127.8986 345.6945,-124.1628 351.1153,-133.2659 355.6089,-127.8986"/>
<g id="a_edge4&#45;headlabel"><a xlink:href="dir_000023_000055.html" target="_top" xlink:title="3">
<text text-anchor="middle" x="360.1877" y="-125.529" font-family="Helvetica,sans-Serif" font-size="10.00" fill="#000000">3</text>
</a>
</g>
</g>
<!-- dir_8f9e3926995673004d1bb228b2422cc7 -->
<g id="node8" class="node">
<title>dir_8f9e3926995673004d1bb228b2422cc7</title>
<g id="a_node8"><a xlink:href="dir_8f9e3926995673004d1bb228b2422cc7.html" target="_top" xlink:title="location&#45;finder">
<polygon fill="#ffffff" stroke="#ff0000" points="511.5,-268 424.5,-268 424.5,-232 511.5,-232 511.5,-268"/>
<text text-anchor="middle" x="468" y="-247.5" font-family="Helvetica,sans-Serif" font-size="10.00" fill="#000000">location&#45;finder</text>
</a>
</g>
</g>
<!-- dir_8f9e3926995673004d1bb228b2422cc7&#45;&gt;dir_920a55bcfa35c5c1cf06a9da66085a54 -->
<g id="edge20" class="edge">
<title>dir_8f9e3926995673004d1bb228b2422cc7&#45;&gt;dir_920a55bcfa35c5c1cf06a9da66085a54</title>
<path fill="none" stroke="#000000" d="M453.3642,-231.8314C446.6839,-223.5386 438.6432,-213.557 431.3096,-204.4533"/>
<polygon fill="#000000" stroke="#000000" points="433.8319,-202.0052 424.8329,-196.4133 428.3806,-206.3965 433.8319,-202.0052"/>
<g id="a_edge20&#45;headlabel"><a xlink:href="dir_000025_000023.html" target="_top" xlink:title="4">
<text text-anchor="middle" x="438.2979" y="-200.5233" font-family="Helvetica,sans-Serif" font-size="10.00" fill="#000000">4</text>
</a>
</g>
</g>
<!-- dir_8f9e3926995673004d1bb228b2422cc7&#45;&gt;dir_d2da34f738933fa17ec589dd95f08c72 -->
<g id="edge21" class="edge">
<title>dir_8f9e3926995673004d1bb228b2422cc7&#45;&gt;dir_d2da34f738933fa17ec589dd95f08c72</title>
<path fill="none" stroke="#000000" d="M467.6392,-231.9905C466.6707,-213.2572 463.436,-183.4438 453,-160 448.6137,-150.1464 441.9968,-140.5469 435.26,-132.2408"/>
<polygon fill="#000000" stroke="#000000" points="437.7194,-129.7314 428.5612,-124.4042 432.3984,-134.2797 437.7194,-129.7314"/>
<g id="a_edge21&#45;headlabel"><a xlink:href="dir_000025_000033.html" target="_top" xlink:title="1">
<text text-anchor="middle" x="442.2133" y="-128.1189" font-family="Helvetica,sans-Serif" font-size="10.00" fill="#000000">1</text>
</a>
</g>
</g>
<!-- dir_d471c9e7d7d2cd1463b667d184ac6f80 -->
<g id="node9" class="node">
<title>dir_d471c9e7d7d2cd1463b667d184ac6f80</title>
<g id="a_node9"><a xlink:href="dir_d471c9e7d7d2cd1463b667d184ac6f80.html" target="_top" xlink:title="logentry">
<polygon fill="#ffffff" stroke="#ff0000" points="490.5,-340 433.5,-340 433.5,-304 490.5,-304 490.5,-340"/>
<text text-anchor="middle" x="462" y="-319.5" font-family="Helvetica,sans-Serif" font-size="10.00" fill="#000000">logentry</text>
</a>
</g>
</g>
<!-- dir_d471c9e7d7d2cd1463b667d184ac6f80&#45;&gt;dir_4fef79e7177ba769987a8da36c892c5f -->
<g id="edge6" class="edge">
<title>dir_d471c9e7d7d2cd1463b667d184ac6f80&#45;&gt;dir_4fef79e7177ba769987a8da36c892c5f</title>
<path fill="none" stroke="#000000" d="M490.5868,-304.1476C490.7247,-304.0981 490.8624,-304.0489 491,-304 554.3848,-281.4876 575.2821,-292.3086 638,-268 639.8255,-267.2925 641.6763,-266.5036 643.536,-265.6621"/>
<polygon fill="#000000" stroke="#000000" points="645.3635,-268.6656 652.8311,-261.1498 642.3065,-262.3683 645.3635,-268.6656"/>
<g id="a_edge6&#45;headlabel"><a xlink:href="dir_000028_000000.html" target="_top" xlink:title="1">
<text text-anchor="middle" x="643.3697" y="-270.2895" font-family="Helvetica,sans-Serif" font-size="10.00" fill="#000000">1</text>
</a>
</g>
</g>
<!-- dir_ffde1fbcaa8d6b0d34e29c3bddf7a801 -->
<g id="node10" class="node">
<title>dir_ffde1fbcaa8d6b0d34e29c3bddf7a801</title>
<g id="a_node10"><a xlink:href="dir_ffde1fbcaa8d6b0d34e29c3bddf7a801.html" target="_top" xlink:title="logger">
<polygon fill="#ffffff" stroke="#ff0000" points="314,-340 260,-340 260,-304 314,-304 314,-340"/>
<text text-anchor="middle" x="287" y="-319.5" font-family="Helvetica,sans-Serif" font-size="10.00" fill="#000000">logger</text>
</a>
</g>
</g>
<!-- dir_ffde1fbcaa8d6b0d34e29c3bddf7a801&#45;&gt;dir_cc2494ece34082706c88d264c8a52186 -->
<g id="edge8" class="edge">
<title>dir_ffde1fbcaa8d6b0d34e29c3bddf7a801&#45;&gt;dir_cc2494ece34082706c88d264c8a52186</title>
<path fill="none" stroke="#000000" d="M294.0656,-303.8314C297.126,-295.9617 300.7779,-286.5712 304.1682,-277.8533"/>
<polygon fill="#000000" stroke="#000000" points="307.4768,-279.0019 307.8393,-268.4133 300.9527,-276.4647 307.4768,-279.0019"/>
<g id="a_edge8&#45;headlabel"><a xlink:href="dir_000030_000006.html" target="_top" xlink:title="1">
<text text-anchor="middle" x="308.8202" y="-280.8812" font-family="Helvetica,sans-Serif" font-size="10.00" fill="#000000">1</text>
</a>
</g>
</g>
<!-- dir_ffde1fbcaa8d6b0d34e29c3bddf7a801&#45;&gt;dir_d0537398ec3fe72d8d4f5c6709d28acc -->
<g id="edge9" class="edge">
<title>dir_ffde1fbcaa8d6b0d34e29c3bddf7a801&#45;&gt;dir_d0537398ec3fe72d8d4f5c6709d28acc</title>
<path fill="none" stroke="#000000" d="M314.2944,-307.0347C338.8317,-293.3002 371.5423,-274.1786 375,-268 382.8137,-254.0377 381.7975,-246.4843 375,-232 368.6805,-218.5342 357.1708,-207.2644 345.5734,-198.5633"/>
<polygon fill="#000000" stroke="#000000" points="347.3844,-195.5586 337.1862,-192.6868 343.3677,-201.2915 347.3844,-195.5586"/>
<g id="a_edge9&#45;headlabel"><a xlink:href="dir_000030_000011.html" target="_top" xlink:title="1">
<text text-anchor="middle" x="351.9575" y="-192.7958" font-family="Helvetica,sans-Serif" font-size="10.00" fill="#000000">1</text>
</a>
</g>
</g>
<!-- dir_ffde1fbcaa8d6b0d34e29c3bddf7a801&#45;&gt;dir_4fef79e7177ba769987a8da36c892c5f -->
<g id="edge7" class="edge">
<title>dir_ffde1fbcaa8d6b0d34e29c3bddf7a801&#45;&gt;dir_4fef79e7177ba769987a8da36c892c5f</title>
<path fill="none" stroke="#000000" d="M314.1086,-307.204C317.0527,-305.974 320.0513,-304.8708 323,-304 458.8327,-263.8867 506.6499,-309.3731 643.4223,-268.7265"/>
<polygon fill="#000000" stroke="#000000" points="644.462,-272.0686 652.9932,-265.7862 642.4063,-265.3772 644.462,-272.0686"/>
<g id="a_edge7&#45;headlabel"><a xlink:href="dir_000030_000000.html" target="_top" xlink:title="1">
<text text-anchor="middle" x="641.8597" y="-273.3382" font-family="Helvetica,sans-Serif" font-size="10.00" fill="#000000">1</text>
</a>
</g>
</g>
<!-- dir_d2da34f738933fa17ec589dd95f08c72&#45;&gt;dir_920a55bcfa35c5c1cf06a9da66085a54 -->
<g id="edge23" class="edge">
<title>dir_d2da34f738933fa17ec589dd95f08c72&#45;&gt;dir_920a55bcfa35c5c1cf06a9da66085a54</title>
<path fill="none" stroke="#000000" d="M415.976,-124.4133C416.7071,-132.0593 416.9203,-141.1084 416.6155,-149.5726"/>
<polygon fill="#000000" stroke="#000000" points="413.1048,-149.6264 415.9524,-159.8314 420.0902,-150.078 413.1048,-149.6264"/>
<g id="a_edge23&#45;headlabel"><a xlink:href="dir_000033_000023.html" target="_top" xlink:title="1">
<text text-anchor="middle" x="410.5032" y="-143.3562" font-family="Helvetica,sans-Serif" font-size="10.00" fill="#000000">1</text>
</a>
</g>
</g>
<!-- dir_4c4a2658256c21d40e51b2944a6e42cf -->
<g id="node19" class="node">
<title>dir_4c4a2658256c21d40e51b2944a6e42cf</title>
<g id="a_node19"><a xlink:href="dir_4c4a2658256c21d40e51b2944a6e42cf.html" target="_top" xlink:title="real_t">
<polygon fill="#ffffff" stroke="#ff0000" points="544,-52 490,-52 490,-16 544,-16 544,-52"/>
<text text-anchor="middle" x="517" y="-31.5" font-family="Helvetica,sans-Serif" font-size="10.00" fill="#000000">real_t</text>
</a>
</g>
</g>
<!-- dir_40d7732de2983c682bb99d86585a563c&#45;&gt;dir_4c4a2658256c21d40e51b2944a6e42cf -->
<g id="edge15" class="edge">
<title>dir_40d7732de2983c682bb99d86585a563c&#45;&gt;dir_4c4a2658256c21d40e51b2944a6e42cf</title>
<path fill="none" stroke="#000000" d="M517,-87.8314C517,-80.131 517,-70.9743 517,-62.4166"/>
<polygon fill="#000000" stroke="#000000" points="520.5001,-62.4132 517,-52.4133 513.5001,-62.4133 520.5001,-62.4132"/>
<g id="a_edge15&#45;headlabel"><a xlink:href="dir_000036_000053.html" target="_top" xlink:title="1">
<text text-anchor="middle" x="523.3393" y="-63.5079" font-family="Helvetica,sans-Serif" font-size="10.00" fill="#000000">1</text>
</a>
</g>
</g>
<!-- dir_78013b9138429c0bcb36eab7f16ba065 -->
<g id="node13" class="node">
<title>dir_78013b9138429c0bcb36eab7f16ba065</title>
<g id="a_node13"><a xlink:href="dir_78013b9138429c0bcb36eab7f16ba065.html" target="_top" xlink:title="py&#45;grid&#45;finder">
<polygon fill="#ffffff" stroke="#ff0000" points="415.5,-340 332.5,-340 332.5,-304 415.5,-304 415.5,-340"/>
<text text-anchor="middle" x="374" y="-319.5" font-family="Helvetica,sans-Serif" font-size="10.00" fill="#000000">py&#45;grid&#45;finder</text>
</a>
</g>
</g>
<!-- dir_78013b9138429c0bcb36eab7f16ba065&#45;&gt;dir_920a55bcfa35c5c1cf06a9da66085a54 -->
<g id="edge29" class="edge">
<title>dir_78013b9138429c0bcb36eab7f16ba065&#45;&gt;dir_920a55bcfa35c5c1cf06a9da66085a54</title>
<path fill="none" stroke="#000000" d="M378.5594,-303.7623C384.7268,-279.0928 395.7851,-234.8598 403.0067,-205.9731"/>
<polygon fill="#000000" stroke="#000000" points="406.4477,-206.6399 405.4776,-196.0896 399.6567,-204.9421 406.4477,-206.6399"/>
<g id="a_edge29&#45;headlabel"><a xlink:href="dir_000038_000023.html" target="_top" xlink:title="3">
<text text-anchor="middle" x="408.3304" y="-208.3158" font-family="Helvetica,sans-Serif" font-size="10.00" fill="#000000">3</text>
</a>
</g>
</g>
<!-- dir_78013b9138429c0bcb36eab7f16ba065&#45;&gt;dir_8f9e3926995673004d1bb228b2422cc7 -->
<g id="edge31" class="edge">
<title>dir_78013b9138429c0bcb36eab7f16ba065&#45;&gt;dir_8f9e3926995673004d1bb228b2422cc7</title>
<path fill="none" stroke="#000000" d="M397.7202,-303.8314C409.4094,-294.8779 423.6688,-283.9558 436.2809,-274.2955"/>
<polygon fill="#000000" stroke="#000000" points="438.4769,-277.0222 444.2874,-268.1628 434.2203,-271.4651 438.4769,-277.0222"/>
<g id="a_edge31&#45;headlabel"><a xlink:href="dir_000038_000025.html" target="_top" xlink:title="1">
<text text-anchor="middle" x="437.3497" y="-278.962" font-family="Helvetica,sans-Serif" font-size="10.00" fill="#000000">1</text>
</a>
</g>
</g>
<!-- dir_e933f813a55dc21e057ace61f7557bd3 -->
<g id="node14" class="node">
<title>dir_e933f813a55dc21e057ace61f7557bd3</title>
<g id="a_node14"><a xlink:href="dir_e933f813a55dc21e057ace61f7557bd3.html" target="_top" xlink:title="py&#45;matrix">
<polygon fill="#ffffff" stroke="#ff0000" points="634.5,-196 569.5,-196 569.5,-160 634.5,-160 634.5,-196"/>
<text text-anchor="middle" x="602" y="-175.5" font-family="Helvetica,sans-Serif" font-size="10.00" fill="#000000">py&#45;matrix</text>
</a>
</g>
</g>
<!-- dir_78013b9138429c0bcb36eab7f16ba065&#45;&gt;dir_e933f813a55dc21e057ace61f7557bd3 -->
<g id="edge30" class="edge">
<title>dir_78013b9138429c0bcb36eab7f16ba065&#45;&gt;dir_e933f813a55dc21e057ace61f7557bd3</title>
<path fill="none" stroke="#000000" d="M415.5784,-306.7137C418.7484,-305.7363 421.9142,-304.818 425,-304 511.8792,-280.9691 566.3791,-336.9801 624,-268 638.6884,-250.4159 630.2202,-224.5364 619.8171,-205.0367"/>
<polygon fill="#000000" stroke="#000000" points="622.8239,-203.2443 614.8131,-196.3104 616.7515,-206.7265 622.8239,-203.2443"/>
<g id="a_edge30&#45;headlabel"><a xlink:href="dir_000038_000041.html" target="_top" xlink:title="1">
<text text-anchor="middle" x="627.0751" y="-202.4502" font-family="Helvetica,sans-Serif" font-size="10.00" fill="#000000">1</text>
</a>
</g>
</g>
<!-- dir_e933f813a55dc21e057ace61f7557bd3&#45;&gt;dir_40d7732de2983c682bb99d86585a563c -->
<g id="edge18" class="edge">
<title>dir_e933f813a55dc21e057ace61f7557bd3&#45;&gt;dir_40d7732de2983c682bb99d86585a563c</title>
<path fill="none" stroke="#000000" d="M580.5509,-159.8314C570.1822,-151.0485 557.5771,-140.3712 546.3354,-130.8489"/>
<polygon fill="#000000" stroke="#000000" points="548.3349,-127.9556 538.4422,-124.1628 543.8105,-133.297 548.3349,-127.9556"/>
<g id="a_edge18&#45;headlabel"><a xlink:href="dir_000041_000036.html" target="_top" xlink:title="1">
<text text-anchor="middle" x="552.9129" y="-125.6125" font-family="Helvetica,sans-Serif" font-size="10.00" fill="#000000">1</text>
</a>
</g>
</g>
<!-- dir_0f9bae5f9611e027fbb1547f546a85da -->
<g id="node15" class="node">
<title>dir_0f9bae5f9611e027fbb1547f546a85da</title>
<g id="a_node15"><a xlink:href="dir_0f9bae5f9611e027fbb1547f546a85da.html" target="_top" xlink:title="py&#45;quaternion">
<polygon fill="#ffffff" stroke="#ff0000" points="614.5,-268 529.5,-268 529.5,-232 614.5,-232 614.5,-268"/>
<text text-anchor="middle" x="572" y="-247.5" font-family="Helvetica,sans-Serif" font-size="10.00" fill="#000000">py&#45;quaternion</text>
</a>
</g>
</g>
<!-- dir_0f9bae5f9611e027fbb1547f546a85da&#45;&gt;dir_e933f813a55dc21e057ace61f7557bd3 -->
<g id="edge17" class="edge">
<title>dir_0f9bae5f9611e027fbb1547f546a85da&#45;&gt;dir_e933f813a55dc21e057ace61f7557bd3</title>
<path fill="none" stroke="#000000" d="M579.5703,-231.8314C582.8493,-223.9617 586.762,-214.5712 590.3945,-205.8533"/>
<polygon fill="#000000" stroke="#000000" points="593.7124,-206.9902 594.3278,-196.4133 587.2508,-204.2979 593.7124,-206.9902"/>
<g id="a_edge17&#45;headlabel"><a xlink:href="dir_000043_000041.html" target="_top" xlink:title="1">
<text text-anchor="middle" x="594.9507" y="-208.9003" font-family="Helvetica,sans-Serif" font-size="10.00" fill="#000000">1</text>
</a>
</g>
</g>
<!-- dir_dde8465fa9db81d33b4c6be743ec2750 -->
<g id="node18" class="node">
<title>dir_dde8465fa9db81d33b4c6be743ec2750</title>
<g id="a_node18"><a xlink:href="dir_dde8465fa9db81d33b4c6be743ec2750.html" target="_top" xlink:title="quaternion">
<polygon fill="#ffffff" stroke="#ff0000" points="551.5,-196 482.5,-196 482.5,-160 551.5,-160 551.5,-196"/>
<text text-anchor="middle" x="517" y="-175.5" font-family="Helvetica,sans-Serif" font-size="10.00" fill="#000000">quaternion</text>
</a>
</g>
</g>
<!-- dir_0f9bae5f9611e027fbb1547f546a85da&#45;&gt;dir_dde8465fa9db81d33b4c6be743ec2750 -->
<g id="edge16" class="edge">
<title>dir_0f9bae5f9611e027fbb1547f546a85da&#45;&gt;dir_dde8465fa9db81d33b4c6be743ec2750</title>
<path fill="none" stroke="#000000" d="M558.1212,-231.8314C551.7864,-223.5386 544.1616,-213.557 537.2074,-204.4533"/>
<polygon fill="#000000" stroke="#000000" points="539.9175,-202.2353 531.0657,-196.4133 534.3548,-206.4847 539.9175,-202.2353"/>
<g id="a_edge16&#45;headlabel"><a xlink:href="dir_000043_000051.html" target="_top" xlink:title="3">
<text text-anchor="middle" x="544.3558" y="-200.8683" font-family="Helvetica,sans-Serif" font-size="10.00" fill="#000000">3</text>
</a>
</g>
</g>
<!-- dir_2b5615639a780788a137586f580a6a22 -->
<g id="node16" class="node">
<title>dir_2b5615639a780788a137586f580a6a22</title>
<g id="a_node16"><a xlink:href="dir_2b5615639a780788a137586f580a6a22.html" target="_top" xlink:title="qr&#45;crypto&#45;manager">
<polygon fill="#ffffff" stroke="#ff0000" points="241.5,-340 134.5,-340 134.5,-304 241.5,-304 241.5,-340"/>
<text text-anchor="middle" x="188" y="-319.5" font-family="Helvetica,sans-Serif" font-size="10.00" fill="#000000">qr&#45;crypto&#45;manager</text>
</a>
</g>
</g>
<!-- dir_2b5615639a780788a137586f580a6a22&#45;&gt;dir_cc2494ece34082706c88d264c8a52186 -->
<g id="edge26" class="edge">
<title>dir_2b5615639a780788a137586f580a6a22&#45;&gt;dir_cc2494ece34082706c88d264c8a52186</title>
<path fill="none" stroke="#000000" d="M220.0475,-303.8314C236.442,-294.5368 256.5786,-283.1208 274.0829,-273.1971"/>
<polygon fill="#000000" stroke="#000000" points="275.9897,-276.1395 282.9628,-268.1628 272.5374,-270.05 275.9897,-276.1395"/>
<g id="a_edge26&#45;headlabel"><a xlink:href="dir_000045_000006.html" target="_top" xlink:title="1">
<text text-anchor="middle" x="274.2629" y="-277.8822" font-family="Helvetica,sans-Serif" font-size="10.00" fill="#000000">1</text>
</a>
</g>
</g>
<!-- dir_2b5615639a780788a137586f580a6a22&#45;&gt;dir_9ab17fd7f07b28ef7164bcc825435f04 -->
<g id="edge25" class="edge">
<title>dir_2b5615639a780788a137586f580a6a22&#45;&gt;dir_9ab17fd7f07b28ef7164bcc825435f04</title>
<path fill="none" stroke="#000000" d="M172.6071,-303.8314C165.5096,-295.454 156.952,-285.3531 149.176,-276.1749"/>
<polygon fill="#000000" stroke="#000000" points="151.7348,-273.7807 142.6001,-268.4133 146.3939,-278.3056 151.7348,-273.7807"/>
<g id="a_edge25&#45;headlabel"><a xlink:href="dir_000045_000008.html" target="_top" xlink:title="1">
<text text-anchor="middle" x="156.2247" y="-272.1879" font-family="Helvetica,sans-Serif" font-size="10.00" fill="#000000">1</text>
</a>
</g>
</g>
<!-- dir_2b5615639a780788a137586f580a6a22&#45;&gt;dir_d0537398ec3fe72d8d4f5c6709d28acc -->
<g id="edge27" class="edge">
<title>dir_2b5615639a780788a137586f580a6a22&#45;&gt;dir_d0537398ec3fe72d8d4f5c6709d28acc</title>
<path fill="none" stroke="#000000" d="M205.5427,-303.7986C214.8467,-293.6812 226.1504,-280.6175 235,-268 245.5101,-253.015 243.9109,-246.5617 255,-232 262.7272,-221.8529 272.3245,-211.7763 281.3283,-203.1242"/>
<polygon fill="#000000" stroke="#000000" points="283.7921,-205.612 288.6977,-196.2212 279.0067,-200.5032 283.7921,-205.612"/>
<g id="a_edge27&#45;headlabel"><a xlink:href="dir_000045_000011.html" target="_top" xlink:title="1">
<text text-anchor="middle" x="283.1097" y="-207.6415" font-family="Helvetica,sans-Serif" font-size="10.00" fill="#000000">1</text>
</a>
</g>
</g>
<!-- dir_2b5615639a780788a137586f580a6a22&#45;&gt;dir_4261af1259721e3e39e0d2dd7354b511 -->
<g id="edge24" class="edge">
<title>dir_2b5615639a780788a137586f580a6a22&#45;&gt;dir_4261af1259721e3e39e0d2dd7354b511</title>
<path fill="none" stroke="#000000" d="M190.7758,-303.8314C191.9522,-296.131 193.3511,-286.9743 194.6586,-278.4166"/>
<polygon fill="#000000" stroke="#000000" points="198.1364,-278.8272 196.1869,-268.4133 191.2167,-277.7699 198.1364,-278.8272"/>
<g id="a_edge24&#45;headlabel"><a xlink:href="dir_000045_000014.html" target="_top" xlink:title="1">
<text text-anchor="middle" x="200.4003" y="-280.3093" font-family="Helvetica,sans-Serif" font-size="10.00" fill="#000000">1</text>
</a>
</g>
</g>
<!-- dir_a6001fb970975ebb58a93b6f2462248e -->
<g id="node17" class="node">
<title>dir_a6001fb970975ebb58a93b6f2462248e</title>
<g id="a_node17"><a xlink:href="dir_a6001fb970975ebb58a93b6f2462248e.html" target="_top" xlink:title="qr&#45;decode">
<polygon fill="#ffffff" stroke="#ff0000" points="81.5,-268 16.5,-268 16.5,-232 81.5,-232 81.5,-268"/>
<text text-anchor="middle" x="49" y="-247.5" font-family="Helvetica,sans-Serif" font-size="10.00" fill="#000000">qr&#45;decode</text>
</a>
</g>
</g>
<!-- dir_2b5615639a780788a137586f580a6a22&#45;&gt;dir_a6001fb970975ebb58a93b6f2462248e -->
<g id="edge28" class="edge">
<title>dir_2b5615639a780788a137586f580a6a22&#45;&gt;dir_a6001fb970975ebb58a93b6f2462248e</title>
<path fill="none" stroke="#000000" d="M152.9244,-303.8314C134.0396,-294.0493 110.6182,-281.9173 90.7933,-271.6483"/>
<polygon fill="#000000" stroke="#000000" points="92.1665,-268.418 81.6771,-266.9263 88.9468,-274.6336 92.1665,-268.418"/>
<g id="a_edge28&#45;headlabel"><a xlink:href="dir_000045_000048.html" target="_top" xlink:title="1">
<text text-anchor="middle" x="96.6642" y="-265.0501" font-family="Helvetica,sans-Serif" font-size="10.00" fill="#000000">1</text>
</a>
</g>
</g>
<!-- dir_dde8465fa9db81d33b4c6be743ec2750&#45;&gt;dir_40d7732de2983c682bb99d86585a563c -->
<g id="edge10" class="edge">
<title>dir_dde8465fa9db81d33b4c6be743ec2750&#45;&gt;dir_40d7732de2983c682bb99d86585a563c</title>
<path fill="none" stroke="#000000" d="M517,-159.8314C517,-152.131 517,-142.9743 517,-134.4166"/>
<polygon fill="#000000" stroke="#000000" points="520.5001,-134.4132 517,-124.4133 513.5001,-134.4133 520.5001,-134.4132"/>
<g id="a_edge10&#45;headlabel"><a xlink:href="dir_000051_000036.html" target="_top" xlink:title="1">
<text text-anchor="middle" x="523.3393" y="-135.5079" font-family="Helvetica,sans-Serif" font-size="10.00" fill="#000000">1</text>
</a>
</g>
</g>
<!-- dir_dde8465fa9db81d33b4c6be743ec2750&#45;&gt;dir_7b5d38f1875f1b693f62ca6a108a1129 -->
<g id="edge11" class="edge">
<title>dir_dde8465fa9db81d33b4c6be743ec2750&#45;&gt;dir_7b5d38f1875f1b693f62ca6a108a1129</title>
<path fill="none" stroke="#000000" d="M482.4955,-165.1278C448.1052,-152.2983 395.4981,-132.6729 360.4425,-119.5951"/>
<polygon fill="#000000" stroke="#000000" points="361.6428,-116.3073 351.0502,-116.0913 359.1961,-122.8658 361.6428,-116.3073"/>
<g id="a_edge11&#45;headlabel"><a xlink:href="dir_000051_000055.html" target="_top" xlink:title="1">
<text text-anchor="middle" x="366.0031" y="-112.4035" font-family="Helvetica,sans-Serif" font-size="10.00" fill="#000000">1</text>
</a>
</g>
</g>
<!-- dir_4fef79e7177ba769987a8da36c892c5f&#45;&gt;dir_d471c9e7d7d2cd1463b667d184ac6f80 -->
<g id="edge12" class="edge">
<title>dir_4fef79e7177ba769987a8da36c892c5f&#45;&gt;dir_d471c9e7d7d2cd1463b667d184ac6f80</title>
<path fill="none" stroke="#000000" d="M655.633,-268.142C593.2003,-292.2664 572.261,-281.5316 509,-304 506.1345,-305.0177 503.1954,-306.1809 500.2437,-307.4151"/>
<polygon fill="#000000" stroke="#000000" points="498.6178,-304.3057 490.8484,-311.509 501.414,-310.723 498.6178,-304.3057"/>
<g id="a_edge12&#45;headlabel"><a xlink:href="dir_000000_000028.html" target="_top" xlink:title="1">
<text text-anchor="middle" x="500.779" y="-297.7669" font-family="Helvetica,sans-Serif" font-size="10.00" fill="#000000">1</text>
</a>
</g>
</g>
<!-- dir_4fef79e7177ba769987a8da36c892c5f&#45;&gt;dir_e933f813a55dc21e057ace61f7557bd3 -->
<g id="edge14" class="edge">
<title>dir_4fef79e7177ba769987a8da36c892c5f&#45;&gt;dir_e933f813a55dc21e057ace61f7557bd3</title>
<path fill="none" stroke="#000000" d="M660.3173,-231.8314C650.8949,-223.1337 639.4599,-212.5783 629.2204,-203.1265"/>
<polygon fill="#000000" stroke="#000000" points="631.3984,-200.3738 621.6764,-196.1628 626.6505,-205.5175 631.3984,-200.3738"/>
<g id="a_edge14&#45;headlabel"><a xlink:href="dir_000000_000041.html" target="_top" xlink:title="1">
<text text-anchor="middle" x="635.9656" y="-198.2257" font-family="Helvetica,sans-Serif" font-size="10.00" fill="#000000">1</text>
</a>
</g>
</g>
<!-- dir_4fef79e7177ba769987a8da36c892c5f&#45;&gt;dir_dde8465fa9db81d33b4c6be743ec2750 -->
<g id="edge13" class="edge">
<title>dir_4fef79e7177ba769987a8da36c892c5f&#45;&gt;dir_dde8465fa9db81d33b4c6be743ec2750</title>
<path fill="none" stroke="#000000" d="M652.7443,-234.8448C650.8119,-233.8594 648.8836,-232.9018 647,-232 638.7391,-228.0449 595.5767,-210.2055 561.22,-196.0985"/>
<polygon fill="#000000" stroke="#000000" points="562.3797,-192.7912 551.7995,-192.2332 559.7225,-199.2673 562.3797,-192.7912"/>
<g id="a_edge13&#45;headlabel"><a xlink:href="dir_000000_000051.html" target="_top" xlink:title="1">
<text text-anchor="middle" x="566.783" y="-189.0289" font-family="Helvetica,sans-Serif" font-size="10.00" fill="#000000">1</text>
</a>
</g>
</g>
</g>
</svg>
