<?xml version="1.0" encoding="UTF-8" standalone="no"?>
<!DOCTYPE svg PUBLIC "-//W3C//DTD SVG 1.1//EN"
 "http://www.w3.org/Graphics/SVG/1.1/DTD/svg11.dtd">
<!-- Generated by graphviz version 2.40.1 (20161225.0304)
 -->
<!-- Title: /home/pieter/GitHub/EAGLE&#45;ZYBO&#45;Linux/src/py&#45;grid&#45;finder Pages: 1 -->
<svg width="212pt" height="303pt"
 viewBox="0.00 0.00 212.00 303.00" xmlns="http://www.w3.org/2000/svg" xmlns:xlink="http://www.w3.org/1999/xlink">
<g id="graph0" class="graph" transform="scale(1 1) rotate(0) translate(4 299)">
<title>/home/pieter/GitHub/EAGLE&#45;ZYBO&#45;Linux/src/py&#45;grid&#45;finder</title>
<polygon fill="#ffffff" stroke="transparent" points="-4,4 -4,-299 208,-299 208,4 -4,4"/>
<g id="clust1" class="cluster">
<title>clusterdir_68267d1309a1af8e8297ef4c3efbcdba</title>
<g id="a_clust1"><a xlink:href="dir_68267d1309a1af8e8297ef4c3efbcdba.html" target="_top" xlink:title="src">
<polygon fill="#ddddee" stroke="#000000" points="8,-128 8,-287 196,-287 196,-128 8,-128"/>
<text text-anchor="middle" x="102" y="-275" font-family="Helvetica,sans-Serif" font-size="10.00" fill="#000000">src</text>
</a>
</g>
</g>
<g id="clust2" class="cluster">
<title>clusterdir_78013b9138429c0bcb36eab7f16ba065</title>
<g id="a_clust2"><a xlink:href="dir_78013b9138429c0bcb36eab7f16ba065.html" target="_top">
<polygon fill="#eeeeff" stroke="#000000" points="16,-136 16,-260 188,-260 188,-136 16,-136"/>
</a>
</g>
</g>
<!-- dir_78013b9138429c0bcb36eab7f16ba065 -->
<g id="node1" class="node">
<title>dir_78013b9138429c0bcb36eab7f16ba065</title>
<text text-anchor="middle" x="138" y="-231.5" font-family="Helvetica,sans-Serif" font-size="10.00" fill="#000000">py&#45;grid&#45;finder</text>
</g>
<!-- dir_78dd38711051a706052e744536a15451 -->
<g id="node2" class="node">
<title>dir_78dd38711051a706052e744536a15451</title>
<g id="a_node2"><a xlink:href="dir_78dd38711051a706052e744536a15451.html" target="_top" xlink:title="include">
<polygon fill="#ffffff" stroke="#000000" points="78,-180 24,-180 24,-144 78,-144 78,-180"/>
<text text-anchor="middle" x="51" y="-159.5" font-family="Helvetica,sans-Serif" font-size="10.00" fill="#000000">include</text>
</a>
</g>
</g>
<!-- dir_920a55bcfa35c5c1cf06a9da66085a54 -->
<g id="node4" class="node">
<title>dir_920a55bcfa35c5c1cf06a9da66085a54</title>
<g id="a_node4"><a xlink:href="dir_920a55bcfa35c5c1cf06a9da66085a54.html" target="_top" xlink:title="grid&#45;finder">
<polygon fill="#ffffff" stroke="#ff0000" points="100.5,-36 33.5,-36 33.5,0 100.5,0 100.5,-36"/>
<text text-anchor="middle" x="67" y="-15.5" font-family="Helvetica,sans-Serif" font-size="10.00" fill="#000000">grid&#45;finder</text>
</a>
</g>
</g>
<!-- dir_78dd38711051a706052e744536a15451&#45;&gt;dir_920a55bcfa35c5c1cf06a9da66085a54 -->
<g id="edge1" class="edge">
<title>dir_78dd38711051a706052e744536a15451&#45;&gt;dir_920a55bcfa35c5c1cf06a9da66085a54</title>
<path fill="none" stroke="#000000" d="M32.396,-143.8067C23.7967,-134.0891 14.5063,-121.3872 10,-108 4.8956,-92.8361 3.6779,-86.698 10,-72 14.7491,-60.9589 22.9885,-51.1176 31.7506,-42.9593"/>
<polygon fill="#000000" stroke="#000000" points="34.245,-45.4291 39.5106,-36.2354 29.661,-40.1388 34.245,-45.4291"/>
<g id="a_edge1&#45;headlabel"><a xlink:href="dir_000034_000018.html" target="_top" xlink:title="3">
<text text-anchor="middle" x="33.3877" y="-47.4288" font-family="Helvetica,sans-Serif" font-size="10.00" fill="#000000">3</text>
</a>
</g>
</g>
<!-- dir_e933f813a55dc21e057ace61f7557bd3 -->
<g id="node5" class="node">
<title>dir_e933f813a55dc21e057ace61f7557bd3</title>
<g id="a_node5"><a xlink:href="dir_e933f813a55dc21e057ace61f7557bd3.html" target="_top" xlink:title="py&#45;matrix">
<polygon fill="#ffffff" stroke="#ff0000" points="83.5,-108 18.5,-108 18.5,-72 83.5,-72 83.5,-108"/>
<text text-anchor="middle" x="51" y="-87.5" font-family="Helvetica,sans-Serif" font-size="10.00" fill="#000000">py&#45;matrix</text>
</a>
</g>
</g>
<!-- dir_78dd38711051a706052e744536a15451&#45;&gt;dir_e933f813a55dc21e057ace61f7557bd3 -->
<g id="edge2" class="edge">
<title>dir_78dd38711051a706052e744536a15451&#45;&gt;dir_e933f813a55dc21e057ace61f7557bd3</title>
<path fill="none" stroke="#000000" d="M51,-143.8314C51,-136.131 51,-126.9743 51,-118.4166"/>
<polygon fill="#000000" stroke="#000000" points="54.5001,-118.4132 51,-108.4133 47.5001,-118.4133 54.5001,-118.4132"/>
<g id="a_edge2&#45;headlabel"><a xlink:href="dir_000034_000036.html" target="_top" xlink:title="1">
<text text-anchor="middle" x="57.3393" y="-119.5079" font-family="Helvetica,sans-Serif" font-size="10.00" fill="#000000">1</text>
</a>
</g>
</g>
<!-- dir_8f9e3926995673004d1bb228b2422cc7 -->
<g id="node6" class="node">
<title>dir_8f9e3926995673004d1bb228b2422cc7</title>
<g id="a_node6"><a xlink:href="dir_8f9e3926995673004d1bb228b2422cc7.html" target="_top" xlink:title="location&#45;finder">
<polygon fill="#ffffff" stroke="#ff0000" points="188.5,-108 101.5,-108 101.5,-72 188.5,-72 188.5,-108"/>
<text text-anchor="middle" x="145" y="-87.5" font-family="Helvetica,sans-Serif" font-size="10.00" fill="#000000">location&#45;finder</text>
</a>
</g>
</g>
<!-- dir_78dd38711051a706052e744536a15451&#45;&gt;dir_8f9e3926995673004d1bb228b2422cc7 -->
<g id="edge3" class="edge">
<title>dir_78dd38711051a706052e744536a15451&#45;&gt;dir_8f9e3926995673004d1bb228b2422cc7</title>
<path fill="none" stroke="#000000" d="M74.7202,-143.8314C86.4094,-134.8779 100.6688,-123.9558 113.2809,-114.2955"/>
<polygon fill="#000000" stroke="#000000" points="115.4769,-117.0222 121.2874,-108.1628 111.2203,-111.4651 115.4769,-117.0222"/>
<g id="a_edge3&#45;headlabel"><a xlink:href="dir_000034_000020.html" target="_top" xlink:title="1">
<text text-anchor="middle" x="114.3497" y="-118.962" font-family="Helvetica,sans-Serif" font-size="10.00" fill="#000000">1</text>
</a>
</g>
</g>
<!-- dir_63b78ee1474df19b687e369b16daff8b -->
<g id="node3" class="node">
<title>dir_63b78ee1474df19b687e369b16daff8b</title>
<g id="a_node3"><a xlink:href="dir_63b78ee1474df19b687e369b16daff8b.html" target="_top" xlink:title="src">
<polygon fill="#ffffff" stroke="#000000" points="78,-252 24,-252 24,-216 78,-216 78,-252"/>
<text text-anchor="middle" x="51" y="-231.5" font-family="Helvetica,sans-Serif" font-size="10.00" fill="#000000">src</text>
</a>
</g>
</g>
<!-- dir_63b78ee1474df19b687e369b16daff8b&#45;&gt;dir_78dd38711051a706052e744536a15451 -->
<g id="edge4" class="edge">
<title>dir_63b78ee1474df19b687e369b16daff8b&#45;&gt;dir_78dd38711051a706052e744536a15451</title>
<path fill="none" stroke="#000000" d="M51,-215.8314C51,-208.131 51,-198.9743 51,-190.4166"/>
<polygon fill="#000000" stroke="#000000" points="54.5001,-190.4132 51,-180.4133 47.5001,-190.4133 54.5001,-190.4132"/>
<g id="a_edge4&#45;headlabel"><a xlink:href="dir_000035_000034.html" target="_top" xlink:title="1">
<text text-anchor="middle" x="57.3393" y="-191.5079" font-family="Helvetica,sans-Serif" font-size="10.00" fill="#000000">1</text>
</a>
</g>
</g>
<!-- dir_8f9e3926995673004d1bb228b2422cc7&#45;&gt;dir_920a55bcfa35c5c1cf06a9da66085a54 -->
<g id="edge5" class="edge">
<title>dir_8f9e3926995673004d1bb228b2422cc7&#45;&gt;dir_920a55bcfa35c5c1cf06a9da66085a54</title>
<path fill="none" stroke="#000000" d="M125.3173,-71.8314C115.8949,-63.1337 104.4599,-52.5783 94.2204,-43.1265"/>
<polygon fill="#000000" stroke="#000000" points="96.3984,-40.3738 86.6764,-36.1628 91.6505,-45.5175 96.3984,-40.3738"/>
<g id="a_edge5&#45;headlabel"><a xlink:href="dir_000020_000018.html" target="_top" xlink:title="4">
<text text-anchor="middle" x="100.9656" y="-38.2257" font-family="Helvetica,sans-Serif" font-size="10.00" fill="#000000">4</text>
</a>
</g>
</g>
</g>
</svg>
