<?xml version="1.0" encoding="UTF-8" standalone="no"?>
<!DOCTYPE svg PUBLIC "-//W3C//DTD SVG 1.1//EN"
 "http://www.w3.org/Graphics/SVG/1.1/DTD/svg11.dtd">
<!-- Generated by graphviz version 2.40.1 (20161225.0304)
 -->
<!-- Title: /home/pieter/GitHub/EAGLE&#45;ZYBO&#45;Linux/src Pages: 1 -->
<svg width="556pt" height="292pt"
 viewBox="0.00 0.00 556.00 292.00" xmlns="http://www.w3.org/2000/svg" xmlns:xlink="http://www.w3.org/1999/xlink">
<g id="graph0" class="graph" transform="scale(1 1) rotate(0) translate(4 288)">
<title>/home/pieter/GitHub/EAGLE&#45;ZYBO&#45;Linux/src</title>
<polygon fill="#ffffff" stroke="transparent" points="-4,4 -4,-288 552,-288 552,4 -4,4"/>
<g id="clust1" class="cluster">
<title>clusterdir_68267d1309a1af8e8297ef4c3efbcdba</title>
<g id="a_clust1"><a xlink:href="dir_68267d1309a1af8e8297ef4c3efbcdba.html" target="_top">
<polygon fill="#eeeeff" stroke="#000000" points="8,-8 8,-276 540,-276 540,-8 8,-8"/>
</a>
</g>
</g>
<!-- dir_68267d1309a1af8e8297ef4c3efbcdba -->
<g id="node1" class="node">
<title>dir_68267d1309a1af8e8297ef4c3efbcdba</title>
<text text-anchor="middle" x="505" y="-247.5" font-family="Helvetica,sans-Serif" font-size="10.00" fill="#000000">src</text>
</g>
<!-- dir_cc2494ece34082706c88d264c8a52186 -->
<g id="node2" class="node">
<title>dir_cc2494ece34082706c88d264c8a52186</title>
<g id="a_node2"><a xlink:href="dir_cc2494ece34082706c88d264c8a52186.html" target="_top" xlink:title="baremetal&#45;comm">
<polygon fill="#ffffff" stroke="#ff0000" points="365.5,-196 264.5,-196 264.5,-160 365.5,-160 365.5,-196"/>
<text text-anchor="middle" x="315" y="-175.5" font-family="Helvetica,sans-Serif" font-size="10.00" fill="#000000">baremetal&#45;comm</text>
</a>
</g>
</g>
<!-- dir_9ab17fd7f07b28ef7164bcc825435f04 -->
<g id="node3" class="node">
<title>dir_9ab17fd7f07b28ef7164bcc825435f04</title>
<g id="a_node3"><a xlink:href="dir_9ab17fd7f07b28ef7164bcc825435f04.html" target="_top" xlink:title="base64">
<polygon fill="#ffffff" stroke="#ff0000" points="246,-196 192,-196 192,-160 246,-160 246,-196"/>
<text text-anchor="middle" x="219" y="-175.5" font-family="Helvetica,sans-Serif" font-size="10.00" fill="#000000">base64</text>
</a>
</g>
</g>
<!-- dir_d0537398ec3fe72d8d4f5c6709d28acc -->
<g id="node4" class="node">
<title>dir_d0537398ec3fe72d8d4f5c6709d28acc</title>
<g id="a_node4"><a xlink:href="dir_d0537398ec3fe72d8d4f5c6709d28acc.html" target="_top" xlink:title="comm">
<polygon fill="#ffffff" stroke="#ff0000" points="116,-124 62,-124 62,-88 116,-88 116,-124"/>
<text text-anchor="middle" x="89" y="-103.5" font-family="Helvetica,sans-Serif" font-size="10.00" fill="#000000">comm</text>
</a>
</g>
</g>
<!-- dir_7b5d38f1875f1b693f62ca6a108a1129 -->
<g id="node17" class="node">
<title>dir_7b5d38f1875f1b693f62ca6a108a1129</title>
<g id="a_node17"><a xlink:href="dir_7b5d38f1875f1b693f62ca6a108a1129.html" target="_top" xlink:title="utilities">
<polygon fill="#ffffff" stroke="#ff0000" points="116,-52 62,-52 62,-16 116,-16 116,-52"/>
<text text-anchor="middle" x="89" y="-31.5" font-family="Helvetica,sans-Serif" font-size="10.00" fill="#000000">utilities</text>
</a>
</g>
</g>
<!-- dir_d0537398ec3fe72d8d4f5c6709d28acc&#45;&gt;dir_7b5d38f1875f1b693f62ca6a108a1129 -->
<g id="edge11" class="edge">
<title>dir_d0537398ec3fe72d8d4f5c6709d28acc&#45;&gt;dir_7b5d38f1875f1b693f62ca6a108a1129</title>
<path fill="none" stroke="#000000" d="M89,-87.8314C89,-80.131 89,-70.9743 89,-62.4166"/>
<polygon fill="#000000" stroke="#000000" points="92.5001,-62.4132 89,-52.4133 85.5001,-62.4133 92.5001,-62.4132"/>
<g id="a_edge11&#45;headlabel"><a xlink:href="dir_000006_000044.html" target="_top" xlink:title="1">
<text text-anchor="middle" x="95.3393" y="-63.5079" font-family="Helvetica,sans-Serif" font-size="10.00" fill="#000000">1</text>
</a>
</g>
</g>
<!-- dir_4261af1259721e3e39e0d2dd7354b511 -->
<g id="node5" class="node">
<title>dir_4261af1259721e3e39e0d2dd7354b511</title>
<g id="a_node5"><a xlink:href="dir_4261af1259721e3e39e0d2dd7354b511.html" target="_top" xlink:title="crypto">
<polygon fill="#ffffff" stroke="#ff0000" points="70,-196 16,-196 16,-160 70,-160 70,-196"/>
<text text-anchor="middle" x="43" y="-175.5" font-family="Helvetica,sans-Serif" font-size="10.00" fill="#000000">crypto</text>
</a>
</g>
</g>
<!-- dir_4261af1259721e3e39e0d2dd7354b511&#45;&gt;dir_d0537398ec3fe72d8d4f5c6709d28acc -->
<g id="edge2" class="edge">
<title>dir_4261af1259721e3e39e0d2dd7354b511&#45;&gt;dir_d0537398ec3fe72d8d4f5c6709d28acc</title>
<path fill="none" stroke="#000000" d="M54.6077,-159.8314C59.7978,-151.7079 66.0232,-141.9637 71.7425,-133.0118"/>
<polygon fill="#000000" stroke="#000000" points="74.8015,-134.7246 77.236,-124.4133 68.9026,-130.9559 74.8015,-134.7246"/>
<g id="a_edge2&#45;headlabel"><a xlink:href="dir_000009_000006.html" target="_top" xlink:title="2">
<text text-anchor="middle" x="75.2589" y="-136.7824" font-family="Helvetica,sans-Serif" font-size="10.00" fill="#000000">2</text>
</a>
</g>
</g>
<!-- dir_4261af1259721e3e39e0d2dd7354b511&#45;&gt;dir_7b5d38f1875f1b693f62ca6a108a1129 -->
<g id="edge1" class="edge">
<title>dir_4261af1259721e3e39e0d2dd7354b511&#45;&gt;dir_7b5d38f1875f1b693f62ca6a108a1129</title>
<path fill="none" stroke="#000000" d="M42.5302,-159.842C42.6151,-141.248 44.3368,-111.7823 53,-88 56.4919,-78.414 62.0173,-68.8535 67.701,-60.4998"/>
<polygon fill="#000000" stroke="#000000" points="70.613,-62.445 73.6025,-52.2807 64.927,-58.3622 70.613,-62.445"/>
<g id="a_edge1&#45;headlabel"><a xlink:href="dir_000009_000044.html" target="_top" xlink:title="1">
<text text-anchor="middle" x="70.8228" y="-64.5209" font-family="Helvetica,sans-Serif" font-size="10.00" fill="#000000">1</text>
</a>
</g>
</g>
<!-- dir_9f42a264daae6f1215a4a8774a60c231 -->
<g id="node6" class="node">
<title>dir_9f42a264daae6f1215a4a8774a60c231</title>
<g id="a_node6"><a xlink:href="dir_9f42a264daae6f1215a4a8774a60c231.html" target="_top" xlink:title="greet">
<polygon fill="#ffffff" stroke="#ff0000" points="460,-268 406,-268 406,-232 460,-232 460,-268"/>
<text text-anchor="middle" x="433" y="-247.5" font-family="Helvetica,sans-Serif" font-size="10.00" fill="#000000">greet</text>
</a>
</g>
</g>
<!-- dir_920a55bcfa35c5c1cf06a9da66085a54 -->
<g id="node7" class="node">
<title>dir_920a55bcfa35c5c1cf06a9da66085a54</title>
<g id="a_node7"><a xlink:href="dir_920a55bcfa35c5c1cf06a9da66085a54.html" target="_top" xlink:title="grid&#45;finder">
<polygon fill="#ffffff" stroke="#ff0000" points="448.5,-124 381.5,-124 381.5,-88 448.5,-88 448.5,-124"/>
<text text-anchor="middle" x="415" y="-103.5" font-family="Helvetica,sans-Serif" font-size="10.00" fill="#000000">grid&#45;finder</text>
</a>
</g>
</g>
<!-- dir_d2da34f738933fa17ec589dd95f08c72 -->
<g id="node11" class="node">
<title>dir_d2da34f738933fa17ec589dd95f08c72</title>
<g id="a_node11"><a xlink:href="dir_d2da34f738933fa17ec589dd95f08c72.html" target="_top" xlink:title="mask">
<polygon fill="#ffffff" stroke="#ff0000" points="442,-52 388,-52 388,-16 442,-16 442,-52"/>
<text text-anchor="middle" x="415" y="-31.5" font-family="Helvetica,sans-Serif" font-size="10.00" fill="#000000">mask</text>
</a>
</g>
</g>
<!-- dir_920a55bcfa35c5c1cf06a9da66085a54&#45;&gt;dir_d2da34f738933fa17ec589dd95f08c72 -->
<g id="edge5" class="edge">
<title>dir_920a55bcfa35c5c1cf06a9da66085a54&#45;&gt;dir_d2da34f738933fa17ec589dd95f08c72</title>
<path fill="none" stroke="#000000" d="M409.0476,-87.8314C408.2972,-80.131 408.0763,-70.9743 408.3849,-62.4166"/>
<polygon fill="#000000" stroke="#000000" points="411.8792,-62.6161 409.024,-52.4133 404.8935,-62.1697 411.8792,-62.6161"/>
<g id="a_edge5&#45;headlabel"><a xlink:href="dir_000018_000028.html" target="_top" xlink:title="1">
<text text-anchor="middle" x="414.4836" y="-63.8844" font-family="Helvetica,sans-Serif" font-size="10.00" fill="#000000">1</text>
</a>
</g>
</g>
<!-- dir_40d7732de2983c682bb99d86585a563c -->
<g id="node12" class="node">
<title>dir_40d7732de2983c682bb99d86585a563c</title>
<g id="a_node12"><a xlink:href="dir_40d7732de2983c682bb99d86585a563c.html" target="_top" xlink:title="matrix">
<polygon fill="#ffffff" stroke="#ff0000" points="520,-52 466,-52 466,-16 520,-16 520,-52"/>
<text text-anchor="middle" x="493" y="-31.5" font-family="Helvetica,sans-Serif" font-size="10.00" fill="#000000">matrix</text>
</a>
</g>
</g>
<!-- dir_920a55bcfa35c5c1cf06a9da66085a54&#45;&gt;dir_40d7732de2983c682bb99d86585a563c -->
<g id="edge3" class="edge">
<title>dir_920a55bcfa35c5c1cf06a9da66085a54&#45;&gt;dir_40d7732de2983c682bb99d86585a563c</title>
<path fill="none" stroke="#000000" d="M434.6827,-87.8314C444.1051,-79.1337 455.5401,-68.5783 465.7796,-59.1265"/>
<polygon fill="#000000" stroke="#000000" points="468.3495,-61.5175 473.3236,-52.1628 463.6016,-56.3738 468.3495,-61.5175"/>
<g id="a_edge3&#45;headlabel"><a xlink:href="dir_000018_000031.html" target="_top" xlink:title="2">
<text text-anchor="middle" x="467.634" y="-63.5419" font-family="Helvetica,sans-Serif" font-size="10.00" fill="#000000">2</text>
</a>
</g>
</g>
<!-- dir_920a55bcfa35c5c1cf06a9da66085a54&#45;&gt;dir_7b5d38f1875f1b693f62ca6a108a1129 -->
<g id="edge4" class="edge">
<title>dir_920a55bcfa35c5c1cf06a9da66085a54&#45;&gt;dir_7b5d38f1875f1b693f62ca6a108a1129</title>
<path fill="none" stroke="#000000" d="M381.3401,-98.5659C320.0077,-85.0201 190.4891,-56.4148 126.4575,-42.2728"/>
<polygon fill="#000000" stroke="#000000" points="126.915,-38.7896 116.3954,-40.0505 125.4053,-45.6249 126.915,-38.7896"/>
<g id="a_edge4&#45;headlabel"><a xlink:href="dir_000018_000044.html" target="_top" xlink:title="3">
<text text-anchor="middle" x="131.0373" y="-34.2923" font-family="Helvetica,sans-Serif" font-size="10.00" fill="#000000">3</text>
</a>
</g>
</g>
<!-- dir_8f9e3926995673004d1bb228b2422cc7 -->
<g id="node8" class="node">
<title>dir_8f9e3926995673004d1bb228b2422cc7</title>
<g id="a_node8"><a xlink:href="dir_8f9e3926995673004d1bb228b2422cc7.html" target="_top" xlink:title="location&#45;finder">
<polygon fill="#ffffff" stroke="#ff0000" points="491.5,-196 404.5,-196 404.5,-160 491.5,-160 491.5,-196"/>
<text text-anchor="middle" x="448" y="-175.5" font-family="Helvetica,sans-Serif" font-size="10.00" fill="#000000">location&#45;finder</text>
</a>
</g>
</g>
<!-- dir_8f9e3926995673004d1bb228b2422cc7&#45;&gt;dir_920a55bcfa35c5c1cf06a9da66085a54 -->
<g id="edge9" class="edge">
<title>dir_8f9e3926995673004d1bb228b2422cc7&#45;&gt;dir_920a55bcfa35c5c1cf06a9da66085a54</title>
<path fill="none" stroke="#000000" d="M439.6727,-159.8314C436.027,-151.8771 431.6691,-142.369 427.6373,-133.5723"/>
<polygon fill="#000000" stroke="#000000" points="430.7877,-132.0456 423.4394,-124.4133 424.4243,-134.9622 430.7877,-132.0456"/>
<g id="a_edge9&#45;headlabel"><a xlink:href="dir_000020_000018.html" target="_top" xlink:title="4">
<text text-anchor="middle" x="434.8665" y="-131.6304" font-family="Helvetica,sans-Serif" font-size="10.00" fill="#000000">4</text>
</a>
</g>
</g>
<!-- dir_8f9e3926995673004d1bb228b2422cc7&#45;&gt;dir_d2da34f738933fa17ec589dd95f08c72 -->
<g id="edge10" class="edge">
<title>dir_8f9e3926995673004d1bb228b2422cc7&#45;&gt;dir_d2da34f738933fa17ec589dd95f08c72</title>
<path fill="none" stroke="#000000" d="M409.3086,-159.9437C395.2133,-151.2204 380.8269,-139.2799 373,-124 362.0929,-102.7068 375.3467,-78.0571 389.7753,-59.9443"/>
<polygon fill="#000000" stroke="#000000" points="392.612,-62.0104 396.4048,-52.1177 387.2707,-57.486 392.612,-62.0104"/>
<g id="a_edge10&#45;headlabel"><a xlink:href="dir_000020_000028.html" target="_top" xlink:title="1">
<text text-anchor="middle" x="392.4552" y="-64.0884" font-family="Helvetica,sans-Serif" font-size="10.00" fill="#000000">1</text>
</a>
</g>
</g>
<!-- dir_d471c9e7d7d2cd1463b667d184ac6f80 -->
<g id="node9" class="node">
<title>dir_d471c9e7d7d2cd1463b667d184ac6f80</title>
<g id="a_node9"><a xlink:href="dir_d471c9e7d7d2cd1463b667d184ac6f80.html" target="_top" xlink:title="logentry">
<polygon fill="#ffffff" stroke="#ff0000" points="387.5,-268 330.5,-268 330.5,-232 387.5,-232 387.5,-268"/>
<text text-anchor="middle" x="359" y="-247.5" font-family="Helvetica,sans-Serif" font-size="10.00" fill="#000000">logentry</text>
</a>
</g>
</g>
<!-- dir_ffde1fbcaa8d6b0d34e29c3bddf7a801 -->
<g id="node10" class="node">
<title>dir_ffde1fbcaa8d6b0d34e29c3bddf7a801</title>
<g id="a_node10"><a xlink:href="dir_ffde1fbcaa8d6b0d34e29c3bddf7a801.html" target="_top" xlink:title="logger">
<polygon fill="#ffffff" stroke="#ff0000" points="211,-268 157,-268 157,-232 211,-232 211,-268"/>
<text text-anchor="middle" x="184" y="-247.5" font-family="Helvetica,sans-Serif" font-size="10.00" fill="#000000">logger</text>
</a>
</g>
</g>
<!-- dir_ffde1fbcaa8d6b0d34e29c3bddf7a801&#45;&gt;dir_cc2494ece34082706c88d264c8a52186 -->
<g id="edge6" class="edge">
<title>dir_ffde1fbcaa8d6b0d34e29c3bddf7a801&#45;&gt;dir_cc2494ece34082706c88d264c8a52186</title>
<path fill="none" stroke="#000000" d="M211.1433,-235.0816C228.9504,-225.2944 252.5974,-212.2976 272.8287,-201.1781"/>
<polygon fill="#000000" stroke="#000000" points="274.7728,-204.1034 281.8506,-196.2195 271.4012,-197.9689 274.7728,-204.1034"/>
<g id="a_edge6&#45;headlabel"><a xlink:href="dir_000025_000001.html" target="_top" xlink:title="1">
<text text-anchor="middle" x="272.9902" y="-205.823" font-family="Helvetica,sans-Serif" font-size="10.00" fill="#000000">1</text>
</a>
</g>
</g>
<!-- dir_ffde1fbcaa8d6b0d34e29c3bddf7a801&#45;&gt;dir_d0537398ec3fe72d8d4f5c6709d28acc -->
<g id="edge7" class="edge">
<title>dir_ffde1fbcaa8d6b0d34e29c3bddf7a801&#45;&gt;dir_d0537398ec3fe72d8d4f5c6709d28acc</title>
<path fill="none" stroke="#000000" d="M211.1862,-235.9335C214.4486,-234.4973 217.7688,-233.1474 221,-232 287.2375,-208.4791 331.3193,-251.0694 375,-196 384.943,-183.4646 385.2104,-172.3186 375,-160 343.7921,-122.3482 196.2715,-110.7623 126.1695,-107.3505"/>
<polygon fill="#000000" stroke="#000000" points="126.1609,-103.8466 116.0118,-106.8873 125.8419,-110.8393 126.1609,-103.8466"/>
<g id="a_edge7&#45;headlabel"><a xlink:href="dir_000025_000006.html" target="_top" xlink:title="1">
<text text-anchor="middle" x="129.8811" y="-98.6739" font-family="Helvetica,sans-Serif" font-size="10.00" fill="#000000">1</text>
</a>
</g>
</g>
<!-- dir_d2da34f738933fa17ec589dd95f08c72&#45;&gt;dir_920a55bcfa35c5c1cf06a9da66085a54 -->
<g id="edge12" class="edge">
<title>dir_d2da34f738933fa17ec589dd95f08c72&#45;&gt;dir_920a55bcfa35c5c1cf06a9da66085a54</title>
<path fill="none" stroke="#000000" d="M420.976,-52.4133C421.7071,-60.0593 421.9203,-69.1084 421.6155,-77.5726"/>
<polygon fill="#000000" stroke="#000000" points="418.1048,-77.6264 420.9524,-87.8314 425.0902,-78.078 418.1048,-77.6264"/>
<g id="a_edge12&#45;headlabel"><a xlink:href="dir_000028_000018.html" target="_top" xlink:title="1">
<text text-anchor="middle" x="415.5032" y="-71.3562" font-family="Helvetica,sans-Serif" font-size="10.00" fill="#000000">1</text>
</a>
</g>
</g>
<!-- dir_78013b9138429c0bcb36eab7f16ba065 -->
<g id="node13" class="node">
<title>dir_78013b9138429c0bcb36eab7f16ba065</title>
<g id="a_node13"><a xlink:href="dir_78013b9138429c0bcb36eab7f16ba065.html" target="_top" xlink:title="py&#45;grid&#45;finder">
<polygon fill="#ffffff" stroke="#ff0000" points="312.5,-268 229.5,-268 229.5,-232 312.5,-232 312.5,-268"/>
<text text-anchor="middle" x="271" y="-247.5" font-family="Helvetica,sans-Serif" font-size="10.00" fill="#000000">py&#45;grid&#45;finder</text>
</a>
</g>
</g>
<!-- dir_78013b9138429c0bcb36eab7f16ba065&#45;&gt;dir_920a55bcfa35c5c1cf06a9da66085a54 -->
<g id="edge18" class="edge">
<title>dir_78013b9138429c0bcb36eab7f16ba065&#45;&gt;dir_920a55bcfa35c5c1cf06a9da66085a54</title>
<path fill="none" stroke="#000000" d="M312.5967,-234.7815C315.7625,-233.7884 318.9223,-232.8481 322,-232 400.2328,-210.4426 449.5864,-258.7832 501,-196 511.1372,-183.6211 508.7417,-174.0024 501,-160 495.882,-150.7431 476.6667,-138.2998 457.6944,-127.6911"/>
<polygon fill="#000000" stroke="#000000" points="459.2096,-124.5307 448.7556,-122.8087 455.8541,-130.674 459.2096,-124.5307"/>
<g id="a_edge18&#45;headlabel"><a xlink:href="dir_000033_000018.html" target="_top" xlink:title="3">
<text text-anchor="middle" x="463.7253" y="-121.2619" font-family="Helvetica,sans-Serif" font-size="10.00" fill="#000000">3</text>
</a>
</g>
</g>
<!-- dir_78013b9138429c0bcb36eab7f16ba065&#45;&gt;dir_8f9e3926995673004d1bb228b2422cc7 -->
<g id="edge20" class="edge">
<title>dir_78013b9138429c0bcb36eab7f16ba065&#45;&gt;dir_8f9e3926995673004d1bb228b2422cc7</title>
<path fill="none" stroke="#000000" d="M312.9465,-232.937C337.4384,-222.9742 368.5801,-210.3064 394.7858,-199.6465"/>
<polygon fill="#000000" stroke="#000000" points="396.2515,-202.8288 404.1957,-195.8187 393.6139,-196.3447 396.2515,-202.8288"/>
<g id="a_edge20&#45;headlabel"><a xlink:href="dir_000033_000020.html" target="_top" xlink:title="1">
<text text-anchor="middle" x="393.9917" y="-204.3132" font-family="Helvetica,sans-Serif" font-size="10.00" fill="#000000">1</text>
</a>
</g>
</g>
<!-- dir_e933f813a55dc21e057ace61f7557bd3 -->
<g id="node14" class="node">
<title>dir_e933f813a55dc21e057ace61f7557bd3</title>
<g id="a_node14"><a xlink:href="dir_e933f813a55dc21e057ace61f7557bd3.html" target="_top" xlink:title="py&#45;matrix">
<polygon fill="#ffffff" stroke="#ff0000" points="531.5,-124 466.5,-124 466.5,-88 531.5,-88 531.5,-124"/>
<text text-anchor="middle" x="499" y="-103.5" font-family="Helvetica,sans-Serif" font-size="10.00" fill="#000000">py&#45;matrix</text>
</a>
</g>
</g>
<!-- dir_78013b9138429c0bcb36eab7f16ba065&#45;&gt;dir_e933f813a55dc21e057ace61f7557bd3 -->
<g id="edge19" class="edge">
<title>dir_78013b9138429c0bcb36eab7f16ba065&#45;&gt;dir_e933f813a55dc21e057ace61f7557bd3</title>
<path fill="none" stroke="#000000" d="M312.5889,-234.7527C315.7565,-233.7663 318.9188,-232.8353 322,-232 403.6885,-209.854 455.1054,-261.2597 509,-196 523.1512,-178.8647 518.6252,-153.2113 511.7336,-133.6717"/>
<polygon fill="#000000" stroke="#000000" points="514.8917,-132.1361 508.0006,-124.0886 508.3691,-134.677 514.8917,-132.1361"/>
<g id="a_edge19&#45;headlabel"><a xlink:href="dir_000033_000036.html" target="_top" xlink:title="1">
<text text-anchor="middle" x="518.842" y="-131.955" font-family="Helvetica,sans-Serif" font-size="10.00" fill="#000000">1</text>
</a>
</g>
</g>
<!-- dir_e933f813a55dc21e057ace61f7557bd3&#45;&gt;dir_40d7732de2983c682bb99d86585a563c -->
<g id="edge8" class="edge">
<title>dir_e933f813a55dc21e057ace61f7557bd3&#45;&gt;dir_40d7732de2983c682bb99d86585a563c</title>
<path fill="none" stroke="#000000" d="M497.4859,-87.8314C496.8442,-80.131 496.0812,-70.9743 495.3681,-62.4166"/>
<polygon fill="#000000" stroke="#000000" points="498.8529,-62.088 494.5344,-52.4133 491.8771,-62.6694 498.8529,-62.088"/>
<g id="a_edge8&#45;headlabel"><a xlink:href="dir_000036_000031.html" target="_top" xlink:title="1">
<text text-anchor="middle" x="501.9808" y="-62.9345" font-family="Helvetica,sans-Serif" font-size="10.00" fill="#000000">1</text>
</a>
</g>
</g>
<!-- dir_2b5615639a780788a137586f580a6a22 -->
<g id="node15" class="node">
<title>dir_2b5615639a780788a137586f580a6a22</title>
<g id="a_node15"><a xlink:href="dir_2b5615639a780788a137586f580a6a22.html" target="_top" xlink:title="qr&#45;crypto&#45;manager">
<polygon fill="#ffffff" stroke="#ff0000" points="138.5,-268 31.5,-268 31.5,-232 138.5,-232 138.5,-268"/>
<text text-anchor="middle" x="85" y="-247.5" font-family="Helvetica,sans-Serif" font-size="10.00" fill="#000000">qr&#45;crypto&#45;manager</text>
</a>
</g>
</g>
<!-- dir_2b5615639a780788a137586f580a6a22&#45;&gt;dir_cc2494ece34082706c88d264c8a52186 -->
<g id="edge15" class="edge">
<title>dir_2b5615639a780788a137586f580a6a22&#45;&gt;dir_cc2494ece34082706c88d264c8a52186</title>
<path fill="none" stroke="#000000" d="M138.6345,-233.2101C173.3358,-222.3471 218.5796,-208.1838 254.5535,-196.9224"/>
<polygon fill="#000000" stroke="#000000" points="255.94,-200.1559 264.4377,-193.8282 253.8487,-193.4756 255.94,-200.1559"/>
<g id="a_edge15&#45;headlabel"><a xlink:href="dir_000038_000001.html" target="_top" xlink:title="1">
<text text-anchor="middle" x="253.3578" y="-201.4393" font-family="Helvetica,sans-Serif" font-size="10.00" fill="#000000">1</text>
</a>
</g>
</g>
<!-- dir_2b5615639a780788a137586f580a6a22&#45;&gt;dir_9ab17fd7f07b28ef7164bcc825435f04 -->
<g id="edge14" class="edge">
<title>dir_2b5615639a780788a137586f580a6a22&#45;&gt;dir_9ab17fd7f07b28ef7164bcc825435f04</title>
<path fill="none" stroke="#000000" d="M118.8139,-231.8314C138.358,-221.33 162.9424,-208.1205 182.8665,-197.415"/>
<polygon fill="#000000" stroke="#000000" points="184.7913,-200.3541 191.9436,-192.5378 181.478,-194.1879 184.7913,-200.3541"/>
<g id="a_edge14&#45;headlabel"><a xlink:href="dir_000038_000003.html" target="_top" xlink:title="1">
<text text-anchor="middle" x="182.9687" y="-202.0565" font-family="Helvetica,sans-Serif" font-size="10.00" fill="#000000">1</text>
</a>
</g>
</g>
<!-- dir_2b5615639a780788a137586f580a6a22&#45;&gt;dir_d0537398ec3fe72d8d4f5c6709d28acc -->
<g id="edge16" class="edge">
<title>dir_2b5615639a780788a137586f580a6a22&#45;&gt;dir_d0537398ec3fe72d8d4f5c6709d28acc</title>
<path fill="none" stroke="#000000" d="M85.5066,-231.7623C86.1889,-207.201 87.4098,-163.2474 88.2124,-134.3541"/>
<polygon fill="#000000" stroke="#000000" points="91.7184,-134.183 88.4975,-124.0896 84.7211,-133.9885 91.7184,-134.183"/>
<g id="a_edge16&#45;headlabel"><a xlink:href="dir_000038_000006.html" target="_top" xlink:title="1">
<text text-anchor="middle" x="94.4569" y="-135.355" font-family="Helvetica,sans-Serif" font-size="10.00" fill="#000000">1</text>
</a>
</g>
</g>
<!-- dir_2b5615639a780788a137586f580a6a22&#45;&gt;dir_4261af1259721e3e39e0d2dd7354b511 -->
<g id="edge13" class="edge">
<title>dir_2b5615639a780788a137586f580a6a22&#45;&gt;dir_4261af1259721e3e39e0d2dd7354b511</title>
<path fill="none" stroke="#000000" d="M74.4016,-231.8314C69.7123,-223.7925 64.0972,-214.1666 58.9202,-205.2918"/>
<polygon fill="#000000" stroke="#000000" points="61.8031,-203.2875 53.7411,-196.4133 55.7566,-206.8146 61.8031,-203.2875"/>
<g id="a_edge13&#45;headlabel"><a xlink:href="dir_000038_000009.html" target="_top" xlink:title="1">
<text text-anchor="middle" x="66.0667" y="-202.4618" font-family="Helvetica,sans-Serif" font-size="10.00" fill="#000000">1</text>
</a>
</g>
</g>
<!-- dir_a6001fb970975ebb58a93b6f2462248e -->
<g id="node16" class="node">
<title>dir_a6001fb970975ebb58a93b6f2462248e</title>
<g id="a_node16"><a xlink:href="dir_a6001fb970975ebb58a93b6f2462248e.html" target="_top" xlink:title="qr&#45;decode">
<polygon fill="#ffffff" stroke="#ff0000" points="173.5,-196 108.5,-196 108.5,-160 173.5,-160 173.5,-196"/>
<text text-anchor="middle" x="141" y="-175.5" font-family="Helvetica,sans-Serif" font-size="10.00" fill="#000000">qr&#45;decode</text>
</a>
</g>
</g>
<!-- dir_2b5615639a780788a137586f580a6a22&#45;&gt;dir_a6001fb970975ebb58a93b6f2462248e -->
<g id="edge17" class="edge">
<title>dir_2b5615639a780788a137586f580a6a22&#45;&gt;dir_a6001fb970975ebb58a93b6f2462248e</title>
<path fill="none" stroke="#000000" d="M99.1312,-231.8314C105.5811,-223.5386 113.3445,-213.557 120.4252,-204.4533"/>
<polygon fill="#000000" stroke="#000000" points="123.3019,-206.4556 126.6786,-196.4133 117.7764,-202.158 123.3019,-206.4556"/>
<g id="a_edge17&#45;headlabel"><a xlink:href="dir_000038_000041.html" target="_top" xlink:title="1">
<text text-anchor="middle" x="123.3362" y="-208.5361" font-family="Helvetica,sans-Serif" font-size="10.00" fill="#000000">1</text>
</a>
</g>
</g>
</g>
</svg>
