<?xml version="1.0" encoding="UTF-8" standalone="no"?>
<!DOCTYPE svg PUBLIC "-//W3C//DTD SVG 1.1//EN"
 "http://www.w3.org/Graphics/SVG/1.1/DTD/svg11.dtd">
<!-- Generated by graphviz version 2.40.1 (20161225.0304)
 -->
<!-- Title: /home/pieter/GitHub/EAGLE&#45;ZYBO&#45;Linux/src/baremetal&#45;comm/include Pages: 1 -->
<svg width="125pt" height="151pt"
 viewBox="0.00 0.00 125.00 151.00" xmlns="http://www.w3.org/2000/svg" xmlns:xlink="http://www.w3.org/1999/xlink">
<g id="graph0" class="graph" transform="scale(1 1) rotate(0) translate(4 147)">
<title>/home/pieter/GitHub/EAGLE&#45;ZYBO&#45;Linux/src/baremetal&#45;comm/include</title>
<polygon fill="#ffffff" stroke="transparent" points="-4,4 -4,-147 121,-147 121,4 -4,4"/>
<g id="clust1" class="cluster">
<title>clusterdir_cc2494ece34082706c88d264c8a52186</title>
<g id="a_clust1"><a xlink:href="dir_cc2494ece34082706c88d264c8a52186.html" target="_top" xlink:title="baremetal&#45;comm">
<polygon fill="#ddddee" stroke="#000000" points="8,-64 8,-135 109,-135 109,-64 8,-64"/>
<text text-anchor="middle" x="58.5" y="-123" font-family="Helvetica,sans-Serif" font-size="10.00" fill="#000000">baremetal&#45;comm</text>
</a>
</g>
</g>
<!-- dir_95f0824bbb59136ffaca881c89040d15 -->
<g id="node1" class="node">
<title>dir_95f0824bbb59136ffaca881c89040d15</title>
<g id="a_node1"><a xlink:href="dir_95f0824bbb59136ffaca881c89040d15.html" target="_top" xlink:title="include">
<polygon fill="#eeeeff" stroke="#000000" points="85,-108 31,-108 31,-72 85,-72 85,-108"/>
<text text-anchor="middle" x="58" y="-87.5" font-family="Helvetica,sans-Serif" font-size="10.00" fill="#000000">include</text>
</a>
</g>
</g>
<!-- dir_7b5d38f1875f1b693f62ca6a108a1129 -->
<g id="node2" class="node">
<title>dir_7b5d38f1875f1b693f62ca6a108a1129</title>
<g id="a_node2"><a xlink:href="dir_7b5d38f1875f1b693f62ca6a108a1129.html" target="_top" xlink:title="utilities">
<polygon fill="#ffffff" stroke="#ff0000" points="85,-36 31,-36 31,0 85,0 85,-36"/>
<text text-anchor="middle" x="58" y="-15.5" font-family="Helvetica,sans-Serif" font-size="10.00" fill="#000000">utilities</text>
</a>
</g>
</g>
<!-- dir_95f0824bbb59136ffaca881c89040d15&#45;&gt;dir_7b5d38f1875f1b693f62ca6a108a1129 -->
<g id="edge1" class="edge">
<title>dir_95f0824bbb59136ffaca881c89040d15&#45;&gt;dir_7b5d38f1875f1b693f62ca6a108a1129</title>
<path fill="none" stroke="#000000" d="M58,-71.8314C58,-64.131 58,-54.9743 58,-46.4166"/>
<polygon fill="#000000" stroke="#000000" points="61.5001,-46.4132 58,-36.4133 54.5001,-46.4133 61.5001,-46.4132"/>
<g id="a_edge1&#45;headlabel"><a xlink:href="dir_000002_000041.html" target="_top" xlink:title="1">
<text text-anchor="middle" x="64.3393" y="-47.5079" font-family="Helvetica,sans-Serif" font-size="10.00" fill="#000000">1</text>
</a>
</g>
</g>
</g>
</svg>
