<?xml version="1.0" encoding="UTF-8" standalone="no"?>
<!DOCTYPE svg PUBLIC "-//W3C//DTD SVG 1.1//EN"
 "http://www.w3.org/Graphics/SVG/1.1/DTD/svg11.dtd">
<!-- Generated by graphviz version 2.40.1 (20161225.0304)
 -->
<!-- Title: /home/pieter/GitHub/Crypto/src/grid&#45;finder Pages: 1 -->
<svg width="208pt" height="159pt"
 viewBox="0.00 0.00 208.00 159.00" xmlns="http://www.w3.org/2000/svg" xmlns:xlink="http://www.w3.org/1999/xlink">
<g id="graph0" class="graph" transform="scale(1 1) rotate(0) translate(4 155)">
<title>/home/pieter/GitHub/Crypto/src/grid&#45;finder</title>
<polygon fill="#ffffff" stroke="transparent" points="-4,4 -4,-155 204,-155 204,4 -4,4"/>
<g id="clust1" class="cluster">
<title>clusterdir_68267d1309a1af8e8297ef4c3efbcdba</title>
<g id="a_clust1"><a xlink:href="dir_68267d1309a1af8e8297ef4c3efbcdba.html" target="_top" xlink:title="src">
<polygon fill="#ddddee" stroke="#000000" points="20,-56 20,-143 192,-143 192,-56 20,-56"/>
<text text-anchor="middle" x="106" y="-131" font-family="Helvetica,sans-Serif" font-size="10.00" fill="#000000">src</text>
</a>
</g>
</g>
<g id="clust2" class="cluster">
<title>clusterdir_920a55bcfa35c5c1cf06a9da66085a54</title>
<g id="a_clust2"><a xlink:href="dir_920a55bcfa35c5c1cf06a9da66085a54.html" target="_top">
<polygon fill="#eeeeff" stroke="#000000" points="28,-64 28,-116 184,-116 184,-64 28,-64"/>
</a>
</g>
</g>
<!-- dir_920a55bcfa35c5c1cf06a9da66085a54 -->
<g id="node1" class="node">
<title>dir_920a55bcfa35c5c1cf06a9da66085a54</title>
<text text-anchor="middle" x="142" y="-87.5" font-family="Helvetica,sans-Serif" font-size="10.00" fill="#000000">grid&#45;finder</text>
</g>
<!-- dir_afa3d1259580e3936d4bca43dab30921 -->
<g id="node2" class="node">
<title>dir_afa3d1259580e3936d4bca43dab30921</title>
<g id="a_node2"><a xlink:href="dir_afa3d1259580e3936d4bca43dab30921.html" target="_top" xlink:title="include">
<polygon fill="#ffffff" stroke="#000000" points="90,-108 36,-108 36,-72 90,-72 90,-108"/>
<text text-anchor="middle" x="63" y="-87.5" font-family="Helvetica,sans-Serif" font-size="10.00" fill="#000000">include</text>
</a>
</g>
</g>
<!-- dir_40d7732de2983c682bb99d86585a563c -->
<g id="node3" class="node">
<title>dir_40d7732de2983c682bb99d86585a563c</title>
<g id="a_node3"><a xlink:href="dir_40d7732de2983c682bb99d86585a563c.html" target="_top" xlink:title="matrix">
<polygon fill="#ffffff" stroke="#ff0000" points="54,-36 0,-36 0,0 54,0 54,-36"/>
<text text-anchor="middle" x="27" y="-15.5" font-family="Helvetica,sans-Serif" font-size="10.00" fill="#000000">matrix</text>
</a>
</g>
</g>
<!-- dir_afa3d1259580e3936d4bca43dab30921&#45;&gt;dir_40d7732de2983c682bb99d86585a563c -->
<g id="edge1" class="edge">
<title>dir_afa3d1259580e3936d4bca43dab30921&#45;&gt;dir_40d7732de2983c682bb99d86585a563c</title>
<path fill="none" stroke="#000000" d="M53.9157,-71.8314C49.9385,-63.8771 45.1845,-54.369 40.7861,-45.5723"/>
<polygon fill="#000000" stroke="#000000" points="43.8093,-43.7923 36.2066,-36.4133 37.5483,-46.9228 43.8093,-43.7923"/>
<g id="a_edge1&#45;headlabel"><a xlink:href="dir_000011_000018.html" target="_top" xlink:title="2">
<text text-anchor="middle" x="47.9563" y="-43.2377" font-family="Helvetica,sans-Serif" font-size="10.00" fill="#000000">2</text>
</a>
</g>
</g>
<!-- dir_7b5d38f1875f1b693f62ca6a108a1129 -->
<g id="node4" class="node">
<title>dir_7b5d38f1875f1b693f62ca6a108a1129</title>
<g id="a_node4"><a xlink:href="dir_7b5d38f1875f1b693f62ca6a108a1129.html" target="_top" xlink:title="utilities">
<polygon fill="#ffffff" stroke="#ff0000" points="126,-36 72,-36 72,0 126,0 126,-36"/>
<text text-anchor="middle" x="99" y="-15.5" font-family="Helvetica,sans-Serif" font-size="10.00" fill="#000000">utilities</text>
</a>
</g>
</g>
<!-- dir_afa3d1259580e3936d4bca43dab30921&#45;&gt;dir_7b5d38f1875f1b693f62ca6a108a1129 -->
<g id="edge2" class="edge">
<title>dir_afa3d1259580e3936d4bca43dab30921&#45;&gt;dir_7b5d38f1875f1b693f62ca6a108a1129</title>
<path fill="none" stroke="#000000" d="M72.0843,-71.8314C76.0615,-63.8771 80.8155,-54.369 85.2139,-45.5723"/>
<polygon fill="#000000" stroke="#000000" points="88.4517,-46.9228 89.7934,-36.4133 82.1907,-43.7923 88.4517,-46.9228"/>
<g id="a_edge2&#45;headlabel"><a xlink:href="dir_000011_000020.html" target="_top" xlink:title="1">
<text text-anchor="middle" x="89.3837" y="-48.9077" font-family="Helvetica,sans-Serif" font-size="10.00" fill="#000000">1</text>
</a>
</g>
</g>
</g>
</svg>
