<?xml version="1.0" encoding="UTF-8" standalone="no"?>
<!DOCTYPE svg PUBLIC "-//W3C//DTD SVG 1.1//EN"
 "http://www.w3.org/Graphics/SVG/1.1/DTD/svg11.dtd">
<!-- Generated by graphviz version 2.40.1 (20161225.0304)
 -->
<!-- Title: /home/pieter/GitHub/EAGLE&#45;ZYBO&#45;Linux/build/src Pages: 1 -->
<svg width="186pt" height="159pt"
 viewBox="0.00 0.00 186.00 159.00" xmlns="http://www.w3.org/2000/svg" xmlns:xlink="http://www.w3.org/1999/xlink">
<g id="graph0" class="graph" transform="scale(1 1) rotate(0) translate(4 155)">
<title>/home/pieter/GitHub/EAGLE&#45;ZYBO&#45;Linux/build/src</title>
<polygon fill="#ffffff" stroke="transparent" points="-4,4 -4,-155 182,-155 182,4 -4,4"/>
<g id="clust1" class="cluster">
<title>clusterdir_4fef79e7177ba769987a8da36c892c5f</title>
<g id="a_clust1"><a xlink:href="dir_4fef79e7177ba769987a8da36c892c5f.html" target="_top" xlink:title="build">
<polygon fill="#ddddee" stroke="#000000" points="8,-56 8,-143 170,-143 170,-56 8,-56"/>
<text text-anchor="middle" x="89" y="-131" font-family="Helvetica,sans-Serif" font-size="10.00" fill="#000000">build</text>
</a>
</g>
</g>
<g id="clust2" class="cluster">
<title>clusterdir_4e7c8c4fc0d923782da8a23d70a9725b</title>
<g id="a_clust2"><a xlink:href="dir_4e7c8c4fc0d923782da8a23d70a9725b.html" target="_top">
<polygon fill="#eeeeff" stroke="#000000" points="16,-64 16,-116 162,-116 162,-64 16,-64"/>
</a>
</g>
</g>
<!-- dir_4e7c8c4fc0d923782da8a23d70a9725b -->
<g id="node1" class="node">
<title>dir_4e7c8c4fc0d923782da8a23d70a9725b</title>
<text text-anchor="middle" x="127" y="-87.5" font-family="Helvetica,sans-Serif" font-size="10.00" fill="#000000">src</text>
</g>
<!-- dir_d8dd38f9c34bfdb9aec84a8eb3a812fb -->
<g id="node2" class="node">
<title>dir_d8dd38f9c34bfdb9aec84a8eb3a812fb</title>
<g id="a_node2"><a xlink:href="dir_d8dd38f9c34bfdb9aec84a8eb3a812fb.html" target="_top" xlink:title="logentry">
<polygon fill="#ffffff" stroke="#ff0000" points="81.5,-108 24.5,-108 24.5,-72 81.5,-72 81.5,-108"/>
<text text-anchor="middle" x="53" y="-87.5" font-family="Helvetica,sans-Serif" font-size="10.00" fill="#000000">logentry</text>
</a>
</g>
</g>
<!-- dir_68267d1309a1af8e8297ef4c3efbcdba -->
<g id="node3" class="node">
<title>dir_68267d1309a1af8e8297ef4c3efbcdba</title>
<g id="a_node3"><a xlink:href="dir_68267d1309a1af8e8297ef4c3efbcdba.html" target="_top" xlink:title="src">
<polygon fill="#ffffff" stroke="#ff0000" points="80,-36 26,-36 26,0 80,0 80,-36"/>
<text text-anchor="middle" x="53" y="-15.5" font-family="Helvetica,sans-Serif" font-size="10.00" fill="#000000">src</text>
</a>
</g>
</g>
<!-- dir_d8dd38f9c34bfdb9aec84a8eb3a812fb&#45;&gt;dir_68267d1309a1af8e8297ef4c3efbcdba -->
<g id="edge2" class="edge">
<title>dir_d8dd38f9c34bfdb9aec84a8eb3a812fb&#45;&gt;dir_68267d1309a1af8e8297ef4c3efbcdba</title>
<path fill="none" stroke="#000000" d="M47.0476,-71.8314C46.2972,-64.131 46.0763,-54.9743 46.3849,-46.4166"/>
<polygon fill="#000000" stroke="#000000" points="49.8792,-46.6161 47.024,-36.4133 42.8935,-46.1697 49.8792,-46.6161"/>
<g id="a_edge2&#45;headlabel"><a xlink:href="dir_000002_000005.html" target="_top" xlink:title="3">
<text text-anchor="middle" x="52.4836" y="-47.8844" font-family="Helvetica,sans-Serif" font-size="10.00" fill="#000000">3</text>
</a>
</g>
</g>
<!-- dir_68267d1309a1af8e8297ef4c3efbcdba&#45;&gt;dir_d8dd38f9c34bfdb9aec84a8eb3a812fb -->
<g id="edge1" class="edge">
<title>dir_68267d1309a1af8e8297ef4c3efbcdba&#45;&gt;dir_d8dd38f9c34bfdb9aec84a8eb3a812fb</title>
<path fill="none" stroke="#000000" d="M58.976,-36.4133C59.7071,-44.0593 59.9203,-53.1084 59.6155,-61.5726"/>
<polygon fill="#000000" stroke="#000000" points="56.1048,-61.6264 58.9524,-71.8314 63.0902,-62.078 56.1048,-61.6264"/>
<g id="a_edge1&#45;headlabel"><a xlink:href="dir_000005_000002.html" target="_top" xlink:title="3">
<text text-anchor="middle" x="53.5032" y="-55.3562" font-family="Helvetica,sans-Serif" font-size="10.00" fill="#000000">3</text>
</a>
</g>
</g>
</g>
</svg>
