<?xml version="1.0" encoding="UTF-8" standalone="no"?>
<!DOCTYPE svg PUBLIC "-//W3C//DTD SVG 1.1//EN"
 "http://www.w3.org/Graphics/SVG/1.1/DTD/svg11.dtd">
<!-- Generated by graphviz version 2.40.1 (20161225.0304)
 -->
<!-- Title: /home/pieter/GitHub/EAGLE&#45;ZYBO&#45;Linux/build/src/logentry/include&#45;generated Pages: 1 -->
<svg width="146pt" height="151pt"
 viewBox="0.00 0.00 146.00 151.00" xmlns="http://www.w3.org/2000/svg" xmlns:xlink="http://www.w3.org/1999/xlink">
<g id="graph0" class="graph" transform="scale(1 1) rotate(0) translate(4 147)">
<title>/home/pieter/GitHub/EAGLE&#45;ZYBO&#45;Linux/build/src/logentry/include&#45;generated</title>
<polygon fill="#ffffff" stroke="transparent" points="-4,4 -4,-147 142,-147 142,4 -4,4"/>
<g id="clust1" class="cluster">
<title>clusterdir_d8dd38f9c34bfdb9aec84a8eb3a812fb</title>
<g id="a_clust1"><a xlink:href="dir_d8dd38f9c34bfdb9aec84a8eb3a812fb.html" target="_top" xlink:title="logentry">
<polygon fill="#ddddee" stroke="#000000" points="8,-64 8,-135 130,-135 130,-64 8,-64"/>
<text text-anchor="middle" x="69" y="-123" font-family="Helvetica,sans-Serif" font-size="10.00" fill="#000000">logentry</text>
</a>
</g>
</g>
<!-- dir_17f9f329ee1074264f00064b46d69b84 -->
<g id="node1" class="node">
<title>dir_17f9f329ee1074264f00064b46d69b84</title>
<g id="a_node1"><a xlink:href="dir_17f9f329ee1074264f00064b46d69b84.html" target="_top" xlink:title="include&#45;generated">
<polygon fill="#eeeeff" stroke="#000000" points="121.5,-108 16.5,-108 16.5,-72 121.5,-72 121.5,-108"/>
<text text-anchor="middle" x="69" y="-87.5" font-family="Helvetica,sans-Serif" font-size="10.00" fill="#000000">include&#45;generated</text>
</a>
</g>
</g>
<!-- dir_68267d1309a1af8e8297ef4c3efbcdba -->
<g id="node2" class="node">
<title>dir_68267d1309a1af8e8297ef4c3efbcdba</title>
<g id="a_node2"><a xlink:href="dir_68267d1309a1af8e8297ef4c3efbcdba.html" target="_top" xlink:title="src">
<polygon fill="#ffffff" stroke="#ff0000" points="96,-36 42,-36 42,0 96,0 96,-36"/>
<text text-anchor="middle" x="69" y="-15.5" font-family="Helvetica,sans-Serif" font-size="10.00" fill="#000000">src</text>
</a>
</g>
</g>
<!-- dir_17f9f329ee1074264f00064b46d69b84&#45;&gt;dir_68267d1309a1af8e8297ef4c3efbcdba -->
<g id="edge1" class="edge">
<title>dir_17f9f329ee1074264f00064b46d69b84&#45;&gt;dir_68267d1309a1af8e8297ef4c3efbcdba</title>
<path fill="none" stroke="#000000" d="M69,-71.8314C69,-64.131 69,-54.9743 69,-46.4166"/>
<polygon fill="#000000" stroke="#000000" points="72.5001,-46.4132 69,-36.4133 65.5001,-46.4133 72.5001,-46.4132"/>
<g id="a_edge1&#45;headlabel"><a xlink:href="dir_000003_000005.html" target="_top" xlink:title="1">
<text text-anchor="middle" x="75.3393" y="-47.5079" font-family="Helvetica,sans-Serif" font-size="10.00" fill="#000000">1</text>
</a>
</g>
</g>
</g>
</svg>
