<?xml version="1.0" encoding="UTF-8" standalone="no"?>
<!DOCTYPE svg PUBLIC "-//W3C//DTD SVG 1.1//EN"
 "http://www.w3.org/Graphics/SVG/1.1/DTD/svg11.dtd">
<!-- Generated by graphviz version 2.40.1 (20161225.0304)
 -->
<!-- Title: /home/pieter/GitHub/EAGLE&#45;ZYBO&#45;Linux/build/src/logentry/src&#45;generated/DroneLogEntry.Python.cpp Pages: 1 -->
<svg width="525pt" height="397pt"
 viewBox="0.00 0.00 524.50 397.00" xmlns="http://www.w3.org/2000/svg" xmlns:xlink="http://www.w3.org/1999/xlink">
<g id="graph0" class="graph" transform="scale(1 1) rotate(0) translate(4 393)">
<title>/home/pieter/GitHub/EAGLE&#45;ZYBO&#45;Linux/build/src/logentry/src&#45;generated/DroneLogEntry.Python.cpp</title>
<polygon fill="#ffffff" stroke="transparent" points="-4,4 -4,-393 520.5,-393 520.5,4 -4,4"/>
<!-- Node0 -->
<g id="node1" class="node">
<title>Node0</title>
<g id="a_node1"><a xlink:title=" ">
<polygon fill="#bfbfbf" stroke="#000000" points="237,-336.5 237,-388.5 385,-388.5 385,-336.5 237,-336.5"/>
<text text-anchor="start" x="245" y="-376.5" font-family="Helvetica,sans-Serif" font-size="10.00" fill="#000000">/home/pieter/GitHub</text>
<text text-anchor="start" x="245" y="-365.5" font-family="Helvetica,sans-Serif" font-size="10.00" fill="#000000">/EAGLE&#45;ZYBO&#45;Linux/build</text>
<text text-anchor="start" x="245" y="-354.5" font-family="Helvetica,sans-Serif" font-size="10.00" fill="#000000">/src/logentry/src&#45;generated</text>
<text text-anchor="middle" x="311" y="-343.5" font-family="Helvetica,sans-Serif" font-size="10.00" fill="#000000">/DroneLogEntry.Python.cpp</text>
</a>
</g>
</g>
<!-- Node1 -->
<g id="node2" class="node">
<title>Node1</title>
<g id="a_node2"><a xlink:href="LogEntry_8hpp.html" target="_top" xlink:title=" ">
<polygon fill="#ffffff" stroke="#000000" points="157.5,-280.5 157.5,-299.5 236.5,-299.5 236.5,-280.5 157.5,-280.5"/>
<text text-anchor="middle" x="197" y="-287.5" font-family="Helvetica,sans-Serif" font-size="10.00" fill="#000000">LogEntry.hpp</text>
</a>
</g>
</g>
<!-- Node0&#45;&gt;Node1 -->
<g id="edge1" class="edge">
<title>Node0&#45;&gt;Node1</title>
<path fill="none" stroke="#191970" d="M269.8434,-336.3258C253.3111,-325.8119 234.8473,-314.0696 220.6455,-305.0377"/>
<polygon fill="#191970" stroke="#191970" points="222.3078,-301.9471 211.9914,-299.534 218.5513,-307.8538 222.3078,-301.9471"/>
</g>
<!-- Node18 -->
<g id="node19" class="node">
<title>Node18</title>
<g id="a_node19"><a xlink:title=" ">
<polygon fill="#ffffff" stroke="#bfbfbf" points="369.5,-280.5 369.5,-299.5 488.5,-299.5 488.5,-280.5 369.5,-280.5"/>
<text text-anchor="middle" x="429" y="-287.5" font-family="Helvetica,sans-Serif" font-size="10.00" fill="#000000">pybind11/pybind11.h</text>
</a>
</g>
</g>
<!-- Node0&#45;&gt;Node18 -->
<g id="edge20" class="edge">
<title>Node0&#45;&gt;Node18</title>
<path fill="none" stroke="#191970" d="M353.6007,-336.3258C370.876,-325.7118 390.1889,-313.8458 404.9437,-304.7804"/>
<polygon fill="#191970" stroke="#191970" points="406.7945,-307.7511 413.4826,-299.534 403.13,-301.7869 406.7945,-307.7511"/>
</g>
<!-- Node19 -->
<g id="node20" class="node">
<title>Node19</title>
<g id="a_node20"><a xlink:href="PyMatrix_8hpp.html" target="_top" xlink:title=" ">
<polygon fill="#ffffff" stroke="#000000" points="271,-280.5 271,-299.5 351,-299.5 351,-280.5 271,-280.5"/>
<text text-anchor="middle" x="311" y="-287.5" font-family="Helvetica,sans-Serif" font-size="10.00" fill="#000000">PyMatrix.hpp</text>
</a>
</g>
</g>
<!-- Node0&#45;&gt;Node19 -->
<g id="edge21" class="edge">
<title>Node0&#45;&gt;Node19</title>
<path fill="none" stroke="#191970" d="M311,-336.3258C311,-327.5142 311,-317.8397 311,-309.621"/>
<polygon fill="#191970" stroke="#191970" points="314.5001,-309.534 311,-299.534 307.5001,-309.534 314.5001,-309.534"/>
</g>
<!-- Node2 -->
<g id="node3" class="node">
<title>Node2</title>
<g id="a_node3"><a xlink:href="LoggerStructs_8hpp.html" target="_top" xlink:title=" ">
<polygon fill="#ffffff" stroke="#000000" points="114,-224.5 114,-243.5 218,-243.5 218,-224.5 114,-224.5"/>
<text text-anchor="middle" x="166" y="-231.5" font-family="Helvetica,sans-Serif" font-size="10.00" fill="#000000">LoggerStructs.hpp</text>
</a>
</g>
</g>
<!-- Node1&#45;&gt;Node2 -->
<g id="edge2" class="edge">
<title>Node1&#45;&gt;Node2</title>
<path fill="none" stroke="#191970" d="M191.6002,-280.2455C187.3773,-272.617 181.3827,-261.7881 176.2559,-252.5267"/>
<polygon fill="#191970" stroke="#191970" points="179.2432,-250.6965 171.3379,-243.6427 173.119,-254.0867 179.2432,-250.6965"/>
</g>
<!-- Node3 -->
<g id="node4" class="node">
<title>Node3</title>
<g id="a_node4"><a xlink:href="Quaternion_8hpp.html" target="_top" xlink:title=" ">
<polygon fill="#ffffff" stroke="#000000" points="120,-168.5 120,-187.5 212,-187.5 212,-168.5 120,-168.5"/>
<text text-anchor="middle" x="166" y="-175.5" font-family="Helvetica,sans-Serif" font-size="10.00" fill="#000000">Quaternion.hpp</text>
</a>
</g>
</g>
<!-- Node2&#45;&gt;Node3 -->
<g id="edge3" class="edge">
<title>Node2&#45;&gt;Node3</title>
<path fill="none" stroke="#191970" d="M166,-224.2455C166,-216.9382 166,-206.6944 166,-197.7046"/>
<polygon fill="#191970" stroke="#191970" points="169.5001,-197.6426 166,-187.6427 162.5001,-197.6427 169.5001,-197.6426"/>
</g>
<!-- Node4 -->
<g id="node5" class="node">
<title>Node4</title>
<g id="a_node5"><a xlink:href="Matrix_8hpp.html" target="_top" xlink:title=" ">
<polygon fill="#ffffff" stroke="#000000" points="212,-112.5 212,-131.5 280,-131.5 280,-112.5 212,-112.5"/>
<text text-anchor="middle" x="246" y="-119.5" font-family="Helvetica,sans-Serif" font-size="10.00" fill="#000000">Matrix.hpp</text>
</a>
</g>
</g>
<!-- Node3&#45;&gt;Node4 -->
<g id="edge4" class="edge">
<title>Node3&#45;&gt;Node4</title>
<path fill="none" stroke="#191970" d="M179.9349,-168.2455C192.0947,-159.7337 209.9464,-147.2375 224.0285,-137.3801"/>
<polygon fill="#191970" stroke="#191970" points="226.0395,-140.2447 232.2248,-131.6427 222.0253,-134.51 226.0395,-140.2447"/>
</g>
<!-- Node17 -->
<g id="node18" class="node">
<title>Node17</title>
<g id="a_node18"><a xlink:href="Square_8hpp.html" target="_top" xlink:title=" ">
<polygon fill="#ffffff" stroke="#000000" points="122.5,-112.5 122.5,-131.5 193.5,-131.5 193.5,-112.5 122.5,-112.5"/>
<text text-anchor="middle" x="158" y="-119.5" font-family="Helvetica,sans-Serif" font-size="10.00" fill="#000000">Square.hpp</text>
</a>
</g>
</g>
<!-- Node3&#45;&gt;Node17 -->
<g id="edge19" class="edge">
<title>Node3&#45;&gt;Node17</title>
<path fill="none" stroke="#191970" d="M164.6065,-168.2455C163.5626,-160.9382 162.0992,-150.6944 160.8149,-141.7046"/>
<polygon fill="#191970" stroke="#191970" points="164.2566,-141.0472 159.3775,-131.6427 157.327,-142.0372 164.2566,-141.0472"/>
</g>
<!-- Node5 -->
<g id="node6" class="node">
<title>Node5</title>
<g id="a_node6"><a xlink:href="Array_8hpp.html" target="_top" xlink:title=" ">
<polygon fill="#ffffff" stroke="#000000" points="145,-56.5 145,-75.5 207,-75.5 207,-56.5 145,-56.5"/>
<text text-anchor="middle" x="176" y="-63.5" font-family="Helvetica,sans-Serif" font-size="10.00" fill="#000000">Array.hpp</text>
</a>
</g>
</g>
<!-- Node4&#45;&gt;Node5 -->
<g id="edge5" class="edge">
<title>Node4&#45;&gt;Node5</title>
<path fill="none" stroke="#191970" d="M233.8069,-112.2455C223.3679,-103.8943 208.1345,-91.7076 195.926,-81.9408"/>
<polygon fill="#191970" stroke="#191970" points="198.0485,-79.1566 188.0533,-75.6427 193.6756,-84.6227 198.0485,-79.1566"/>
</g>
<!-- Node6 -->
<g id="node7" class="node">
<title>Node6</title>
<g id="a_node7"><a xlink:title=" ">
<polygon fill="#ffffff" stroke="#bfbfbf" points="0,-.5 0,-19.5 64,-19.5 64,-.5 0,-.5"/>
<text text-anchor="middle" x="32" y="-7.5" font-family="Helvetica,sans-Serif" font-size="10.00" fill="#000000">algorithm</text>
</a>
</g>
</g>
<!-- Node4&#45;&gt;Node6 -->
<g id="edge12" class="edge">
<title>Node4&#45;&gt;Node6</title>
<path fill="none" stroke="#191970" d="M211.9224,-112.7201C185.6456,-104.8491 148.8689,-92.2497 119,-76 93.4731,-62.1125 67.3248,-41.1939 50.4508,-26.6428"/>
<polygon fill="#191970" stroke="#191970" points="52.3488,-23.6517 42.5245,-19.6849 47.7308,-28.9124 52.3488,-23.6517"/>
</g>
<!-- Node7 -->
<g id="node8" class="node">
<title>Node7</title>
<g id="a_node8"><a xlink:title=" ">
<polygon fill="#ffffff" stroke="#bfbfbf" points="82.5,-.5 82.5,-19.5 129.5,-19.5 129.5,-.5 82.5,-.5"/>
<text text-anchor="middle" x="106" y="-7.5" font-family="Helvetica,sans-Serif" font-size="10.00" fill="#000000">cmath</text>
</a>
</g>
</g>
<!-- Node4&#45;&gt;Node7 -->
<g id="edge14" class="edge">
<title>Node4&#45;&gt;Node7</title>
<path fill="none" stroke="#191970" d="M211.7797,-114.7235C187.9712,-108.1268 156.8766,-96.2485 136,-76 123.0406,-63.4305 115.1854,-44.2265 110.7831,-29.7687"/>
<polygon fill="#191970" stroke="#191970" points="114.0777,-28.5478 108.0623,-19.8263 107.326,-30.3955 114.0777,-28.5478"/>
</g>
<!-- Node12 -->
<g id="node13" class="node">
<title>Node12</title>
<g id="a_node13"><a xlink:title=" ">
<polygon fill="#ffffff" stroke="#bfbfbf" points="225,-56.5 225,-75.5 267,-75.5 267,-56.5 225,-56.5"/>
<text text-anchor="middle" x="246" y="-63.5" font-family="Helvetica,sans-Serif" font-size="10.00" fill="#000000">array</text>
</a>
</g>
</g>
<!-- Node4&#45;&gt;Node12 -->
<g id="edge13" class="edge">
<title>Node4&#45;&gt;Node12</title>
<path fill="none" stroke="#191970" d="M246,-112.2455C246,-104.9382 246,-94.6944 246,-85.7046"/>
<polygon fill="#191970" stroke="#191970" points="249.5001,-85.6426 246,-75.6427 242.5001,-85.6427 249.5001,-85.6426"/>
</g>
<!-- Node13 -->
<g id="node14" class="node">
<title>Node13</title>
<g id="a_node14"><a xlink:title=" ">
<polygon fill="#ffffff" stroke="#bfbfbf" points="285,-56.5 285,-75.5 341,-75.5 341,-56.5 285,-56.5"/>
<text text-anchor="middle" x="313" y="-63.5" font-family="Helvetica,sans-Serif" font-size="10.00" fill="#000000">iomanip</text>
</a>
</g>
</g>
<!-- Node4&#45;&gt;Node13 -->
<g id="edge15" class="edge">
<title>Node4&#45;&gt;Node13</title>
<path fill="none" stroke="#191970" d="M257.6705,-112.2455C267.5661,-103.9746 281.9627,-91.9416 293.5901,-82.2232"/>
<polygon fill="#191970" stroke="#191970" points="296.035,-84.7413 301.4632,-75.6427 291.5458,-79.3703 296.035,-84.7413"/>
</g>
<!-- Node14 -->
<g id="node15" class="node">
<title>Node14</title>
<g id="a_node15"><a xlink:title=" ">
<polygon fill="#ffffff" stroke="#bfbfbf" points="359.5,-56.5 359.5,-75.5 416.5,-75.5 416.5,-56.5 359.5,-56.5"/>
<text text-anchor="middle" x="388" y="-63.5" font-family="Helvetica,sans-Serif" font-size="10.00" fill="#000000">ostream</text>
</a>
</g>
</g>
<!-- Node4&#45;&gt;Node14 -->
<g id="edge16" class="edge">
<title>Node4&#45;&gt;Node14</title>
<path fill="none" stroke="#191970" d="M270.4107,-112.3733C293.6142,-103.2226 328.7038,-89.3844 354.5142,-79.2057"/>
<polygon fill="#191970" stroke="#191970" points="355.8892,-82.4258 363.9079,-75.5011 353.3211,-75.9139 355.8892,-82.4258"/>
</g>
<!-- Node15 -->
<g id="node16" class="node">
<title>Node15</title>
<g id="a_node16"><a xlink:href="real__t_8h.html" target="_top" xlink:title=" ">
<polygon fill="#ffffff" stroke="#000000" points="448.5,-56.5 448.5,-75.5 501.5,-75.5 501.5,-56.5 448.5,-56.5"/>
<text text-anchor="middle" x="475" y="-63.5" font-family="Helvetica,sans-Serif" font-size="10.00" fill="#000000">real_t.h</text>
</a>
</g>
</g>
<!-- Node4&#45;&gt;Node15 -->
<g id="edge17" class="edge">
<title>Node4&#45;&gt;Node15</title>
<path fill="none" stroke="#191970" d="M280.2836,-113.6162C322.7919,-103.2212 394.9432,-85.5772 438.4671,-74.9338"/>
<polygon fill="#191970" stroke="#191970" points="439.4705,-78.2917 448.3528,-72.5163 437.8076,-71.492 439.4705,-78.2917"/>
</g>
<!-- Node5&#45;&gt;Node6 -->
<g id="edge6" class="edge">
<title>Node5&#45;&gt;Node6</title>
<path fill="none" stroke="#191970" d="M151.2455,-56.3733C127.7151,-47.2226 92.1313,-33.3844 65.9574,-23.2057"/>
<polygon fill="#191970" stroke="#191970" points="67.0201,-19.8636 56.4315,-19.5011 64.4829,-26.3877 67.0201,-19.8636"/>
</g>
<!-- Node5&#45;&gt;Node7 -->
<g id="edge7" class="edge">
<title>Node5&#45;&gt;Node7</title>
<path fill="none" stroke="#191970" d="M163.8069,-56.2455C153.3679,-47.8943 138.1345,-35.7076 125.926,-25.9408"/>
<polygon fill="#191970" stroke="#191970" points="128.0485,-23.1566 118.0533,-19.6427 123.6756,-28.6227 128.0485,-23.1566"/>
</g>
<!-- Node8 -->
<g id="node9" class="node">
<title>Node8</title>
<g id="a_node9"><a xlink:title=" ">
<polygon fill="#ffffff" stroke="#bfbfbf" points="392.5,-.5 392.5,-19.5 445.5,-19.5 445.5,-.5 392.5,-.5"/>
<text text-anchor="middle" x="419" y="-7.5" font-family="Helvetica,sans-Serif" font-size="10.00" fill="#000000">cstddef</text>
</a>
</g>
</g>
<!-- Node5&#45;&gt;Node8 -->
<g id="edge8" class="edge">
<title>Node5&#45;&gt;Node8</title>
<path fill="none" stroke="#191970" d="M207.4186,-58.0386C210.3168,-57.3364 213.2109,-56.6473 216,-56 287.3339,-39.4453 308.2188,-38.5477 382.4687,-20.2723"/>
<polygon fill="#191970" stroke="#191970" points="383.4363,-23.6383 392.2967,-17.8294 381.7477,-16.8451 383.4363,-23.6383"/>
</g>
<!-- Node9 -->
<g id="node10" class="node">
<title>Node9</title>
<g id="a_node10"><a xlink:title=" ">
<polygon fill="#ffffff" stroke="#bfbfbf" points="148,-.5 148,-19.5 204,-19.5 204,-.5 148,-.5"/>
<text text-anchor="middle" x="176" y="-7.5" font-family="Helvetica,sans-Serif" font-size="10.00" fill="#000000">numeric</text>
</a>
</g>
</g>
<!-- Node5&#45;&gt;Node9 -->
<g id="edge9" class="edge">
<title>Node5&#45;&gt;Node9</title>
<path fill="none" stroke="#191970" d="M176,-56.2455C176,-48.9382 176,-38.6944 176,-29.7046"/>
<polygon fill="#191970" stroke="#191970" points="179.5001,-29.6426 176,-19.6427 172.5001,-29.6427 179.5001,-29.6426"/>
</g>
<!-- Node10 -->
<g id="node11" class="node">
<title>Node10</title>
<g id="a_node11"><a xlink:title=" ">
<polygon fill="#ffffff" stroke="#bfbfbf" points="222.5,-.5 222.5,-19.5 291.5,-19.5 291.5,-.5 222.5,-.5"/>
<text text-anchor="middle" x="257" y="-7.5" font-family="Helvetica,sans-Serif" font-size="10.00" fill="#000000">type_traits</text>
</a>
</g>
</g>
<!-- Node5&#45;&gt;Node10 -->
<g id="edge10" class="edge">
<title>Node5&#45;&gt;Node10</title>
<path fill="none" stroke="#191970" d="M190.1091,-56.2455C202.4209,-47.7337 220.4958,-35.2375 234.7538,-25.3801"/>
<polygon fill="#191970" stroke="#191970" points="236.8174,-28.2085 243.0526,-19.6427 232.8366,-22.4506 236.8174,-28.2085"/>
</g>
<!-- Node11 -->
<g id="node12" class="node">
<title>Node11</title>
<g id="a_node12"><a xlink:title=" ">
<polygon fill="#ffffff" stroke="#bfbfbf" points="309.5,-.5 309.5,-19.5 374.5,-19.5 374.5,-.5 309.5,-.5"/>
<text text-anchor="middle" x="342" y="-7.5" font-family="Helvetica,sans-Serif" font-size="10.00" fill="#000000">stdexcept</text>
</a>
</g>
</g>
<!-- Node5&#45;&gt;Node11 -->
<g id="edge11" class="edge">
<title>Node5&#45;&gt;Node11</title>
<path fill="none" stroke="#191970" d="M204.5364,-56.3733C232.0202,-47.1016 273.7686,-33.0178 304.0452,-22.804"/>
<polygon fill="#191970" stroke="#191970" points="305.4794,-26.0141 313.836,-19.5011 303.2418,-19.3813 305.4794,-26.0141"/>
</g>
<!-- Node16 -->
<g id="node17" class="node">
<title>Node16</title>
<g id="a_node17"><a xlink:title=" ">
<polygon fill="#ffffff" stroke="#bfbfbf" points="463.5,-.5 463.5,-19.5 516.5,-19.5 516.5,-.5 463.5,-.5"/>
<text text-anchor="middle" x="490" y="-7.5" font-family="Helvetica,sans-Serif" font-size="10.00" fill="#000000">stdint.h</text>
</a>
</g>
</g>
<!-- Node15&#45;&gt;Node16 -->
<g id="edge18" class="edge">
<title>Node15&#45;&gt;Node16</title>
<path fill="none" stroke="#191970" d="M477.6128,-56.2455C479.5916,-48.8579 482.3744,-38.4689 484.8012,-29.4087"/>
<polygon fill="#191970" stroke="#191970" points="488.2105,-30.2078 487.4171,-19.6427 481.4489,-28.3966 488.2105,-30.2078"/>
</g>
<!-- Node19&#45;&gt;Node4 -->
<g id="edge24" class="edge">
<title>Node19&#45;&gt;Node4</title>
<path fill="none" stroke="#191970" d="M297.3883,-280.3041C286.7611,-271.9491 272.5693,-258.9032 265,-244 248.2486,-211.0183 245.4476,-167.0641 245.4012,-141.918"/>
<polygon fill="#191970" stroke="#191970" points="248.9024,-141.8397 245.5334,-131.7948 241.903,-141.7482 248.9024,-141.8397"/>
</g>
<!-- Node20 -->
<g id="node21" class="node">
<title>Node20</title>
<g id="a_node21"><a xlink:title=" ">
<polygon fill="#ffffff" stroke="#bfbfbf" points="274,-224.5 274,-243.5 380,-243.5 380,-224.5 274,-224.5"/>
<text text-anchor="middle" x="327" y="-231.5" font-family="Helvetica,sans-Serif" font-size="10.00" fill="#000000">pybind11/numpy.h</text>
</a>
</g>
</g>
<!-- Node19&#45;&gt;Node20 -->
<g id="edge22" class="edge">
<title>Node19&#45;&gt;Node20</title>
<path fill="none" stroke="#191970" d="M313.787,-280.2455C315.8977,-272.8579 318.866,-262.4689 321.4547,-253.4087"/>
<polygon fill="#191970" stroke="#191970" points="324.863,-254.2195 324.245,-243.6427 318.1323,-252.2964 324.863,-254.2195"/>
</g>
<!-- Node21 -->
<g id="node22" class="node">
<title>Node21</title>
<g id="a_node22"><a xlink:title=" ">
<polygon fill="#ffffff" stroke="#bfbfbf" points="398,-224.5 398,-243.5 458,-243.5 458,-224.5 398,-224.5"/>
<text text-anchor="middle" x="428" y="-231.5" font-family="Helvetica,sans-Serif" font-size="10.00" fill="#000000">iostream</text>
</a>
</g>
</g>
<!-- Node19&#45;&gt;Node21 -->
<g id="edge23" class="edge">
<title>Node19&#45;&gt;Node21</title>
<path fill="none" stroke="#191970" d="M331.113,-280.3733C349.8103,-271.4241 377.8744,-257.9917 398.9934,-247.8835"/>
<polygon fill="#191970" stroke="#191970" points="400.6405,-250.9755 408.1494,-243.5011 397.6183,-244.6614 400.6405,-250.9755"/>
</g>
</g>
</svg>
