<?xml version="1.0" encoding="UTF-8" standalone="no"?>
<!DOCTYPE svg PUBLIC "-//W3C//DTD SVG 1.1//EN"
 "http://www.w3.org/Graphics/SVG/1.1/DTD/svg11.dtd">
<!-- Generated by graphviz version 2.40.1 (20161225.0304)
 -->
<!-- Title: /home/pieter/GitHub/EAGLE&#45;ZYBO&#45;Linux/src/mask/src/GenerateMask&#45;Unroll.ipp Pages: 1 -->
<svg width="367pt" height="229pt"
 viewBox="0.00 0.00 367.00 229.00" xmlns="http://www.w3.org/2000/svg" xmlns:xlink="http://www.w3.org/1999/xlink">
<g id="graph0" class="graph" transform="scale(1 1) rotate(0) translate(4 225)">
<title>/home/pieter/GitHub/EAGLE&#45;ZYBO&#45;Linux/src/mask/src/GenerateMask&#45;Unroll.ipp</title>
<polygon fill="#ffffff" stroke="transparent" points="-4,4 -4,-225 363,-225 363,4 -4,4"/>
<!-- Node0 -->
<g id="node1" class="node">
<title>Node0</title>
<g id="a_node1"><a xlink:title=" ">
<polygon fill="#bfbfbf" stroke="#000000" points="159.5,-168.5 159.5,-220.5 296.5,-220.5 296.5,-168.5 159.5,-168.5"/>
<text text-anchor="start" x="167.5" y="-208.5" font-family="Helvetica,sans-Serif" font-size="10.00" fill="#000000">/home/pieter/GitHub</text>
<text text-anchor="start" x="167.5" y="-197.5" font-family="Helvetica,sans-Serif" font-size="10.00" fill="#000000">/EAGLE&#45;ZYBO&#45;Linux/src</text>
<text text-anchor="start" x="167.5" y="-186.5" font-family="Helvetica,sans-Serif" font-size="10.00" fill="#000000">/mask/src/GenerateMask</text>
<text text-anchor="middle" x="228" y="-175.5" font-family="Helvetica,sans-Serif" font-size="10.00" fill="#000000">&#45;Unroll.ipp</text>
</a>
</g>
</g>
<!-- Node1 -->
<g id="node2" class="node">
<title>Node1</title>
<g id="a_node2"><a xlink:href="Mask_8hpp.html" target="_top" xlink:title=" ">
<polygon fill="#ffffff" stroke="#000000" points="145.5,-112.5 145.5,-131.5 208.5,-131.5 208.5,-112.5 145.5,-112.5"/>
<text text-anchor="middle" x="177" y="-119.5" font-family="Helvetica,sans-Serif" font-size="10.00" fill="#000000">Mask.hpp</text>
</a>
</g>
</g>
<!-- Node0&#45;&gt;Node1 -->
<g id="edge1" class="edge">
<title>Node0&#45;&gt;Node1</title>
<path fill="none" stroke="#191970" d="M209.5878,-168.3258C202.9666,-158.9134 195.6529,-148.5164 189.6346,-139.961"/>
<polygon fill="#191970" stroke="#191970" points="192.3229,-137.6993 183.7067,-131.534 186.5976,-141.7268 192.3229,-137.6993"/>
</g>
<!-- Node6 -->
<g id="node7" class="node">
<title>Node6</title>
<g id="a_node7"><a xlink:href="Mask-Fallback_8hpp.html" target="_top" xlink:title=" ">
<polygon fill="#ffffff" stroke="#000000" points="236.5,-112.5 236.5,-131.5 343.5,-131.5 343.5,-112.5 236.5,-112.5"/>
<text text-anchor="middle" x="290" y="-119.5" font-family="Helvetica,sans-Serif" font-size="10.00" fill="#000000">Mask&#45;Fallback.hpp</text>
</a>
</g>
</g>
<!-- Node0&#45;&gt;Node6 -->
<g id="edge6" class="edge">
<title>Node0&#45;&gt;Node6</title>
<path fill="none" stroke="#191970" d="M250.3834,-168.3258C258.6896,-158.613 267.8923,-147.8518 275.3359,-139.1476"/>
<polygon fill="#191970" stroke="#191970" points="278.0075,-141.4087 281.8468,-131.534 272.6875,-136.8592 278.0075,-141.4087"/>
</g>
<!-- Node2 -->
<g id="node3" class="node">
<title>Node2</title>
<g id="a_node3"><a xlink:href="Pixel_8hpp.html" target="_top" xlink:title=" ">
<polygon fill="#ffffff" stroke="#000000" points="34,-56.5 34,-75.5 96,-75.5 96,-56.5 34,-56.5"/>
<text text-anchor="middle" x="65" y="-63.5" font-family="Helvetica,sans-Serif" font-size="10.00" fill="#000000">Pixel.hpp</text>
</a>
</g>
</g>
<!-- Node1&#45;&gt;Node2 -->
<g id="edge2" class="edge">
<title>Node1&#45;&gt;Node2</title>
<path fill="none" stroke="#191970" d="M157.7465,-112.3733C139.9288,-103.4644 113.2253,-90.1127 93.0406,-80.0203"/>
<polygon fill="#191970" stroke="#191970" points="94.5118,-76.8428 84.0022,-75.5011 91.3813,-83.1038 94.5118,-76.8428"/>
</g>
<!-- Node5 -->
<g id="node6" class="node">
<title>Node5</title>
<g id="a_node6"><a xlink:title=" ">
<polygon fill="#ffffff" stroke="#bfbfbf" points="114.5,-56.5 114.5,-75.5 239.5,-75.5 239.5,-56.5 114.5,-56.5"/>
<text text-anchor="middle" x="177" y="-63.5" font-family="Helvetica,sans-Serif" font-size="10.00" fill="#000000">opencv2/core/mat.hpp</text>
</a>
</g>
</g>
<!-- Node1&#45;&gt;Node5 -->
<g id="edge5" class="edge">
<title>Node1&#45;&gt;Node5</title>
<path fill="none" stroke="#191970" d="M177,-112.2455C177,-104.9382 177,-94.6944 177,-85.7046"/>
<polygon fill="#191970" stroke="#191970" points="180.5001,-85.6426 177,-75.6427 173.5001,-85.6427 180.5001,-85.6426"/>
</g>
<!-- Node3 -->
<g id="node4" class="node">
<title>Node3</title>
<g id="a_node4"><a xlink:href="uint_8hpp.html" target="_top" xlink:title=" ">
<polygon fill="#ffffff" stroke="#000000" points="0,-.5 0,-19.5 56,-19.5 56,-.5 0,-.5"/>
<text text-anchor="middle" x="28" y="-7.5" font-family="Helvetica,sans-Serif" font-size="10.00" fill="#000000">uint.hpp</text>
</a>
</g>
</g>
<!-- Node2&#45;&gt;Node3 -->
<g id="edge3" class="edge">
<title>Node2&#45;&gt;Node3</title>
<path fill="none" stroke="#191970" d="M58.5551,-56.2455C53.4618,-48.5367 46.2092,-37.5598 40.048,-28.2348"/>
<polygon fill="#191970" stroke="#191970" points="42.8038,-26.0566 34.3711,-19.6427 36.9635,-29.9155 42.8038,-26.0566"/>
</g>
<!-- Node4 -->
<g id="node5" class="node">
<title>Node4</title>
<g id="a_node5"><a xlink:title=" ">
<polygon fill="#ffffff" stroke="#bfbfbf" points="74.5,-.5 74.5,-19.5 131.5,-19.5 131.5,-.5 74.5,-.5"/>
<text text-anchor="middle" x="103" y="-7.5" font-family="Helvetica,sans-Serif" font-size="10.00" fill="#000000">ostream</text>
</a>
</g>
</g>
<!-- Node2&#45;&gt;Node4 -->
<g id="edge4" class="edge">
<title>Node2&#45;&gt;Node4</title>
<path fill="none" stroke="#191970" d="M71.6191,-56.2455C76.9046,-48.4564 84.4541,-37.3308 90.8238,-27.9439"/>
<polygon fill="#191970" stroke="#191970" points="93.7379,-29.8827 96.4568,-19.6427 87.9455,-25.9522 93.7379,-29.8827"/>
</g>
<!-- Node7 -->
<g id="node8" class="node">
<title>Node7</title>
<g id="a_node8"><a xlink:href="Threshold_8hpp.html" target="_top" xlink:title=" ">
<polygon fill="#ffffff" stroke="#000000" points="258,-56.5 258,-75.5 344,-75.5 344,-56.5 258,-56.5"/>
<text text-anchor="middle" x="301" y="-63.5" font-family="Helvetica,sans-Serif" font-size="10.00" fill="#000000">Threshold.hpp</text>
</a>
</g>
</g>
<!-- Node6&#45;&gt;Node7 -->
<g id="edge7" class="edge">
<title>Node6&#45;&gt;Node7</title>
<path fill="none" stroke="#191970" d="M291.9161,-112.2455C293.3514,-104.9382 295.3636,-94.6944 297.1295,-85.7046"/>
<polygon fill="#191970" stroke="#191970" points="300.6127,-86.1298 299.1059,-75.6427 293.744,-84.7805 300.6127,-86.1298"/>
</g>
<!-- Node8 -->
<g id="node9" class="node">
<title>Node8</title>
<g id="a_node9"><a xlink:title=" ">
<polygon fill="#ffffff" stroke="#bfbfbf" points="243.5,-.5 243.5,-19.5 290.5,-19.5 290.5,-.5 243.5,-.5"/>
<text text-anchor="middle" x="267" y="-7.5" font-family="Helvetica,sans-Serif" font-size="10.00" fill="#000000">cmath</text>
</a>
</g>
</g>
<!-- Node7&#45;&gt;Node8 -->
<g id="edge8" class="edge">
<title>Node7&#45;&gt;Node8</title>
<path fill="none" stroke="#191970" d="M295.0777,-56.2455C290.3973,-48.5367 283.7327,-37.5598 278.0711,-28.2348"/>
<polygon fill="#191970" stroke="#191970" points="281.0361,-26.3741 272.8545,-19.6427 275.0525,-30.007 281.0361,-26.3741"/>
</g>
<!-- Node9 -->
<g id="node10" class="node">
<title>Node9</title>
<g id="a_node10"><a xlink:title=" ">
<polygon fill="#ffffff" stroke="#bfbfbf" points="309,-.5 309,-19.5 359,-19.5 359,-.5 309,-.5"/>
<text text-anchor="middle" x="334" y="-7.5" font-family="Helvetica,sans-Serif" font-size="10.00" fill="#000000">cstdint</text>
</a>
</g>
</g>
<!-- Node7&#45;&gt;Node9 -->
<g id="edge9" class="edge">
<title>Node7&#45;&gt;Node9</title>
<path fill="none" stroke="#191970" d="M306.7482,-56.2455C311.2435,-48.617 317.6248,-37.7881 323.0825,-28.5267"/>
<polygon fill="#191970" stroke="#191970" points="326.2561,-30.035 328.3177,-19.6427 320.2253,-26.4811 326.2561,-30.035"/>
</g>
</g>
</svg>
