<?xml version="1.0" encoding="UTF-8" standalone="no"?>
<!DOCTYPE svg PUBLIC "-//W3C//DTD SVG 1.1//EN"
 "http://www.w3.org/Graphics/SVG/1.1/DTD/svg11.dtd">
<!-- Generated by graphviz version 2.40.1 (20161225.0304)
 -->
<!-- Title: /home/pieter/GitHub/EAGLE&#45;ZYBO&#45;Linux/src/grid&#45;finder/include/GridFinder.hpp Pages: 1 -->
<svg width="1034pt" height="330pt"
 viewBox="0.00 0.00 1034.00 330.00" xmlns="http://www.w3.org/2000/svg" xmlns:xlink="http://www.w3.org/1999/xlink">
<g id="graph0" class="graph" transform="scale(1 1) rotate(0) translate(4 326)">
<title>/home/pieter/GitHub/EAGLE&#45;ZYBO&#45;Linux/src/grid&#45;finder/include/GridFinder.hpp</title>
<polygon fill="#ffffff" stroke="transparent" points="-4,4 -4,-326 1030,-326 1030,4 -4,4"/>
<!-- Node0 -->
<g id="node1" class="node">
<title>Node0</title>
<g id="a_node1"><a xlink:title=" ">
<polygon fill="#bfbfbf" stroke="#000000" points="476.5,-280.5 476.5,-321.5 657.5,-321.5 657.5,-280.5 476.5,-280.5"/>
<text text-anchor="start" x="484.5" y="-309.5" font-family="Helvetica,sans-Serif" font-size="10.00" fill="#000000">/home/pieter/GitHub</text>
<text text-anchor="start" x="484.5" y="-298.5" font-family="Helvetica,sans-Serif" font-size="10.00" fill="#000000">/EAGLE&#45;ZYBO&#45;Linux/src</text>
<text text-anchor="middle" x="567" y="-287.5" font-family="Helvetica,sans-Serif" font-size="10.00" fill="#000000">/grid&#45;finder/include/GridFinder.hpp</text>
</a>
</g>
</g>
<!-- Node1 -->
<g id="node2" class="node">
<title>Node1</title>
<g id="a_node2"><a xlink:href="ANSIColors_8hpp.html" target="_top" xlink:title=" ">
<polygon fill="#ffffff" stroke="#000000" points="0,-224.5 0,-243.5 92,-243.5 92,-224.5 0,-224.5"/>
<text text-anchor="middle" x="46" y="-231.5" font-family="Helvetica,sans-Serif" font-size="10.00" fill="#000000">ANSIColors.hpp</text>
</a>
</g>
</g>
<!-- Node0&#45;&gt;Node1 -->
<g id="edge1" class="edge">
<title>Node0&#45;&gt;Node1</title>
<path fill="none" stroke="#191970" d="M476.3139,-290.9298C383.2378,-280.3262 234.2922,-262.6139 106,-244 104.7361,-243.8166 103.4577,-243.6282 102.169,-243.4358"/>
<polygon fill="#191970" stroke="#191970" points="102.5734,-239.9569 92.1572,-241.8942 101.5081,-246.8753 102.5734,-239.9569"/>
</g>
<!-- Node2 -->
<g id="node3" class="node">
<title>Node2</title>
<g id="a_node3"><a xlink:href="Angle_8hpp.html" target="_top" xlink:title=" ">
<polygon fill="#ffffff" stroke="#000000" points="336.5,-112.5 336.5,-131.5 401.5,-131.5 401.5,-112.5 336.5,-112.5"/>
<text text-anchor="middle" x="369" y="-119.5" font-family="Helvetica,sans-Serif" font-size="10.00" fill="#000000">Angle.hpp</text>
</a>
</g>
</g>
<!-- Node0&#45;&gt;Node2 -->
<g id="edge2" class="edge">
<title>Node0&#45;&gt;Node2</title>
<path fill="none" stroke="#191970" d="M508.415,-280.4972C447.357,-257.7085 358.1897,-219.9099 341,-188 332.4775,-172.1794 342.4734,-153.2116 352.8108,-139.6783"/>
<polygon fill="#191970" stroke="#191970" points="355.773,-141.5892 359.4621,-131.6574 350.3846,-137.1209 355.773,-141.5892"/>
</g>
<!-- Node5 -->
<g id="node6" class="node">
<title>Node5</title>
<g id="a_node6"><a xlink:title=" ">
<polygon fill="#ffffff" stroke="#bfbfbf" points="136,-56.5 136,-75.5 180,-75.5 180,-56.5 136,-56.5"/>
<text text-anchor="middle" x="158" y="-63.5" font-family="Helvetica,sans-Serif" font-size="10.00" fill="#000000">limits</text>
</a>
</g>
</g>
<!-- Node0&#45;&gt;Node5 -->
<g id="edge53" class="edge">
<title>Node0&#45;&gt;Node5</title>
<path fill="none" stroke="#191970" d="M476.4063,-297.0085C377.7663,-291.0494 227.9198,-276.7808 182,-244 132.5682,-208.712 144.4623,-124.0821 152.9792,-85.6194"/>
<polygon fill="#191970" stroke="#191970" points="156.4365,-86.2085 155.3404,-75.6706 149.6257,-84.592 156.4365,-86.2085"/>
</g>
<!-- Node8 -->
<g id="node9" class="node">
<title>Node8</title>
<g id="a_node9"><a xlink:href="Bresenham_8hpp.html" target="_top" xlink:title=" ">
<polygon fill="#ffffff" stroke="#000000" points="162.5,-168.5 162.5,-187.5 255.5,-187.5 255.5,-168.5 162.5,-168.5"/>
<text text-anchor="middle" x="209" y="-175.5" font-family="Helvetica,sans-Serif" font-size="10.00" fill="#000000">Bresenham.hpp</text>
</a>
</g>
</g>
<!-- Node0&#45;&gt;Node8 -->
<g id="edge8" class="edge">
<title>Node0&#45;&gt;Node8</title>
<path fill="none" stroke="#191970" d="M476.2568,-293.3993C370.9845,-283.6444 209.4018,-265.4016 191,-244 179.5666,-230.7027 187.3105,-210.7879 195.9132,-196.3131"/>
<polygon fill="#191970" stroke="#191970" points="198.9881,-198.0043 201.4974,-187.7109 193.1168,-194.1928 198.9881,-198.0043"/>
</g>
<!-- Node11 -->
<g id="node12" class="node">
<title>Node11</title>
<g id="a_node12"><a xlink:href="CenterPointOutLineIterator_8hpp.html" target="_top" xlink:title=" ">
<polygon fill="#ffffff" stroke="#000000" points="200.5,-224.5 200.5,-243.5 367.5,-243.5 367.5,-224.5 200.5,-224.5"/>
<text text-anchor="middle" x="284" y="-231.5" font-family="Helvetica,sans-Serif" font-size="10.00" fill="#000000">CenterPointOutLineIterator.hpp</text>
</a>
</g>
</g>
<!-- Node0&#45;&gt;Node11 -->
<g id="edge16" class="edge">
<title>Node0&#45;&gt;Node11</title>
<path fill="none" stroke="#191970" d="M480.1674,-280.4425C432.2362,-269.0948 374.4157,-255.4058 334.0137,-245.8407"/>
<polygon fill="#191970" stroke="#191970" points="334.6713,-242.3997 324.134,-243.5017 333.0586,-249.2114 334.6713,-242.3997"/>
</g>
<!-- Node12 -->
<g id="node13" class="node">
<title>Node12</title>
<g id="a_node13"><a xlink:href="HelperStructs_8hpp.html" target="_top" xlink:title=" ">
<polygon fill="#ffffff" stroke="#000000" points="435,-224.5 435,-243.5 539,-243.5 539,-224.5 435,-224.5"/>
<text text-anchor="middle" x="487" y="-231.5" font-family="Helvetica,sans-Serif" font-size="10.00" fill="#000000">HelperStructs.hpp</text>
</a>
</g>
</g>
<!-- Node0&#45;&gt;Node12 -->
<g id="edge18" class="edge">
<title>Node0&#45;&gt;Node12</title>
<path fill="none" stroke="#191970" d="M542.126,-280.168C530.6892,-270.5897 517.3177,-259.3911 506.6083,-250.422"/>
<polygon fill="#191970" stroke="#191970" points="508.5919,-247.5179 498.6782,-243.7805 504.0974,-252.8845 508.5919,-247.5179"/>
</g>
<!-- Node14 -->
<g id="node15" class="node">
<title>Node14</title>
<g id="a_node15"><a xlink:href="Line_8hpp.html" target="_top" xlink:title=" ">
<polygon fill="#ffffff" stroke="#000000" points="604,-168.5 604,-187.5 662,-187.5 662,-168.5 604,-168.5"/>
<text text-anchor="middle" x="633" y="-175.5" font-family="Helvetica,sans-Serif" font-size="10.00" fill="#000000">Line.hpp</text>
</a>
</g>
</g>
<!-- Node0&#45;&gt;Node14 -->
<g id="edge45" class="edge">
<title>Node0&#45;&gt;Node14</title>
<path fill="none" stroke="#191970" d="M578.0469,-280.4126C590.6415,-256.9408 611.044,-218.918 623.1272,-196.3993"/>
<polygon fill="#191970" stroke="#191970" points="626.2485,-197.9847 627.8927,-187.5182 620.0804,-194.6749 626.2485,-197.9847"/>
</g>
<!-- Node15 -->
<g id="node16" class="node">
<title>Node15</title>
<g id="a_node16"><a xlink:href="Matrix_8hpp.html" target="_top" xlink:title=" ">
<polygon fill="#ffffff" stroke="#000000" points="634,-112.5 634,-131.5 702,-131.5 702,-112.5 634,-112.5"/>
<text text-anchor="middle" x="668" y="-119.5" font-family="Helvetica,sans-Serif" font-size="10.00" fill="#000000">Matrix.hpp</text>
</a>
</g>
</g>
<!-- Node0&#45;&gt;Node15 -->
<g id="edge49" class="edge">
<title>Node0&#45;&gt;Node15</title>
<path fill="none" stroke="#191970" d="M657.54,-289.631C698.1997,-281.4828 745.3777,-267.5919 783,-244 810.772,-226.5849 819.6269,-218.7444 831,-188 834.084,-179.6632 836.3644,-175.0877 831,-168 816.6666,-149.0618 755.5129,-135.7072 712.3386,-128.4308"/>
<polygon fill="#191970" stroke="#191970" points="712.7682,-124.9546 702.335,-126.7982 711.6407,-131.8633 712.7682,-124.9546"/>
</g>
<!-- Node17 -->
<g id="node18" class="node">
<title>Node17</title>
<g id="a_node18"><a xlink:title=" ">
<polygon fill="#ffffff" stroke="#bfbfbf" points="788,-.5 788,-19.5 852,-19.5 852,-.5 788,-.5"/>
<text text-anchor="middle" x="820" y="-7.5" font-family="Helvetica,sans-Serif" font-size="10.00" fill="#000000">algorithm</text>
</a>
</g>
</g>
<!-- Node0&#45;&gt;Node17 -->
<g id="edge50" class="edge">
<title>Node0&#45;&gt;Node17</title>
<path fill="none" stroke="#191970" d="M657.7749,-290.0477C770.4669,-273.8645 948,-238.732 948,-178 948,-178 948,-178 948,-122 948,-91.4754 949.262,-78.8299 929,-56 919.3464,-45.123 887.0201,-32.204 860.0584,-22.8304"/>
<polygon fill="#191970" stroke="#191970" points="861.0142,-19.4586 850.4198,-19.5477 858.7574,-26.0848 861.0142,-19.4586"/>
</g>
<!-- Node25 -->
<g id="node26" class="node">
<title>Node25</title>
<g id="a_node26"><a xlink:title=" ">
<polygon fill="#ffffff" stroke="#bfbfbf" points="788,-112.5 788,-131.5 848,-131.5 848,-112.5 788,-112.5"/>
<text text-anchor="middle" x="818" y="-119.5" font-family="Helvetica,sans-Serif" font-size="10.00" fill="#000000">iostream</text>
</a>
</g>
</g>
<!-- Node0&#45;&gt;Node25 -->
<g id="edge52" class="edge">
<title>Node0&#45;&gt;Node25</title>
<path fill="none" stroke="#191970" d="M657.516,-287.1432C716.2336,-276.7922 786.2524,-261.4619 811,-244 841.5387,-222.4518 857.3738,-203.9071 847,-168 844.1062,-157.9836 838.3122,-148.0485 832.6587,-139.9887"/>
<polygon fill="#191970" stroke="#191970" points="835.3003,-137.6776 826.4977,-131.7814 829.7021,-141.88 835.3003,-137.6776"/>
</g>
<!-- Node26 -->
<g id="node27" class="node">
<title>Node26</title>
<g id="a_node27"><a xlink:title=" ">
<polygon fill="#ffffff" stroke="#bfbfbf" points="530,-168.5 530,-187.5 586,-187.5 586,-168.5 530,-168.5"/>
<text text-anchor="middle" x="558" y="-175.5" font-family="Helvetica,sans-Serif" font-size="10.00" fill="#000000">optional</text>
</a>
</g>
</g>
<!-- Node0&#45;&gt;Node26 -->
<g id="edge54" class="edge">
<title>Node0&#45;&gt;Node26</title>
<path fill="none" stroke="#191970" d="M565.4936,-280.4126C563.807,-257.3618 561.0935,-220.2774 559.436,-197.6259"/>
<polygon fill="#191970" stroke="#191970" points="562.917,-197.2361 558.6965,-187.5182 555.9356,-197.7469 562.917,-197.2361"/>
</g>
<!-- Node28 -->
<g id="node29" class="node">
<title>Node28</title>
<g id="a_node29"><a xlink:href="Mask_8hpp.html" target="_top" xlink:title=" ">
<polygon fill="#ffffff" stroke="#000000" points="711.5,-224.5 711.5,-243.5 774.5,-243.5 774.5,-224.5 711.5,-224.5"/>
<text text-anchor="middle" x="743" y="-231.5" font-family="Helvetica,sans-Serif" font-size="10.00" fill="#000000">Mask.hpp</text>
</a>
</g>
</g>
<!-- Node0&#45;&gt;Node28 -->
<g id="edge46" class="edge">
<title>Node0&#45;&gt;Node28</title>
<path fill="none" stroke="#191970" d="M621.2419,-280.3511C649.5966,-269.557 683.4628,-256.6647 708.2717,-247.2204"/>
<polygon fill="#191970" stroke="#191970" points="709.5381,-250.4835 717.6386,-243.6546 707.0476,-243.9414 709.5381,-250.4835"/>
</g>
<!-- Node30 -->
<g id="node31" class="node">
<title>Node30</title>
<g id="a_node31"><a xlink:title=" ">
<polygon fill="#ffffff" stroke="#bfbfbf" points="976,-224.5 976,-243.5 1026,-243.5 1026,-224.5 976,-224.5"/>
<text text-anchor="middle" x="1001" y="-231.5" font-family="Helvetica,sans-Serif" font-size="10.00" fill="#000000">cstdint</text>
</a>
</g>
</g>
<!-- Node0&#45;&gt;Node30 -->
<g id="edge51" class="edge">
<title>Node0&#45;&gt;Node30</title>
<path fill="none" stroke="#191970" d="M657.6788,-290.7321C738.0468,-280.963 858.3847,-264.6975 962,-244 963.2724,-243.7458 964.5652,-243.476 965.869,-243.194"/>
<polygon fill="#191970" stroke="#191970" points="966.9699,-246.5314 975.916,-240.8554 965.3829,-239.7136 966.9699,-246.5314"/>
</g>
<!-- Node3 -->
<g id="node4" class="node">
<title>Node3</title>
<g id="a_node4"><a xlink:title=" ">
<polygon fill="#ffffff" stroke="#bfbfbf" points="458,-56.5 458,-75.5 500,-75.5 500,-56.5 458,-56.5"/>
<text text-anchor="middle" x="479" y="-63.5" font-family="Helvetica,sans-Serif" font-size="10.00" fill="#000000">array</text>
</a>
</g>
</g>
<!-- Node2&#45;&gt;Node3 -->
<g id="edge3" class="edge">
<title>Node2&#45;&gt;Node3</title>
<path fill="none" stroke="#191970" d="M388.1605,-112.2455C405.5111,-103.4125 431.2901,-90.2887 450.9583,-80.2758"/>
<polygon fill="#191970" stroke="#191970" points="452.7353,-83.2986 460.059,-75.6427 449.5595,-77.0605 452.7353,-83.2986"/>
</g>
<!-- Node4 -->
<g id="node5" class="node">
<title>Node4</title>
<g id="a_node5"><a xlink:title=" ">
<polygon fill="#ffffff" stroke="#bfbfbf" points="406.5,-.5 406.5,-19.5 453.5,-19.5 453.5,-.5 406.5,-.5"/>
<text text-anchor="middle" x="430" y="-7.5" font-family="Helvetica,sans-Serif" font-size="10.00" fill="#000000">cmath</text>
</a>
</g>
</g>
<!-- Node2&#45;&gt;Node4 -->
<g id="edge4" class="edge">
<title>Node2&#45;&gt;Node4</title>
<path fill="none" stroke="#191970" d="M358.1141,-112.2703C344.7351,-99.0949 325.1762,-75.0394 337,-56 349.9032,-35.2224 375.2815,-23.5448 396.2715,-17.1591"/>
<polygon fill="#191970" stroke="#191970" points="397.441,-20.4673 406.1493,-14.4328 395.5785,-13.7196 397.441,-20.4673"/>
</g>
<!-- Node2&#45;&gt;Node5 -->
<g id="edge5" class="edge">
<title>Node2&#45;&gt;Node5</title>
<path fill="none" stroke="#191970" d="M336.4937,-113.3727C296.6151,-102.7888 229.4443,-84.9615 189.8622,-74.4563"/>
<polygon fill="#191970" stroke="#191970" points="190.7521,-71.0714 180.1889,-71.889 188.9564,-77.8372 190.7521,-71.0714"/>
</g>
<!-- Node6 -->
<g id="node7" class="node">
<title>Node6</title>
<g id="a_node7"><a xlink:title=" ">
<polygon fill="#ffffff" stroke="#bfbfbf" points="518.5,-56.5 518.5,-75.5 575.5,-75.5 575.5,-56.5 518.5,-56.5"/>
<text text-anchor="middle" x="547" y="-63.5" font-family="Helvetica,sans-Serif" font-size="10.00" fill="#000000">ostream</text>
</a>
</g>
</g>
<!-- Node2&#45;&gt;Node6 -->
<g id="edge6" class="edge">
<title>Node2&#45;&gt;Node6</title>
<path fill="none" stroke="#191970" d="M399.5993,-112.3733C429.7765,-102.8793 475.9919,-88.3396 508.6153,-78.0761"/>
<polygon fill="#191970" stroke="#191970" points="509.782,-81.3782 518.2707,-75.0384 507.6812,-74.7009 509.782,-81.3782"/>
</g>
<!-- Node7 -->
<g id="node8" class="node">
<title>Node7</title>
<g id="a_node8"><a xlink:href="uint_8hpp.html" target="_top" xlink:title=" ">
<polygon fill="#ffffff" stroke="#000000" points="346,-56.5 346,-75.5 402,-75.5 402,-56.5 346,-56.5"/>
<text text-anchor="middle" x="374" y="-63.5" font-family="Helvetica,sans-Serif" font-size="10.00" fill="#000000">uint.hpp</text>
</a>
</g>
</g>
<!-- Node2&#45;&gt;Node7 -->
<g id="edge7" class="edge">
<title>Node2&#45;&gt;Node7</title>
<path fill="none" stroke="#191970" d="M369.8709,-112.2455C370.5234,-104.9382 371.438,-94.6944 372.2407,-85.7046"/>
<polygon fill="#191970" stroke="#191970" points="375.7358,-85.9143 373.139,-75.6427 368.7635,-85.2918 375.7358,-85.9143"/>
</g>
<!-- Node8&#45;&gt;Node2 -->
<g id="edge9" class="edge">
<title>Node8&#45;&gt;Node2</title>
<path fill="none" stroke="#191970" d="M236.505,-168.3733C262.8802,-159.1419 302.8851,-145.1402 332.0358,-134.9375"/>
<polygon fill="#191970" stroke="#191970" points="333.5716,-138.1082 341.8539,-131.5011 331.2591,-131.5012 333.5716,-138.1082"/>
</g>
<!-- Node8&#45;&gt;Node4 -->
<g id="edge13" class="edge">
<title>Node8&#45;&gt;Node4</title>
<path fill="none" stroke="#191970" d="M217.8212,-168.2471C241.2017,-142.5407 304.6988,-73.6958 330,-56 350.5902,-41.5992 376.4093,-29.8565 396.6544,-21.8405"/>
<polygon fill="#191970" stroke="#191970" points="398.0203,-25.0652 406.0979,-18.2093 395.5079,-18.5315 398.0203,-25.0652"/>
</g>
<!-- Node8&#45;&gt;Node5 -->
<g id="edge14" class="edge">
<title>Node8&#45;&gt;Node5</title>
<path fill="none" stroke="#191970" d="M200.8732,-168.3546C193.7089,-159.4271 183.4362,-145.5288 177,-132 169.9567,-117.1949 164.9982,-99.2537 161.9168,-85.8162"/>
<polygon fill="#191970" stroke="#191970" points="165.2793,-84.8027 159.7655,-75.7557 158.4341,-86.2666 165.2793,-84.8027"/>
</g>
<!-- Node9 -->
<g id="node10" class="node">
<title>Node9</title>
<g id="a_node10"><a xlink:href="Pixel_8hpp.html" target="_top" xlink:title=" ">
<polygon fill="#ffffff" stroke="#000000" points="516,-112.5 516,-131.5 578,-131.5 578,-112.5 516,-112.5"/>
<text text-anchor="middle" x="547" y="-119.5" font-family="Helvetica,sans-Serif" font-size="10.00" fill="#000000">Pixel.hpp</text>
</a>
</g>
</g>
<!-- Node8&#45;&gt;Node9 -->
<g id="edge10" class="edge">
<title>Node8&#45;&gt;Node9</title>
<path fill="none" stroke="#191970" d="M255.6896,-172.1435C312.5441,-164.7131 411.6692,-150.7987 505.6614,-132.1339"/>
<polygon fill="#191970" stroke="#191970" points="506.5037,-135.5348 515.6189,-130.1346 505.1256,-128.6717 506.5037,-135.5348"/>
</g>
<!-- Node10 -->
<g id="node11" class="node">
<title>Node10</title>
<g id="a_node11"><a xlink:title=" ">
<polygon fill="#ffffff" stroke="#bfbfbf" points="186,-112.5 186,-131.5 242,-131.5 242,-112.5 186,-112.5"/>
<text text-anchor="middle" x="214" y="-119.5" font-family="Helvetica,sans-Serif" font-size="10.00" fill="#000000">sstream</text>
</a>
</g>
</g>
<!-- Node8&#45;&gt;Node10 -->
<g id="edge15" class="edge">
<title>Node8&#45;&gt;Node10</title>
<path fill="none" stroke="#191970" d="M209.8709,-168.2455C210.5234,-160.9382 211.438,-150.6944 212.2407,-141.7046"/>
<polygon fill="#191970" stroke="#191970" points="215.7358,-141.9143 213.139,-131.6427 208.7635,-141.2918 215.7358,-141.9143"/>
</g>
<!-- Node9&#45;&gt;Node6 -->
<g id="edge12" class="edge">
<title>Node9&#45;&gt;Node6</title>
<path fill="none" stroke="#191970" d="M547,-112.2455C547,-104.9382 547,-94.6944 547,-85.7046"/>
<polygon fill="#191970" stroke="#191970" points="550.5001,-85.6426 547,-75.6427 543.5001,-85.6427 550.5001,-85.6426"/>
</g>
<!-- Node9&#45;&gt;Node7 -->
<g id="edge11" class="edge">
<title>Node9&#45;&gt;Node7</title>
<path fill="none" stroke="#191970" d="M517.2602,-112.3733C488.1443,-102.9484 443.6669,-88.5511 412.0013,-78.301"/>
<polygon fill="#191970" stroke="#191970" points="412.798,-74.8801 402.2061,-75.1303 410.6422,-81.5399 412.798,-74.8801"/>
</g>
<!-- Node11&#45;&gt;Node7 -->
<g id="edge17" class="edge">
<title>Node11&#45;&gt;Node7</title>
<path fill="none" stroke="#191970" d="M285.8067,-224.4775C290.1921,-203.033 302.8566,-149.8745 327,-112 334.1202,-100.8303 344.4396,-90.3372 353.5962,-82.2014"/>
<polygon fill="#191970" stroke="#191970" points="355.8872,-84.8475 361.2339,-75.7008 351.3502,-79.5169 355.8872,-84.8475"/>
</g>
<!-- Node12&#45;&gt;Node2 -->
<g id="edge19" class="edge">
<title>Node12&#45;&gt;Node2</title>
<path fill="none" stroke="#191970" d="M476.9394,-224.4509C456.823,-205.3574 411.427,-162.2697 386.3906,-138.5063"/>
<polygon fill="#191970" stroke="#191970" points="388.6977,-135.8706 379.0351,-131.5249 383.8787,-140.9478 388.6977,-135.8706"/>
</g>
<!-- Node12&#45;&gt;Node9 -->
<g id="edge42" class="edge">
<title>Node12&#45;&gt;Node9</title>
<path fill="none" stroke="#191970" d="M491.9508,-224.0976C498.4668,-211.1329 510.3448,-187.7347 521,-168 525.8867,-158.9492 531.4805,-149.0023 536.2245,-140.6806"/>
<polygon fill="#191970" stroke="#191970" points="539.3731,-142.2255 541.3099,-131.8091 533.3002,-138.7442 539.3731,-142.2255"/>
</g>
<!-- Node13 -->
<g id="node14" class="node">
<title>Node13</title>
<g id="a_node14"><a xlink:href="Degrees_8hpp.html" target="_top" xlink:title=" ">
<polygon fill="#ffffff" stroke="#000000" points="420,-112.5 420,-131.5 498,-131.5 498,-112.5 420,-112.5"/>
<text text-anchor="middle" x="459" y="-119.5" font-family="Helvetica,sans-Serif" font-size="10.00" fill="#000000">Degrees.hpp</text>
</a>
</g>
</g>
<!-- Node12&#45;&gt;Node13 -->
<g id="edge20" class="edge">
<title>Node12&#45;&gt;Node13</title>
<path fill="none" stroke="#191970" d="M484.6127,-224.4509C480.0253,-206.1013 469.8977,-165.5908 463.8423,-141.3693"/>
<polygon fill="#191970" stroke="#191970" points="467.2022,-140.3774 461.3812,-131.5249 460.4112,-142.0752 467.2022,-140.3774"/>
</g>
<!-- Node12&#45;&gt;Node14 -->
<g id="edge22" class="edge">
<title>Node12&#45;&gt;Node14</title>
<path fill="none" stroke="#191970" d="M512.0983,-224.3733C535.9555,-215.2226 572.0335,-201.3844 598.571,-191.2057"/>
<polygon fill="#191970" stroke="#191970" points="600.1459,-194.3503 608.2292,-187.5011 597.639,-187.8145 600.1459,-194.3503"/>
</g>
<!-- Node12&#45;&gt;Node26 -->
<g id="edge43" class="edge">
<title>Node12&#45;&gt;Node26</title>
<path fill="none" stroke="#191970" d="M499.3673,-224.2455C509.9554,-215.8943 525.4064,-203.7076 537.7893,-193.9408"/>
<polygon fill="#191970" stroke="#191970" points="540.0903,-196.5837 545.7745,-187.6427 535.7553,-191.0875 540.0903,-196.5837"/>
</g>
<!-- Node27 -->
<g id="node28" class="node">
<title>Node27</title>
<g id="a_node28"><a xlink:title=" ">
<polygon fill="#ffffff" stroke="#bfbfbf" points="350.5,-168.5 350.5,-187.5 397.5,-187.5 397.5,-168.5 350.5,-168.5"/>
<text text-anchor="middle" x="374" y="-175.5" font-family="Helvetica,sans-Serif" font-size="10.00" fill="#000000">vector</text>
</a>
</g>
</g>
<!-- Node12&#45;&gt;Node27 -->
<g id="edge44" class="edge">
<title>Node12&#45;&gt;Node27</title>
<path fill="none" stroke="#191970" d="M467.5746,-224.3733C449.5979,-215.4644 422.6559,-202.1127 402.291,-192.0203"/>
<polygon fill="#191970" stroke="#191970" points="403.6861,-188.8055 393.1719,-187.5011 400.5778,-195.0776 403.6861,-188.8055"/>
</g>
<!-- Node13&#45;&gt;Node4 -->
<g id="edge21" class="edge">
<title>Node13&#45;&gt;Node4</title>
<path fill="none" stroke="#191970" d="M456.5275,-112.4509C451.7762,-94.1013 441.2869,-53.5908 435.0153,-29.3693"/>
<polygon fill="#191970" stroke="#191970" points="438.3612,-28.3283 432.4663,-19.5249 431.5847,-30.083 438.3612,-28.3283"/>
</g>
<!-- Node14&#45;&gt;Node2 -->
<g id="edge23" class="edge">
<title>Node14&#45;&gt;Node2</title>
<path fill="none" stroke="#191970" d="M603.5876,-170.0608C600.692,-169.3391 597.7928,-168.64 595,-168 516.7912,-150.0779 494.1031,-149.6601 411.3694,-132.0029"/>
<polygon fill="#191970" stroke="#191970" points="412.0426,-128.5677 401.5297,-129.8826 410.568,-135.4107 412.0426,-128.5677"/>
</g>
<!-- Node14&#45;&gt;Node6 -->
<g id="edge40" class="edge">
<title>Node14&#45;&gt;Node6</title>
<path fill="none" stroke="#191970" d="M626.7591,-168.3718C618.1887,-155.3114 602.1144,-131.3858 587,-112 579.3072,-102.1332 570.1893,-91.5696 562.603,-83.0569"/>
<polygon fill="#191970" stroke="#191970" points="565.1897,-80.6991 555.8953,-75.6134 559.9896,-85.3852 565.1897,-80.6991"/>
</g>
<!-- Node14&#45;&gt;Node9 -->
<g id="edge39" class="edge">
<title>Node14&#45;&gt;Node9</title>
<path fill="none" stroke="#191970" d="M618.0199,-168.2455C604.8249,-159.6534 585.3949,-147.0014 570.1921,-137.1018"/>
<polygon fill="#191970" stroke="#191970" points="572.0983,-134.1665 561.8084,-131.6427 568.2785,-140.0325 572.0983,-134.1665"/>
</g>
<!-- Node14&#45;&gt;Node15 -->
<g id="edge24" class="edge">
<title>Node14&#45;&gt;Node15</title>
<path fill="none" stroke="#191970" d="M639.0965,-168.2455C643.9145,-160.5367 650.7751,-149.5598 656.6032,-140.2348"/>
<polygon fill="#191970" stroke="#191970" points="659.6413,-141.9777 661.9733,-131.6427 653.7053,-138.2677 659.6413,-141.9777"/>
</g>
<!-- Node14&#45;&gt;Node25 -->
<g id="edge41" class="edge">
<title>Node14&#45;&gt;Node25</title>
<path fill="none" stroke="#191970" d="M662.3138,-169.1266C693.5642,-159.6671 743.2453,-144.6284 778.0595,-134.0901"/>
<polygon fill="#191970" stroke="#191970" points="779.3456,-137.3577 787.9027,-131.1105 777.3175,-130.6579 779.3456,-137.3577"/>
</g>
<!-- Node15&#45;&gt;Node3 -->
<g id="edge33" class="edge">
<title>Node15&#45;&gt;Node3</title>
<path fill="none" stroke="#191970" d="M633.7639,-112.5238C603.5008,-104.0524 557.9458,-91.0708 509.9081,-76.205"/>
<polygon fill="#191970" stroke="#191970" points="510.8595,-72.8356 500.2712,-73.2075 508.7804,-79.5197 510.8595,-72.8356"/>
</g>
<!-- Node15&#45;&gt;Node4 -->
<g id="edge34" class="edge">
<title>Node15&#45;&gt;Node4</title>
<path fill="none" stroke="#191970" d="M658.0294,-112.0513C643.1422,-97.7201 613.6654,-71.3107 584,-56 536.5101,-31.4899 518.123,-35.8328 463.5922,-20.3622"/>
<polygon fill="#191970" stroke="#191970" points="464.3339,-16.9322 453.7526,-17.4689 462.3591,-23.6479 464.3339,-16.9322"/>
</g>
<!-- Node15&#45;&gt;Node6 -->
<g id="edge36" class="edge">
<title>Node15&#45;&gt;Node6</title>
<path fill="none" stroke="#191970" d="M647.1994,-112.3733C627.7757,-103.3838 598.5776,-89.8706 576.7036,-79.7471"/>
<polygon fill="#191970" stroke="#191970" points="578.0745,-76.5249 567.5292,-75.5011 575.1344,-82.8776 578.0745,-76.5249"/>
</g>
<!-- Node16 -->
<g id="node17" class="node">
<title>Node16</title>
<g id="a_node17"><a xlink:href="Array_8hpp.html" target="_top" xlink:title=" ">
<polygon fill="#ffffff" stroke="#000000" points="632,-56.5 632,-75.5 694,-75.5 694,-56.5 632,-56.5"/>
<text text-anchor="middle" x="663" y="-63.5" font-family="Helvetica,sans-Serif" font-size="10.00" fill="#000000">Array.hpp</text>
</a>
</g>
</g>
<!-- Node15&#45;&gt;Node16 -->
<g id="edge25" class="edge">
<title>Node15&#45;&gt;Node16</title>
<path fill="none" stroke="#191970" d="M667.1291,-112.2455C666.4766,-104.9382 665.562,-94.6944 664.7593,-85.7046"/>
<polygon fill="#191970" stroke="#191970" points="668.2365,-85.2918 663.861,-75.6427 661.2642,-85.9143 668.2365,-85.2918"/>
</g>
<!-- Node15&#45;&gt;Node17 -->
<g id="edge32" class="edge">
<title>Node15&#45;&gt;Node17</title>
<path fill="none" stroke="#191970" d="M677.3631,-112.3506C690.7457,-98.8443 716.4474,-73.9463 741,-56 757.1285,-44.2112 776.4959,-32.8942 792.0178,-24.4351"/>
<polygon fill="#191970" stroke="#191970" points="793.9594,-27.3657 801.122,-19.5588 790.6543,-21.195 793.9594,-27.3657"/>
</g>
<!-- Node22 -->
<g id="node23" class="node">
<title>Node22</title>
<g id="a_node23"><a xlink:title=" ">
<polygon fill="#ffffff" stroke="#bfbfbf" points="750,-56.5 750,-75.5 806,-75.5 806,-56.5 750,-56.5"/>
<text text-anchor="middle" x="778" y="-63.5" font-family="Helvetica,sans-Serif" font-size="10.00" fill="#000000">iomanip</text>
</a>
</g>
</g>
<!-- Node15&#45;&gt;Node22 -->
<g id="edge35" class="edge">
<title>Node15&#45;&gt;Node22</title>
<path fill="none" stroke="#191970" d="M687.1605,-112.2455C704.5111,-103.4125 730.2901,-90.2887 749.9583,-80.2758"/>
<polygon fill="#191970" stroke="#191970" points="751.7353,-83.2986 759.059,-75.6427 748.5595,-77.0605 751.7353,-83.2986"/>
</g>
<!-- Node23 -->
<g id="node24" class="node">
<title>Node23</title>
<g id="a_node24"><a xlink:href="real__t_8h.html" target="_top" xlink:title=" ">
<polygon fill="#ffffff" stroke="#000000" points="866.5,-56.5 866.5,-75.5 919.5,-75.5 919.5,-56.5 866.5,-56.5"/>
<text text-anchor="middle" x="893" y="-63.5" font-family="Helvetica,sans-Serif" font-size="10.00" fill="#000000">real_t.h</text>
</a>
</g>
</g>
<!-- Node15&#45;&gt;Node23 -->
<g id="edge37" class="edge">
<title>Node15&#45;&gt;Node23</title>
<path fill="none" stroke="#191970" d="M702.1727,-113.4948C743.7398,-103.1492 813.629,-85.7546 856.3047,-75.133"/>
<polygon fill="#191970" stroke="#191970" points="857.4161,-78.4633 866.2747,-72.6516 855.7254,-71.6705 857.4161,-78.4633"/>
</g>
<!-- Node16&#45;&gt;Node4 -->
<g id="edge27" class="edge">
<title>Node16&#45;&gt;Node4</title>
<path fill="none" stroke="#191970" d="M631.8435,-59.0102C584.8756,-48.4543 498.3528,-28.9298 463.4364,-20.1651"/>
<polygon fill="#191970" stroke="#191970" points="464.2644,-16.764 453.7054,-17.6337 462.5021,-23.5386 464.2644,-16.764"/>
</g>
<!-- Node16&#45;&gt;Node17 -->
<g id="edge26" class="edge">
<title>Node16&#45;&gt;Node17</title>
<path fill="none" stroke="#191970" d="M689.9893,-56.3733C715.8699,-47.1419 755.1248,-33.1402 783.7289,-22.9375"/>
<polygon fill="#191970" stroke="#191970" points="785.12,-26.1573 793.3629,-19.5011 782.7683,-19.5642 785.12,-26.1573"/>
</g>
<!-- Node18 -->
<g id="node19" class="node">
<title>Node18</title>
<g id="a_node19"><a xlink:title=" ">
<polygon fill="#ffffff" stroke="#bfbfbf" points="471.5,-.5 471.5,-19.5 524.5,-19.5 524.5,-.5 471.5,-.5"/>
<text text-anchor="middle" x="498" y="-7.5" font-family="Helvetica,sans-Serif" font-size="10.00" fill="#000000">cstddef</text>
</a>
</g>
</g>
<!-- Node16&#45;&gt;Node18 -->
<g id="edge28" class="edge">
<title>Node16&#45;&gt;Node18</title>
<path fill="none" stroke="#191970" d="M634.6355,-56.3733C606.9034,-46.9611 564.5596,-32.5899 534.3662,-22.3425"/>
<polygon fill="#191970" stroke="#191970" points="535.2255,-18.9381 524.6311,-19.0384 532.9757,-25.5667 535.2255,-18.9381"/>
</g>
<!-- Node19 -->
<g id="node20" class="node">
<title>Node19</title>
<g id="a_node20"><a xlink:title=" ">
<polygon fill="#ffffff" stroke="#bfbfbf" points="543,-.5 543,-19.5 599,-19.5 599,-.5 543,-.5"/>
<text text-anchor="middle" x="571" y="-7.5" font-family="Helvetica,sans-Serif" font-size="10.00" fill="#000000">numeric</text>
</a>
</g>
</g>
<!-- Node16&#45;&gt;Node19 -->
<g id="edge29" class="edge">
<title>Node16&#45;&gt;Node19</title>
<path fill="none" stroke="#191970" d="M646.9748,-56.2455C632.8592,-47.6534 612.0737,-35.0014 595.8101,-25.1018"/>
<polygon fill="#191970" stroke="#191970" points="597.2034,-21.8525 586.8415,-19.6427 593.5637,-27.8319 597.2034,-21.8525"/>
</g>
<!-- Node20 -->
<g id="node21" class="node">
<title>Node20</title>
<g id="a_node21"><a xlink:title=" ">
<polygon fill="#ffffff" stroke="#bfbfbf" points="617.5,-.5 617.5,-19.5 686.5,-19.5 686.5,-.5 617.5,-.5"/>
<text text-anchor="middle" x="652" y="-7.5" font-family="Helvetica,sans-Serif" font-size="10.00" fill="#000000">type_traits</text>
</a>
</g>
</g>
<!-- Node16&#45;&gt;Node20 -->
<g id="edge30" class="edge">
<title>Node16&#45;&gt;Node20</title>
<path fill="none" stroke="#191970" d="M661.0839,-56.2455C659.6486,-48.9382 657.6364,-38.6944 655.8705,-29.7046"/>
<polygon fill="#191970" stroke="#191970" points="659.256,-28.7805 653.8941,-19.6427 652.3873,-30.1298 659.256,-28.7805"/>
</g>
<!-- Node21 -->
<g id="node22" class="node">
<title>Node21</title>
<g id="a_node22"><a xlink:title=" ">
<polygon fill="#ffffff" stroke="#bfbfbf" points="704.5,-.5 704.5,-19.5 769.5,-19.5 769.5,-.5 704.5,-.5"/>
<text text-anchor="middle" x="737" y="-7.5" font-family="Helvetica,sans-Serif" font-size="10.00" fill="#000000">stdexcept</text>
</a>
</g>
</g>
<!-- Node16&#45;&gt;Node21 -->
<g id="edge31" class="edge">
<title>Node16&#45;&gt;Node21</title>
<path fill="none" stroke="#191970" d="M675.8898,-56.2455C686.9254,-47.8943 703.0292,-35.7076 715.9353,-25.9408"/>
<polygon fill="#191970" stroke="#191970" points="718.3959,-28.4681 724.2579,-19.6427 714.1717,-22.8862 718.3959,-28.4681"/>
</g>
<!-- Node24 -->
<g id="node25" class="node">
<title>Node24</title>
<g id="a_node25"><a xlink:title=" ">
<polygon fill="#ffffff" stroke="#bfbfbf" points="870.5,-.5 870.5,-19.5 923.5,-19.5 923.5,-.5 870.5,-.5"/>
<text text-anchor="middle" x="897" y="-7.5" font-family="Helvetica,sans-Serif" font-size="10.00" fill="#000000">stdint.h</text>
</a>
</g>
</g>
<!-- Node23&#45;&gt;Node24 -->
<g id="edge38" class="edge">
<title>Node23&#45;&gt;Node24</title>
<path fill="none" stroke="#191970" d="M893.6967,-56.2455C894.2187,-48.9382 894.9504,-38.6944 895.5925,-29.7046"/>
<polygon fill="#191970" stroke="#191970" points="899.0898,-29.8667 896.3112,-19.6427 892.1076,-29.3679 899.0898,-29.8667"/>
</g>
<!-- Node28&#45;&gt;Node9 -->
<g id="edge47" class="edge">
<title>Node28&#45;&gt;Node9</title>
<path fill="none" stroke="#191970" d="M766.9402,-224.4959C794.1886,-212.3215 832.6501,-190.138 814,-168 806.7607,-159.4069 661.5443,-138.0097 588.3821,-127.7132"/>
<polygon fill="#191970" stroke="#191970" points="588.5244,-124.199 578.1355,-126.2774 587.553,-131.1313 588.5244,-124.199"/>
</g>
<!-- Node29 -->
<g id="node30" class="node">
<title>Node29</title>
<g id="a_node30"><a xlink:title=" ">
<polygon fill="#ffffff" stroke="#bfbfbf" points="680.5,-168.5 680.5,-187.5 805.5,-187.5 805.5,-168.5 680.5,-168.5"/>
<text text-anchor="middle" x="743" y="-175.5" font-family="Helvetica,sans-Serif" font-size="10.00" fill="#000000">opencv2/core/mat.hpp</text>
</a>
</g>
</g>
<!-- Node28&#45;&gt;Node29 -->
<g id="edge48" class="edge">
<title>Node28&#45;&gt;Node29</title>
<path fill="none" stroke="#191970" d="M743,-224.2455C743,-216.9382 743,-206.6944 743,-197.7046"/>
<polygon fill="#191970" stroke="#191970" points="746.5001,-197.6426 743,-187.6427 739.5001,-197.6427 746.5001,-197.6426"/>
</g>
</g>
</svg>
