<?xml version="1.0" encoding="UTF-8" standalone="no"?>
<!DOCTYPE svg PUBLIC "-//W3C//DTD SVG 1.1//EN"
 "http://www.w3.org/Graphics/SVG/1.1/DTD/svg11.dtd">
<!-- Generated by graphviz version 2.40.1 (20161225.0304)
 -->
<!-- Title: /home/pieter/GitHub/EAGLE&#45;ZYBO&#45;Linux/src/grid&#45;finder/include/GridFinder.hpp Pages: 1 -->
<svg width="1020pt" height="330pt"
 viewBox="0.00 0.00 1020.00 330.00" xmlns="http://www.w3.org/2000/svg" xmlns:xlink="http://www.w3.org/1999/xlink">
<g id="graph0" class="graph" transform="scale(1 1) rotate(0) translate(4 326)">
<title>/home/pieter/GitHub/EAGLE&#45;ZYBO&#45;Linux/src/grid&#45;finder/include/GridFinder.hpp</title>
<polygon fill="#ffffff" stroke="transparent" points="-4,4 -4,-326 1016,-326 1016,4 -4,4"/>
<!-- Node0 -->
<g id="node1" class="node">
<title>Node0</title>
<g id="a_node1"><a xlink:title=" ">
<polygon fill="#bfbfbf" stroke="#000000" points="545.5,-280.5 545.5,-321.5 726.5,-321.5 726.5,-280.5 545.5,-280.5"/>
<text text-anchor="start" x="553.5" y="-309.5" font-family="Helvetica,sans-Serif" font-size="10.00" fill="#000000">/home/pieter/GitHub</text>
<text text-anchor="start" x="553.5" y="-298.5" font-family="Helvetica,sans-Serif" font-size="10.00" fill="#000000">/EAGLE&#45;ZYBO&#45;Linux/src</text>
<text text-anchor="middle" x="636" y="-287.5" font-family="Helvetica,sans-Serif" font-size="10.00" fill="#000000">/grid&#45;finder/include/GridFinder.hpp</text>
</a>
</g>
</g>
<!-- Node1 -->
<g id="node2" class="node">
<title>Node1</title>
<g id="a_node2"><a xlink:href="ANSIColors_8hpp.html" target="_top" xlink:title=" ">
<polygon fill="#ffffff" stroke="#000000" points="0,-224.5 0,-243.5 92,-243.5 92,-224.5 0,-224.5"/>
<text text-anchor="middle" x="46" y="-231.5" font-family="Helvetica,sans-Serif" font-size="10.00" fill="#000000">ANSIColors.hpp</text>
</a>
</g>
</g>
<!-- Node0&#45;&gt;Node1 -->
<g id="edge1" class="edge">
<title>Node0&#45;&gt;Node1</title>
<path fill="none" stroke="#191970" d="M545.3077,-292.8607C439.6158,-283.0016 259.8069,-265.0699 106,-244 104.7347,-243.8267 103.455,-243.6474 102.1651,-243.4631"/>
<polygon fill="#191970" stroke="#191970" points="102.5538,-239.9824 92.1467,-241.9684 101.5208,-246.9058 102.5538,-239.9824"/>
</g>
<!-- Node2 -->
<g id="node3" class="node">
<title>Node2</title>
<g id="a_node3"><a xlink:href="Angle_8hpp.html" target="_top" xlink:title=" ">
<polygon fill="#ffffff" stroke="#000000" points="298.5,-112.5 298.5,-131.5 363.5,-131.5 363.5,-112.5 298.5,-112.5"/>
<text text-anchor="middle" x="331" y="-119.5" font-family="Helvetica,sans-Serif" font-size="10.00" fill="#000000">Angle.hpp</text>
</a>
</g>
</g>
<!-- Node0&#45;&gt;Node2 -->
<g id="edge2" class="edge">
<title>Node0&#45;&gt;Node2</title>
<path fill="none" stroke="#191970" d="M545.4287,-291.8486C450.2425,-281.298 312.0459,-262.9598 296,-244 270.4057,-213.7577 298.0287,-165.8151 316.7405,-139.9539"/>
<polygon fill="#191970" stroke="#191970" points="319.6665,-141.8866 322.8856,-131.7926 314.0744,-137.676 319.6665,-141.8866"/>
</g>
<!-- Node5 -->
<g id="node6" class="node">
<title>Node5</title>
<g id="a_node6"><a xlink:title=" ">
<polygon fill="#ffffff" stroke="#bfbfbf" points="198,-56.5 198,-75.5 242,-75.5 242,-56.5 198,-56.5"/>
<text text-anchor="middle" x="220" y="-63.5" font-family="Helvetica,sans-Serif" font-size="10.00" fill="#000000">limits</text>
</a>
</g>
</g>
<!-- Node0&#45;&gt;Node5 -->
<g id="edge50" class="edge">
<title>Node0&#45;&gt;Node5</title>
<path fill="none" stroke="#191970" d="M545.1856,-292.8856C442.9415,-282.9533 283.6855,-264.859 227,-244 183.4933,-227.9905 161.3083,-228.6384 139,-188 122.7458,-158.3902 122.0071,-141.1921 139,-112 149.5714,-93.8393 170.2791,-82.2635 188.1098,-75.2665"/>
<polygon fill="#191970" stroke="#191970" points="189.4132,-78.5173 197.6372,-71.8377 187.0428,-71.9309 189.4132,-78.5173"/>
</g>
<!-- Node8 -->
<g id="node9" class="node">
<title>Node8</title>
<g id="a_node9"><a xlink:href="Bresenham_8hpp.html" target="_top" xlink:title=" ">
<polygon fill="#ffffff" stroke="#000000" points="148.5,-168.5 148.5,-187.5 241.5,-187.5 241.5,-168.5 148.5,-168.5"/>
<text text-anchor="middle" x="195" y="-175.5" font-family="Helvetica,sans-Serif" font-size="10.00" fill="#000000">Bresenham.hpp</text>
</a>
</g>
</g>
<!-- Node0&#45;&gt;Node8 -->
<g id="edge8" class="edge">
<title>Node0&#45;&gt;Node8</title>
<path fill="none" stroke="#191970" d="M545.3994,-294.3483C449.3138,-286.0816 304.7896,-269.8248 256,-244 234.9873,-232.8778 217.3776,-211.6132 206.5643,-196.2205"/>
<polygon fill="#191970" stroke="#191970" points="209.2176,-193.8931 200.7401,-187.5383 203.4044,-197.7927 209.2176,-193.8931"/>
</g>
<!-- Node11 -->
<g id="node12" class="node">
<title>Node11</title>
<g id="a_node12"><a xlink:href="CenterPointOutLineIterator_8hpp.html" target="_top" xlink:title=" ">
<polygon fill="#ffffff" stroke="#000000" points="304.5,-224.5 304.5,-243.5 471.5,-243.5 471.5,-224.5 304.5,-224.5"/>
<text text-anchor="middle" x="388" y="-231.5" font-family="Helvetica,sans-Serif" font-size="10.00" fill="#000000">CenterPointOutLineIterator.hpp</text>
</a>
</g>
</g>
<!-- Node0&#45;&gt;Node11 -->
<g id="edge16" class="edge">
<title>Node0&#45;&gt;Node11</title>
<path fill="none" stroke="#191970" d="M559.9064,-280.4425C518.437,-269.239 468.5204,-255.7535 433.1859,-246.2075"/>
<polygon fill="#191970" stroke="#191970" points="433.7372,-242.731 423.1704,-243.5017 431.9114,-249.4887 433.7372,-242.731"/>
</g>
<!-- Node12 -->
<g id="node13" class="node">
<title>Node12</title>
<g id="a_node13"><a xlink:href="HelperStructs_8hpp.html" target="_top" xlink:title=" ">
<polygon fill="#ffffff" stroke="#000000" points="584,-224.5 584,-243.5 688,-243.5 688,-224.5 584,-224.5"/>
<text text-anchor="middle" x="636" y="-231.5" font-family="Helvetica,sans-Serif" font-size="10.00" fill="#000000">HelperStructs.hpp</text>
</a>
</g>
</g>
<!-- Node0&#45;&gt;Node12 -->
<g id="edge18" class="edge">
<title>Node0&#45;&gt;Node12</title>
<path fill="none" stroke="#191970" d="M636,-280.168C636,-271.8226 636,-262.2471 636,-253.9879"/>
<polygon fill="#191970" stroke="#191970" points="639.5001,-253.7804 636,-243.7805 632.5001,-253.7805 639.5001,-253.7804"/>
</g>
<!-- Node14 -->
<g id="node15" class="node">
<title>Node14</title>
<g id="a_node15"><a xlink:href="Line_8hpp.html" target="_top" xlink:title=" ">
<polygon fill="#ffffff" stroke="#000000" points="698,-168.5 698,-187.5 756,-187.5 756,-168.5 698,-168.5"/>
<text text-anchor="middle" x="727" y="-175.5" font-family="Helvetica,sans-Serif" font-size="10.00" fill="#000000">Line.hpp</text>
</a>
</g>
</g>
<!-- Node0&#45;&gt;Node14 -->
<g id="edge42" class="edge">
<title>Node0&#45;&gt;Node14</title>
<path fill="none" stroke="#191970" d="M662.28,-280.4932C673.9777,-270.4146 687.2751,-257.5373 697,-244 707.4162,-229.5004 715.4997,-210.8065 720.6377,-197.0176"/>
<polygon fill="#191970" stroke="#191970" points="723.9408,-198.1748 723.9824,-187.58 717.3429,-195.8364 723.9408,-198.1748"/>
</g>
<!-- Node15 -->
<g id="node16" class="node">
<title>Node15</title>
<g id="a_node16"><a xlink:href="Matrix_8hpp.html" target="_top" xlink:title=" ">
<polygon fill="#ffffff" stroke="#000000" points="711,-112.5 711,-131.5 779,-131.5 779,-112.5 711,-112.5"/>
<text text-anchor="middle" x="745" y="-119.5" font-family="Helvetica,sans-Serif" font-size="10.00" fill="#000000">Matrix.hpp</text>
</a>
</g>
</g>
<!-- Node0&#45;&gt;Node15 -->
<g id="edge46" class="edge">
<title>Node0&#45;&gt;Node15</title>
<path fill="none" stroke="#191970" d="M711.7714,-280.4967C757.5198,-263.7393 812.0299,-234.9559 839,-188 853.7607,-162.3011 819.6989,-144.1962 788.5288,-133.5297"/>
<polygon fill="#191970" stroke="#191970" points="789.597,-130.1968 779.0054,-130.4581 787.4482,-136.8588 789.597,-130.1968"/>
</g>
<!-- Node17 -->
<g id="node18" class="node">
<title>Node17</title>
<g id="a_node18"><a xlink:title=" ">
<polygon fill="#ffffff" stroke="#bfbfbf" points="871,-.5 871,-19.5 935,-19.5 935,-.5 871,-.5"/>
<text text-anchor="middle" x="903" y="-7.5" font-family="Helvetica,sans-Serif" font-size="10.00" fill="#000000">algorithm</text>
</a>
</g>
</g>
<!-- Node0&#45;&gt;Node17 -->
<g id="edge47" class="edge">
<title>Node0&#45;&gt;Node17</title>
<path fill="none" stroke="#191970" d="M726.6236,-281.863C814.2968,-260.6637 934,-223.4056 934,-178 934,-178 934,-178 934,-122 934,-88.3636 920.8523,-51.0368 911.6816,-29.0922"/>
<polygon fill="#191970" stroke="#191970" points="914.7693,-27.4156 907.5742,-19.6387 908.3491,-30.2051 914.7693,-27.4156"/>
</g>
<!-- Node23 -->
<g id="node24" class="node">
<title>Node23</title>
<g id="a_node24"><a xlink:title=" ">
<polygon fill="#ffffff" stroke="#bfbfbf" points="822,-112.5 822,-131.5 882,-131.5 882,-112.5 822,-112.5"/>
<text text-anchor="middle" x="852" y="-119.5" font-family="Helvetica,sans-Serif" font-size="10.00" fill="#000000">iostream</text>
</a>
</g>
</g>
<!-- Node0&#45;&gt;Node23 -->
<g id="edge49" class="edge">
<title>Node0&#45;&gt;Node23</title>
<path fill="none" stroke="#191970" d="M726.7273,-282.6522C755.4034,-274.0217 786.0835,-261.6164 811,-244 836.6226,-225.8844 843.9083,-217.7128 854,-188 859.0692,-173.0749 858.116,-155.1425 856.1473,-141.739"/>
<polygon fill="#191970" stroke="#191970" points="859.5609,-140.9438 854.3648,-131.7107 852.669,-142.1689 859.5609,-140.9438"/>
</g>
<!-- Node24 -->
<g id="node25" class="node">
<title>Node24</title>
<g id="a_node25"><a xlink:title=" ">
<polygon fill="#ffffff" stroke="#bfbfbf" points="774,-168.5 774,-187.5 830,-187.5 830,-168.5 774,-168.5"/>
<text text-anchor="middle" x="802" y="-175.5" font-family="Helvetica,sans-Serif" font-size="10.00" fill="#000000">optional</text>
</a>
</g>
</g>
<!-- Node0&#45;&gt;Node24 -->
<g id="edge51" class="edge">
<title>Node0&#45;&gt;Node24</title>
<path fill="none" stroke="#191970" d="M665.4371,-280.4013C680.63,-269.6755 699.4096,-256.2704 716,-244 738.6785,-227.2268 764.2793,-207.4717 781.6077,-193.9753"/>
<polygon fill="#191970" stroke="#191970" points="784.1267,-196.4491 789.8559,-187.537 779.8195,-190.9311 784.1267,-196.4491"/>
</g>
<!-- Node26 -->
<g id="node27" class="node">
<title>Node26</title>
<g id="a_node27"><a xlink:href="Mask_8hpp.html" target="_top" xlink:title=" ">
<polygon fill="#ffffff" stroke="#000000" points="496.5,-224.5 496.5,-243.5 559.5,-243.5 559.5,-224.5 496.5,-224.5"/>
<text text-anchor="middle" x="528" y="-231.5" font-family="Helvetica,sans-Serif" font-size="10.00" fill="#000000">Mask.hpp</text>
</a>
</g>
</g>
<!-- Node0&#45;&gt;Node26 -->
<g id="edge43" class="edge">
<title>Node0&#45;&gt;Node26</title>
<path fill="none" stroke="#191970" d="M602.7152,-280.3511C586.3936,-270.2256 567.0959,-258.254 552.2016,-249.0139"/>
<polygon fill="#191970" stroke="#191970" points="553.9054,-245.9522 543.5627,-243.6546 550.2152,-251.9005 553.9054,-245.9522"/>
</g>
<!-- Node28 -->
<g id="node29" class="node">
<title>Node28</title>
<g id="a_node29"><a xlink:title=" ">
<polygon fill="#ffffff" stroke="#bfbfbf" points="962,-224.5 962,-243.5 1012,-243.5 1012,-224.5 962,-224.5"/>
<text text-anchor="middle" x="987" y="-231.5" font-family="Helvetica,sans-Serif" font-size="10.00" fill="#000000">cstdint</text>
</a>
</g>
</g>
<!-- Node0&#45;&gt;Node28 -->
<g id="edge48" class="edge">
<title>Node0&#45;&gt;Node28</title>
<path fill="none" stroke="#191970" d="M726.7861,-286.1486C789.2187,-275.5115 873.9106,-260.2454 948,-244 949.2674,-243.7221 950.556,-243.4319 951.8562,-243.1327"/>
<polygon fill="#191970" stroke="#191970" points="952.9849,-246.461 961.8868,-240.7159 951.3451,-239.6558 952.9849,-246.461"/>
</g>
<!-- Node3 -->
<g id="node4" class="node">
<title>Node3</title>
<g id="a_node4"><a xlink:title=" ">
<polygon fill="#ffffff" stroke="#bfbfbf" points="304,-56.5 304,-75.5 346,-75.5 346,-56.5 304,-56.5"/>
<text text-anchor="middle" x="325" y="-63.5" font-family="Helvetica,sans-Serif" font-size="10.00" fill="#000000">array</text>
</a>
</g>
</g>
<!-- Node2&#45;&gt;Node3 -->
<g id="edge3" class="edge">
<title>Node2&#45;&gt;Node3</title>
<path fill="none" stroke="#191970" d="M329.9549,-112.2455C329.172,-104.9382 328.0744,-94.6944 327.1112,-85.7046"/>
<polygon fill="#191970" stroke="#191970" points="330.5786,-85.2129 326.0331,-75.6427 323.6185,-85.9587 330.5786,-85.2129"/>
</g>
<!-- Node4 -->
<g id="node5" class="node">
<title>Node4</title>
<g id="a_node5"><a xlink:title=" ">
<polygon fill="#ffffff" stroke="#bfbfbf" points="502.5,-.5 502.5,-19.5 549.5,-19.5 549.5,-.5 502.5,-.5"/>
<text text-anchor="middle" x="526" y="-7.5" font-family="Helvetica,sans-Serif" font-size="10.00" fill="#000000">cmath</text>
</a>
</g>
</g>
<!-- Node2&#45;&gt;Node4 -->
<g id="edge4" class="edge">
<title>Node2&#45;&gt;Node4</title>
<path fill="none" stroke="#191970" d="M337.8689,-112.071C348.2463,-97.7642 369.2496,-71.385 393,-56 423.8646,-36.0066 464.4118,-23.6219 492.5863,-16.8102"/>
<polygon fill="#191970" stroke="#191970" points="493.4113,-20.2119 502.3658,-14.5491 491.8343,-13.3918 493.4113,-20.2119"/>
</g>
<!-- Node2&#45;&gt;Node5 -->
<g id="edge5" class="edge">
<title>Node2&#45;&gt;Node5</title>
<path fill="none" stroke="#191970" d="M311.9184,-112.3733C294.2598,-103.4644 267.7947,-90.1127 247.7902,-80.0203"/>
<polygon fill="#191970" stroke="#191970" points="249.3372,-76.8806 238.8326,-75.5011 246.1842,-83.1303 249.3372,-76.8806"/>
</g>
<!-- Node6 -->
<g id="node7" class="node">
<title>Node6</title>
<g id="a_node7"><a xlink:title=" ">
<polygon fill="#ffffff" stroke="#bfbfbf" points="507.5,-56.5 507.5,-75.5 564.5,-75.5 564.5,-56.5 507.5,-56.5"/>
<text text-anchor="middle" x="536" y="-63.5" font-family="Helvetica,sans-Serif" font-size="10.00" fill="#000000">ostream</text>
</a>
</g>
</g>
<!-- Node2&#45;&gt;Node6 -->
<g id="edge6" class="edge">
<title>Node2&#45;&gt;Node6</title>
<path fill="none" stroke="#191970" d="M363.9368,-113.0026C400.4046,-103.0407 459.1157,-87.0025 497.6319,-76.481"/>
<polygon fill="#191970" stroke="#191970" points="498.7192,-79.8123 507.4434,-73.8008 496.8745,-73.0598 498.7192,-79.8123"/>
</g>
<!-- Node7 -->
<g id="node8" class="node">
<title>Node7</title>
<g id="a_node8"><a xlink:href="uint_8hpp.html" target="_top" xlink:title=" ">
<polygon fill="#ffffff" stroke="#000000" points="402,-56.5 402,-75.5 458,-75.5 458,-56.5 402,-56.5"/>
<text text-anchor="middle" x="430" y="-63.5" font-family="Helvetica,sans-Serif" font-size="10.00" fill="#000000">uint.hpp</text>
</a>
</g>
</g>
<!-- Node2&#45;&gt;Node7 -->
<g id="edge7" class="edge">
<title>Node2&#45;&gt;Node7</title>
<path fill="none" stroke="#191970" d="M348.2445,-112.2455C363.5761,-103.5731 386.2199,-90.7645 403.7916,-80.825"/>
<polygon fill="#191970" stroke="#191970" points="405.9724,-83.6126 412.9531,-75.6427 402.5259,-77.5198 405.9724,-83.6126"/>
</g>
<!-- Node8&#45;&gt;Node2 -->
<g id="edge9" class="edge">
<title>Node8&#45;&gt;Node2</title>
<path fill="none" stroke="#191970" d="M218.3792,-168.3733C240.5045,-159.2629 273.9134,-145.5062 298.6019,-135.3404"/>
<polygon fill="#191970" stroke="#191970" points="300.0117,-138.5451 307.9258,-131.5011 297.3464,-132.0723 300.0117,-138.5451"/>
</g>
<!-- Node8&#45;&gt;Node4 -->
<g id="edge13" class="edge">
<title>Node8&#45;&gt;Node4</title>
<path fill="none" stroke="#191970" d="M202.3317,-168.3148C223.2779,-140.7536 282.6706,-63.3968 295,-56 327.8599,-36.2863 436.419,-20.7824 492.224,-13.8905"/>
<polygon fill="#191970" stroke="#191970" points="492.8159,-17.3445 502.322,-12.6665 491.9735,-10.3954 492.8159,-17.3445"/>
</g>
<!-- Node8&#45;&gt;Node5 -->
<g id="edge14" class="edge">
<title>Node8&#45;&gt;Node5</title>
<path fill="none" stroke="#191970" d="M199.6423,-168.376C203.8384,-159.2353 209.8287,-144.9969 213,-132 216.7181,-116.7619 218.4613,-99.068 219.2786,-85.8384"/>
<polygon fill="#191970" stroke="#191970" points="222.7898,-85.6954 219.7849,-75.5356 215.7982,-85.3518 222.7898,-85.6954"/>
</g>
<!-- Node9 -->
<g id="node10" class="node">
<title>Node9</title>
<g id="a_node10"><a xlink:href="Pixel_8hpp.html" target="_top" xlink:title=" ">
<polygon fill="#ffffff" stroke="#000000" points="497,-112.5 497,-131.5 559,-131.5 559,-112.5 497,-112.5"/>
<text text-anchor="middle" x="528" y="-119.5" font-family="Helvetica,sans-Serif" font-size="10.00" fill="#000000">Pixel.hpp</text>
</a>
</g>
</g>
<!-- Node8&#45;&gt;Node9 -->
<g id="edge10" class="edge">
<title>Node8&#45;&gt;Node9</title>
<path fill="none" stroke="#191970" d="M241.6529,-170.1545C306.9325,-159.1765 424.4989,-139.4056 486.7434,-128.938"/>
<polygon fill="#191970" stroke="#191970" points="487.325,-132.3895 496.606,-127.2795 486.164,-125.4864 487.325,-132.3895"/>
</g>
<!-- Node10 -->
<g id="node11" class="node">
<title>Node10</title>
<g id="a_node11"><a xlink:title=" ">
<polygon fill="#ffffff" stroke="#bfbfbf" points="148,-112.5 148,-131.5 204,-131.5 204,-112.5 148,-112.5"/>
<text text-anchor="middle" x="176" y="-119.5" font-family="Helvetica,sans-Serif" font-size="10.00" fill="#000000">sstream</text>
</a>
</g>
</g>
<!-- Node8&#45;&gt;Node10 -->
<g id="edge15" class="edge">
<title>Node8&#45;&gt;Node10</title>
<path fill="none" stroke="#191970" d="M191.6905,-168.2455C189.1567,-160.7776 185.5823,-150.2427 182.485,-141.1137"/>
<polygon fill="#191970" stroke="#191970" points="185.7991,-139.9879 179.2716,-131.6427 179.1702,-142.237 185.7991,-139.9879"/>
</g>
<!-- Node9&#45;&gt;Node6 -->
<g id="edge12" class="edge">
<title>Node9&#45;&gt;Node6</title>
<path fill="none" stroke="#191970" d="M529.3935,-112.2455C530.4374,-104.9382 531.9008,-94.6944 533.1851,-85.7046"/>
<polygon fill="#191970" stroke="#191970" points="536.673,-86.0372 534.6225,-75.6427 529.7434,-85.0472 536.673,-86.0372"/>
</g>
<!-- Node9&#45;&gt;Node7 -->
<g id="edge11" class="edge">
<title>Node9&#45;&gt;Node7</title>
<path fill="none" stroke="#191970" d="M510.9297,-112.2455C495.753,-103.5731 473.3379,-90.7645 455.9437,-80.825"/>
<polygon fill="#191970" stroke="#191970" points="457.2936,-77.5653 446.8747,-75.6427 453.8206,-83.643 457.2936,-77.5653"/>
</g>
<!-- Node11&#45;&gt;Node7 -->
<g id="edge17" class="edge">
<title>Node11&#45;&gt;Node7</title>
<path fill="none" stroke="#191970" d="M367.3062,-224.3403C345.4639,-212.6664 315.645,-191.6256 327,-168 338.095,-144.9154 353.4755,-149.6873 372,-132 387.9284,-116.7914 404.338,-97.7453 415.6198,-84.0274"/>
<polygon fill="#191970" stroke="#191970" points="418.6516,-85.8459 422.2366,-75.876 413.2168,-81.4342 418.6516,-85.8459"/>
</g>
<!-- Node12&#45;&gt;Node2 -->
<g id="edge19" class="edge">
<title>Node12&#45;&gt;Node2</title>
<path fill="none" stroke="#191970" d="M613.4875,-224.4706C581.8841,-211.2135 522.4621,-186.7258 471,-168 437.9182,-155.9623 399.9519,-143.5753 371.9098,-134.6923"/>
<polygon fill="#191970" stroke="#191970" points="372.6446,-131.2542 362.055,-131.5853 370.5398,-137.9303 372.6446,-131.2542"/>
</g>
<!-- Node12&#45;&gt;Node9 -->
<g id="edge39" class="edge">
<title>Node12&#45;&gt;Node9</title>
<path fill="none" stroke="#191970" d="M634.8648,-224.4012C632.7752,-210.5059 627.1547,-184.6342 613,-168 600.7285,-153.5788 582.7583,-142.933 566.4984,-135.5365"/>
<polygon fill="#191970" stroke="#191970" points="567.7494,-132.2649 557.1785,-131.553 564.9982,-138.7016 567.7494,-132.2649"/>
</g>
<!-- Node13 -->
<g id="node14" class="node">
<title>Node13</title>
<g id="a_node14"><a xlink:href="Degrees_8hpp.html" target="_top" xlink:title=" ">
<polygon fill="#ffffff" stroke="#000000" points="577,-112.5 577,-131.5 655,-131.5 655,-112.5 577,-112.5"/>
<text text-anchor="middle" x="616" y="-119.5" font-family="Helvetica,sans-Serif" font-size="10.00" fill="#000000">Degrees.hpp</text>
</a>
</g>
</g>
<!-- Node12&#45;&gt;Node13 -->
<g id="edge20" class="edge">
<title>Node12&#45;&gt;Node13</title>
<path fill="none" stroke="#191970" d="M640.0221,-224.4203C644.9059,-211.4148 651.812,-187.5512 646,-168 642.9674,-157.7984 636.8756,-147.7475 630.9691,-139.6555"/>
<polygon fill="#191970" stroke="#191970" points="633.6964,-137.4613 624.7861,-131.7291 628.177,-141.7667 633.6964,-137.4613"/>
</g>
<!-- Node12&#45;&gt;Node14 -->
<g id="edge22" class="edge">
<title>Node12&#45;&gt;Node14</title>
<path fill="none" stroke="#191970" d="M651.851,-224.2455C665.8132,-215.6534 686.3728,-203.0014 702.4596,-193.1018"/>
<polygon fill="#191970" stroke="#191970" points="704.6484,-195.8645 711.3307,-187.6427 700.9797,-189.9029 704.6484,-195.8645"/>
</g>
<!-- Node12&#45;&gt;Node24 -->
<g id="edge40" class="edge">
<title>Node12&#45;&gt;Node24</title>
<path fill="none" stroke="#191970" d="M664.5364,-224.3733C692.0202,-215.1016 733.7686,-201.0178 764.0452,-190.804"/>
<polygon fill="#191970" stroke="#191970" points="765.4794,-194.0141 773.836,-187.5011 763.2418,-187.3813 765.4794,-194.0141"/>
</g>
<!-- Node25 -->
<g id="node26" class="node">
<title>Node25</title>
<g id="a_node26"><a xlink:title=" ">
<polygon fill="#ffffff" stroke="#bfbfbf" points="556.5,-168.5 556.5,-187.5 603.5,-187.5 603.5,-168.5 556.5,-168.5"/>
<text text-anchor="middle" x="580" y="-175.5" font-family="Helvetica,sans-Serif" font-size="10.00" fill="#000000">vector</text>
</a>
</g>
</g>
<!-- Node12&#45;&gt;Node25 -->
<g id="edge41" class="edge">
<title>Node12&#45;&gt;Node25</title>
<path fill="none" stroke="#191970" d="M626.2455,-224.2455C618.1352,-216.1352 606.4075,-204.4075 596.7919,-194.7919"/>
<polygon fill="#191970" stroke="#191970" points="599.1887,-192.2389 589.6427,-187.6427 594.2389,-197.1887 599.1887,-192.2389"/>
</g>
<!-- Node13&#45;&gt;Node4 -->
<g id="edge21" class="edge">
<title>Node13&#45;&gt;Node4</title>
<path fill="none" stroke="#191970" d="M610.6986,-112.1081C603.3233,-98.7489 589.1547,-74.4858 574,-56 565.284,-45.3682 554.2877,-34.6718 545.0199,-26.2724"/>
<polygon fill="#191970" stroke="#191970" points="547.2275,-23.5523 537.4211,-19.5419 542.5862,-28.7924 547.2275,-23.5523"/>
</g>
<!-- Node14&#45;&gt;Node2 -->
<g id="edge23" class="edge">
<title>Node14&#45;&gt;Node2</title>
<path fill="none" stroke="#191970" d="M697.8812,-173.8822C628.9065,-164.1282 455.2752,-139.5743 374.0926,-128.0939"/>
<polygon fill="#191970" stroke="#191970" points="374.1263,-124.5639 363.7347,-126.6291 373.1461,-131.495 374.1263,-124.5639"/>
</g>
<!-- Node14&#45;&gt;Node6 -->
<g id="edge37" class="edge">
<title>Node14&#45;&gt;Node6</title>
<path fill="none" stroke="#191970" d="M719.9584,-168.1146C709.3366,-153.8622 687.8995,-127.55 664,-112 636.4453,-94.0718 601.0065,-82.0391 574.4071,-74.7918"/>
<polygon fill="#191970" stroke="#191970" points="575.2406,-71.3921 564.6803,-72.2462 573.4683,-78.1641 575.2406,-71.3921"/>
</g>
<!-- Node14&#45;&gt;Node9 -->
<g id="edge36" class="edge">
<title>Node14&#45;&gt;Node9</title>
<path fill="none" stroke="#191970" d="M697.6369,-169.737C663.5952,-160.1575 607.2685,-144.3067 568.9399,-133.5208"/>
<polygon fill="#191970" stroke="#191970" points="569.6987,-130.0984 559.1245,-130.7587 567.8025,-136.8367 569.6987,-130.0984"/>
</g>
<!-- Node14&#45;&gt;Node15 -->
<g id="edge24" class="edge">
<title>Node14&#45;&gt;Node15</title>
<path fill="none" stroke="#191970" d="M730.1354,-168.2455C732.51,-160.8579 735.8493,-150.4689 738.7615,-141.4087"/>
<polygon fill="#191970" stroke="#191970" points="742.1725,-142.234 741.9006,-131.6427 735.5083,-140.0919 742.1725,-142.234"/>
</g>
<!-- Node14&#45;&gt;Node23 -->
<g id="edge38" class="edge">
<title>Node14&#45;&gt;Node23</title>
<path fill="none" stroke="#191970" d="M748.4883,-168.3733C768.644,-159.3435 798.988,-145.7494 821.618,-135.6111"/>
<polygon fill="#191970" stroke="#191970" points="823.0971,-138.7838 830.7921,-131.5011 820.2351,-132.3955 823.0971,-138.7838"/>
</g>
<!-- Node15&#45;&gt;Node4 -->
<g id="edge33" class="edge">
<title>Node15&#45;&gt;Node4</title>
<path fill="none" stroke="#191970" d="M726.3282,-112.4509C687.7005,-92.6961 598.8498,-47.2565 553.5877,-24.1088"/>
<polygon fill="#191970" stroke="#191970" points="555.1215,-20.9621 544.6246,-19.5249 551.9342,-27.1943 555.1215,-20.9621"/>
</g>
<!-- Node15&#45;&gt;Node6 -->
<g id="edge35" class="edge">
<title>Node15&#45;&gt;Node6</title>
<path fill="none" stroke="#191970" d="M710.9554,-112.878C673.5003,-102.8422 613.4417,-86.7499 574.3523,-76.2762"/>
<polygon fill="#191970" stroke="#191970" points="575.2148,-72.8839 564.6496,-73.6765 573.4031,-79.6454 575.2148,-72.8839"/>
</g>
<!-- Node16 -->
<g id="node17" class="node">
<title>Node16</title>
<g id="a_node17"><a xlink:href="Array_8hpp.html" target="_top" xlink:title=" ">
<polygon fill="#ffffff" stroke="#000000" points="691,-56.5 691,-75.5 753,-75.5 753,-56.5 691,-56.5"/>
<text text-anchor="middle" x="722" y="-63.5" font-family="Helvetica,sans-Serif" font-size="10.00" fill="#000000">Array.hpp</text>
</a>
</g>
</g>
<!-- Node15&#45;&gt;Node16 -->
<g id="edge25" class="edge">
<title>Node15&#45;&gt;Node16</title>
<path fill="none" stroke="#191970" d="M740.9937,-112.2455C737.9265,-104.7776 733.5997,-94.2427 729.8503,-85.1137"/>
<polygon fill="#191970" stroke="#191970" points="732.9972,-83.5631 725.9604,-75.6427 726.5221,-86.2226 732.9972,-83.5631"/>
</g>
<!-- Node15&#45;&gt;Node17 -->
<g id="edge32" class="edge">
<title>Node15&#45;&gt;Node17</title>
<path fill="none" stroke="#191970" d="M751.0046,-112.288C760.0997,-98.2517 778.5952,-72.206 800,-56 818.7854,-41.7772 842.6635,-30.7629 862.6983,-23.0827"/>
<polygon fill="#191970" stroke="#191970" points="864.0163,-26.327 872.1856,-19.5807 861.5923,-19.7601 864.0163,-26.327"/>
</g>
<!-- Node22 -->
<g id="node23" class="node">
<title>Node22</title>
<g id="a_node23"><a xlink:title=" ">
<polygon fill="#ffffff" stroke="#bfbfbf" points="809,-56.5 809,-75.5 865,-75.5 865,-56.5 809,-56.5"/>
<text text-anchor="middle" x="837" y="-63.5" font-family="Helvetica,sans-Serif" font-size="10.00" fill="#000000">iomanip</text>
</a>
</g>
</g>
<!-- Node15&#45;&gt;Node22 -->
<g id="edge34" class="edge">
<title>Node15&#45;&gt;Node22</title>
<path fill="none" stroke="#191970" d="M761.0252,-112.2455C775.1408,-103.6534 795.9263,-91.0014 812.1899,-81.1018"/>
<polygon fill="#191970" stroke="#191970" points="814.4363,-83.8319 821.1585,-75.6427 810.7966,-77.8525 814.4363,-83.8319"/>
</g>
<!-- Node16&#45;&gt;Node4 -->
<g id="edge27" class="edge">
<title>Node16&#45;&gt;Node4</title>
<path fill="none" stroke="#191970" d="M690.7008,-57.3591C659.7725,-48.7782 610.8741,-35.0991 559.412,-20.083"/>
<polygon fill="#191970" stroke="#191970" points="560.3573,-16.7129 549.7768,-17.2645 558.3919,-23.4313 560.3573,-16.7129"/>
</g>
<!-- Node16&#45;&gt;Node17 -->
<g id="edge26" class="edge">
<title>Node16&#45;&gt;Node17</title>
<path fill="none" stroke="#191970" d="M753.115,-56.3733C783.3429,-47.021 829.396,-32.7725 862.4739,-22.5385"/>
<polygon fill="#191970" stroke="#191970" points="863.7723,-25.8005 872.291,-19.5011 861.7033,-19.1133 863.7723,-25.8005"/>
</g>
<!-- Node18 -->
<g id="node19" class="node">
<title>Node18</title>
<g id="a_node19"><a xlink:title=" ">
<polygon fill="#ffffff" stroke="#bfbfbf" points="725.5,-.5 725.5,-19.5 778.5,-19.5 778.5,-.5 725.5,-.5"/>
<text text-anchor="middle" x="752" y="-7.5" font-family="Helvetica,sans-Serif" font-size="10.00" fill="#000000">cstddef</text>
</a>
</g>
</g>
<!-- Node16&#45;&gt;Node18 -->
<g id="edge28" class="edge">
<title>Node16&#45;&gt;Node18</title>
<path fill="none" stroke="#191970" d="M727.2256,-56.2455C731.3123,-48.617 737.1135,-37.7881 742.075,-28.5267"/>
<polygon fill="#191970" stroke="#191970" points="745.1972,-30.1103 746.8343,-19.6427 739.0268,-26.8047 745.1972,-30.1103"/>
</g>
<!-- Node19 -->
<g id="node20" class="node">
<title>Node19</title>
<g id="a_node20"><a xlink:title=" ">
<polygon fill="#ffffff" stroke="#bfbfbf" points="797,-.5 797,-19.5 853,-19.5 853,-.5 797,-.5"/>
<text text-anchor="middle" x="825" y="-7.5" font-family="Helvetica,sans-Serif" font-size="10.00" fill="#000000">numeric</text>
</a>
</g>
</g>
<!-- Node16&#45;&gt;Node19 -->
<g id="edge29" class="edge">
<title>Node16&#45;&gt;Node19</title>
<path fill="none" stroke="#191970" d="M739.9412,-56.2455C756.04,-47.4928 779.8879,-34.527 798.2391,-24.5496"/>
<polygon fill="#191970" stroke="#191970" points="800.1507,-27.4942 807.2644,-19.6427 796.8071,-21.3444 800.1507,-27.4942"/>
</g>
<!-- Node20 -->
<g id="node21" class="node">
<title>Node20</title>
<g id="a_node21"><a xlink:title=" ">
<polygon fill="#ffffff" stroke="#bfbfbf" points="567.5,-.5 567.5,-19.5 636.5,-19.5 636.5,-.5 567.5,-.5"/>
<text text-anchor="middle" x="602" y="-7.5" font-family="Helvetica,sans-Serif" font-size="10.00" fill="#000000">type_traits</text>
</a>
</g>
</g>
<!-- Node16&#45;&gt;Node20 -->
<g id="edge30" class="edge">
<title>Node16&#45;&gt;Node20</title>
<path fill="none" stroke="#191970" d="M701.3713,-56.3733C682.1081,-47.3838 653.1514,-33.8706 631.4581,-23.7471"/>
<polygon fill="#191970" stroke="#191970" points="632.9015,-20.5584 622.3595,-19.5011 629.9413,-26.9017 632.9015,-20.5584"/>
</g>
<!-- Node21 -->
<g id="node22" class="node">
<title>Node21</title>
<g id="a_node22"><a xlink:title=" ">
<polygon fill="#ffffff" stroke="#bfbfbf" points="655,-.5 655,-19.5 707,-19.5 707,-.5 655,-.5"/>
<text text-anchor="middle" x="681" y="-7.5" font-family="Helvetica,sans-Serif" font-size="10.00" fill="#000000">cassert</text>
</a>
</g>
</g>
<!-- Node16&#45;&gt;Node21 -->
<g id="edge31" class="edge">
<title>Node16&#45;&gt;Node21</title>
<path fill="none" stroke="#191970" d="M714.8583,-56.2455C709.1556,-48.4564 701.01,-37.3308 694.1375,-27.9439"/>
<polygon fill="#191970" stroke="#191970" points="696.7913,-25.6437 688.0598,-19.6427 691.1432,-29.7789 696.7913,-25.6437"/>
</g>
<!-- Node26&#45;&gt;Node9 -->
<g id="edge44" class="edge">
<title>Node26&#45;&gt;Node9</title>
<path fill="none" stroke="#191970" d="M528,-224.4509C528,-206.184 528,-165.9553 528,-141.6976"/>
<polygon fill="#191970" stroke="#191970" points="531.5001,-141.5249 528,-131.5249 524.5001,-141.5249 531.5001,-141.5249"/>
</g>
<!-- Node27 -->
<g id="node28" class="node">
<title>Node27</title>
<g id="a_node28"><a xlink:title=" ">
<polygon fill="#ffffff" stroke="#bfbfbf" points="336.5,-168.5 336.5,-187.5 461.5,-187.5 461.5,-168.5 336.5,-168.5"/>
<text text-anchor="middle" x="399" y="-175.5" font-family="Helvetica,sans-Serif" font-size="10.00" fill="#000000">opencv2/core/mat.hpp</text>
</a>
</g>
</g>
<!-- Node26&#45;&gt;Node27 -->
<g id="edge45" class="edge">
<title>Node26&#45;&gt;Node27</title>
<path fill="none" stroke="#191970" d="M505.8241,-224.3733C485.0234,-215.3435 453.7083,-201.7494 430.3542,-191.6111"/>
<polygon fill="#191970" stroke="#191970" points="431.4532,-188.2727 420.8865,-187.5011 428.6657,-194.6938 431.4532,-188.2727"/>
</g>
</g>
</svg>
