<?xml version="1.0" encoding="UTF-8" standalone="no"?>
<!DOCTYPE svg PUBLIC "-//W3C//DTD SVG 1.1//EN"
 "http://www.w3.org/Graphics/SVG/1.1/DTD/svg11.dtd">
<!-- Generated by graphviz version 2.40.1 (20161225.0304)
 -->
<!-- Title: /home/pieter/GitHub/EAGLE&#45;ZYBO&#45;Linux/src/py&#45;grid&#45;finder/src/Grid&#45;Finder.module.cpp Pages: 1 -->
<svg width="1229pt" height="453pt"
 viewBox="0.00 0.00 1229.09 453.00" xmlns="http://www.w3.org/2000/svg" xmlns:xlink="http://www.w3.org/1999/xlink">
<g id="graph0" class="graph" transform="scale(1 1) rotate(0) translate(4 449)">
<title>/home/pieter/GitHub/EAGLE&#45;ZYBO&#45;Linux/src/py&#45;grid&#45;finder/src/Grid&#45;Finder.module.cpp</title>
<polygon fill="#ffffff" stroke="transparent" points="-4,4 -4,-449 1225.0862,-449 1225.0862,4 -4,4"/>
<!-- Node0 -->
<g id="node1" class="node">
<title>Node0</title>
<g id="a_node1"><a xlink:title=" ">
<polygon fill="#bfbfbf" stroke="#000000" points="288.5862,-392.5 288.5862,-444.5 417.5862,-444.5 417.5862,-392.5 288.5862,-392.5"/>
<text text-anchor="start" x="296.5862" y="-432.5" font-family="Helvetica,sans-Serif" font-size="10.00" fill="#000000">/home/pieter/GitHub</text>
<text text-anchor="start" x="296.5862" y="-421.5" font-family="Helvetica,sans-Serif" font-size="10.00" fill="#000000">/EAGLE&#45;ZYBO&#45;Linux/src</text>
<text text-anchor="start" x="296.5862" y="-410.5" font-family="Helvetica,sans-Serif" font-size="10.00" fill="#000000">/py&#45;grid&#45;finder/src/Grid</text>
<text text-anchor="middle" x="353.0862" y="-399.5" font-family="Helvetica,sans-Serif" font-size="10.00" fill="#000000">&#45;Finder.module.cpp</text>
</a>
</g>
</g>
<!-- Node1 -->
<g id="node2" class="node">
<title>Node1</title>
<g id="a_node2"><a xlink:href="Grid-Finder_8module_8hpp.html" target="_top" xlink:title=" ">
<polygon fill="#ffffff" stroke="#000000" points="288.0862,-336.5 288.0862,-355.5 418.0862,-355.5 418.0862,-336.5 288.0862,-336.5"/>
<text text-anchor="middle" x="353.0862" y="-343.5" font-family="Helvetica,sans-Serif" font-size="10.00" fill="#000000">Grid&#45;Finder.module.hpp</text>
</a>
</g>
</g>
<!-- Node0&#45;&gt;Node1 -->
<g id="edge1" class="edge">
<title>Node0&#45;&gt;Node1</title>
<path fill="none" stroke="#191970" d="M353.0862,-392.3258C353.0862,-383.5142 353.0862,-373.8397 353.0862,-365.621"/>
<polygon fill="#191970" stroke="#191970" points="356.5863,-365.534 353.0862,-355.534 349.5863,-365.534 356.5863,-365.534"/>
</g>
<!-- Node2 -->
<g id="node3" class="node">
<title>Node2</title>
<g id="a_node3"><a xlink:href="AngleTracker_8hpp.html" target="_top" xlink:title=" ">
<polygon fill="#ffffff" stroke="#000000" points="13.0862,-224.5 13.0862,-243.5 113.0862,-243.5 113.0862,-224.5 13.0862,-224.5"/>
<text text-anchor="middle" x="63.0862" y="-231.5" font-family="Helvetica,sans-Serif" font-size="10.00" fill="#000000">AngleTracker.hpp</text>
</a>
</g>
</g>
<!-- Node1&#45;&gt;Node2 -->
<g id="edge2" class="edge">
<title>Node1&#45;&gt;Node2</title>
<path fill="none" stroke="#191970" d="M302.9206,-336.4999C267.3022,-328.8745 218.7796,-316.6811 178.0862,-300 144.2024,-286.1103 108.0224,-263.9968 85.4845,-249.2439"/>
<polygon fill="#191970" stroke="#191970" points="87.2551,-246.2184 76.9874,-243.606 83.3849,-252.0513 87.2551,-246.2184"/>
</g>
<!-- Node10 -->
<g id="node11" class="node">
<title>Node10</title>
<g id="a_node11"><a xlink:href="GridFinder_8hpp.html" target="_top" xlink:title=" ">
<polygon fill="#ffffff" stroke="#000000" points="677.0862,-280.5 677.0862,-299.5 763.0862,-299.5 763.0862,-280.5 677.0862,-280.5"/>
<text text-anchor="middle" x="720.0862" y="-287.5" font-family="Helvetica,sans-Serif" font-size="10.00" fill="#000000">GridFinder.hpp</text>
</a>
</g>
</g>
<!-- Node1&#45;&gt;Node10 -->
<g id="edge11" class="edge">
<title>Node1&#45;&gt;Node10</title>
<path fill="none" stroke="#191970" d="M415.7587,-336.4369C486.3975,-325.6582 600.0392,-308.3178 666.643,-298.1548"/>
<polygon fill="#191970" stroke="#191970" points="667.5572,-301.5559 676.9148,-296.5875 666.5013,-294.636 667.5572,-301.5559"/>
</g>
<!-- Node14 -->
<g id="node15" class="node">
<title>Node14</title>
<g id="a_node15"><a xlink:title=" ">
<polygon fill="#ffffff" stroke="#bfbfbf" points="947.0862,-112.5 947.0862,-131.5 1003.0862,-131.5 1003.0862,-112.5 947.0862,-112.5"/>
<text text-anchor="middle" x="975.0862" y="-119.5" font-family="Helvetica,sans-Serif" font-size="10.00" fill="#000000">sstream</text>
</a>
</g>
</g>
<!-- Node1&#45;&gt;Node14 -->
<g id="edge67" class="edge">
<title>Node1&#45;&gt;Node14</title>
<path fill="none" stroke="#191970" d="M418.1853,-340.5236C575.7256,-326.6232 967.4419,-287.9439 1006.0862,-244 1028.4616,-218.5561 1023.3439,-199.958 1012.0862,-168 1008.2553,-157.125 1000.646,-146.9246 993.319,-138.9061"/>
<polygon fill="#191970" stroke="#191970" points="995.7328,-136.3686 986.2364,-131.6707 990.7305,-141.2652 995.7328,-136.3686"/>
</g>
<!-- Node17 -->
<g id="node18" class="node">
<title>Node17</title>
<g id="a_node18"><a xlink:href="Line_8hpp.html" target="_top" xlink:title=" ">
<polygon fill="#ffffff" stroke="#000000" points="321.0862,-168.5 321.0862,-187.5 379.0862,-187.5 379.0862,-168.5 321.0862,-168.5"/>
<text text-anchor="middle" x="350.0862" y="-175.5" font-family="Helvetica,sans-Serif" font-size="10.00" fill="#000000">Line.hpp</text>
</a>
</g>
</g>
<!-- Node1&#45;&gt;Node17 -->
<g id="edge57" class="edge">
<title>Node1&#45;&gt;Node17</title>
<path fill="none" stroke="#191970" d="M352.9163,-336.4862C352.4421,-309.9293 351.0963,-234.5651 350.4463,-198.1655"/>
<polygon fill="#191970" stroke="#191970" points="353.9398,-197.7638 350.2617,-187.8279 346.9409,-197.8888 353.9398,-197.7638"/>
</g>
<!-- Node32 -->
<g id="node33" class="node">
<title>Node32</title>
<g id="a_node33"><a xlink:href="LocationFinder_8hpp.html" target="_top" xlink:title=" ">
<polygon fill="#ffffff" stroke="#000000" points="186.5862,-280.5 186.5862,-299.5 293.5862,-299.5 293.5862,-280.5 186.5862,-280.5"/>
<text text-anchor="middle" x="240.0862" y="-287.5" font-family="Helvetica,sans-Serif" font-size="10.00" fill="#000000">LocationFinder.hpp</text>
</a>
</g>
</g>
<!-- Node1&#45;&gt;Node32 -->
<g id="edge58" class="edge">
<title>Node1&#45;&gt;Node32</title>
<path fill="none" stroke="#191970" d="M333.6608,-336.3733C315.684,-327.4644 288.7421,-314.1127 268.3771,-304.0203"/>
<polygon fill="#191970" stroke="#191970" points="269.7723,-300.8055 259.2581,-299.5011 266.664,-307.0776 269.7723,-300.8055"/>
</g>
<!-- Node34 -->
<g id="node35" class="node">
<title>Node34</title>
<g id="a_node35"><a xlink:href="PyMatrix_8hpp.html" target="_top" xlink:title=" ">
<polygon fill="#ffffff" stroke="#000000" points="43.0862,-168.5 43.0862,-187.5 123.0862,-187.5 123.0862,-168.5 43.0862,-168.5"/>
<text text-anchor="middle" x="83.0862" y="-175.5" font-family="Helvetica,sans-Serif" font-size="10.00" fill="#000000">PyMatrix.hpp</text>
</a>
</g>
</g>
<!-- Node1&#45;&gt;Node34 -->
<g id="edge62" class="edge">
<title>Node1&#45;&gt;Node34</title>
<path fill="none" stroke="#191970" d="M287.7308,-336.9647C195.6531,-322.6664 35.4263,-291.4809 4.0862,-244 -10.5331,-221.8515 18.3873,-203.1913 45.256,-191.4247"/>
<polygon fill="#191970" stroke="#191970" points="46.6993,-194.6153 54.5995,-187.5557 44.0212,-188.1478 46.6993,-194.6153"/>
</g>
<!-- Node36 -->
<g id="node37" class="node">
<title>Node36</title>
<g id="a_node37"><a xlink:title=" ">
<polygon fill="#ffffff" stroke="#bfbfbf" points="1135.0862,-280.5 1135.0862,-299.5 1221.0862,-299.5 1221.0862,-280.5 1135.0862,-280.5"/>
<text text-anchor="middle" x="1178.0862" y="-287.5" font-family="Helvetica,sans-Serif" font-size="10.00" fill="#000000">pybind11/stl.h</text>
</a>
</g>
</g>
<!-- Node1&#45;&gt;Node36 -->
<g id="edge66" class="edge">
<title>Node1&#45;&gt;Node36</title>
<path fill="none" stroke="#191970" d="M418.2916,-344.5969C551.0041,-341.1902 861.8958,-330.3981 1121.0862,-300 1122.3491,-299.8519 1123.6265,-299.694 1124.9138,-299.5276"/>
<polygon fill="#191970" stroke="#191970" points="1125.494,-302.9804 1134.9021,-298.1084 1124.5092,-296.05 1125.494,-302.9804"/>
</g>
<!-- Node3 -->
<g id="node4" class="node">
<title>Node3</title>
<g id="a_node4"><a xlink:href="Angle_8hpp.html" target="_top" xlink:title=" ">
<polygon fill="#ffffff" stroke="#000000" points="565.5862,-112.5 565.5862,-131.5 630.5862,-131.5 630.5862,-112.5 565.5862,-112.5"/>
<text text-anchor="middle" x="598.0862" y="-119.5" font-family="Helvetica,sans-Serif" font-size="10.00" fill="#000000">Angle.hpp</text>
</a>
</g>
</g>
<!-- Node2&#45;&gt;Node3 -->
<g id="edge3" class="edge">
<title>Node2&#45;&gt;Node3</title>
<path fill="none" stroke="#191970" d="M113.2799,-225.3754C116.2579,-224.9001 119.2104,-224.4382 122.0862,-224 240.025,-206.0295 274.2631,-223.7324 388.0862,-188 406.6716,-182.1655 408.913,-175.0136 427.0862,-168 450.3859,-159.0079 512.9896,-142.9009 555.6223,-132.3322"/>
<polygon fill="#191970" stroke="#191970" points="556.5904,-135.6984 565.4601,-129.9037 554.9127,-128.9024 556.5904,-135.6984"/>
</g>
<!-- Node9 -->
<g id="node10" class="node">
<title>Node9</title>
<g id="a_node10"><a xlink:href="Degrees_8hpp.html" target="_top" xlink:title=" ">
<polygon fill="#ffffff" stroke="#000000" points="187.0862,-168.5 187.0862,-187.5 265.0862,-187.5 265.0862,-168.5 187.0862,-168.5"/>
<text text-anchor="middle" x="226.0862" y="-175.5" font-family="Helvetica,sans-Serif" font-size="10.00" fill="#000000">Degrees.hpp</text>
</a>
</g>
</g>
<!-- Node2&#45;&gt;Node9 -->
<g id="edge9" class="edge">
<title>Node2&#45;&gt;Node9</title>
<path fill="none" stroke="#191970" d="M91.1069,-224.3733C118.094,-215.1016 159.0879,-201.0178 188.8173,-190.804"/>
<polygon fill="#191970" stroke="#191970" points="190.1109,-194.0605 198.4311,-187.5011 187.8365,-187.4403 190.1109,-194.0605"/>
</g>
<!-- Node4 -->
<g id="node5" class="node">
<title>Node4</title>
<g id="a_node5"><a xlink:title=" ">
<polygon fill="#ffffff" stroke="#bfbfbf" points="646.0862,-56.5 646.0862,-75.5 688.0862,-75.5 688.0862,-56.5 646.0862,-56.5"/>
<text text-anchor="middle" x="667.0862" y="-63.5" font-family="Helvetica,sans-Serif" font-size="10.00" fill="#000000">array</text>
</a>
</g>
</g>
<!-- Node3&#45;&gt;Node4 -->
<g id="edge4" class="edge">
<title>Node3&#45;&gt;Node4</title>
<path fill="none" stroke="#191970" d="M610.1051,-112.2455C620.296,-103.9746 635.1224,-91.9416 647.0969,-82.2232"/>
<polygon fill="#191970" stroke="#191970" points="649.646,-84.662 655.205,-75.6427 645.2348,-79.2268 649.646,-84.662"/>
</g>
<!-- Node5 -->
<g id="node6" class="node">
<title>Node5</title>
<g id="a_node6"><a xlink:title=" ">
<polygon fill="#ffffff" stroke="#bfbfbf" points="365.5862,-.5 365.5862,-19.5 412.5862,-19.5 412.5862,-.5 365.5862,-.5"/>
<text text-anchor="middle" x="389.0862" y="-7.5" font-family="Helvetica,sans-Serif" font-size="10.00" fill="#000000">cmath</text>
</a>
</g>
</g>
<!-- Node3&#45;&gt;Node5 -->
<g id="edge5" class="edge">
<title>Node3&#45;&gt;Node5</title>
<path fill="none" stroke="#191970" d="M589.6181,-112.1182C576.9255,-97.8702 551.6112,-71.5635 525.0862,-56 516.0225,-50.6819 459.8799,-32.4077 422.62,-20.5555"/>
<polygon fill="#191970" stroke="#191970" points="423.2566,-17.0856 412.6664,-17.399 421.1405,-23.7582 423.2566,-17.0856"/>
</g>
<!-- Node6 -->
<g id="node7" class="node">
<title>Node6</title>
<g id="a_node7"><a xlink:title=" ">
<polygon fill="#ffffff" stroke="#bfbfbf" points="897.0862,-56.5 897.0862,-75.5 941.0862,-75.5 941.0862,-56.5 897.0862,-56.5"/>
<text text-anchor="middle" x="919.0862" y="-63.5" font-family="Helvetica,sans-Serif" font-size="10.00" fill="#000000">limits</text>
</a>
</g>
</g>
<!-- Node3&#45;&gt;Node6 -->
<g id="edge6" class="edge">
<title>Node3&#45;&gt;Node6</title>
<path fill="none" stroke="#191970" d="M630.8665,-115.7276C637.5529,-114.4728 644.5433,-113.1787 651.0862,-112 736.1013,-96.6847 836.5068,-79.7616 886.8657,-71.3539"/>
<polygon fill="#191970" stroke="#191970" points="887.5404,-74.7898 896.8285,-69.6927 886.389,-67.8851 887.5404,-74.7898"/>
</g>
<!-- Node7 -->
<g id="node8" class="node">
<title>Node7</title>
<g id="a_node8"><a xlink:title=" ">
<polygon fill="#ffffff" stroke="#bfbfbf" points="458.5862,-56.5 458.5862,-75.5 515.5862,-75.5 515.5862,-56.5 458.5862,-56.5"/>
<text text-anchor="middle" x="487.0862" y="-63.5" font-family="Helvetica,sans-Serif" font-size="10.00" fill="#000000">ostream</text>
</a>
</g>
</g>
<!-- Node3&#45;&gt;Node7 -->
<g id="edge7" class="edge">
<title>Node3&#45;&gt;Node7</title>
<path fill="none" stroke="#191970" d="M579.0046,-112.3733C561.346,-103.4644 534.8809,-90.1127 514.8764,-80.0203"/>
<polygon fill="#191970" stroke="#191970" points="516.4234,-76.8806 505.9188,-75.5011 513.2704,-83.1303 516.4234,-76.8806"/>
</g>
<!-- Node8 -->
<g id="node9" class="node">
<title>Node8</title>
<g id="a_node9"><a xlink:href="uint_8hpp.html" target="_top" xlink:title=" ">
<polygon fill="#ffffff" stroke="#000000" points="572.0862,-56.5 572.0862,-75.5 628.0862,-75.5 628.0862,-56.5 572.0862,-56.5"/>
<text text-anchor="middle" x="600.0862" y="-63.5" font-family="Helvetica,sans-Serif" font-size="10.00" fill="#000000">uint.hpp</text>
</a>
</g>
</g>
<!-- Node3&#45;&gt;Node8 -->
<g id="edge8" class="edge">
<title>Node3&#45;&gt;Node8</title>
<path fill="none" stroke="#191970" d="M598.4346,-112.2455C598.6955,-104.9382 599.0614,-94.6944 599.3825,-85.7046"/>
<polygon fill="#191970" stroke="#191970" points="602.8826,-85.7613 599.7418,-75.6427 595.887,-85.5113 602.8826,-85.7613"/>
</g>
<!-- Node9&#45;&gt;Node5 -->
<g id="edge10" class="edge">
<title>Node9&#45;&gt;Node5</title>
<path fill="none" stroke="#191970" d="M229.7298,-168.219C238.5156,-145.7722 262.8545,-89.8916 299.0862,-56 315.3802,-40.7583 337.6902,-29.3094 356.0208,-21.6457"/>
<polygon fill="#191970" stroke="#191970" points="357.4689,-24.8363 365.4605,-17.8803 354.8753,-18.3344 357.4689,-24.8363"/>
</g>
<!-- Node10&#45;&gt;Node3 -->
<g id="edge13" class="edge">
<title>Node10&#45;&gt;Node3</title>
<path fill="none" stroke="#191970" d="M739.3447,-280.468C778.0807,-260.068 858.8631,-210.5684 824.0862,-168 822.6246,-166.211 705.7272,-143.0775 640.655,-130.3166"/>
<polygon fill="#191970" stroke="#191970" points="641.1684,-126.8507 630.6819,-128.3625 639.8223,-133.7201 641.1684,-126.8507"/>
</g>
<!-- Node10&#45;&gt;Node6 -->
<g id="edge55" class="edge">
<title>Node10&#45;&gt;Node6</title>
<path fill="none" stroke="#191970" d="M763.1381,-285.9492C838.8853,-278.4088 989.581,-261.3994 1006.0862,-244 1018.5785,-230.8309 1013.2924,-113.9423 1012.0862,-112 998.7962,-90.5995 972.2719,-78.8528 950.9393,-72.599"/>
<polygon fill="#191970" stroke="#191970" points="951.8315,-69.2147 941.2677,-70.0245 950.0309,-75.9792 951.8315,-69.2147"/>
</g>
<!-- Node11 -->
<g id="node12" class="node">
<title>Node11</title>
<g id="a_node12"><a xlink:href="ANSIColors_8hpp.html" target="_top" xlink:title=" ">
<polygon fill="#ffffff" stroke="#000000" points="570.0862,-224.5 570.0862,-243.5 662.0862,-243.5 662.0862,-224.5 570.0862,-224.5"/>
<text text-anchor="middle" x="616.0862" y="-231.5" font-family="Helvetica,sans-Serif" font-size="10.00" fill="#000000">ANSIColors.hpp</text>
</a>
</g>
</g>
<!-- Node10&#45;&gt;Node11 -->
<g id="edge12" class="edge">
<title>Node10&#45;&gt;Node11</title>
<path fill="none" stroke="#191970" d="M701.9708,-280.2455C685.6412,-271.4527 661.4152,-258.4079 642.8523,-248.4125"/>
<polygon fill="#191970" stroke="#191970" points="644.4581,-245.3021 633.994,-243.6427 641.1394,-251.4654 644.4581,-245.3021"/>
</g>
<!-- Node12 -->
<g id="node13" class="node">
<title>Node12</title>
<g id="a_node13"><a xlink:href="Bresenham_8hpp.html" target="_top" xlink:title=" ">
<polygon fill="#ffffff" stroke="#000000" points="909.5862,-168.5 909.5862,-187.5 1002.5862,-187.5 1002.5862,-168.5 909.5862,-168.5"/>
<text text-anchor="middle" x="956.0862" y="-175.5" font-family="Helvetica,sans-Serif" font-size="10.00" fill="#000000">Bresenham.hpp</text>
</a>
</g>
</g>
<!-- Node10&#45;&gt;Node12 -->
<g id="edge14" class="edge">
<title>Node10&#45;&gt;Node12</title>
<path fill="none" stroke="#191970" d="M763.3656,-285.5128C800.489,-280.1167 854.2878,-268.5054 895.0862,-244 915.2455,-231.8913 932.8113,-211.1635 943.8498,-196.1627"/>
<polygon fill="#191970" stroke="#191970" points="946.9252,-197.8757 949.8441,-187.6908 941.211,-193.8325 946.9252,-197.8757"/>
</g>
<!-- Node15 -->
<g id="node16" class="node">
<title>Node15</title>
<g id="a_node16"><a xlink:href="CenterPointOutLineIterator_8hpp.html" target="_top" xlink:title=" ">
<polygon fill="#ffffff" stroke="#000000" points="659.5862,-112.5 659.5862,-131.5 826.5862,-131.5 826.5862,-112.5 659.5862,-112.5"/>
<text text-anchor="middle" x="743.0862" y="-119.5" font-family="Helvetica,sans-Serif" font-size="10.00" fill="#000000">CenterPointOutLineIterator.hpp</text>
</a>
</g>
</g>
<!-- Node10&#45;&gt;Node15 -->
<g id="edge22" class="edge">
<title>Node10&#45;&gt;Node15</title>
<path fill="none" stroke="#191970" d="M763.3311,-281.2203C799.1337,-272.9703 845.8805,-259.5829 857.0862,-244 876.8064,-216.5764 875.9807,-195.9988 857.0862,-168 846.4089,-152.1778 829.2777,-141.7965 811.5055,-134.9855"/>
<polygon fill="#191970" stroke="#191970" points="812.1977,-131.5214 801.6029,-131.5571 809.9075,-138.1362 812.1977,-131.5214"/>
</g>
<!-- Node16 -->
<g id="node17" class="node">
<title>Node16</title>
<g id="a_node17"><a xlink:href="HelperStructs_8hpp.html" target="_top" xlink:title=" ">
<polygon fill="#ffffff" stroke="#000000" points="444.0862,-224.5 444.0862,-243.5 548.0862,-243.5 548.0862,-224.5 444.0862,-224.5"/>
<text text-anchor="middle" x="496.0862" y="-231.5" font-family="Helvetica,sans-Serif" font-size="10.00" fill="#000000">HelperStructs.hpp</text>
</a>
</g>
</g>
<!-- Node10&#45;&gt;Node16 -->
<g id="edge24" class="edge">
<title>Node10&#45;&gt;Node16</title>
<path fill="none" stroke="#191970" d="M681.8337,-280.4369C643.7395,-270.9133 585.1549,-256.2672 543.9875,-245.9753"/>
<polygon fill="#191970" stroke="#191970" points="544.7312,-242.5536 534.1809,-243.5237 543.0334,-249.3446 544.7312,-242.5536"/>
</g>
<!-- Node10&#45;&gt;Node17 -->
<g id="edge47" class="edge">
<title>Node10&#45;&gt;Node17</title>
<path fill="none" stroke="#191970" d="M676.8472,-285.6727C608.2082,-278.3615 477.717,-262.5351 435.0862,-244 408.5315,-232.4545 382.9756,-210.6983 366.9419,-195.3262"/>
<polygon fill="#191970" stroke="#191970" points="369.048,-192.4875 359.4704,-187.9575 364.1326,-197.4714 369.048,-192.4875"/>
</g>
<!-- Node18 -->
<g id="node19" class="node">
<title>Node18</title>
<g id="a_node19"><a xlink:href="Matrix_8hpp.html" target="_top" xlink:title=" ">
<polygon fill="#ffffff" stroke="#000000" points="315.0862,-112.5 315.0862,-131.5 383.0862,-131.5 383.0862,-112.5 315.0862,-112.5"/>
<text text-anchor="middle" x="349.0862" y="-119.5" font-family="Helvetica,sans-Serif" font-size="10.00" fill="#000000">Matrix.hpp</text>
</a>
</g>
</g>
<!-- Node10&#45;&gt;Node18 -->
<g id="edge51" class="edge">
<title>Node10&#45;&gt;Node18</title>
<path fill="none" stroke="#191970" d="M676.9277,-286.1679C601.3503,-279.0714 448.3027,-262.8755 398.0862,-244 355.3914,-227.9517 333.8253,-228.0974 312.0862,-188 302.9272,-171.1064 316.3181,-151.9682 329.4778,-138.6673"/>
<polygon fill="#191970" stroke="#191970" points="332.1376,-140.9706 337.027,-131.5715 327.3434,-135.8701 332.1376,-140.9706"/>
</g>
<!-- Node20 -->
<g id="node21" class="node">
<title>Node20</title>
<g id="a_node21"><a xlink:title=" ">
<polygon fill="#ffffff" stroke="#bfbfbf" points="431.0862,-.5 431.0862,-19.5 495.0862,-19.5 495.0862,-.5 431.0862,-.5"/>
<text text-anchor="middle" x="463.0862" y="-7.5" font-family="Helvetica,sans-Serif" font-size="10.00" fill="#000000">algorithm</text>
</a>
</g>
</g>
<!-- Node10&#45;&gt;Node20 -->
<g id="edge52" class="edge">
<title>Node10&#45;&gt;Node20</title>
<path fill="none" stroke="#191970" d="M763.3947,-282.8223C769.3368,-281.8603 775.3609,-280.8969 781.0862,-280 888.0809,-263.2395 929.7656,-300.6189 1022.0862,-244 1052.784,-225.1735 1069.0862,-214.011 1069.0862,-178 1069.0862,-178 1069.0862,-178 1069.0862,-122 1069.0862,-61.5213 1007.8587,-73.8889 950.0862,-56 867.4393,-30.4089 607.8514,-16.4145 505.3343,-11.7682"/>
<polygon fill="#191970" stroke="#191970" points="505.4873,-8.2716 495.3412,-11.3225 505.1753,-15.2647 505.4873,-8.2716"/>
</g>
<!-- Node26 -->
<g id="node27" class="node">
<title>Node26</title>
<g id="a_node27"><a xlink:title=" ">
<polygon fill="#ffffff" stroke="#bfbfbf" points="138.0862,-112.5 138.0862,-131.5 198.0862,-131.5 198.0862,-112.5 138.0862,-112.5"/>
<text text-anchor="middle" x="168.0862" y="-119.5" font-family="Helvetica,sans-Serif" font-size="10.00" fill="#000000">iostream</text>
</a>
</g>
</g>
<!-- Node10&#45;&gt;Node26 -->
<g id="edge54" class="edge">
<title>Node10&#45;&gt;Node26</title>
<path fill="none" stroke="#191970" d="M676.951,-287.72C606.0834,-283.3177 460.9158,-271.5336 341.0862,-244 322.4224,-239.7116 190.3515,-202.7069 178.0862,-188 167.5438,-175.359 165.6213,-156.429 165.999,-142.0795"/>
<polygon fill="#191970" stroke="#191970" points="169.5137,-141.9683 166.6743,-131.7611 162.5286,-141.5111 169.5137,-141.9683"/>
</g>
<!-- Node27 -->
<g id="node28" class="node">
<title>Node27</title>
<g id="a_node28"><a xlink:title=" ">
<polygon fill="#ffffff" stroke="#bfbfbf" points="577.0862,-168.5 577.0862,-187.5 633.0862,-187.5 633.0862,-168.5 577.0862,-168.5"/>
<text text-anchor="middle" x="605.0862" y="-175.5" font-family="Helvetica,sans-Serif" font-size="10.00" fill="#000000">optional</text>
</a>
</g>
</g>
<!-- Node10&#45;&gt;Node27 -->
<g id="edge56" class="edge">
<title>Node10&#45;&gt;Node27</title>
<path fill="none" stroke="#191970" d="M714.2884,-280.2795C705.8841,-266.6889 689.3153,-241.6912 671.0862,-224 658.9884,-212.2592 643.6263,-201.3636 630.7677,-193.1264"/>
<polygon fill="#191970" stroke="#191970" points="632.2685,-189.938 621.9294,-187.6241 628.569,-195.8805 632.2685,-189.938"/>
</g>
<!-- Node29 -->
<g id="node30" class="node">
<title>Node29</title>
<g id="a_node30"><a xlink:href="Mask_8hpp.html" target="_top" xlink:title=" ">
<polygon fill="#ffffff" stroke="#000000" points="718.5862,-224.5 718.5862,-243.5 781.5862,-243.5 781.5862,-224.5 718.5862,-224.5"/>
<text text-anchor="middle" x="750.0862" y="-231.5" font-family="Helvetica,sans-Serif" font-size="10.00" fill="#000000">Mask.hpp</text>
</a>
</g>
</g>
<!-- Node10&#45;&gt;Node29 -->
<g id="edge48" class="edge">
<title>Node10&#45;&gt;Node29</title>
<path fill="none" stroke="#191970" d="M725.3118,-280.2455C729.3985,-272.617 735.1997,-261.7881 740.1612,-252.5267"/>
<polygon fill="#191970" stroke="#191970" points="743.2834,-254.1103 744.9205,-243.6427 737.113,-250.8047 743.2834,-254.1103"/>
</g>
<!-- Node31 -->
<g id="node32" class="node">
<title>Node31</title>
<g id="a_node32"><a xlink:title=" ">
<polygon fill="#ffffff" stroke="#bfbfbf" points="947.0862,-224.5 947.0862,-243.5 997.0862,-243.5 997.0862,-224.5 947.0862,-224.5"/>
<text text-anchor="middle" x="972.0862" y="-231.5" font-family="Helvetica,sans-Serif" font-size="10.00" fill="#000000">cstdint</text>
</a>
</g>
</g>
<!-- Node10&#45;&gt;Node31 -->
<g id="edge53" class="edge">
<title>Node10&#45;&gt;Node31</title>
<path fill="none" stroke="#191970" d="M763.4382,-281.1452C806.5553,-272.2191 874.5433,-257.8217 933.0862,-244 934.349,-243.7019 935.6337,-243.3944 936.9305,-243.0805"/>
<polygon fill="#191970" stroke="#191970" points="938.0823,-246.401 946.9459,-240.597 936.3974,-239.6067 938.0823,-246.401"/>
</g>
<!-- Node12&#45;&gt;Node3 -->
<g id="edge15" class="edge">
<title>Node12&#45;&gt;Node3</title>
<path fill="none" stroke="#191970" d="M909.4961,-171.5168C849.5995,-163.0573 742.4224,-147.4989 651.0862,-132 647.7065,-131.4265 644.2096,-130.8125 640.698,-130.1814"/>
<polygon fill="#191970" stroke="#191970" points="641.3154,-126.7363 630.8483,-128.3765 640.0537,-133.6217 641.3154,-126.7363"/>
</g>
<!-- Node12&#45;&gt;Node5 -->
<g id="edge19" class="edge">
<title>Node12&#45;&gt;Node5</title>
<path fill="none" stroke="#191970" d="M940.1038,-168.404C917.4028,-154.9613 874.3245,-130.1382 836.0862,-112 775.91,-83.4557 761.5088,-72.9019 697.0862,-56 581.0001,-25.5437 544.5047,-44.8775 422.8331,-19.8164"/>
<polygon fill="#191970" stroke="#191970" points="423.2658,-16.3305 412.7574,-17.6808 421.8143,-23.1783 423.2658,-16.3305"/>
</g>
<!-- Node12&#45;&gt;Node6 -->
<g id="edge20" class="edge">
<title>Node12&#45;&gt;Node6</title>
<path fill="none" stroke="#191970" d="M951.9572,-168.2267C948.1239,-158.9806 942.3788,-144.6708 938.0862,-132 932.8854,-116.6483 927.8505,-98.9904 924.2718,-85.8043"/>
<polygon fill="#191970" stroke="#191970" points="927.5965,-84.688 921.6365,-75.9284 920.8331,-86.4928 927.5965,-84.688"/>
</g>
<!-- Node13 -->
<g id="node14" class="node">
<title>Node13</title>
<g id="a_node14"><a xlink:href="Pixel_8hpp.html" target="_top" xlink:title=" ">
<polygon fill="#ffffff" stroke="#000000" points="481.0862,-112.5 481.0862,-131.5 543.0862,-131.5 543.0862,-112.5 481.0862,-112.5"/>
<text text-anchor="middle" x="512.0862" y="-119.5" font-family="Helvetica,sans-Serif" font-size="10.00" fill="#000000">Pixel.hpp</text>
</a>
</g>
</g>
<!-- Node12&#45;&gt;Node13 -->
<g id="edge16" class="edge">
<title>Node12&#45;&gt;Node13</title>
<path fill="none" stroke="#191970" d="M909.4841,-174.2097C834.7894,-167.7798 683.7816,-153.3212 557.0862,-132 555.8432,-131.7908 554.5828,-131.5695 553.3119,-131.3384"/>
<polygon fill="#191970" stroke="#191970" points="553.9621,-127.8993 543.4758,-129.4119 552.6166,-134.7688 553.9621,-127.8993"/>
</g>
<!-- Node12&#45;&gt;Node14 -->
<g id="edge21" class="edge">
<title>Node12&#45;&gt;Node14</title>
<path fill="none" stroke="#191970" d="M959.3957,-168.2455C961.9295,-160.7776 965.5039,-150.2427 968.6012,-141.1137"/>
<polygon fill="#191970" stroke="#191970" points="971.916,-142.237 971.8146,-131.6427 965.2871,-139.9879 971.916,-142.237"/>
</g>
<!-- Node13&#45;&gt;Node7 -->
<g id="edge18" class="edge">
<title>Node13&#45;&gt;Node7</title>
<path fill="none" stroke="#191970" d="M507.7315,-112.2455C504.3618,-104.6973 499.5932,-94.0158 495.4879,-84.8197"/>
<polygon fill="#191970" stroke="#191970" points="498.6635,-83.3473 491.391,-75.6427 492.2715,-86.2009 498.6635,-83.3473"/>
</g>
<!-- Node13&#45;&gt;Node8 -->
<g id="edge17" class="edge">
<title>Node13&#45;&gt;Node8</title>
<path fill="none" stroke="#191970" d="M527.4146,-112.2455C540.9165,-103.6534 560.7984,-91.0014 576.3548,-81.1018"/>
<polygon fill="#191970" stroke="#191970" points="578.3759,-83.9643 584.9334,-75.6427 574.6177,-78.0587 578.3759,-83.9643"/>
</g>
<!-- Node15&#45;&gt;Node8 -->
<g id="edge23" class="edge">
<title>Node15&#45;&gt;Node8</title>
<path fill="none" stroke="#191970" d="M718.5036,-112.3733C695.1366,-103.2226 659.7999,-89.3844 633.8078,-79.2057"/>
<polygon fill="#191970" stroke="#191970" points="634.9357,-75.8886 624.348,-75.5011 632.3832,-82.4066 634.9357,-75.8886"/>
</g>
<!-- Node16&#45;&gt;Node3 -->
<g id="edge25" class="edge">
<title>Node16&#45;&gt;Node3</title>
<path fill="none" stroke="#191970" d="M504.7827,-224.4509C522.0209,-205.5227 560.7341,-163.014 582.4876,-139.1279"/>
<polygon fill="#191970" stroke="#191970" points="585.2661,-141.275 589.4117,-131.5249 580.0907,-136.5617 585.2661,-141.275"/>
</g>
<!-- Node16&#45;&gt;Node9 -->
<g id="edge26" class="edge">
<title>Node16&#45;&gt;Node9</title>
<path fill="none" stroke="#191970" d="M449.9783,-224.4369C401.3651,-214.3541 325.0681,-198.5296 275.31,-188.2094"/>
<polygon fill="#191970" stroke="#191970" points="275.924,-184.7623 265.4215,-186.1584 274.5023,-191.6164 275.924,-184.7623"/>
</g>
<!-- Node16&#45;&gt;Node13 -->
<g id="edge44" class="edge">
<title>Node16&#45;&gt;Node13</title>
<path fill="none" stroke="#191970" d="M497.4503,-224.4509C500.0599,-206.184 505.8069,-165.9553 509.2722,-141.6976"/>
<polygon fill="#191970" stroke="#191970" points="512.776,-141.9194 510.7255,-131.5249 505.8464,-140.9294 512.776,-141.9194"/>
</g>
<!-- Node16&#45;&gt;Node17 -->
<g id="edge27" class="edge">
<title>Node16&#45;&gt;Node17</title>
<path fill="none" stroke="#191970" d="M470.9879,-224.3733C447.1307,-215.2226 411.0527,-201.3844 384.5152,-191.2057"/>
<polygon fill="#191970" stroke="#191970" points="385.4472,-187.8145 374.857,-187.5011 382.9403,-194.3503 385.4472,-187.8145"/>
</g>
<!-- Node16&#45;&gt;Node27 -->
<g id="edge45" class="edge">
<title>Node16&#45;&gt;Node27</title>
<path fill="none" stroke="#191970" d="M515.0725,-224.2455C532.2654,-215.4125 557.81,-202.2887 577.2994,-192.2758"/>
<polygon fill="#191970" stroke="#191970" points="579.0221,-195.3257 586.3174,-187.6427 575.8232,-189.0993 579.0221,-195.3257"/>
</g>
<!-- Node28 -->
<g id="node29" class="node">
<title>Node28</title>
<g id="a_node29"><a xlink:title=" ">
<polygon fill="#ffffff" stroke="#bfbfbf" points="435.5862,-168.5 435.5862,-187.5 482.5862,-187.5 482.5862,-168.5 435.5862,-168.5"/>
<text text-anchor="middle" x="459.0862" y="-175.5" font-family="Helvetica,sans-Serif" font-size="10.00" fill="#000000">vector</text>
</a>
</g>
</g>
<!-- Node16&#45;&gt;Node28 -->
<g id="edge46" class="edge">
<title>Node16&#45;&gt;Node28</title>
<path fill="none" stroke="#191970" d="M489.6413,-224.2455C484.548,-216.5367 477.2954,-205.5598 471.1342,-196.2348"/>
<polygon fill="#191970" stroke="#191970" points="473.89,-194.0566 465.4572,-187.6427 468.0497,-197.9155 473.89,-194.0566"/>
</g>
<!-- Node17&#45;&gt;Node3 -->
<g id="edge28" class="edge">
<title>Node17&#45;&gt;Node3</title>
<path fill="none" stroke="#191970" d="M379.2234,-171.1917C383.8593,-170.1177 388.603,-169.0243 393.0862,-168 449.2604,-155.1658 514.1693,-140.6546 555.6417,-131.4233"/>
<polygon fill="#191970" stroke="#191970" points="556.4029,-134.8396 565.4042,-129.2515 554.8827,-128.0067 556.4029,-134.8396"/>
</g>
<!-- Node17&#45;&gt;Node7 -->
<g id="edge42" class="edge">
<title>Node17&#45;&gt;Node7</title>
<path fill="none" stroke="#191970" d="M361.7667,-168.4509C385.3244,-149.1921 438.7425,-105.5218 467.645,-81.8935"/>
<polygon fill="#191970" stroke="#191970" points="469.9084,-84.564 475.4352,-75.5249 465.4778,-79.1445 469.9084,-84.564"/>
</g>
<!-- Node17&#45;&gt;Node13 -->
<g id="edge41" class="edge">
<title>Node17&#45;&gt;Node13</title>
<path fill="none" stroke="#191970" d="M377.935,-168.3733C404.7565,-159.1016 445.4989,-145.0178 475.046,-134.804"/>
<polygon fill="#191970" stroke="#191970" points="476.2931,-138.0762 484.6008,-131.5011 474.006,-131.4603 476.2931,-138.0762"/>
</g>
<!-- Node17&#45;&gt;Node18 -->
<g id="edge29" class="edge">
<title>Node17&#45;&gt;Node18</title>
<path fill="none" stroke="#191970" d="M349.912,-168.2455C349.7815,-160.9382 349.5986,-150.6944 349.4381,-141.7046"/>
<polygon fill="#191970" stroke="#191970" points="352.9365,-141.5786 349.2584,-131.6427 345.9376,-141.7036 352.9365,-141.5786"/>
</g>
<!-- Node17&#45;&gt;Node26 -->
<g id="edge43" class="edge">
<title>Node17&#45;&gt;Node26</title>
<path fill="none" stroke="#191970" d="M320.8447,-169.0026C290.2073,-159.5757 241.8863,-144.7077 207.8084,-134.2222"/>
<polygon fill="#191970" stroke="#191970" points="208.7508,-130.8503 198.1637,-131.2546 206.6922,-137.5408 208.7508,-130.8503"/>
</g>
<!-- Node18&#45;&gt;Node5 -->
<g id="edge38" class="edge">
<title>Node18&#45;&gt;Node5</title>
<path fill="none" stroke="#191970" d="M354.9493,-112.4481C360.3133,-103.3584 368.1444,-89.1544 373.0862,-76 378.7874,-60.824 382.9801,-42.9102 385.64,-29.5777"/>
<polygon fill="#191970" stroke="#191970" points="389.1047,-30.0912 387.5132,-19.6166 382.2253,-28.7975 389.1047,-30.0912"/>
</g>
<!-- Node18&#45;&gt;Node7 -->
<g id="edge40" class="edge">
<title>Node18&#45;&gt;Node7</title>
<path fill="none" stroke="#191970" d="M372.8092,-112.3733C395.2598,-103.2629 429.1601,-89.5062 454.2117,-79.3404"/>
<polygon fill="#191970" stroke="#191970" points="455.7227,-82.5045 463.6727,-75.5011 453.0905,-76.0182 455.7227,-82.5045"/>
</g>
<!-- Node19 -->
<g id="node20" class="node">
<title>Node19</title>
<g id="a_node20"><a xlink:href="Array_8hpp.html" target="_top" xlink:title=" ">
<polygon fill="#ffffff" stroke="#000000" points="190.0862,-56.5 190.0862,-75.5 252.0862,-75.5 252.0862,-56.5 190.0862,-56.5"/>
<text text-anchor="middle" x="221.0862" y="-63.5" font-family="Helvetica,sans-Serif" font-size="10.00" fill="#000000">Array.hpp</text>
</a>
</g>
</g>
<!-- Node18&#45;&gt;Node19 -->
<g id="edge30" class="edge">
<title>Node18&#45;&gt;Node19</title>
<path fill="none" stroke="#191970" d="M327.0822,-112.3733C306.4427,-103.3435 275.3704,-89.7494 252.1973,-79.6111"/>
<polygon fill="#191970" stroke="#191970" points="253.3675,-76.3028 242.803,-75.5011 250.5617,-82.7159 253.3675,-76.3028"/>
</g>
<!-- Node18&#45;&gt;Node20 -->
<g id="edge37" class="edge">
<title>Node18&#45;&gt;Node20</title>
<path fill="none" stroke="#191970" d="M358.8058,-112.4509C378.1561,-93.4401 421.7181,-50.6423 445.9699,-26.816"/>
<polygon fill="#191970" stroke="#191970" points="448.7107,-29.0298 453.3912,-19.5249 443.8049,-24.0364 448.7107,-29.0298"/>
</g>
<!-- Node25 -->
<g id="node26" class="node">
<title>Node25</title>
<g id="a_node26"><a xlink:title=" ">
<polygon fill="#ffffff" stroke="#bfbfbf" points="308.0862,-56.5 308.0862,-75.5 364.0862,-75.5 364.0862,-56.5 308.0862,-56.5"/>
<text text-anchor="middle" x="336.0862" y="-63.5" font-family="Helvetica,sans-Serif" font-size="10.00" fill="#000000">iomanip</text>
</a>
</g>
</g>
<!-- Node18&#45;&gt;Node25 -->
<g id="edge39" class="edge">
<title>Node18&#45;&gt;Node25</title>
<path fill="none" stroke="#191970" d="M346.8218,-112.2455C345.1068,-104.8579 342.695,-94.4689 340.5918,-85.4087"/>
<polygon fill="#191970" stroke="#191970" points="343.9954,-84.5922 338.3247,-75.6427 337.1767,-86.1751 343.9954,-84.5922"/>
</g>
<!-- Node19&#45;&gt;Node5 -->
<g id="edge32" class="edge">
<title>Node19&#45;&gt;Node5</title>
<path fill="none" stroke="#191970" d="M249.9664,-56.3733C279.2985,-46.5959 324.6849,-31.4671 355.5803,-21.1686"/>
<polygon fill="#191970" stroke="#191970" points="357.0782,-24.3587 365.4582,-17.876 354.8646,-17.7179 357.0782,-24.3587"/>
</g>
<!-- Node19&#45;&gt;Node20 -->
<g id="edge31" class="edge">
<title>Node19&#45;&gt;Node20</title>
<path fill="none" stroke="#191970" d="M252.1081,-59.0445C289.691,-50.5865 355.192,-35.7452 420.7713,-20.2885"/>
<polygon fill="#191970" stroke="#191970" points="421.9399,-23.6089 430.8677,-17.9041 420.3309,-16.7963 421.9399,-23.6089"/>
</g>
<!-- Node21 -->
<g id="node22" class="node">
<title>Node21</title>
<g id="a_node22"><a xlink:title=" ">
<polygon fill="#ffffff" stroke="#bfbfbf" points="125.5862,-.5 125.5862,-19.5 178.5862,-19.5 178.5862,-.5 125.5862,-.5"/>
<text text-anchor="middle" x="152.0862" y="-7.5" font-family="Helvetica,sans-Serif" font-size="10.00" fill="#000000">cstddef</text>
</a>
</g>
</g>
<!-- Node19&#45;&gt;Node21 -->
<g id="edge33" class="edge">
<title>Node19&#45;&gt;Node21</title>
<path fill="none" stroke="#191970" d="M209.0673,-56.2455C198.8764,-47.9746 184.05,-35.9416 172.0755,-26.2232"/>
<polygon fill="#191970" stroke="#191970" points="173.9376,-23.2268 163.9673,-19.6427 169.5263,-28.662 173.9376,-23.2268"/>
</g>
<!-- Node22 -->
<g id="node23" class="node">
<title>Node22</title>
<g id="a_node23"><a xlink:title=" ">
<polygon fill="#ffffff" stroke="#bfbfbf" points="197.0862,-.5 197.0862,-19.5 253.0862,-19.5 253.0862,-.5 197.0862,-.5"/>
<text text-anchor="middle" x="225.0862" y="-7.5" font-family="Helvetica,sans-Serif" font-size="10.00" fill="#000000">numeric</text>
</a>
</g>
</g>
<!-- Node19&#45;&gt;Node22 -->
<g id="edge34" class="edge">
<title>Node19&#45;&gt;Node22</title>
<path fill="none" stroke="#191970" d="M221.7829,-56.2455C222.3049,-48.9382 223.0366,-38.6944 223.6787,-29.7046"/>
<polygon fill="#191970" stroke="#191970" points="227.176,-29.8667 224.3974,-19.6427 220.1938,-29.3679 227.176,-29.8667"/>
</g>
<!-- Node23 -->
<g id="node24" class="node">
<title>Node23</title>
<g id="a_node24"><a xlink:title=" ">
<polygon fill="#ffffff" stroke="#bfbfbf" points="271.5862,-.5 271.5862,-19.5 340.5862,-19.5 340.5862,-.5 271.5862,-.5"/>
<text text-anchor="middle" x="306.0862" y="-7.5" font-family="Helvetica,sans-Serif" font-size="10.00" fill="#000000">type_traits</text>
</a>
</g>
</g>
<!-- Node19&#45;&gt;Node23 -->
<g id="edge35" class="edge">
<title>Node19&#45;&gt;Node23</title>
<path fill="none" stroke="#191970" d="M235.8921,-56.2455C248.8118,-47.7337 267.7793,-35.2375 282.7414,-25.3801"/>
<polygon fill="#191970" stroke="#191970" points="285.0249,-28.067 291.45,-19.6427 281.1738,-22.2216 285.0249,-28.067"/>
</g>
<!-- Node24 -->
<g id="node25" class="node">
<title>Node24</title>
<g id="a_node25"><a xlink:title=" ">
<polygon fill="#ffffff" stroke="#bfbfbf" points="55.0862,-.5 55.0862,-19.5 107.0862,-19.5 107.0862,-.5 55.0862,-.5"/>
<text text-anchor="middle" x="81.0862" y="-7.5" font-family="Helvetica,sans-Serif" font-size="10.00" fill="#000000">cassert</text>
</a>
</g>
</g>
<!-- Node19&#45;&gt;Node24 -->
<g id="edge36" class="edge">
<title>Node19&#45;&gt;Node24</title>
<path fill="none" stroke="#191970" d="M197.0193,-56.3733C174.2434,-47.2629 139.8518,-33.5062 114.4372,-23.3404"/>
<polygon fill="#191970" stroke="#191970" points="115.4237,-19.9654 104.839,-19.5011 112.8239,-26.4648 115.4237,-19.9654"/>
</g>
<!-- Node29&#45;&gt;Node13 -->
<g id="edge49" class="edge">
<title>Node29&#45;&gt;Node13</title>
<path fill="none" stroke="#191970" d="M736.6247,-224.4984C716.6841,-210.7242 677.7988,-185.0018 642.0862,-168 613.1434,-154.2211 578.914,-142.2721 552.8455,-134.0081"/>
<polygon fill="#191970" stroke="#191970" points="553.8707,-130.6616 543.2821,-131.0251 551.7863,-137.3441 553.8707,-130.6616"/>
</g>
<!-- Node30 -->
<g id="node31" class="node">
<title>Node30</title>
<g id="a_node31"><a xlink:title=" ">
<polygon fill="#ffffff" stroke="#bfbfbf" points="689.5862,-168.5 689.5862,-187.5 814.5862,-187.5 814.5862,-168.5 689.5862,-168.5"/>
<text text-anchor="middle" x="752.0862" y="-175.5" font-family="Helvetica,sans-Serif" font-size="10.00" fill="#000000">opencv2/core/mat.hpp</text>
</a>
</g>
</g>
<!-- Node29&#45;&gt;Node30 -->
<g id="edge50" class="edge">
<title>Node29&#45;&gt;Node30</title>
<path fill="none" stroke="#191970" d="M750.4346,-224.2455C750.6955,-216.9382 751.0614,-206.6944 751.3825,-197.7046"/>
<polygon fill="#191970" stroke="#191970" points="754.8826,-197.7613 751.7418,-187.6427 747.887,-197.5113 754.8826,-197.7613"/>
</g>
<!-- Node32&#45;&gt;Node2 -->
<g id="edge59" class="edge">
<title>Node32&#45;&gt;Node2</title>
<path fill="none" stroke="#191970" d="M209.6588,-280.3733C180.099,-271.021 135.0636,-256.7725 102.7167,-246.5385"/>
<polygon fill="#191970" stroke="#191970" points="103.7065,-243.1807 93.1165,-243.5011 101.5949,-249.8546 103.7065,-243.1807"/>
</g>
<!-- Node32&#45;&gt;Node16 -->
<g id="edge60" class="edge">
<title>Node32&#45;&gt;Node16</title>
<path fill="none" stroke="#191970" d="M283.8033,-280.4369C327.7077,-270.8328 395.4275,-256.0191 442.5312,-245.7152"/>
<polygon fill="#191970" stroke="#191970" points="443.5284,-249.0799 452.5494,-243.5237 442.0324,-242.2416 443.5284,-249.0799"/>
</g>
<!-- Node33 -->
<g id="node34" class="node">
<title>Node33</title>
<g id="a_node34"><a xlink:title=" ">
<polygon fill="#ffffff" stroke="#bfbfbf" points="131.0862,-224.5 131.0862,-243.5 249.0862,-243.5 249.0862,-224.5 131.0862,-224.5"/>
<text text-anchor="middle" x="190.0862" y="-231.5" font-family="Helvetica,sans-Serif" font-size="10.00" fill="#000000">opencv2/videoio.hpp</text>
</a>
</g>
</g>
<!-- Node32&#45;&gt;Node33 -->
<g id="edge61" class="edge">
<title>Node32&#45;&gt;Node33</title>
<path fill="none" stroke="#191970" d="M231.3769,-280.2455C224.2789,-272.2958 214.0778,-260.8706 205.5912,-251.3656"/>
<polygon fill="#191970" stroke="#191970" points="207.9667,-248.771 198.6957,-243.6427 202.7451,-253.4331 207.9667,-248.771"/>
</g>
<!-- Node34&#45;&gt;Node18 -->
<g id="edge65" class="edge">
<title>Node34&#45;&gt;Node18</title>
<path fill="none" stroke="#191970" d="M123.1971,-169.5556C172.0784,-159.2648 254.3951,-141.935 305.0078,-131.2797"/>
<polygon fill="#191970" stroke="#191970" points="305.9313,-134.662 314.9958,-129.1769 304.4892,-127.8122 305.9313,-134.662"/>
</g>
<!-- Node34&#45;&gt;Node26 -->
<g id="edge64" class="edge">
<title>Node34&#45;&gt;Node26</title>
<path fill="none" stroke="#191970" d="M97.8921,-168.2455C110.8118,-159.7337 129.7793,-147.2375 144.7414,-137.3801"/>
<polygon fill="#191970" stroke="#191970" points="147.0249,-140.067 153.45,-131.6427 143.1738,-134.2216 147.0249,-140.067"/>
</g>
<!-- Node35 -->
<g id="node36" class="node">
<title>Node35</title>
<g id="a_node36"><a xlink:title=" ">
<polygon fill="#ffffff" stroke="#bfbfbf" points="14.0862,-112.5 14.0862,-131.5 120.0862,-131.5 120.0862,-112.5 14.0862,-112.5"/>
<text text-anchor="middle" x="67.0862" y="-119.5" font-family="Helvetica,sans-Serif" font-size="10.00" fill="#000000">pybind11/numpy.h</text>
</a>
</g>
</g>
<!-- Node34&#45;&gt;Node35 -->
<g id="edge63" class="edge">
<title>Node34&#45;&gt;Node35</title>
<path fill="none" stroke="#191970" d="M80.2992,-168.2455C78.1885,-160.8579 75.2202,-150.4689 72.6315,-141.4087"/>
<polygon fill="#191970" stroke="#191970" points="75.9539,-140.2964 69.8412,-131.6427 69.2232,-142.2195 75.9539,-140.2964"/>
</g>
</g>
</svg>
