<?xml version="1.0" encoding="UTF-8" standalone="no"?>
<!DOCTYPE svg PUBLIC "-//W3C//DTD SVG 1.1//EN"
 "http://www.w3.org/Graphics/SVG/1.1/DTD/svg11.dtd">
<!-- Generated by graphviz version 2.40.1 (20161225.0304)
 -->
<!-- Title: /home/pieter/GitHub/EAGLE&#45;ZYBO&#45;Linux/src/py&#45;grid&#45;finder/include/Grid&#45;Finder.module.hpp Pages: 1 -->
<svg width="1070pt" height="397pt"
 viewBox="0.00 0.00 1069.82 397.00" xmlns="http://www.w3.org/2000/svg" xmlns:xlink="http://www.w3.org/1999/xlink">
<g id="graph0" class="graph" transform="scale(1 1) rotate(0) translate(4 393)">
<title>/home/pieter/GitHub/EAGLE&#45;ZYBO&#45;Linux/src/py&#45;grid&#45;finder/include/Grid&#45;Finder.module.hpp</title>
<polygon fill="#ffffff" stroke="transparent" points="-4,4 -4,-393 1065.8174,-393 1065.8174,4 -4,4"/>
<!-- Node0 -->
<g id="node1" class="node">
<title>Node0</title>
<g id="a_node1"><a xlink:title=" ">
<polygon fill="#bfbfbf" stroke="#000000" points="362.3174,-336.5 362.3174,-388.5 495.3174,-388.5 495.3174,-336.5 362.3174,-336.5"/>
<text text-anchor="start" x="370.3174" y="-376.5" font-family="Helvetica,sans-Serif" font-size="10.00" fill="#000000">/home/pieter/GitHub</text>
<text text-anchor="start" x="370.3174" y="-365.5" font-family="Helvetica,sans-Serif" font-size="10.00" fill="#000000">/EAGLE&#45;ZYBO&#45;Linux/src</text>
<text text-anchor="start" x="370.3174" y="-354.5" font-family="Helvetica,sans-Serif" font-size="10.00" fill="#000000">/py&#45;grid&#45;finder/include</text>
<text text-anchor="middle" x="428.8174" y="-343.5" font-family="Helvetica,sans-Serif" font-size="10.00" fill="#000000">/Grid&#45;Finder.module.hpp</text>
</a>
</g>
</g>
<!-- Node1 -->
<g id="node2" class="node">
<title>Node1</title>
<g id="a_node2"><a xlink:href="GridFinder_8hpp.html" target="_top" xlink:title=" ">
<polygon fill="#ffffff" stroke="#000000" points="385.8174,-280.5 385.8174,-299.5 471.8174,-299.5 471.8174,-280.5 385.8174,-280.5"/>
<text text-anchor="middle" x="428.8174" y="-287.5" font-family="Helvetica,sans-Serif" font-size="10.00" fill="#000000">GridFinder.hpp</text>
</a>
</g>
</g>
<!-- Node0&#45;&gt;Node1 -->
<g id="edge1" class="edge">
<title>Node0&#45;&gt;Node1</title>
<path fill="none" stroke="#191970" d="M428.8174,-336.3258C428.8174,-327.5142 428.8174,-317.8397 428.8174,-309.621"/>
<polygon fill="#191970" stroke="#191970" points="432.3175,-309.534 428.8174,-299.534 425.3175,-309.534 432.3175,-309.534"/>
</g>
<!-- Node11 -->
<g id="node12" class="node">
<title>Node11</title>
<g id="a_node12"><a xlink:title=" ">
<polygon fill="#ffffff" stroke="#bfbfbf" points="901.8174,-112.5 901.8174,-131.5 957.8174,-131.5 957.8174,-112.5 901.8174,-112.5"/>
<text text-anchor="middle" x="929.8174" y="-119.5" font-family="Helvetica,sans-Serif" font-size="10.00" fill="#000000">sstream</text>
</a>
</g>
</g>
<!-- Node0&#45;&gt;Node11 -->
<g id="edge58" class="edge">
<title>Node0&#45;&gt;Node11</title>
<path fill="none" stroke="#191970" d="M495.6959,-354.8222C613.5067,-339.909 850.8873,-303.193 906.8174,-244 932.9814,-216.3096 933.9805,-168.6992 932.0917,-141.8753"/>
<polygon fill="#191970" stroke="#191970" points="935.564,-141.4115 931.1704,-131.7707 928.593,-142.0472 935.564,-141.4115"/>
</g>
<!-- Node15 -->
<g id="node16" class="node">
<title>Node15</title>
<g id="a_node16"><a xlink:href="Line_8hpp.html" target="_top" xlink:title=" ">
<polygon fill="#ffffff" stroke="#000000" points="196.8174,-168.5 196.8174,-187.5 254.8174,-187.5 254.8174,-168.5 196.8174,-168.5"/>
<text text-anchor="middle" x="225.8174" y="-175.5" font-family="Helvetica,sans-Serif" font-size="10.00" fill="#000000">Line.hpp</text>
</a>
</g>
</g>
<!-- Node0&#45;&gt;Node15 -->
<g id="edge52" class="edge">
<title>Node0&#45;&gt;Node15</title>
<path fill="none" stroke="#191970" d="M361.9295,-340.5222C317.2307,-322.1233 261.3905,-291.1742 231.8174,-244 223.234,-230.308 222.263,-211.7734 223.1351,-197.8313"/>
<polygon fill="#191970" stroke="#191970" points="226.6245,-198.1093 224.1194,-187.8149 219.6581,-197.4246 226.6245,-198.1093"/>
</g>
<!-- Node29 -->
<g id="node30" class="node">
<title>Node29</title>
<g id="a_node30"><a xlink:href="PyMatrix_8hpp.html" target="_top" xlink:title=" ">
<polygon fill="#ffffff" stroke="#000000" points="22.8174,-168.5 22.8174,-187.5 102.8174,-187.5 102.8174,-168.5 22.8174,-168.5"/>
<text text-anchor="middle" x="62.8174" y="-175.5" font-family="Helvetica,sans-Serif" font-size="10.00" fill="#000000">PyMatrix.hpp</text>
</a>
</g>
</g>
<!-- Node0&#45;&gt;Node29 -->
<g id="edge53" class="edge">
<title>Node0&#45;&gt;Node29</title>
<path fill="none" stroke="#191970" d="M362.123,-341.518C330.2227,-330.5959 291.8728,-316.1529 258.8174,-300 192.3718,-267.5306 119.8895,-218.4893 84.5895,-193.6317"/>
<polygon fill="#191970" stroke="#191970" points="86.2298,-190.5043 76.0476,-187.5762 82.1814,-196.2149 86.2298,-190.5043"/>
</g>
<!-- Node31 -->
<g id="node32" class="node">
<title>Node31</title>
<g id="a_node32"><a xlink:title=" ">
<polygon fill="#ffffff" stroke="#bfbfbf" points="975.8174,-280.5 975.8174,-299.5 1061.8174,-299.5 1061.8174,-280.5 975.8174,-280.5"/>
<text text-anchor="middle" x="1018.8174" y="-287.5" font-family="Helvetica,sans-Serif" font-size="10.00" fill="#000000">pybind11/stl.h</text>
</a>
</g>
</g>
<!-- Node0&#45;&gt;Node31 -->
<g id="edge57" class="edge">
<title>Node0&#45;&gt;Node31</title>
<path fill="none" stroke="#191970" d="M495.4525,-355.9178C596.5137,-345.6569 794.4956,-324.4672 961.8174,-300 963.0756,-299.816 964.3487,-299.6258 965.6321,-299.4304"/>
<polygon fill="#191970" stroke="#191970" points="966.2714,-302.8728 975.5991,-297.8485 965.174,-295.9593 966.2714,-302.8728"/>
</g>
<!-- Node2 -->
<g id="node3" class="node">
<title>Node2</title>
<g id="a_node3"><a xlink:href="ANSIColors_8hpp.html" target="_top" xlink:title=" ">
<polygon fill="#ffffff" stroke="#000000" points="789.8174,-224.5 789.8174,-243.5 881.8174,-243.5 881.8174,-224.5 789.8174,-224.5"/>
<text text-anchor="middle" x="835.8174" y="-231.5" font-family="Helvetica,sans-Serif" font-size="10.00" fill="#000000">ANSIColors.hpp</text>
</a>
</g>
</g>
<!-- Node1&#45;&gt;Node2 -->
<g id="edge2" class="edge">
<title>Node1&#45;&gt;Node2</title>
<path fill="none" stroke="#191970" d="M471.9952,-285.0612C536.5915,-277.5182 662.4516,-262.227 779.4284,-244.1569"/>
<polygon fill="#191970" stroke="#191970" points="780.2889,-247.5652 789.6322,-242.5699 779.2131,-240.6484 780.2889,-247.5652"/>
</g>
<!-- Node3 -->
<g id="node4" class="node">
<title>Node3</title>
<g id="a_node4"><a xlink:href="Angle_8hpp.html" target="_top" xlink:title=" ">
<polygon fill="#ffffff" stroke="#000000" points="730.3174,-112.5 730.3174,-131.5 795.3174,-131.5 795.3174,-112.5 730.3174,-112.5"/>
<text text-anchor="middle" x="762.8174" y="-119.5" font-family="Helvetica,sans-Serif" font-size="10.00" fill="#000000">Angle.hpp</text>
</a>
</g>
</g>
<!-- Node1&#45;&gt;Node3 -->
<g id="edge3" class="edge">
<title>Node1&#45;&gt;Node3</title>
<path fill="none" stroke="#191970" d="M471.9359,-285.8804C533.4476,-279.354 642.6265,-265.1679 675.8174,-244 715.493,-218.6964 742.5369,-168.2388 754.9907,-140.8088"/>
<polygon fill="#191970" stroke="#191970" points="758.2508,-142.089 759.0453,-131.5239 751.8357,-139.2875 758.2508,-142.089"/>
</g>
<!-- Node6 -->
<g id="node7" class="node">
<title>Node6</title>
<g id="a_node7"><a xlink:title=" ">
<polygon fill="#ffffff" stroke="#bfbfbf" points="801.8174,-56.5 801.8174,-75.5 845.8174,-75.5 845.8174,-56.5 801.8174,-56.5"/>
<text text-anchor="middle" x="823.8174" y="-63.5" font-family="Helvetica,sans-Serif" font-size="10.00" fill="#000000">limits</text>
</a>
</g>
</g>
<!-- Node1&#45;&gt;Node6 -->
<g id="edge50" class="edge">
<title>Node1&#45;&gt;Node6</title>
<path fill="none" stroke="#191970" d="M471.9041,-288.1629C582.6433,-283.1188 871.0368,-267.8258 906.8174,-244 960.4564,-208.2824 1004.7724,-164.0798 966.8174,-112 953.6549,-93.9392 894.0235,-79.4438 856.0425,-71.8347"/>
<polygon fill="#191970" stroke="#191970" points="856.445,-68.3475 845.9607,-69.8739 855.1086,-75.2187 856.445,-68.3475"/>
</g>
<!-- Node9 -->
<g id="node10" class="node">
<title>Node9</title>
<g id="a_node10"><a xlink:href="Bresenham_8hpp.html" target="_top" xlink:title=" ">
<polygon fill="#ffffff" stroke="#000000" points="807.3174,-168.5 807.3174,-187.5 900.3174,-187.5 900.3174,-168.5 807.3174,-168.5"/>
<text text-anchor="middle" x="853.8174" y="-175.5" font-family="Helvetica,sans-Serif" font-size="10.00" fill="#000000">Bresenham.hpp</text>
</a>
</g>
</g>
<!-- Node1&#45;&gt;Node9 -->
<g id="edge9" class="edge">
<title>Node1&#45;&gt;Node9</title>
<path fill="none" stroke="#191970" d="M472.0145,-288.9314C581.4635,-285.7799 862.9901,-274.7355 890.8174,-244 904.2563,-229.1566 888.5736,-208.5902 873.6844,-194.3787"/>
<polygon fill="#191970" stroke="#191970" points="875.9068,-191.6702 866.129,-187.5902 871.2283,-196.8772 875.9068,-191.6702"/>
</g>
<!-- Node12 -->
<g id="node13" class="node">
<title>Node12</title>
<g id="a_node13"><a xlink:href="CenterPointOutLineIterator_8hpp.html" target="_top" xlink:title=" ">
<polygon fill="#ffffff" stroke="#000000" points="499.3174,-224.5 499.3174,-243.5 666.3174,-243.5 666.3174,-224.5 499.3174,-224.5"/>
<text text-anchor="middle" x="582.8174" y="-231.5" font-family="Helvetica,sans-Serif" font-size="10.00" fill="#000000">CenterPointOutLineIterator.hpp</text>
</a>
</g>
</g>
<!-- Node1&#45;&gt;Node12 -->
<g id="edge17" class="edge">
<title>Node1&#45;&gt;Node12</title>
<path fill="none" stroke="#191970" d="M455.2909,-280.3733C480.6771,-271.1419 519.1818,-257.1402 547.2393,-246.9375"/>
<polygon fill="#191970" stroke="#191970" points="548.4875,-250.2079 556.6893,-243.5011 546.0952,-243.6293 548.4875,-250.2079"/>
</g>
<!-- Node13 -->
<g id="node14" class="node">
<title>Node13</title>
<g id="a_node14"><a xlink:href="HelperStructs_8hpp.html" target="_top" xlink:title=" ">
<polygon fill="#ffffff" stroke="#000000" points="376.8174,-224.5 376.8174,-243.5 480.8174,-243.5 480.8174,-224.5 376.8174,-224.5"/>
<text text-anchor="middle" x="428.8174" y="-231.5" font-family="Helvetica,sans-Serif" font-size="10.00" fill="#000000">HelperStructs.hpp</text>
</a>
</g>
</g>
<!-- Node1&#45;&gt;Node13 -->
<g id="edge19" class="edge">
<title>Node1&#45;&gt;Node13</title>
<path fill="none" stroke="#191970" d="M428.8174,-280.2455C428.8174,-272.9382 428.8174,-262.6944 428.8174,-253.7046"/>
<polygon fill="#191970" stroke="#191970" points="432.3175,-253.6426 428.8174,-243.6427 425.3175,-253.6427 432.3175,-253.6426"/>
</g>
<!-- Node1&#45;&gt;Node15 -->
<g id="edge42" class="edge">
<title>Node1&#45;&gt;Node15</title>
<path fill="none" stroke="#191970" d="M385.4504,-283.7236C338.7877,-276.1575 268.5951,-262.162 248.8174,-244 235.8553,-232.0968 230.198,-212.4977 227.729,-197.7428"/>
<polygon fill="#191970" stroke="#191970" points="231.1706,-197.0689 226.3943,-187.6117 224.2305,-197.9833 231.1706,-197.0689"/>
</g>
<!-- Node16 -->
<g id="node17" class="node">
<title>Node16</title>
<g id="a_node17"><a xlink:href="Matrix_8hpp.html" target="_top" xlink:title=" ">
<polygon fill="#ffffff" stroke="#000000" points="224.8174,-112.5 224.8174,-131.5 292.8174,-131.5 292.8174,-112.5 224.8174,-112.5"/>
<text text-anchor="middle" x="258.8174" y="-119.5" font-family="Helvetica,sans-Serif" font-size="10.00" fill="#000000">Matrix.hpp</text>
</a>
</g>
</g>
<!-- Node1&#45;&gt;Node16 -->
<g id="edge46" class="edge">
<title>Node1&#45;&gt;Node16</title>
<path fill="none" stroke="#191970" d="M385.5829,-283.3436C335.608,-275.0599 256.9973,-260.037 231.8174,-244 198.897,-223.0331 169.1754,-202.2905 187.8174,-168 195.4551,-153.9511 209.4383,-143.5317 222.9882,-136.1958"/>
<polygon fill="#191970" stroke="#191970" points="224.8233,-139.1921 232.2163,-131.603 221.7043,-132.9253 224.8233,-139.1921"/>
</g>
<!-- Node18 -->
<g id="node19" class="node">
<title>Node18</title>
<g id="a_node19"><a xlink:title=" ">
<polygon fill="#ffffff" stroke="#bfbfbf" points="149.8174,-.5 149.8174,-19.5 213.8174,-19.5 213.8174,-.5 149.8174,-.5"/>
<text text-anchor="middle" x="181.8174" y="-7.5" font-family="Helvetica,sans-Serif" font-size="10.00" fill="#000000">algorithm</text>
</a>
</g>
</g>
<!-- Node1&#45;&gt;Node18 -->
<g id="edge47" class="edge">
<title>Node1&#45;&gt;Node18</title>
<path fill="none" stroke="#191970" d="M385.6189,-286.2749C288.3862,-276.8715 57.4156,-248.4894 13.8174,-188 -5.9328,-160.598 -2.7479,-141.4369 13.8174,-112 40.6391,-64.3371 99.7324,-36.3733 140.1717,-22.1254"/>
<polygon fill="#191970" stroke="#191970" points="141.4161,-25.3993 149.7657,-18.8775 139.1714,-18.769 141.4161,-25.3993"/>
</g>
<!-- Node24 -->
<g id="node25" class="node">
<title>Node24</title>
<g id="a_node25"><a xlink:title=" ">
<polygon fill="#ffffff" stroke="#bfbfbf" points="146.8174,-112.5 146.8174,-131.5 206.8174,-131.5 206.8174,-112.5 146.8174,-112.5"/>
<text text-anchor="middle" x="176.8174" y="-119.5" font-family="Helvetica,sans-Serif" font-size="10.00" fill="#000000">iostream</text>
</a>
</g>
</g>
<!-- Node1&#45;&gt;Node24 -->
<g id="edge49" class="edge">
<title>Node1&#45;&gt;Node24</title>
<path fill="none" stroke="#191970" d="M385.6492,-286.3057C327.2776,-280.4933 227.3012,-267.3914 199.8174,-244 170.3881,-218.9529 170.8999,-169.146 173.8485,-141.5482"/>
<polygon fill="#191970" stroke="#191970" points="177.3329,-141.8928 175.1341,-131.5287 170.3898,-141.0019 177.3329,-141.8928"/>
</g>
<!-- Node25 -->
<g id="node26" class="node">
<title>Node25</title>
<g id="a_node26"><a xlink:title=" ">
<polygon fill="#ffffff" stroke="#bfbfbf" points="454.8174,-168.5 454.8174,-187.5 510.8174,-187.5 510.8174,-168.5 454.8174,-168.5"/>
<text text-anchor="middle" x="482.8174" y="-175.5" font-family="Helvetica,sans-Serif" font-size="10.00" fill="#000000">optional</text>
</a>
</g>
</g>
<!-- Node1&#45;&gt;Node25 -->
<g id="edge51" class="edge">
<title>Node1&#45;&gt;Node25</title>
<path fill="none" stroke="#191970" d="M408.1612,-280.3104C385.1014,-268.1195 352.8593,-246.0935 367.8174,-224 372.4742,-217.1217 413.4046,-201.7885 445.1243,-190.7126"/>
<polygon fill="#191970" stroke="#191970" points="446.3166,-194.0037 454.6222,-187.426 444.0275,-187.3886 446.3166,-194.0037"/>
</g>
<!-- Node26 -->
<g id="node27" class="node">
<title>Node26</title>
<g id="a_node27"><a xlink:href="Mask_8hpp.html" target="_top" xlink:title=" ">
<polygon fill="#ffffff" stroke="#000000" points="257.3174,-224.5 257.3174,-243.5 320.3174,-243.5 320.3174,-224.5 257.3174,-224.5"/>
<text text-anchor="middle" x="288.8174" y="-231.5" font-family="Helvetica,sans-Serif" font-size="10.00" fill="#000000">Mask.hpp</text>
</a>
</g>
</g>
<!-- Node1&#45;&gt;Node26 -->
<g id="edge43" class="edge">
<title>Node1&#45;&gt;Node26</title>
<path fill="none" stroke="#191970" d="M404.7505,-280.3733C381.9745,-271.2629 347.583,-257.5062 322.1683,-247.3404"/>
<polygon fill="#191970" stroke="#191970" points="323.1548,-243.9654 312.5702,-243.5011 320.5551,-250.4648 323.1548,-243.9654"/>
</g>
<!-- Node28 -->
<g id="node29" class="node">
<title>Node28</title>
<g id="a_node29"><a xlink:title=" ">
<polygon fill="#ffffff" stroke="#bfbfbf" points="721.8174,-224.5 721.8174,-243.5 771.8174,-243.5 771.8174,-224.5 721.8174,-224.5"/>
<text text-anchor="middle" x="746.8174" y="-231.5" font-family="Helvetica,sans-Serif" font-size="10.00" fill="#000000">cstdint</text>
</a>
</g>
</g>
<!-- Node1&#45;&gt;Node28 -->
<g id="edge48" class="edge">
<title>Node1&#45;&gt;Node28</title>
<path fill="none" stroke="#191970" d="M472.0516,-284.0712C527.0784,-276.2507 624.946,-261.4213 707.8174,-244 709.0871,-243.7331 710.3778,-243.4523 711.6796,-243.161"/>
<polygon fill="#191970" stroke="#191970" points="712.7955,-246.4935 721.718,-240.7803 711.1802,-239.6825 712.7955,-246.4935"/>
</g>
<!-- Node4 -->
<g id="node5" class="node">
<title>Node4</title>
<g id="a_node5"><a xlink:title=" ">
<polygon fill="#ffffff" stroke="#bfbfbf" points="703.8174,-56.5 703.8174,-75.5 745.8174,-75.5 745.8174,-56.5 703.8174,-56.5"/>
<text text-anchor="middle" x="724.8174" y="-63.5" font-family="Helvetica,sans-Serif" font-size="10.00" fill="#000000">array</text>
</a>
</g>
</g>
<!-- Node3&#45;&gt;Node4 -->
<g id="edge4" class="edge">
<title>Node3&#45;&gt;Node4</title>
<path fill="none" stroke="#191970" d="M756.1983,-112.2455C750.9128,-104.4564 743.3632,-93.3308 736.9936,-83.9439"/>
<polygon fill="#191970" stroke="#191970" points="739.8718,-81.9522 731.3606,-75.6427 734.0795,-85.8827 739.8718,-81.9522"/>
</g>
<!-- Node5 -->
<g id="node6" class="node">
<title>Node5</title>
<g id="a_node6"><a xlink:title=" ">
<polygon fill="#ffffff" stroke="#bfbfbf" points="578.3174,-.5 578.3174,-19.5 625.3174,-19.5 625.3174,-.5 578.3174,-.5"/>
<text text-anchor="middle" x="601.8174" y="-7.5" font-family="Helvetica,sans-Serif" font-size="10.00" fill="#000000">cmath</text>
</a>
</g>
</g>
<!-- Node3&#45;&gt;Node5 -->
<g id="edge5" class="edge">
<title>Node3&#45;&gt;Node5</title>
<path fill="none" stroke="#191970" d="M764.6583,-112.2057C766.7163,-98.0668 768.1966,-71.8946 754.8174,-56 739.4538,-37.748 675.651,-23.2545 635.4463,-15.7099"/>
<polygon fill="#191970" stroke="#191970" points="635.9969,-12.2527 625.5309,-13.8997 634.7397,-19.1388 635.9969,-12.2527"/>
</g>
<!-- Node3&#45;&gt;Node6 -->
<g id="edge6" class="edge">
<title>Node3&#45;&gt;Node6</title>
<path fill="none" stroke="#191970" d="M773.4428,-112.2455C782.3647,-104.0549 795.3054,-92.1749 805.8366,-82.5069"/>
<polygon fill="#191970" stroke="#191970" points="808.3141,-84.9837 813.3137,-75.6427 803.5802,-79.8271 808.3141,-84.9837"/>
</g>
<!-- Node7 -->
<g id="node8" class="node">
<title>Node7</title>
<g id="a_node8"><a xlink:title=" ">
<polygon fill="#ffffff" stroke="#bfbfbf" points="445.3174,-56.5 445.3174,-75.5 502.3174,-75.5 502.3174,-56.5 445.3174,-56.5"/>
<text text-anchor="middle" x="473.8174" y="-63.5" font-family="Helvetica,sans-Serif" font-size="10.00" fill="#000000">ostream</text>
</a>
</g>
</g>
<!-- Node3&#45;&gt;Node7 -->
<g id="edge7" class="edge">
<title>Node3&#45;&gt;Node7</title>
<path fill="none" stroke="#191970" d="M730.2272,-115.6849C676.585,-105.2906 569.9273,-84.6234 512.5284,-73.5011"/>
<polygon fill="#191970" stroke="#191970" points="512.8911,-70.0063 502.4078,-71.54 511.5594,-76.8785 512.8911,-70.0063"/>
</g>
<!-- Node8 -->
<g id="node9" class="node">
<title>Node8</title>
<g id="a_node9"><a xlink:href="uint_8hpp.html" target="_top" xlink:title=" ">
<polygon fill="#ffffff" stroke="#000000" points="629.8174,-56.5 629.8174,-75.5 685.8174,-75.5 685.8174,-56.5 629.8174,-56.5"/>
<text text-anchor="middle" x="657.8174" y="-63.5" font-family="Helvetica,sans-Serif" font-size="10.00" fill="#000000">uint.hpp</text>
</a>
</g>
</g>
<!-- Node3&#45;&gt;Node8 -->
<g id="edge8" class="edge">
<title>Node3&#45;&gt;Node8</title>
<path fill="none" stroke="#191970" d="M744.5278,-112.2455C728.0411,-103.4527 703.5822,-90.4079 684.8408,-80.4125"/>
<polygon fill="#191970" stroke="#191970" points="686.368,-77.2604 675.8974,-75.6427 683.0738,-83.4368 686.368,-77.2604"/>
</g>
<!-- Node9&#45;&gt;Node3 -->
<g id="edge10" class="edge">
<title>Node9&#45;&gt;Node3</title>
<path fill="none" stroke="#191970" d="M837.9664,-168.2455C824.0042,-159.6534 803.4446,-147.0014 787.3578,-137.1018"/>
<polygon fill="#191970" stroke="#191970" points="788.8377,-133.9029 778.4867,-131.6427 785.169,-139.8645 788.8377,-133.9029"/>
</g>
<!-- Node9&#45;&gt;Node5 -->
<g id="edge14" class="edge">
<title>Node9&#45;&gt;Node5</title>
<path fill="none" stroke="#191970" d="M857.5916,-168.3899C865.7605,-145.8178 882.2325,-88.8491 854.8174,-56 827.3032,-23.0321 698.2769,-13.6365 635.8376,-11.0026"/>
<polygon fill="#191970" stroke="#191970" points="635.8301,-7.4998 625.7021,-10.6101 635.5591,-14.4946 635.8301,-7.4998"/>
</g>
<!-- Node9&#45;&gt;Node6 -->
<g id="edge15" class="edge">
<title>Node9&#45;&gt;Node6</title>
<path fill="none" stroke="#191970" d="M851.2596,-168.4509C846.3445,-150.1013 835.4935,-109.5908 829.0056,-85.3693"/>
<polygon fill="#191970" stroke="#191970" points="832.3369,-84.2788 826.3687,-75.5249 825.5753,-86.09 832.3369,-84.2788"/>
</g>
<!-- Node10 -->
<g id="node11" class="node">
<title>Node10</title>
<g id="a_node11"><a xlink:href="Pixel_8hpp.html" target="_top" xlink:title=" ">
<polygon fill="#ffffff" stroke="#000000" points="475.8174,-112.5 475.8174,-131.5 537.8174,-131.5 537.8174,-112.5 475.8174,-112.5"/>
<text text-anchor="middle" x="506.8174" y="-119.5" font-family="Helvetica,sans-Serif" font-size="10.00" fill="#000000">Pixel.hpp</text>
</a>
</g>
</g>
<!-- Node9&#45;&gt;Node10 -->
<g id="edge11" class="edge">
<title>Node9&#45;&gt;Node10</title>
<path fill="none" stroke="#191970" d="M807.0194,-170.4476C738.7117,-159.4239 612.7919,-139.1025 547.8851,-128.6276"/>
<polygon fill="#191970" stroke="#191970" points="548.4399,-125.172 538.01,-127.034 547.3246,-132.0826 548.4399,-125.172"/>
</g>
<!-- Node9&#45;&gt;Node11 -->
<g id="edge16" class="edge">
<title>Node9&#45;&gt;Node11</title>
<path fill="none" stroke="#191970" d="M867.0556,-168.2455C878.4983,-159.814 895.247,-147.4729 908.5648,-137.6598"/>
<polygon fill="#191970" stroke="#191970" points="910.7565,-140.3924 916.7309,-131.6427 906.6041,-134.757 910.7565,-140.3924"/>
</g>
<!-- Node10&#45;&gt;Node7 -->
<g id="edge13" class="edge">
<title>Node10&#45;&gt;Node7</title>
<path fill="none" stroke="#191970" d="M501.0692,-112.2455C496.5738,-104.617 490.1925,-93.7881 484.7349,-84.5267"/>
<polygon fill="#191970" stroke="#191970" points="487.592,-82.4811 479.4997,-75.6427 481.5612,-86.035 487.592,-82.4811"/>
</g>
<!-- Node10&#45;&gt;Node8 -->
<g id="edge12" class="edge">
<title>Node10&#45;&gt;Node8</title>
<path fill="none" stroke="#191970" d="M532.7752,-112.3733C557.5581,-103.1822 595.092,-89.2624 622.5714,-79.0713"/>
<polygon fill="#191970" stroke="#191970" points="624.0393,-82.26 632.1983,-75.5011 621.6052,-75.6968 624.0393,-82.26"/>
</g>
<!-- Node12&#45;&gt;Node8 -->
<g id="edge18" class="edge">
<title>Node12&#45;&gt;Node8</title>
<path fill="none" stroke="#191970" d="M608.8705,-224.4544C624.8518,-217.1107 644.0628,-205.2625 653.8174,-188 671.9807,-155.8565 667.2748,-110.9603 662.4144,-85.5557"/>
<polygon fill="#191970" stroke="#191970" points="665.8153,-84.7208 660.3202,-75.6624 658.9671,-86.1705 665.8153,-84.7208"/>
</g>
<!-- Node13&#45;&gt;Node3 -->
<g id="edge20" class="edge">
<title>Node13&#45;&gt;Node3</title>
<path fill="none" stroke="#191970" d="M481.0111,-225.4567C537.2861,-215.8697 622.9547,-200.0793 653.8174,-188 686.6239,-175.1599 720.7944,-152.7546 741.9367,-137.6533"/>
<polygon fill="#191970" stroke="#191970" points="744.1268,-140.3883 750.1581,-131.6776 740.0112,-134.7259 744.1268,-140.3883"/>
</g>
<!-- Node13&#45;&gt;Node10 -->
<g id="edge40" class="edge">
<title>Node13&#45;&gt;Node10</title>
<path fill="none" stroke="#191970" d="M468.6846,-224.3369C487.6528,-217.5199 508.5963,-206.2455 519.8174,-188 528.5804,-173.7514 523.4677,-154.7859 517.2633,-140.8423"/>
<polygon fill="#191970" stroke="#191970" points="520.3152,-139.1185 512.7354,-131.7161 514.0446,-142.2297 520.3152,-139.1185"/>
</g>
<!-- Node14 -->
<g id="node15" class="node">
<title>Node14</title>
<g id="a_node15"><a xlink:href="Degrees_8hpp.html" target="_top" xlink:title=" ">
<polygon fill="#ffffff" stroke="#000000" points="566.8174,-168.5 566.8174,-187.5 644.8174,-187.5 644.8174,-168.5 566.8174,-168.5"/>
<text text-anchor="middle" x="605.8174" y="-175.5" font-family="Helvetica,sans-Serif" font-size="10.00" fill="#000000">Degrees.hpp</text>
</a>
</g>
</g>
<!-- Node13&#45;&gt;Node14 -->
<g id="edge21" class="edge">
<title>Node13&#45;&gt;Node14</title>
<path fill="none" stroke="#191970" d="M459.2447,-224.3733C488.8046,-215.021 533.8399,-200.7725 566.1869,-190.5385"/>
<polygon fill="#191970" stroke="#191970" points="567.3086,-193.8546 575.787,-187.5011 565.197,-187.1807 567.3086,-193.8546"/>
</g>
<!-- Node13&#45;&gt;Node15 -->
<g id="edge23" class="edge">
<title>Node13&#45;&gt;Node15</title>
<path fill="none" stroke="#191970" d="M393.9204,-224.3733C358.0683,-214.483 302.3668,-199.1171 265.0178,-188.8139"/>
<polygon fill="#191970" stroke="#191970" points="265.5726,-185.3363 255.0019,-186.0509 263.711,-192.0842 265.5726,-185.3363"/>
</g>
<!-- Node13&#45;&gt;Node25 -->
<g id="edge41" class="edge">
<title>Node13&#45;&gt;Node25</title>
<path fill="none" stroke="#191970" d="M438.2234,-224.2455C445.9667,-216.2155 457.1294,-204.6394 466.3492,-195.0781"/>
<polygon fill="#191970" stroke="#191970" points="469.0972,-197.2706 473.5191,-187.6427 464.0582,-192.4117 469.0972,-197.2706"/>
</g>
<!-- Node14&#45;&gt;Node5 -->
<g id="edge22" class="edge">
<title>Node14&#45;&gt;Node5</title>
<path fill="none" stroke="#191970" d="M605.5908,-168.4862C604.9585,-141.9293 603.1642,-66.5651 602.2975,-30.1655"/>
<polygon fill="#191970" stroke="#191970" points="605.7885,-29.7417 602.0514,-19.8279 598.7905,-29.9084 605.7885,-29.7417"/>
</g>
<!-- Node15&#45;&gt;Node3 -->
<g id="edge24" class="edge">
<title>Node15&#45;&gt;Node3</title>
<path fill="none" stroke="#191970" d="M255.0436,-173.9983C269.4203,-172.0824 287.0146,-169.8159 302.8174,-168 456.0069,-150.397 638.3481,-133.3071 719.8047,-125.8747"/>
<polygon fill="#191970" stroke="#191970" points="720.513,-129.3248 730.1546,-124.9328 719.8785,-122.3536 720.513,-129.3248"/>
</g>
<!-- Node15&#45;&gt;Node7 -->
<g id="edge38" class="edge">
<title>Node15&#45;&gt;Node7</title>
<path fill="none" stroke="#191970" d="M246.9617,-168.4509C290.979,-148.5722 392.586,-102.6852 443.5358,-79.6756"/>
<polygon fill="#191970" stroke="#191970" points="445.0534,-82.8306 452.7265,-75.5249 442.1723,-76.451 445.0534,-82.8306"/>
</g>
<!-- Node15&#45;&gt;Node10 -->
<g id="edge37" class="edge">
<title>Node15&#45;&gt;Node10</title>
<path fill="none" stroke="#191970" d="M254.9286,-171.074C259.5678,-170.0152 264.3194,-168.9573 268.8174,-168 337.6526,-153.3492 418.116,-138.2101 465.642,-129.4725"/>
<polygon fill="#191970" stroke="#191970" points="466.3492,-132.9013 475.5541,-127.6553 465.0868,-126.0161 466.3492,-132.9013"/>
</g>
<!-- Node15&#45;&gt;Node16 -->
<g id="edge25" class="edge">
<title>Node15&#45;&gt;Node16</title>
<path fill="none" stroke="#191970" d="M231.5655,-168.2455C236.0609,-160.617 242.4422,-149.7881 247.8998,-140.5267"/>
<polygon fill="#191970" stroke="#191970" points="251.0735,-142.035 253.1351,-131.6427 245.0427,-138.4811 251.0735,-142.035"/>
</g>
<!-- Node15&#45;&gt;Node24 -->
<g id="edge39" class="edge">
<title>Node15&#45;&gt;Node24</title>
<path fill="none" stroke="#191970" d="M217.2822,-168.2455C210.3262,-160.2958 200.3291,-148.8706 192.0122,-139.3656"/>
<polygon fill="#191970" stroke="#191970" points="194.4738,-136.8637 185.2547,-131.6427 189.2058,-141.4732 194.4738,-136.8637"/>
</g>
<!-- Node16&#45;&gt;Node5 -->
<g id="edge34" class="edge">
<title>Node16&#45;&gt;Node5</title>
<path fill="none" stroke="#191970" d="M284.1635,-112.4687C329.6495,-95.3838 421.8074,-60.8657 436.8174,-56 481.9383,-41.3733 534.8852,-27.1162 568.3909,-18.4461"/>
<polygon fill="#191970" stroke="#191970" points="569.3216,-21.8207 578.1348,-15.9405 567.5782,-15.0412 569.3216,-21.8207"/>
</g>
<!-- Node16&#45;&gt;Node7 -->
<g id="edge36" class="edge">
<title>Node16&#45;&gt;Node7</title>
<path fill="none" stroke="#191970" d="M292.8848,-113.1266C331.6352,-103.0335 394.7705,-86.589 435.2854,-76.0362"/>
<polygon fill="#191970" stroke="#191970" points="436.2749,-79.3954 445.0698,-73.4877 434.5105,-72.6214 436.2749,-79.3954"/>
</g>
<!-- Node17 -->
<g id="node18" class="node">
<title>Node17</title>
<g id="a_node18"><a xlink:href="Array_8hpp.html" target="_top" xlink:title=" ">
<polygon fill="#ffffff" stroke="#000000" points="309.8174,-56.5 309.8174,-75.5 371.8174,-75.5 371.8174,-56.5 309.8174,-56.5"/>
<text text-anchor="middle" x="340.8174" y="-63.5" font-family="Helvetica,sans-Serif" font-size="10.00" fill="#000000">Array.hpp</text>
</a>
</g>
</g>
<!-- Node16&#45;&gt;Node17 -->
<g id="edge26" class="edge">
<title>Node16&#45;&gt;Node17</title>
<path fill="none" stroke="#191970" d="M273.1007,-112.2455C285.5644,-103.7337 303.8625,-91.2375 318.2965,-81.3801"/>
<polygon fill="#191970" stroke="#191970" points="320.4136,-84.1726 326.6977,-75.6427 316.4658,-78.392 320.4136,-84.1726"/>
</g>
<!-- Node16&#45;&gt;Node18 -->
<g id="edge33" class="edge">
<title>Node16&#45;&gt;Node18</title>
<path fill="none" stroke="#191970" d="M257.8907,-112.2632C256.2019,-98.6532 251.6307,-73.6326 239.8174,-56 231.4949,-43.5778 218.7576,-32.9457 207.3373,-25.0423"/>
<polygon fill="#191970" stroke="#191970" points="209.2374,-22.1029 198.9557,-19.546 205.3987,-27.9566 209.2374,-22.1029"/>
</g>
<!-- Node23 -->
<g id="node24" class="node">
<title>Node23</title>
<g id="a_node24"><a xlink:title=" ">
<polygon fill="#ffffff" stroke="#bfbfbf" points="174.8174,-56.5 174.8174,-75.5 230.8174,-75.5 230.8174,-56.5 174.8174,-56.5"/>
<text text-anchor="middle" x="202.8174" y="-63.5" font-family="Helvetica,sans-Serif" font-size="10.00" fill="#000000">iomanip</text>
</a>
</g>
</g>
<!-- Node16&#45;&gt;Node23 -->
<g id="edge35" class="edge">
<title>Node16&#45;&gt;Node23</title>
<path fill="none" stroke="#191970" d="M249.0629,-112.2455C240.9526,-104.1352 229.2249,-92.4075 219.6093,-82.7919"/>
<polygon fill="#191970" stroke="#191970" points="222.006,-80.2389 212.46,-75.6427 217.0563,-85.1887 222.006,-80.2389"/>
</g>
<!-- Node17&#45;&gt;Node5 -->
<g id="edge28" class="edge">
<title>Node17&#45;&gt;Node5</title>
<path fill="none" stroke="#191970" d="M372.0408,-59.3007C421.5364,-48.681 517.5948,-28.0707 568.4178,-17.1662"/>
<polygon fill="#191970" stroke="#191970" points="569.2046,-20.5771 578.2478,-15.0571 567.7361,-13.7329 569.2046,-20.5771"/>
</g>
<!-- Node17&#45;&gt;Node18 -->
<g id="edge27" class="edge">
<title>Node17&#45;&gt;Node18</title>
<path fill="none" stroke="#191970" d="M313.4843,-56.3733C287.2739,-47.1419 247.519,-33.1402 218.5505,-22.9375"/>
<polygon fill="#191970" stroke="#191970" points="219.3886,-19.5219 208.7938,-19.5011 217.0631,-26.1244 219.3886,-19.5219"/>
</g>
<!-- Node19 -->
<g id="node20" class="node">
<title>Node19</title>
<g id="a_node20"><a xlink:title=" ">
<polygon fill="#ffffff" stroke="#bfbfbf" points="464.3174,-.5 464.3174,-19.5 517.3174,-19.5 517.3174,-.5 464.3174,-.5"/>
<text text-anchor="middle" x="490.8174" y="-7.5" font-family="Helvetica,sans-Serif" font-size="10.00" fill="#000000">cstddef</text>
</a>
</g>
</g>
<!-- Node17&#45;&gt;Node19 -->
<g id="edge29" class="edge">
<title>Node17&#45;&gt;Node19</title>
<path fill="none" stroke="#191970" d="M366.6033,-56.3733C391.2221,-47.1822 428.5074,-33.2624 455.8048,-23.0713"/>
<polygon fill="#191970" stroke="#191970" points="457.2237,-26.2777 465.3679,-19.5011 454.7753,-19.7198 457.2237,-26.2777"/>
</g>
<!-- Node20 -->
<g id="node21" class="node">
<title>Node20</title>
<g id="a_node21"><a xlink:title=" ">
<polygon fill="#ffffff" stroke="#bfbfbf" points="231.8174,-.5 231.8174,-19.5 287.8174,-19.5 287.8174,-.5 231.8174,-.5"/>
<text text-anchor="middle" x="259.8174" y="-7.5" font-family="Helvetica,sans-Serif" font-size="10.00" fill="#000000">numeric</text>
</a>
</g>
</g>
<!-- Node17&#45;&gt;Node20 -->
<g id="edge30" class="edge">
<title>Node17&#45;&gt;Node20</title>
<path fill="none" stroke="#191970" d="M326.7082,-56.2455C314.3965,-47.7337 296.3216,-35.2375 282.0636,-25.3801"/>
<polygon fill="#191970" stroke="#191970" points="283.9808,-22.4506 273.7648,-19.6427 280,-28.2085 283.9808,-22.4506"/>
</g>
<!-- Node21 -->
<g id="node22" class="node">
<title>Node21</title>
<g id="a_node22"><a xlink:title=" ">
<polygon fill="#ffffff" stroke="#bfbfbf" points="306.3174,-.5 306.3174,-19.5 375.3174,-19.5 375.3174,-.5 306.3174,-.5"/>
<text text-anchor="middle" x="340.8174" y="-7.5" font-family="Helvetica,sans-Serif" font-size="10.00" fill="#000000">type_traits</text>
</a>
</g>
</g>
<!-- Node17&#45;&gt;Node21 -->
<g id="edge31" class="edge">
<title>Node17&#45;&gt;Node21</title>
<path fill="none" stroke="#191970" d="M340.8174,-56.2455C340.8174,-48.9382 340.8174,-38.6944 340.8174,-29.7046"/>
<polygon fill="#191970" stroke="#191970" points="344.3175,-29.6426 340.8174,-19.6427 337.3175,-29.6427 344.3175,-29.6426"/>
</g>
<!-- Node22 -->
<g id="node23" class="node">
<title>Node22</title>
<g id="a_node23"><a xlink:title=" ">
<polygon fill="#ffffff" stroke="#bfbfbf" points="393.8174,-.5 393.8174,-19.5 445.8174,-19.5 445.8174,-.5 393.8174,-.5"/>
<text text-anchor="middle" x="419.8174" y="-7.5" font-family="Helvetica,sans-Serif" font-size="10.00" fill="#000000">cassert</text>
</a>
</g>
</g>
<!-- Node17&#45;&gt;Node22 -->
<g id="edge32" class="edge">
<title>Node17&#45;&gt;Node22</title>
<path fill="none" stroke="#191970" d="M354.5781,-56.2455C366.4726,-47.814 383.8824,-35.4729 397.7259,-25.6598"/>
<polygon fill="#191970" stroke="#191970" points="400.0802,-28.2811 406.2143,-19.6427 396.032,-22.5704 400.0802,-28.2811"/>
</g>
<!-- Node26&#45;&gt;Node10 -->
<g id="edge44" class="edge">
<title>Node26&#45;&gt;Node10</title>
<path fill="none" stroke="#191970" d="M287.896,-224.4466C287.0823,-210.1287 287.8396,-183.1701 302.8174,-168 325.1766,-145.3537 412.582,-132.1517 465.4587,-126.0794"/>
<polygon fill="#191970" stroke="#191970" points="465.9916,-129.5418 475.5441,-124.9593 465.2189,-122.5846 465.9916,-129.5418"/>
</g>
<!-- Node27 -->
<g id="node28" class="node">
<title>Node27</title>
<g id="a_node28"><a xlink:title=" ">
<polygon fill="#ffffff" stroke="#bfbfbf" points="311.3174,-168.5 311.3174,-187.5 436.3174,-187.5 436.3174,-168.5 311.3174,-168.5"/>
<text text-anchor="middle" x="373.8174" y="-175.5" font-family="Helvetica,sans-Serif" font-size="10.00" fill="#000000">opencv2/core/mat.hpp</text>
</a>
</g>
</g>
<!-- Node26&#45;&gt;Node27 -->
<g id="edge45" class="edge">
<title>Node26&#45;&gt;Node27</title>
<path fill="none" stroke="#191970" d="M303.6232,-224.2455C316.543,-215.7337 335.5105,-203.2375 350.4726,-193.3801"/>
<polygon fill="#191970" stroke="#191970" points="352.7561,-196.067 359.1812,-187.6427 348.905,-190.2216 352.7561,-196.067"/>
</g>
<!-- Node29&#45;&gt;Node16 -->
<g id="edge56" class="edge">
<title>Node29&#45;&gt;Node16</title>
<path fill="none" stroke="#191970" d="M96.511,-168.3733C129.5261,-158.9404 179.9746,-144.5265 215.8559,-134.2747"/>
<polygon fill="#191970" stroke="#191970" points="216.9097,-137.6137 225.5634,-131.5011 214.9866,-130.8831 216.9097,-137.6137"/>
</g>
<!-- Node29&#45;&gt;Node24 -->
<g id="edge55" class="edge">
<title>Node29&#45;&gt;Node24</title>
<path fill="none" stroke="#191970" d="M82.4147,-168.3733C100.5505,-159.4644 127.7309,-146.1127 148.2761,-136.0203"/>
<polygon fill="#191970" stroke="#191970" points="150.0434,-139.0517 157.4758,-131.5011 146.9571,-132.7688 150.0434,-139.0517"/>
</g>
<!-- Node30 -->
<g id="node31" class="node">
<title>Node30</title>
<g id="a_node31"><a xlink:title=" ">
<polygon fill="#ffffff" stroke="#bfbfbf" points="22.8174,-112.5 22.8174,-131.5 128.8174,-131.5 128.8174,-112.5 22.8174,-112.5"/>
<text text-anchor="middle" x="75.8174" y="-119.5" font-family="Helvetica,sans-Serif" font-size="10.00" fill="#000000">pybind11/numpy.h</text>
</a>
</g>
</g>
<!-- Node29&#45;&gt;Node30 -->
<g id="edge54" class="edge">
<title>Node29&#45;&gt;Node30</title>
<path fill="none" stroke="#191970" d="M65.0818,-168.2455C66.7968,-160.8579 69.2085,-150.4689 71.3118,-141.4087"/>
<polygon fill="#191970" stroke="#191970" points="74.7269,-142.1751 73.5789,-131.6427 67.9082,-140.5922 74.7269,-142.1751"/>
</g>
</g>
</svg>
