<?xml version="1.0" encoding="UTF-8" standalone="no"?>
<!DOCTYPE svg PUBLIC "-//W3C//DTD SVG 1.1//EN"
 "http://www.w3.org/Graphics/SVG/1.1/DTD/svg11.dtd">
<!-- Generated by graphviz version 2.40.1 (20161225.0304)
 -->
<!-- Title: /home/pieter/GitHub/EAGLE&#45;ZYBO&#45;Linux/src/grid&#45;finder/include/GridFinder.hpp Pages: 1 -->
<svg width="1062pt" height="330pt"
 viewBox="0.00 0.00 1062.00 330.00" xmlns="http://www.w3.org/2000/svg" xmlns:xlink="http://www.w3.org/1999/xlink">
<g id="graph0" class="graph" transform="scale(1 1) rotate(0) translate(4 326)">
<title>/home/pieter/GitHub/EAGLE&#45;ZYBO&#45;Linux/src/grid&#45;finder/include/GridFinder.hpp</title>
<polygon fill="#ffffff" stroke="transparent" points="-4,4 -4,-326 1058,-326 1058,4 -4,4"/>
<!-- Node0 -->
<g id="node1" class="node">
<title>Node0</title>
<g id="a_node1"><a xlink:title=" ">
<polygon fill="#bfbfbf" stroke="#000000" points="519.5,-280.5 519.5,-321.5 700.5,-321.5 700.5,-280.5 519.5,-280.5"/>
<text text-anchor="start" x="527.5" y="-309.5" font-family="Helvetica,sans-Serif" font-size="10.00" fill="#000000">/home/pieter/GitHub</text>
<text text-anchor="start" x="527.5" y="-298.5" font-family="Helvetica,sans-Serif" font-size="10.00" fill="#000000">/EAGLE&#45;ZYBO&#45;Linux/src</text>
<text text-anchor="middle" x="610" y="-287.5" font-family="Helvetica,sans-Serif" font-size="10.00" fill="#000000">/grid&#45;finder/include/GridFinder.hpp</text>
</a>
</g>
</g>
<!-- Node1 -->
<g id="node2" class="node">
<title>Node1</title>
<g id="a_node2"><a xlink:href="ANSIColors_8hpp.html" target="_top" xlink:title=" ">
<polygon fill="#ffffff" stroke="#000000" points="0,-224.5 0,-243.5 92,-243.5 92,-224.5 0,-224.5"/>
<text text-anchor="middle" x="46" y="-231.5" font-family="Helvetica,sans-Serif" font-size="10.00" fill="#000000">ANSIColors.hpp</text>
</a>
</g>
</g>
<!-- Node0&#45;&gt;Node1 -->
<g id="edge1" class="edge">
<title>Node0&#45;&gt;Node1</title>
<path fill="none" stroke="#191970" d="M519.2288,-292.1841C418.1817,-282.033 250.1144,-264.1447 106,-244 104.7352,-243.8232 103.4559,-243.6408 102.1665,-243.4537"/>
<polygon fill="#191970" stroke="#191970" points="102.5605,-239.9736 92.1503,-241.9428 101.5163,-246.8953 102.5605,-239.9736"/>
</g>
<!-- Node2 -->
<g id="node3" class="node">
<title>Node2</title>
<g id="a_node3"><a xlink:href="Angle_8hpp.html" target="_top" xlink:title=" ">
<polygon fill="#ffffff" stroke="#000000" points="423.5,-112.5 423.5,-131.5 488.5,-131.5 488.5,-112.5 423.5,-112.5"/>
<text text-anchor="middle" x="456" y="-119.5" font-family="Helvetica,sans-Serif" font-size="10.00" fill="#000000">Angle.hpp</text>
</a>
</g>
</g>
<!-- Node0&#45;&gt;Node2 -->
<g id="edge2" class="edge">
<title>Node0&#45;&gt;Node2</title>
<path fill="none" stroke="#191970" d="M519.4635,-281.7103C433.9525,-261.4103 314.895,-227.0263 288,-188 282.956,-180.6808 282.6081,-175.0668 288,-168 303.146,-148.1494 368.658,-134.7677 413.2549,-127.7691"/>
<polygon fill="#191970" stroke="#191970" points="413.9008,-131.2112 423.2621,-126.2498 412.85,-124.2906 413.9008,-131.2112"/>
</g>
<!-- Node5 -->
<g id="node6" class="node">
<title>Node5</title>
<g id="a_node6"><a xlink:title=" ">
<polygon fill="#ffffff" stroke="#bfbfbf" points="219,-56.5 219,-75.5 263,-75.5 263,-56.5 219,-56.5"/>
<text text-anchor="middle" x="241" y="-63.5" font-family="Helvetica,sans-Serif" font-size="10.00" fill="#000000">limits</text>
</a>
</g>
</g>
<!-- Node0&#45;&gt;Node5 -->
<g id="edge47" class="edge">
<title>Node0&#45;&gt;Node5</title>
<path fill="none" stroke="#191970" d="M519.3525,-291.9122C423.4829,-281.5216 279.0383,-263.4233 227,-244 183.568,-227.789 161.3083,-228.6384 139,-188 129.9168,-171.4534 135.6512,-128.7458 148,-112 162.6998,-92.0661 188.438,-80.2752 209.1163,-73.6306"/>
<polygon fill="#191970" stroke="#191970" points="210.194,-76.9618 218.7905,-70.769 208.2084,-70.2493 210.194,-76.9618"/>
</g>
<!-- Node8 -->
<g id="node9" class="node">
<title>Node8</title>
<g id="a_node9"><a xlink:href="Bresenham_8hpp.html" target="_top" xlink:title=" ">
<polygon fill="#ffffff" stroke="#000000" points="148.5,-168.5 148.5,-187.5 241.5,-187.5 241.5,-168.5 148.5,-168.5"/>
<text text-anchor="middle" x="195" y="-175.5" font-family="Helvetica,sans-Serif" font-size="10.00" fill="#000000">Bresenham.hpp</text>
</a>
</g>
</g>
<!-- Node0&#45;&gt;Node8 -->
<g id="edge8" class="edge">
<title>Node0&#45;&gt;Node8</title>
<path fill="none" stroke="#191970" d="M519.4243,-293.185C429.9925,-284.2734 300.3686,-267.791 256,-244 235.0474,-232.7649 217.4263,-211.5219 206.5938,-196.165"/>
<polygon fill="#191970" stroke="#191970" points="209.2489,-193.8419 200.7573,-187.506 203.4443,-197.7544 209.2489,-193.8419"/>
</g>
<!-- Node11 -->
<g id="node12" class="node">
<title>Node11</title>
<g id="a_node12"><a xlink:href="CenterPointOutLineIterator_8hpp.html" target="_top" xlink:title=" ">
<polygon fill="#ffffff" stroke="#000000" points="297.5,-168.5 297.5,-187.5 464.5,-187.5 464.5,-168.5 297.5,-168.5"/>
<text text-anchor="middle" x="381" y="-175.5" font-family="Helvetica,sans-Serif" font-size="10.00" fill="#000000">CenterPointOutLineIterator.hpp</text>
</a>
</g>
</g>
<!-- Node0&#45;&gt;Node11 -->
<g id="edge16" class="edge">
<title>Node0&#45;&gt;Node11</title>
<path fill="none" stroke="#191970" d="M549.4076,-280.4578C523.8834,-270.8073 494.2935,-258.2758 469,-244 443.5076,-229.612 416.994,-208.7923 399.8212,-194.4011"/>
<polygon fill="#191970" stroke="#191970" points="401.6311,-191.3455 391.7473,-187.5295 397.0942,-196.6762 401.6311,-191.3455"/>
</g>
<!-- Node12 -->
<g id="node13" class="node">
<title>Node12</title>
<g id="a_node13"><a xlink:href="HelperStructs_8hpp.html" target="_top" xlink:title=" ">
<polygon fill="#ffffff" stroke="#000000" points="478,-224.5 478,-243.5 582,-243.5 582,-224.5 478,-224.5"/>
<text text-anchor="middle" x="530" y="-231.5" font-family="Helvetica,sans-Serif" font-size="10.00" fill="#000000">HelperStructs.hpp</text>
</a>
</g>
</g>
<!-- Node0&#45;&gt;Node12 -->
<g id="edge18" class="edge">
<title>Node0&#45;&gt;Node12</title>
<path fill="none" stroke="#191970" d="M585.126,-280.168C573.6892,-270.5897 560.3177,-259.3911 549.6083,-250.422"/>
<polygon fill="#191970" stroke="#191970" points="551.5919,-247.5179 541.6782,-243.7805 547.0974,-252.8845 551.5919,-247.5179"/>
</g>
<!-- Node13 -->
<g id="node14" class="node">
<title>Node13</title>
<g id="a_node14"><a xlink:href="Line_8hpp.html" target="_top" xlink:title=" ">
<polygon fill="#ffffff" stroke="#000000" points="670,-168.5 670,-187.5 728,-187.5 728,-168.5 670,-168.5"/>
<text text-anchor="middle" x="699" y="-175.5" font-family="Helvetica,sans-Serif" font-size="10.00" fill="#000000">Line.hpp</text>
</a>
</g>
</g>
<!-- Node0&#45;&gt;Node13 -->
<g id="edge39" class="edge">
<title>Node0&#45;&gt;Node13</title>
<path fill="none" stroke="#191970" d="M624.8966,-280.4126C642.0326,-256.7303 669.887,-218.2348 686.1224,-195.7972"/>
<polygon fill="#191970" stroke="#191970" points="689.0863,-197.6715 692.1129,-187.5182 683.4152,-193.568 689.0863,-197.6715"/>
</g>
<!-- Node14 -->
<g id="node15" class="node">
<title>Node14</title>
<g id="a_node15"><a xlink:href="Matrix_8hpp.html" target="_top" xlink:title=" ">
<polygon fill="#ffffff" stroke="#000000" points="747,-112.5 747,-131.5 815,-131.5 815,-112.5 747,-112.5"/>
<text text-anchor="middle" x="781" y="-119.5" font-family="Helvetica,sans-Serif" font-size="10.00" fill="#000000">Matrix.hpp</text>
</a>
</g>
</g>
<!-- Node0&#45;&gt;Node14 -->
<g id="edge43" class="edge">
<title>Node0&#45;&gt;Node14</title>
<path fill="none" stroke="#191970" d="M700.5707,-292.4446C747.6772,-284.8946 804.7137,-270.6946 850,-244 879.0002,-226.9054 888.8471,-219.3933 901,-188 914.6604,-152.7124 864.9602,-135.7921 825.3983,-128.0399"/>
<polygon fill="#191970" stroke="#191970" points="825.8097,-124.5576 815.3458,-126.2179 824.5612,-131.4453 825.8097,-124.5576"/>
</g>
<!-- Node16 -->
<g id="node17" class="node">
<title>Node16</title>
<g id="a_node17"><a xlink:title=" ">
<polygon fill="#ffffff" stroke="#bfbfbf" points="901,-.5 901,-19.5 965,-19.5 965,-.5 901,-.5"/>
<text text-anchor="middle" x="933" y="-7.5" font-family="Helvetica,sans-Serif" font-size="10.00" fill="#000000">algorithm</text>
</a>
</g>
</g>
<!-- Node0&#45;&gt;Node16 -->
<g id="edge44" class="edge">
<title>Node0&#45;&gt;Node16</title>
<path fill="none" stroke="#191970" d="M700.9422,-288.8068C809.3377,-271.6674 976,-235.9005 976,-178 976,-178 976,-178 976,-122 976,-87.1403 957.6207,-49.9899 944.8941,-28.444"/>
<polygon fill="#191970" stroke="#191970" points="947.7451,-26.3983 939.5308,-19.7069 941.7794,-30.0603 947.7451,-26.3983"/>
</g>
<!-- Node22 -->
<g id="node23" class="node">
<title>Node22</title>
<g id="a_node23"><a xlink:title=" ">
<polygon fill="#ffffff" stroke="#bfbfbf" points="669,-112.5 669,-131.5 729,-131.5 729,-112.5 669,-112.5"/>
<text text-anchor="middle" x="699" y="-119.5" font-family="Helvetica,sans-Serif" font-size="10.00" fill="#000000">iostream</text>
</a>
</g>
</g>
<!-- Node0&#45;&gt;Node22 -->
<g id="edge46" class="edge">
<title>Node0&#45;&gt;Node22</title>
<path fill="none" stroke="#191970" d="M700.5779,-289.43C762.8655,-276.2241 841.2535,-248.0376 881,-188 932.3952,-110.367 924.5346,-176.961 739.0662,-132.2023"/>
<polygon fill="#191970" stroke="#191970" points="739.7786,-128.773 729.2303,-129.7653 738.0951,-135.5676 739.7786,-128.773"/>
</g>
<!-- Node23 -->
<g id="node24" class="node">
<title>Node23</title>
<g id="a_node24"><a xlink:title=" ">
<polygon fill="#ffffff" stroke="#bfbfbf" points="558,-168.5 558,-187.5 614,-187.5 614,-168.5 558,-168.5"/>
<text text-anchor="middle" x="586" y="-175.5" font-family="Helvetica,sans-Serif" font-size="10.00" fill="#000000">optional</text>
</a>
</g>
</g>
<!-- Node0&#45;&gt;Node23 -->
<g id="edge48" class="edge">
<title>Node0&#45;&gt;Node23</title>
<path fill="none" stroke="#191970" d="M605.9829,-280.4126C601.4852,-257.3618 594.2492,-220.2774 589.8294,-197.6259"/>
<polygon fill="#191970" stroke="#191970" points="593.2076,-196.6628 587.8572,-187.5182 586.3372,-198.0034 593.2076,-196.6628"/>
</g>
<!-- Node24 -->
<g id="node25" class="node">
<title>Node24</title>
<g id="a_node25"><a xlink:href="Mask_8hpp.html" target="_top" xlink:title=" ">
<polygon fill="#ffffff" stroke="#000000" points="676.5,-224.5 676.5,-243.5 739.5,-243.5 739.5,-224.5 676.5,-224.5"/>
<text text-anchor="middle" x="708" y="-231.5" font-family="Helvetica,sans-Serif" font-size="10.00" fill="#000000">Mask.hpp</text>
</a>
</g>
</g>
<!-- Node0&#45;&gt;Node24 -->
<g id="edge40" class="edge">
<title>Node0&#45;&gt;Node24</title>
<path fill="none" stroke="#191970" d="M640.2029,-280.3511C654.7338,-270.4167 671.8642,-258.7051 685.2701,-249.5398"/>
<polygon fill="#191970" stroke="#191970" points="687.5985,-252.1878 693.8783,-243.6546 683.6478,-246.4092 687.5985,-252.1878"/>
</g>
<!-- Node26 -->
<g id="node27" class="node">
<title>Node26</title>
<g id="a_node27"><a xlink:title=" ">
<polygon fill="#ffffff" stroke="#bfbfbf" points="1004,-224.5 1004,-243.5 1054,-243.5 1054,-224.5 1004,-224.5"/>
<text text-anchor="middle" x="1029" y="-231.5" font-family="Helvetica,sans-Serif" font-size="10.00" fill="#000000">cstdint</text>
</a>
</g>
</g>
<!-- Node0&#45;&gt;Node26 -->
<g id="edge45" class="edge">
<title>Node0&#45;&gt;Node26</title>
<path fill="none" stroke="#191970" d="M700.6694,-290.0475C777.9429,-280.0819 891.7647,-263.9078 990,-244 991.2716,-243.7423 992.5639,-243.4694 993.8672,-243.1848"/>
<polygon fill="#191970" stroke="#191970" points="994.9722,-246.5209 1003.9118,-240.8345 993.3774,-239.705 994.9722,-246.5209"/>
</g>
<!-- Node3 -->
<g id="node4" class="node">
<title>Node3</title>
<g id="a_node4"><a xlink:title=" ">
<polygon fill="#ffffff" stroke="#bfbfbf" points="391,-56.5 391,-75.5 433,-75.5 433,-56.5 391,-56.5"/>
<text text-anchor="middle" x="412" y="-63.5" font-family="Helvetica,sans-Serif" font-size="10.00" fill="#000000">array</text>
</a>
</g>
</g>
<!-- Node2&#45;&gt;Node3 -->
<g id="edge3" class="edge">
<title>Node2&#45;&gt;Node3</title>
<path fill="none" stroke="#191970" d="M448.3358,-112.2455C442.1527,-104.3761 433.2937,-93.101 425.8711,-83.6542"/>
<polygon fill="#191970" stroke="#191970" points="428.5068,-81.3435 419.5764,-75.6427 423.0025,-85.6683 428.5068,-81.3435"/>
</g>
<!-- Node4 -->
<g id="node5" class="node">
<title>Node4</title>
<g id="a_node5"><a xlink:title=" ">
<polygon fill="#ffffff" stroke="#bfbfbf" points="485.5,-.5 485.5,-19.5 532.5,-19.5 532.5,-.5 485.5,-.5"/>
<text text-anchor="middle" x="509" y="-7.5" font-family="Helvetica,sans-Serif" font-size="10.00" fill="#000000">cmath</text>
</a>
</g>
</g>
<!-- Node2&#45;&gt;Node4 -->
<g id="edge4" class="edge">
<title>Node2&#45;&gt;Node4</title>
<path fill="none" stroke="#191970" d="M458.8001,-112.3377C462.7547,-99.2387 470.5575,-75.2695 480,-56 484.7085,-46.3912 490.9324,-36.2738 496.4069,-27.9816"/>
<polygon fill="#191970" stroke="#191970" points="499.43,-29.7597 502.1485,-19.5196 493.6375,-25.8294 499.43,-29.7597"/>
</g>
<!-- Node2&#45;&gt;Node5 -->
<g id="edge5" class="edge">
<title>Node2&#45;&gt;Node5</title>
<path fill="none" stroke="#191970" d="M423.3461,-113.4948C382.6057,-102.8833 313.393,-84.8558 272.9728,-74.3278"/>
<polygon fill="#191970" stroke="#191970" points="273.6689,-70.8924 263.1096,-71.7588 271.9045,-77.6664 273.6689,-70.8924"/>
</g>
<!-- Node6 -->
<g id="node7" class="node">
<title>Node6</title>
<g id="a_node7"><a xlink:title=" ">
<polygon fill="#ffffff" stroke="#bfbfbf" points="563.5,-56.5 563.5,-75.5 620.5,-75.5 620.5,-56.5 563.5,-56.5"/>
<text text-anchor="middle" x="592" y="-63.5" font-family="Helvetica,sans-Serif" font-size="10.00" fill="#000000">ostream</text>
</a>
</g>
</g>
<!-- Node2&#45;&gt;Node6 -->
<g id="edge6" class="edge">
<title>Node2&#45;&gt;Node6</title>
<path fill="none" stroke="#191970" d="M479.3792,-112.3733C501.5045,-103.2629 534.9134,-89.5062 559.6019,-79.3404"/>
<polygon fill="#191970" stroke="#191970" points="561.0117,-82.5451 568.9258,-75.5011 558.3464,-76.0723 561.0117,-82.5451"/>
</g>
<!-- Node7 -->
<g id="node8" class="node">
<title>Node7</title>
<g id="a_node8"><a xlink:href="uint_8hpp.html" target="_top" xlink:title=" ">
<polygon fill="#ffffff" stroke="#000000" points="489,-56.5 489,-75.5 545,-75.5 545,-56.5 489,-56.5"/>
<text text-anchor="middle" x="517" y="-63.5" font-family="Helvetica,sans-Serif" font-size="10.00" fill="#000000">uint.hpp</text>
</a>
</g>
</g>
<!-- Node2&#45;&gt;Node7 -->
<g id="edge7" class="edge">
<title>Node2&#45;&gt;Node7</title>
<path fill="none" stroke="#191970" d="M466.6254,-112.2455C475.5473,-104.0549 488.488,-92.1749 499.0192,-82.5069"/>
<polygon fill="#191970" stroke="#191970" points="501.4968,-84.9837 506.4964,-75.6427 496.7629,-79.8271 501.4968,-84.9837"/>
</g>
<!-- Node8&#45;&gt;Node2 -->
<g id="edge9" class="edge">
<title>Node8&#45;&gt;Node2</title>
<path fill="none" stroke="#191970" d="M239.5709,-168.4369C288.1309,-158.0179 365.2664,-141.4678 413.1416,-131.1957"/>
<polygon fill="#191970" stroke="#191970" points="414.1415,-134.5609 423.1847,-129.0408 412.673,-127.7166 414.1415,-134.5609"/>
</g>
<!-- Node8&#45;&gt;Node4 -->
<g id="edge13" class="edge">
<title>Node8&#45;&gt;Node4</title>
<path fill="none" stroke="#191970" d="M207.5315,-168.3426C236.7627,-146.1558 312.281,-90.7844 382,-56 412.5657,-40.7501 449.4653,-27.9616 475.5948,-19.7707"/>
<polygon fill="#191970" stroke="#191970" points="476.8623,-23.0427 485.391,-16.7569 474.8039,-16.3522 476.8623,-23.0427"/>
</g>
<!-- Node8&#45;&gt;Node5 -->
<g id="edge14" class="edge">
<title>Node8&#45;&gt;Node5</title>
<path fill="none" stroke="#191970" d="M201.7639,-168.1523C207.7461,-159.0886 216.374,-145.104 222,-132 228.468,-116.9347 233.4692,-99.0127 236.7134,-85.6489"/>
<polygon fill="#191970" stroke="#191970" points="240.1806,-86.1891 239.0188,-75.6581 233.3599,-84.6151 240.1806,-86.1891"/>
</g>
<!-- Node9 -->
<g id="node10" class="node">
<title>Node9</title>
<g id="a_node10"><a xlink:href="Pixel_8hpp.html" target="_top" xlink:title=" ">
<polygon fill="#ffffff" stroke="#000000" points="548,-112.5 548,-131.5 610,-131.5 610,-112.5 548,-112.5"/>
<text text-anchor="middle" x="579" y="-119.5" font-family="Helvetica,sans-Serif" font-size="10.00" fill="#000000">Pixel.hpp</text>
</a>
</g>
</g>
<!-- Node8&#45;&gt;Node9 -->
<g id="edge10" class="edge">
<title>Node8&#45;&gt;Node9</title>
<path fill="none" stroke="#191970" d="M241.702,-171.1893C317.4286,-160.1458 465.7755,-138.5119 537.8032,-128.0079"/>
<polygon fill="#191970" stroke="#191970" points="538.4685,-131.4479 547.8588,-126.5414 537.4583,-124.5212 538.4685,-131.4479"/>
</g>
<!-- Node10 -->
<g id="node11" class="node">
<title>Node10</title>
<g id="a_node11"><a xlink:title=" ">
<polygon fill="#ffffff" stroke="#bfbfbf" points="157,-112.5 157,-131.5 213,-131.5 213,-112.5 157,-112.5"/>
<text text-anchor="middle" x="185" y="-119.5" font-family="Helvetica,sans-Serif" font-size="10.00" fill="#000000">sstream</text>
</a>
</g>
</g>
<!-- Node8&#45;&gt;Node10 -->
<g id="edge15" class="edge">
<title>Node8&#45;&gt;Node10</title>
<path fill="none" stroke="#191970" d="M193.2581,-168.2455C191.9533,-160.9382 190.124,-150.6944 188.5187,-141.7046"/>
<polygon fill="#191970" stroke="#191970" points="191.9254,-140.8717 186.7219,-131.6427 185.0344,-142.1022 191.9254,-140.8717"/>
</g>
<!-- Node9&#45;&gt;Node6 -->
<g id="edge12" class="edge">
<title>Node9&#45;&gt;Node6</title>
<path fill="none" stroke="#191970" d="M581.2644,-112.2455C582.9794,-104.8579 585.3912,-94.4689 587.4944,-85.4087"/>
<polygon fill="#191970" stroke="#191970" points="590.9095,-86.1751 589.7615,-75.6427 584.0908,-84.5922 590.9095,-86.1751"/>
</g>
<!-- Node9&#45;&gt;Node7 -->
<g id="edge11" class="edge">
<title>Node9&#45;&gt;Node7</title>
<path fill="none" stroke="#191970" d="M568.2004,-112.2455C559.1322,-104.0549 545.9794,-92.1749 535.2755,-82.5069"/>
<polygon fill="#191970" stroke="#191970" points="537.4429,-79.7482 527.6758,-75.6427 532.7509,-84.9429 537.4429,-79.7482"/>
</g>
<!-- Node11&#45;&gt;Node7 -->
<g id="edge17" class="edge">
<title>Node11&#45;&gt;Node7</title>
<path fill="none" stroke="#191970" d="M431.5728,-168.4552C454.3533,-161.7696 479.9117,-150.5744 497,-132 508.5134,-119.4853 513.4076,-100.5414 515.4834,-86.1545"/>
<polygon fill="#191970" stroke="#191970" points="519.0075,-86.1249 516.6165,-75.8034 512.049,-85.3631 519.0075,-86.1249"/>
</g>
<!-- Node12&#45;&gt;Node2 -->
<g id="edge19" class="edge">
<title>Node12&#45;&gt;Node2</title>
<path fill="none" stroke="#191970" d="M523.6908,-224.4509C511.3485,-205.7707 483.8318,-164.1238 467.9432,-140.0761"/>
<polygon fill="#191970" stroke="#191970" points="470.726,-137.9388 462.2932,-131.5249 464.8857,-141.7977 470.726,-137.9388"/>
</g>
<!-- Node12&#45;&gt;Node9 -->
<g id="edge37" class="edge">
<title>Node12&#45;&gt;Node9</title>
<path fill="none" stroke="#191970" d="M531.8488,-224.2831C534.5626,-211.1223 540.2688,-187.0831 549,-168 553.4385,-158.2991 559.7281,-148.2907 565.4027,-140.0968"/>
<polygon fill="#191970" stroke="#191970" points="568.4223,-141.8925 571.4169,-131.7297 562.7383,-137.8069 568.4223,-141.8925"/>
</g>
<!-- Node12&#45;&gt;Node13 -->
<g id="edge20" class="edge">
<title>Node12&#45;&gt;Node13</title>
<path fill="none" stroke="#191970" d="M559.0521,-224.3733C587.1543,-215.0613 629.9054,-200.8953 660.7607,-190.671"/>
<polygon fill="#191970" stroke="#191970" points="661.9355,-193.969 670.327,-187.5011 659.7336,-187.3243 661.9355,-193.969"/>
</g>
<!-- Node12&#45;&gt;Node23 -->
<g id="edge38" class="edge">
<title>Node12&#45;&gt;Node23</title>
<path fill="none" stroke="#191970" d="M539.7545,-224.2455C547.8648,-216.1352 559.5925,-204.4075 569.2081,-194.7919"/>
<polygon fill="#191970" stroke="#191970" points="571.7611,-197.1887 576.3573,-187.6427 566.8113,-192.2389 571.7611,-197.1887"/>
</g>
<!-- Node13&#45;&gt;Node2 -->
<g id="edge21" class="edge">
<title>Node13&#45;&gt;Node2</title>
<path fill="none" stroke="#191970" d="M669.6885,-171.2451C627.0272,-161.4137 547.5803,-143.1049 498.4985,-131.7939"/>
<polygon fill="#191970" stroke="#191970" points="499.0407,-128.3272 488.5101,-129.492 497.4687,-135.1484 499.0407,-128.3272"/>
</g>
<!-- Node13&#45;&gt;Node6 -->
<g id="edge35" class="edge">
<title>Node13&#45;&gt;Node6</title>
<path fill="none" stroke="#191970" d="M689.8772,-168.4509C671.7151,-149.4401 630.828,-106.6423 608.0653,-82.816"/>
<polygon fill="#191970" stroke="#191970" points="610.5383,-80.3378 601.0997,-75.5249 605.4768,-85.1733 610.5383,-80.3378"/>
</g>
<!-- Node13&#45;&gt;Node9 -->
<g id="edge34" class="edge">
<title>Node13&#45;&gt;Node9</title>
<path fill="none" stroke="#191970" d="M678.3713,-168.3733C659.1081,-159.3838 630.1514,-145.8706 608.4581,-135.7471"/>
<polygon fill="#191970" stroke="#191970" points="609.9015,-132.5584 599.3595,-131.5011 606.9413,-138.9017 609.9015,-132.5584"/>
</g>
<!-- Node13&#45;&gt;Node14 -->
<g id="edge22" class="edge">
<title>Node13&#45;&gt;Node14</title>
<path fill="none" stroke="#191970" d="M713.2833,-168.2455C725.747,-159.7337 744.0451,-147.2375 758.4792,-137.3801"/>
<polygon fill="#191970" stroke="#191970" points="760.5962,-140.1726 766.8804,-131.6427 756.6485,-134.392 760.5962,-140.1726"/>
</g>
<!-- Node13&#45;&gt;Node22 -->
<g id="edge36" class="edge">
<title>Node13&#45;&gt;Node22</title>
<path fill="none" stroke="#191970" d="M699,-168.2455C699,-160.9382 699,-150.6944 699,-141.7046"/>
<polygon fill="#191970" stroke="#191970" points="702.5001,-141.6426 699,-131.6427 695.5001,-141.6427 702.5001,-141.6426"/>
</g>
<!-- Node14&#45;&gt;Node4 -->
<g id="edge31" class="edge">
<title>Node14&#45;&gt;Node4</title>
<path fill="none" stroke="#191970" d="M755.5629,-112.4656C732.4589,-103.6129 697.574,-89.7619 668,-76 650.6965,-67.948 647.3962,-63.8498 630,-56 600.8332,-42.8388 566.6805,-30.088 542.1104,-21.3624"/>
<polygon fill="#191970" stroke="#191970" points="543.1335,-18.0121 532.5387,-17.9946 540.8101,-24.6153 543.1335,-18.0121"/>
</g>
<!-- Node14&#45;&gt;Node6 -->
<g id="edge33" class="edge">
<title>Node14&#45;&gt;Node6</title>
<path fill="none" stroke="#191970" d="M748.5097,-112.3733C715.7531,-102.6676 665.1994,-87.6887 630.4615,-77.396"/>
<polygon fill="#191970" stroke="#191970" points="631.2512,-73.9797 620.6689,-74.4945 629.2626,-80.6912 631.2512,-73.9797"/>
</g>
<!-- Node15 -->
<g id="node16" class="node">
<title>Node15</title>
<g id="a_node16"><a xlink:href="Array_8hpp.html" target="_top" xlink:title=" ">
<polygon fill="#ffffff" stroke="#000000" points="751,-56.5 751,-75.5 813,-75.5 813,-56.5 751,-56.5"/>
<text text-anchor="middle" x="782" y="-63.5" font-family="Helvetica,sans-Serif" font-size="10.00" fill="#000000">Array.hpp</text>
</a>
</g>
</g>
<!-- Node14&#45;&gt;Node15 -->
<g id="edge23" class="edge">
<title>Node14&#45;&gt;Node15</title>
<path fill="none" stroke="#191970" d="M781.1742,-112.2455C781.3047,-104.9382 781.4876,-94.6944 781.6481,-85.7046"/>
<polygon fill="#191970" stroke="#191970" points="785.1486,-85.7036 781.8278,-75.6427 778.1497,-85.5786 785.1486,-85.7036"/>
</g>
<!-- Node14&#45;&gt;Node16 -->
<g id="edge30" class="edge">
<title>Node14&#45;&gt;Node16</title>
<path fill="none" stroke="#191970" d="M793.9594,-112.4509C820.2086,-93.1094 879.8726,-49.1465 911.8416,-25.5904"/>
<polygon fill="#191970" stroke="#191970" points="914.099,-28.2746 920.0734,-19.5249 909.9466,-22.6392 914.099,-28.2746"/>
</g>
<!-- Node21 -->
<g id="node22" class="node">
<title>Node21</title>
<g id="a_node22"><a xlink:title=" ">
<polygon fill="#ffffff" stroke="#bfbfbf" points="677,-56.5 677,-75.5 733,-75.5 733,-56.5 677,-56.5"/>
<text text-anchor="middle" x="705" y="-63.5" font-family="Helvetica,sans-Serif" font-size="10.00" fill="#000000">iomanip</text>
</a>
</g>
</g>
<!-- Node14&#45;&gt;Node21 -->
<g id="edge32" class="edge">
<title>Node14&#45;&gt;Node21</title>
<path fill="none" stroke="#191970" d="M767.7618,-112.2455C756.319,-103.814 739.5704,-91.4729 726.2525,-81.6598"/>
<polygon fill="#191970" stroke="#191970" points="728.2133,-78.757 718.0865,-75.6427 724.0609,-84.3924 728.2133,-78.757"/>
</g>
<!-- Node15&#45;&gt;Node4 -->
<g id="edge25" class="edge">
<title>Node15&#45;&gt;Node4</title>
<path fill="none" stroke="#191970" d="M750.5924,-57.9903C747.6919,-57.2983 744.7943,-56.6247 742,-56 671.2578,-40.1845 587.7929,-24.3971 542.4426,-16.058"/>
<polygon fill="#191970" stroke="#191970" points="543.0298,-12.6074 532.5628,-14.2484 541.7685,-19.4929 543.0298,-12.6074"/>
</g>
<!-- Node15&#45;&gt;Node16 -->
<g id="edge24" class="edge">
<title>Node15&#45;&gt;Node16</title>
<path fill="none" stroke="#191970" d="M807.9578,-56.3733C832.7407,-47.1822 870.2746,-33.2624 897.754,-23.0713"/>
<polygon fill="#191970" stroke="#191970" points="899.2219,-26.26 907.3809,-19.5011 896.7879,-19.6968 899.2219,-26.26"/>
</g>
<!-- Node17 -->
<g id="node18" class="node">
<title>Node17</title>
<g id="a_node18"><a xlink:title=" ">
<polygon fill="#ffffff" stroke="#bfbfbf" points="755.5,-.5 755.5,-19.5 808.5,-19.5 808.5,-.5 755.5,-.5"/>
<text text-anchor="middle" x="782" y="-7.5" font-family="Helvetica,sans-Serif" font-size="10.00" fill="#000000">cstddef</text>
</a>
</g>
</g>
<!-- Node15&#45;&gt;Node17 -->
<g id="edge26" class="edge">
<title>Node15&#45;&gt;Node17</title>
<path fill="none" stroke="#191970" d="M782,-56.2455C782,-48.9382 782,-38.6944 782,-29.7046"/>
<polygon fill="#191970" stroke="#191970" points="785.5001,-29.6426 782,-19.6427 778.5001,-29.6427 785.5001,-29.6426"/>
</g>
<!-- Node18 -->
<g id="node19" class="node">
<title>Node18</title>
<g id="a_node19"><a xlink:title=" ">
<polygon fill="#ffffff" stroke="#bfbfbf" points="827,-.5 827,-19.5 883,-19.5 883,-.5 827,-.5"/>
<text text-anchor="middle" x="855" y="-7.5" font-family="Helvetica,sans-Serif" font-size="10.00" fill="#000000">numeric</text>
</a>
</g>
</g>
<!-- Node15&#45;&gt;Node18 -->
<g id="edge27" class="edge">
<title>Node15&#45;&gt;Node18</title>
<path fill="none" stroke="#191970" d="M794.7156,-56.2455C805.602,-47.8943 821.4883,-35.7076 834.22,-25.9408"/>
<polygon fill="#191970" stroke="#191970" points="836.6261,-28.5063 842.4301,-19.6427 832.3654,-22.9523 836.6261,-28.5063"/>
</g>
<!-- Node19 -->
<g id="node20" class="node">
<title>Node19</title>
<g id="a_node20"><a xlink:title=" ">
<polygon fill="#ffffff" stroke="#bfbfbf" points="597.5,-.5 597.5,-19.5 666.5,-19.5 666.5,-.5 597.5,-.5"/>
<text text-anchor="middle" x="632" y="-7.5" font-family="Helvetica,sans-Serif" font-size="10.00" fill="#000000">type_traits</text>
</a>
</g>
</g>
<!-- Node15&#45;&gt;Node19 -->
<g id="edge28" class="edge">
<title>Node15&#45;&gt;Node19</title>
<path fill="none" stroke="#191970" d="M756.2141,-56.3733C731.5953,-47.1822 694.31,-33.2624 667.0125,-23.0713"/>
<polygon fill="#191970" stroke="#191970" points="668.042,-19.7198 657.4494,-19.5011 665.5937,-26.2777 668.042,-19.7198"/>
</g>
<!-- Node20 -->
<g id="node21" class="node">
<title>Node20</title>
<g id="a_node21"><a xlink:title=" ">
<polygon fill="#ffffff" stroke="#bfbfbf" points="685,-.5 685,-19.5 737,-19.5 737,-.5 685,-.5"/>
<text text-anchor="middle" x="711" y="-7.5" font-family="Helvetica,sans-Serif" font-size="10.00" fill="#000000">cassert</text>
</a>
</g>
</g>
<!-- Node15&#45;&gt;Node20 -->
<g id="edge29" class="edge">
<title>Node15&#45;&gt;Node20</title>
<path fill="none" stroke="#191970" d="M769.6327,-56.2455C759.0446,-47.8943 743.5936,-35.7076 731.2107,-25.9408"/>
<polygon fill="#191970" stroke="#191970" points="733.2447,-23.0875 723.2255,-19.6427 728.9097,-28.5837 733.2447,-23.0875"/>
</g>
<!-- Node24&#45;&gt;Node9 -->
<g id="edge41" class="edge">
<title>Node24&#45;&gt;Node9</title>
<path fill="none" stroke="#191970" d="M697.0015,-224.4509C674.9147,-205.2747 624.9519,-161.8962 597.6576,-138.1988"/>
<polygon fill="#191970" stroke="#191970" points="599.8164,-135.438 589.9706,-131.5249 595.2271,-140.7238 599.8164,-135.438"/>
</g>
<!-- Node25 -->
<g id="node26" class="node">
<title>Node25</title>
<g id="a_node26"><a xlink:title=" ">
<polygon fill="#ffffff" stroke="#bfbfbf" points="746.5,-168.5 746.5,-187.5 871.5,-187.5 871.5,-168.5 746.5,-168.5"/>
<text text-anchor="middle" x="809" y="-175.5" font-family="Helvetica,sans-Serif" font-size="10.00" fill="#000000">opencv2/core/mat.hpp</text>
</a>
</g>
</g>
<!-- Node24&#45;&gt;Node25 -->
<g id="edge42" class="edge">
<title>Node24&#45;&gt;Node25</title>
<path fill="none" stroke="#191970" d="M725.5929,-224.2455C741.379,-215.4928 764.7639,-202.527 782.7587,-192.5496"/>
<polygon fill="#191970" stroke="#191970" points="784.5603,-195.5528 791.6087,-187.6427 781.1659,-189.4308 784.5603,-195.5528"/>
</g>
</g>
</svg>
