<?xml version="1.0" encoding="UTF-8" standalone="no"?>
<!DOCTYPE svg PUBLIC "-//W3C//DTD SVG 1.1//EN"
 "http://www.w3.org/Graphics/SVG/1.1/DTD/svg11.dtd">
<!-- Generated by graphviz version 2.40.1 (20161225.0304)
 -->
<!-- Title: /home/pieter/GitHub/EAGLE&#45;ZYBO&#45;Linux/src/grid&#45;finder/include/GridFinder.hpp Pages: 1 -->
<svg width="880pt" height="330pt"
 viewBox="0.00 0.00 880.00 330.00" xmlns="http://www.w3.org/2000/svg" xmlns:xlink="http://www.w3.org/1999/xlink">
<g id="graph0" class="graph" transform="scale(1 1) rotate(0) translate(4 326)">
<title>/home/pieter/GitHub/EAGLE&#45;ZYBO&#45;Linux/src/grid&#45;finder/include/GridFinder.hpp</title>
<polygon fill="#ffffff" stroke="transparent" points="-4,4 -4,-326 876,-326 876,4 -4,4"/>
<!-- Node0 -->
<g id="node1" class="node">
<title>Node0</title>
<g id="a_node1"><a xlink:title=" ">
<polygon fill="#bfbfbf" stroke="#000000" points="479.5,-280.5 479.5,-321.5 660.5,-321.5 660.5,-280.5 479.5,-280.5"/>
<text text-anchor="start" x="487.5" y="-309.5" font-family="Helvetica,sans-Serif" font-size="10.00" fill="#000000">/home/pieter/GitHub</text>
<text text-anchor="start" x="487.5" y="-298.5" font-family="Helvetica,sans-Serif" font-size="10.00" fill="#000000">/EAGLE&#45;ZYBO&#45;Linux/src</text>
<text text-anchor="middle" x="570" y="-287.5" font-family="Helvetica,sans-Serif" font-size="10.00" fill="#000000">/grid&#45;finder/include/GridFinder.hpp</text>
</a>
</g>
</g>
<!-- Node1 -->
<g id="node2" class="node">
<title>Node1</title>
<g id="a_node2"><a xlink:href="ANSIColors_8hpp.html" target="_top" xlink:title=" ">
<polygon fill="#ffffff" stroke="#000000" points="0,-224.5 0,-243.5 92,-243.5 92,-224.5 0,-224.5"/>
<text text-anchor="middle" x="46" y="-231.5" font-family="Helvetica,sans-Serif" font-size="10.00" fill="#000000">ANSIColors.hpp</text>
</a>
</g>
</g>
<!-- Node0&#45;&gt;Node1 -->
<g id="edge1" class="edge">
<title>Node0&#45;&gt;Node1</title>
<path fill="none" stroke="#191970" d="M479.1583,-291.0076C385.5044,-280.4322 235.3227,-262.7114 106,-244 104.736,-243.8171 103.4576,-243.6292 102.1688,-243.4371"/>
<polygon fill="#191970" stroke="#191970" points="102.5724,-239.9581 92.1567,-241.8979 101.5087,-246.8768 102.5724,-239.9581"/>
</g>
<!-- Node2 -->
<g id="node3" class="node">
<title>Node2</title>
<g id="a_node3"><a xlink:href="Angle_8hpp.html" target="_top" xlink:title=" ">
<polygon fill="#ffffff" stroke="#000000" points="301.5,-112.5 301.5,-131.5 366.5,-131.5 366.5,-112.5 301.5,-112.5"/>
<text text-anchor="middle" x="334" y="-119.5" font-family="Helvetica,sans-Serif" font-size="10.00" fill="#000000">Angle.hpp</text>
</a>
</g>
</g>
<!-- Node0&#45;&gt;Node2 -->
<g id="edge2" class="edge">
<title>Node0&#45;&gt;Node2</title>
<path fill="none" stroke="#191970" d="M479.3704,-290.9341C414.4227,-278.4555 331.2445,-250.5203 289,-188 277.4293,-170.8757 294.5787,-151.3231 310.9319,-137.9722"/>
<polygon fill="#191970" stroke="#191970" points="313.4414,-140.459 319.2547,-131.6015 309.1866,-134.9005 313.4414,-140.459"/>
</g>
<!-- Node5 -->
<g id="node6" class="node">
<title>Node5</title>
<g id="a_node6"><a xlink:title=" ">
<polygon fill="#ffffff" stroke="#bfbfbf" points="127,-56.5 127,-75.5 171,-75.5 171,-56.5 127,-56.5"/>
<text text-anchor="middle" x="149" y="-63.5" font-family="Helvetica,sans-Serif" font-size="10.00" fill="#000000">limits</text>
</a>
</g>
</g>
<!-- Node0&#45;&gt;Node5 -->
<g id="edge44" class="edge">
<title>Node0&#45;&gt;Node5</title>
<path fill="none" stroke="#191970" d="M479.298,-295.8641C408.6094,-289.5277 309.0234,-275.409 227,-244 183.7068,-227.4218 161.3083,-228.6384 139,-188 121.1037,-155.3988 132.348,-110.3589 141.2552,-85.1209"/>
<polygon fill="#191970" stroke="#191970" points="144.5877,-86.2028 144.8377,-75.611 138.037,-83.7351 144.5877,-86.2028"/>
</g>
<!-- Node8 -->
<g id="node9" class="node">
<title>Node8</title>
<g id="a_node9"><a xlink:href="Bresenham_8hpp.html" target="_top" xlink:title=" ">
<polygon fill="#ffffff" stroke="#000000" points="148.5,-168.5 148.5,-187.5 241.5,-187.5 241.5,-168.5 148.5,-168.5"/>
<text text-anchor="middle" x="195" y="-175.5" font-family="Helvetica,sans-Serif" font-size="10.00" fill="#000000">Bresenham.hpp</text>
</a>
</g>
</g>
<!-- Node0&#45;&gt;Node8 -->
<g id="edge8" class="edge">
<title>Node0&#45;&gt;Node8</title>
<path fill="none" stroke="#191970" d="M479.1334,-290.9871C400.463,-281.1502 293.577,-264.634 256,-244 235.3869,-232.6811 217.9016,-211.8131 207.0062,-196.5634"/>
<polygon fill="#191970" stroke="#191970" points="209.6374,-194.2104 201.1047,-187.9299 203.8584,-198.1606 209.6374,-194.2104"/>
</g>
<!-- Node11 -->
<g id="node12" class="node">
<title>Node11</title>
<g id="a_node12"><a xlink:href="CenterPointOutLineIterator_8hpp.html" target="_top" xlink:title=" ">
<polygon fill="#ffffff" stroke="#000000" points="297.5,-168.5 297.5,-187.5 464.5,-187.5 464.5,-168.5 297.5,-168.5"/>
<text text-anchor="middle" x="381" y="-175.5" font-family="Helvetica,sans-Serif" font-size="10.00" fill="#000000">CenterPointOutLineIterator.hpp</text>
</a>
</g>
</g>
<!-- Node0&#45;&gt;Node11 -->
<g id="edge16" class="edge">
<title>Node0&#45;&gt;Node11</title>
<path fill="none" stroke="#191970" d="M530.9341,-280.4942C511.9035,-270.119 488.8907,-256.9934 469,-244 444.6804,-228.1135 418.193,-207.8047 400.6999,-193.9375"/>
<polygon fill="#191970" stroke="#191970" points="402.8818,-191.2009 392.8838,-187.6951 398.5134,-196.6706 402.8818,-191.2009"/>
</g>
<!-- Node12 -->
<g id="node13" class="node">
<title>Node12</title>
<g id="a_node13"><a xlink:href="HelperStructs_8hpp.html" target="_top" xlink:title=" ">
<polygon fill="#ffffff" stroke="#000000" points="478,-224.5 478,-243.5 582,-243.5 582,-224.5 478,-224.5"/>
<text text-anchor="middle" x="530" y="-231.5" font-family="Helvetica,sans-Serif" font-size="10.00" fill="#000000">HelperStructs.hpp</text>
</a>
</g>
</g>
<!-- Node0&#45;&gt;Node12 -->
<g id="edge18" class="edge">
<title>Node0&#45;&gt;Node12</title>
<path fill="none" stroke="#191970" d="M557.563,-280.168C552.2976,-271.3484 546.2119,-261.155 541.1005,-252.5933"/>
<polygon fill="#191970" stroke="#191970" points="543.9704,-250.5725 535.8391,-243.7805 537.9601,-254.1609 543.9704,-250.5725"/>
</g>
<!-- Node13 -->
<g id="node14" class="node">
<title>Node13</title>
<g id="a_node14"><a xlink:href="Line_8hpp.html" target="_top" xlink:title=" ">
<polygon fill="#ffffff" stroke="#000000" points="558,-168.5 558,-187.5 616,-187.5 616,-168.5 558,-168.5"/>
<text text-anchor="middle" x="587" y="-175.5" font-family="Helvetica,sans-Serif" font-size="10.00" fill="#000000">Line.hpp</text>
</a>
</g>
</g>
<!-- Node0&#45;&gt;Node13 -->
<g id="edge39" class="edge">
<title>Node0&#45;&gt;Node13</title>
<path fill="none" stroke="#191970" d="M579.6018,-280.3801C584.0248,-269.7618 588.778,-256.4587 591,-244 593.7125,-228.7913 592.4677,-211.3334 590.6766,-198.1941"/>
<polygon fill="#191970" stroke="#191970" points="594.0711,-197.2525 589.0478,-187.9242 587.1575,-198.3491 594.0711,-197.2525"/>
</g>
<!-- Node14 -->
<g id="node15" class="node">
<title>Node14</title>
<g id="a_node15"><a xlink:href="Matrix_8hpp.html" target="_top" xlink:title=" ">
<polygon fill="#ffffff" stroke="#000000" points="555,-112.5 555,-131.5 623,-131.5 623,-112.5 555,-112.5"/>
<text text-anchor="middle" x="589" y="-119.5" font-family="Helvetica,sans-Serif" font-size="10.00" fill="#000000">Matrix.hpp</text>
</a>
</g>
</g>
<!-- Node0&#45;&gt;Node14 -->
<g id="edge40" class="edge">
<title>Node0&#45;&gt;Node14</title>
<path fill="none" stroke="#191970" d="M607.6252,-280.4204C638.6136,-261.1136 680.3726,-229.0804 699,-188 713.2915,-156.4818 669.7046,-138.9091 633.2375,-129.9649"/>
<polygon fill="#191970" stroke="#191970" points="633.7235,-126.4857 623.1947,-127.6666 632.1618,-133.3093 633.7235,-126.4857"/>
</g>
<!-- Node16 -->
<g id="node17" class="node">
<title>Node16</title>
<g id="a_node17"><a xlink:title=" ">
<polygon fill="#ffffff" stroke="#bfbfbf" points="705,-.5 705,-19.5 769,-19.5 769,-.5 705,-.5"/>
<text text-anchor="middle" x="737" y="-7.5" font-family="Helvetica,sans-Serif" font-size="10.00" fill="#000000">algorithm</text>
</a>
</g>
</g>
<!-- Node0&#45;&gt;Node16 -->
<g id="edge41" class="edge">
<title>Node0&#45;&gt;Node16</title>
<path fill="none" stroke="#191970" d="M660.7865,-287.7335C722.8787,-272.9265 794,-241.998 794,-178 794,-178 794,-178 794,-122 794,-85.1826 769.2325,-48.2377 752.3499,-27.3313"/>
<polygon fill="#191970" stroke="#191970" points="755.0131,-25.06 745.9063,-19.6456 749.6489,-29.5574 755.0131,-25.06"/>
</g>
<!-- Node22 -->
<g id="node23" class="node">
<title>Node22</title>
<g id="a_node23"><a xlink:title=" ">
<polygon fill="#ffffff" stroke="#bfbfbf" points="673,-112.5 673,-131.5 733,-131.5 733,-112.5 673,-112.5"/>
<text text-anchor="middle" x="703" y="-119.5" font-family="Helvetica,sans-Serif" font-size="10.00" fill="#000000">iostream</text>
</a>
</g>
</g>
<!-- Node0&#45;&gt;Node22 -->
<g id="edge43" class="edge">
<title>Node0&#45;&gt;Node22</title>
<path fill="none" stroke="#191970" d="M622.692,-280.4046C641.8623,-271.2088 662.7831,-259.0174 679,-244 700.5349,-224.058 705.9087,-216.2128 714,-188 718.4474,-172.4929 714.8324,-154.3876 710.5936,-141.0665"/>
<polygon fill="#191970" stroke="#191970" points="713.8562,-139.795 707.2025,-131.55 707.2623,-142.1447 713.8562,-139.795"/>
</g>
<!-- Node23 -->
<g id="node24" class="node">
<title>Node23</title>
<g id="a_node24"><a xlink:title=" ">
<polygon fill="#ffffff" stroke="#bfbfbf" points="634,-168.5 634,-187.5 690,-187.5 690,-168.5 634,-168.5"/>
<text text-anchor="middle" x="662" y="-175.5" font-family="Helvetica,sans-Serif" font-size="10.00" fill="#000000">optional</text>
</a>
</g>
</g>
<!-- Node0&#45;&gt;Node23 -->
<g id="edge45" class="edge">
<title>Node0&#45;&gt;Node23</title>
<path fill="none" stroke="#191970" d="M585.3987,-280.4126C603.1123,-256.7303 631.9057,-218.2348 648.6883,-195.7972"/>
<polygon fill="#191970" stroke="#191970" points="651.6938,-197.6224 654.8807,-187.5182 646.0884,-193.4296 651.6938,-197.6224"/>
</g>
<!-- Node24 -->
<g id="node25" class="node">
<title>Node24</title>
<g id="a_node25"><a xlink:title=" ">
<polygon fill="#ffffff" stroke="#bfbfbf" points="822,-224.5 822,-243.5 872,-243.5 872,-224.5 822,-224.5"/>
<text text-anchor="middle" x="847" y="-231.5" font-family="Helvetica,sans-Serif" font-size="10.00" fill="#000000">cstdint</text>
</a>
</g>
</g>
<!-- Node0&#45;&gt;Node24 -->
<g id="edge42" class="edge">
<title>Node0&#45;&gt;Node24</title>
<path fill="none" stroke="#191970" d="M657.1221,-280.486C702.2014,-269.7825 758.1005,-256.3719 808,-244 809.2594,-243.6878 810.5411,-243.3682 811.8355,-243.0441"/>
<polygon fill="#191970" stroke="#191970" points="813.003,-246.3591 821.8396,-240.5141 811.2867,-239.5727 813.003,-246.3591"/>
</g>
<!-- Node3 -->
<g id="node4" class="node">
<title>Node3</title>
<g id="a_node4"><a xlink:title=" ">
<polygon fill="#ffffff" stroke="#bfbfbf" points="269,-56.5 269,-75.5 311,-75.5 311,-56.5 269,-56.5"/>
<text text-anchor="middle" x="290" y="-63.5" font-family="Helvetica,sans-Serif" font-size="10.00" fill="#000000">array</text>
</a>
</g>
</g>
<!-- Node2&#45;&gt;Node3 -->
<g id="edge3" class="edge">
<title>Node2&#45;&gt;Node3</title>
<path fill="none" stroke="#191970" d="M326.3358,-112.2455C320.1527,-104.3761 311.2937,-93.101 303.8711,-83.6542"/>
<polygon fill="#191970" stroke="#191970" points="306.5068,-81.3435 297.5764,-75.6427 301.0025,-85.6683 306.5068,-81.3435"/>
</g>
<!-- Node4 -->
<g id="node5" class="node">
<title>Node4</title>
<g id="a_node5"><a xlink:title=" ">
<polygon fill="#ffffff" stroke="#bfbfbf" points="326.5,-.5 326.5,-19.5 373.5,-19.5 373.5,-.5 326.5,-.5"/>
<text text-anchor="middle" x="350" y="-7.5" font-family="Helvetica,sans-Serif" font-size="10.00" fill="#000000">cmath</text>
</a>
</g>
</g>
<!-- Node2&#45;&gt;Node4 -->
<g id="edge4" class="edge">
<title>Node2&#45;&gt;Node4</title>
<path fill="none" stroke="#191970" d="M335.3642,-112.4509C337.9737,-94.184 343.7207,-53.9553 347.1861,-29.6976"/>
<polygon fill="#191970" stroke="#191970" points="350.6898,-29.9194 348.6393,-19.5249 343.7602,-28.9294 350.6898,-29.9194"/>
</g>
<!-- Node2&#45;&gt;Node5 -->
<g id="edge5" class="edge">
<title>Node2&#45;&gt;Node5</title>
<path fill="none" stroke="#191970" d="M302.1974,-112.3733C268.3055,-102.1141 214.9497,-85.9631 180.9873,-75.6827"/>
<polygon fill="#191970" stroke="#191970" points="181.6981,-72.241 171.1129,-72.6936 179.67,-78.9408 181.6981,-72.241"/>
</g>
<!-- Node6 -->
<g id="node7" class="node">
<title>Node6</title>
<g id="a_node7"><a xlink:title=" ">
<polygon fill="#ffffff" stroke="#bfbfbf" points="441.5,-56.5 441.5,-75.5 498.5,-75.5 498.5,-56.5 441.5,-56.5"/>
<text text-anchor="middle" x="470" y="-63.5" font-family="Helvetica,sans-Serif" font-size="10.00" fill="#000000">ostream</text>
</a>
</g>
</g>
<!-- Node2&#45;&gt;Node6 -->
<g id="edge6" class="edge">
<title>Node2&#45;&gt;Node6</title>
<path fill="none" stroke="#191970" d="M357.3792,-112.3733C379.5045,-103.2629 412.9134,-89.5062 437.6019,-79.3404"/>
<polygon fill="#191970" stroke="#191970" points="439.0117,-82.5451 446.9258,-75.5011 436.3464,-76.0723 439.0117,-82.5451"/>
</g>
<!-- Node7 -->
<g id="node8" class="node">
<title>Node7</title>
<g id="a_node8"><a xlink:href="uint_8hpp.html" target="_top" xlink:title=" ">
<polygon fill="#ffffff" stroke="#000000" points="367,-56.5 367,-75.5 423,-75.5 423,-56.5 367,-56.5"/>
<text text-anchor="middle" x="395" y="-63.5" font-family="Helvetica,sans-Serif" font-size="10.00" fill="#000000">uint.hpp</text>
</a>
</g>
</g>
<!-- Node2&#45;&gt;Node7 -->
<g id="edge7" class="edge">
<title>Node2&#45;&gt;Node7</title>
<path fill="none" stroke="#191970" d="M344.6254,-112.2455C353.5473,-104.0549 366.488,-92.1749 377.0192,-82.5069"/>
<polygon fill="#191970" stroke="#191970" points="379.4968,-84.9837 384.4964,-75.6427 374.7629,-79.8271 379.4968,-84.9837"/>
</g>
<!-- Node8&#45;&gt;Node2 -->
<g id="edge9" class="edge">
<title>Node8&#45;&gt;Node2</title>
<path fill="none" stroke="#191970" d="M218.895,-168.3733C241.5082,-159.2629 275.6542,-145.5062 300.8873,-135.3404"/>
<polygon fill="#191970" stroke="#191970" points="302.4493,-138.4845 310.4169,-131.5011 299.8334,-131.9917 302.4493,-138.4845"/>
</g>
<!-- Node8&#45;&gt;Node4 -->
<g id="edge13" class="edge">
<title>Node8&#45;&gt;Node4</title>
<path fill="none" stroke="#191970" d="M197.3932,-168.2146C200.8541,-154.976 207.9603,-130.8491 218,-112 232.6256,-84.5411 236.2028,-76.0399 260,-56 276.8744,-41.7899 298.8803,-30.4429 316.908,-22.574"/>
<polygon fill="#191970" stroke="#191970" points="318.5916,-25.6631 326.4563,-18.5641 315.8812,-19.2091 318.5916,-25.6631"/>
</g>
<!-- Node8&#45;&gt;Node5 -->
<g id="edge14" class="edge">
<title>Node8&#45;&gt;Node5</title>
<path fill="none" stroke="#191970" d="M191.0781,-168.4509C183.5077,-150.0186 166.7533,-109.2254 156.8212,-85.043"/>
<polygon fill="#191970" stroke="#191970" points="159.9488,-83.4454 152.912,-75.5249 153.4737,-86.1048 159.9488,-83.4454"/>
</g>
<!-- Node9 -->
<g id="node10" class="node">
<title>Node9</title>
<g id="a_node10"><a xlink:href="Pixel_8hpp.html" target="_top" xlink:title=" ">
<polygon fill="#ffffff" stroke="#000000" points="437,-112.5 437,-131.5 499,-131.5 499,-112.5 437,-112.5"/>
<text text-anchor="middle" x="468" y="-119.5" font-family="Helvetica,sans-Serif" font-size="10.00" fill="#000000">Pixel.hpp</text>
</a>
</g>
</g>
<!-- Node8&#45;&gt;Node9 -->
<g id="edge10" class="edge">
<title>Node8&#45;&gt;Node9</title>
<path fill="none" stroke="#191970" d="M241.6202,-168.4369C293.6567,-157.7627 377.0644,-140.6535 426.7942,-130.4525"/>
<polygon fill="#191970" stroke="#191970" points="427.7787,-133.8235 436.8714,-128.3853 426.3721,-126.9663 427.7787,-133.8235"/>
</g>
<!-- Node10 -->
<g id="node11" class="node">
<title>Node10</title>
<g id="a_node11"><a xlink:title=" ">
<polygon fill="#ffffff" stroke="#bfbfbf" points="227,-112.5 227,-131.5 283,-131.5 283,-112.5 227,-112.5"/>
<text text-anchor="middle" x="255" y="-119.5" font-family="Helvetica,sans-Serif" font-size="10.00" fill="#000000">sstream</text>
</a>
</g>
</g>
<!-- Node8&#45;&gt;Node10 -->
<g id="edge15" class="edge">
<title>Node8&#45;&gt;Node10</title>
<path fill="none" stroke="#191970" d="M205.4512,-168.2455C214.2269,-160.0549 226.9554,-148.1749 237.314,-138.5069"/>
<polygon fill="#191970" stroke="#191970" points="239.7461,-141.0246 244.6686,-131.6427 234.9699,-135.9072 239.7461,-141.0246"/>
</g>
<!-- Node9&#45;&gt;Node6 -->
<g id="edge12" class="edge">
<title>Node9&#45;&gt;Node6</title>
<path fill="none" stroke="#191970" d="M468.3484,-112.2455C468.6093,-104.9382 468.9752,-94.6944 469.2963,-85.7046"/>
<polygon fill="#191970" stroke="#191970" points="472.7964,-85.7613 469.6556,-75.6427 465.8008,-85.5113 472.7964,-85.7613"/>
</g>
<!-- Node9&#45;&gt;Node7 -->
<g id="edge11" class="edge">
<title>Node9&#45;&gt;Node7</title>
<path fill="none" stroke="#191970" d="M455.2844,-112.2455C444.398,-103.8943 428.5117,-91.7076 415.78,-81.9408"/>
<polygon fill="#191970" stroke="#191970" points="417.6346,-78.9523 407.5699,-75.6427 413.3739,-84.5063 417.6346,-78.9523"/>
</g>
<!-- Node11&#45;&gt;Node7 -->
<g id="edge17" class="edge">
<title>Node11&#45;&gt;Node7</title>
<path fill="none" stroke="#191970" d="M382.1936,-168.4509C384.477,-150.184 389.5056,-109.9553 392.5378,-85.6976"/>
<polygon fill="#191970" stroke="#191970" points="396.0419,-85.8818 393.8094,-75.5249 389.096,-85.0135 396.0419,-85.8818"/>
</g>
<!-- Node12&#45;&gt;Node2 -->
<g id="edge19" class="edge">
<title>Node12&#45;&gt;Node2</title>
<path fill="none" stroke="#191970" d="M524.3554,-224.4714C515.4221,-210.1858 496.6904,-183.2688 474,-168 444.4752,-148.1321 405.7022,-136.274 376.448,-129.5871"/>
<polygon fill="#191970" stroke="#191970" points="377.0431,-126.1349 366.5281,-127.4329 375.5576,-132.9754 377.0431,-126.1349"/>
</g>
<!-- Node12&#45;&gt;Node9 -->
<g id="edge37" class="edge">
<title>Node12&#45;&gt;Node9</title>
<path fill="none" stroke="#191970" d="M527.5552,-224.1493C524.0032,-210.8368 516.6551,-186.6264 506,-168 500.1364,-157.7498 491.9596,-147.5067 484.6925,-139.2971"/>
<polygon fill="#191970" stroke="#191970" points="487.1886,-136.8406 477.848,-131.8403 482.0317,-141.5741 487.1886,-136.8406"/>
</g>
<!-- Node12&#45;&gt;Node13 -->
<g id="edge20" class="edge">
<title>Node12&#45;&gt;Node13</title>
<path fill="none" stroke="#191970" d="M539.9286,-224.2455C548.1838,-216.1352 560.1209,-204.4075 569.9082,-194.7919"/>
<polygon fill="#191970" stroke="#191970" points="572.5046,-197.1476 577.1851,-187.6427 567.5989,-192.1542 572.5046,-197.1476"/>
</g>
<!-- Node12&#45;&gt;Node23 -->
<g id="edge38" class="edge">
<title>Node12&#45;&gt;Node23</title>
<path fill="none" stroke="#191970" d="M552.6916,-224.3733C574.0711,-215.3032 606.3057,-201.6279 630.2362,-191.4755"/>
<polygon fill="#191970" stroke="#191970" points="631.7656,-194.6287 639.6045,-187.5011 629.0317,-188.1846 631.7656,-194.6287"/>
</g>
<!-- Node13&#45;&gt;Node2 -->
<g id="edge21" class="edge">
<title>Node13&#45;&gt;Node2</title>
<path fill="none" stroke="#191970" d="M557.9777,-171.5761C513.4419,-161.7184 428.0054,-142.8075 376.4908,-131.4051"/>
<polygon fill="#191970" stroke="#191970" points="377.1824,-127.9735 366.6623,-129.2296 375.6696,-134.8081 377.1824,-127.9735"/>
</g>
<!-- Node13&#45;&gt;Node6 -->
<g id="edge35" class="edge">
<title>Node13&#45;&gt;Node6</title>
<path fill="none" stroke="#191970" d="M577.0246,-168.4509C557.0787,-149.3574 512.0675,-106.2697 487.2432,-82.5063"/>
<polygon fill="#191970" stroke="#191970" points="489.5941,-79.9116 479.9501,-75.5249 484.7536,-84.9683 489.5941,-79.9116"/>
</g>
<!-- Node13&#45;&gt;Node9 -->
<g id="edge34" class="edge">
<title>Node13&#45;&gt;Node9</title>
<path fill="none" stroke="#191970" d="M566.5432,-168.3733C547.5262,-159.4241 518.9825,-145.9917 497.5024,-135.8835"/>
<polygon fill="#191970" stroke="#191970" points="498.7284,-132.5923 488.1899,-131.5011 495.7478,-138.926 498.7284,-132.5923"/>
</g>
<!-- Node13&#45;&gt;Node14 -->
<g id="edge22" class="edge">
<title>Node13&#45;&gt;Node14</title>
<path fill="none" stroke="#191970" d="M587.3484,-168.2455C587.6093,-160.9382 587.9752,-150.6944 588.2963,-141.7046"/>
<polygon fill="#191970" stroke="#191970" points="591.7964,-141.7613 588.6556,-131.6427 584.8008,-141.5113 591.7964,-141.7613"/>
</g>
<!-- Node13&#45;&gt;Node22 -->
<g id="edge36" class="edge">
<title>Node13&#45;&gt;Node22</title>
<path fill="none" stroke="#191970" d="M606.9411,-168.3733C625.4786,-159.4241 653.3028,-145.9917 674.2413,-135.8835"/>
<polygon fill="#191970" stroke="#191970" points="675.8352,-139.0006 683.3191,-131.5011 672.7919,-132.6967 675.8352,-139.0006"/>
</g>
<!-- Node14&#45;&gt;Node4 -->
<g id="edge31" class="edge">
<title>Node14&#45;&gt;Node4</title>
<path fill="none" stroke="#191970" d="M579.9355,-112.4912C565.8384,-98.2315 537.2297,-71.3479 508,-56 486.3599,-44.6372 423.0636,-27.9141 383.4629,-18.0722"/>
<polygon fill="#191970" stroke="#191970" points="384.2502,-14.6615 373.7031,-15.6665 382.5749,-21.4581 384.2502,-14.6615"/>
</g>
<!-- Node14&#45;&gt;Node6 -->
<g id="edge33" class="edge">
<title>Node14&#45;&gt;Node6</title>
<path fill="none" stroke="#191970" d="M568.5432,-112.3733C549.5262,-103.4241 520.9825,-89.9917 499.5024,-79.8835"/>
<polygon fill="#191970" stroke="#191970" points="500.7284,-76.5923 490.1899,-75.5011 497.7478,-82.926 500.7284,-76.5923"/>
</g>
<!-- Node15 -->
<g id="node16" class="node">
<title>Node15</title>
<g id="a_node16"><a xlink:href="Array_8hpp.html" target="_top" xlink:title=" ">
<polygon fill="#ffffff" stroke="#000000" points="555,-56.5 555,-75.5 617,-75.5 617,-56.5 555,-56.5"/>
<text text-anchor="middle" x="586" y="-63.5" font-family="Helvetica,sans-Serif" font-size="10.00" fill="#000000">Array.hpp</text>
</a>
</g>
</g>
<!-- Node14&#45;&gt;Node15 -->
<g id="edge23" class="edge">
<title>Node14&#45;&gt;Node15</title>
<path fill="none" stroke="#191970" d="M588.4774,-112.2455C588.086,-104.9382 587.5372,-94.6944 587.0556,-85.7046"/>
<polygon fill="#191970" stroke="#191970" points="590.5466,-85.4411 586.5166,-75.6427 583.5566,-85.8156 590.5466,-85.4411"/>
</g>
<!-- Node14&#45;&gt;Node16 -->
<g id="edge30" class="edge">
<title>Node14&#45;&gt;Node16</title>
<path fill="none" stroke="#191970" d="M623.0157,-114.2452C646.7943,-107.4201 678.0891,-95.4652 700,-76 714.2244,-63.3633 724.1972,-43.898 730.1759,-29.3765"/>
<polygon fill="#191970" stroke="#191970" points="733.5183,-30.4351 733.8271,-19.8447 726.9815,-27.9311 733.5183,-30.4351"/>
</g>
<!-- Node21 -->
<g id="node22" class="node">
<title>Node21</title>
<g id="a_node22"><a xlink:title=" ">
<polygon fill="#ffffff" stroke="#bfbfbf" points="635,-56.5 635,-75.5 691,-75.5 691,-56.5 635,-56.5"/>
<text text-anchor="middle" x="663" y="-63.5" font-family="Helvetica,sans-Serif" font-size="10.00" fill="#000000">iomanip</text>
</a>
</g>
</g>
<!-- Node14&#45;&gt;Node21 -->
<g id="edge32" class="edge">
<title>Node14&#45;&gt;Node21</title>
<path fill="none" stroke="#191970" d="M601.8898,-112.2455C612.9254,-103.8943 629.0292,-91.7076 641.9353,-81.9408"/>
<polygon fill="#191970" stroke="#191970" points="644.3959,-84.4681 650.2579,-75.6427 640.1717,-78.8862 644.3959,-84.4681"/>
</g>
<!-- Node15&#45;&gt;Node4 -->
<g id="edge25" class="edge">
<title>Node15&#45;&gt;Node4</title>
<path fill="none" stroke="#191970" d="M554.661,-58.5636C510.2256,-48.0196 429.2496,-28.805 383.6076,-17.9747"/>
<polygon fill="#191970" stroke="#191970" points="384.1568,-14.5079 373.6189,-15.6045 382.5406,-21.3188 384.1568,-14.5079"/>
</g>
<!-- Node15&#45;&gt;Node16 -->
<g id="edge24" class="edge">
<title>Node15&#45;&gt;Node16</title>
<path fill="none" stroke="#191970" d="M611.9578,-56.3733C636.7407,-47.1822 674.2746,-33.2624 701.754,-23.0713"/>
<polygon fill="#191970" stroke="#191970" points="703.2219,-26.26 711.3809,-19.5011 700.7879,-19.6968 703.2219,-26.26"/>
</g>
<!-- Node17 -->
<g id="node18" class="node">
<title>Node17</title>
<g id="a_node18"><a xlink:title=" ">
<polygon fill="#ffffff" stroke="#bfbfbf" points="559.5,-.5 559.5,-19.5 612.5,-19.5 612.5,-.5 559.5,-.5"/>
<text text-anchor="middle" x="586" y="-7.5" font-family="Helvetica,sans-Serif" font-size="10.00" fill="#000000">cstddef</text>
</a>
</g>
</g>
<!-- Node15&#45;&gt;Node17 -->
<g id="edge26" class="edge">
<title>Node15&#45;&gt;Node17</title>
<path fill="none" stroke="#191970" d="M586,-56.2455C586,-48.9382 586,-38.6944 586,-29.7046"/>
<polygon fill="#191970" stroke="#191970" points="589.5001,-29.6426 586,-19.6427 582.5001,-29.6427 589.5001,-29.6426"/>
</g>
<!-- Node18 -->
<g id="node19" class="node">
<title>Node18</title>
<g id="a_node19"><a xlink:title=" ">
<polygon fill="#ffffff" stroke="#bfbfbf" points="631,-.5 631,-19.5 687,-19.5 687,-.5 631,-.5"/>
<text text-anchor="middle" x="659" y="-7.5" font-family="Helvetica,sans-Serif" font-size="10.00" fill="#000000">numeric</text>
</a>
</g>
</g>
<!-- Node15&#45;&gt;Node18 -->
<g id="edge27" class="edge">
<title>Node15&#45;&gt;Node18</title>
<path fill="none" stroke="#191970" d="M598.7156,-56.2455C609.602,-47.8943 625.4883,-35.7076 638.22,-25.9408"/>
<polygon fill="#191970" stroke="#191970" points="640.6261,-28.5063 646.4301,-19.6427 636.3654,-22.9523 640.6261,-28.5063"/>
</g>
<!-- Node19 -->
<g id="node20" class="node">
<title>Node19</title>
<g id="a_node20"><a xlink:title=" ">
<polygon fill="#ffffff" stroke="#bfbfbf" points="401.5,-.5 401.5,-19.5 470.5,-19.5 470.5,-.5 401.5,-.5"/>
<text text-anchor="middle" x="436" y="-7.5" font-family="Helvetica,sans-Serif" font-size="10.00" fill="#000000">type_traits</text>
</a>
</g>
</g>
<!-- Node15&#45;&gt;Node19 -->
<g id="edge28" class="edge">
<title>Node15&#45;&gt;Node19</title>
<path fill="none" stroke="#191970" d="M560.2141,-56.3733C535.5953,-47.1822 498.31,-33.2624 471.0125,-23.0713"/>
<polygon fill="#191970" stroke="#191970" points="472.042,-19.7198 461.4494,-19.5011 469.5937,-26.2777 472.042,-19.7198"/>
</g>
<!-- Node20 -->
<g id="node21" class="node">
<title>Node20</title>
<g id="a_node21"><a xlink:title=" ">
<polygon fill="#ffffff" stroke="#bfbfbf" points="489,-.5 489,-19.5 541,-19.5 541,-.5 489,-.5"/>
<text text-anchor="middle" x="515" y="-7.5" font-family="Helvetica,sans-Serif" font-size="10.00" fill="#000000">cassert</text>
</a>
</g>
</g>
<!-- Node15&#45;&gt;Node20 -->
<g id="edge29" class="edge">
<title>Node15&#45;&gt;Node20</title>
<path fill="none" stroke="#191970" d="M573.6327,-56.2455C563.0446,-47.8943 547.5936,-35.7076 535.2107,-25.9408"/>
<polygon fill="#191970" stroke="#191970" points="537.2447,-23.0875 527.2255,-19.6427 532.9097,-28.5837 537.2447,-23.0875"/>
</g>
</g>
</svg>
