<?xml version="1.0" encoding="UTF-8" standalone="no"?>
<!DOCTYPE svg PUBLIC "-//W3C//DTD SVG 1.1//EN"
 "http://www.w3.org/Graphics/SVG/1.1/DTD/svg11.dtd">
<!-- Generated by graphviz version 2.40.1 (20161225.0304)
 -->
<!-- Title: PYBIND11_MODULE Pages: 1 -->
<svg width="1481pt" height="775pt"
 viewBox="0.00 0.00 1481.00 775.00" xmlns="http://www.w3.org/2000/svg" xmlns:xlink="http://www.w3.org/1999/xlink">
<g id="graph0" class="graph" transform="scale(1 1) rotate(0) translate(4 771)">
<title>PYBIND11_MODULE</title>
<polygon fill="#ffffff" stroke="transparent" points="-4,4 -4,-771 1477,-771 1477,4 -4,4"/>
<!-- Node0 -->
<g id="node1" class="node">
<title>Node0</title>
<g id="a_node1"><a xlink:title=" ">
<polygon fill="#bfbfbf" stroke="#000000" points="0,-133.5 0,-152.5 113,-152.5 113,-133.5 0,-133.5"/>
<text text-anchor="middle" x="56.5" y="-140.5" font-family="Helvetica,sans-Serif" font-size="10.00" fill="#000000">PYBIND11_MODULE</text>
</a>
</g>
</g>
<!-- Node1 -->
<g id="node2" class="node">
<title>Node1</title>
<g id="a_node2"><a xlink:href="classGridFinder.html#a8940ca681fac78274043cf5f1f1f5761" target="_top" xlink:title="This is the main function: it looks for a complete square of the grid, as close to the center of the ...">
<polygon fill="#ffffff" stroke="#000000" points="149,-525.5 149,-544.5 273,-544.5 273,-525.5 149,-525.5"/>
<text text-anchor="middle" x="211" y="-532.5" font-family="Helvetica,sans-Serif" font-size="10.00" fill="#000000">GridFinder::findSquare</text>
</a>
</g>
</g>
<!-- Node0&#45;&gt;Node1 -->
<g id="edge1" class="edge">
<title>Node0&#45;&gt;Node1</title>
<path fill="none" stroke="#191970" d="M60.3191,-152.6899C80.6066,-204.1636 175.8578,-445.8366 203.4766,-515.9116"/>
<polygon fill="#191970" stroke="#191970" points="200.253,-517.2778 207.1761,-525.2979 206.7654,-514.711 200.253,-517.2778"/>
</g>
<!-- Node2 -->
<g id="node3" class="node">
<title>Node2</title>
<g id="a_node3"><a xlink:href="Square_8hpp.html#ace3999c20c4c886c00503d56c69ae204" target="_top" xlink:title=" ">
<polygon fill="#ffffff" stroke="#000000" points="361.5,-658.5 361.5,-677.5 390.5,-677.5 390.5,-658.5 361.5,-658.5"/>
<text text-anchor="middle" x="376" y="-665.5" font-family="Helvetica,sans-Serif" font-size="10.00" fill="#000000">sq</text>
</a>
</g>
</g>
<!-- Node0&#45;&gt;Node2 -->
<g id="edge55" class="edge">
<title>Node0&#45;&gt;Node2</title>
<path fill="none" stroke="#191970" d="M57.5743,-152.7999C63.8696,-208.7406 97.4783,-487.5171 149,-554 201.2534,-621.4271 304.142,-652.0444 351.3134,-662.9827"/>
<polygon fill="#191970" stroke="#191970" points="350.7519,-666.4431 361.2722,-665.1887 352.2658,-659.6088 350.7519,-666.4431"/>
</g>
<!-- Node6 -->
<g id="node7" class="node">
<title>Node6</title>
<g id="a_node7"><a xlink:href="classMask.html#a4124a2daa1f7501d4fd80775b6217679" target="_top" xlink:title="Get the width of the mask in pixels.">
<polygon fill="#ffffff" stroke="#000000" points="1244,-385.5 1244,-404.5 1319,-404.5 1319,-385.5 1244,-385.5"/>
<text text-anchor="middle" x="1281.5" y="-392.5" font-family="Helvetica,sans-Serif" font-size="10.00" fill="#000000">Mask::width</text>
</a>
</g>
</g>
<!-- Node0&#45;&gt;Node6 -->
<g id="edge58" class="edge">
<title>Node0&#45;&gt;Node6</title>
<path fill="none" stroke="#191970" d="M113.288,-148.4192C177.1248,-154.0351 283.8981,-162 376,-162 376,-162 376,-162 914,-162 972.3751,-162 1130.1497,-144.8696 1176,-181 1217.4001,-213.6236 1188.8096,-246.6663 1212,-294 1227.3487,-325.328 1251.5315,-357.941 1266.9455,-377.3525"/>
<polygon fill="#191970" stroke="#191970" points="1264.3451,-379.7035 1273.3473,-385.2903 1269.7939,-375.3091 1264.3451,-379.7035"/>
</g>
<!-- Node13 -->
<g id="node14" class="node">
<title>Node13</title>
<g id="a_node14"><a xlink:href="classMask.html#af845b7d3220b707c8b4c48bf87d045bb" target="_top" xlink:title="Get the height of the mask in pixels.">
<polygon fill="#ffffff" stroke="#000000" points="1242,-650.5 1242,-669.5 1321,-669.5 1321,-650.5 1242,-650.5"/>
<text text-anchor="middle" x="1281.5" y="-657.5" font-family="Helvetica,sans-Serif" font-size="10.00" fill="#000000">Mask::height</text>
</a>
</g>
</g>
<!-- Node0&#45;&gt;Node13 -->
<g id="edge57" class="edge">
<title>Node0&#45;&gt;Node13</title>
<path fill="none" stroke="#191970" d="M57.4433,-152.7922C63.3533,-212.6351 96.7315,-529.1069 149,-609 216.2965,-711.8636 253.0784,-767 376,-767 376,-767 376,-767 914,-767 1045.2448,-767 1192.7204,-703.3117 1253.2634,-674.2066"/>
<polygon fill="#191970" stroke="#191970" points="1255.0908,-677.2097 1262.5486,-669.6843 1252.0257,-670.9164 1255.0908,-677.2097"/>
</g>
<!-- Node30 -->
<g id="node31" class="node">
<title>Node30</title>
<g id="a_node31"><a xlink:href="classLine.html#af14c90f6f7c18003e35ca3a08be32368" target="_top" xlink:title=" ">
<polygon fill="#ffffff" stroke="#000000" points="509.5,-76.5 509.5,-95.5 595.5,-95.5 595.5,-76.5 509.5,-76.5"/>
<text text-anchor="middle" x="552.5" y="-83.5" font-family="Helvetica,sans-Serif" font-size="10.00" fill="#000000">Line::intersect</text>
</a>
</g>
</g>
<!-- Node0&#45;&gt;Node30 -->
<g id="edge53" class="edge">
<title>Node0&#45;&gt;Node30</title>
<path fill="none" stroke="#191970" d="M113.3975,-136.4614C210.0319,-125.3562 404.8893,-102.9633 499.0965,-92.1371"/>
<polygon fill="#191970" stroke="#191970" points="499.7214,-95.5884 509.2564,-90.9695 498.9222,-88.6342 499.7214,-95.5884"/>
</g>
<!-- Node32 -->
<g id="node33" class="node">
<title>Node32</title>
<g id="a_node33"><a xlink:href="classAngle.html#a744ecdf452a755742b3c75aa7b100e89" target="_top" xlink:title=" ">
<polygon fill="#ffffff" stroke="#000000" points="178,-76.5 178,-95.5 244,-95.5 244,-76.5 178,-76.5"/>
<text text-anchor="middle" x="211" y="-83.5" font-family="Helvetica,sans-Serif" font-size="10.00" fill="#000000">Angle::rad</text>
</a>
</g>
</g>
<!-- Node0&#45;&gt;Node32 -->
<g id="edge52" class="edge">
<title>Node0&#45;&gt;Node32</title>
<path fill="none" stroke="#191970" d="M82.3598,-133.4595C107.8717,-124.0473 147.069,-109.5862 175.4918,-99.1001"/>
<polygon fill="#191970" stroke="#191970" points="176.8854,-102.3166 185.0558,-95.5716 174.4625,-95.7493 176.8854,-102.3166"/>
</g>
<!-- Node33 -->
<g id="node34" class="node">
<title>Node33</title>
<g id="a_node34"><a xlink:href="Matrix_8hpp.html#a4d52dda400b179bc7cb4b9ba7fe3c0c8" target="_top" xlink:title=" ">
<polygon fill="#ffffff" stroke="#000000" points="189,-38.5 189,-57.5 233,-57.5 233,-38.5 189,-38.5"/>
<text text-anchor="middle" x="211" y="-45.5" font-family="Helvetica,sans-Serif" font-size="10.00" fill="#000000">round</text>
</a>
</g>
</g>
<!-- Node0&#45;&gt;Node33 -->
<g id="edge54" class="edge">
<title>Node0&#45;&gt;Node33</title>
<path fill="none" stroke="#191970" d="M65.5735,-133.4185C81.1827,-117.4603 114.754,-85.3799 149,-67 158.2764,-62.0214 169.0488,-58.1447 178.9865,-55.2293"/>
<polygon fill="#191970" stroke="#191970" points="180.2053,-58.5254 188.9428,-52.5331 178.3755,-51.7687 180.2053,-58.5254"/>
</g>
<!-- Node34 -->
<g id="node35" class="node">
<title>Node34</title>
<g id="a_node35"><a xlink:href="classMask.html#aa0a965ed4da7d946e842d02ee0166ec3" target="_top" xlink:title="Get a pointer to the array of mask bytes.">
<polygon fill="#ffffff" stroke="#000000" points="180,-.5 180,-19.5 242,-19.5 242,-.5 180,-.5"/>
<text text-anchor="middle" x="211" y="-7.5" font-family="Helvetica,sans-Serif" font-size="10.00" fill="#000000">Mask::ptr</text>
</a>
</g>
</g>
<!-- Node0&#45;&gt;Node34 -->
<g id="edge56" class="edge">
<title>Node0&#45;&gt;Node34</title>
<path fill="none" stroke="#191970" d="M61.5924,-133.441C73.7252,-111.584 106.5243,-57.6404 149,-29 155.289,-24.7595 162.5621,-21.435 169.8658,-18.8381"/>
<polygon fill="#191970" stroke="#191970" points="171.2641,-22.0675 179.7546,-15.7301 169.1653,-15.3895 171.2641,-22.0675"/>
</g>
<!-- Node1&#45;&gt;Node2 -->
<g id="edge2" class="edge">
<title>Node1&#45;&gt;Node2</title>
<path fill="none" stroke="#191970" d="M221.5158,-544.7001C234.201,-556.5822 255.9457,-577.5364 273,-597 290.3405,-616.7902 287.7476,-628.4861 309,-644 321.5205,-653.1397 337.861,-659.0854 351.27,-662.7724"/>
<polygon fill="#191970" stroke="#191970" points="350.7168,-666.2415 361.2663,-665.2631 352.4092,-659.4492 350.7168,-666.2415"/>
</g>
<!-- Node3 -->
<g id="node4" class="node">
<title>Node3</title>
<g id="a_node4"><a xlink:href="classGridFinder.html#a7c330ed1431434a4a3726c341161bf39" target="_top" xlink:title="Get the first two lines. These are the two half lines that make up the line closest to the center of ...">
<polygon fill="#ffffff" stroke="#000000" points="479,-615 479,-645 626,-645 626,-615 479,-615"/>
<text text-anchor="start" x="487" y="-633" font-family="Helvetica,sans-Serif" font-size="10.00" fill="#000000">GridFinder::getFirstTwoHalf</text>
<text text-anchor="middle" x="552.5" y="-622" font-family="Helvetica,sans-Serif" font-size="10.00" fill="#000000">Lines</text>
</a>
</g>
</g>
<!-- Node1&#45;&gt;Node3 -->
<g id="edge3" class="edge">
<title>Node1&#45;&gt;Node3</title>
<path fill="none" stroke="#191970" d="M219.5739,-544.6096C235.3421,-561.5329 270.8418,-596.2547 309,-611 359.6808,-630.5844 420.6312,-635.3237 468.8737,-635.1722"/>
<polygon fill="#191970" stroke="#191970" points="469.0032,-638.6712 478.967,-635.0693 468.9317,-631.6716 469.0032,-638.6712"/>
</g>
<!-- Node10 -->
<g id="node11" class="node">
<title>Node10</title>
<g id="a_node11"><a xlink:href="classLine.html#ade63ea812bc1673307538a83b82da577" target="_top" xlink:title=" ">
<polygon fill="#ffffff" stroke="#000000" points="328.5,-582.5 328.5,-601.5 423.5,-601.5 423.5,-582.5 328.5,-582.5"/>
<text text-anchor="middle" x="376" y="-589.5" font-family="Helvetica,sans-Serif" font-size="10.00" fill="#000000">Line::leftOfPoint</text>
</a>
</g>
</g>
<!-- Node1&#45;&gt;Node10 -->
<g id="edge10" class="edge">
<title>Node1&#45;&gt;Node10</title>
<path fill="none" stroke="#191970" d="M238.6173,-544.5405C265.982,-553.9938 308.0901,-568.5402 338.4756,-579.037"/>
<polygon fill="#191970" stroke="#191970" points="337.6979,-582.4713 348.2926,-582.4284 339.9835,-575.8549 337.6979,-582.4713"/>
</g>
<!-- Node11 -->
<g id="node12" class="node">
<title>Node11</title>
<g id="a_node12"><a xlink:href="classGridFinder.html#ace2a9cb90cc19a295d0fbe934a79b7e0" target="_top" xlink:title="Get the center pixel of the frame.">
<polygon fill="#ffffff" stroke="#000000" points="862.5,-544.5 862.5,-563.5 965.5,-563.5 965.5,-544.5 862.5,-544.5"/>
<text text-anchor="middle" x="914" y="-551.5" font-family="Helvetica,sans-Serif" font-size="10.00" fill="#000000">GridFinder::center</text>
</a>
</g>
</g>
<!-- Node1&#45;&gt;Node11 -->
<g id="edge11" class="edge">
<title>Node1&#45;&gt;Node11</title>
<path fill="none" stroke="#191970" d="M273.0782,-536.6778C406.5038,-540.2839 719.2681,-548.737 852.3285,-552.3332"/>
<polygon fill="#191970" stroke="#191970" points="852.2648,-555.8327 862.3557,-552.6042 852.454,-548.8352 852.2648,-555.8327"/>
</g>
<!-- Node14 -->
<g id="node15" class="node">
<title>Node14</title>
<g id="a_node15"><a xlink:href="classGridFinder.html#a54369e6368334eb2924ca70ee1f1d438" target="_top" xlink:title="Follow the given line to find the line perpendicular to it. Move along the line for minDistance pixel...">
<polygon fill="#ffffff" stroke="#000000" points="309,-373.5 309,-392.5 443,-392.5 443,-373.5 309,-373.5"/>
<text text-anchor="middle" x="376" y="-380.5" font-family="Helvetica,sans-Serif" font-size="10.00" fill="#000000">GridFinder::findNextLine</text>
</a>
</g>
</g>
<!-- Node1&#45;&gt;Node14 -->
<g id="edge15" class="edge">
<title>Node1&#45;&gt;Node14</title>
<path fill="none" stroke="#191970" d="M221.3215,-525.4917C248.754,-500.2205 323.7287,-431.1529 358.2144,-399.3843"/>
<polygon fill="#191970" stroke="#191970" points="360.6989,-401.8543 365.6824,-392.5047 355.9561,-396.7059 360.6989,-401.8543"/>
</g>
<!-- Node28 -->
<g id="node29" class="node">
<title>Node28</title>
<g id="a_node29"><a xlink:href="Array_8hpp.html#a54bae1a9c86ad6bc491b4f10495a759f" target="_top" xlink:title=" ">
<polygon fill="#ffffff" stroke="#000000" points="897,-506.5 897,-525.5 931,-525.5 931,-506.5 897,-506.5"/>
<text text-anchor="middle" x="914" y="-513.5" font-family="Helvetica,sans-Serif" font-size="10.00" fill="#000000">abs</text>
</a>
</g>
</g>
<!-- Node1&#45;&gt;Node28 -->
<g id="edge51" class="edge">
<title>Node1&#45;&gt;Node28</title>
<path fill="none" stroke="#191970" d="M273.0782,-533.3222C419.8974,-529.3541 783.8671,-519.5171 886.6036,-516.7404"/>
<polygon fill="#191970" stroke="#191970" points="886.8685,-520.2347 896.7702,-516.4657 886.6793,-513.2372 886.8685,-520.2347"/>
</g>
<!-- Node29 -->
<g id="node30" class="node">
<title>Node29</title>
<g id="a_node30"><a xlink:href="classGridFinder.html#ac7202be6727634054a169022b5ce3e01" target="_top" xlink:title="Get the point of intersection of two lines.">
<polygon fill="#ffffff" stroke="#000000" points="318.5,-253.5 318.5,-272.5 433.5,-272.5 433.5,-253.5 318.5,-253.5"/>
<text text-anchor="middle" x="376" y="-260.5" font-family="Helvetica,sans-Serif" font-size="10.00" fill="#000000">GridFinder::intersect</text>
</a>
</g>
</g>
<!-- Node1&#45;&gt;Node29 -->
<g id="edge48" class="edge">
<title>Node1&#45;&gt;Node29</title>
<path fill="none" stroke="#191970" d="M216.3073,-525.2281C230.6822,-498.8762 271.7936,-424.2705 309,-364 327.2253,-334.4768 349.7682,-301.0848 363.506,-281.0555"/>
<polygon fill="#191970" stroke="#191970" points="366.5304,-282.8346 369.3184,-272.6132 360.7648,-278.865 366.5304,-282.8346"/>
</g>
<!-- Node4 -->
<g id="node5" class="node">
<title>Node4</title>
<g id="a_node5"><a xlink:href="classGridFinder.html#afa715db70f6b6d2a864bc0674fb5abb6" target="_top" xlink:title="Get an estimate of the first line. Searches in multiple columns, starting from the center,...">
<polygon fill="#ffffff" stroke="#000000" points="668,-618 668,-648 796,-648 796,-618 668,-618"/>
<text text-anchor="start" x="676" y="-636" font-family="Helvetica,sans-Serif" font-size="10.00" fill="#000000">GridFinder::getFirstLine</text>
<text text-anchor="middle" x="732" y="-625" font-family="Helvetica,sans-Serif" font-size="10.00" fill="#000000">Estimate</text>
</a>
</g>
</g>
<!-- Node3&#45;&gt;Node4 -->
<g id="edge4" class="edge">
<title>Node3&#45;&gt;Node4</title>
<path fill="none" stroke="#191970" d="M626.0274,-631.2289C636.4113,-631.4024 647.0948,-631.581 657.4968,-631.7548"/>
<polygon fill="#191970" stroke="#191970" points="657.7264,-635.2591 667.7835,-631.9267 657.8434,-628.26 657.7264,-635.2591"/>
</g>
<!-- Node9 -->
<g id="node10" class="node">
<title>Node9</title>
<g id="a_node10"><a xlink:href="classAngle.html#a84ce9a0e2a186ada6997077fd96d6e4c" target="_top" xlink:title=" ">
<polygon fill="#ffffff" stroke="#000000" points="662,-468.5 662,-487.5 802,-487.5 802,-468.5 662,-468.5"/>
<text text-anchor="middle" x="732" y="-475.5" font-family="Helvetica,sans-Serif" font-size="10.00" fill="#000000">Angle&lt; 360 &gt;::resolution</text>
</a>
</g>
</g>
<!-- Node3&#45;&gt;Node9 -->
<g id="edge9" class="edge">
<title>Node3&#45;&gt;Node9</title>
<path fill="none" stroke="#191970" d="M570.3674,-614.87C604.2114,-586.211 677.4111,-524.2257 712.4877,-494.5229"/>
<polygon fill="#191970" stroke="#191970" points="715.1673,-496.8402 720.537,-487.7068 710.6437,-491.4981 715.1673,-496.8402"/>
</g>
<!-- Node5 -->
<g id="node6" class="node">
<title>Node5</title>
<g id="a_node6"><a xlink:href="classGridFinder.html#aadfce89f171d55f954a19d700b43ff5c" target="_top" xlink:title="Get the width of the frame.">
<polygon fill="#ffffff" stroke="#000000" points="1051.5,-448.5 1051.5,-467.5 1150.5,-467.5 1150.5,-448.5 1051.5,-448.5"/>
<text text-anchor="middle" x="1101" y="-455.5" font-family="Helvetica,sans-Serif" font-size="10.00" fill="#000000">GridFinder::width</text>
</a>
</g>
</g>
<!-- Node4&#45;&gt;Node5 -->
<g id="edge5" class="edge">
<title>Node4&#45;&gt;Node5</title>
<path fill="none" stroke="#191970" d="M796.2435,-620.0745C867.0529,-605.5111 973.2179,-582.619 990,-573 1010.184,-561.4311 1009.8833,-551.7776 1026,-535 1045.816,-514.3714 1068.7902,-490.8407 1084.0364,-475.2787"/>
<polygon fill="#191970" stroke="#191970" points="1086.7451,-477.5154 1091.2472,-467.9247 1081.7468,-472.6146 1086.7451,-477.5154"/>
</g>
<!-- Node7 -->
<g id="node8" class="node">
<title>Node7</title>
<g id="a_node8"><a xlink:href="classCenterPointOutLineIterator.html#a6f4fda8865e7d1def0a8614622f0f6ef" target="_top" xlink:title=" ">
<polygon fill="#ffffff" stroke="#000000" points="840.5,-670 840.5,-700 987.5,-700 987.5,-670 840.5,-670"/>
<text text-anchor="start" x="848.5" y="-688" font-family="Helvetica,sans-Serif" font-size="10.00" fill="#000000">CenterPointOutLineIterator</text>
<text text-anchor="middle" x="914" y="-677" font-family="Helvetica,sans-Serif" font-size="10.00" fill="#000000">::hasNext</text>
</a>
</g>
</g>
<!-- Node4&#45;&gt;Node7 -->
<g id="edge7" class="edge">
<title>Node4&#45;&gt;Node7</title>
<path fill="none" stroke="#191970" d="M784.6419,-648.0406C805.5812,-654.0232 829.8371,-660.9535 851.6479,-667.1851"/>
<polygon fill="#191970" stroke="#191970" points="850.8996,-670.6113 861.4764,-669.9932 852.8227,-663.8806 850.8996,-670.6113"/>
</g>
<!-- Node8 -->
<g id="node9" class="node">
<title>Node8</title>
<g id="a_node9"><a xlink:href="classCenterPointOutLineIterator.html#a89580e1393d0dfc3ff12c7a5af2a4374" target="_top" xlink:title=" ">
<polygon fill="#ffffff" stroke="#000000" points="840.5,-621 840.5,-651 987.5,-651 987.5,-621 840.5,-621"/>
<text text-anchor="start" x="848.5" y="-639" font-family="Helvetica,sans-Serif" font-size="10.00" fill="#000000">CenterPointOutLineIterator</text>
<text text-anchor="middle" x="914" y="-628" font-family="Helvetica,sans-Serif" font-size="10.00" fill="#000000">::next</text>
</a>
</g>
</g>
<!-- Node4&#45;&gt;Node8 -->
<g id="edge8" class="edge">
<title>Node4&#45;&gt;Node8</title>
<path fill="none" stroke="#191970" d="M796.1664,-634.0577C807.2481,-634.2404 818.9128,-634.4326 830.4183,-634.6223"/>
<polygon fill="#191970" stroke="#191970" points="830.4132,-638.1226 840.4696,-634.788 830.5286,-631.1235 830.4132,-638.1226"/>
</g>
<!-- Node5&#45;&gt;Node6 -->
<g id="edge6" class="edge">
<title>Node5&#45;&gt;Node6</title>
<path fill="none" stroke="#191970" d="M1143.3622,-448.4247C1154.1001,-445.6823 1165.5504,-442.4817 1176,-439 1202.168,-430.2811 1231.0194,-418.0599 1251.9269,-408.7094"/>
<polygon fill="#191970" stroke="#191970" points="1253.55,-411.8167 1261.2204,-404.5082 1250.6665,-405.4382 1253.55,-411.8167"/>
</g>
<!-- Node11&#45;&gt;Node5 -->
<g id="edge12" class="edge">
<title>Node11&#45;&gt;Node5</title>
<path fill="none" stroke="#191970" d="M963.1344,-544.4891C972.2667,-541.9504 981.5772,-538.8194 990,-535 1025.2941,-518.9954 1061.2701,-491.5727 1082.3441,-474.139"/>
<polygon fill="#191970" stroke="#191970" points="1084.7671,-476.6744 1090.1653,-467.5579 1080.2602,-471.3183 1084.7671,-476.6744"/>
</g>
<!-- Node12 -->
<g id="node13" class="node">
<title>Node12</title>
<g id="a_node13"><a xlink:href="classGridFinder.html#affd9ae441c8d86b1856a9ef31190e9ab" target="_top" xlink:title="Get the height of the frame.">
<polygon fill="#ffffff" stroke="#000000" points="1049.5,-544.5 1049.5,-563.5 1152.5,-563.5 1152.5,-544.5 1049.5,-544.5"/>
<text text-anchor="middle" x="1101" y="-551.5" font-family="Helvetica,sans-Serif" font-size="10.00" fill="#000000">GridFinder::height</text>
</a>
</g>
</g>
<!-- Node11&#45;&gt;Node12 -->
<g id="edge13" class="edge">
<title>Node11&#45;&gt;Node12</title>
<path fill="none" stroke="#191970" d="M965.5936,-554C988.3907,-554 1015.3785,-554 1039.2379,-554"/>
<polygon fill="#191970" stroke="#191970" points="1039.2505,-557.5001 1049.2505,-554 1039.2504,-550.5001 1039.2505,-557.5001"/>
</g>
<!-- Node12&#45;&gt;Node13 -->
<g id="edge14" class="edge">
<title>Node12&#45;&gt;Node13</title>
<path fill="none" stroke="#191970" d="M1117.3365,-563.5937C1148.9369,-582.1513 1218.6257,-623.0766 1256.2409,-645.1664"/>
<polygon fill="#191970" stroke="#191970" points="1254.6749,-648.3056 1265.0703,-650.3516 1258.2197,-642.2695 1254.6749,-648.3056"/>
</g>
<!-- Node14&#45;&gt;Node5 -->
<g id="edge25" class="edge">
<title>Node14&#45;&gt;Node5</title>
<path fill="none" stroke="#191970" d="M443.0655,-377.6609C557.7463,-370.6046 797.7601,-364.9219 990,-421 1007.1728,-426.0095 1009.2324,-432.7673 1026,-439 1032.5136,-441.4212 1039.4575,-443.6397 1046.3918,-445.6386"/>
<polygon fill="#191970" stroke="#191970" points="1045.9237,-449.1394 1056.4933,-448.4082 1047.7747,-442.3885 1045.9237,-449.1394"/>
</g>
<!-- Node14&#45;&gt;Node12 -->
<g id="edge26" class="edge">
<title>Node14&#45;&gt;Node12</title>
<path fill="none" stroke="#191970" d="M379.3453,-392.6449C395.8094,-440.0028 467.8873,-646.006 479,-655 567.778,-726.8521 888.4945,-762.3535 990,-710 1046.4893,-680.8645 1080.5199,-608.2171 1094.1255,-573.3157"/>
<polygon fill="#191970" stroke="#191970" points="1097.4649,-574.3783 1097.6945,-563.786 1090.9095,-571.9232 1097.4649,-574.3783"/>
</g>
<!-- Node15 -->
<g id="node16" class="node">
<title>Node15</title>
<g id="a_node16"><a xlink:href="classAngle.html#aa9c7edb3027272ad1e45098383f0a94d" target="_top" xlink:title=" ">
<polygon fill="#ffffff" stroke="#000000" points="494,-392.5 494,-411.5 611,-411.5 611,-392.5 494,-392.5"/>
<text text-anchor="middle" x="552.5" y="-399.5" font-family="Helvetica,sans-Serif" font-size="10.00" fill="#000000">Angle::perpendicular</text>
</a>
</g>
</g>
<!-- Node14&#45;&gt;Node15 -->
<g id="edge16" class="edge">
<title>Node14&#45;&gt;Node15</title>
<path fill="none" stroke="#191970" d="M443.2306,-390.2373C456.5055,-391.6663 470.4542,-393.1679 483.7777,-394.6021"/>
<polygon fill="#191970" stroke="#191970" points="483.5057,-398.093 493.8229,-395.6835 484.255,-391.1332 483.5057,-398.093"/>
</g>
<!-- Node16 -->
<g id="node17" class="node">
<title>Node16</title>
<g id="a_node17"><a xlink:href="classGridFinder.html#af8bdc28d95e295618c2f345f2d7eb758" target="_top" xlink:title="Move a pixel in a given direction for a given distance.">
<polygon fill="#ffffff" stroke="#000000" points="864,-354.5 864,-373.5 964,-373.5 964,-354.5 864,-354.5"/>
<text text-anchor="middle" x="914" y="-361.5" font-family="Helvetica,sans-Serif" font-size="10.00" fill="#000000">GridFinder::move</text>
</a>
</g>
</g>
<!-- Node14&#45;&gt;Node16 -->
<g id="edge17" class="edge">
<title>Node14&#45;&gt;Node16</title>
<path fill="none" stroke="#191970" d="M398.8192,-373.4268C419.3683,-365.357 450.6153,-354.436 479,-350 611.5352,-329.2872 769.4503,-344.0356 853.8041,-355.0226"/>
<polygon fill="#191970" stroke="#191970" points="853.3457,-358.4924 863.7198,-356.3412 854.2685,-351.5535 853.3457,-358.4924"/>
</g>
<!-- Node17 -->
<g id="node18" class="node">
<title>Node17</title>
<g id="a_node18"><a xlink:href="classBresenhamLine.html#aba0822ee20811d67cd9539ccbe1cd346" target="_top" xlink:title=" ">
<polygon fill="#ffffff" stroke="#000000" points="1212,-265.5 1212,-284.5 1351,-284.5 1351,-265.5 1212,-265.5"/>
<text text-anchor="middle" x="1281.5" y="-272.5" font-family="Helvetica,sans-Serif" font-size="10.00" fill="#000000">BresenhamLine::hasNext</text>
</a>
</g>
</g>
<!-- Node14&#45;&gt;Node17 -->
<g id="edge28" class="edge">
<title>Node14&#45;&gt;Node17</title>
<path fill="none" stroke="#191970" d="M382.4432,-373.2406C401.0137,-345.3167 454.8573,-265.8336 479,-246 575.4593,-166.7573 607.1649,-124 732,-124 732,-124 732,-124 914,-124 1030.932,-124 1072.5248,-93.5393 1176,-148 1222.5143,-172.4813 1256.5242,-227.0557 1272.0766,-256.0486"/>
<polygon fill="#191970" stroke="#191970" points="1269.0849,-257.8823 1276.7982,-265.1456 1275.2979,-254.6575 1269.0849,-257.8823"/>
</g>
<!-- Node20 -->
<g id="node21" class="node">
<title>Node20</title>
<g id="a_node21"><a xlink:href="classBresenhamLine.html#a10d505e30945f42a5cd0270c315b104f" target="_top" xlink:title=" ">
<polygon fill="#ffffff" stroke="#000000" points="1041,-246.5 1041,-265.5 1161,-265.5 1161,-246.5 1041,-246.5"/>
<text text-anchor="middle" x="1101" y="-253.5" font-family="Helvetica,sans-Serif" font-size="10.00" fill="#000000">BresenhamLine::next</text>
</a>
</g>
</g>
<!-- Node14&#45;&gt;Node20 -->
<g id="edge27" class="edge">
<title>Node14&#45;&gt;Node20</title>
<path fill="none" stroke="#191970" d="M392.5039,-373.3428C412.3407,-362.2078 446.9687,-344.2529 479,-335 673.3992,-278.844 913.4397,-262.5872 1030.338,-257.8947"/>
<polygon fill="#191970" stroke="#191970" points="1030.7232,-261.3825 1040.5812,-257.5006 1030.454,-254.3877 1030.7232,-261.3825"/>
</g>
<!-- Node21 -->
<g id="node22" class="node">
<title>Node21</title>
<g id="a_node22"><a xlink:href="classGridFinder.html#afbed8951f70923626b73abdbe05236da" target="_top" xlink:title="Get the value of the given pixel.">
<polygon fill="#ffffff" stroke="#000000" points="1057,-190.5 1057,-209.5 1145,-209.5 1145,-190.5 1057,-190.5"/>
<text text-anchor="middle" x="1101" y="-197.5" font-family="Helvetica,sans-Serif" font-size="10.00" fill="#000000">GridFinder::get</text>
</a>
</g>
</g>
<!-- Node14&#45;&gt;Node21 -->
<g id="edge29" class="edge">
<title>Node14&#45;&gt;Node21</title>
<path fill="none" stroke="#191970" d="M384.5122,-373.2697C400.8451,-355.3026 438.5651,-317.1052 479,-299 674.5336,-211.4476 935.1072,-199.9214 1046.6281,-199.3328"/>
<polygon fill="#191970" stroke="#191970" points="1046.9565,-202.8321 1056.9479,-199.3078 1046.9394,-195.8321 1046.9565,-202.8321"/>
</g>
<!-- Node22 -->
<g id="node23" class="node">
<title>Node22</title>
<g id="a_node23"><a xlink:href="structPixel.html#ac3b82b3e3cd3b812dc1a0bccb474511f" target="_top" xlink:title=" ">
<polygon fill="#ffffff" stroke="#000000" points="509.5,-468.5 509.5,-487.5 595.5,-487.5 595.5,-468.5 509.5,-468.5"/>
<text text-anchor="middle" x="552.5" y="-475.5" font-family="Helvetica,sans-Serif" font-size="10.00" fill="#000000">Pixel::average</text>
</a>
</g>
</g>
<!-- Node14&#45;&gt;Node22 -->
<g id="edge31" class="edge">
<title>Node14&#45;&gt;Node22</title>
<path fill="none" stroke="#191970" d="M386.2368,-392.6941C403.8143,-408.8182 441.4783,-441.1368 479,-459 485.4632,-462.077 492.4923,-464.7036 499.5563,-466.9324"/>
<polygon fill="#191970" stroke="#191970" points="498.5808,-470.2937 509.1606,-469.73 500.5385,-463.573 498.5808,-470.2937"/>
</g>
<!-- Node23 -->
<g id="node24" class="node">
<title>Node23</title>
<g id="a_node24"><a xlink:href="classGridFinder.html#ae12ca7921b02b37417d87fc737f0134d" target="_top" xlink:title="Check if there could be a valid line going through the given point, and if so, find and return the ac...">
<polygon fill="#ffffff" stroke="#000000" points="492,-430.5 492,-449.5 613,-449.5 613,-430.5 492,-430.5"/>
<text text-anchor="middle" x="552.5" y="-437.5" font-family="Helvetica,sans-Serif" font-size="10.00" fill="#000000">GridFinder::checkLine</text>
</a>
</g>
</g>
<!-- Node14&#45;&gt;Node23 -->
<g id="edge32" class="edge">
<title>Node14&#45;&gt;Node23</title>
<path fill="none" stroke="#191970" d="M399.9059,-392.5971C420.6324,-400.73 451.5321,-412.4067 479,-421 486.6907,-423.406 494.9003,-425.7465 502.9422,-427.9156"/>
<polygon fill="#191970" stroke="#191970" points="502.0603,-431.3026 512.6223,-430.4692 503.8459,-424.5342 502.0603,-431.3026"/>
</g>
<!-- Node16&#45;&gt;Node5 -->
<g id="edge18" class="edge">
<title>Node16&#45;&gt;Node5</title>
<path fill="none" stroke="#191970" d="M960.8915,-373.5732C971.0941,-377.0388 981.3974,-381.7144 990,-388 1012.4022,-404.3683 1003.1345,-423.2855 1026,-439 1030.8223,-442.3142 1036.1752,-445.0506 1041.7384,-447.31"/>
<polygon fill="#191970" stroke="#191970" points="1040.6482,-450.6369 1051.243,-450.6796 1042.9873,-444.0392 1040.6482,-450.6369"/>
</g>
<!-- Node16&#45;&gt;Node12 -->
<g id="edge19" class="edge">
<title>Node16&#45;&gt;Node12</title>
<path fill="none" stroke="#191970" d="M930.158,-373.6908C946.5164,-384.0259 971.9132,-401.5585 990,-421 1010.1536,-442.6631 1007.5847,-453.8411 1026,-477 1043.7041,-499.2645 1066.9153,-522.3144 1082.7987,-537.3208"/>
<polygon fill="#191970" stroke="#191970" points="1080.6706,-540.1223 1090.3687,-544.3883 1085.4476,-535.0056 1080.6706,-540.1223"/>
</g>
<!-- Node16&#45;&gt;Node17 -->
<g id="edge20" class="edge">
<title>Node16&#45;&gt;Node17</title>
<path fill="none" stroke="#191970" d="M963.5425,-373.5281C1017.564,-381.7293 1105.6987,-388.623 1176,-363 1214.7751,-348.8675 1249.3309,-313.637 1267.6569,-292.2853"/>
<polygon fill="#191970" stroke="#191970" points="1270.3514,-294.5192 1274.0688,-284.5979 1264.9758,-290.0355 1270.3514,-294.5192"/>
</g>
<!-- Node19 -->
<g id="node20" class="node">
<title>Node19</title>
<g id="a_node20"><a xlink:href="classBresenhamLine.html#ad93a4adf0535a9b4e649bce5ade1bc5e" target="_top" xlink:title=" ">
<polygon fill="#ffffff" stroke="#000000" points="1026,-323 1026,-353 1176,-353 1176,-323 1026,-323"/>
<text text-anchor="start" x="1034" y="-341" font-family="Helvetica,sans-Serif" font-size="10.00" fill="#000000">BresenhamLine::getCurrent</text>
<text text-anchor="middle" x="1101" y="-330" font-family="Helvetica,sans-Serif" font-size="10.00" fill="#000000">Length</text>
</a>
</g>
</g>
<!-- Node16&#45;&gt;Node19 -->
<g id="edge22" class="edge">
<title>Node16&#45;&gt;Node19</title>
<path fill="none" stroke="#191970" d="M964.1126,-357.0325C979.9391,-354.832 997.8967,-352.3352 1015.4756,-349.8911"/>
<polygon fill="#191970" stroke="#191970" points="1016.3403,-353.3046 1025.763,-348.4608 1015.3762,-346.3713 1016.3403,-353.3046"/>
</g>
<!-- Node16&#45;&gt;Node20 -->
<g id="edge23" class="edge">
<title>Node16&#45;&gt;Node20</title>
<path fill="none" stroke="#191970" d="M964.2787,-354.9603C973.1173,-352.3914 982.0295,-349.1287 990,-345 1008.7486,-335.2882 1009.6429,-327.3519 1026,-314 1043.9076,-299.3824 1064.7384,-283.348 1079.896,-271.8503"/>
<polygon fill="#191970" stroke="#191970" points="1082.2324,-274.4717 1088.0999,-265.6499 1078.0118,-268.8872 1082.2324,-274.4717"/>
</g>
<!-- Node18 -->
<g id="node19" class="node">
<title>Node18</title>
<g id="a_node19"><a xlink:href="structPixel.html#a816d743559e2ac5b35c9c79ac517ad0a" target="_top" xlink:title=" ">
<polygon fill="#ffffff" stroke="#000000" points="1387,-265.5 1387,-284.5 1473,-284.5 1473,-265.5 1387,-265.5"/>
<text text-anchor="middle" x="1430" y="-272.5" font-family="Helvetica,sans-Serif" font-size="10.00" fill="#000000">Pixel::inRange</text>
</a>
</g>
</g>
<!-- Node17&#45;&gt;Node18 -->
<g id="edge21" class="edge">
<title>Node17&#45;&gt;Node18</title>
<path fill="none" stroke="#191970" d="M1351.4016,-275C1359.8647,-275 1368.4033,-275 1376.5758,-275"/>
<polygon fill="#191970" stroke="#191970" points="1376.6984,-278.5001 1386.6984,-275 1376.6984,-271.5001 1376.6984,-278.5001"/>
</g>
<!-- Node20&#45;&gt;Node17 -->
<g id="edge24" class="edge">
<title>Node20&#45;&gt;Node17</title>
<path fill="none" stroke="#191970" d="M1161.1039,-262.3267C1174.0978,-263.6945 1188.0336,-265.1614 1201.6494,-266.5947"/>
<polygon fill="#191970" stroke="#191970" points="1201.6667,-270.1158 1211.9782,-267.6819 1202.3996,-263.1542 1201.6667,-270.1158"/>
</g>
<!-- Node21&#45;&gt;Node21 -->
<g id="edge30" class="edge">
<title>Node21&#45;&gt;Node21</title>
<path fill="none" stroke="#191970" d="M1073.2568,-209.7571C1059.7601,-218.5653 1069.0078,-228 1101,-228 1122.9946,-228 1134.239,-223.5406 1134.733,-217.8913"/>
<polygon fill="#191970" stroke="#191970" points="1137.4911,-215.7341 1128.7432,-209.7571 1131.8544,-219.8848 1137.4911,-215.7341"/>
</g>
<!-- Node23&#45;&gt;Node9 -->
<g id="edge47" class="edge">
<title>Node23&#45;&gt;Node9</title>
<path fill="none" stroke="#191970" d="M597.7954,-449.589C621.9092,-454.6939 651.7508,-461.0113 677.1666,-466.3918"/>
<polygon fill="#191970" stroke="#191970" points="676.5222,-469.8329 687.0303,-468.4799 677.972,-462.9847 676.5222,-469.8329"/>
</g>
<!-- Node24 -->
<g id="node25" class="node">
<title>Node24</title>
<g id="a_node25"><a xlink:href="classGridFinder.html#abcd46f31e256080b2d5d2aee03c0e258" target="_top" xlink:title="Find the middle of a line.">
<polygon fill="#ffffff" stroke="#000000" points="672,-430.5 672,-449.5 792,-449.5 792,-430.5 672,-430.5"/>
<text text-anchor="middle" x="732" y="-437.5" font-family="Helvetica,sans-Serif" font-size="10.00" fill="#000000">GridFinder::getMiddle</text>
</a>
</g>
</g>
<!-- Node23&#45;&gt;Node24 -->
<g id="edge33" class="edge">
<title>Node23&#45;&gt;Node24</title>
<path fill="none" stroke="#191970" d="M613.2705,-440C628.7889,-440 645.6021,-440 661.5603,-440"/>
<polygon fill="#191970" stroke="#191970" points="661.9015,-443.5001 671.9015,-440 661.9015,-436.5001 661.9015,-443.5001"/>
</g>
<!-- Node24&#45;&gt;Node16 -->
<g id="edge46" class="edge">
<title>Node24&#45;&gt;Node16</title>
<path fill="none" stroke="#191970" d="M755.0504,-430.3745C787.0504,-417.0119 845.0951,-392.7735 881.4864,-377.5771"/>
<polygon fill="#191970" stroke="#191970" points="883.2577,-380.6304 891.1367,-373.5473 880.5603,-374.171 883.2577,-380.6304"/>
</g>
<!-- Node24&#45;&gt;Node21 -->
<g id="edge34" class="edge">
<title>Node24&#45;&gt;Node21</title>
<path fill="none" stroke="#191970" d="M736.4864,-430.3511C748.9205,-404.6223 786.3451,-333.7078 838,-295 901.2201,-247.6257 990.3364,-222.0932 1046.8813,-209.7769"/>
<polygon fill="#191970" stroke="#191970" points="1047.6424,-213.1934 1056.7015,-207.6994 1046.1936,-206.3449 1047.6424,-213.1934"/>
</g>
<!-- Node25 -->
<g id="node26" class="node">
<title>Node25</title>
<g id="a_node26"><a xlink:href="structCosSin.html#a4c63ac2c483b5caa4012f8c27d58dd96" target="_top" xlink:title=" ">
<polygon fill="#ffffff" stroke="#000000" points="865,-430.5 865,-449.5 963,-449.5 963,-430.5 865,-430.5"/>
<text text-anchor="middle" x="914" y="-437.5" font-family="Helvetica,sans-Serif" font-size="10.00" fill="#000000">CosSin::opposite</text>
</a>
</g>
</g>
<!-- Node24&#45;&gt;Node25 -->
<g id="edge35" class="edge">
<title>Node24&#45;&gt;Node25</title>
<path fill="none" stroke="#191970" d="M792.098,-440C812.201,-440 834.5871,-440 854.6339,-440"/>
<polygon fill="#191970" stroke="#191970" points="854.8794,-443.5001 864.8793,-440 854.8793,-436.5001 854.8794,-443.5001"/>
</g>
<!-- Node26 -->
<g id="node27" class="node">
<title>Node26</title>
<g id="a_node27"><a xlink:href="classGridFinder.html#ab5c436911deb269a22a8d5525271fa4e" target="_top" xlink:title="Get the width of the line at a given point.">
<polygon fill="#ffffff" stroke="#000000" points="838,-305 838,-335 990,-335 990,-305 838,-305"/>
<text text-anchor="start" x="846" y="-323" font-family="Helvetica,sans-Serif" font-size="10.00" fill="#000000">GridFinder::getWidthAtPoint</text>
<text text-anchor="middle" x="914" y="-312" font-family="Helvetica,sans-Serif" font-size="10.00" fill="#000000">OnLine</text>
</a>
</g>
</g>
<!-- Node24&#45;&gt;Node26 -->
<g id="edge36" class="edge">
<title>Node24&#45;&gt;Node26</title>
<path fill="none" stroke="#191970" d="M740.0815,-430.4976C756.6167,-411.6161 796.2836,-369.1219 838,-345 841.6524,-342.888 845.5081,-340.9253 849.4673,-339.1061"/>
<polygon fill="#191970" stroke="#191970" points="851.0128,-342.2523 858.8466,-335.1191 848.2743,-335.8102 851.0128,-342.2523"/>
</g>
<!-- Node27 -->
<g id="node28" class="node">
<title>Node27</title>
<g id="a_node28"><a xlink:href="structCosSin.html#adb1d000cc58879b65a63fac849408bfe" target="_top" xlink:title=" ">
<polygon fill="#ffffff" stroke="#000000" points="1040,-410.5 1040,-429.5 1162,-429.5 1162,-410.5 1040,-410.5"/>
<text text-anchor="middle" x="1101" y="-417.5" font-family="Helvetica,sans-Serif" font-size="10.00" fill="#000000">CosSin::perpendicular</text>
</a>
</g>
</g>
<!-- Node24&#45;&gt;Node27 -->
<g id="edge45" class="edge">
<title>Node24&#45;&gt;Node27</title>
<path fill="none" stroke="#191970" d="M766.8601,-449.596C817.0461,-461.842 912.1761,-479.1662 990,-459 1007.7182,-454.4088 1008.9861,-445.7484 1026,-439 1032.2078,-436.5377 1038.8333,-434.3152 1045.48,-432.3322"/>
<polygon fill="#191970" stroke="#191970" points="1046.5106,-435.6782 1055.1872,-429.5982 1044.6129,-428.9403 1046.5106,-435.6782"/>
</g>
<!-- Node24&#45;&gt;Node28 -->
<g id="edge44" class="edge">
<title>Node24&#45;&gt;Node28</title>
<path fill="none" stroke="#191970" d="M779.52,-449.5876C787.2832,-452.0778 795.0512,-455.1723 802,-459 821.0115,-469.4725 819.2062,-481.1415 838,-492 853.1856,-500.7738 871.9646,-506.7429 887.0561,-510.5337"/>
<polygon fill="#191970" stroke="#191970" points="886.2912,-513.9492 896.8255,-512.8179 887.8849,-507.133 886.2912,-513.9492"/>
</g>
<!-- Node26&#45;&gt;Node5 -->
<g id="edge37" class="edge">
<title>Node26&#45;&gt;Node5</title>
<path fill="none" stroke="#191970" d="M976.4241,-335.1726C981.3579,-337.9208 985.9783,-341.1666 990,-345 1022.3829,-375.8663 992.5615,-409.2805 1026,-439 1030.5666,-443.0587 1035.878,-446.2749 1041.5255,-448.8199"/>
<polygon fill="#191970" stroke="#191970" points="1040.6831,-452.2429 1051.2748,-452.4995 1043.1549,-445.6938 1040.6831,-452.2429"/>
</g>
<!-- Node26&#45;&gt;Node12 -->
<g id="edge38" class="edge">
<title>Node26&#45;&gt;Node12</title>
<path fill="none" stroke="#191970" d="M977.566,-335.1851C982.1349,-337.931 986.3652,-341.1728 990,-345 1031.8763,-389.0925 995.8248,-424.2057 1026,-477 1039.8788,-501.2823 1063.2133,-523.5243 1080.1748,-537.7922"/>
<polygon fill="#191970" stroke="#191970" points="1078.4211,-540.879 1088.3798,-544.4951 1082.8498,-535.458 1078.4211,-540.879"/>
</g>
<!-- Node26&#45;&gt;Node17 -->
<g id="edge40" class="edge">
<title>Node26&#45;&gt;Node17</title>
<path fill="none" stroke="#191970" d="M990.1462,-310.676C1051.9834,-303.1041 1138.9236,-292.4583 1201.7184,-284.7692"/>
<polygon fill="#191970" stroke="#191970" points="1202.4723,-288.2031 1211.9727,-283.5135 1201.6214,-281.255 1202.4723,-288.2031"/>
</g>
<!-- Node26&#45;&gt;Node19 -->
<g id="edge42" class="edge">
<title>Node26&#45;&gt;Node19</title>
<path fill="none" stroke="#191970" d="M990.0601,-327.3213C998.5634,-328.1398 1007.2662,-328.9775 1015.8736,-329.806"/>
<polygon fill="#191970" stroke="#191970" points="1015.6271,-333.2984 1025.9165,-330.7727 1016.2979,-326.3306 1015.6271,-333.2984"/>
</g>
<!-- Node26&#45;&gt;Node20 -->
<g id="edge41" class="edge">
<title>Node26&#45;&gt;Node20</title>
<path fill="none" stroke="#191970" d="M955.1092,-304.9482C976.2375,-297.3064 1002.4333,-287.9765 1026,-280 1037.2176,-276.2032 1049.4311,-272.2279 1060.6822,-268.6297"/>
<polygon fill="#191970" stroke="#191970" points="1061.8042,-271.9456 1070.2724,-265.5786 1059.6819,-265.2751 1061.8042,-271.9456"/>
</g>
<!-- Node26&#45;&gt;Node21 -->
<g id="edge43" class="edge">
<title>Node26&#45;&gt;Node21</title>
<path fill="none" stroke="#191970" d="M964.5783,-304.9786C973.5775,-300.9705 982.4696,-296.0281 990,-290 1012.2303,-272.2045 1004.521,-255.6953 1026,-237 1036.9962,-227.4289 1050.904,-219.6739 1063.7479,-213.7827"/>
<polygon fill="#191970" stroke="#191970" points="1065.5146,-216.8316 1073.2965,-209.6418 1062.7295,-210.4095 1065.5146,-216.8316"/>
</g>
<!-- Node26&#45;&gt;Node27 -->
<g id="edge39" class="edge">
<title>Node26&#45;&gt;Node27</title>
<path fill="none" stroke="#191970" d="M966.2744,-335.07C974.3678,-338.007 982.5176,-341.33 990,-345 1023.9519,-361.6529 1059.5536,-387.4076 1081.0128,-403.9842"/>
<polygon fill="#191970" stroke="#191970" points="1079.0043,-406.8568 1089.0359,-410.2653 1083.3194,-401.3449 1079.0043,-406.8568"/>
</g>
<!-- Node29&#45;&gt;Node30 -->
<g id="edge49" class="edge">
<title>Node29&#45;&gt;Node30</title>
<path fill="none" stroke="#191970" d="M379.9003,-253.1145C391.0747,-226.0584 425.8555,-150.1454 479,-110 485.2508,-105.2781 492.4714,-101.4618 499.8947,-98.3837"/>
<polygon fill="#191970" stroke="#191970" points="501.1962,-101.6339 509.3483,-94.8668 498.7555,-95.0732 501.1962,-101.6339"/>
</g>
<!-- Node31 -->
<g id="node32" class="node">
<title>Node31</title>
<g id="a_node32"><a xlink:href="Matrix_8hpp.html#aaac3f553f87e00956b4736107cf40289" target="_top" xlink:title="Calculates u × v, where u, v ⊆ ℝ³.">
<polygon fill="#ffffff" stroke="#000000" points="711,-76.5 711,-95.5 753,-95.5 753,-76.5 711,-76.5"/>
<text text-anchor="middle" x="732" y="-83.5" font-family="Helvetica,sans-Serif" font-size="10.00" fill="#000000">cross</text>
</a>
</g>
</g>
<!-- Node30&#45;&gt;Node31 -->
<g id="edge50" class="edge">
<title>Node30&#45;&gt;Node31</title>
<path fill="none" stroke="#191970" d="M595.9519,-86C628.1531,-86 671.3038,-86 700.2983,-86"/>
<polygon fill="#191970" stroke="#191970" points="700.6653,-89.5001 710.6653,-86 700.6653,-82.5001 700.6653,-89.5001"/>
</g>
</g>
</svg>
