<?xml version="1.0" encoding="UTF-8" standalone="no"?>
<!DOCTYPE svg PUBLIC "-//W3C//DTD SVG 1.1//EN"
 "http://www.w3.org/Graphics/SVG/1.1/DTD/svg11.dtd">
<!-- Generated by graphviz version 2.40.1 (20161225.0304)
 -->
<!-- Title: /home/pieter/GitHub/EAGLE&#45;ZYBO&#45;Linux/src/grid&#45;finder/include/GridFinder.hpp Pages: 1 -->
<svg width="1012pt" height="330pt"
 viewBox="0.00 0.00 1012.00 330.00" xmlns="http://www.w3.org/2000/svg" xmlns:xlink="http://www.w3.org/1999/xlink">
<g id="graph0" class="graph" transform="scale(1 1) rotate(0) translate(4 326)">
<title>/home/pieter/GitHub/EAGLE&#45;ZYBO&#45;Linux/src/grid&#45;finder/include/GridFinder.hpp</title>
<polygon fill="#ffffff" stroke="transparent" points="-4,4 -4,-326 1008,-326 1008,4 -4,4"/>
<!-- Node0 -->
<g id="node1" class="node">
<title>Node0</title>
<g id="a_node1"><a xlink:title=" ">
<polygon fill="#bfbfbf" stroke="#000000" points="472.5,-280.5 472.5,-321.5 653.5,-321.5 653.5,-280.5 472.5,-280.5"/>
<text text-anchor="start" x="480.5" y="-309.5" font-family="Helvetica,sans-Serif" font-size="10.00" fill="#000000">/home/pieter/GitHub</text>
<text text-anchor="start" x="480.5" y="-298.5" font-family="Helvetica,sans-Serif" font-size="10.00" fill="#000000">/EAGLE&#45;ZYBO&#45;Linux/src</text>
<text text-anchor="middle" x="563" y="-287.5" font-family="Helvetica,sans-Serif" font-size="10.00" fill="#000000">/grid&#45;finder/include/GridFinder.hpp</text>
</a>
</g>
</g>
<!-- Node1 -->
<g id="node2" class="node">
<title>Node1</title>
<g id="a_node2"><a xlink:href="ANSIColors_8hpp.html" target="_top" xlink:title=" ">
<polygon fill="#ffffff" stroke="#000000" points="0,-224.5 0,-243.5 92,-243.5 92,-224.5 0,-224.5"/>
<text text-anchor="middle" x="46" y="-231.5" font-family="Helvetica,sans-Serif" font-size="10.00" fill="#000000">ANSIColors.hpp</text>
</a>
</g>
</g>
<!-- Node0&#45;&gt;Node1 -->
<g id="edge1" class="edge">
<title>Node0&#45;&gt;Node1</title>
<path fill="none" stroke="#191970" d="M472.2411,-290.7925C379.9191,-280.1479 232.7904,-262.465 106,-244 104.7362,-243.8159 103.4579,-243.627 102.1693,-243.4339"/>
<polygon fill="#191970" stroke="#191970" points="102.5747,-239.9552 92.1579,-241.8893 101.5072,-246.8733 102.5747,-239.9552"/>
</g>
<!-- Node2 -->
<g id="node3" class="node">
<title>Node2</title>
<g id="a_node3"><a xlink:href="Angle_8hpp.html" target="_top" xlink:title=" ">
<polygon fill="#ffffff" stroke="#000000" points="298.5,-112.5 298.5,-131.5 363.5,-131.5 363.5,-112.5 298.5,-112.5"/>
<text text-anchor="middle" x="331" y="-119.5" font-family="Helvetica,sans-Serif" font-size="10.00" fill="#000000">Angle.hpp</text>
</a>
</g>
</g>
<!-- Node0&#45;&gt;Node2 -->
<g id="edge2" class="edge">
<title>Node0&#45;&gt;Node2</title>
<path fill="none" stroke="#191970" d="M472.4616,-295.0598C398.8004,-288.1163 303.2207,-273.565 279,-244 252.536,-211.6968 289.6716,-163.9287 313.5721,-138.8233"/>
<polygon fill="#191970" stroke="#191970" points="316.2452,-141.0971 320.7696,-131.5168 311.2584,-136.1847 316.2452,-141.0971"/>
</g>
<!-- Node5 -->
<g id="node6" class="node">
<title>Node5</title>
<g id="a_node6"><a xlink:title=" ">
<polygon fill="#ffffff" stroke="#bfbfbf" points="136,-56.5 136,-75.5 180,-75.5 180,-56.5 136,-56.5"/>
<text text-anchor="middle" x="158" y="-63.5" font-family="Helvetica,sans-Serif" font-size="10.00" fill="#000000">limits</text>
</a>
</g>
</g>
<!-- Node0&#45;&gt;Node5 -->
<g id="edge49" class="edge">
<title>Node0&#45;&gt;Node5</title>
<path fill="none" stroke="#191970" d="M472.4337,-290.3886C386.9587,-279.5678 265.4719,-261.8742 221,-244 180.0514,-227.5419 159.6065,-227.026 139,-188 121.4061,-154.6795 136.9319,-109.5969 148.3896,-84.6151"/>
<polygon fill="#191970" stroke="#191970" points="151.587,-86.0428 152.7966,-75.5172 145.2872,-82.9912 151.587,-86.0428"/>
</g>
<!-- Node8 -->
<g id="node9" class="node">
<title>Node8</title>
<g id="a_node9"><a xlink:href="Bresenham_8hpp.html" target="_top" xlink:title=" ">
<polygon fill="#ffffff" stroke="#000000" points="148.5,-168.5 148.5,-187.5 241.5,-187.5 241.5,-168.5 148.5,-168.5"/>
<text text-anchor="middle" x="195" y="-175.5" font-family="Helvetica,sans-Serif" font-size="10.00" fill="#000000">Bresenham.hpp</text>
</a>
</g>
</g>
<!-- Node0&#45;&gt;Node8 -->
<g id="edge8" class="edge">
<title>Node0&#45;&gt;Node8</title>
<path fill="none" stroke="#191970" d="M472.3127,-291.8631C392.7633,-282.5558 284.1538,-266.3204 247,-244 228.3312,-232.7846 213.7516,-212.2033 204.841,-196.9948"/>
<polygon fill="#191970" stroke="#191970" points="207.726,-194.9799 199.8182,-187.9289 201.603,-198.3723 207.726,-194.9799"/>
</g>
<!-- Node11 -->
<g id="node12" class="node">
<title>Node11</title>
<g id="a_node12"><a xlink:href="CenterPointOutLineIterator_8hpp.html" target="_top" xlink:title=" ">
<polygon fill="#ffffff" stroke="#000000" points="288.5,-224.5 288.5,-243.5 455.5,-243.5 455.5,-224.5 288.5,-224.5"/>
<text text-anchor="middle" x="372" y="-231.5" font-family="Helvetica,sans-Serif" font-size="10.00" fill="#000000">CenterPointOutLineIterator.hpp</text>
</a>
</g>
</g>
<!-- Node0&#45;&gt;Node11 -->
<g id="edge16" class="edge">
<title>Node0&#45;&gt;Node11</title>
<path fill="none" stroke="#191970" d="M504.3957,-280.4425C473.1429,-269.4795 435.6606,-256.3312 408.5677,-246.8274"/>
<polygon fill="#191970" stroke="#191970" points="409.6817,-243.5092 399.0869,-243.5017 407.3646,-250.1146 409.6817,-243.5092"/>
</g>
<!-- Node12 -->
<g id="node13" class="node">
<title>Node12</title>
<g id="a_node13"><a xlink:href="HelperStructs_8hpp.html" target="_top" xlink:title=" ">
<polygon fill="#ffffff" stroke="#000000" points="511,-224.5 511,-243.5 615,-243.5 615,-224.5 511,-224.5"/>
<text text-anchor="middle" x="563" y="-231.5" font-family="Helvetica,sans-Serif" font-size="10.00" fill="#000000">HelperStructs.hpp</text>
</a>
</g>
</g>
<!-- Node0&#45;&gt;Node12 -->
<g id="edge18" class="edge">
<title>Node0&#45;&gt;Node12</title>
<path fill="none" stroke="#191970" d="M563,-280.168C563,-271.8226 563,-262.2471 563,-253.9879"/>
<polygon fill="#191970" stroke="#191970" points="566.5001,-253.7804 563,-243.7805 559.5001,-253.7805 566.5001,-253.7804"/>
</g>
<!-- Node14 -->
<g id="node15" class="node">
<title>Node14</title>
<g id="a_node15"><a xlink:href="Line_8hpp.html" target="_top" xlink:title=" ">
<polygon fill="#ffffff" stroke="#000000" points="582,-168.5 582,-187.5 640,-187.5 640,-168.5 582,-168.5"/>
<text text-anchor="middle" x="611" y="-175.5" font-family="Helvetica,sans-Serif" font-size="10.00" fill="#000000">Line.hpp</text>
</a>
</g>
</g>
<!-- Node0&#45;&gt;Node14 -->
<g id="edge41" class="edge">
<title>Node0&#45;&gt;Node14</title>
<path fill="none" stroke="#191970" d="M594.3389,-280.2718C605.9346,-270.7469 617.7654,-258.3586 624,-244 630.5235,-228.9761 625.9973,-210.6046 620.5707,-197.0628"/>
<polygon fill="#191970" stroke="#191970" points="623.6964,-195.4789 616.4135,-187.7841 617.3082,-198.3411 623.6964,-195.4789"/>
</g>
<!-- Node15 -->
<g id="node16" class="node">
<title>Node15</title>
<g id="a_node16"><a xlink:href="Matrix_8hpp.html" target="_top" xlink:title=" ">
<polygon fill="#ffffff" stroke="#000000" points="714,-112.5 714,-131.5 782,-131.5 782,-112.5 714,-112.5"/>
<text text-anchor="middle" x="748" y="-119.5" font-family="Helvetica,sans-Serif" font-size="10.00" fill="#000000">Matrix.hpp</text>
</a>
</g>
</g>
<!-- Node0&#45;&gt;Node15 -->
<g id="edge45" class="edge">
<title>Node0&#45;&gt;Node15</title>
<path fill="none" stroke="#191970" d="M653.7249,-285.2613C706.6473,-274.7223 767.1691,-259.9048 789,-244 819.0567,-222.1023 842.2598,-200.3959 824,-168 815.862,-153.5618 801.1645,-143.1395 786.8484,-135.9057"/>
<polygon fill="#191970" stroke="#191970" points="788.113,-132.6342 777.5685,-131.6024 785.1681,-138.9846 788.113,-132.6342"/>
</g>
<!-- Node17 -->
<g id="node18" class="node">
<title>Node17</title>
<g id="a_node18"><a xlink:title=" ">
<polygon fill="#ffffff" stroke="#bfbfbf" points="871,-.5 871,-19.5 935,-19.5 935,-.5 871,-.5"/>
<text text-anchor="middle" x="903" y="-7.5" font-family="Helvetica,sans-Serif" font-size="10.00" fill="#000000">algorithm</text>
</a>
</g>
</g>
<!-- Node0&#45;&gt;Node17 -->
<g id="edge46" class="edge">
<title>Node0&#45;&gt;Node17</title>
<path fill="none" stroke="#191970" d="M653.6638,-288.5964C761.1819,-271.2862 926,-235.3911 926,-178 926,-178 926,-178 926,-122 926,-88.906 916.2452,-51.4151 909.4412,-29.2901"/>
<polygon fill="#191970" stroke="#191970" points="912.7706,-28.2105 906.3937,-19.7497 906.1026,-30.3405 912.7706,-28.2105"/>
</g>
<!-- Node23 -->
<g id="node24" class="node">
<title>Node23</title>
<g id="a_node24"><a xlink:title=" ">
<polygon fill="#ffffff" stroke="#bfbfbf" points="636,-112.5 636,-131.5 696,-131.5 696,-112.5 636,-112.5"/>
<text text-anchor="middle" x="666" y="-119.5" font-family="Helvetica,sans-Serif" font-size="10.00" fill="#000000">iostream</text>
</a>
</g>
</g>
<!-- Node0&#45;&gt;Node23 -->
<g id="edge48" class="edge">
<title>Node0&#45;&gt;Node23</title>
<path fill="none" stroke="#191970" d="M653.7373,-286.8865C689.5022,-278.3922 729.6706,-264.9858 762,-244 789.2545,-226.3084 797.885,-218.5329 809,-188 812.0406,-179.6473 814.2353,-175.1836 809,-168 802.7165,-159.3782 746.041,-142.9843 705.9608,-132.2767"/>
<polygon fill="#191970" stroke="#191970" points="706.732,-128.8603 696.1693,-129.6851 704.9409,-135.6273 706.732,-128.8603"/>
</g>
<!-- Node24 -->
<g id="node25" class="node">
<title>Node24</title>
<g id="a_node25"><a xlink:title=" ">
<polygon fill="#ffffff" stroke="#bfbfbf" points="336,-168.5 336,-187.5 392,-187.5 392,-168.5 336,-168.5"/>
<text text-anchor="middle" x="364" y="-175.5" font-family="Helvetica,sans-Serif" font-size="10.00" fill="#000000">optional</text>
</a>
</g>
</g>
<!-- Node0&#45;&gt;Node24 -->
<g id="edge50" class="edge">
<title>Node0&#45;&gt;Node24</title>
<path fill="none" stroke="#191970" d="M539.7112,-280.3862C520.3246,-263.857 491.5389,-240.7365 464,-224 443.0893,-211.2917 418.0786,-199.7879 398.301,-191.4631"/>
<polygon fill="#191970" stroke="#191970" points="399.6319,-188.2261 389.0532,-187.6404 396.9577,-194.6952 399.6319,-188.2261"/>
</g>
<!-- Node25 -->
<g id="node26" class="node">
<title>Node25</title>
<g id="a_node26"><a xlink:href="Mask_8hpp.html" target="_top" xlink:title=" ">
<polygon fill="#ffffff" stroke="#000000" points="689.5,-224.5 689.5,-243.5 752.5,-243.5 752.5,-224.5 689.5,-224.5"/>
<text text-anchor="middle" x="721" y="-231.5" font-family="Helvetica,sans-Serif" font-size="10.00" fill="#000000">Mask.hpp</text>
</a>
</g>
</g>
<!-- Node0&#45;&gt;Node25 -->
<g id="edge42" class="edge">
<title>Node0&#45;&gt;Node25</title>
<path fill="none" stroke="#191970" d="M611.6944,-280.3511C636.8113,-269.7003 666.7455,-257.0066 688.9323,-247.5983"/>
<polygon fill="#191970" stroke="#191970" points="690.3923,-250.781 698.2323,-243.6546 687.6595,-244.3364 690.3923,-250.781"/>
</g>
<!-- Node27 -->
<g id="node28" class="node">
<title>Node27</title>
<g id="a_node28"><a xlink:title=" ">
<polygon fill="#ffffff" stroke="#bfbfbf" points="954,-224.5 954,-243.5 1004,-243.5 1004,-224.5 954,-224.5"/>
<text text-anchor="middle" x="979" y="-231.5" font-family="Helvetica,sans-Serif" font-size="10.00" fill="#000000">cstdint</text>
</a>
</g>
</g>
<!-- Node0&#45;&gt;Node27 -->
<g id="edge47" class="edge">
<title>Node0&#45;&gt;Node27</title>
<path fill="none" stroke="#191970" d="M653.7172,-289.8979C730.3638,-279.8942 842.859,-263.7451 940,-244 941.2715,-243.7416 942.5636,-243.468 943.8668,-243.1829"/>
<polygon fill="#191970" stroke="#191970" points="944.9727,-246.5187 953.9109,-240.8302 943.3762,-239.7032 944.9727,-246.5187"/>
</g>
<!-- Node3 -->
<g id="node4" class="node">
<title>Node3</title>
<g id="a_node4"><a xlink:title=" ">
<polygon fill="#ffffff" stroke="#bfbfbf" points="340,-56.5 340,-75.5 382,-75.5 382,-56.5 340,-56.5"/>
<text text-anchor="middle" x="361" y="-63.5" font-family="Helvetica,sans-Serif" font-size="10.00" fill="#000000">array</text>
</a>
</g>
</g>
<!-- Node2&#45;&gt;Node3 -->
<g id="edge3" class="edge">
<title>Node2&#45;&gt;Node3</title>
<path fill="none" stroke="#191970" d="M336.2256,-112.2455C340.3123,-104.617 346.1135,-93.7881 351.075,-84.5267"/>
<polygon fill="#191970" stroke="#191970" points="354.1972,-86.1103 355.8343,-75.6427 348.0268,-82.8047 354.1972,-86.1103"/>
</g>
<!-- Node4 -->
<g id="node5" class="node">
<title>Node4</title>
<g id="a_node5"><a xlink:title=" ">
<polygon fill="#ffffff" stroke="#bfbfbf" points="463.5,-.5 463.5,-19.5 510.5,-19.5 510.5,-.5 463.5,-.5"/>
<text text-anchor="middle" x="487" y="-7.5" font-family="Helvetica,sans-Serif" font-size="10.00" fill="#000000">cmath</text>
</a>
</g>
</g>
<!-- Node2&#45;&gt;Node4 -->
<g id="edge4" class="edge">
<title>Node2&#45;&gt;Node4</title>
<path fill="none" stroke="#191970" d="M327.7344,-112.3706C323.6668,-98.4371 318.6494,-72.5182 331,-56 345.6522,-36.4036 411.965,-22.2575 453.2742,-15.1637"/>
<polygon fill="#191970" stroke="#191970" points="453.9015,-18.6075 463.1911,-13.5131 452.7522,-11.7025 453.9015,-18.6075"/>
</g>
<!-- Node2&#45;&gt;Node5 -->
<g id="edge5" class="edge">
<title>Node2&#45;&gt;Node5</title>
<path fill="none" stroke="#191970" d="M301.2602,-112.3733C270.2265,-102.3276 221.7409,-86.6329 189.9188,-76.3321"/>
<polygon fill="#191970" stroke="#191970" points="190.8076,-72.941 180.2157,-73.1912 188.6518,-79.6008 190.8076,-72.941"/>
</g>
<!-- Node6 -->
<g id="node7" class="node">
<title>Node6</title>
<g id="a_node7"><a xlink:title=" ">
<polygon fill="#ffffff" stroke="#bfbfbf" points="525.5,-56.5 525.5,-75.5 582.5,-75.5 582.5,-56.5 525.5,-56.5"/>
<text text-anchor="middle" x="554" y="-63.5" font-family="Helvetica,sans-Serif" font-size="10.00" fill="#000000">ostream</text>
</a>
</g>
</g>
<!-- Node2&#45;&gt;Node6 -->
<g id="edge6" class="edge">
<title>Node2&#45;&gt;Node6</title>
<path fill="none" stroke="#191970" d="M363.9044,-113.737C404.283,-103.5971 472.6414,-86.4309 515.4438,-75.6823"/>
<polygon fill="#191970" stroke="#191970" points="516.3714,-79.0581 525.2178,-73.2278 514.6664,-72.2689 516.3714,-79.0581"/>
</g>
<!-- Node7 -->
<g id="node8" class="node">
<title>Node7</title>
<g id="a_node8"><a xlink:href="uint_8hpp.html" target="_top" xlink:title=" ">
<polygon fill="#ffffff" stroke="#000000" points="400,-56.5 400,-75.5 456,-75.5 456,-56.5 400,-56.5"/>
<text text-anchor="middle" x="428" y="-63.5" font-family="Helvetica,sans-Serif" font-size="10.00" fill="#000000">uint.hpp</text>
</a>
</g>
</g>
<!-- Node2&#45;&gt;Node7 -->
<g id="edge7" class="edge">
<title>Node2&#45;&gt;Node7</title>
<path fill="none" stroke="#191970" d="M347.8961,-112.2455C362.918,-103.5731 385.1043,-90.7645 402.321,-80.825"/>
<polygon fill="#191970" stroke="#191970" points="404.3871,-83.6737 411.2975,-75.6427 400.8872,-77.6114 404.3871,-83.6737"/>
</g>
<!-- Node8&#45;&gt;Node2 -->
<g id="edge9" class="edge">
<title>Node8&#45;&gt;Node2</title>
<path fill="none" stroke="#191970" d="M218.3792,-168.3733C240.5045,-159.2629 273.9134,-145.5062 298.6019,-135.3404"/>
<polygon fill="#191970" stroke="#191970" points="300.0117,-138.5451 307.9258,-131.5011 297.3464,-132.0723 300.0117,-138.5451"/>
</g>
<!-- Node8&#45;&gt;Node4 -->
<g id="edge13" class="edge">
<title>Node8&#45;&gt;Node4</title>
<path fill="none" stroke="#191970" d="M207.9015,-168.2731C219.5503,-159.2907 236.9644,-145.3576 251,-132 284.048,-100.5483 281.1349,-79.8932 320,-56 361.6746,-30.3797 417.8173,-18.7457 453.2136,-13.6681"/>
<polygon fill="#191970" stroke="#191970" points="454.0453,-17.0882 463.4936,-12.2946 453.1182,-10.1498 454.0453,-17.0882"/>
</g>
<!-- Node8&#45;&gt;Node5 -->
<g id="edge14" class="edge">
<title>Node8&#45;&gt;Node5</title>
<path fill="none" stroke="#191970" d="M190.871,-168.2267C187.0377,-158.9806 181.2926,-144.6708 177,-132 171.7992,-116.6483 166.7643,-98.9904 163.1856,-85.8043"/>
<polygon fill="#191970" stroke="#191970" points="166.5103,-84.688 160.5503,-75.9284 159.7469,-86.4928 166.5103,-84.688"/>
</g>
<!-- Node9 -->
<g id="node10" class="node">
<title>Node9</title>
<g id="a_node10"><a xlink:href="Pixel_8hpp.html" target="_top" xlink:title=" ">
<polygon fill="#ffffff" stroke="#000000" points="518,-112.5 518,-131.5 580,-131.5 580,-112.5 518,-112.5"/>
<text text-anchor="middle" x="549" y="-119.5" font-family="Helvetica,sans-Serif" font-size="10.00" fill="#000000">Pixel.hpp</text>
</a>
</g>
</g>
<!-- Node8&#45;&gt;Node9 -->
<g id="edge10" class="edge">
<title>Node8&#45;&gt;Node9</title>
<path fill="none" stroke="#191970" d="M241.6433,-170.6214C311.3245,-159.5984 441.4891,-139.0074 507.8341,-128.5121"/>
<polygon fill="#191970" stroke="#191970" points="508.5848,-131.937 517.9151,-126.9174 507.491,-125.023 508.5848,-131.937"/>
</g>
<!-- Node10 -->
<g id="node11" class="node">
<title>Node10</title>
<g id="a_node11"><a xlink:title=" ">
<polygon fill="#ffffff" stroke="#bfbfbf" points="186,-112.5 186,-131.5 242,-131.5 242,-112.5 186,-112.5"/>
<text text-anchor="middle" x="214" y="-119.5" font-family="Helvetica,sans-Serif" font-size="10.00" fill="#000000">sstream</text>
</a>
</g>
</g>
<!-- Node8&#45;&gt;Node10 -->
<g id="edge15" class="edge">
<title>Node8&#45;&gt;Node10</title>
<path fill="none" stroke="#191970" d="M198.3095,-168.2455C200.8433,-160.7776 204.4177,-150.2427 207.515,-141.1137"/>
<polygon fill="#191970" stroke="#191970" points="210.8298,-142.237 210.7284,-131.6427 204.2009,-139.9879 210.8298,-142.237"/>
</g>
<!-- Node9&#45;&gt;Node6 -->
<g id="edge12" class="edge">
<title>Node9&#45;&gt;Node6</title>
<path fill="none" stroke="#191970" d="M549.8709,-112.2455C550.5234,-104.9382 551.438,-94.6944 552.2407,-85.7046"/>
<polygon fill="#191970" stroke="#191970" points="555.7358,-85.9143 553.139,-75.6427 548.7635,-85.2918 555.7358,-85.9143"/>
</g>
<!-- Node9&#45;&gt;Node7 -->
<g id="edge11" class="edge">
<title>Node9&#45;&gt;Node7</title>
<path fill="none" stroke="#191970" d="M528.1994,-112.3733C508.7757,-103.3838 479.5776,-89.8706 457.7036,-79.7471"/>
<polygon fill="#191970" stroke="#191970" points="459.0745,-76.5249 448.5292,-75.5011 456.1344,-82.8776 459.0745,-76.5249"/>
</g>
<!-- Node11&#45;&gt;Node7 -->
<g id="edge17" class="edge">
<title>Node11&#45;&gt;Node7</title>
<path fill="none" stroke="#191970" d="M357.3071,-224.2896C340.5327,-211.9023 316.667,-189.4991 327,-168 338.095,-144.9154 353.6297,-149.8474 372,-132 387.5609,-116.8821 403.3813,-97.8244 414.2193,-84.0791"/>
<polygon fill="#191970" stroke="#191970" points="417.1964,-85.952 420.5692,-75.9084 411.6692,-81.6566 417.1964,-85.952"/>
</g>
<!-- Node12&#45;&gt;Node2 -->
<g id="edge19" class="edge">
<title>Node12&#45;&gt;Node2</title>
<path fill="none" stroke="#191970" d="M532.2516,-224.439C506.735,-216.0714 469.7783,-202.9394 439,-188 408.0379,-172.9714 374.5355,-151.6272 353.191,-137.3209"/>
<polygon fill="#191970" stroke="#191970" points="355.0732,-134.3685 344.8305,-131.6594 351.1482,-140.1646 355.0732,-134.3685"/>
</g>
<!-- Node12&#45;&gt;Node9 -->
<g id="edge39" class="edge">
<title>Node12&#45;&gt;Node9</title>
<path fill="none" stroke="#191970" d="M561.8064,-224.4509C559.523,-206.184 554.4944,-165.9553 551.4622,-141.6976"/>
<polygon fill="#191970" stroke="#191970" points="554.904,-141.0135 550.1906,-131.5249 547.9581,-141.8818 554.904,-141.0135"/>
</g>
<!-- Node13 -->
<g id="node14" class="node">
<title>Node13</title>
<g id="a_node14"><a xlink:href="Degrees_8hpp.html" target="_top" xlink:title=" ">
<polygon fill="#ffffff" stroke="#000000" points="448,-168.5 448,-187.5 526,-187.5 526,-168.5 448,-168.5"/>
<text text-anchor="middle" x="487" y="-175.5" font-family="Helvetica,sans-Serif" font-size="10.00" fill="#000000">Degrees.hpp</text>
</a>
</g>
</g>
<!-- Node12&#45;&gt;Node13 -->
<g id="edge20" class="edge">
<title>Node12&#45;&gt;Node13</title>
<path fill="none" stroke="#191970" d="M549.7618,-224.2455C538.319,-215.814 521.5704,-203.4729 508.2525,-193.6598"/>
<polygon fill="#191970" stroke="#191970" points="510.2133,-190.757 500.0865,-187.6427 506.0609,-196.3924 510.2133,-190.757"/>
</g>
<!-- Node12&#45;&gt;Node14 -->
<g id="edge22" class="edge">
<title>Node12&#45;&gt;Node14</title>
<path fill="none" stroke="#191970" d="M571.361,-224.2455C578.175,-216.2958 587.9681,-204.8706 596.1152,-195.3656"/>
<polygon fill="#191970" stroke="#191970" points="598.8843,-197.513 602.7349,-187.6427 593.5695,-192.9575 598.8843,-197.513"/>
</g>
<!-- Node12&#45;&gt;Node24 -->
<g id="edge40" class="edge">
<title>Node12&#45;&gt;Node24</title>
<path fill="none" stroke="#191970" d="M528.7907,-224.3733C493.5434,-214.4544 438.7253,-199.0282 402.111,-188.7247"/>
<polygon fill="#191970" stroke="#191970" points="402.8723,-185.3031 392.298,-185.9633 400.976,-192.0413 402.8723,-185.3031"/>
</g>
<!-- Node13&#45;&gt;Node4 -->
<g id="edge21" class="edge">
<title>Node13&#45;&gt;Node4</title>
<path fill="none" stroke="#191970" d="M487,-168.4862C487,-141.9293 487,-66.5651 487,-30.1655"/>
<polygon fill="#191970" stroke="#191970" points="490.5001,-29.8278 487,-19.8279 483.5001,-29.8279 490.5001,-29.8278"/>
</g>
<!-- Node14&#45;&gt;Node2 -->
<g id="edge23" class="edge">
<title>Node14&#45;&gt;Node2</title>
<path fill="none" stroke="#191970" d="M581.8275,-172.1655C532.1448,-162.229 430.9174,-141.9835 373.4084,-130.4817"/>
<polygon fill="#191970" stroke="#191970" points="374.0353,-127.0378 363.5431,-128.5086 372.6624,-133.9019 374.0353,-127.0378"/>
</g>
<!-- Node14&#45;&gt;Node6 -->
<g id="edge37" class="edge">
<title>Node14&#45;&gt;Node6</title>
<path fill="none" stroke="#191970" d="M608.8069,-168.1988C605.6052,-154.9423 598.9309,-130.7952 589,-112 583.6417,-101.8589 576.0913,-91.6037 569.3743,-83.3578"/>
<polygon fill="#191970" stroke="#191970" points="571.9306,-80.9603 562.8029,-75.5811 566.5839,-85.4783 571.9306,-80.9603"/>
</g>
<!-- Node14&#45;&gt;Node9 -->
<g id="edge36" class="edge">
<title>Node14&#45;&gt;Node9</title>
<path fill="none" stroke="#191970" d="M600.2004,-168.2455C591.1322,-160.0549 577.9794,-148.1749 567.2755,-138.5069"/>
<polygon fill="#191970" stroke="#191970" points="569.4429,-135.7482 559.6758,-131.6427 564.7509,-140.9429 569.4429,-135.7482"/>
</g>
<!-- Node14&#45;&gt;Node15 -->
<g id="edge24" class="edge">
<title>Node14&#45;&gt;Node15</title>
<path fill="none" stroke="#191970" d="M634.5511,-168.3733C656.8391,-159.2629 690.4937,-145.5062 715.3637,-135.3404"/>
<polygon fill="#191970" stroke="#191970" points="716.8239,-138.5247 724.7562,-131.5011 714.1753,-132.0451 716.8239,-138.5247"/>
</g>
<!-- Node14&#45;&gt;Node23 -->
<g id="edge38" class="edge">
<title>Node14&#45;&gt;Node23</title>
<path fill="none" stroke="#191970" d="M620.5803,-168.2455C628.5458,-160.1352 640.0641,-148.4075 649.5079,-138.7919"/>
<polygon fill="#191970" stroke="#191970" points="652.0195,-141.2297 656.5295,-131.6427 647.0253,-136.3247 652.0195,-141.2297"/>
</g>
<!-- Node15&#45;&gt;Node4 -->
<g id="edge33" class="edge">
<title>Node15&#45;&gt;Node4</title>
<path fill="none" stroke="#191970" d="M739.4152,-112.3398C726.0284,-97.8823 698.7216,-70.7439 670,-56 621.5169,-31.1118 558.7667,-19.1449 520.7662,-13.8158"/>
<polygon fill="#191970" stroke="#191970" points="521.1107,-10.3309 510.7368,-12.4835 520.1889,-17.2699 521.1107,-10.3309"/>
</g>
<!-- Node15&#45;&gt;Node6 -->
<g id="edge35" class="edge">
<title>Node15&#45;&gt;Node6</title>
<path fill="none" stroke="#191970" d="M714.6502,-112.3733C680.7312,-102.5822 628.2214,-87.4247 592.5417,-77.1254"/>
<polygon fill="#191970" stroke="#191970" points="593.08,-73.638 582.5016,-74.2273 591.1386,-80.3634 593.08,-73.638"/>
</g>
<!-- Node16 -->
<g id="node17" class="node">
<title>Node16</title>
<g id="a_node17"><a xlink:href="Array_8hpp.html" target="_top" xlink:title=" ">
<polygon fill="#ffffff" stroke="#000000" points="717,-56.5 717,-75.5 779,-75.5 779,-56.5 717,-56.5"/>
<text text-anchor="middle" x="748" y="-63.5" font-family="Helvetica,sans-Serif" font-size="10.00" fill="#000000">Array.hpp</text>
</a>
</g>
</g>
<!-- Node15&#45;&gt;Node16 -->
<g id="edge25" class="edge">
<title>Node15&#45;&gt;Node16</title>
<path fill="none" stroke="#191970" d="M748,-112.2455C748,-104.9382 748,-94.6944 748,-85.7046"/>
<polygon fill="#191970" stroke="#191970" points="751.5001,-85.6426 748,-75.6427 744.5001,-85.6427 751.5001,-85.6426"/>
</g>
<!-- Node15&#45;&gt;Node17 -->
<g id="edge32" class="edge">
<title>Node15&#45;&gt;Node17</title>
<path fill="none" stroke="#191970" d="M761.2152,-112.4509C787.9825,-93.1094 848.824,-49.1465 881.424,-25.5904"/>
<polygon fill="#191970" stroke="#191970" points="883.7627,-28.2186 889.8182,-19.5249 879.6629,-22.5448 883.7627,-28.2186"/>
</g>
<!-- Node22 -->
<g id="node23" class="node">
<title>Node22</title>
<g id="a_node23"><a xlink:title=" ">
<polygon fill="#ffffff" stroke="#bfbfbf" points="605,-56.5 605,-75.5 661,-75.5 661,-56.5 605,-56.5"/>
<text text-anchor="middle" x="633" y="-63.5" font-family="Helvetica,sans-Serif" font-size="10.00" fill="#000000">iomanip</text>
</a>
</g>
</g>
<!-- Node15&#45;&gt;Node22 -->
<g id="edge34" class="edge">
<title>Node15&#45;&gt;Node22</title>
<path fill="none" stroke="#191970" d="M728.2308,-112.3733C709.8531,-103.4241 682.2688,-89.9917 661.5107,-79.8835"/>
<polygon fill="#191970" stroke="#191970" points="663.0343,-76.7325 652.5112,-75.5011 659.9696,-83.026 663.0343,-76.7325"/>
</g>
<!-- Node16&#45;&gt;Node4 -->
<g id="edge27" class="edge">
<title>Node16&#45;&gt;Node4</title>
<path fill="none" stroke="#191970" d="M716.5365,-58.971C711.9959,-57.9674 707.3793,-56.9529 703,-56 638.4512,-41.955 562.9487,-25.979 520.4747,-17.0331"/>
<polygon fill="#191970" stroke="#191970" points="521.1732,-13.6035 510.6667,-14.9687 519.7314,-20.4534 521.1732,-13.6035"/>
</g>
<!-- Node16&#45;&gt;Node17 -->
<g id="edge26" class="edge">
<title>Node16&#45;&gt;Node17</title>
<path fill="none" stroke="#191970" d="M774.6454,-56.3733C800.1964,-47.1419 838.9512,-33.1402 867.1909,-22.9375"/>
<polygon fill="#191970" stroke="#191970" points="868.4865,-26.1909 876.7022,-19.5011 866.1079,-19.6074 868.4865,-26.1909"/>
</g>
<!-- Node18 -->
<g id="node19" class="node">
<title>Node18</title>
<g id="a_node19"><a xlink:title=" ">
<polygon fill="#ffffff" stroke="#bfbfbf" points="567.5,-.5 567.5,-19.5 620.5,-19.5 620.5,-.5 567.5,-.5"/>
<text text-anchor="middle" x="594" y="-7.5" font-family="Helvetica,sans-Serif" font-size="10.00" fill="#000000">cstddef</text>
</a>
</g>
</g>
<!-- Node16&#45;&gt;Node18 -->
<g id="edge28" class="edge">
<title>Node16&#45;&gt;Node18</title>
<path fill="none" stroke="#191970" d="M721.5265,-56.3733C696.1403,-47.1419 657.6355,-33.1402 629.578,-22.9375"/>
<polygon fill="#191970" stroke="#191970" points="630.7222,-19.6293 620.1281,-19.5011 628.3299,-26.2079 630.7222,-19.6293"/>
</g>
<!-- Node19 -->
<g id="node20" class="node">
<title>Node19</title>
<g id="a_node20"><a xlink:title=" ">
<polygon fill="#ffffff" stroke="#bfbfbf" points="639,-.5 639,-19.5 695,-19.5 695,-.5 639,-.5"/>
<text text-anchor="middle" x="667" y="-7.5" font-family="Helvetica,sans-Serif" font-size="10.00" fill="#000000">numeric</text>
</a>
</g>
</g>
<!-- Node16&#45;&gt;Node19 -->
<g id="edge29" class="edge">
<title>Node16&#45;&gt;Node19</title>
<path fill="none" stroke="#191970" d="M733.8909,-56.2455C721.5791,-47.7337 703.5042,-35.2375 689.2462,-25.3801"/>
<polygon fill="#191970" stroke="#191970" points="691.1634,-22.4506 680.9474,-19.6427 687.1826,-28.2085 691.1634,-22.4506"/>
</g>
<!-- Node20 -->
<g id="node21" class="node">
<title>Node20</title>
<g id="a_node21"><a xlink:title=" ">
<polygon fill="#ffffff" stroke="#bfbfbf" points="713.5,-.5 713.5,-19.5 782.5,-19.5 782.5,-.5 713.5,-.5"/>
<text text-anchor="middle" x="748" y="-7.5" font-family="Helvetica,sans-Serif" font-size="10.00" fill="#000000">type_traits</text>
</a>
</g>
</g>
<!-- Node16&#45;&gt;Node20 -->
<g id="edge30" class="edge">
<title>Node16&#45;&gt;Node20</title>
<path fill="none" stroke="#191970" d="M748,-56.2455C748,-48.9382 748,-38.6944 748,-29.7046"/>
<polygon fill="#191970" stroke="#191970" points="751.5001,-29.6426 748,-19.6427 744.5001,-29.6427 751.5001,-29.6426"/>
</g>
<!-- Node21 -->
<g id="node22" class="node">
<title>Node21</title>
<g id="a_node22"><a xlink:title=" ">
<polygon fill="#ffffff" stroke="#bfbfbf" points="801,-.5 801,-19.5 853,-19.5 853,-.5 801,-.5"/>
<text text-anchor="middle" x="827" y="-7.5" font-family="Helvetica,sans-Serif" font-size="10.00" fill="#000000">cassert</text>
</a>
</g>
</g>
<!-- Node16&#45;&gt;Node21 -->
<g id="edge31" class="edge">
<title>Node16&#45;&gt;Node21</title>
<path fill="none" stroke="#191970" d="M761.7607,-56.2455C773.6552,-47.814 791.065,-35.4729 804.9085,-25.6598"/>
<polygon fill="#191970" stroke="#191970" points="807.2628,-28.2811 813.3969,-19.6427 803.2146,-22.5704 807.2628,-28.2811"/>
</g>
<!-- Node25&#45;&gt;Node9 -->
<g id="edge43" class="edge">
<title>Node25&#45;&gt;Node9</title>
<path fill="none" stroke="#191970" d="M745.6628,-224.3861C773.1649,-212.2715 811.5073,-190.3223 793,-168 786.5393,-160.2075 658.1706,-139.0812 590.2885,-128.3864"/>
<polygon fill="#191970" stroke="#191970" points="590.7589,-124.9175 580.3372,-126.825 589.6738,-131.8328 590.7589,-124.9175"/>
</g>
<!-- Node26 -->
<g id="node27" class="node">
<title>Node26</title>
<g id="a_node27"><a xlink:title=" ">
<polygon fill="#ffffff" stroke="#bfbfbf" points="658.5,-168.5 658.5,-187.5 783.5,-187.5 783.5,-168.5 658.5,-168.5"/>
<text text-anchor="middle" x="721" y="-175.5" font-family="Helvetica,sans-Serif" font-size="10.00" fill="#000000">opencv2/core/mat.hpp</text>
</a>
</g>
</g>
<!-- Node25&#45;&gt;Node26 -->
<g id="edge44" class="edge">
<title>Node25&#45;&gt;Node26</title>
<path fill="none" stroke="#191970" d="M721,-224.2455C721,-216.9382 721,-206.6944 721,-197.7046"/>
<polygon fill="#191970" stroke="#191970" points="724.5001,-197.6426 721,-187.6427 717.5001,-197.6427 724.5001,-197.6426"/>
</g>
</g>
</svg>
