<?xml version="1.0" encoding="UTF-8" standalone="no"?>
<!DOCTYPE svg PUBLIC "-//W3C//DTD SVG 1.1//EN"
 "http://www.w3.org/Graphics/SVG/1.1/DTD/svg11.dtd">
<!-- Generated by graphviz version 2.40.1 (20161225.0304)
 -->
<!-- Title: /home/pieter/GitHub/EAGLE&#45;ZYBO&#45;Linux/src/grid&#45;finder/include/HelperStructs.hpp Pages: 1 -->
<svg width="566pt" height="274pt"
 viewBox="0.00 0.00 566.00 274.00" xmlns="http://www.w3.org/2000/svg" xmlns:xlink="http://www.w3.org/1999/xlink">
<g id="graph0" class="graph" transform="scale(1 1) rotate(0) translate(4 270)">
<title>/home/pieter/GitHub/EAGLE&#45;ZYBO&#45;Linux/src/grid&#45;finder/include/HelperStructs.hpp</title>
<polygon fill="#ffffff" stroke="transparent" points="-4,4 -4,-270 562,-270 562,4 -4,4"/>
<!-- Node0 -->
<g id="node1" class="node">
<title>Node0</title>
<g id="a_node1"><a xlink:title=" ">
<polygon fill="#bfbfbf" stroke="#000000" points="96,-224.5 96,-265.5 294,-265.5 294,-224.5 96,-224.5"/>
<text text-anchor="start" x="104" y="-253.5" font-family="Helvetica,sans-Serif" font-size="10.00" fill="#000000">/home/pieter/GitHub</text>
<text text-anchor="start" x="104" y="-242.5" font-family="Helvetica,sans-Serif" font-size="10.00" fill="#000000">/EAGLE&#45;ZYBO&#45;Linux/src</text>
<text text-anchor="middle" x="195" y="-231.5" font-family="Helvetica,sans-Serif" font-size="10.00" fill="#000000">/grid&#45;finder/include/HelperStructs.hpp</text>
</a>
</g>
</g>
<!-- Node1 -->
<g id="node2" class="node">
<title>Node1</title>
<g id="a_node2"><a xlink:href="Angle_8hpp.html" target="_top" xlink:title=" ">
<polygon fill="#ffffff" stroke="#000000" points="91.5,-112.5 91.5,-131.5 156.5,-131.5 156.5,-112.5 91.5,-112.5"/>
<text text-anchor="middle" x="124" y="-119.5" font-family="Helvetica,sans-Serif" font-size="10.00" fill="#000000">Angle.hpp</text>
</a>
</g>
</g>
<!-- Node0&#45;&gt;Node1 -->
<g id="edge1" class="edge">
<title>Node0&#45;&gt;Node1</title>
<path fill="none" stroke="#191970" d="M183.1162,-224.4126C169.5674,-200.9408 147.6193,-162.918 134.6207,-140.3993"/>
<polygon fill="#191970" stroke="#191970" points="137.5248,-138.4291 129.4942,-131.5182 131.4623,-141.9286 137.5248,-138.4291"/>
</g>
<!-- Node7 -->
<g id="node8" class="node">
<title>Node7</title>
<g id="a_node8"><a xlink:href="Degrees_8hpp.html" target="_top" xlink:title=" ">
<polygon fill="#ffffff" stroke="#000000" points="0,-168.5 0,-187.5 78,-187.5 78,-168.5 0,-168.5"/>
<text text-anchor="middle" x="39" y="-175.5" font-family="Helvetica,sans-Serif" font-size="10.00" fill="#000000">Degrees.hpp</text>
</a>
</g>
</g>
<!-- Node0&#45;&gt;Node7 -->
<g id="edge7" class="edge">
<title>Node0&#45;&gt;Node7</title>
<path fill="none" stroke="#191970" d="M146.9219,-224.3511C122.2342,-213.748 92.8327,-201.1204 70.9569,-191.7251"/>
<polygon fill="#191970" stroke="#191970" points="72.0491,-188.3851 61.4795,-187.6546 69.2866,-194.8169 72.0491,-188.3851"/>
</g>
<!-- Node8 -->
<g id="node9" class="node">
<title>Node8</title>
<g id="a_node9"><a xlink:href="Line_8hpp.html" target="_top" xlink:title=" ">
<polygon fill="#ffffff" stroke="#000000" points="223,-168.5 223,-187.5 281,-187.5 281,-168.5 223,-168.5"/>
<text text-anchor="middle" x="252" y="-175.5" font-family="Helvetica,sans-Serif" font-size="10.00" fill="#000000">Line.hpp</text>
</a>
</g>
</g>
<!-- Node0&#45;&gt;Node8 -->
<g id="edge9" class="edge">
<title>Node0&#45;&gt;Node8</title>
<path fill="none" stroke="#191970" d="M212.7227,-224.168C220.5487,-214.9691 229.6462,-204.2756 237.1138,-195.4979"/>
<polygon fill="#191970" stroke="#191970" points="239.8653,-197.665 243.6793,-187.7805 234.5337,-193.1291 239.8653,-197.665"/>
</g>
<!-- Node17 -->
<g id="node18" class="node">
<title>Node17</title>
<g id="a_node18"><a xlink:href="Pixel_8hpp.html" target="_top" xlink:title=" ">
<polygon fill="#ffffff" stroke="#000000" points="175,-112.5 175,-131.5 237,-131.5 237,-112.5 175,-112.5"/>
<text text-anchor="middle" x="206" y="-119.5" font-family="Helvetica,sans-Serif" font-size="10.00" fill="#000000">Pixel.hpp</text>
</a>
</g>
</g>
<!-- Node0&#45;&gt;Node17 -->
<g id="edge28" class="edge">
<title>Node0&#45;&gt;Node17</title>
<path fill="none" stroke="#191970" d="M196.8412,-224.4126C198.9026,-201.3618 202.2191,-164.2774 204.2448,-141.6259"/>
<polygon fill="#191970" stroke="#191970" points="207.744,-141.7902 205.1488,-131.5182 200.7719,-141.1666 207.744,-141.7902"/>
</g>
<!-- Node19 -->
<g id="node20" class="node">
<title>Node19</title>
<g id="a_node20"><a xlink:title=" ">
<polygon fill="#ffffff" stroke="#bfbfbf" points="299,-168.5 299,-187.5 355,-187.5 355,-168.5 299,-168.5"/>
<text text-anchor="middle" x="327" y="-175.5" font-family="Helvetica,sans-Serif" font-size="10.00" fill="#000000">optional</text>
</a>
</g>
</g>
<!-- Node0&#45;&gt;Node19 -->
<g id="edge29" class="edge">
<title>Node0&#45;&gt;Node19</title>
<path fill="none" stroke="#191970" d="M235.6814,-224.3511C256.1947,-213.9391 280.554,-201.5748 298.9528,-192.2361"/>
<polygon fill="#191970" stroke="#191970" points="300.646,-195.3018 307.9789,-187.6546 297.4777,-189.0598 300.646,-195.3018"/>
</g>
<!-- Node2 -->
<g id="node3" class="node">
<title>Node2</title>
<g id="a_node3"><a xlink:title=" ">
<polygon fill="#ffffff" stroke="#bfbfbf" points="22,-56.5 22,-75.5 64,-75.5 64,-56.5 22,-56.5"/>
<text text-anchor="middle" x="43" y="-63.5" font-family="Helvetica,sans-Serif" font-size="10.00" fill="#000000">array</text>
</a>
</g>
</g>
<!-- Node1&#45;&gt;Node2 -->
<g id="edge2" class="edge">
<title>Node1&#45;&gt;Node2</title>
<path fill="none" stroke="#191970" d="M109.8909,-112.2455C97.5791,-103.7337 79.5042,-91.2375 65.2462,-81.3801"/>
<polygon fill="#191970" stroke="#191970" points="67.1634,-78.4506 56.9474,-75.6427 63.1826,-84.2085 67.1634,-78.4506"/>
</g>
<!-- Node3 -->
<g id="node4" class="node">
<title>Node3</title>
<g id="a_node4"><a xlink:title=" ">
<polygon fill="#ffffff" stroke="#bfbfbf" points="116.5,-.5 116.5,-19.5 163.5,-19.5 163.5,-.5 116.5,-.5"/>
<text text-anchor="middle" x="140" y="-7.5" font-family="Helvetica,sans-Serif" font-size="10.00" fill="#000000">cmath</text>
</a>
</g>
</g>
<!-- Node1&#45;&gt;Node3 -->
<g id="edge3" class="edge">
<title>Node1&#45;&gt;Node3</title>
<path fill="none" stroke="#191970" d="M119.3135,-112.4775C113.579,-99.5369 105.2951,-75.7466 111,-56 113.8938,-45.9836 119.6878,-36.0485 125.3413,-27.9887"/>
<polygon fill="#191970" stroke="#191970" points="128.2979,-29.88 131.5023,-19.7814 122.6997,-25.6776 128.2979,-29.88"/>
</g>
<!-- Node4 -->
<g id="node5" class="node">
<title>Node4</title>
<g id="a_node5"><a xlink:title=" ">
<polygon fill="#ffffff" stroke="#bfbfbf" points="120,-56.5 120,-75.5 164,-75.5 164,-56.5 120,-56.5"/>
<text text-anchor="middle" x="142" y="-63.5" font-family="Helvetica,sans-Serif" font-size="10.00" fill="#000000">limits</text>
</a>
</g>
</g>
<!-- Node1&#45;&gt;Node4 -->
<g id="edge4" class="edge">
<title>Node1&#45;&gt;Node4</title>
<path fill="none" stroke="#191970" d="M127.1354,-112.2455C129.51,-104.8579 132.8493,-94.4689 135.7615,-85.4087"/>
<polygon fill="#191970" stroke="#191970" points="139.1725,-86.234 138.9006,-75.6427 132.5083,-84.0919 139.1725,-86.234"/>
</g>
<!-- Node5 -->
<g id="node6" class="node">
<title>Node5</title>
<g id="a_node6"><a xlink:title=" ">
<polygon fill="#ffffff" stroke="#bfbfbf" points="256.5,-56.5 256.5,-75.5 313.5,-75.5 313.5,-56.5 256.5,-56.5"/>
<text text-anchor="middle" x="285" y="-63.5" font-family="Helvetica,sans-Serif" font-size="10.00" fill="#000000">ostream</text>
</a>
</g>
</g>
<!-- Node1&#45;&gt;Node5 -->
<g id="edge5" class="edge">
<title>Node1&#45;&gt;Node5</title>
<path fill="none" stroke="#191970" d="M151.6769,-112.3733C178.3328,-103.1016 218.8238,-89.0178 248.1884,-78.804"/>
<polygon fill="#191970" stroke="#191970" points="249.3891,-82.0921 257.6843,-75.5011 247.0895,-75.4807 249.3891,-82.0921"/>
</g>
<!-- Node6 -->
<g id="node7" class="node">
<title>Node6</title>
<g id="a_node7"><a xlink:href="uint_8hpp.html" target="_top" xlink:title=" ">
<polygon fill="#ffffff" stroke="#000000" points="182,-56.5 182,-75.5 238,-75.5 238,-56.5 182,-56.5"/>
<text text-anchor="middle" x="210" y="-63.5" font-family="Helvetica,sans-Serif" font-size="10.00" fill="#000000">uint.hpp</text>
</a>
</g>
</g>
<!-- Node1&#45;&gt;Node6 -->
<g id="edge6" class="edge">
<title>Node1&#45;&gt;Node6</title>
<path fill="none" stroke="#191970" d="M138.9801,-112.2455C152.1751,-103.6534 171.6051,-91.0014 186.8079,-81.1018"/>
<polygon fill="#191970" stroke="#191970" points="188.7215,-84.0325 195.1916,-75.6427 184.9017,-78.1665 188.7215,-84.0325"/>
</g>
<!-- Node7&#45;&gt;Node3 -->
<g id="edge8" class="edge">
<title>Node7&#45;&gt;Node3</title>
<path fill="none" stroke="#191970" d="M32.4542,-168.4607C18.2882,-146.5223 -11.995,-91.6374 13,-56 23.9828,-40.3409 72.5352,-25.9605 106.3185,-17.5873"/>
<polygon fill="#191970" stroke="#191970" points="107.3703,-20.934 116.2709,-15.1868 105.729,-14.1291 107.3703,-20.934"/>
</g>
<!-- Node8&#45;&gt;Node1 -->
<g id="edge10" class="edge">
<title>Node8&#45;&gt;Node1</title>
<path fill="none" stroke="#191970" d="M229.996,-168.3733C209.3565,-159.3435 178.2842,-145.7494 155.1111,-135.6111"/>
<polygon fill="#191970" stroke="#191970" points="156.2813,-132.3028 145.7169,-131.5011 153.4755,-138.7159 156.2813,-132.3028"/>
</g>
<!-- Node8&#45;&gt;Node5 -->
<g id="edge26" class="edge">
<title>Node8&#45;&gt;Node5</title>
<path fill="none" stroke="#191970" d="M278.9644,-168.4934C295.1714,-161.2188 314.4508,-149.4326 324,-132 333.4413,-114.7644 319.017,-95.4545 305.1167,-82.197"/>
<polygon fill="#191970" stroke="#191970" points="307.3989,-79.5426 297.6031,-75.506 302.7435,-84.7703 307.3989,-79.5426"/>
</g>
<!-- Node9 -->
<g id="node10" class="node">
<title>Node9</title>
<g id="a_node10"><a xlink:href="Matrix_8hpp.html" target="_top" xlink:title=" ">
<polygon fill="#ffffff" stroke="#000000" points="371,-112.5 371,-131.5 439,-131.5 439,-112.5 371,-112.5"/>
<text text-anchor="middle" x="405" y="-119.5" font-family="Helvetica,sans-Serif" font-size="10.00" fill="#000000">Matrix.hpp</text>
</a>
</g>
</g>
<!-- Node8&#45;&gt;Node9 -->
<g id="edge11" class="edge">
<title>Node8&#45;&gt;Node9</title>
<path fill="none" stroke="#191970" d="M278.3016,-168.3733C303.4128,-159.1822 341.4438,-145.2624 369.2872,-135.0713"/>
<polygon fill="#191970" stroke="#191970" points="370.8538,-138.2251 379.0416,-131.5011 368.4478,-131.6516 370.8538,-138.2251"/>
</g>
<!-- Node8&#45;&gt;Node17 -->
<g id="edge23" class="edge">
<title>Node8&#45;&gt;Node17</title>
<path fill="none" stroke="#191970" d="M243.9874,-168.2455C237.5232,-160.3761 228.2615,-149.101 220.5017,-139.6542"/>
<polygon fill="#191970" stroke="#191970" points="222.9727,-137.1484 213.9208,-131.6427 217.5636,-141.5916 222.9727,-137.1484"/>
</g>
<!-- Node18 -->
<g id="node19" class="node">
<title>Node18</title>
<g id="a_node19"><a xlink:title=" ">
<polygon fill="#ffffff" stroke="#bfbfbf" points="255,-112.5 255,-131.5 315,-131.5 315,-112.5 255,-112.5"/>
<text text-anchor="middle" x="285" y="-119.5" font-family="Helvetica,sans-Serif" font-size="10.00" fill="#000000">iostream</text>
</a>
</g>
</g>
<!-- Node8&#45;&gt;Node18 -->
<g id="edge27" class="edge">
<title>Node8&#45;&gt;Node18</title>
<path fill="none" stroke="#191970" d="M257.7482,-168.2455C262.2435,-160.617 268.6248,-149.7881 274.0825,-140.5267"/>
<polygon fill="#191970" stroke="#191970" points="277.2561,-142.035 279.3177,-131.6427 271.2253,-138.4811 277.2561,-142.035"/>
</g>
<!-- Node9&#45;&gt;Node3 -->
<g id="edge20" class="edge">
<title>Node9&#45;&gt;Node3</title>
<path fill="none" stroke="#191970" d="M395.8693,-112.3601C381.658,-97.9291 352.7731,-70.8248 323,-56 319.6064,-54.3103 225.3918,-31.0015 173.507,-18.2303"/>
<polygon fill="#191970" stroke="#191970" points="174.2805,-14.8163 163.7339,-15.8261 172.6083,-21.6136 174.2805,-14.8163"/>
</g>
<!-- Node9&#45;&gt;Node5 -->
<g id="edge22" class="edge">
<title>Node9&#45;&gt;Node5</title>
<path fill="none" stroke="#191970" d="M384.3713,-112.3733C365.1081,-103.3838 336.1514,-89.8706 314.4581,-79.7471"/>
<polygon fill="#191970" stroke="#191970" points="315.9015,-76.5584 305.3595,-75.5011 312.9413,-82.9017 315.9015,-76.5584"/>
</g>
<!-- Node10 -->
<g id="node11" class="node">
<title>Node10</title>
<g id="a_node11"><a xlink:href="Array_8hpp.html" target="_top" xlink:title=" ">
<polygon fill="#ffffff" stroke="#000000" points="370,-56.5 370,-75.5 432,-75.5 432,-56.5 370,-56.5"/>
<text text-anchor="middle" x="401" y="-63.5" font-family="Helvetica,sans-Serif" font-size="10.00" fill="#000000">Array.hpp</text>
</a>
</g>
</g>
<!-- Node9&#45;&gt;Node10 -->
<g id="edge12" class="edge">
<title>Node9&#45;&gt;Node10</title>
<path fill="none" stroke="#191970" d="M404.3033,-112.2455C403.7813,-104.9382 403.0496,-94.6944 402.4075,-85.7046"/>
<polygon fill="#191970" stroke="#191970" points="405.8924,-85.3679 401.6888,-75.6427 398.9102,-85.8667 405.8924,-85.3679"/>
</g>
<!-- Node11 -->
<g id="node12" class="node">
<title>Node11</title>
<g id="a_node12"><a xlink:title=" ">
<polygon fill="#ffffff" stroke="#bfbfbf" points="494,-.5 494,-19.5 558,-19.5 558,-.5 494,-.5"/>
<text text-anchor="middle" x="526" y="-7.5" font-family="Helvetica,sans-Serif" font-size="10.00" fill="#000000">algorithm</text>
</a>
</g>
</g>
<!-- Node9&#45;&gt;Node11 -->
<g id="edge19" class="edge">
<title>Node9&#45;&gt;Node11</title>
<path fill="none" stroke="#191970" d="M415.3164,-112.4509C435.9442,-93.3574 482.4943,-50.2697 508.1672,-26.5063"/>
<polygon fill="#191970" stroke="#191970" points="510.7485,-28.8864 515.7097,-19.5249 505.9935,-23.7492 510.7485,-28.8864"/>
</g>
<!-- Node16 -->
<g id="node17" class="node">
<title>Node16</title>
<g id="a_node17"><a xlink:title=" ">
<polygon fill="#ffffff" stroke="#bfbfbf" points="488,-56.5 488,-75.5 544,-75.5 544,-56.5 488,-56.5"/>
<text text-anchor="middle" x="516" y="-63.5" font-family="Helvetica,sans-Serif" font-size="10.00" fill="#000000">iomanip</text>
</a>
</g>
</g>
<!-- Node9&#45;&gt;Node16 -->
<g id="edge21" class="edge">
<title>Node9&#45;&gt;Node16</title>
<path fill="none" stroke="#191970" d="M424.0816,-112.3733C441.7402,-103.4644 468.2053,-90.1127 488.2098,-80.0203"/>
<polygon fill="#191970" stroke="#191970" points="489.8158,-83.1303 497.1674,-75.5011 486.6628,-76.8806 489.8158,-83.1303"/>
</g>
<!-- Node10&#45;&gt;Node3 -->
<g id="edge14" class="edge">
<title>Node10&#45;&gt;Node3</title>
<path fill="none" stroke="#191970" d="M369.5425,-58.9431C365.001,-57.9436 360.3825,-56.9377 356,-56 278.3509,-39.3866 258.4742,-37.4108 181,-20 178.6477,-19.4714 176.2227,-18.9134 173.7826,-18.3424"/>
<polygon fill="#191970" stroke="#191970" points="174.3531,-14.8803 163.8138,-15.9633 172.7281,-21.6891 174.3531,-14.8803"/>
</g>
<!-- Node10&#45;&gt;Node11 -->
<g id="edge13" class="edge">
<title>Node10&#45;&gt;Node11</title>
<path fill="none" stroke="#191970" d="M422.4883,-56.3733C442.644,-47.3435 472.988,-33.7494 495.618,-23.6111"/>
<polygon fill="#191970" stroke="#191970" points="497.0971,-26.7838 504.7921,-19.5011 494.2351,-20.3955 497.0971,-26.7838"/>
</g>
<!-- Node12 -->
<g id="node13" class="node">
<title>Node12</title>
<g id="a_node13"><a xlink:title=" ">
<polygon fill="#ffffff" stroke="#bfbfbf" points="260.5,-.5 260.5,-19.5 313.5,-19.5 313.5,-.5 260.5,-.5"/>
<text text-anchor="middle" x="287" y="-7.5" font-family="Helvetica,sans-Serif" font-size="10.00" fill="#000000">cstddef</text>
</a>
</g>
</g>
<!-- Node10&#45;&gt;Node12 -->
<g id="edge15" class="edge">
<title>Node10&#45;&gt;Node12</title>
<path fill="none" stroke="#191970" d="M381.4027,-56.3733C363.2669,-47.4644 336.0865,-34.1127 315.5413,-24.0203"/>
<polygon fill="#191970" stroke="#191970" points="316.8603,-20.7688 306.3416,-19.5011 313.7739,-27.0517 316.8603,-20.7688"/>
</g>
<!-- Node13 -->
<g id="node14" class="node">
<title>Node13</title>
<g id="a_node14"><a xlink:title=" ">
<polygon fill="#ffffff" stroke="#bfbfbf" points="332,-.5 332,-19.5 388,-19.5 388,-.5 332,-.5"/>
<text text-anchor="middle" x="360" y="-7.5" font-family="Helvetica,sans-Serif" font-size="10.00" fill="#000000">numeric</text>
</a>
</g>
</g>
<!-- Node10&#45;&gt;Node13 -->
<g id="edge16" class="edge">
<title>Node10&#45;&gt;Node13</title>
<path fill="none" stroke="#191970" d="M393.8583,-56.2455C388.1556,-48.4564 380.01,-37.3308 373.1375,-27.9439"/>
<polygon fill="#191970" stroke="#191970" points="375.7913,-25.6437 367.0598,-19.6427 370.1432,-29.7789 375.7913,-25.6437"/>
</g>
<!-- Node14 -->
<g id="node15" class="node">
<title>Node14</title>
<g id="a_node15"><a xlink:title=" ">
<polygon fill="#ffffff" stroke="#bfbfbf" points="406.5,-.5 406.5,-19.5 475.5,-19.5 475.5,-.5 406.5,-.5"/>
<text text-anchor="middle" x="441" y="-7.5" font-family="Helvetica,sans-Serif" font-size="10.00" fill="#000000">type_traits</text>
</a>
</g>
</g>
<!-- Node10&#45;&gt;Node14 -->
<g id="edge17" class="edge">
<title>Node10&#45;&gt;Node14</title>
<path fill="none" stroke="#191970" d="M407.9675,-56.2455C413.5311,-48.4564 421.478,-37.3308 428.1829,-27.9439"/>
<polygon fill="#191970" stroke="#191970" points="431.148,-29.8144 434.1124,-19.6427 425.4519,-25.7457 431.148,-29.8144"/>
</g>
<!-- Node15 -->
<g id="node16" class="node">
<title>Node15</title>
<g id="a_node16"><a xlink:title=" ">
<polygon fill="#ffffff" stroke="#bfbfbf" points="190,-.5 190,-19.5 242,-19.5 242,-.5 190,-.5"/>
<text text-anchor="middle" x="216" y="-7.5" font-family="Helvetica,sans-Serif" font-size="10.00" fill="#000000">cassert</text>
</a>
</g>
</g>
<!-- Node10&#45;&gt;Node15 -->
<g id="edge18" class="edge">
<title>Node10&#45;&gt;Node15</title>
<path fill="none" stroke="#191970" d="M369.6173,-56.5004C336.9656,-46.6166 285.9237,-31.1661 251.7404,-20.8187"/>
<polygon fill="#191970" stroke="#191970" points="252.7293,-17.4613 242.1442,-17.9139 250.7013,-24.1611 252.7293,-17.4613"/>
</g>
<!-- Node17&#45;&gt;Node5 -->
<g id="edge25" class="edge">
<title>Node17&#45;&gt;Node5</title>
<path fill="none" stroke="#191970" d="M219.7607,-112.2455C231.6552,-103.814 249.065,-91.4729 262.9085,-81.6598"/>
<polygon fill="#191970" stroke="#191970" points="265.2628,-84.2811 271.3969,-75.6427 261.2146,-78.5704 265.2628,-84.2811"/>
</g>
<!-- Node17&#45;&gt;Node6 -->
<g id="edge24" class="edge">
<title>Node17&#45;&gt;Node6</title>
<path fill="none" stroke="#191970" d="M206.6967,-112.2455C207.2187,-104.9382 207.9504,-94.6944 208.5925,-85.7046"/>
<polygon fill="#191970" stroke="#191970" points="212.0898,-85.8667 209.3112,-75.6427 205.1076,-85.3679 212.0898,-85.8667"/>
</g>
</g>
</svg>
