<?xml version="1.0" encoding="UTF-8" standalone="no"?>
<!DOCTYPE svg PUBLIC "-//W3C//DTD SVG 1.1//EN"
 "http://www.w3.org/Graphics/SVG/1.1/DTD/svg11.dtd">
<!-- Generated by graphviz version 2.40.1 (20161225.0304)
 -->
<!-- Title: /home/pieter/GitHub/EAGLE&#45;ZYBO&#45;Linux/src/grid&#45;finder/include/HelperStructs.hpp Pages: 1 -->
<svg width="336pt" height="317pt"
 viewBox="0.00 0.00 336.00 317.00" xmlns="http://www.w3.org/2000/svg" xmlns:xlink="http://www.w3.org/1999/xlink">
<g id="graph0" class="graph" transform="scale(1 1) rotate(0) translate(4 313)">
<title>/home/pieter/GitHub/EAGLE&#45;ZYBO&#45;Linux/src/grid&#45;finder/include/HelperStructs.hpp</title>
<polygon fill="#ffffff" stroke="transparent" points="-4,4 -4,-313 332,-313 332,4 -4,4"/>
<!-- Node21 -->
<g id="node1" class="node">
<title>Node21</title>
<g id="a_node1"><a xlink:title=" ">
<polygon fill="#bfbfbf" stroke="#000000" points="77.5,-267.5 77.5,-308.5 275.5,-308.5 275.5,-267.5 77.5,-267.5"/>
<text text-anchor="start" x="85.5" y="-296.5" font-family="Helvetica,sans-Serif" font-size="10.00" fill="#000000">/home/pieter/GitHub</text>
<text text-anchor="start" x="85.5" y="-285.5" font-family="Helvetica,sans-Serif" font-size="10.00" fill="#000000">/EAGLE&#45;ZYBO&#45;Linux/src</text>
<text text-anchor="middle" x="176.5" y="-274.5" font-family="Helvetica,sans-Serif" font-size="10.00" fill="#000000">/grid&#45;finder/include/HelperStructs.hpp</text>
</a>
</g>
</g>
<!-- Node22 -->
<g id="node2" class="node">
<title>Node22</title>
<g id="a_node2"><a xlink:href="GridFinder_8hpp.html" target="_top" xlink:title=" ">
<polygon fill="#ffffff" stroke="#000000" points="0,-184 0,-225 181,-225 181,-184 0,-184"/>
<text text-anchor="start" x="8" y="-213" font-family="Helvetica,sans-Serif" font-size="10.00" fill="#000000">/home/pieter/GitHub</text>
<text text-anchor="start" x="8" y="-202" font-family="Helvetica,sans-Serif" font-size="10.00" fill="#000000">/EAGLE&#45;ZYBO&#45;Linux/src</text>
<text text-anchor="middle" x="90.5" y="-191" font-family="Helvetica,sans-Serif" font-size="10.00" fill="#000000">/grid&#45;finder/include/GridFinder.hpp</text>
</a>
</g>
</g>
<!-- Node21&#45;&gt;Node22 -->
<g id="edge1" class="edge">
<title>Node21&#45;&gt;Node22</title>
<path fill="none" stroke="#191970" d="M147.7915,-260.126C136.0365,-248.7127 122.6737,-235.7384 111.8119,-225.1924"/>
<polygon fill="#191970" stroke="#191970" points="145.6288,-262.9046 155.2416,-267.3595 150.5051,-257.8824 145.6288,-262.9046"/>
</g>
<!-- Node26 -->
<g id="node6" class="node">
<title>Node26</title>
<g id="a_node6"><a xlink:href="LocationFinder_8hpp.html" target="_top" xlink:title=" ">
<polygon fill="#ffffff" stroke="#000000" points="199,-178.5 199,-230.5 328,-230.5 328,-178.5 199,-178.5"/>
<text text-anchor="start" x="207" y="-218.5" font-family="Helvetica,sans-Serif" font-size="10.00" fill="#000000">/home/pieter/GitHub</text>
<text text-anchor="start" x="207" y="-207.5" font-family="Helvetica,sans-Serif" font-size="10.00" fill="#000000">/EAGLE&#45;ZYBO&#45;Linux/src</text>
<text text-anchor="start" x="207" y="-196.5" font-family="Helvetica,sans-Serif" font-size="10.00" fill="#000000">/location&#45;finder/include</text>
<text text-anchor="middle" x="263.5" y="-185.5" font-family="Helvetica,sans-Serif" font-size="10.00" fill="#000000">/LocationFinder.hpp</text>
</a>
</g>
</g>
<!-- Node21&#45;&gt;Node26 -->
<g id="edge5" class="edge">
<title>Node21&#45;&gt;Node26</title>
<path fill="none" stroke="#191970" d="M205.3662,-260.2951C215.3411,-250.7214 226.4781,-240.0325 236.3138,-230.5925"/>
<polygon fill="#191970" stroke="#191970" points="202.7968,-257.9099 198.0056,-267.3595 207.6439,-262.9602 202.7968,-257.9099"/>
</g>
<!-- Node23 -->
<g id="node3" class="node">
<title>Node23</title>
<g id="a_node3"><a xlink:href="LocationFinder_8cpp.html" target="_top" xlink:title=" ">
<polygon fill="#ffffff" stroke="#000000" points="20.5,-89.5 20.5,-141.5 172.5,-141.5 172.5,-89.5 20.5,-89.5"/>
<text text-anchor="start" x="28.5" y="-129.5" font-family="Helvetica,sans-Serif" font-size="10.00" fill="#000000">/home/pieter/GitHub</text>
<text text-anchor="start" x="28.5" y="-118.5" font-family="Helvetica,sans-Serif" font-size="10.00" fill="#000000">/EAGLE&#45;ZYBO&#45;Linux/src</text>
<text text-anchor="start" x="28.5" y="-107.5" font-family="Helvetica,sans-Serif" font-size="10.00" fill="#000000">/location&#45;finder/src/Location</text>
<text text-anchor="middle" x="96.5" y="-96.5" font-family="Helvetica,sans-Serif" font-size="10.00" fill="#000000">Finder.cpp</text>
</a>
</g>
</g>
<!-- Node22&#45;&gt;Node23 -->
<g id="edge2" class="edge">
<title>Node22&#45;&gt;Node23</title>
<path fill="none" stroke="#191970" d="M92.5858,-173.56C93.2844,-163.1985 94.056,-151.7526 94.7282,-141.7816"/>
<polygon fill="#191970" stroke="#191970" points="89.0722,-173.6451 91.8916,-183.8579 96.0564,-174.116 89.0722,-173.6451"/>
</g>
<!-- Node24 -->
<g id="node4" class="node">
<title>Node24</title>
<g id="a_node4"><a xlink:href="Grid-Finder_8module_8hpp.html" target="_top" xlink:title=" ">
<polygon fill="#ffffff" stroke="#000000" points="194,-89.5 194,-141.5 327,-141.5 327,-89.5 194,-89.5"/>
<text text-anchor="start" x="202" y="-129.5" font-family="Helvetica,sans-Serif" font-size="10.00" fill="#000000">/home/pieter/GitHub</text>
<text text-anchor="start" x="202" y="-118.5" font-family="Helvetica,sans-Serif" font-size="10.00" fill="#000000">/EAGLE&#45;ZYBO&#45;Linux/src</text>
<text text-anchor="start" x="202" y="-107.5" font-family="Helvetica,sans-Serif" font-size="10.00" fill="#000000">/py&#45;grid&#45;finder/include</text>
<text text-anchor="middle" x="260.5" y="-96.5" font-family="Helvetica,sans-Serif" font-size="10.00" fill="#000000">/Grid&#45;Finder.module.hpp</text>
</a>
</g>
</g>
<!-- Node22&#45;&gt;Node24 -->
<g id="edge3" class="edge">
<title>Node22&#45;&gt;Node24</title>
<path fill="none" stroke="#191970" d="M138.9407,-179.1399C161.3743,-167.3952 188.0051,-153.4532 210.6144,-141.6166"/>
<polygon fill="#191970" stroke="#191970" points="137.1647,-176.119 129.9287,-183.8579 140.4114,-182.3205 137.1647,-176.119"/>
</g>
<!-- Node25 -->
<g id="node5" class="node">
<title>Node25</title>
<g id="a_node5"><a xlink:href="Grid-Finder_8module_8cpp.html" target="_top" xlink:title=" ">
<polygon fill="#ffffff" stroke="#000000" points="196,-.5 196,-52.5 325,-52.5 325,-.5 196,-.5"/>
<text text-anchor="start" x="204" y="-40.5" font-family="Helvetica,sans-Serif" font-size="10.00" fill="#000000">/home/pieter/GitHub</text>
<text text-anchor="start" x="204" y="-29.5" font-family="Helvetica,sans-Serif" font-size="10.00" fill="#000000">/EAGLE&#45;ZYBO&#45;Linux/src</text>
<text text-anchor="start" x="204" y="-18.5" font-family="Helvetica,sans-Serif" font-size="10.00" fill="#000000">/py&#45;grid&#45;finder/src/Grid</text>
<text text-anchor="middle" x="260.5" y="-7.5" font-family="Helvetica,sans-Serif" font-size="10.00" fill="#000000">&#45;Finder.module.cpp</text>
</a>
</g>
</g>
<!-- Node24&#45;&gt;Node25 -->
<g id="edge4" class="edge">
<title>Node24&#45;&gt;Node25</title>
<path fill="none" stroke="#191970" d="M260.5,-79.1155C260.5,-70.2061 260.5,-60.8475 260.5,-52.5341"/>
<polygon fill="#191970" stroke="#191970" points="257.0001,-79.2784 260.5,-89.2784 264.0001,-79.2785 257.0001,-79.2784"/>
</g>
<!-- Node26&#45;&gt;Node23 -->
<g id="edge6" class="edge">
<title>Node26&#45;&gt;Node23</title>
<path fill="none" stroke="#191970" d="M205.453,-173.5648C185.8473,-163.1162 164.1714,-151.5644 145.3506,-141.5341"/>
<polygon fill="#191970" stroke="#191970" points="203.8266,-176.664 214.2977,-178.2784 207.1189,-170.4865 203.8266,-176.664"/>
</g>
<!-- Node26&#45;&gt;Node24 -->
<g id="edge7" class="edge">
<title>Node26&#45;&gt;Node24</title>
<path fill="none" stroke="#191970" d="M262.2736,-168.1155C261.9732,-159.2061 261.6578,-149.8475 261.3776,-141.5341"/>
<polygon fill="#191970" stroke="#191970" points="258.7811,-168.4021 262.6161,-178.2784 265.7772,-168.1662 258.7811,-168.4021"/>
</g>
</g>
</svg>
