<?xml version="1.0" encoding="UTF-8" standalone="no"?>
<!DOCTYPE svg PUBLIC "-//W3C//DTD SVG 1.1//EN"
 "http://www.w3.org/Graphics/SVG/1.1/DTD/svg11.dtd">
<!-- Generated by graphviz version 2.40.1 (20161225.0304)
 -->
<!-- Title: /home/pieter/GitHub/EAGLE&#45;ZYBO&#45;Linux/src/grid&#45;finder/include/HelperStructs.hpp Pages: 1 -->
<svg width="805pt" height="274pt"
 viewBox="0.00 0.00 804.50 274.00" xmlns="http://www.w3.org/2000/svg" xmlns:xlink="http://www.w3.org/1999/xlink">
<g id="graph0" class="graph" transform="scale(1 1) rotate(0) translate(4 270)">
<title>/home/pieter/GitHub/EAGLE&#45;ZYBO&#45;Linux/src/grid&#45;finder/include/HelperStructs.hpp</title>
<polygon fill="#ffffff" stroke="transparent" points="-4,4 -4,-270 800.5,-270 800.5,4 -4,4"/>
<!-- Node0 -->
<g id="node1" class="node">
<title>Node0</title>
<g id="a_node1"><a xlink:title=" ">
<polygon fill="#bfbfbf" stroke="#000000" points="88,-224.5 88,-265.5 286,-265.5 286,-224.5 88,-224.5"/>
<text text-anchor="start" x="96" y="-253.5" font-family="Helvetica,sans-Serif" font-size="10.00" fill="#000000">/home/pieter/GitHub</text>
<text text-anchor="start" x="96" y="-242.5" font-family="Helvetica,sans-Serif" font-size="10.00" fill="#000000">/EAGLE&#45;ZYBO&#45;Linux/src</text>
<text text-anchor="middle" x="187" y="-231.5" font-family="Helvetica,sans-Serif" font-size="10.00" fill="#000000">/grid&#45;finder/include/HelperStructs.hpp</text>
</a>
</g>
</g>
<!-- Node1 -->
<g id="node2" class="node">
<title>Node1</title>
<g id="a_node2"><a xlink:href="Angle_8hpp.html" target="_top" xlink:title=" ">
<polygon fill="#ffffff" stroke="#000000" points="144.5,-112.5 144.5,-131.5 209.5,-131.5 209.5,-112.5 144.5,-112.5"/>
<text text-anchor="middle" x="177" y="-119.5" font-family="Helvetica,sans-Serif" font-size="10.00" fill="#000000">Angle.hpp</text>
</a>
</g>
</g>
<!-- Node0&#45;&gt;Node1 -->
<g id="edge1" class="edge">
<title>Node0&#45;&gt;Node1</title>
<path fill="none" stroke="#191970" d="M182.9987,-224.2405C181.1072,-213.4721 179.0397,-200.0776 178,-188 176.6772,-172.6347 176.4689,-155.1848 176.5688,-142.0884"/>
<polygon fill="#191970" stroke="#191970" points="180.0716,-141.9112 176.7157,-131.8619 173.0723,-141.8106 180.0716,-141.9112"/>
</g>
<!-- Node7 -->
<g id="node8" class="node">
<title>Node7</title>
<g id="a_node8"><a xlink:href="Degrees_8hpp.html" target="_top" xlink:title=" ">
<polygon fill="#ffffff" stroke="#000000" points="0,-168.5 0,-187.5 78,-187.5 78,-168.5 0,-168.5"/>
<text text-anchor="middle" x="39" y="-175.5" font-family="Helvetica,sans-Serif" font-size="10.00" fill="#000000">Degrees.hpp</text>
</a>
</g>
</g>
<!-- Node0&#45;&gt;Node7 -->
<g id="edge7" class="edge">
<title>Node0&#45;&gt;Node7</title>
<path fill="none" stroke="#191970" d="M141.3875,-224.3511C118.0713,-213.7958 90.3232,-201.2342 69.599,-191.8523"/>
<polygon fill="#191970" stroke="#191970" points="70.8801,-188.5903 60.3267,-187.6546 67.9932,-194.9673 70.8801,-188.5903"/>
</g>
<!-- Node8 -->
<g id="node9" class="node">
<title>Node8</title>
<g id="a_node9"><a xlink:href="Line_8hpp.html" target="_top" xlink:title=" ">
<polygon fill="#ffffff" stroke="#000000" points="187,-168.5 187,-187.5 245,-187.5 245,-168.5 187,-168.5"/>
<text text-anchor="middle" x="216" y="-175.5" font-family="Helvetica,sans-Serif" font-size="10.00" fill="#000000">Line.hpp</text>
</a>
</g>
</g>
<!-- Node0&#45;&gt;Node8 -->
<g id="edge9" class="edge">
<title>Node0&#45;&gt;Node8</title>
<path fill="none" stroke="#191970" d="M196.0168,-224.168C199.7522,-215.5381 204.0569,-205.5928 207.7121,-197.1479"/>
<polygon fill="#191970" stroke="#191970" points="211.0064,-198.348 211.7667,-187.7805 204.5823,-195.5674 211.0064,-198.348"/>
</g>
<!-- Node19 -->
<g id="node20" class="node">
<title>Node19</title>
<g id="a_node20"><a xlink:href="Pixel_8hpp.html" target="_top" xlink:title=" ">
<polygon fill="#ffffff" stroke="#000000" points="64,-112.5 64,-131.5 126,-131.5 126,-112.5 64,-112.5"/>
<text text-anchor="middle" x="95" y="-119.5" font-family="Helvetica,sans-Serif" font-size="10.00" fill="#000000">Pixel.hpp</text>
</a>
</g>
</g>
<!-- Node0&#45;&gt;Node19 -->
<g id="edge31" class="edge">
<title>Node0&#45;&gt;Node19</title>
<path fill="none" stroke="#191970" d="M171.6013,-224.4126C153.8877,-200.7303 125.0943,-162.2348 108.3117,-139.7972"/>
<polygon fill="#191970" stroke="#191970" points="110.9116,-137.4296 102.1193,-131.5182 105.3062,-141.6224 110.9116,-137.4296"/>
</g>
<!-- Node21 -->
<g id="node22" class="node">
<title>Node21</title>
<g id="a_node22"><a xlink:title=" ">
<polygon fill="#ffffff" stroke="#bfbfbf" points="263,-168.5 263,-187.5 319,-187.5 319,-168.5 263,-168.5"/>
<text text-anchor="middle" x="291" y="-175.5" font-family="Helvetica,sans-Serif" font-size="10.00" fill="#000000">optional</text>
</a>
</g>
</g>
<!-- Node0&#45;&gt;Node21 -->
<g id="edge32" class="edge">
<title>Node0&#45;&gt;Node21</title>
<path fill="none" stroke="#191970" d="M219.052,-224.3511C234.6209,-214.3212 253.0017,-202.4797 267.2877,-193.2762"/>
<polygon fill="#191970" stroke="#191970" points="269.5027,-196.0127 276.0137,-187.6546 265.7116,-190.1281 269.5027,-196.0127"/>
</g>
<!-- Node22 -->
<g id="node23" class="node">
<title>Node22</title>
<g id="a_node23"><a xlink:title=" ">
<polygon fill="#ffffff" stroke="#bfbfbf" points="337.5,-168.5 337.5,-187.5 384.5,-187.5 384.5,-168.5 337.5,-168.5"/>
<text text-anchor="middle" x="361" y="-175.5" font-family="Helvetica,sans-Serif" font-size="10.00" fill="#000000">vector</text>
</a>
</g>
</g>
<!-- Node0&#45;&gt;Node22 -->
<g id="edge33" class="edge">
<title>Node0&#45;&gt;Node22</title>
<path fill="none" stroke="#191970" d="M240.6255,-224.3511C269.0606,-213.402 303.102,-200.2941 327.7174,-190.8157"/>
<polygon fill="#191970" stroke="#191970" points="329.2413,-193.9795 337.3157,-187.1198 326.7259,-187.4471 329.2413,-193.9795"/>
</g>
<!-- Node2 -->
<g id="node3" class="node">
<title>Node2</title>
<g id="a_node3"><a xlink:title=" ">
<polygon fill="#ffffff" stroke="#bfbfbf" points="296,-56.5 296,-75.5 338,-75.5 338,-56.5 296,-56.5"/>
<text text-anchor="middle" x="317" y="-63.5" font-family="Helvetica,sans-Serif" font-size="10.00" fill="#000000">array</text>
</a>
</g>
</g>
<!-- Node1&#45;&gt;Node2 -->
<g id="edge2" class="edge">
<title>Node1&#45;&gt;Node2</title>
<path fill="none" stroke="#191970" d="M201.0669,-112.3733C224.6711,-102.9316 260.751,-88.4996 286.3849,-78.246"/>
<polygon fill="#191970" stroke="#191970" points="288.0025,-81.3687 295.9873,-74.4051 285.4027,-74.8694 288.0025,-81.3687"/>
</g>
<!-- Node3 -->
<g id="node4" class="node">
<title>Node3</title>
<g id="a_node4"><a xlink:title=" ">
<polygon fill="#ffffff" stroke="#bfbfbf" points="224.5,-.5 224.5,-19.5 271.5,-19.5 271.5,-.5 224.5,-.5"/>
<text text-anchor="middle" x="248" y="-7.5" font-family="Helvetica,sans-Serif" font-size="10.00" fill="#000000">cmath</text>
</a>
</g>
</g>
<!-- Node1&#45;&gt;Node3 -->
<g id="edge3" class="edge">
<title>Node1&#45;&gt;Node3</title>
<path fill="none" stroke="#191970" d="M181.2628,-112.2642C187.2007,-99.0818 198.6336,-75.0183 211,-56 217.453,-46.076 225.6147,-35.7432 232.6298,-27.3907"/>
<polygon fill="#191970" stroke="#191970" points="235.2993,-29.6543 239.1569,-19.7867 229.9878,-25.095 235.2993,-29.6543"/>
</g>
<!-- Node4 -->
<g id="node5" class="node">
<title>Node4</title>
<g id="a_node5"><a xlink:title=" ">
<polygon fill="#ffffff" stroke="#bfbfbf" points="120,-56.5 120,-75.5 164,-75.5 164,-56.5 120,-56.5"/>
<text text-anchor="middle" x="142" y="-63.5" font-family="Helvetica,sans-Serif" font-size="10.00" fill="#000000">limits</text>
</a>
</g>
</g>
<!-- Node1&#45;&gt;Node4 -->
<g id="edge4" class="edge">
<title>Node1&#45;&gt;Node4</title>
<path fill="none" stroke="#191970" d="M170.9035,-112.2455C166.0855,-104.5367 159.2249,-93.5598 153.3968,-84.2348"/>
<polygon fill="#191970" stroke="#191970" points="156.2947,-82.2677 148.0267,-75.6427 150.3587,-85.9777 156.2947,-82.2677"/>
</g>
<!-- Node5 -->
<g id="node6" class="node">
<title>Node5</title>
<g id="a_node6"><a xlink:title=" ">
<polygon fill="#ffffff" stroke="#bfbfbf" points="220.5,-56.5 220.5,-75.5 277.5,-75.5 277.5,-56.5 220.5,-56.5"/>
<text text-anchor="middle" x="249" y="-63.5" font-family="Helvetica,sans-Serif" font-size="10.00" fill="#000000">ostream</text>
</a>
</g>
</g>
<!-- Node1&#45;&gt;Node5 -->
<g id="edge5" class="edge">
<title>Node1&#45;&gt;Node5</title>
<path fill="none" stroke="#191970" d="M189.5414,-112.2455C200.2787,-103.8943 215.9473,-91.7076 228.5047,-81.9408"/>
<polygon fill="#191970" stroke="#191970" points="230.8575,-84.5449 236.6023,-75.6427 226.5599,-79.0194 230.8575,-84.5449"/>
</g>
<!-- Node6 -->
<g id="node7" class="node">
<title>Node6</title>
<g id="a_node7"><a xlink:href="uint_8hpp.html" target="_top" xlink:title=" ">
<polygon fill="#ffffff" stroke="#000000" points="46,-56.5 46,-75.5 102,-75.5 102,-56.5 46,-56.5"/>
<text text-anchor="middle" x="74" y="-63.5" font-family="Helvetica,sans-Serif" font-size="10.00" fill="#000000">uint.hpp</text>
</a>
</g>
</g>
<!-- Node1&#45;&gt;Node6 -->
<g id="edge6" class="edge">
<title>Node1&#45;&gt;Node6</title>
<path fill="none" stroke="#191970" d="M159.0588,-112.2455C142.96,-103.4928 119.1121,-90.527 100.7609,-80.5496"/>
<polygon fill="#191970" stroke="#191970" points="102.1929,-77.3444 91.7356,-75.6427 98.8493,-83.4942 102.1929,-77.3444"/>
</g>
<!-- Node7&#45;&gt;Node3 -->
<g id="edge8" class="edge">
<title>Node7&#45;&gt;Node3</title>
<path fill="none" stroke="#191970" d="M35.1876,-168.4533C26.9212,-146.0184 10.1578,-89.3245 37,-56 58.8834,-28.8318 160.4492,-16.8547 214.2868,-12.3394"/>
<polygon fill="#191970" stroke="#191970" points="214.6905,-15.8184 224.3802,-11.5335 214.1333,-8.8406 214.6905,-15.8184"/>
</g>
<!-- Node8&#45;&gt;Node1 -->
<g id="edge10" class="edge">
<title>Node8&#45;&gt;Node1</title>
<path fill="none" stroke="#191970" d="M209.2067,-168.2455C203.7822,-160.4564 196.0339,-149.3308 189.4967,-139.9439"/>
<polygon fill="#191970" stroke="#191970" points="192.3025,-137.8485 183.7154,-131.6427 186.5583,-141.849 192.3025,-137.8485"/>
</g>
<!-- Node8&#45;&gt;Node5 -->
<g id="edge29" class="edge">
<title>Node8&#45;&gt;Node5</title>
<path fill="none" stroke="#191970" d="M245.0103,-169.8341C263.44,-162.9755 285.854,-151.1477 297,-132 307.5006,-113.961 290.0197,-94.8269 273.2848,-81.8319"/>
<polygon fill="#191970" stroke="#191970" points="274.9014,-78.6802 264.7538,-75.6344 270.7871,-84.3435 274.9014,-78.6802"/>
</g>
<!-- Node9 -->
<g id="node10" class="node">
<title>Node9</title>
<g id="a_node10"><a xlink:href="Matrix_8hpp.html" target="_top" xlink:title=" ">
<polygon fill="#ffffff" stroke="#000000" points="347,-112.5 347,-131.5 415,-131.5 415,-112.5 347,-112.5"/>
<text text-anchor="middle" x="381" y="-119.5" font-family="Helvetica,sans-Serif" font-size="10.00" fill="#000000">Matrix.hpp</text>
</a>
</g>
</g>
<!-- Node8&#45;&gt;Node9 -->
<g id="edge11" class="edge">
<title>Node8&#45;&gt;Node9</title>
<path fill="none" stroke="#191970" d="M244.3645,-168.3733C271.6827,-159.1016 313.1796,-145.0178 343.2738,-134.804"/>
<polygon fill="#191970" stroke="#191970" points="344.661,-138.0294 353.0056,-131.5011 342.4113,-131.4008 344.661,-138.0294"/>
</g>
<!-- Node8&#45;&gt;Node19 -->
<g id="edge26" class="edge">
<title>Node8&#45;&gt;Node19</title>
<path fill="none" stroke="#191970" d="M195.1994,-168.3733C175.7757,-159.3838 146.5776,-145.8706 124.7036,-135.7471"/>
<polygon fill="#191970" stroke="#191970" points="126.0745,-132.5249 115.5292,-131.5011 123.1344,-138.8776 126.0745,-132.5249"/>
</g>
<!-- Node20 -->
<g id="node21" class="node">
<title>Node20</title>
<g id="a_node21"><a xlink:title=" ">
<polygon fill="#ffffff" stroke="#bfbfbf" points="228,-112.5 228,-131.5 288,-131.5 288,-112.5 228,-112.5"/>
<text text-anchor="middle" x="258" y="-119.5" font-family="Helvetica,sans-Serif" font-size="10.00" fill="#000000">iostream</text>
</a>
</g>
</g>
<!-- Node8&#45;&gt;Node20 -->
<g id="edge30" class="edge">
<title>Node8&#45;&gt;Node20</title>
<path fill="none" stroke="#191970" d="M223.3158,-168.2455C229.2179,-160.3761 237.6742,-149.101 244.7594,-139.6542"/>
<polygon fill="#191970" stroke="#191970" points="247.568,-141.7427 250.768,-131.6427 241.9679,-137.5427 247.568,-141.7427"/>
</g>
<!-- Node9&#45;&gt;Node2 -->
<g id="edge20" class="edge">
<title>Node9&#45;&gt;Node2</title>
<path fill="none" stroke="#191970" d="M369.8521,-112.2455C360.4913,-104.0549 346.9142,-92.1749 335.8651,-82.5069"/>
<polygon fill="#191970" stroke="#191970" points="337.8508,-79.5937 328.0202,-75.6427 333.2412,-84.8618 337.8508,-79.5937"/>
</g>
<!-- Node9&#45;&gt;Node3 -->
<g id="edge21" class="edge">
<title>Node9&#45;&gt;Node3</title>
<path fill="none" stroke="#191970" d="M378.2146,-112.2516C373.7462,-98.1698 363.7362,-72.068 347,-56 328.6718,-38.4035 302.3899,-26.6218 281.5111,-19.3903"/>
<polygon fill="#191970" stroke="#191970" points="282.3466,-15.9813 271.754,-16.2004 280.1712,-22.6347 282.3466,-15.9813"/>
</g>
<!-- Node9&#45;&gt;Node5 -->
<g id="edge23" class="edge">
<title>Node9&#45;&gt;Node5</title>
<path fill="none" stroke="#191970" d="M358.3084,-112.3733C336.9289,-103.3032 304.6943,-89.6279 280.7638,-79.4755"/>
<polygon fill="#191970" stroke="#191970" points="281.9683,-76.1846 271.3955,-75.5011 279.2344,-82.6287 281.9683,-76.1846"/>
</g>
<!-- Node10 -->
<g id="node11" class="node">
<title>Node10</title>
<g id="a_node11"><a xlink:href="Array_8hpp.html" target="_top" xlink:title=" ">
<polygon fill="#ffffff" stroke="#000000" points="506,-56.5 506,-75.5 568,-75.5 568,-56.5 506,-56.5"/>
<text text-anchor="middle" x="537" y="-63.5" font-family="Helvetica,sans-Serif" font-size="10.00" fill="#000000">Array.hpp</text>
</a>
</g>
</g>
<!-- Node9&#45;&gt;Node10 -->
<g id="edge12" class="edge">
<title>Node9&#45;&gt;Node10</title>
<path fill="none" stroke="#191970" d="M407.8174,-112.3733C433.5332,-103.1419 472.538,-89.1402 500.9599,-78.9375"/>
<polygon fill="#191970" stroke="#191970" points="502.3032,-82.174 510.5326,-75.5011 499.9381,-75.5857 502.3032,-82.174"/>
</g>
<!-- Node11 -->
<g id="node12" class="node">
<title>Node11</title>
<g id="a_node12"><a xlink:title=" ">
<polygon fill="#ffffff" stroke="#bfbfbf" points="346,-.5 346,-19.5 410,-19.5 410,-.5 346,-.5"/>
<text text-anchor="middle" x="378" y="-7.5" font-family="Helvetica,sans-Serif" font-size="10.00" fill="#000000">algorithm</text>
</a>
</g>
</g>
<!-- Node9&#45;&gt;Node11 -->
<g id="edge19" class="edge">
<title>Node9&#45;&gt;Node11</title>
<path fill="none" stroke="#191970" d="M409.1426,-112.499C437.0656,-101.4014 473.7247,-81.2957 459,-56 450.3087,-41.0692 434.766,-30.5893 419.6036,-23.4455"/>
<polygon fill="#191970" stroke="#191970" points="420.8448,-20.1692 410.2766,-19.4187 418.0701,-26.5958 420.8448,-20.1692"/>
</g>
<!-- Node16 -->
<g id="node17" class="node">
<title>Node16</title>
<g id="a_node17"><a xlink:title=" ">
<polygon fill="#ffffff" stroke="#bfbfbf" points="394,-56.5 394,-75.5 450,-75.5 450,-56.5 394,-56.5"/>
<text text-anchor="middle" x="422" y="-63.5" font-family="Helvetica,sans-Serif" font-size="10.00" fill="#000000">iomanip</text>
</a>
</g>
</g>
<!-- Node9&#45;&gt;Node16 -->
<g id="edge22" class="edge">
<title>Node9&#45;&gt;Node16</title>
<path fill="none" stroke="#191970" d="M388.1417,-112.2455C393.8444,-104.4564 401.99,-93.3308 408.8625,-83.9439"/>
<polygon fill="#191970" stroke="#191970" points="411.8568,-85.7789 414.9402,-75.6427 406.2087,-81.6437 411.8568,-85.7789"/>
</g>
<!-- Node17 -->
<g id="node18" class="node">
<title>Node17</title>
<g id="a_node18"><a xlink:href="real__t_8h.html" target="_top" xlink:title=" ">
<polygon fill="#ffffff" stroke="#000000" points="665.5,-56.5 665.5,-75.5 718.5,-75.5 718.5,-56.5 665.5,-56.5"/>
<text text-anchor="middle" x="692" y="-63.5" font-family="Helvetica,sans-Serif" font-size="10.00" fill="#000000">real_t.h</text>
</a>
</g>
</g>
<!-- Node9&#45;&gt;Node17 -->
<g id="edge24" class="edge">
<title>Node9&#45;&gt;Node17</title>
<path fill="none" stroke="#191970" d="M415.1721,-115.8468C474.2404,-105.2107 594.917,-83.4812 655.5375,-72.5656"/>
<polygon fill="#191970" stroke="#191970" points="656.2104,-76.0008 665.4318,-70.784 654.9698,-69.1116 656.2104,-76.0008"/>
</g>
<!-- Node10&#45;&gt;Node3 -->
<g id="edge14" class="edge">
<title>Node10&#45;&gt;Node3</title>
<path fill="none" stroke="#191970" d="M505.7974,-59.9538C450.9735,-49.3305 337.8393,-27.4083 281.4591,-16.4834"/>
<polygon fill="#191970" stroke="#191970" points="282.1022,-13.043 271.6189,-14.5767 280.7705,-19.9152 282.1022,-13.043"/>
</g>
<!-- Node10&#45;&gt;Node11 -->
<g id="edge13" class="edge">
<title>Node10&#45;&gt;Node11</title>
<path fill="none" stroke="#191970" d="M509.6669,-56.3733C483.4566,-47.1419 443.7016,-33.1402 414.7332,-22.9375"/>
<polygon fill="#191970" stroke="#191970" points="415.5712,-19.5219 404.9764,-19.5011 413.2458,-26.1244 415.5712,-19.5219"/>
</g>
<!-- Node12 -->
<g id="node13" class="node">
<title>Node12</title>
<g id="a_node13"><a xlink:title=" ">
<polygon fill="#ffffff" stroke="#bfbfbf" points="672.5,-.5 672.5,-19.5 725.5,-19.5 725.5,-.5 672.5,-.5"/>
<text text-anchor="middle" x="699" y="-7.5" font-family="Helvetica,sans-Serif" font-size="10.00" fill="#000000">cstddef</text>
</a>
</g>
</g>
<!-- Node10&#45;&gt;Node12 -->
<g id="edge15" class="edge">
<title>Node10&#45;&gt;Node12</title>
<path fill="none" stroke="#191970" d="M564.8488,-56.3733C591.9141,-47.0173 633.1546,-32.7614 662.7628,-22.5264"/>
<polygon fill="#191970" stroke="#191970" points="664.0129,-25.7976 672.3206,-19.2225 661.7259,-19.1817 664.0129,-25.7976"/>
</g>
<!-- Node13 -->
<g id="node14" class="node">
<title>Node13</title>
<g id="a_node14"><a xlink:title=" ">
<polygon fill="#ffffff" stroke="#bfbfbf" points="428,-.5 428,-19.5 484,-19.5 484,-.5 428,-.5"/>
<text text-anchor="middle" x="456" y="-7.5" font-family="Helvetica,sans-Serif" font-size="10.00" fill="#000000">numeric</text>
</a>
</g>
</g>
<!-- Node10&#45;&gt;Node13 -->
<g id="edge16" class="edge">
<title>Node10&#45;&gt;Node13</title>
<path fill="none" stroke="#191970" d="M522.8909,-56.2455C510.5791,-47.7337 492.5042,-35.2375 478.2462,-25.3801"/>
<polygon fill="#191970" stroke="#191970" points="480.1634,-22.4506 469.9474,-19.6427 476.1826,-28.2085 480.1634,-22.4506"/>
</g>
<!-- Node14 -->
<g id="node15" class="node">
<title>Node14</title>
<g id="a_node15"><a xlink:title=" ">
<polygon fill="#ffffff" stroke="#bfbfbf" points="502.5,-.5 502.5,-19.5 571.5,-19.5 571.5,-.5 502.5,-.5"/>
<text text-anchor="middle" x="537" y="-7.5" font-family="Helvetica,sans-Serif" font-size="10.00" fill="#000000">type_traits</text>
</a>
</g>
</g>
<!-- Node10&#45;&gt;Node14 -->
<g id="edge17" class="edge">
<title>Node10&#45;&gt;Node14</title>
<path fill="none" stroke="#191970" d="M537,-56.2455C537,-48.9382 537,-38.6944 537,-29.7046"/>
<polygon fill="#191970" stroke="#191970" points="540.5001,-29.6426 537,-19.6427 533.5001,-29.6427 540.5001,-29.6426"/>
</g>
<!-- Node15 -->
<g id="node16" class="node">
<title>Node15</title>
<g id="a_node16"><a xlink:title=" ">
<polygon fill="#ffffff" stroke="#bfbfbf" points="589.5,-.5 589.5,-19.5 654.5,-19.5 654.5,-.5 589.5,-.5"/>
<text text-anchor="middle" x="622" y="-7.5" font-family="Helvetica,sans-Serif" font-size="10.00" fill="#000000">stdexcept</text>
</a>
</g>
</g>
<!-- Node10&#45;&gt;Node15 -->
<g id="edge18" class="edge">
<title>Node10&#45;&gt;Node15</title>
<path fill="none" stroke="#191970" d="M551.8059,-56.2455C564.7256,-47.7337 583.6931,-35.2375 598.6552,-25.3801"/>
<polygon fill="#191970" stroke="#191970" points="600.9387,-28.067 607.3638,-19.6427 597.0876,-22.2216 600.9387,-28.067"/>
</g>
<!-- Node18 -->
<g id="node19" class="node">
<title>Node18</title>
<g id="a_node19"><a xlink:title=" ">
<polygon fill="#ffffff" stroke="#bfbfbf" points="743.5,-.5 743.5,-19.5 796.5,-19.5 796.5,-.5 743.5,-.5"/>
<text text-anchor="middle" x="770" y="-7.5" font-family="Helvetica,sans-Serif" font-size="10.00" fill="#000000">stdint.h</text>
</a>
</g>
</g>
<!-- Node17&#45;&gt;Node18 -->
<g id="edge25" class="edge">
<title>Node17&#45;&gt;Node18</title>
<path fill="none" stroke="#191970" d="M705.5866,-56.2455C717.3305,-47.814 734.5199,-35.4729 748.1882,-25.6598"/>
<polygon fill="#191970" stroke="#191970" points="750.4871,-28.3179 756.5691,-19.6427 746.4046,-22.6316 750.4871,-28.3179"/>
</g>
<!-- Node19&#45;&gt;Node5 -->
<g id="edge28" class="edge">
<title>Node19&#45;&gt;Node5</title>
<path fill="none" stroke="#191970" d="M121.4735,-112.3733C146.8597,-103.1419 185.3645,-89.1402 213.422,-78.9375"/>
<polygon fill="#191970" stroke="#191970" points="214.6701,-82.2079 222.8719,-75.5011 212.2778,-75.6293 214.6701,-82.2079"/>
</g>
<!-- Node19&#45;&gt;Node6 -->
<g id="edge27" class="edge">
<title>Node19&#45;&gt;Node6</title>
<path fill="none" stroke="#191970" d="M91.3421,-112.2455C88.5416,-104.7776 84.591,-94.2427 81.1676,-85.1137"/>
<polygon fill="#191970" stroke="#191970" points="84.4045,-83.777 77.616,-75.6427 77.8501,-86.2349 84.4045,-83.777"/>
</g>
</g>
</svg>
