<?xml version="1.0" encoding="UTF-8" standalone="no"?>
<!DOCTYPE svg PUBLIC "-//W3C//DTD SVG 1.1//EN"
 "http://www.w3.org/Graphics/SVG/1.1/DTD/svg11.dtd">
<!-- Generated by graphviz version 2.40.1 (20161225.0304)
 -->
<!-- Title: /home/pieter/GitHub/EAGLE&#45;ZYBO&#45;Linux/src/grid&#45;finder/include/HelperStructs.hpp Pages: 1 -->
<svg width="684pt" height="274pt"
 viewBox="0.00 0.00 684.00 274.00" xmlns="http://www.w3.org/2000/svg" xmlns:xlink="http://www.w3.org/1999/xlink">
<g id="graph0" class="graph" transform="scale(1 1) rotate(0) translate(4 270)">
<title>/home/pieter/GitHub/EAGLE&#45;ZYBO&#45;Linux/src/grid&#45;finder/include/HelperStructs.hpp</title>
<polygon fill="#ffffff" stroke="transparent" points="-4,4 -4,-270 680,-270 680,4 -4,4"/>
<!-- Node0 -->
<g id="node1" class="node">
<title>Node0</title>
<g id="a_node1"><a xlink:title=" ">
<polygon fill="#bfbfbf" stroke="#000000" points="135,-224.5 135,-265.5 333,-265.5 333,-224.5 135,-224.5"/>
<text text-anchor="start" x="143" y="-253.5" font-family="Helvetica,sans-Serif" font-size="10.00" fill="#000000">/home/pieter/GitHub</text>
<text text-anchor="start" x="143" y="-242.5" font-family="Helvetica,sans-Serif" font-size="10.00" fill="#000000">/EAGLE&#45;ZYBO&#45;Linux/src</text>
<text text-anchor="middle" x="234" y="-231.5" font-family="Helvetica,sans-Serif" font-size="10.00" fill="#000000">/grid&#45;finder/include/HelperStructs.hpp</text>
</a>
</g>
</g>
<!-- Node1 -->
<g id="node2" class="node">
<title>Node1</title>
<g id="a_node2"><a xlink:href="Angle_8hpp.html" target="_top" xlink:title=" ">
<polygon fill="#ffffff" stroke="#000000" points="110.5,-112.5 110.5,-131.5 175.5,-131.5 175.5,-112.5 110.5,-112.5"/>
<text text-anchor="middle" x="143" y="-119.5" font-family="Helvetica,sans-Serif" font-size="10.00" fill="#000000">Angle.hpp</text>
</a>
</g>
</g>
<!-- Node0&#45;&gt;Node1 -->
<g id="edge1" class="edge">
<title>Node0&#45;&gt;Node1</title>
<path fill="none" stroke="#191970" d="M204.0689,-224.3745C191.5652,-214.5433 177.7177,-201.8961 168,-188 158.1376,-173.8969 151.5718,-155.4022 147.654,-141.58"/>
<polygon fill="#191970" stroke="#191970" points="150.9794,-140.4617 145.0673,-131.6698 144.2063,-142.2296 150.9794,-140.4617"/>
</g>
<!-- Node7 -->
<g id="node8" class="node">
<title>Node7</title>
<g id="a_node8"><a xlink:href="Line_8hpp.html" target="_top" xlink:title=" ">
<polygon fill="#ffffff" stroke="#000000" points="177,-168.5 177,-187.5 235,-187.5 235,-168.5 177,-168.5"/>
<text text-anchor="middle" x="206" y="-175.5" font-family="Helvetica,sans-Serif" font-size="10.00" fill="#000000">Line.hpp</text>
</a>
</g>
</g>
<!-- Node0&#45;&gt;Node7 -->
<g id="edge7" class="edge">
<title>Node0&#45;&gt;Node7</title>
<path fill="none" stroke="#191970" d="M225.2941,-224.168C221.6876,-215.5381 217.5313,-205.5928 214.0021,-197.1479"/>
<polygon fill="#191970" stroke="#191970" points="217.1727,-195.6576 210.0874,-187.7805 210.714,-198.3568 217.1727,-195.6576"/>
</g>
<!-- Node16 -->
<g id="node17" class="node">
<title>Node16</title>
<g id="a_node17"><a xlink:href="Pixel_8hpp.html" target="_top" xlink:title=" ">
<polygon fill="#ffffff" stroke="#000000" points="232,-112.5 232,-131.5 294,-131.5 294,-112.5 232,-112.5"/>
<text text-anchor="middle" x="263" y="-119.5" font-family="Helvetica,sans-Serif" font-size="10.00" fill="#000000">Pixel.hpp</text>
</a>
</g>
</g>
<!-- Node0&#45;&gt;Node16 -->
<g id="edge26" class="edge">
<title>Node0&#45;&gt;Node16</title>
<path fill="none" stroke="#191970" d="M238.8539,-224.4126C244.3135,-201.2565 253.1121,-163.9384 258.4457,-141.3165"/>
<polygon fill="#191970" stroke="#191970" points="261.8676,-142.0545 260.7559,-131.5182 255.0544,-140.4481 261.8676,-142.0545"/>
</g>
<!-- Node18 -->
<g id="node19" class="node">
<title>Node18</title>
<g id="a_node19"><a xlink:title=" ">
<polygon fill="#ffffff" stroke="#bfbfbf" points="291,-168.5 291,-187.5 347,-187.5 347,-168.5 291,-168.5"/>
<text text-anchor="middle" x="319" y="-175.5" font-family="Helvetica,sans-Serif" font-size="10.00" fill="#000000">optional</text>
</a>
</g>
</g>
<!-- Node0&#45;&gt;Node18 -->
<g id="edge27" class="edge">
<title>Node0&#45;&gt;Node18</title>
<path fill="none" stroke="#191970" d="M260.4286,-224.168C272.7005,-214.4949 287.069,-203.1692 298.5033,-194.1562"/>
<polygon fill="#191970" stroke="#191970" points="300.905,-196.7197 306.5919,-187.7805 296.5717,-191.2222 300.905,-196.7197"/>
</g>
<!-- Node2 -->
<g id="node3" class="node">
<title>Node2</title>
<g id="a_node3"><a xlink:title=" ">
<polygon fill="#ffffff" stroke="#bfbfbf" points="0,-56.5 0,-75.5 42,-75.5 42,-56.5 0,-56.5"/>
<text text-anchor="middle" x="21" y="-63.5" font-family="Helvetica,sans-Serif" font-size="10.00" fill="#000000">array</text>
</a>
</g>
</g>
<!-- Node1&#45;&gt;Node2 -->
<g id="edge2" class="edge">
<title>Node1&#45;&gt;Node2</title>
<path fill="none" stroke="#191970" d="M122.0275,-112.3733C102.4433,-103.3838 73.0039,-89.8706 50.949,-79.7471"/>
<polygon fill="#191970" stroke="#191970" points="52.2473,-76.4919 41.6989,-75.5011 49.3271,-82.8538 52.2473,-76.4919"/>
</g>
<!-- Node3 -->
<g id="node4" class="node">
<title>Node3</title>
<g id="a_node4"><a xlink:title=" ">
<polygon fill="#ffffff" stroke="#bfbfbf" points="242.5,-.5 242.5,-19.5 289.5,-19.5 289.5,-.5 242.5,-.5"/>
<text text-anchor="middle" x="266" y="-7.5" font-family="Helvetica,sans-Serif" font-size="10.00" fill="#000000">cmath</text>
</a>
</g>
</g>
<!-- Node1&#45;&gt;Node3 -->
<g id="edge3" class="edge">
<title>Node1&#45;&gt;Node3</title>
<path fill="none" stroke="#191970" d="M125.0775,-112.2956C103.8511,-99.545 73.2411,-76.3779 89,-56 106.3436,-33.5729 185.6284,-20.0501 231.992,-13.9226"/>
<polygon fill="#191970" stroke="#191970" points="232.7047,-17.3602 242.1823,-12.6246 231.8202,-10.4163 232.7047,-17.3602"/>
</g>
<!-- Node4 -->
<g id="node5" class="node">
<title>Node4</title>
<g id="a_node5"><a xlink:title=" ">
<polygon fill="#ffffff" stroke="#bfbfbf" points="98,-56.5 98,-75.5 142,-75.5 142,-56.5 98,-56.5"/>
<text text-anchor="middle" x="120" y="-63.5" font-family="Helvetica,sans-Serif" font-size="10.00" fill="#000000">limits</text>
</a>
</g>
</g>
<!-- Node1&#45;&gt;Node4 -->
<g id="edge4" class="edge">
<title>Node1&#45;&gt;Node4</title>
<path fill="none" stroke="#191970" d="M138.9937,-112.2455C135.9265,-104.7776 131.5997,-94.2427 127.8503,-85.1137"/>
<polygon fill="#191970" stroke="#191970" points="130.9972,-83.5631 123.9604,-75.6427 124.5221,-86.2226 130.9972,-83.5631"/>
</g>
<!-- Node5 -->
<g id="node6" class="node">
<title>Node5</title>
<g id="a_node6"><a xlink:title=" ">
<polygon fill="#ffffff" stroke="#bfbfbf" points="234.5,-56.5 234.5,-75.5 291.5,-75.5 291.5,-56.5 234.5,-56.5"/>
<text text-anchor="middle" x="263" y="-63.5" font-family="Helvetica,sans-Serif" font-size="10.00" fill="#000000">ostream</text>
</a>
</g>
</g>
<!-- Node1&#45;&gt;Node5 -->
<g id="edge5" class="edge">
<title>Node1&#45;&gt;Node5</title>
<path fill="none" stroke="#191970" d="M163.6287,-112.3733C182.8919,-103.3838 211.8486,-89.8706 233.5419,-79.7471"/>
<polygon fill="#191970" stroke="#191970" points="235.0587,-82.9017 242.6405,-75.5011 232.0985,-76.5584 235.0587,-82.9017"/>
</g>
<!-- Node6 -->
<g id="node7" class="node">
<title>Node6</title>
<g id="a_node7"><a xlink:href="uint_8hpp.html" target="_top" xlink:title=" ">
<polygon fill="#ffffff" stroke="#000000" points="160,-56.5 160,-75.5 216,-75.5 216,-56.5 160,-56.5"/>
<text text-anchor="middle" x="188" y="-63.5" font-family="Helvetica,sans-Serif" font-size="10.00" fill="#000000">uint.hpp</text>
</a>
</g>
</g>
<!-- Node1&#45;&gt;Node6 -->
<g id="edge6" class="edge">
<title>Node1&#45;&gt;Node6</title>
<path fill="none" stroke="#191970" d="M150.8384,-112.2455C157.162,-104.3761 166.2224,-93.101 173.8136,-83.6542"/>
<polygon fill="#191970" stroke="#191970" points="176.7158,-85.6302 180.2514,-75.6427 171.2592,-81.2454 176.7158,-85.6302"/>
</g>
<!-- Node7&#45;&gt;Node1 -->
<g id="edge8" class="edge">
<title>Node7&#45;&gt;Node1</title>
<path fill="none" stroke="#191970" d="M195.0262,-168.2455C185.8118,-160.0549 172.4468,-148.1749 161.5703,-138.5069"/>
<polygon fill="#191970" stroke="#191970" points="163.6474,-135.6704 153.848,-131.6427 158.9968,-140.9023 163.6474,-135.6704"/>
</g>
<!-- Node7&#45;&gt;Node5 -->
<g id="edge24" class="edge">
<title>Node7&#45;&gt;Node5</title>
<path fill="none" stroke="#191970" d="M207.1043,-168.0929C208.9093,-154.7164 213.3112,-130.4337 223,-112 228.6132,-101.3205 237.1592,-91.0305 244.913,-82.9008"/>
<polygon fill="#191970" stroke="#191970" points="247.6634,-85.1005 252.2647,-75.5569 242.7163,-80.1481 247.6634,-85.1005"/>
</g>
<!-- Node8 -->
<g id="node9" class="node">
<title>Node8</title>
<g id="a_node9"><a xlink:href="Matrix_8hpp.html" target="_top" xlink:title=" ">
<polygon fill="#ffffff" stroke="#000000" points="312,-112.5 312,-131.5 380,-131.5 380,-112.5 312,-112.5"/>
<text text-anchor="middle" x="346" y="-119.5" font-family="Helvetica,sans-Serif" font-size="10.00" fill="#000000">Matrix.hpp</text>
</a>
</g>
</g>
<!-- Node7&#45;&gt;Node8 -->
<g id="edge9" class="edge">
<title>Node7&#45;&gt;Node8</title>
<path fill="none" stroke="#191970" d="M230.0669,-168.3733C252.8428,-159.2629 287.2344,-145.5062 312.649,-135.3404"/>
<polygon fill="#191970" stroke="#191970" points="314.2623,-138.4648 322.2472,-131.5011 311.6625,-131.9654 314.2623,-138.4648"/>
</g>
<!-- Node7&#45;&gt;Node16 -->
<g id="edge21" class="edge">
<title>Node7&#45;&gt;Node16</title>
<path fill="none" stroke="#191970" d="M215.9286,-168.2455C224.1838,-160.1352 236.1209,-148.4075 245.9082,-138.7919"/>
<polygon fill="#191970" stroke="#191970" points="248.5046,-141.1476 253.1851,-131.6427 243.5989,-136.1542 248.5046,-141.1476"/>
</g>
<!-- Node17 -->
<g id="node18" class="node">
<title>Node17</title>
<g id="a_node18"><a xlink:title=" ">
<polygon fill="#ffffff" stroke="#bfbfbf" points="398,-112.5 398,-131.5 458,-131.5 458,-112.5 398,-112.5"/>
<text text-anchor="middle" x="428" y="-119.5" font-family="Helvetica,sans-Serif" font-size="10.00" fill="#000000">iostream</text>
</a>
</g>
</g>
<!-- Node7&#45;&gt;Node17 -->
<g id="edge25" class="edge">
<title>Node7&#45;&gt;Node17</title>
<path fill="none" stroke="#191970" d="M235.1696,-170.713C269.388,-162.1549 328.0923,-147.4421 387.794,-132.2985"/>
<polygon fill="#191970" stroke="#191970" points="388.9384,-135.6191 397.77,-129.7663 387.2162,-128.8342 388.9384,-135.6191"/>
</g>
<!-- Node8&#45;&gt;Node3 -->
<g id="edge18" class="edge">
<title>Node8&#45;&gt;Node3</title>
<path fill="none" stroke="#191970" d="M339.2268,-112.0999C330.3297,-99.1378 314.1718,-75.7423 300,-56 293.295,-46.6594 285.7003,-36.3585 279.3921,-27.8766"/>
<polygon fill="#191970" stroke="#191970" points="282.1607,-25.7344 273.3753,-19.8125 276.5502,-29.9204 282.1607,-25.7344"/>
</g>
<!-- Node8&#45;&gt;Node5 -->
<g id="edge20" class="edge">
<title>Node8&#45;&gt;Node5</title>
<path fill="none" stroke="#191970" d="M331.5425,-112.2455C318.9268,-103.7337 300.4056,-91.2375 285.7955,-81.3801"/>
<polygon fill="#191970" stroke="#191970" points="287.5391,-78.3343 277.2918,-75.6427 283.6239,-84.1371 287.5391,-78.3343"/>
</g>
<!-- Node9 -->
<g id="node10" class="node">
<title>Node9</title>
<g id="a_node10"><a xlink:href="Array_8hpp.html" target="_top" xlink:title=" ">
<polygon fill="#ffffff" stroke="#000000" points="386,-56.5 386,-75.5 448,-75.5 448,-56.5 386,-56.5"/>
<text text-anchor="middle" x="417" y="-63.5" font-family="Helvetica,sans-Serif" font-size="10.00" fill="#000000">Array.hpp</text>
</a>
</g>
</g>
<!-- Node8&#45;&gt;Node9 -->
<g id="edge10" class="edge">
<title>Node8&#45;&gt;Node9</title>
<path fill="none" stroke="#191970" d="M358.3673,-112.2455C368.9554,-103.8943 384.4064,-91.7076 396.7893,-81.9408"/>
<polygon fill="#191970" stroke="#191970" points="399.0903,-84.5837 404.7745,-75.6427 394.7553,-79.0875 399.0903,-84.5837"/>
</g>
<!-- Node10 -->
<g id="node11" class="node">
<title>Node10</title>
<g id="a_node11"><a xlink:title=" ">
<polygon fill="#ffffff" stroke="#bfbfbf" points="308,-.5 308,-19.5 372,-19.5 372,-.5 308,-.5"/>
<text text-anchor="middle" x="340" y="-7.5" font-family="Helvetica,sans-Serif" font-size="10.00" fill="#000000">algorithm</text>
</a>
</g>
</g>
<!-- Node8&#45;&gt;Node10 -->
<g id="edge17" class="edge">
<title>Node8&#45;&gt;Node10</title>
<path fill="none" stroke="#191970" d="M345.4884,-112.4509C344.5099,-94.184 342.3547,-53.9553 341.0552,-29.6976"/>
<polygon fill="#191970" stroke="#191970" points="344.5403,-29.3233 340.5103,-19.5249 337.5503,-29.6978 344.5403,-29.3233"/>
</g>
<!-- Node15 -->
<g id="node16" class="node">
<title>Node15</title>
<g id="a_node16"><a xlink:title=" ">
<polygon fill="#ffffff" stroke="#bfbfbf" points="466,-56.5 466,-75.5 522,-75.5 522,-56.5 466,-56.5"/>
<text text-anchor="middle" x="494" y="-63.5" font-family="Helvetica,sans-Serif" font-size="10.00" fill="#000000">iomanip</text>
</a>
</g>
</g>
<!-- Node8&#45;&gt;Node15 -->
<g id="edge19" class="edge">
<title>Node8&#45;&gt;Node15</title>
<path fill="none" stroke="#191970" d="M371.4421,-112.3733C395.7326,-103.1822 432.5208,-89.2624 459.4543,-79.0713"/>
<polygon fill="#191970" stroke="#191970" points="460.7757,-82.3136 468.8899,-75.5011 458.2984,-75.7666 460.7757,-82.3136"/>
</g>
<!-- Node9&#45;&gt;Node3 -->
<g id="edge12" class="edge">
<title>Node9&#45;&gt;Node3</title>
<path fill="none" stroke="#191970" d="M391.0422,-56.3733C365.6585,-46.9594 326.8981,-32.5847 299.2655,-22.3369"/>
<polygon fill="#191970" stroke="#191970" points="300.227,-18.9606 289.6339,-18.7649 297.7929,-25.5238 300.227,-18.9606"/>
</g>
<!-- Node9&#45;&gt;Node10 -->
<g id="edge11" class="edge">
<title>Node9&#45;&gt;Node10</title>
<path fill="none" stroke="#191970" d="M403.5876,-56.2455C391.9943,-47.814 375.0252,-35.4729 361.5322,-25.6598"/>
<polygon fill="#191970" stroke="#191970" points="363.4047,-22.6938 353.2587,-19.6427 359.2874,-28.355 363.4047,-22.6938"/>
</g>
<!-- Node11 -->
<g id="node12" class="node">
<title>Node11</title>
<g id="a_node12"><a xlink:title=" ">
<polygon fill="#ffffff" stroke="#bfbfbf" points="390.5,-.5 390.5,-19.5 443.5,-19.5 443.5,-.5 390.5,-.5"/>
<text text-anchor="middle" x="417" y="-7.5" font-family="Helvetica,sans-Serif" font-size="10.00" fill="#000000">cstddef</text>
</a>
</g>
</g>
<!-- Node9&#45;&gt;Node11 -->
<g id="edge13" class="edge">
<title>Node9&#45;&gt;Node11</title>
<path fill="none" stroke="#191970" d="M417,-56.2455C417,-48.9382 417,-38.6944 417,-29.7046"/>
<polygon fill="#191970" stroke="#191970" points="420.5001,-29.6426 417,-19.6427 413.5001,-29.6427 420.5001,-29.6426"/>
</g>
<!-- Node12 -->
<g id="node13" class="node">
<title>Node12</title>
<g id="a_node13"><a xlink:title=" ">
<polygon fill="#ffffff" stroke="#bfbfbf" points="462,-.5 462,-19.5 518,-19.5 518,-.5 462,-.5"/>
<text text-anchor="middle" x="490" y="-7.5" font-family="Helvetica,sans-Serif" font-size="10.00" fill="#000000">numeric</text>
</a>
</g>
</g>
<!-- Node9&#45;&gt;Node12 -->
<g id="edge14" class="edge">
<title>Node9&#45;&gt;Node12</title>
<path fill="none" stroke="#191970" d="M429.7156,-56.2455C440.602,-47.8943 456.4883,-35.7076 469.22,-25.9408"/>
<polygon fill="#191970" stroke="#191970" points="471.6261,-28.5063 477.4301,-19.6427 467.3654,-22.9523 471.6261,-28.5063"/>
</g>
<!-- Node13 -->
<g id="node14" class="node">
<title>Node13</title>
<g id="a_node14"><a xlink:title=" ">
<polygon fill="#ffffff" stroke="#bfbfbf" points="536.5,-.5 536.5,-19.5 605.5,-19.5 605.5,-.5 536.5,-.5"/>
<text text-anchor="middle" x="571" y="-7.5" font-family="Helvetica,sans-Serif" font-size="10.00" fill="#000000">type_traits</text>
</a>
</g>
</g>
<!-- Node9&#45;&gt;Node13 -->
<g id="edge15" class="edge">
<title>Node9&#45;&gt;Node13</title>
<path fill="none" stroke="#191970" d="M443.4735,-56.3733C468.8597,-47.1419 507.3645,-33.1402 535.422,-22.9375"/>
<polygon fill="#191970" stroke="#191970" points="536.6701,-26.2079 544.8719,-19.5011 534.2778,-19.6293 536.6701,-26.2079"/>
</g>
<!-- Node14 -->
<g id="node15" class="node">
<title>Node14</title>
<g id="a_node15"><a xlink:title=" ">
<polygon fill="#ffffff" stroke="#bfbfbf" points="624,-.5 624,-19.5 676,-19.5 676,-.5 624,-.5"/>
<text text-anchor="middle" x="650" y="-7.5" font-family="Helvetica,sans-Serif" font-size="10.00" fill="#000000">cassert</text>
</a>
</g>
</g>
<!-- Node9&#45;&gt;Node14 -->
<g id="edge16" class="edge">
<title>Node9&#45;&gt;Node14</title>
<path fill="none" stroke="#191970" d="M448.4277,-58.077C451.3239,-57.3668 454.2151,-56.6653 457,-56 524.0407,-39.9842 543.5791,-38.0453 613.883,-20.1925"/>
<polygon fill="#191970" stroke="#191970" points="614.848,-23.5585 623.6684,-17.6889 613.1129,-16.7769 614.848,-23.5585"/>
</g>
<!-- Node16&#45;&gt;Node5 -->
<g id="edge23" class="edge">
<title>Node16&#45;&gt;Node5</title>
<path fill="none" stroke="#191970" d="M263,-112.2455C263,-104.9382 263,-94.6944 263,-85.7046"/>
<polygon fill="#191970" stroke="#191970" points="266.5001,-85.6426 263,-75.6427 259.5001,-85.6427 266.5001,-85.6426"/>
</g>
<!-- Node16&#45;&gt;Node6 -->
<g id="edge22" class="edge">
<title>Node16&#45;&gt;Node6</title>
<path fill="none" stroke="#191970" d="M249.936,-112.2455C238.6438,-103.814 222.1155,-91.4729 208.9729,-81.6598"/>
<polygon fill="#191970" stroke="#191970" points="211.0211,-78.8211 200.9143,-75.6427 206.8331,-84.4301 211.0211,-78.8211"/>
</g>
</g>
</svg>
