<?xml version="1.0" encoding="UTF-8" standalone="no"?>
<!DOCTYPE svg PUBLIC "-//W3C//DTD SVG 1.1//EN"
 "http://www.w3.org/Graphics/SVG/1.1/DTD/svg11.dtd">
<!-- Generated by graphviz version 2.40.1 (20161225.0304)
 -->
<!-- Title: householderQR Pages: 1 -->
<svg width="288pt" height="123pt"
 viewBox="0.00 0.00 288.00 123.00" xmlns="http://www.w3.org/2000/svg" xmlns:xlink="http://www.w3.org/1999/xlink">
<g id="graph0" class="graph" transform="scale(1 1) rotate(0) translate(4 119)">
<title>householderQR</title>
<polygon fill="#ffffff" stroke="transparent" points="-4,4 -4,-119 284,-119 284,4 -4,4"/>
<!-- Node0 -->
<g id="node1" class="node">
<title>Node0</title>
<g id="a_node1"><a xlink:title=" ">
<polygon fill="#bfbfbf" stroke="#000000" points="0,-57.5 0,-76.5 91,-76.5 91,-57.5 0,-57.5"/>
<text text-anchor="middle" x="45.5" y="-64.5" font-family="Helvetica,sans-Serif" font-size="10.00" fill="#000000">householderQR</text>
</a>
</g>
</g>
<!-- Node1 -->
<g id="node2" class="node">
<title>Node1</title>
<g id="a_node2"><a xlink:href="Matrix_8hpp.html#af6752e536d7af62cde48d70f45309a2c" target="_top" xlink:title=" ">
<polygon fill="#ffffff" stroke="#000000" points="127,-95.5 127,-114.5 169,-114.5 169,-95.5 127,-95.5"/>
<text text-anchor="middle" x="148" y="-102.5" font-family="Helvetica,sans-Serif" font-size="10.00" fill="#000000">norm</text>
</a>
</g>
</g>
<!-- Node0&#45;&gt;Node1 -->
<g id="edge1" class="edge">
<title>Node0&#45;&gt;Node1</title>
<path fill="none" stroke="#191970" d="M71.3651,-76.589C85.3391,-81.7696 102.6817,-88.1991 117.3329,-93.6307"/>
<polygon fill="#191970" stroke="#191970" points="116.3785,-97.0096 126.9715,-97.2041 118.8118,-90.4462 116.3785,-97.0096"/>
</g>
<!-- Node3 -->
<g id="node4" class="node">
<title>Node3</title>
<g id="a_node4"><a xlink:href="HouseholderQR_8hpp.html#ae91f1ecebb987562f092671e0cb75c40" target="_top" xlink:title=" ">
<polygon fill="#ffffff" stroke="#000000" points="129.5,-57.5 129.5,-76.5 166.5,-76.5 166.5,-57.5 129.5,-57.5"/>
<text text-anchor="middle" x="148" y="-64.5" font-family="Helvetica,sans-Serif" font-size="10.00" fill="#000000">sign</text>
</a>
</g>
</g>
<!-- Node0&#45;&gt;Node3 -->
<g id="edge3" class="edge">
<title>Node0&#45;&gt;Node3</title>
<path fill="none" stroke="#191970" d="M91.0549,-67C100.6339,-67 110.4816,-67 119.2371,-67"/>
<polygon fill="#191970" stroke="#191970" points="119.2838,-70.5001 129.2837,-67 119.2837,-63.5001 119.2838,-70.5001"/>
</g>
<!-- Node4 -->
<g id="node5" class="node">
<title>Node4</title>
<g id="a_node5"><a xlink:href="Array_8hpp.html#a8210ee35a21cf8114e4f40920a6e0abf" target="_top" xlink:title=" ">
<polygon fill="#ffffff" stroke="#000000" points="129,-19.5 129,-38.5 167,-38.5 167,-19.5 129,-19.5"/>
<text text-anchor="middle" x="148" y="-26.5" font-family="Helvetica,sans-Serif" font-size="10.00" fill="#000000">sum</text>
</a>
</g>
</g>
<!-- Node0&#45;&gt;Node4 -->
<g id="edge4" class="edge">
<title>Node0&#45;&gt;Node4</title>
<path fill="none" stroke="#191970" d="M71.3651,-57.411C85.9173,-52.016 104.1227,-45.2667 119.1374,-39.7003"/>
<polygon fill="#191970" stroke="#191970" points="120.7786,-42.8247 128.9383,-36.0668 118.3452,-36.2612 120.7786,-42.8247"/>
</g>
<!-- Node2 -->
<g id="node3" class="node">
<title>Node2</title>
<g id="a_node3"><a xlink:href="Matrix_8hpp.html#a49ccaf0f0f1746a2824dc79538165c9c" target="_top" xlink:title=" ">
<polygon fill="#ffffff" stroke="#000000" points="216,-95.5 216,-114.5 269,-114.5 269,-95.5 216,-95.5"/>
<text text-anchor="middle" x="242.5" y="-102.5" font-family="Helvetica,sans-Serif" font-size="10.00" fill="#000000">normsq</text>
</a>
</g>
</g>
<!-- Node1&#45;&gt;Node2 -->
<g id="edge2" class="edge">
<title>Node1&#45;&gt;Node2</title>
<path fill="none" stroke="#191970" d="M169.4435,-105C180.1645,-105 193.4425,-105 205.7259,-105"/>
<polygon fill="#191970" stroke="#191970" points="205.7321,-108.5001 215.732,-105 205.732,-101.5001 205.7321,-108.5001"/>
</g>
<!-- Node5 -->
<g id="node6" class="node">
<title>Node5</title>
<g id="a_node6"><a xlink:href="structArray.html#a9e1b59b422182878c7909c6ca7bfa430" target="_top" xlink:title=" ">
<polygon fill="#ffffff" stroke="#000000" points="205,-38.5 205,-57.5 280,-57.5 280,-38.5 205,-38.5"/>
<text text-anchor="middle" x="242.5" y="-45.5" font-family="Helvetica,sans-Serif" font-size="10.00" fill="#000000">Array::begin</text>
</a>
</g>
</g>
<!-- Node4&#45;&gt;Node5 -->
<g id="edge5" class="edge">
<title>Node4&#45;&gt;Node5</title>
<path fill="none" stroke="#191970" d="M167.1235,-32.8449C175.129,-34.4545 184.8282,-36.4046 194.5661,-38.3625"/>
<polygon fill="#191970" stroke="#191970" points="194.165,-41.8518 204.6587,-40.3917 195.5448,-34.9892 194.165,-41.8518"/>
</g>
<!-- Node6 -->
<g id="node7" class="node">
<title>Node6</title>
<g id="a_node7"><a xlink:href="structArray.html#ab2762fef4f8caa072636dde951d90702" target="_top" xlink:title=" ">
<polygon fill="#ffffff" stroke="#000000" points="209.5,-.5 209.5,-19.5 275.5,-19.5 275.5,-.5 209.5,-.5"/>
<text text-anchor="middle" x="242.5" y="-7.5" font-family="Helvetica,sans-Serif" font-size="10.00" fill="#000000">Array::end</text>
</a>
</g>
</g>
<!-- Node4&#45;&gt;Node6 -->
<g id="edge6" class="edge">
<title>Node4&#45;&gt;Node6</title>
<path fill="none" stroke="#191970" d="M167.1235,-25.1551C176.4672,-23.2764 188.1181,-20.9339 199.445,-18.6566"/>
<polygon fill="#191970" stroke="#191970" points="200.1354,-22.0879 209.2493,-16.6853 198.7556,-15.2252 200.1354,-22.0879"/>
</g>
</g>
</svg>
