<?xml version="1.0" encoding="UTF-8" standalone="no"?>
<!DOCTYPE svg PUBLIC "-//W3C//DTD SVG 1.1//EN"
 "http://www.w3.org/Graphics/SVG/1.1/DTD/svg11.dtd">
<!-- Generated by graphviz version 2.40.1 (20161225.0304)
 -->
<!-- Title: /home/pieter/GitHub/EAGLE&#45;ZYBO&#45;Linux/src/matrix/include/HouseholderQR.hpp Pages: 1 -->
<svg width="525pt" height="218pt"
 viewBox="0.00 0.00 525.00 218.00" xmlns="http://www.w3.org/2000/svg" xmlns:xlink="http://www.w3.org/1999/xlink">
<g id="graph0" class="graph" transform="scale(1 1) rotate(0) translate(4 214)">
<title>/home/pieter/GitHub/EAGLE&#45;ZYBO&#45;Linux/src/matrix/include/HouseholderQR.hpp</title>
<polygon fill="#ffffff" stroke="transparent" points="-4,4 -4,-214 521,-214 521,4 -4,4"/>
<!-- Node0 -->
<g id="node1" class="node">
<title>Node0</title>
<g id="a_node1"><a xlink:title=" ">
<polygon fill="#bfbfbf" stroke="#000000" points="51.5,-168.5 51.5,-209.5 241.5,-209.5 241.5,-168.5 51.5,-168.5"/>
<text text-anchor="start" x="59.5" y="-197.5" font-family="Helvetica,sans-Serif" font-size="10.00" fill="#000000">/home/pieter/GitHub</text>
<text text-anchor="start" x="59.5" y="-186.5" font-family="Helvetica,sans-Serif" font-size="10.00" fill="#000000">/EAGLE&#45;ZYBO&#45;Linux/src</text>
<text text-anchor="middle" x="146.5" y="-175.5" font-family="Helvetica,sans-Serif" font-size="10.00" fill="#000000">/matrix/include/HouseholderQR.hpp</text>
</a>
</g>
</g>
<!-- Node1 -->
<g id="node2" class="node">
<title>Node1</title>
<g id="a_node2"><a xlink:href="Matrix_8hpp.html" target="_top" xlink:title=" ">
<polygon fill="#ffffff" stroke="#000000" points="258.5,-112.5 258.5,-131.5 326.5,-131.5 326.5,-112.5 258.5,-112.5"/>
<text text-anchor="middle" x="292.5" y="-119.5" font-family="Helvetica,sans-Serif" font-size="10.00" fill="#000000">Matrix.hpp</text>
</a>
</g>
</g>
<!-- Node0&#45;&gt;Node1 -->
<g id="edge1" class="edge">
<title>Node0&#45;&gt;Node1</title>
<path fill="none" stroke="#191970" d="M191.4961,-168.3511C214.4973,-157.7958 241.8703,-145.2342 262.3145,-135.8523"/>
<polygon fill="#191970" stroke="#191970" points="263.8327,-139.0066 271.4615,-131.6546 260.913,-132.6445 263.8327,-139.0066"/>
</g>
<!-- Node7 -->
<g id="node8" class="node">
<title>Node7</title>
<g id="a_node8"><a xlink:title=" ">
<polygon fill="#ffffff" stroke="#bfbfbf" points="0,-.5 0,-19.5 69,-19.5 69,-.5 0,-.5"/>
<text text-anchor="middle" x="34.5" y="-7.5" font-family="Helvetica,sans-Serif" font-size="10.00" fill="#000000">type_traits</text>
</a>
</g>
</g>
<!-- Node0&#45;&gt;Node7 -->
<g id="edge16" class="edge">
<title>Node0&#45;&gt;Node7</title>
<path fill="none" stroke="#191970" d="M133.6522,-168.4664C111.6877,-133.3626 67.2507,-62.3427 46.1414,-28.6054"/>
<polygon fill="#191970" stroke="#191970" points="48.8875,-26.3957 40.6161,-19.7749 42.9533,-30.1087 48.8875,-26.3957"/>
</g>
<!-- Node2 -->
<g id="node3" class="node">
<title>Node2</title>
<g id="a_node3"><a xlink:href="Array_8hpp.html" target="_top" xlink:title=" ">
<polygon fill="#ffffff" stroke="#000000" points="87.5,-56.5 87.5,-75.5 149.5,-75.5 149.5,-56.5 87.5,-56.5"/>
<text text-anchor="middle" x="118.5" y="-63.5" font-family="Helvetica,sans-Serif" font-size="10.00" fill="#000000">Array.hpp</text>
</a>
</g>
</g>
<!-- Node1&#45;&gt;Node2 -->
<g id="edge2" class="edge">
<title>Node1&#45;&gt;Node2</title>
<path fill="none" stroke="#191970" d="M262.5883,-112.3733C233.6548,-103.0613 189.6389,-88.8953 157.8707,-78.671"/>
<polygon fill="#191970" stroke="#191970" points="158.6128,-75.2331 148.0213,-75.5011 156.4682,-81.8965 158.6128,-75.2331"/>
</g>
<!-- Node3 -->
<g id="node4" class="node">
<title>Node3</title>
<g id="a_node4"><a xlink:title=" ">
<polygon fill="#ffffff" stroke="#bfbfbf" points="316.5,-.5 316.5,-19.5 380.5,-19.5 380.5,-.5 316.5,-.5"/>
<text text-anchor="middle" x="348.5" y="-7.5" font-family="Helvetica,sans-Serif" font-size="10.00" fill="#000000">algorithm</text>
</a>
</g>
</g>
<!-- Node1&#45;&gt;Node3 -->
<g id="edge9" class="edge">
<title>Node1&#45;&gt;Node3</title>
<path fill="none" stroke="#191970" d="M322.0685,-112.3976C338.9108,-105.2338 358.5794,-93.6009 368.5,-76 376.9068,-61.0849 369.6811,-42.239 361.6642,-28.5076"/>
<polygon fill="#191970" stroke="#191970" points="364.5108,-26.4627 356.17,-19.9296 358.6162,-30.2381 364.5108,-26.4627"/>
</g>
<!-- Node4 -->
<g id="node5" class="node">
<title>Node4</title>
<g id="a_node5"><a xlink:title=" ">
<polygon fill="#ffffff" stroke="#bfbfbf" points="399,-.5 399,-19.5 446,-19.5 446,-.5 399,-.5"/>
<text text-anchor="middle" x="422.5" y="-7.5" font-family="Helvetica,sans-Serif" font-size="10.00" fill="#000000">cmath</text>
</a>
</g>
</g>
<!-- Node1&#45;&gt;Node4 -->
<g id="edge11" class="edge">
<title>Node1&#45;&gt;Node4</title>
<path fill="none" stroke="#191970" d="M320.8942,-112.4967C340.2542,-104.9348 365.5389,-92.8187 383.5,-76 397.5716,-62.8235 408.2047,-43.4292 414.7857,-29.0712"/>
<polygon fill="#191970" stroke="#191970" points="418.0956,-30.2351 418.8527,-19.6674 411.6707,-27.4564 418.0956,-30.2351"/>
</g>
<!-- Node9 -->
<g id="node10" class="node">
<title>Node9</title>
<g id="a_node10"><a xlink:title=" ">
<polygon fill="#ffffff" stroke="#bfbfbf" points="167.5,-56.5 167.5,-75.5 209.5,-75.5 209.5,-56.5 167.5,-56.5"/>
<text text-anchor="middle" x="188.5" y="-63.5" font-family="Helvetica,sans-Serif" font-size="10.00" fill="#000000">array</text>
</a>
</g>
</g>
<!-- Node1&#45;&gt;Node9 -->
<g id="edge10" class="edge">
<title>Node1&#45;&gt;Node9</title>
<path fill="none" stroke="#191970" d="M274.3846,-112.2455C258.055,-103.4527 233.829,-90.4079 215.2661,-80.4125"/>
<polygon fill="#191970" stroke="#191970" points="216.8719,-77.3021 206.4078,-75.6427 213.5532,-83.4654 216.8719,-77.3021"/>
</g>
<!-- Node10 -->
<g id="node11" class="node">
<title>Node10</title>
<g id="a_node11"><a xlink:title=" ">
<polygon fill="#ffffff" stroke="#bfbfbf" points="227.5,-56.5 227.5,-75.5 283.5,-75.5 283.5,-56.5 227.5,-56.5"/>
<text text-anchor="middle" x="255.5" y="-63.5" font-family="Helvetica,sans-Serif" font-size="10.00" fill="#000000">iomanip</text>
</a>
</g>
</g>
<!-- Node1&#45;&gt;Node10 -->
<g id="edge12" class="edge">
<title>Node1&#45;&gt;Node10</title>
<path fill="none" stroke="#191970" d="M286.0551,-112.2455C280.9618,-104.5367 273.7092,-93.5598 267.548,-84.2348"/>
<polygon fill="#191970" stroke="#191970" points="270.3038,-82.0566 261.8711,-75.6427 264.4635,-85.9155 270.3038,-82.0566"/>
</g>
<!-- Node11 -->
<g id="node12" class="node">
<title>Node11</title>
<g id="a_node12"><a xlink:title=" ">
<polygon fill="#ffffff" stroke="#bfbfbf" points="302,-56.5 302,-75.5 359,-75.5 359,-56.5 302,-56.5"/>
<text text-anchor="middle" x="330.5" y="-63.5" font-family="Helvetica,sans-Serif" font-size="10.00" fill="#000000">ostream</text>
</a>
</g>
</g>
<!-- Node1&#45;&gt;Node11 -->
<g id="edge13" class="edge">
<title>Node1&#45;&gt;Node11</title>
<path fill="none" stroke="#191970" d="M299.1191,-112.2455C304.4046,-104.4564 311.9541,-93.3308 318.3238,-83.9439"/>
<polygon fill="#191970" stroke="#191970" points="321.2379,-85.8827 323.9568,-75.6427 315.4455,-81.9522 321.2379,-85.8827"/>
</g>
<!-- Node12 -->
<g id="node13" class="node">
<title>Node12</title>
<g id="a_node13"><a xlink:href="real__t_8h.html" target="_top" xlink:title=" ">
<polygon fill="#ffffff" stroke="#000000" points="460,-56.5 460,-75.5 513,-75.5 513,-56.5 460,-56.5"/>
<text text-anchor="middle" x="486.5" y="-63.5" font-family="Helvetica,sans-Serif" font-size="10.00" fill="#000000">real_t.h</text>
</a>
</g>
</g>
<!-- Node1&#45;&gt;Node12 -->
<g id="edge14" class="edge">
<title>Node1&#45;&gt;Node12</title>
<path fill="none" stroke="#191970" d="M325.8498,-112.3733C360.3604,-102.4114 414.116,-86.8944 449.8098,-76.591"/>
<polygon fill="#191970" stroke="#191970" points="451.1791,-79.8387 459.8162,-73.7026 449.2377,-73.1133 451.1791,-79.8387"/>
</g>
<!-- Node2&#45;&gt;Node3 -->
<g id="edge3" class="edge">
<title>Node2&#45;&gt;Node3</title>
<path fill="none" stroke="#191970" d="M149.5029,-58.2236C152.5423,-57.4689 155.5805,-56.7176 158.5,-56 221.6865,-40.4687 239.7005,-36.4265 306.5117,-20.2351"/>
<polygon fill="#191970" stroke="#191970" points="307.3796,-23.6261 316.2727,-17.8673 305.7294,-16.8234 307.3796,-23.6261"/>
</g>
<!-- Node2&#45;&gt;Node4 -->
<g id="edge4" class="edge">
<title>Node2&#45;&gt;Node4</title>
<path fill="none" stroke="#191970" d="M149.8819,-57.8698C152.7878,-57.2031 155.6937,-56.5683 158.5,-56 257.2561,-36.0028 286.4449,-42.6802 388.9903,-19.8375"/>
<polygon fill="#191970" stroke="#191970" points="389.8347,-23.2349 398.8131,-17.6101 388.2867,-16.4083 389.8347,-23.2349"/>
</g>
<!-- Node5 -->
<g id="node6" class="node">
<title>Node5</title>
<g id="a_node6"><a xlink:title=" ">
<polygon fill="#ffffff" stroke="#bfbfbf" points="87,-.5 87,-19.5 140,-19.5 140,-.5 87,-.5"/>
<text text-anchor="middle" x="113.5" y="-7.5" font-family="Helvetica,sans-Serif" font-size="10.00" fill="#000000">cstddef</text>
</a>
</g>
</g>
<!-- Node2&#45;&gt;Node5 -->
<g id="edge5" class="edge">
<title>Node2&#45;&gt;Node5</title>
<path fill="none" stroke="#191970" d="M117.6291,-56.2455C116.9766,-48.9382 116.062,-38.6944 115.2593,-29.7046"/>
<polygon fill="#191970" stroke="#191970" points="118.7365,-29.2918 114.361,-19.6427 111.7642,-29.9143 118.7365,-29.2918"/>
</g>
<!-- Node6 -->
<g id="node7" class="node">
<title>Node6</title>
<g id="a_node7"><a xlink:title=" ">
<polygon fill="#ffffff" stroke="#bfbfbf" points="158.5,-.5 158.5,-19.5 214.5,-19.5 214.5,-.5 158.5,-.5"/>
<text text-anchor="middle" x="186.5" y="-7.5" font-family="Helvetica,sans-Serif" font-size="10.00" fill="#000000">numeric</text>
</a>
</g>
</g>
<!-- Node2&#45;&gt;Node6 -->
<g id="edge6" class="edge">
<title>Node2&#45;&gt;Node6</title>
<path fill="none" stroke="#191970" d="M130.3447,-56.2455C140.388,-47.9746 154.9995,-35.9416 166.8004,-26.2232"/>
<polygon fill="#191970" stroke="#191970" points="169.2967,-28.7015 174.791,-19.6427 164.8467,-23.298 169.2967,-28.7015"/>
</g>
<!-- Node2&#45;&gt;Node7 -->
<g id="edge7" class="edge">
<title>Node2&#45;&gt;Node7</title>
<path fill="none" stroke="#191970" d="M103.8683,-56.2455C91.1006,-47.7337 72.3562,-35.2375 57.5701,-25.3801"/>
<polygon fill="#191970" stroke="#191970" points="59.226,-22.2775 48.964,-19.6427 55.3431,-28.1019 59.226,-22.2775"/>
</g>
<!-- Node8 -->
<g id="node9" class="node">
<title>Node8</title>
<g id="a_node9"><a xlink:title=" ">
<polygon fill="#ffffff" stroke="#bfbfbf" points="233,-.5 233,-19.5 298,-19.5 298,-.5 233,-.5"/>
<text text-anchor="middle" x="265.5" y="-7.5" font-family="Helvetica,sans-Serif" font-size="10.00" fill="#000000">stdexcept</text>
</a>
</g>
</g>
<!-- Node2&#45;&gt;Node8 -->
<g id="edge8" class="edge">
<title>Node2&#45;&gt;Node8</title>
<path fill="none" stroke="#191970" d="M143.7702,-56.3733C167.8966,-47.1822 204.4362,-33.2624 231.1877,-23.0713"/>
<polygon fill="#191970" stroke="#191970" points="232.4607,-26.3318 240.5596,-19.5011 229.9687,-19.7904 232.4607,-26.3318"/>
</g>
<!-- Node13 -->
<g id="node14" class="node">
<title>Node13</title>
<g id="a_node14"><a xlink:title=" ">
<polygon fill="#ffffff" stroke="#bfbfbf" points="464,-.5 464,-19.5 517,-19.5 517,-.5 464,-.5"/>
<text text-anchor="middle" x="490.5" y="-7.5" font-family="Helvetica,sans-Serif" font-size="10.00" fill="#000000">stdint.h</text>
</a>
</g>
</g>
<!-- Node12&#45;&gt;Node13 -->
<g id="edge15" class="edge">
<title>Node12&#45;&gt;Node13</title>
<path fill="none" stroke="#191970" d="M487.1967,-56.2455C487.7187,-48.9382 488.4504,-38.6944 489.0925,-29.7046"/>
<polygon fill="#191970" stroke="#191970" points="492.5898,-29.8667 489.8112,-19.6427 485.6076,-29.3679 492.5898,-29.8667"/>
</g>
</g>
</svg>
