<?xml version="1.0" encoding="UTF-8" standalone="no"?>
<!DOCTYPE svg PUBLIC "-//W3C//DTD SVG 1.1//EN"
 "http://www.w3.org/Graphics/SVG/1.1/DTD/svg11.dtd">
<!-- Generated by graphviz version 2.40.1 (20161225.0304)
 -->
<!-- Title: /home/pieter/GitHub/EAGLE&#45;ZYBO&#45;Linux/src/crypto/src/hwImplementation.cpp Pages: 1 -->
<svg width="1080pt" height="274pt"
 viewBox="0.00 0.00 1080.00 274.00" xmlns="http://www.w3.org/2000/svg" xmlns:xlink="http://www.w3.org/1999/xlink">
<g id="graph0" class="graph" transform="scale(1 1) rotate(0) translate(4 270)">
<title>/home/pieter/GitHub/EAGLE&#45;ZYBO&#45;Linux/src/crypto/src/hwImplementation.cpp</title>
<polygon fill="#ffffff" stroke="transparent" points="-4,4 -4,-270 1076,-270 1076,4 -4,4"/>
<!-- Node0 -->
<g id="node1" class="node">
<title>Node0</title>
<g id="a_node1"><a xlink:title=" ">
<polygon fill="#bfbfbf" stroke="#000000" points="227.5,-224.5 227.5,-265.5 410.5,-265.5 410.5,-224.5 227.5,-224.5"/>
<text text-anchor="start" x="235.5" y="-253.5" font-family="Helvetica,sans-Serif" font-size="10.00" fill="#000000">/home/pieter/GitHub</text>
<text text-anchor="start" x="235.5" y="-242.5" font-family="Helvetica,sans-Serif" font-size="10.00" fill="#000000">/EAGLE&#45;ZYBO&#45;Linux/src</text>
<text text-anchor="middle" x="319" y="-231.5" font-family="Helvetica,sans-Serif" font-size="10.00" fill="#000000">/crypto/src/hwImplementation.cpp</text>
</a>
</g>
</g>
<!-- Node1 -->
<g id="node2" class="node">
<title>Node1</title>
<g id="a_node2"><a xlink:href="hwImplementation_8hpp.html" target="_top" xlink:title=" ">
<polygon fill="#ffffff" stroke="#000000" points="135,-168.5 135,-187.5 265,-187.5 265,-168.5 135,-168.5"/>
<text text-anchor="middle" x="200" y="-175.5" font-family="Helvetica,sans-Serif" font-size="10.00" fill="#000000">hwImplementation.hpp</text>
</a>
</g>
</g>
<!-- Node0&#45;&gt;Node1 -->
<g id="edge1" class="edge">
<title>Node0&#45;&gt;Node1</title>
<path fill="none" stroke="#191970" d="M282.3251,-224.3511C264.1714,-214.1301 242.6764,-202.0279 226.2034,-192.7532"/>
<polygon fill="#191970" stroke="#191970" points="227.5787,-189.5109 217.1478,-187.6546 224.1445,-195.6106 227.5787,-189.5109"/>
</g>
<!-- Node7 -->
<g id="node8" class="node">
<title>Node7</title>
<g id="a_node8"><a xlink:href="keccak_8hpp.html" target="_top" xlink:title=" ">
<polygon fill="#ffffff" stroke="#000000" points="283,-168.5 283,-187.5 355,-187.5 355,-168.5 283,-168.5"/>
<text text-anchor="middle" x="319" y="-175.5" font-family="Helvetica,sans-Serif" font-size="10.00" fill="#000000">keccak.hpp</text>
</a>
</g>
</g>
<!-- Node0&#45;&gt;Node7 -->
<g id="edge7" class="edge">
<title>Node0&#45;&gt;Node7</title>
<path fill="none" stroke="#191970" d="M319,-224.168C319,-215.8226 319,-206.2471 319,-197.9879"/>
<polygon fill="#191970" stroke="#191970" points="322.5001,-197.7804 319,-187.7805 315.5001,-197.7805 322.5001,-197.7804"/>
</g>
<!-- Node8 -->
<g id="node9" class="node">
<title>Node8</title>
<g id="a_node9"><a xlink:href="ketje_8hpp.html" target="_top" xlink:title=" ">
<polygon fill="#ffffff" stroke="#000000" points="373,-168.5 373,-187.5 435,-187.5 435,-168.5 373,-168.5"/>
<text text-anchor="middle" x="404" y="-175.5" font-family="Helvetica,sans-Serif" font-size="10.00" fill="#000000">ketje.hpp</text>
</a>
</g>
</g>
<!-- Node0&#45;&gt;Node8 -->
<g id="edge9" class="edge">
<title>Node0&#45;&gt;Node8</title>
<path fill="none" stroke="#191970" d="M345.4286,-224.168C357.7005,-214.4949 372.069,-203.1692 383.5033,-194.1562"/>
<polygon fill="#191970" stroke="#191970" points="385.905,-196.7197 391.5919,-187.7805 381.5717,-191.2222 385.905,-196.7197"/>
</g>
<!-- Node2 -->
<g id="node3" class="node">
<title>Node2</title>
<g id="a_node3"><a xlink:href="bitString_8hpp.html" target="_top" xlink:title=" ">
<polygon fill="#ffffff" stroke="#000000" points="256.5,-112.5 256.5,-131.5 335.5,-131.5 335.5,-112.5 256.5,-112.5"/>
<text text-anchor="middle" x="296" y="-119.5" font-family="Helvetica,sans-Serif" font-size="10.00" fill="#000000">bitString.hpp</text>
</a>
</g>
</g>
<!-- Node1&#45;&gt;Node2 -->
<g id="edge2" class="edge">
<title>Node1&#45;&gt;Node2</title>
<path fill="none" stroke="#191970" d="M216.7219,-168.2455C231.5889,-159.5731 253.5466,-146.7645 270.5858,-136.825"/>
<polygon fill="#191970" stroke="#191970" points="272.5955,-139.7047 279.4697,-131.6427 269.0683,-133.6582 272.5955,-139.7047"/>
</g>
<!-- Node3 -->
<g id="node4" class="node">
<title>Node3</title>
<g id="a_node4"><a xlink:title=" ">
<polygon fill="#ffffff" stroke="#bfbfbf" points="174,-56.5 174,-75.5 216,-75.5 216,-56.5 174,-56.5"/>
<text text-anchor="middle" x="195" y="-63.5" font-family="Helvetica,sans-Serif" font-size="10.00" fill="#000000">array</text>
</a>
</g>
</g>
<!-- Node2&#45;&gt;Node3 -->
<g id="edge3" class="edge">
<title>Node2&#45;&gt;Node3</title>
<path fill="none" stroke="#191970" d="M278.4071,-112.2455C262.621,-103.4928 239.2361,-90.527 221.2413,-80.5496"/>
<polygon fill="#191970" stroke="#191970" points="222.8341,-77.4308 212.3913,-75.6427 219.4397,-83.5528 222.8341,-77.4308"/>
</g>
<!-- Node4 -->
<g id="node5" class="node">
<title>Node4</title>
<g id="a_node5"><a xlink:title=" ">
<polygon fill="#ffffff" stroke="#bfbfbf" points="338,-56.5 338,-75.5 388,-75.5 388,-56.5 338,-56.5"/>
<text text-anchor="middle" x="363" y="-63.5" font-family="Helvetica,sans-Serif" font-size="10.00" fill="#000000">cstdint</text>
</a>
</g>
</g>
<!-- Node2&#45;&gt;Node4 -->
<g id="edge4" class="edge">
<title>Node2&#45;&gt;Node4</title>
<path fill="none" stroke="#191970" d="M307.6705,-112.2455C317.5661,-103.9746 331.9627,-91.9416 343.5901,-82.2232"/>
<polygon fill="#191970" stroke="#191970" points="346.035,-84.7413 351.4632,-75.6427 341.5458,-79.3703 346.035,-84.7413"/>
</g>
<!-- Node5 -->
<g id="node6" class="node">
<title>Node5</title>
<g id="a_node6"><a xlink:title=" ">
<polygon fill="#ffffff" stroke="#bfbfbf" points="0,-.5 0,-19.5 60,-19.5 60,-.5 0,-.5"/>
<text text-anchor="middle" x="30" y="-7.5" font-family="Helvetica,sans-Serif" font-size="10.00" fill="#000000">iostream</text>
</a>
</g>
</g>
<!-- Node2&#45;&gt;Node5 -->
<g id="edge5" class="edge">
<title>Node2&#45;&gt;Node5</title>
<path fill="none" stroke="#191970" d="M288.4144,-112.2429C276.5277,-97.6588 252.0564,-70.3572 225,-56 164.8463,-24.08 140.2698,-35.7061 69.9686,-20.0979"/>
<polygon fill="#191970" stroke="#191970" points="70.7491,-16.6861 60.2156,-17.8245 69.1599,-23.5033 70.7491,-16.6861"/>
</g>
<!-- Node6 -->
<g id="node7" class="node">
<title>Node6</title>
<g id="a_node7"><a xlink:title=" ">
<polygon fill="#ffffff" stroke="#bfbfbf" points="272.5,-56.5 272.5,-75.5 319.5,-75.5 319.5,-56.5 272.5,-56.5"/>
<text text-anchor="middle" x="296" y="-63.5" font-family="Helvetica,sans-Serif" font-size="10.00" fill="#000000">vector</text>
</a>
</g>
</g>
<!-- Node2&#45;&gt;Node6 -->
<g id="edge6" class="edge">
<title>Node2&#45;&gt;Node6</title>
<path fill="none" stroke="#191970" d="M296,-112.2455C296,-104.9382 296,-94.6944 296,-85.7046"/>
<polygon fill="#191970" stroke="#191970" points="299.5001,-85.6426 296,-75.6427 292.5001,-85.6427 299.5001,-85.6426"/>
</g>
<!-- Node7&#45;&gt;Node2 -->
<g id="edge8" class="edge">
<title>Node7&#45;&gt;Node2</title>
<path fill="none" stroke="#191970" d="M314.9937,-168.2455C311.9265,-160.7776 307.5997,-150.2427 303.8503,-141.1137"/>
<polygon fill="#191970" stroke="#191970" points="306.9972,-139.5631 299.9604,-131.6427 300.5221,-142.2226 306.9972,-139.5631"/>
</g>
<!-- Node8&#45;&gt;Node2 -->
<g id="edge10" class="edge">
<title>Node8&#45;&gt;Node2</title>
<path fill="none" stroke="#191970" d="M385.1878,-168.2455C368.1527,-159.4125 342.8425,-146.2887 323.5319,-136.2758"/>
<polygon fill="#191970" stroke="#191970" points="325.0853,-133.1388 314.5966,-131.6427 321.863,-139.353 325.0853,-133.1388"/>
</g>
<!-- Node9 -->
<g id="node10" class="node">
<title>Node9</title>
<g id="a_node10"><a xlink:href="cryptoPoller_8hpp.html" target="_top" xlink:title=" ">
<polygon fill="#ffffff" stroke="#000000" points="379.5,-112.5 379.5,-131.5 474.5,-131.5 474.5,-112.5 379.5,-112.5"/>
<text text-anchor="middle" x="427" y="-119.5" font-family="Helvetica,sans-Serif" font-size="10.00" fill="#000000">cryptoPoller.hpp</text>
</a>
</g>
</g>
<!-- Node8&#45;&gt;Node9 -->
<g id="edge11" class="edge">
<title>Node8&#45;&gt;Node9</title>
<path fill="none" stroke="#191970" d="M408.0063,-168.2455C411.0735,-160.7776 415.4003,-150.2427 419.1497,-141.1137"/>
<polygon fill="#191970" stroke="#191970" points="422.4779,-142.2226 423.0396,-131.6427 416.0028,-139.5631 422.4779,-142.2226"/>
</g>
<!-- Node9&#45;&gt;Node4 -->
<g id="edge28" class="edge">
<title>Node9&#45;&gt;Node4</title>
<path fill="none" stroke="#191970" d="M415.8521,-112.2455C406.4913,-104.0549 392.9142,-92.1749 381.8651,-82.5069"/>
<polygon fill="#191970" stroke="#191970" points="383.8508,-79.5937 374.0202,-75.6427 379.2412,-84.8618 383.8508,-79.5937"/>
</g>
<!-- Node10 -->
<g id="node11" class="node">
<title>Node10</title>
<g id="a_node11"><a xlink:href="SharedMem_8hpp.html" target="_top" xlink:title=" ">
<polygon fill="#ffffff" stroke="#000000" points="406.5,-56.5 406.5,-75.5 501.5,-75.5 501.5,-56.5 406.5,-56.5"/>
<text text-anchor="middle" x="454" y="-63.5" font-family="Helvetica,sans-Serif" font-size="10.00" fill="#000000">SharedMem.hpp</text>
</a>
</g>
</g>
<!-- Node9&#45;&gt;Node10 -->
<g id="edge12" class="edge">
<title>Node9&#45;&gt;Node10</title>
<path fill="none" stroke="#191970" d="M431.703,-112.2455C435.3424,-104.6973 440.4924,-94.0158 444.9262,-84.8197"/>
<polygon fill="#191970" stroke="#191970" points="448.1605,-86.1704 449.3509,-75.6427 441.8551,-83.1303 448.1605,-86.1704"/>
</g>
<!-- Node22 -->
<g id="node23" class="node">
<title>Node22</title>
<g id="a_node23"><a xlink:href="cryptoException_8hpp.html" target="_top" xlink:title=" ">
<polygon fill="#ffffff" stroke="#000000" points="919,-56.5 919,-75.5 1035,-75.5 1035,-56.5 919,-56.5"/>
<text text-anchor="middle" x="977" y="-63.5" font-family="Helvetica,sans-Serif" font-size="10.00" fill="#000000">cryptoException.hpp</text>
</a>
</g>
</g>
<!-- Node9&#45;&gt;Node22 -->
<g id="edge25" class="edge">
<title>Node9&#45;&gt;Node22</title>
<path fill="none" stroke="#191970" d="M474.8468,-117.1283C572.5474,-107.1806 795.2757,-84.5028 908.3732,-72.9875"/>
<polygon fill="#191970" stroke="#191970" points="909.0437,-76.4374 918.6377,-71.9423 908.3346,-69.4734 909.0437,-76.4374"/>
</g>
<!-- Node10&#45;&gt;Node5 -->
<g id="edge15" class="edge">
<title>Node10&#45;&gt;Node5</title>
<path fill="none" stroke="#191970" d="M406.4507,-57.4223C403.2559,-56.9187 400.0834,-56.4392 397,-56 255.0735,-35.783 215.0644,-45.8021 70.2884,-20.0132"/>
<polygon fill="#191970" stroke="#191970" points="70.6037,-16.5135 60.1404,-18.178 69.3579,-23.4018 70.6037,-16.5135"/>
</g>
<!-- Node11 -->
<g id="node12" class="node">
<title>Node11</title>
<g id="a_node12"><a xlink:href="ANSIColors_8hpp.html" target="_top" xlink:title=" ">
<polygon fill="#ffffff" stroke="#000000" points="78,-.5 78,-19.5 170,-19.5 170,-.5 78,-.5"/>
<text text-anchor="middle" x="124" y="-7.5" font-family="Helvetica,sans-Serif" font-size="10.00" fill="#000000">ANSIColors.hpp</text>
</a>
</g>
</g>
<!-- Node10&#45;&gt;Node11 -->
<g id="edge13" class="edge">
<title>Node10&#45;&gt;Node11</title>
<path fill="none" stroke="#191970" d="M406.4204,-57.616C403.233,-57.0657 400.0704,-56.5228 397,-56 303.3122,-40.0465 277.4063,-36.9742 180.161,-20.181"/>
<polygon fill="#191970" stroke="#191970" points="180.6544,-16.7144 170.2038,-18.4567 179.46,-23.6118 180.6544,-16.7144"/>
</g>
<!-- Node12 -->
<g id="node13" class="node">
<title>Node12</title>
<g id="a_node13"><a xlink:title=" ">
<polygon fill="#ffffff" stroke="#bfbfbf" points="188,-.5 188,-19.5 244,-19.5 244,-.5 188,-.5"/>
<text text-anchor="middle" x="216" y="-7.5" font-family="Helvetica,sans-Serif" font-size="10.00" fill="#000000">iomanip</text>
</a>
</g>
</g>
<!-- Node10&#45;&gt;Node12 -->
<g id="edge14" class="edge">
<title>Node10&#45;&gt;Node12</title>
<path fill="none" stroke="#191970" d="M409.9672,-56.4409C371.3175,-47.9342 313.3509,-34.896 254.1481,-20.2227"/>
<polygon fill="#191970" stroke="#191970" points="254.8017,-16.7786 244.2522,-17.7573 253.1095,-23.571 254.8017,-16.7786"/>
</g>
<!-- Node13 -->
<g id="node14" class="node">
<title>Node13</title>
<g id="a_node14"><a xlink:title=" ">
<polygon fill="#ffffff" stroke="#bfbfbf" points="262,-.5 262,-19.5 314,-19.5 314,-.5 262,-.5"/>
<text text-anchor="middle" x="288" y="-7.5" font-family="Helvetica,sans-Serif" font-size="10.00" fill="#000000">cassert</text>
</a>
</g>
</g>
<!-- Node10&#45;&gt;Node13 -->
<g id="edge16" class="edge">
<title>Node10&#45;&gt;Node13</title>
<path fill="none" stroke="#191970" d="M425.4636,-56.3733C397.3968,-46.9049 354.4538,-32.4182 324.0438,-22.1594"/>
<polygon fill="#191970" stroke="#191970" points="324.8451,-18.7359 314.2509,-18.8557 322.6075,-25.3687 324.8451,-18.7359"/>
</g>
<!-- Node14 -->
<g id="node15" class="node">
<title>Node14</title>
<g id="a_node15"><a xlink:title=" ">
<polygon fill="#ffffff" stroke="#bfbfbf" points="332.5,-.5 332.5,-19.5 379.5,-19.5 379.5,-.5 332.5,-.5"/>
<text text-anchor="middle" x="356" y="-7.5" font-family="Helvetica,sans-Serif" font-size="10.00" fill="#000000">cerrno</text>
</a>
</g>
</g>
<!-- Node10&#45;&gt;Node14 -->
<g id="edge17" class="edge">
<title>Node10&#45;&gt;Node14</title>
<path fill="none" stroke="#191970" d="M436.9297,-56.2455C421.753,-47.5731 399.3379,-34.7645 381.9437,-24.825"/>
<polygon fill="#191970" stroke="#191970" points="383.2936,-21.5653 372.8747,-19.6427 379.8206,-27.643 383.2936,-21.5653"/>
</g>
<!-- Node15 -->
<g id="node16" class="node">
<title>Node15</title>
<g id="a_node16"><a xlink:title=" ">
<polygon fill="#ffffff" stroke="#bfbfbf" points="397.5,-.5 397.5,-19.5 444.5,-19.5 444.5,-.5 397.5,-.5"/>
<text text-anchor="middle" x="421" y="-7.5" font-family="Helvetica,sans-Serif" font-size="10.00" fill="#000000">fcntl.h</text>
</a>
</g>
</g>
<!-- Node10&#45;&gt;Node15 -->
<g id="edge18" class="edge">
<title>Node10&#45;&gt;Node15</title>
<path fill="none" stroke="#191970" d="M448.2518,-56.2455C443.7565,-48.617 437.3752,-37.7881 431.9175,-28.5267"/>
<polygon fill="#191970" stroke="#191970" points="434.7747,-26.4811 426.6823,-19.6427 428.7439,-30.035 434.7747,-26.4811"/>
</g>
<!-- Node16 -->
<g id="node17" class="node">
<title>Node16</title>
<g id="a_node17"><a xlink:title=" ">
<polygon fill="#ffffff" stroke="#bfbfbf" points="463,-.5 463,-19.5 513,-19.5 513,-.5 463,-.5"/>
<text text-anchor="middle" x="488" y="-7.5" font-family="Helvetica,sans-Serif" font-size="10.00" fill="#000000">stdio.h</text>
</a>
</g>
</g>
<!-- Node10&#45;&gt;Node16 -->
<g id="edge19" class="edge">
<title>Node10&#45;&gt;Node16</title>
<path fill="none" stroke="#191970" d="M459.9223,-56.2455C464.6027,-48.5367 471.2673,-37.5598 476.9289,-28.2348"/>
<polygon fill="#191970" stroke="#191970" points="479.9475,-30.007 482.1455,-19.6427 473.9639,-26.3741 479.9475,-30.007"/>
</g>
<!-- Node17 -->
<g id="node18" class="node">
<title>Node17</title>
<g id="a_node18"><a xlink:title=" ">
<polygon fill="#ffffff" stroke="#bfbfbf" points="531.5,-.5 531.5,-19.5 584.5,-19.5 584.5,-.5 531.5,-.5"/>
<text text-anchor="middle" x="558" y="-7.5" font-family="Helvetica,sans-Serif" font-size="10.00" fill="#000000">stdlib.h</text>
</a>
</g>
</g>
<!-- Node10&#45;&gt;Node17 -->
<g id="edge20" class="edge">
<title>Node10&#45;&gt;Node17</title>
<path fill="none" stroke="#191970" d="M472.1154,-56.2455C488.445,-47.4527 512.671,-34.4079 531.2339,-24.4125"/>
<polygon fill="#191970" stroke="#191970" points="532.9468,-27.4654 540.0922,-19.6427 529.6281,-21.3021 532.9468,-27.4654"/>
</g>
<!-- Node18 -->
<g id="node19" class="node">
<title>Node18</title>
<g id="a_node19"><a xlink:title=" ">
<polygon fill="#ffffff" stroke="#bfbfbf" points="602.5,-.5 602.5,-19.5 679.5,-19.5 679.5,-.5 602.5,-.5"/>
<text text-anchor="middle" x="641" y="-7.5" font-family="Helvetica,sans-Serif" font-size="10.00" fill="#000000">sys/mman.h</text>
</a>
</g>
</g>
<!-- Node10&#45;&gt;Node18 -->
<g id="edge21" class="edge">
<title>Node10&#45;&gt;Node18</title>
<path fill="none" stroke="#191970" d="M486.1464,-56.3733C517.5109,-46.9807 565.3665,-32.6496 599.5716,-22.4064"/>
<polygon fill="#191970" stroke="#191970" points="600.6975,-25.7229 609.273,-19.5011 598.6893,-19.0171 600.6975,-25.7229"/>
</g>
<!-- Node19 -->
<g id="node20" class="node">
<title>Node19</title>
<g id="a_node20"><a xlink:title=" ">
<polygon fill="#ffffff" stroke="#bfbfbf" points="698,-.5 698,-19.5 762,-19.5 762,-.5 698,-.5"/>
<text text-anchor="middle" x="730" y="-7.5" font-family="Helvetica,sans-Serif" font-size="10.00" fill="#000000">sys/stat.h</text>
</a>
</g>
</g>
<!-- Node10&#45;&gt;Node19 -->
<g id="edge22" class="edge">
<title>Node10&#45;&gt;Node19</title>
<path fill="none" stroke="#191970" d="M501.8419,-57.3014C547.2844,-48.8895 617.7545,-35.4587 687.9091,-20.17"/>
<polygon fill="#191970" stroke="#191970" points="688.7851,-23.5612 697.8035,-18.0007 687.2859,-16.7236 688.7851,-23.5612"/>
</g>
<!-- Node20 -->
<g id="node21" class="node">
<title>Node20</title>
<g id="a_node21"><a xlink:title=" ">
<polygon fill="#ffffff" stroke="#bfbfbf" points="780,-.5 780,-19.5 852,-19.5 852,-.5 780,-.5"/>
<text text-anchor="middle" x="816" y="-7.5" font-family="Helvetica,sans-Serif" font-size="10.00" fill="#000000">sys/types.h</text>
</a>
</g>
</g>
<!-- Node10&#45;&gt;Node20 -->
<g id="edge23" class="edge">
<title>Node10&#45;&gt;Node20</title>
<path fill="none" stroke="#191970" d="M501.7098,-60.2038C561.9,-52.642 668.7902,-38.3872 769.6447,-20.1463"/>
<polygon fill="#191970" stroke="#191970" points="770.4892,-23.55 779.698,-18.3108 769.232,-16.6638 770.4892,-23.55"/>
</g>
<!-- Node21 -->
<g id="node22" class="node">
<title>Node21</title>
<g id="a_node22"><a xlink:title=" ">
<polygon fill="#ffffff" stroke="#bfbfbf" points="870,-.5 870,-19.5 926,-19.5 926,-.5 870,-.5"/>
<text text-anchor="middle" x="898" y="-7.5" font-family="Helvetica,sans-Serif" font-size="10.00" fill="#000000">unistd.h</text>
</a>
</g>
</g>
<!-- Node10&#45;&gt;Node21 -->
<g id="edge24" class="edge">
<title>Node10&#45;&gt;Node21</title>
<path fill="none" stroke="#191970" d="M501.6616,-62.9634C576.1621,-57.7042 724.8091,-45.1523 859.7193,-20.0001"/>
<polygon fill="#191970" stroke="#191970" points="860.6459,-23.3869 869.8205,-18.088 859.344,-16.5091 860.6459,-23.3869"/>
</g>
<!-- Node23 -->
<g id="node24" class="node">
<title>Node23</title>
<g id="a_node24"><a xlink:title=" ">
<polygon fill="#ffffff" stroke="#bfbfbf" points="944.5,-.5 944.5,-19.5 1009.5,-19.5 1009.5,-.5 944.5,-.5"/>
<text text-anchor="middle" x="977" y="-7.5" font-family="Helvetica,sans-Serif" font-size="10.00" fill="#000000">exception</text>
</a>
</g>
</g>
<!-- Node22&#45;&gt;Node23 -->
<g id="edge26" class="edge">
<title>Node22&#45;&gt;Node23</title>
<path fill="none" stroke="#191970" d="M977,-56.2455C977,-48.9382 977,-38.6944 977,-29.7046"/>
<polygon fill="#191970" stroke="#191970" points="980.5001,-29.6426 977,-19.6427 973.5001,-29.6427 980.5001,-29.6426"/>
</g>
<!-- Node24 -->
<g id="node25" class="node">
<title>Node24</title>
<g id="a_node25"><a xlink:title=" ">
<polygon fill="#ffffff" stroke="#bfbfbf" points="1028,-.5 1028,-19.5 1072,-19.5 1072,-.5 1028,-.5"/>
<text text-anchor="middle" x="1050" y="-7.5" font-family="Helvetica,sans-Serif" font-size="10.00" fill="#000000">string</text>
</a>
</g>
</g>
<!-- Node22&#45;&gt;Node24 -->
<g id="edge27" class="edge">
<title>Node22&#45;&gt;Node24</title>
<path fill="none" stroke="#191970" d="M989.7156,-56.2455C1000.602,-47.8943 1016.4883,-35.7076 1029.22,-25.9408"/>
<polygon fill="#191970" stroke="#191970" points="1031.6261,-28.5063 1037.4301,-19.6427 1027.3654,-22.9523 1031.6261,-28.5063"/>
</g>
</g>
</svg>
