<?xml version="1.0" encoding="UTF-8" standalone="no"?>
<!DOCTYPE svg PUBLIC "-//W3C//DTD SVG 1.1//EN"
 "http://www.w3.org/Graphics/SVG/1.1/DTD/svg11.dtd">
<!-- Generated by graphviz version 2.40.1 (20161225.0304)
 -->
<!-- Title: Graphical Class Hierarchy Pages: 1 -->
<svg width="326pt" height="116pt"
 viewBox="0.00 0.00 326.00 115.50" xmlns="http://www.w3.org/2000/svg" xmlns:xlink="http://www.w3.org/1999/xlink">
<g id="graph0" class="graph" transform="scale(1 1) rotate(0) translate(4 111.5)">
<title>Graphical Class Hierarchy</title>
<polygon fill="#ffffff" stroke="transparent" points="-4,4 -4,-111.5 322,-111.5 322,4 -4,4"/>
<!-- Node0 -->
<g id="node1" class="node">
<title>Node0</title>
<g id="a_node1"><a xlink:href="structTimeFunctionT.html" target="_top" xlink:title=" ">
<polygon fill="#ffffff" stroke="#000000" points="0,-50 0,-69 116,-69 116,-50 0,-50"/>
<text text-anchor="middle" x="58" y="-57" font-family="Helvetica,sans-Serif" font-size="10.00" fill="#000000">TimeFunctionT&lt; T &gt;</text>
</a>
</g>
</g>
<!-- Node1 -->
<g id="node2" class="node">
<title>Node1</title>
<g id="a_node2"><a xlink:href="structConstantTimeFunctionT.html" target="_top" xlink:title=" ">
<polygon fill="#ffffff" stroke="#000000" points="155,-88 155,-107 315,-107 315,-88 155,-88"/>
<text text-anchor="middle" x="235" y="-95" font-family="Helvetica,sans-Serif" font-size="10.00" fill="#000000">ConstantTimeFunctionT&lt; T &gt;</text>
</a>
</g>
</g>
<!-- Node0&#45;&gt;Node1 -->
<g id="edge1" class="edge">
<title>Node0&#45;&gt;Node1</title>
<path fill="none" stroke="#191970" d="M112.7423,-71.2526C137.77,-76.6258 167.0348,-82.9086 190.6566,-87.9799"/>
<polygon fill="#191970" stroke="#191970" points="113.1765,-67.7661 102.6646,-69.089 111.7071,-74.6102 113.1765,-67.7661"/>
</g>
<!-- Node2 -->
<g id="node3" class="node">
<title>Node2</title>
<g id="a_node3"><a xlink:href="structFunctionalTimeFunctionT.html" target="_top" xlink:title=" ">
<polygon fill="#ffffff" stroke="#000000" points="152,-50 152,-69 318,-69 318,-50 152,-50"/>
<text text-anchor="middle" x="235" y="-57" font-family="Helvetica,sans-Serif" font-size="10.00" fill="#000000">FunctionalTimeFunctionT&lt; T &gt;</text>
</a>
</g>
</g>
<!-- Node0&#45;&gt;Node2 -->
<g id="edge2" class="edge">
<title>Node0&#45;&gt;Node2</title>
<path fill="none" stroke="#191970" d="M126.4815,-59.5C134.8274,-59.5 143.4241,-59.5 151.9529,-59.5"/>
<polygon fill="#191970" stroke="#191970" points="126.447,-56.0001 116.447,-59.5 126.4469,-63.0001 126.447,-56.0001"/>
</g>
<!-- Node3 -->
<g id="node4" class="node">
<title>Node3</title>
<g id="a_node4"><a xlink:href="structFunctionPointerTimeFunctionT.html" target="_top" xlink:title=" ">
<polygon fill="#ffffff" stroke="#000000" points="156.5,-.5 156.5,-30.5 313.5,-30.5 313.5,-.5 156.5,-.5"/>
<text text-anchor="start" x="164.5" y="-18.5" font-family="Helvetica,sans-Serif" font-size="10.00" fill="#000000">FunctionPointerTimeFunction</text>
<text text-anchor="middle" x="235" y="-7.5" font-family="Helvetica,sans-Serif" font-size="10.00" fill="#000000">T&lt; T &gt;</text>
</a>
</g>
</g>
<!-- Node0&#45;&gt;Node3 -->
<g id="edge3" class="edge">
<title>Node0&#45;&gt;Node3</title>
<path fill="none" stroke="#191970" d="M106.3779,-47.4739C127.3731,-42.2547 152.1897,-36.0856 174.3961,-30.5654"/>
<polygon fill="#191970" stroke="#191970" points="105.2666,-44.1435 96.4064,-49.9527 106.9554,-50.9368 105.2666,-44.1435"/>
</g>
</g>
</svg>
