<?xml version="1.0" encoding="UTF-8" standalone="no"?>
<!DOCTYPE svg PUBLIC "-//W3C//DTD SVG 1.1//EN"
 "http://www.w3.org/Graphics/SVG/1.1/DTD/svg11.dtd">
<!-- Generated by graphviz version 2.40.1 (20161225.0304)
 -->
<!-- Title: Graphical Class Hierarchy Pages: 1 -->
<svg width="245pt" height="66pt"
 viewBox="0.00 0.00 245.00 66.00" xmlns="http://www.w3.org/2000/svg" xmlns:xlink="http://www.w3.org/1999/xlink">
<g id="graph0" class="graph" transform="scale(1 1) rotate(0) translate(4 62)">
<title>Graphical Class Hierarchy</title>
<polygon fill="#ffffff" stroke="transparent" points="-4,4 -4,-62 241,-62 241,4 -4,4"/>
<!-- Node0 -->
<g id="node1" class="node">
<title>Node0</title>
<g id="a_node1"><a xlink:href="structPrintable.html" target="_top" xlink:title=" ">
<polygon fill="#ffffff" stroke="#000000" points="0,-19.5 0,-38.5 60,-38.5 60,-19.5 0,-19.5"/>
<text text-anchor="middle" x="30" y="-26.5" font-family="Helvetica,sans-Serif" font-size="10.00" fill="#000000">Printable</text>
</a>
</g>
</g>
<!-- Node1 -->
<g id="node2" class="node">
<title>Node1</title>
<g id="a_node2"><a xlink:href="classPrintAsRowVector__t.html" target="_top" xlink:title=" ">
<polygon fill="#ffffff" stroke="#000000" points="96,-38.5 96,-57.5 237,-57.5 237,-38.5 96,-38.5"/>
<text text-anchor="middle" x="166.5" y="-45.5" font-family="Helvetica,sans-Serif" font-size="10.00" fill="#000000">PrintAsRowVector_t&lt; N &gt;</text>
</a>
</g>
</g>
<!-- Node0&#45;&gt;Node1 -->
<g id="edge1" class="edge">
<title>Node0&#45;&gt;Node1</title>
<path fill="none" stroke="#191970" d="M70.2032,-34.596C78.9752,-35.8171 88.4956,-37.1422 98.0219,-38.4683"/>
<polygon fill="#191970" stroke="#191970" points="70.6808,-31.1289 60.2938,-33.2167 69.7157,-38.062 70.6808,-31.1289"/>
</g>
<!-- Node2 -->
<g id="node3" class="node">
<title>Node2</title>
<g id="a_node3"><a xlink:href="classPrintAsTeX__t.html" target="_top" xlink:title=" ">
<polygon fill="#ffffff" stroke="#000000" points="107,-.5 107,-19.5 226,-19.5 226,-.5 107,-.5"/>
<text text-anchor="middle" x="166.5" y="-7.5" font-family="Helvetica,sans-Serif" font-size="10.00" fill="#000000">PrintAsTeX_t&lt; R, C &gt;</text>
</a>
</g>
</g>
<!-- Node0&#45;&gt;Node2 -->
<g id="edge2" class="edge">
<title>Node0&#45;&gt;Node2</title>
<path fill="none" stroke="#191970" d="M70.4074,-23.3755C81.8576,-21.7817 94.5697,-20.0123 106.899,-18.2961"/>
<polygon fill="#191970" stroke="#191970" points="69.7157,-19.938 60.2938,-24.7833 70.6808,-26.8711 69.7157,-19.938"/>
</g>
</g>
</svg>
