<?xml version="1.0" encoding="UTF-8" standalone="no"?>
<!DOCTYPE svg PUBLIC "-//W3C//DTD SVG 1.1//EN"
 "http://www.w3.org/Graphics/SVG/1.1/DTD/svg11.dtd">
<!-- Generated by graphviz version 2.40.1 (20161225.0304)
 -->
<!-- Title: /home/pieter/GitHub/EAGLE&#45;ZYBO&#45;Linux/src/crypto/xkcp/EAGLE&#45;Hash.a.headers/KeccakSponge&#45;common.h Pages: 1 -->
<svg width="261pt" height="228pt"
 viewBox="0.00 0.00 261.00 228.00" xmlns="http://www.w3.org/2000/svg" xmlns:xlink="http://www.w3.org/1999/xlink">
<g id="graph0" class="graph" transform="scale(1 1) rotate(0) translate(4 224)">
<title>/home/pieter/GitHub/EAGLE&#45;ZYBO&#45;Linux/src/crypto/xkcp/EAGLE&#45;Hash.a.headers/KeccakSponge&#45;common.h</title>
<polygon fill="#ffffff" stroke="transparent" points="-4,4 -4,-224 257,-224 257,4 -4,4"/>
<!-- Node3 -->
<g id="node1" class="node">
<title>Node3</title>
<g id="a_node1"><a xlink:title=" ">
<polygon fill="#bfbfbf" stroke="#000000" points="62,-167.5 62,-219.5 253,-219.5 253,-167.5 62,-167.5"/>
<text text-anchor="start" x="70" y="-207.5" font-family="Helvetica,sans-Serif" font-size="10.00" fill="#000000">/home/pieter/GitHub</text>
<text text-anchor="start" x="70" y="-196.5" font-family="Helvetica,sans-Serif" font-size="10.00" fill="#000000">/EAGLE&#45;ZYBO&#45;Linux/src</text>
<text text-anchor="start" x="70" y="-185.5" font-family="Helvetica,sans-Serif" font-size="10.00" fill="#000000">/crypto/xkcp/EAGLE&#45;Hash.a.headers</text>
<text text-anchor="middle" x="157.5" y="-174.5" font-family="Helvetica,sans-Serif" font-size="10.00" fill="#000000">/KeccakSponge&#45;common.h</text>
</a>
</g>
</g>
<!-- Node4 -->
<g id="node2" class="node">
<title>Node4</title>
<g id="a_node2"><a xlink:href="KeccakSpongeWidth200_8h.html" target="_top" xlink:title=" ">
<polygon fill="#ffffff" stroke="#000000" points="0,-78.5 0,-130.5 191,-130.5 191,-78.5 0,-78.5"/>
<text text-anchor="start" x="8" y="-118.5" font-family="Helvetica,sans-Serif" font-size="10.00" fill="#000000">/home/pieter/GitHub</text>
<text text-anchor="start" x="8" y="-107.5" font-family="Helvetica,sans-Serif" font-size="10.00" fill="#000000">/EAGLE&#45;ZYBO&#45;Linux/src</text>
<text text-anchor="start" x="8" y="-96.5" font-family="Helvetica,sans-Serif" font-size="10.00" fill="#000000">/crypto/xkcp/EAGLE&#45;Hash.a.headers</text>
<text text-anchor="middle" x="95.5" y="-85.5" font-family="Helvetica,sans-Serif" font-size="10.00" fill="#000000">/KeccakSpongeWidth200.h</text>
</a>
</g>
</g>
<!-- Node3&#45;&gt;Node4 -->
<g id="edge1" class="edge">
<title>Node3&#45;&gt;Node4</title>
<path fill="none" stroke="#191970" d="M133.3635,-158.8525C126.8004,-149.4313 119.8052,-139.3897 113.6361,-130.5341"/>
<polygon fill="#191970" stroke="#191970" points="130.6453,-161.0738 139.2333,-167.2784 136.3891,-157.0725 130.6453,-161.0738"/>
</g>
<!-- Node5 -->
<g id="node3" class="node">
<title>Node5</title>
<g id="a_node3"><a xlink:href="EagleCryptSW_8cpp.html" target="_top" xlink:title=" ">
<polygon fill="#ffffff" stroke="#000000" points="74,-.5 74,-41.5 241,-41.5 241,-.5 74,-.5"/>
<text text-anchor="start" x="82" y="-29.5" font-family="Helvetica,sans-Serif" font-size="10.00" fill="#000000">/home/pieter/GitHub</text>
<text text-anchor="start" x="82" y="-18.5" font-family="Helvetica,sans-Serif" font-size="10.00" fill="#000000">/EAGLE&#45;ZYBO&#45;Linux/src</text>
<text text-anchor="middle" x="157.5" y="-7.5" font-family="Helvetica,sans-Serif" font-size="10.00" fill="#000000">/crypto/xkcp/EagleCryptSW.cpp</text>
</a>
</g>
</g>
<!-- Node3&#45;&gt;Node5 -->
<g id="edge3" class="edge">
<title>Node3&#45;&gt;Node5</title>
<path fill="none" stroke="#191970" d="M186.535,-159.0995C192.2684,-150.4446 197.4512,-140.8103 200.5,-131 207.4907,-108.5057 207.9802,-100.3363 200.5,-78 195.9732,-64.4826 186.8361,-51.6073 178.1443,-41.5249"/>
<polygon fill="#191970" stroke="#191970" points="183.5846,-157.21 180.6767,-167.398 189.3032,-161.2471 183.5846,-157.21"/>
</g>
<!-- Node4&#45;&gt;Node5 -->
<g id="edge2" class="edge">
<title>Node4&#45;&gt;Node5</title>
<path fill="none" stroke="#191970" d="M121.2252,-69.854C128.3317,-60.2831 135.8193,-50.199 142.1343,-41.6941"/>
<polygon fill="#191970" stroke="#191970" points="118.2686,-67.9648 115.1172,-78.0801 123.8888,-72.1378 118.2686,-67.9648"/>
</g>
</g>
</svg>
