<?xml version="1.0" encoding="UTF-8" standalone="no"?>
<!DOCTYPE svg PUBLIC "-//W3C//DTD SVG 1.1//EN"
 "http://www.w3.org/Graphics/SVG/1.1/DTD/svg11.dtd">
<!-- Generated by graphviz version 2.40.1 (20161225.0304)
 -->
<!-- Title: /home/pieter/GitHub/EAGLE&#45;ZYBO&#45;Linux/src/crypto/xkcp/EAGLE&#45;Hash.a.headers/KeccakSpongeWidth200.h Pages: 1 -->
<svg width="278pt" height="173pt"
 viewBox="0.00 0.00 277.50 173.00" xmlns="http://www.w3.org/2000/svg" xmlns:xlink="http://www.w3.org/1999/xlink">
<g id="graph0" class="graph" transform="scale(1 1) rotate(0) translate(4 169)">
<title>/home/pieter/GitHub/EAGLE&#45;ZYBO&#45;Linux/src/crypto/xkcp/EAGLE&#45;Hash.a.headers/KeccakSpongeWidth200.h</title>
<polygon fill="#ffffff" stroke="transparent" points="-4,4 -4,-169 273.5,-169 273.5,4 -4,4"/>
<!-- Node0 -->
<g id="node1" class="node">
<title>Node0</title>
<g id="a_node1"><a xlink:title=" ">
<polygon fill="#bfbfbf" stroke="#000000" points="48,-112.5 48,-164.5 239,-164.5 239,-112.5 48,-112.5"/>
<text text-anchor="start" x="56" y="-152.5" font-family="Helvetica,sans-Serif" font-size="10.00" fill="#000000">/home/pieter/GitHub</text>
<text text-anchor="start" x="56" y="-141.5" font-family="Helvetica,sans-Serif" font-size="10.00" fill="#000000">/EAGLE&#45;ZYBO&#45;Linux/src</text>
<text text-anchor="start" x="56" y="-130.5" font-family="Helvetica,sans-Serif" font-size="10.00" fill="#000000">/crypto/xkcp/EAGLE&#45;Hash.a.headers</text>
<text text-anchor="middle" x="143.5" y="-119.5" font-family="Helvetica,sans-Serif" font-size="10.00" fill="#000000">/KeccakSpongeWidth200.h</text>
</a>
</g>
</g>
<!-- Node1 -->
<g id="node2" class="node">
<title>Node1</title>
<g id="a_node2"><a xlink:href="KeccakSponge-common_8h.html" target="_top" xlink:title=" ">
<polygon fill="#ffffff" stroke="#000000" points="0,-56.5 0,-75.5 143,-75.5 143,-56.5 0,-56.5"/>
<text text-anchor="middle" x="71.5" y="-63.5" font-family="Helvetica,sans-Serif" font-size="10.00" fill="#000000">KeccakSponge&#45;common.h</text>
</a>
</g>
</g>
<!-- Node0&#45;&gt;Node1 -->
<g id="edge1" class="edge">
<title>Node0&#45;&gt;Node1</title>
<path fill="none" stroke="#191970" d="M117.5063,-112.3258C107.761,-102.5128 96.953,-91.6298 88.2626,-82.879"/>
<polygon fill="#191970" stroke="#191970" points="90.4983,-80.1632 80.9683,-75.534 85.5314,-85.0958 90.4983,-80.1632"/>
</g>
<!-- Node4 -->
<g id="node5" class="node">
<title>Node4</title>
<g id="a_node5"><a xlink:href="EAGLE-Hash_8a_8headers_2KeccakP-200-SnP_8h.html" target="_top" xlink:title=" ">
<polygon fill="#ffffff" stroke="#000000" points="161.5,-56.5 161.5,-75.5 269.5,-75.5 269.5,-56.5 161.5,-56.5"/>
<text text-anchor="middle" x="215.5" y="-63.5" font-family="Helvetica,sans-Serif" font-size="10.00" fill="#000000">KeccakP&#45;200&#45;SnP.h</text>
</a>
</g>
</g>
<!-- Node0&#45;&gt;Node4 -->
<g id="edge4" class="edge">
<title>Node0&#45;&gt;Node4</title>
<path fill="none" stroke="#191970" d="M169.4937,-112.3258C179.239,-102.5128 190.047,-91.6298 198.7374,-82.879"/>
<polygon fill="#191970" stroke="#191970" points="201.4686,-85.0958 206.0317,-75.534 196.5017,-80.1632 201.4686,-85.0958"/>
</g>
<!-- Node2 -->
<g id="node3" class="node">
<title>Node2</title>
<g id="a_node3"><a xlink:title=" ">
<polygon fill="#ffffff" stroke="#bfbfbf" points="10,-.5 10,-19.5 63,-19.5 63,-.5 10,-.5"/>
<text text-anchor="middle" x="36.5" y="-7.5" font-family="Helvetica,sans-Serif" font-size="10.00" fill="#000000">string.h</text>
</a>
</g>
</g>
<!-- Node1&#45;&gt;Node2 -->
<g id="edge2" class="edge">
<title>Node1&#45;&gt;Node2</title>
<path fill="none" stroke="#191970" d="M65.4035,-56.2455C60.5855,-48.5367 53.7249,-37.5598 47.8968,-28.2348"/>
<polygon fill="#191970" stroke="#191970" points="50.7947,-26.2677 42.5267,-19.6427 44.8587,-29.9777 50.7947,-26.2677"/>
</g>
<!-- Node3 -->
<g id="node4" class="node">
<title>Node3</title>
<g id="a_node4"><a xlink:href="EAGLE-Hash_8a_8headers_2align_8h.html" target="_top" xlink:title=" ">
<polygon fill="#ffffff" stroke="#000000" points="81.5,-.5 81.5,-19.5 131.5,-19.5 131.5,-.5 81.5,-.5"/>
<text text-anchor="middle" x="106.5" y="-7.5" font-family="Helvetica,sans-Serif" font-size="10.00" fill="#000000">align.h</text>
</a>
</g>
</g>
<!-- Node1&#45;&gt;Node3 -->
<g id="edge3" class="edge">
<title>Node1&#45;&gt;Node3</title>
<path fill="none" stroke="#191970" d="M77.5965,-56.2455C82.4145,-48.5367 89.2751,-37.5598 95.1032,-28.2348"/>
<polygon fill="#191970" stroke="#191970" points="98.1413,-29.9777 100.4733,-19.6427 92.2053,-26.2677 98.1413,-29.9777"/>
</g>
</g>
</svg>
