<?xml version="1.0" encoding="UTF-8" standalone="no"?>
<!DOCTYPE svg PUBLIC "-//W3C//DTD SVG 1.1//EN"
 "http://www.w3.org/Graphics/SVG/1.1/DTD/svg11.dtd">
<!-- Generated by graphviz version 2.40.1 (20161225.0304)
 -->
<!-- Title: keccak Pages: 1 -->
<svg width="385pt" height="306pt"
 viewBox="0.00 0.00 385.00 305.50" xmlns="http://www.w3.org/2000/svg" xmlns:xlink="http://www.w3.org/1999/xlink">
<g id="graph0" class="graph" transform="scale(1 1) rotate(0) translate(4 301.5)">
<title>keccak</title>
<polygon fill="#ffffff" stroke="transparent" points="-4,4 -4,-301.5 381,-301.5 381,4 -4,4"/>
<!-- Node0 -->
<g id="node1" class="node">
<title>Node0</title>
<g id="a_node1"><a xlink:title=" ">
<polygon fill="#bfbfbf" stroke="#000000" points="0,-133.5 0,-152.5 51,-152.5 51,-133.5 0,-133.5"/>
<text text-anchor="middle" x="25.5" y="-140.5" font-family="Helvetica,sans-Serif" font-size="10.00" fill="#000000">keccak</text>
</a>
</g>
</g>
<!-- Node1 -->
<g id="node2" class="node">
<title>Node1</title>
<g id="a_node2"><a xlink:href="classBitString.html#afec85245f536cb86f2aca2f0300185dd" target="_top" xlink:title=" ">
<polygon fill="#ffffff" stroke="#000000" points="89,-267 89,-297 232,-297 232,-267 89,-267"/>
<text text-anchor="start" x="97" y="-285" font-family="Helvetica,sans-Serif" font-size="10.00" fill="#000000">BitString::concatenateAnd</text>
<text text-anchor="middle" x="160.5" y="-274" font-family="Helvetica,sans-Serif" font-size="10.00" fill="#000000">AddMultiRatePadding</text>
</a>
</g>
</g>
<!-- Node0&#45;&gt;Node1 -->
<g id="edge1" class="edge">
<title>Node0&#45;&gt;Node1</title>
<path fill="none" stroke="#191970" d="M28.1111,-152.8095C34.4385,-174.7141 52.6575,-227.9581 87,-257 88.9812,-258.6754 91.08,-260.2401 93.2675,-261.7015"/>
<polygon fill="#191970" stroke="#191970" points="91.6819,-264.8284 102.084,-266.8403 95.2069,-258.7807 91.6819,-264.8284"/>
</g>
<!-- Node2 -->
<g id="node3" class="node">
<title>Node2</title>
<g id="a_node3"><a xlink:href="classBitString.html#a39bc6a3bef8f84d2dec75174b35abf89" target="_top" xlink:title=" ">
<polygon fill="#ffffff" stroke="#000000" points="104,-228.5 104,-247.5 217,-247.5 217,-228.5 104,-228.5"/>
<text text-anchor="middle" x="160.5" y="-235.5" font-family="Helvetica,sans-Serif" font-size="10.00" fill="#000000">BitString::getLength</text>
</a>
</g>
</g>
<!-- Node0&#45;&gt;Node2 -->
<g id="edge2" class="edge">
<title>Node0&#45;&gt;Node2</title>
<path fill="none" stroke="#191970" d="M30.5322,-152.5836C39.5764,-168.8403 60.1647,-201.7344 87,-219 90.1797,-221.0458 93.5697,-222.8717 97.0831,-224.5012"/>
<polygon fill="#191970" stroke="#191970" points="96.0291,-227.8508 106.6111,-228.3725 98.6641,-221.3657 96.0291,-227.8508"/>
</g>
<!-- Node3 -->
<g id="node4" class="node">
<title>Node3</title>
<g id="a_node4"><a xlink:href="classBitString.html#a9f592521af8d36d2d45f46661d86db2b" target="_top" xlink:title=" ">
<polygon fill="#ffffff" stroke="#000000" points="101.5,-190.5 101.5,-209.5 219.5,-209.5 219.5,-190.5 101.5,-190.5"/>
<text text-anchor="middle" x="160.5" y="-197.5" font-family="Helvetica,sans-Serif" font-size="10.00" fill="#000000">BitString::splitBlocks</text>
</a>
</g>
</g>
<!-- Node0&#45;&gt;Node3 -->
<g id="edge3" class="edge">
<title>Node0&#45;&gt;Node3</title>
<path fill="none" stroke="#191970" d="M38.5427,-152.6786C50.5775,-161.2051 69.2218,-173.416 87,-181 92.7281,-183.4435 98.8455,-185.6323 105.0135,-187.5772"/>
<polygon fill="#191970" stroke="#191970" points="104.1173,-190.9618 114.699,-190.4341 106.0978,-184.2478 104.1173,-190.9618"/>
</g>
<!-- Node5 -->
<g id="node6" class="node">
<title>Node5</title>
<g id="a_node6"><a xlink:href="classCryptoPoller.html#adec9d1073d8950d0a6a38c975b05cbab" target="_top" xlink:title=" ">
<polygon fill="#ffffff" stroke="#000000" points="107,-152.5 107,-171.5 214,-171.5 214,-152.5 107,-152.5"/>
<text text-anchor="middle" x="160.5" y="-159.5" font-family="Helvetica,sans-Serif" font-size="10.00" fill="#000000">CryptoPoller::reset</text>
</a>
</g>
</g>
<!-- Node0&#45;&gt;Node5 -->
<g id="edge5" class="edge">
<title>Node0&#45;&gt;Node5</title>
<path fill="none" stroke="#191970" d="M51.2102,-146.6185C64.261,-148.4553 80.7479,-150.7756 96.9323,-153.0534"/>
<polygon fill="#191970" stroke="#191970" points="96.5467,-156.5336 106.9369,-154.4615 97.5223,-149.6019 96.5467,-156.5336"/>
</g>
<!-- Node6 -->
<g id="node7" class="node">
<title>Node6</title>
<g id="a_node7"><a xlink:href="classCryptoPoller.html#a40777ae9360ffe0dbdd4cb4385646ca0" target="_top" xlink:title=" ">
<polygon fill="#ffffff" stroke="#000000" points="90.5,-114.5 90.5,-133.5 230.5,-133.5 230.5,-114.5 90.5,-114.5"/>
<text text-anchor="middle" x="160.5" y="-121.5" font-family="Helvetica,sans-Serif" font-size="10.00" fill="#000000">CryptoPoller::hashAbsorb</text>
</a>
</g>
</g>
<!-- Node0&#45;&gt;Node6 -->
<g id="edge6" class="edge">
<title>Node0&#45;&gt;Node6</title>
<path fill="none" stroke="#191970" d="M51.2102,-139.3815C60.4407,-138.0824 71.39,-136.5414 82.7355,-134.9446"/>
<polygon fill="#191970" stroke="#191970" points="83.3598,-138.3913 92.7744,-133.5317 82.3842,-131.4597 83.3598,-138.3913"/>
</g>
<!-- Node7 -->
<g id="node8" class="node">
<title>Node7</title>
<g id="a_node8"><a xlink:href="classBitString.html#a9ce7e8bef847437b601aa3c3385f343a" target="_top" xlink:title=" ">
<polygon fill="#ffffff" stroke="#000000" points="110,-76.5 110,-95.5 211,-95.5 211,-76.5 110,-76.5"/>
<text text-anchor="middle" x="160.5" y="-83.5" font-family="Helvetica,sans-Serif" font-size="10.00" fill="#000000">BitString::reserve</text>
</a>
</g>
</g>
<!-- Node0&#45;&gt;Node7 -->
<g id="edge7" class="edge">
<title>Node0&#45;&gt;Node7</title>
<path fill="none" stroke="#191970" d="M38.5427,-133.3214C50.5775,-124.7949 69.2218,-112.584 87,-105 92.7281,-102.5565 98.8455,-100.3677 105.0135,-98.4228"/>
<polygon fill="#191970" stroke="#191970" points="106.0978,-101.7522 114.699,-95.5659 104.1173,-95.0382 106.0978,-101.7522"/>
</g>
<!-- Node8 -->
<g id="node9" class="node">
<title>Node8</title>
<g id="a_node9"><a xlink:href="classBitString.html#a39a133d9a366545e41d6a470255a1b64" target="_top" xlink:title=" ">
<polygon fill="#ffffff" stroke="#000000" points="98,-38.5 98,-57.5 223,-57.5 223,-38.5 98,-38.5"/>
<text text-anchor="middle" x="160.5" y="-45.5" font-family="Helvetica,sans-Serif" font-size="10.00" fill="#000000">BitString::concatenate</text>
</a>
</g>
</g>
<!-- Node0&#45;&gt;Node8 -->
<g id="edge8" class="edge">
<title>Node0&#45;&gt;Node8</title>
<path fill="none" stroke="#191970" d="M30.5322,-133.4164C39.5764,-117.1597 60.1647,-84.2656 87,-67 90.1797,-64.9542 93.5697,-63.1283 97.0831,-61.4988"/>
<polygon fill="#191970" stroke="#191970" points="98.6641,-64.6343 106.6111,-57.6275 96.0291,-58.1492 98.6641,-64.6343"/>
</g>
<!-- Node9 -->
<g id="node10" class="node">
<title>Node9</title>
<g id="a_node10"><a xlink:href="classCryptoPoller.html#aacefd128dab1c88d4c2bdf141bfa5dff" target="_top" xlink:title=" ">
<polygon fill="#ffffff" stroke="#000000" points="87,-.5 87,-19.5 234,-19.5 234,-.5 87,-.5"/>
<text text-anchor="middle" x="160.5" y="-7.5" font-family="Helvetica,sans-Serif" font-size="10.00" fill="#000000">CryptoPoller::hashSqueeze</text>
</a>
</g>
</g>
<!-- Node0&#45;&gt;Node9 -->
<g id="edge9" class="edge">
<title>Node0&#45;&gt;Node9</title>
<path fill="none" stroke="#191970" d="M27.8691,-133.3349C33.7976,-111.2549 51.4172,-56.8745 87,-29 89.3345,-27.1713 91.8263,-25.5172 94.4299,-24.0212"/>
<polygon fill="#191970" stroke="#191970" points="96.1965,-27.0537 103.6461,-19.5201 93.1245,-20.7637 96.1965,-27.0537"/>
</g>
<!-- Node4 -->
<g id="node5" class="node">
<title>Node4</title>
<g id="a_node5"><a xlink:href="classBitString.html#a129b293aa7369637810c1d54471e1258" target="_top" xlink:title=" ">
<polygon fill="#ffffff" stroke="#000000" points="270,-190.5 270,-209.5 377,-209.5 377,-190.5 270,-190.5"/>
<text text-anchor="middle" x="323.5" y="-197.5" font-family="Helvetica,sans-Serif" font-size="10.00" fill="#000000">BitString::BitString</text>
</a>
</g>
</g>
<!-- Node3&#45;&gt;Node4 -->
<g id="edge4" class="edge">
<title>Node3&#45;&gt;Node4</title>
<path fill="none" stroke="#191970" d="M219.8078,-200C232.7365,-200 246.4717,-200 259.571,-200"/>
<polygon fill="#191970" stroke="#191970" points="259.9126,-203.5001 269.9125,-200 259.9125,-196.5001 259.9126,-203.5001"/>
</g>
</g>
</svg>
