<?xml version="1.0" encoding="UTF-8" standalone="no"?>
<!DOCTYPE svg PUBLIC "-//W3C//DTD SVG 1.1//EN"
 "http://www.w3.org/Graphics/SVG/1.1/DTD/svg11.dtd">
<!-- Generated by graphviz version 2.40.1 (20161225.0304)
 -->
<!-- Title: /home/pieter/GitHub/EAGLE&#45;ZYBO&#45;Linux/src/crypto/src/keccak.hpp Pages: 1 -->
<svg width="262pt" height="162pt"
 viewBox="0.00 0.00 261.50 162.00" xmlns="http://www.w3.org/2000/svg" xmlns:xlink="http://www.w3.org/1999/xlink">
<g id="graph0" class="graph" transform="scale(1 1) rotate(0) translate(4 158)">
<title>/home/pieter/GitHub/EAGLE&#45;ZYBO&#45;Linux/src/crypto/src/keccak.hpp</title>
<polygon fill="#ffffff" stroke="transparent" points="-4,4 -4,-158 257.5,-158 257.5,4 -4,4"/>
<!-- Node0 -->
<g id="node1" class="node">
<title>Node0</title>
<g id="a_node1"><a xlink:title=" ">
<polygon fill="#bfbfbf" stroke="#000000" points="56.5,-112.5 56.5,-153.5 185.5,-153.5 185.5,-112.5 56.5,-112.5"/>
<text text-anchor="start" x="64.5" y="-141.5" font-family="Helvetica,sans-Serif" font-size="10.00" fill="#000000">/home/pieter/GitHub</text>
<text text-anchor="start" x="64.5" y="-130.5" font-family="Helvetica,sans-Serif" font-size="10.00" fill="#000000">/EAGLE&#45;ZYBO&#45;Linux/src</text>
<text text-anchor="middle" x="121" y="-119.5" font-family="Helvetica,sans-Serif" font-size="10.00" fill="#000000">/crypto/src/keccak.hpp</text>
</a>
</g>
</g>
<!-- Node1 -->
<g id="node2" class="node">
<title>Node1</title>
<g id="a_node2"><a xlink:href="bitString_8hpp.html" target="_top" xlink:title=" ">
<polygon fill="#ffffff" stroke="#000000" points="81.5,-56.5 81.5,-75.5 160.5,-75.5 160.5,-56.5 81.5,-56.5"/>
<text text-anchor="middle" x="121" y="-63.5" font-family="Helvetica,sans-Serif" font-size="10.00" fill="#000000">bitString.hpp</text>
</a>
</g>
</g>
<!-- Node0&#45;&gt;Node1 -->
<g id="edge1" class="edge">
<title>Node0&#45;&gt;Node1</title>
<path fill="none" stroke="#191970" d="M121,-112.168C121,-103.8226 121,-94.2471 121,-85.9879"/>
<polygon fill="#191970" stroke="#191970" points="124.5001,-85.7804 121,-75.7805 117.5001,-85.7805 124.5001,-85.7804"/>
</g>
<!-- Node2 -->
<g id="node3" class="node">
<title>Node2</title>
<g id="a_node3"><a xlink:title=" ">
<polygon fill="#ffffff" stroke="#bfbfbf" points="0,-.5 0,-19.5 42,-19.5 42,-.5 0,-.5"/>
<text text-anchor="middle" x="21" y="-7.5" font-family="Helvetica,sans-Serif" font-size="10.00" fill="#000000">array</text>
</a>
</g>
</g>
<!-- Node1&#45;&gt;Node2 -->
<g id="edge2" class="edge">
<title>Node1&#45;&gt;Node2</title>
<path fill="none" stroke="#191970" d="M103.5813,-56.2455C87.9515,-47.4928 64.7981,-34.527 46.9815,-24.5496"/>
<polygon fill="#191970" stroke="#191970" points="48.6543,-21.475 38.2191,-19.6427 45.234,-27.5825 48.6543,-21.475"/>
</g>
<!-- Node3 -->
<g id="node4" class="node">
<title>Node3</title>
<g id="a_node4"><a xlink:title=" ">
<polygon fill="#ffffff" stroke="#bfbfbf" points="60,-.5 60,-19.5 110,-19.5 110,-.5 60,-.5"/>
<text text-anchor="middle" x="85" y="-7.5" font-family="Helvetica,sans-Serif" font-size="10.00" fill="#000000">cstdint</text>
</a>
</g>
</g>
<!-- Node1&#45;&gt;Node3 -->
<g id="edge3" class="edge">
<title>Node1&#45;&gt;Node3</title>
<path fill="none" stroke="#191970" d="M114.7293,-56.2455C109.7736,-48.5367 102.717,-37.5598 96.7224,-28.2348"/>
<polygon fill="#191970" stroke="#191970" points="99.5506,-26.1618 91.1989,-19.6427 93.6624,-29.9471 99.5506,-26.1618"/>
</g>
<!-- Node4 -->
<g id="node5" class="node">
<title>Node4</title>
<g id="a_node5"><a xlink:title=" ">
<polygon fill="#ffffff" stroke="#bfbfbf" points="128,-.5 128,-19.5 188,-19.5 188,-.5 128,-.5"/>
<text text-anchor="middle" x="158" y="-7.5" font-family="Helvetica,sans-Serif" font-size="10.00" fill="#000000">iostream</text>
</a>
</g>
</g>
<!-- Node1&#45;&gt;Node4 -->
<g id="edge4" class="edge">
<title>Node1&#45;&gt;Node4</title>
<path fill="none" stroke="#191970" d="M127.4449,-56.2455C132.5382,-48.5367 139.7908,-37.5598 145.952,-28.2348"/>
<polygon fill="#191970" stroke="#191970" points="149.0365,-29.9155 151.6289,-19.6427 143.1962,-26.0566 149.0365,-29.9155"/>
</g>
<!-- Node5 -->
<g id="node6" class="node">
<title>Node5</title>
<g id="a_node6"><a xlink:title=" ">
<polygon fill="#ffffff" stroke="#bfbfbf" points="206.5,-.5 206.5,-19.5 253.5,-19.5 253.5,-.5 206.5,-.5"/>
<text text-anchor="middle" x="230" y="-7.5" font-family="Helvetica,sans-Serif" font-size="10.00" fill="#000000">vector</text>
</a>
</g>
</g>
<!-- Node1&#45;&gt;Node5 -->
<g id="edge5" class="edge">
<title>Node1&#45;&gt;Node5</title>
<path fill="none" stroke="#191970" d="M139.9864,-56.2455C157.1792,-47.4125 182.7238,-34.2887 202.2132,-24.2758"/>
<polygon fill="#191970" stroke="#191970" points="203.9359,-27.3257 211.2312,-19.6427 200.737,-21.0993 203.9359,-27.3257"/>
</g>
</g>
</svg>
