<?xml version="1.0" encoding="UTF-8" standalone="no"?>
<!DOCTYPE svg PUBLIC "-//W3C//DTD SVG 1.1//EN"
 "http://www.w3.org/Graphics/SVG/1.1/DTD/svg11.dtd">
<!-- Generated by graphviz version 2.40.1 (20161225.0304)
 -->
<!-- Title: /home/pieter/GitHub/EAGLE&#45;ZYBO&#45;Linux/src/crypto/src/keccak.cpp Pages: 1 -->
<svg width="1274pt" height="218pt"
 viewBox="0.00 0.00 1274.00 218.00" xmlns="http://www.w3.org/2000/svg" xmlns:xlink="http://www.w3.org/1999/xlink">
<g id="graph0" class="graph" transform="scale(1 1) rotate(0) translate(4 214)">
<title>/home/pieter/GitHub/EAGLE&#45;ZYBO&#45;Linux/src/crypto/src/keccak.cpp</title>
<polygon fill="#ffffff" stroke="transparent" points="-4,4 -4,-214 1270,-214 1270,4 -4,4"/>
<!-- Node0 -->
<g id="node1" class="node">
<title>Node0</title>
<g id="a_node1"><a xlink:title=" ">
<polygon fill="#bfbfbf" stroke="#000000" points="282.5,-168.5 282.5,-209.5 411.5,-209.5 411.5,-168.5 282.5,-168.5"/>
<text text-anchor="start" x="290.5" y="-197.5" font-family="Helvetica,sans-Serif" font-size="10.00" fill="#000000">/home/pieter/GitHub</text>
<text text-anchor="start" x="290.5" y="-186.5" font-family="Helvetica,sans-Serif" font-size="10.00" fill="#000000">/EAGLE&#45;ZYBO&#45;Linux/src</text>
<text text-anchor="middle" x="347" y="-175.5" font-family="Helvetica,sans-Serif" font-size="10.00" fill="#000000">/crypto/src/keccak.cpp</text>
</a>
</g>
</g>
<!-- Node1 -->
<g id="node2" class="node">
<title>Node1</title>
<g id="a_node2"><a xlink:href="keccak_8hpp.html" target="_top" xlink:title=" ">
<polygon fill="#ffffff" stroke="#000000" points="260,-112.5 260,-131.5 332,-131.5 332,-112.5 260,-112.5"/>
<text text-anchor="middle" x="296" y="-119.5" font-family="Helvetica,sans-Serif" font-size="10.00" fill="#000000">keccak.hpp</text>
</a>
</g>
</g>
<!-- Node0&#45;&gt;Node1 -->
<g id="edge1" class="edge">
<title>Node0&#45;&gt;Node1</title>
<path fill="none" stroke="#191970" d="M331.1428,-168.168C324.2128,-159.0639 316.1685,-148.4959 309.5264,-139.7699"/>
<polygon fill="#191970" stroke="#191970" points="312.2867,-137.6176 303.4448,-131.7805 306.7168,-141.8574 312.2867,-137.6176"/>
</g>
<!-- Node7 -->
<g id="node8" class="node">
<title>Node7</title>
<g id="a_node8"><a xlink:href="cryptoPoller_8hpp.html" target="_top" xlink:title=" ">
<polygon fill="#ffffff" stroke="#000000" points="493.5,-112.5 493.5,-131.5 588.5,-131.5 588.5,-112.5 493.5,-112.5"/>
<text text-anchor="middle" x="541" y="-119.5" font-family="Helvetica,sans-Serif" font-size="10.00" fill="#000000">cryptoPoller.hpp</text>
</a>
</g>
</g>
<!-- Node0&#45;&gt;Node7 -->
<g id="edge7" class="edge">
<title>Node0&#45;&gt;Node7</title>
<path fill="none" stroke="#191970" d="M406.5248,-168.4425C438.2684,-157.4795 476.3395,-144.3312 503.858,-134.8274"/>
<polygon fill="#191970" stroke="#191970" points="505.1781,-138.0744 513.4877,-131.5017 502.8929,-131.4579 505.1781,-138.0744"/>
</g>
<!-- Node2 -->
<g id="node3" class="node">
<title>Node2</title>
<g id="a_node3"><a xlink:href="bitString_8hpp.html" target="_top" xlink:title=" ">
<polygon fill="#ffffff" stroke="#000000" points="111.5,-56.5 111.5,-75.5 190.5,-75.5 190.5,-56.5 111.5,-56.5"/>
<text text-anchor="middle" x="151" y="-63.5" font-family="Helvetica,sans-Serif" font-size="10.00" fill="#000000">bitString.hpp</text>
</a>
</g>
</g>
<!-- Node1&#45;&gt;Node2 -->
<g id="edge2" class="edge">
<title>Node1&#45;&gt;Node2</title>
<path fill="none" stroke="#191970" d="M271.0736,-112.3733C247.3798,-103.2226 211.5489,-89.3844 185.1932,-79.2057"/>
<polygon fill="#191970" stroke="#191970" points="186.1906,-75.8389 175.6011,-75.5011 183.6686,-82.3689 186.1906,-75.8389"/>
</g>
<!-- Node3 -->
<g id="node4" class="node">
<title>Node3</title>
<g id="a_node4"><a xlink:title=" ">
<polygon fill="#ffffff" stroke="#bfbfbf" points="0,-.5 0,-19.5 42,-19.5 42,-.5 0,-.5"/>
<text text-anchor="middle" x="21" y="-7.5" font-family="Helvetica,sans-Serif" font-size="10.00" fill="#000000">array</text>
</a>
</g>
</g>
<!-- Node2&#45;&gt;Node3 -->
<g id="edge3" class="edge">
<title>Node2&#45;&gt;Node3</title>
<path fill="none" stroke="#191970" d="M128.6522,-56.3733C107.3414,-47.1932 75.0793,-33.2957 51.4291,-23.1079"/>
<polygon fill="#191970" stroke="#191970" points="52.7642,-19.8722 42.1953,-19.1303 49.9948,-26.301 52.7642,-19.8722"/>
</g>
<!-- Node4 -->
<g id="node5" class="node">
<title>Node4</title>
<g id="a_node5"><a xlink:title=" ">
<polygon fill="#ffffff" stroke="#bfbfbf" points="126,-.5 126,-19.5 176,-19.5 176,-.5 126,-.5"/>
<text text-anchor="middle" x="151" y="-7.5" font-family="Helvetica,sans-Serif" font-size="10.00" fill="#000000">cstdint</text>
</a>
</g>
</g>
<!-- Node2&#45;&gt;Node4 -->
<g id="edge4" class="edge">
<title>Node2&#45;&gt;Node4</title>
<path fill="none" stroke="#191970" d="M151,-56.2455C151,-48.9382 151,-38.6944 151,-29.7046"/>
<polygon fill="#191970" stroke="#191970" points="154.5001,-29.6426 151,-19.6427 147.5001,-29.6427 154.5001,-29.6426"/>
</g>
<!-- Node5 -->
<g id="node6" class="node">
<title>Node5</title>
<g id="a_node6"><a xlink:title=" ">
<polygon fill="#ffffff" stroke="#bfbfbf" points="194,-.5 194,-19.5 254,-19.5 254,-.5 194,-.5"/>
<text text-anchor="middle" x="224" y="-7.5" font-family="Helvetica,sans-Serif" font-size="10.00" fill="#000000">iostream</text>
</a>
</g>
</g>
<!-- Node2&#45;&gt;Node5 -->
<g id="edge5" class="edge">
<title>Node2&#45;&gt;Node5</title>
<path fill="none" stroke="#191970" d="M163.7156,-56.2455C174.602,-47.8943 190.4883,-35.7076 203.22,-25.9408"/>
<polygon fill="#191970" stroke="#191970" points="205.6261,-28.5063 211.4301,-19.6427 201.3654,-22.9523 205.6261,-28.5063"/>
</g>
<!-- Node6 -->
<g id="node7" class="node">
<title>Node6</title>
<g id="a_node7"><a xlink:title=" ">
<polygon fill="#ffffff" stroke="#bfbfbf" points="60.5,-.5 60.5,-19.5 107.5,-19.5 107.5,-.5 60.5,-.5"/>
<text text-anchor="middle" x="84" y="-7.5" font-family="Helvetica,sans-Serif" font-size="10.00" fill="#000000">vector</text>
</a>
</g>
</g>
<!-- Node2&#45;&gt;Node6 -->
<g id="edge6" class="edge">
<title>Node2&#45;&gt;Node6</title>
<path fill="none" stroke="#191970" d="M139.3295,-56.2455C129.4339,-47.9746 115.0373,-35.9416 103.4099,-26.2232"/>
<polygon fill="#191970" stroke="#191970" points="105.4542,-23.3703 95.5368,-19.6427 100.965,-28.7413 105.4542,-23.3703"/>
</g>
<!-- Node7&#45;&gt;Node4 -->
<g id="edge24" class="edge">
<title>Node7&#45;&gt;Node4</title>
<path fill="none" stroke="#191970" d="M507.1081,-112.3749C445.397,-94.8308 310.3256,-56.3455 185.9432,-20.2613"/>
<polygon fill="#191970" stroke="#191970" points="186.8245,-16.8727 176.2452,-17.4464 184.8732,-23.5953 186.8245,-16.8727"/>
</g>
<!-- Node8 -->
<g id="node9" class="node">
<title>Node8</title>
<g id="a_node9"><a xlink:href="SharedMem_8hpp.html" target="_top" xlink:title=" ">
<polygon fill="#ffffff" stroke="#000000" points="567.5,-56.5 567.5,-75.5 662.5,-75.5 662.5,-56.5 567.5,-56.5"/>
<text text-anchor="middle" x="615" y="-63.5" font-family="Helvetica,sans-Serif" font-size="10.00" fill="#000000">SharedMem.hpp</text>
</a>
</g>
</g>
<!-- Node7&#45;&gt;Node8 -->
<g id="edge8" class="edge">
<title>Node7&#45;&gt;Node8</title>
<path fill="none" stroke="#191970" d="M553.8898,-112.2455C564.9254,-103.8943 581.0292,-91.7076 593.9353,-81.9408"/>
<polygon fill="#191970" stroke="#191970" points="596.3959,-84.4681 602.2579,-75.6427 592.1717,-78.8862 596.3959,-84.4681"/>
</g>
<!-- Node20 -->
<g id="node21" class="node">
<title>Node20</title>
<g id="a_node21"><a xlink:href="cryptoException_8hpp.html" target="_top" xlink:title=" ">
<polygon fill="#ffffff" stroke="#000000" points="1113,-56.5 1113,-75.5 1229,-75.5 1229,-56.5 1113,-56.5"/>
<text text-anchor="middle" x="1171" y="-63.5" font-family="Helvetica,sans-Serif" font-size="10.00" fill="#000000">cryptoException.hpp</text>
</a>
</g>
</g>
<!-- Node7&#45;&gt;Node20 -->
<g id="edge21" class="edge">
<title>Node7&#45;&gt;Node20</title>
<path fill="none" stroke="#191970" d="M588.6106,-117.7679C699.2724,-107.9313 974.1506,-83.4977 1102.6963,-72.0714"/>
<polygon fill="#191970" stroke="#191970" points="1103.1609,-75.544 1112.8117,-71.1723 1102.5411,-68.5715 1103.1609,-75.544"/>
</g>
<!-- Node8&#45;&gt;Node5 -->
<g id="edge11" class="edge">
<title>Node8&#45;&gt;Node5</title>
<path fill="none" stroke="#191970" d="M567.4519,-61.6316C501.4619,-55.1633 378.2519,-41.623 264.1078,-20.0247"/>
<polygon fill="#191970" stroke="#191970" points="264.6323,-16.5616 254.1521,-18.1156 263.314,-23.4363 264.6323,-16.5616"/>
</g>
<!-- Node9 -->
<g id="node10" class="node">
<title>Node9</title>
<g id="a_node10"><a xlink:href="ANSIColors_8hpp.html" target="_top" xlink:title=" ">
<polygon fill="#ffffff" stroke="#000000" points="272,-.5 272,-19.5 364,-19.5 364,-.5 272,-.5"/>
<text text-anchor="middle" x="318" y="-7.5" font-family="Helvetica,sans-Serif" font-size="10.00" fill="#000000">ANSIColors.hpp</text>
</a>
</g>
</g>
<!-- Node8&#45;&gt;Node9 -->
<g id="edge9" class="edge">
<title>Node8&#45;&gt;Node9</title>
<path fill="none" stroke="#191970" d="M567.2818,-57.0026C514.6428,-47.0774 430.015,-31.1207 374.2051,-20.5976"/>
<polygon fill="#191970" stroke="#191970" points="374.6092,-17.1122 364.1338,-18.6986 373.3121,-23.991 374.6092,-17.1122"/>
</g>
<!-- Node10 -->
<g id="node11" class="node">
<title>Node10</title>
<g id="a_node11"><a xlink:title=" ">
<polygon fill="#ffffff" stroke="#bfbfbf" points="382,-.5 382,-19.5 438,-19.5 438,-.5 382,-.5"/>
<text text-anchor="middle" x="410" y="-7.5" font-family="Helvetica,sans-Serif" font-size="10.00" fill="#000000">iomanip</text>
</a>
</g>
</g>
<!-- Node8&#45;&gt;Node10 -->
<g id="edge10" class="edge">
<title>Node8&#45;&gt;Node10</title>
<path fill="none" stroke="#191970" d="M579.7592,-56.3733C543.1354,-46.3687 486.0003,-30.7611 448.286,-20.4586"/>
<polygon fill="#191970" stroke="#191970" points="448.7657,-16.9615 438.1969,-17.7026 446.9211,-23.7141 448.7657,-16.9615"/>
</g>
<!-- Node11 -->
<g id="node12" class="node">
<title>Node11</title>
<g id="a_node12"><a xlink:title=" ">
<polygon fill="#ffffff" stroke="#bfbfbf" points="456,-.5 456,-19.5 508,-19.5 508,-.5 456,-.5"/>
<text text-anchor="middle" x="482" y="-7.5" font-family="Helvetica,sans-Serif" font-size="10.00" fill="#000000">cassert</text>
</a>
</g>
</g>
<!-- Node8&#45;&gt;Node11 -->
<g id="edge12" class="edge">
<title>Node8&#45;&gt;Node11</title>
<path fill="none" stroke="#191970" d="M592.1365,-56.3733C570.595,-47.3032 538.1162,-33.6279 514.0044,-23.4755"/>
<polygon fill="#191970" stroke="#191970" points="515.1397,-20.156 504.5652,-19.5011 512.4233,-26.6075 515.1397,-20.156"/>
</g>
<!-- Node12 -->
<g id="node13" class="node">
<title>Node12</title>
<g id="a_node13"><a xlink:title=" ">
<polygon fill="#ffffff" stroke="#bfbfbf" points="526.5,-.5 526.5,-19.5 573.5,-19.5 573.5,-.5 526.5,-.5"/>
<text text-anchor="middle" x="550" y="-7.5" font-family="Helvetica,sans-Serif" font-size="10.00" fill="#000000">cerrno</text>
</a>
</g>
</g>
<!-- Node8&#45;&gt;Node12 -->
<g id="edge13" class="edge">
<title>Node8&#45;&gt;Node12</title>
<path fill="none" stroke="#191970" d="M603.6779,-56.2455C594.0777,-47.9746 580.1108,-35.9416 568.8305,-26.2232"/>
<polygon fill="#191970" stroke="#191970" points="571.053,-23.5182 561.1924,-19.6427 566.484,-28.8214 571.053,-23.5182"/>
</g>
<!-- Node13 -->
<g id="node14" class="node">
<title>Node13</title>
<g id="a_node14"><a xlink:title=" ">
<polygon fill="#ffffff" stroke="#bfbfbf" points="591.5,-.5 591.5,-19.5 638.5,-19.5 638.5,-.5 591.5,-.5"/>
<text text-anchor="middle" x="615" y="-7.5" font-family="Helvetica,sans-Serif" font-size="10.00" fill="#000000">fcntl.h</text>
</a>
</g>
</g>
<!-- Node8&#45;&gt;Node13 -->
<g id="edge14" class="edge">
<title>Node8&#45;&gt;Node13</title>
<path fill="none" stroke="#191970" d="M615,-56.2455C615,-48.9382 615,-38.6944 615,-29.7046"/>
<polygon fill="#191970" stroke="#191970" points="618.5001,-29.6426 615,-19.6427 611.5001,-29.6427 618.5001,-29.6426"/>
</g>
<!-- Node14 -->
<g id="node15" class="node">
<title>Node14</title>
<g id="a_node15"><a xlink:title=" ">
<polygon fill="#ffffff" stroke="#bfbfbf" points="657,-.5 657,-19.5 707,-19.5 707,-.5 657,-.5"/>
<text text-anchor="middle" x="682" y="-7.5" font-family="Helvetica,sans-Serif" font-size="10.00" fill="#000000">stdio.h</text>
</a>
</g>
</g>
<!-- Node8&#45;&gt;Node14 -->
<g id="edge15" class="edge">
<title>Node8&#45;&gt;Node14</title>
<path fill="none" stroke="#191970" d="M626.6705,-56.2455C636.5661,-47.9746 650.9627,-35.9416 662.5901,-26.2232"/>
<polygon fill="#191970" stroke="#191970" points="665.035,-28.7413 670.4632,-19.6427 660.5458,-23.3703 665.035,-28.7413"/>
</g>
<!-- Node15 -->
<g id="node16" class="node">
<title>Node15</title>
<g id="a_node16"><a xlink:title=" ">
<polygon fill="#ffffff" stroke="#bfbfbf" points="725.5,-.5 725.5,-19.5 778.5,-19.5 778.5,-.5 725.5,-.5"/>
<text text-anchor="middle" x="752" y="-7.5" font-family="Helvetica,sans-Serif" font-size="10.00" fill="#000000">stdlib.h</text>
</a>
</g>
</g>
<!-- Node8&#45;&gt;Node15 -->
<g id="edge16" class="edge">
<title>Node8&#45;&gt;Node15</title>
<path fill="none" stroke="#191970" d="M638.5511,-56.3733C660.8391,-47.2629 694.4937,-33.5062 719.3637,-23.3404"/>
<polygon fill="#191970" stroke="#191970" points="720.8239,-26.5247 728.7562,-19.5011 718.1753,-20.0451 720.8239,-26.5247"/>
</g>
<!-- Node16 -->
<g id="node17" class="node">
<title>Node16</title>
<g id="a_node17"><a xlink:title=" ">
<polygon fill="#ffffff" stroke="#bfbfbf" points="796.5,-.5 796.5,-19.5 873.5,-19.5 873.5,-.5 796.5,-.5"/>
<text text-anchor="middle" x="835" y="-7.5" font-family="Helvetica,sans-Serif" font-size="10.00" fill="#000000">sys/mman.h</text>
</a>
</g>
</g>
<!-- Node8&#45;&gt;Node16 -->
<g id="edge17" class="edge">
<title>Node8&#45;&gt;Node16</title>
<path fill="none" stroke="#191970" d="M652.8193,-56.3733C690.1938,-46.8598 747.4724,-32.2797 787.8071,-22.0127"/>
<polygon fill="#191970" stroke="#191970" points="788.8466,-25.3598 797.6742,-19.5011 787.1198,-18.5761 788.8466,-25.3598"/>
</g>
<!-- Node17 -->
<g id="node18" class="node">
<title>Node17</title>
<g id="a_node18"><a xlink:title=" ">
<polygon fill="#ffffff" stroke="#bfbfbf" points="892,-.5 892,-19.5 956,-19.5 956,-.5 892,-.5"/>
<text text-anchor="middle" x="924" y="-7.5" font-family="Helvetica,sans-Serif" font-size="10.00" fill="#000000">sys/stat.h</text>
</a>
</g>
</g>
<!-- Node8&#45;&gt;Node17 -->
<g id="edge18" class="edge">
<title>Node8&#45;&gt;Node17</title>
<path fill="none" stroke="#191970" d="M662.9198,-58.6789C716.4907,-50.2774 805.7392,-35.6317 882,-20 882.101,-19.9793 882.2021,-19.9585 882.3033,-19.9377"/>
<polygon fill="#191970" stroke="#191970" points="882.9086,-23.3878 891.9427,-17.8528 881.4288,-16.546 882.9086,-23.3878"/>
</g>
<!-- Node18 -->
<g id="node19" class="node">
<title>Node18</title>
<g id="a_node19"><a xlink:title=" ">
<polygon fill="#ffffff" stroke="#bfbfbf" points="974,-.5 974,-19.5 1046,-19.5 1046,-.5 974,-.5"/>
<text text-anchor="middle" x="1010" y="-7.5" font-family="Helvetica,sans-Serif" font-size="10.00" fill="#000000">sys/types.h</text>
</a>
</g>
</g>
<!-- Node8&#45;&gt;Node18 -->
<g id="edge19" class="edge">
<title>Node8&#45;&gt;Node18</title>
<path fill="none" stroke="#191970" d="M662.7568,-61.0711C728.4106,-53.9981 850.4107,-39.7926 963.8135,-20.0897"/>
<polygon fill="#191970" stroke="#191970" points="964.4615,-23.5296 973.7056,-18.353 963.251,-16.635 964.4615,-23.5296"/>
</g>
<!-- Node19 -->
<g id="node20" class="node">
<title>Node19</title>
<g id="a_node20"><a xlink:title=" ">
<polygon fill="#ffffff" stroke="#bfbfbf" points="1064,-.5 1064,-19.5 1120,-19.5 1120,-.5 1064,-.5"/>
<text text-anchor="middle" x="1092" y="-7.5" font-family="Helvetica,sans-Serif" font-size="10.00" fill="#000000">unistd.h</text>
</a>
</g>
</g>
<!-- Node8&#45;&gt;Node19 -->
<g id="edge20" class="edge">
<title>Node8&#45;&gt;Node19</title>
<path fill="none" stroke="#191970" d="M662.5647,-63.5244C741.8323,-58.856 906.0217,-46.877 1053.6747,-19.9899"/>
<polygon fill="#191970" stroke="#191970" points="1054.6283,-23.373 1063.8251,-18.1128 1053.3554,-16.4897 1054.6283,-23.373"/>
</g>
<!-- Node21 -->
<g id="node22" class="node">
<title>Node21</title>
<g id="a_node22"><a xlink:title=" ">
<polygon fill="#ffffff" stroke="#bfbfbf" points="1138.5,-.5 1138.5,-19.5 1203.5,-19.5 1203.5,-.5 1138.5,-.5"/>
<text text-anchor="middle" x="1171" y="-7.5" font-family="Helvetica,sans-Serif" font-size="10.00" fill="#000000">exception</text>
</a>
</g>
</g>
<!-- Node20&#45;&gt;Node21 -->
<g id="edge22" class="edge">
<title>Node20&#45;&gt;Node21</title>
<path fill="none" stroke="#191970" d="M1171,-56.2455C1171,-48.9382 1171,-38.6944 1171,-29.7046"/>
<polygon fill="#191970" stroke="#191970" points="1174.5001,-29.6426 1171,-19.6427 1167.5001,-29.6427 1174.5001,-29.6426"/>
</g>
<!-- Node22 -->
<g id="node23" class="node">
<title>Node22</title>
<g id="a_node23"><a xlink:title=" ">
<polygon fill="#ffffff" stroke="#bfbfbf" points="1222,-.5 1222,-19.5 1266,-19.5 1266,-.5 1222,-.5"/>
<text text-anchor="middle" x="1244" y="-7.5" font-family="Helvetica,sans-Serif" font-size="10.00" fill="#000000">string</text>
</a>
</g>
</g>
<!-- Node20&#45;&gt;Node22 -->
<g id="edge23" class="edge">
<title>Node20&#45;&gt;Node22</title>
<path fill="none" stroke="#191970" d="M1183.7156,-56.2455C1194.602,-47.8943 1210.4883,-35.7076 1223.22,-25.9408"/>
<polygon fill="#191970" stroke="#191970" points="1225.6261,-28.5063 1231.4301,-19.6427 1221.3654,-22.9523 1225.6261,-28.5063"/>
</g>
</g>
</svg>
