<?xml version="1.0" encoding="UTF-8" standalone="no"?>
<!DOCTYPE svg PUBLIC "-//W3C//DTD SVG 1.1//EN"
 "http://www.w3.org/Graphics/SVG/1.1/DTD/svg11.dtd">
<!-- Generated by graphviz version 2.40.1 (20161225.0304)
 -->
<!-- Title: /home/pieter/GitHub/EAGLE&#45;ZYBO&#45;Linux/src/crypto/xkcp/EAGLE&#45;KetjeJr.a.headers/KetJr.h Pages: 1 -->
<svg width="222pt" height="173pt"
 viewBox="0.00 0.00 222.00 173.00" xmlns="http://www.w3.org/2000/svg" xmlns:xlink="http://www.w3.org/1999/xlink">
<g id="graph0" class="graph" transform="scale(1 1) rotate(0) translate(4 169)">
<title>/home/pieter/GitHub/EAGLE&#45;ZYBO&#45;Linux/src/crypto/xkcp/EAGLE&#45;KetjeJr.a.headers/KetJr.h</title>
<polygon fill="#ffffff" stroke="transparent" points="-4,4 -4,-169 218,-169 218,4 -4,4"/>
<!-- Node0 -->
<g id="node1" class="node">
<title>Node0</title>
<g id="a_node1"><a xlink:title=" ">
<polygon fill="#bfbfbf" stroke="#000000" points="3.5,-112.5 3.5,-164.5 200.5,-164.5 200.5,-112.5 3.5,-112.5"/>
<text text-anchor="start" x="11.5" y="-152.5" font-family="Helvetica,sans-Serif" font-size="10.00" fill="#000000">/home/pieter/GitHub</text>
<text text-anchor="start" x="11.5" y="-141.5" font-family="Helvetica,sans-Serif" font-size="10.00" fill="#000000">/EAGLE&#45;ZYBO&#45;Linux/src</text>
<text text-anchor="start" x="11.5" y="-130.5" font-family="Helvetica,sans-Serif" font-size="10.00" fill="#000000">/crypto/xkcp/EAGLE&#45;KetjeJr.a.headers</text>
<text text-anchor="middle" x="102" y="-119.5" font-family="Helvetica,sans-Serif" font-size="10.00" fill="#000000">/KetJr.h</text>
</a>
</g>
</g>
<!-- Node1 -->
<g id="node2" class="node">
<title>Node1</title>
<g id="a_node2"><a xlink:href="Ket-common_8h.html" target="_top" xlink:title=" ">
<polygon fill="#ffffff" stroke="#000000" points="0,-56.5 0,-75.5 88,-75.5 88,-56.5 0,-56.5"/>
<text text-anchor="middle" x="44" y="-63.5" font-family="Helvetica,sans-Serif" font-size="10.00" fill="#000000">Ket&#45;common.h</text>
</a>
</g>
</g>
<!-- Node0&#45;&gt;Node1 -->
<g id="edge1" class="edge">
<title>Node0&#45;&gt;Node1</title>
<path fill="none" stroke="#191970" d="M81.0607,-112.3258C73.3705,-102.7131 64.8588,-92.0735 57.9339,-83.4174"/>
<polygon fill="#191970" stroke="#191970" points="60.6072,-81.1563 51.6272,-75.534 55.1411,-85.5292 60.6072,-81.1563"/>
</g>
<!-- Node3 -->
<g id="node4" class="node">
<title>Node3</title>
<g id="a_node4"><a xlink:href="EAGLE-KetjeJr_8a_8headers_2KeccakP-200-SnP_8h.html" target="_top" xlink:title=" ">
<polygon fill="#ffffff" stroke="#000000" points="106,-56.5 106,-75.5 214,-75.5 214,-56.5 106,-56.5"/>
<text text-anchor="middle" x="160" y="-63.5" font-family="Helvetica,sans-Serif" font-size="10.00" fill="#000000">KeccakP&#45;200&#45;SnP.h</text>
</a>
</g>
</g>
<!-- Node0&#45;&gt;Node3 -->
<g id="edge3" class="edge">
<title>Node0&#45;&gt;Node3</title>
<path fill="none" stroke="#191970" d="M122.9393,-112.3258C130.6295,-102.7131 139.1412,-92.0735 146.0661,-83.4174"/>
<polygon fill="#191970" stroke="#191970" points="148.8589,-85.5292 152.3728,-75.534 143.3928,-81.1563 148.8589,-85.5292"/>
</g>
<!-- Node2 -->
<g id="node3" class="node">
<title>Node2</title>
<g id="a_node3"><a xlink:title=" ">
<polygon fill="#ffffff" stroke="#bfbfbf" points="17.5,-.5 17.5,-19.5 70.5,-19.5 70.5,-.5 17.5,-.5"/>
<text text-anchor="middle" x="44" y="-7.5" font-family="Helvetica,sans-Serif" font-size="10.00" fill="#000000">string.h</text>
</a>
</g>
</g>
<!-- Node1&#45;&gt;Node2 -->
<g id="edge2" class="edge">
<title>Node1&#45;&gt;Node2</title>
<path fill="none" stroke="#191970" d="M44,-56.2455C44,-48.9382 44,-38.6944 44,-29.7046"/>
<polygon fill="#191970" stroke="#191970" points="47.5001,-29.6426 44,-19.6427 40.5001,-29.6427 47.5001,-29.6426"/>
</g>
</g>
</svg>
