<?xml version="1.0" encoding="UTF-8" standalone="no"?>
<!DOCTYPE svg PUBLIC "-//W3C//DTD SVG 1.1//EN"
 "http://www.w3.org/Graphics/SVG/1.1/DTD/svg11.dtd">
<!-- Generated by graphviz version 2.40.1 (20161225.0304)
 -->
<!-- Title: /home/pieter/GitHub/EAGLE&#45;ZYBO&#45;Linux/src/crypto/xkcp/EAGLE&#45;KetjeJr.a.headers/KetjeJr.h Pages: 1 -->
<svg width="245pt" height="173pt"
 viewBox="0.00 0.00 244.50 173.00" xmlns="http://www.w3.org/2000/svg" xmlns:xlink="http://www.w3.org/1999/xlink">
<g id="graph0" class="graph" transform="scale(1 1) rotate(0) translate(4 169)">
<title>/home/pieter/GitHub/EAGLE&#45;ZYBO&#45;Linux/src/crypto/xkcp/EAGLE&#45;KetjeJr.a.headers/KetjeJr.h</title>
<polygon fill="#ffffff" stroke="transparent" points="-4,4 -4,-169 240.5,-169 240.5,4 -4,4"/>
<!-- Node0 -->
<g id="node1" class="node">
<title>Node0</title>
<g id="a_node1"><a xlink:title=" ">
<polygon fill="#bfbfbf" stroke="#000000" points="23,-112.5 23,-164.5 220,-164.5 220,-112.5 23,-112.5"/>
<text text-anchor="start" x="31" y="-152.5" font-family="Helvetica,sans-Serif" font-size="10.00" fill="#000000">/home/pieter/GitHub</text>
<text text-anchor="start" x="31" y="-141.5" font-family="Helvetica,sans-Serif" font-size="10.00" fill="#000000">/EAGLE&#45;ZYBO&#45;Linux/src</text>
<text text-anchor="start" x="31" y="-130.5" font-family="Helvetica,sans-Serif" font-size="10.00" fill="#000000">/crypto/xkcp/EAGLE&#45;KetjeJr.a.headers</text>
<text text-anchor="middle" x="121.5" y="-119.5" font-family="Helvetica,sans-Serif" font-size="10.00" fill="#000000">/KetjeJr.h</text>
</a>
</g>
</g>
<!-- Node1 -->
<g id="node2" class="node">
<title>Node1</title>
<g id="a_node2"><a xlink:href="Ketje-common_8h.html" target="_top" xlink:title=" ">
<polygon fill="#ffffff" stroke="#000000" points="13,-56.5 13,-75.5 110,-75.5 110,-56.5 13,-56.5"/>
<text text-anchor="middle" x="61.5" y="-63.5" font-family="Helvetica,sans-Serif" font-size="10.00" fill="#000000">Ketje&#45;common.h</text>
</a>
</g>
</g>
<!-- Node0&#45;&gt;Node1 -->
<g id="edge1" class="edge">
<title>Node0&#45;&gt;Node1</title>
<path fill="none" stroke="#191970" d="M99.8386,-112.3258C91.8833,-102.7131 83.0781,-92.0735 75.9144,-83.4174"/>
<polygon fill="#191970" stroke="#191970" points="78.4623,-81.0065 69.3902,-75.534 73.0695,-85.4695 78.4623,-81.0065"/>
</g>
<!-- Node4 -->
<g id="node5" class="node">
<title>Node4</title>
<g id="a_node5"><a xlink:href="EAGLE-KetjeJr_8a_8headers_2KeccakP-200-SnP_8h.html" target="_top" xlink:title=" ">
<polygon fill="#ffffff" stroke="#000000" points="128.5,-56.5 128.5,-75.5 236.5,-75.5 236.5,-56.5 128.5,-56.5"/>
<text text-anchor="middle" x="182.5" y="-63.5" font-family="Helvetica,sans-Serif" font-size="10.00" fill="#000000">KeccakP&#45;200&#45;SnP.h</text>
</a>
</g>
</g>
<!-- Node0&#45;&gt;Node4 -->
<g id="edge4" class="edge">
<title>Node0&#45;&gt;Node4</title>
<path fill="none" stroke="#191970" d="M143.5224,-112.3258C151.6104,-102.7131 160.5623,-92.0735 167.8453,-83.4174"/>
<polygon fill="#191970" stroke="#191970" points="170.7183,-85.4392 174.4783,-75.534 165.362,-80.9325 170.7183,-85.4392"/>
</g>
<!-- Node2 -->
<g id="node3" class="node">
<title>Node2</title>
<g id="a_node3"><a xlink:title=" ">
<polygon fill="#ffffff" stroke="#bfbfbf" points="0,-.5 0,-19.5 53,-19.5 53,-.5 0,-.5"/>
<text text-anchor="middle" x="26.5" y="-7.5" font-family="Helvetica,sans-Serif" font-size="10.00" fill="#000000">string.h</text>
</a>
</g>
</g>
<!-- Node1&#45;&gt;Node2 -->
<g id="edge2" class="edge">
<title>Node1&#45;&gt;Node2</title>
<path fill="none" stroke="#191970" d="M55.4035,-56.2455C50.5855,-48.5367 43.7249,-37.5598 37.8968,-28.2348"/>
<polygon fill="#191970" stroke="#191970" points="40.7947,-26.2677 32.5267,-19.6427 34.8587,-29.9777 40.7947,-26.2677"/>
</g>
<!-- Node3 -->
<g id="node4" class="node">
<title>Node3</title>
<g id="a_node4"><a xlink:href="EAGLE-KetjeJr_8a_8headers_2align_8h.html" target="_top" xlink:title=" ">
<polygon fill="#ffffff" stroke="#000000" points="71.5,-.5 71.5,-19.5 121.5,-19.5 121.5,-.5 71.5,-.5"/>
<text text-anchor="middle" x="96.5" y="-7.5" font-family="Helvetica,sans-Serif" font-size="10.00" fill="#000000">align.h</text>
</a>
</g>
</g>
<!-- Node1&#45;&gt;Node3 -->
<g id="edge3" class="edge">
<title>Node1&#45;&gt;Node3</title>
<path fill="none" stroke="#191970" d="M67.5965,-56.2455C72.4145,-48.5367 79.2751,-37.5598 85.1032,-28.2348"/>
<polygon fill="#191970" stroke="#191970" points="88.1413,-29.9777 90.4733,-19.6427 82.2053,-26.2677 88.1413,-29.9777"/>
</g>
</g>
</svg>
