<?xml version="1.0" encoding="UTF-8" standalone="no"?>
<!DOCTYPE svg PUBLIC "-//W3C//DTD SVG 1.1//EN"
 "http://www.w3.org/Graphics/SVG/1.1/DTD/svg11.dtd">
<!-- Generated by graphviz version 2.40.1 (20161225.0304)
 -->
<!-- Title: /home/pieter/GitHub/EAGLE&#45;ZYBO&#45;Linux/src/crypto/src/ketje.cpp Pages: 1 -->
<svg width="494pt" height="274pt"
 viewBox="0.00 0.00 494.00 274.00" xmlns="http://www.w3.org/2000/svg" xmlns:xlink="http://www.w3.org/1999/xlink">
<g id="graph0" class="graph" transform="scale(1 1) rotate(0) translate(4 270)">
<title>/home/pieter/GitHub/EAGLE&#45;ZYBO&#45;Linux/src/crypto/src/ketje.cpp</title>
<polygon fill="#ffffff" stroke="transparent" points="-4,4 -4,-270 490,-270 490,4 -4,4"/>
<!-- Node0 -->
<g id="node1" class="node">
<title>Node0</title>
<g id="a_node1"><a xlink:title=" ">
<polygon fill="#bfbfbf" stroke="#000000" points="149.5,-224.5 149.5,-265.5 278.5,-265.5 278.5,-224.5 149.5,-224.5"/>
<text text-anchor="start" x="157.5" y="-253.5" font-family="Helvetica,sans-Serif" font-size="10.00" fill="#000000">/home/pieter/GitHub</text>
<text text-anchor="start" x="157.5" y="-242.5" font-family="Helvetica,sans-Serif" font-size="10.00" fill="#000000">/EAGLE&#45;ZYBO&#45;Linux/src</text>
<text text-anchor="middle" x="214" y="-231.5" font-family="Helvetica,sans-Serif" font-size="10.00" fill="#000000">/crypto/src/ketje.cpp</text>
</a>
</g>
</g>
<!-- Node1 -->
<g id="node2" class="node">
<title>Node1</title>
<g id="a_node2"><a xlink:href="ketje_8hpp.html" target="_top" xlink:title=" ">
<polygon fill="#ffffff" stroke="#000000" points="183,-168.5 183,-187.5 245,-187.5 245,-168.5 183,-168.5"/>
<text text-anchor="middle" x="214" y="-175.5" font-family="Helvetica,sans-Serif" font-size="10.00" fill="#000000">ketje.hpp</text>
</a>
</g>
</g>
<!-- Node0&#45;&gt;Node1 -->
<g id="edge1" class="edge">
<title>Node0&#45;&gt;Node1</title>
<path fill="none" stroke="#191970" d="M214,-224.168C214,-215.8226 214,-206.2471 214,-197.9879"/>
<polygon fill="#191970" stroke="#191970" points="217.5001,-197.7804 214,-187.7805 210.5001,-197.7805 217.5001,-197.7804"/>
</g>
<!-- Node2 -->
<g id="node3" class="node">
<title>Node2</title>
<g id="a_node3"><a xlink:href="bitString_8hpp.html" target="_top" xlink:title=" ">
<polygon fill="#ffffff" stroke="#000000" points="122.5,-112.5 122.5,-131.5 201.5,-131.5 201.5,-112.5 122.5,-112.5"/>
<text text-anchor="middle" x="162" y="-119.5" font-family="Helvetica,sans-Serif" font-size="10.00" fill="#000000">bitString.hpp</text>
</a>
</g>
</g>
<!-- Node1&#45;&gt;Node2 -->
<g id="edge2" class="edge">
<title>Node1&#45;&gt;Node2</title>
<path fill="none" stroke="#191970" d="M204.9423,-168.2455C197.4858,-160.2155 186.7366,-148.6394 177.8583,-139.0781"/>
<polygon fill="#191970" stroke="#191970" points="180.3232,-136.589 170.9539,-131.6427 175.1937,-141.3522 180.3232,-136.589"/>
</g>
<!-- Node7 -->
<g id="node8" class="node">
<title>Node7</title>
<g id="a_node8"><a xlink:href="cryptoPoller_8hpp.html" target="_top" xlink:title=" ">
<polygon fill="#ffffff" stroke="#000000" points="250.5,-112.5 250.5,-131.5 345.5,-131.5 345.5,-112.5 250.5,-112.5"/>
<text text-anchor="middle" x="298" y="-119.5" font-family="Helvetica,sans-Serif" font-size="10.00" fill="#000000">cryptoPoller.hpp</text>
</a>
</g>
</g>
<!-- Node1&#45;&gt;Node7 -->
<g id="edge7" class="edge">
<title>Node1&#45;&gt;Node7</title>
<path fill="none" stroke="#191970" d="M228.6317,-168.2455C241.3994,-159.7337 260.1438,-147.2375 274.9299,-137.3801"/>
<polygon fill="#191970" stroke="#191970" points="277.1569,-140.1019 283.536,-131.6427 273.274,-134.2775 277.1569,-140.1019"/>
</g>
<!-- Node3 -->
<g id="node4" class="node">
<title>Node3</title>
<g id="a_node4"><a xlink:title=" ">
<polygon fill="#ffffff" stroke="#bfbfbf" points="0,-56.5 0,-75.5 42,-75.5 42,-56.5 0,-56.5"/>
<text text-anchor="middle" x="21" y="-63.5" font-family="Helvetica,sans-Serif" font-size="10.00" fill="#000000">array</text>
</a>
</g>
</g>
<!-- Node2&#45;&gt;Node3 -->
<g id="edge3" class="edge">
<title>Node2&#45;&gt;Node3</title>
<path fill="none" stroke="#191970" d="M137.7612,-112.3733C113.8832,-102.8898 77.329,-88.3718 51.4917,-78.1102"/>
<polygon fill="#191970" stroke="#191970" points="52.7485,-74.8434 42.1627,-74.4051 50.1647,-81.3491 52.7485,-74.8434"/>
</g>
<!-- Node4 -->
<g id="node5" class="node">
<title>Node4</title>
<g id="a_node5"><a xlink:title=" ">
<polygon fill="#ffffff" stroke="#bfbfbf" points="204,-56.5 204,-75.5 254,-75.5 254,-56.5 204,-56.5"/>
<text text-anchor="middle" x="229" y="-63.5" font-family="Helvetica,sans-Serif" font-size="10.00" fill="#000000">cstdint</text>
</a>
</g>
</g>
<!-- Node2&#45;&gt;Node4 -->
<g id="edge4" class="edge">
<title>Node2&#45;&gt;Node4</title>
<path fill="none" stroke="#191970" d="M173.6705,-112.2455C183.5661,-103.9746 197.9627,-91.9416 209.5901,-82.2232"/>
<polygon fill="#191970" stroke="#191970" points="212.035,-84.7413 217.4632,-75.6427 207.5458,-79.3703 212.035,-84.7413"/>
</g>
<!-- Node5 -->
<g id="node6" class="node">
<title>Node5</title>
<g id="a_node6"><a xlink:title=" ">
<polygon fill="#ffffff" stroke="#bfbfbf" points="60,-56.5 60,-75.5 120,-75.5 120,-56.5 60,-56.5"/>
<text text-anchor="middle" x="90" y="-63.5" font-family="Helvetica,sans-Serif" font-size="10.00" fill="#000000">iostream</text>
</a>
</g>
</g>
<!-- Node2&#45;&gt;Node5 -->
<g id="edge5" class="edge">
<title>Node2&#45;&gt;Node5</title>
<path fill="none" stroke="#191970" d="M149.4586,-112.2455C138.7213,-103.8943 123.0527,-91.7076 110.4953,-81.9408"/>
<polygon fill="#191970" stroke="#191970" points="112.4401,-79.0194 102.3977,-75.6427 108.1425,-84.5449 112.4401,-79.0194"/>
</g>
<!-- Node6 -->
<g id="node7" class="node">
<title>Node6</title>
<g id="a_node7"><a xlink:title=" ">
<polygon fill="#ffffff" stroke="#bfbfbf" points="138.5,-56.5 138.5,-75.5 185.5,-75.5 185.5,-56.5 138.5,-56.5"/>
<text text-anchor="middle" x="162" y="-63.5" font-family="Helvetica,sans-Serif" font-size="10.00" fill="#000000">vector</text>
</a>
</g>
</g>
<!-- Node2&#45;&gt;Node6 -->
<g id="edge6" class="edge">
<title>Node2&#45;&gt;Node6</title>
<path fill="none" stroke="#191970" d="M162,-112.2455C162,-104.9382 162,-94.6944 162,-85.7046"/>
<polygon fill="#191970" stroke="#191970" points="165.5001,-85.6426 162,-75.6427 158.5001,-85.6427 165.5001,-85.6426"/>
</g>
<!-- Node7&#45;&gt;Node4 -->
<g id="edge10" class="edge">
<title>Node7&#45;&gt;Node4</title>
<path fill="none" stroke="#191970" d="M285.9811,-112.2455C275.7902,-103.9746 260.9638,-91.9416 248.9893,-82.2232"/>
<polygon fill="#191970" stroke="#191970" points="250.8514,-79.2268 240.8812,-75.6427 246.4402,-84.662 250.8514,-79.2268"/>
</g>
<!-- Node8 -->
<g id="node9" class="node">
<title>Node8</title>
<g id="a_node9"><a xlink:href="cryptoException_8hpp.html" target="_top" xlink:title=" ">
<polygon fill="#ffffff" stroke="#000000" points="272,-56.5 272,-75.5 388,-75.5 388,-56.5 272,-56.5"/>
<text text-anchor="middle" x="330" y="-63.5" font-family="Helvetica,sans-Serif" font-size="10.00" fill="#000000">cryptoException.hpp</text>
</a>
</g>
</g>
<!-- Node7&#45;&gt;Node8 -->
<g id="edge8" class="edge">
<title>Node7&#45;&gt;Node8</title>
<path fill="none" stroke="#191970" d="M303.574,-112.2455C307.9331,-104.617 314.1211,-93.7881 319.4133,-84.5267"/>
<polygon fill="#191970" stroke="#191970" points="322.5673,-86.0616 324.4899,-75.6427 316.4896,-82.5886 322.5673,-86.0616"/>
</g>
<!-- Node10 -->
<g id="node11" class="node">
<title>Node10</title>
<g id="a_node11"><a xlink:href="registers_8hpp.html" target="_top" xlink:title=" ">
<polygon fill="#ffffff" stroke="#000000" points="406,-56.5 406,-75.5 486,-75.5 486,-56.5 406,-56.5"/>
<text text-anchor="middle" x="446" y="-63.5" font-family="Helvetica,sans-Serif" font-size="10.00" fill="#000000">registers.hpp</text>
</a>
</g>
</g>
<!-- Node7&#45;&gt;Node10 -->
<g id="edge11" class="edge">
<title>Node7&#45;&gt;Node10</title>
<path fill="none" stroke="#191970" d="M323.4421,-112.3733C347.7326,-103.1822 384.5208,-89.2624 411.4543,-79.0713"/>
<polygon fill="#191970" stroke="#191970" points="412.7757,-82.3136 420.8899,-75.5011 410.2984,-75.7666 412.7757,-82.3136"/>
</g>
<!-- Node9 -->
<g id="node10" class="node">
<title>Node9</title>
<g id="a_node10"><a xlink:title=" ">
<polygon fill="#ffffff" stroke="#bfbfbf" points="297.5,-.5 297.5,-19.5 362.5,-19.5 362.5,-.5 297.5,-.5"/>
<text text-anchor="middle" x="330" y="-7.5" font-family="Helvetica,sans-Serif" font-size="10.00" fill="#000000">exception</text>
</a>
</g>
</g>
<!-- Node8&#45;&gt;Node9 -->
<g id="edge9" class="edge">
<title>Node8&#45;&gt;Node9</title>
<path fill="none" stroke="#191970" d="M330,-56.2455C330,-48.9382 330,-38.6944 330,-29.7046"/>
<polygon fill="#191970" stroke="#191970" points="333.5001,-29.6426 330,-19.6427 326.5001,-29.6427 333.5001,-29.6426"/>
</g>
</g>
</svg>
