<?xml version="1.0" encoding="UTF-8" standalone="no"?>
<!DOCTYPE svg PUBLIC "-//W3C//DTD SVG 1.1//EN"
 "http://www.w3.org/Graphics/SVG/1.1/DTD/svg11.dtd">
<!-- Generated by graphviz version 2.40.1 (20161225.0304)
 -->
<!-- Title: /home/pieter/GitHub/EAGLE&#45;ZYBO&#45;Linux/src/crypto/src/ketje.cpp Pages: 1 -->
<svg width="1340pt" height="274pt"
 viewBox="0.00 0.00 1339.55 274.00" xmlns="http://www.w3.org/2000/svg" xmlns:xlink="http://www.w3.org/1999/xlink">
<g id="graph0" class="graph" transform="scale(1 1) rotate(0) translate(4 270)">
<title>/home/pieter/GitHub/EAGLE&#45;ZYBO&#45;Linux/src/crypto/src/ketje.cpp</title>
<polygon fill="#ffffff" stroke="transparent" points="-4,4 -4,-270 1335.5463,-270 1335.5463,4 -4,4"/>
<!-- Node0 -->
<g id="node1" class="node">
<title>Node0</title>
<g id="a_node1"><a xlink:title=" ">
<polygon fill="#bfbfbf" stroke="#000000" points="171.0463,-224.5 171.0463,-265.5 300.0463,-265.5 300.0463,-224.5 171.0463,-224.5"/>
<text text-anchor="start" x="179.0463" y="-253.5" font-family="Helvetica,sans-Serif" font-size="10.00" fill="#000000">/home/pieter/GitHub</text>
<text text-anchor="start" x="179.0463" y="-242.5" font-family="Helvetica,sans-Serif" font-size="10.00" fill="#000000">/EAGLE&#45;ZYBO&#45;Linux/src</text>
<text text-anchor="middle" x="235.5463" y="-231.5" font-family="Helvetica,sans-Serif" font-size="10.00" fill="#000000">/crypto/src/ketje.cpp</text>
</a>
</g>
</g>
<!-- Node1 -->
<g id="node2" class="node">
<title>Node1</title>
<g id="a_node2"><a xlink:href="ketje_8hpp.html" target="_top" xlink:title=" ">
<polygon fill="#ffffff" stroke="#000000" points="204.5463,-168.5 204.5463,-187.5 266.5463,-187.5 266.5463,-168.5 204.5463,-168.5"/>
<text text-anchor="middle" x="235.5463" y="-175.5" font-family="Helvetica,sans-Serif" font-size="10.00" fill="#000000">ketje.hpp</text>
</a>
</g>
</g>
<!-- Node0&#45;&gt;Node1 -->
<g id="edge1" class="edge">
<title>Node0&#45;&gt;Node1</title>
<path fill="none" stroke="#191970" d="M235.5463,-224.168C235.5463,-215.8226 235.5463,-206.2471 235.5463,-197.9879"/>
<polygon fill="#191970" stroke="#191970" points="239.0464,-197.7804 235.5463,-187.7805 232.0464,-197.7805 239.0464,-197.7804"/>
</g>
<!-- Node2 -->
<g id="node3" class="node">
<title>Node2</title>
<g id="a_node3"><a xlink:href="bitString_8hpp.html" target="_top" xlink:title=" ">
<polygon fill="#ffffff" stroke="#000000" points="144.0463,-112.5 144.0463,-131.5 223.0463,-131.5 223.0463,-112.5 144.0463,-112.5"/>
<text text-anchor="middle" x="183.5463" y="-119.5" font-family="Helvetica,sans-Serif" font-size="10.00" fill="#000000">bitString.hpp</text>
</a>
</g>
</g>
<!-- Node1&#45;&gt;Node2 -->
<g id="edge2" class="edge">
<title>Node1&#45;&gt;Node2</title>
<path fill="none" stroke="#191970" d="M226.4886,-168.2455C219.0321,-160.2155 208.2828,-148.6394 199.4045,-139.0781"/>
<polygon fill="#191970" stroke="#191970" points="201.8695,-136.589 192.5002,-131.6427 196.7399,-141.3522 201.8695,-136.589"/>
</g>
<!-- Node9 -->
<g id="node10" class="node">
<title>Node9</title>
<g id="a_node10"><a xlink:href="cryptoPoller_8hpp.html" target="_top" xlink:title=" ">
<polygon fill="#ffffff" stroke="#000000" points="251.0463,-112.5 251.0463,-131.5 346.0463,-131.5 346.0463,-112.5 251.0463,-112.5"/>
<text text-anchor="middle" x="298.5463" y="-119.5" font-family="Helvetica,sans-Serif" font-size="10.00" fill="#000000">cryptoPoller.hpp</text>
</a>
</g>
</g>
<!-- Node1&#45;&gt;Node9 -->
<g id="edge11" class="edge">
<title>Node1&#45;&gt;Node9</title>
<path fill="none" stroke="#191970" d="M246.52,-168.2455C255.7345,-160.0549 269.0995,-148.1749 279.976,-138.5069"/>
<polygon fill="#191970" stroke="#191970" points="282.5494,-140.9023 287.6983,-131.6427 277.8989,-135.6704 282.5494,-140.9023"/>
</g>
<!-- Node3 -->
<g id="node4" class="node">
<title>Node3</title>
<g id="a_node4"><a xlink:title=" ">
<polygon fill="#ffffff" stroke="#bfbfbf" points="14.5463,-56.5 14.5463,-75.5 56.5463,-75.5 56.5463,-56.5 14.5463,-56.5"/>
<text text-anchor="middle" x="35.5463" y="-63.5" font-family="Helvetica,sans-Serif" font-size="10.00" fill="#000000">array</text>
</a>
</g>
</g>
<!-- Node2&#45;&gt;Node3 -->
<g id="edge3" class="edge">
<title>Node2&#45;&gt;Node3</title>
<path fill="none" stroke="#191970" d="M158.1042,-112.3733C132.6359,-102.7366 93.4287,-87.9015 66.2464,-77.6163"/>
<polygon fill="#191970" stroke="#191970" points="67.4152,-74.3164 56.8237,-74.0509 64.9379,-80.8634 67.4152,-74.3164"/>
</g>
<!-- Node4 -->
<g id="node5" class="node">
<title>Node4</title>
<g id="a_node5"><a xlink:href="cryptoInstruction_8hpp.html" target="_top" xlink:title=" ">
<polygon fill="#ffffff" stroke="#000000" points="74.5463,-56.5 74.5463,-75.5 194.5463,-75.5 194.5463,-56.5 74.5463,-56.5"/>
<text text-anchor="middle" x="134.5463" y="-63.5" font-family="Helvetica,sans-Serif" font-size="10.00" fill="#000000">cryptoInstruction.hpp</text>
</a>
</g>
</g>
<!-- Node2&#45;&gt;Node4 -->
<g id="edge4" class="edge">
<title>Node2&#45;&gt;Node4</title>
<path fill="none" stroke="#191970" d="M175.0111,-112.2455C168.0551,-104.2958 158.058,-92.8706 149.7412,-83.3656"/>
<polygon fill="#191970" stroke="#191970" points="152.2027,-80.8637 142.9836,-75.6427 146.9347,-85.4732 152.2027,-80.8637"/>
</g>
<!-- Node5 -->
<g id="node6" class="node">
<title>Node5</title>
<g id="a_node6"><a xlink:title=" ">
<polygon fill="#ffffff" stroke="#bfbfbf" points="191.5463,-.5 191.5463,-19.5 241.5463,-19.5 241.5463,-.5 191.5463,-.5"/>
<text text-anchor="middle" x="216.5463" y="-7.5" font-family="Helvetica,sans-Serif" font-size="10.00" fill="#000000">cstdint</text>
</a>
</g>
</g>
<!-- Node2&#45;&gt;Node5 -->
<g id="edge8" class="edge">
<title>Node2&#45;&gt;Node5</title>
<path fill="none" stroke="#191970" d="M188.4659,-112.3632C192.9597,-103.2135 199.5018,-88.9689 203.5463,-76 208.327,-60.6702 211.7225,-42.7679 213.8417,-29.4789"/>
<polygon fill="#191970" stroke="#191970" points="217.3076,-29.9664 215.3239,-19.559 210.3845,-28.9319 217.3076,-29.9664"/>
</g>
<!-- Node7 -->
<g id="node8" class="node">
<title>Node7</title>
<g id="a_node8"><a xlink:title=" ">
<polygon fill="#ffffff" stroke="#bfbfbf" points=".0463,-.5 .0463,-19.5 47.0463,-19.5 47.0463,-.5 .0463,-.5"/>
<text text-anchor="middle" x="23.5463" y="-7.5" font-family="Helvetica,sans-Serif" font-size="10.00" fill="#000000">vector</text>
</a>
</g>
</g>
<!-- Node2&#45;&gt;Node7 -->
<g id="edge10" class="edge">
<title>Node2&#45;&gt;Node7</title>
<path fill="none" stroke="#191970" d="M143.6463,-117.3462C96.4948,-110.93 22.3044,-97.6394 5.5463,-76 -5.1913,-62.1347 2.4458,-42.3072 10.8333,-28.008"/>
<polygon fill="#191970" stroke="#191970" points="13.819,-29.8358 16.268,-19.5278 7.9254,-26.0587 13.819,-29.8358"/>
</g>
<!-- Node8 -->
<g id="node9" class="node">
<title>Node8</title>
<g id="a_node9"><a xlink:title=" ">
<polygon fill="#ffffff" stroke="#bfbfbf" points="259.5463,-.5 259.5463,-19.5 319.5463,-19.5 319.5463,-.5 259.5463,-.5"/>
<text text-anchor="middle" x="289.5463" y="-7.5" font-family="Helvetica,sans-Serif" font-size="10.00" fill="#000000">iostream</text>
</a>
</g>
</g>
<!-- Node2&#45;&gt;Node8 -->
<g id="edge9" class="edge">
<title>Node2&#45;&gt;Node8</title>
<path fill="none" stroke="#191970" d="M192.5838,-112.4509C210.5762,-93.4401 251.0812,-50.6423 273.6311,-26.816"/>
<polygon fill="#191970" stroke="#191970" points="276.1998,-29.1937 280.5316,-19.5249 271.1157,-24.382 276.1998,-29.1937"/>
</g>
<!-- Node4&#45;&gt;Node5 -->
<g id="edge5" class="edge">
<title>Node4&#45;&gt;Node5</title>
<path fill="none" stroke="#191970" d="M148.8296,-56.2455C161.2933,-47.7337 179.5914,-35.2375 194.0254,-25.3801"/>
<polygon fill="#191970" stroke="#191970" points="196.1425,-28.1726 202.4266,-19.6427 192.1947,-22.392 196.1425,-28.1726"/>
</g>
<!-- Node6 -->
<g id="node7" class="node">
<title>Node6</title>
<g id="a_node7"><a xlink:title=" ">
<polygon fill="#ffffff" stroke="#bfbfbf" points="102.0463,-.5 102.0463,-19.5 167.0463,-19.5 167.0463,-.5 102.0463,-.5"/>
<text text-anchor="middle" x="134.5463" y="-7.5" font-family="Helvetica,sans-Serif" font-size="10.00" fill="#000000">stdexcept</text>
</a>
</g>
</g>
<!-- Node4&#45;&gt;Node6 -->
<g id="edge6" class="edge">
<title>Node4&#45;&gt;Node6</title>
<path fill="none" stroke="#191970" d="M134.5463,-56.2455C134.5463,-48.9382 134.5463,-38.6944 134.5463,-29.7046"/>
<polygon fill="#191970" stroke="#191970" points="138.0464,-29.6426 134.5463,-19.6427 131.0464,-29.6427 138.0464,-29.6426"/>
</g>
<!-- Node4&#45;&gt;Node7 -->
<g id="edge7" class="edge">
<title>Node4&#45;&gt;Node7</title>
<path fill="none" stroke="#191970" d="M115.4647,-56.3733C97.8061,-47.4644 71.341,-34.1127 51.3365,-24.0203"/>
<polygon fill="#191970" stroke="#191970" points="52.8835,-20.8806 42.3789,-19.5011 49.7305,-27.1303 52.8835,-20.8806"/>
</g>
<!-- Node9&#45;&gt;Node5 -->
<g id="edge28" class="edge">
<title>Node9&#45;&gt;Node5</title>
<path fill="none" stroke="#191970" d="M291.555,-112.4509C277.8179,-93.688 247.1167,-51.7548 229.5476,-27.758"/>
<polygon fill="#191970" stroke="#191970" points="232.2513,-25.5259 223.5199,-19.5249 226.6033,-29.6611 232.2513,-25.5259"/>
</g>
<!-- Node10 -->
<g id="node11" class="node">
<title>Node10</title>
<g id="a_node11"><a xlink:href="SharedMem_8hpp.html" target="_top" xlink:title=" ">
<polygon fill="#ffffff" stroke="#000000" points="664.0463,-56.5 664.0463,-75.5 759.0463,-75.5 759.0463,-56.5 664.0463,-56.5"/>
<text text-anchor="middle" x="711.5463" y="-63.5" font-family="Helvetica,sans-Serif" font-size="10.00" fill="#000000">SharedMem.hpp</text>
</a>
</g>
</g>
<!-- Node9&#45;&gt;Node10 -->
<g id="edge12" class="edge">
<title>Node9&#45;&gt;Node10</title>
<path fill="none" stroke="#191970" d="M346.3261,-115.5214C422.6609,-105.1709 571.8608,-84.9404 653.965,-73.8076"/>
<polygon fill="#191970" stroke="#191970" points="654.4391,-77.2755 663.8781,-72.4635 653.4985,-70.3389 654.4391,-77.2755"/>
</g>
<!-- Node22 -->
<g id="node23" class="node">
<title>Node22</title>
<g id="a_node23"><a xlink:href="cryptoException_8hpp.html" target="_top" xlink:title=" ">
<polygon fill="#ffffff" stroke="#000000" points="1178.5463,-56.5 1178.5463,-75.5 1294.5463,-75.5 1294.5463,-56.5 1178.5463,-56.5"/>
<text text-anchor="middle" x="1236.5463" y="-63.5" font-family="Helvetica,sans-Serif" font-size="10.00" fill="#000000">cryptoException.hpp</text>
</a>
</g>
</g>
<!-- Node9&#45;&gt;Node22 -->
<g id="edge25" class="edge">
<title>Node9&#45;&gt;Node22</title>
<path fill="none" stroke="#191970" d="M346.3514,-119.146C500.8975,-109.9193 987.4644,-80.8706 1168.1308,-70.0845"/>
<polygon fill="#191970" stroke="#191970" points="1168.5284,-73.5671 1178.302,-69.4773 1168.1111,-66.5795 1168.5284,-73.5671"/>
</g>
<!-- Node10&#45;&gt;Node8 -->
<g id="edge15" class="edge">
<title>Node10&#45;&gt;Node8</title>
<path fill="none" stroke="#191970" d="M663.7713,-62.2943C592.9129,-56.3534 455.6653,-43.1427 329.8845,-20.0454"/>
<polygon fill="#191970" stroke="#191970" points="330.1642,-16.5374 319.6924,-18.1471 328.8824,-23.4191 330.1642,-16.5374"/>
</g>
<!-- Node11 -->
<g id="node12" class="node">
<title>Node11</title>
<g id="a_node12"><a xlink:href="ANSIColors_8hpp.html" target="_top" xlink:title=" ">
<polygon fill="#ffffff" stroke="#000000" points="501.5463,-.5 501.5463,-19.5 593.5463,-19.5 593.5463,-.5 501.5463,-.5"/>
<text text-anchor="middle" x="547.5463" y="-7.5" font-family="Helvetica,sans-Serif" font-size="10.00" fill="#000000">ANSIColors.hpp</text>
</a>
</g>
</g>
<!-- Node10&#45;&gt;Node11 -->
<g id="edge13" class="edge">
<title>Node10&#45;&gt;Node11</title>
<path fill="none" stroke="#191970" d="M683.3537,-56.3733C656.201,-47.1016 614.9556,-33.0178 585.0438,-22.804"/>
<polygon fill="#191970" stroke="#191970" points="585.9655,-19.4204 575.371,-19.5011 583.7035,-26.0449 585.9655,-19.4204"/>
</g>
<!-- Node12 -->
<g id="node13" class="node">
<title>Node12</title>
<g id="a_node13"><a xlink:title=" ">
<polygon fill="#ffffff" stroke="#bfbfbf" points="611.5463,-.5 611.5463,-19.5 667.5463,-19.5 667.5463,-.5 611.5463,-.5"/>
<text text-anchor="middle" x="639.5463" y="-7.5" font-family="Helvetica,sans-Serif" font-size="10.00" fill="#000000">iomanip</text>
</a>
</g>
</g>
<!-- Node10&#45;&gt;Node12 -->
<g id="edge14" class="edge">
<title>Node10&#45;&gt;Node12</title>
<path fill="none" stroke="#191970" d="M699.0048,-56.2455C688.2675,-47.8943 672.5989,-35.7076 660.0416,-25.9408"/>
<polygon fill="#191970" stroke="#191970" points="661.9863,-23.0194 651.944,-19.6427 657.6887,-28.5449 661.9863,-23.0194"/>
</g>
<!-- Node13 -->
<g id="node14" class="node">
<title>Node13</title>
<g id="a_node14"><a xlink:title=" ">
<polygon fill="#ffffff" stroke="#bfbfbf" points="685.5463,-.5 685.5463,-19.5 737.5463,-19.5 737.5463,-.5 685.5463,-.5"/>
<text text-anchor="middle" x="711.5463" y="-7.5" font-family="Helvetica,sans-Serif" font-size="10.00" fill="#000000">cassert</text>
</a>
</g>
</g>
<!-- Node10&#45;&gt;Node13 -->
<g id="edge16" class="edge">
<title>Node10&#45;&gt;Node13</title>
<path fill="none" stroke="#191970" d="M711.5463,-56.2455C711.5463,-48.9382 711.5463,-38.6944 711.5463,-29.7046"/>
<polygon fill="#191970" stroke="#191970" points="715.0464,-29.6426 711.5463,-19.6427 708.0464,-29.6427 715.0464,-29.6426"/>
</g>
<!-- Node14 -->
<g id="node15" class="node">
<title>Node14</title>
<g id="a_node15"><a xlink:title=" ">
<polygon fill="#ffffff" stroke="#bfbfbf" points="756.0463,-.5 756.0463,-19.5 803.0463,-19.5 803.0463,-.5 756.0463,-.5"/>
<text text-anchor="middle" x="779.5463" y="-7.5" font-family="Helvetica,sans-Serif" font-size="10.00" fill="#000000">cerrno</text>
</a>
</g>
</g>
<!-- Node10&#45;&gt;Node14 -->
<g id="edge17" class="edge">
<title>Node10&#45;&gt;Node14</title>
<path fill="none" stroke="#191970" d="M723.391,-56.2455C733.4342,-47.9746 748.0457,-35.9416 759.8466,-26.2232"/>
<polygon fill="#191970" stroke="#191970" points="762.343,-28.7015 767.8373,-19.6427 757.893,-23.298 762.343,-28.7015"/>
</g>
<!-- Node15 -->
<g id="node16" class="node">
<title>Node15</title>
<g id="a_node16"><a xlink:title=" ">
<polygon fill="#ffffff" stroke="#bfbfbf" points="821.0463,-.5 821.0463,-19.5 868.0463,-19.5 868.0463,-.5 821.0463,-.5"/>
<text text-anchor="middle" x="844.5463" y="-7.5" font-family="Helvetica,sans-Serif" font-size="10.00" fill="#000000">fcntl.h</text>
</a>
</g>
</g>
<!-- Node10&#45;&gt;Node15 -->
<g id="edge18" class="edge">
<title>Node10&#45;&gt;Node15</title>
<path fill="none" stroke="#191970" d="M734.4098,-56.3733C755.9512,-47.3032 788.43,-33.6279 812.5419,-23.4755"/>
<polygon fill="#191970" stroke="#191970" points="814.123,-26.6075 821.9811,-19.5011 811.4065,-20.156 814.123,-26.6075"/>
</g>
<!-- Node16 -->
<g id="node17" class="node">
<title>Node16</title>
<g id="a_node17"><a xlink:title=" ">
<polygon fill="#ffffff" stroke="#bfbfbf" points="886.5463,-.5 886.5463,-19.5 936.5463,-19.5 936.5463,-.5 886.5463,-.5"/>
<text text-anchor="middle" x="911.5463" y="-7.5" font-family="Helvetica,sans-Serif" font-size="10.00" fill="#000000">stdio.h</text>
</a>
</g>
</g>
<!-- Node10&#45;&gt;Node16 -->
<g id="edge19" class="edge">
<title>Node10&#45;&gt;Node16</title>
<path fill="none" stroke="#191970" d="M746.5667,-56.4674C778.1573,-47.8303 826.146,-34.6159 876.5386,-20.2599"/>
<polygon fill="#191970" stroke="#191970" points="877.6531,-23.5817 886.3081,-17.4709 875.7314,-16.8506 877.6531,-23.5817"/>
</g>
<!-- Node17 -->
<g id="node18" class="node">
<title>Node17</title>
<g id="a_node18"><a xlink:title=" ">
<polygon fill="#ffffff" stroke="#bfbfbf" points="955.0463,-.5 955.0463,-19.5 1008.0463,-19.5 1008.0463,-.5 955.0463,-.5"/>
<text text-anchor="middle" x="981.5463" y="-7.5" font-family="Helvetica,sans-Serif" font-size="10.00" fill="#000000">stdlib.h</text>
</a>
</g>
</g>
<!-- Node10&#45;&gt;Node17 -->
<g id="edge20" class="edge">
<title>Node10&#45;&gt;Node17</title>
<path fill="none" stroke="#191970" d="M759.2828,-57.7258C804.6032,-49.6218 874.8269,-36.4226 944.974,-19.9954"/>
<polygon fill="#191970" stroke="#191970" points="945.9424,-23.363 954.869,-17.6562 944.3319,-16.5507 945.9424,-23.363"/>
</g>
<!-- Node18 -->
<g id="node19" class="node">
<title>Node18</title>
<g id="a_node19"><a xlink:title=" ">
<polygon fill="#ffffff" stroke="#bfbfbf" points="1026.0463,-.5 1026.0463,-19.5 1103.0463,-19.5 1103.0463,-.5 1026.0463,-.5"/>
<text text-anchor="middle" x="1064.5463" y="-7.5" font-family="Helvetica,sans-Serif" font-size="10.00" fill="#000000">sys/mman.h</text>
</a>
</g>
</g>
<!-- Node10&#45;&gt;Node18 -->
<g id="edge21" class="edge">
<title>Node10&#45;&gt;Node18</title>
<path fill="none" stroke="#191970" d="M759.1337,-59.754C817.4348,-51.9005 919.438,-37.5104 1015.9337,-20.2177"/>
<polygon fill="#191970" stroke="#191970" points="1016.6356,-23.6477 1025.8542,-18.4259 1015.3913,-16.7591 1016.6356,-23.6477"/>
</g>
<!-- Node19 -->
<g id="node20" class="node">
<title>Node19</title>
<g id="a_node20"><a xlink:title=" ">
<polygon fill="#ffffff" stroke="#bfbfbf" points="1121.5463,-.5 1121.5463,-19.5 1185.5463,-19.5 1185.5463,-.5 1121.5463,-.5"/>
<text text-anchor="middle" x="1153.5463" y="-7.5" font-family="Helvetica,sans-Serif" font-size="10.00" fill="#000000">sys/stat.h</text>
</a>
</g>
</g>
<!-- Node10&#45;&gt;Node19 -->
<g id="edge22" class="edge">
<title>Node10&#45;&gt;Node19</title>
<path fill="none" stroke="#191970" d="M759.0494,-62.4854C832.5637,-56.6233 978.443,-43.308 1111.439,-20.0113"/>
<polygon fill="#191970" stroke="#191970" points="1112.1637,-23.4374 1121.3981,-18.2435 1110.9403,-16.5452 1112.1637,-23.4374"/>
</g>
<!-- Node20 -->
<g id="node21" class="node">
<title>Node20</title>
<g id="a_node21"><a xlink:title=" ">
<polygon fill="#ffffff" stroke="#bfbfbf" points="337.5463,-.5 337.5463,-19.5 409.5463,-19.5 409.5463,-.5 337.5463,-.5"/>
<text text-anchor="middle" x="373.5463" y="-7.5" font-family="Helvetica,sans-Serif" font-size="10.00" fill="#000000">sys/types.h</text>
</a>
</g>
</g>
<!-- Node10&#45;&gt;Node20 -->
<g id="edge23" class="edge">
<title>Node10&#45;&gt;Node20</title>
<path fill="none" stroke="#191970" d="M663.9385,-59.4656C607.8779,-51.5623 511.7378,-37.3582 419.8773,-20.1655"/>
<polygon fill="#191970" stroke="#191970" points="420.3307,-16.6893 409.8551,-18.2744 419.0327,-23.568 420.3307,-16.6893"/>
</g>
<!-- Node21 -->
<g id="node22" class="node">
<title>Node21</title>
<g id="a_node22"><a xlink:title=" ">
<polygon fill="#ffffff" stroke="#bfbfbf" points="427.5463,-.5 427.5463,-19.5 483.5463,-19.5 483.5463,-.5 427.5463,-.5"/>
<text text-anchor="middle" x="455.5463" y="-7.5" font-family="Helvetica,sans-Serif" font-size="10.00" fill="#000000">unistd.h</text>
</a>
</g>
</g>
<!-- Node10&#45;&gt;Node21 -->
<g id="edge24" class="edge">
<title>Node10&#45;&gt;Node21</title>
<path fill="none" stroke="#191970" d="M663.9523,-56.8154C621.6447,-48.4683 557.8931,-35.4454 493.6762,-20.1784"/>
<polygon fill="#191970" stroke="#191970" points="494.3258,-16.7351 483.7856,-17.8098 492.6955,-23.5426 494.3258,-16.7351"/>
</g>
<!-- Node23 -->
<g id="node24" class="node">
<title>Node23</title>
<g id="a_node24"><a xlink:title=" ">
<polygon fill="#ffffff" stroke="#bfbfbf" points="1204.0463,-.5 1204.0463,-19.5 1269.0463,-19.5 1269.0463,-.5 1204.0463,-.5"/>
<text text-anchor="middle" x="1236.5463" y="-7.5" font-family="Helvetica,sans-Serif" font-size="10.00" fill="#000000">exception</text>
</a>
</g>
</g>
<!-- Node22&#45;&gt;Node23 -->
<g id="edge26" class="edge">
<title>Node22&#45;&gt;Node23</title>
<path fill="none" stroke="#191970" d="M1236.5463,-56.2455C1236.5463,-48.9382 1236.5463,-38.6944 1236.5463,-29.7046"/>
<polygon fill="#191970" stroke="#191970" points="1240.0464,-29.6426 1236.5463,-19.6427 1233.0464,-29.6427 1240.0464,-29.6426"/>
</g>
<!-- Node24 -->
<g id="node25" class="node">
<title>Node24</title>
<g id="a_node25"><a xlink:title=" ">
<polygon fill="#ffffff" stroke="#bfbfbf" points="1287.5463,-.5 1287.5463,-19.5 1331.5463,-19.5 1331.5463,-.5 1287.5463,-.5"/>
<text text-anchor="middle" x="1309.5463" y="-7.5" font-family="Helvetica,sans-Serif" font-size="10.00" fill="#000000">string</text>
</a>
</g>
</g>
<!-- Node22&#45;&gt;Node24 -->
<g id="edge27" class="edge">
<title>Node22&#45;&gt;Node24</title>
<path fill="none" stroke="#191970" d="M1249.2619,-56.2455C1260.1483,-47.8943 1276.0345,-35.7076 1288.7663,-25.9408"/>
<polygon fill="#191970" stroke="#191970" points="1291.1723,-28.5063 1296.9764,-19.6427 1286.9117,-22.9523 1291.1723,-28.5063"/>
</g>
</g>
</svg>
