<?xml version="1.0" encoding="UTF-8" standalone="no"?>
<!DOCTYPE svg PUBLIC "-//W3C//DTD SVG 1.1//EN"
 "http://www.w3.org/Graphics/SVG/1.1/DTD/svg11.dtd">
<!-- Generated by graphviz version 2.40.1 (20161225.0304)
 -->
<!-- Title: /home/pieter/GitHub/EAGLE&#45;ZYBO&#45;Linux/src/crypto/src/ketje.hpp Pages: 1 -->
<svg width="510pt" height="218pt"
 viewBox="0.00 0.00 510.00 218.00" xmlns="http://www.w3.org/2000/svg" xmlns:xlink="http://www.w3.org/1999/xlink">
<g id="graph0" class="graph" transform="scale(1 1) rotate(0) translate(4 214)">
<title>/home/pieter/GitHub/EAGLE&#45;ZYBO&#45;Linux/src/crypto/src/ketje.hpp</title>
<polygon fill="#ffffff" stroke="transparent" points="-4,4 -4,-214 506,-214 506,4 -4,4"/>
<!-- Node0 -->
<g id="node1" class="node">
<title>Node0</title>
<g id="a_node1"><a xlink:title=" ">
<polygon fill="#bfbfbf" stroke="#000000" points="149.5,-168.5 149.5,-209.5 278.5,-209.5 278.5,-168.5 149.5,-168.5"/>
<text text-anchor="start" x="157.5" y="-197.5" font-family="Helvetica,sans-Serif" font-size="10.00" fill="#000000">/home/pieter/GitHub</text>
<text text-anchor="start" x="157.5" y="-186.5" font-family="Helvetica,sans-Serif" font-size="10.00" fill="#000000">/EAGLE&#45;ZYBO&#45;Linux/src</text>
<text text-anchor="middle" x="214" y="-175.5" font-family="Helvetica,sans-Serif" font-size="10.00" fill="#000000">/crypto/src/ketje.hpp</text>
</a>
</g>
</g>
<!-- Node1 -->
<g id="node2" class="node">
<title>Node1</title>
<g id="a_node2"><a xlink:href="bitString_8hpp.html" target="_top" xlink:title=" ">
<polygon fill="#ffffff" stroke="#000000" points="122.5,-112.5 122.5,-131.5 201.5,-131.5 201.5,-112.5 122.5,-112.5"/>
<text text-anchor="middle" x="162" y="-119.5" font-family="Helvetica,sans-Serif" font-size="10.00" fill="#000000">bitString.hpp</text>
</a>
</g>
</g>
<!-- Node0&#45;&gt;Node1 -->
<g id="edge1" class="edge">
<title>Node0&#45;&gt;Node1</title>
<path fill="none" stroke="#191970" d="M197.8319,-168.168C190.766,-159.0639 182.564,-148.4959 175.7916,-139.7699"/>
<polygon fill="#191970" stroke="#191970" points="178.4871,-137.5344 169.5908,-131.7805 172.9571,-141.8263 178.4871,-137.5344"/>
</g>
<!-- Node6 -->
<g id="node7" class="node">
<title>Node6</title>
<g id="a_node7"><a xlink:href="cryptoPoller_8hpp.html" target="_top" xlink:title=" ">
<polygon fill="#ffffff" stroke="#000000" points="245.5,-112.5 245.5,-131.5 340.5,-131.5 340.5,-112.5 245.5,-112.5"/>
<text text-anchor="middle" x="293" y="-119.5" font-family="Helvetica,sans-Serif" font-size="10.00" fill="#000000">cryptoPoller.hpp</text>
</a>
</g>
</g>
<!-- Node0&#45;&gt;Node6 -->
<g id="edge6" class="edge">
<title>Node0&#45;&gt;Node6</title>
<path fill="none" stroke="#191970" d="M238.563,-168.168C249.8569,-158.5897 263.0613,-147.3911 273.6368,-138.422"/>
<polygon fill="#191970" stroke="#191970" points="276.1051,-140.9179 281.4678,-131.7805 271.5774,-135.5793 276.1051,-140.9179"/>
</g>
<!-- Node2 -->
<g id="node3" class="node">
<title>Node2</title>
<g id="a_node3"><a xlink:title=" ">
<polygon fill="#ffffff" stroke="#bfbfbf" points="0,-56.5 0,-75.5 42,-75.5 42,-56.5 0,-56.5"/>
<text text-anchor="middle" x="21" y="-63.5" font-family="Helvetica,sans-Serif" font-size="10.00" fill="#000000">array</text>
</a>
</g>
</g>
<!-- Node1&#45;&gt;Node2 -->
<g id="edge2" class="edge">
<title>Node1&#45;&gt;Node2</title>
<path fill="none" stroke="#191970" d="M137.7612,-112.3733C113.8832,-102.8898 77.329,-88.3718 51.4917,-78.1102"/>
<polygon fill="#191970" stroke="#191970" points="52.7485,-74.8434 42.1627,-74.4051 50.1647,-81.3491 52.7485,-74.8434"/>
</g>
<!-- Node3 -->
<g id="node4" class="node">
<title>Node3</title>
<g id="a_node4"><a xlink:title=" ">
<polygon fill="#ffffff" stroke="#bfbfbf" points="204,-56.5 204,-75.5 254,-75.5 254,-56.5 204,-56.5"/>
<text text-anchor="middle" x="229" y="-63.5" font-family="Helvetica,sans-Serif" font-size="10.00" fill="#000000">cstdint</text>
</a>
</g>
</g>
<!-- Node1&#45;&gt;Node3 -->
<g id="edge3" class="edge">
<title>Node1&#45;&gt;Node3</title>
<path fill="none" stroke="#191970" d="M173.6705,-112.2455C183.5661,-103.9746 197.9627,-91.9416 209.5901,-82.2232"/>
<polygon fill="#191970" stroke="#191970" points="212.035,-84.7413 217.4632,-75.6427 207.5458,-79.3703 212.035,-84.7413"/>
</g>
<!-- Node4 -->
<g id="node5" class="node">
<title>Node4</title>
<g id="a_node5"><a xlink:title=" ">
<polygon fill="#ffffff" stroke="#bfbfbf" points="60,-56.5 60,-75.5 120,-75.5 120,-56.5 60,-56.5"/>
<text text-anchor="middle" x="90" y="-63.5" font-family="Helvetica,sans-Serif" font-size="10.00" fill="#000000">iostream</text>
</a>
</g>
</g>
<!-- Node1&#45;&gt;Node4 -->
<g id="edge4" class="edge">
<title>Node1&#45;&gt;Node4</title>
<path fill="none" stroke="#191970" d="M149.4586,-112.2455C138.7213,-103.8943 123.0527,-91.7076 110.4953,-81.9408"/>
<polygon fill="#191970" stroke="#191970" points="112.4401,-79.0194 102.3977,-75.6427 108.1425,-84.5449 112.4401,-79.0194"/>
</g>
<!-- Node5 -->
<g id="node6" class="node">
<title>Node5</title>
<g id="a_node6"><a xlink:title=" ">
<polygon fill="#ffffff" stroke="#bfbfbf" points="138.5,-56.5 138.5,-75.5 185.5,-75.5 185.5,-56.5 138.5,-56.5"/>
<text text-anchor="middle" x="162" y="-63.5" font-family="Helvetica,sans-Serif" font-size="10.00" fill="#000000">vector</text>
</a>
</g>
</g>
<!-- Node1&#45;&gt;Node5 -->
<g id="edge5" class="edge">
<title>Node1&#45;&gt;Node5</title>
<path fill="none" stroke="#191970" d="M162,-112.2455C162,-104.9382 162,-94.6944 162,-85.7046"/>
<polygon fill="#191970" stroke="#191970" points="165.5001,-85.6426 162,-75.6427 158.5001,-85.6427 165.5001,-85.6426"/>
</g>
<!-- Node6&#45;&gt;Node3 -->
<g id="edge10" class="edge">
<title>Node6&#45;&gt;Node3</title>
<path fill="none" stroke="#191970" d="M281.8521,-112.2455C272.4913,-104.0549 258.9142,-92.1749 247.8651,-82.5069"/>
<polygon fill="#191970" stroke="#191970" points="249.8508,-79.5937 240.0202,-75.6427 245.2412,-84.8618 249.8508,-79.5937"/>
</g>
<!-- Node7 -->
<g id="node8" class="node">
<title>Node7</title>
<g id="a_node8"><a xlink:title=" ">
<polygon fill="#ffffff" stroke="#bfbfbf" points="272.5,-56.5 272.5,-75.5 367.5,-75.5 367.5,-56.5 272.5,-56.5"/>
<text text-anchor="middle" x="320" y="-63.5" font-family="Helvetica,sans-Serif" font-size="10.00" fill="#000000">SharedMem.hpp</text>
</a>
</g>
</g>
<!-- Node6&#45;&gt;Node7 -->
<g id="edge7" class="edge">
<title>Node6&#45;&gt;Node7</title>
<path fill="none" stroke="#191970" d="M297.703,-112.2455C301.3424,-104.6973 306.4924,-94.0158 310.9262,-84.8197"/>
<polygon fill="#191970" stroke="#191970" points="314.1605,-86.1704 315.3509,-75.6427 307.8551,-83.1303 314.1605,-86.1704"/>
</g>
<!-- Node8 -->
<g id="node9" class="node">
<title>Node8</title>
<g id="a_node9"><a xlink:href="cryptoException_8hpp.html" target="_top" xlink:title=" ">
<polygon fill="#ffffff" stroke="#000000" points="386,-56.5 386,-75.5 502,-75.5 502,-56.5 386,-56.5"/>
<text text-anchor="middle" x="444" y="-63.5" font-family="Helvetica,sans-Serif" font-size="10.00" fill="#000000">cryptoException.hpp</text>
</a>
</g>
</g>
<!-- Node6&#45;&gt;Node8 -->
<g id="edge8" class="edge">
<title>Node6&#45;&gt;Node8</title>
<path fill="none" stroke="#191970" d="M318.9578,-112.3733C343.7407,-103.1822 381.2746,-89.2624 408.754,-79.0713"/>
<polygon fill="#191970" stroke="#191970" points="410.2219,-82.26 418.3809,-75.5011 407.7879,-75.6968 410.2219,-82.26"/>
</g>
<!-- Node9 -->
<g id="node10" class="node">
<title>Node9</title>
<g id="a_node10"><a xlink:title=" ">
<polygon fill="#ffffff" stroke="#bfbfbf" points="411.5,-.5 411.5,-19.5 476.5,-19.5 476.5,-.5 411.5,-.5"/>
<text text-anchor="middle" x="444" y="-7.5" font-family="Helvetica,sans-Serif" font-size="10.00" fill="#000000">exception</text>
</a>
</g>
</g>
<!-- Node8&#45;&gt;Node9 -->
<g id="edge9" class="edge">
<title>Node8&#45;&gt;Node9</title>
<path fill="none" stroke="#191970" d="M444,-56.2455C444,-48.9382 444,-38.6944 444,-29.7046"/>
<polygon fill="#191970" stroke="#191970" points="447.5001,-29.6426 444,-19.6427 440.5001,-29.6427 447.5001,-29.6426"/>
</g>
</g>
</svg>
