<?xml version="1.0" encoding="UTF-8" standalone="no"?>
<!DOCTYPE svg PUBLIC "-//W3C//DTD SVG 1.1//EN"
 "http://www.w3.org/Graphics/SVG/1.1/DTD/svg11.dtd">
<!-- Generated by graphviz version 2.40.1 (20161225.0304)
 -->
<!-- Title: inv Pages: 1 -->
<svg width="522pt" height="142pt"
 viewBox="0.00 0.00 522.00 142.00" xmlns="http://www.w3.org/2000/svg" xmlns:xlink="http://www.w3.org/1999/xlink">
<g id="graph0" class="graph" transform="scale(1 1) rotate(0) translate(4 138)">
<title>inv</title>
<polygon fill="#ffffff" stroke="transparent" points="-4,4 -4,-138 518,-138 518,4 -4,4"/>
<!-- Node0 -->
<g id="node1" class="node">
<title>Node0</title>
<g id="a_node1"><a xlink:title=" ">
<polygon fill="#bfbfbf" stroke="#000000" points="0,-38.5 0,-57.5 32,-57.5 32,-38.5 0,-38.5"/>
<text text-anchor="middle" x="16" y="-45.5" font-family="Helvetica,sans-Serif" font-size="10.00" fill="#000000">inv</text>
</a>
</g>
</g>
<!-- Node1 -->
<g id="node2" class="node">
<title>Node1</title>
<g id="a_node2"><a xlink:href="LeastSquares_8hpp.html#a3e86962f655361a684f770b14c9fe1e2" target="_top" xlink:title=" ">
<polygon fill="#ffffff" stroke="#000000" points="68,-38.5 68,-57.5 176,-57.5 176,-38.5 68,-38.5"/>
<text text-anchor="middle" x="122" y="-45.5" font-family="Helvetica,sans-Serif" font-size="10.00" fill="#000000">solveLeastSquares</text>
</a>
</g>
</g>
<!-- Node0&#45;&gt;Node1 -->
<g id="edge1" class="edge">
<title>Node0&#45;&gt;Node1</title>
<path fill="none" stroke="#191970" d="M32.0991,-48C39.3206,-48 48.3565,-48 57.8948,-48"/>
<polygon fill="#191970" stroke="#191970" points="57.9617,-51.5001 67.9617,-48 57.9616,-44.5001 57.9617,-51.5001"/>
</g>
<!-- Node2 -->
<g id="node3" class="node">
<title>Node2</title>
<g id="a_node3"><a xlink:href="HouseholderQR_8hpp.html#a16f7547f23439d1eda0fcbde69451ef9" target="_top" xlink:title=" ">
<polygon fill="#ffffff" stroke="#000000" points="223,-76.5 223,-95.5 314,-95.5 314,-76.5 223,-76.5"/>
<text text-anchor="middle" x="268.5" y="-83.5" font-family="Helvetica,sans-Serif" font-size="10.00" fill="#000000">householderQR</text>
</a>
</g>
</g>
<!-- Node1&#45;&gt;Node2 -->
<g id="edge2" class="edge">
<title>Node1&#45;&gt;Node2</title>
<path fill="none" stroke="#191970" d="M158.9681,-57.589C178.1262,-62.5583 201.7142,-68.6767 222.0878,-73.9613"/>
<polygon fill="#191970" stroke="#191970" points="221.2392,-77.357 231.7977,-76.4799 222.9968,-70.5812 221.2392,-77.357"/>
</g>
<!-- Node6 -->
<g id="node7" class="node">
<title>Node6</title>
<g id="a_node7"><a xlink:href="Array_8hpp.html#a715393c15ab134b1f9566fe20d85d390" target="_top" xlink:title=" ">
<polygon fill="#ffffff" stroke="#000000" points="363,-38.5 363,-57.5 401,-57.5 401,-38.5 363,-38.5"/>
<text text-anchor="middle" x="382" y="-45.5" font-family="Helvetica,sans-Serif" font-size="10.00" fill="#000000">sum</text>
</a>
</g>
</g>
<!-- Node1&#45;&gt;Node6 -->
<g id="edge10" class="edge">
<title>Node1&#45;&gt;Node6</title>
<path fill="none" stroke="#191970" d="M176.188,-48C229.8558,-48 310.0206,-48 352.7355,-48"/>
<polygon fill="#191970" stroke="#191970" points="352.9968,-51.5001 362.9968,-48 352.9967,-44.5001 352.9968,-51.5001"/>
</g>
<!-- Node9 -->
<g id="node10" class="node">
<title>Node9</title>
<g id="a_node10"><a xlink:href="structQR.html#a8001dce66a751b468c5ae4b85d964ff2" target="_top" xlink:title=" ">
<polygon fill="#ffffff" stroke="#000000" points="212,-.5 212,-19.5 325,-19.5 325,-.5 212,-.5"/>
<text text-anchor="middle" x="268.5" y="-7.5" font-family="Helvetica,sans-Serif" font-size="10.00" fill="#000000">QR::applyTranspose</text>
</a>
</g>
</g>
<!-- Node1&#45;&gt;Node9 -->
<g id="edge9" class="edge">
<title>Node1&#45;&gt;Node9</title>
<path fill="none" stroke="#191970" d="M158.9681,-38.411C178.1262,-33.4417 201.7142,-27.3233 222.0878,-22.0387"/>
<polygon fill="#191970" stroke="#191970" points="222.9968,-25.4188 231.7977,-19.5201 221.2392,-18.643 222.9968,-25.4188"/>
</g>
<!-- Node3 -->
<g id="node4" class="node">
<title>Node3</title>
<g id="a_node4"><a xlink:href="Matrix_8hpp.html#ad0f00f50ffed8bca3147578aac014d4c" target="_top" xlink:title=" ">
<polygon fill="#ffffff" stroke="#000000" points="361,-114.5 361,-133.5 403,-133.5 403,-114.5 361,-114.5"/>
<text text-anchor="middle" x="382" y="-121.5" font-family="Helvetica,sans-Serif" font-size="10.00" fill="#000000">norm</text>
</a>
</g>
</g>
<!-- Node2&#45;&gt;Node3 -->
<g id="edge3" class="edge">
<title>Node2&#45;&gt;Node3</title>
<path fill="none" stroke="#191970" d="M297.1408,-95.589C313.5647,-101.0877 334.1908,-107.9934 350.9951,-113.6195"/>
<polygon fill="#191970" stroke="#191970" points="350.2988,-117.0773 360.8926,-116.9332 352.5212,-110.4394 350.2988,-117.0773"/>
</g>
<!-- Node5 -->
<g id="node6" class="node">
<title>Node5</title>
<g id="a_node6"><a xlink:href="HouseholderQR_8hpp.html#ae91f1ecebb987562f092671e0cb75c40" target="_top" xlink:title=" ">
<polygon fill="#ffffff" stroke="#000000" points="363.5,-76.5 363.5,-95.5 400.5,-95.5 400.5,-76.5 363.5,-76.5"/>
<text text-anchor="middle" x="382" y="-83.5" font-family="Helvetica,sans-Serif" font-size="10.00" fill="#000000">sign</text>
</a>
</g>
</g>
<!-- Node2&#45;&gt;Node5 -->
<g id="edge5" class="edge">
<title>Node2&#45;&gt;Node5</title>
<path fill="none" stroke="#191970" d="M314.0108,-86C327.232,-86 341.3009,-86 353.1899,-86"/>
<polygon fill="#191970" stroke="#191970" points="353.4087,-89.5001 363.4087,-86 353.4086,-82.5001 353.4087,-89.5001"/>
</g>
<!-- Node2&#45;&gt;Node6 -->
<g id="edge6" class="edge">
<title>Node2&#45;&gt;Node6</title>
<path fill="none" stroke="#191970" d="M297.1408,-76.411C314.3784,-70.6398 336.2449,-63.3189 353.4637,-57.554"/>
<polygon fill="#191970" stroke="#191970" points="354.6232,-60.8568 362.9947,-54.363 352.4008,-54.219 354.6232,-60.8568"/>
</g>
<!-- Node4 -->
<g id="node5" class="node">
<title>Node4</title>
<g id="a_node5"><a xlink:href="Matrix_8hpp.html#abec71070cc8e64b7c426b3bfde2af39d" target="_top" xlink:title=" ">
<polygon fill="#ffffff" stroke="#000000" points="450,-114.5 450,-133.5 503,-133.5 503,-114.5 450,-114.5"/>
<text text-anchor="middle" x="476.5" y="-121.5" font-family="Helvetica,sans-Serif" font-size="10.00" fill="#000000">normsq</text>
</a>
</g>
</g>
<!-- Node3&#45;&gt;Node4 -->
<g id="edge4" class="edge">
<title>Node3&#45;&gt;Node4</title>
<path fill="none" stroke="#191970" d="M403.4435,-124C414.1645,-124 427.4425,-124 439.7259,-124"/>
<polygon fill="#191970" stroke="#191970" points="439.7321,-127.5001 449.732,-124 439.732,-120.5001 439.7321,-127.5001"/>
</g>
<!-- Node7 -->
<g id="node8" class="node">
<title>Node7</title>
<g id="a_node8"><a xlink:href="structArray.html#ab4b771d23fc515ab924670f80316739e" target="_top" xlink:title=" ">
<polygon fill="#ffffff" stroke="#000000" points="439,-57.5 439,-76.5 514,-76.5 514,-57.5 439,-57.5"/>
<text text-anchor="middle" x="476.5" y="-64.5" font-family="Helvetica,sans-Serif" font-size="10.00" fill="#000000">Array::begin</text>
</a>
</g>
</g>
<!-- Node6&#45;&gt;Node7 -->
<g id="edge7" class="edge">
<title>Node6&#45;&gt;Node7</title>
<path fill="none" stroke="#191970" d="M401.1235,-51.8449C409.129,-53.4545 418.8282,-55.4046 428.5661,-57.3625"/>
<polygon fill="#191970" stroke="#191970" points="428.165,-60.8518 438.6587,-59.3917 429.5448,-53.9892 428.165,-60.8518"/>
</g>
<!-- Node8 -->
<g id="node9" class="node">
<title>Node8</title>
<g id="a_node9"><a xlink:href="structArray.html#a325651933815bbdea330a2c576c274cd" target="_top" xlink:title=" ">
<polygon fill="#ffffff" stroke="#000000" points="443.5,-19.5 443.5,-38.5 509.5,-38.5 509.5,-19.5 443.5,-19.5"/>
<text text-anchor="middle" x="476.5" y="-26.5" font-family="Helvetica,sans-Serif" font-size="10.00" fill="#000000">Array::end</text>
</a>
</g>
</g>
<!-- Node6&#45;&gt;Node8 -->
<g id="edge8" class="edge">
<title>Node6&#45;&gt;Node8</title>
<path fill="none" stroke="#191970" d="M401.1235,-44.1551C410.4672,-42.2764 422.1181,-39.9339 433.445,-37.6566"/>
<polygon fill="#191970" stroke="#191970" points="434.1354,-41.0879 443.2493,-35.6853 432.7556,-34.2252 434.1354,-41.0879"/>
</g>
</g>
</svg>
