<?xml version="1.0" encoding="UTF-8" standalone="no"?>
<!DOCTYPE svg PUBLIC "-//W3C//DTD SVG 1.1//EN"
 "http://www.w3.org/Graphics/SVG/1.1/DTD/svg11.dtd">
<!-- Generated by graphviz version 2.40.1 (20161225.0304)
 -->
<!-- Title: solveLeastSquares Pages: 1 -->
<svg width="454pt" height="142pt"
 viewBox="0.00 0.00 454.00 142.00" xmlns="http://www.w3.org/2000/svg" xmlns:xlink="http://www.w3.org/1999/xlink">
<g id="graph0" class="graph" transform="scale(1 1) rotate(0) translate(4 138)">
<title>solveLeastSquares</title>
<polygon fill="#ffffff" stroke="transparent" points="-4,4 -4,-138 450,-138 450,4 -4,4"/>
<!-- Node11 -->
<g id="node1" class="node">
<title>Node11</title>
<g id="a_node1"><a xlink:title=" ">
<polygon fill="#bfbfbf" stroke="#000000" points="0,-38.5 0,-57.5 108,-57.5 108,-38.5 0,-38.5"/>
<text text-anchor="middle" x="54" y="-45.5" font-family="Helvetica,sans-Serif" font-size="10.00" fill="#000000">solveLeastSquares</text>
</a>
</g>
</g>
<!-- Node12 -->
<g id="node2" class="node">
<title>Node12</title>
<g id="a_node2"><a xlink:href="HouseholderQR_8hpp.html#a16f7547f23439d1eda0fcbde69451ef9" target="_top" xlink:title=" ">
<polygon fill="#ffffff" stroke="#000000" points="155,-76.5 155,-95.5 246,-95.5 246,-76.5 155,-76.5"/>
<text text-anchor="middle" x="200.5" y="-83.5" font-family="Helvetica,sans-Serif" font-size="10.00" fill="#000000">householderQR</text>
</a>
</g>
</g>
<!-- Node11&#45;&gt;Node12 -->
<g id="edge1" class="edge">
<title>Node11&#45;&gt;Node12</title>
<path fill="none" stroke="#191970" d="M90.9681,-57.589C110.1262,-62.5583 133.7142,-68.6767 154.0878,-73.9613"/>
<polygon fill="#191970" stroke="#191970" points="153.2392,-77.357 163.7977,-76.4799 154.9968,-70.5812 153.2392,-77.357"/>
</g>
<!-- Node16 -->
<g id="node6" class="node">
<title>Node16</title>
<g id="a_node6"><a xlink:href="Array_8hpp.html#a715393c15ab134b1f9566fe20d85d390" target="_top" xlink:title=" ">
<polygon fill="#ffffff" stroke="#000000" points="295,-38.5 295,-57.5 333,-57.5 333,-38.5 295,-38.5"/>
<text text-anchor="middle" x="314" y="-45.5" font-family="Helvetica,sans-Serif" font-size="10.00" fill="#000000">sum</text>
</a>
</g>
</g>
<!-- Node11&#45;&gt;Node16 -->
<g id="edge9" class="edge">
<title>Node11&#45;&gt;Node16</title>
<path fill="none" stroke="#191970" d="M108.188,-48C161.8558,-48 242.0206,-48 284.7355,-48"/>
<polygon fill="#191970" stroke="#191970" points="284.9968,-51.5001 294.9968,-48 284.9967,-44.5001 284.9968,-51.5001"/>
</g>
<!-- Node19 -->
<g id="node9" class="node">
<title>Node19</title>
<g id="a_node9"><a xlink:href="structQR.html#a8001dce66a751b468c5ae4b85d964ff2" target="_top" xlink:title=" ">
<polygon fill="#ffffff" stroke="#000000" points="144,-.5 144,-19.5 257,-19.5 257,-.5 144,-.5"/>
<text text-anchor="middle" x="200.5" y="-7.5" font-family="Helvetica,sans-Serif" font-size="10.00" fill="#000000">QR::applyTranspose</text>
</a>
</g>
</g>
<!-- Node11&#45;&gt;Node19 -->
<g id="edge8" class="edge">
<title>Node11&#45;&gt;Node19</title>
<path fill="none" stroke="#191970" d="M90.9681,-38.411C110.1262,-33.4417 133.7142,-27.3233 154.0878,-22.0387"/>
<polygon fill="#191970" stroke="#191970" points="154.9968,-25.4188 163.7977,-19.5201 153.2392,-18.643 154.9968,-25.4188"/>
</g>
<!-- Node13 -->
<g id="node3" class="node">
<title>Node13</title>
<g id="a_node3"><a xlink:href="Matrix_8hpp.html#ad0f00f50ffed8bca3147578aac014d4c" target="_top" xlink:title=" ">
<polygon fill="#ffffff" stroke="#000000" points="293,-114.5 293,-133.5 335,-133.5 335,-114.5 293,-114.5"/>
<text text-anchor="middle" x="314" y="-121.5" font-family="Helvetica,sans-Serif" font-size="10.00" fill="#000000">norm</text>
</a>
</g>
</g>
<!-- Node12&#45;&gt;Node13 -->
<g id="edge2" class="edge">
<title>Node12&#45;&gt;Node13</title>
<path fill="none" stroke="#191970" d="M229.1408,-95.589C245.5647,-101.0877 266.1908,-107.9934 282.9951,-113.6195"/>
<polygon fill="#191970" stroke="#191970" points="282.2988,-117.0773 292.8926,-116.9332 284.5212,-110.4394 282.2988,-117.0773"/>
</g>
<!-- Node15 -->
<g id="node5" class="node">
<title>Node15</title>
<g id="a_node5"><a xlink:href="HouseholderQR_8hpp.html#ae91f1ecebb987562f092671e0cb75c40" target="_top" xlink:title=" ">
<polygon fill="#ffffff" stroke="#000000" points="295.5,-76.5 295.5,-95.5 332.5,-95.5 332.5,-76.5 295.5,-76.5"/>
<text text-anchor="middle" x="314" y="-83.5" font-family="Helvetica,sans-Serif" font-size="10.00" fill="#000000">sign</text>
</a>
</g>
</g>
<!-- Node12&#45;&gt;Node15 -->
<g id="edge4" class="edge">
<title>Node12&#45;&gt;Node15</title>
<path fill="none" stroke="#191970" d="M246.0108,-86C259.232,-86 273.3009,-86 285.1899,-86"/>
<polygon fill="#191970" stroke="#191970" points="285.4087,-89.5001 295.4087,-86 285.4086,-82.5001 285.4087,-89.5001"/>
</g>
<!-- Node12&#45;&gt;Node16 -->
<g id="edge5" class="edge">
<title>Node12&#45;&gt;Node16</title>
<path fill="none" stroke="#191970" d="M229.1408,-76.411C246.3784,-70.6398 268.2449,-63.3189 285.4637,-57.554"/>
<polygon fill="#191970" stroke="#191970" points="286.6232,-60.8568 294.9947,-54.363 284.4008,-54.219 286.6232,-60.8568"/>
</g>
<!-- Node14 -->
<g id="node4" class="node">
<title>Node14</title>
<g id="a_node4"><a xlink:href="Matrix_8hpp.html#abec71070cc8e64b7c426b3bfde2af39d" target="_top" xlink:title=" ">
<polygon fill="#ffffff" stroke="#000000" points="382,-114.5 382,-133.5 435,-133.5 435,-114.5 382,-114.5"/>
<text text-anchor="middle" x="408.5" y="-121.5" font-family="Helvetica,sans-Serif" font-size="10.00" fill="#000000">normsq</text>
</a>
</g>
</g>
<!-- Node13&#45;&gt;Node14 -->
<g id="edge3" class="edge">
<title>Node13&#45;&gt;Node14</title>
<path fill="none" stroke="#191970" d="M335.4435,-124C346.1645,-124 359.4425,-124 371.7259,-124"/>
<polygon fill="#191970" stroke="#191970" points="371.7321,-127.5001 381.732,-124 371.732,-120.5001 371.7321,-127.5001"/>
</g>
<!-- Node17 -->
<g id="node7" class="node">
<title>Node17</title>
<g id="a_node7"><a xlink:href="structArray.html#ab4b771d23fc515ab924670f80316739e" target="_top" xlink:title=" ">
<polygon fill="#ffffff" stroke="#000000" points="371,-57.5 371,-76.5 446,-76.5 446,-57.5 371,-57.5"/>
<text text-anchor="middle" x="408.5" y="-64.5" font-family="Helvetica,sans-Serif" font-size="10.00" fill="#000000">Array::begin</text>
</a>
</g>
</g>
<!-- Node16&#45;&gt;Node17 -->
<g id="edge6" class="edge">
<title>Node16&#45;&gt;Node17</title>
<path fill="none" stroke="#191970" d="M333.1235,-51.8449C341.129,-53.4545 350.8282,-55.4046 360.5661,-57.3625"/>
<polygon fill="#191970" stroke="#191970" points="360.165,-60.8518 370.6587,-59.3917 361.5448,-53.9892 360.165,-60.8518"/>
</g>
<!-- Node18 -->
<g id="node8" class="node">
<title>Node18</title>
<g id="a_node8"><a xlink:href="structArray.html#a325651933815bbdea330a2c576c274cd" target="_top" xlink:title=" ">
<polygon fill="#ffffff" stroke="#000000" points="375.5,-19.5 375.5,-38.5 441.5,-38.5 441.5,-19.5 375.5,-19.5"/>
<text text-anchor="middle" x="408.5" y="-26.5" font-family="Helvetica,sans-Serif" font-size="10.00" fill="#000000">Array::end</text>
</a>
</g>
</g>
<!-- Node16&#45;&gt;Node18 -->
<g id="edge7" class="edge">
<title>Node16&#45;&gt;Node18</title>
<path fill="none" stroke="#191970" d="M333.1235,-44.1551C342.4672,-42.2764 354.1181,-39.9339 365.445,-37.6566"/>
<polygon fill="#191970" stroke="#191970" points="366.1354,-41.0879 375.2493,-35.6853 364.7556,-34.2252 366.1354,-41.0879"/>
</g>
</g>
</svg>
