<?xml version="1.0" encoding="UTF-8" standalone="no"?>
<!DOCTYPE svg PUBLIC "-//W3C//DTD SVG 1.1//EN"
 "http://www.w3.org/Graphics/SVG/1.1/DTD/svg11.dtd">
<!-- Generated by graphviz version 2.40.1 (20161225.0304)
 -->
<!-- Title: /home/pieter/GitHub/EAGLE&#45;ZYBO&#45;Linux/src/matrix/include/LeastSquares.hpp Pages: 1 -->
<svg width="528pt" height="274pt"
 viewBox="0.00 0.00 527.50 274.00" xmlns="http://www.w3.org/2000/svg" xmlns:xlink="http://www.w3.org/1999/xlink">
<g id="graph0" class="graph" transform="scale(1 1) rotate(0) translate(4 270)">
<title>/home/pieter/GitHub/EAGLE&#45;ZYBO&#45;Linux/src/matrix/include/LeastSquares.hpp</title>
<polygon fill="#ffffff" stroke="transparent" points="-4,4 -4,-270 523.5,-270 523.5,4 -4,4"/>
<!-- Node0 -->
<g id="node1" class="node">
<title>Node0</title>
<g id="a_node1"><a xlink:title=" ">
<polygon fill="#bfbfbf" stroke="#000000" points="153.5,-224.5 153.5,-265.5 332.5,-265.5 332.5,-224.5 153.5,-224.5"/>
<text text-anchor="start" x="161.5" y="-253.5" font-family="Helvetica,sans-Serif" font-size="10.00" fill="#000000">/home/pieter/GitHub</text>
<text text-anchor="start" x="161.5" y="-242.5" font-family="Helvetica,sans-Serif" font-size="10.00" fill="#000000">/EAGLE&#45;ZYBO&#45;Linux/src</text>
<text text-anchor="middle" x="243" y="-231.5" font-family="Helvetica,sans-Serif" font-size="10.00" fill="#000000">/matrix/include/LeastSquares.hpp</text>
</a>
</g>
</g>
<!-- Node1 -->
<g id="node2" class="node">
<title>Node1</title>
<g id="a_node2"><a xlink:href="HouseholderQR_8hpp.html" target="_top" xlink:title=" ">
<polygon fill="#ffffff" stroke="#000000" points="186.5,-168.5 186.5,-187.5 299.5,-187.5 299.5,-168.5 186.5,-168.5"/>
<text text-anchor="middle" x="243" y="-175.5" font-family="Helvetica,sans-Serif" font-size="10.00" fill="#000000">HouseholderQR.hpp</text>
</a>
</g>
</g>
<!-- Node0&#45;&gt;Node1 -->
<g id="edge1" class="edge">
<title>Node0&#45;&gt;Node1</title>
<path fill="none" stroke="#191970" d="M243,-224.168C243,-215.8226 243,-206.2471 243,-197.9879"/>
<polygon fill="#191970" stroke="#191970" points="246.5001,-197.7804 243,-187.7805 239.5001,-197.7805 246.5001,-197.7804"/>
</g>
<!-- Node2 -->
<g id="node3" class="node">
<title>Node2</title>
<g id="a_node3"><a xlink:href="Matrix_8hpp.html" target="_top" xlink:title=" ">
<polygon fill="#ffffff" stroke="#000000" points="145,-112.5 145,-131.5 213,-131.5 213,-112.5 145,-112.5"/>
<text text-anchor="middle" x="179" y="-119.5" font-family="Helvetica,sans-Serif" font-size="10.00" fill="#000000">Matrix.hpp</text>
</a>
</g>
</g>
<!-- Node1&#45;&gt;Node2 -->
<g id="edge2" class="edge">
<title>Node1&#45;&gt;Node2</title>
<path fill="none" stroke="#191970" d="M231.8521,-168.2455C222.4913,-160.0549 208.9142,-148.1749 197.8651,-138.5069"/>
<polygon fill="#191970" stroke="#191970" points="199.8508,-135.5937 190.0202,-131.6427 195.2412,-140.8618 199.8508,-135.5937"/>
</g>
<!-- Node8 -->
<g id="node9" class="node">
<title>Node8</title>
<g id="a_node9"><a xlink:title=" ">
<polygon fill="#ffffff" stroke="#bfbfbf" points="450.5,-.5 450.5,-19.5 519.5,-19.5 519.5,-.5 450.5,-.5"/>
<text text-anchor="middle" x="485" y="-7.5" font-family="Helvetica,sans-Serif" font-size="10.00" fill="#000000">type_traits</text>
</a>
</g>
</g>
<!-- Node1&#45;&gt;Node8 -->
<g id="edge14" class="edge">
<title>Node1&#45;&gt;Node8</title>
<path fill="none" stroke="#191970" d="M256.7043,-168.4862C296.7091,-140.7144 413.5998,-59.5671 462.784,-25.4227"/>
<polygon fill="#191970" stroke="#191970" points="464.9274,-28.1955 471.146,-19.6177 460.9354,-22.4453 464.9274,-28.1955"/>
</g>
<!-- Node3 -->
<g id="node4" class="node">
<title>Node3</title>
<g id="a_node4"><a xlink:href="Array_8hpp.html" target="_top" xlink:title=" ">
<polygon fill="#ffffff" stroke="#000000" points="232,-56.5 232,-75.5 294,-75.5 294,-56.5 232,-56.5"/>
<text text-anchor="middle" x="263" y="-63.5" font-family="Helvetica,sans-Serif" font-size="10.00" fill="#000000">Array.hpp</text>
</a>
</g>
</g>
<!-- Node2&#45;&gt;Node3 -->
<g id="edge3" class="edge">
<title>Node2&#45;&gt;Node3</title>
<path fill="none" stroke="#191970" d="M193.6317,-112.2455C206.3994,-103.7337 225.1438,-91.2375 239.9299,-81.3801"/>
<polygon fill="#191970" stroke="#191970" points="242.1569,-84.1019 248.536,-75.6427 238.274,-78.2775 242.1569,-84.1019"/>
</g>
<!-- Node4 -->
<g id="node5" class="node">
<title>Node4</title>
<g id="a_node5"><a xlink:title=" ">
<polygon fill="#ffffff" stroke="#bfbfbf" points="87,-.5 87,-19.5 151,-19.5 151,-.5 87,-.5"/>
<text text-anchor="middle" x="119" y="-7.5" font-family="Helvetica,sans-Serif" font-size="10.00" fill="#000000">algorithm</text>
</a>
</g>
</g>
<!-- Node2&#45;&gt;Node4 -->
<g id="edge10" class="edge">
<title>Node2&#45;&gt;Node4</title>
<path fill="none" stroke="#191970" d="M173.8844,-112.4509C163.9214,-93.8533 141.7635,-52.4919 128.8552,-28.3964"/>
<polygon fill="#191970" stroke="#191970" points="131.9101,-26.6869 124.1026,-19.5249 125.7397,-29.9925 131.9101,-26.6869"/>
</g>
<!-- Node5 -->
<g id="node6" class="node">
<title>Node5</title>
<g id="a_node6"><a xlink:title=" ">
<polygon fill="#ffffff" stroke="#bfbfbf" points="169.5,-.5 169.5,-19.5 216.5,-19.5 216.5,-.5 169.5,-.5"/>
<text text-anchor="middle" x="193" y="-7.5" font-family="Helvetica,sans-Serif" font-size="10.00" fill="#000000">cmath</text>
</a>
</g>
</g>
<!-- Node2&#45;&gt;Node5 -->
<g id="edge11" class="edge">
<title>Node2&#45;&gt;Node5</title>
<path fill="none" stroke="#191970" d="M180.1936,-112.4509C182.477,-94.184 187.5056,-53.9553 190.5378,-29.6976"/>
<polygon fill="#191970" stroke="#191970" points="194.0419,-29.8818 191.8094,-19.5249 187.096,-29.0135 194.0419,-29.8818"/>
</g>
<!-- Node10 -->
<g id="node11" class="node">
<title>Node10</title>
<g id="a_node11"><a xlink:title=" ">
<polygon fill="#ffffff" stroke="#bfbfbf" points="0,-56.5 0,-75.5 56,-75.5 56,-56.5 0,-56.5"/>
<text text-anchor="middle" x="28" y="-63.5" font-family="Helvetica,sans-Serif" font-size="10.00" fill="#000000">iomanip</text>
</a>
</g>
</g>
<!-- Node2&#45;&gt;Node10 -->
<g id="edge12" class="edge">
<title>Node2&#45;&gt;Node10</title>
<path fill="none" stroke="#191970" d="M153.0422,-112.3733C128.2593,-103.1822 90.7254,-89.2624 63.246,-79.0713"/>
<polygon fill="#191970" stroke="#191970" points="64.2121,-75.6968 53.6191,-75.5011 61.7781,-82.26 64.2121,-75.6968"/>
</g>
<!-- Node11 -->
<g id="node12" class="node">
<title>Node11</title>
<g id="a_node12"><a xlink:title=" ">
<polygon fill="#ffffff" stroke="#bfbfbf" points="74.5,-56.5 74.5,-75.5 131.5,-75.5 131.5,-56.5 74.5,-56.5"/>
<text text-anchor="middle" x="103" y="-63.5" font-family="Helvetica,sans-Serif" font-size="10.00" fill="#000000">ostream</text>
</a>
</g>
</g>
<!-- Node2&#45;&gt;Node11 -->
<g id="edge13" class="edge">
<title>Node2&#45;&gt;Node11</title>
<path fill="none" stroke="#191970" d="M165.7618,-112.2455C154.319,-103.814 137.5704,-91.4729 124.2525,-81.6598"/>
<polygon fill="#191970" stroke="#191970" points="126.2133,-78.757 116.0865,-75.6427 122.0609,-84.3924 126.2133,-78.757"/>
</g>
<!-- Node3&#45;&gt;Node4 -->
<g id="edge4" class="edge">
<title>Node3&#45;&gt;Node4</title>
<path fill="none" stroke="#191970" d="M238.2455,-56.3733C214.7151,-47.2226 179.1313,-33.3844 152.9574,-23.2057"/>
<polygon fill="#191970" stroke="#191970" points="154.0201,-19.8636 143.4315,-19.5011 151.4829,-26.3877 154.0201,-19.8636"/>
</g>
<!-- Node3&#45;&gt;Node5 -->
<g id="edge5" class="edge">
<title>Node3&#45;&gt;Node5</title>
<path fill="none" stroke="#191970" d="M250.8069,-56.2455C240.3679,-47.8943 225.1345,-35.7076 212.926,-25.9408"/>
<polygon fill="#191970" stroke="#191970" points="215.0485,-23.1566 205.0533,-19.6427 210.6756,-28.6227 215.0485,-23.1566"/>
</g>
<!-- Node6 -->
<g id="node7" class="node">
<title>Node6</title>
<g id="a_node7"><a xlink:title=" ">
<polygon fill="#ffffff" stroke="#bfbfbf" points="379.5,-.5 379.5,-19.5 432.5,-19.5 432.5,-.5 379.5,-.5"/>
<text text-anchor="middle" x="406" y="-7.5" font-family="Helvetica,sans-Serif" font-size="10.00" fill="#000000">cstddef</text>
</a>
</g>
</g>
<!-- Node3&#45;&gt;Node6 -->
<g id="edge6" class="edge">
<title>Node3&#45;&gt;Node6</title>
<path fill="none" stroke="#191970" d="M287.5826,-56.3733C310.9496,-47.2226 346.2862,-33.3844 372.2784,-23.2057"/>
<polygon fill="#191970" stroke="#191970" points="373.703,-26.4066 381.7382,-19.5011 371.1505,-19.8886 373.703,-26.4066"/>
</g>
<!-- Node7 -->
<g id="node8" class="node">
<title>Node7</title>
<g id="a_node8"><a xlink:title=" ">
<polygon fill="#ffffff" stroke="#bfbfbf" points="235,-.5 235,-19.5 291,-19.5 291,-.5 235,-.5"/>
<text text-anchor="middle" x="263" y="-7.5" font-family="Helvetica,sans-Serif" font-size="10.00" fill="#000000">numeric</text>
</a>
</g>
</g>
<!-- Node3&#45;&gt;Node7 -->
<g id="edge7" class="edge">
<title>Node3&#45;&gt;Node7</title>
<path fill="none" stroke="#191970" d="M263,-56.2455C263,-48.9382 263,-38.6944 263,-29.7046"/>
<polygon fill="#191970" stroke="#191970" points="266.5001,-29.6426 263,-19.6427 259.5001,-29.6427 266.5001,-29.6426"/>
</g>
<!-- Node3&#45;&gt;Node8 -->
<g id="edge8" class="edge">
<title>Node3&#45;&gt;Node8</title>
<path fill="none" stroke="#191970" d="M294.3363,-58.0953C332.4801,-48.4735 397.1507,-32.1602 440.4587,-21.2356"/>
<polygon fill="#191970" stroke="#191970" points="441.3274,-24.6262 450.1676,-18.7866 439.6152,-17.8388 441.3274,-24.6262"/>
</g>
<!-- Node9 -->
<g id="node10" class="node">
<title>Node9</title>
<g id="a_node10"><a xlink:title=" ">
<polygon fill="#ffffff" stroke="#bfbfbf" points="309,-.5 309,-19.5 361,-19.5 361,-.5 309,-.5"/>
<text text-anchor="middle" x="335" y="-7.5" font-family="Helvetica,sans-Serif" font-size="10.00" fill="#000000">cassert</text>
</a>
</g>
</g>
<!-- Node3&#45;&gt;Node9 -->
<g id="edge9" class="edge">
<title>Node3&#45;&gt;Node9</title>
<path fill="none" stroke="#191970" d="M275.5414,-56.2455C286.2787,-47.8943 301.9473,-35.7076 314.5047,-25.9408"/>
<polygon fill="#191970" stroke="#191970" points="316.8575,-28.5449 322.6023,-19.6427 312.5599,-23.0194 316.8575,-28.5449"/>
</g>
</g>
</svg>
