<?xml version="1.0" encoding="UTF-8" standalone="no"?>
<!DOCTYPE svg PUBLIC "-//W3C//DTD SVG 1.1//EN"
 "http://www.w3.org/Graphics/SVG/1.1/DTD/svg11.dtd">
<!-- Generated by graphviz version 2.40.1 (20161225.0304)
 -->
<!-- Title: /home/pieter/GitHub/EAGLE&#45;ZYBO&#45;Linux/src/grid&#45;finder/include/Line.hpp Pages: 1 -->
<svg width="336pt" height="295pt"
 viewBox="0.00 0.00 335.50 295.00" xmlns="http://www.w3.org/2000/svg" xmlns:xlink="http://www.w3.org/1999/xlink">
<g id="graph0" class="graph" transform="scale(1 1) rotate(0) translate(4 291)">
<title>/home/pieter/GitHub/EAGLE&#45;ZYBO&#45;Linux/src/grid&#45;finder/include/Line.hpp</title>
<polygon fill="#ffffff" stroke="transparent" points="-4,4 -4,-291 331.5,-291 331.5,4 -4,4"/>
<!-- Node17 -->
<g id="node1" class="node">
<title>Node17</title>
<g id="a_node1"><a xlink:title=" ">
<polygon fill="#bfbfbf" stroke="#000000" points="86,-245.5 86,-286.5 238,-286.5 238,-245.5 86,-245.5"/>
<text text-anchor="start" x="94" y="-274.5" font-family="Helvetica,sans-Serif" font-size="10.00" fill="#000000">/home/pieter/GitHub</text>
<text text-anchor="start" x="94" y="-263.5" font-family="Helvetica,sans-Serif" font-size="10.00" fill="#000000">/EAGLE&#45;ZYBO&#45;Linux/src</text>
<text text-anchor="middle" x="162" y="-252.5" font-family="Helvetica,sans-Serif" font-size="10.00" fill="#000000">/grid&#45;finder/include/Line.hpp</text>
</a>
</g>
</g>
<!-- Node18 -->
<g id="node2" class="node">
<title>Node18</title>
<g id="a_node2"><a xlink:href="GridFinder_8hpp.html" target="_top" xlink:title=" ">
<polygon fill="#ffffff" stroke="#000000" points="71.5,-89.5 71.5,-130.5 252.5,-130.5 252.5,-89.5 71.5,-89.5"/>
<text text-anchor="start" x="79.5" y="-118.5" font-family="Helvetica,sans-Serif" font-size="10.00" fill="#000000">/home/pieter/GitHub</text>
<text text-anchor="start" x="79.5" y="-107.5" font-family="Helvetica,sans-Serif" font-size="10.00" fill="#000000">/EAGLE&#45;ZYBO&#45;Linux/src</text>
<text text-anchor="middle" x="162" y="-96.5" font-family="Helvetica,sans-Serif" font-size="10.00" fill="#000000">/grid&#45;finder/include/GridFinder.hpp</text>
</a>
</g>
</g>
<!-- Node17&#45;&gt;Node18 -->
<g id="edge1" class="edge">
<title>Node17&#45;&gt;Node18</title>
<path fill="none" stroke="#191970" d="M134.2414,-237.5532C127.6304,-229.0357 121.4863,-219.2217 118,-209 111.9743,-191.3327 111.9743,-184.6673 118,-167 122.6005,-153.5116 131.829,-140.733 140.6514,-130.7069"/>
<polygon fill="#191970" stroke="#191970" points="131.5774,-239.8238 140.6514,-245.2931 136.9686,-235.359 131.5774,-239.8238"/>
</g>
<!-- Node21 -->
<g id="node5" class="node">
<title>Node21</title>
<g id="a_node5"><a xlink:href="HelperStructs_8hpp.html" target="_top" xlink:title=" ">
<polygon fill="#ffffff" stroke="#000000" points="127,-167.5 127,-208.5 325,-208.5 325,-167.5 127,-167.5"/>
<text text-anchor="start" x="135" y="-196.5" font-family="Helvetica,sans-Serif" font-size="10.00" fill="#000000">/home/pieter/GitHub</text>
<text text-anchor="start" x="135" y="-185.5" font-family="Helvetica,sans-Serif" font-size="10.00" fill="#000000">/EAGLE&#45;ZYBO&#45;Linux/src</text>
<text text-anchor="middle" x="226" y="-174.5" font-family="Helvetica,sans-Serif" font-size="10.00" fill="#000000">/grid&#45;finder/include/HelperStructs.hpp</text>
</a>
</g>
</g>
<!-- Node17&#45;&gt;Node21 -->
<g id="edge4" class="edge">
<title>Node17&#45;&gt;Node21</title>
<path fill="none" stroke="#191970" d="M185.7206,-237.0905C193.4563,-227.6626 201.8852,-217.3899 209.0238,-208.6898"/>
<polygon fill="#191970" stroke="#191970" points="182.7883,-235.1466 179.1508,-245.0974 188.1998,-239.5868 182.7883,-235.1466"/>
</g>
<!-- Node19 -->
<g id="node3" class="node">
<title>Node19</title>
<g id="a_node3"><a xlink:href="LocationFinder_8cpp.html" target="_top" xlink:title=" ">
<polygon fill="#ffffff" stroke="#000000" points="0,-.5 0,-52.5 152,-52.5 152,-.5 0,-.5"/>
<text text-anchor="start" x="8" y="-40.5" font-family="Helvetica,sans-Serif" font-size="10.00" fill="#000000">/home/pieter/GitHub</text>
<text text-anchor="start" x="8" y="-29.5" font-family="Helvetica,sans-Serif" font-size="10.00" fill="#000000">/EAGLE&#45;ZYBO&#45;Linux/src</text>
<text text-anchor="start" x="8" y="-18.5" font-family="Helvetica,sans-Serif" font-size="10.00" fill="#000000">/location&#45;finder/src/Location</text>
<text text-anchor="middle" x="76" y="-7.5" font-family="Helvetica,sans-Serif" font-size="10.00" fill="#000000">Finder.cpp</text>
</a>
</g>
</g>
<!-- Node18&#45;&gt;Node19 -->
<g id="edge2" class="edge">
<title>Node18&#45;&gt;Node19</title>
<path fill="none" stroke="#191970" d="M133.4656,-82.2951C123.6053,-72.7214 112.5964,-62.0325 102.8737,-52.5925"/>
<polygon fill="#191970" stroke="#191970" points="131.1288,-84.9046 140.7416,-89.3595 136.0051,-79.8824 131.1288,-84.9046"/>
</g>
<!-- Node20 -->
<g id="node4" class="node">
<title>Node20</title>
<g id="a_node4"><a xlink:href="Mask_8hpp.html" target="_top" xlink:title=" ">
<polygon fill="#ffffff" stroke="#000000" points="170.5,-6 170.5,-47 327.5,-47 327.5,-6 170.5,-6"/>
<text text-anchor="start" x="178.5" y="-35" font-family="Helvetica,sans-Serif" font-size="10.00" fill="#000000">/home/pieter/GitHub</text>
<text text-anchor="start" x="178.5" y="-24" font-family="Helvetica,sans-Serif" font-size="10.00" fill="#000000">/EAGLE&#45;ZYBO&#45;Linux/src</text>
<text text-anchor="middle" x="249" y="-13" font-family="Helvetica,sans-Serif" font-size="10.00" fill="#000000">/location&#45;finder/src/Mask.hpp</text>
</a>
</g>
</g>
<!-- Node18&#45;&gt;Node20 -->
<g id="edge3" class="edge">
<title>Node18&#45;&gt;Node20</title>
<path fill="none" stroke="#191970" d="M191.0424,-82.126C202.9341,-70.7127 216.4522,-57.7384 227.4403,-47.1924"/>
<polygon fill="#191970" stroke="#191970" points="188.2968,-79.9099 183.5056,-89.3595 193.1439,-84.9602 188.2968,-79.9099"/>
</g>
<!-- Node21&#45;&gt;Node18 -->
<g id="edge5" class="edge">
<title>Node21&#45;&gt;Node18</title>
<path fill="none" stroke="#191970" d="M202.2794,-159.0905C194.5437,-149.6626 186.1148,-139.3899 178.9762,-130.6898"/>
<polygon fill="#191970" stroke="#191970" points="199.8002,-161.5868 208.8492,-167.0974 205.2117,-157.1466 199.8002,-161.5868"/>
</g>
</g>
</svg>
