<?xml version="1.0" encoding="UTF-8" standalone="no"?>
<!DOCTYPE svg PUBLIC "-//W3C//DTD SVG 1.1//EN"
 "http://www.w3.org/Graphics/SVG/1.1/DTD/svg11.dtd">
<!-- Generated by graphviz version 2.40.1 (20161225.0304)
 -->
<!-- Title: rotate Pages: 1 -->
<svg width="161pt" height="66pt"
 viewBox="0.00 0.00 161.00 66.00" xmlns="http://www.w3.org/2000/svg" xmlns:xlink="http://www.w3.org/1999/xlink">
<g id="graph0" class="graph" transform="scale(1 1) rotate(0) translate(4 62)">
<title>rotate</title>
<polygon fill="#ffffff" stroke="transparent" points="-4,4 -4,-62 157,-62 157,4 -4,4"/>
<!-- Node2 -->
<g id="node1" class="node">
<title>Node2</title>
<g id="a_node1"><a xlink:title=" ">
<polygon fill="#bfbfbf" stroke="#000000" points="0,-19.5 0,-38.5 46,-38.5 46,-19.5 0,-19.5"/>
<text text-anchor="middle" x="23" y="-26.5" font-family="Helvetica,sans-Serif" font-size="10.00" fill="#000000">rotate</text>
</a>
</g>
</g>
<!-- Node3 -->
<g id="node2" class="node">
<title>Node3</title>
<g id="a_node2"><a xlink:href="classAngle.html#ae86dc5141bbe946f1b2101064626ea5b" target="_top" xlink:title=" ">
<polygon fill="#ffffff" stroke="#000000" points="82,-38.5 82,-57.5 153,-57.5 153,-38.5 82,-38.5"/>
<text text-anchor="middle" x="117.5" y="-45.5" font-family="Helvetica,sans-Serif" font-size="10.00" fill="#000000">Angle::cosf</text>
</a>
</g>
</g>
<!-- Node2&#45;&gt;Node3 -->
<g id="edge1" class="edge">
<title>Node2&#45;&gt;Node3</title>
<path fill="none" stroke="#191970" d="M46.3596,-33.6966C54.143,-35.2616 63.1001,-37.0625 71.976,-38.847"/>
<polygon fill="#191970" stroke="#191970" points="71.4019,-42.3016 81.8956,-40.8415 72.7818,-35.4389 71.4019,-42.3016"/>
</g>
<!-- Node4 -->
<g id="node3" class="node">
<title>Node4</title>
<g id="a_node3"><a xlink:href="classAngle.html#a01897132cd9fd91aaddc870e50df157b" target="_top" xlink:title=" ">
<polygon fill="#ffffff" stroke="#000000" points="83.5,-.5 83.5,-19.5 151.5,-19.5 151.5,-.5 83.5,-.5"/>
<text text-anchor="middle" x="117.5" y="-7.5" font-family="Helvetica,sans-Serif" font-size="10.00" fill="#000000">Angle::sinf</text>
</a>
</g>
</g>
<!-- Node2&#45;&gt;Node4 -->
<g id="edge2" class="edge">
<title>Node2&#45;&gt;Node4</title>
<path fill="none" stroke="#191970" d="M46.3596,-24.3034C54.5478,-22.6571 64.035,-20.7496 73.36,-18.8747"/>
<polygon fill="#191970" stroke="#191970" points="74.2319,-22.2695 83.3458,-16.867 72.852,-15.4069 74.2319,-22.2695"/>
</g>
</g>
</svg>
