<?xml version="1.0" encoding="UTF-8" standalone="no"?>
<!DOCTYPE svg PUBLIC "-//W3C//DTD SVG 1.1//EN"
 "http://www.w3.org/Graphics/SVG/1.1/DTD/svg11.dtd">
<!-- Generated by graphviz version 2.40.1 (20161225.0304)
 -->
<!-- Title: /home/pieter/GitHub/EAGLE&#45;ZYBO&#45;Linux/src/grid&#45;finder/include/Line.hpp Pages: 1 -->
<svg width="262pt" height="206pt"
 viewBox="0.00 0.00 261.50 206.00" xmlns="http://www.w3.org/2000/svg" xmlns:xlink="http://www.w3.org/1999/xlink">
<g id="graph0" class="graph" transform="scale(1 1) rotate(0) translate(4 202)">
<title>/home/pieter/GitHub/EAGLE&#45;ZYBO&#45;Linux/src/grid&#45;finder/include/Line.hpp</title>
<polygon fill="#ffffff" stroke="transparent" points="-4,4 -4,-202 257.5,-202 257.5,4 -4,4"/>
<!-- Node17 -->
<g id="node1" class="node">
<title>Node17</title>
<g id="a_node1"><a xlink:title=" ">
<polygon fill="#bfbfbf" stroke="#000000" points="14.5,-156.5 14.5,-197.5 166.5,-197.5 166.5,-156.5 14.5,-156.5"/>
<text text-anchor="start" x="22.5" y="-185.5" font-family="Helvetica,sans-Serif" font-size="10.00" fill="#000000">/home/pieter/GitHub</text>
<text text-anchor="start" x="22.5" y="-174.5" font-family="Helvetica,sans-Serif" font-size="10.00" fill="#000000">/EAGLE&#45;ZYBO&#45;Linux/src</text>
<text text-anchor="middle" x="90.5" y="-163.5" font-family="Helvetica,sans-Serif" font-size="10.00" fill="#000000">/grid&#45;finder/include/Line.hpp</text>
</a>
</g>
</g>
<!-- Node18 -->
<g id="node2" class="node">
<title>Node18</title>
<g id="a_node2"><a xlink:href="GridFinder_8hpp.html" target="_top" xlink:title=" ">
<polygon fill="#ffffff" stroke="#000000" points="0,-.5 0,-41.5 181,-41.5 181,-.5 0,-.5"/>
<text text-anchor="start" x="8" y="-29.5" font-family="Helvetica,sans-Serif" font-size="10.00" fill="#000000">/home/pieter/GitHub</text>
<text text-anchor="start" x="8" y="-18.5" font-family="Helvetica,sans-Serif" font-size="10.00" fill="#000000">/EAGLE&#45;ZYBO&#45;Linux/src</text>
<text text-anchor="middle" x="90.5" y="-7.5" font-family="Helvetica,sans-Serif" font-size="10.00" fill="#000000">/grid&#45;finder/include/GridFinder.hpp</text>
</a>
</g>
</g>
<!-- Node17&#45;&gt;Node18 -->
<g id="edge1" class="edge">
<title>Node17&#45;&gt;Node18</title>
<path fill="none" stroke="#191970" d="M62.7414,-148.5532C56.1304,-140.0357 49.9863,-130.2217 46.5,-120 40.4743,-102.3327 40.4743,-95.6673 46.5,-78 51.1005,-64.5116 60.329,-51.733 69.1514,-41.7069"/>
<polygon fill="#191970" stroke="#191970" points="60.0774,-150.8238 69.1514,-156.2931 65.4686,-146.359 60.0774,-150.8238"/>
</g>
<!-- Node19 -->
<g id="node3" class="node">
<title>Node19</title>
<g id="a_node3"><a xlink:href="HelperStructs_8hpp.html" target="_top" xlink:title=" ">
<polygon fill="#ffffff" stroke="#000000" points="55.5,-78.5 55.5,-119.5 253.5,-119.5 253.5,-78.5 55.5,-78.5"/>
<text text-anchor="start" x="63.5" y="-107.5" font-family="Helvetica,sans-Serif" font-size="10.00" fill="#000000">/home/pieter/GitHub</text>
<text text-anchor="start" x="63.5" y="-96.5" font-family="Helvetica,sans-Serif" font-size="10.00" fill="#000000">/EAGLE&#45;ZYBO&#45;Linux/src</text>
<text text-anchor="middle" x="154.5" y="-85.5" font-family="Helvetica,sans-Serif" font-size="10.00" fill="#000000">/grid&#45;finder/include/HelperStructs.hpp</text>
</a>
</g>
</g>
<!-- Node17&#45;&gt;Node19 -->
<g id="edge2" class="edge">
<title>Node17&#45;&gt;Node19</title>
<path fill="none" stroke="#191970" d="M114.2206,-148.0905C121.9563,-138.6626 130.3852,-128.3899 137.5238,-119.6898"/>
<polygon fill="#191970" stroke="#191970" points="111.2883,-146.1466 107.6508,-156.0974 116.6998,-150.5868 111.2883,-146.1466"/>
</g>
<!-- Node19&#45;&gt;Node18 -->
<g id="edge3" class="edge">
<title>Node19&#45;&gt;Node18</title>
<path fill="none" stroke="#191970" d="M130.7794,-70.0905C123.0437,-60.6626 114.6148,-50.3899 107.4762,-41.6898"/>
<polygon fill="#191970" stroke="#191970" points="128.3002,-72.5868 137.3492,-78.0974 133.7117,-68.1466 128.3002,-72.5868"/>
</g>
</g>
</svg>
