<?xml version="1.0" encoding="UTF-8" standalone="no"?>
<!DOCTYPE svg PUBLIC "-//W3C//DTD SVG 1.1//EN"
 "http://www.w3.org/Graphics/SVG/1.1/DTD/svg11.dtd">
<!-- Generated by graphviz version 2.40.1 (20161225.0304)
 -->
<!-- Title: /home/pieter/GitHub/EAGLE&#45;ZYBO&#45;Linux/src/grid&#45;finder/include/Line.hpp Pages: 1 -->
<svg width="528pt" height="406pt"
 viewBox="0.00 0.00 527.50 406.00" xmlns="http://www.w3.org/2000/svg" xmlns:xlink="http://www.w3.org/1999/xlink">
<g id="graph0" class="graph" transform="scale(1 1) rotate(0) translate(4 402)">
<title>/home/pieter/GitHub/EAGLE&#45;ZYBO&#45;Linux/src/grid&#45;finder/include/Line.hpp</title>
<polygon fill="#ffffff" stroke="transparent" points="-4,4 -4,-402 523.5,-402 523.5,4 -4,4"/>
<!-- Node19 -->
<g id="node1" class="node">
<title>Node19</title>
<g id="a_node1"><a xlink:title=" ">
<polygon fill="#bfbfbf" stroke="#000000" points="267,-356.5 267,-397.5 419,-397.5 419,-356.5 267,-356.5"/>
<text text-anchor="start" x="275" y="-385.5" font-family="Helvetica,sans-Serif" font-size="10.00" fill="#000000">/home/pieter/GitHub</text>
<text text-anchor="start" x="275" y="-374.5" font-family="Helvetica,sans-Serif" font-size="10.00" fill="#000000">/EAGLE&#45;ZYBO&#45;Linux/src</text>
<text text-anchor="middle" x="343" y="-363.5" font-family="Helvetica,sans-Serif" font-size="10.00" fill="#000000">/grid&#45;finder/include/Line.hpp</text>
</a>
</g>
</g>
<!-- Node20 -->
<g id="node2" class="node">
<title>Node20</title>
<g id="a_node2"><a xlink:href="GridFinder_8hpp.html" target="_top" xlink:title=" ">
<polygon fill="#ffffff" stroke="#000000" points="152.5,-184 152.5,-225 333.5,-225 333.5,-184 152.5,-184"/>
<text text-anchor="start" x="160.5" y="-213" font-family="Helvetica,sans-Serif" font-size="10.00" fill="#000000">/home/pieter/GitHub</text>
<text text-anchor="start" x="160.5" y="-202" font-family="Helvetica,sans-Serif" font-size="10.00" fill="#000000">/EAGLE&#45;ZYBO&#45;Linux/src</text>
<text text-anchor="middle" x="243" y="-191" font-family="Helvetica,sans-Serif" font-size="10.00" fill="#000000">/grid&#45;finder/include/GridFinder.hpp</text>
</a>
</g>
</g>
<!-- Node19&#45;&gt;Node20 -->
<g id="edge1" class="edge">
<title>Node19&#45;&gt;Node20</title>
<path fill="none" stroke="#191970" d="M336.3701,-346.4177C330.475,-323.3938 320.3757,-291.6888 305,-267 295.2235,-251.3018 280.8378,-236.4806 268.3842,-225.2143"/>
<polygon fill="#191970" stroke="#191970" points="333.0174,-347.4427 338.7866,-356.329 339.8181,-345.7845 333.0174,-347.4427"/>
</g>
<!-- Node22 -->
<g id="node4" class="node">
<title>Node22</title>
<g id="a_node4"><a xlink:href="Grid-Finder_8module_8hpp.html" target="_top" xlink:title=" ">
<polygon fill="#ffffff" stroke="#000000" points="176.5,-89.5 176.5,-141.5 309.5,-141.5 309.5,-89.5 176.5,-89.5"/>
<text text-anchor="start" x="184.5" y="-129.5" font-family="Helvetica,sans-Serif" font-size="10.00" fill="#000000">/home/pieter/GitHub</text>
<text text-anchor="start" x="184.5" y="-118.5" font-family="Helvetica,sans-Serif" font-size="10.00" fill="#000000">/EAGLE&#45;ZYBO&#45;Linux/src</text>
<text text-anchor="start" x="184.5" y="-107.5" font-family="Helvetica,sans-Serif" font-size="10.00" fill="#000000">/py&#45;grid&#45;finder/include</text>
<text text-anchor="middle" x="243" y="-96.5" font-family="Helvetica,sans-Serif" font-size="10.00" fill="#000000">/Grid&#45;Finder.module.hpp</text>
</a>
</g>
</g>
<!-- Node19&#45;&gt;Node22 -->
<g id="edge11" class="edge">
<title>Node19&#45;&gt;Node22</title>
<path fill="none" stroke="#191970" d="M351.6082,-346.5418C361.4021,-305.4371 372.5043,-231.233 343,-178 334.564,-162.7794 320.7056,-150.7759 305.9556,-141.5312"/>
<polygon fill="#191970" stroke="#191970" points="348.1515,-345.9365 349.1079,-356.4881 354.9403,-347.6431 348.1515,-345.9365"/>
</g>
<!-- Node24 -->
<g id="node6" class="node">
<title>Node24</title>
<g id="a_node6"><a xlink:href="HelperStructs_8hpp.html" target="_top" xlink:title=" ">
<polygon fill="#ffffff" stroke="#000000" points="98,-273 98,-314 296,-314 296,-273 98,-273"/>
<text text-anchor="start" x="106" y="-302" font-family="Helvetica,sans-Serif" font-size="10.00" fill="#000000">/home/pieter/GitHub</text>
<text text-anchor="start" x="106" y="-291" font-family="Helvetica,sans-Serif" font-size="10.00" fill="#000000">/EAGLE&#45;ZYBO&#45;Linux/src</text>
<text text-anchor="middle" x="197" y="-280" font-family="Helvetica,sans-Serif" font-size="10.00" fill="#000000">/grid&#45;finder/include/HelperStructs.hpp</text>
</a>
</g>
</g>
<!-- Node19&#45;&gt;Node24 -->
<g id="edge5" class="edge">
<title>Node19&#45;&gt;Node24</title>
<path fill="none" stroke="#191970" d="M298.1814,-351.3674C277.2337,-339.3871 252.6286,-325.315 232.9275,-314.0476"/>
<polygon fill="#191970" stroke="#191970" points="296.4919,-354.4331 306.9101,-356.3595 299.9671,-348.3567 296.4919,-354.4331"/>
</g>
<!-- Node26 -->
<g id="node8" class="node">
<title>Node26</title>
<g id="a_node8"><a xlink:href="LocationTracker_8hpp.html" target="_top" xlink:title=" ">
<polygon fill="#ffffff" stroke="#000000" points="390.5,-267.5 390.5,-319.5 519.5,-319.5 519.5,-267.5 390.5,-267.5"/>
<text text-anchor="start" x="398.5" y="-307.5" font-family="Helvetica,sans-Serif" font-size="10.00" fill="#000000">/home/pieter/GitHub</text>
<text text-anchor="start" x="398.5" y="-296.5" font-family="Helvetica,sans-Serif" font-size="10.00" fill="#000000">/EAGLE&#45;ZYBO&#45;Linux/src</text>
<text text-anchor="start" x="398.5" y="-285.5" font-family="Helvetica,sans-Serif" font-size="10.00" fill="#000000">/location&#45;finder/include</text>
<text text-anchor="middle" x="455" y="-274.5" font-family="Helvetica,sans-Serif" font-size="10.00" fill="#000000">/LocationTracker.hpp</text>
</a>
</g>
</g>
<!-- Node19&#45;&gt;Node26 -->
<g id="edge10" class="edge">
<title>Node19&#45;&gt;Node26</title>
<path fill="none" stroke="#191970" d="M379.032,-350.1369C392.1576,-340.3513 406.9672,-329.3102 420.0016,-319.5925"/>
<polygon fill="#191970" stroke="#191970" points="376.6106,-347.5764 370.6854,-356.3595 380.7946,-353.1884 376.6106,-347.5764"/>
</g>
<!-- Node21 -->
<g id="node3" class="node">
<title>Node21</title>
<g id="a_node3"><a xlink:href="LocationFinder_8cpp.html" target="_top" xlink:title=" ">
<polygon fill="#ffffff" stroke="#000000" points="0,-89.5 0,-141.5 152,-141.5 152,-89.5 0,-89.5"/>
<text text-anchor="start" x="8" y="-129.5" font-family="Helvetica,sans-Serif" font-size="10.00" fill="#000000">/home/pieter/GitHub</text>
<text text-anchor="start" x="8" y="-118.5" font-family="Helvetica,sans-Serif" font-size="10.00" fill="#000000">/EAGLE&#45;ZYBO&#45;Linux/src</text>
<text text-anchor="start" x="8" y="-107.5" font-family="Helvetica,sans-Serif" font-size="10.00" fill="#000000">/location&#45;finder/src/Location</text>
<text text-anchor="middle" x="76" y="-96.5" font-family="Helvetica,sans-Serif" font-size="10.00" fill="#000000">Finder.cpp</text>
</a>
</g>
</g>
<!-- Node20&#45;&gt;Node21 -->
<g id="edge2" class="edge">
<title>Node20&#45;&gt;Node21</title>
<path fill="none" stroke="#191970" d="M195.4141,-179.1399C173.3765,-167.3952 147.2156,-153.4532 125.0052,-141.6166"/>
<polygon fill="#191970" stroke="#191970" points="193.796,-182.2435 204.2671,-183.8579 197.0882,-176.066 193.796,-182.2435"/>
</g>
<!-- Node20&#45;&gt;Node22 -->
<g id="edge3" class="edge">
<title>Node20&#45;&gt;Node22</title>
<path fill="none" stroke="#191970" d="M243,-173.56C243,-163.1985 243,-151.7526 243,-141.7816"/>
<polygon fill="#191970" stroke="#191970" points="239.5001,-173.8579 243,-183.8579 246.5001,-173.8579 239.5001,-173.8579"/>
</g>
<!-- Node23 -->
<g id="node5" class="node">
<title>Node23</title>
<g id="a_node5"><a xlink:href="Grid-Finder_8module_8cpp.html" target="_top" xlink:title=" ">
<polygon fill="#ffffff" stroke="#000000" points="178.5,-.5 178.5,-52.5 307.5,-52.5 307.5,-.5 178.5,-.5"/>
<text text-anchor="start" x="186.5" y="-40.5" font-family="Helvetica,sans-Serif" font-size="10.00" fill="#000000">/home/pieter/GitHub</text>
<text text-anchor="start" x="186.5" y="-29.5" font-family="Helvetica,sans-Serif" font-size="10.00" fill="#000000">/EAGLE&#45;ZYBO&#45;Linux/src</text>
<text text-anchor="start" x="186.5" y="-18.5" font-family="Helvetica,sans-Serif" font-size="10.00" fill="#000000">/py&#45;grid&#45;finder/src/Grid</text>
<text text-anchor="middle" x="243" y="-7.5" font-family="Helvetica,sans-Serif" font-size="10.00" fill="#000000">&#45;Finder.module.cpp</text>
</a>
</g>
</g>
<!-- Node22&#45;&gt;Node23 -->
<g id="edge4" class="edge">
<title>Node22&#45;&gt;Node23</title>
<path fill="none" stroke="#191970" d="M243,-79.1155C243,-70.2061 243,-60.8475 243,-52.5341"/>
<polygon fill="#191970" stroke="#191970" points="239.5001,-79.2784 243,-89.2784 246.5001,-79.2785 239.5001,-79.2784"/>
</g>
<!-- Node24&#45;&gt;Node20 -->
<g id="edge6" class="edge">
<title>Node24&#45;&gt;Node20</title>
<path fill="none" stroke="#191970" d="M212.2659,-263.9638C218.8623,-251.2013 226.4192,-236.5803 232.3889,-225.0301"/>
<polygon fill="#191970" stroke="#191970" points="209.1513,-262.3673 207.6689,-272.8579 215.3698,-265.5814 209.1513,-262.3673"/>
</g>
<!-- Node25 -->
<g id="node7" class="node">
<title>Node25</title>
<g id="a_node7"><a xlink:href="LocationFinder_8hpp.html" target="_top" xlink:title=" ">
<polygon fill="#ffffff" stroke="#000000" points="5.5,-178.5 5.5,-230.5 134.5,-230.5 134.5,-178.5 5.5,-178.5"/>
<text text-anchor="start" x="13.5" y="-218.5" font-family="Helvetica,sans-Serif" font-size="10.00" fill="#000000">/home/pieter/GitHub</text>
<text text-anchor="start" x="13.5" y="-207.5" font-family="Helvetica,sans-Serif" font-size="10.00" fill="#000000">/EAGLE&#45;ZYBO&#45;Linux/src</text>
<text text-anchor="start" x="13.5" y="-196.5" font-family="Helvetica,sans-Serif" font-size="10.00" fill="#000000">/location&#45;finder/include</text>
<text text-anchor="middle" x="70" y="-185.5" font-family="Helvetica,sans-Serif" font-size="10.00" fill="#000000">/LocationFinder.hpp</text>
</a>
</g>
</g>
<!-- Node24&#45;&gt;Node25 -->
<g id="edge7" class="edge">
<title>Node24&#45;&gt;Node25</title>
<path fill="none" stroke="#191970" d="M159.2739,-267.062C142.9238,-255.6041 123.828,-242.222 107.503,-230.7816"/>
<polygon fill="#191970" stroke="#191970" points="157.3465,-269.9852 167.5444,-272.8579 161.3638,-264.2527 157.3465,-269.9852"/>
</g>
<!-- Node25&#45;&gt;Node21 -->
<g id="edge8" class="edge">
<title>Node25&#45;&gt;Node21</title>
<path fill="none" stroke="#191970" d="M72.4529,-168.1155C73.0535,-159.2061 73.6844,-149.8475 74.2449,-141.5341"/>
<polygon fill="#191970" stroke="#191970" points="68.9484,-168.0656 71.7677,-178.2784 75.9325,-168.5365 68.9484,-168.0656"/>
</g>
<!-- Node25&#45;&gt;Node22 -->
<g id="edge9" class="edge">
<title>Node25&#45;&gt;Node22</title>
<path fill="none" stroke="#191970" d="M130.1325,-173.5648C150.4427,-163.1162 172.8973,-151.5644 192.3943,-141.5341"/>
<polygon fill="#191970" stroke="#191970" points="128.2612,-170.5914 120.97,-178.2784 131.4634,-176.816 128.2612,-170.5914"/>
</g>
</g>
</svg>
