<?xml version="1.0" encoding="UTF-8" standalone="no"?>
<!DOCTYPE svg PUBLIC "-//W3C//DTD SVG 1.1//EN"
 "http://www.w3.org/Graphics/SVG/1.1/DTD/svg11.dtd">
<!-- Generated by graphviz version 2.40.1 (20161225.0304)
 -->
<!-- Title: round Pages: 1 -->
<svg width="575pt" height="294pt"
 viewBox="0.00 0.00 575.00 294.00" xmlns="http://www.w3.org/2000/svg" xmlns:xlink="http://www.w3.org/1999/xlink">
<g id="graph0" class="graph" transform="scale(1 1) rotate(0) translate(4 290)">
<title>round</title>
<polygon fill="#ffffff" stroke="transparent" points="-4,4 -4,-290 571,-290 571,4 -4,4"/>
<!-- Node10 -->
<g id="node1" class="node">
<title>Node10</title>
<g id="a_node1"><a xlink:title=" ">
<polygon fill="#bfbfbf" stroke="#000000" points="523,-133.5 523,-152.5 567,-152.5 567,-133.5 523,-133.5"/>
<text text-anchor="middle" x="545" y="-140.5" font-family="Helvetica,sans-Serif" font-size="10.00" fill="#000000">round</text>
</a>
</g>
</g>
<!-- Node11 -->
<g id="node2" class="node">
<title>Node11</title>
<g id="a_node2"><a xlink:href="classAngle.html#aa2ce213e9b45424e62d818ec6769a71b" target="_top" xlink:title=" ">
<polygon fill="#ffffff" stroke="#000000" points="366.5,-266.5 366.5,-285.5 473.5,-285.5 473.5,-266.5 366.5,-266.5"/>
<text text-anchor="middle" x="420" y="-273.5" font-family="Helvetica,sans-Serif" font-size="10.00" fill="#000000">Angle&lt; 360 &gt;::cos</text>
</a>
</g>
</g>
<!-- Node10&#45;&gt;Node11 -->
<g id="edge1" class="edge">
<title>Node10&#45;&gt;Node11</title>
<path fill="none" stroke="#191970" d="M540.2803,-162.5638C533.1134,-188.0624 517.0298,-232.304 487,-257 482.2374,-260.9167 476.7134,-264.0268 470.9202,-266.4964"/>
<polygon fill="#191970" stroke="#191970" points="543.7423,-163.1599 542.8926,-152.5992 536.9711,-161.3847 543.7423,-163.1599"/>
</g>
<!-- Node12 -->
<g id="node3" class="node">
<title>Node12</title>
<g id="a_node3"><a xlink:href="classAngle.html#adb9bfe045dd75dad8912cf1e741d2820" target="_top" xlink:title=" ">
<polygon fill="#ffffff" stroke="#000000" points="367.5,-228.5 367.5,-247.5 472.5,-247.5 472.5,-228.5 367.5,-228.5"/>
<text text-anchor="middle" x="420" y="-235.5" font-family="Helvetica,sans-Serif" font-size="10.00" fill="#000000">Angle&lt; 360 &gt;::sin</text>
</a>
</g>
</g>
<!-- Node10&#45;&gt;Node12 -->
<g id="edge2" class="edge">
<title>Node10&#45;&gt;Node12</title>
<path fill="none" stroke="#191970" d="M535.3812,-161.6767C525.5096,-179.0244 508.5633,-204.3227 487,-219 481.3029,-222.8778 474.8211,-225.9707 468.1867,-228.436"/>
<polygon fill="#191970" stroke="#191970" points="538.6568,-162.9792 540.3573,-152.5217 532.5065,-159.6363 538.6568,-162.9792"/>
</g>
<!-- Node13 -->
<g id="node4" class="node">
<title>Node13</title>
<g id="a_node4"><a xlink:href="classAngle.html#a63862e75b876b7b8555f05a54ac85628" target="_top" xlink:title=" ">
<polygon fill="#ffffff" stroke="#000000" points="353,-190.5 353,-209.5 487,-209.5 487,-190.5 353,-190.5"/>
<text text-anchor="middle" x="420" y="-197.5" font-family="Helvetica,sans-Serif" font-size="10.00" fill="#000000">Angle&lt; 360 &gt;::getIndex</text>
</a>
</g>
</g>
<!-- Node10&#45;&gt;Node13 -->
<g id="edge3" class="edge">
<title>Node10&#45;&gt;Node13</title>
<path fill="none" stroke="#191970" d="M524.4952,-158.6414C513.7779,-166.2321 500.176,-174.9865 487,-181 478.8606,-184.7148 469.8285,-187.8696 461.0998,-190.4777"/>
<polygon fill="#191970" stroke="#191970" points="526.7287,-161.3445 532.7466,-152.6246 522.6044,-155.6885 526.7287,-161.3445"/>
</g>
<!-- Node14 -->
<g id="node5" class="node">
<title>Node14</title>
<g id="a_node5"><a xlink:href="classBresenhamLine.html#ae4b0dd9c534a550583ae812695bbac59" target="_top" xlink:title=" ">
<polygon fill="#ffffff" stroke="#000000" points="362.5,-152.5 362.5,-171.5 477.5,-171.5 477.5,-152.5 362.5,-152.5"/>
<text text-anchor="middle" x="420" y="-159.5" font-family="Helvetica,sans-Serif" font-size="10.00" fill="#000000">BresenhamLine::cos</text>
</a>
</g>
</g>
<!-- Node10&#45;&gt;Node14 -->
<g id="edge4" class="edge">
<title>Node10&#45;&gt;Node14</title>
<path fill="none" stroke="#191970" d="M512.7632,-147.9C501.9914,-149.5373 489.6387,-151.4149 477.5358,-153.2546"/>
<polygon fill="#191970" stroke="#191970" points="513.5798,-151.3162 522.9402,-146.3531 512.5278,-144.3956 513.5798,-151.3162"/>
</g>
<!-- Node15 -->
<g id="node6" class="node">
<title>Node15</title>
<g id="a_node6"><a xlink:href="classBresenhamLine.html#a115d1f10a5ce1e0ef945258346b6f035" target="_top" xlink:title=" ">
<polygon fill="#ffffff" stroke="#000000" points="363.5,-114.5 363.5,-133.5 476.5,-133.5 476.5,-114.5 363.5,-114.5"/>
<text text-anchor="middle" x="420" y="-121.5" font-family="Helvetica,sans-Serif" font-size="10.00" fill="#000000">BresenhamLine::sin</text>
</a>
</g>
</g>
<!-- Node10&#45;&gt;Node15 -->
<g id="edge5" class="edge">
<title>Node10&#45;&gt;Node15</title>
<path fill="none" stroke="#191970" d="M512.9268,-138.1249C501.8788,-136.4456 489.1532,-134.5113 476.7338,-132.6235"/>
<polygon fill="#191970" stroke="#191970" points="512.5278,-141.6044 522.9402,-139.6469 513.5798,-134.6838 512.5278,-141.6044"/>
</g>
<!-- Node16 -->
<g id="node7" class="node">
<title>Node16</title>
<g id="a_node7"><a xlink:href="classGridFinder.html#a701c0c1e70d01bb8773a89a29f6673a0" target="_top" xlink:title="This is the main function: it looks for a complete square of the grid, as close to the center of the ...">
<polygon fill="#ffffff" stroke="#000000" points="358,-76.5 358,-95.5 482,-95.5 482,-76.5 358,-76.5"/>
<text text-anchor="middle" x="420" y="-83.5" font-family="Helvetica,sans-Serif" font-size="10.00" fill="#000000">GridFinder::findSquare</text>
</a>
</g>
</g>
<!-- Node10&#45;&gt;Node16 -->
<g id="edge6" class="edge">
<title>Node10&#45;&gt;Node16</title>
<path fill="none" stroke="#191970" d="M524.4952,-127.3586C513.7779,-119.7679 500.176,-111.0135 487,-105 478.8606,-101.2852 469.8285,-98.1304 461.0998,-95.5223"/>
<polygon fill="#191970" stroke="#191970" points="522.6044,-130.3115 532.7466,-133.3754 526.7287,-124.6555 522.6044,-130.3115"/>
</g>
<!-- Node18 -->
<g id="node9" class="node">
<title>Node18</title>
<g id="a_node9"><a xlink:href="Grid-Finder_8module_8hpp.html#a05e720af51446c0f9319fb9455fe1767" target="_top" xlink:title=" ">
<polygon fill="#ffffff" stroke="#000000" points="0,-76.5 0,-95.5 113,-95.5 113,-76.5 0,-76.5"/>
<text text-anchor="middle" x="56.5" y="-83.5" font-family="Helvetica,sans-Serif" font-size="10.00" fill="#000000">PYBIND11_MODULE</text>
</a>
</g>
</g>
<!-- Node10&#45;&gt;Node18 -->
<g id="edge11" class="edge">
<title>Node10&#45;&gt;Node18</title>
<path fill="none" stroke="#191970" d="M536.7438,-124.0292C527.5732,-105.6247 510.8488,-78.7999 487,-67 348.5343,1.5102 153.3397,-52.8685 83.0312,-76.4593"/>
<polygon fill="#191970" stroke="#191970" points="533.6465,-125.6683 541.0586,-133.2388 539.9853,-122.6985 533.6465,-125.6683"/>
</g>
<!-- Node19 -->
<g id="node10" class="node">
<title>Node19</title>
<g id="a_node10"><a xlink:href="classLocationTracker.html#a259a52389d4d7c4a5fe80aca35b789ea" target="_top" xlink:title=" ">
<polygon fill="#ffffff" stroke="#000000" points="353.5,-.5 353.5,-19.5 486.5,-19.5 486.5,-.5 353.5,-.5"/>
<text text-anchor="middle" x="420" y="-7.5" font-family="Helvetica,sans-Serif" font-size="10.00" fill="#000000">LocationTracker::update</text>
</a>
</g>
</g>
<!-- Node10&#45;&gt;Node19 -->
<g id="edge10" class="edge">
<title>Node10&#45;&gt;Node19</title>
<path fill="none" stroke="#191970" d="M539.4511,-123.524C531.5957,-99.3003 514.9837,-58.1933 487,-34 479.7095,-27.697 470.6417,-23.0068 461.5565,-19.5318"/>
<polygon fill="#191970" stroke="#191970" points="536.1827,-124.8047 542.4536,-133.3444 542.8768,-122.758 536.1827,-124.8047"/>
</g>
<!-- Node17 -->
<g id="node8" class="node">
<title>Node17</title>
<g id="a_node8"><a xlink:href="classLocationFinder.html#af56756d038d762e04e0c91bac9fc2522" target="_top" xlink:title="Read a new frame, mask it, run GridFinder, and get the position of the drone. The position is the pos...">
<polygon fill="#ffffff" stroke="#000000" points="149,-114.5 149,-133.5 317,-133.5 317,-114.5 149,-114.5"/>
<text text-anchor="middle" x="233" y="-121.5" font-family="Helvetica,sans-Serif" font-size="10.00" fill="#000000">LocationFinder::updateLocation</text>
</a>
</g>
</g>
<!-- Node16&#45;&gt;Node17 -->
<g id="edge7" class="edge">
<title>Node16&#45;&gt;Node17</title>
<path fill="none" stroke="#191970" d="M362.869,-97.6095C336.2733,-103.014 305.0269,-109.3635 279.8487,-114.4799"/>
<polygon fill="#191970" stroke="#191970" points="363.7093,-101.0104 372.812,-95.589 362.3153,-94.1506 363.7093,-101.0104"/>
</g>
<!-- Node16&#45;&gt;Node18 -->
<g id="edge9" class="edge">
<title>Node16&#45;&gt;Node18</title>
<path fill="none" stroke="#191970" d="M347.5872,-86C278.6832,-86 176.4113,-86 113.2349,-86"/>
<polygon fill="#191970" stroke="#191970" points="347.9252,-89.5001 357.9251,-86 347.9251,-82.5001 347.9252,-89.5001"/>
</g>
<!-- Node17&#45;&gt;Node18 -->
<g id="edge8" class="edge">
<title>Node17&#45;&gt;Node18</title>
<path fill="none" stroke="#191970" d="M178.4124,-112.2474C153.4553,-106.8742 124.2732,-100.5914 100.7181,-95.5201"/>
<polygon fill="#191970" stroke="#191970" points="177.9489,-115.7278 188.4616,-114.411 179.4223,-108.8846 177.9489,-115.7278"/>
</g>
</g>
</svg>
