<?xml version="1.0" encoding="UTF-8" standalone="no"?>
<!DOCTYPE svg PUBLIC "-//W3C//DTD SVG 1.1//EN"
 "http://www.w3.org/Graphics/SVG/1.1/DTD/svg11.dtd">
<!-- Generated by graphviz version 2.40.1 (20161225.0304)
 -->
<!-- Title: /home/pieter/GitHub/EAGLE&#45;ZYBO&#45;Linux/src/location&#45;finder/include/LocationFinder.hpp Pages: 1 -->
<svg width="695pt" height="341pt"
 viewBox="0.00 0.00 695.00 341.00" xmlns="http://www.w3.org/2000/svg" xmlns:xlink="http://www.w3.org/1999/xlink">
<g id="graph0" class="graph" transform="scale(1 1) rotate(0) translate(4 337)">
<title>/home/pieter/GitHub/EAGLE&#45;ZYBO&#45;Linux/src/location&#45;finder/include/LocationFinder.hpp</title>
<polygon fill="#ffffff" stroke="transparent" points="-4,4 -4,-337 691,-337 691,4 -4,4"/>
<!-- Node0 -->
<g id="node1" class="node">
<title>Node0</title>
<g id="a_node1"><a xlink:title=" ">
<polygon fill="#bfbfbf" stroke="#000000" points="436.5,-280.5 436.5,-332.5 565.5,-332.5 565.5,-280.5 436.5,-280.5"/>
<text text-anchor="start" x="444.5" y="-320.5" font-family="Helvetica,sans-Serif" font-size="10.00" fill="#000000">/home/pieter/GitHub</text>
<text text-anchor="start" x="444.5" y="-309.5" font-family="Helvetica,sans-Serif" font-size="10.00" fill="#000000">/EAGLE&#45;ZYBO&#45;Linux/src</text>
<text text-anchor="start" x="444.5" y="-298.5" font-family="Helvetica,sans-Serif" font-size="10.00" fill="#000000">/location&#45;finder/include</text>
<text text-anchor="middle" x="501" y="-287.5" font-family="Helvetica,sans-Serif" font-size="10.00" fill="#000000">/LocationFinder.hpp</text>
</a>
</g>
</g>
<!-- Node1 -->
<g id="node2" class="node">
<title>Node1</title>
<g id="a_node2"><a xlink:href="AngleTracker_8hpp.html" target="_top" xlink:title=" ">
<polygon fill="#ffffff" stroke="#000000" points="451,-224.5 451,-243.5 551,-243.5 551,-224.5 451,-224.5"/>
<text text-anchor="middle" x="501" y="-231.5" font-family="Helvetica,sans-Serif" font-size="10.00" fill="#000000">AngleTracker.hpp</text>
</a>
</g>
</g>
<!-- Node0&#45;&gt;Node1 -->
<g id="edge1" class="edge">
<title>Node0&#45;&gt;Node1</title>
<path fill="none" stroke="#191970" d="M501,-280.3258C501,-271.5142 501,-261.8397 501,-253.621"/>
<polygon fill="#191970" stroke="#191970" points="504.5001,-253.534 501,-243.534 497.5001,-253.534 504.5001,-253.534"/>
</g>
<!-- Node9 -->
<g id="node10" class="node">
<title>Node9</title>
<g id="a_node10"><a xlink:href="HelperStructs_8hpp.html" target="_top" xlink:title=" ">
<polygon fill="#ffffff" stroke="#000000" points="329,-224.5 329,-243.5 433,-243.5 433,-224.5 329,-224.5"/>
<text text-anchor="middle" x="381" y="-231.5" font-family="Helvetica,sans-Serif" font-size="10.00" fill="#000000">HelperStructs.hpp</text>
</a>
</g>
</g>
<!-- Node0&#45;&gt;Node9 -->
<g id="edge10" class="edge">
<title>Node0&#45;&gt;Node9</title>
<path fill="none" stroke="#191970" d="M457.6772,-280.3258C440.1091,-269.7118 420.4689,-257.8458 405.4641,-248.7804"/>
<polygon fill="#191970" stroke="#191970" points="407.1495,-245.7095 396.7804,-243.534 403.5297,-251.7009 407.1495,-245.7095"/>
</g>
<!-- Node23 -->
<g id="node24" class="node">
<title>Node23</title>
<g id="a_node24"><a xlink:title=" ">
<polygon fill="#ffffff" stroke="#bfbfbf" points="569,-224.5 569,-243.5 687,-243.5 687,-224.5 569,-224.5"/>
<text text-anchor="middle" x="628" y="-231.5" font-family="Helvetica,sans-Serif" font-size="10.00" fill="#000000">opencv2/videoio.hpp</text>
</a>
</g>
</g>
<!-- Node0&#45;&gt;Node23 -->
<g id="edge35" class="edge">
<title>Node0&#45;&gt;Node23</title>
<path fill="none" stroke="#191970" d="M546.8499,-280.3258C565.6182,-269.6116 586.6211,-257.6218 602.557,-248.5246"/>
<polygon fill="#191970" stroke="#191970" points="604.3497,-251.5314 611.2991,-243.534 600.8793,-245.4522 604.3497,-251.5314"/>
</g>
<!-- Node2 -->
<g id="node3" class="node">
<title>Node2</title>
<g id="a_node3"><a xlink:href="Angle_8hpp.html" target="_top" xlink:title=" ">
<polygon fill="#ffffff" stroke="#000000" points="438.5,-112.5 438.5,-131.5 503.5,-131.5 503.5,-112.5 438.5,-112.5"/>
<text text-anchor="middle" x="471" y="-119.5" font-family="Helvetica,sans-Serif" font-size="10.00" fill="#000000">Angle.hpp</text>
</a>
</g>
</g>
<!-- Node1&#45;&gt;Node2 -->
<g id="edge2" class="edge">
<title>Node1&#45;&gt;Node2</title>
<path fill="none" stroke="#191970" d="M514.3756,-224.3704C530.2408,-211.7007 553.2106,-188.621 542,-168 534.3623,-153.9511 520.3791,-143.5317 506.8292,-136.1958"/>
<polygon fill="#191970" stroke="#191970" points="508.113,-132.9253 497.601,-131.603 504.9941,-139.1921 508.113,-132.9253"/>
</g>
<!-- Node8 -->
<g id="node9" class="node">
<title>Node8</title>
<g id="a_node9"><a xlink:href="Degrees_8hpp.html" target="_top" xlink:title=" ">
<polygon fill="#ffffff" stroke="#000000" points="455,-168.5 455,-187.5 533,-187.5 533,-168.5 455,-168.5"/>
<text text-anchor="middle" x="494" y="-175.5" font-family="Helvetica,sans-Serif" font-size="10.00" fill="#000000">Degrees.hpp</text>
</a>
</g>
</g>
<!-- Node1&#45;&gt;Node8 -->
<g id="edge8" class="edge">
<title>Node1&#45;&gt;Node8</title>
<path fill="none" stroke="#191970" d="M499.7807,-224.2455C498.8673,-216.9382 497.5868,-206.6944 496.4631,-197.7046"/>
<polygon fill="#191970" stroke="#191970" points="499.9187,-197.1313 495.2053,-187.6427 492.9728,-197.9996 499.9187,-197.1313"/>
</g>
<!-- Node3 -->
<g id="node4" class="node">
<title>Node3</title>
<g id="a_node4"><a xlink:title=" ">
<polygon fill="#ffffff" stroke="#bfbfbf" points="494,-56.5 494,-75.5 536,-75.5 536,-56.5 494,-56.5"/>
<text text-anchor="middle" x="515" y="-63.5" font-family="Helvetica,sans-Serif" font-size="10.00" fill="#000000">array</text>
</a>
</g>
</g>
<!-- Node2&#45;&gt;Node3 -->
<g id="edge3" class="edge">
<title>Node2&#45;&gt;Node3</title>
<path fill="none" stroke="#191970" d="M478.6642,-112.2455C484.8473,-104.3761 493.7063,-93.101 501.1289,-83.6542"/>
<polygon fill="#191970" stroke="#191970" points="503.9975,-85.6683 507.4236,-75.6427 498.4932,-81.3435 503.9975,-85.6683"/>
</g>
<!-- Node4 -->
<g id="node5" class="node">
<title>Node4</title>
<g id="a_node5"><a xlink:title=" ">
<polygon fill="#ffffff" stroke="#bfbfbf" points="396.5,-.5 396.5,-19.5 443.5,-19.5 443.5,-.5 396.5,-.5"/>
<text text-anchor="middle" x="420" y="-7.5" font-family="Helvetica,sans-Serif" font-size="10.00" fill="#000000">cmath</text>
</a>
</g>
</g>
<!-- Node2&#45;&gt;Node4 -->
<g id="edge4" class="edge">
<title>Node2&#45;&gt;Node4</title>
<path fill="none" stroke="#191970" d="M468.1101,-112.3809C464.0535,-99.3308 456.1356,-75.4168 447,-56 442.5316,-46.5029 436.7272,-36.3982 431.6458,-28.0857"/>
<polygon fill="#191970" stroke="#191970" points="434.5995,-26.2077 426.3257,-19.5899 428.6667,-29.9229 434.5995,-26.2077"/>
</g>
<!-- Node5 -->
<g id="node6" class="node">
<title>Node5</title>
<g id="a_node6"><a xlink:title=" ">
<polygon fill="#ffffff" stroke="#bfbfbf" points="554,-56.5 554,-75.5 598,-75.5 598,-56.5 554,-56.5"/>
<text text-anchor="middle" x="576" y="-63.5" font-family="Helvetica,sans-Serif" font-size="10.00" fill="#000000">limits</text>
</a>
</g>
</g>
<!-- Node2&#45;&gt;Node5 -->
<g id="edge5" class="edge">
<title>Node2&#45;&gt;Node5</title>
<path fill="none" stroke="#191970" d="M489.2896,-112.2455C505.7762,-103.4527 530.2352,-90.4079 548.9765,-80.4125"/>
<polygon fill="#191970" stroke="#191970" points="550.7435,-83.4368 557.92,-75.6427 547.4494,-77.2604 550.7435,-83.4368"/>
</g>
<!-- Node6 -->
<g id="node7" class="node">
<title>Node6</title>
<g id="a_node7"><a xlink:title=" ">
<polygon fill="#ffffff" stroke="#bfbfbf" points="306.5,-56.5 306.5,-75.5 363.5,-75.5 363.5,-56.5 306.5,-56.5"/>
<text text-anchor="middle" x="335" y="-63.5" font-family="Helvetica,sans-Serif" font-size="10.00" fill="#000000">ostream</text>
</a>
</g>
</g>
<!-- Node2&#45;&gt;Node6 -->
<g id="edge6" class="edge">
<title>Node2&#45;&gt;Node6</title>
<path fill="none" stroke="#191970" d="M447.6208,-112.3733C425.4955,-103.2629 392.0866,-89.5062 367.3981,-79.3404"/>
<polygon fill="#191970" stroke="#191970" points="368.6536,-76.0723 358.0742,-75.5011 365.9883,-82.5451 368.6536,-76.0723"/>
</g>
<!-- Node7 -->
<g id="node8" class="node">
<title>Node7</title>
<g id="a_node8"><a xlink:href="uint_8hpp.html" target="_top" xlink:title=" ">
<polygon fill="#ffffff" stroke="#000000" points="382,-56.5 382,-75.5 438,-75.5 438,-56.5 382,-56.5"/>
<text text-anchor="middle" x="410" y="-63.5" font-family="Helvetica,sans-Serif" font-size="10.00" fill="#000000">uint.hpp</text>
</a>
</g>
</g>
<!-- Node2&#45;&gt;Node7 -->
<g id="edge7" class="edge">
<title>Node2&#45;&gt;Node7</title>
<path fill="none" stroke="#191970" d="M460.3746,-112.2455C451.4527,-104.0549 438.512,-92.1749 427.9808,-82.5069"/>
<polygon fill="#191970" stroke="#191970" points="430.2371,-79.8271 420.5036,-75.6427 425.5032,-84.9837 430.2371,-79.8271"/>
</g>
<!-- Node8&#45;&gt;Node4 -->
<g id="edge9" class="edge">
<title>Node8&#45;&gt;Node4</title>
<path fill="none" stroke="#191970" d="M515.4648,-168.3756C557.1244,-148.39 641.9076,-100.5351 607,-56 588.3134,-32.1597 502.3897,-19.0221 453.7759,-13.3804"/>
<polygon fill="#191970" stroke="#191970" points="454.0451,-9.8888 443.7187,-12.2583 453.2689,-16.8456 454.0451,-9.8888"/>
</g>
<!-- Node9&#45;&gt;Node2 -->
<g id="edge11" class="edge">
<title>Node9&#45;&gt;Node2</title>
<path fill="none" stroke="#191970" d="M388.6733,-224.4509C403.8171,-205.6054 437.7443,-163.3849 456.9842,-139.4419"/>
<polygon fill="#191970" stroke="#191970" points="459.8104,-141.5124 463.3461,-131.5249 454.3538,-137.1276 459.8104,-141.5124"/>
</g>
<!-- Node9&#45;&gt;Node8 -->
<g id="edge12" class="edge">
<title>Node9&#45;&gt;Node8</title>
<path fill="none" stroke="#191970" d="M400.4254,-224.3733C418.4021,-215.4644 445.3441,-202.1127 465.709,-192.0203"/>
<polygon fill="#191970" stroke="#191970" points="467.4222,-195.0776 474.8281,-187.5011 464.3139,-188.8055 467.4222,-195.0776"/>
</g>
<!-- Node10 -->
<g id="node11" class="node">
<title>Node10</title>
<g id="a_node11"><a xlink:href="Line_8hpp.html" target="_top" xlink:title=" ">
<polygon fill="#ffffff" stroke="#000000" points="303,-168.5 303,-187.5 361,-187.5 361,-168.5 303,-168.5"/>
<text text-anchor="middle" x="332" y="-175.5" font-family="Helvetica,sans-Serif" font-size="10.00" fill="#000000">Line.hpp</text>
</a>
</g>
</g>
<!-- Node9&#45;&gt;Node10 -->
<g id="edge13" class="edge">
<title>Node9&#45;&gt;Node10</title>
<path fill="none" stroke="#191970" d="M372.4649,-224.2455C365.5088,-216.2958 355.5117,-204.8706 347.1949,-195.3656"/>
<polygon fill="#191970" stroke="#191970" points="349.6564,-192.8637 340.4373,-187.6427 344.3884,-197.4732 349.6564,-192.8637"/>
</g>
<!-- Node19 -->
<g id="node20" class="node">
<title>Node19</title>
<g id="a_node20"><a xlink:href="Pixel_8hpp.html" target="_top" xlink:title=" ">
<polygon fill="#ffffff" stroke="#000000" points="358,-112.5 358,-131.5 420,-131.5 420,-112.5 358,-112.5"/>
<text text-anchor="middle" x="389" y="-119.5" font-family="Helvetica,sans-Serif" font-size="10.00" fill="#000000">Pixel.hpp</text>
</a>
</g>
</g>
<!-- Node9&#45;&gt;Node19 -->
<g id="edge32" class="edge">
<title>Node9&#45;&gt;Node19</title>
<path fill="none" stroke="#191970" d="M381.6821,-224.4509C382.9869,-206.184 385.8603,-165.9553 387.593,-141.6976"/>
<polygon fill="#191970" stroke="#191970" points="391.0982,-141.7489 388.3197,-131.5249 384.116,-141.2501 391.0982,-141.7489"/>
</g>
<!-- Node21 -->
<g id="node22" class="node">
<title>Node21</title>
<g id="a_node22"><a xlink:title=" ">
<polygon fill="#ffffff" stroke="#bfbfbf" points="229,-168.5 229,-187.5 285,-187.5 285,-168.5 229,-168.5"/>
<text text-anchor="middle" x="257" y="-175.5" font-family="Helvetica,sans-Serif" font-size="10.00" fill="#000000">optional</text>
</a>
</g>
</g>
<!-- Node9&#45;&gt;Node21 -->
<g id="edge33" class="edge">
<title>Node9&#45;&gt;Node21</title>
<path fill="none" stroke="#191970" d="M359.6836,-224.3733C339.7784,-215.3838 309.8564,-201.8706 287.44,-191.7471"/>
<polygon fill="#191970" stroke="#191970" points="288.5925,-188.4272 278.0382,-187.5011 285.7113,-194.8068 288.5925,-188.4272"/>
</g>
<!-- Node22 -->
<g id="node23" class="node">
<title>Node22</title>
<g id="a_node23"><a xlink:title=" ">
<polygon fill="#ffffff" stroke="#bfbfbf" points="163.5,-168.5 163.5,-187.5 210.5,-187.5 210.5,-168.5 163.5,-168.5"/>
<text text-anchor="middle" x="187" y="-175.5" font-family="Helvetica,sans-Serif" font-size="10.00" fill="#000000">vector</text>
</a>
</g>
</g>
<!-- Node9&#45;&gt;Node22 -->
<g id="edge34" class="edge">
<title>Node9&#45;&gt;Node22</title>
<path fill="none" stroke="#191970" d="M347.0325,-224.4647C316.392,-215.8256 269.8479,-202.6099 220.3775,-188.0801"/>
<polygon fill="#191970" stroke="#191970" points="221.3609,-184.7211 210.7795,-185.2553 219.3844,-191.4363 221.3609,-184.7211"/>
</g>
<!-- Node10&#45;&gt;Node2 -->
<g id="edge14" class="edge">
<title>Node10&#45;&gt;Node2</title>
<path fill="none" stroke="#191970" d="M355.895,-168.3733C378.5082,-159.2629 412.6542,-145.5062 437.8873,-135.3404"/>
<polygon fill="#191970" stroke="#191970" points="439.4493,-138.4845 447.4169,-131.5011 436.8334,-131.9917 439.4493,-138.4845"/>
</g>
<!-- Node10&#45;&gt;Node6 -->
<g id="edge30" class="edge">
<title>Node10&#45;&gt;Node6</title>
<path fill="none" stroke="#191970" d="M332.2558,-168.4509C332.7451,-150.184 333.8226,-109.9553 334.4724,-85.6976"/>
<polygon fill="#191970" stroke="#191970" points="337.9758,-85.6151 334.7449,-75.5249 330.9783,-85.4276 337.9758,-85.6151"/>
</g>
<!-- Node11 -->
<g id="node12" class="node">
<title>Node11</title>
<g id="a_node12"><a xlink:href="Matrix_8hpp.html" target="_top" xlink:title=" ">
<polygon fill="#ffffff" stroke="#000000" points="234,-112.5 234,-131.5 302,-131.5 302,-112.5 234,-112.5"/>
<text text-anchor="middle" x="268" y="-119.5" font-family="Helvetica,sans-Serif" font-size="10.00" fill="#000000">Matrix.hpp</text>
</a>
</g>
</g>
<!-- Node10&#45;&gt;Node11 -->
<g id="edge15" class="edge">
<title>Node10&#45;&gt;Node11</title>
<path fill="none" stroke="#191970" d="M320.8521,-168.2455C311.4913,-160.0549 297.9142,-148.1749 286.8651,-138.5069"/>
<polygon fill="#191970" stroke="#191970" points="288.8508,-135.5937 279.0202,-131.6427 284.2412,-140.8618 288.8508,-135.5937"/>
</g>
<!-- Node10&#45;&gt;Node19 -->
<g id="edge27" class="edge">
<title>Node10&#45;&gt;Node19</title>
<path fill="none" stroke="#191970" d="M341.9286,-168.2455C350.1838,-160.1352 362.1209,-148.4075 371.9082,-138.7919"/>
<polygon fill="#191970" stroke="#191970" points="374.5046,-141.1476 379.1851,-131.6427 369.5989,-136.1542 374.5046,-141.1476"/>
</g>
<!-- Node20 -->
<g id="node21" class="node">
<title>Node20</title>
<g id="a_node21"><a xlink:title=" ">
<polygon fill="#ffffff" stroke="#bfbfbf" points="156,-112.5 156,-131.5 216,-131.5 216,-112.5 156,-112.5"/>
<text text-anchor="middle" x="186" y="-119.5" font-family="Helvetica,sans-Serif" font-size="10.00" fill="#000000">iostream</text>
</a>
</g>
</g>
<!-- Node10&#45;&gt;Node20 -->
<g id="edge31" class="edge">
<title>Node10&#45;&gt;Node20</title>
<path fill="none" stroke="#191970" d="M306.9017,-168.3733C283.0445,-159.2226 246.9665,-145.3844 220.429,-135.2057"/>
<polygon fill="#191970" stroke="#191970" points="221.361,-131.8145 210.7708,-131.5011 218.8541,-138.3503 221.361,-131.8145"/>
</g>
<!-- Node11&#45;&gt;Node4 -->
<g id="edge24" class="edge">
<title>Node11&#45;&gt;Node4</title>
<path fill="none" stroke="#191970" d="M269.8217,-112.0952C272.9429,-97.8186 280.6295,-71.4766 297,-56 310.23,-43.4924 354.8277,-28.6867 386.5039,-19.3187"/>
<polygon fill="#191970" stroke="#191970" points="387.6522,-22.6299 396.2781,-16.4781 385.6986,-15.908 387.6522,-22.6299"/>
</g>
<!-- Node11&#45;&gt;Node6 -->
<g id="edge26" class="edge">
<title>Node11&#45;&gt;Node6</title>
<path fill="none" stroke="#191970" d="M279.6705,-112.2455C289.5661,-103.9746 303.9627,-91.9416 315.5901,-82.2232"/>
<polygon fill="#191970" stroke="#191970" points="318.035,-84.7413 323.4632,-75.6427 313.5458,-79.3703 318.035,-84.7413"/>
</g>
<!-- Node12 -->
<g id="node13" class="node">
<title>Node12</title>
<g id="a_node13"><a xlink:href="Array_8hpp.html" target="_top" xlink:title=" ">
<polygon fill="#ffffff" stroke="#000000" points="114,-56.5 114,-75.5 176,-75.5 176,-56.5 114,-56.5"/>
<text text-anchor="middle" x="145" y="-63.5" font-family="Helvetica,sans-Serif" font-size="10.00" fill="#000000">Array.hpp</text>
</a>
</g>
</g>
<!-- Node11&#45;&gt;Node12 -->
<g id="edge16" class="edge">
<title>Node11&#45;&gt;Node12</title>
<path fill="none" stroke="#191970" d="M246.8555,-112.3733C227.1108,-103.3838 197.4302,-89.8706 175.1945,-79.7471"/>
<polygon fill="#191970" stroke="#191970" points="176.42,-76.4594 165.8685,-75.5011 173.5194,-82.8302 176.42,-76.4594"/>
</g>
<!-- Node13 -->
<g id="node14" class="node">
<title>Node13</title>
<g id="a_node14"><a xlink:title=" ">
<polygon fill="#ffffff" stroke="#bfbfbf" points="0,-.5 0,-19.5 64,-19.5 64,-.5 0,-.5"/>
<text text-anchor="middle" x="32" y="-7.5" font-family="Helvetica,sans-Serif" font-size="10.00" fill="#000000">algorithm</text>
</a>
</g>
</g>
<!-- Node11&#45;&gt;Node13 -->
<g id="edge23" class="edge">
<title>Node11&#45;&gt;Node13</title>
<path fill="none" stroke="#191970" d="M233.8896,-113.263C189.5335,-101.7651 116.3545,-82.2779 105,-76 82.039,-63.3048 60.3573,-42.0917 46.682,-27.1478"/>
<polygon fill="#191970" stroke="#191970" points="49.2138,-24.7278 39.9511,-19.5844 43.9846,-29.3815 49.2138,-24.7278"/>
</g>
<!-- Node18 -->
<g id="node19" class="node">
<title>Node18</title>
<g id="a_node19"><a xlink:title=" ">
<polygon fill="#ffffff" stroke="#bfbfbf" points="194,-56.5 194,-75.5 250,-75.5 250,-56.5 194,-56.5"/>
<text text-anchor="middle" x="222" y="-63.5" font-family="Helvetica,sans-Serif" font-size="10.00" fill="#000000">iomanip</text>
</a>
</g>
</g>
<!-- Node11&#45;&gt;Node18 -->
<g id="edge25" class="edge">
<title>Node11&#45;&gt;Node18</title>
<path fill="none" stroke="#191970" d="M259.9874,-112.2455C253.5232,-104.3761 244.2615,-93.101 236.5017,-83.6542"/>
<polygon fill="#191970" stroke="#191970" points="238.9727,-81.1484 229.9208,-75.6427 233.5636,-85.5916 238.9727,-81.1484"/>
</g>
<!-- Node12&#45;&gt;Node4 -->
<g id="edge18" class="edge">
<title>Node12&#45;&gt;Node4</title>
<path fill="none" stroke="#191970" d="M176.4013,-57.9618C179.3031,-57.2758 182.2028,-56.6113 185,-56 269.8184,-37.4632 292.0317,-37.8371 377,-20 380.052,-19.3593 383.22,-18.6697 386.3901,-17.9628"/>
<polygon fill="#191970" stroke="#191970" points="387.4113,-21.3199 396.3836,-15.6853 385.8559,-14.4949 387.4113,-21.3199"/>
</g>
<!-- Node12&#45;&gt;Node13 -->
<g id="edge17" class="edge">
<title>Node12&#45;&gt;Node13</title>
<path fill="none" stroke="#191970" d="M125.5746,-56.3733C107.5979,-47.4644 80.6559,-34.1127 60.291,-24.0203"/>
<polygon fill="#191970" stroke="#191970" points="61.6861,-20.8055 51.1719,-19.5011 58.5778,-27.0776 61.6861,-20.8055"/>
</g>
<!-- Node14 -->
<g id="node15" class="node">
<title>Node14</title>
<g id="a_node15"><a xlink:title=" ">
<polygon fill="#ffffff" stroke="#bfbfbf" points="82.5,-.5 82.5,-19.5 135.5,-19.5 135.5,-.5 82.5,-.5"/>
<text text-anchor="middle" x="109" y="-7.5" font-family="Helvetica,sans-Serif" font-size="10.00" fill="#000000">cstddef</text>
</a>
</g>
</g>
<!-- Node12&#45;&gt;Node14 -->
<g id="edge19" class="edge">
<title>Node12&#45;&gt;Node14</title>
<path fill="none" stroke="#191970" d="M138.7293,-56.2455C133.7736,-48.5367 126.717,-37.5598 120.7224,-28.2348"/>
<polygon fill="#191970" stroke="#191970" points="123.5506,-26.1618 115.1989,-19.6427 117.6624,-29.9471 123.5506,-26.1618"/>
</g>
<!-- Node15 -->
<g id="node16" class="node">
<title>Node15</title>
<g id="a_node16"><a xlink:title=" ">
<polygon fill="#ffffff" stroke="#bfbfbf" points="154,-.5 154,-19.5 210,-19.5 210,-.5 154,-.5"/>
<text text-anchor="middle" x="182" y="-7.5" font-family="Helvetica,sans-Serif" font-size="10.00" fill="#000000">numeric</text>
</a>
</g>
</g>
<!-- Node12&#45;&gt;Node15 -->
<g id="edge20" class="edge">
<title>Node12&#45;&gt;Node15</title>
<path fill="none" stroke="#191970" d="M151.4449,-56.2455C156.5382,-48.5367 163.7908,-37.5598 169.952,-28.2348"/>
<polygon fill="#191970" stroke="#191970" points="173.0365,-29.9155 175.6289,-19.6427 167.1962,-26.0566 173.0365,-29.9155"/>
</g>
<!-- Node16 -->
<g id="node17" class="node">
<title>Node16</title>
<g id="a_node17"><a xlink:title=" ">
<polygon fill="#ffffff" stroke="#bfbfbf" points="228.5,-.5 228.5,-19.5 297.5,-19.5 297.5,-.5 228.5,-.5"/>
<text text-anchor="middle" x="263" y="-7.5" font-family="Helvetica,sans-Serif" font-size="10.00" fill="#000000">type_traits</text>
</a>
</g>
</g>
<!-- Node12&#45;&gt;Node16 -->
<g id="edge21" class="edge">
<title>Node12&#45;&gt;Node16</title>
<path fill="none" stroke="#191970" d="M165.2849,-56.3733C184.1421,-47.4241 212.446,-33.9917 233.7455,-23.8835"/>
<polygon fill="#191970" stroke="#191970" points="235.4461,-26.9506 242.9798,-19.5011 232.4449,-20.6266 235.4461,-26.9506"/>
</g>
<!-- Node17 -->
<g id="node18" class="node">
<title>Node17</title>
<g id="a_node18"><a xlink:title=" ">
<polygon fill="#ffffff" stroke="#bfbfbf" points="316,-.5 316,-19.5 368,-19.5 368,-.5 316,-.5"/>
<text text-anchor="middle" x="342" y="-7.5" font-family="Helvetica,sans-Serif" font-size="10.00" fill="#000000">cassert</text>
</a>
</g>
</g>
<!-- Node12&#45;&gt;Node17 -->
<g id="edge22" class="edge">
<title>Node12&#45;&gt;Node17</title>
<path fill="none" stroke="#191970" d="M176.2152,-57.1266C211.5197,-47.0908 268.9143,-30.7756 306.0592,-20.2167"/>
<polygon fill="#191970" stroke="#191970" points="307.3019,-23.5022 315.9638,-17.4011 305.3879,-16.7689 307.3019,-23.5022"/>
</g>
<!-- Node19&#45;&gt;Node6 -->
<g id="edge29" class="edge">
<title>Node19&#45;&gt;Node6</title>
<path fill="none" stroke="#191970" d="M379.5939,-112.2455C371.8507,-104.2155 360.688,-92.6394 351.4682,-83.0781"/>
<polygon fill="#191970" stroke="#191970" points="353.7591,-80.4117 344.2983,-75.6427 348.7202,-85.2706 353.7591,-80.4117"/>
</g>
<!-- Node19&#45;&gt;Node7 -->
<g id="edge28" class="edge">
<title>Node19&#45;&gt;Node7</title>
<path fill="none" stroke="#191970" d="M392.6579,-112.2455C395.4584,-104.7776 399.409,-94.2427 402.8324,-85.1137"/>
<polygon fill="#191970" stroke="#191970" points="406.1499,-86.2349 406.384,-75.6427 399.5955,-83.777 406.1499,-86.2349"/>
</g>
</g>
</svg>
