<?xml version="1.0" encoding="UTF-8" standalone="no"?>
<!DOCTYPE svg PUBLIC "-//W3C//DTD SVG 1.1//EN"
 "http://www.w3.org/Graphics/SVG/1.1/DTD/svg11.dtd">
<!-- Generated by graphviz version 2.40.1 (20161225.0304)
 -->
<!-- Title: /home/pieter/GitHub/EAGLE&#45;ZYBO&#45;Linux/src/location&#45;finder/src/LocationFinder.cpp Pages: 1 -->
<svg width="1154pt" height="408pt"
 viewBox="0.00 0.00 1154.00 408.00" xmlns="http://www.w3.org/2000/svg" xmlns:xlink="http://www.w3.org/1999/xlink">
<g id="graph0" class="graph" transform="scale(1 1) rotate(0) translate(4 404)">
<title>/home/pieter/GitHub/EAGLE&#45;ZYBO&#45;Linux/src/location&#45;finder/src/LocationFinder.cpp</title>
<polygon fill="#ffffff" stroke="transparent" points="-4,4 -4,-404 1150,-404 1150,4 -4,4"/>
<!-- Node0 -->
<g id="node1" class="node">
<title>Node0</title>
<g id="a_node1"><a xlink:title=" ">
<polygon fill="#bfbfbf" stroke="#000000" points="524,-347.5 524,-399.5 676,-399.5 676,-347.5 524,-347.5"/>
<text text-anchor="start" x="532" y="-387.5" font-family="Helvetica,sans-Serif" font-size="10.00" fill="#000000">/home/pieter/GitHub</text>
<text text-anchor="start" x="532" y="-376.5" font-family="Helvetica,sans-Serif" font-size="10.00" fill="#000000">/EAGLE&#45;ZYBO&#45;Linux/src</text>
<text text-anchor="start" x="532" y="-365.5" font-family="Helvetica,sans-Serif" font-size="10.00" fill="#000000">/location&#45;finder/src/Location</text>
<text text-anchor="middle" x="600" y="-354.5" font-family="Helvetica,sans-Serif" font-size="10.00" fill="#000000">Finder.cpp</text>
</a>
</g>
</g>
<!-- Node1 -->
<g id="node2" class="node">
<title>Node1</title>
<g id="a_node2"><a xlink:href="GridFinder_8hpp.html" target="_top" xlink:title=" ">
<polygon fill="#ffffff" stroke="#000000" points="351,-286 351,-305 437,-305 437,-286 351,-286"/>
<text text-anchor="middle" x="394" y="-293" font-family="Helvetica,sans-Serif" font-size="10.00" fill="#000000">GridFinder.hpp</text>
</a>
</g>
</g>
<!-- Node0&#45;&gt;Node1 -->
<g id="edge1" class="edge">
<title>Node0&#45;&gt;Node1</title>
<path fill="none" stroke="#191970" d="M531.1186,-347.4187C496.8462,-334.4418 456.8923,-319.3136 428.9848,-308.7467"/>
<polygon fill="#191970" stroke="#191970" points="429.8725,-305.3403 419.281,-305.0724 427.3937,-311.8868 429.8725,-305.3403"/>
</g>
<!-- Node24 -->
<g id="node25" class="node">
<title>Node24</title>
<g id="a_node25"><a xlink:title=" ">
<polygon fill="#ffffff" stroke="#bfbfbf" points="150,-112.5 150,-131.5 210,-131.5 210,-112.5 150,-112.5"/>
<text text-anchor="middle" x="180" y="-119.5" font-family="Helvetica,sans-Serif" font-size="10.00" fill="#000000">iostream</text>
</a>
</g>
</g>
<!-- Node0&#45;&gt;Node24 -->
<g id="edge56" class="edge">
<title>Node0&#45;&gt;Node24</title>
<path fill="none" stroke="#191970" d="M523.8992,-365.5857C394.8013,-350.4099 141.7147,-312.4918 89,-244 59.5827,-205.7783 118.3784,-160.0385 154.5486,-136.933"/>
<polygon fill="#191970" stroke="#191970" points="156.5422,-139.8149 163.1894,-131.5647 152.8482,-133.869 156.5422,-139.8149"/>
</g>
<!-- Node26 -->
<g id="node27" class="node">
<title>Node26</title>
<g id="a_node27"><a xlink:href="Mask_8hpp.html" target="_top" xlink:title=" ">
<polygon fill="#ffffff" stroke="#000000" points="626.5,-224.5 626.5,-243.5 689.5,-243.5 689.5,-224.5 626.5,-224.5"/>
<text text-anchor="middle" x="658" y="-231.5" font-family="Helvetica,sans-Serif" font-size="10.00" fill="#000000">Mask.hpp</text>
</a>
</g>
</g>
<!-- Node0&#45;&gt;Node26 -->
<g id="edge55" class="edge">
<title>Node0&#45;&gt;Node26</title>
<path fill="none" stroke="#191970" d="M601.7923,-347.3861C603.9409,-327.9871 608.6574,-301.3098 619,-280 624.2116,-269.262 632.5155,-258.9656 640.124,-250.8469"/>
<polygon fill="#191970" stroke="#191970" points="642.8248,-253.0931 647.3606,-243.5183 637.8438,-248.1747 642.8248,-253.0931"/>
</g>
<!-- Node29 -->
<g id="node30" class="node">
<title>Node29</title>
<g id="a_node30"><a xlink:href="LocationFinder_8hpp.html" target="_top" xlink:title=" ">
<polygon fill="#ffffff" stroke="#000000" points="464.5,-286 464.5,-305 571.5,-305 571.5,-286 464.5,-286"/>
<text text-anchor="middle" x="518" y="-293" font-family="Helvetica,sans-Serif" font-size="10.00" fill="#000000">LocationFinder.hpp</text>
</a>
</g>
</g>
<!-- Node0&#45;&gt;Node29 -->
<g id="edge52" class="edge">
<title>Node0&#45;&gt;Node29</title>
<path fill="none" stroke="#191970" d="M572.2385,-347.0928C560.0944,-335.541 546.2144,-322.338 535.5356,-312.1802"/>
<polygon fill="#191970" stroke="#191970" points="537.7332,-309.4401 528.0753,-305.0839 532.9087,-314.512 537.7332,-309.4401"/>
</g>
<!-- Node31 -->
<g id="node32" class="node">
<title>Node31</title>
<g id="a_node32"><a xlink:title=" ">
<polygon fill="#ffffff" stroke="#bfbfbf" points="628,-286 628,-305 672,-305 672,-286 628,-286"/>
<text text-anchor="middle" x="650" y="-293" font-family="Helvetica,sans-Serif" font-size="10.00" fill="#000000">string</text>
</a>
</g>
</g>
<!-- Node0&#45;&gt;Node31 -->
<g id="edge57" class="edge">
<title>Node0&#45;&gt;Node31</title>
<path fill="none" stroke="#191970" d="M616.9277,-347.0928C623.9697,-336.1073 631.9689,-323.6285 638.3363,-313.6954"/>
<polygon fill="#191970" stroke="#191970" points="641.4064,-315.3915 643.8565,-305.0839 635.5132,-311.6138 641.4064,-315.3915"/>
</g>
<!-- Node32 -->
<g id="node33" class="node">
<title>Node32</title>
<g id="a_node33"><a xlink:title=" ">
<polygon fill="#ffffff" stroke="#bfbfbf" points="690,-286 690,-305 806,-305 806,-286 690,-286"/>
<text text-anchor="middle" x="748" y="-293" font-family="Helvetica,sans-Serif" font-size="10.00" fill="#000000">opencv2/opencv.hpp</text>
</a>
</g>
</g>
<!-- Node0&#45;&gt;Node32 -->
<g id="edge58" class="edge">
<title>Node0&#45;&gt;Node32</title>
<path fill="none" stroke="#191970" d="M649.6936,-347.3101C673.3642,-334.8351 700.7675,-320.3928 720.6192,-309.9304"/>
<polygon fill="#191970" stroke="#191970" points="722.4938,-312.8989 729.7085,-305.1401 719.23,-306.7062 722.4938,-312.8989"/>
</g>
<!-- Node33 -->
<g id="node34" class="node">
<title>Node33</title>
<g id="a_node34"><a xlink:title=" ">
<polygon fill="#ffffff" stroke="#bfbfbf" points="824,-280.5 824,-310.5 930,-310.5 930,-280.5 824,-280.5"/>
<text text-anchor="start" x="832" y="-298.5" font-family="Helvetica,sans-Serif" font-size="10.00" fill="#000000">opencv2/core/utils</text>
<text text-anchor="middle" x="877" y="-287.5" font-family="Helvetica,sans-Serif" font-size="10.00" fill="#000000">/logger.hpp</text>
</a>
</g>
</g>
<!-- Node0&#45;&gt;Node33 -->
<g id="edge59" class="edge">
<title>Node0&#45;&gt;Node33</title>
<path fill="none" stroke="#191970" d="M676.0579,-352.083C719.4108,-339.8753 773.0873,-324.7606 814.0547,-313.2247"/>
<polygon fill="#191970" stroke="#191970" points="815.2392,-316.5273 823.9162,-310.4478 813.3418,-309.7894 815.2392,-316.5273"/>
</g>
<!-- Node2 -->
<g id="node3" class="node">
<title>Node2</title>
<g id="a_node3"><a xlink:href="ANSIColors_8hpp.html" target="_top" xlink:title=" ">
<polygon fill="#ffffff" stroke="#000000" points="98,-224.5 98,-243.5 190,-243.5 190,-224.5 98,-224.5"/>
<text text-anchor="middle" x="144" y="-231.5" font-family="Helvetica,sans-Serif" font-size="10.00" fill="#000000">ANSIColors.hpp</text>
</a>
</g>
</g>
<!-- Node1&#45;&gt;Node2 -->
<g id="edge2" class="edge">
<title>Node1&#45;&gt;Node2</title>
<path fill="none" stroke="#191970" d="M355.2118,-285.9581C311.4216,-275.1857 240.1091,-257.6428 192.6304,-245.9631"/>
<polygon fill="#191970" stroke="#191970" points="193.4258,-242.5545 182.8792,-243.5643 191.7536,-249.3518 193.4258,-242.5545"/>
</g>
<!-- Node3 -->
<g id="node4" class="node">
<title>Node3</title>
<g id="a_node4"><a xlink:href="Angle_8hpp.html" target="_top" xlink:title=" ">
<polygon fill="#ffffff" stroke="#000000" points="381.5,-112.5 381.5,-131.5 446.5,-131.5 446.5,-112.5 381.5,-112.5"/>
<text text-anchor="middle" x="414" y="-119.5" font-family="Helvetica,sans-Serif" font-size="10.00" fill="#000000">Angle.hpp</text>
</a>
</g>
</g>
<!-- Node1&#45;&gt;Node3 -->
<g id="edge3" class="edge">
<title>Node1&#45;&gt;Node3</title>
<path fill="none" stroke="#191970" d="M382.2775,-285.8841C371.8065,-276.4695 357.1939,-261.0823 351,-244 347.97,-235.6435 348.5722,-232.5509 351,-224 360.3175,-191.1836 383.5275,-158.5782 399.0222,-139.3648"/>
<polygon fill="#191970" stroke="#191970" points="401.8325,-141.4588 405.5208,-131.5267 396.4438,-136.991 401.8325,-141.4588"/>
</g>
<!-- Node6 -->
<g id="node7" class="node">
<title>Node6</title>
<g id="a_node7"><a xlink:title=" ">
<polygon fill="#ffffff" stroke="#bfbfbf" points="507,-56.5 507,-75.5 551,-75.5 551,-56.5 507,-56.5"/>
<text text-anchor="middle" x="529" y="-63.5" font-family="Helvetica,sans-Serif" font-size="10.00" fill="#000000">limits</text>
</a>
</g>
</g>
<!-- Node1&#45;&gt;Node6 -->
<g id="edge50" class="edge">
<title>Node1&#45;&gt;Node6</title>
<path fill="none" stroke="#191970" d="M399.6289,-285.9309C420.1277,-251.083 491.0096,-130.5837 518.2341,-84.302"/>
<polygon fill="#191970" stroke="#191970" points="521.2936,-86.0039 523.3471,-75.61 515.26,-82.4548 521.2936,-86.0039"/>
</g>
<!-- Node9 -->
<g id="node10" class="node">
<title>Node9</title>
<g id="a_node10"><a xlink:href="Bresenham_8hpp.html" target="_top" xlink:title=" ">
<polygon fill="#ffffff" stroke="#000000" points="771.5,-168.5 771.5,-187.5 864.5,-187.5 864.5,-168.5 771.5,-168.5"/>
<text text-anchor="middle" x="818" y="-175.5" font-family="Helvetica,sans-Serif" font-size="10.00" fill="#000000">Bresenham.hpp</text>
</a>
</g>
</g>
<!-- Node1&#45;&gt;Node9 -->
<g id="edge9" class="edge">
<title>Node1&#45;&gt;Node9</title>
<path fill="none" stroke="#191970" d="M429.6016,-285.9656C438.2073,-283.8369 447.4027,-281.7072 456,-280 563.0877,-258.7347 595.5972,-279.0408 699,-244 718.0792,-237.5345 764.5502,-210.3926 793.4496,-192.9922"/>
<polygon fill="#191970" stroke="#191970" points="795.4139,-195.8946 802.1582,-187.7236 791.7904,-189.9054 795.4139,-195.8946"/>
</g>
<!-- Node12 -->
<g id="node13" class="node">
<title>Node12</title>
<g id="a_node13"><a xlink:href="CenterPointOutLineIterator_8hpp.html" target="_top" xlink:title=" ">
<polygon fill="#ffffff" stroke="#000000" points="882.5,-168.5 882.5,-187.5 1049.5,-187.5 1049.5,-168.5 882.5,-168.5"/>
<text text-anchor="middle" x="966" y="-175.5" font-family="Helvetica,sans-Serif" font-size="10.00" fill="#000000">CenterPointOutLineIterator.hpp</text>
</a>
</g>
</g>
<!-- Node1&#45;&gt;Node12 -->
<g id="edge17" class="edge">
<title>Node1&#45;&gt;Node12</title>
<path fill="none" stroke="#191970" d="M429.2543,-285.9391C437.9542,-283.7868 447.2792,-281.6531 456,-280 577.5413,-256.9602 613.1987,-278.4872 732,-244 752.2415,-238.124 755.1004,-230.9463 775,-224 817.2718,-209.2442 866.4126,-197.5261 904.2632,-189.6103"/>
<polygon fill="#191970" stroke="#191970" points="905.038,-193.0242 914.1269,-187.5798 903.6266,-186.168 905.038,-193.0242"/>
</g>
<!-- Node13 -->
<g id="node14" class="node">
<title>Node13</title>
<g id="a_node14"><a xlink:href="HelperStructs_8hpp.html" target="_top" xlink:title=" ">
<polygon fill="#ffffff" stroke="#000000" points="466,-224.5 466,-243.5 570,-243.5 570,-224.5 466,-224.5"/>
<text text-anchor="middle" x="518" y="-231.5" font-family="Helvetica,sans-Serif" font-size="10.00" fill="#000000">HelperStructs.hpp</text>
</a>
</g>
</g>
<!-- Node1&#45;&gt;Node13 -->
<g id="edge19" class="edge">
<title>Node1&#45;&gt;Node13</title>
<path fill="none" stroke="#191970" d="M413.375,-285.8906C433.8495,-275.7359 466.3442,-259.6196 489.6885,-248.0416"/>
<polygon fill="#191970" stroke="#191970" points="491.3575,-251.1207 498.7611,-243.5419 488.2472,-244.8496 491.3575,-251.1207"/>
</g>
<!-- Node15 -->
<g id="node16" class="node">
<title>Node15</title>
<g id="a_node16"><a xlink:href="Line_8hpp.html" target="_top" xlink:title=" ">
<polygon fill="#ffffff" stroke="#000000" points="284,-168.5 284,-187.5 342,-187.5 342,-168.5 284,-168.5"/>
<text text-anchor="middle" x="313" y="-175.5" font-family="Helvetica,sans-Serif" font-size="10.00" fill="#000000">Line.hpp</text>
</a>
</g>
</g>
<!-- Node1&#45;&gt;Node15 -->
<g id="edge42" class="edge">
<title>Node1&#45;&gt;Node15</title>
<path fill="none" stroke="#191970" d="M369.6983,-285.9544C352.1199,-277.6684 329.512,-263.8555 318,-244 309.9046,-230.0374 309.1872,-211.5291 310.1887,-197.6659"/>
<polygon fill="#191970" stroke="#191970" points="313.6691,-198.0349 311.2524,-187.7194 306.7088,-197.2905 313.6691,-198.0349"/>
</g>
<!-- Node16 -->
<g id="node17" class="node">
<title>Node16</title>
<g id="a_node17"><a xlink:href="Matrix_8hpp.html" target="_top" xlink:title=" ">
<polygon fill="#ffffff" stroke="#000000" points="228,-112.5 228,-131.5 296,-131.5 296,-112.5 228,-112.5"/>
<text text-anchor="middle" x="262" y="-119.5" font-family="Helvetica,sans-Serif" font-size="10.00" fill="#000000">Matrix.hpp</text>
</a>
</g>
</g>
<!-- Node1&#45;&gt;Node16 -->
<g id="edge46" class="edge">
<title>Node1&#45;&gt;Node16</title>
<path fill="none" stroke="#191970" d="M371.4373,-285.8508C352.7577,-277.021 326.3933,-262.5237 308,-244 287.6447,-223.5005 285.2712,-215.0013 275,-188 269.2908,-172.9913 265.9642,-155.0651 264.1078,-141.6853"/>
<polygon fill="#191970" stroke="#191970" points="267.5716,-141.1759 262.8742,-131.6793 260.6242,-142.0325 267.5716,-141.1759"/>
</g>
<!-- Node18 -->
<g id="node19" class="node">
<title>Node18</title>
<g id="a_node19"><a xlink:title=" ">
<polygon fill="#ffffff" stroke="#bfbfbf" points="0,-.5 0,-19.5 64,-19.5 64,-.5 0,-.5"/>
<text text-anchor="middle" x="32" y="-7.5" font-family="Helvetica,sans-Serif" font-size="10.00" fill="#000000">algorithm</text>
</a>
</g>
</g>
<!-- Node1&#45;&gt;Node18 -->
<g id="edge47" class="edge">
<title>Node1&#45;&gt;Node18</title>
<path fill="none" stroke="#191970" d="M350.7668,-291.8265C277.6213,-285.0184 133.1016,-268.8343 89,-244 55.2279,-224.9824 32,-216.7585 32,-178 32,-178 32,-178 32,-122 32,-89.7116 32,-52.1872 32,-29.8048"/>
<polygon fill="#191970" stroke="#191970" points="35.5001,-29.5883 32,-19.5884 28.5001,-29.5884 35.5001,-29.5883"/>
</g>
<!-- Node1&#45;&gt;Node24 -->
<g id="edge49" class="edge">
<title>Node1&#45;&gt;Node24</title>
<path fill="none" stroke="#191970" d="M367.1031,-285.8665C344.6365,-277.0462 312.4459,-262.5541 288,-244 247.6635,-213.3852 210.9289,-165.9299 192.4829,-140.157"/>
<polygon fill="#191970" stroke="#191970" points="195.1589,-137.878 186.5417,-131.7141 189.4342,-141.9065 195.1589,-137.878"/>
</g>
<!-- Node25 -->
<g id="node26" class="node">
<title>Node25</title>
<g id="a_node26"><a xlink:title=" ">
<polygon fill="#ffffff" stroke="#bfbfbf" points="516,-168.5 516,-187.5 572,-187.5 572,-168.5 516,-168.5"/>
<text text-anchor="middle" x="544" y="-175.5" font-family="Helvetica,sans-Serif" font-size="10.00" fill="#000000">optional</text>
</a>
</g>
</g>
<!-- Node1&#45;&gt;Node25 -->
<g id="edge51" class="edge">
<title>Node1&#45;&gt;Node25</title>
<path fill="none" stroke="#191970" d="M430.424,-285.9508C483.6597,-271.9118 576.6997,-247.0281 579,-244 590.783,-228.4889 576.6941,-208.4616 563.0345,-194.5558"/>
<polygon fill="#191970" stroke="#191970" points="565.3116,-191.8911 555.6569,-187.5277 560.4833,-196.9594 565.3116,-191.8911"/>
</g>
<!-- Node1&#45;&gt;Node26 -->
<g id="edge43" class="edge">
<title>Node1&#45;&gt;Node26</title>
<path fill="none" stroke="#191970" d="M431.6739,-285.9467C439.6956,-283.9503 448.1221,-281.8815 456,-280 511.4705,-266.7518 575.7206,-252.2677 616.5938,-243.1613"/>
<polygon fill="#191970" stroke="#191970" points="617.4608,-246.5541 626.4621,-240.966 615.9407,-239.7211 617.4608,-246.5541"/>
</g>
<!-- Node28 -->
<g id="node29" class="node">
<title>Node28</title>
<g id="a_node29"><a xlink:title=" ">
<polygon fill="#ffffff" stroke="#bfbfbf" points="360,-224.5 360,-243.5 410,-243.5 410,-224.5 360,-224.5"/>
<text text-anchor="middle" x="385" y="-231.5" font-family="Helvetica,sans-Serif" font-size="10.00" fill="#000000">cstdint</text>
</a>
</g>
</g>
<!-- Node1&#45;&gt;Node28 -->
<g id="edge48" class="edge">
<title>Node1&#45;&gt;Node28</title>
<path fill="none" stroke="#191970" d="M392.5938,-285.8906C391.3462,-277.3657 389.4838,-264.6392 387.9156,-253.9235"/>
<polygon fill="#191970" stroke="#191970" points="391.3373,-253.1326 386.4261,-243.7449 384.411,-254.1463 391.3373,-253.1326"/>
</g>
<!-- Node4 -->
<g id="node5" class="node">
<title>Node4</title>
<g id="a_node5"><a xlink:title=" ">
<polygon fill="#ffffff" stroke="#bfbfbf" points="409,-56.5 409,-75.5 451,-75.5 451,-56.5 409,-56.5"/>
<text text-anchor="middle" x="430" y="-63.5" font-family="Helvetica,sans-Serif" font-size="10.00" fill="#000000">array</text>
</a>
</g>
</g>
<!-- Node3&#45;&gt;Node4 -->
<g id="edge4" class="edge">
<title>Node3&#45;&gt;Node4</title>
<path fill="none" stroke="#191970" d="M416.787,-112.2455C418.8977,-104.8579 421.866,-94.4689 424.4547,-85.4087"/>
<polygon fill="#191970" stroke="#191970" points="427.863,-86.2195 427.245,-75.6427 421.1323,-84.2964 427.863,-86.2195"/>
</g>
<!-- Node5 -->
<g id="node6" class="node">
<title>Node5</title>
<g id="a_node6"><a xlink:title=" ">
<polygon fill="#ffffff" stroke="#bfbfbf" points="455.5,-.5 455.5,-19.5 502.5,-19.5 502.5,-.5 455.5,-.5"/>
<text text-anchor="middle" x="479" y="-7.5" font-family="Helvetica,sans-Serif" font-size="10.00" fill="#000000">cmath</text>
</a>
</g>
</g>
<!-- Node3&#45;&gt;Node5 -->
<g id="edge5" class="edge">
<title>Node3&#45;&gt;Node5</title>
<path fill="none" stroke="#191970" d="M426.7023,-112.3768C437.0804,-103.8772 451.3941,-90.5924 460,-76 468.4232,-61.7174 473.3017,-43.4765 476.0011,-29.7922"/>
<polygon fill="#191970" stroke="#191970" points="479.5161,-30.0086 477.786,-19.556 472.6201,-28.8061 479.5161,-30.0086"/>
</g>
<!-- Node3&#45;&gt;Node6 -->
<g id="edge6" class="edge">
<title>Node3&#45;&gt;Node6</title>
<path fill="none" stroke="#191970" d="M433.7692,-112.3733C452.1469,-103.4241 479.7312,-89.9917 500.4893,-79.8835"/>
<polygon fill="#191970" stroke="#191970" points="502.0304,-83.026 509.4888,-75.5011 498.9657,-76.7325 502.0304,-83.026"/>
</g>
<!-- Node7 -->
<g id="node8" class="node">
<title>Node7</title>
<g id="a_node8"><a xlink:title=" ">
<polygon fill="#ffffff" stroke="#bfbfbf" points="333.5,-56.5 333.5,-75.5 390.5,-75.5 390.5,-56.5 333.5,-56.5"/>
<text text-anchor="middle" x="362" y="-63.5" font-family="Helvetica,sans-Serif" font-size="10.00" fill="#000000">ostream</text>
</a>
</g>
</g>
<!-- Node3&#45;&gt;Node7 -->
<g id="edge7" class="edge">
<title>Node3&#45;&gt;Node7</title>
<path fill="none" stroke="#191970" d="M404.9423,-112.2455C397.4858,-104.2155 386.7366,-92.6394 377.8583,-83.0781"/>
<polygon fill="#191970" stroke="#191970" points="380.3232,-80.589 370.9539,-75.6427 375.1937,-85.3522 380.3232,-80.589"/>
</g>
<!-- Node8 -->
<g id="node9" class="node">
<title>Node8</title>
<g id="a_node9"><a xlink:href="uint_8hpp.html" target="_top" xlink:title=" ">
<polygon fill="#ffffff" stroke="#000000" points="569,-56.5 569,-75.5 625,-75.5 625,-56.5 569,-56.5"/>
<text text-anchor="middle" x="597" y="-63.5" font-family="Helvetica,sans-Serif" font-size="10.00" fill="#000000">uint.hpp</text>
</a>
</g>
</g>
<!-- Node3&#45;&gt;Node8 -->
<g id="edge8" class="edge">
<title>Node3&#45;&gt;Node8</title>
<path fill="none" stroke="#191970" d="M445.4588,-112.3733C476.9468,-102.7376 525.4193,-87.9045 559.0295,-77.6194"/>
<polygon fill="#191970" stroke="#191970" points="560.4097,-80.8573 568.9478,-74.5843 558.3613,-74.1637 560.4097,-80.8573"/>
</g>
<!-- Node9&#45;&gt;Node3 -->
<g id="edge10" class="edge">
<title>Node9&#45;&gt;Node3</title>
<path fill="none" stroke="#191970" d="M771.2185,-169.3339C768.44,-168.8691 765.6847,-168.4207 763,-168 652.9622,-150.7553 522.7186,-134.7503 456.8083,-126.9599"/>
<polygon fill="#191970" stroke="#191970" points="457.136,-123.4744 446.7954,-125.7811 456.3176,-130.4264 457.136,-123.4744"/>
</g>
<!-- Node9&#45;&gt;Node5 -->
<g id="edge14" class="edge">
<title>Node9&#45;&gt;Node5</title>
<path fill="none" stroke="#191970" d="M811.7048,-168.2881C802.1888,-154.2519 782.9096,-128.2063 761,-112 682.9458,-54.2643 568.9702,-26.5187 512.8245,-15.7074"/>
<polygon fill="#191970" stroke="#191970" points="513.1863,-12.2147 502.7145,-13.8245 511.9047,-19.0963 513.1863,-12.2147"/>
</g>
<!-- Node9&#45;&gt;Node6 -->
<g id="edge15" class="edge">
<title>Node9&#45;&gt;Node6</title>
<path fill="none" stroke="#191970" d="M789.204,-168.4246C762.5445,-159.433 721.878,-145.3953 687,-132 642.4853,-114.9036 591.7227,-93.3196 560.0189,-79.584"/>
<polygon fill="#191970" stroke="#191970" points="561.3861,-76.362 550.8196,-75.5869 558.5964,-82.7821 561.3861,-76.362"/>
</g>
<!-- Node10 -->
<g id="node11" class="node">
<title>Node10</title>
<g id="a_node11"><a xlink:href="Pixel_8hpp.html" target="_top" xlink:title=" ">
<polygon fill="#ffffff" stroke="#000000" points="540,-112.5 540,-131.5 602,-131.5 602,-112.5 540,-112.5"/>
<text text-anchor="middle" x="571" y="-119.5" font-family="Helvetica,sans-Serif" font-size="10.00" fill="#000000">Pixel.hpp</text>
</a>
</g>
</g>
<!-- Node9&#45;&gt;Node10 -->
<g id="edge11" class="edge">
<title>Node9&#45;&gt;Node10</title>
<path fill="none" stroke="#191970" d="M775.8198,-168.4369C729.961,-158.0397 657.1727,-141.5371 611.8448,-131.2604"/>
<polygon fill="#191970" stroke="#191970" points="612.5815,-127.8386 602.0551,-129.0408 611.0336,-134.6654 612.5815,-127.8386"/>
</g>
<!-- Node11 -->
<g id="node12" class="node">
<title>Node11</title>
<g id="a_node12"><a xlink:title=" ">
<polygon fill="#ffffff" stroke="#bfbfbf" points="696,-112.5 696,-131.5 752,-131.5 752,-112.5 696,-112.5"/>
<text text-anchor="middle" x="724" y="-119.5" font-family="Helvetica,sans-Serif" font-size="10.00" fill="#000000">sstream</text>
</a>
</g>
</g>
<!-- Node9&#45;&gt;Node11 -->
<g id="edge16" class="edge">
<title>Node9&#45;&gt;Node11</title>
<path fill="none" stroke="#191970" d="M801.6264,-168.2455C787.0692,-159.5731 765.569,-146.7645 748.8848,-136.825"/>
<polygon fill="#191970" stroke="#191970" points="750.5683,-133.7539 740.1859,-131.6427 746.9856,-139.7676 750.5683,-133.7539"/>
</g>
<!-- Node10&#45;&gt;Node7 -->
<g id="edge13" class="edge">
<title>Node10&#45;&gt;Node7</title>
<path fill="none" stroke="#191970" d="M539.7106,-113.6162C502.5482,-103.6588 440.5619,-87.0501 400.4945,-76.3143"/>
<polygon fill="#191970" stroke="#191970" points="401.3738,-72.9265 390.8086,-73.7191 399.562,-79.688 401.3738,-72.9265"/>
</g>
<!-- Node10&#45;&gt;Node8 -->
<g id="edge12" class="edge">
<title>Node10&#45;&gt;Node8</title>
<path fill="none" stroke="#191970" d="M575.5289,-112.2455C579.0334,-104.6973 583.9927,-94.0158 588.2623,-84.8197"/>
<polygon fill="#191970" stroke="#191970" points="591.4864,-86.1867 592.523,-75.6427 585.1373,-83.2389 591.4864,-86.1867"/>
</g>
<!-- Node12&#45;&gt;Node8 -->
<g id="edge18" class="edge">
<title>Node12&#45;&gt;Node8</title>
<path fill="none" stroke="#191970" d="M937.5862,-168.4747C898.1092,-155.327 824.3688,-131.0804 761,-112 718.0182,-99.0582 668.3471,-85.2907 635.0319,-76.2271"/>
<polygon fill="#191970" stroke="#191970" points="635.8109,-72.812 625.2433,-73.5714 633.978,-79.5678 635.8109,-72.812"/>
</g>
<!-- Node13&#45;&gt;Node3 -->
<g id="edge20" class="edge">
<title>Node13&#45;&gt;Node3</title>
<path fill="none" stroke="#191970" d="M509.133,-224.4509C491.5568,-205.5227 452.0845,-163.014 429.9045,-139.1279"/>
<polygon fill="#191970" stroke="#191970" points="432.2139,-136.4713 422.8445,-131.5249 427.0843,-141.2344 432.2139,-136.4713"/>
</g>
<!-- Node13&#45;&gt;Node10 -->
<g id="edge40" class="edge">
<title>Node13&#45;&gt;Node10</title>
<path fill="none" stroke="#191970" d="M512.9312,-224.4768C506.569,-211.1205 497.5656,-186.3994 507,-168 513.933,-154.4789 526.8936,-144.0326 539.3481,-136.5377"/>
<polygon fill="#191970" stroke="#191970" points="541.1928,-139.5168 548.234,-131.6001 537.7928,-133.3979 541.1928,-139.5168"/>
</g>
<!-- Node14 -->
<g id="node15" class="node">
<title>Node14</title>
<g id="a_node15"><a xlink:href="Degrees_8hpp.html" target="_top" xlink:title=" ">
<polygon fill="#ffffff" stroke="#000000" points="1068,-168.5 1068,-187.5 1146,-187.5 1146,-168.5 1068,-168.5"/>
<text text-anchor="middle" x="1107" y="-175.5" font-family="Helvetica,sans-Serif" font-size="10.00" fill="#000000">Degrees.hpp</text>
</a>
</g>
</g>
<!-- Node13&#45;&gt;Node14 -->
<g id="edge21" class="edge">
<title>Node13&#45;&gt;Node14</title>
<path fill="none" stroke="#191970" d="M570.1428,-228.6043C585.548,-227.0593 602.4483,-225.4122 618,-224 810.5948,-206.5107 862.6497,-215.7871 1057.7717,-188.0225"/>
<polygon fill="#191970" stroke="#191970" points="1058.3772,-191.4716 1067.7775,-186.5844 1057.3812,-184.5428 1058.3772,-191.4716"/>
</g>
<!-- Node13&#45;&gt;Node15 -->
<g id="edge23" class="edge">
<title>Node13&#45;&gt;Node15</title>
<path fill="none" stroke="#191970" d="M482.7592,-224.3733C446.4493,-214.4544 389.9783,-199.0282 352.2601,-188.7247"/>
<polygon fill="#191970" stroke="#191970" points="352.7201,-185.2222 342.1512,-185.9633 350.8755,-191.9748 352.7201,-185.2222"/>
</g>
<!-- Node13&#45;&gt;Node25 -->
<g id="edge41" class="edge">
<title>Node13&#45;&gt;Node25</title>
<path fill="none" stroke="#191970" d="M522.5289,-224.2455C526.0334,-216.6973 530.9927,-206.0158 535.2623,-196.8197"/>
<polygon fill="#191970" stroke="#191970" points="538.4864,-198.1867 539.523,-187.6427 532.1373,-195.2389 538.4864,-198.1867"/>
</g>
<!-- Node14&#45;&gt;Node5 -->
<g id="edge22" class="edge">
<title>Node14&#45;&gt;Node5</title>
<path fill="none" stroke="#191970" d="M1077.1856,-168.4565C1009.1532,-146.856 837.0505,-93.2103 691,-56 628.4206,-40.0562 554.5626,-24.8336 512.6099,-16.519"/>
<polygon fill="#191970" stroke="#191970" points="513.1457,-13.0574 502.6577,-14.5578 511.7922,-19.9253 513.1457,-13.0574"/>
</g>
<!-- Node15&#45;&gt;Node3 -->
<g id="edge24" class="edge">
<title>Node15&#45;&gt;Node3</title>
<path fill="none" stroke="#191970" d="M330.5929,-168.2455C346.379,-159.4928 369.7639,-146.527 387.7587,-136.5496"/>
<polygon fill="#191970" stroke="#191970" points="389.5603,-139.5528 396.6087,-131.6427 386.1659,-133.4308 389.5603,-139.5528"/>
</g>
<!-- Node15&#45;&gt;Node7 -->
<g id="edge38" class="edge">
<title>Node15&#45;&gt;Node7</title>
<path fill="none" stroke="#191970" d="M317.1777,-168.4509C325.278,-149.936 343.2492,-108.8591 353.8106,-84.7187"/>
<polygon fill="#191970" stroke="#191970" points="357.0312,-86.0894 357.8329,-75.5249 350.6181,-83.2836 357.0312,-86.0894"/>
</g>
<!-- Node15&#45;&gt;Node10 -->
<g id="edge37" class="edge">
<title>Node15&#45;&gt;Node10</title>
<path fill="none" stroke="#191970" d="M342.0944,-171.6849C387.9306,-161.736 477.1265,-142.3756 529.6195,-130.9818"/>
<polygon fill="#191970" stroke="#191970" points="530.5749,-134.356 539.605,-128.8144 529.0901,-127.5153 530.5749,-134.356"/>
</g>
<!-- Node15&#45;&gt;Node16 -->
<g id="edge25" class="edge">
<title>Node15&#45;&gt;Node16</title>
<path fill="none" stroke="#191970" d="M304.1165,-168.2455C296.8034,-160.2155 286.2609,-148.6394 277.5533,-139.0781"/>
<polygon fill="#191970" stroke="#191970" points="280.1028,-136.6795 270.7817,-131.6427 274.9273,-141.3928 280.1028,-136.6795"/>
</g>
<!-- Node15&#45;&gt;Node24 -->
<g id="edge39" class="edge">
<title>Node15&#45;&gt;Node24</title>
<path fill="none" stroke="#191970" d="M290.1365,-168.3733C268.595,-159.3032 236.1162,-145.6279 212.0044,-135.4755"/>
<polygon fill="#191970" stroke="#191970" points="213.1397,-132.156 202.5652,-131.5011 210.4233,-138.6075 213.1397,-132.156"/>
</g>
<!-- Node16&#45;&gt;Node5 -->
<g id="edge34" class="edge">
<title>Node16&#45;&gt;Node5</title>
<path fill="none" stroke="#191970" d="M268.4417,-112.4085C278.5833,-98.0408 299.6456,-71.0179 324,-56 361.9442,-32.602 412.4616,-20.5314 445.3496,-14.7388"/>
<polygon fill="#191970" stroke="#191970" points="446.0796,-18.1655 455.3698,-13.0722 444.9311,-11.2604 446.0796,-18.1655"/>
</g>
<!-- Node16&#45;&gt;Node7 -->
<g id="edge36" class="edge">
<title>Node16&#45;&gt;Node7</title>
<path fill="none" stroke="#191970" d="M279.4187,-112.2455C295.0485,-103.4928 318.2019,-90.527 336.0185,-80.5496"/>
<polygon fill="#191970" stroke="#191970" points="337.766,-83.5825 344.7809,-75.6427 334.3457,-77.475 337.766,-83.5825"/>
</g>
<!-- Node17 -->
<g id="node18" class="node">
<title>Node17</title>
<g id="a_node18"><a xlink:href="Array_8hpp.html" target="_top" xlink:title=" ">
<polygon fill="#ffffff" stroke="#000000" points="141,-56.5 141,-75.5 203,-75.5 203,-56.5 141,-56.5"/>
<text text-anchor="middle" x="172" y="-63.5" font-family="Helvetica,sans-Serif" font-size="10.00" fill="#000000">Array.hpp</text>
</a>
</g>
</g>
<!-- Node16&#45;&gt;Node17 -->
<g id="edge26" class="edge">
<title>Node16&#45;&gt;Node17</title>
<path fill="none" stroke="#191970" d="M246.3232,-112.2455C232.5144,-103.6534 212.1807,-91.0014 196.2708,-81.1018"/>
<polygon fill="#191970" stroke="#191970" points="197.8368,-77.954 187.4972,-75.6427 194.1387,-83.8974 197.8368,-77.954"/>
</g>
<!-- Node16&#45;&gt;Node18 -->
<g id="edge33" class="edge">
<title>Node16&#45;&gt;Node18</title>
<path fill="none" stroke="#191970" d="M227.9536,-112.4447C201.1759,-104.3438 163.2931,-91.5718 132,-76 102.9304,-61.5346 72.1322,-40.1718 52.5211,-25.7008"/>
<polygon fill="#191970" stroke="#191970" points="54.4488,-22.7719 44.3441,-19.5864 50.2568,-28.378 54.4488,-22.7719"/>
</g>
<!-- Node23 -->
<g id="node24" class="node">
<title>Node23</title>
<g id="a_node24"><a xlink:title=" ">
<polygon fill="#ffffff" stroke="#bfbfbf" points="221,-56.5 221,-75.5 277,-75.5 277,-56.5 221,-56.5"/>
<text text-anchor="middle" x="249" y="-63.5" font-family="Helvetica,sans-Serif" font-size="10.00" fill="#000000">iomanip</text>
</a>
</g>
</g>
<!-- Node16&#45;&gt;Node23 -->
<g id="edge35" class="edge">
<title>Node16&#45;&gt;Node23</title>
<path fill="none" stroke="#191970" d="M259.7356,-112.2455C258.0206,-104.8579 255.6088,-94.4689 253.5056,-85.4087"/>
<polygon fill="#191970" stroke="#191970" points="256.9092,-84.5922 251.2385,-75.6427 250.0905,-86.1751 256.9092,-84.5922"/>
</g>
<!-- Node17&#45;&gt;Node5 -->
<g id="edge28" class="edge">
<title>Node17&#45;&gt;Node5</title>
<path fill="none" stroke="#191970" d="M203.3918,-57.9177C206.2956,-57.2409 209.1983,-56.5907 212,-56 295.3596,-38.4247 394.4116,-22.6932 445.2267,-14.9937"/>
<polygon fill="#191970" stroke="#191970" points="445.9475,-18.4247 455.3149,-13.4748 444.9052,-11.5027 445.9475,-18.4247"/>
</g>
<!-- Node17&#45;&gt;Node18 -->
<g id="edge27" class="edge">
<title>Node17&#45;&gt;Node18</title>
<path fill="none" stroke="#191970" d="M147.9331,-56.3733C125.1572,-47.2629 90.7656,-33.5062 65.351,-23.3404"/>
<polygon fill="#191970" stroke="#191970" points="66.3375,-19.9654 55.7528,-19.5011 63.7377,-26.4648 66.3375,-19.9654"/>
</g>
<!-- Node19 -->
<g id="node20" class="node">
<title>Node19</title>
<g id="a_node20"><a xlink:title=" ">
<polygon fill="#ffffff" stroke="#bfbfbf" points="314.5,-.5 314.5,-19.5 367.5,-19.5 367.5,-.5 314.5,-.5"/>
<text text-anchor="middle" x="341" y="-7.5" font-family="Helvetica,sans-Serif" font-size="10.00" fill="#000000">cstddef</text>
</a>
</g>
</g>
<!-- Node17&#45;&gt;Node19 -->
<g id="edge29" class="edge">
<title>Node17&#45;&gt;Node19</title>
<path fill="none" stroke="#191970" d="M201.0521,-56.3733C229.7504,-46.8638 273.7256,-32.2921 304.7079,-22.0258"/>
<polygon fill="#191970" stroke="#191970" points="305.8831,-25.3236 314.2746,-18.8557 303.6813,-18.6789 305.8831,-25.3236"/>
</g>
<!-- Node20 -->
<g id="node21" class="node">
<title>Node20</title>
<g id="a_node21"><a xlink:title=" ">
<polygon fill="#ffffff" stroke="#bfbfbf" points="82,-.5 82,-19.5 138,-19.5 138,-.5 82,-.5"/>
<text text-anchor="middle" x="110" y="-7.5" font-family="Helvetica,sans-Serif" font-size="10.00" fill="#000000">numeric</text>
</a>
</g>
</g>
<!-- Node17&#45;&gt;Node20 -->
<g id="edge30" class="edge">
<title>Node17&#45;&gt;Node20</title>
<path fill="none" stroke="#191970" d="M161.2004,-56.2455C152.1322,-48.0549 138.9794,-36.1749 128.2755,-26.5069"/>
<polygon fill="#191970" stroke="#191970" points="130.4429,-23.7482 120.6758,-19.6427 125.7509,-28.9429 130.4429,-23.7482"/>
</g>
<!-- Node21 -->
<g id="node22" class="node">
<title>Node21</title>
<g id="a_node22"><a xlink:title=" ">
<polygon fill="#ffffff" stroke="#bfbfbf" points="156.5,-.5 156.5,-19.5 225.5,-19.5 225.5,-.5 156.5,-.5"/>
<text text-anchor="middle" x="191" y="-7.5" font-family="Helvetica,sans-Serif" font-size="10.00" fill="#000000">type_traits</text>
</a>
</g>
</g>
<!-- Node17&#45;&gt;Node21 -->
<g id="edge31" class="edge">
<title>Node17&#45;&gt;Node21</title>
<path fill="none" stroke="#191970" d="M175.3095,-56.2455C177.8433,-48.7776 181.4177,-38.2427 184.515,-29.1137"/>
<polygon fill="#191970" stroke="#191970" points="187.8298,-30.237 187.7284,-19.6427 181.2009,-27.9879 187.8298,-30.237"/>
</g>
<!-- Node22 -->
<g id="node23" class="node">
<title>Node22</title>
<g id="a_node23"><a xlink:title=" ">
<polygon fill="#ffffff" stroke="#bfbfbf" points="244,-.5 244,-19.5 296,-19.5 296,-.5 244,-.5"/>
<text text-anchor="middle" x="270" y="-7.5" font-family="Helvetica,sans-Serif" font-size="10.00" fill="#000000">cassert</text>
</a>
</g>
</g>
<!-- Node17&#45;&gt;Node22 -->
<g id="edge32" class="edge">
<title>Node17&#45;&gt;Node22</title>
<path fill="none" stroke="#191970" d="M189.0703,-56.2455C204.247,-47.5731 226.6621,-34.7645 244.0563,-24.825"/>
<polygon fill="#191970" stroke="#191970" points="246.1794,-27.643 253.1253,-19.6427 242.7064,-21.5653 246.1794,-27.643"/>
</g>
<!-- Node26&#45;&gt;Node10 -->
<g id="edge44" class="edge">
<title>Node26&#45;&gt;Node10</title>
<path fill="none" stroke="#191970" d="M649.6968,-224.2496C641.8964,-215.0196 629.9655,-200.7207 620,-188 607.4147,-171.9352 593.6002,-153.224 583.8567,-139.8356"/>
<polygon fill="#191970" stroke="#191970" points="586.529,-137.5584 577.8268,-131.515 580.8609,-141.6661 586.529,-137.5584"/>
</g>
<!-- Node27 -->
<g id="node28" class="node">
<title>Node27</title>
<g id="a_node28"><a xlink:title=" ">
<polygon fill="#ffffff" stroke="#bfbfbf" points="628.5,-168.5 628.5,-187.5 753.5,-187.5 753.5,-168.5 628.5,-168.5"/>
<text text-anchor="middle" x="691" y="-175.5" font-family="Helvetica,sans-Serif" font-size="10.00" fill="#000000">opencv2/core/mat.hpp</text>
</a>
</g>
</g>
<!-- Node26&#45;&gt;Node27 -->
<g id="edge45" class="edge">
<title>Node26&#45;&gt;Node27</title>
<path fill="none" stroke="#191970" d="M663.7482,-224.2455C668.2435,-216.617 674.6248,-205.7881 680.0825,-196.5267"/>
<polygon fill="#191970" stroke="#191970" points="683.2561,-198.035 685.3177,-187.6427 677.2253,-194.4811 683.2561,-198.035"/>
</g>
<!-- Node29&#45;&gt;Node13 -->
<g id="edge53" class="edge">
<title>Node29&#45;&gt;Node13</title>
<path fill="none" stroke="#191970" d="M518,-285.8906C518,-277.3657 518,-264.6392 518,-253.9235"/>
<polygon fill="#191970" stroke="#191970" points="521.5001,-253.7448 518,-243.7449 514.5001,-253.7449 521.5001,-253.7448"/>
</g>
<!-- Node30 -->
<g id="node31" class="node">
<title>Node30</title>
<g id="a_node31"><a xlink:title=" ">
<polygon fill="#ffffff" stroke="#bfbfbf" points="784,-224.5 784,-243.5 902,-243.5 902,-224.5 784,-224.5"/>
<text text-anchor="middle" x="843" y="-231.5" font-family="Helvetica,sans-Serif" font-size="10.00" fill="#000000">opencv2/videoio.hpp</text>
</a>
</g>
</g>
<!-- Node29&#45;&gt;Node30 -->
<g id="edge54" class="edge">
<title>Node29&#45;&gt;Node30</title>
<path fill="none" stroke="#191970" d="M568.4247,-285.9581C626.27,-275.012 721.0577,-257.0752 782.7424,-245.4026"/>
<polygon fill="#191970" stroke="#191970" points="783.5496,-248.812 792.7245,-243.5137 782.248,-241.9341 783.5496,-248.812"/>
</g>
</g>
</svg>
