<?xml version="1.0" encoding="UTF-8" standalone="no"?>
<!DOCTYPE svg PUBLIC "-//W3C//DTD SVG 1.1//EN"
 "http://www.w3.org/Graphics/SVG/1.1/DTD/svg11.dtd">
<!-- Generated by graphviz version 2.40.1 (20161225.0304)
 -->
<!-- Title: /home/pieter/GitHub/Crypto/src/location&#45;finder/src/LocationFinder.cpp Pages: 1 -->
<svg width="452pt" height="117pt"
 viewBox="0.00 0.00 451.50 117.00" xmlns="http://www.w3.org/2000/svg" xmlns:xlink="http://www.w3.org/1999/xlink">
<g id="graph0" class="graph" transform="scale(1 1) rotate(0) translate(4 113)">
<title>/home/pieter/GitHub/Crypto/src/location&#45;finder/src/LocationFinder.cpp</title>
<polygon fill="#ffffff" stroke="transparent" points="-4,4 -4,-113 447.5,-113 447.5,4 -4,4"/>
<!-- Node0 -->
<g id="node1" class="node">
<title>Node0</title>
<g id="a_node1"><a xlink:title=" ">
<polygon fill="#bfbfbf" stroke="#000000" points="129.5,-67.5 129.5,-108.5 287.5,-108.5 287.5,-67.5 129.5,-67.5"/>
<text text-anchor="start" x="137.5" y="-96.5" font-family="Helvetica,sans-Serif" font-size="10.00" fill="#000000">/home/pieter/GitHub</text>
<text text-anchor="start" x="137.5" y="-85.5" font-family="Helvetica,sans-Serif" font-size="10.00" fill="#000000">/Crypto/src/location</text>
<text text-anchor="middle" x="208.5" y="-74.5" font-family="Helvetica,sans-Serif" font-size="10.00" fill="#000000">&#45;finder/src/LocationFinder.cpp</text>
</a>
</g>
</g>
<!-- Node1 -->
<g id="node2" class="node">
<title>Node1</title>
<g id="a_node2"><a xlink:href="LocationFinder_8hpp.html" target="_top" xlink:title=" ">
<polygon fill="#ffffff" stroke="#000000" points="0,-6 0,-25 107,-25 107,-6 0,-6"/>
<text text-anchor="middle" x="53.5" y="-13" font-family="Helvetica,sans-Serif" font-size="10.00" fill="#000000">LocationFinder.hpp</text>
</a>
</g>
</g>
<!-- Node0&#45;&gt;Node1 -->
<g id="edge1" class="edge">
<title>Node0&#45;&gt;Node1</title>
<path fill="none" stroke="#191970" d="M164.4978,-67.4183C138.4976,-55.257 106.2688,-40.1822 83.2494,-29.415"/>
<polygon fill="#191970" stroke="#191970" points="84.5338,-26.1519 73.9928,-25.0853 81.568,-32.4926 84.5338,-26.1519"/>
</g>
<!-- Node2 -->
<g id="node3" class="node">
<title>Node2</title>
<g id="a_node3"><a xlink:title=" ">
<polygon fill="#ffffff" stroke="#bfbfbf" points="125.5,-6 125.5,-25 185.5,-25 185.5,-6 125.5,-6"/>
<text text-anchor="middle" x="155.5" y="-13" font-family="Helvetica,sans-Serif" font-size="10.00" fill="#000000">iostream</text>
</a>
</g>
</g>
<!-- Node0&#45;&gt;Node2 -->
<g id="edge2" class="edge">
<title>Node0&#45;&gt;Node2</title>
<path fill="none" stroke="#191970" d="M193.4541,-67.4183C185.5956,-56.6685 176.0731,-43.6424 168.5322,-33.3271"/>
<polygon fill="#191970" stroke="#191970" points="171.2343,-31.0927 162.5072,-25.0853 165.5833,-35.2238 171.2343,-31.0927"/>
</g>
<!-- Node3 -->
<g id="node4" class="node">
<title>Node3</title>
<g id="a_node4"><a xlink:title=" ">
<polygon fill="#ffffff" stroke="#bfbfbf" points="203.5,-6 203.5,-25 319.5,-25 319.5,-6 203.5,-6"/>
<text text-anchor="middle" x="261.5" y="-13" font-family="Helvetica,sans-Serif" font-size="10.00" fill="#000000">opencv2/opencv.hpp</text>
</a>
</g>
</g>
<!-- Node0&#45;&gt;Node3 -->
<g id="edge3" class="edge">
<title>Node0&#45;&gt;Node3</title>
<path fill="none" stroke="#191970" d="M223.5459,-67.4183C231.4044,-56.6685 240.9269,-43.6424 248.4678,-33.3271"/>
<polygon fill="#191970" stroke="#191970" points="251.4167,-35.2238 254.4928,-25.0853 245.7657,-31.0927 251.4167,-35.2238"/>
</g>
<!-- Node4 -->
<g id="node5" class="node">
<title>Node4</title>
<g id="a_node5"><a xlink:title=" ">
<polygon fill="#ffffff" stroke="#bfbfbf" points="337.5,-.5 337.5,-30.5 443.5,-30.5 443.5,-.5 337.5,-.5"/>
<text text-anchor="start" x="345.5" y="-18.5" font-family="Helvetica,sans-Serif" font-size="10.00" fill="#000000">opencv2/core/utils</text>
<text text-anchor="middle" x="390.5" y="-7.5" font-family="Helvetica,sans-Serif" font-size="10.00" fill="#000000">/logger.hpp</text>
</a>
</g>
</g>
<!-- Node0&#45;&gt;Node4 -->
<g id="edge4" class="edge">
<title>Node0&#45;&gt;Node4</title>
<path fill="none" stroke="#191970" d="M260.1671,-67.4183C286.2595,-57.0244 317.6942,-44.5023 343.1543,-34.3602"/>
<polygon fill="#191970" stroke="#191970" points="344.6013,-37.5514 352.596,-30.5991 342.0107,-31.0484 344.6013,-37.5514"/>
</g>
</g>
</svg>
