<?xml version="1.0" encoding="UTF-8" standalone="no"?>
<!DOCTYPE svg PUBLIC "-//W3C//DTD SVG 1.1//EN"
 "http://www.w3.org/Graphics/SVG/1.1/DTD/svg11.dtd">
<!-- Generated by graphviz version 2.40.1 (20161225.0304)
 -->
<!-- Title: /home/pieter/GitHub/EAGLE&#45;ZYBO&#45;Linux/src/location&#45;finder/src/LocationFinder.cpp Pages: 1 -->
<svg width="1190pt" height="408pt"
 viewBox="0.00 0.00 1190.00 408.00" xmlns="http://www.w3.org/2000/svg" xmlns:xlink="http://www.w3.org/1999/xlink">
<g id="graph0" class="graph" transform="scale(1 1) rotate(0) translate(4 404)">
<title>/home/pieter/GitHub/EAGLE&#45;ZYBO&#45;Linux/src/location&#45;finder/src/LocationFinder.cpp</title>
<polygon fill="#ffffff" stroke="transparent" points="-4,4 -4,-404 1186,-404 1186,4 -4,4"/>
<!-- Node0 -->
<g id="node1" class="node">
<title>Node0</title>
<g id="a_node1"><a xlink:title=" ">
<polygon fill="#bfbfbf" stroke="#000000" points="660,-347.5 660,-399.5 812,-399.5 812,-347.5 660,-347.5"/>
<text text-anchor="start" x="668" y="-387.5" font-family="Helvetica,sans-Serif" font-size="10.00" fill="#000000">/home/pieter/GitHub</text>
<text text-anchor="start" x="668" y="-376.5" font-family="Helvetica,sans-Serif" font-size="10.00" fill="#000000">/EAGLE&#45;ZYBO&#45;Linux/src</text>
<text text-anchor="start" x="668" y="-365.5" font-family="Helvetica,sans-Serif" font-size="10.00" fill="#000000">/location&#45;finder/src/Location</text>
<text text-anchor="middle" x="736" y="-354.5" font-family="Helvetica,sans-Serif" font-size="10.00" fill="#000000">Finder.cpp</text>
</a>
</g>
</g>
<!-- Node1 -->
<g id="node2" class="node">
<title>Node1</title>
<g id="a_node2"><a xlink:href="GridFinder_8hpp.html" target="_top" xlink:title=" ">
<polygon fill="#ffffff" stroke="#000000" points="341,-286 341,-305 427,-305 427,-286 341,-286"/>
<text text-anchor="middle" x="384" y="-293" font-family="Helvetica,sans-Serif" font-size="10.00" fill="#000000">GridFinder.hpp</text>
</a>
</g>
</g>
<!-- Node0&#45;&gt;Node1 -->
<g id="edge1" class="edge">
<title>Node0&#45;&gt;Node1</title>
<path fill="none" stroke="#191970" d="M659.6212,-356.5752C592.3394,-341.6661 496.0958,-320.3394 436.9532,-307.2339"/>
<polygon fill="#191970" stroke="#191970" points="437.5944,-303.7912 427.074,-305.0448 436.08,-310.6254 437.5944,-303.7912"/>
</g>
<!-- Node24 -->
<g id="node25" class="node">
<title>Node24</title>
<g id="a_node25"><a xlink:title=" ">
<polygon fill="#ffffff" stroke="#bfbfbf" points="113,-112.5 113,-131.5 173,-131.5 173,-112.5 113,-112.5"/>
<text text-anchor="middle" x="143" y="-119.5" font-family="Helvetica,sans-Serif" font-size="10.00" fill="#000000">iostream</text>
</a>
</g>
</g>
<!-- Node0&#45;&gt;Node24 -->
<g id="edge60" class="edge">
<title>Node0&#45;&gt;Node24</title>
<path fill="none" stroke="#191970" d="M659.7312,-371.1297C497.2176,-364.2753 125.5342,-338.395 51,-244 20.9929,-205.997 80.5483,-160.164 117.203,-136.987"/>
<polygon fill="#191970" stroke="#191970" points="119.2757,-139.8213 125.9602,-131.6013 115.6086,-133.8587 119.2757,-139.8213"/>
</g>
<!-- Node27 -->
<g id="node28" class="node">
<title>Node27</title>
<g id="a_node28"><a xlink:href="Mask_8hpp.html" target="_top" xlink:title=" ">
<polygon fill="#ffffff" stroke="#000000" points="534.5,-224.5 534.5,-243.5 597.5,-243.5 597.5,-224.5 534.5,-224.5"/>
<text text-anchor="middle" x="566" y="-231.5" font-family="Helvetica,sans-Serif" font-size="10.00" fill="#000000">Mask.hpp</text>
</a>
</g>
</g>
<!-- Node0&#45;&gt;Node27 -->
<g id="edge59" class="edge">
<title>Node0&#45;&gt;Node27</title>
<path fill="none" stroke="#191970" d="M704.0243,-347.2611C669.1834,-318.671 614.5529,-273.8419 585.5753,-250.0633"/>
<polygon fill="#191970" stroke="#191970" points="587.7383,-247.3106 577.7876,-243.6727 583.2978,-252.7219 587.7383,-247.3106"/>
</g>
<!-- Node30 -->
<g id="node31" class="node">
<title>Node30</title>
<g id="a_node31"><a xlink:href="LocationFinder_8hpp.html" target="_top" xlink:title=" ">
<polygon fill="#ffffff" stroke="#000000" points="682.5,-286 682.5,-305 789.5,-305 789.5,-286 682.5,-286"/>
<text text-anchor="middle" x="736" y="-293" font-family="Helvetica,sans-Serif" font-size="10.00" fill="#000000">LocationFinder.hpp</text>
</a>
</g>
</g>
<!-- Node0&#45;&gt;Node30 -->
<g id="edge53" class="edge">
<title>Node0&#45;&gt;Node30</title>
<path fill="none" stroke="#191970" d="M736,-347.0928C736,-336.6735 736,-324.911 736,-315.2512"/>
<polygon fill="#191970" stroke="#191970" points="739.5001,-315.0838 736,-305.0839 732.5001,-315.0839 739.5001,-315.0838"/>
</g>
<!-- Node33 -->
<g id="node34" class="node">
<title>Node33</title>
<g id="a_node34"><a xlink:title=" ">
<polygon fill="#ffffff" stroke="#bfbfbf" points="808,-286 808,-305 852,-305 852,-286 808,-286"/>
<text text-anchor="middle" x="830" y="-293" font-family="Helvetica,sans-Serif" font-size="10.00" fill="#000000">string</text>
</a>
</g>
</g>
<!-- Node0&#45;&gt;Node33 -->
<g id="edge61" class="edge">
<title>Node0&#45;&gt;Node33</title>
<path fill="none" stroke="#191970" d="M767.5621,-347.3101C781.7762,-335.5155 798.1094,-321.9625 810.5046,-311.677"/>
<polygon fill="#191970" stroke="#191970" points="812.9218,-314.2193 818.3824,-305.1401 808.4518,-308.8324 812.9218,-314.2193"/>
</g>
<!-- Node34 -->
<g id="node35" class="node">
<title>Node34</title>
<g id="a_node35"><a xlink:title=" ">
<polygon fill="#ffffff" stroke="#bfbfbf" points="870,-286 870,-305 986,-305 986,-286 870,-286"/>
<text text-anchor="middle" x="928" y="-293" font-family="Helvetica,sans-Serif" font-size="10.00" fill="#000000">opencv2/opencv.hpp</text>
</a>
</g>
</g>
<!-- Node0&#45;&gt;Node34 -->
<g id="edge62" class="edge">
<title>Node0&#45;&gt;Node34</title>
<path fill="none" stroke="#191970" d="M800.2002,-347.4187C831.9065,-334.538 868.8302,-319.5377 894.8126,-308.9824"/>
<polygon fill="#191970" stroke="#191970" points="896.2538,-312.1748 904.2011,-305.1683 893.6191,-305.6895 896.2538,-312.1748"/>
</g>
<!-- Node35 -->
<g id="node36" class="node">
<title>Node35</title>
<g id="a_node36"><a xlink:title=" ">
<polygon fill="#ffffff" stroke="#bfbfbf" points="1004,-280.5 1004,-310.5 1110,-310.5 1110,-280.5 1004,-280.5"/>
<text text-anchor="start" x="1012" y="-298.5" font-family="Helvetica,sans-Serif" font-size="10.00" fill="#000000">opencv2/core/utils</text>
<text text-anchor="middle" x="1057" y="-287.5" font-family="Helvetica,sans-Serif" font-size="10.00" fill="#000000">/logger.hpp</text>
</a>
</g>
</g>
<!-- Node0&#45;&gt;Node35 -->
<g id="edge63" class="edge">
<title>Node0&#45;&gt;Node35</title>
<path fill="none" stroke="#191970" d="M812.2539,-355.2725C861.4461,-343.4731 927.0761,-327.6556 994.0222,-311.2309"/>
<polygon fill="#191970" stroke="#191970" points="995.0304,-314.5874 1003.9072,-308.8036 993.3611,-307.7893 995.0304,-314.5874"/>
</g>
<!-- Node2 -->
<g id="node3" class="node">
<title>Node2</title>
<g id="a_node3"><a xlink:href="ANSIColors_8hpp.html" target="_top" xlink:title=" ">
<polygon fill="#ffffff" stroke="#000000" points="60,-224.5 60,-243.5 152,-243.5 152,-224.5 60,-224.5"/>
<text text-anchor="middle" x="106" y="-231.5" font-family="Helvetica,sans-Serif" font-size="10.00" fill="#000000">ANSIColors.hpp</text>
</a>
</g>
</g>
<!-- Node1&#45;&gt;Node2 -->
<g id="edge2" class="edge">
<title>Node1&#45;&gt;Node2</title>
<path fill="none" stroke="#191970" d="M340.8675,-285.9581C291.8672,-275.1181 211.8767,-257.4224 159.0861,-245.7439"/>
<polygon fill="#191970" stroke="#191970" points="159.7536,-242.307 149.2337,-243.5643 158.2416,-249.1417 159.7536,-242.307"/>
</g>
<!-- Node3 -->
<g id="node4" class="node">
<title>Node3</title>
<g id="a_node4"><a xlink:href="Angle_8hpp.html" target="_top" xlink:title=" ">
<polygon fill="#ffffff" stroke="#000000" points="590.5,-112.5 590.5,-131.5 655.5,-131.5 655.5,-112.5 590.5,-112.5"/>
<text text-anchor="middle" x="623" y="-119.5" font-family="Helvetica,sans-Serif" font-size="10.00" fill="#000000">Angle.hpp</text>
</a>
</g>
</g>
<!-- Node1&#45;&gt;Node3 -->
<g id="edge3" class="edge">
<title>Node1&#45;&gt;Node3</title>
<path fill="none" stroke="#191970" d="M394.4488,-285.8354C418.8233,-263.5488 481.8011,-207.4447 540,-168 557.3283,-156.2556 577.9024,-144.8375 594.2314,-136.3149"/>
<polygon fill="#191970" stroke="#191970" points="596.0069,-139.3376 603.2985,-131.651 592.805,-133.1128 596.0069,-139.3376"/>
</g>
<!-- Node6 -->
<g id="node7" class="node">
<title>Node6</title>
<g id="a_node7"><a xlink:title=" ">
<polygon fill="#ffffff" stroke="#bfbfbf" points="366,-56.5 366,-75.5 410,-75.5 410,-56.5 366,-56.5"/>
<text text-anchor="middle" x="388" y="-63.5" font-family="Helvetica,sans-Serif" font-size="10.00" fill="#000000">limits</text>
</a>
</g>
</g>
<!-- Node1&#45;&gt;Node6 -->
<g id="edge51" class="edge">
<title>Node1&#45;&gt;Node6</title>
<path fill="none" stroke="#191970" d="M378.6417,-285.6902C367.6856,-264.4528 344.3708,-212.5388 352,-168 357.1568,-137.8949 370.2928,-104.8703 379.1873,-84.7884"/>
<polygon fill="#191970" stroke="#191970" points="382.4345,-86.1026 383.3872,-75.5506 376.0622,-83.2054 382.4345,-86.1026"/>
</g>
<!-- Node9 -->
<g id="node10" class="node">
<title>Node9</title>
<g id="a_node10"><a xlink:href="Bresenham_8hpp.html" target="_top" xlink:title=" ">
<polygon fill="#ffffff" stroke="#000000" points="360.5,-168.5 360.5,-187.5 453.5,-187.5 453.5,-168.5 360.5,-168.5"/>
<text text-anchor="middle" x="407" y="-175.5" font-family="Helvetica,sans-Serif" font-size="10.00" fill="#000000">Bresenham.hpp</text>
</a>
</g>
</g>
<!-- Node1&#45;&gt;Node9 -->
<g id="edge9" class="edge">
<title>Node1&#45;&gt;Node9</title>
<path fill="none" stroke="#191970" d="M385.8822,-285.8845C389.6391,-266.6913 398.1355,-223.286 403.1308,-197.7663"/>
<polygon fill="#191970" stroke="#191970" points="406.6056,-198.2345 405.0918,-187.7484 399.7359,-196.8898 406.6056,-198.2345"/>
</g>
<!-- Node12 -->
<g id="node13" class="node">
<title>Node12</title>
<g id="a_node13"><a xlink:href="CenterPointOutLineIterator_8hpp.html" target="_top" xlink:title=" ">
<polygon fill="#ffffff" stroke="#000000" points="750.5,-112.5 750.5,-131.5 917.5,-131.5 917.5,-112.5 750.5,-112.5"/>
<text text-anchor="middle" x="834" y="-119.5" font-family="Helvetica,sans-Serif" font-size="10.00" fill="#000000">CenterPointOutLineIterator.hpp</text>
</a>
</g>
</g>
<!-- Node1&#45;&gt;Node12 -->
<g id="edge17" class="edge">
<title>Node1&#45;&gt;Node12</title>
<path fill="none" stroke="#191970" d="M427.0998,-292.6556C520.5775,-286.1023 739.1584,-268.5951 809,-244 853.4363,-228.3515 876.1208,-229.1825 899,-188 910.481,-167.3341 887.3445,-148.6397 865.561,-136.4668"/>
<polygon fill="#191970" stroke="#191970" points="866.8936,-133.2134 856.4129,-131.6624 863.6388,-139.4107 866.8936,-133.2134"/>
</g>
<!-- Node13 -->
<g id="node14" class="node">
<title>Node13</title>
<g id="a_node14"><a xlink:href="HelperStructs_8hpp.html" target="_top" xlink:title=" ">
<polygon fill="#ffffff" stroke="#000000" points="696,-224.5 696,-243.5 800,-243.5 800,-224.5 696,-224.5"/>
<text text-anchor="middle" x="748" y="-231.5" font-family="Helvetica,sans-Serif" font-size="10.00" fill="#000000">HelperStructs.hpp</text>
</a>
</g>
</g>
<!-- Node1&#45;&gt;Node13 -->
<g id="edge19" class="edge">
<title>Node1&#45;&gt;Node13</title>
<path fill="none" stroke="#191970" d="M427.185,-288.2036C491.3052,-277.3701 612.021,-256.9745 685.7027,-244.5255"/>
<polygon fill="#191970" stroke="#191970" points="686.4994,-247.9406 695.7766,-242.8235 685.3332,-241.0384 686.4994,-247.9406"/>
</g>
<!-- Node15 -->
<g id="node16" class="node">
<title>Node15</title>
<g id="a_node16"><a xlink:href="Line_8hpp.html" target="_top" xlink:title=" ">
<polygon fill="#ffffff" stroke="#000000" points="246,-168.5 246,-187.5 304,-187.5 304,-168.5 246,-168.5"/>
<text text-anchor="middle" x="275" y="-175.5" font-family="Helvetica,sans-Serif" font-size="10.00" fill="#000000">Line.hpp</text>
</a>
</g>
</g>
<!-- Node1&#45;&gt;Node15 -->
<g id="edge43" class="edge">
<title>Node1&#45;&gt;Node15</title>
<path fill="none" stroke="#191970" d="M340.7407,-286.1722C317.7116,-278.8004 291.2665,-265.9542 277,-244 268.2268,-230.4992 268.4783,-211.9459 270.4927,-197.9481"/>
<polygon fill="#191970" stroke="#191970" points="273.9773,-198.3511 272.3473,-187.8824 267.0931,-197.0826 273.9773,-198.3511"/>
</g>
<!-- Node16 -->
<g id="node17" class="node">
<title>Node16</title>
<g id="a_node17"><a xlink:href="Matrix_8hpp.html" target="_top" xlink:title=" ">
<polygon fill="#ffffff" stroke="#000000" points="191,-112.5 191,-131.5 259,-131.5 259,-112.5 191,-112.5"/>
<text text-anchor="middle" x="225" y="-119.5" font-family="Helvetica,sans-Serif" font-size="10.00" fill="#000000">Matrix.hpp</text>
</a>
</g>
</g>
<!-- Node1&#45;&gt;Node16 -->
<g id="edge47" class="edge">
<title>Node1&#45;&gt;Node16</title>
<path fill="none" stroke="#191970" d="M345.4312,-285.939C320.3464,-278.1047 288.2777,-264.8474 266,-244 237.0203,-216.8809 228.5172,-168.6611 226.0269,-141.6777"/>
<polygon fill="#191970" stroke="#191970" points="229.5055,-141.2552 225.2856,-131.537 222.5241,-141.7656 229.5055,-141.2552"/>
</g>
<!-- Node18 -->
<g id="node19" class="node">
<title>Node18</title>
<g id="a_node19"><a xlink:title=" ">
<polygon fill="#ffffff" stroke="#bfbfbf" points="0,-.5 0,-19.5 64,-19.5 64,-.5 0,-.5"/>
<text text-anchor="middle" x="32" y="-7.5" font-family="Helvetica,sans-Serif" font-size="10.00" fill="#000000">algorithm</text>
</a>
</g>
</g>
<!-- Node1&#45;&gt;Node18 -->
<g id="edge48" class="edge">
<title>Node1&#45;&gt;Node18</title>
<path fill="none" stroke="#191970" d="M340.8108,-294.4455C260.6873,-291.6066 93.313,-281.2589 51,-244 28.0911,-223.8274 32,-208.5246 32,-178 32,-178 32,-178 32,-122 32,-89.7116 32,-52.1872 32,-29.8048"/>
<polygon fill="#191970" stroke="#191970" points="35.5001,-29.5883 32,-19.5884 28.5001,-29.5884 35.5001,-29.5883"/>
</g>
<!-- Node1&#45;&gt;Node24 -->
<g id="edge50" class="edge">
<title>Node1&#45;&gt;Node24</title>
<path fill="none" stroke="#191970" d="M342.3966,-285.9695C313.5267,-277.9832 275.1697,-264.5358 246,-244 205.2224,-215.2921 170.8898,-166.6815 154.0825,-140.3198"/>
<polygon fill="#191970" stroke="#191970" points="156.9644,-138.3266 148.7038,-131.6923 151.0242,-142.0299 156.9644,-138.3266"/>
</g>
<!-- Node25 -->
<g id="node26" class="node">
<title>Node25</title>
<g id="a_node26"><a xlink:title=" ">
<polygon fill="#ffffff" stroke="#bfbfbf" points="692,-168.5 692,-187.5 748,-187.5 748,-168.5 692,-168.5"/>
<text text-anchor="middle" x="720" y="-175.5" font-family="Helvetica,sans-Serif" font-size="10.00" fill="#000000">optional</text>
</a>
</g>
</g>
<!-- Node1&#45;&gt;Node25 -->
<g id="edge52" class="edge">
<title>Node1&#45;&gt;Node25</title>
<path fill="none" stroke="#191970" d="M427.0731,-289.5071C472.8546,-282.2367 546.8004,-267.8906 607,-244 640.779,-230.5946 676.4637,-208.1732 698.484,-193.237"/>
<polygon fill="#191970" stroke="#191970" points="700.5161,-196.0872 706.7668,-187.5327 696.5457,-190.3221 700.5161,-196.0872"/>
</g>
<!-- Node1&#45;&gt;Node27 -->
<g id="edge44" class="edge">
<title>Node1&#45;&gt;Node27</title>
<path fill="none" stroke="#191970" d="M412.4375,-285.8906C443.5572,-275.3749 493.5964,-258.466 528.0485,-246.8243"/>
<polygon fill="#191970" stroke="#191970" points="529.4089,-250.0591 537.7622,-243.5419 527.168,-243.4274 529.4089,-250.0591"/>
</g>
<!-- Node29 -->
<g id="node30" class="node">
<title>Node29</title>
<g id="a_node30"><a xlink:title=" ">
<polygon fill="#ffffff" stroke="#bfbfbf" points="286,-224.5 286,-243.5 336,-243.5 336,-224.5 286,-224.5"/>
<text text-anchor="middle" x="311" y="-231.5" font-family="Helvetica,sans-Serif" font-size="10.00" fill="#000000">cstdint</text>
</a>
</g>
</g>
<!-- Node1&#45;&gt;Node29 -->
<g id="edge49" class="edge">
<title>Node1&#45;&gt;Node29</title>
<path fill="none" stroke="#191970" d="M372.5938,-285.8906C361.3031,-276.3786 343.8033,-261.6357 330.3381,-250.2917"/>
<polygon fill="#191970" stroke="#191970" points="332.4699,-247.5111 322.5671,-243.7449 327.9598,-252.8646 332.4699,-247.5111"/>
</g>
<!-- Node4 -->
<g id="node5" class="node">
<title>Node4</title>
<g id="a_node5"><a xlink:title=" ">
<polygon fill="#ffffff" stroke="#bfbfbf" points="525,-56.5 525,-75.5 567,-75.5 567,-56.5 525,-56.5"/>
<text text-anchor="middle" x="546" y="-63.5" font-family="Helvetica,sans-Serif" font-size="10.00" fill="#000000">array</text>
</a>
</g>
</g>
<!-- Node3&#45;&gt;Node4 -->
<g id="edge4" class="edge">
<title>Node3&#45;&gt;Node4</title>
<path fill="none" stroke="#191970" d="M609.5876,-112.2455C597.9943,-103.814 581.0252,-91.4729 567.5322,-81.6598"/>
<polygon fill="#191970" stroke="#191970" points="569.4047,-78.6938 559.2587,-75.6427 565.2874,-84.355 569.4047,-78.6938"/>
</g>
<!-- Node5 -->
<g id="node6" class="node">
<title>Node5</title>
<g id="a_node6"><a xlink:title=" ">
<polygon fill="#ffffff" stroke="#bfbfbf" points="414.5,-.5 414.5,-19.5 461.5,-19.5 461.5,-.5 414.5,-.5"/>
<text text-anchor="middle" x="438" y="-7.5" font-family="Helvetica,sans-Serif" font-size="10.00" fill="#000000">cmath</text>
</a>
</g>
</g>
<!-- Node3&#45;&gt;Node5 -->
<g id="edge5" class="edge">
<title>Node3&#45;&gt;Node5</title>
<path fill="none" stroke="#191970" d="M618.6483,-112.4603C611.6547,-98.1603 596.5827,-71.2247 576,-56 544.7611,-32.8931 501.2243,-20.9453 471.4559,-15.0897"/>
<polygon fill="#191970" stroke="#191970" points="472.012,-11.6333 461.5435,-13.2643 470.7442,-18.5176 472.012,-11.6333"/>
</g>
<!-- Node3&#45;&gt;Node6 -->
<g id="edge6" class="edge">
<title>Node3&#45;&gt;Node6</title>
<path fill="none" stroke="#191970" d="M590.3243,-114.2134C545.2783,-103.4791 464.6178,-84.2579 419.9553,-73.6149"/>
<polygon fill="#191970" stroke="#191970" points="420.7464,-70.2055 410.2074,-71.292 419.1237,-77.0148 420.7464,-70.2055"/>
</g>
<!-- Node7 -->
<g id="node8" class="node">
<title>Node7</title>
<g id="a_node8"><a xlink:title=" ">
<polygon fill="#ffffff" stroke="#bfbfbf" points="290.5,-56.5 290.5,-75.5 347.5,-75.5 347.5,-56.5 290.5,-56.5"/>
<text text-anchor="middle" x="319" y="-63.5" font-family="Helvetica,sans-Serif" font-size="10.00" fill="#000000">ostream</text>
</a>
</g>
</g>
<!-- Node3&#45;&gt;Node7 -->
<g id="edge7" class="edge">
<title>Node3&#45;&gt;Node7</title>
<path fill="none" stroke="#191970" d="M590.4931,-114.008C587.2924,-113.297 584.0875,-112.6148 581,-112 485.1987,-92.9242 457.3769,-96.5952 357.4613,-75.9159"/>
<polygon fill="#191970" stroke="#191970" points="358.0681,-72.4671 347.5622,-73.8371 356.6294,-79.3177 358.0681,-72.4671"/>
</g>
<!-- Node8 -->
<g id="node9" class="node">
<title>Node8</title>
<g id="a_node9"><a xlink:href="uint_8hpp.html" target="_top" xlink:title=" ">
<polygon fill="#ffffff" stroke="#000000" points="623,-56.5 623,-75.5 679,-75.5 679,-56.5 623,-56.5"/>
<text text-anchor="middle" x="651" y="-63.5" font-family="Helvetica,sans-Serif" font-size="10.00" fill="#000000">uint.hpp</text>
</a>
</g>
</g>
<!-- Node3&#45;&gt;Node8 -->
<g id="edge8" class="edge">
<title>Node3&#45;&gt;Node8</title>
<path fill="none" stroke="#191970" d="M627.8772,-112.2455C631.6513,-104.6973 636.9921,-94.0158 641.5901,-84.8197"/>
<polygon fill="#191970" stroke="#191970" points="644.837,-86.1522 646.1787,-75.6427 638.576,-83.0217 644.837,-86.1522"/>
</g>
<!-- Node9&#45;&gt;Node3 -->
<g id="edge10" class="edge">
<title>Node9&#45;&gt;Node3</title>
<path fill="none" stroke="#191970" d="M444.1317,-168.3733C481.9695,-158.5635 540.5857,-143.3667 580.3157,-133.0663"/>
<polygon fill="#191970" stroke="#191970" points="581.4339,-136.3922 590.2355,-130.4945 579.6772,-129.6162 581.4339,-136.3922"/>
</g>
<!-- Node9&#45;&gt;Node5 -->
<g id="edge14" class="edge">
<title>Node9&#45;&gt;Node5</title>
<path fill="none" stroke="#191970" d="M408.7555,-168.4862C413.6771,-141.8144 427.683,-65.9117 434.3658,-29.695"/>
<polygon fill="#191970" stroke="#191970" points="437.8137,-30.297 436.1865,-19.8279 430.9299,-29.0267 437.8137,-30.297"/>
</g>
<!-- Node9&#45;&gt;Node6 -->
<g id="edge15" class="edge">
<title>Node9&#45;&gt;Node6</title>
<path fill="none" stroke="#191970" d="M403.6775,-168.2538C400.6684,-159.0269 396.3565,-144.73 394,-132 391.1816,-116.7747 389.6683,-99.3176 388.8668,-86.1829"/>
<polygon fill="#191970" stroke="#191970" points="392.3476,-85.7215 388.3308,-75.9176 385.3571,-86.0866 392.3476,-85.7215"/>
</g>
<!-- Node10 -->
<g id="node11" class="node">
<title>Node10</title>
<g id="a_node11"><a xlink:href="Pixel_8hpp.html" target="_top" xlink:title=" ">
<polygon fill="#ffffff" stroke="#000000" points="510,-112.5 510,-131.5 572,-131.5 572,-112.5 510,-112.5"/>
<text text-anchor="middle" x="541" y="-119.5" font-family="Helvetica,sans-Serif" font-size="10.00" fill="#000000">Pixel.hpp</text>
</a>
</g>
</g>
<!-- Node9&#45;&gt;Node10 -->
<g id="edge11" class="edge">
<title>Node9&#45;&gt;Node10</title>
<path fill="none" stroke="#191970" d="M430.0354,-168.3733C451.7388,-159.3032 484.4618,-145.6279 508.755,-135.4755"/>
<polygon fill="#191970" stroke="#191970" points="510.3881,-138.5865 518.2652,-131.5011 507.6889,-132.1278 510.3881,-138.5865"/>
</g>
<!-- Node11 -->
<g id="node12" class="node">
<title>Node11</title>
<g id="a_node12"><a xlink:title=" ">
<polygon fill="#ffffff" stroke="#bfbfbf" points="436,-112.5 436,-131.5 492,-131.5 492,-112.5 436,-112.5"/>
<text text-anchor="middle" x="464" y="-119.5" font-family="Helvetica,sans-Serif" font-size="10.00" fill="#000000">sstream</text>
</a>
</g>
</g>
<!-- Node9&#45;&gt;Node11 -->
<g id="edge16" class="edge">
<title>Node9&#45;&gt;Node11</title>
<path fill="none" stroke="#191970" d="M416.9286,-168.2455C425.1838,-160.1352 437.1209,-148.4075 446.9082,-138.7919"/>
<polygon fill="#191970" stroke="#191970" points="449.5046,-141.1476 454.1851,-131.6427 444.5989,-136.1542 449.5046,-141.1476"/>
</g>
<!-- Node10&#45;&gt;Node7 -->
<g id="edge13" class="edge">
<title>Node10&#45;&gt;Node7</title>
<path fill="none" stroke="#191970" d="M509.7429,-114.1909C465.267,-103.0788 386.5421,-83.4071 357.4039,-76.0558"/>
<polygon fill="#191970" stroke="#191970" points="358.1778,-72.6413 347.624,-73.5731 356.4553,-79.4261 358.1778,-72.6413"/>
</g>
<!-- Node10&#45;&gt;Node8 -->
<g id="edge12" class="edge">
<title>Node10&#45;&gt;Node8</title>
<path fill="none" stroke="#191970" d="M560.1605,-112.2455C577.5111,-103.4125 603.2901,-90.2887 622.9583,-80.2758"/>
<polygon fill="#191970" stroke="#191970" points="624.7353,-83.2986 632.059,-75.6427 621.5595,-77.0605 624.7353,-83.2986"/>
</g>
<!-- Node12&#45;&gt;Node8 -->
<g id="edge18" class="edge">
<title>Node12&#45;&gt;Node8</title>
<path fill="none" stroke="#191970" d="M802.5412,-112.3733C771.0532,-102.7376 722.5807,-87.9045 688.9705,-77.6194"/>
<polygon fill="#191970" stroke="#191970" points="689.6387,-74.1637 679.0522,-74.5843 687.5903,-80.8573 689.6387,-74.1637"/>
</g>
<!-- Node13&#45;&gt;Node3 -->
<g id="edge20" class="edge">
<title>Node13&#45;&gt;Node3</title>
<path fill="none" stroke="#191970" d="M761.6923,-224.4868C778.9132,-211.3532 804.5677,-187.1229 790,-168 782.3387,-157.9431 712.6836,-141.2499 665.7853,-130.9785"/>
<polygon fill="#191970" stroke="#191970" points="666.3775,-127.5256 655.8629,-128.8263 664.8937,-134.3665 666.3775,-127.5256"/>
</g>
<!-- Node13&#45;&gt;Node10 -->
<g id="edge40" class="edge">
<title>Node13&#45;&gt;Node10</title>
<path fill="none" stroke="#191970" d="M753.3863,-224.269C760.36,-210.2089 770.1528,-184.134 757,-168 708.7858,-108.8579 663.1778,-146.2142 582.3464,-131.7871"/>
<polygon fill="#191970" stroke="#191970" points="582.8066,-128.3095 572.3117,-129.7611 581.4212,-135.1711 582.8066,-128.3095"/>
</g>
<!-- Node14 -->
<g id="node15" class="node">
<title>Node14</title>
<g id="a_node15"><a xlink:href="Degrees_8hpp.html" target="_top" xlink:title=" ">
<polygon fill="#ffffff" stroke="#000000" points="984,-168.5 984,-187.5 1062,-187.5 1062,-168.5 984,-168.5"/>
<text text-anchor="middle" x="1023" y="-175.5" font-family="Helvetica,sans-Serif" font-size="10.00" fill="#000000">Degrees.hpp</text>
</a>
</g>
</g>
<!-- Node13&#45;&gt;Node14 -->
<g id="edge21" class="edge">
<title>Node13&#45;&gt;Node14</title>
<path fill="none" stroke="#191970" d="M794.9617,-224.4369C844.7623,-214.2957 923.087,-198.3459 973.7433,-188.0305"/>
<polygon fill="#191970" stroke="#191970" points="974.7002,-191.4075 983.8006,-185.9824 973.3033,-184.5483 974.7002,-191.4075"/>
</g>
<!-- Node13&#45;&gt;Node15 -->
<g id="edge23" class="edge">
<title>Node13&#45;&gt;Node15</title>
<path fill="none" stroke="#191970" d="M695.7646,-228.1596C619.9811,-219.6348 475.1349,-203.1468 352,-188 339.7891,-186.4979 326.4983,-184.7959 314.4495,-183.2274"/>
<polygon fill="#191970" stroke="#191970" points="314.6088,-179.7185 304.2393,-181.8917 313.7008,-186.6593 314.6088,-179.7185"/>
</g>
<!-- Node13&#45;&gt;Node25 -->
<g id="edge41" class="edge">
<title>Node13&#45;&gt;Node25</title>
<path fill="none" stroke="#191970" d="M743.1228,-224.2455C739.3487,-216.6973 734.0079,-206.0158 729.4099,-196.8197"/>
<polygon fill="#191970" stroke="#191970" points="732.424,-195.0217 724.8213,-187.6427 726.163,-198.1522 732.424,-195.0217"/>
</g>
<!-- Node26 -->
<g id="node27" class="node">
<title>Node26</title>
<g id="a_node27"><a xlink:title=" ">
<polygon fill="#ffffff" stroke="#bfbfbf" points="842.5,-168.5 842.5,-187.5 889.5,-187.5 889.5,-168.5 842.5,-168.5"/>
<text text-anchor="middle" x="866" y="-175.5" font-family="Helvetica,sans-Serif" font-size="10.00" fill="#000000">vector</text>
</a>
</g>
</g>
<!-- Node13&#45;&gt;Node26 -->
<g id="edge42" class="edge">
<title>Node13&#45;&gt;Node26</title>
<path fill="none" stroke="#191970" d="M768.2849,-224.3733C787.1421,-215.4241 815.446,-201.9917 836.7455,-191.8835"/>
<polygon fill="#191970" stroke="#191970" points="838.4461,-194.9506 845.9798,-187.5011 835.4449,-188.6266 838.4461,-194.9506"/>
</g>
<!-- Node14&#45;&gt;Node5 -->
<g id="edge22" class="edge">
<title>Node14&#45;&gt;Node5</title>
<path fill="none" stroke="#191970" d="M1012.0125,-168.3746C994.9856,-153.9626 960.6677,-126.8828 927,-112 766.2592,-40.9446 553.5778,-18.4677 471.9157,-12.1854"/>
<polygon fill="#191970" stroke="#191970" points="471.9555,-8.6789 461.7252,-11.4342 471.4408,-15.6599 471.9555,-8.6789"/>
</g>
<!-- Node15&#45;&gt;Node3 -->
<g id="edge24" class="edge">
<title>Node15&#45;&gt;Node3</title>
<path fill="none" stroke="#191970" d="M304.4557,-173.8965C367.0251,-165.1298 512.3428,-144.4915 580.2842,-131.9629"/>
<polygon fill="#191970" stroke="#191970" points="581.3272,-135.3276 590.4995,-130.0249 580.0224,-128.4502 581.3272,-135.3276"/>
</g>
<!-- Node15&#45;&gt;Node7 -->
<g id="edge38" class="edge">
<title>Node15&#45;&gt;Node7</title>
<path fill="none" stroke="#191970" d="M278.7514,-168.4509C285.9927,-150.0186 302.0186,-109.2254 311.5188,-85.043"/>
<polygon fill="#191970" stroke="#191970" points="314.8591,-86.1122 315.2581,-75.5249 308.3439,-83.5526 314.8591,-86.1122"/>
</g>
<!-- Node15&#45;&gt;Node10 -->
<g id="edge37" class="edge">
<title>Node15&#45;&gt;Node10</title>
<path fill="none" stroke="#191970" d="M304.3437,-172.4569C345.6784,-164.5558 423.6357,-149.3149 499.4002,-132.2949"/>
<polygon fill="#191970" stroke="#191970" points="500.6061,-135.6107 509.5884,-129.9921 499.0628,-128.7829 500.6061,-135.6107"/>
</g>
<!-- Node15&#45;&gt;Node16 -->
<g id="edge25" class="edge">
<title>Node15&#45;&gt;Node16</title>
<path fill="none" stroke="#191970" d="M266.2907,-168.2455C259.1927,-160.2958 248.9916,-148.8706 240.505,-139.3656"/>
<polygon fill="#191970" stroke="#191970" points="242.8805,-136.771 233.6095,-131.6427 237.6589,-141.4331 242.8805,-136.771"/>
</g>
<!-- Node15&#45;&gt;Node24 -->
<g id="edge39" class="edge">
<title>Node15&#45;&gt;Node24</title>
<path fill="none" stroke="#191970" d="M252.3084,-168.3733C230.9289,-159.3032 198.6943,-145.6279 174.7638,-135.4755"/>
<polygon fill="#191970" stroke="#191970" points="175.9683,-132.1846 165.3955,-131.5011 173.2344,-138.6287 175.9683,-132.1846"/>
</g>
<!-- Node16&#45;&gt;Node5 -->
<g id="edge34" class="edge">
<title>Node16&#45;&gt;Node5</title>
<path fill="none" stroke="#191970" d="M230.7293,-112.3863C239.8011,-97.9897 258.8401,-70.9296 282,-56 302.2607,-42.9393 364.8899,-26.838 404.3585,-17.562"/>
<polygon fill="#191970" stroke="#191970" points="405.3882,-20.9161 414.3379,-15.2457 403.8055,-14.0974 405.3882,-20.9161"/>
</g>
<!-- Node16&#45;&gt;Node7 -->
<g id="edge36" class="edge">
<title>Node16&#45;&gt;Node7</title>
<path fill="none" stroke="#191970" d="M241.3736,-112.2455C255.9308,-103.5731 277.431,-90.7645 294.1152,-80.825"/>
<polygon fill="#191970" stroke="#191970" points="296.0144,-83.7676 302.8141,-75.6427 292.4317,-77.7539 296.0144,-83.7676"/>
</g>
<!-- Node17 -->
<g id="node18" class="node">
<title>Node17</title>
<g id="a_node18"><a xlink:href="Array_8hpp.html" target="_top" xlink:title=" ">
<polygon fill="#ffffff" stroke="#000000" points="98,-56.5 98,-75.5 160,-75.5 160,-56.5 98,-56.5"/>
<text text-anchor="middle" x="129" y="-63.5" font-family="Helvetica,sans-Serif" font-size="10.00" fill="#000000">Array.hpp</text>
</a>
</g>
</g>
<!-- Node16&#45;&gt;Node17 -->
<g id="edge26" class="edge">
<title>Node16&#45;&gt;Node17</title>
<path fill="none" stroke="#191970" d="M208.2781,-112.2455C193.4111,-103.5731 171.4534,-90.7645 154.4142,-80.825"/>
<polygon fill="#191970" stroke="#191970" points="155.9317,-77.6582 145.5303,-75.6427 152.4045,-83.7047 155.9317,-77.6582"/>
</g>
<!-- Node16&#45;&gt;Node18 -->
<g id="edge33" class="edge">
<title>Node16&#45;&gt;Node18</title>
<path fill="none" stroke="#191970" d="M190.8682,-112.6885C156.3811,-102.8886 105.8537,-87.3407 89,-76 70.0681,-63.2609 53.6709,-42.645 43.3861,-27.8428"/>
<polygon fill="#191970" stroke="#191970" points="46.274,-25.865 37.8042,-19.5 40.4561,-29.7576 46.274,-25.865"/>
</g>
<!-- Node23 -->
<g id="node24" class="node">
<title>Node23</title>
<g id="a_node24"><a xlink:title=" ">
<polygon fill="#ffffff" stroke="#bfbfbf" points="178,-56.5 178,-75.5 234,-75.5 234,-56.5 178,-56.5"/>
<text text-anchor="middle" x="206" y="-63.5" font-family="Helvetica,sans-Serif" font-size="10.00" fill="#000000">iomanip</text>
</a>
</g>
</g>
<!-- Node16&#45;&gt;Node23 -->
<g id="edge35" class="edge">
<title>Node16&#45;&gt;Node23</title>
<path fill="none" stroke="#191970" d="M221.6905,-112.2455C219.1567,-104.7776 215.5823,-94.2427 212.485,-85.1137"/>
<polygon fill="#191970" stroke="#191970" points="215.7991,-83.9879 209.2716,-75.6427 209.1702,-86.237 215.7991,-83.9879"/>
</g>
<!-- Node17&#45;&gt;Node5 -->
<g id="edge28" class="edge">
<title>Node17&#45;&gt;Node5</title>
<path fill="none" stroke="#191970" d="M160.3911,-57.914C163.295,-57.238 166.198,-56.589 169,-56 191.721,-51.2243 337.3529,-26.7938 404.3548,-15.6068"/>
<polygon fill="#191970" stroke="#191970" points="405.1147,-19.0285 414.4022,-13.9301 403.9624,-12.124 405.1147,-19.0285"/>
</g>
<!-- Node17&#45;&gt;Node18 -->
<g id="edge27" class="edge">
<title>Node17&#45;&gt;Node18</title>
<path fill="none" stroke="#191970" d="M112.1039,-56.2455C97.082,-47.5731 74.8957,-34.7645 57.679,-24.825"/>
<polygon fill="#191970" stroke="#191970" points="59.1128,-21.6114 48.7025,-19.6427 55.6129,-27.6737 59.1128,-21.6114"/>
</g>
<!-- Node19 -->
<g id="node20" class="node">
<title>Node19</title>
<g id="a_node20"><a xlink:title=" ">
<polygon fill="#ffffff" stroke="#bfbfbf" points="314.5,-.5 314.5,-19.5 367.5,-19.5 367.5,-.5 314.5,-.5"/>
<text text-anchor="middle" x="341" y="-7.5" font-family="Helvetica,sans-Serif" font-size="10.00" fill="#000000">cstddef</text>
</a>
</g>
</g>
<!-- Node17&#45;&gt;Node19 -->
<g id="edge29" class="edge">
<title>Node17&#45;&gt;Node19</title>
<path fill="none" stroke="#191970" d="M160.1947,-58.0006C193.4798,-49.4313 248.0013,-35.2985 304.4615,-20.1168"/>
<polygon fill="#191970" stroke="#191970" points="305.5311,-23.4535 314.2761,-17.4723 303.7099,-16.6945 305.5311,-23.4535"/>
</g>
<!-- Node20 -->
<g id="node21" class="node">
<title>Node20</title>
<g id="a_node21"><a xlink:title=" ">
<polygon fill="#ffffff" stroke="#bfbfbf" points="82,-.5 82,-19.5 138,-19.5 138,-.5 82,-.5"/>
<text text-anchor="middle" x="110" y="-7.5" font-family="Helvetica,sans-Serif" font-size="10.00" fill="#000000">numeric</text>
</a>
</g>
</g>
<!-- Node17&#45;&gt;Node20 -->
<g id="edge30" class="edge">
<title>Node17&#45;&gt;Node20</title>
<path fill="none" stroke="#191970" d="M125.6905,-56.2455C123.1567,-48.7776 119.5823,-38.2427 116.485,-29.1137"/>
<polygon fill="#191970" stroke="#191970" points="119.7991,-27.9879 113.2716,-19.6427 113.1702,-30.237 119.7991,-27.9879"/>
</g>
<!-- Node21 -->
<g id="node22" class="node">
<title>Node21</title>
<g id="a_node22"><a xlink:title=" ">
<polygon fill="#ffffff" stroke="#bfbfbf" points="156.5,-.5 156.5,-19.5 225.5,-19.5 225.5,-.5 156.5,-.5"/>
<text text-anchor="middle" x="191" y="-7.5" font-family="Helvetica,sans-Serif" font-size="10.00" fill="#000000">type_traits</text>
</a>
</g>
</g>
<!-- Node17&#45;&gt;Node21 -->
<g id="edge31" class="edge">
<title>Node17&#45;&gt;Node21</title>
<path fill="none" stroke="#191970" d="M139.7996,-56.2455C148.8678,-48.0549 162.0206,-36.1749 172.7245,-26.5069"/>
<polygon fill="#191970" stroke="#191970" points="175.2491,-28.9429 180.3242,-19.6427 170.5571,-23.7482 175.2491,-28.9429"/>
</g>
<!-- Node22 -->
<g id="node23" class="node">
<title>Node22</title>
<g id="a_node23"><a xlink:title=" ">
<polygon fill="#ffffff" stroke="#bfbfbf" points="244,-.5 244,-19.5 296,-19.5 296,-.5 244,-.5"/>
<text text-anchor="middle" x="270" y="-7.5" font-family="Helvetica,sans-Serif" font-size="10.00" fill="#000000">cassert</text>
</a>
</g>
</g>
<!-- Node17&#45;&gt;Node22 -->
<g id="edge32" class="edge">
<title>Node17&#45;&gt;Node22</title>
<path fill="none" stroke="#191970" d="M153.2388,-56.3733C176.2789,-47.2226 211.1214,-33.3844 236.7501,-23.2057"/>
<polygon fill="#191970" stroke="#191970" points="238.0756,-26.4452 246.0775,-19.5011 235.4918,-19.9395 238.0756,-26.4452"/>
</g>
<!-- Node27&#45;&gt;Node10 -->
<g id="edge45" class="edge">
<title>Node27&#45;&gt;Node10</title>
<path fill="none" stroke="#191970" d="M558.6181,-224.4183C552.2727,-215.5336 543.5939,-201.6624 540,-188 535.9914,-172.7614 536.5774,-154.8523 537.9788,-141.5375"/>
<polygon fill="#191970" stroke="#191970" points="541.4533,-141.9595 539.2649,-131.5931 534.5111,-141.0616 541.4533,-141.9595"/>
</g>
<!-- Node28 -->
<g id="node29" class="node">
<title>Node28</title>
<g id="a_node29"><a xlink:title=" ">
<polygon fill="#ffffff" stroke="#bfbfbf" points="548.5,-168.5 548.5,-187.5 673.5,-187.5 673.5,-168.5 548.5,-168.5"/>
<text text-anchor="middle" x="611" y="-175.5" font-family="Helvetica,sans-Serif" font-size="10.00" fill="#000000">opencv2/core/mat.hpp</text>
</a>
</g>
</g>
<!-- Node27&#45;&gt;Node28 -->
<g id="edge46" class="edge">
<title>Node27&#45;&gt;Node28</title>
<path fill="none" stroke="#191970" d="M573.8384,-224.2455C580.162,-216.3761 589.2224,-205.101 596.8136,-195.6542"/>
<polygon fill="#191970" stroke="#191970" points="599.7158,-197.6302 603.2514,-187.6427 594.2592,-193.2454 599.7158,-197.6302"/>
</g>
<!-- Node30&#45;&gt;Node13 -->
<g id="edge57" class="edge">
<title>Node30&#45;&gt;Node13</title>
<path fill="none" stroke="#191970" d="M737.875,-285.8906C739.5559,-277.276 742.074,-264.3708 744.1784,-253.5858"/>
<polygon fill="#191970" stroke="#191970" points="747.6186,-254.2301 746.0986,-243.7449 740.7482,-252.8895 747.6186,-254.2301"/>
</g>
<!-- Node31 -->
<g id="node32" class="node">
<title>Node31</title>
<g id="a_node32"><a xlink:href="AngleTracker_8hpp.html" target="_top" xlink:title=" ">
<polygon fill="#ffffff" stroke="#000000" points="946,-224.5 946,-243.5 1046,-243.5 1046,-224.5 946,-224.5"/>
<text text-anchor="middle" x="996" y="-231.5" font-family="Helvetica,sans-Serif" font-size="10.00" fill="#000000">AngleTracker.hpp</text>
</a>
</g>
</g>
<!-- Node30&#45;&gt;Node31 -->
<g id="edge54" class="edge">
<title>Node30&#45;&gt;Node31</title>
<path fill="none" stroke="#191970" d="M774.6307,-285.9189C782.68,-283.9441 791.1137,-281.8908 799,-280 848.3271,-268.1734 904.6993,-255.05 944.467,-245.8573"/>
<polygon fill="#191970" stroke="#191970" points="945.5033,-249.2101 954.4591,-243.5494 943.928,-242.3897 945.5033,-249.2101"/>
</g>
<!-- Node32 -->
<g id="node33" class="node">
<title>Node32</title>
<g id="a_node33"><a xlink:title=" ">
<polygon fill="#ffffff" stroke="#bfbfbf" points="1064,-224.5 1064,-243.5 1182,-243.5 1182,-224.5 1064,-224.5"/>
<text text-anchor="middle" x="1123" y="-231.5" font-family="Helvetica,sans-Serif" font-size="10.00" fill="#000000">opencv2/videoio.hpp</text>
</a>
</g>
</g>
<!-- Node30&#45;&gt;Node32 -->
<g id="edge58" class="edge">
<title>Node30&#45;&gt;Node32</title>
<path fill="none" stroke="#191970" d="M772.1738,-285.9332C780.9184,-283.8056 790.2626,-281.6847 799,-280 908.6242,-258.8631 939.5381,-260.2581 1053.4862,-244.1979"/>
<polygon fill="#191970" stroke="#191970" points="1054.2585,-247.6233 1063.6651,-242.7482 1053.2714,-240.6933 1054.2585,-247.6233"/>
</g>
<!-- Node31&#45;&gt;Node3 -->
<g id="edge55" class="edge">
<title>Node31&#45;&gt;Node3</title>
<path fill="none" stroke="#191970" d="M985.2758,-224.3443C968.2987,-209.637 933.5978,-181.8711 899,-168 857.3779,-151.3126 732.2409,-134.7697 665.6961,-126.8421"/>
<polygon fill="#191970" stroke="#191970" points="665.8819,-123.3398 655.5409,-125.645 665.0624,-130.2917 665.8819,-123.3398"/>
</g>
<!-- Node31&#45;&gt;Node14 -->
<g id="edge56" class="edge">
<title>Node31&#45;&gt;Node14</title>
<path fill="none" stroke="#191970" d="M1000.703,-224.2455C1004.3424,-216.6973 1009.4924,-206.0158 1013.9262,-196.8197"/>
<polygon fill="#191970" stroke="#191970" points="1017.1605,-198.1704 1018.3509,-187.6427 1010.8551,-195.1303 1017.1605,-198.1704"/>
</g>
</g>
</svg>
