<?xml version="1.0" encoding="UTF-8" standalone="no"?>
<!DOCTYPE svg PUBLIC "-//W3C//DTD SVG 1.1//EN"
 "http://www.w3.org/Graphics/SVG/1.1/DTD/svg11.dtd">
<!-- Generated by graphviz version 2.40.1 (20161225.0304)
 -->
<!-- Title: /home/pieter/GitHub/EAGLE&#45;ZYBO&#45;Linux/src/location&#45;finder/src/LocationFinder.cpp Pages: 1 -->
<svg width="1259pt" height="408pt"
 viewBox="0.00 0.00 1259.46 408.00" xmlns="http://www.w3.org/2000/svg" xmlns:xlink="http://www.w3.org/1999/xlink">
<g id="graph0" class="graph" transform="scale(1 1) rotate(0) translate(4 404)">
<title>/home/pieter/GitHub/EAGLE&#45;ZYBO&#45;Linux/src/location&#45;finder/src/LocationFinder.cpp</title>
<polygon fill="#ffffff" stroke="transparent" points="-4,4 -4,-404 1255.4591,-404 1255.4591,4 -4,4"/>
<!-- Node0 -->
<g id="node1" class="node">
<title>Node0</title>
<g id="a_node1"><a xlink:title=" ">
<polygon fill="#bfbfbf" stroke="#000000" points="848.4591,-347.5 848.4591,-399.5 1000.4591,-399.5 1000.4591,-347.5 848.4591,-347.5"/>
<text text-anchor="start" x="856.4591" y="-387.5" font-family="Helvetica,sans-Serif" font-size="10.00" fill="#000000">/home/pieter/GitHub</text>
<text text-anchor="start" x="856.4591" y="-376.5" font-family="Helvetica,sans-Serif" font-size="10.00" fill="#000000">/EAGLE&#45;ZYBO&#45;Linux/src</text>
<text text-anchor="start" x="856.4591" y="-365.5" font-family="Helvetica,sans-Serif" font-size="10.00" fill="#000000">/location&#45;finder/src/Location</text>
<text text-anchor="middle" x="924.4591" y="-354.5" font-family="Helvetica,sans-Serif" font-size="10.00" fill="#000000">Finder.cpp</text>
</a>
</g>
</g>
<!-- Node1 -->
<g id="node2" class="node">
<title>Node1</title>
<g id="a_node2"><a xlink:href="GridFinder_8hpp.html" target="_top" xlink:title=" ">
<polygon fill="#ffffff" stroke="#000000" points="452.4591,-286 452.4591,-305 538.4591,-305 538.4591,-286 452.4591,-286"/>
<text text-anchor="middle" x="495.4591" y="-293" font-family="Helvetica,sans-Serif" font-size="10.00" fill="#000000">GridFinder.hpp</text>
</a>
</g>
</g>
<!-- Node0&#45;&gt;Node1 -->
<g id="edge1" class="edge">
<title>Node0&#45;&gt;Node1</title>
<path fill="none" stroke="#191970" d="M848.2568,-359.645C762.1367,-343.9868 624.1676,-318.9015 548.8203,-305.202"/>
<polygon fill="#191970" stroke="#191970" points="549.0808,-301.6921 538.616,-303.3467 547.8285,-308.5792 549.0808,-301.6921"/>
</g>
<!-- Node23 -->
<g id="node24" class="node">
<title>Node23</title>
<g id="a_node24"><a xlink:title=" ">
<polygon fill="#ffffff" stroke="#bfbfbf" points="669.4591,-112.5 669.4591,-131.5 729.4591,-131.5 729.4591,-112.5 669.4591,-112.5"/>
<text text-anchor="middle" x="699.4591" y="-119.5" font-family="Helvetica,sans-Serif" font-size="10.00" fill="#000000">iostream</text>
</a>
</g>
</g>
<!-- Node0&#45;&gt;Node23 -->
<g id="edge48" class="edge">
<title>Node0&#45;&gt;Node23</title>
<path fill="none" stroke="#191970" d="M866.7133,-347.4038C848.9756,-337.6313 830.2513,-325.3572 815.4591,-311 762.1525,-259.2612 723.3033,-178.1452 707.4012,-141.3293"/>
<polygon fill="#191970" stroke="#191970" points="710.4876,-139.6414 703.3709,-131.7926 704.0397,-142.3663 710.4876,-139.6414"/>
</g>
<!-- Node26 -->
<g id="node27" class="node">
<title>Node26</title>
<g id="a_node27"><a xlink:href="LocationFinder_8hpp.html" target="_top" xlink:title=" ">
<polygon fill="#ffffff" stroke="#000000" points="823.9591,-286 823.9591,-305 930.9591,-305 930.9591,-286 823.9591,-286"/>
<text text-anchor="middle" x="877.4591" y="-293" font-family="Helvetica,sans-Serif" font-size="10.00" fill="#000000">LocationFinder.hpp</text>
</a>
</g>
</g>
<!-- Node0&#45;&gt;Node26 -->
<g id="edge47" class="edge">
<title>Node0&#45;&gt;Node26</title>
<path fill="none" stroke="#191970" d="M908.547,-347.0928C901.9276,-336.1073 894.4083,-323.6285 888.423,-313.6954"/>
<polygon fill="#191970" stroke="#191970" points="891.393,-311.8427 883.234,-305.0839 885.3973,-315.4555 891.393,-311.8427"/>
</g>
<!-- Node27 -->
<g id="node28" class="node">
<title>Node27</title>
<g id="a_node28"><a xlink:title=" ">
<polygon fill="#ffffff" stroke="#bfbfbf" points="949.4591,-286 949.4591,-305 993.4591,-305 993.4591,-286 949.4591,-286"/>
<text text-anchor="middle" x="971.4591" y="-293" font-family="Helvetica,sans-Serif" font-size="10.00" fill="#000000">string</text>
</a>
</g>
</g>
<!-- Node0&#45;&gt;Node27 -->
<g id="edge49" class="edge">
<title>Node0&#45;&gt;Node27</title>
<path fill="none" stroke="#191970" d="M940.3712,-347.0928C946.9906,-336.1073 954.5099,-323.6285 960.4952,-313.6954"/>
<polygon fill="#191970" stroke="#191970" points="963.5209,-315.4555 965.6842,-305.0839 957.5252,-311.8427 963.5209,-315.4555"/>
</g>
<!-- Node28 -->
<g id="node29" class="node">
<title>Node28</title>
<g id="a_node29"><a xlink:title=" ">
<polygon fill="#ffffff" stroke="#bfbfbf" points="1011.4591,-286 1011.4591,-305 1127.4591,-305 1127.4591,-286 1011.4591,-286"/>
<text text-anchor="middle" x="1069.4591" y="-293" font-family="Helvetica,sans-Serif" font-size="10.00" fill="#000000">opencv2/opencv.hpp</text>
</a>
</g>
</g>
<!-- Node0&#45;&gt;Node28 -->
<g id="edge50" class="edge">
<title>Node0&#45;&gt;Node28</title>
<path fill="none" stroke="#191970" d="M973.1454,-347.3101C996.3362,-334.8351 1023.1841,-320.3928 1042.6333,-309.9304"/>
<polygon fill="#191970" stroke="#191970" points="1044.3898,-312.9599 1051.5384,-305.1401 1041.0736,-306.7952 1044.3898,-312.9599"/>
</g>
<!-- Node29 -->
<g id="node30" class="node">
<title>Node29</title>
<g id="a_node30"><a xlink:title=" ">
<polygon fill="#ffffff" stroke="#bfbfbf" points="1145.4591,-280.5 1145.4591,-310.5 1251.4591,-310.5 1251.4591,-280.5 1145.4591,-280.5"/>
<text text-anchor="start" x="1153.4591" y="-298.5" font-family="Helvetica,sans-Serif" font-size="10.00" fill="#000000">opencv2/core/utils</text>
<text text-anchor="middle" x="1198.4591" y="-287.5" font-family="Helvetica,sans-Serif" font-size="10.00" fill="#000000">/logger.hpp</text>
</a>
</g>
</g>
<!-- Node0&#45;&gt;Node29 -->
<g id="edge51" class="edge">
<title>Node0&#45;&gt;Node29</title>
<path fill="none" stroke="#191970" d="M1000.7834,-351.7727C1043.3528,-339.6543 1095.7168,-324.7478 1135.8537,-313.322"/>
<polygon fill="#191970" stroke="#191970" points="1136.8605,-316.6745 1145.5201,-310.5702 1134.9439,-309.942 1136.8605,-316.6745"/>
</g>
<!-- Node2 -->
<g id="node3" class="node">
<title>Node2</title>
<g id="a_node3"><a xlink:href="ANSIColors_8hpp.html" target="_top" xlink:title=" ">
<polygon fill="#ffffff" stroke="#000000" points="333.4591,-224.5 333.4591,-243.5 425.4591,-243.5 425.4591,-224.5 333.4591,-224.5"/>
<text text-anchor="middle" x="379.4591" y="-231.5" font-family="Helvetica,sans-Serif" font-size="10.00" fill="#000000">ANSIColors.hpp</text>
</a>
</g>
</g>
<!-- Node1&#45;&gt;Node2 -->
<g id="edge2" class="edge">
<title>Node1&#45;&gt;Node2</title>
<path fill="none" stroke="#191970" d="M477.3341,-285.8906C458.3508,-275.8262 428.3218,-259.9057 406.5284,-248.3514"/>
<polygon fill="#191970" stroke="#191970" points="407.9314,-245.1338 397.4568,-243.5419 404.6525,-251.3184 407.9314,-245.1338"/>
</g>
<!-- Node3 -->
<g id="node4" class="node">
<title>Node3</title>
<g id="a_node4"><a xlink:href="Angle_8hpp.html" target="_top" xlink:title=" ">
<polygon fill="#ffffff" stroke="#000000" points="327.9591,-112.5 327.9591,-131.5 392.9591,-131.5 392.9591,-112.5 327.9591,-112.5"/>
<text text-anchor="middle" x="360.4591" y="-119.5" font-family="Helvetica,sans-Serif" font-size="10.00" fill="#000000">Angle.hpp</text>
</a>
</g>
</g>
<!-- Node1&#45;&gt;Node3 -->
<g id="edge3" class="edge">
<title>Node1&#45;&gt;Node3</title>
<path fill="none" stroke="#191970" d="M452.1004,-289.1555C404.2797,-281.1671 331.897,-265.8005 315.4591,-244 291.0368,-211.6103 323.0689,-164.5838 344.3363,-139.4253"/>
<polygon fill="#191970" stroke="#191970" points="347.0757,-141.6099 351.039,-131.7843 341.8134,-136.9938 347.0757,-141.6099"/>
</g>
<!-- Node6 -->
<g id="node7" class="node">
<title>Node6</title>
<g id="a_node7"><a xlink:title=" ">
<polygon fill="#ffffff" stroke="#bfbfbf" points="182.4591,-56.5 182.4591,-75.5 226.4591,-75.5 226.4591,-56.5 182.4591,-56.5"/>
<text text-anchor="middle" x="204.4591" y="-63.5" font-family="Helvetica,sans-Serif" font-size="10.00" fill="#000000">limits</text>
</a>
</g>
</g>
<!-- Node1&#45;&gt;Node6 -->
<g id="edge45" class="edge">
<title>Node1&#45;&gt;Node6</title>
<path fill="none" stroke="#191970" d="M452.3295,-292.9483C343.3968,-285.4819 62.0984,-259.5046 9.4591,-188 -37.5083,-124.1999 105.4251,-86.0169 172.1388,-72.062"/>
<polygon fill="#191970" stroke="#191970" points="173.0467,-75.4491 182.1507,-70.0301 171.6544,-68.589 173.0467,-75.4491"/>
</g>
<!-- Node9 -->
<g id="node10" class="node">
<title>Node9</title>
<g id="a_node10"><a xlink:href="Bresenham_8hpp.html" target="_top" xlink:title=" ">
<polygon fill="#ffffff" stroke="#000000" points="203.9591,-168.5 203.9591,-187.5 296.9591,-187.5 296.9591,-168.5 203.9591,-168.5"/>
<text text-anchor="middle" x="250.4591" y="-175.5" font-family="Helvetica,sans-Serif" font-size="10.00" fill="#000000">Bresenham.hpp</text>
</a>
</g>
</g>
<!-- Node1&#45;&gt;Node9 -->
<g id="edge9" class="edge">
<title>Node1&#45;&gt;Node9</title>
<path fill="none" stroke="#191970" d="M452.3079,-292.508C389.7755,-287.1921 278.6689,-273.7324 253.4591,-244 242.819,-231.4511 243.1605,-212.2446 245.5178,-197.7806"/>
<polygon fill="#191970" stroke="#191970" points="248.9773,-198.3334 247.5649,-187.8332 242.121,-196.9224 248.9773,-198.3334"/>
</g>
<!-- Node12 -->
<g id="node13" class="node">
<title>Node12</title>
<g id="a_node13"><a xlink:href="CenterPointOutLineIterator_8hpp.html" target="_top" xlink:title=" ">
<polygon fill="#ffffff" stroke="#000000" points="18.9591,-168.5 18.9591,-187.5 185.9591,-187.5 185.9591,-168.5 18.9591,-168.5"/>
<text text-anchor="middle" x="102.4591" y="-175.5" font-family="Helvetica,sans-Serif" font-size="10.00" fill="#000000">CenterPointOutLineIterator.hpp</text>
</a>
</g>
</g>
<!-- Node1&#45;&gt;Node12 -->
<g id="edge17" class="edge">
<title>Node1&#45;&gt;Node12</title>
<path fill="none" stroke="#191970" d="M452.2051,-290.0856C400.7913,-282.8961 312.8477,-268.2054 240.4591,-244 199.4541,-230.2887 154.7911,-207.3239 127.7069,-192.4207"/>
<polygon fill="#191970" stroke="#191970" points="129.3344,-189.3209 118.8948,-187.5138 125.9289,-195.4367 129.3344,-189.3209"/>
</g>
<!-- Node13 -->
<g id="node14" class="node">
<title>Node13</title>
<g id="a_node14"><a xlink:href="HelperStructs_8hpp.html" target="_top" xlink:title=" ">
<polygon fill="#ffffff" stroke="#000000" points="443.4591,-224.5 443.4591,-243.5 547.4591,-243.5 547.4591,-224.5 443.4591,-224.5"/>
<text text-anchor="middle" x="495.4591" y="-231.5" font-family="Helvetica,sans-Serif" font-size="10.00" fill="#000000">HelperStructs.hpp</text>
</a>
</g>
</g>
<!-- Node1&#45;&gt;Node13 -->
<g id="edge19" class="edge">
<title>Node1&#45;&gt;Node13</title>
<path fill="none" stroke="#191970" d="M495.4591,-285.8906C495.4591,-277.3657 495.4591,-264.6392 495.4591,-253.9235"/>
<polygon fill="#191970" stroke="#191970" points="498.9592,-253.7448 495.4591,-243.7449 491.9592,-253.7449 498.9592,-253.7448"/>
</g>
<!-- Node14 -->
<g id="node15" class="node">
<title>Node14</title>
<g id="a_node15"><a xlink:href="Line_8hpp.html" target="_top" xlink:title=" ">
<polygon fill="#ffffff" stroke="#000000" points="503.4591,-168.5 503.4591,-187.5 561.4591,-187.5 561.4591,-168.5 503.4591,-168.5"/>
<text text-anchor="middle" x="532.4591" y="-175.5" font-family="Helvetica,sans-Serif" font-size="10.00" fill="#000000">Line.hpp</text>
</a>
</g>
</g>
<!-- Node1&#45;&gt;Node14 -->
<g id="edge40" class="edge">
<title>Node1&#45;&gt;Node14</title>
<path fill="none" stroke="#191970" d="M513.9614,-285.8461C528.5227,-277.1028 547.7598,-262.7295 556.4591,-244 563.8036,-228.1873 555.4543,-209.4466 546.6524,-195.983"/>
<polygon fill="#191970" stroke="#191970" points="549.3319,-193.7123 540.6738,-187.6059 543.6341,-197.7788 549.3319,-193.7123"/>
</g>
<!-- Node15 -->
<g id="node16" class="node">
<title>Node15</title>
<g id="a_node16"><a xlink:href="Matrix_8hpp.html" target="_top" xlink:title=" ">
<polygon fill="#ffffff" stroke="#000000" points="542.4591,-112.5 542.4591,-131.5 610.4591,-131.5 610.4591,-112.5 542.4591,-112.5"/>
<text text-anchor="middle" x="576.4591" y="-119.5" font-family="Helvetica,sans-Serif" font-size="10.00" fill="#000000">Matrix.hpp</text>
</a>
</g>
</g>
<!-- Node1&#45;&gt;Node15 -->
<g id="edge41" class="edge">
<title>Node1&#45;&gt;Node15</title>
<path fill="none" stroke="#191970" d="M538.5318,-288.1606C582.9101,-279.6175 647.6397,-264.0782 662.4591,-244 690.4298,-206.1038 635.331,-160.5208 601.0203,-137.2692"/>
<polygon fill="#191970" stroke="#191970" points="602.6717,-134.1661 592.3943,-131.5922 598.8234,-140.0134 602.6717,-134.1661"/>
</g>
<!-- Node17 -->
<g id="node18" class="node">
<title>Node17</title>
<g id="a_node18"><a xlink:title=" ">
<polygon fill="#ffffff" stroke="#bfbfbf" points="733.4591,-.5 733.4591,-19.5 797.4591,-19.5 797.4591,-.5 733.4591,-.5"/>
<text text-anchor="middle" x="765.4591" y="-7.5" font-family="Helvetica,sans-Serif" font-size="10.00" fill="#000000">algorithm</text>
</a>
</g>
</g>
<!-- Node1&#45;&gt;Node17 -->
<g id="edge42" class="edge">
<title>Node1&#45;&gt;Node17</title>
<path fill="none" stroke="#191970" d="M538.5611,-292.1097C581.9492,-287.0522 649.4338,-274.5714 699.4591,-244 732.78,-223.637 757.4591,-217.0505 757.4591,-178 757.4591,-178 757.4591,-178 757.4591,-122 757.4591,-89.6293 760.8251,-52.1294 763.1904,-29.7743"/>
<polygon fill="#191970" stroke="#191970" points="766.6981,-29.8948 764.3129,-19.5719 759.7401,-29.1291 766.6981,-29.8948"/>
</g>
<!-- Node1&#45;&gt;Node23 -->
<g id="edge44" class="edge">
<title>Node1&#45;&gt;Node23</title>
<path fill="none" stroke="#191970" d="M538.7189,-288.861C587.0015,-280.5454 660.8178,-264.8222 679.4591,-244 704.763,-215.7356 704.6597,-168.3438 702.1707,-141.7103"/>
<polygon fill="#191970" stroke="#191970" points="705.6377,-141.2212 701.025,-131.6831 698.6829,-142.0158 705.6377,-141.2212"/>
</g>
<!-- Node24 -->
<g id="node25" class="node">
<title>Node24</title>
<g id="a_node25"><a xlink:title=" ">
<polygon fill="#ffffff" stroke="#bfbfbf" points="353.4591,-168.5 353.4591,-187.5 409.4591,-187.5 409.4591,-168.5 353.4591,-168.5"/>
<text text-anchor="middle" x="381.4591" y="-175.5" font-family="Helvetica,sans-Serif" font-size="10.00" fill="#000000">optional</text>
</a>
</g>
</g>
<!-- Node1&#45;&gt;Node24 -->
<g id="edge46" class="edge">
<title>Node1&#45;&gt;Node24</title>
<path fill="none" stroke="#191970" d="M452.1951,-288.4626C406.7476,-280.0833 339.7631,-264.5921 324.4591,-244 310.7884,-225.6055 333.2147,-205.888 353.829,-192.8437"/>
<polygon fill="#191970" stroke="#191970" points="355.6615,-195.826 362.4422,-187.6852 352.0648,-189.8206 355.6615,-195.826"/>
</g>
<!-- Node25 -->
<g id="node26" class="node">
<title>Node25</title>
<g id="a_node26"><a xlink:title=" ">
<polygon fill="#ffffff" stroke="#bfbfbf" points="603.4591,-224.5 603.4591,-243.5 653.4591,-243.5 653.4591,-224.5 603.4591,-224.5"/>
<text text-anchor="middle" x="628.4591" y="-231.5" font-family="Helvetica,sans-Serif" font-size="10.00" fill="#000000">cstdint</text>
</a>
</g>
</g>
<!-- Node1&#45;&gt;Node25 -->
<g id="edge43" class="edge">
<title>Node1&#45;&gt;Node25</title>
<path fill="none" stroke="#191970" d="M516.2404,-285.8906C538.2985,-275.6908 573.3641,-259.4763 598.426,-247.8875"/>
<polygon fill="#191970" stroke="#191970" points="600.2162,-250.9158 607.8238,-243.5419 597.2782,-244.5622 600.2162,-250.9158"/>
</g>
<!-- Node4 -->
<g id="node5" class="node">
<title>Node4</title>
<g id="a_node5"><a xlink:title=" ">
<polygon fill="#ffffff" stroke="#bfbfbf" points="318.4591,-56.5 318.4591,-75.5 360.4591,-75.5 360.4591,-56.5 318.4591,-56.5"/>
<text text-anchor="middle" x="339.4591" y="-63.5" font-family="Helvetica,sans-Serif" font-size="10.00" fill="#000000">array</text>
</a>
</g>
</g>
<!-- Node3&#45;&gt;Node4 -->
<g id="edge4" class="edge">
<title>Node3&#45;&gt;Node4</title>
<path fill="none" stroke="#191970" d="M356.8012,-112.2455C354.0007,-104.7776 350.0501,-94.2427 346.6267,-85.1137"/>
<polygon fill="#191970" stroke="#191970" points="349.8636,-83.777 343.0751,-75.6427 343.3093,-86.2349 349.8636,-83.777"/>
</g>
<!-- Node5 -->
<g id="node6" class="node">
<title>Node5</title>
<g id="a_node6"><a xlink:title=" ">
<polygon fill="#ffffff" stroke="#bfbfbf" points="364.9591,-.5 364.9591,-19.5 411.9591,-19.5 411.9591,-.5 364.9591,-.5"/>
<text text-anchor="middle" x="388.4591" y="-7.5" font-family="Helvetica,sans-Serif" font-size="10.00" fill="#000000">cmath</text>
</a>
</g>
</g>
<!-- Node3&#45;&gt;Node5 -->
<g id="edge5" class="edge">
<title>Node3&#45;&gt;Node5</title>
<path fill="none" stroke="#191970" d="M362.8464,-112.4509C367.4338,-94.1013 377.5614,-53.5908 383.6168,-29.3693"/>
<polygon fill="#191970" stroke="#191970" points="387.048,-30.0752 386.0779,-19.5249 380.257,-28.3774 387.048,-30.0752"/>
</g>
<!-- Node3&#45;&gt;Node6 -->
<g id="edge6" class="edge">
<title>Node3&#45;&gt;Node6</title>
<path fill="none" stroke="#191970" d="M333.6417,-112.3733C306.6791,-102.6944 265.1076,-87.7712 236.4425,-77.4812"/>
<polygon fill="#191970" stroke="#191970" points="237.4811,-74.1354 226.8866,-74.0509 235.116,-80.7238 237.4811,-74.1354"/>
</g>
<!-- Node7 -->
<g id="node8" class="node">
<title>Node7</title>
<g id="a_node8"><a xlink:title=" ">
<polygon fill="#ffffff" stroke="#bfbfbf" points="416.9591,-56.5 416.9591,-75.5 473.9591,-75.5 473.9591,-56.5 416.9591,-56.5"/>
<text text-anchor="middle" x="445.4591" y="-63.5" font-family="Helvetica,sans-Serif" font-size="10.00" fill="#000000">ostream</text>
</a>
</g>
</g>
<!-- Node3&#45;&gt;Node7 -->
<g id="edge7" class="edge">
<title>Node3&#45;&gt;Node7</title>
<path fill="none" stroke="#191970" d="M375.265,-112.2455C388.1847,-103.7337 407.1522,-91.2375 422.1143,-81.3801"/>
<polygon fill="#191970" stroke="#191970" points="424.3978,-84.067 430.8229,-75.6427 420.5467,-78.2216 424.3978,-84.067"/>
</g>
<!-- Node8 -->
<g id="node9" class="node">
<title>Node8</title>
<g id="a_node9"><a xlink:href="uint_8hpp.html" target="_top" xlink:title=" ">
<polygon fill="#ffffff" stroke="#000000" points="244.4591,-56.5 244.4591,-75.5 300.4591,-75.5 300.4591,-56.5 244.4591,-56.5"/>
<text text-anchor="middle" x="272.4591" y="-63.5" font-family="Helvetica,sans-Serif" font-size="10.00" fill="#000000">uint.hpp</text>
</a>
</g>
</g>
<!-- Node3&#45;&gt;Node8 -->
<g id="edge8" class="edge">
<title>Node3&#45;&gt;Node8</title>
<path fill="none" stroke="#191970" d="M345.1307,-112.2455C331.6288,-103.6534 311.7469,-91.0014 296.1905,-81.1018"/>
<polygon fill="#191970" stroke="#191970" points="297.9276,-78.0587 287.6119,-75.6427 294.1694,-83.9643 297.9276,-78.0587"/>
</g>
<!-- Node9&#45;&gt;Node3 -->
<g id="edge10" class="edge">
<title>Node9&#45;&gt;Node3</title>
<path fill="none" stroke="#191970" d="M269.6196,-168.2455C286.9702,-159.4125 312.7492,-146.2887 332.4174,-136.2758"/>
<polygon fill="#191970" stroke="#191970" points="334.1944,-139.2986 341.5181,-131.6427 331.0186,-133.0605 334.1944,-139.2986"/>
</g>
<!-- Node9&#45;&gt;Node5 -->
<g id="edge14" class="edge">
<title>Node9&#45;&gt;Node5</title>
<path fill="none" stroke="#191970" d="M236.0458,-168.3126C206.0309,-146.9785 142.1182,-94.7557 173.4591,-56 195.8485,-28.3136 299.7895,-16.5505 354.5282,-12.2062"/>
<polygon fill="#191970" stroke="#191970" points="355.0724,-15.6752 364.7811,-11.4337 354.5464,-8.6949 355.0724,-15.6752"/>
</g>
<!-- Node9&#45;&gt;Node6 -->
<g id="edge15" class="edge">
<title>Node9&#45;&gt;Node6</title>
<path fill="none" stroke="#191970" d="M246.5372,-168.4509C238.9668,-150.0186 222.2124,-109.2254 212.2803,-85.043"/>
<polygon fill="#191970" stroke="#191970" points="215.4079,-83.4454 208.3711,-75.5249 208.9328,-86.1048 215.4079,-83.4454"/>
</g>
<!-- Node10 -->
<g id="node11" class="node">
<title>Node10</title>
<g id="a_node11"><a xlink:href="Pixel_8hpp.html" target="_top" xlink:title=" ">
<polygon fill="#ffffff" stroke="#000000" points="414.4591,-112.5 414.4591,-131.5 476.4591,-131.5 476.4591,-112.5 414.4591,-112.5"/>
<text text-anchor="middle" x="445.4591" y="-119.5" font-family="Helvetica,sans-Serif" font-size="10.00" fill="#000000">Pixel.hpp</text>
</a>
</g>
</g>
<!-- Node9&#45;&gt;Node10 -->
<g id="edge11" class="edge">
<title>Node9&#45;&gt;Node10</title>
<path fill="none" stroke="#191970" d="M283.9808,-168.3733C317.4247,-158.7689 368.8495,-144.0007 404.6495,-133.7197"/>
<polygon fill="#191970" stroke="#191970" points="405.6593,-137.0712 414.3047,-130.9469 403.727,-130.3432 405.6593,-137.0712"/>
</g>
<!-- Node11 -->
<g id="node12" class="node">
<title>Node11</title>
<g id="a_node12"><a xlink:title=" ">
<polygon fill="#ffffff" stroke="#bfbfbf" points="253.4591,-112.5 253.4591,-131.5 309.4591,-131.5 309.4591,-112.5 253.4591,-112.5"/>
<text text-anchor="middle" x="281.4591" y="-119.5" font-family="Helvetica,sans-Serif" font-size="10.00" fill="#000000">sstream</text>
</a>
</g>
</g>
<!-- Node9&#45;&gt;Node11 -->
<g id="edge16" class="edge">
<title>Node9&#45;&gt;Node11</title>
<path fill="none" stroke="#191970" d="M255.8589,-168.2455C260.0818,-160.617 266.0764,-149.7881 271.2032,-140.5267"/>
<polygon fill="#191970" stroke="#191970" points="274.3401,-142.0867 276.1212,-131.6427 268.2159,-138.6965 274.3401,-142.0867"/>
</g>
<!-- Node10&#45;&gt;Node7 -->
<g id="edge13" class="edge">
<title>Node10&#45;&gt;Node7</title>
<path fill="none" stroke="#191970" d="M445.4591,-112.2455C445.4591,-104.9382 445.4591,-94.6944 445.4591,-85.7046"/>
<polygon fill="#191970" stroke="#191970" points="448.9592,-85.6426 445.4591,-75.6427 441.9592,-85.6427 448.9592,-85.6426"/>
</g>
<!-- Node10&#45;&gt;Node8 -->
<g id="edge12" class="edge">
<title>Node10&#45;&gt;Node8</title>
<path fill="none" stroke="#191970" d="M415.7193,-112.3733C386.6034,-102.9484 342.126,-88.5511 310.4604,-78.301"/>
<polygon fill="#191970" stroke="#191970" points="311.2571,-74.8801 300.6652,-75.1303 309.1013,-81.5399 311.2571,-74.8801"/>
</g>
<!-- Node12&#45;&gt;Node8 -->
<g id="edge18" class="edge">
<title>Node12&#45;&gt;Node8</title>
<path fill="none" stroke="#191970" d="M116.9532,-168.4509C146.4363,-149.0268 213.6113,-104.7703 249.2518,-81.2895"/>
<polygon fill="#191970" stroke="#191970" points="251.5766,-83.9492 258.0017,-75.5249 247.7255,-78.1038 251.5766,-83.9492"/>
</g>
<!-- Node13&#45;&gt;Node3 -->
<g id="edge20" class="edge">
<title>Node13&#45;&gt;Node3</title>
<path fill="none" stroke="#191970" d="M484.6044,-224.4682C469.796,-211.517 442.3668,-187.7148 418.4591,-168 406.1329,-157.8356 392.1013,-146.6958 380.927,-137.9248"/>
<polygon fill="#191970" stroke="#191970" points="383.0473,-135.1397 373.0145,-131.7346 378.734,-140.653 383.0473,-135.1397"/>
</g>
<!-- Node13&#45;&gt;Node10 -->
<g id="edge38" class="edge">
<title>Node13&#45;&gt;Node10</title>
<path fill="none" stroke="#191970" d="M491.1961,-224.4509C482.9305,-205.936 464.5926,-164.8591 453.8157,-140.7187"/>
<polygon fill="#191970" stroke="#191970" points="456.9838,-139.2295 449.7113,-131.5249 450.5919,-142.0831 456.9838,-139.2295"/>
</g>
<!-- Node13&#45;&gt;Node14 -->
<g id="edge21" class="edge">
<title>Node13&#45;&gt;Node14</title>
<path fill="none" stroke="#191970" d="M501.904,-224.2455C506.9973,-216.5367 514.2499,-205.5598 520.4111,-196.2348"/>
<polygon fill="#191970" stroke="#191970" points="523.4956,-197.9155 526.0881,-187.6427 517.6553,-194.0566 523.4956,-197.9155"/>
</g>
<!-- Node13&#45;&gt;Node24 -->
<g id="edge39" class="edge">
<title>Node13&#45;&gt;Node24</title>
<path fill="none" stroke="#191970" d="M475.8618,-224.3733C457.726,-215.4644 430.5456,-202.1127 410.0004,-192.0203"/>
<polygon fill="#191970" stroke="#191970" points="411.3194,-188.7688 400.8007,-187.5011 408.233,-195.0517 411.3194,-188.7688"/>
</g>
<!-- Node14&#45;&gt;Node3 -->
<g id="edge22" class="edge">
<title>Node14&#45;&gt;Node3</title>
<path fill="none" stroke="#191970" d="M503.2817,-168.5004C474.7417,-159.2083 431.0897,-144.996 399.5572,-134.7296"/>
<polygon fill="#191970" stroke="#191970" points="400.372,-131.3141 389.7797,-131.5462 398.2048,-137.9702 400.372,-131.3141"/>
</g>
<!-- Node14&#45;&gt;Node7 -->
<g id="edge36" class="edge">
<title>Node14&#45;&gt;Node7</title>
<path fill="none" stroke="#191970" d="M526.0469,-168.3898C517.2497,-155.3498 500.7803,-131.4473 485.4591,-112 477.7165,-102.1723 468.5948,-91.6117 461.0188,-83.0909"/>
<polygon fill="#191970" stroke="#191970" points="463.6102,-80.7382 454.3243,-75.637 458.4022,-85.4156 463.6102,-80.7382"/>
</g>
<!-- Node14&#45;&gt;Node10 -->
<g id="edge35" class="edge">
<title>Node14&#45;&gt;Node10</title>
<path fill="none" stroke="#191970" d="M517.3049,-168.2455C503.9564,-159.6534 484.3005,-147.0014 468.9208,-137.1018"/>
<polygon fill="#191970" stroke="#191970" points="470.7427,-134.1121 460.4397,-131.6427 466.954,-139.9982 470.7427,-134.1121"/>
</g>
<!-- Node14&#45;&gt;Node15 -->
<g id="edge23" class="edge">
<title>Node14&#45;&gt;Node15</title>
<path fill="none" stroke="#191970" d="M540.1233,-168.2455C546.3064,-160.3761 555.1655,-149.101 562.588,-139.6542"/>
<polygon fill="#191970" stroke="#191970" points="565.4566,-141.6683 568.8827,-131.6427 559.9523,-137.3435 565.4566,-141.6683"/>
</g>
<!-- Node14&#45;&gt;Node23 -->
<g id="edge37" class="edge">
<title>Node14&#45;&gt;Node23</title>
<path fill="none" stroke="#191970" d="M561.1674,-168.3733C588.8168,-159.1016 630.8167,-145.0178 661.2757,-134.804"/>
<polygon fill="#191970" stroke="#191970" points="662.757,-137.9989 671.1254,-131.5011 660.5315,-131.3621 662.757,-137.9989"/>
</g>
<!-- Node15&#45;&gt;Node5 -->
<g id="edge32" class="edge">
<title>Node15&#45;&gt;Node5</title>
<path fill="none" stroke="#191970" d="M576.5019,-112.4488C576.0286,-98.1338 572.9684,-71.1789 557.4591,-56 514.955,-14.4012 484.6858,-34.8104 422.1194,-19.8996"/>
<polygon fill="#191970" stroke="#191970" points="422.7828,-16.4555 412.2225,-17.3109 421.0113,-23.2276 422.7828,-16.4555"/>
</g>
<!-- Node15&#45;&gt;Node7 -->
<g id="edge34" class="edge">
<title>Node15&#45;&gt;Node7</title>
<path fill="none" stroke="#191970" d="M553.9394,-112.3733C532.7219,-103.3032 500.7315,-89.6279 476.9822,-79.4755"/>
<polygon fill="#191970" stroke="#191970" points="478.2558,-76.2136 467.6849,-75.5011 475.5043,-82.6502 478.2558,-76.2136"/>
</g>
<!-- Node16 -->
<g id="node17" class="node">
<title>Node16</title>
<g id="a_node17"><a xlink:href="Array_8hpp.html" target="_top" xlink:title=" ">
<polygon fill="#ffffff" stroke="#000000" points="604.4591,-56.5 604.4591,-75.5 666.4591,-75.5 666.4591,-56.5 604.4591,-56.5"/>
<text text-anchor="middle" x="635.4591" y="-63.5" font-family="Helvetica,sans-Serif" font-size="10.00" fill="#000000">Array.hpp</text>
</a>
</g>
</g>
<!-- Node15&#45;&gt;Node16 -->
<g id="edge24" class="edge">
<title>Node15&#45;&gt;Node16</title>
<path fill="none" stroke="#191970" d="M586.7361,-112.2455C595.2809,-104.1352 607.6369,-92.4075 617.7676,-82.7919"/>
<polygon fill="#191970" stroke="#191970" points="620.4563,-85.0655 625.2999,-75.6427 615.6373,-79.9884 620.4563,-85.0655"/>
</g>
<!-- Node15&#45;&gt;Node17 -->
<g id="edge31" class="edge">
<title>Node15&#45;&gt;Node17</title>
<path fill="none" stroke="#191970" d="M600.3276,-112.4819C620.8065,-103.9499 650.8234,-90.5625 675.4591,-76 701.1175,-60.833 728.4364,-40.0628 746.1558,-25.8996"/>
<polygon fill="#191970" stroke="#191970" points="748.4575,-28.5395 754.0339,-19.531 744.0568,-23.0958 748.4575,-28.5395"/>
</g>
<!-- Node22 -->
<g id="node23" class="node">
<title>Node22</title>
<g id="a_node23"><a xlink:title=" ">
<polygon fill="#ffffff" stroke="#bfbfbf" points="492.4591,-56.5 492.4591,-75.5 548.4591,-75.5 548.4591,-56.5 492.4591,-56.5"/>
<text text-anchor="middle" x="520.4591" y="-63.5" font-family="Helvetica,sans-Serif" font-size="10.00" fill="#000000">iomanip</text>
</a>
</g>
</g>
<!-- Node15&#45;&gt;Node22 -->
<g id="edge33" class="edge">
<title>Node15&#45;&gt;Node22</title>
<path fill="none" stroke="#191970" d="M566.7047,-112.2455C558.5943,-104.1352 546.8666,-92.4075 537.251,-82.7919"/>
<polygon fill="#191970" stroke="#191970" points="539.6478,-80.2389 530.1018,-75.6427 534.698,-85.1887 539.6478,-80.2389"/>
</g>
<!-- Node16&#45;&gt;Node5 -->
<g id="edge26" class="edge">
<title>Node16&#45;&gt;Node5</title>
<path fill="none" stroke="#191970" d="M603.9956,-58.9712C599.455,-57.9676 594.8383,-56.953 590.4591,-56 518.4968,-40.3399 497.5291,-39.2218 422.1618,-20.0168"/>
<polygon fill="#191970" stroke="#191970" points="422.7413,-16.552 412.1847,-17.4508 420.9977,-23.3314 422.7413,-16.552"/>
</g>
<!-- Node16&#45;&gt;Node17 -->
<g id="edge25" class="edge">
<title>Node16&#45;&gt;Node17</title>
<path fill="none" stroke="#191970" d="M657.8069,-56.3733C678.8624,-47.3032 710.6087,-33.6279 734.1766,-23.4755"/>
<polygon fill="#191970" stroke="#191970" points="735.6035,-26.6719 743.4029,-19.5011 732.8341,-20.243 735.6035,-26.6719"/>
</g>
<!-- Node18 -->
<g id="node19" class="node">
<title>Node18</title>
<g id="a_node19"><a xlink:title=" ">
<polygon fill="#ffffff" stroke="#bfbfbf" points="429.9591,-.5 429.9591,-19.5 482.9591,-19.5 482.9591,-.5 429.9591,-.5"/>
<text text-anchor="middle" x="456.4591" y="-7.5" font-family="Helvetica,sans-Serif" font-size="10.00" fill="#000000">cstddef</text>
</a>
</g>
</g>
<!-- Node16&#45;&gt;Node18 -->
<g id="edge27" class="edge">
<title>Node16&#45;&gt;Node18</title>
<path fill="none" stroke="#191970" d="M604.6879,-56.3733C573.6164,-46.6526 525.6372,-31.6423 492.7329,-21.3482"/>
<polygon fill="#191970" stroke="#191970" points="493.6295,-17.9615 483.0406,-18.316 491.5394,-24.6422 493.6295,-17.9615"/>
</g>
<!-- Node19 -->
<g id="node20" class="node">
<title>Node19</title>
<g id="a_node20"><a xlink:title=" ">
<polygon fill="#ffffff" stroke="#bfbfbf" points="501.4591,-.5 501.4591,-19.5 557.4591,-19.5 557.4591,-.5 501.4591,-.5"/>
<text text-anchor="middle" x="529.4591" y="-7.5" font-family="Helvetica,sans-Serif" font-size="10.00" fill="#000000">numeric</text>
</a>
</g>
</g>
<!-- Node16&#45;&gt;Node19 -->
<g id="edge28" class="edge">
<title>Node16&#45;&gt;Node19</title>
<path fill="none" stroke="#191970" d="M616.9953,-56.2455C600.3517,-47.4527 575.6598,-34.4079 556.7399,-24.4125"/>
<polygon fill="#191970" stroke="#191970" points="558.1882,-21.2193 547.7113,-19.6427 554.9183,-27.4086 558.1882,-21.2193"/>
</g>
<!-- Node20 -->
<g id="node21" class="node">
<title>Node20</title>
<g id="a_node21"><a xlink:title=" ">
<polygon fill="#ffffff" stroke="#bfbfbf" points="575.9591,-.5 575.9591,-19.5 644.9591,-19.5 644.9591,-.5 575.9591,-.5"/>
<text text-anchor="middle" x="610.4591" y="-7.5" font-family="Helvetica,sans-Serif" font-size="10.00" fill="#000000">type_traits</text>
</a>
</g>
</g>
<!-- Node16&#45;&gt;Node20 -->
<g id="edge29" class="edge">
<title>Node16&#45;&gt;Node20</title>
<path fill="none" stroke="#191970" d="M631.1044,-56.2455C627.7347,-48.6973 622.9661,-38.0158 618.8608,-28.8197"/>
<polygon fill="#191970" stroke="#191970" points="622.0364,-27.3473 614.7639,-19.6427 615.6445,-30.2009 622.0364,-27.3473"/>
</g>
<!-- Node21 -->
<g id="node22" class="node">
<title>Node21</title>
<g id="a_node22"><a xlink:title=" ">
<polygon fill="#ffffff" stroke="#bfbfbf" points="663.4591,-.5 663.4591,-19.5 715.4591,-19.5 715.4591,-.5 663.4591,-.5"/>
<text text-anchor="middle" x="689.4591" y="-7.5" font-family="Helvetica,sans-Serif" font-size="10.00" fill="#000000">cassert</text>
</a>
</g>
</g>
<!-- Node16&#45;&gt;Node21 -->
<g id="edge30" class="edge">
<title>Node16&#45;&gt;Node21</title>
<path fill="none" stroke="#191970" d="M644.8652,-56.2455C652.6084,-48.2155 663.7711,-36.6394 672.9909,-27.0781"/>
<polygon fill="#191970" stroke="#191970" points="675.7389,-29.2706 680.1608,-19.6427 670.7,-24.4117 675.7389,-29.2706"/>
</g>
</g>
</svg>
