<?xml version="1.0" encoding="UTF-8" standalone="no"?>
<!DOCTYPE svg PUBLIC "-//W3C//DTD SVG 1.1//EN"
 "http://www.w3.org/Graphics/SVG/1.1/DTD/svg11.dtd">
<!-- Generated by graphviz version 2.40.1 (20161225.0304)
 -->
<!-- Title: /home/pieter/GitHub/EAGLE&#45;ZYBO&#45;Linux/src/location&#45;finder/include/LocationTracker.hpp Pages: 1 -->
<svg width="574pt" height="285pt"
 viewBox="0.00 0.00 574.00 285.00" xmlns="http://www.w3.org/2000/svg" xmlns:xlink="http://www.w3.org/1999/xlink">
<g id="graph0" class="graph" transform="scale(1 1) rotate(0) translate(4 281)">
<title>/home/pieter/GitHub/EAGLE&#45;ZYBO&#45;Linux/src/location&#45;finder/include/LocationTracker.hpp</title>
<polygon fill="#ffffff" stroke="transparent" points="-4,4 -4,-281 570,-281 570,4 -4,4"/>
<!-- Node0 -->
<g id="node1" class="node">
<title>Node0</title>
<g id="a_node1"><a xlink:title=" ">
<polygon fill="#bfbfbf" stroke="#000000" points="208.5,-224.5 208.5,-276.5 337.5,-276.5 337.5,-224.5 208.5,-224.5"/>
<text text-anchor="start" x="216.5" y="-264.5" font-family="Helvetica,sans-Serif" font-size="10.00" fill="#000000">/home/pieter/GitHub</text>
<text text-anchor="start" x="216.5" y="-253.5" font-family="Helvetica,sans-Serif" font-size="10.00" fill="#000000">/EAGLE&#45;ZYBO&#45;Linux/src</text>
<text text-anchor="start" x="216.5" y="-242.5" font-family="Helvetica,sans-Serif" font-size="10.00" fill="#000000">/location&#45;finder/include</text>
<text text-anchor="middle" x="273" y="-231.5" font-family="Helvetica,sans-Serif" font-size="10.00" fill="#000000">/LocationTracker.hpp</text>
</a>
</g>
</g>
<!-- Node1 -->
<g id="node2" class="node">
<title>Node1</title>
<g id="a_node2"><a xlink:href="Line_8hpp.html" target="_top" xlink:title=" ">
<polygon fill="#ffffff" stroke="#000000" points="244,-168.5 244,-187.5 302,-187.5 302,-168.5 244,-168.5"/>
<text text-anchor="middle" x="273" y="-175.5" font-family="Helvetica,sans-Serif" font-size="10.00" fill="#000000">Line.hpp</text>
</a>
</g>
</g>
<!-- Node0&#45;&gt;Node1 -->
<g id="edge1" class="edge">
<title>Node0&#45;&gt;Node1</title>
<path fill="none" stroke="#191970" d="M273,-224.3258C273,-215.5142 273,-205.8397 273,-197.621"/>
<polygon fill="#191970" stroke="#191970" points="276.5001,-197.534 273,-187.534 269.5001,-197.534 276.5001,-197.534"/>
</g>
<!-- Node2 -->
<g id="node3" class="node">
<title>Node2</title>
<g id="a_node3"><a xlink:href="Angle_8hpp.html" target="_top" xlink:title=" ">
<polygon fill="#ffffff" stroke="#000000" points="99.5,-112.5 99.5,-131.5 164.5,-131.5 164.5,-112.5 99.5,-112.5"/>
<text text-anchor="middle" x="132" y="-119.5" font-family="Helvetica,sans-Serif" font-size="10.00" fill="#000000">Angle.hpp</text>
</a>
</g>
</g>
<!-- Node1&#45;&gt;Node2 -->
<g id="edge2" class="edge">
<title>Node1&#45;&gt;Node2</title>
<path fill="none" stroke="#191970" d="M248.7612,-168.3733C225.7211,-159.2226 190.8786,-145.3844 165.2499,-135.2057"/>
<polygon fill="#191970" stroke="#191970" points="166.5082,-131.9395 155.9225,-131.5011 163.9244,-138.4452 166.5082,-131.9395"/>
</g>
<!-- Node6 -->
<g id="node7" class="node">
<title>Node6</title>
<g id="a_node7"><a xlink:title=" ">
<polygon fill="#ffffff" stroke="#bfbfbf" points="234.5,-56.5 234.5,-75.5 291.5,-75.5 291.5,-56.5 234.5,-56.5"/>
<text text-anchor="middle" x="263" y="-63.5" font-family="Helvetica,sans-Serif" font-size="10.00" fill="#000000">ostream</text>
</a>
</g>
</g>
<!-- Node1&#45;&gt;Node6 -->
<g id="edge23" class="edge">
<title>Node1&#45;&gt;Node6</title>
<path fill="none" stroke="#191970" d="M272.1474,-168.4509C270.5164,-150.184 266.9246,-109.9553 264.7587,-85.6976"/>
<polygon fill="#191970" stroke="#191970" points="268.226,-85.174 263.8504,-75.5249 261.2537,-85.7966 268.226,-85.174"/>
</g>
<!-- Node8 -->
<g id="node9" class="node">
<title>Node8</title>
<g id="a_node9"><a xlink:href="Matrix_8hpp.html" target="_top" xlink:title=" ">
<polygon fill="#ffffff" stroke="#000000" points="301,-112.5 301,-131.5 369,-131.5 369,-112.5 301,-112.5"/>
<text text-anchor="middle" x="335" y="-119.5" font-family="Helvetica,sans-Serif" font-size="10.00" fill="#000000">Matrix.hpp</text>
</a>
</g>
</g>
<!-- Node1&#45;&gt;Node8 -->
<g id="edge8" class="edge">
<title>Node1&#45;&gt;Node8</title>
<path fill="none" stroke="#191970" d="M283.7996,-168.2455C292.8678,-160.0549 306.0206,-148.1749 316.7245,-138.5069"/>
<polygon fill="#191970" stroke="#191970" points="319.2491,-140.9429 324.3242,-131.6427 314.5571,-135.7482 319.2491,-140.9429"/>
</g>
<!-- Node16 -->
<g id="node17" class="node">
<title>Node16</title>
<g id="a_node17"><a xlink:href="Pixel_8hpp.html" target="_top" xlink:title=" ">
<polygon fill="#ffffff" stroke="#000000" points="183,-112.5 183,-131.5 245,-131.5 245,-112.5 183,-112.5"/>
<text text-anchor="middle" x="214" y="-119.5" font-family="Helvetica,sans-Serif" font-size="10.00" fill="#000000">Pixel.hpp</text>
</a>
</g>
</g>
<!-- Node1&#45;&gt;Node16 -->
<g id="edge20" class="edge">
<title>Node1&#45;&gt;Node16</title>
<path fill="none" stroke="#191970" d="M262.723,-168.2455C254.1782,-160.1352 241.8222,-148.4075 231.6915,-138.7919"/>
<polygon fill="#191970" stroke="#191970" points="233.8218,-135.9884 224.1592,-131.6427 229.0028,-141.0655 233.8218,-135.9884"/>
</g>
<!-- Node17 -->
<g id="node18" class="node">
<title>Node17</title>
<g id="a_node18"><a xlink:title=" ">
<polygon fill="#ffffff" stroke="#bfbfbf" points="387,-112.5 387,-131.5 447,-131.5 447,-112.5 387,-112.5"/>
<text text-anchor="middle" x="417" y="-119.5" font-family="Helvetica,sans-Serif" font-size="10.00" fill="#000000">iostream</text>
</a>
</g>
</g>
<!-- Node1&#45;&gt;Node17 -->
<g id="edge24" class="edge">
<title>Node1&#45;&gt;Node17</title>
<path fill="none" stroke="#191970" d="M297.7545,-168.3733C321.2849,-159.2226 356.8687,-145.3844 383.0426,-135.2057"/>
<polygon fill="#191970" stroke="#191970" points="384.5171,-138.3877 392.5685,-131.5011 381.9799,-131.8636 384.5171,-138.3877"/>
</g>
<!-- Node3 -->
<g id="node4" class="node">
<title>Node3</title>
<g id="a_node4"><a xlink:title=" ">
<polygon fill="#ffffff" stroke="#bfbfbf" points="0,-56.5 0,-75.5 42,-75.5 42,-56.5 0,-56.5"/>
<text text-anchor="middle" x="21" y="-63.5" font-family="Helvetica,sans-Serif" font-size="10.00" fill="#000000">array</text>
</a>
</g>
</g>
<!-- Node2&#45;&gt;Node3 -->
<g id="edge3" class="edge">
<title>Node2&#45;&gt;Node3</title>
<path fill="none" stroke="#191970" d="M112.9184,-112.3733C95.2598,-103.4644 68.7947,-90.1127 48.7902,-80.0203"/>
<polygon fill="#191970" stroke="#191970" points="50.3372,-76.8806 39.8326,-75.5011 47.1842,-83.1303 50.3372,-76.8806"/>
</g>
<!-- Node4 -->
<g id="node5" class="node">
<title>Node4</title>
<g id="a_node5"><a xlink:title=" ">
<polygon fill="#ffffff" stroke="#bfbfbf" points="133.5,-.5 133.5,-19.5 180.5,-19.5 180.5,-.5 133.5,-.5"/>
<text text-anchor="middle" x="157" y="-7.5" font-family="Helvetica,sans-Serif" font-size="10.00" fill="#000000">cmath</text>
</a>
</g>
</g>
<!-- Node2&#45;&gt;Node4 -->
<g id="edge4" class="edge">
<title>Node2&#45;&gt;Node4</title>
<path fill="none" stroke="#191970" d="M134.1315,-112.4509C138.2274,-94.1013 147.2699,-53.5908 152.6765,-29.3693"/>
<polygon fill="#191970" stroke="#191970" points="156.1112,-30.0472 154.8739,-19.5249 149.2794,-28.5222 156.1112,-30.0472"/>
</g>
<!-- Node5 -->
<g id="node6" class="node">
<title>Node5</title>
<g id="a_node6"><a xlink:title=" ">
<polygon fill="#ffffff" stroke="#bfbfbf" points="60,-56.5 60,-75.5 104,-75.5 104,-56.5 60,-56.5"/>
<text text-anchor="middle" x="82" y="-63.5" font-family="Helvetica,sans-Serif" font-size="10.00" fill="#000000">limits</text>
</a>
</g>
</g>
<!-- Node2&#45;&gt;Node5 -->
<g id="edge5" class="edge">
<title>Node2&#45;&gt;Node5</title>
<path fill="none" stroke="#191970" d="M123.2907,-112.2455C116.1927,-104.2958 105.9916,-92.8706 97.505,-83.3656"/>
<polygon fill="#191970" stroke="#191970" points="99.8805,-80.771 90.6095,-75.6427 94.6589,-85.4331 99.8805,-80.771"/>
</g>
<!-- Node2&#45;&gt;Node6 -->
<g id="edge6" class="edge">
<title>Node2&#45;&gt;Node6</title>
<path fill="none" stroke="#191970" d="M154.5197,-112.3733C175.7372,-103.3032 207.7276,-89.6279 231.4769,-79.4755"/>
<polygon fill="#191970" stroke="#191970" points="232.9548,-82.6502 240.7742,-75.5011 230.2033,-76.2136 232.9548,-82.6502"/>
</g>
<!-- Node7 -->
<g id="node8" class="node">
<title>Node7</title>
<g id="a_node8"><a xlink:href="uint_8hpp.html" target="_top" xlink:title=" ">
<polygon fill="#ffffff" stroke="#000000" points="160,-56.5 160,-75.5 216,-75.5 216,-56.5 160,-56.5"/>
<text text-anchor="middle" x="188" y="-63.5" font-family="Helvetica,sans-Serif" font-size="10.00" fill="#000000">uint.hpp</text>
</a>
</g>
</g>
<!-- Node2&#45;&gt;Node7 -->
<g id="edge7" class="edge">
<title>Node2&#45;&gt;Node7</title>
<path fill="none" stroke="#191970" d="M141.7545,-112.2455C149.8648,-104.1352 161.5925,-92.4075 171.2081,-82.7919"/>
<polygon fill="#191970" stroke="#191970" points="173.7611,-85.1887 178.3573,-75.6427 168.8113,-80.2389 173.7611,-85.1887"/>
</g>
<!-- Node8&#45;&gt;Node4 -->
<g id="edge17" class="edge">
<title>Node8&#45;&gt;Node4</title>
<path fill="none" stroke="#191970" d="M332.4535,-112.4432C328.1521,-98.1208 318.0965,-71.1564 300,-56 298.9039,-55.082 232.1531,-33.8192 190.2481,-20.5272"/>
<polygon fill="#191970" stroke="#191970" points="191.2855,-17.1845 180.6953,-17.4986 189.17,-23.8571 191.2855,-17.1845"/>
</g>
<!-- Node8&#45;&gt;Node6 -->
<g id="edge19" class="edge">
<title>Node8&#45;&gt;Node6</title>
<path fill="none" stroke="#191970" d="M322.4586,-112.2455C311.7213,-103.8943 296.0527,-91.7076 283.4953,-81.9408"/>
<polygon fill="#191970" stroke="#191970" points="285.4401,-79.0194 275.3977,-75.6427 281.1425,-84.5449 285.4401,-79.0194"/>
</g>
<!-- Node9 -->
<g id="node10" class="node">
<title>Node9</title>
<g id="a_node10"><a xlink:href="Array_8hpp.html" target="_top" xlink:title=" ">
<polygon fill="#ffffff" stroke="#000000" points="348,-56.5 348,-75.5 410,-75.5 410,-56.5 348,-56.5"/>
<text text-anchor="middle" x="379" y="-63.5" font-family="Helvetica,sans-Serif" font-size="10.00" fill="#000000">Array.hpp</text>
</a>
</g>
</g>
<!-- Node8&#45;&gt;Node9 -->
<g id="edge9" class="edge">
<title>Node8&#45;&gt;Node9</title>
<path fill="none" stroke="#191970" d="M342.6642,-112.2455C348.8473,-104.3761 357.7063,-93.101 365.1289,-83.6542"/>
<polygon fill="#191970" stroke="#191970" points="367.9975,-85.6683 371.4236,-75.6427 362.4932,-81.3435 367.9975,-85.6683"/>
</g>
<!-- Node10 -->
<g id="node11" class="node">
<title>Node10</title>
<g id="a_node11"><a xlink:title=" ">
<polygon fill="#ffffff" stroke="#bfbfbf" points="502,-.5 502,-19.5 566,-19.5 566,-.5 502,-.5"/>
<text text-anchor="middle" x="534" y="-7.5" font-family="Helvetica,sans-Serif" font-size="10.00" fill="#000000">algorithm</text>
</a>
</g>
</g>
<!-- Node8&#45;&gt;Node10 -->
<g id="edge16" class="edge">
<title>Node8&#45;&gt;Node10</title>
<path fill="none" stroke="#191970" d="M369.0819,-113.4627C412.4641,-102.3841 483.0145,-83.5771 493,-76 508.8903,-63.9422 520.1032,-43.7926 526.7404,-28.9228"/>
<polygon fill="#191970" stroke="#191970" points="529.9942,-30.2132 530.6055,-19.636 523.5316,-27.5234 529.9942,-30.2132"/>
</g>
<!-- Node15 -->
<g id="node16" class="node">
<title>Node15</title>
<g id="a_node16"><a xlink:title=" ">
<polygon fill="#ffffff" stroke="#bfbfbf" points="428,-56.5 428,-75.5 484,-75.5 484,-56.5 428,-56.5"/>
<text text-anchor="middle" x="456" y="-63.5" font-family="Helvetica,sans-Serif" font-size="10.00" fill="#000000">iomanip</text>
</a>
</g>
</g>
<!-- Node8&#45;&gt;Node15 -->
<g id="edge18" class="edge">
<title>Node8&#45;&gt;Node15</title>
<path fill="none" stroke="#191970" d="M355.8006,-112.3733C375.2243,-103.3838 404.4224,-89.8706 426.2964,-79.7471"/>
<polygon fill="#191970" stroke="#191970" points="427.8656,-82.8776 435.4708,-75.5011 424.9255,-76.5249 427.8656,-82.8776"/>
</g>
<!-- Node9&#45;&gt;Node4 -->
<g id="edge11" class="edge">
<title>Node9&#45;&gt;Node4</title>
<path fill="none" stroke="#191970" d="M347.9048,-59.1283C312.0618,-51.0641 251.1878,-36.9307 190.4565,-20.2916"/>
<polygon fill="#191970" stroke="#191970" points="191.2855,-16.8896 180.7145,-17.6002 189.4214,-23.6368 191.2855,-16.8896"/>
</g>
<!-- Node9&#45;&gt;Node10 -->
<g id="edge10" class="edge">
<title>Node9&#45;&gt;Node10</title>
<path fill="none" stroke="#191970" d="M405.6454,-56.3733C431.1964,-47.1419 469.9512,-33.1402 498.1909,-22.9375"/>
<polygon fill="#191970" stroke="#191970" points="499.4865,-26.1909 507.7022,-19.5011 497.1079,-19.6074 499.4865,-26.1909"/>
</g>
<!-- Node11 -->
<g id="node12" class="node">
<title>Node11</title>
<g id="a_node12"><a xlink:title=" ">
<polygon fill="#ffffff" stroke="#bfbfbf" points="198.5,-.5 198.5,-19.5 251.5,-19.5 251.5,-.5 198.5,-.5"/>
<text text-anchor="middle" x="225" y="-7.5" font-family="Helvetica,sans-Serif" font-size="10.00" fill="#000000">cstddef</text>
</a>
</g>
</g>
<!-- Node9&#45;&gt;Node11 -->
<g id="edge12" class="edge">
<title>Node9&#45;&gt;Node11</title>
<path fill="none" stroke="#191970" d="M352.5265,-56.3733C327.1403,-47.1419 288.6355,-33.1402 260.578,-22.9375"/>
<polygon fill="#191970" stroke="#191970" points="261.7222,-19.6293 251.1281,-19.5011 259.3299,-26.2079 261.7222,-19.6293"/>
</g>
<!-- Node12 -->
<g id="node13" class="node">
<title>Node12</title>
<g id="a_node13"><a xlink:title=" ">
<polygon fill="#ffffff" stroke="#bfbfbf" points="270,-.5 270,-19.5 326,-19.5 326,-.5 270,-.5"/>
<text text-anchor="middle" x="298" y="-7.5" font-family="Helvetica,sans-Serif" font-size="10.00" fill="#000000">numeric</text>
</a>
</g>
</g>
<!-- Node9&#45;&gt;Node12 -->
<g id="edge13" class="edge">
<title>Node9&#45;&gt;Node12</title>
<path fill="none" stroke="#191970" d="M364.8909,-56.2455C352.5791,-47.7337 334.5042,-35.2375 320.2462,-25.3801"/>
<polygon fill="#191970" stroke="#191970" points="322.1634,-22.4506 311.9474,-19.6427 318.1826,-28.2085 322.1634,-22.4506"/>
</g>
<!-- Node13 -->
<g id="node14" class="node">
<title>Node13</title>
<g id="a_node14"><a xlink:title=" ">
<polygon fill="#ffffff" stroke="#bfbfbf" points="344.5,-.5 344.5,-19.5 413.5,-19.5 413.5,-.5 344.5,-.5"/>
<text text-anchor="middle" x="379" y="-7.5" font-family="Helvetica,sans-Serif" font-size="10.00" fill="#000000">type_traits</text>
</a>
</g>
</g>
<!-- Node9&#45;&gt;Node13 -->
<g id="edge14" class="edge">
<title>Node9&#45;&gt;Node13</title>
<path fill="none" stroke="#191970" d="M379,-56.2455C379,-48.9382 379,-38.6944 379,-29.7046"/>
<polygon fill="#191970" stroke="#191970" points="382.5001,-29.6426 379,-19.6427 375.5001,-29.6427 382.5001,-29.6426"/>
</g>
<!-- Node14 -->
<g id="node15" class="node">
<title>Node14</title>
<g id="a_node15"><a xlink:title=" ">
<polygon fill="#ffffff" stroke="#bfbfbf" points="432,-.5 432,-19.5 484,-19.5 484,-.5 432,-.5"/>
<text text-anchor="middle" x="458" y="-7.5" font-family="Helvetica,sans-Serif" font-size="10.00" fill="#000000">cassert</text>
</a>
</g>
</g>
<!-- Node9&#45;&gt;Node14 -->
<g id="edge15" class="edge">
<title>Node9&#45;&gt;Node14</title>
<path fill="none" stroke="#191970" d="M392.7607,-56.2455C404.6552,-47.814 422.065,-35.4729 435.9085,-25.6598"/>
<polygon fill="#191970" stroke="#191970" points="438.2628,-28.2811 444.3969,-19.6427 434.2146,-22.5704 438.2628,-28.2811"/>
</g>
<!-- Node16&#45;&gt;Node6 -->
<g id="edge22" class="edge">
<title>Node16&#45;&gt;Node6</title>
<path fill="none" stroke="#191970" d="M222.5351,-112.2455C229.4912,-104.2958 239.4883,-92.8706 247.8051,-83.3656"/>
<polygon fill="#191970" stroke="#191970" points="250.6116,-85.4732 254.5627,-75.6427 245.3436,-80.8637 250.6116,-85.4732"/>
</g>
<!-- Node16&#45;&gt;Node7 -->
<g id="edge21" class="edge">
<title>Node16&#45;&gt;Node7</title>
<path fill="none" stroke="#191970" d="M209.4711,-112.2455C205.9666,-104.6973 201.0073,-94.0158 196.7377,-84.8197"/>
<polygon fill="#191970" stroke="#191970" points="199.8627,-83.2389 192.477,-75.6427 193.5136,-86.1867 199.8627,-83.2389"/>
</g>
</g>
</svg>
