<?xml version="1.0" encoding="UTF-8" standalone="no"?>
<!DOCTYPE svg PUBLIC "-//W3C//DTD SVG 1.1//EN"
 "http://www.w3.org/Graphics/SVG/1.1/DTD/svg11.dtd">
<!-- Generated by graphviz version 2.40.1 (20161225.0304)
 -->
<!-- Title: /home/pieter/GitHub/EAGLE&#45;ZYBO&#45;Linux/src/location&#45;finder/src/LocationFinder.cpp Pages: 1 -->
<svg width="452pt" height="128pt"
 viewBox="0.00 0.00 451.50 128.00" xmlns="http://www.w3.org/2000/svg" xmlns:xlink="http://www.w3.org/1999/xlink">
<g id="graph0" class="graph" transform="scale(1 1) rotate(0) translate(4 124)">
<title>/home/pieter/GitHub/EAGLE&#45;ZYBO&#45;Linux/src/location&#45;finder/src/LocationFinder.cpp</title>
<polygon fill="#ffffff" stroke="transparent" points="-4,4 -4,-124 447.5,-124 447.5,4 -4,4"/>
<!-- Node0 -->
<g id="node1" class="node">
<title>Node0</title>
<g id="a_node1"><a xlink:title=" ">
<polygon fill="#bfbfbf" stroke="#000000" points="132.5,-67.5 132.5,-119.5 284.5,-119.5 284.5,-67.5 132.5,-67.5"/>
<text text-anchor="start" x="140.5" y="-107.5" font-family="Helvetica,sans-Serif" font-size="10.00" fill="#000000">/home/pieter/GitHub</text>
<text text-anchor="start" x="140.5" y="-96.5" font-family="Helvetica,sans-Serif" font-size="10.00" fill="#000000">/EAGLE&#45;ZYBO&#45;Linux/src</text>
<text text-anchor="start" x="140.5" y="-85.5" font-family="Helvetica,sans-Serif" font-size="10.00" fill="#000000">/location&#45;finder/src/Location</text>
<text text-anchor="middle" x="208.5" y="-74.5" font-family="Helvetica,sans-Serif" font-size="10.00" fill="#000000">Finder.cpp</text>
</a>
</g>
</g>
<!-- Node1 -->
<g id="node2" class="node">
<title>Node1</title>
<g id="a_node2"><a xlink:href="LocationFinder_8hpp.html" target="_top" xlink:title=" ">
<polygon fill="#ffffff" stroke="#000000" points="0,-6 0,-25 107,-25 107,-6 0,-6"/>
<text text-anchor="middle" x="53.5" y="-13" font-family="Helvetica,sans-Serif" font-size="10.00" fill="#000000">LocationFinder.hpp</text>
</a>
</g>
</g>
<!-- Node0&#45;&gt;Node1 -->
<g id="edge1" class="edge">
<title>Node0&#45;&gt;Node1</title>
<path fill="none" stroke="#191970" d="M156.4561,-67.3101C131.4405,-54.7217 102.4443,-40.13 81.6108,-29.6461"/>
<polygon fill="#191970" stroke="#191970" points="83.1627,-26.5089 72.6566,-25.1401 80.016,-32.7618 83.1627,-26.5089"/>
</g>
<!-- Node2 -->
<g id="node3" class="node">
<title>Node2</title>
<g id="a_node3"><a xlink:title=" ">
<polygon fill="#ffffff" stroke="#bfbfbf" points="125.5,-6 125.5,-25 185.5,-25 185.5,-6 125.5,-6"/>
<text text-anchor="middle" x="155.5" y="-13" font-family="Helvetica,sans-Serif" font-size="10.00" fill="#000000">iostream</text>
</a>
</g>
</g>
<!-- Node0&#45;&gt;Node2 -->
<g id="edge2" class="edge">
<title>Node0&#45;&gt;Node2</title>
<path fill="none" stroke="#191970" d="M190.5566,-67.0928C183.0152,-55.994 174.438,-43.371 167.6554,-33.389"/>
<polygon fill="#191970" stroke="#191970" points="170.5273,-31.388 162.0121,-25.0839 164.7374,-35.3222 170.5273,-31.388"/>
</g>
<!-- Node3 -->
<g id="node4" class="node">
<title>Node3</title>
<g id="a_node4"><a xlink:title=" ">
<polygon fill="#ffffff" stroke="#bfbfbf" points="203.5,-6 203.5,-25 319.5,-25 319.5,-6 203.5,-6"/>
<text text-anchor="middle" x="261.5" y="-13" font-family="Helvetica,sans-Serif" font-size="10.00" fill="#000000">opencv2/opencv.hpp</text>
</a>
</g>
</g>
<!-- Node0&#45;&gt;Node3 -->
<g id="edge3" class="edge">
<title>Node0&#45;&gt;Node3</title>
<path fill="none" stroke="#191970" d="M226.4434,-67.0928C233.9848,-55.994 242.562,-43.371 249.3446,-33.389"/>
<polygon fill="#191970" stroke="#191970" points="252.2626,-35.3222 254.9879,-25.0839 246.4727,-31.388 252.2626,-35.3222"/>
</g>
<!-- Node4 -->
<g id="node5" class="node">
<title>Node4</title>
<g id="a_node5"><a xlink:title=" ">
<polygon fill="#ffffff" stroke="#bfbfbf" points="337.5,-.5 337.5,-30.5 443.5,-30.5 443.5,-.5 337.5,-.5"/>
<text text-anchor="start" x="345.5" y="-18.5" font-family="Helvetica,sans-Serif" font-size="10.00" fill="#000000">opencv2/core/utils</text>
<text text-anchor="middle" x="390.5" y="-7.5" font-family="Helvetica,sans-Serif" font-size="10.00" fill="#000000">/logger.hpp</text>
</a>
</g>
</g>
<!-- Node0&#45;&gt;Node4 -->
<g id="edge4" class="edge">
<title>Node0&#45;&gt;Node4</title>
<path fill="none" stroke="#191970" d="M269.3564,-67.4187C294.5146,-56.6366 323.1381,-44.3694 346.243,-34.4673"/>
<polygon fill="#191970" stroke="#191970" points="347.6426,-37.6754 355.4553,-30.5192 344.8851,-31.2414 347.6426,-37.6754"/>
</g>
</g>
</svg>
