<?xml version="1.0" encoding="UTF-8" standalone="no"?>
<!DOCTYPE svg PUBLIC "-//W3C//DTD SVG 1.1//EN"
 "http://www.w3.org/Graphics/SVG/1.1/DTD/svg11.dtd">
<!-- Generated by graphviz version 2.40.1 (20161225.0304)
 -->
<!-- Title: /home/pieter/GitHub/Crypto/src/location&#45;finder/include/LocationFinder.hpp Pages: 1 -->
<svg width="188pt" height="128pt"
 viewBox="0.00 0.00 188.00 128.00" xmlns="http://www.w3.org/2000/svg" xmlns:xlink="http://www.w3.org/1999/xlink">
<g id="graph0" class="graph" transform="scale(1 1) rotate(0) translate(4 124)">
<title>/home/pieter/GitHub/Crypto/src/location&#45;finder/include/LocationFinder.hpp</title>
<polygon fill="#ffffff" stroke="transparent" points="-4,4 -4,-124 184,-124 184,4 -4,4"/>
<!-- Node1 -->
<g id="node1" class="node">
<title>Node1</title>
<g id="a_node1"><a xlink:title=" ">
<polygon fill="#bfbfbf" stroke="#000000" points="0,-78.5 0,-119.5 180,-119.5 180,-78.5 0,-78.5"/>
<text text-anchor="start" x="8" y="-107.5" font-family="Helvetica,sans-Serif" font-size="10.00" fill="#000000">/home/pieter/GitHub</text>
<text text-anchor="start" x="8" y="-96.5" font-family="Helvetica,sans-Serif" font-size="10.00" fill="#000000">/Crypto/src/location</text>
<text text-anchor="middle" x="90" y="-85.5" font-family="Helvetica,sans-Serif" font-size="10.00" fill="#000000">&#45;finder/include/LocationFinder.hpp</text>
</a>
</g>
</g>
<!-- Node2 -->
<g id="node2" class="node">
<title>Node2</title>
<g id="a_node2"><a xlink:href="LocationFinder_8cpp.html" target="_top" xlink:title=" ">
<polygon fill="#ffffff" stroke="#000000" points="11,-.5 11,-41.5 169,-41.5 169,-.5 11,-.5"/>
<text text-anchor="start" x="19" y="-29.5" font-family="Helvetica,sans-Serif" font-size="10.00" fill="#000000">/home/pieter/GitHub</text>
<text text-anchor="start" x="19" y="-18.5" font-family="Helvetica,sans-Serif" font-size="10.00" fill="#000000">/Crypto/src/location</text>
<text text-anchor="middle" x="90" y="-7.5" font-family="Helvetica,sans-Serif" font-size="10.00" fill="#000000">&#45;finder/src/LocationFinder.cpp</text>
</a>
</g>
</g>
<!-- Node1&#45;&gt;Node2 -->
<g id="edge1" class="edge">
<title>Node1&#45;&gt;Node2</title>
<path fill="none" stroke="#191970" d="M90,-68.0789C90,-59.2178 90,-49.7747 90,-41.6898"/>
<polygon fill="#191970" stroke="#191970" points="86.5001,-68.0974 90,-78.0974 93.5001,-68.0975 86.5001,-68.0974"/>
</g>
</g>
</svg>
