<?xml version="1.0" encoding="UTF-8" standalone="no"?>
<!DOCTYPE svg PUBLIC "-//W3C//DTD SVG 1.1//EN"
 "http://www.w3.org/Graphics/SVG/1.1/DTD/svg11.dtd">
<!-- Generated by graphviz version 2.40.1 (20161225.0304)
 -->
<!-- Title: /home/pieter/GitHub/EAGLE&#45;ZYBO&#45;Linux/src/location&#45;finder/include/LocationFinder.hpp Pages: 1 -->
<svg width="640pt" height="341pt"
 viewBox="0.00 0.00 640.10 341.00" xmlns="http://www.w3.org/2000/svg" xmlns:xlink="http://www.w3.org/1999/xlink">
<g id="graph0" class="graph" transform="scale(1 1) rotate(0) translate(4 337)">
<title>/home/pieter/GitHub/EAGLE&#45;ZYBO&#45;Linux/src/location&#45;finder/include/LocationFinder.hpp</title>
<polygon fill="#ffffff" stroke="transparent" points="-4,4 -4,-337 636.1,-337 636.1,4 -4,4"/>
<!-- Node0 -->
<g id="node1" class="node">
<title>Node0</title>
<g id="a_node1"><a xlink:title=" ">
<polygon fill="#bfbfbf" stroke="#000000" points="108.1,-280.5 108.1,-332.5 237.1,-332.5 237.1,-280.5 108.1,-280.5"/>
<text text-anchor="start" x="116.1" y="-320.5" font-family="Helvetica,sans-Serif" font-size="10.00" fill="#000000">/home/pieter/GitHub</text>
<text text-anchor="start" x="116.1" y="-309.5" font-family="Helvetica,sans-Serif" font-size="10.00" fill="#000000">/EAGLE&#45;ZYBO&#45;Linux/src</text>
<text text-anchor="start" x="116.1" y="-298.5" font-family="Helvetica,sans-Serif" font-size="10.00" fill="#000000">/location&#45;finder/include</text>
<text text-anchor="middle" x="172.6" y="-287.5" font-family="Helvetica,sans-Serif" font-size="10.00" fill="#000000">/LocationFinder.hpp</text>
</a>
</g>
</g>
<!-- Node1 -->
<g id="node2" class="node">
<title>Node1</title>
<g id="a_node2"><a xlink:href="AngleTracker_8hpp.html" target="_top" xlink:title=" ">
<polygon fill="#ffffff" stroke="#000000" points="2.6,-224.5 2.6,-243.5 102.6,-243.5 102.6,-224.5 2.6,-224.5"/>
<text text-anchor="middle" x="52.6" y="-231.5" font-family="Helvetica,sans-Serif" font-size="10.00" fill="#000000">AngleTracker.hpp</text>
</a>
</g>
</g>
<!-- Node0&#45;&gt;Node1 -->
<g id="edge1" class="edge">
<title>Node0&#45;&gt;Node1</title>
<path fill="none" stroke="#191970" d="M129.2773,-280.3258C111.7092,-269.7118 92.0689,-257.8458 77.0641,-248.7804"/>
<polygon fill="#191970" stroke="#191970" points="78.7495,-245.7095 68.3804,-243.534 75.1297,-251.7009 78.7495,-245.7095"/>
</g>
<!-- Node9 -->
<g id="node10" class="node">
<title>Node9</title>
<g id="a_node10"><a xlink:href="HelperStructs_8hpp.html" target="_top" xlink:title=" ">
<polygon fill="#ffffff" stroke="#000000" points="120.6,-224.5 120.6,-243.5 224.6,-243.5 224.6,-224.5 120.6,-224.5"/>
<text text-anchor="middle" x="172.6" y="-231.5" font-family="Helvetica,sans-Serif" font-size="10.00" fill="#000000">HelperStructs.hpp</text>
</a>
</g>
</g>
<!-- Node0&#45;&gt;Node9 -->
<g id="edge10" class="edge">
<title>Node0&#45;&gt;Node9</title>
<path fill="none" stroke="#191970" d="M172.6,-280.3258C172.6,-271.5142 172.6,-261.8397 172.6,-253.621"/>
<polygon fill="#191970" stroke="#191970" points="176.1001,-253.534 172.6,-243.534 169.1001,-253.534 176.1001,-253.534"/>
</g>
<!-- Node25 -->
<g id="node26" class="node">
<title>Node25</title>
<g id="a_node26"><a xlink:title=" ">
<polygon fill="#ffffff" stroke="#bfbfbf" points="242.6,-224.5 242.6,-243.5 360.6,-243.5 360.6,-224.5 242.6,-224.5"/>
<text text-anchor="middle" x="301.6" y="-231.5" font-family="Helvetica,sans-Serif" font-size="10.00" fill="#000000">opencv2/videoio.hpp</text>
</a>
</g>
</g>
<!-- Node0&#45;&gt;Node25 -->
<g id="edge38" class="edge">
<title>Node0&#45;&gt;Node25</title>
<path fill="none" stroke="#191970" d="M219.172,-280.3258C238.2359,-269.6116 259.5695,-257.6218 275.7563,-248.5246"/>
<polygon fill="#191970" stroke="#191970" points="277.6333,-251.4846 284.6361,-243.534 274.2037,-245.3823 277.6333,-251.4846"/>
</g>
<!-- Node2 -->
<g id="node3" class="node">
<title>Node2</title>
<g id="a_node3"><a xlink:href="Angle_8hpp.html" target="_top" xlink:title=" ">
<polygon fill="#ffffff" stroke="#000000" points="99.1,-112.5 99.1,-131.5 164.1,-131.5 164.1,-112.5 99.1,-112.5"/>
<text text-anchor="middle" x="131.6" y="-119.5" font-family="Helvetica,sans-Serif" font-size="10.00" fill="#000000">Angle.hpp</text>
</a>
</g>
</g>
<!-- Node1&#45;&gt;Node2 -->
<g id="edge2" class="edge">
<title>Node1&#45;&gt;Node2</title>
<path fill="none" stroke="#191970" d="M39.4163,-224.3905C23.1726,-211.3513 -.7338,-187.4496 12.6,-168 21.6862,-154.7463 58.7011,-141.7392 89.0664,-132.957"/>
<polygon fill="#191970" stroke="#191970" points="90.3806,-136.2232 99.0594,-130.1463 88.4852,-129.4847 90.3806,-136.2232"/>
</g>
<!-- Node8 -->
<g id="node9" class="node">
<title>Node8</title>
<g id="a_node9"><a xlink:href="Degrees_8hpp.html" target="_top" xlink:title=" ">
<polygon fill="#ffffff" stroke="#000000" points="21.6,-168.5 21.6,-187.5 99.6,-187.5 99.6,-168.5 21.6,-168.5"/>
<text text-anchor="middle" x="60.6" y="-175.5" font-family="Helvetica,sans-Serif" font-size="10.00" fill="#000000">Degrees.hpp</text>
</a>
</g>
</g>
<!-- Node1&#45;&gt;Node8 -->
<g id="edge8" class="edge">
<title>Node1&#45;&gt;Node8</title>
<path fill="none" stroke="#191970" d="M53.9935,-224.2455C55.0374,-216.9382 56.5008,-206.6944 57.7851,-197.7046"/>
<polygon fill="#191970" stroke="#191970" points="61.273,-198.0372 59.2225,-187.6427 54.3434,-197.0472 61.273,-198.0372"/>
</g>
<!-- Node3 -->
<g id="node4" class="node">
<title>Node3</title>
<g id="a_node4"><a xlink:title=" ">
<polygon fill="#ffffff" stroke="#bfbfbf" points="190.6,-56.5 190.6,-75.5 232.6,-75.5 232.6,-56.5 190.6,-56.5"/>
<text text-anchor="middle" x="211.6" y="-63.5" font-family="Helvetica,sans-Serif" font-size="10.00" fill="#000000">array</text>
</a>
</g>
</g>
<!-- Node2&#45;&gt;Node3 -->
<g id="edge3" class="edge">
<title>Node2&#45;&gt;Node3</title>
<path fill="none" stroke="#191970" d="M145.535,-112.2455C157.6947,-103.7337 175.5465,-91.2375 189.6285,-81.3801"/>
<polygon fill="#191970" stroke="#191970" points="191.6396,-84.2447 197.8248,-75.6427 187.6253,-78.51 191.6396,-84.2447"/>
</g>
<!-- Node4 -->
<g id="node5" class="node">
<title>Node4</title>
<g id="a_node5"><a xlink:title=" ">
<polygon fill="#ffffff" stroke="#bfbfbf" points="90.1,-.5 90.1,-19.5 137.1,-19.5 137.1,-.5 90.1,-.5"/>
<text text-anchor="middle" x="113.6" y="-7.5" font-family="Helvetica,sans-Serif" font-size="10.00" fill="#000000">cmath</text>
</a>
</g>
</g>
<!-- Node2&#45;&gt;Node4 -->
<g id="edge4" class="edge">
<title>Node2&#45;&gt;Node4</title>
<path fill="none" stroke="#191970" d="M124.7792,-112.328C118.9175,-103.3825 110.9034,-89.4728 107.6,-76 103.8327,-60.6349 105.8432,-42.7352 108.5118,-29.4562"/>
<polygon fill="#191970" stroke="#191970" points="111.9605,-30.0763 110.7957,-19.5457 105.1393,-28.5043 111.9605,-30.0763"/>
</g>
<!-- Node5 -->
<g id="node6" class="node">
<title>Node5</title>
<g id="a_node6"><a xlink:title=" ">
<polygon fill="#ffffff" stroke="#bfbfbf" points="16.6,-56.5 16.6,-75.5 60.6,-75.5 60.6,-56.5 16.6,-56.5"/>
<text text-anchor="middle" x="38.6" y="-63.5" font-family="Helvetica,sans-Serif" font-size="10.00" fill="#000000">limits</text>
</a>
</g>
</g>
<!-- Node2&#45;&gt;Node5 -->
<g id="edge5" class="edge">
<title>Node2&#45;&gt;Node5</title>
<path fill="none" stroke="#191970" d="M115.4007,-112.2455C100.9982,-103.5731 79.7268,-90.7645 63.2201,-80.825"/>
<polygon fill="#191970" stroke="#191970" points="64.9861,-77.8028 54.6138,-75.6427 61.3751,-83.7996 64.9861,-77.8028"/>
</g>
<!-- Node6 -->
<g id="node7" class="node">
<title>Node6</title>
<g id="a_node7"><a xlink:title=" ">
<polygon fill="#ffffff" stroke="#bfbfbf" points="251.1,-56.5 251.1,-75.5 308.1,-75.5 308.1,-56.5 251.1,-56.5"/>
<text text-anchor="middle" x="279.6" y="-63.5" font-family="Helvetica,sans-Serif" font-size="10.00" fill="#000000">ostream</text>
</a>
</g>
</g>
<!-- Node2&#45;&gt;Node6 -->
<g id="edge6" class="edge">
<title>Node2&#45;&gt;Node6</title>
<path fill="none" stroke="#191970" d="M157.0421,-112.3733C181.3327,-103.1822 218.1208,-89.2624 245.0543,-79.0713"/>
<polygon fill="#191970" stroke="#191970" points="246.3757,-82.3136 254.4899,-75.5011 243.8984,-75.7666 246.3757,-82.3136"/>
</g>
<!-- Node7 -->
<g id="node8" class="node">
<title>Node7</title>
<g id="a_node8"><a xlink:href="uint_8hpp.html" target="_top" xlink:title=" ">
<polygon fill="#ffffff" stroke="#000000" points="116.6,-56.5 116.6,-75.5 172.6,-75.5 172.6,-56.5 116.6,-56.5"/>
<text text-anchor="middle" x="144.6" y="-63.5" font-family="Helvetica,sans-Serif" font-size="10.00" fill="#000000">uint.hpp</text>
</a>
</g>
</g>
<!-- Node2&#45;&gt;Node7 -->
<g id="edge7" class="edge">
<title>Node2&#45;&gt;Node7</title>
<path fill="none" stroke="#191970" d="M133.8645,-112.2455C135.5794,-104.8579 137.9912,-94.4689 140.0944,-85.4087"/>
<polygon fill="#191970" stroke="#191970" points="143.5095,-86.1751 142.3616,-75.6427 136.6908,-84.5922 143.5095,-86.1751"/>
</g>
<!-- Node8&#45;&gt;Node4 -->
<g id="edge9" class="edge">
<title>Node8&#45;&gt;Node4</title>
<path fill="none" stroke="#191970" d="M50.1381,-168.2631C28.3994,-146.8301 -17.6104,-94.4224 7.6,-56 23.4889,-31.7844 55.1702,-20.2517 79.7776,-14.7984"/>
<polygon fill="#191970" stroke="#191970" points="80.6916,-18.1856 89.8239,-12.8142 79.3352,-11.3182 80.6916,-18.1856"/>
</g>
<!-- Node9&#45;&gt;Node2 -->
<g id="edge11" class="edge">
<title>Node9&#45;&gt;Node2</title>
<path fill="none" stroke="#191970" d="M167.7062,-224.291C163.1797,-215.0903 156.4405,-200.8112 151.6,-188 145.7814,-172.5999 140.4435,-154.7027 136.7486,-141.4337"/>
<polygon fill="#191970" stroke="#191970" points="140.0577,-140.264 134.0567,-131.5326 133.3029,-142.1005 140.0577,-140.264"/>
</g>
<!-- Node9&#45;&gt;Node8 -->
<g id="edge12" class="edge">
<title>Node9&#45;&gt;Node8</title>
<path fill="none" stroke="#191970" d="M153.3465,-224.3733C135.5289,-215.4644 108.8254,-202.1127 88.6406,-192.0203"/>
<polygon fill="#191970" stroke="#191970" points="90.1118,-188.8428 79.6023,-187.5011 86.9813,-195.1038 90.1118,-188.8428"/>
</g>
<!-- Node10 -->
<g id="node11" class="node">
<title>Node10</title>
<g id="a_node11"><a xlink:href="Line_8hpp.html" target="_top" xlink:title=" ">
<polygon fill="#ffffff" stroke="#000000" points="333.6,-168.5 333.6,-187.5 391.6,-187.5 391.6,-168.5 333.6,-168.5"/>
<text text-anchor="middle" x="362.6" y="-175.5" font-family="Helvetica,sans-Serif" font-size="10.00" fill="#000000">Line.hpp</text>
</a>
</g>
</g>
<!-- Node9&#45;&gt;Node10 -->
<g id="edge13" class="edge">
<title>Node9&#45;&gt;Node10</title>
<path fill="none" stroke="#191970" d="M205.2622,-224.3733C238.0955,-214.6961 288.7154,-199.7765 323.6274,-189.4867"/>
<polygon fill="#191970" stroke="#191970" points="324.8723,-192.7687 333.4748,-186.5843 322.8932,-186.0543 324.8723,-192.7687"/>
</g>
<!-- Node21 -->
<g id="node22" class="node">
<title>Node21</title>
<g id="a_node22"><a xlink:href="Pixel_8hpp.html" target="_top" xlink:title=" ">
<polygon fill="#ffffff" stroke="#000000" points="198.6,-112.5 198.6,-131.5 260.6,-131.5 260.6,-112.5 198.6,-112.5"/>
<text text-anchor="middle" x="229.6" y="-119.5" font-family="Helvetica,sans-Serif" font-size="10.00" fill="#000000">Pixel.hpp</text>
</a>
</g>
</g>
<!-- Node9&#45;&gt;Node21 -->
<g id="edge35" class="edge">
<title>Node9&#45;&gt;Node21</title>
<path fill="none" stroke="#191970" d="M172.6119,-224.4811C172.9973,-211.13 175.08,-186.415 184.6,-168 190.4136,-156.7546 199.897,-146.452 208.6625,-138.4607"/>
<polygon fill="#191970" stroke="#191970" points="211.091,-140.9884 216.3848,-131.8109 206.5233,-135.684 211.091,-140.9884"/>
</g>
<!-- Node23 -->
<g id="node24" class="node">
<title>Node23</title>
<g id="a_node24"><a xlink:title=" ">
<polygon fill="#ffffff" stroke="#bfbfbf" points="193.6,-168.5 193.6,-187.5 249.6,-187.5 249.6,-168.5 193.6,-168.5"/>
<text text-anchor="middle" x="221.6" y="-175.5" font-family="Helvetica,sans-Serif" font-size="10.00" fill="#000000">optional</text>
</a>
</g>
</g>
<!-- Node9&#45;&gt;Node23 -->
<g id="edge36" class="edge">
<title>Node9&#45;&gt;Node23</title>
<path fill="none" stroke="#191970" d="M181.1352,-224.2455C188.0912,-216.2958 198.0883,-204.8706 206.4051,-195.3656"/>
<polygon fill="#191970" stroke="#191970" points="209.2116,-197.4732 213.1627,-187.6427 203.9436,-192.8637 209.2116,-197.4732"/>
</g>
<!-- Node24 -->
<g id="node25" class="node">
<title>Node24</title>
<g id="a_node25"><a xlink:title=" ">
<polygon fill="#ffffff" stroke="#bfbfbf" points="268.1,-168.5 268.1,-187.5 315.1,-187.5 315.1,-168.5 268.1,-168.5"/>
<text text-anchor="middle" x="291.6" y="-175.5" font-family="Helvetica,sans-Serif" font-size="10.00" fill="#000000">vector</text>
</a>
</g>
</g>
<!-- Node9&#45;&gt;Node24 -->
<g id="edge37" class="edge">
<title>Node9&#45;&gt;Node24</title>
<path fill="none" stroke="#191970" d="M193.0569,-224.3733C212.0738,-215.4241 240.6176,-201.9917 262.0976,-191.8835"/>
<polygon fill="#191970" stroke="#191970" points="263.8523,-194.926 271.4101,-187.5011 260.8716,-188.5923 263.8523,-194.926"/>
</g>
<!-- Node10&#45;&gt;Node2 -->
<g id="edge14" class="edge">
<title>Node10&#45;&gt;Node2</title>
<path fill="none" stroke="#191970" d="M333.2253,-170.4149C329.9793,-169.5926 326.7208,-168.7739 323.6,-168 272.293,-155.2769 213.1244,-141.1893 174.1858,-131.9985"/>
<polygon fill="#191970" stroke="#191970" points="174.788,-128.5446 164.2516,-129.6564 173.1816,-135.3578 174.788,-128.5446"/>
</g>
<!-- Node10&#45;&gt;Node6 -->
<g id="edge33" class="edge">
<title>Node10&#45;&gt;Node6</title>
<path fill="none" stroke="#191970" d="M352.4021,-168.3027C343.2614,-159.3402 329.7655,-145.4197 319.6,-132 308.1422,-116.8742 297.1196,-98.2846 289.5575,-84.6931"/>
<polygon fill="#191970" stroke="#191970" points="292.5678,-82.9028 284.7058,-75.8006 286.4229,-86.2554 292.5678,-82.9028"/>
</g>
<!-- Node11 -->
<g id="node12" class="node">
<title>Node11</title>
<g id="a_node12"><a xlink:href="Matrix_8hpp.html" target="_top" xlink:title=" ">
<polygon fill="#ffffff" stroke="#000000" points="328.6,-112.5 328.6,-131.5 396.6,-131.5 396.6,-112.5 328.6,-112.5"/>
<text text-anchor="middle" x="362.6" y="-119.5" font-family="Helvetica,sans-Serif" font-size="10.00" fill="#000000">Matrix.hpp</text>
</a>
</g>
</g>
<!-- Node10&#45;&gt;Node11 -->
<g id="edge15" class="edge">
<title>Node10&#45;&gt;Node11</title>
<path fill="none" stroke="#191970" d="M362.6,-168.2455C362.6,-160.9382 362.6,-150.6944 362.6,-141.7046"/>
<polygon fill="#191970" stroke="#191970" points="366.1001,-141.6426 362.6,-131.6427 359.1001,-141.6427 366.1001,-141.6426"/>
</g>
<!-- Node10&#45;&gt;Node21 -->
<g id="edge30" class="edge">
<title>Node10&#45;&gt;Node21</title>
<path fill="none" stroke="#191970" d="M339.7365,-168.3733C318.1951,-159.3032 285.7163,-145.6279 261.6044,-135.4755"/>
<polygon fill="#191970" stroke="#191970" points="262.7398,-132.156 252.1652,-131.5011 260.0233,-138.6075 262.7398,-132.156"/>
</g>
<!-- Node22 -->
<g id="node23" class="node">
<title>Node22</title>
<g id="a_node23"><a xlink:title=" ">
<polygon fill="#ffffff" stroke="#bfbfbf" points="414.6,-112.5 414.6,-131.5 474.6,-131.5 474.6,-112.5 414.6,-112.5"/>
<text text-anchor="middle" x="444.6" y="-119.5" font-family="Helvetica,sans-Serif" font-size="10.00" fill="#000000">iostream</text>
</a>
</g>
</g>
<!-- Node10&#45;&gt;Node22 -->
<g id="edge34" class="edge">
<title>Node10&#45;&gt;Node22</title>
<path fill="none" stroke="#191970" d="M376.8833,-168.2455C389.3471,-159.7337 407.6451,-147.2375 422.0792,-137.3801"/>
<polygon fill="#191970" stroke="#191970" points="424.1963,-140.1726 430.4804,-131.6427 420.2485,-134.392 424.1963,-140.1726"/>
</g>
<!-- Node11&#45;&gt;Node3 -->
<g id="edge24" class="edge">
<title>Node11&#45;&gt;Node3</title>
<path fill="none" stroke="#191970" d="M336.6422,-112.3733C310.5075,-102.6809 270.1929,-87.7298 242.4428,-77.4384"/>
<polygon fill="#191970" stroke="#191970" points="243.4301,-74.0716 232.8371,-73.876 240.996,-80.6348 243.4301,-74.0716"/>
</g>
<!-- Node11&#45;&gt;Node4 -->
<g id="edge25" class="edge">
<title>Node11&#45;&gt;Node4</title>
<path fill="none" stroke="#191970" d="M358.5772,-112.2021C352.0409,-97.5648 337.6872,-70.1946 316.6,-56 302.6534,-46.612 201.7129,-26.5652 147.6249,-16.3169"/>
<polygon fill="#191970" stroke="#191970" points="147.9468,-12.816 137.4716,-14.4039 146.6507,-19.695 147.9468,-12.816"/>
</g>
<!-- Node11&#45;&gt;Node6 -->
<g id="edge27" class="edge">
<title>Node11&#45;&gt;Node6</title>
<path fill="none" stroke="#191970" d="M348.1425,-112.2455C335.5268,-103.7337 317.0056,-91.2375 302.3955,-81.3801"/>
<polygon fill="#191970" stroke="#191970" points="304.1391,-78.3343 293.8918,-75.6427 300.2239,-84.1371 304.1391,-78.3343"/>
</g>
<!-- Node12 -->
<g id="node13" class="node">
<title>Node12</title>
<g id="a_node13"><a xlink:href="Array_8hpp.html" target="_top" xlink:title=" ">
<polygon fill="#ffffff" stroke="#000000" points="364.6,-56.5 364.6,-75.5 426.6,-75.5 426.6,-56.5 364.6,-56.5"/>
<text text-anchor="middle" x="395.6" y="-63.5" font-family="Helvetica,sans-Serif" font-size="10.00" fill="#000000">Array.hpp</text>
</a>
</g>
</g>
<!-- Node11&#45;&gt;Node12 -->
<g id="edge16" class="edge">
<title>Node11&#45;&gt;Node12</title>
<path fill="none" stroke="#191970" d="M368.3482,-112.2455C372.8436,-104.617 379.2249,-93.7881 384.6825,-84.5267"/>
<polygon fill="#191970" stroke="#191970" points="387.8562,-86.035 389.9177,-75.6427 381.8254,-82.4811 387.8562,-86.035"/>
</g>
<!-- Node13 -->
<g id="node14" class="node">
<title>Node13</title>
<g id="a_node14"><a xlink:title=" ">
<polygon fill="#ffffff" stroke="#bfbfbf" points="496.6,-.5 496.6,-19.5 560.6,-19.5 560.6,-.5 496.6,-.5"/>
<text text-anchor="middle" x="528.6" y="-7.5" font-family="Helvetica,sans-Serif" font-size="10.00" fill="#000000">algorithm</text>
</a>
</g>
</g>
<!-- Node11&#45;&gt;Node13 -->
<g id="edge23" class="edge">
<title>Node11&#45;&gt;Node13</title>
<path fill="none" stroke="#191970" d="M396.7426,-113.1432C437.5975,-102.2663 501.5398,-84.2476 509.6,-76 521.554,-63.7682 526.0771,-44.5235 527.7436,-29.9645"/>
<polygon fill="#191970" stroke="#191970" points="531.2372,-30.1833 528.537,-19.9384 524.259,-29.6311 531.2372,-30.1833"/>
</g>
<!-- Node18 -->
<g id="node19" class="node">
<title>Node18</title>
<g id="a_node19"><a xlink:title=" ">
<polygon fill="#ffffff" stroke="#bfbfbf" points="444.6,-56.5 444.6,-75.5 500.6,-75.5 500.6,-56.5 444.6,-56.5"/>
<text text-anchor="middle" x="472.6" y="-63.5" font-family="Helvetica,sans-Serif" font-size="10.00" fill="#000000">iomanip</text>
</a>
</g>
</g>
<!-- Node11&#45;&gt;Node18 -->
<g id="edge26" class="edge">
<title>Node11&#45;&gt;Node18</title>
<path fill="none" stroke="#191970" d="M381.7606,-112.2455C399.1111,-103.4125 424.8901,-90.2887 444.5583,-80.2758"/>
<polygon fill="#191970" stroke="#191970" points="446.3353,-83.2986 453.6591,-75.6427 443.1595,-77.0605 446.3353,-83.2986"/>
</g>
<!-- Node19 -->
<g id="node20" class="node">
<title>Node19</title>
<g id="a_node20"><a xlink:href="real__t_8h.html" target="_top" xlink:title=" ">
<polygon fill="#ffffff" stroke="#000000" points="568.1,-56.5 568.1,-75.5 621.1,-75.5 621.1,-56.5 568.1,-56.5"/>
<text text-anchor="middle" x="594.6" y="-63.5" font-family="Helvetica,sans-Serif" font-size="10.00" fill="#000000">real_t.h</text>
</a>
</g>
</g>
<!-- Node11&#45;&gt;Node19 -->
<g id="edge28" class="edge">
<title>Node11&#45;&gt;Node19</title>
<path fill="none" stroke="#191970" d="M396.8324,-113.737C439.9817,-103.3217 513.8428,-85.4931 558.0565,-74.8209"/>
<polygon fill="#191970" stroke="#191970" points="558.9208,-78.2128 567.8203,-72.4641 557.2782,-71.4083 558.9208,-78.2128"/>
</g>
<!-- Node12&#45;&gt;Node4 -->
<g id="edge18" class="edge">
<title>Node12&#45;&gt;Node4</title>
<path fill="none" stroke="#191970" d="M364.152,-58.8982C359.6091,-57.9053 354.9877,-56.9132 350.6,-56 278.2688,-40.9466 193.1824,-24.8145 147.1987,-16.2261"/>
<polygon fill="#191970" stroke="#191970" points="147.6613,-12.7521 137.1893,-14.3605 146.3787,-19.6336 147.6613,-12.7521"/>
</g>
<!-- Node12&#45;&gt;Node13 -->
<g id="edge17" class="edge">
<title>Node12&#45;&gt;Node13</title>
<path fill="none" stroke="#191970" d="M418.4635,-56.3733C440.005,-47.3032 472.4838,-33.6279 496.5956,-23.4755"/>
<polygon fill="#191970" stroke="#191970" points="498.1767,-26.6075 506.0349,-19.5011 495.4603,-20.156 498.1767,-26.6075"/>
</g>
<!-- Node14 -->
<g id="node15" class="node">
<title>Node14</title>
<g id="a_node15"><a xlink:title=" ">
<polygon fill="#ffffff" stroke="#bfbfbf" points="263.1,-.5 263.1,-19.5 316.1,-19.5 316.1,-.5 263.1,-.5"/>
<text text-anchor="middle" x="289.6" y="-7.5" font-family="Helvetica,sans-Serif" font-size="10.00" fill="#000000">cstddef</text>
</a>
</g>
</g>
<!-- Node12&#45;&gt;Node14 -->
<g id="edge19" class="edge">
<title>Node12&#45;&gt;Node14</title>
<path fill="none" stroke="#191970" d="M377.1362,-56.2455C360.4926,-47.4527 335.8007,-34.4079 316.8808,-24.4125"/>
<polygon fill="#191970" stroke="#191970" points="318.3291,-21.2193 307.8522,-19.6427 315.0592,-27.4086 318.3291,-21.2193"/>
</g>
<!-- Node15 -->
<g id="node16" class="node">
<title>Node15</title>
<g id="a_node16"><a xlink:title=" ">
<polygon fill="#ffffff" stroke="#bfbfbf" points="334.6,-.5 334.6,-19.5 390.6,-19.5 390.6,-.5 334.6,-.5"/>
<text text-anchor="middle" x="362.6" y="-7.5" font-family="Helvetica,sans-Serif" font-size="10.00" fill="#000000">numeric</text>
</a>
</g>
</g>
<!-- Node12&#45;&gt;Node15 -->
<g id="edge20" class="edge">
<title>Node12&#45;&gt;Node15</title>
<path fill="none" stroke="#191970" d="M389.8519,-56.2455C385.3565,-48.617 378.9752,-37.7881 373.5176,-28.5267"/>
<polygon fill="#191970" stroke="#191970" points="376.3747,-26.4811 368.2823,-19.6427 370.3439,-30.035 376.3747,-26.4811"/>
</g>
<!-- Node16 -->
<g id="node17" class="node">
<title>Node16</title>
<g id="a_node17"><a xlink:title=" ">
<polygon fill="#ffffff" stroke="#bfbfbf" points="409.1,-.5 409.1,-19.5 478.1,-19.5 478.1,-.5 409.1,-.5"/>
<text text-anchor="middle" x="443.6" y="-7.5" font-family="Helvetica,sans-Serif" font-size="10.00" fill="#000000">type_traits</text>
</a>
</g>
</g>
<!-- Node12&#45;&gt;Node16 -->
<g id="edge21" class="edge">
<title>Node12&#45;&gt;Node16</title>
<path fill="none" stroke="#191970" d="M403.961,-56.2455C410.775,-48.2958 420.5681,-36.8706 428.7152,-27.3656"/>
<polygon fill="#191970" stroke="#191970" points="431.4843,-29.513 435.3349,-19.6427 426.1695,-24.9575 431.4843,-29.513"/>
</g>
<!-- Node17 -->
<g id="node18" class="node">
<title>Node17</title>
<g id="a_node18"><a xlink:title=" ">
<polygon fill="#ffffff" stroke="#bfbfbf" points="180.1,-.5 180.1,-19.5 245.1,-19.5 245.1,-.5 180.1,-.5"/>
<text text-anchor="middle" x="212.6" y="-7.5" font-family="Helvetica,sans-Serif" font-size="10.00" fill="#000000">stdexcept</text>
</a>
</g>
</g>
<!-- Node12&#45;&gt;Node17 -->
<g id="edge22" class="edge">
<title>Node12&#45;&gt;Node17</title>
<path fill="none" stroke="#191970" d="M364.5566,-56.5004C334.06,-47.1681 287.3453,-32.8729 253.7636,-22.5965"/>
<polygon fill="#191970" stroke="#191970" points="254.3823,-19.1257 243.7958,-19.5462 252.3339,-25.8193 254.3823,-19.1257"/>
</g>
<!-- Node20 -->
<g id="node21" class="node">
<title>Node20</title>
<g id="a_node21"><a xlink:title=" ">
<polygon fill="#ffffff" stroke="#bfbfbf" points="579.1,-.5 579.1,-19.5 632.1,-19.5 632.1,-.5 579.1,-.5"/>
<text text-anchor="middle" x="605.6" y="-7.5" font-family="Helvetica,sans-Serif" font-size="10.00" fill="#000000">stdint.h</text>
</a>
</g>
</g>
<!-- Node19&#45;&gt;Node20 -->
<g id="edge29" class="edge">
<title>Node19&#45;&gt;Node20</title>
<path fill="none" stroke="#191970" d="M596.5161,-56.2455C597.9514,-48.9382 599.9636,-38.6944 601.7295,-29.7046"/>
<polygon fill="#191970" stroke="#191970" points="605.2128,-30.1298 603.7059,-19.6427 598.344,-28.7805 605.2128,-30.1298"/>
</g>
<!-- Node21&#45;&gt;Node6 -->
<g id="edge32" class="edge">
<title>Node21&#45;&gt;Node6</title>
<path fill="none" stroke="#191970" d="M238.3094,-112.2455C245.4073,-104.2958 255.6085,-92.8706 264.095,-83.3656"/>
<polygon fill="#191970" stroke="#191970" points="266.9411,-85.4331 270.9905,-75.6427 261.7195,-80.771 266.9411,-85.4331"/>
</g>
<!-- Node21&#45;&gt;Node7 -->
<g id="edge31" class="edge">
<title>Node21&#45;&gt;Node7</title>
<path fill="none" stroke="#191970" d="M214.7942,-112.2455C201.8744,-103.7337 182.9069,-91.2375 167.9448,-81.3801"/>
<polygon fill="#191970" stroke="#191970" points="169.5124,-78.2216 159.2362,-75.6427 165.6613,-84.067 169.5124,-78.2216"/>
</g>
</g>
</svg>
