<?xml version="1.0" encoding="UTF-8" standalone="no"?>
<!DOCTYPE svg PUBLIC "-//W3C//DTD SVG 1.1//EN"
 "http://www.w3.org/Graphics/SVG/1.1/DTD/svg11.dtd">
<!-- Generated by graphviz version 2.40.1 (20161225.0304)
 -->
<!-- Title: /home/pieter/GitHub/EAGLE&#45;ZYBO&#45;Linux/src/logger/src/Logger.cpp Pages: 1 -->
<svg width="571pt" height="274pt"
 viewBox="0.00 0.00 571.00 274.00" xmlns="http://www.w3.org/2000/svg" xmlns:xlink="http://www.w3.org/1999/xlink">
<g id="graph0" class="graph" transform="scale(1 1) rotate(0) translate(4 270)">
<title>/home/pieter/GitHub/EAGLE&#45;ZYBO&#45;Linux/src/logger/src/Logger.cpp</title>
<polygon fill="#ffffff" stroke="transparent" points="-4,4 -4,-270 567,-270 567,4 -4,4"/>
<!-- Node0 -->
<g id="node1" class="node">
<title>Node0</title>
<g id="a_node1"><a xlink:title=" ">
<polygon fill="#bfbfbf" stroke="#000000" points="244,-224.5 244,-265.5 373,-265.5 373,-224.5 244,-224.5"/>
<text text-anchor="start" x="252" y="-253.5" font-family="Helvetica,sans-Serif" font-size="10.00" fill="#000000">/home/pieter/GitHub</text>
<text text-anchor="start" x="252" y="-242.5" font-family="Helvetica,sans-Serif" font-size="10.00" fill="#000000">/EAGLE&#45;ZYBO&#45;Linux/src</text>
<text text-anchor="middle" x="308.5" y="-231.5" font-family="Helvetica,sans-Serif" font-size="10.00" fill="#000000">/logger/src/Logger.cpp</text>
</a>
</g>
</g>
<!-- Node1 -->
<g id="node2" class="node">
<title>Node1</title>
<g id="a_node2"><a xlink:href="Logger_8hpp.html" target="_top" xlink:title=" ">
<polygon fill="#ffffff" stroke="#000000" points="273.5,-168.5 273.5,-187.5 343.5,-187.5 343.5,-168.5 273.5,-168.5"/>
<text text-anchor="middle" x="308.5" y="-175.5" font-family="Helvetica,sans-Serif" font-size="10.00" fill="#000000">Logger.hpp</text>
</a>
</g>
</g>
<!-- Node0&#45;&gt;Node1 -->
<g id="edge1" class="edge">
<title>Node0&#45;&gt;Node1</title>
<path fill="none" stroke="#191970" d="M308.5,-224.168C308.5,-215.8226 308.5,-206.2471 308.5,-197.9879"/>
<polygon fill="#191970" stroke="#191970" points="312.0001,-197.7804 308.5,-187.7805 305.0001,-197.7805 312.0001,-197.7804"/>
</g>
<!-- Node2 -->
<g id="node3" class="node">
<title>Node2</title>
<g id="a_node3"><a xlink:href="BaremetalCommunicationDef_8hpp.html" target="_top" xlink:title=" ">
<polygon fill="#ffffff" stroke="#000000" points="108.5,-112.5 108.5,-131.5 290.5,-131.5 290.5,-112.5 108.5,-112.5"/>
<text text-anchor="middle" x="199.5" y="-119.5" font-family="Helvetica,sans-Serif" font-size="10.00" fill="#000000">BaremetalCommunicationDef.hpp</text>
</a>
</g>
</g>
<!-- Node1&#45;&gt;Node2 -->
<g id="edge2" class="edge">
<title>Node1&#45;&gt;Node2</title>
<path fill="none" stroke="#191970" d="M289.5136,-168.2455C272.3208,-159.4125 246.7762,-146.2887 227.2868,-136.2758"/>
<polygon fill="#191970" stroke="#191970" points="228.763,-133.0993 218.2688,-131.6427 225.5641,-139.3257 228.763,-133.0993"/>
</g>
<!-- Node3 -->
<g id="node4" class="node">
<title>Node3</title>
<g id="a_node4"><a xlink:title=" ">
<polygon fill="#ffffff" stroke="#bfbfbf" points="0,-56.5 0,-75.5 67,-75.5 67,-56.5 0,-56.5"/>
<text text-anchor="middle" x="33.5" y="-63.5" font-family="Helvetica,sans-Serif" font-size="10.00" fill="#000000">LogEntry.h</text>
</a>
</g>
</g>
<!-- Node1&#45;&gt;Node3 -->
<g id="edge13" class="edge">
<title>Node1&#45;&gt;Node3</title>
<path fill="none" stroke="#191970" d="M273.4864,-176.2766C230.192,-172.8486 155.3864,-162.6049 99.5,-132 77.8764,-120.1583 58.644,-99.081 46.5978,-83.9279"/>
<polygon fill="#191970" stroke="#191970" points="49.2332,-81.6127 40.3719,-75.8051 43.6774,-85.8711 49.2332,-81.6127"/>
</g>
<!-- Node12 -->
<g id="node13" class="node">
<title>Node12</title>
<g id="a_node13"><a xlink:href="MulticastSender_8hpp.html" target="_top" xlink:title=" ">
<polygon fill="#ffffff" stroke="#000000" points="335,-112.5 335,-131.5 450,-131.5 450,-112.5 335,-112.5"/>
<text text-anchor="middle" x="392.5" y="-119.5" font-family="Helvetica,sans-Serif" font-size="10.00" fill="#000000">MulticastSender.hpp</text>
</a>
</g>
</g>
<!-- Node1&#45;&gt;Node12 -->
<g id="edge14" class="edge">
<title>Node1&#45;&gt;Node12</title>
<path fill="none" stroke="#191970" d="M323.1317,-168.2455C335.8994,-159.7337 354.6438,-147.2375 369.4299,-137.3801"/>
<polygon fill="#191970" stroke="#191970" points="371.6569,-140.1019 378.036,-131.6427 367.774,-134.2775 371.6569,-140.1019"/>
</g>
<!-- Node15 -->
<g id="node16" class="node">
<title>Node15</title>
<g id="a_node16"><a xlink:title=" ">
<polygon fill="#ffffff" stroke="#bfbfbf" points="468,-112.5 468,-131.5 563,-131.5 563,-112.5 468,-112.5"/>
<text text-anchor="middle" x="515.5" y="-119.5" font-family="Helvetica,sans-Serif" font-size="10.00" fill="#000000">SharedMem.hpp</text>
</a>
</g>
</g>
<!-- Node1&#45;&gt;Node15 -->
<g id="edge18" class="edge">
<title>Node1&#45;&gt;Node15</title>
<path fill="none" stroke="#191970" d="M343.6147,-168.5004C378.557,-159.0474 432.3217,-144.5023 470.404,-134.1999"/>
<polygon fill="#191970" stroke="#191970" points="471.474,-137.5363 480.213,-131.5462 469.646,-130.7792 471.474,-137.5363"/>
</g>
<!-- Node2&#45;&gt;Node3 -->
<g id="edge3" class="edge">
<title>Node2&#45;&gt;Node3</title>
<path fill="none" stroke="#191970" d="M170.9636,-112.3733C143.4798,-103.1016 101.7314,-89.0178 71.4548,-78.804"/>
<polygon fill="#191970" stroke="#191970" points="72.2582,-75.3813 61.664,-75.5011 70.0206,-82.0141 72.2582,-75.3813"/>
</g>
<!-- Node4 -->
<g id="node5" class="node">
<title>Node4</title>
<g id="a_node5"><a xlink:href="SharedStruct_8hpp.html" target="_top" xlink:title=" ">
<polygon fill="#ffffff" stroke="#000000" points="123.5,-56.5 123.5,-75.5 223.5,-75.5 223.5,-56.5 123.5,-56.5"/>
<text text-anchor="middle" x="173.5" y="-63.5" font-family="Helvetica,sans-Serif" font-size="10.00" fill="#000000">SharedStruct.hpp</text>
</a>
</g>
</g>
<!-- Node2&#45;&gt;Node4 -->
<g id="edge4" class="edge">
<title>Node2&#45;&gt;Node4</title>
<path fill="none" stroke="#191970" d="M194.9711,-112.2455C191.4666,-104.6973 186.5073,-94.0158 182.2377,-84.8197"/>
<polygon fill="#191970" stroke="#191970" points="185.3627,-83.2389 177.977,-75.6427 179.0136,-86.1867 185.3627,-83.2389"/>
</g>
<!-- Node5 -->
<g id="node6" class="node">
<title>Node5</title>
<g id="a_node6"><a xlink:title=" ">
<polygon fill="#ffffff" stroke="#bfbfbf" points="63.5,-.5 63.5,-19.5 115.5,-19.5 115.5,-.5 63.5,-.5"/>
<text text-anchor="middle" x="89.5" y="-7.5" font-family="Helvetica,sans-Serif" font-size="10.00" fill="#000000">cassert</text>
</a>
</g>
</g>
<!-- Node2&#45;&gt;Node5 -->
<g id="edge10" class="edge">
<title>Node2&#45;&gt;Node5</title>
<path fill="none" stroke="#191970" d="M170.88,-112.4781C152.5705,-105.0885 129.5199,-93.1799 114.5,-76 103.0455,-62.8983 96.6058,-44.0188 93.1422,-29.8056"/>
<polygon fill="#191970" stroke="#191970" points="96.4755,-28.6549 90.9636,-19.6067 89.6299,-30.1173 96.4755,-28.6549"/>
</g>
<!-- Node10 -->
<g id="node11" class="node">
<title>Node10</title>
<g id="a_node11"><a xlink:title=" ">
<polygon fill="#ffffff" stroke="#bfbfbf" points="242,-56.5 242,-75.5 289,-75.5 289,-56.5 242,-56.5"/>
<text text-anchor="middle" x="265.5" y="-63.5" font-family="Helvetica,sans-Serif" font-size="10.00" fill="#000000">cmath</text>
</a>
</g>
</g>
<!-- Node2&#45;&gt;Node10 -->
<g id="edge11" class="edge">
<title>Node2&#45;&gt;Node10</title>
<path fill="none" stroke="#191970" d="M210.9963,-112.2455C220.7442,-103.9746 234.9259,-91.9416 246.3798,-82.2232"/>
<polygon fill="#191970" stroke="#191970" points="248.7747,-84.7813 254.1354,-75.6427 244.2459,-79.4437 248.7747,-84.7813"/>
</g>
<!-- Node11 -->
<g id="node12" class="node">
<title>Node11</title>
<g id="a_node12"><a xlink:title=" ">
<polygon fill="#ffffff" stroke="#bfbfbf" points="307,-56.5 307,-75.5 364,-75.5 364,-56.5 307,-56.5"/>
<text text-anchor="middle" x="335.5" y="-63.5" font-family="Helvetica,sans-Serif" font-size="10.00" fill="#000000">ostream</text>
</a>
</g>
</g>
<!-- Node2&#45;&gt;Node11 -->
<g id="edge12" class="edge">
<title>Node2&#45;&gt;Node11</title>
<path fill="none" stroke="#191970" d="M222.8792,-112.3733C245.0045,-103.2629 278.4134,-89.5062 303.1019,-79.3404"/>
<polygon fill="#191970" stroke="#191970" points="304.5117,-82.5451 312.4258,-75.5011 301.8464,-76.0723 304.5117,-82.5451"/>
</g>
<!-- Node4&#45;&gt;Node5 -->
<g id="edge5" class="edge">
<title>Node4&#45;&gt;Node5</title>
<path fill="none" stroke="#191970" d="M158.8683,-56.2455C146.1006,-47.7337 127.3562,-35.2375 112.5701,-25.3801"/>
<polygon fill="#191970" stroke="#191970" points="114.226,-22.2775 103.964,-19.6427 110.3431,-28.1019 114.226,-22.2775"/>
</g>
<!-- Node6 -->
<g id="node7" class="node">
<title>Node6</title>
<g id="a_node7"><a xlink:title=" ">
<polygon fill="#ffffff" stroke="#bfbfbf" points="367.5,-.5 367.5,-19.5 417.5,-19.5 417.5,-.5 367.5,-.5"/>
<text text-anchor="middle" x="392.5" y="-7.5" font-family="Helvetica,sans-Serif" font-size="10.00" fill="#000000">cstdint</text>
</a>
</g>
</g>
<!-- Node4&#45;&gt;Node6 -->
<g id="edge6" class="edge">
<title>Node4&#45;&gt;Node6</title>
<path fill="none" stroke="#191970" d="M213.4398,-56.4216C250.7774,-47.371 308.0402,-33.2442 357.5,-20 357.5992,-19.9734 357.6985,-19.9468 357.798,-19.9201"/>
<polygon fill="#191970" stroke="#191970" points="358.5779,-23.3356 367.2928,-17.3105 356.7228,-16.5859 358.5779,-23.3356"/>
</g>
<!-- Node7 -->
<g id="node8" class="node">
<title>Node7</title>
<g id="a_node8"><a xlink:title=" ">
<polygon fill="#ffffff" stroke="#bfbfbf" points="134,-.5 134,-19.5 199,-19.5 199,-.5 134,-.5"/>
<text text-anchor="middle" x="166.5" y="-7.5" font-family="Helvetica,sans-Serif" font-size="10.00" fill="#000000">stdexcept</text>
</a>
</g>
</g>
<!-- Node4&#45;&gt;Node7 -->
<g id="edge7" class="edge">
<title>Node4&#45;&gt;Node7</title>
<path fill="none" stroke="#191970" d="M172.2807,-56.2455C171.3673,-48.9382 170.0868,-38.6944 168.9631,-29.7046"/>
<polygon fill="#191970" stroke="#191970" points="172.4187,-29.1313 167.7053,-19.6427 165.4728,-29.9996 172.4187,-29.1313"/>
</g>
<!-- Node8 -->
<g id="node9" class="node">
<title>Node8</title>
<g id="a_node9"><a xlink:title=" ">
<polygon fill="#ffffff" stroke="#bfbfbf" points="217.5,-.5 217.5,-19.5 261.5,-19.5 261.5,-.5 217.5,-.5"/>
<text text-anchor="middle" x="239.5" y="-7.5" font-family="Helvetica,sans-Serif" font-size="10.00" fill="#000000">string</text>
</a>
</g>
</g>
<!-- Node4&#45;&gt;Node8 -->
<g id="edge8" class="edge">
<title>Node4&#45;&gt;Node8</title>
<path fill="none" stroke="#191970" d="M184.9963,-56.2455C194.7442,-47.9746 208.9259,-35.9416 220.3798,-26.2232"/>
<polygon fill="#191970" stroke="#191970" points="222.7747,-28.7813 228.1354,-19.6427 218.2459,-23.4437 222.7747,-28.7813"/>
</g>
<!-- Node9 -->
<g id="node10" class="node">
<title>Node9</title>
<g id="a_node10"><a xlink:title=" ">
<polygon fill="#ffffff" stroke="#bfbfbf" points="280,-.5 280,-19.5 349,-19.5 349,-.5 280,-.5"/>
<text text-anchor="middle" x="314.5" y="-7.5" font-family="Helvetica,sans-Serif" font-size="10.00" fill="#000000">type_traits</text>
</a>
</g>
</g>
<!-- Node4&#45;&gt;Node9 -->
<g id="edge9" class="edge">
<title>Node4&#45;&gt;Node9</title>
<path fill="none" stroke="#191970" d="M197.7388,-56.3733C220.7789,-47.2226 255.6214,-33.3844 281.2501,-23.2057"/>
<polygon fill="#191970" stroke="#191970" points="282.5756,-26.4452 290.5775,-19.5011 279.9918,-19.9395 282.5756,-26.4452"/>
</g>
<!-- Node12&#45;&gt;Node6 -->
<g id="edge15" class="edge">
<title>Node12&#45;&gt;Node6</title>
<path fill="none" stroke="#191970" d="M392.5,-112.4509C392.5,-94.184 392.5,-53.9553 392.5,-29.6976"/>
<polygon fill="#191970" stroke="#191970" points="396.0001,-29.5249 392.5,-19.5249 389.0001,-29.5249 396.0001,-29.5249"/>
</g>
<!-- Node13 -->
<g id="node14" class="node">
<title>Node13</title>
<g id="a_node14"><a xlink:title=" ">
<polygon fill="#ffffff" stroke="#bfbfbf" points="420.5,-56.5 420.5,-75.5 492.5,-75.5 492.5,-56.5 420.5,-56.5"/>
<text text-anchor="middle" x="456.5" y="-63.5" font-family="Helvetica,sans-Serif" font-size="10.00" fill="#000000">netinet/in.h</text>
</a>
</g>
</g>
<!-- Node12&#45;&gt;Node13 -->
<g id="edge16" class="edge">
<title>Node12&#45;&gt;Node13</title>
<path fill="none" stroke="#191970" d="M403.6479,-112.2455C413.0087,-104.0549 426.5858,-92.1749 437.6349,-82.5069"/>
<polygon fill="#191970" stroke="#191970" points="440.2588,-84.8618 445.4798,-75.6427 435.6492,-79.5937 440.2588,-84.8618"/>
</g>
<!-- Node14 -->
<g id="node15" class="node">
<title>Node14</title>
<g id="a_node15"><a xlink:title=" ">
<polygon fill="#ffffff" stroke="#bfbfbf" points="511,-56.5 511,-75.5 558,-75.5 558,-56.5 511,-56.5"/>
<text text-anchor="middle" x="534.5" y="-63.5" font-family="Helvetica,sans-Serif" font-size="10.00" fill="#000000">vector</text>
</a>
</g>
</g>
<!-- Node12&#45;&gt;Node14 -->
<g id="edge17" class="edge">
<title>Node12&#45;&gt;Node14</title>
<path fill="none" stroke="#191970" d="M416.9107,-112.3733C440.2549,-103.1671 475.6296,-89.2165 501.4825,-79.021"/>
<polygon fill="#191970" stroke="#191970" points="502.861,-82.2397 510.8797,-75.315 500.2929,-75.7278 502.861,-82.2397"/>
</g>
</g>
</svg>
