<?xml version="1.0" encoding="UTF-8" standalone="no"?>
<!DOCTYPE svg PUBLIC "-//W3C//DTD SVG 1.1//EN"
 "http://www.w3.org/Graphics/SVG/1.1/DTD/svg11.dtd">
<!-- Generated by graphviz version 2.40.1 (20161225.0304)
 -->
<!-- Title: /home/pieter/GitHub/EAGLE&#45;ZYBO&#45;Linux/src/logger/include/Logger.hpp Pages: 1 -->
<svg width="1482pt" height="218pt"
 viewBox="0.00 0.00 1481.50 218.00" xmlns="http://www.w3.org/2000/svg" xmlns:xlink="http://www.w3.org/1999/xlink">
<g id="graph0" class="graph" transform="scale(1 1) rotate(0) translate(4 214)">
<title>/home/pieter/GitHub/EAGLE&#45;ZYBO&#45;Linux/src/logger/include/Logger.hpp</title>
<polygon fill="#ffffff" stroke="transparent" points="-4,4 -4,-214 1477.5,-214 1477.5,4 -4,4"/>
<!-- Node0 -->
<g id="node1" class="node">
<title>Node0</title>
<g id="a_node1"><a xlink:title=" ">
<polygon fill="#bfbfbf" stroke="#000000" points="776.5,-168.5 776.5,-209.5 921.5,-209.5 921.5,-168.5 776.5,-168.5"/>
<text text-anchor="start" x="784.5" y="-197.5" font-family="Helvetica,sans-Serif" font-size="10.00" fill="#000000">/home/pieter/GitHub</text>
<text text-anchor="start" x="784.5" y="-186.5" font-family="Helvetica,sans-Serif" font-size="10.00" fill="#000000">/EAGLE&#45;ZYBO&#45;Linux/src</text>
<text text-anchor="middle" x="849" y="-175.5" font-family="Helvetica,sans-Serif" font-size="10.00" fill="#000000">/logger/include/Logger.hpp</text>
</a>
</g>
</g>
<!-- Node1 -->
<g id="node2" class="node">
<title>Node1</title>
<g id="a_node2"><a xlink:href="BaremetalCommunicationDef_8hpp.html" target="_top" xlink:title=" ">
<polygon fill="#ffffff" stroke="#000000" points="152,-112.5 152,-131.5 334,-131.5 334,-112.5 152,-112.5"/>
<text text-anchor="middle" x="243" y="-119.5" font-family="Helvetica,sans-Serif" font-size="10.00" fill="#000000">BaremetalCommunicationDef.hpp</text>
</a>
</g>
</g>
<!-- Node0&#45;&gt;Node1 -->
<g id="edge1" class="edge">
<title>Node0&#45;&gt;Node1</title>
<path fill="none" stroke="#191970" d="M776.2034,-180.9515C667.0031,-168.8782 460.6725,-146.0661 339.1863,-132.6345"/>
<polygon fill="#191970" stroke="#191970" points="339.4698,-129.1446 329.1457,-131.5244 338.7005,-136.1022 339.4698,-129.1446"/>
</g>
<!-- Node2 -->
<g id="node3" class="node">
<title>Node2</title>
<g id="a_node3"><a xlink:title=" ">
<polygon fill="#ffffff" stroke="#bfbfbf" points="3.5,-56.5 3.5,-75.5 70.5,-75.5 70.5,-56.5 3.5,-56.5"/>
<text text-anchor="middle" x="37" y="-63.5" font-family="Helvetica,sans-Serif" font-size="10.00" fill="#000000">LogEntry.h</text>
</a>
</g>
</g>
<!-- Node0&#45;&gt;Node2 -->
<g id="edge12" class="edge">
<title>Node0&#45;&gt;Node2</title>
<path fill="none" stroke="#191970" d="M776.2783,-187.4683C620.4416,-183.4836 259.045,-170.2928 143,-132 109.8242,-121.0526 76.412,-97.734 56.2077,-81.9578"/>
<polygon fill="#191970" stroke="#191970" points="58.1452,-79.0258 48.1493,-75.514 53.7736,-84.4928 58.1452,-79.0258"/>
</g>
<!-- Node11 -->
<g id="node12" class="node">
<title>Node11</title>
<g id="a_node12"><a xlink:href="SharedMem_8hpp.html" target="_top" xlink:title=" ">
<polygon fill="#ffffff" stroke="#000000" points="801.5,-112.5 801.5,-131.5 896.5,-131.5 896.5,-112.5 801.5,-112.5"/>
<text text-anchor="middle" x="849" y="-119.5" font-family="Helvetica,sans-Serif" font-size="10.00" fill="#000000">SharedMem.hpp</text>
</a>
</g>
</g>
<!-- Node0&#45;&gt;Node11 -->
<g id="edge13" class="edge">
<title>Node0&#45;&gt;Node11</title>
<path fill="none" stroke="#191970" d="M849,-168.168C849,-159.8226 849,-150.2471 849,-141.9879"/>
<polygon fill="#191970" stroke="#191970" points="852.5001,-141.7804 849,-131.7805 845.5001,-141.7805 852.5001,-141.7804"/>
</g>
<!-- Node23 -->
<g id="node24" class="node">
<title>Node23</title>
<g id="a_node24"><a xlink:href="UDPSender_8hpp.html" target="_top" xlink:title=" ">
<polygon fill="#ffffff" stroke="#000000" points="1262,-112.5 1262,-131.5 1354,-131.5 1354,-112.5 1262,-112.5"/>
<text text-anchor="middle" x="1308" y="-119.5" font-family="Helvetica,sans-Serif" font-size="10.00" fill="#000000">UDPSender.hpp</text>
</a>
</g>
</g>
<!-- Node0&#45;&gt;Node23 -->
<g id="edge26" class="edge">
<title>Node0&#45;&gt;Node23</title>
<path fill="none" stroke="#191970" d="M921.7299,-178.3837C1013.3352,-165.0121 1168.772,-142.323 1251.7922,-130.2046"/>
<polygon fill="#191970" stroke="#191970" points="1252.4029,-133.6527 1261.7924,-128.7449 1251.3917,-126.7261 1252.4029,-133.6527"/>
</g>
<!-- Node25 -->
<g id="node26" class="node">
<title>Node25</title>
<g id="a_node26"><a xlink:title=" ">
<polygon fill="#ffffff" stroke="#bfbfbf" points="1426.5,-56.5 1426.5,-75.5 1473.5,-75.5 1473.5,-56.5 1426.5,-56.5"/>
<text text-anchor="middle" x="1450" y="-63.5" font-family="Helvetica,sans-Serif" font-size="10.00" fill="#000000">vector</text>
</a>
</g>
</g>
<!-- Node0&#45;&gt;Node25 -->
<g id="edge31" class="edge">
<title>Node0&#45;&gt;Node25</title>
<path fill="none" stroke="#191970" d="M921.9403,-185.6929C1044.1546,-179.3592 1284.6155,-163.2823 1363,-132 1390.8429,-120.8882 1417.4826,-98.3229 1433.7827,-82.6925"/>
<polygon fill="#191970" stroke="#191970" points="1436.2533,-85.1718 1440.914,-75.6571 1431.3371,-80.1886 1436.2533,-85.1718"/>
</g>
<!-- Node1&#45;&gt;Node2 -->
<g id="edge2" class="edge">
<title>Node1&#45;&gt;Node2</title>
<path fill="none" stroke="#191970" d="M207.5873,-112.3733C172.3171,-102.7852 118.1163,-88.051 80.3052,-77.7723"/>
<polygon fill="#191970" stroke="#191970" points="81.1544,-74.3762 70.5865,-75.1303 79.3181,-81.131 81.1544,-74.3762"/>
</g>
<!-- Node3 -->
<g id="node4" class="node">
<title>Node3</title>
<g id="a_node4"><a xlink:href="SharedStruct_8hpp.html" target="_top" xlink:title=" ">
<polygon fill="#ffffff" stroke="#000000" points="89,-56.5 89,-75.5 189,-75.5 189,-56.5 89,-56.5"/>
<text text-anchor="middle" x="139" y="-63.5" font-family="Helvetica,sans-Serif" font-size="10.00" fill="#000000">SharedStruct.hpp</text>
</a>
</g>
</g>
<!-- Node1&#45;&gt;Node3 -->
<g id="edge3" class="edge">
<title>Node1&#45;&gt;Node3</title>
<path fill="none" stroke="#191970" d="M224.8846,-112.2455C208.555,-103.4527 184.329,-90.4079 165.7661,-80.4125"/>
<polygon fill="#191970" stroke="#191970" points="167.3719,-77.3021 156.9078,-75.6427 164.0532,-83.4654 167.3719,-77.3021"/>
</g>
<!-- Node4 -->
<g id="node5" class="node">
<title>Node4</title>
<g id="a_node5"><a xlink:title=" ">
<polygon fill="#ffffff" stroke="#bfbfbf" points="233,-.5 233,-19.5 285,-19.5 285,-.5 233,-.5"/>
<text text-anchor="middle" x="259" y="-7.5" font-family="Helvetica,sans-Serif" font-size="10.00" fill="#000000">cassert</text>
</a>
</g>
</g>
<!-- Node1&#45;&gt;Node4 -->
<g id="edge9" class="edge">
<title>Node1&#45;&gt;Node4</title>
<path fill="none" stroke="#191970" d="M240.0114,-112.4748C236.3965,-99.5311 231.3407,-75.7373 236,-56 238.2706,-46.3814 242.8775,-36.4809 247.3759,-28.3404"/>
<polygon fill="#191970" stroke="#191970" points="250.3973,-30.1071 252.4603,-19.7151 244.367,-26.5524 250.3973,-30.1071"/>
</g>
<!-- Node9 -->
<g id="node10" class="node">
<title>Node9</title>
<g id="a_node10"><a xlink:title=" ">
<polygon fill="#ffffff" stroke="#bfbfbf" points="245.5,-56.5 245.5,-75.5 292.5,-75.5 292.5,-56.5 245.5,-56.5"/>
<text text-anchor="middle" x="269" y="-63.5" font-family="Helvetica,sans-Serif" font-size="10.00" fill="#000000">cmath</text>
</a>
</g>
</g>
<!-- Node1&#45;&gt;Node9 -->
<g id="edge10" class="edge">
<title>Node1&#45;&gt;Node9</title>
<path fill="none" stroke="#191970" d="M247.5289,-112.2455C251.0334,-104.6973 255.9927,-94.0158 260.2623,-84.8197"/>
<polygon fill="#191970" stroke="#191970" points="263.4864,-86.1867 264.523,-75.6427 257.1373,-83.2389 263.4864,-86.1867"/>
</g>
<!-- Node10 -->
<g id="node11" class="node">
<title>Node10</title>
<g id="a_node11"><a xlink:title=" ">
<polygon fill="#ffffff" stroke="#bfbfbf" points="310.5,-56.5 310.5,-75.5 367.5,-75.5 367.5,-56.5 310.5,-56.5"/>
<text text-anchor="middle" x="339" y="-63.5" font-family="Helvetica,sans-Serif" font-size="10.00" fill="#000000">ostream</text>
</a>
</g>
</g>
<!-- Node1&#45;&gt;Node10 -->
<g id="edge11" class="edge">
<title>Node1&#45;&gt;Node10</title>
<path fill="none" stroke="#191970" d="M259.7219,-112.2455C274.5889,-103.5731 296.5466,-90.7645 313.5858,-80.825"/>
<polygon fill="#191970" stroke="#191970" points="315.5955,-83.7047 322.4697,-75.6427 312.0683,-77.6582 315.5955,-83.7047"/>
</g>
<!-- Node3&#45;&gt;Node4 -->
<g id="edge4" class="edge">
<title>Node3&#45;&gt;Node4</title>
<path fill="none" stroke="#191970" d="M159.6287,-56.3733C178.8919,-47.3838 207.8486,-33.8706 229.5419,-23.7471"/>
<polygon fill="#191970" stroke="#191970" points="231.0587,-26.9017 238.6405,-19.5011 228.0985,-20.5584 231.0587,-26.9017"/>
</g>
<!-- Node5 -->
<g id="node6" class="node">
<title>Node5</title>
<g id="a_node6"><a xlink:title=" ">
<polygon fill="#ffffff" stroke="#bfbfbf" points="772,-.5 772,-19.5 822,-19.5 822,-.5 772,-.5"/>
<text text-anchor="middle" x="797" y="-7.5" font-family="Helvetica,sans-Serif" font-size="10.00" fill="#000000">cstdint</text>
</a>
</g>
</g>
<!-- Node3&#45;&gt;Node5 -->
<g id="edge5" class="edge">
<title>Node3&#45;&gt;Node5</title>
<path fill="none" stroke="#191970" d="M189.3253,-60.6098C204.3353,-59.0567 220.8282,-57.4039 236,-56 434.7001,-37.6134 673.3493,-19.2915 761.7934,-12.6296"/>
<polygon fill="#191970" stroke="#191970" points="762.1124,-16.1156 771.8219,-11.8758 761.5877,-9.1353 762.1124,-16.1156"/>
</g>
<!-- Node6 -->
<g id="node7" class="node">
<title>Node6</title>
<g id="a_node7"><a xlink:title=" ">
<polygon fill="#ffffff" stroke="#bfbfbf" points="149.5,-.5 149.5,-19.5 214.5,-19.5 214.5,-.5 149.5,-.5"/>
<text text-anchor="middle" x="182" y="-7.5" font-family="Helvetica,sans-Serif" font-size="10.00" fill="#000000">stdexcept</text>
</a>
</g>
</g>
<!-- Node3&#45;&gt;Node6 -->
<g id="edge6" class="edge">
<title>Node3&#45;&gt;Node6</title>
<path fill="none" stroke="#191970" d="M146.49,-56.2455C152.5326,-48.3761 161.1903,-37.101 168.4441,-27.6542"/>
<polygon fill="#191970" stroke="#191970" points="171.2815,-29.7058 174.5958,-19.6427 165.7295,-25.4426 171.2815,-29.7058"/>
</g>
<!-- Node7 -->
<g id="node8" class="node">
<title>Node7</title>
<g id="a_node8"><a xlink:title=" ">
<polygon fill="#ffffff" stroke="#bfbfbf" points="0,-.5 0,-19.5 44,-19.5 44,-.5 0,-.5"/>
<text text-anchor="middle" x="22" y="-7.5" font-family="Helvetica,sans-Serif" font-size="10.00" fill="#000000">string</text>
</a>
</g>
</g>
<!-- Node3&#45;&gt;Node7 -->
<g id="edge7" class="edge">
<title>Node3&#45;&gt;Node7</title>
<path fill="none" stroke="#191970" d="M118.887,-56.3733C100.1897,-47.4241 72.1256,-33.9917 51.0066,-23.8835"/>
<polygon fill="#191970" stroke="#191970" points="52.3817,-20.6614 41.8506,-19.5011 49.3595,-26.9755 52.3817,-20.6614"/>
</g>
<!-- Node8 -->
<g id="node9" class="node">
<title>Node8</title>
<g id="a_node9"><a xlink:title=" ">
<polygon fill="#ffffff" stroke="#bfbfbf" points="62.5,-.5 62.5,-19.5 131.5,-19.5 131.5,-.5 62.5,-.5"/>
<text text-anchor="middle" x="97" y="-7.5" font-family="Helvetica,sans-Serif" font-size="10.00" fill="#000000">type_traits</text>
</a>
</g>
</g>
<!-- Node3&#45;&gt;Node8 -->
<g id="edge8" class="edge">
<title>Node3&#45;&gt;Node8</title>
<path fill="none" stroke="#191970" d="M131.6842,-56.2455C125.7821,-48.3761 117.3258,-37.101 110.2406,-27.6542"/>
<polygon fill="#191970" stroke="#191970" points="113.0321,-25.5427 104.232,-19.6427 107.432,-29.7427 113.0321,-25.5427"/>
</g>
<!-- Node11&#45;&gt;Node4 -->
<g id="edge17" class="edge">
<title>Node11&#45;&gt;Node4</title>
<path fill="none" stroke="#191970" d="M854.6485,-112.0411C861.9487,-97.6972 872.1443,-71.2722 858,-56 838.7849,-35.2527 422.1239,-16.6405 295.3028,-11.4393"/>
<polygon fill="#191970" stroke="#191970" points="295.4435,-7.9423 285.3095,-11.0327 295.1589,-14.9365 295.4435,-7.9423"/>
</g>
<!-- Node12 -->
<g id="node13" class="node">
<title>Node12</title>
<g id="a_node13"><a xlink:href="ANSIColors_8hpp.html" target="_top" xlink:title=" ">
<polygon fill="#ffffff" stroke="#000000" points="905,-56.5 905,-75.5 997,-75.5 997,-56.5 905,-56.5"/>
<text text-anchor="middle" x="951" y="-63.5" font-family="Helvetica,sans-Serif" font-size="10.00" fill="#000000">ANSIColors.hpp</text>
</a>
</g>
</g>
<!-- Node11&#45;&gt;Node12 -->
<g id="edge14" class="edge">
<title>Node11&#45;&gt;Node12</title>
<path fill="none" stroke="#191970" d="M866.767,-112.2455C882.7095,-103.4928 906.3259,-90.527 924.4989,-80.5496"/>
<polygon fill="#191970" stroke="#191970" points="926.3552,-83.5233 933.4366,-75.6427 922.9863,-77.3873 926.3552,-83.5233"/>
</g>
<!-- Node13 -->
<g id="node14" class="node">
<title>Node13</title>
<g id="a_node14"><a xlink:title=" ">
<polygon fill="#ffffff" stroke="#bfbfbf" points="1015,-56.5 1015,-75.5 1071,-75.5 1071,-56.5 1015,-56.5"/>
<text text-anchor="middle" x="1043" y="-63.5" font-family="Helvetica,sans-Serif" font-size="10.00" fill="#000000">iomanip</text>
</a>
</g>
</g>
<!-- Node11&#45;&gt;Node13 -->
<g id="edge15" class="edge">
<title>Node11&#45;&gt;Node13</title>
<path fill="none" stroke="#191970" d="M882.3498,-112.3733C916.3674,-102.5537 969.084,-87.3366 1004.7691,-77.0357"/>
<polygon fill="#191970" stroke="#191970" points="1006.1675,-80.275 1014.8045,-74.1389 1004.2261,-73.5496 1006.1675,-80.275"/>
</g>
<!-- Node14 -->
<g id="node15" class="node">
<title>Node14</title>
<g id="a_node15"><a xlink:title=" ">
<polygon fill="#ffffff" stroke="#bfbfbf" points="1220,-56.5 1220,-75.5 1280,-75.5 1280,-56.5 1220,-56.5"/>
<text text-anchor="middle" x="1250" y="-63.5" font-family="Helvetica,sans-Serif" font-size="10.00" fill="#000000">iostream</text>
</a>
</g>
</g>
<!-- Node11&#45;&gt;Node14 -->
<g id="edge16" class="edge">
<title>Node11&#45;&gt;Node14</title>
<path fill="none" stroke="#191970" d="M896.5852,-117.7461C965.9051,-111.1406 1098.5444,-96.957 1210,-76 1210.1011,-75.981 1210.2024,-75.9619 1210.3038,-75.9427"/>
<polygon fill="#191970" stroke="#191970" points="1210.8755,-79.399 1219.9431,-73.9191 1209.4373,-72.5483 1210.8755,-79.399"/>
</g>
<!-- Node15 -->
<g id="node16" class="node">
<title>Node15</title>
<g id="a_node16"><a xlink:title=" ">
<polygon fill="#ffffff" stroke="#bfbfbf" points="1089.5,-56.5 1089.5,-75.5 1136.5,-75.5 1136.5,-56.5 1089.5,-56.5"/>
<text text-anchor="middle" x="1113" y="-63.5" font-family="Helvetica,sans-Serif" font-size="10.00" fill="#000000">cerrno</text>
</a>
</g>
</g>
<!-- Node11&#45;&gt;Node15 -->
<g id="edge18" class="edge">
<title>Node11&#45;&gt;Node15</title>
<path fill="none" stroke="#191970" d="M896.6399,-113.9171C941.4516,-105.9998 1010.5726,-92.9818 1079.5541,-75.9229"/>
<polygon fill="#191970" stroke="#191970" points="1080.4324,-79.3111 1089.2842,-73.4891 1078.7337,-72.5203 1080.4324,-79.3111"/>
</g>
<!-- Node16 -->
<g id="node17" class="node">
<title>Node16</title>
<g id="a_node17"><a xlink:title=" ">
<polygon fill="#ffffff" stroke="#bfbfbf" points="1154.5,-56.5 1154.5,-75.5 1201.5,-75.5 1201.5,-56.5 1154.5,-56.5"/>
<text text-anchor="middle" x="1178" y="-63.5" font-family="Helvetica,sans-Serif" font-size="10.00" fill="#000000">fcntl.h</text>
</a>
</g>
</g>
<!-- Node11&#45;&gt;Node16 -->
<g id="edge19" class="edge">
<title>Node11&#45;&gt;Node16</title>
<path fill="none" stroke="#191970" d="M896.5514,-116.693C953.3433,-109.8946 1051.3104,-96.7127 1144.4456,-75.8547"/>
<polygon fill="#191970" stroke="#191970" points="1145.3381,-79.2412 1154.3134,-73.6114 1143.7863,-72.4154 1145.3381,-79.2412"/>
</g>
<!-- Node17 -->
<g id="node18" class="node">
<title>Node17</title>
<g id="a_node18"><a xlink:title=" ">
<polygon fill="#ffffff" stroke="#bfbfbf" points="386,-56.5 386,-75.5 436,-75.5 436,-56.5 386,-56.5"/>
<text text-anchor="middle" x="411" y="-63.5" font-family="Helvetica,sans-Serif" font-size="10.00" fill="#000000">stdio.h</text>
</a>
</g>
</g>
<!-- Node11&#45;&gt;Node17 -->
<g id="edge20" class="edge">
<title>Node11&#45;&gt;Node17</title>
<path fill="none" stroke="#191970" d="M801.3155,-119.2457C727.173,-114.3802 579.733,-102.3738 446.1323,-75.9293"/>
<polygon fill="#191970" stroke="#191970" points="446.6235,-72.4581 436.1296,-73.9168 445.2427,-79.3206 446.6235,-72.4581"/>
</g>
<!-- Node18 -->
<g id="node19" class="node">
<title>Node18</title>
<g id="a_node19"><a xlink:title=" ">
<polygon fill="#ffffff" stroke="#bfbfbf" points="454.5,-56.5 454.5,-75.5 507.5,-75.5 507.5,-56.5 454.5,-56.5"/>
<text text-anchor="middle" x="481" y="-63.5" font-family="Helvetica,sans-Serif" font-size="10.00" fill="#000000">stdlib.h</text>
</a>
</g>
</g>
<!-- Node11&#45;&gt;Node18 -->
<g id="edge21" class="edge">
<title>Node11&#45;&gt;Node18</title>
<path fill="none" stroke="#191970" d="M801.4881,-117.5668C738.5173,-111.2229 623.8589,-98.0489 517.5829,-76.1151"/>
<polygon fill="#191970" stroke="#191970" points="518.1612,-72.6603 507.6559,-74.0352 516.7257,-79.5115 518.1612,-72.6603"/>
</g>
<!-- Node19 -->
<g id="node20" class="node">
<title>Node19</title>
<g id="a_node20"><a xlink:title=" ">
<polygon fill="#ffffff" stroke="#bfbfbf" points="525.5,-56.5 525.5,-75.5 602.5,-75.5 602.5,-56.5 525.5,-56.5"/>
<text text-anchor="middle" x="564" y="-63.5" font-family="Helvetica,sans-Serif" font-size="10.00" fill="#000000">sys/mman.h</text>
</a>
</g>
</g>
<!-- Node11&#45;&gt;Node19 -->
<g id="edge22" class="edge">
<title>Node11&#45;&gt;Node19</title>
<path fill="none" stroke="#191970" d="M801.2981,-112.9401C755.5618,-104.2088 684.299,-90.4884 612.6176,-76.1035"/>
<polygon fill="#191970" stroke="#191970" points="612.9966,-72.6097 602.5029,-74.0698 611.6167,-79.4724 612.9966,-72.6097"/>
</g>
<!-- Node20 -->
<g id="node21" class="node">
<title>Node20</title>
<g id="a_node21"><a xlink:title=" ">
<polygon fill="#ffffff" stroke="#bfbfbf" points="621,-56.5 621,-75.5 685,-75.5 685,-56.5 621,-56.5"/>
<text text-anchor="middle" x="653" y="-63.5" font-family="Helvetica,sans-Serif" font-size="10.00" fill="#000000">sys/stat.h</text>
</a>
</g>
</g>
<!-- Node11&#45;&gt;Node20 -->
<g id="edge23" class="edge">
<title>Node11&#45;&gt;Node20</title>
<path fill="none" stroke="#191970" d="M815.3064,-112.3733C781.9912,-102.8546 730.924,-88.264 694.9865,-77.9961"/>
<polygon fill="#191970" stroke="#191970" points="695.8556,-74.6045 685.2788,-75.2225 693.9325,-81.3351 695.8556,-74.6045"/>
</g>
<!-- Node21 -->
<g id="node22" class="node">
<title>Node21</title>
<g id="a_node22"><a xlink:title=" ">
<polygon fill="#ffffff" stroke="#bfbfbf" points="703,-56.5 703,-75.5 775,-75.5 775,-56.5 703,-56.5"/>
<text text-anchor="middle" x="739" y="-63.5" font-family="Helvetica,sans-Serif" font-size="10.00" fill="#000000">sys/types.h</text>
</a>
</g>
</g>
<!-- Node11&#45;&gt;Node21 -->
<g id="edge24" class="edge">
<title>Node11&#45;&gt;Node21</title>
<path fill="none" stroke="#191970" d="M829.8395,-112.2455C812.4889,-103.4125 786.7099,-90.2887 767.0417,-80.2758"/>
<polygon fill="#191970" stroke="#191970" points="768.4405,-77.0605 757.941,-75.6427 765.2647,-83.2986 768.4405,-77.0605"/>
</g>
<!-- Node22 -->
<g id="node23" class="node">
<title>Node22</title>
<g id="a_node23"><a xlink:title=" ">
<polygon fill="#ffffff" stroke="#bfbfbf" points="793,-56.5 793,-75.5 849,-75.5 849,-56.5 793,-56.5"/>
<text text-anchor="middle" x="821" y="-63.5" font-family="Helvetica,sans-Serif" font-size="10.00" fill="#000000">unistd.h</text>
</a>
</g>
</g>
<!-- Node11&#45;&gt;Node22 -->
<g id="edge25" class="edge">
<title>Node11&#45;&gt;Node22</title>
<path fill="none" stroke="#191970" d="M844.1228,-112.2455C840.3487,-104.6973 835.0079,-94.0158 830.4099,-84.8197"/>
<polygon fill="#191970" stroke="#191970" points="833.424,-83.0217 825.8213,-75.6427 827.163,-86.1522 833.424,-83.0217"/>
</g>
<!-- Node23&#45;&gt;Node5 -->
<g id="edge27" class="edge">
<title>Node23&#45;&gt;Node5</title>
<path fill="none" stroke="#191970" d="M1308.3441,-112.1144C1308.2643,-97.3625 1305.7112,-69.8447 1289,-56 1253.9916,-26.9966 939.6433,-14.4858 832.5486,-11.0403"/>
<polygon fill="#191970" stroke="#191970" points="832.3727,-7.5331 822.2676,-10.717 832.1527,-14.5296 832.3727,-7.5331"/>
</g>
<!-- Node23&#45;&gt;Node14 -->
<g id="edge30" class="edge">
<title>Node23&#45;&gt;Node14</title>
<path fill="none" stroke="#191970" d="M1297.8972,-112.2455C1289.4972,-104.1352 1277.3506,-92.4075 1267.3916,-82.7919"/>
<polygon fill="#191970" stroke="#191970" points="1269.6122,-80.0707 1259.9871,-75.6427 1264.75,-85.1066 1269.6122,-80.0707"/>
</g>
<!-- Node24 -->
<g id="node25" class="node">
<title>Node24</title>
<g id="a_node25"><a xlink:title=" ">
<polygon fill="#ffffff" stroke="#bfbfbf" points="1336,-56.5 1336,-75.5 1408,-75.5 1408,-56.5 1336,-56.5"/>
<text text-anchor="middle" x="1372" y="-63.5" font-family="Helvetica,sans-Serif" font-size="10.00" fill="#000000">netinet/in.h</text>
</a>
</g>
</g>
<!-- Node23&#45;&gt;Node24 -->
<g id="edge28" class="edge">
<title>Node23&#45;&gt;Node24</title>
<path fill="none" stroke="#191970" d="M1319.1479,-112.2455C1328.5087,-104.0549 1342.0858,-92.1749 1353.1349,-82.5069"/>
<polygon fill="#191970" stroke="#191970" points="1355.7588,-84.8618 1360.9798,-75.6427 1351.1492,-79.5937 1355.7588,-84.8618"/>
</g>
<!-- Node23&#45;&gt;Node25 -->
<g id="edge29" class="edge">
<title>Node23&#45;&gt;Node25</title>
<path fill="none" stroke="#191970" d="M1332.4107,-112.3733C1355.7549,-103.1671 1391.1296,-89.2165 1416.9825,-79.021"/>
<polygon fill="#191970" stroke="#191970" points="1418.361,-82.2397 1426.3797,-75.315 1415.7929,-75.7278 1418.361,-82.2397"/>
</g>
</g>
</svg>
