<?xml version="1.0" encoding="UTF-8" standalone="no"?>
<!DOCTYPE svg PUBLIC "-//W3C//DTD SVG 1.1//EN"
 "http://www.w3.org/Graphics/SVG/1.1/DTD/svg11.dtd">
<!-- Generated by graphviz version 2.40.1 (20161225.0304)
 -->
<!-- Title: /home/pieter/GitHub/EAGLE&#45;ZYBO&#45;Linux/src/logentry/templates/logger.drone.template.cpp Pages: 1 -->
<svg width="257pt" height="106pt"
 viewBox="0.00 0.00 257.00 106.00" xmlns="http://www.w3.org/2000/svg" xmlns:xlink="http://www.w3.org/1999/xlink">
<g id="graph0" class="graph" transform="scale(1 1) rotate(0) translate(4 102)">
<title>/home/pieter/GitHub/EAGLE&#45;ZYBO&#45;Linux/src/logentry/templates/logger.drone.template.cpp</title>
<polygon fill="#ffffff" stroke="transparent" points="-4,4 -4,-102 253,-102 253,4 -4,4"/>
<!-- Node0 -->
<g id="node1" class="node">
<title>Node0</title>
<g id="a_node1"><a xlink:title=" ">
<polygon fill="#bfbfbf" stroke="#000000" points="0,-56.5 0,-97.5 244,-97.5 244,-56.5 0,-56.5"/>
<text text-anchor="start" x="8" y="-85.5" font-family="Helvetica,sans-Serif" font-size="10.00" fill="#000000">/home/pieter/GitHub</text>
<text text-anchor="start" x="8" y="-74.5" font-family="Helvetica,sans-Serif" font-size="10.00" fill="#000000">/EAGLE&#45;ZYBO&#45;Linux/src</text>
<text text-anchor="middle" x="122" y="-63.5" font-family="Helvetica,sans-Serif" font-size="10.00" fill="#000000">/logentry/templates/logger.drone.template.cpp</text>
</a>
</g>
</g>
<!-- Node1 -->
<g id="node2" class="node">
<title>Node1</title>
<g id="a_node2"><a xlink:title=" ">
<polygon fill="#ffffff" stroke="#bfbfbf" points="11.5,-.5 11.5,-19.5 78.5,-19.5 78.5,-.5 11.5,-.5"/>
<text text-anchor="middle" x="45" y="-7.5" font-family="Helvetica,sans-Serif" font-size="10.00" fill="#000000">LogEntry.h</text>
</a>
</g>
</g>
<!-- Node0&#45;&gt;Node1 -->
<g id="edge1" class="edge">
<title>Node0&#45;&gt;Node1</title>
<path fill="none" stroke="#191970" d="M98.0588,-56.168C87.0509,-46.5897 74.1808,-35.3911 63.873,-26.422"/>
<polygon fill="#191970" stroke="#191970" points="66.0817,-23.7043 56.2402,-19.7805 61.4867,-28.9851 66.0817,-23.7043"/>
</g>
<!-- Node2 -->
<g id="node3" class="node">
<title>Node2</title>
<g id="a_node3"><a xlink:title=" ">
<polygon fill="#ffffff" stroke="#bfbfbf" points="97,-.5 97,-19.5 147,-19.5 147,-.5 97,-.5"/>
<text text-anchor="middle" x="122" y="-7.5" font-family="Helvetica,sans-Serif" font-size="10.00" fill="#000000">RC.hpp</text>
</a>
</g>
</g>
<!-- Node0&#45;&gt;Node2 -->
<g id="edge2" class="edge">
<title>Node0&#45;&gt;Node2</title>
<path fill="none" stroke="#191970" d="M122,-56.168C122,-47.8226 122,-38.2471 122,-29.9879"/>
<polygon fill="#191970" stroke="#191970" points="125.5001,-29.7804 122,-19.7805 118.5001,-29.7805 125.5001,-29.7804"/>
</g>
<!-- Node3 -->
<g id="node4" class="node">
<title>Node3</title>
<g id="a_node4"><a xlink:title=" ">
<polygon fill="#ffffff" stroke="#bfbfbf" points="165,-.5 165,-19.5 249,-19.5 249,-.5 165,-.5"/>
<text text-anchor="middle" x="207" y="-7.5" font-family="Helvetica,sans-Serif" font-size="10.00" fill="#000000">Instances.hpp</text>
</a>
</g>
</g>
<!-- Node0&#45;&gt;Node3 -->
<g id="edge3" class="edge">
<title>Node0&#45;&gt;Node3</title>
<path fill="none" stroke="#191970" d="M148.4286,-56.168C160.7005,-46.4949 175.069,-35.1692 186.5033,-26.1562"/>
<polygon fill="#191970" stroke="#191970" points="188.905,-28.7197 194.5919,-19.7805 184.5717,-23.2222 188.905,-28.7197"/>
</g>
</g>
</svg>
