<?xml version="1.0" encoding="UTF-8" standalone="no"?>
<!DOCTYPE svg PUBLIC "-//W3C//DTD SVG 1.1//EN"
 "http://www.w3.org/Graphics/SVG/1.1/DTD/svg11.dtd">
<!-- Generated by graphviz version 2.40.1 (20161225.0304)
 -->
<!-- Title: /home/pieter/GitHub/EAGLE&#45;ZYBO&#45;Linux/src/logger/include/Logger.hpp Pages: 1 -->
<svg width="905pt" height="218pt"
 viewBox="0.00 0.00 904.50 218.00" xmlns="http://www.w3.org/2000/svg" xmlns:xlink="http://www.w3.org/1999/xlink">
<g id="graph0" class="graph" transform="scale(1 1) rotate(0) translate(4 214)">
<title>/home/pieter/GitHub/EAGLE&#45;ZYBO&#45;Linux/src/logger/include/Logger.hpp</title>
<polygon fill="#ffffff" stroke="transparent" points="-4,4 -4,-214 900.5,-214 900.5,4 -4,4"/>
<!-- Node0 -->
<g id="node1" class="node">
<title>Node0</title>
<g id="a_node1"><a xlink:title=" ">
<polygon fill="#bfbfbf" stroke="#000000" points="236,-168.5 236,-209.5 381,-209.5 381,-168.5 236,-168.5"/>
<text text-anchor="start" x="244" y="-197.5" font-family="Helvetica,sans-Serif" font-size="10.00" fill="#000000">/home/pieter/GitHub</text>
<text text-anchor="start" x="244" y="-186.5" font-family="Helvetica,sans-Serif" font-size="10.00" fill="#000000">/EAGLE&#45;ZYBO&#45;Linux/src</text>
<text text-anchor="middle" x="308.5" y="-175.5" font-family="Helvetica,sans-Serif" font-size="10.00" fill="#000000">/logger/include/Logger.hpp</text>
</a>
</g>
</g>
<!-- Node1 -->
<g id="node2" class="node">
<title>Node1</title>
<g id="a_node2"><a xlink:href="BaremetalCommunicationDef_8hpp.html" target="_top" xlink:title=" ">
<polygon fill="#ffffff" stroke="#000000" points="108.5,-112.5 108.5,-131.5 290.5,-131.5 290.5,-112.5 108.5,-112.5"/>
<text text-anchor="middle" x="199.5" y="-119.5" font-family="Helvetica,sans-Serif" font-size="10.00" fill="#000000">BaremetalCommunicationDef.hpp</text>
</a>
</g>
</g>
<!-- Node0&#45;&gt;Node1 -->
<g id="edge1" class="edge">
<title>Node0&#45;&gt;Node1</title>
<path fill="none" stroke="#191970" d="M274.907,-168.3511C258.4342,-158.2256 238.9579,-146.254 223.9257,-137.0139"/>
<polygon fill="#191970" stroke="#191970" points="225.5589,-133.9095 215.2068,-131.6546 221.8932,-139.873 225.5589,-133.9095"/>
</g>
<!-- Node2 -->
<g id="node3" class="node">
<title>Node2</title>
<g id="a_node3"><a xlink:title=" ">
<polygon fill="#ffffff" stroke="#bfbfbf" points="0,-56.5 0,-75.5 67,-75.5 67,-56.5 0,-56.5"/>
<text text-anchor="middle" x="33.5" y="-63.5" font-family="Helvetica,sans-Serif" font-size="10.00" fill="#000000">LogEntry.h</text>
</a>
</g>
</g>
<!-- Node0&#45;&gt;Node2 -->
<g id="edge12" class="edge">
<title>Node0&#45;&gt;Node2</title>
<path fill="none" stroke="#191970" d="M235.7179,-178.7183C193.7958,-170.5243 141.3001,-156.2575 99.5,-132 78.1768,-119.6257 58.8877,-98.6488 46.7461,-83.6649"/>
<polygon fill="#191970" stroke="#191970" points="49.3849,-81.3578 40.4619,-75.6454 43.875,-85.6754 49.3849,-81.3578"/>
</g>
<!-- Node11 -->
<g id="node12" class="node">
<title>Node11</title>
<g id="a_node12"><a xlink:href="MulticastSender_8hpp.html" target="_top" xlink:title=" ">
<polygon fill="#ffffff" stroke="#000000" points="367,-112.5 367,-131.5 482,-131.5 482,-112.5 367,-112.5"/>
<text text-anchor="middle" x="424.5" y="-119.5" font-family="Helvetica,sans-Serif" font-size="10.00" fill="#000000">MulticastSender.hpp</text>
</a>
</g>
</g>
<!-- Node0&#45;&gt;Node11 -->
<g id="edge13" class="edge">
<title>Node0&#45;&gt;Node11</title>
<path fill="none" stroke="#191970" d="M344.2503,-168.3511C361.9464,-158.1301 382.8994,-146.0279 398.9572,-136.7532"/>
<polygon fill="#191970" stroke="#191970" points="400.8757,-139.687 407.7845,-131.6546 397.3746,-133.6254 400.8757,-139.687"/>
</g>
<!-- Node14 -->
<g id="node15" class="node">
<title>Node14</title>
<g id="a_node15"><a xlink:href="SharedMem_8hpp.html" target="_top" xlink:title=" ">
<polygon fill="#ffffff" stroke="#000000" points="667,-112.5 667,-131.5 762,-131.5 762,-112.5 667,-112.5"/>
<text text-anchor="middle" x="714.5" y="-119.5" font-family="Helvetica,sans-Serif" font-size="10.00" fill="#000000">SharedMem.hpp</text>
</a>
</g>
</g>
<!-- Node0&#45;&gt;Node14 -->
<g id="edge17" class="edge">
<title>Node0&#45;&gt;Node14</title>
<path fill="none" stroke="#191970" d="M381.0847,-177.0217C459.8901,-164.0169 584.1679,-143.508 656.6602,-131.545"/>
<polygon fill="#191970" stroke="#191970" points="657.6718,-134.9255 666.9684,-129.8439 656.532,-128.0189 657.6718,-134.9255"/>
</g>
<!-- Node1&#45;&gt;Node2 -->
<g id="edge2" class="edge">
<title>Node1&#45;&gt;Node2</title>
<path fill="none" stroke="#191970" d="M170.9636,-112.3733C143.4798,-103.1016 101.7314,-89.0178 71.4548,-78.804"/>
<polygon fill="#191970" stroke="#191970" points="72.2582,-75.3813 61.664,-75.5011 70.0206,-82.0141 72.2582,-75.3813"/>
</g>
<!-- Node3 -->
<g id="node4" class="node">
<title>Node3</title>
<g id="a_node4"><a xlink:href="SharedStruct_8hpp.html" target="_top" xlink:title=" ">
<polygon fill="#ffffff" stroke="#000000" points="123.5,-56.5 123.5,-75.5 223.5,-75.5 223.5,-56.5 123.5,-56.5"/>
<text text-anchor="middle" x="173.5" y="-63.5" font-family="Helvetica,sans-Serif" font-size="10.00" fill="#000000">SharedStruct.hpp</text>
</a>
</g>
</g>
<!-- Node1&#45;&gt;Node3 -->
<g id="edge3" class="edge">
<title>Node1&#45;&gt;Node3</title>
<path fill="none" stroke="#191970" d="M194.9711,-112.2455C191.4666,-104.6973 186.5073,-94.0158 182.2377,-84.8197"/>
<polygon fill="#191970" stroke="#191970" points="185.3627,-83.2389 177.977,-75.6427 179.0136,-86.1867 185.3627,-83.2389"/>
</g>
<!-- Node4 -->
<g id="node5" class="node">
<title>Node4</title>
<g id="a_node5"><a xlink:title=" ">
<polygon fill="#ffffff" stroke="#bfbfbf" points="63.5,-.5 63.5,-19.5 115.5,-19.5 115.5,-.5 63.5,-.5"/>
<text text-anchor="middle" x="89.5" y="-7.5" font-family="Helvetica,sans-Serif" font-size="10.00" fill="#000000">cassert</text>
</a>
</g>
</g>
<!-- Node1&#45;&gt;Node4 -->
<g id="edge9" class="edge">
<title>Node1&#45;&gt;Node4</title>
<path fill="none" stroke="#191970" d="M170.88,-112.4781C152.5705,-105.0885 129.5199,-93.1799 114.5,-76 103.0455,-62.8983 96.6058,-44.0188 93.1422,-29.8056"/>
<polygon fill="#191970" stroke="#191970" points="96.4755,-28.6549 90.9636,-19.6067 89.6299,-30.1173 96.4755,-28.6549"/>
</g>
<!-- Node9 -->
<g id="node10" class="node">
<title>Node9</title>
<g id="a_node10"><a xlink:title=" ">
<polygon fill="#ffffff" stroke="#bfbfbf" points="242,-56.5 242,-75.5 289,-75.5 289,-56.5 242,-56.5"/>
<text text-anchor="middle" x="265.5" y="-63.5" font-family="Helvetica,sans-Serif" font-size="10.00" fill="#000000">cmath</text>
</a>
</g>
</g>
<!-- Node1&#45;&gt;Node9 -->
<g id="edge10" class="edge">
<title>Node1&#45;&gt;Node9</title>
<path fill="none" stroke="#191970" d="M210.9963,-112.2455C220.7442,-103.9746 234.9259,-91.9416 246.3798,-82.2232"/>
<polygon fill="#191970" stroke="#191970" points="248.7747,-84.7813 254.1354,-75.6427 244.2459,-79.4437 248.7747,-84.7813"/>
</g>
<!-- Node10 -->
<g id="node11" class="node">
<title>Node10</title>
<g id="a_node11"><a xlink:title=" ">
<polygon fill="#ffffff" stroke="#bfbfbf" points="307,-56.5 307,-75.5 364,-75.5 364,-56.5 307,-56.5"/>
<text text-anchor="middle" x="335.5" y="-63.5" font-family="Helvetica,sans-Serif" font-size="10.00" fill="#000000">ostream</text>
</a>
</g>
</g>
<!-- Node1&#45;&gt;Node10 -->
<g id="edge11" class="edge">
<title>Node1&#45;&gt;Node10</title>
<path fill="none" stroke="#191970" d="M222.8792,-112.3733C245.0045,-103.2629 278.4134,-89.5062 303.1019,-79.3404"/>
<polygon fill="#191970" stroke="#191970" points="304.5117,-82.5451 312.4258,-75.5011 301.8464,-76.0723 304.5117,-82.5451"/>
</g>
<!-- Node3&#45;&gt;Node4 -->
<g id="edge4" class="edge">
<title>Node3&#45;&gt;Node4</title>
<path fill="none" stroke="#191970" d="M158.8683,-56.2455C146.1006,-47.7337 127.3562,-35.2375 112.5701,-25.3801"/>
<polygon fill="#191970" stroke="#191970" points="114.226,-22.2775 103.964,-19.6427 110.3431,-28.1019 114.226,-22.2775"/>
</g>
<!-- Node5 -->
<g id="node6" class="node">
<title>Node5</title>
<g id="a_node6"><a xlink:title=" ">
<polygon fill="#ffffff" stroke="#bfbfbf" points="367.5,-.5 367.5,-19.5 417.5,-19.5 417.5,-.5 367.5,-.5"/>
<text text-anchor="middle" x="392.5" y="-7.5" font-family="Helvetica,sans-Serif" font-size="10.00" fill="#000000">cstdint</text>
</a>
</g>
</g>
<!-- Node3&#45;&gt;Node5 -->
<g id="edge5" class="edge">
<title>Node3&#45;&gt;Node5</title>
<path fill="none" stroke="#191970" d="M213.4398,-56.4216C250.7774,-47.371 308.0402,-33.2442 357.5,-20 357.5992,-19.9734 357.6985,-19.9468 357.798,-19.9201"/>
<polygon fill="#191970" stroke="#191970" points="358.5779,-23.3356 367.2928,-17.3105 356.7228,-16.5859 358.5779,-23.3356"/>
</g>
<!-- Node6 -->
<g id="node7" class="node">
<title>Node6</title>
<g id="a_node7"><a xlink:title=" ">
<polygon fill="#ffffff" stroke="#bfbfbf" points="134,-.5 134,-19.5 199,-19.5 199,-.5 134,-.5"/>
<text text-anchor="middle" x="166.5" y="-7.5" font-family="Helvetica,sans-Serif" font-size="10.00" fill="#000000">stdexcept</text>
</a>
</g>
</g>
<!-- Node3&#45;&gt;Node6 -->
<g id="edge6" class="edge">
<title>Node3&#45;&gt;Node6</title>
<path fill="none" stroke="#191970" d="M172.2807,-56.2455C171.3673,-48.9382 170.0868,-38.6944 168.9631,-29.7046"/>
<polygon fill="#191970" stroke="#191970" points="172.4187,-29.1313 167.7053,-19.6427 165.4728,-29.9996 172.4187,-29.1313"/>
</g>
<!-- Node7 -->
<g id="node8" class="node">
<title>Node7</title>
<g id="a_node8"><a xlink:title=" ">
<polygon fill="#ffffff" stroke="#bfbfbf" points="217.5,-.5 217.5,-19.5 261.5,-19.5 261.5,-.5 217.5,-.5"/>
<text text-anchor="middle" x="239.5" y="-7.5" font-family="Helvetica,sans-Serif" font-size="10.00" fill="#000000">string</text>
</a>
</g>
</g>
<!-- Node3&#45;&gt;Node7 -->
<g id="edge7" class="edge">
<title>Node3&#45;&gt;Node7</title>
<path fill="none" stroke="#191970" d="M184.9963,-56.2455C194.7442,-47.9746 208.9259,-35.9416 220.3798,-26.2232"/>
<polygon fill="#191970" stroke="#191970" points="222.7747,-28.7813 228.1354,-19.6427 218.2459,-23.4437 222.7747,-28.7813"/>
</g>
<!-- Node8 -->
<g id="node9" class="node">
<title>Node8</title>
<g id="a_node9"><a xlink:title=" ">
<polygon fill="#ffffff" stroke="#bfbfbf" points="280,-.5 280,-19.5 349,-19.5 349,-.5 280,-.5"/>
<text text-anchor="middle" x="314.5" y="-7.5" font-family="Helvetica,sans-Serif" font-size="10.00" fill="#000000">type_traits</text>
</a>
</g>
</g>
<!-- Node3&#45;&gt;Node8 -->
<g id="edge8" class="edge">
<title>Node3&#45;&gt;Node8</title>
<path fill="none" stroke="#191970" d="M197.7388,-56.3733C220.7789,-47.2226 255.6214,-33.3844 281.2501,-23.2057"/>
<polygon fill="#191970" stroke="#191970" points="282.5756,-26.4452 290.5775,-19.5011 279.9918,-19.9395 282.5756,-26.4452"/>
</g>
<!-- Node11&#45;&gt;Node5 -->
<g id="edge14" class="edge">
<title>Node11&#45;&gt;Node5</title>
<path fill="none" stroke="#191970" d="M421.7717,-112.4509C416.5289,-94.1013 404.9545,-53.5908 398.0341,-29.3693"/>
<polygon fill="#191970" stroke="#191970" points="401.334,-28.1786 395.2214,-19.5249 394.6033,-30.1017 401.334,-28.1786"/>
</g>
<!-- Node12 -->
<g id="node13" class="node">
<title>Node12</title>
<g id="a_node13"><a xlink:title=" ">
<polygon fill="#ffffff" stroke="#bfbfbf" points="420.5,-56.5 420.5,-75.5 492.5,-75.5 492.5,-56.5 420.5,-56.5"/>
<text text-anchor="middle" x="456.5" y="-63.5" font-family="Helvetica,sans-Serif" font-size="10.00" fill="#000000">netinet/in.h</text>
</a>
</g>
</g>
<!-- Node11&#45;&gt;Node12 -->
<g id="edge15" class="edge">
<title>Node11&#45;&gt;Node12</title>
<path fill="none" stroke="#191970" d="M430.074,-112.2455C434.4331,-104.617 440.6211,-93.7881 445.9133,-84.5267"/>
<polygon fill="#191970" stroke="#191970" points="449.0673,-86.0616 450.9899,-75.6427 442.9896,-82.5886 449.0673,-86.0616"/>
</g>
<!-- Node13 -->
<g id="node14" class="node">
<title>Node13</title>
<g id="a_node14"><a xlink:title=" ">
<polygon fill="#ffffff" stroke="#bfbfbf" points="511,-56.5 511,-75.5 558,-75.5 558,-56.5 511,-56.5"/>
<text text-anchor="middle" x="534.5" y="-63.5" font-family="Helvetica,sans-Serif" font-size="10.00" fill="#000000">vector</text>
</a>
</g>
</g>
<!-- Node11&#45;&gt;Node13 -->
<g id="edge16" class="edge">
<title>Node11&#45;&gt;Node13</title>
<path fill="none" stroke="#191970" d="M443.6605,-112.2455C461.0111,-103.4125 486.7901,-90.2887 506.4583,-80.2758"/>
<polygon fill="#191970" stroke="#191970" points="508.2353,-83.2986 515.559,-75.6427 505.0595,-77.0605 508.2353,-83.2986"/>
</g>
<!-- Node15 -->
<g id="node16" class="node">
<title>Node15</title>
<g id="a_node16"><a xlink:href="ANSIColors_8hpp.html" target="_top" xlink:title=" ">
<polygon fill="#ffffff" stroke="#000000" points="576.5,-56.5 576.5,-75.5 668.5,-75.5 668.5,-56.5 576.5,-56.5"/>
<text text-anchor="middle" x="622.5" y="-63.5" font-family="Helvetica,sans-Serif" font-size="10.00" fill="#000000">ANSIColors.hpp</text>
</a>
</g>
</g>
<!-- Node14&#45;&gt;Node15 -->
<g id="edge18" class="edge">
<title>Node14&#45;&gt;Node15</title>
<path fill="none" stroke="#191970" d="M698.4748,-112.2455C684.3592,-103.6534 663.5737,-91.0014 647.3101,-81.1018"/>
<polygon fill="#191970" stroke="#191970" points="648.7034,-77.8525 638.3415,-75.6427 645.0637,-83.8319 648.7034,-77.8525"/>
</g>
<!-- Node16 -->
<g id="node17" class="node">
<title>Node16</title>
<g id="a_node17"><a xlink:title=" ">
<polygon fill="#ffffff" stroke="#bfbfbf" points="686.5,-56.5 686.5,-75.5 742.5,-75.5 742.5,-56.5 686.5,-56.5"/>
<text text-anchor="middle" x="714.5" y="-63.5" font-family="Helvetica,sans-Serif" font-size="10.00" fill="#000000">iomanip</text>
</a>
</g>
</g>
<!-- Node14&#45;&gt;Node16 -->
<g id="edge19" class="edge">
<title>Node14&#45;&gt;Node16</title>
<path fill="none" stroke="#191970" d="M714.5,-112.2455C714.5,-104.9382 714.5,-94.6944 714.5,-85.7046"/>
<polygon fill="#191970" stroke="#191970" points="718.0001,-85.6426 714.5,-75.6427 711.0001,-85.6427 718.0001,-85.6426"/>
</g>
<!-- Node17 -->
<g id="node18" class="node">
<title>Node17</title>
<g id="a_node18"><a xlink:title=" ">
<polygon fill="#ffffff" stroke="#bfbfbf" points="760.5,-56.5 760.5,-75.5 820.5,-75.5 820.5,-56.5 760.5,-56.5"/>
<text text-anchor="middle" x="790.5" y="-63.5" font-family="Helvetica,sans-Serif" font-size="10.00" fill="#000000">iostream</text>
</a>
</g>
</g>
<!-- Node14&#45;&gt;Node17 -->
<g id="edge20" class="edge">
<title>Node14&#45;&gt;Node17</title>
<path fill="none" stroke="#191970" d="M727.7382,-112.2455C739.181,-103.814 755.9296,-91.4729 769.2475,-81.6598"/>
<polygon fill="#191970" stroke="#191970" points="771.4391,-84.3924 777.4135,-75.6427 767.2867,-78.757 771.4391,-84.3924"/>
</g>
<!-- Node18 -->
<g id="node19" class="node">
<title>Node18</title>
<g id="a_node19"><a xlink:title=" ">
<polygon fill="#ffffff" stroke="#bfbfbf" points="838.5,-56.5 838.5,-75.5 896.5,-75.5 896.5,-56.5 838.5,-56.5"/>
<text text-anchor="middle" x="867.5" y="-63.5" font-family="Helvetica,sans-Serif" font-size="10.00" fill="#000000">memory</text>
</a>
</g>
</g>
<!-- Node14&#45;&gt;Node18 -->
<g id="edge21" class="edge">
<title>Node14&#45;&gt;Node18</title>
<path fill="none" stroke="#191970" d="M740.8016,-112.3733C765.9128,-103.1822 803.9438,-89.2624 831.7872,-79.0713"/>
<polygon fill="#191970" stroke="#191970" points="833.3538,-82.2251 841.5416,-75.5011 830.9478,-75.6516 833.3538,-82.2251"/>
</g>
</g>
</svg>
