<?xml version="1.0" encoding="UTF-8" standalone="no"?>
<!DOCTYPE svg PUBLIC "-//W3C//DTD SVG 1.1//EN"
 "http://www.w3.org/Graphics/SVG/1.1/DTD/svg11.dtd">
<!-- Generated by graphviz version 2.40.1 (20161225.0304)
 -->
<!-- Title: /home/pieter/GitHub/EAGLE&#45;ZYBO&#45;Linux/build/src/logentry/include&#45;generated/LoggerStructs.hpp Pages: 1 -->
<svg width="525pt" height="285pt"
 viewBox="0.00 0.00 524.50 285.00" xmlns="http://www.w3.org/2000/svg" xmlns:xlink="http://www.w3.org/1999/xlink">
<g id="graph0" class="graph" transform="scale(1 1) rotate(0) translate(4 281)">
<title>/home/pieter/GitHub/EAGLE&#45;ZYBO&#45;Linux/build/src/logentry/include&#45;generated/LoggerStructs.hpp</title>
<polygon fill="#ffffff" stroke="transparent" points="-4,4 -4,-281 520.5,-281 520.5,4 -4,4"/>
<!-- Node0 -->
<g id="node1" class="node">
<title>Node0</title>
<g id="a_node1"><a xlink:title=" ">
<polygon fill="#bfbfbf" stroke="#000000" points="205.5,-224.5 205.5,-276.5 374.5,-276.5 374.5,-224.5 205.5,-224.5"/>
<text text-anchor="start" x="213.5" y="-264.5" font-family="Helvetica,sans-Serif" font-size="10.00" fill="#000000">/home/pieter/GitHub</text>
<text text-anchor="start" x="213.5" y="-253.5" font-family="Helvetica,sans-Serif" font-size="10.00" fill="#000000">/EAGLE&#45;ZYBO&#45;Linux/build</text>
<text text-anchor="start" x="213.5" y="-242.5" font-family="Helvetica,sans-Serif" font-size="10.00" fill="#000000">/src/logentry/include&#45;generated</text>
<text text-anchor="middle" x="290" y="-231.5" font-family="Helvetica,sans-Serif" font-size="10.00" fill="#000000">/LoggerStructs.hpp</text>
</a>
</g>
</g>
<!-- Node1 -->
<g id="node2" class="node">
<title>Node1</title>
<g id="a_node2"><a xlink:href="Quaternion_8hpp.html" target="_top" xlink:title=" ">
<polygon fill="#ffffff" stroke="#000000" points="244,-168.5 244,-187.5 336,-187.5 336,-168.5 244,-168.5"/>
<text text-anchor="middle" x="290" y="-175.5" font-family="Helvetica,sans-Serif" font-size="10.00" fill="#000000">Quaternion.hpp</text>
</a>
</g>
</g>
<!-- Node0&#45;&gt;Node1 -->
<g id="edge1" class="edge">
<title>Node0&#45;&gt;Node1</title>
<path fill="none" stroke="#191970" d="M290,-224.3258C290,-215.5142 290,-205.8397 290,-197.621"/>
<polygon fill="#191970" stroke="#191970" points="293.5001,-197.534 290,-187.534 286.5001,-197.534 293.5001,-197.534"/>
</g>
<!-- Node2 -->
<g id="node3" class="node">
<title>Node2</title>
<g id="a_node3"><a xlink:href="Matrix_8hpp.html" target="_top" xlink:title=" ">
<polygon fill="#ffffff" stroke="#000000" points="212,-112.5 212,-131.5 280,-131.5 280,-112.5 212,-112.5"/>
<text text-anchor="middle" x="246" y="-119.5" font-family="Helvetica,sans-Serif" font-size="10.00" fill="#000000">Matrix.hpp</text>
</a>
</g>
</g>
<!-- Node1&#45;&gt;Node2 -->
<g id="edge2" class="edge">
<title>Node1&#45;&gt;Node2</title>
<path fill="none" stroke="#191970" d="M282.3358,-168.2455C276.1527,-160.3761 267.2937,-149.101 259.8711,-139.6542"/>
<polygon fill="#191970" stroke="#191970" points="262.5068,-137.3435 253.5764,-131.6427 257.0025,-141.6683 262.5068,-137.3435"/>
</g>
<!-- Node15 -->
<g id="node16" class="node">
<title>Node15</title>
<g id="a_node16"><a xlink:href="Square_8hpp.html" target="_top" xlink:title=" ">
<polygon fill="#ffffff" stroke="#000000" points="298.5,-112.5 298.5,-131.5 369.5,-131.5 369.5,-112.5 298.5,-112.5"/>
<text text-anchor="middle" x="334" y="-119.5" font-family="Helvetica,sans-Serif" font-size="10.00" fill="#000000">Square.hpp</text>
</a>
</g>
</g>
<!-- Node1&#45;&gt;Node15 -->
<g id="edge17" class="edge">
<title>Node1&#45;&gt;Node15</title>
<path fill="none" stroke="#191970" d="M297.6642,-168.2455C303.8473,-160.3761 312.7063,-149.101 320.1289,-139.6542"/>
<polygon fill="#191970" stroke="#191970" points="322.9975,-141.6683 326.4236,-131.6427 317.4932,-137.3435 322.9975,-141.6683"/>
</g>
<!-- Node3 -->
<g id="node4" class="node">
<title>Node3</title>
<g id="a_node4"><a xlink:href="Array_8hpp.html" target="_top" xlink:title=" ">
<polygon fill="#ffffff" stroke="#000000" points="145,-56.5 145,-75.5 207,-75.5 207,-56.5 145,-56.5"/>
<text text-anchor="middle" x="176" y="-63.5" font-family="Helvetica,sans-Serif" font-size="10.00" fill="#000000">Array.hpp</text>
</a>
</g>
</g>
<!-- Node2&#45;&gt;Node3 -->
<g id="edge3" class="edge">
<title>Node2&#45;&gt;Node3</title>
<path fill="none" stroke="#191970" d="M233.8069,-112.2455C223.3679,-103.8943 208.1345,-91.7076 195.926,-81.9408"/>
<polygon fill="#191970" stroke="#191970" points="198.0485,-79.1566 188.0533,-75.6427 193.6756,-84.6227 198.0485,-79.1566"/>
</g>
<!-- Node4 -->
<g id="node5" class="node">
<title>Node4</title>
<g id="a_node5"><a xlink:title=" ">
<polygon fill="#ffffff" stroke="#bfbfbf" points="0,-.5 0,-19.5 64,-19.5 64,-.5 0,-.5"/>
<text text-anchor="middle" x="32" y="-7.5" font-family="Helvetica,sans-Serif" font-size="10.00" fill="#000000">algorithm</text>
</a>
</g>
</g>
<!-- Node2&#45;&gt;Node4 -->
<g id="edge10" class="edge">
<title>Node2&#45;&gt;Node4</title>
<path fill="none" stroke="#191970" d="M211.9224,-112.7201C185.6456,-104.8491 148.8689,-92.2497 119,-76 93.4731,-62.1125 67.3248,-41.1939 50.4508,-26.6428"/>
<polygon fill="#191970" stroke="#191970" points="52.3488,-23.6517 42.5245,-19.6849 47.7308,-28.9124 52.3488,-23.6517"/>
</g>
<!-- Node5 -->
<g id="node6" class="node">
<title>Node5</title>
<g id="a_node6"><a xlink:title=" ">
<polygon fill="#ffffff" stroke="#bfbfbf" points="82.5,-.5 82.5,-19.5 129.5,-19.5 129.5,-.5 82.5,-.5"/>
<text text-anchor="middle" x="106" y="-7.5" font-family="Helvetica,sans-Serif" font-size="10.00" fill="#000000">cmath</text>
</a>
</g>
</g>
<!-- Node2&#45;&gt;Node5 -->
<g id="edge12" class="edge">
<title>Node2&#45;&gt;Node5</title>
<path fill="none" stroke="#191970" d="M211.7797,-114.7235C187.9712,-108.1268 156.8766,-96.2485 136,-76 123.0406,-63.4305 115.1854,-44.2265 110.7831,-29.7687"/>
<polygon fill="#191970" stroke="#191970" points="114.0777,-28.5478 108.0623,-19.8263 107.326,-30.3955 114.0777,-28.5478"/>
</g>
<!-- Node10 -->
<g id="node11" class="node">
<title>Node10</title>
<g id="a_node11"><a xlink:title=" ">
<polygon fill="#ffffff" stroke="#bfbfbf" points="225,-56.5 225,-75.5 267,-75.5 267,-56.5 225,-56.5"/>
<text text-anchor="middle" x="246" y="-63.5" font-family="Helvetica,sans-Serif" font-size="10.00" fill="#000000">array</text>
</a>
</g>
</g>
<!-- Node2&#45;&gt;Node10 -->
<g id="edge11" class="edge">
<title>Node2&#45;&gt;Node10</title>
<path fill="none" stroke="#191970" d="M246,-112.2455C246,-104.9382 246,-94.6944 246,-85.7046"/>
<polygon fill="#191970" stroke="#191970" points="249.5001,-85.6426 246,-75.6427 242.5001,-85.6427 249.5001,-85.6426"/>
</g>
<!-- Node11 -->
<g id="node12" class="node">
<title>Node11</title>
<g id="a_node12"><a xlink:title=" ">
<polygon fill="#ffffff" stroke="#bfbfbf" points="285,-56.5 285,-75.5 341,-75.5 341,-56.5 285,-56.5"/>
<text text-anchor="middle" x="313" y="-63.5" font-family="Helvetica,sans-Serif" font-size="10.00" fill="#000000">iomanip</text>
</a>
</g>
</g>
<!-- Node2&#45;&gt;Node11 -->
<g id="edge13" class="edge">
<title>Node2&#45;&gt;Node11</title>
<path fill="none" stroke="#191970" d="M257.6705,-112.2455C267.5661,-103.9746 281.9627,-91.9416 293.5901,-82.2232"/>
<polygon fill="#191970" stroke="#191970" points="296.035,-84.7413 301.4632,-75.6427 291.5458,-79.3703 296.035,-84.7413"/>
</g>
<!-- Node12 -->
<g id="node13" class="node">
<title>Node12</title>
<g id="a_node13"><a xlink:title=" ">
<polygon fill="#ffffff" stroke="#bfbfbf" points="359.5,-56.5 359.5,-75.5 416.5,-75.5 416.5,-56.5 359.5,-56.5"/>
<text text-anchor="middle" x="388" y="-63.5" font-family="Helvetica,sans-Serif" font-size="10.00" fill="#000000">ostream</text>
</a>
</g>
</g>
<!-- Node2&#45;&gt;Node12 -->
<g id="edge14" class="edge">
<title>Node2&#45;&gt;Node12</title>
<path fill="none" stroke="#191970" d="M270.4107,-112.3733C293.6142,-103.2226 328.7038,-89.3844 354.5142,-79.2057"/>
<polygon fill="#191970" stroke="#191970" points="355.8892,-82.4258 363.9079,-75.5011 353.3211,-75.9139 355.8892,-82.4258"/>
</g>
<!-- Node13 -->
<g id="node14" class="node">
<title>Node13</title>
<g id="a_node14"><a xlink:href="real__t_8h.html" target="_top" xlink:title=" ">
<polygon fill="#ffffff" stroke="#000000" points="448.5,-56.5 448.5,-75.5 501.5,-75.5 501.5,-56.5 448.5,-56.5"/>
<text text-anchor="middle" x="475" y="-63.5" font-family="Helvetica,sans-Serif" font-size="10.00" fill="#000000">real_t.h</text>
</a>
</g>
</g>
<!-- Node2&#45;&gt;Node13 -->
<g id="edge15" class="edge">
<title>Node2&#45;&gt;Node13</title>
<path fill="none" stroke="#191970" d="M280.2836,-113.6162C322.7919,-103.2212 394.9432,-85.5772 438.4671,-74.9338"/>
<polygon fill="#191970" stroke="#191970" points="439.4705,-78.2917 448.3528,-72.5163 437.8076,-71.492 439.4705,-78.2917"/>
</g>
<!-- Node3&#45;&gt;Node4 -->
<g id="edge4" class="edge">
<title>Node3&#45;&gt;Node4</title>
<path fill="none" stroke="#191970" d="M151.2455,-56.3733C127.7151,-47.2226 92.1313,-33.3844 65.9574,-23.2057"/>
<polygon fill="#191970" stroke="#191970" points="67.0201,-19.8636 56.4315,-19.5011 64.4829,-26.3877 67.0201,-19.8636"/>
</g>
<!-- Node3&#45;&gt;Node5 -->
<g id="edge5" class="edge">
<title>Node3&#45;&gt;Node5</title>
<path fill="none" stroke="#191970" d="M163.8069,-56.2455C153.3679,-47.8943 138.1345,-35.7076 125.926,-25.9408"/>
<polygon fill="#191970" stroke="#191970" points="128.0485,-23.1566 118.0533,-19.6427 123.6756,-28.6227 128.0485,-23.1566"/>
</g>
<!-- Node6 -->
<g id="node7" class="node">
<title>Node6</title>
<g id="a_node7"><a xlink:title=" ">
<polygon fill="#ffffff" stroke="#bfbfbf" points="392.5,-.5 392.5,-19.5 445.5,-19.5 445.5,-.5 392.5,-.5"/>
<text text-anchor="middle" x="419" y="-7.5" font-family="Helvetica,sans-Serif" font-size="10.00" fill="#000000">cstddef</text>
</a>
</g>
</g>
<!-- Node3&#45;&gt;Node6 -->
<g id="edge6" class="edge">
<title>Node3&#45;&gt;Node6</title>
<path fill="none" stroke="#191970" d="M207.4186,-58.0386C210.3168,-57.3364 213.2109,-56.6473 216,-56 287.3339,-39.4453 308.2188,-38.5477 382.4687,-20.2723"/>
<polygon fill="#191970" stroke="#191970" points="383.4363,-23.6383 392.2967,-17.8294 381.7477,-16.8451 383.4363,-23.6383"/>
</g>
<!-- Node7 -->
<g id="node8" class="node">
<title>Node7</title>
<g id="a_node8"><a xlink:title=" ">
<polygon fill="#ffffff" stroke="#bfbfbf" points="148,-.5 148,-19.5 204,-19.5 204,-.5 148,-.5"/>
<text text-anchor="middle" x="176" y="-7.5" font-family="Helvetica,sans-Serif" font-size="10.00" fill="#000000">numeric</text>
</a>
</g>
</g>
<!-- Node3&#45;&gt;Node7 -->
<g id="edge7" class="edge">
<title>Node3&#45;&gt;Node7</title>
<path fill="none" stroke="#191970" d="M176,-56.2455C176,-48.9382 176,-38.6944 176,-29.7046"/>
<polygon fill="#191970" stroke="#191970" points="179.5001,-29.6426 176,-19.6427 172.5001,-29.6427 179.5001,-29.6426"/>
</g>
<!-- Node8 -->
<g id="node9" class="node">
<title>Node8</title>
<g id="a_node9"><a xlink:title=" ">
<polygon fill="#ffffff" stroke="#bfbfbf" points="222.5,-.5 222.5,-19.5 291.5,-19.5 291.5,-.5 222.5,-.5"/>
<text text-anchor="middle" x="257" y="-7.5" font-family="Helvetica,sans-Serif" font-size="10.00" fill="#000000">type_traits</text>
</a>
</g>
</g>
<!-- Node3&#45;&gt;Node8 -->
<g id="edge8" class="edge">
<title>Node3&#45;&gt;Node8</title>
<path fill="none" stroke="#191970" d="M190.1091,-56.2455C202.4209,-47.7337 220.4958,-35.2375 234.7538,-25.3801"/>
<polygon fill="#191970" stroke="#191970" points="236.8174,-28.2085 243.0526,-19.6427 232.8366,-22.4506 236.8174,-28.2085"/>
</g>
<!-- Node9 -->
<g id="node10" class="node">
<title>Node9</title>
<g id="a_node10"><a xlink:title=" ">
<polygon fill="#ffffff" stroke="#bfbfbf" points="309.5,-.5 309.5,-19.5 374.5,-19.5 374.5,-.5 309.5,-.5"/>
<text text-anchor="middle" x="342" y="-7.5" font-family="Helvetica,sans-Serif" font-size="10.00" fill="#000000">stdexcept</text>
</a>
</g>
</g>
<!-- Node3&#45;&gt;Node9 -->
<g id="edge9" class="edge">
<title>Node3&#45;&gt;Node9</title>
<path fill="none" stroke="#191970" d="M204.5364,-56.3733C232.0202,-47.1016 273.7686,-33.0178 304.0452,-22.804"/>
<polygon fill="#191970" stroke="#191970" points="305.4794,-26.0141 313.836,-19.5011 303.2418,-19.3813 305.4794,-26.0141"/>
</g>
<!-- Node14 -->
<g id="node15" class="node">
<title>Node14</title>
<g id="a_node15"><a xlink:title=" ">
<polygon fill="#ffffff" stroke="#bfbfbf" points="463.5,-.5 463.5,-19.5 516.5,-19.5 516.5,-.5 463.5,-.5"/>
<text text-anchor="middle" x="490" y="-7.5" font-family="Helvetica,sans-Serif" font-size="10.00" fill="#000000">stdint.h</text>
</a>
</g>
</g>
<!-- Node13&#45;&gt;Node14 -->
<g id="edge16" class="edge">
<title>Node13&#45;&gt;Node14</title>
<path fill="none" stroke="#191970" d="M477.6128,-56.2455C479.5916,-48.8579 482.3744,-38.4689 484.8012,-29.4087"/>
<polygon fill="#191970" stroke="#191970" points="488.2105,-30.2078 487.4171,-19.6427 481.4489,-28.3966 488.2105,-30.2078"/>
</g>
</g>
</svg>
