<?xml version="1.0" encoding="UTF-8" standalone="no"?>
<!DOCTYPE svg PUBLIC "-//W3C//DTD SVG 1.1//EN"
 "http://www.w3.org/Graphics/SVG/1.1/DTD/svg11.dtd">
<!-- Generated by graphviz version 2.40.1 (20161225.0304)
 -->
<!-- Title: applyMaskFunction Pages: 1 -->
<svg width="328pt" height="28pt"
 viewBox="0.00 0.00 328.00 28.00" xmlns="http://www.w3.org/2000/svg" xmlns:xlink="http://www.w3.org/1999/xlink">
<g id="graph0" class="graph" transform="scale(1 1) rotate(0) translate(4 24)">
<title>applyMaskFunction</title>
<polygon fill="#ffffff" stroke="transparent" points="-4,4 -4,-24 324,-24 324,4 -4,4"/>
<!-- Node9 -->
<g id="node1" class="node">
<title>Node9</title>
<g id="a_node1"><a xlink:title="Calculates &#160;for eight BGR pixels.">
<polygon fill="#bfbfbf" stroke="#000000" points="210,-.5 210,-19.5 320,-19.5 320,-.5 210,-.5"/>
<text text-anchor="middle" x="265" y="-7.5" font-family="Helvetica,sans-Serif" font-size="10.00" fill="#000000">applyMaskFunction</text>
</a>
</g>
</g>
<!-- Node10 -->
<g id="node2" class="node">
<title>Node10</title>
<g id="a_node2"><a xlink:href="Mask-NEON_8hpp.html#a525d99350b2a5ebed4ccee8aa7aa4264" target="_top" xlink:title=" ">
<polygon fill="#ffffff" stroke="#000000" points="105,-.5 105,-19.5 174,-19.5 174,-.5 105,-.5"/>
<text text-anchor="middle" x="139.5" y="-7.5" font-family="Helvetica,sans-Serif" font-size="10.00" fill="#000000">applyMask</text>
</a>
</g>
</g>
<!-- Node9&#45;&gt;Node10 -->
<g id="edge1" class="edge">
<title>Node9&#45;&gt;Node10</title>
<path fill="none" stroke="#191970" d="M199.6778,-10C190.9154,-10 182.2199,-10 174.2765,-10"/>
<polygon fill="#191970" stroke="#191970" points="199.9539,-13.5001 209.9539,-10 199.9538,-6.5001 199.9539,-13.5001"/>
</g>
<!-- Node11 -->
<g id="node3" class="node">
<title>Node11</title>
<g id="a_node3"><a xlink:href="Mask-NEON_8hpp.html#a1d892e32437b94028b40818bd2908513" target="_top" xlink:title=" ">
<polygon fill="#ffffff" stroke="#000000" points="0,-.5 0,-19.5 69,-19.5 69,-.5 0,-.5"/>
<text text-anchor="middle" x="34.5" y="-7.5" font-family="Helvetica,sans-Serif" font-size="10.00" fill="#000000">applyMask</text>
</a>
</g>
</g>
<!-- Node10&#45;&gt;Node11 -->
<g id="edge2" class="edge">
<title>Node10&#45;&gt;Node11</title>
<path fill="none" stroke="#191970" d="M94.6216,-10C86.0916,-10 77.2874,-10 69.1355,-10"/>
<polygon fill="#191970" stroke="#191970" points="94.8281,-13.5001 104.8281,-10 94.828,-6.5001 94.8281,-13.5001"/>
</g>
</g>
</svg>
