<?xml version="1.0" encoding="UTF-8" standalone="no"?>
<!DOCTYPE svg PUBLIC "-//W3C//DTD SVG 1.1//EN"
 "http://www.w3.org/Graphics/SVG/1.1/DTD/svg11.dtd">
<!-- Generated by graphviz version 2.40.1 (20161225.0304)
 -->
<!-- Title: /home/pieter/GitHub/EAGLE&#45;ZYBO&#45;Linux/src/mask/include/Mask.hpp Pages: 1 -->
<svg width="248pt" height="162pt"
 viewBox="0.00 0.00 247.50 162.00" xmlns="http://www.w3.org/2000/svg" xmlns:xlink="http://www.w3.org/1999/xlink">
<g id="graph0" class="graph" transform="scale(1 1) rotate(0) translate(4 158)">
<title>/home/pieter/GitHub/EAGLE&#45;ZYBO&#45;Linux/src/mask/include/Mask.hpp</title>
<polygon fill="#ffffff" stroke="transparent" points="-4,4 -4,-158 243.5,-158 243.5,4 -4,4"/>
<!-- Node0 -->
<g id="node1" class="node">
<title>Node0</title>
<g id="a_node1"><a xlink:title=" ">
<polygon fill="#bfbfbf" stroke="#000000" points="54,-112.5 54,-153.5 188,-153.5 188,-112.5 54,-112.5"/>
<text text-anchor="start" x="62" y="-141.5" font-family="Helvetica,sans-Serif" font-size="10.00" fill="#000000">/home/pieter/GitHub</text>
<text text-anchor="start" x="62" y="-130.5" font-family="Helvetica,sans-Serif" font-size="10.00" fill="#000000">/EAGLE&#45;ZYBO&#45;Linux/src</text>
<text text-anchor="middle" x="121" y="-119.5" font-family="Helvetica,sans-Serif" font-size="10.00" fill="#000000">/mask/include/Mask.hpp</text>
</a>
</g>
</g>
<!-- Node1 -->
<g id="node2" class="node">
<title>Node1</title>
<g id="a_node2"><a xlink:href="Pixel_8hpp.html" target="_top" xlink:title=" ">
<polygon fill="#ffffff" stroke="#000000" points="34,-56.5 34,-75.5 96,-75.5 96,-56.5 34,-56.5"/>
<text text-anchor="middle" x="65" y="-63.5" font-family="Helvetica,sans-Serif" font-size="10.00" fill="#000000">Pixel.hpp</text>
</a>
</g>
</g>
<!-- Node0&#45;&gt;Node1 -->
<g id="edge1" class="edge">
<title>Node0&#45;&gt;Node1</title>
<path fill="none" stroke="#191970" d="M103.5882,-112.168C95.8995,-102.9691 86.9617,-92.2756 79.6251,-83.4979"/>
<polygon fill="#191970" stroke="#191970" points="82.2734,-81.2087 73.1747,-75.7805 76.9024,-85.6979 82.2734,-81.2087"/>
</g>
<!-- Node4 -->
<g id="node5" class="node">
<title>Node4</title>
<g id="a_node5"><a xlink:title=" ">
<polygon fill="#ffffff" stroke="#bfbfbf" points="114.5,-56.5 114.5,-75.5 239.5,-75.5 239.5,-56.5 114.5,-56.5"/>
<text text-anchor="middle" x="177" y="-63.5" font-family="Helvetica,sans-Serif" font-size="10.00" fill="#000000">opencv2/core/mat.hpp</text>
</a>
</g>
</g>
<!-- Node0&#45;&gt;Node4 -->
<g id="edge4" class="edge">
<title>Node0&#45;&gt;Node4</title>
<path fill="none" stroke="#191970" d="M138.4118,-112.168C146.1005,-102.9691 155.0383,-92.2756 162.3749,-83.4979"/>
<polygon fill="#191970" stroke="#191970" points="165.0976,-85.6979 168.8253,-75.7805 159.7266,-81.2087 165.0976,-85.6979"/>
</g>
<!-- Node2 -->
<g id="node3" class="node">
<title>Node2</title>
<g id="a_node3"><a xlink:href="uint_8hpp.html" target="_top" xlink:title=" ">
<polygon fill="#ffffff" stroke="#000000" points="0,-.5 0,-19.5 56,-19.5 56,-.5 0,-.5"/>
<text text-anchor="middle" x="28" y="-7.5" font-family="Helvetica,sans-Serif" font-size="10.00" fill="#000000">uint.hpp</text>
</a>
</g>
</g>
<!-- Node1&#45;&gt;Node2 -->
<g id="edge2" class="edge">
<title>Node1&#45;&gt;Node2</title>
<path fill="none" stroke="#191970" d="M58.5551,-56.2455C53.4618,-48.5367 46.2092,-37.5598 40.048,-28.2348"/>
<polygon fill="#191970" stroke="#191970" points="42.8038,-26.0566 34.3711,-19.6427 36.9635,-29.9155 42.8038,-26.0566"/>
</g>
<!-- Node3 -->
<g id="node4" class="node">
<title>Node3</title>
<g id="a_node4"><a xlink:title=" ">
<polygon fill="#ffffff" stroke="#bfbfbf" points="74.5,-.5 74.5,-19.5 131.5,-19.5 131.5,-.5 74.5,-.5"/>
<text text-anchor="middle" x="103" y="-7.5" font-family="Helvetica,sans-Serif" font-size="10.00" fill="#000000">ostream</text>
</a>
</g>
</g>
<!-- Node1&#45;&gt;Node3 -->
<g id="edge3" class="edge">
<title>Node1&#45;&gt;Node3</title>
<path fill="none" stroke="#191970" d="M71.6191,-56.2455C76.9046,-48.4564 84.4541,-37.3308 90.8238,-27.9439"/>
<polygon fill="#191970" stroke="#191970" points="93.7379,-29.8827 96.4568,-19.6427 87.9455,-25.9522 93.7379,-29.8827"/>
</g>
</g>
</svg>
