<?xml version="1.0" encoding="UTF-8" standalone="no"?>
<!DOCTYPE svg PUBLIC "-//W3C//DTD SVG 1.1//EN"
 "http://www.w3.org/Graphics/SVG/1.1/DTD/svg11.dtd">
<!-- Generated by graphviz version 2.40.1 (20161225.0304)
 -->
<!-- Title: applyMask Pages: 1 -->
<svg width="328pt" height="28pt"
 viewBox="0.00 0.00 328.00 28.00" xmlns="http://www.w3.org/2000/svg" xmlns:xlink="http://www.w3.org/1999/xlink">
<g id="graph0" class="graph" transform="scale(1 1) rotate(0) translate(4 24)">
<title>applyMask</title>
<polygon fill="#ffffff" stroke="transparent" points="-4,4 -4,-24 324,-24 324,4 -4,4"/>
<!-- Node4 -->
<g id="node1" class="node">
<title>Node4</title>
<g id="a_node1"><a xlink:title=" ">
<polygon fill="#bfbfbf" stroke="#000000" points="0,-.5 0,-19.5 69,-19.5 69,-.5 0,-.5"/>
<text text-anchor="middle" x="34.5" y="-7.5" font-family="Helvetica,sans-Serif" font-size="10.00" fill="#000000">applyMask</text>
</a>
</g>
</g>
<!-- Node5 -->
<g id="node2" class="node">
<title>Node5</title>
<g id="a_node2"><a xlink:href="Mask-NEON_8hpp.html#a525d99350b2a5ebed4ccee8aa7aa4264" target="_top" xlink:title=" ">
<polygon fill="#ffffff" stroke="#000000" points="105,-.5 105,-19.5 174,-19.5 174,-.5 105,-.5"/>
<text text-anchor="middle" x="139.5" y="-7.5" font-family="Helvetica,sans-Serif" font-size="10.00" fill="#000000">applyMask</text>
</a>
</g>
</g>
<!-- Node4&#45;&gt;Node5 -->
<g id="edge1" class="edge">
<title>Node4&#45;&gt;Node5</title>
<path fill="none" stroke="#191970" d="M69.1719,-10C77.3257,-10 86.1305,-10 94.6597,-10"/>
<polygon fill="#191970" stroke="#191970" points="94.8645,-13.5001 104.8645,-10 94.8644,-6.5001 94.8645,-13.5001"/>
</g>
<!-- Node6 -->
<g id="node3" class="node">
<title>Node6</title>
<g id="a_node3"><a xlink:href="Mask-NEON_8hpp.html#a0dda7e336e328c2e01b5cdac663a5623" target="_top" xlink:title="Calculates &#160;for eight BGR pixels.">
<polygon fill="#ffffff" stroke="#000000" points="210,-.5 210,-19.5 320,-19.5 320,-.5 210,-.5"/>
<text text-anchor="middle" x="265" y="-7.5" font-family="Helvetica,sans-Serif" font-size="10.00" fill="#000000">applyMaskFunction</text>
</a>
</g>
</g>
<!-- Node5&#45;&gt;Node6 -->
<g id="edge2" class="edge">
<title>Node5&#45;&gt;Node6</title>
<path fill="none" stroke="#191970" d="M174.1256,-10C182.0521,-10 190.7334,-10 199.4866,-10"/>
<polygon fill="#191970" stroke="#191970" points="199.7542,-13.5001 209.7541,-10 199.7541,-6.5001 199.7542,-13.5001"/>
</g>
</g>
</svg>
