<?xml version="1.0" encoding="UTF-8" standalone="no"?>
<!DOCTYPE svg PUBLIC "-//W3C//DTD SVG 1.1//EN"
 "http://www.w3.org/Graphics/SVG/1.1/DTD/svg11.dtd">
<!-- Generated by graphviz version 2.40.1 (20161225.0304)
 -->
<!-- Title: /home/pieter/GitHub/EAGLE&#45;ZYBO&#45;Linux/src/mask/src/Mask&#45;NEON.hpp Pages: 1 -->
<svg width="200pt" height="162pt"
 viewBox="0.00 0.00 199.50 162.00" xmlns="http://www.w3.org/2000/svg" xmlns:xlink="http://www.w3.org/1999/xlink">
<g id="graph0" class="graph" transform="scale(1 1) rotate(0) translate(4 158)">
<title>/home/pieter/GitHub/EAGLE&#45;ZYBO&#45;Linux/src/mask/src/Mask&#45;NEON.hpp</title>
<polygon fill="#ffffff" stroke="transparent" points="-4,4 -4,-158 195.5,-158 195.5,4 -4,4"/>
<!-- Node0 -->
<g id="node1" class="node">
<title>Node0</title>
<g id="a_node1"><a xlink:title=" ">
<polygon fill="#bfbfbf" stroke="#000000" points="32.5,-112.5 32.5,-153.5 178.5,-153.5 178.5,-112.5 32.5,-112.5"/>
<text text-anchor="start" x="40.5" y="-141.5" font-family="Helvetica,sans-Serif" font-size="10.00" fill="#000000">/home/pieter/GitHub</text>
<text text-anchor="start" x="40.5" y="-130.5" font-family="Helvetica,sans-Serif" font-size="10.00" fill="#000000">/EAGLE&#45;ZYBO&#45;Linux/src</text>
<text text-anchor="middle" x="105.5" y="-119.5" font-family="Helvetica,sans-Serif" font-size="10.00" fill="#000000">/mask/src/Mask&#45;NEON.hpp</text>
</a>
</g>
</g>
<!-- Node1 -->
<g id="node2" class="node">
<title>Node1</title>
<g id="a_node2"><a xlink:href="Threshold_8hpp.html" target="_top" xlink:title=" ">
<polygon fill="#ffffff" stroke="#000000" points="13.5,-56.5 13.5,-75.5 99.5,-75.5 99.5,-56.5 13.5,-56.5"/>
<text text-anchor="middle" x="56.5" y="-63.5" font-family="Helvetica,sans-Serif" font-size="10.00" fill="#000000">Threshold.hpp</text>
</a>
</g>
</g>
<!-- Node0&#45;&gt;Node1 -->
<g id="edge1" class="edge">
<title>Node0&#45;&gt;Node1</title>
<path fill="none" stroke="#191970" d="M90.2647,-112.168C83.6758,-103.1587 76.0385,-92.7159 69.6958,-84.0432"/>
<polygon fill="#191970" stroke="#191970" points="72.3812,-81.7861 63.6529,-75.7805 66.731,-85.9183 72.3812,-81.7861"/>
</g>
<!-- Node4 -->
<g id="node5" class="node">
<title>Node4</title>
<g id="a_node5"><a xlink:title=" ">
<polygon fill="#ffffff" stroke="#bfbfbf" points="117.5,-56.5 117.5,-75.5 191.5,-75.5 191.5,-56.5 117.5,-56.5"/>
<text text-anchor="middle" x="154.5" y="-63.5" font-family="Helvetica,sans-Serif" font-size="10.00" fill="#000000">arm_neon.h</text>
</a>
</g>
</g>
<!-- Node0&#45;&gt;Node4 -->
<g id="edge4" class="edge">
<title>Node0&#45;&gt;Node4</title>
<path fill="none" stroke="#191970" d="M120.7353,-112.168C127.3242,-103.1587 134.9615,-92.7159 141.3042,-84.0432"/>
<polygon fill="#191970" stroke="#191970" points="144.269,-85.9183 147.3471,-75.7805 138.6188,-81.7861 144.269,-85.9183"/>
</g>
<!-- Node2 -->
<g id="node3" class="node">
<title>Node2</title>
<g id="a_node3"><a xlink:title=" ">
<polygon fill="#ffffff" stroke="#bfbfbf" points="0,-.5 0,-19.5 47,-19.5 47,-.5 0,-.5"/>
<text text-anchor="middle" x="23.5" y="-7.5" font-family="Helvetica,sans-Serif" font-size="10.00" fill="#000000">cmath</text>
</a>
</g>
</g>
<!-- Node1&#45;&gt;Node2 -->
<g id="edge2" class="edge">
<title>Node1&#45;&gt;Node2</title>
<path fill="none" stroke="#191970" d="M50.7518,-56.2455C46.2565,-48.617 39.8752,-37.7881 34.4175,-28.5267"/>
<polygon fill="#191970" stroke="#191970" points="37.2747,-26.4811 29.1823,-19.6427 31.2439,-30.035 37.2747,-26.4811"/>
</g>
<!-- Node3 -->
<g id="node4" class="node">
<title>Node3</title>
<g id="a_node4"><a xlink:title=" ">
<polygon fill="#ffffff" stroke="#bfbfbf" points="65.5,-.5 65.5,-19.5 115.5,-19.5 115.5,-.5 65.5,-.5"/>
<text text-anchor="middle" x="90.5" y="-7.5" font-family="Helvetica,sans-Serif" font-size="10.00" fill="#000000">cstdint</text>
</a>
</g>
</g>
<!-- Node1&#45;&gt;Node3 -->
<g id="edge3" class="edge">
<title>Node1&#45;&gt;Node3</title>
<path fill="none" stroke="#191970" d="M62.4223,-56.2455C67.1027,-48.5367 73.7673,-37.5598 79.4289,-28.2348"/>
<polygon fill="#191970" stroke="#191970" points="82.4475,-30.007 84.6455,-19.6427 76.4639,-26.3741 82.4475,-30.007"/>
</g>
</g>
</svg>
