<?xml version="1.0" encoding="UTF-8" standalone="no"?>
<!DOCTYPE svg PUBLIC "-//W3C//DTD SVG 1.1//EN"
 "http://www.w3.org/Graphics/SVG/1.1/DTD/svg11.dtd">
<!-- Generated by graphviz version 2.40.1 (20161225.0304)
 -->
<!-- Title: /home/pieter/GitHub/EAGLE&#45;ZYBO&#45;Linux/src/mask/src/Mask&#45;NEON.hpp Pages: 1 -->
<svg width="154pt" height="217pt"
 viewBox="0.00 0.00 154.00 217.00" xmlns="http://www.w3.org/2000/svg" xmlns:xlink="http://www.w3.org/1999/xlink">
<g id="graph0" class="graph" transform="scale(1 1) rotate(0) translate(4 213)">
<title>/home/pieter/GitHub/EAGLE&#45;ZYBO&#45;Linux/src/mask/src/Mask&#45;NEON.hpp</title>
<polygon fill="#ffffff" stroke="transparent" points="-4,4 -4,-213 150,-213 150,4 -4,4"/>
<!-- Node5 -->
<g id="node1" class="node">
<title>Node5</title>
<g id="a_node1"><a xlink:title=" ">
<polygon fill="#bfbfbf" stroke="#000000" points="0,-167.5 0,-208.5 146,-208.5 146,-167.5 0,-167.5"/>
<text text-anchor="start" x="8" y="-196.5" font-family="Helvetica,sans-Serif" font-size="10.00" fill="#000000">/home/pieter/GitHub</text>
<text text-anchor="start" x="8" y="-185.5" font-family="Helvetica,sans-Serif" font-size="10.00" fill="#000000">/EAGLE&#45;ZYBO&#45;Linux/src</text>
<text text-anchor="middle" x="73" y="-174.5" font-family="Helvetica,sans-Serif" font-size="10.00" fill="#000000">/mask/src/Mask&#45;NEON.hpp</text>
</a>
</g>
</g>
<!-- Node6 -->
<g id="node2" class="node">
<title>Node6</title>
<g id="a_node2"><a xlink:href="GenerateMask-Unroll_8ipp.html" target="_top" xlink:title=" ">
<polygon fill="#ffffff" stroke="#000000" points="4.5,-78.5 4.5,-130.5 141.5,-130.5 141.5,-78.5 4.5,-78.5"/>
<text text-anchor="start" x="12.5" y="-118.5" font-family="Helvetica,sans-Serif" font-size="10.00" fill="#000000">/home/pieter/GitHub</text>
<text text-anchor="start" x="12.5" y="-107.5" font-family="Helvetica,sans-Serif" font-size="10.00" fill="#000000">/EAGLE&#45;ZYBO&#45;Linux/src</text>
<text text-anchor="start" x="12.5" y="-96.5" font-family="Helvetica,sans-Serif" font-size="10.00" fill="#000000">/mask/src/GenerateMask</text>
<text text-anchor="middle" x="73" y="-85.5" font-family="Helvetica,sans-Serif" font-size="10.00" fill="#000000">&#45;Unroll.ipp</text>
</a>
</g>
</g>
<!-- Node5&#45;&gt;Node6 -->
<g id="edge1" class="edge">
<title>Node5&#45;&gt;Node6</title>
<path fill="none" stroke="#191970" d="M73,-157.1618C73,-148.4305 73,-139.0145 73,-130.5925"/>
<polygon fill="#191970" stroke="#191970" points="69.5001,-157.3595 73,-167.3595 76.5001,-157.3596 69.5001,-157.3595"/>
</g>
<!-- Node7 -->
<g id="node3" class="node">
<title>Node7</title>
<g id="a_node3"><a xlink:href="Mask_8cpp.html" target="_top" xlink:title=" ">
<polygon fill="#ffffff" stroke="#000000" points="8.5,-.5 8.5,-41.5 137.5,-41.5 137.5,-.5 8.5,-.5"/>
<text text-anchor="start" x="16.5" y="-29.5" font-family="Helvetica,sans-Serif" font-size="10.00" fill="#000000">/home/pieter/GitHub</text>
<text text-anchor="start" x="16.5" y="-18.5" font-family="Helvetica,sans-Serif" font-size="10.00" fill="#000000">/EAGLE&#45;ZYBO&#45;Linux/src</text>
<text text-anchor="middle" x="73" y="-7.5" font-family="Helvetica,sans-Serif" font-size="10.00" fill="#000000">/mask/src/Mask.cpp</text>
</a>
</g>
</g>
<!-- Node6&#45;&gt;Node7 -->
<g id="edge2" class="edge">
<title>Node6&#45;&gt;Node7</title>
<path fill="none" stroke="#191970" d="M73,-67.8168C73,-58.8649 73,-49.5976 73,-41.6941"/>
<polygon fill="#191970" stroke="#191970" points="69.5001,-68.08 73,-78.0801 76.5001,-68.0801 69.5001,-68.08"/>
</g>
</g>
</svg>
