<?xml version="1.0" encoding="UTF-8" standalone="no"?>
<!DOCTYPE svg PUBLIC "-//W3C//DTD SVG 1.1//EN"
 "http://www.w3.org/Graphics/SVG/1.1/DTD/svg11.dtd">
<!-- Generated by graphviz version 2.40.1 (20161225.0304)
 -->
<!-- Title: /home/pieter/GitHub/EAGLE&#45;ZYBO&#45;Linux/src/mask/include/Mask.hpp Pages: 1 -->
<svg width="375pt" height="217pt"
 viewBox="0.00 0.00 375.00 217.00" xmlns="http://www.w3.org/2000/svg" xmlns:xlink="http://www.w3.org/1999/xlink">
<g id="graph0" class="graph" transform="scale(1 1) rotate(0) translate(4 213)">
<title>/home/pieter/GitHub/EAGLE&#45;ZYBO&#45;Linux/src/mask/include/Mask.hpp</title>
<polygon fill="#ffffff" stroke="transparent" points="-4,4 -4,-213 371,-213 371,4 -4,4"/>
<!-- Node5 -->
<g id="node1" class="node">
<title>Node5</title>
<g id="a_node1"><a xlink:title=" ">
<polygon fill="#bfbfbf" stroke="#000000" points="142.5,-167.5 142.5,-208.5 276.5,-208.5 276.5,-167.5 142.5,-167.5"/>
<text text-anchor="start" x="150.5" y="-196.5" font-family="Helvetica,sans-Serif" font-size="10.00" fill="#000000">/home/pieter/GitHub</text>
<text text-anchor="start" x="150.5" y="-185.5" font-family="Helvetica,sans-Serif" font-size="10.00" fill="#000000">/EAGLE&#45;ZYBO&#45;Linux/src</text>
<text text-anchor="middle" x="209.5" y="-174.5" font-family="Helvetica,sans-Serif" font-size="10.00" fill="#000000">/mask/include/Mask.hpp</text>
</a>
</g>
</g>
<!-- Node6 -->
<g id="node2" class="node">
<title>Node6</title>
<g id="a_node2"><a xlink:href="GridFinder_8hpp.html" target="_top" xlink:title=" ">
<polygon fill="#ffffff" stroke="#000000" points="0,-89.5 0,-130.5 181,-130.5 181,-89.5 0,-89.5"/>
<text text-anchor="start" x="8" y="-118.5" font-family="Helvetica,sans-Serif" font-size="10.00" fill="#000000">/home/pieter/GitHub</text>
<text text-anchor="start" x="8" y="-107.5" font-family="Helvetica,sans-Serif" font-size="10.00" fill="#000000">/EAGLE&#45;ZYBO&#45;Linux/src</text>
<text text-anchor="middle" x="90.5" y="-96.5" font-family="Helvetica,sans-Serif" font-size="10.00" fill="#000000">/grid&#45;finder/include/GridFinder.hpp</text>
</a>
</g>
</g>
<!-- Node5&#45;&gt;Node6 -->
<g id="edge1" class="edge">
<title>Node5&#45;&gt;Node6</title>
<path fill="none" stroke="#191970" d="M169.5203,-161.7948C153.9691,-151.6016 136.4171,-140.0969 121.812,-130.5239"/>
<polygon fill="#191970" stroke="#191970" points="167.6404,-164.7474 177.9226,-167.3022 171.4778,-158.893 167.6404,-164.7474"/>
</g>
<!-- Node7 -->
<g id="node3" class="node">
<title>Node7</title>
<g id="a_node3"><a xlink:href="LocationFinder_8cpp.html" target="_top" xlink:title=" ">
<polygon fill="#ffffff" stroke="#000000" points="73.5,-.5 73.5,-52.5 225.5,-52.5 225.5,-.5 73.5,-.5"/>
<text text-anchor="start" x="81.5" y="-40.5" font-family="Helvetica,sans-Serif" font-size="10.00" fill="#000000">/home/pieter/GitHub</text>
<text text-anchor="start" x="81.5" y="-29.5" font-family="Helvetica,sans-Serif" font-size="10.00" fill="#000000">/EAGLE&#45;ZYBO&#45;Linux/src</text>
<text text-anchor="start" x="81.5" y="-18.5" font-family="Helvetica,sans-Serif" font-size="10.00" fill="#000000">/location&#45;finder/src/Location</text>
<text text-anchor="middle" x="149.5" y="-7.5" font-family="Helvetica,sans-Serif" font-size="10.00" fill="#000000">Finder.cpp</text>
</a>
</g>
</g>
<!-- Node5&#45;&gt;Node7 -->
<g id="edge3" class="edge">
<title>Node5&#45;&gt;Node7</title>
<path fill="none" stroke="#191970" d="M206.7142,-157.1326C204.1578,-137.143 199.3607,-110.8601 190.5,-89 185.3327,-76.2518 177.4152,-63.3452 169.9109,-52.597"/>
<polygon fill="#191970" stroke="#191970" points="203.2574,-157.7081 207.886,-167.2384 210.2108,-156.9018 203.2574,-157.7081"/>
</g>
<!-- Node8 -->
<g id="node4" class="node">
<title>Node8</title>
<g id="a_node4"><a xlink:href="Mask_8cpp.html" target="_top" xlink:title=" ">
<polygon fill="#ffffff" stroke="#000000" points="238,-89.5 238,-130.5 367,-130.5 367,-89.5 238,-89.5"/>
<text text-anchor="start" x="246" y="-118.5" font-family="Helvetica,sans-Serif" font-size="10.00" fill="#000000">/home/pieter/GitHub</text>
<text text-anchor="start" x="246" y="-107.5" font-family="Helvetica,sans-Serif" font-size="10.00" fill="#000000">/EAGLE&#45;ZYBO&#45;Linux/src</text>
<text text-anchor="middle" x="302.5" y="-96.5" font-family="Helvetica,sans-Serif" font-size="10.00" fill="#000000">/mask/src/Mask.cpp</text>
</a>
</g>
</g>
<!-- Node5&#45;&gt;Node8 -->
<g id="edge4" class="edge">
<title>Node5&#45;&gt;Node8</title>
<path fill="none" stroke="#191970" d="M242.2739,-160.5122C253.968,-150.7043 266.9343,-139.8293 277.8314,-130.6898"/>
<polygon fill="#191970" stroke="#191970" points="239.8351,-157.9896 234.4223,-167.0974 244.3334,-163.353 239.8351,-157.9896"/>
</g>
<!-- Node6&#45;&gt;Node7 -->
<g id="edge2" class="edge">
<title>Node6&#45;&gt;Node7</title>
<path fill="none" stroke="#191970" d="M110.8753,-81.1638C117.4315,-71.885 124.6548,-61.6623 131.0634,-52.5925"/>
<polygon fill="#191970" stroke="#191970" points="107.9965,-79.1728 105.0843,-89.3595 113.7134,-83.2123 107.9965,-79.1728"/>
</g>
</g>
</svg>
