<?xml version="1.0" encoding="UTF-8" standalone="no"?>
<!DOCTYPE svg PUBLIC "-//W3C//DTD SVG 1.1//EN"
 "http://www.w3.org/Graphics/SVG/1.1/DTD/svg11.dtd">
<!-- Generated by graphviz version 2.40.1 (20161225.0304)
 -->
<!-- Title: /home/pieter/GitHub/Crypto/src/matrix/include/Matrix.hpp Pages: 1 -->
<svg width="693pt" height="284pt"
 viewBox="0.00 0.00 692.50 284.00" xmlns="http://www.w3.org/2000/svg" xmlns:xlink="http://www.w3.org/1999/xlink">
<g id="graph0" class="graph" transform="scale(1 1) rotate(0) translate(4 280)">
<title>/home/pieter/GitHub/Crypto/src/matrix/include/Matrix.hpp</title>
<polygon fill="#ffffff" stroke="transparent" points="-4,4 -4,-280 688.5,-280 688.5,4 -4,4"/>
<!-- Node10 -->
<g id="node1" class="node">
<title>Node10</title>
<g id="a_node1"><a xlink:title=" ">
<polygon fill="#bfbfbf" stroke="#000000" points="219.5,-234.5 219.5,-275.5 362.5,-275.5 362.5,-234.5 219.5,-234.5"/>
<text text-anchor="start" x="227.5" y="-263.5" font-family="Helvetica,sans-Serif" font-size="10.00" fill="#000000">/home/pieter/GitHub</text>
<text text-anchor="start" x="227.5" y="-252.5" font-family="Helvetica,sans-Serif" font-size="10.00" fill="#000000">/Crypto/src/matrix/include</text>
<text text-anchor="middle" x="291" y="-241.5" font-family="Helvetica,sans-Serif" font-size="10.00" fill="#000000">/Matrix.hpp</text>
</a>
</g>
</g>
<!-- Node11 -->
<g id="node2" class="node">
<title>Node11</title>
<g id="a_node2"><a xlink:href="GridFinder_8hpp.html" target="_top" xlink:title=" ">
<polygon fill="#ffffff" stroke="#000000" points="0,-.5 0,-41.5 128,-41.5 128,-.5 0,-.5"/>
<text text-anchor="start" x="8" y="-29.5" font-family="Helvetica,sans-Serif" font-size="10.00" fill="#000000">/home/pieter/GitHub</text>
<text text-anchor="start" x="8" y="-18.5" font-family="Helvetica,sans-Serif" font-size="10.00" fill="#000000">/Crypto/src/grid&#45;finder</text>
<text text-anchor="middle" x="64" y="-7.5" font-family="Helvetica,sans-Serif" font-size="10.00" fill="#000000">/include/GridFinder.hpp</text>
</a>
</g>
</g>
<!-- Node10&#45;&gt;Node11 -->
<g id="edge1" class="edge">
<title>Node10&#45;&gt;Node11</title>
<path fill="none" stroke="#191970" d="M209.1285,-244.0362C153.8918,-234.825 87.9231,-219.6632 70,-198 32.8583,-153.1076 47.416,-77.6904 57.4855,-41.538"/>
<polygon fill="#191970" stroke="#191970" points="208.8721,-247.5402 219.3036,-245.6871 209.9932,-240.6306 208.8721,-247.5402"/>
</g>
<!-- Node12 -->
<g id="node3" class="node">
<title>Node12</title>
<g id="a_node3"><a xlink:href="Line_8hpp.html" target="_top" xlink:title=" ">
<polygon fill="#ffffff" stroke="#000000" points="79,-156.5 79,-197.5 201,-197.5 201,-156.5 79,-156.5"/>
<text text-anchor="start" x="87" y="-185.5" font-family="Helvetica,sans-Serif" font-size="10.00" fill="#000000">/home/pieter/GitHub</text>
<text text-anchor="start" x="87" y="-174.5" font-family="Helvetica,sans-Serif" font-size="10.00" fill="#000000">/Crypto/src/grid&#45;finder</text>
<text text-anchor="middle" x="140" y="-163.5" font-family="Helvetica,sans-Serif" font-size="10.00" fill="#000000">/include/Line.hpp</text>
</a>
</g>
</g>
<!-- Node10&#45;&gt;Node12 -->
<g id="edge2" class="edge">
<title>Node10&#45;&gt;Node12</title>
<path fill="none" stroke="#191970" d="M241.9079,-229.6411C221.7766,-219.2422 198.7793,-207.3628 179.7321,-197.5239"/>
<polygon fill="#191970" stroke="#191970" points="240.4402,-232.8224 250.9312,-234.3022 243.6529,-226.6031 240.4402,-232.8224"/>
</g>
<!-- Node14 -->
<g id="node5" class="node">
<title>Node14</title>
<g id="a_node5"><a xlink:href="HouseholderQR_8hpp.html" target="_top" xlink:title=" ">
<polygon fill="#ffffff" stroke="#000000" points="219.5,-156.5 219.5,-197.5 362.5,-197.5 362.5,-156.5 219.5,-156.5"/>
<text text-anchor="start" x="227.5" y="-185.5" font-family="Helvetica,sans-Serif" font-size="10.00" fill="#000000">/home/pieter/GitHub</text>
<text text-anchor="start" x="227.5" y="-174.5" font-family="Helvetica,sans-Serif" font-size="10.00" fill="#000000">/Crypto/src/matrix/include</text>
<text text-anchor="middle" x="291" y="-163.5" font-family="Helvetica,sans-Serif" font-size="10.00" fill="#000000">/HouseholderQR.hpp</text>
</a>
</g>
</g>
<!-- Node10&#45;&gt;Node14 -->
<g id="edge6" class="edge">
<title>Node10&#45;&gt;Node14</title>
<path fill="none" stroke="#191970" d="M291,-224.0789C291,-215.2178 291,-205.7747 291,-197.6898"/>
<polygon fill="#191970" stroke="#191970" points="287.5001,-224.0974 291,-234.0974 294.5001,-224.0975 287.5001,-224.0974"/>
</g>
<!-- Node16 -->
<g id="node7" class="node">
<title>Node16</title>
<g id="a_node7"><a xlink:href="MatrixHelpers_8hpp.html" target="_top" xlink:title=" ">
<polygon fill="#ffffff" stroke="#000000" points="380.5,-156.5 380.5,-197.5 523.5,-197.5 523.5,-156.5 380.5,-156.5"/>
<text text-anchor="start" x="388.5" y="-185.5" font-family="Helvetica,sans-Serif" font-size="10.00" fill="#000000">/home/pieter/GitHub</text>
<text text-anchor="start" x="388.5" y="-174.5" font-family="Helvetica,sans-Serif" font-size="10.00" fill="#000000">/Crypto/src/matrix/include</text>
<text text-anchor="middle" x="452" y="-163.5" font-family="Helvetica,sans-Serif" font-size="10.00" fill="#000000">/MatrixHelpers.hpp</text>
</a>
</g>
</g>
<!-- Node10&#45;&gt;Node16 -->
<g id="edge8" class="edge">
<title>Node10&#45;&gt;Node16</title>
<path fill="none" stroke="#191970" d="M342.7639,-229.9218C364.3656,-219.4564 389.145,-207.4515 409.6367,-197.5239"/>
<polygon fill="#191970" stroke="#191970" points="341.1958,-226.7923 333.7224,-234.3022 344.2479,-233.092 341.1958,-226.7923"/>
</g>
<!-- Node17 -->
<g id="node8" class="node">
<title>Node17</title>
<g id="a_node8"><a xlink:href="Randn_8hpp.html" target="_top" xlink:title=" ">
<polygon fill="#ffffff" stroke="#000000" points="541.5,-156.5 541.5,-197.5 684.5,-197.5 684.5,-156.5 541.5,-156.5"/>
<text text-anchor="start" x="549.5" y="-185.5" font-family="Helvetica,sans-Serif" font-size="10.00" fill="#000000">/home/pieter/GitHub</text>
<text text-anchor="start" x="549.5" y="-174.5" font-family="Helvetica,sans-Serif" font-size="10.00" fill="#000000">/Crypto/src/matrix/include</text>
<text text-anchor="middle" x="613" y="-163.5" font-family="Helvetica,sans-Serif" font-size="10.00" fill="#000000">/Randn.hpp</text>
</a>
</g>
</g>
<!-- Node10&#45;&gt;Node17 -->
<g id="edge9" class="edge">
<title>Node10&#45;&gt;Node17</title>
<path fill="none" stroke="#191970" d="M372.4143,-236.3666C419.4208,-225.4726 479.6238,-211.2894 533,-198 535.7868,-197.3062 538.6265,-196.5925 541.4937,-195.8665"/>
<polygon fill="#191970" stroke="#191970" points="371.5446,-232.9753 362.5912,-238.6399 373.1228,-239.7951 371.5446,-232.9753"/>
</g>
<!-- Node12&#45;&gt;Node11 -->
<g id="edge3" class="edge">
<title>Node12&#45;&gt;Node11</title>
<path fill="none" stroke="#191970" d="M106.5209,-149.3304C98.0141,-140.7501 89.6841,-130.7095 84,-120 70.8473,-95.2186 66.323,-62.742 64.7793,-41.8695"/>
<polygon fill="#191970" stroke="#191970" points="104.3372,-152.0853 113.98,-156.4747 109.1791,-147.03 104.3372,-152.0853"/>
</g>
<!-- Node13 -->
<g id="node4" class="node">
<title>Node13</title>
<g id="a_node4"><a xlink:href="HelperStructs_8hpp.html" target="_top" xlink:title=" ">
<polygon fill="#ffffff" stroke="#000000" points="92.5,-78.5 92.5,-119.5 237.5,-119.5 237.5,-78.5 92.5,-78.5"/>
<text text-anchor="start" x="100.5" y="-107.5" font-family="Helvetica,sans-Serif" font-size="10.00" fill="#000000">/home/pieter/GitHub</text>
<text text-anchor="start" x="100.5" y="-96.5" font-family="Helvetica,sans-Serif" font-size="10.00" fill="#000000">/Crypto/src/grid&#45;finder</text>
<text text-anchor="middle" x="165" y="-85.5" font-family="Helvetica,sans-Serif" font-size="10.00" fill="#000000">/include/HelperStructs.hpp</text>
</a>
</g>
</g>
<!-- Node12&#45;&gt;Node13 -->
<g id="edge4" class="edge">
<title>Node12&#45;&gt;Node13</title>
<path fill="none" stroke="#191970" d="M149.8181,-146.3676C152.6849,-137.4232 155.7492,-127.8626 158.3687,-119.6898"/>
<polygon fill="#191970" stroke="#191970" points="146.4188,-145.5063 146.6995,-156.0974 153.0848,-147.6429 146.4188,-145.5063"/>
</g>
<!-- Node13&#45;&gt;Node11 -->
<g id="edge5" class="edge">
<title>Node13&#45;&gt;Node11</title>
<path fill="none" stroke="#191970" d="M129.9639,-71.9424C117.043,-61.9639 102.6273,-50.831 90.5758,-41.5239"/>
<polygon fill="#191970" stroke="#191970" points="128.1451,-74.96 138.199,-78.3022 132.4237,-69.4198 128.1451,-74.96"/>
</g>
<!-- Node15 -->
<g id="node6" class="node">
<title>Node15</title>
<g id="a_node6"><a xlink:href="LeastSquares_8hpp.html" target="_top" xlink:title=" ">
<polygon fill="#ffffff" stroke="#000000" points="255.5,-78.5 255.5,-119.5 398.5,-119.5 398.5,-78.5 255.5,-78.5"/>
<text text-anchor="start" x="263.5" y="-107.5" font-family="Helvetica,sans-Serif" font-size="10.00" fill="#000000">/home/pieter/GitHub</text>
<text text-anchor="start" x="263.5" y="-96.5" font-family="Helvetica,sans-Serif" font-size="10.00" fill="#000000">/Crypto/src/matrix/include</text>
<text text-anchor="middle" x="327" y="-85.5" font-family="Helvetica,sans-Serif" font-size="10.00" fill="#000000">/LeastSquares.hpp</text>
</a>
</g>
</g>
<!-- Node14&#45;&gt;Node15 -->
<g id="edge7" class="edge">
<title>Node14&#45;&gt;Node15</title>
<path fill="none" stroke="#191970" d="M304.8721,-146.9438C309.0761,-137.8351 313.5977,-128.0384 317.4509,-119.6898"/>
<polygon fill="#191970" stroke="#191970" points="301.6601,-145.5511 300.6473,-156.0974 308.0158,-148.4846 301.6601,-145.5511"/>
</g>
</g>
</svg>
