<?xml version="1.0" encoding="UTF-8" standalone="no"?>
<!DOCTYPE svg PUBLIC "-//W3C//DTD SVG 1.1//EN"
 "http://www.w3.org/Graphics/SVG/1.1/DTD/svg11.dtd">
<!-- Generated by graphviz version 2.40.1 (20161225.0304)
 -->
<!-- Title: norm Pages: 1 -->
<svg width="716pt" height="104pt"
 viewBox="0.00 0.00 716.00 104.00" xmlns="http://www.w3.org/2000/svg" xmlns:xlink="http://www.w3.org/1999/xlink">
<g id="graph0" class="graph" transform="scale(1 1) rotate(0) translate(4 100)">
<title>norm</title>
<polygon fill="#ffffff" stroke="transparent" points="-4,4 -4,-100 712,-100 712,4 -4,4"/>
<!-- Node65 -->
<g id="node1" class="node">
<title>Node65</title>
<g id="a_node1"><a xlink:title=" ">
<polygon fill="#bfbfbf" stroke="#000000" points="666,-38.5 666,-57.5 708,-57.5 708,-38.5 666,-38.5"/>
<text text-anchor="middle" x="687" y="-45.5" font-family="Helvetica,sans-Serif" font-size="10.00" fill="#000000">norm</text>
</a>
</g>
</g>
<!-- Node66 -->
<g id="node2" class="node">
<title>Node66</title>
<g id="a_node2"><a xlink:href="structPoint.html#ab0fa03b5388829db9118785408deba75" target="_top" xlink:title=" ">
<polygon fill="#ffffff" stroke="#000000" points="540,-76.5 540,-95.5 629,-95.5 629,-76.5 540,-76.5"/>
<text text-anchor="middle" x="584.5" y="-83.5" font-family="Helvetica,sans-Serif" font-size="10.00" fill="#000000">Point::distance</text>
</a>
</g>
</g>
<!-- Node65&#45;&gt;Node66 -->
<g id="edge1" class="edge">
<title>Node65&#45;&gt;Node66</title>
<path fill="none" stroke="#191970" d="M656.1566,-59.4346C641.5681,-64.843 624.343,-71.2289 610.4375,-76.3841"/>
<polygon fill="#191970" stroke="#191970" points="657.6022,-62.6315 665.7619,-55.8736 655.1689,-56.0681 657.6022,-62.6315"/>
</g>
<!-- Node70 -->
<g id="node6" class="node">
<title>Node70</title>
<g id="a_node6"><a xlink:href="HouseholderQR_8hpp.html#a16f7547f23439d1eda0fcbde69451ef9" target="_top" xlink:title=" ">
<polygon fill="#ffffff" stroke="#000000" points="539,-38.5 539,-57.5 630,-57.5 630,-38.5 539,-38.5"/>
<text text-anchor="middle" x="584.5" y="-45.5" font-family="Helvetica,sans-Serif" font-size="10.00" fill="#000000">householderQR</text>
</a>
</g>
</g>
<!-- Node65&#45;&gt;Node70 -->
<g id="edge5" class="edge">
<title>Node65&#45;&gt;Node70</title>
<path fill="none" stroke="#191970" d="M655.7135,-48C647.6654,-48 638.8387,-48 630.2229,-48"/>
<polygon fill="#191970" stroke="#191970" points="655.762,-51.5001 665.7619,-48 655.7619,-44.5001 655.762,-51.5001"/>
</g>
<!-- Node73 -->
<g id="node9" class="node">
<title>Node73</title>
<g id="a_node9"><a xlink:href="Matrix_8hpp.html#aaee637901db7147a55dd417ba0fbf625" target="_top" xlink:title=" ">
<polygon fill="#ffffff" stroke="#000000" points="552,-.5 552,-19.5 617,-19.5 617,-.5 552,-.5"/>
<text text-anchor="middle" x="584.5" y="-7.5" font-family="Helvetica,sans-Serif" font-size="10.00" fill="#000000">normalize</text>
</a>
</g>
</g>
<!-- Node65&#45;&gt;Node73 -->
<g id="edge8" class="edge">
<title>Node65&#45;&gt;Node73</title>
<path fill="none" stroke="#191970" d="M656.1566,-36.5654C641.5681,-31.157 624.343,-24.7711 610.4375,-19.6159"/>
<polygon fill="#191970" stroke="#191970" points="655.1689,-39.9319 665.7619,-40.1264 657.6022,-33.3685 655.1689,-39.9319"/>
</g>
<!-- Node67 -->
<g id="node3" class="node">
<title>Node67</title>
<g id="a_node3"><a xlink:href="classLocationFinder.html#a93be2c4b05b52c58f5fca5d1514dfbe9" target="_top" xlink:title="Get the position of the center of the frame relative to the given square.">
<polygon fill="#ffffff" stroke="#000000" points="353,-76.5 353,-95.5 503,-95.5 503,-76.5 353,-76.5"/>
<text text-anchor="middle" x="428" y="-83.5" font-family="Helvetica,sans-Serif" font-size="10.00" fill="#000000">LocationFinder::getLocation</text>
</a>
</g>
</g>
<!-- Node66&#45;&gt;Node67 -->
<g id="edge2" class="edge">
<title>Node66&#45;&gt;Node67</title>
<path fill="none" stroke="#191970" d="M529.5237,-86C521.0306,-86 512.1351,-86 503.2901,-86"/>
<polygon fill="#191970" stroke="#191970" points="529.6534,-89.5001 539.6534,-86 529.6533,-82.5001 529.6534,-89.5001"/>
</g>
<!-- Node68 -->
<g id="node4" class="node">
<title>Node68</title>
<g id="a_node4"><a xlink:href="classLocationFinder.html#af56756d038d762e04e0c91bac9fc2522" target="_top" xlink:title="Read a new frame, mask it, run GridFinder, and get the position of the drone. The position is the pos...">
<polygon fill="#ffffff" stroke="#000000" points="149,-76.5 149,-95.5 317,-95.5 317,-76.5 149,-76.5"/>
<text text-anchor="middle" x="233" y="-83.5" font-family="Helvetica,sans-Serif" font-size="10.00" fill="#000000">LocationFinder::updateLocation</text>
</a>
</g>
</g>
<!-- Node67&#45;&gt;Node68 -->
<g id="edge3" class="edge">
<title>Node67&#45;&gt;Node68</title>
<path fill="none" stroke="#191970" d="M342.6491,-86C334.1912,-86 325.6095,-86 317.1639,-86"/>
<polygon fill="#191970" stroke="#191970" points="342.8869,-89.5001 352.8868,-86 342.8868,-82.5001 342.8869,-89.5001"/>
</g>
<!-- Node69 -->
<g id="node5" class="node">
<title>Node69</title>
<g id="a_node5"><a xlink:href="Grid-Finder_8module_8hpp.html#a05e720af51446c0f9319fb9455fe1767" target="_top" xlink:title=" ">
<polygon fill="#ffffff" stroke="#000000" points="0,-76.5 0,-95.5 113,-95.5 113,-76.5 0,-76.5"/>
<text text-anchor="middle" x="56.5" y="-83.5" font-family="Helvetica,sans-Serif" font-size="10.00" fill="#000000">PYBIND11_MODULE</text>
</a>
</g>
</g>
<!-- Node68&#45;&gt;Node69 -->
<g id="edge4" class="edge">
<title>Node68&#45;&gt;Node69</title>
<path fill="none" stroke="#191970" d="M138.6177,-86C129.8852,-86 121.233,-86 113.0056,-86"/>
<polygon fill="#191970" stroke="#191970" points="138.8854,-89.5001 148.8854,-86 138.8853,-82.5001 138.8854,-89.5001"/>
</g>
<!-- Node71 -->
<g id="node7" class="node">
<title>Node71</title>
<g id="a_node7"><a xlink:href="LeastSquares_8hpp.html#a3e86962f655361a684f770b14c9fe1e2" target="_top" xlink:title=" ">
<polygon fill="#ffffff" stroke="#000000" points="374,-38.5 374,-57.5 482,-57.5 482,-38.5 374,-38.5"/>
<text text-anchor="middle" x="428" y="-45.5" font-family="Helvetica,sans-Serif" font-size="10.00" fill="#000000">solveLeastSquares</text>
</a>
</g>
</g>
<!-- Node70&#45;&gt;Node71 -->
<g id="edge6" class="edge">
<title>Node70&#45;&gt;Node71</title>
<path fill="none" stroke="#191970" d="M528.5589,-48C513.4218,-48 497.0694,-48 482.039,-48"/>
<polygon fill="#191970" stroke="#191970" points="528.813,-51.5001 538.813,-48 528.813,-44.5001 528.813,-51.5001"/>
</g>
<!-- Node72 -->
<g id="node8" class="node">
<title>Node72</title>
<g id="a_node8"><a xlink:href="LeastSquares_8hpp.html#abc455a395ab6414f5312b56e5b479195" target="_top" xlink:title=" ">
<polygon fill="#ffffff" stroke="#000000" points="217,-38.5 217,-57.5 249,-57.5 249,-38.5 217,-38.5"/>
<text text-anchor="middle" x="233" y="-45.5" font-family="Helvetica,sans-Serif" font-size="10.00" fill="#000000">inv</text>
</a>
</g>
</g>
<!-- Node71&#45;&gt;Node72 -->
<g id="edge7" class="edge">
<title>Node71&#45;&gt;Node72</title>
<path fill="none" stroke="#191970" d="M363.8314,-48C323.2469,-48 273.9032,-48 249.0101,-48"/>
<polygon fill="#191970" stroke="#191970" points="363.9406,-51.5001 373.9406,-48 363.9406,-44.5001 363.9406,-51.5001"/>
</g>
</g>
</svg>
