<?xml version="1.0" encoding="UTF-8" standalone="no"?>
<!DOCTYPE svg PUBLIC "-//W3C//DTD SVG 1.1//EN"
 "http://www.w3.org/Graphics/SVG/1.1/DTD/svg11.dtd">
<!-- Generated by graphviz version 2.40.1 (20161225.0304)
 -->
<!-- Title: /home/pieter/GitHub/EAGLE&#45;ZYBO&#45;Linux/src/matrix/include/Matrix.hpp Pages: 1 -->
<svg width="1033pt" height="484pt"
 viewBox="0.00 0.00 1032.93 484.00" xmlns="http://www.w3.org/2000/svg" xmlns:xlink="http://www.w3.org/1999/xlink">
<g id="graph0" class="graph" transform="scale(1 1) rotate(0) translate(4 480)">
<title>/home/pieter/GitHub/EAGLE&#45;ZYBO&#45;Linux/src/matrix/include/Matrix.hpp</title>
<polygon fill="#ffffff" stroke="transparent" points="-4,4 -4,-480 1028.929,-480 1028.929,4 -4,4"/>
<!-- Node10 -->
<g id="node1" class="node">
<title>Node10</title>
<g id="a_node1"><a xlink:title=" ">
<polygon fill="#bfbfbf" stroke="#000000" points="431.929,-434.5 431.929,-475.5 576.929,-475.5 576.929,-434.5 431.929,-434.5"/>
<text text-anchor="start" x="439.929" y="-463.5" font-family="Helvetica,sans-Serif" font-size="10.00" fill="#000000">/home/pieter/GitHub</text>
<text text-anchor="start" x="439.929" y="-452.5" font-family="Helvetica,sans-Serif" font-size="10.00" fill="#000000">/EAGLE&#45;ZYBO&#45;Linux/src</text>
<text text-anchor="middle" x="504.429" y="-441.5" font-family="Helvetica,sans-Serif" font-size="10.00" fill="#000000">/matrix/include/Matrix.hpp</text>
</a>
</g>
</g>
<!-- Node11 -->
<g id="node2" class="node">
<title>Node11</title>
<g id="a_node2"><a xlink:href="GridFinder_8hpp.html" target="_top" xlink:title=" ">
<polygon fill="#ffffff" stroke="#000000" points="31.929,-184 31.929,-225 212.929,-225 212.929,-184 31.929,-184"/>
<text text-anchor="start" x="39.929" y="-213" font-family="Helvetica,sans-Serif" font-size="10.00" fill="#000000">/home/pieter/GitHub</text>
<text text-anchor="start" x="39.929" y="-202" font-family="Helvetica,sans-Serif" font-size="10.00" fill="#000000">/EAGLE&#45;ZYBO&#45;Linux/src</text>
<text text-anchor="middle" x="122.429" y="-191" font-family="Helvetica,sans-Serif" font-size="10.00" fill="#000000">/grid&#45;finder/include/GridFinder.hpp</text>
</a>
</g>
</g>
<!-- Node10&#45;&gt;Node11 -->
<g id="edge1" class="edge">
<title>Node10&#45;&gt;Node11</title>
<path fill="none" stroke="#191970" d="M421.2925,-445.3908C292.5169,-428.4977 54.8603,-388.6036 9.429,-320 -3.5768,-300.3605 -2.5357,-287.2906 9.429,-267 20.5318,-248.1713 39.5684,-234.6189 58.8851,-225.055"/>
<polygon fill="#191970" stroke="#191970" points="421.1427,-448.9005 431.5092,-446.7127 422.0411,-441.9584 421.1427,-448.9005"/>
</g>
<!-- Node15 -->
<g id="node6" class="node">
<title>Node15</title>
<g id="a_node6"><a xlink:href="Line_8hpp.html" target="_top" xlink:title=" ">
<polygon fill="#ffffff" stroke="#000000" points="202.429,-356.5 202.429,-397.5 354.429,-397.5 354.429,-356.5 202.429,-356.5"/>
<text text-anchor="start" x="210.429" y="-385.5" font-family="Helvetica,sans-Serif" font-size="10.00" fill="#000000">/home/pieter/GitHub</text>
<text text-anchor="start" x="210.429" y="-374.5" font-family="Helvetica,sans-Serif" font-size="10.00" fill="#000000">/EAGLE&#45;ZYBO&#45;Linux/src</text>
<text text-anchor="middle" x="278.429" y="-363.5" font-family="Helvetica,sans-Serif" font-size="10.00" fill="#000000">/grid&#45;finder/include/Line.hpp</text>
</a>
</g>
</g>
<!-- Node10&#45;&gt;Node15 -->
<g id="edge5" class="edge">
<title>Node10&#45;&gt;Node15</title>
<path fill="none" stroke="#191970" d="M435.2918,-431.1385C404.2169,-420.4135 367.9033,-407.8805 338.0457,-397.5757"/>
<polygon fill="#191970" stroke="#191970" points="434.1598,-434.4503 444.7546,-434.4044 436.4436,-427.8333 434.1598,-434.4503"/>
</g>
<!-- Node19 -->
<g id="node10" class="node">
<title>Node19</title>
<g id="a_node10"><a xlink:href="HouseholderQR_8hpp.html" target="_top" xlink:title=" ">
<polygon fill="#ffffff" stroke="#000000" points="471.429,-356.5 471.429,-397.5 661.429,-397.5 661.429,-356.5 471.429,-356.5"/>
<text text-anchor="start" x="479.429" y="-385.5" font-family="Helvetica,sans-Serif" font-size="10.00" fill="#000000">/home/pieter/GitHub</text>
<text text-anchor="start" x="479.429" y="-374.5" font-family="Helvetica,sans-Serif" font-size="10.00" fill="#000000">/EAGLE&#45;ZYBO&#45;Linux/src</text>
<text text-anchor="middle" x="566.429" y="-363.5" font-family="Helvetica,sans-Serif" font-size="10.00" fill="#000000">/matrix/include/HouseholderQR.hpp</text>
</a>
</g>
</g>
<!-- Node10&#45;&gt;Node19 -->
<g id="edge14" class="edge">
<title>Node10&#45;&gt;Node19</title>
<path fill="none" stroke="#191970" d="M527.4084,-426.0905C534.9024,-416.6626 543.0678,-406.3899 549.9833,-397.6898"/>
<polygon fill="#191970" stroke="#191970" points="524.5265,-424.0913 521.0439,-434.0974 530.0063,-428.447 524.5265,-424.0913"/>
</g>
<!-- Node21 -->
<g id="node12" class="node">
<title>Node21</title>
<g id="a_node12"><a xlink:href="MatrixHelpers_8hpp.html" target="_top" xlink:title=" ">
<polygon fill="#ffffff" stroke="#000000" points="679.429,-356.5 679.429,-397.5 861.429,-397.5 861.429,-356.5 679.429,-356.5"/>
<text text-anchor="start" x="687.429" y="-385.5" font-family="Helvetica,sans-Serif" font-size="10.00" fill="#000000">/home/pieter/GitHub</text>
<text text-anchor="start" x="687.429" y="-374.5" font-family="Helvetica,sans-Serif" font-size="10.00" fill="#000000">/EAGLE&#45;ZYBO&#45;Linux/src</text>
<text text-anchor="middle" x="770.429" y="-363.5" font-family="Helvetica,sans-Serif" font-size="10.00" fill="#000000">/matrix/include/MatrixHelpers.hpp</text>
</a>
</g>
</g>
<!-- Node10&#45;&gt;Node21 -->
<g id="edge16" class="edge">
<title>Node10&#45;&gt;Node21</title>
<path fill="none" stroke="#191970" d="M584.3873,-431.5536C621.2713,-420.738 664.6642,-408.0138 700.2607,-397.5757"/>
<polygon fill="#191970" stroke="#191970" points="583.2764,-428.2319 574.6654,-434.4044 585.2462,-434.9491 583.2764,-428.2319"/>
</g>
<!-- Node22 -->
<g id="node13" class="node">
<title>Node22</title>
<g id="a_node13"><a xlink:href="Randn_8hpp.html" target="_top" xlink:title=" ">
<polygon fill="#ffffff" stroke="#000000" points="879.929,-356.5 879.929,-397.5 1024.929,-397.5 1024.929,-356.5 879.929,-356.5"/>
<text text-anchor="start" x="887.929" y="-385.5" font-family="Helvetica,sans-Serif" font-size="10.00" fill="#000000">/home/pieter/GitHub</text>
<text text-anchor="start" x="887.929" y="-374.5" font-family="Helvetica,sans-Serif" font-size="10.00" fill="#000000">/EAGLE&#45;ZYBO&#45;Linux/src</text>
<text text-anchor="middle" x="952.429" y="-363.5" font-family="Helvetica,sans-Serif" font-size="10.00" fill="#000000">/matrix/include/Randn.hpp</text>
</a>
</g>
</g>
<!-- Node10&#45;&gt;Node22 -->
<g id="edge17" class="edge">
<title>Node10&#45;&gt;Node22</title>
<path fill="none" stroke="#191970" d="M587.2692,-444.4154C661.7177,-434.3538 773.8681,-417.8357 870.429,-398 873.452,-397.379 876.5308,-396.7186 879.6359,-396.0294"/>
<polygon fill="#191970" stroke="#191970" points="586.4651,-440.9919 577.02,-445.792 587.3969,-447.9296 586.4651,-440.9919"/>
</g>
<!-- Node23 -->
<g id="node14" class="node">
<title>Node23</title>
<g id="a_node14"><a xlink:href="PyMatrix_8hpp.html" target="_top" xlink:title=" ">
<polygon fill="#ffffff" stroke="#000000" points="433.929,-184 433.929,-225 606.929,-225 606.929,-184 433.929,-184"/>
<text text-anchor="start" x="441.929" y="-213" font-family="Helvetica,sans-Serif" font-size="10.00" fill="#000000">/home/pieter/GitHub</text>
<text text-anchor="start" x="441.929" y="-202" font-family="Helvetica,sans-Serif" font-size="10.00" fill="#000000">/EAGLE&#45;ZYBO&#45;Linux/src</text>
<text text-anchor="middle" x="520.429" y="-191" font-family="Helvetica,sans-Serif" font-size="10.00" fill="#000000">/py&#45;matrix/include/PyMatrix.hpp</text>
</a>
</g>
</g>
<!-- Node10&#45;&gt;Node23 -->
<g id="edge18" class="edge">
<title>Node10&#45;&gt;Node23</title>
<path fill="none" stroke="#191970" d="M477.885,-426.3361C471.5861,-417.8273 465.739,-408.072 462.429,-398 454.8697,-374.9976 461.6297,-283.9922 468.429,-267 474.7742,-251.143 486.7382,-236.3131 497.5919,-225.0818"/>
<polygon fill="#191970" stroke="#191970" points="475.3094,-428.7217 484.2573,-434.3949 480.8002,-424.3799 475.3094,-428.7217"/>
</g>
<!-- Node12 -->
<g id="node3" class="node">
<title>Node12</title>
<g id="a_node3"><a xlink:href="LocationFinder_8cpp.html" target="_top" xlink:title=" ">
<polygon fill="#ffffff" stroke="#000000" points="115.429,-89.5 115.429,-141.5 267.429,-141.5 267.429,-89.5 115.429,-89.5"/>
<text text-anchor="start" x="123.429" y="-129.5" font-family="Helvetica,sans-Serif" font-size="10.00" fill="#000000">/home/pieter/GitHub</text>
<text text-anchor="start" x="123.429" y="-118.5" font-family="Helvetica,sans-Serif" font-size="10.00" fill="#000000">/EAGLE&#45;ZYBO&#45;Linux/src</text>
<text text-anchor="start" x="123.429" y="-107.5" font-family="Helvetica,sans-Serif" font-size="10.00" fill="#000000">/location&#45;finder/src/Location</text>
<text text-anchor="middle" x="191.429" y="-96.5" font-family="Helvetica,sans-Serif" font-size="10.00" fill="#000000">Finder.cpp</text>
</a>
</g>
</g>
<!-- Node11&#45;&gt;Node12 -->
<g id="edge2" class="edge">
<title>Node11&#45;&gt;Node12</title>
<path fill="none" stroke="#191970" d="M144.655,-175.8317C153.1354,-164.8933 162.7535,-152.4873 171.0534,-141.7816"/>
<polygon fill="#191970" stroke="#191970" points="141.7935,-173.8103 138.4325,-183.8579 147.3257,-178.0993 141.7935,-173.8103"/>
</g>
<!-- Node13 -->
<g id="node4" class="node">
<title>Node13</title>
<g id="a_node4"><a xlink:href="Grid-Finder_8module_8hpp.html" target="_top" xlink:title=" ">
<polygon fill="#ffffff" stroke="#000000" points="291.929,-89.5 291.929,-141.5 424.929,-141.5 424.929,-89.5 291.929,-89.5"/>
<text text-anchor="start" x="299.929" y="-129.5" font-family="Helvetica,sans-Serif" font-size="10.00" fill="#000000">/home/pieter/GitHub</text>
<text text-anchor="start" x="299.929" y="-118.5" font-family="Helvetica,sans-Serif" font-size="10.00" fill="#000000">/EAGLE&#45;ZYBO&#45;Linux/src</text>
<text text-anchor="start" x="299.929" y="-107.5" font-family="Helvetica,sans-Serif" font-size="10.00" fill="#000000">/py&#45;grid&#45;finder/include</text>
<text text-anchor="middle" x="358.429" y="-96.5" font-family="Helvetica,sans-Serif" font-size="10.00" fill="#000000">/Grid&#45;Finder.module.hpp</text>
</a>
</g>
</g>
<!-- Node11&#45;&gt;Node13 -->
<g id="edge3" class="edge">
<title>Node11&#45;&gt;Node13</title>
<path fill="none" stroke="#191970" d="M186.31,-180.4093C218.932,-168.107 258.5982,-153.1481 291.6261,-140.6927"/>
<polygon fill="#191970" stroke="#191970" points="184.9903,-177.1663 176.8685,-183.9699 187.4603,-183.716 184.9903,-177.1663"/>
</g>
<!-- Node14 -->
<g id="node5" class="node">
<title>Node14</title>
<g id="a_node5"><a xlink:href="Grid-Finder_8module_8cpp.html" target="_top" xlink:title=" ">
<polygon fill="#ffffff" stroke="#000000" points="293.929,-.5 293.929,-52.5 422.929,-52.5 422.929,-.5 293.929,-.5"/>
<text text-anchor="start" x="301.929" y="-40.5" font-family="Helvetica,sans-Serif" font-size="10.00" fill="#000000">/home/pieter/GitHub</text>
<text text-anchor="start" x="301.929" y="-29.5" font-family="Helvetica,sans-Serif" font-size="10.00" fill="#000000">/EAGLE&#45;ZYBO&#45;Linux/src</text>
<text text-anchor="start" x="301.929" y="-18.5" font-family="Helvetica,sans-Serif" font-size="10.00" fill="#000000">/py&#45;grid&#45;finder/src/Grid</text>
<text text-anchor="middle" x="358.429" y="-7.5" font-family="Helvetica,sans-Serif" font-size="10.00" fill="#000000">&#45;Finder.module.cpp</text>
</a>
</g>
</g>
<!-- Node13&#45;&gt;Node14 -->
<g id="edge4" class="edge">
<title>Node13&#45;&gt;Node14</title>
<path fill="none" stroke="#191970" d="M358.429,-79.1155C358.429,-70.2061 358.429,-60.8475 358.429,-52.5341"/>
<polygon fill="#191970" stroke="#191970" points="354.9291,-79.2784 358.429,-89.2784 361.9291,-79.2785 354.9291,-79.2784"/>
</g>
<!-- Node15&#45;&gt;Node11 -->
<g id="edge6" class="edge">
<title>Node15&#45;&gt;Node11</title>
<path fill="none" stroke="#191970" d="M192.2643,-369.2604C126.4671,-361.3561 43.5954,-346.3975 22.429,-320 7.6935,-301.6226 11.0101,-287.6027 22.429,-267 32.6515,-248.5562 50.8361,-234.8364 68.921,-225.0249"/>
<polygon fill="#191970" stroke="#191970" points="191.9142,-372.7432 202.2517,-370.4226 192.7233,-365.7901 191.9142,-372.7432"/>
</g>
<!-- Node15&#45;&gt;Node13 -->
<g id="edge13" class="edge">
<title>Node15&#45;&gt;Node13</title>
<path fill="none" stroke="#191970" d="M353.0618,-351.4474C366.3563,-343.47 378.4816,-333.181 386.429,-320 420.4753,-263.5341 391.1152,-182.5929 371.9071,-141.53"/>
<polygon fill="#191970" stroke="#191970" points="351.2401,-348.4554 344.1888,-356.363 354.6323,-354.5785 351.2401,-348.4554"/>
</g>
<!-- Node16 -->
<g id="node7" class="node">
<title>Node16</title>
<g id="a_node7"><a xlink:href="HelperStructs_8hpp.html" target="_top" xlink:title=" ">
<polygon fill="#ffffff" stroke="#000000" points="179.429,-273 179.429,-314 377.429,-314 377.429,-273 179.429,-273"/>
<text text-anchor="start" x="187.429" y="-302" font-family="Helvetica,sans-Serif" font-size="10.00" fill="#000000">/home/pieter/GitHub</text>
<text text-anchor="start" x="187.429" y="-291" font-family="Helvetica,sans-Serif" font-size="10.00" fill="#000000">/EAGLE&#45;ZYBO&#45;Linux/src</text>
<text text-anchor="middle" x="278.429" y="-280" font-family="Helvetica,sans-Serif" font-size="10.00" fill="#000000">/grid&#45;finder/include/HelperStructs.hpp</text>
</a>
</g>
</g>
<!-- Node15&#45;&gt;Node16 -->
<g id="edge7" class="edge">
<title>Node15&#45;&gt;Node16</title>
<path fill="none" stroke="#191970" d="M278.429,-346.1593C278.429,-335.5064 278.429,-323.8344 278.429,-314.1924"/>
<polygon fill="#191970" stroke="#191970" points="274.9291,-346.3595 278.429,-356.3595 281.9291,-346.3596 274.9291,-346.3595"/>
</g>
<!-- Node18 -->
<g id="node9" class="node">
<title>Node18</title>
<g id="a_node9"><a xlink:href="LocationTracker_8hpp.html" target="_top" xlink:title=" ">
<polygon fill="#ffffff" stroke="#000000" points="31.929,-267.5 31.929,-319.5 160.929,-319.5 160.929,-267.5 31.929,-267.5"/>
<text text-anchor="start" x="39.929" y="-307.5" font-family="Helvetica,sans-Serif" font-size="10.00" fill="#000000">/home/pieter/GitHub</text>
<text text-anchor="start" x="39.929" y="-296.5" font-family="Helvetica,sans-Serif" font-size="10.00" fill="#000000">/EAGLE&#45;ZYBO&#45;Linux/src</text>
<text text-anchor="start" x="39.929" y="-285.5" font-family="Helvetica,sans-Serif" font-size="10.00" fill="#000000">/location&#45;finder/include</text>
<text text-anchor="middle" x="96.429" y="-274.5" font-family="Helvetica,sans-Serif" font-size="10.00" fill="#000000">/LocationTracker.hpp</text>
</a>
</g>
</g>
<!-- Node15&#45;&gt;Node18 -->
<g id="edge12" class="edge">
<title>Node15&#45;&gt;Node18</title>
<path fill="none" stroke="#191970" d="M224.1047,-352.0765C201.7696,-341.8293 175.8944,-329.958 153.3014,-319.5925"/>
<polygon fill="#191970" stroke="#191970" points="222.8917,-355.3707 233.4403,-356.3595 225.8107,-349.0083 222.8917,-355.3707"/>
</g>
<!-- Node16&#45;&gt;Node11 -->
<g id="edge8" class="edge">
<title>Node16&#45;&gt;Node11</title>
<path fill="none" stroke="#191970" d="M233.3884,-267.8037C209.5685,-254.2142 180.7235,-237.7577 158.4145,-225.0301"/>
<polygon fill="#191970" stroke="#191970" points="231.8271,-270.9425 242.2474,-272.8579 235.2959,-264.8624 231.8271,-270.9425"/>
</g>
<!-- Node17 -->
<g id="node8" class="node">
<title>Node17</title>
<g id="a_node8"><a xlink:href="LocationFinder_8hpp.html" target="_top" xlink:title=" ">
<polygon fill="#ffffff" stroke="#000000" points="230.929,-178.5 230.929,-230.5 359.929,-230.5 359.929,-178.5 230.929,-178.5"/>
<text text-anchor="start" x="238.929" y="-218.5" font-family="Helvetica,sans-Serif" font-size="10.00" fill="#000000">/home/pieter/GitHub</text>
<text text-anchor="start" x="238.929" y="-207.5" font-family="Helvetica,sans-Serif" font-size="10.00" fill="#000000">/EAGLE&#45;ZYBO&#45;Linux/src</text>
<text text-anchor="start" x="238.929" y="-196.5" font-family="Helvetica,sans-Serif" font-size="10.00" fill="#000000">/location&#45;finder/include</text>
<text text-anchor="middle" x="295.429" y="-185.5" font-family="Helvetica,sans-Serif" font-size="10.00" fill="#000000">/LocationFinder.hpp</text>
</a>
</g>
</g>
<!-- Node16&#45;&gt;Node17 -->
<g id="edge9" class="edge">
<title>Node16&#45;&gt;Node17</title>
<path fill="none" stroke="#191970" d="M284.2765,-262.8868C286.272,-252.4396 288.4844,-240.8575 290.409,-230.7816"/>
<polygon fill="#191970" stroke="#191970" points="280.8103,-262.3788 282.3719,-272.8579 287.686,-263.6922 280.8103,-262.3788"/>
</g>
<!-- Node17&#45;&gt;Node12 -->
<g id="edge10" class="edge">
<title>Node17&#45;&gt;Node12</title>
<path fill="none" stroke="#191970" d="M256.9555,-171.5755C245.375,-161.6653 232.8326,-150.9319 221.851,-141.5341"/>
<polygon fill="#191970" stroke="#191970" points="254.9147,-174.4357 264.7881,-178.2784 259.4661,-169.1173 254.9147,-174.4357"/>
</g>
<!-- Node17&#45;&gt;Node13 -->
<g id="edge11" class="edge">
<title>Node17&#45;&gt;Node13</title>
<path fill="none" stroke="#191970" d="M319.9548,-169.8525C326.6238,-160.4313 333.7318,-150.3897 340.0004,-141.5341"/>
<polygon fill="#191970" stroke="#191970" points="316.9113,-168.0942 313.9904,-178.2784 322.6248,-172.1386 316.9113,-168.0942"/>
</g>
<!-- Node20 -->
<g id="node11" class="node">
<title>Node20</title>
<g id="a_node11"><a xlink:href="LeastSquares_8hpp.html" target="_top" xlink:title=" ">
<polygon fill="#ffffff" stroke="#000000" points="476.929,-273 476.929,-314 655.929,-314 655.929,-273 476.929,-273"/>
<text text-anchor="start" x="484.929" y="-302" font-family="Helvetica,sans-Serif" font-size="10.00" fill="#000000">/home/pieter/GitHub</text>
<text text-anchor="start" x="484.929" y="-291" font-family="Helvetica,sans-Serif" font-size="10.00" fill="#000000">/EAGLE&#45;ZYBO&#45;Linux/src</text>
<text text-anchor="middle" x="566.429" y="-280" font-family="Helvetica,sans-Serif" font-size="10.00" fill="#000000">/matrix/include/LeastSquares.hpp</text>
</a>
</g>
</g>
<!-- Node19&#45;&gt;Node20 -->
<g id="edge15" class="edge">
<title>Node19&#45;&gt;Node20</title>
<path fill="none" stroke="#191970" d="M566.429,-346.1593C566.429,-335.5064 566.429,-323.8344 566.429,-314.1924"/>
<polygon fill="#191970" stroke="#191970" points="562.9291,-346.3595 566.429,-356.3595 569.9291,-346.3596 562.9291,-346.3595"/>
</g>
<!-- Node23&#45;&gt;Node13 -->
<g id="edge19" class="edge">
<title>Node23&#45;&gt;Node13</title>
<path fill="none" stroke="#191970" d="M473.9826,-178.9831C452.6645,-167.2714 427.4166,-153.4006 405.9671,-141.6166"/>
<polygon fill="#191970" stroke="#191970" points="472.4061,-182.1104 482.8558,-183.8579 475.7766,-175.9753 472.4061,-182.1104"/>
</g>
</g>
</svg>
