<?xml version="1.0" encoding="UTF-8" standalone="no"?>
<!DOCTYPE svg PUBLIC "-//W3C//DTD SVG 1.1//EN"
 "http://www.w3.org/Graphics/SVG/1.1/DTD/svg11.dtd">
<!-- Generated by graphviz version 2.40.1 (20161225.0304)
 -->
<!-- Title: cross Pages: 1 -->
<svg width="894pt" height="142pt"
 viewBox="0.00 0.00 894.00 142.00" xmlns="http://www.w3.org/2000/svg" xmlns:xlink="http://www.w3.org/1999/xlink">
<g id="graph0" class="graph" transform="scale(1 1) rotate(0) translate(4 138)">
<title>cross</title>
<polygon fill="#ffffff" stroke="transparent" points="-4,4 -4,-138 890,-138 890,4 -4,4"/>
<!-- Node23 -->
<g id="node1" class="node">
<title>Node23</title>
<g id="a_node1"><a xlink:title="Calculates u × v, where u, v ⊆ ℝ³.">
<polygon fill="#bfbfbf" stroke="#000000" points="844,-19.5 844,-38.5 886,-38.5 886,-19.5 844,-19.5"/>
<text text-anchor="middle" x="865" y="-26.5" font-family="Helvetica,sans-Serif" font-size="10.00" fill="#000000">cross</text>
</a>
</g>
</g>
<!-- Node24 -->
<g id="node2" class="node">
<title>Node24</title>
<g id="a_node2"><a xlink:href="classLine.html#af14c90f6f7c18003e35ca3a08be32368" target="_top" xlink:title=" ">
<polygon fill="#ffffff" stroke="#000000" points="693,-38.5 693,-57.5 779,-57.5 779,-38.5 693,-38.5"/>
<text text-anchor="middle" x="736" y="-45.5" font-family="Helvetica,sans-Serif" font-size="10.00" fill="#000000">Line::intersect</text>
</a>
</g>
</g>
<!-- Node23&#45;&gt;Node24 -->
<g id="edge1" class="edge">
<title>Node23&#45;&gt;Node24</title>
<path fill="none" stroke="#191970" d="M833.8518,-33.5877C817.4574,-36.0024 797.0971,-39.0012 779.2011,-41.6371"/>
<polygon fill="#191970" stroke="#191970" points="834.6036,-37.0148 843.9868,-32.095 833.5835,-30.0896 834.6036,-37.0148"/>
</g>
<!-- Node29 -->
<g id="node7" class="node">
<title>Node29</title>
<g id="a_node7"><a xlink:href="classQuaternion.html#afee65eb7b0f6feb1c6c857e271e1d7d1" target="_top" xlink:title=" ">
<polygon fill="#ffffff" stroke="#000000" points="664,-.5 664,-19.5 808,-19.5 808,-.5 664,-.5"/>
<text text-anchor="middle" x="736" y="-7.5" font-family="Helvetica,sans-Serif" font-size="10.00" fill="#000000">Quaternion::fromDirection</text>
</a>
</g>
</g>
<!-- Node23&#45;&gt;Node29 -->
<g id="edge8" class="edge">
<title>Node23&#45;&gt;Node29</title>
<path fill="none" stroke="#191970" d="M834.0886,-24.4472C824.0016,-22.9615 812.3944,-21.2519 800.7753,-19.5406"/>
<polygon fill="#191970" stroke="#191970" points="833.5835,-27.9104 843.9868,-25.905 834.6036,-20.9852 833.5835,-27.9104"/>
</g>
<!-- Node25 -->
<g id="node3" class="node">
<title>Node25</title>
<g id="a_node3"><a xlink:href="classGridFinder.html#ac7202be6727634054a169022b5ce3e01" target="_top" xlink:title="Get the point of intersection of two lines.">
<polygon fill="#ffffff" stroke="#000000" points="513,-76.5 513,-95.5 628,-95.5 628,-76.5 513,-76.5"/>
<text text-anchor="middle" x="570.5" y="-83.5" font-family="Helvetica,sans-Serif" font-size="10.00" fill="#000000">GridFinder::intersect</text>
</a>
</g>
</g>
<!-- Node24&#45;&gt;Node25 -->
<g id="edge2" class="edge">
<title>Node24&#45;&gt;Node25</title>
<path fill="none" stroke="#191970" d="M684.1895,-59.8961C660.9267,-65.2374 633.8531,-71.4537 611.9623,-76.4799"/>
<polygon fill="#191970" stroke="#191970" points="685.2742,-63.2382 694.2374,-57.589 683.7077,-56.4157 685.2742,-63.2382"/>
</g>
<!-- Node28 -->
<g id="node6" class="node">
<title>Node28</title>
<g id="a_node6"><a xlink:href="Grid-Finder_8module_8hpp.html#a6849f4dcdb45a7aaadcda6439233d376" target="_top" xlink:title=" ">
<polygon fill="#ffffff" stroke="#000000" points="0,-76.5 0,-95.5 113,-95.5 113,-76.5 0,-76.5"/>
<text text-anchor="middle" x="56.5" y="-83.5" font-family="Helvetica,sans-Serif" font-size="10.00" fill="#000000">PYBIND11_MODULE</text>
</a>
</g>
</g>
<!-- Node24&#45;&gt;Node28 -->
<g id="edge7" class="edge">
<title>Node24&#45;&gt;Node28</title>
<path fill="none" stroke="#191970" d="M682.9114,-50.3913C608.9614,-53.7776 470.7585,-60.3064 353,-67 269.4443,-71.7494 172.7013,-78.1107 113.0503,-82.1328"/>
<polygon fill="#191970" stroke="#191970" points="683.0809,-53.8873 692.9108,-49.9347 682.7615,-46.8946 683.0809,-53.8873"/>
</g>
<!-- Node26 -->
<g id="node4" class="node">
<title>Node26</title>
<g id="a_node4"><a xlink:href="classGridFinder.html#a701c0c1e70d01bb8773a89a29f6673a0" target="_top" xlink:title="This is the main function: it looks for a complete square of the grid, as close to the center of the ...">
<polygon fill="#ffffff" stroke="#000000" points="353,-76.5 353,-95.5 477,-95.5 477,-76.5 353,-76.5"/>
<text text-anchor="middle" x="415" y="-83.5" font-family="Helvetica,sans-Serif" font-size="10.00" fill="#000000">GridFinder::findSquare</text>
</a>
</g>
</g>
<!-- Node25&#45;&gt;Node26 -->
<g id="edge3" class="edge">
<title>Node25&#45;&gt;Node26</title>
<path fill="none" stroke="#191970" d="M502.433,-86C494.0152,-86 485.4436,-86 477.1211,-86"/>
<polygon fill="#191970" stroke="#191970" points="502.5976,-89.5001 512.5975,-86 502.5975,-82.5001 502.5976,-89.5001"/>
</g>
<!-- Node27 -->
<g id="node5" class="node">
<title>Node27</title>
<g id="a_node5"><a xlink:href="classLocationFinder.html#af56756d038d762e04e0c91bac9fc2522" target="_top" xlink:title="Read a new frame, mask it, run GridFinder, and get the position of the drone. The position is the pos...">
<polygon fill="#ffffff" stroke="#000000" points="149,-114.5 149,-133.5 317,-133.5 317,-114.5 149,-114.5"/>
<text text-anchor="middle" x="233" y="-121.5" font-family="Helvetica,sans-Serif" font-size="10.00" fill="#000000">LocationFinder::updateLocation</text>
</a>
</g>
</g>
<!-- Node26&#45;&gt;Node27 -->
<g id="edge4" class="edge">
<title>Node26&#45;&gt;Node27</title>
<path fill="none" stroke="#191970" d="M359.0542,-97.681C333.2442,-103.0699 302.9931,-109.3861 278.596,-114.4799"/>
<polygon fill="#191970" stroke="#191970" points="360.0002,-101.059 369.0737,-95.589 358.5694,-94.2068 360.0002,-101.059"/>
</g>
<!-- Node26&#45;&gt;Node28 -->
<g id="edge6" class="edge">
<title>Node26&#45;&gt;Node28</title>
<path fill="none" stroke="#191970" d="M342.797,-86C275.0706,-86 175.1701,-86 113.0574,-86"/>
<polygon fill="#191970" stroke="#191970" points="342.9634,-89.5001 352.9633,-86 342.9633,-82.5001 342.9634,-89.5001"/>
</g>
<!-- Node27&#45;&gt;Node28 -->
<g id="edge5" class="edge">
<title>Node27&#45;&gt;Node28</title>
<path fill="none" stroke="#191970" d="M178.4124,-112.2474C153.4553,-106.8742 124.2732,-100.5914 100.7181,-95.5201"/>
<polygon fill="#191970" stroke="#191970" points="177.9489,-115.7278 188.4616,-114.411 179.4223,-108.8846 177.9489,-115.7278"/>
</g>
<!-- Node30 -->
<g id="node8" class="node">
<title>Node30</title>
<g id="a_node8"><a xlink:href="PyQuaternion_8cpp.html#a2957609bcf20d996c14300f7288e3300" target="_top" xlink:title=" ">
<polygon fill="#ffffff" stroke="#000000" points="514,-.5 514,-19.5 627,-19.5 627,-.5 514,-.5"/>
<text text-anchor="middle" x="570.5" y="-7.5" font-family="Helvetica,sans-Serif" font-size="10.00" fill="#000000">PYBIND11_MODULE</text>
</a>
</g>
</g>
<!-- Node29&#45;&gt;Node30 -->
<g id="edge9" class="edge">
<title>Node29&#45;&gt;Node30</title>
<path fill="none" stroke="#191970" d="M653.7669,-10C644.7769,-10 635.7788,-10 627.197,-10"/>
<polygon fill="#191970" stroke="#191970" points="653.8908,-13.5001 663.8907,-10 653.8907,-6.5001 653.8908,-13.5001"/>
</g>
</g>
</svg>
