<?xml version="1.0" encoding="UTF-8" standalone="no"?>
<!DOCTYPE svg PUBLIC "-//W3C//DTD SVG 1.1//EN"
 "http://www.w3.org/Graphics/SVG/1.1/DTD/svg11.dtd">
<!-- Generated by graphviz version 2.40.1 (20161225.0304)
 -->
<!-- Title: cross Pages: 1 -->
<svg width="836pt" height="85pt"
 viewBox="0.00 0.00 836.00 85.00" xmlns="http://www.w3.org/2000/svg" xmlns:xlink="http://www.w3.org/1999/xlink">
<g id="graph0" class="graph" transform="scale(1 1) rotate(0) translate(4 81)">
<title>cross</title>
<polygon fill="#ffffff" stroke="transparent" points="-4,4 -4,-81 832,-81 832,4 -4,4"/>
<!-- Node18 -->
<g id="node1" class="node">
<title>Node18</title>
<g id="a_node1"><a xlink:title="Calculates u × v, where u, v ⊆ ℝ³.">
<polygon fill="#bfbfbf" stroke="#000000" points="786,-.5 786,-19.5 828,-19.5 828,-.5 786,-.5"/>
<text text-anchor="middle" x="807" y="-7.5" font-family="Helvetica,sans-Serif" font-size="10.00" fill="#000000">cross</text>
</a>
</g>
</g>
<!-- Node19 -->
<g id="node2" class="node">
<title>Node19</title>
<g id="a_node2"><a xlink:href="classLine.html#af14c90f6f7c18003e35ca3a08be32368" target="_top" xlink:title=" ">
<polygon fill="#ffffff" stroke="#000000" points="664,-.5 664,-19.5 750,-19.5 750,-.5 664,-.5"/>
<text text-anchor="middle" x="707" y="-7.5" font-family="Helvetica,sans-Serif" font-size="10.00" fill="#000000">Line::intersect</text>
</a>
</g>
</g>
<!-- Node18&#45;&gt;Node19 -->
<g id="edge1" class="edge">
<title>Node18&#45;&gt;Node19</title>
<path fill="none" stroke="#191970" d="M775.7537,-10C767.7215,-10 758.9341,-10 750.407,-10"/>
<polygon fill="#191970" stroke="#191970" points="775.7926,-13.5001 785.7926,-10 775.7925,-6.5001 775.7926,-13.5001"/>
</g>
<!-- Node20 -->
<g id="node3" class="node">
<title>Node20</title>
<g id="a_node3"><a xlink:href="classGridFinder.html#ac7202be6727634054a169022b5ce3e01" target="_top" xlink:title="Get the point of intersection of two lines.">
<polygon fill="#ffffff" stroke="#000000" points="513,-19.5 513,-38.5 628,-38.5 628,-19.5 513,-19.5"/>
<text text-anchor="middle" x="570.5" y="-26.5" font-family="Helvetica,sans-Serif" font-size="10.00" fill="#000000">GridFinder::intersect</text>
</a>
</g>
</g>
<!-- Node19&#45;&gt;Node20 -->
<g id="edge2" class="edge">
<title>Node19&#45;&gt;Node20</title>
<path fill="none" stroke="#191970" d="M653.8286,-17.4012C645.4872,-18.5622 636.8295,-19.7673 628.3883,-20.9423"/>
<polygon fill="#191970" stroke="#191970" points="654.3886,-20.857 663.8105,-16.0117 653.4235,-13.9239 654.3886,-20.857"/>
</g>
<!-- Node23 -->
<g id="node6" class="node">
<title>Node23</title>
<g id="a_node6"><a xlink:href="Grid-Finder_8module_8hpp.html#a05e720af51446c0f9319fb9455fe1767" target="_top" xlink:title=" ">
<polygon fill="#ffffff" stroke="#000000" points="0,-19.5 0,-38.5 113,-38.5 113,-19.5 0,-19.5"/>
<text text-anchor="middle" x="56.5" y="-26.5" font-family="Helvetica,sans-Serif" font-size="10.00" fill="#000000">PYBIND11_MODULE</text>
</a>
</g>
</g>
<!-- Node19&#45;&gt;Node23 -->
<g id="edge7" class="edge">
<title>Node19&#45;&gt;Node23</title>
<path fill="none" stroke="#191970" d="M653.7136,-8.9389C584.4197,-7.8026 459.6302,-6.587 353,-10 269.3522,-12.6774 172.6339,-19.593 113.0133,-24.2992"/>
<polygon fill="#191970" stroke="#191970" points="653.8784,-12.4421 663.9364,-9.1127 653.9974,-5.4431 653.8784,-12.4421"/>
</g>
<!-- Node21 -->
<g id="node4" class="node">
<title>Node21</title>
<g id="a_node4"><a xlink:href="classGridFinder.html#a8940ca681fac78274043cf5f1f1f5761" target="_top" xlink:title="This is the main function: it looks for a complete square of the grid, as close to the center of the ...">
<polygon fill="#ffffff" stroke="#000000" points="353,-19.5 353,-38.5 477,-38.5 477,-19.5 353,-19.5"/>
<text text-anchor="middle" x="415" y="-26.5" font-family="Helvetica,sans-Serif" font-size="10.00" fill="#000000">GridFinder::findSquare</text>
</a>
</g>
</g>
<!-- Node20&#45;&gt;Node21 -->
<g id="edge3" class="edge">
<title>Node20&#45;&gt;Node21</title>
<path fill="none" stroke="#191970" d="M502.433,-29C494.0152,-29 485.4436,-29 477.1211,-29"/>
<polygon fill="#191970" stroke="#191970" points="502.5976,-32.5001 512.5975,-29 502.5975,-25.5001 502.5976,-32.5001"/>
</g>
<!-- Node22 -->
<g id="node5" class="node">
<title>Node22</title>
<g id="a_node5"><a xlink:href="classLocationFinder.html#af56756d038d762e04e0c91bac9fc2522" target="_top" xlink:title="Read a new frame, mask it, run GridFinder, and get the position of the drone. The position is the pos...">
<polygon fill="#ffffff" stroke="#000000" points="149,-57.5 149,-76.5 317,-76.5 317,-57.5 149,-57.5"/>
<text text-anchor="middle" x="233" y="-64.5" font-family="Helvetica,sans-Serif" font-size="10.00" fill="#000000">LocationFinder::updateLocation</text>
</a>
</g>
</g>
<!-- Node21&#45;&gt;Node22 -->
<g id="edge4" class="edge">
<title>Node21&#45;&gt;Node22</title>
<path fill="none" stroke="#191970" d="M359.0542,-40.681C333.2442,-46.0699 302.9931,-52.3861 278.596,-57.4799"/>
<polygon fill="#191970" stroke="#191970" points="360.0002,-44.059 369.0737,-38.589 358.5694,-37.2068 360.0002,-44.059"/>
</g>
<!-- Node21&#45;&gt;Node23 -->
<g id="edge6" class="edge">
<title>Node21&#45;&gt;Node23</title>
<path fill="none" stroke="#191970" d="M342.797,-29C275.0706,-29 175.1701,-29 113.0574,-29"/>
<polygon fill="#191970" stroke="#191970" points="342.9634,-32.5001 352.9633,-29 342.9633,-25.5001 342.9634,-32.5001"/>
</g>
<!-- Node22&#45;&gt;Node23 -->
<g id="edge5" class="edge">
<title>Node22&#45;&gt;Node23</title>
<path fill="none" stroke="#191970" d="M178.4124,-55.2474C153.4553,-49.8742 124.2732,-43.5914 100.7181,-38.5201"/>
<polygon fill="#191970" stroke="#191970" points="177.9489,-58.7278 188.4616,-57.411 179.4223,-51.8846 177.9489,-58.7278"/>
</g>
</g>
</svg>
