<?xml version="1.0" encoding="UTF-8" standalone="no"?>
<!DOCTYPE svg PUBLIC "-//W3C//DTD SVG 1.1//EN"
 "http://www.w3.org/Graphics/SVG/1.1/DTD/svg11.dtd">
<!-- Generated by graphviz version 2.40.1 (20161225.0304)
 -->
<!-- Title: /home/pieter/GitHub/EAGLE&#45;ZYBO&#45;Linux/src/matrix/include/MatrixHelpers.hpp Pages: 1 -->
<svg width="599pt" height="218pt"
 viewBox="0.00 0.00 599.00 218.00" xmlns="http://www.w3.org/2000/svg" xmlns:xlink="http://www.w3.org/1999/xlink">
<g id="graph0" class="graph" transform="scale(1 1) rotate(0) translate(4 214)">
<title>/home/pieter/GitHub/EAGLE&#45;ZYBO&#45;Linux/src/matrix/include/MatrixHelpers.hpp</title>
<polygon fill="#ffffff" stroke="transparent" points="-4,4 -4,-214 595,-214 595,4 -4,4"/>
<!-- Node0 -->
<g id="node1" class="node">
<title>Node0</title>
<g id="a_node1"><a xlink:title=" ">
<polygon fill="#bfbfbf" stroke="#000000" points="200,-168.5 200,-209.5 382,-209.5 382,-168.5 200,-168.5"/>
<text text-anchor="start" x="208" y="-197.5" font-family="Helvetica,sans-Serif" font-size="10.00" fill="#000000">/home/pieter/GitHub</text>
<text text-anchor="start" x="208" y="-186.5" font-family="Helvetica,sans-Serif" font-size="10.00" fill="#000000">/EAGLE&#45;ZYBO&#45;Linux/src</text>
<text text-anchor="middle" x="291" y="-175.5" font-family="Helvetica,sans-Serif" font-size="10.00" fill="#000000">/matrix/include/MatrixHelpers.hpp</text>
</a>
</g>
</g>
<!-- Node1 -->
<g id="node2" class="node">
<title>Node1</title>
<g id="a_node2"><a xlink:href="ArrayHelpers_8hpp.html" target="_top" xlink:title=" ">
<polygon fill="#ffffff" stroke="#000000" points="189.5,-112.5 189.5,-131.5 290.5,-131.5 290.5,-112.5 189.5,-112.5"/>
<text text-anchor="middle" x="240" y="-119.5" font-family="Helvetica,sans-Serif" font-size="10.00" fill="#000000">ArrayHelpers.hpp</text>
</a>
</g>
</g>
<!-- Node0&#45;&gt;Node1 -->
<g id="edge1" class="edge">
<title>Node0&#45;&gt;Node1</title>
<path fill="none" stroke="#191970" d="M275.1428,-168.168C268.2128,-159.0639 260.1685,-148.4959 253.5264,-139.7699"/>
<polygon fill="#191970" stroke="#191970" points="256.2867,-137.6176 247.4448,-131.7805 250.7168,-141.8574 256.2867,-137.6176"/>
</g>
<!-- Node9 -->
<g id="node10" class="node">
<title>Node9</title>
<g id="a_node10"><a xlink:href="Matrix_8hpp.html" target="_top" xlink:title=" ">
<polygon fill="#ffffff" stroke="#000000" points="325,-112.5 325,-131.5 393,-131.5 393,-112.5 325,-112.5"/>
<text text-anchor="middle" x="359" y="-119.5" font-family="Helvetica,sans-Serif" font-size="10.00" fill="#000000">Matrix.hpp</text>
</a>
</g>
</g>
<!-- Node0&#45;&gt;Node9 -->
<g id="edge10" class="edge">
<title>Node0&#45;&gt;Node9</title>
<path fill="none" stroke="#191970" d="M312.1429,-168.168C321.6716,-158.7794 332.7805,-147.834 341.7895,-138.9574"/>
<polygon fill="#191970" stroke="#191970" points="344.4068,-141.2921 349.0736,-131.7805 339.4938,-136.3058 344.4068,-141.2921"/>
</g>
<!-- Node2 -->
<g id="node3" class="node">
<title>Node2</title>
<g id="a_node3"><a xlink:href="Array_8hpp.html" target="_top" xlink:title=" ">
<polygon fill="#ffffff" stroke="#000000" points="209,-56.5 209,-75.5 271,-75.5 271,-56.5 209,-56.5"/>
<text text-anchor="middle" x="240" y="-63.5" font-family="Helvetica,sans-Serif" font-size="10.00" fill="#000000">Array.hpp</text>
</a>
</g>
</g>
<!-- Node1&#45;&gt;Node2 -->
<g id="edge2" class="edge">
<title>Node1&#45;&gt;Node2</title>
<path fill="none" stroke="#191970" d="M240,-112.2455C240,-104.9382 240,-94.6944 240,-85.7046"/>
<polygon fill="#191970" stroke="#191970" points="243.5001,-85.6426 240,-75.6427 236.5001,-85.6427 243.5001,-85.6426"/>
</g>
<!-- Node3 -->
<g id="node4" class="node">
<title>Node3</title>
<g id="a_node4"><a xlink:title=" ">
<polygon fill="#ffffff" stroke="#bfbfbf" points="0,-.5 0,-19.5 64,-19.5 64,-.5 0,-.5"/>
<text text-anchor="middle" x="32" y="-7.5" font-family="Helvetica,sans-Serif" font-size="10.00" fill="#000000">algorithm</text>
</a>
</g>
</g>
<!-- Node1&#45;&gt;Node3 -->
<g id="edge9" class="edge">
<title>Node1&#45;&gt;Node3</title>
<path fill="none" stroke="#191970" d="M220.3407,-112.385C201.8195,-103.2508 173.3556,-89.0166 149,-76 117.042,-58.9203 80.7777,-38.2608 57.2066,-24.6585"/>
<polygon fill="#191970" stroke="#191970" points="58.9393,-21.6174 48.5307,-19.6396 55.4341,-27.6766 58.9393,-21.6174"/>
</g>
<!-- Node2&#45;&gt;Node3 -->
<g id="edge3" class="edge">
<title>Node2&#45;&gt;Node3</title>
<path fill="none" stroke="#191970" d="M208.8603,-57.6162C172.9205,-47.9401 113.6516,-31.9831 73.7408,-21.2379"/>
<polygon fill="#191970" stroke="#191970" points="74.6032,-17.8455 64.0371,-18.6254 72.7833,-24.6048 74.6032,-17.8455"/>
</g>
<!-- Node4 -->
<g id="node5" class="node">
<title>Node4</title>
<g id="a_node5"><a xlink:title=" ">
<polygon fill="#ffffff" stroke="#bfbfbf" points="398.5,-.5 398.5,-19.5 445.5,-19.5 445.5,-.5 398.5,-.5"/>
<text text-anchor="middle" x="422" y="-7.5" font-family="Helvetica,sans-Serif" font-size="10.00" fill="#000000">cmath</text>
</a>
</g>
</g>
<!-- Node2&#45;&gt;Node4 -->
<g id="edge4" class="edge">
<title>Node2&#45;&gt;Node4</title>
<path fill="none" stroke="#191970" d="M271.2869,-56.3733C303.9844,-46.3125 355.0969,-30.5856 388.572,-20.2855"/>
<polygon fill="#191970" stroke="#191970" points="389.8262,-23.5616 398.3547,-17.2755 387.7676,-16.8712 389.8262,-23.5616"/>
</g>
<!-- Node5 -->
<g id="node6" class="node">
<title>Node5</title>
<g id="a_node6"><a xlink:title=" ">
<polygon fill="#ffffff" stroke="#bfbfbf" points="252.5,-.5 252.5,-19.5 305.5,-19.5 305.5,-.5 252.5,-.5"/>
<text text-anchor="middle" x="279" y="-7.5" font-family="Helvetica,sans-Serif" font-size="10.00" fill="#000000">cstddef</text>
</a>
</g>
</g>
<!-- Node2&#45;&gt;Node5 -->
<g id="edge5" class="edge">
<title>Node2&#45;&gt;Node5</title>
<path fill="none" stroke="#191970" d="M246.7933,-56.2455C252.2178,-48.4564 259.9661,-37.3308 266.5033,-27.9439"/>
<polygon fill="#191970" stroke="#191970" points="269.4417,-29.849 272.2846,-19.6427 263.6975,-25.8485 269.4417,-29.849"/>
</g>
<!-- Node6 -->
<g id="node7" class="node">
<title>Node6</title>
<g id="a_node7"><a xlink:title=" ">
<polygon fill="#ffffff" stroke="#bfbfbf" points="324,-.5 324,-19.5 380,-19.5 380,-.5 324,-.5"/>
<text text-anchor="middle" x="352" y="-7.5" font-family="Helvetica,sans-Serif" font-size="10.00" fill="#000000">numeric</text>
</a>
</g>
</g>
<!-- Node2&#45;&gt;Node6 -->
<g id="edge6" class="edge">
<title>Node2&#45;&gt;Node6</title>
<path fill="none" stroke="#191970" d="M259.2535,-56.3733C277.0712,-47.4644 303.7747,-34.1127 323.9594,-24.0203"/>
<polygon fill="#191970" stroke="#191970" points="325.6187,-27.1038 332.9978,-19.5011 322.4882,-20.8428 325.6187,-27.1038"/>
</g>
<!-- Node7 -->
<g id="node8" class="node">
<title>Node7</title>
<g id="a_node8"><a xlink:title=" ">
<polygon fill="#ffffff" stroke="#bfbfbf" points="82.5,-.5 82.5,-19.5 151.5,-19.5 151.5,-.5 82.5,-.5"/>
<text text-anchor="middle" x="117" y="-7.5" font-family="Helvetica,sans-Serif" font-size="10.00" fill="#000000">type_traits</text>
</a>
</g>
</g>
<!-- Node2&#45;&gt;Node7 -->
<g id="edge7" class="edge">
<title>Node2&#45;&gt;Node7</title>
<path fill="none" stroke="#191970" d="M218.8555,-56.3733C199.1108,-47.3838 169.4302,-33.8706 147.1945,-23.7471"/>
<polygon fill="#191970" stroke="#191970" points="148.42,-20.4594 137.8685,-19.5011 145.5194,-26.8302 148.42,-20.4594"/>
</g>
<!-- Node8 -->
<g id="node9" class="node">
<title>Node8</title>
<g id="a_node9"><a xlink:title=" ">
<polygon fill="#ffffff" stroke="#bfbfbf" points="169.5,-.5 169.5,-19.5 234.5,-19.5 234.5,-.5 169.5,-.5"/>
<text text-anchor="middle" x="202" y="-7.5" font-family="Helvetica,sans-Serif" font-size="10.00" fill="#000000">stdexcept</text>
</a>
</g>
</g>
<!-- Node2&#45;&gt;Node8 -->
<g id="edge8" class="edge">
<title>Node2&#45;&gt;Node8</title>
<path fill="none" stroke="#191970" d="M233.3809,-56.2455C228.0954,-48.4564 220.5459,-37.3308 214.1762,-27.9439"/>
<polygon fill="#191970" stroke="#191970" points="217.0545,-25.9522 208.5432,-19.6427 211.2621,-29.8827 217.0545,-25.9522"/>
</g>
<!-- Node9&#45;&gt;Node2 -->
<g id="edge11" class="edge">
<title>Node9&#45;&gt;Node2</title>
<path fill="none" stroke="#191970" d="M338.5432,-112.3733C319.5262,-103.4241 290.9825,-89.9917 269.5024,-79.8835"/>
<polygon fill="#191970" stroke="#191970" points="270.7284,-76.5923 260.1899,-75.5011 267.7478,-82.926 270.7284,-76.5923"/>
</g>
<!-- Node9&#45;&gt;Node3 -->
<g id="edge12" class="edge">
<title>Node9&#45;&gt;Node3</title>
<path fill="none" stroke="#191970" d="M324.9078,-113.1201C292.5172,-104.4524 242.5749,-90.4868 200,-76 174.252,-67.2389 106.1804,-40.0142 65.0194,-23.3929"/>
<polygon fill="#191970" stroke="#191970" points="66.2573,-20.1182 55.6744,-19.6148 63.6335,-26.6079 66.2573,-20.1182"/>
</g>
<!-- Node9&#45;&gt;Node4 -->
<g id="edge14" class="edge">
<title>Node9&#45;&gt;Node4</title>
<path fill="none" stroke="#191970" d="M364.2713,-112.1067C371.2023,-99.1518 383.8131,-75.7642 395,-56 400.1701,-46.8659 406.0548,-36.8028 411.0079,-28.4238"/>
<polygon fill="#191970" stroke="#191970" points="414.0212,-30.2042 416.1164,-19.8186 408.0019,-26.6308 414.0212,-30.2042"/>
</g>
<!-- Node10 -->
<g id="node11" class="node">
<title>Node10</title>
<g id="a_node11"><a xlink:title=" ">
<polygon fill="#ffffff" stroke="#bfbfbf" points="475,-56.5 475,-75.5 517,-75.5 517,-56.5 475,-56.5"/>
<text text-anchor="middle" x="496" y="-63.5" font-family="Helvetica,sans-Serif" font-size="10.00" fill="#000000">array</text>
</a>
</g>
</g>
<!-- Node9&#45;&gt;Node10 -->
<g id="edge13" class="edge">
<title>Node9&#45;&gt;Node10</title>
<path fill="none" stroke="#191970" d="M382.5511,-112.3733C405.5145,-102.9868 440.5438,-88.6682 465.5998,-78.4263"/>
<polygon fill="#191970" stroke="#191970" points="467.0669,-81.6078 474.9992,-74.5843 464.4183,-75.1282 467.0669,-81.6078"/>
</g>
<!-- Node11 -->
<g id="node12" class="node">
<title>Node11</title>
<g id="a_node12"><a xlink:title=" ">
<polygon fill="#ffffff" stroke="#bfbfbf" points="535,-56.5 535,-75.5 591,-75.5 591,-56.5 535,-56.5"/>
<text text-anchor="middle" x="563" y="-63.5" font-family="Helvetica,sans-Serif" font-size="10.00" fill="#000000">iomanip</text>
</a>
</g>
</g>
<!-- Node9&#45;&gt;Node11 -->
<g id="edge15" class="edge">
<title>Node9&#45;&gt;Node11</title>
<path fill="none" stroke="#191970" d="M393.145,-112.6269C429.536,-102.6372 487.0161,-86.8583 524.8655,-76.4683"/>
<polygon fill="#191970" stroke="#191970" points="526.2698,-79.7123 534.9866,-73.69 524.4168,-72.9621 526.2698,-79.7123"/>
</g>
<!-- Node12 -->
<g id="node13" class="node">
<title>Node12</title>
<g id="a_node13"><a xlink:title=" ">
<polygon fill="#ffffff" stroke="#bfbfbf" points="289.5,-56.5 289.5,-75.5 346.5,-75.5 346.5,-56.5 289.5,-56.5"/>
<text text-anchor="middle" x="318" y="-63.5" font-family="Helvetica,sans-Serif" font-size="10.00" fill="#000000">ostream</text>
</a>
</g>
</g>
<!-- Node9&#45;&gt;Node12 -->
<g id="edge16" class="edge">
<title>Node9&#45;&gt;Node12</title>
<path fill="none" stroke="#191970" d="M351.8583,-112.2455C346.1556,-104.4564 338.01,-93.3308 331.1375,-83.9439"/>
<polygon fill="#191970" stroke="#191970" points="333.7913,-81.6437 325.0598,-75.6427 328.1432,-85.7789 333.7913,-81.6437"/>
</g>
<!-- Node13 -->
<g id="node14" class="node">
<title>Node13</title>
<g id="a_node14"><a xlink:href="real__t_8h.html" target="_top" xlink:title=" ">
<polygon fill="#ffffff" stroke="#000000" points="403.5,-56.5 403.5,-75.5 456.5,-75.5 456.5,-56.5 403.5,-56.5"/>
<text text-anchor="middle" x="430" y="-63.5" font-family="Helvetica,sans-Serif" font-size="10.00" fill="#000000">real_t.h</text>
</a>
</g>
</g>
<!-- Node9&#45;&gt;Node13 -->
<g id="edge17" class="edge">
<title>Node9&#45;&gt;Node13</title>
<path fill="none" stroke="#191970" d="M371.3673,-112.2455C381.9554,-103.8943 397.4064,-91.7076 409.7893,-81.9408"/>
<polygon fill="#191970" stroke="#191970" points="412.0903,-84.5837 417.7745,-75.6427 407.7553,-79.0875 412.0903,-84.5837"/>
</g>
<!-- Node14 -->
<g id="node15" class="node">
<title>Node14</title>
<g id="a_node15"><a xlink:title=" ">
<polygon fill="#ffffff" stroke="#bfbfbf" points="463.5,-.5 463.5,-19.5 516.5,-19.5 516.5,-.5 463.5,-.5"/>
<text text-anchor="middle" x="490" y="-7.5" font-family="Helvetica,sans-Serif" font-size="10.00" fill="#000000">stdint.h</text>
</a>
</g>
</g>
<!-- Node13&#45;&gt;Node14 -->
<g id="edge18" class="edge">
<title>Node13&#45;&gt;Node14</title>
<path fill="none" stroke="#191970" d="M440.4512,-56.2455C449.2269,-48.0549 461.9554,-36.1749 472.314,-26.5069"/>
<polygon fill="#191970" stroke="#191970" points="474.7461,-29.0246 479.6686,-19.6427 469.9699,-23.9072 474.7461,-29.0246"/>
</g>
</g>
</svg>
