<?xml version="1.0" encoding="UTF-8" standalone="no"?>
<!DOCTYPE svg PUBLIC "-//W3C//DTD SVG 1.1//EN"
 "http://www.w3.org/Graphics/SVG/1.1/DTD/svg11.dtd">
<!-- Generated by graphviz version 2.40.1 (20161225.0304)
 -->
<!-- Title: normsq Pages: 1 -->
<svg width="944pt" height="218pt"
 viewBox="0.00 0.00 944.00 218.00" xmlns="http://www.w3.org/2000/svg" xmlns:xlink="http://www.w3.org/1999/xlink">
<g id="graph0" class="graph" transform="scale(1 1) rotate(0) translate(4 214)">
<title>normsq</title>
<polygon fill="#ffffff" stroke="transparent" points="-4,4 -4,-214 940,-214 940,4 -4,4"/>
<!-- Node97 -->
<g id="node1" class="node">
<title>Node97</title>
<g id="a_node1"><a xlink:title=" ">
<polygon fill="#bfbfbf" stroke="#000000" points="883,-114.5 883,-133.5 936,-133.5 936,-114.5 883,-114.5"/>
<text text-anchor="middle" x="909.5" y="-121.5" font-family="Helvetica,sans-Serif" font-size="10.00" fill="#000000">normsq</text>
</a>
</g>
</g>
<!-- Node98 -->
<g id="node2" class="node">
<title>Node98</title>
<g id="a_node2"><a xlink:href="structPoint.html#a94f25dd17cb1d1cefb726eaa673a8505" target="_top" xlink:title=" ">
<polygon fill="#ffffff" stroke="#000000" points="719,-152.5 719,-171.5 847,-171.5 847,-152.5 719,-152.5"/>
<text text-anchor="middle" x="783" y="-159.5" font-family="Helvetica,sans-Serif" font-size="10.00" fill="#000000">Point::distanceSquared</text>
</a>
</g>
</g>
<!-- Node97&#45;&gt;Node98 -->
<g id="edge1" class="edge">
<title>Node97&#45;&gt;Node98</title>
<path fill="none" stroke="#191970" d="M873.1871,-134.9082C854.77,-140.4406 832.6058,-147.0986 814.8588,-152.4298"/>
<polygon fill="#191970" stroke="#191970" points="874.4112,-138.1951 882.9815,-131.966 872.3973,-131.491 874.4112,-138.1951"/>
</g>
<!-- Node104 -->
<g id="node8" class="node">
<title>Node104</title>
<g id="a_node8"><a xlink:href="Matrix_8hpp.html#ad0f00f50ffed8bca3147578aac014d4c" target="_top" xlink:title=" ">
<polygon fill="#ffffff" stroke="#000000" points="762,-76.5 762,-95.5 804,-95.5 804,-76.5 762,-76.5"/>
<text text-anchor="middle" x="783" y="-83.5" font-family="Helvetica,sans-Serif" font-size="10.00" fill="#000000">norm</text>
</a>
</g>
</g>
<!-- Node97&#45;&gt;Node104 -->
<g id="edge9" class="edge">
<title>Node97&#45;&gt;Node104</title>
<path fill="none" stroke="#191970" d="M873.1348,-113.0761C850.7434,-106.3498 822.8288,-97.9644 804.0465,-92.3223"/>
<polygon fill="#191970" stroke="#191970" points="872.3973,-116.509 882.9815,-116.034 874.4112,-109.8049 872.3973,-116.509"/>
</g>
<!-- Node99 -->
<g id="node3" class="node">
<title>Node99</title>
<g id="a_node3"><a xlink:href="classGridFinder.html#a701c0c1e70d01bb8773a89a29f6673a0" target="_top" xlink:title="This is the main function: it looks for a complete square of the grid, as close to the center of the ...">
<polygon fill="#ffffff" stroke="#000000" points="366,-190.5 366,-209.5 490,-209.5 490,-190.5 366,-190.5"/>
<text text-anchor="middle" x="428" y="-197.5" font-family="Helvetica,sans-Serif" font-size="10.00" fill="#000000">GridFinder::findSquare</text>
</a>
</g>
</g>
<!-- Node98&#45;&gt;Node99 -->
<g id="edge2" class="edge">
<title>Node98&#45;&gt;Node99</title>
<path fill="none" stroke="#191970" d="M728.8491,-173.4484C714.0373,-176.2625 697.9469,-179.0297 683,-181 617.4209,-189.6448 541.7961,-194.663 490.035,-197.3476"/>
<polygon fill="#191970" stroke="#191970" points="729.7203,-176.8446 738.8694,-171.5019 728.3854,-169.9731 729.7203,-176.8446"/>
</g>
<!-- Node102 -->
<g id="node6" class="node">
<title>Node102</title>
<g id="a_node6"><a xlink:href="structPoint.html#ab0fa03b5388829db9118785408deba75" target="_top" xlink:title=" ">
<polygon fill="#ffffff" stroke="#000000" points="566.5,-152.5 566.5,-171.5 655.5,-171.5 655.5,-152.5 566.5,-152.5"/>
<text text-anchor="middle" x="611" y="-159.5" font-family="Helvetica,sans-Serif" font-size="10.00" fill="#000000">Point::distance</text>
</a>
</g>
</g>
<!-- Node98&#45;&gt;Node102 -->
<g id="edge6" class="edge">
<title>Node98&#45;&gt;Node102</title>
<path fill="none" stroke="#191970" d="M708.9419,-162C690.7479,-162 671.8268,-162 655.5215,-162"/>
<polygon fill="#191970" stroke="#191970" points="708.9536,-165.5001 718.9535,-162 708.9535,-158.5001 708.9536,-165.5001"/>
</g>
<!-- Node100 -->
<g id="node4" class="node">
<title>Node100</title>
<g id="a_node4"><a xlink:href="classLocationFinder.html#af56756d038d762e04e0c91bac9fc2522" target="_top" xlink:title="Read a new frame, mask it, run GridFinder, and get the position of the drone. The position is the pos...">
<polygon fill="#ffffff" stroke="#000000" points="149,-152.5 149,-171.5 317,-171.5 317,-152.5 149,-152.5"/>
<text text-anchor="middle" x="233" y="-159.5" font-family="Helvetica,sans-Serif" font-size="10.00" fill="#000000">LocationFinder::updateLocation</text>
</a>
</g>
</g>
<!-- Node99&#45;&gt;Node100 -->
<g id="edge3" class="edge">
<title>Node99&#45;&gt;Node100</title>
<path fill="none" stroke="#191970" d="M369.0412,-188.5106C341.218,-183.0886 308.4043,-176.6942 281.9752,-171.5439"/>
<polygon fill="#191970" stroke="#191970" points="368.5601,-191.9826 379.045,-190.46 369.8991,-185.1118 368.5601,-191.9826"/>
</g>
<!-- Node101 -->
<g id="node5" class="node">
<title>Node101</title>
<g id="a_node5"><a xlink:href="Grid-Finder_8module_8hpp.html#a6849f4dcdb45a7aaadcda6439233d376" target="_top" xlink:title=" ">
<polygon fill="#ffffff" stroke="#000000" points="0,-171.5 0,-190.5 113,-190.5 113,-171.5 0,-171.5"/>
<text text-anchor="middle" x="56.5" y="-178.5" font-family="Helvetica,sans-Serif" font-size="10.00" fill="#000000">PYBIND11_MODULE</text>
</a>
</g>
</g>
<!-- Node99&#45;&gt;Node101 -->
<g id="edge5" class="edge">
<title>Node99&#45;&gt;Node101</title>
<path fill="none" stroke="#191970" d="M355.6221,-196.2983C284.6888,-192.6705 178.0357,-187.2158 113.0925,-183.8944"/>
<polygon fill="#191970" stroke="#191970" points="355.6535,-199.8044 365.8193,-196.8198 356.0111,-192.8135 355.6535,-199.8044"/>
</g>
<!-- Node100&#45;&gt;Node101 -->
<g id="edge4" class="edge">
<title>Node100&#45;&gt;Node101</title>
<path fill="none" stroke="#191970" d="M138.9025,-172.1295C130.0733,-173.0799 121.3225,-174.0219 113.0056,-174.9172"/>
<polygon fill="#191970" stroke="#191970" points="139.3175,-175.6051 148.8854,-171.0548 138.5682,-168.6453 139.3175,-175.6051"/>
</g>
<!-- Node103 -->
<g id="node7" class="node">
<title>Node103</title>
<g id="a_node7"><a xlink:href="classLocationFinder.html#a93be2c4b05b52c58f5fca5d1514dfbe9" target="_top" xlink:title="Get the position of the center of the frame relative to the given square.">
<polygon fill="#ffffff" stroke="#000000" points="353,-152.5 353,-171.5 503,-171.5 503,-152.5 353,-152.5"/>
<text text-anchor="middle" x="428" y="-159.5" font-family="Helvetica,sans-Serif" font-size="10.00" fill="#000000">LocationFinder::getLocation</text>
</a>
</g>
</g>
<!-- Node102&#45;&gt;Node103 -->
<g id="edge7" class="edge">
<title>Node102&#45;&gt;Node103</title>
<path fill="none" stroke="#191970" d="M556.1679,-162C539.5621,-162 521.0256,-162 503.3234,-162"/>
<polygon fill="#191970" stroke="#191970" points="556.2332,-165.5001 566.2332,-162 556.2331,-158.5001 556.2332,-165.5001"/>
</g>
<!-- Node103&#45;&gt;Node100 -->
<g id="edge8" class="edge">
<title>Node103&#45;&gt;Node100</title>
<path fill="none" stroke="#191970" d="M342.6491,-162C334.1912,-162 325.6095,-162 317.1639,-162"/>
<polygon fill="#191970" stroke="#191970" points="342.8869,-165.5001 352.8868,-162 342.8868,-158.5001 342.8869,-165.5001"/>
</g>
<!-- Node105 -->
<g id="node9" class="node">
<title>Node105</title>
<g id="a_node9"><a xlink:href="HouseholderQR_8hpp.html#a16f7547f23439d1eda0fcbde69451ef9" target="_top" xlink:title=" ">
<polygon fill="#ffffff" stroke="#000000" points="565.5,-114.5 565.5,-133.5 656.5,-133.5 656.5,-114.5 565.5,-114.5"/>
<text text-anchor="middle" x="611" y="-121.5" font-family="Helvetica,sans-Serif" font-size="10.00" fill="#000000">householderQR</text>
</a>
</g>
</g>
<!-- Node104&#45;&gt;Node105 -->
<g id="edge10" class="edge">
<title>Node104&#45;&gt;Node105</title>
<path fill="none" stroke="#191970" d="M752.1016,-92.8264C724.7469,-98.8699 684.5442,-107.7519 654.0423,-114.4907"/>
<polygon fill="#191970" stroke="#191970" points="752.9,-96.2345 761.9094,-90.6595 751.3898,-89.3993 752.9,-96.2345"/>
</g>
<!-- Node108 -->
<g id="node12" class="node">
<title>Node108</title>
<g id="a_node12"><a xlink:href="Matrix_8hpp.html#a04bdd2f6696e98f6cf0c65282f8c53d2" target="_top" xlink:title=" ">
<polygon fill="#ffffff" stroke="#000000" points="578.5,-76.5 578.5,-95.5 643.5,-95.5 643.5,-76.5 578.5,-76.5"/>
<text text-anchor="middle" x="611" y="-83.5" font-family="Helvetica,sans-Serif" font-size="10.00" fill="#000000">normalize</text>
</a>
</g>
</g>
<!-- Node104&#45;&gt;Node108 -->
<g id="edge13" class="edge">
<title>Node104&#45;&gt;Node108</title>
<path fill="none" stroke="#191970" d="M751.8087,-86C721.2408,-86 674.835,-86 643.7441,-86"/>
<polygon fill="#191970" stroke="#191970" points="751.9095,-89.5001 761.9094,-86 751.9094,-82.5001 751.9095,-89.5001"/>
</g>
<!-- Node109 -->
<g id="node13" class="node">
<title>Node109</title>
<g id="a_node13"><a xlink:href="classQuaternion.html#ada3751d11b6c9016db8f87f83577a05f" target="_top" xlink:title=" ">
<polygon fill="#ffffff" stroke="#000000" points="548.5,-38.5 548.5,-57.5 673.5,-57.5 673.5,-38.5 548.5,-38.5"/>
<text text-anchor="middle" x="611" y="-45.5" font-family="Helvetica,sans-Serif" font-size="10.00" fill="#000000">Quaternion::normalize</text>
</a>
</g>
</g>
<!-- Node104&#45;&gt;Node109 -->
<g id="edge14" class="edge">
<title>Node104&#45;&gt;Node109</title>
<path fill="none" stroke="#191970" d="M752.1016,-79.1736C724.7469,-73.1301 684.5442,-64.2481 654.0423,-57.5093"/>
<polygon fill="#191970" stroke="#191970" points="751.3898,-82.6007 761.9094,-81.3405 752.9,-75.7655 751.3898,-82.6007"/>
</g>
<!-- Node111 -->
<g id="node15" class="node">
<title>Node111</title>
<g id="a_node15"><a xlink:href="classQuaternion.html#afee65eb7b0f6feb1c6c857e271e1d7d1" target="_top" xlink:title=" ">
<polygon fill="#ffffff" stroke="#000000" points="539,-.5 539,-19.5 683,-19.5 683,-.5 539,-.5"/>
<text text-anchor="middle" x="611" y="-7.5" font-family="Helvetica,sans-Serif" font-size="10.00" fill="#000000">Quaternion::fromDirection</text>
</a>
</g>
</g>
<!-- Node104&#45;&gt;Node111 -->
<g id="edge16" class="edge">
<title>Node104&#45;&gt;Node111</title>
<path fill="none" stroke="#191970" d="M760.4572,-70.8798C740.7334,-58.2145 710.9452,-40.423 683,-29 674.0249,-25.3313 664.1289,-22.1815 654.6218,-19.5613"/>
<polygon fill="#191970" stroke="#191970" points="758.7354,-73.9354 769.0236,-76.4659 762.559,-68.0719 758.7354,-73.9354"/>
</g>
<!-- Node106 -->
<g id="node10" class="node">
<title>Node106</title>
<g id="a_node10"><a xlink:href="LeastSquares_8hpp.html#a3e86962f655361a684f770b14c9fe1e2" target="_top" xlink:title=" ">
<polygon fill="#ffffff" stroke="#000000" points="374,-114.5 374,-133.5 482,-133.5 482,-114.5 374,-114.5"/>
<text text-anchor="middle" x="428" y="-121.5" font-family="Helvetica,sans-Serif" font-size="10.00" fill="#000000">solveLeastSquares</text>
</a>
</g>
</g>
<!-- Node105&#45;&gt;Node106 -->
<g id="edge11" class="edge">
<title>Node105&#45;&gt;Node106</title>
<path fill="none" stroke="#191970" d="M555.2626,-124C532.0754,-124 505.2521,-124 482.227,-124"/>
<polygon fill="#191970" stroke="#191970" points="555.2935,-127.5001 565.2934,-124 555.2934,-120.5001 555.2935,-127.5001"/>
</g>
<!-- Node107 -->
<g id="node11" class="node">
<title>Node107</title>
<g id="a_node11"><a xlink:href="LeastSquares_8hpp.html#abc455a395ab6414f5312b56e5b479195" target="_top" xlink:title=" ">
<polygon fill="#ffffff" stroke="#000000" points="217,-114.5 217,-133.5 249,-133.5 249,-114.5 217,-114.5"/>
<text text-anchor="middle" x="233" y="-121.5" font-family="Helvetica,sans-Serif" font-size="10.00" fill="#000000">inv</text>
</a>
</g>
</g>
<!-- Node106&#45;&gt;Node107 -->
<g id="edge12" class="edge">
<title>Node106&#45;&gt;Node107</title>
<path fill="none" stroke="#191970" d="M363.8314,-124C323.2469,-124 273.9032,-124 249.0101,-124"/>
<polygon fill="#191970" stroke="#191970" points="363.9406,-127.5001 373.9406,-124 363.9406,-120.5001 363.9406,-127.5001"/>
</g>
<!-- Node110 -->
<g id="node14" class="node">
<title>Node110</title>
<g id="a_node14"><a xlink:href="PyQuaternion_8cpp.html#a2957609bcf20d996c14300f7288e3300" target="_top" xlink:title=" ">
<polygon fill="#ffffff" stroke="#000000" points="371.5,-19.5 371.5,-38.5 484.5,-38.5 484.5,-19.5 371.5,-19.5"/>
<text text-anchor="middle" x="428" y="-26.5" font-family="Helvetica,sans-Serif" font-size="10.00" fill="#000000">PYBIND11_MODULE</text>
</a>
</g>
</g>
<!-- Node109&#45;&gt;Node110 -->
<g id="edge15" class="edge">
<title>Node109&#45;&gt;Node110</title>
<path fill="none" stroke="#191970" d="M537.9378,-40.4143C520.1493,-38.5674 501.3908,-36.6198 484.5046,-34.8666"/>
<polygon fill="#191970" stroke="#191970" points="537.9698,-43.9364 548.2778,-41.4879 538.6928,-36.9738 537.9698,-43.9364"/>
</g>
<!-- Node111&#45;&gt;Node110 -->
<g id="edge17" class="edge">
<title>Node111&#45;&gt;Node110</title>
<path fill="none" stroke="#191970" d="M528.7177,-18.543C513.8538,-20.0862 498.6621,-21.6635 484.7331,-23.1097"/>
<polygon fill="#191970" stroke="#191970" points="529.3512,-21.9961 538.9362,-17.482 528.6282,-15.0335 529.3512,-21.9961"/>
</g>
</g>
</svg>
