<?xml version="1.0" encoding="UTF-8" standalone="no"?>
<!DOCTYPE svg PUBLIC "-//W3C//DTD SVG 1.1//EN"
 "http://www.w3.org/Graphics/SVG/1.1/DTD/svg11.dtd">
<!-- Generated by graphviz version 2.40.1 (20161225.0304)
 -->
<!-- Title: /home/pieter/GitHub/EAGLE&#45;ZYBO&#45;Linux/src/matrix/include/MatrixHelpers.hpp Pages: 1 -->
<svg width="442pt" height="218pt"
 viewBox="0.00 0.00 441.50 218.00" xmlns="http://www.w3.org/2000/svg" xmlns:xlink="http://www.w3.org/1999/xlink">
<g id="graph0" class="graph" transform="scale(1 1) rotate(0) translate(4 214)">
<title>/home/pieter/GitHub/EAGLE&#45;ZYBO&#45;Linux/src/matrix/include/MatrixHelpers.hpp</title>
<polygon fill="#ffffff" stroke="transparent" points="-4,4 -4,-214 437.5,-214 437.5,4 -4,4"/>
<!-- Node0 -->
<g id="node1" class="node">
<title>Node0</title>
<g id="a_node1"><a xlink:title=" ">
<polygon fill="#bfbfbf" stroke="#000000" points="116,-168.5 116,-209.5 298,-209.5 298,-168.5 116,-168.5"/>
<text text-anchor="start" x="124" y="-197.5" font-family="Helvetica,sans-Serif" font-size="10.00" fill="#000000">/home/pieter/GitHub</text>
<text text-anchor="start" x="124" y="-186.5" font-family="Helvetica,sans-Serif" font-size="10.00" fill="#000000">/EAGLE&#45;ZYBO&#45;Linux/src</text>
<text text-anchor="middle" x="207" y="-175.5" font-family="Helvetica,sans-Serif" font-size="10.00" fill="#000000">/matrix/include/MatrixHelpers.hpp</text>
</a>
</g>
</g>
<!-- Node1 -->
<g id="node2" class="node">
<title>Node1</title>
<g id="a_node2"><a xlink:href="ArrayHelpers_8hpp.html" target="_top" xlink:title=" ">
<polygon fill="#ffffff" stroke="#000000" points="105.5,-112.5 105.5,-131.5 206.5,-131.5 206.5,-112.5 105.5,-112.5"/>
<text text-anchor="middle" x="156" y="-119.5" font-family="Helvetica,sans-Serif" font-size="10.00" fill="#000000">ArrayHelpers.hpp</text>
</a>
</g>
</g>
<!-- Node0&#45;&gt;Node1 -->
<g id="edge1" class="edge">
<title>Node0&#45;&gt;Node1</title>
<path fill="none" stroke="#191970" d="M191.1428,-168.168C184.2128,-159.0639 176.1685,-148.4959 169.5264,-139.7699"/>
<polygon fill="#191970" stroke="#191970" points="172.2867,-137.6176 163.4448,-131.7805 166.7168,-141.8574 172.2867,-137.6176"/>
</g>
<!-- Node9 -->
<g id="node10" class="node">
<title>Node9</title>
<g id="a_node10"><a xlink:href="Matrix_8hpp.html" target="_top" xlink:title=" ">
<polygon fill="#ffffff" stroke="#000000" points="225,-112.5 225,-131.5 293,-131.5 293,-112.5 225,-112.5"/>
<text text-anchor="middle" x="259" y="-119.5" font-family="Helvetica,sans-Serif" font-size="10.00" fill="#000000">Matrix.hpp</text>
</a>
</g>
</g>
<!-- Node0&#45;&gt;Node9 -->
<g id="edge10" class="edge">
<title>Node0&#45;&gt;Node9</title>
<path fill="none" stroke="#191970" d="M223.1681,-168.168C230.234,-159.0639 238.436,-148.4959 245.2084,-139.7699"/>
<polygon fill="#191970" stroke="#191970" points="248.0429,-141.8263 251.4092,-131.7805 242.5129,-137.5344 248.0429,-141.8263"/>
</g>
<!-- Node2 -->
<g id="node3" class="node">
<title>Node2</title>
<g id="a_node3"><a xlink:href="Array_8hpp.html" target="_top" xlink:title=" ">
<polygon fill="#ffffff" stroke="#000000" points="151,-56.5 151,-75.5 213,-75.5 213,-56.5 151,-56.5"/>
<text text-anchor="middle" x="182" y="-63.5" font-family="Helvetica,sans-Serif" font-size="10.00" fill="#000000">Array.hpp</text>
</a>
</g>
</g>
<!-- Node1&#45;&gt;Node2 -->
<g id="edge2" class="edge">
<title>Node1&#45;&gt;Node2</title>
<path fill="none" stroke="#191970" d="M160.5289,-112.2455C164.0334,-104.6973 168.9927,-94.0158 173.2623,-84.8197"/>
<polygon fill="#191970" stroke="#191970" points="176.4864,-86.1867 177.523,-75.6427 170.1373,-83.2389 176.4864,-86.1867"/>
</g>
<!-- Node3 -->
<g id="node4" class="node">
<title>Node3</title>
<g id="a_node4"><a xlink:title=" ">
<polygon fill="#ffffff" stroke="#bfbfbf" points="0,-.5 0,-19.5 64,-19.5 64,-.5 0,-.5"/>
<text text-anchor="middle" x="32" y="-7.5" font-family="Helvetica,sans-Serif" font-size="10.00" fill="#000000">algorithm</text>
</a>
</g>
</g>
<!-- Node1&#45;&gt;Node3 -->
<g id="edge9" class="edge">
<title>Node1&#45;&gt;Node3</title>
<path fill="none" stroke="#191970" d="M142.2051,-112.3129C129.7433,-103.3573 111.0972,-89.4411 96,-76 78.6252,-60.5312 60.2894,-41.2828 47.7188,-27.5727"/>
<polygon fill="#191970" stroke="#191970" points="50.0092,-24.8883 40.697,-19.8352 44.8255,-29.5925 50.0092,-24.8883"/>
</g>
<!-- Node2&#45;&gt;Node3 -->
<g id="edge3" class="edge">
<title>Node2&#45;&gt;Node3</title>
<path fill="none" stroke="#191970" d="M156.2141,-56.3733C131.5953,-47.1822 94.31,-33.2624 67.0125,-23.0713"/>
<polygon fill="#191970" stroke="#191970" points="68.042,-19.7198 57.4494,-19.5011 65.5937,-26.2777 68.042,-19.7198"/>
</g>
<!-- Node4 -->
<g id="node5" class="node">
<title>Node4</title>
<g id="a_node5"><a xlink:title=" ">
<polygon fill="#ffffff" stroke="#bfbfbf" points="386.5,-.5 386.5,-19.5 433.5,-19.5 433.5,-.5 386.5,-.5"/>
<text text-anchor="middle" x="410" y="-7.5" font-family="Helvetica,sans-Serif" font-size="10.00" fill="#000000">cmath</text>
</a>
</g>
</g>
<!-- Node2&#45;&gt;Node4 -->
<g id="edge4" class="edge">
<title>Node2&#45;&gt;Node4</title>
<path fill="none" stroke="#191970" d="M213.4306,-58.0895C216.3263,-57.3767 219.2165,-56.6711 222,-56 287.7981,-40.1353 307.0425,-38.393 376.5813,-19.9817"/>
<polygon fill="#191970" stroke="#191970" points="377.5015,-23.3587 386.2606,-17.3983 375.6963,-16.5955 377.5015,-23.3587"/>
</g>
<!-- Node5 -->
<g id="node6" class="node">
<title>Node5</title>
<g id="a_node6"><a xlink:title=" ">
<polygon fill="#ffffff" stroke="#bfbfbf" points="82.5,-.5 82.5,-19.5 135.5,-19.5 135.5,-.5 82.5,-.5"/>
<text text-anchor="middle" x="109" y="-7.5" font-family="Helvetica,sans-Serif" font-size="10.00" fill="#000000">cstddef</text>
</a>
</g>
</g>
<!-- Node2&#45;&gt;Node5 -->
<g id="edge5" class="edge">
<title>Node2&#45;&gt;Node5</title>
<path fill="none" stroke="#191970" d="M169.2844,-56.2455C158.398,-47.8943 142.5117,-35.7076 129.78,-25.9408"/>
<polygon fill="#191970" stroke="#191970" points="131.6346,-22.9523 121.5699,-19.6427 127.3739,-28.5063 131.6346,-22.9523"/>
</g>
<!-- Node6 -->
<g id="node7" class="node">
<title>Node6</title>
<g id="a_node7"><a xlink:title=" ">
<polygon fill="#ffffff" stroke="#bfbfbf" points="154,-.5 154,-19.5 210,-19.5 210,-.5 154,-.5"/>
<text text-anchor="middle" x="182" y="-7.5" font-family="Helvetica,sans-Serif" font-size="10.00" fill="#000000">numeric</text>
</a>
</g>
</g>
<!-- Node2&#45;&gt;Node6 -->
<g id="edge6" class="edge">
<title>Node2&#45;&gt;Node6</title>
<path fill="none" stroke="#191970" d="M182,-56.2455C182,-48.9382 182,-38.6944 182,-29.7046"/>
<polygon fill="#191970" stroke="#191970" points="185.5001,-29.6426 182,-19.6427 178.5001,-29.6427 185.5001,-29.6426"/>
</g>
<!-- Node7 -->
<g id="node8" class="node">
<title>Node7</title>
<g id="a_node8"><a xlink:title=" ">
<polygon fill="#ffffff" stroke="#bfbfbf" points="228.5,-.5 228.5,-19.5 297.5,-19.5 297.5,-.5 228.5,-.5"/>
<text text-anchor="middle" x="263" y="-7.5" font-family="Helvetica,sans-Serif" font-size="10.00" fill="#000000">type_traits</text>
</a>
</g>
</g>
<!-- Node2&#45;&gt;Node7 -->
<g id="edge7" class="edge">
<title>Node2&#45;&gt;Node7</title>
<path fill="none" stroke="#191970" d="M196.1091,-56.2455C208.4209,-47.7337 226.4958,-35.2375 240.7538,-25.3801"/>
<polygon fill="#191970" stroke="#191970" points="242.8174,-28.2085 249.0526,-19.6427 238.8366,-22.4506 242.8174,-28.2085"/>
</g>
<!-- Node8 -->
<g id="node9" class="node">
<title>Node8</title>
<g id="a_node9"><a xlink:title=" ">
<polygon fill="#ffffff" stroke="#bfbfbf" points="316,-.5 316,-19.5 368,-19.5 368,-.5 316,-.5"/>
<text text-anchor="middle" x="342" y="-7.5" font-family="Helvetica,sans-Serif" font-size="10.00" fill="#000000">cassert</text>
</a>
</g>
</g>
<!-- Node2&#45;&gt;Node8 -->
<g id="edge8" class="edge">
<title>Node2&#45;&gt;Node8</title>
<path fill="none" stroke="#191970" d="M209.505,-56.3733C236.3165,-46.9892 277.2123,-32.6757 306.4733,-22.4343"/>
<polygon fill="#191970" stroke="#191970" points="307.6311,-25.7374 315.9134,-19.1303 305.3186,-19.1304 307.6311,-25.7374"/>
</g>
<!-- Node9&#45;&gt;Node2 -->
<g id="edge11" class="edge">
<title>Node9&#45;&gt;Node2</title>
<path fill="none" stroke="#191970" d="M245.5876,-112.2455C233.9943,-103.814 217.0252,-91.4729 203.5322,-81.6598"/>
<polygon fill="#191970" stroke="#191970" points="205.4047,-78.6938 195.2587,-75.6427 201.2874,-84.355 205.4047,-78.6938"/>
</g>
<!-- Node9&#45;&gt;Node3 -->
<g id="edge12" class="edge">
<title>Node9&#45;&gt;Node3</title>
<path fill="none" stroke="#191970" d="M231.0203,-112.4796C206.961,-103.946 171.5678,-90.5577 142,-76 110.7055,-60.5921 76.5288,-39.3328 54.7109,-25.1494"/>
<polygon fill="#191970" stroke="#191970" points="56.4428,-22.0998 46.1614,-19.5418 52.6036,-27.953 56.4428,-22.0998"/>
</g>
<!-- Node9&#45;&gt;Node4 -->
<g id="edge13" class="edge">
<title>Node9&#45;&gt;Node4</title>
<path fill="none" stroke="#191970" d="M293.0422,-114.4517C317.2763,-107.6815 349.4178,-95.7062 372,-76 386.4294,-63.4083 396.6954,-43.937 402.89,-29.4019"/>
<polygon fill="#191970" stroke="#191970" points="406.2416,-30.4452 406.6824,-19.8595 399.7365,-27.8598 406.2416,-30.4452"/>
</g>
<!-- Node10 -->
<g id="node11" class="node">
<title>Node10</title>
<g id="a_node11"><a xlink:title=" ">
<polygon fill="#ffffff" stroke="#bfbfbf" points="231,-56.5 231,-75.5 287,-75.5 287,-56.5 231,-56.5"/>
<text text-anchor="middle" x="259" y="-63.5" font-family="Helvetica,sans-Serif" font-size="10.00" fill="#000000">iomanip</text>
</a>
</g>
</g>
<!-- Node9&#45;&gt;Node10 -->
<g id="edge14" class="edge">
<title>Node9&#45;&gt;Node10</title>
<path fill="none" stroke="#191970" d="M259,-112.2455C259,-104.9382 259,-94.6944 259,-85.7046"/>
<polygon fill="#191970" stroke="#191970" points="262.5001,-85.6426 259,-75.6427 255.5001,-85.6427 262.5001,-85.6426"/>
</g>
<!-- Node11 -->
<g id="node12" class="node">
<title>Node11</title>
<g id="a_node12"><a xlink:title=" ">
<polygon fill="#ffffff" stroke="#bfbfbf" points="305.5,-56.5 305.5,-75.5 362.5,-75.5 362.5,-56.5 305.5,-56.5"/>
<text text-anchor="middle" x="334" y="-63.5" font-family="Helvetica,sans-Serif" font-size="10.00" fill="#000000">ostream</text>
</a>
</g>
</g>
<!-- Node9&#45;&gt;Node11 -->
<g id="edge15" class="edge">
<title>Node9&#45;&gt;Node11</title>
<path fill="none" stroke="#191970" d="M272.064,-112.2455C283.3562,-103.814 299.8845,-91.4729 313.0271,-81.6598"/>
<polygon fill="#191970" stroke="#191970" points="315.1669,-84.4301 321.0857,-75.6427 310.9789,-78.8211 315.1669,-84.4301"/>
</g>
</g>
</svg>
