<?xml version="1.0" encoding="UTF-8" standalone="no"?>
<!DOCTYPE svg PUBLIC "-//W3C//DTD SVG 1.1//EN"
 "http://www.w3.org/Graphics/SVG/1.1/DTD/svg11.dtd">
<!-- Generated by graphviz version 2.40.1 (20161225.0304)
 -->
<!-- Title: diagElements Pages: 1 -->
<svg width="171pt" height="66pt"
 viewBox="0.00 0.00 171.00 66.00" xmlns="http://www.w3.org/2000/svg" xmlns:xlink="http://www.w3.org/1999/xlink">
<g id="graph0" class="graph" transform="scale(1 1) rotate(0) translate(4 62)">
<title>diagElements</title>
<polygon fill="#ffffff" stroke="transparent" points="-4,4 -4,-62 167,-62 167,4 -4,4"/>
<!-- Node33 -->
<g id="node1" class="node">
<title>Node33</title>
<g id="a_node1"><a xlink:title=" ">
<polygon fill="#bfbfbf" stroke="#000000" points="80,-19.5 80,-38.5 163,-38.5 163,-19.5 80,-19.5"/>
<text text-anchor="middle" x="121.5" y="-26.5" font-family="Helvetica,sans-Serif" font-size="10.00" fill="#000000">diagElements</text>
</a>
</g>
</g>
<!-- Node34 -->
<g id="node2" class="node">
<title>Node34</title>
<g id="a_node2"><a xlink:href="Matrix_8hpp.html#ad69eac8317c3071180ddf9800753bbd9" target="_top" xlink:title=" ">
<polygon fill="#ffffff" stroke="#000000" points="0,-38.5 0,-57.5 44,-57.5 44,-38.5 0,-38.5"/>
<text text-anchor="middle" x="22" y="-45.5" font-family="Helvetica,sans-Serif" font-size="10.00" fill="#000000">Tdiag</text>
</a>
</g>
</g>
<!-- Node33&#45;&gt;Node34 -->
<g id="edge1" class="edge">
<title>Node33&#45;&gt;Node34</title>
<path fill="none" stroke="#191970" d="M70.0339,-38.8277C60.9351,-40.5652 51.9128,-42.288 44.1866,-43.7634"/>
<polygon fill="#191970" stroke="#191970" points="70.7135,-42.2612 79.8796,-36.9476 69.4005,-35.3855 70.7135,-42.2612"/>
</g>
<!-- Node35 -->
<g id="node3" class="node">
<title>Node35</title>
<g id="a_node3"><a xlink:href="Matrix_8hpp.html#af9bfdd6b415847d35ca735a8a2498652" target="_top" xlink:title=" ">
<polygon fill="#ffffff" stroke="#000000" points="3,-.5 3,-19.5 41,-19.5 41,-.5 3,-.5"/>
<text text-anchor="middle" x="22" y="-7.5" font-family="Helvetica,sans-Serif" font-size="10.00" fill="#000000">diag</text>
</a>
</g>
</g>
<!-- Node33&#45;&gt;Node35 -->
<g id="edge2" class="edge">
<title>Node33&#45;&gt;Node35</title>
<path fill="none" stroke="#191970" d="M70.044,-19.1742C59.7566,-17.2098 49.5666,-15.264 41.2362,-13.6732"/>
<polygon fill="#191970" stroke="#191970" points="69.4005,-22.6145 79.8796,-21.0524 70.7135,-15.7388 69.4005,-22.6145"/>
</g>
</g>
</svg>
