<?xml version="1.0" encoding="UTF-8" standalone="no"?>
<!DOCTYPE svg PUBLIC "-//W3C//DTD SVG 1.1//EN"
 "http://www.w3.org/Graphics/SVG/1.1/DTD/svg11.dtd">
<!-- Generated by graphviz version 2.40.1 (20161225.0304)
 -->
<!-- Title: /home/pieter/GitHub/EAGLE&#45;ZYBO&#45;Linux/src/matrix/include/Matrix.hpp Pages: 1 -->
<svg width="441pt" height="162pt"
 viewBox="0.00 0.00 441.00 162.00" xmlns="http://www.w3.org/2000/svg" xmlns:xlink="http://www.w3.org/1999/xlink">
<g id="graph0" class="graph" transform="scale(1 1) rotate(0) translate(4 158)">
<title>/home/pieter/GitHub/EAGLE&#45;ZYBO&#45;Linux/src/matrix/include/Matrix.hpp</title>
<polygon fill="#ffffff" stroke="transparent" points="-4,4 -4,-158 437,-158 437,4 -4,4"/>
<!-- Node0 -->
<g id="node1" class="node">
<title>Node0</title>
<g id="a_node1"><a xlink:title=" ">
<polygon fill="#bfbfbf" stroke="#000000" points="104.5,-112.5 104.5,-153.5 249.5,-153.5 249.5,-112.5 104.5,-112.5"/>
<text text-anchor="start" x="112.5" y="-141.5" font-family="Helvetica,sans-Serif" font-size="10.00" fill="#000000">/home/pieter/GitHub</text>
<text text-anchor="start" x="112.5" y="-130.5" font-family="Helvetica,sans-Serif" font-size="10.00" fill="#000000">/EAGLE&#45;ZYBO&#45;Linux/src</text>
<text text-anchor="middle" x="177" y="-119.5" font-family="Helvetica,sans-Serif" font-size="10.00" fill="#000000">/matrix/include/Matrix.hpp</text>
</a>
</g>
</g>
<!-- Node1 -->
<g id="node2" class="node">
<title>Node1</title>
<g id="a_node2"><a xlink:href="Array_8hpp.html" target="_top" xlink:title=" ">
<polygon fill="#ffffff" stroke="#000000" points="146,-56.5 146,-75.5 208,-75.5 208,-56.5 146,-56.5"/>
<text text-anchor="middle" x="177" y="-63.5" font-family="Helvetica,sans-Serif" font-size="10.00" fill="#000000">Array.hpp</text>
</a>
</g>
</g>
<!-- Node0&#45;&gt;Node1 -->
<g id="edge1" class="edge">
<title>Node0&#45;&gt;Node1</title>
<path fill="none" stroke="#191970" d="M177,-112.168C177,-103.8226 177,-94.2471 177,-85.9879"/>
<polygon fill="#191970" stroke="#191970" points="180.5001,-85.7804 177,-75.7805 173.5001,-85.7805 180.5001,-85.7804"/>
</g>
<!-- Node2 -->
<g id="node3" class="node">
<title>Node2</title>
<g id="a_node3"><a xlink:title=" ">
<polygon fill="#ffffff" stroke="#bfbfbf" points="0,-.5 0,-19.5 64,-19.5 64,-.5 0,-.5"/>
<text text-anchor="middle" x="32" y="-7.5" font-family="Helvetica,sans-Serif" font-size="10.00" fill="#000000">algorithm</text>
</a>
</g>
</g>
<!-- Node0&#45;&gt;Node2 -->
<g id="edge8" class="edge">
<title>Node0&#45;&gt;Node2</title>
<path fill="none" stroke="#191970" d="M152.7303,-112.4126C124.0676,-88.0987 76.9986,-48.1712 50.9054,-26.037"/>
<polygon fill="#191970" stroke="#191970" points="53.1106,-23.318 43.2206,-19.5182 48.5824,-28.6561 53.1106,-23.318"/>
</g>
<!-- Node3 -->
<g id="node4" class="node">
<title>Node3</title>
<g id="a_node4"><a xlink:title=" ">
<polygon fill="#ffffff" stroke="#bfbfbf" points="82.5,-.5 82.5,-19.5 129.5,-19.5 129.5,-.5 82.5,-.5"/>
<text text-anchor="middle" x="106" y="-7.5" font-family="Helvetica,sans-Serif" font-size="10.00" fill="#000000">cmath</text>
</a>
</g>
</g>
<!-- Node0&#45;&gt;Node3 -->
<g id="edge9" class="edge">
<title>Node0&#45;&gt;Node3</title>
<path fill="none" stroke="#191970" d="M161.2892,-112.4572C153.5215,-101.8585 144.2776,-88.5498 137,-76 128.1806,-60.7915 119.8071,-42.6608 113.9911,-29.254"/>
<polygon fill="#191970" stroke="#191970" points="117.0471,-27.4961 109.9154,-19.6609 110.6044,-30.2333 117.0471,-27.4961"/>
</g>
<!-- Node8 -->
<g id="node9" class="node">
<title>Node8</title>
<g id="a_node9"><a xlink:title=" ">
<polygon fill="#ffffff" stroke="#bfbfbf" points="226,-56.5 226,-75.5 282,-75.5 282,-56.5 226,-56.5"/>
<text text-anchor="middle" x="254" y="-63.5" font-family="Helvetica,sans-Serif" font-size="10.00" fill="#000000">iomanip</text>
</a>
</g>
</g>
<!-- Node0&#45;&gt;Node8 -->
<g id="edge10" class="edge">
<title>Node0&#45;&gt;Node8</title>
<path fill="none" stroke="#191970" d="M200.9412,-112.168C211.9491,-102.5897 224.8192,-91.3911 235.127,-82.422"/>
<polygon fill="#191970" stroke="#191970" points="237.5133,-84.9851 242.7598,-75.7805 232.9183,-79.7043 237.5133,-84.9851"/>
</g>
<!-- Node9 -->
<g id="node10" class="node">
<title>Node9</title>
<g id="a_node10"><a xlink:title=" ">
<polygon fill="#ffffff" stroke="#bfbfbf" points="300.5,-56.5 300.5,-75.5 357.5,-75.5 357.5,-56.5 300.5,-56.5"/>
<text text-anchor="middle" x="329" y="-63.5" font-family="Helvetica,sans-Serif" font-size="10.00" fill="#000000">ostream</text>
</a>
</g>
</g>
<!-- Node0&#45;&gt;Node9 -->
<g id="edge11" class="edge">
<title>Node0&#45;&gt;Node9</title>
<path fill="none" stroke="#191970" d="M223.8453,-112.3511C247.9,-101.748 276.5476,-89.1204 297.8625,-79.7251"/>
<polygon fill="#191970" stroke="#191970" points="299.3582,-82.8908 307.0969,-75.6546 296.5347,-76.4855 299.3582,-82.8908"/>
</g>
<!-- Node1&#45;&gt;Node2 -->
<g id="edge2" class="edge">
<title>Node1&#45;&gt;Node2</title>
<path fill="none" stroke="#191970" d="M152.0736,-56.3733C128.3798,-47.2226 92.5489,-33.3844 66.1932,-23.2057"/>
<polygon fill="#191970" stroke="#191970" points="67.1906,-19.8389 56.6011,-19.5011 64.6686,-26.3689 67.1906,-19.8389"/>
</g>
<!-- Node1&#45;&gt;Node3 -->
<g id="edge3" class="edge">
<title>Node1&#45;&gt;Node3</title>
<path fill="none" stroke="#191970" d="M164.6327,-56.2455C154.0446,-47.8943 138.5936,-35.7076 126.2107,-25.9408"/>
<polygon fill="#191970" stroke="#191970" points="128.2447,-23.0875 118.2255,-19.6427 123.9097,-28.5837 128.2447,-23.0875"/>
</g>
<!-- Node4 -->
<g id="node5" class="node">
<title>Node4</title>
<g id="a_node5"><a xlink:title=" ">
<polygon fill="#ffffff" stroke="#bfbfbf" points="305.5,-.5 305.5,-19.5 358.5,-19.5 358.5,-.5 305.5,-.5"/>
<text text-anchor="middle" x="332" y="-7.5" font-family="Helvetica,sans-Serif" font-size="10.00" fill="#000000">cstddef</text>
</a>
</g>
</g>
<!-- Node1&#45;&gt;Node4 -->
<g id="edge4" class="edge">
<title>Node1&#45;&gt;Node4</title>
<path fill="none" stroke="#191970" d="M203.6454,-56.3733C229.1964,-47.1419 267.9512,-33.1402 296.1909,-22.9375"/>
<polygon fill="#191970" stroke="#191970" points="297.4865,-26.1909 305.7022,-19.5011 295.1079,-19.6074 297.4865,-26.1909"/>
</g>
<!-- Node5 -->
<g id="node6" class="node">
<title>Node5</title>
<g id="a_node6"><a xlink:title=" ">
<polygon fill="#ffffff" stroke="#bfbfbf" points="377,-.5 377,-19.5 433,-19.5 433,-.5 377,-.5"/>
<text text-anchor="middle" x="405" y="-7.5" font-family="Helvetica,sans-Serif" font-size="10.00" fill="#000000">numeric</text>
</a>
</g>
</g>
<!-- Node1&#45;&gt;Node5 -->
<g id="edge5" class="edge">
<title>Node1&#45;&gt;Node5</title>
<path fill="none" stroke="#191970" d="M208.0006,-58.2143C211.0404,-57.4616 214.0794,-56.7132 217,-56 281.0118,-40.3685 299.4975,-37.2663 366.8964,-20.23"/>
<polygon fill="#191970" stroke="#191970" points="367.9098,-23.5839 376.7411,-17.7309 366.1873,-16.7991 367.9098,-23.5839"/>
</g>
<!-- Node6 -->
<g id="node7" class="node">
<title>Node6</title>
<g id="a_node7"><a xlink:title=" ">
<polygon fill="#ffffff" stroke="#bfbfbf" points="147.5,-.5 147.5,-19.5 216.5,-19.5 216.5,-.5 147.5,-.5"/>
<text text-anchor="middle" x="182" y="-7.5" font-family="Helvetica,sans-Serif" font-size="10.00" fill="#000000">type_traits</text>
</a>
</g>
</g>
<!-- Node1&#45;&gt;Node6 -->
<g id="edge6" class="edge">
<title>Node1&#45;&gt;Node6</title>
<path fill="none" stroke="#191970" d="M177.8709,-56.2455C178.5234,-48.9382 179.438,-38.6944 180.2407,-29.7046"/>
<polygon fill="#191970" stroke="#191970" points="183.7358,-29.9143 181.139,-19.6427 176.7635,-29.2918 183.7358,-29.9143"/>
</g>
<!-- Node7 -->
<g id="node8" class="node">
<title>Node7</title>
<g id="a_node8"><a xlink:title=" ">
<polygon fill="#ffffff" stroke="#bfbfbf" points="235,-.5 235,-19.5 287,-19.5 287,-.5 235,-.5"/>
<text text-anchor="middle" x="261" y="-7.5" font-family="Helvetica,sans-Serif" font-size="10.00" fill="#000000">cassert</text>
</a>
</g>
</g>
<!-- Node1&#45;&gt;Node7 -->
<g id="edge7" class="edge">
<title>Node1&#45;&gt;Node7</title>
<path fill="none" stroke="#191970" d="M191.6317,-56.2455C204.3994,-47.7337 223.1438,-35.2375 237.9299,-25.3801"/>
<polygon fill="#191970" stroke="#191970" points="240.1569,-28.1019 246.536,-19.6427 236.274,-22.2775 240.1569,-28.1019"/>
</g>
</g>
</svg>
