<?xml version="1.0" encoding="UTF-8" standalone="no"?>
<!DOCTYPE svg PUBLIC "-//W3C//DTD SVG 1.1//EN"
 "http://www.w3.org/Graphics/SVG/1.1/DTD/svg11.dtd">
<!-- Generated by graphviz version 2.40.1 (20161225.0304)
 -->
<!-- Title: norm Pages: 1 -->
<svg width="447pt" height="142pt"
 viewBox="0.00 0.00 447.00 142.00" xmlns="http://www.w3.org/2000/svg" xmlns:xlink="http://www.w3.org/1999/xlink">
<g id="graph0" class="graph" transform="scale(1 1) rotate(0) translate(4 138)">
<title>norm</title>
<polygon fill="#ffffff" stroke="transparent" points="-4,4 -4,-138 443,-138 443,4 -4,4"/>
<!-- Node72 -->
<g id="node1" class="node">
<title>Node72</title>
<g id="a_node1"><a xlink:title=" ">
<polygon fill="#bfbfbf" stroke="#000000" points="397,-57.5 397,-76.5 439,-76.5 439,-57.5 397,-57.5"/>
<text text-anchor="middle" x="418" y="-64.5" font-family="Helvetica,sans-Serif" font-size="10.00" fill="#000000">norm</text>
</a>
</g>
</g>
<!-- Node73 -->
<g id="node2" class="node">
<title>Node73</title>
<g id="a_node2"><a xlink:href="HouseholderQR_8hpp.html#a16f7547f23439d1eda0fcbde69451ef9" target="_top" xlink:title=" ">
<polygon fill="#ffffff" stroke="#000000" points="243.5,-114.5 243.5,-133.5 334.5,-133.5 334.5,-114.5 243.5,-114.5"/>
<text text-anchor="middle" x="289" y="-121.5" font-family="Helvetica,sans-Serif" font-size="10.00" fill="#000000">householderQR</text>
</a>
</g>
</g>
<!-- Node72&#45;&gt;Node73 -->
<g id="edge1" class="edge">
<title>Node72&#45;&gt;Node73</title>
<path fill="none" stroke="#191970" d="M397.9323,-82.7591C387.4213,-90.3801 374.0479,-99.1261 361,-105 352.6302,-108.7679 343.3648,-111.9073 334.3444,-114.4769"/>
<polygon fill="#191970" stroke="#191970" points="400.1077,-85.5027 406.0183,-76.7097 395.9144,-79.8976 400.1077,-85.5027"/>
</g>
<!-- Node76 -->
<g id="node5" class="node">
<title>Node76</title>
<g id="a_node5"><a xlink:href="Matrix_8hpp.html#a04bdd2f6696e98f6cf0c65282f8c53d2" target="_top" xlink:title=" ">
<polygon fill="#ffffff" stroke="#000000" points="256.5,-76.5 256.5,-95.5 321.5,-95.5 321.5,-76.5 256.5,-76.5"/>
<text text-anchor="middle" x="289" y="-83.5" font-family="Helvetica,sans-Serif" font-size="10.00" fill="#000000">normalize</text>
</a>
</g>
</g>
<!-- Node72&#45;&gt;Node76 -->
<g id="edge4" class="edge">
<title>Node72&#45;&gt;Node76</title>
<path fill="none" stroke="#191970" d="M386.9626,-71.5714C367.2083,-74.4809 341.6624,-78.2435 321.6107,-81.1969"/>
<polygon fill="#191970" stroke="#191970" points="387.6036,-75.0148 396.9868,-70.095 386.5835,-68.0896 387.6036,-75.0148"/>
</g>
<!-- Node77 -->
<g id="node6" class="node">
<title>Node77</title>
<g id="a_node6"><a xlink:href="classQuaternion.html#ada3751d11b6c9016db8f87f83577a05f" target="_top" xlink:title=" ">
<polygon fill="#ffffff" stroke="#000000" points="226.5,-38.5 226.5,-57.5 351.5,-57.5 351.5,-38.5 226.5,-38.5"/>
<text text-anchor="middle" x="289" y="-45.5" font-family="Helvetica,sans-Serif" font-size="10.00" fill="#000000">Quaternion::normalize</text>
</a>
</g>
</g>
<!-- Node72&#45;&gt;Node77 -->
<g id="edge5" class="edge">
<title>Node72&#45;&gt;Node77</title>
<path fill="none" stroke="#191970" d="M386.9187,-62.4221C376.2192,-60.8462 363.8246,-59.0207 351.5257,-57.2092"/>
<polygon fill="#191970" stroke="#191970" points="386.5835,-65.9104 396.9868,-63.905 387.6036,-58.9852 386.5835,-65.9104"/>
</g>
<!-- Node79 -->
<g id="node8" class="node">
<title>Node79</title>
<g id="a_node8"><a xlink:href="classQuaternion.html#afee65eb7b0f6feb1c6c857e271e1d7d1" target="_top" xlink:title=" ">
<polygon fill="#ffffff" stroke="#000000" points="217,-.5 217,-19.5 361,-19.5 361,-.5 217,-.5"/>
<text text-anchor="middle" x="289" y="-7.5" font-family="Helvetica,sans-Serif" font-size="10.00" fill="#000000">Quaternion::fromDirection</text>
</a>
</g>
</g>
<!-- Node72&#45;&gt;Node79 -->
<g id="edge7" class="edge">
<title>Node72&#45;&gt;Node79</title>
<path fill="none" stroke="#191970" d="M397.9323,-51.2409C387.4213,-43.6199 374.0479,-34.8739 361,-29 352.6302,-25.2321 343.3648,-22.0927 334.3444,-19.5231"/>
<polygon fill="#191970" stroke="#191970" points="395.9144,-54.1024 406.0183,-57.2903 400.1077,-48.4973 395.9144,-54.1024"/>
</g>
<!-- Node74 -->
<g id="node3" class="node">
<title>Node74</title>
<g id="a_node3"><a xlink:href="LeastSquares_8hpp.html#a3e86962f655361a684f770b14c9fe1e2" target="_top" xlink:title=" ">
<polygon fill="#ffffff" stroke="#000000" points="70.5,-114.5 70.5,-133.5 178.5,-133.5 178.5,-114.5 70.5,-114.5"/>
<text text-anchor="middle" x="124.5" y="-121.5" font-family="Helvetica,sans-Serif" font-size="10.00" fill="#000000">solveLeastSquares</text>
</a>
</g>
</g>
<!-- Node73&#45;&gt;Node74 -->
<g id="edge2" class="edge">
<title>Node73&#45;&gt;Node74</title>
<path fill="none" stroke="#191970" d="M233.0405,-124C215.4225,-124 196.0062,-124 178.5254,-124"/>
<polygon fill="#191970" stroke="#191970" points="233.1776,-127.5001 243.1776,-124 233.1775,-120.5001 233.1776,-127.5001"/>
</g>
<!-- Node75 -->
<g id="node4" class="node">
<title>Node75</title>
<g id="a_node4"><a xlink:href="LeastSquares_8hpp.html#abc455a395ab6414f5312b56e5b479195" target="_top" xlink:title=" ">
<polygon fill="#ffffff" stroke="#000000" points="0,-114.5 0,-133.5 32,-133.5 32,-114.5 0,-114.5"/>
<text text-anchor="middle" x="16" y="-121.5" font-family="Helvetica,sans-Serif" font-size="10.00" fill="#000000">inv</text>
</a>
</g>
</g>
<!-- Node74&#45;&gt;Node75 -->
<g id="edge3" class="edge">
<title>Node74&#45;&gt;Node75</title>
<path fill="none" stroke="#191970" d="M60.1409,-124C49.7072,-124 39.7906,-124 32.0095,-124"/>
<polygon fill="#191970" stroke="#191970" points="60.25,-127.5001 70.25,-124 60.25,-120.5001 60.25,-127.5001"/>
</g>
<!-- Node78 -->
<g id="node7" class="node">
<title>Node78</title>
<g id="a_node7"><a xlink:href="PyQuaternion_8cpp.html#a2957609bcf20d996c14300f7288e3300" target="_top" xlink:title=" ">
<polygon fill="#ffffff" stroke="#000000" points="68,-19.5 68,-38.5 181,-38.5 181,-19.5 68,-19.5"/>
<text text-anchor="middle" x="124.5" y="-26.5" font-family="Helvetica,sans-Serif" font-size="10.00" fill="#000000">PYBIND11_MODULE</text>
</a>
</g>
</g>
<!-- Node77&#45;&gt;Node78 -->
<g id="edge6" class="edge">
<title>Node77&#45;&gt;Node78</title>
<path fill="none" stroke="#191970" d="M216.1039,-39.5804C204.352,-38.223 192.342,-36.8359 181.0504,-35.5317"/>
<polygon fill="#191970" stroke="#191970" points="216.0048,-43.0921 226.3403,-40.7627 216.808,-36.1384 216.0048,-43.0921"/>
</g>
<!-- Node79&#45;&gt;Node78 -->
<g id="edge8" class="edge">
<title>Node79&#45;&gt;Node78</title>
<path fill="none" stroke="#191970" d="M206.7509,-19.4999C198.1304,-20.4956 189.5099,-21.4913 181.2681,-22.4432"/>
<polygon fill="#191970" stroke="#191970" points="207.3156,-22.958 216.8479,-18.3337 206.5123,-16.0043 207.3156,-22.958"/>
</g>
</g>
</svg>
