<?xml version="1.0" encoding="UTF-8" standalone="no"?>
<!DOCTYPE svg PUBLIC "-//W3C//DTD SVG 1.1//EN"
 "http://www.w3.org/Graphics/SVG/1.1/DTD/svg11.dtd">
<!-- Generated by graphviz version 2.40.1 (20161225.0304)
 -->
<!-- Title: diagElements Pages: 1 -->
<svg width="710pt" height="66pt"
 viewBox="0.00 0.00 710.00 66.00" xmlns="http://www.w3.org/2000/svg" xmlns:xlink="http://www.w3.org/1999/xlink">
<g id="graph0" class="graph" transform="scale(1 1) rotate(0) translate(4 62)">
<title>diagElements</title>
<polygon fill="#ffffff" stroke="transparent" points="-4,4 -4,-62 706,-62 706,4 -4,4"/>
<!-- Node44 -->
<g id="node1" class="node">
<title>Node44</title>
<g id="a_node1"><a xlink:title=" ">
<polygon fill="#bfbfbf" stroke="#000000" points="619,-19.5 619,-38.5 702,-38.5 702,-19.5 619,-19.5"/>
<text text-anchor="middle" x="660.5" y="-26.5" font-family="Helvetica,sans-Serif" font-size="10.00" fill="#000000">diagElements</text>
</a>
</g>
</g>
<!-- Node45 -->
<g id="node2" class="node">
<title>Node45</title>
<g id="a_node2"><a xlink:href="Matrix_8hpp.html#af355827ea5cd84b030067564feaaa261" target="_top" xlink:title=" ">
<polygon fill="#ffffff" stroke="#000000" points="539,-38.5 539,-57.5 583,-57.5 583,-38.5 539,-38.5"/>
<text text-anchor="middle" x="561" y="-45.5" font-family="Helvetica,sans-Serif" font-size="10.00" fill="#000000">Tdiag</text>
</a>
</g>
</g>
<!-- Node44&#45;&gt;Node45 -->
<g id="edge1" class="edge">
<title>Node44&#45;&gt;Node45</title>
<path fill="none" stroke="#191970" d="M609.0339,-38.8277C599.9351,-40.5652 590.9128,-42.288 583.1866,-43.7634"/>
<polygon fill="#191970" stroke="#191970" points="609.7135,-42.2612 618.8796,-36.9476 608.4005,-35.3855 609.7135,-42.2612"/>
</g>
<!-- Node46 -->
<g id="node3" class="node">
<title>Node46</title>
<g id="a_node3"><a xlink:href="Matrix_8hpp.html#aab34fe0fbeddb432c56d5a0bd5fed48d" target="_top" xlink:title=" ">
<polygon fill="#ffffff" stroke="#000000" points="542,-.5 542,-19.5 580,-19.5 580,-.5 542,-.5"/>
<text text-anchor="middle" x="561" y="-7.5" font-family="Helvetica,sans-Serif" font-size="10.00" fill="#000000">diag</text>
</a>
</g>
</g>
<!-- Node44&#45;&gt;Node46 -->
<g id="edge2" class="edge">
<title>Node44&#45;&gt;Node46</title>
<path fill="none" stroke="#191970" d="M609.044,-19.1742C598.7566,-17.2098 588.5666,-15.264 580.2362,-13.6732"/>
<polygon fill="#191970" stroke="#191970" points="608.4005,-22.6145 618.8796,-21.0524 609.7135,-15.7388 608.4005,-22.6145"/>
</g>
<!-- Node47 -->
<g id="node4" class="node">
<title>Node47</title>
<g id="a_node4"><a xlink:href="classLocationFinder.html#a93be2c4b05b52c58f5fca5d1514dfbe9" target="_top" xlink:title="Get the position of the center of the frame relative to the given square.">
<polygon fill="#ffffff" stroke="#000000" points="353,-.5 353,-19.5 503,-19.5 503,-.5 353,-.5"/>
<text text-anchor="middle" x="428" y="-7.5" font-family="Helvetica,sans-Serif" font-size="10.00" fill="#000000">LocationFinder::getLocation</text>
</a>
</g>
</g>
<!-- Node46&#45;&gt;Node47 -->
<g id="edge3" class="edge">
<title>Node46&#45;&gt;Node47</title>
<path fill="none" stroke="#191970" d="M531.733,-10C523.0913,-10 513.2118,-10 503.0617,-10"/>
<polygon fill="#191970" stroke="#191970" points="531.9444,-13.5001 541.9443,-10 531.9443,-6.5001 531.9444,-13.5001"/>
</g>
<!-- Node48 -->
<g id="node5" class="node">
<title>Node48</title>
<g id="a_node5"><a xlink:href="classLocationFinder.html#af56756d038d762e04e0c91bac9fc2522" target="_top" xlink:title="Read a new frame, mask it, run GridFinder, and get the position of the drone. The position is the pos...">
<polygon fill="#ffffff" stroke="#000000" points="149,-.5 149,-19.5 317,-19.5 317,-.5 149,-.5"/>
<text text-anchor="middle" x="233" y="-7.5" font-family="Helvetica,sans-Serif" font-size="10.00" fill="#000000">LocationFinder::updateLocation</text>
</a>
</g>
</g>
<!-- Node47&#45;&gt;Node48 -->
<g id="edge4" class="edge">
<title>Node47&#45;&gt;Node48</title>
<path fill="none" stroke="#191970" d="M342.6491,-10C334.1912,-10 325.6095,-10 317.1639,-10"/>
<polygon fill="#191970" stroke="#191970" points="342.8869,-13.5001 352.8868,-10 342.8868,-6.5001 342.8869,-13.5001"/>
</g>
<!-- Node49 -->
<g id="node6" class="node">
<title>Node49</title>
<g id="a_node6"><a xlink:href="Grid-Finder_8module_8hpp.html#a6849f4dcdb45a7aaadcda6439233d376" target="_top" xlink:title=" ">
<polygon fill="#ffffff" stroke="#000000" points="0,-.5 0,-19.5 113,-19.5 113,-.5 0,-.5"/>
<text text-anchor="middle" x="56.5" y="-7.5" font-family="Helvetica,sans-Serif" font-size="10.00" fill="#000000">PYBIND11_MODULE</text>
</a>
</g>
</g>
<!-- Node48&#45;&gt;Node49 -->
<g id="edge5" class="edge">
<title>Node48&#45;&gt;Node49</title>
<path fill="none" stroke="#191970" d="M138.6177,-10C129.8852,-10 121.233,-10 113.0056,-10"/>
<polygon fill="#191970" stroke="#191970" points="138.8854,-13.5001 148.8854,-10 138.8853,-6.5001 138.8854,-13.5001"/>
</g>
</g>
</svg>
