<?xml version="1.0" encoding="UTF-8" standalone="no"?>
<!DOCTYPE svg PUBLIC "-//W3C//DTD SVG 1.1//EN"
 "http://www.w3.org/Graphics/SVG/1.1/DTD/svg11.dtd">
<!-- Generated by graphviz version 2.40.1 (20161225.0304)
 -->
<!-- Title: vcat Pages: 1 -->
<svg width="375pt" height="66pt"
 viewBox="0.00 0.00 375.00 66.00" xmlns="http://www.w3.org/2000/svg" xmlns:xlink="http://www.w3.org/1999/xlink">
<g id="graph0" class="graph" transform="scale(1 1) rotate(0) translate(4 62)">
<title>vcat</title>
<polygon fill="#ffffff" stroke="transparent" points="-4,4 -4,-62 371,-62 371,4 -4,4"/>
<!-- Node186 -->
<g id="node1" class="node">
<title>Node186</title>
<g id="a_node1"><a xlink:title=" ">
<polygon fill="#bfbfbf" stroke="#000000" points="329,-19.5 329,-38.5 367,-38.5 367,-19.5 329,-19.5"/>
<text text-anchor="middle" x="348" y="-26.5" font-family="Helvetica,sans-Serif" font-size="10.00" fill="#000000">vcat</text>
</a>
</g>
</g>
<!-- Node187 -->
<g id="node2" class="node">
<title>Node187</title>
<g id="a_node2"><a xlink:href="Matrix_8hpp.html#a161268a44cafcf8e749d9e5135b60e12" target="_top" xlink:title=" ">
<polygon fill="#ffffff" stroke="#000000" points="202,-38.5 202,-57.5 240,-57.5 240,-38.5 202,-38.5"/>
<text text-anchor="middle" x="221" y="-45.5" font-family="Helvetica,sans-Serif" font-size="10.00" fill="#000000">vcat</text>
</a>
</g>
</g>
<!-- Node186&#45;&gt;Node187 -->
<g id="edge1" class="edge">
<title>Node186&#45;&gt;Node187</title>
<path fill="none" stroke="#191970" d="M318.9552,-33.3453C294.7814,-36.9618 261.0523,-42.0079 240.1432,-45.1361"/>
<polygon fill="#191970" stroke="#191970" points="319.6148,-36.7856 328.9868,-31.8445 318.579,-29.8627 319.6148,-36.7856"/>
</g>
<!-- Node188 -->
<g id="node3" class="node">
<title>Node188</title>
<g id="a_node3"><a xlink:href="classQuaternion.html#afee65eb7b0f6feb1c6c857e271e1d7d1" target="_top" xlink:title=" ">
<polygon fill="#ffffff" stroke="#000000" points="149,-.5 149,-19.5 293,-19.5 293,-.5 149,-.5"/>
<text text-anchor="middle" x="221" y="-7.5" font-family="Helvetica,sans-Serif" font-size="10.00" fill="#000000">Quaternion::fromDirection</text>
</a>
</g>
</g>
<!-- Node186&#45;&gt;Node188 -->
<g id="edge2" class="edge">
<title>Node186&#45;&gt;Node188</title>
<path fill="none" stroke="#191970" d="M318.9552,-24.6547C308.6569,-23.114 296.6245,-21.3139 284.5879,-19.5132"/>
<polygon fill="#191970" stroke="#191970" points="318.579,-28.1373 328.9868,-26.1555 319.6148,-21.2144 318.579,-28.1373"/>
</g>
<!-- Node189 -->
<g id="node4" class="node">
<title>Node189</title>
<g id="a_node4"><a xlink:href="PyQuaternion_8cpp.html#a2957609bcf20d996c14300f7288e3300" target="_top" xlink:title=" ">
<polygon fill="#ffffff" stroke="#000000" points="0,-.5 0,-19.5 113,-19.5 113,-.5 0,-.5"/>
<text text-anchor="middle" x="56.5" y="-7.5" font-family="Helvetica,sans-Serif" font-size="10.00" fill="#000000">PYBIND11_MODULE</text>
</a>
</g>
</g>
<!-- Node188&#45;&gt;Node189 -->
<g id="edge3" class="edge">
<title>Node188&#45;&gt;Node189</title>
<path fill="none" stroke="#191970" d="M138.7509,-10C130.1304,-10 121.5099,-10 113.2681,-10"/>
<polygon fill="#191970" stroke="#191970" points="138.8479,-13.5001 148.8479,-10 138.8479,-6.5001 138.8479,-13.5001"/>
</g>
</g>
</svg>
