<?xml version="1.0" encoding="UTF-8" standalone="no"?>
<!DOCTYPE svg PUBLIC "-//W3C//DTD SVG 1.1//EN"
 "http://www.w3.org/Graphics/SVG/1.1/DTD/svg11.dtd">
<!-- Generated by graphviz version 2.40.1 (20161225.0304)
 -->
<!-- Title: filledTMatrix Pages: 1 -->
<svg width="196pt" height="66pt"
 viewBox="0.00 0.00 196.00 66.00" xmlns="http://www.w3.org/2000/svg" xmlns:xlink="http://www.w3.org/1999/xlink">
<g id="graph0" class="graph" transform="scale(1 1) rotate(0) translate(4 62)">
<title>filledTMatrix</title>
<polygon fill="#ffffff" stroke="transparent" points="-4,4 -4,-62 192,-62 192,4 -4,4"/>
<!-- Node4 -->
<g id="node1" class="node">
<title>Node4</title>
<g id="a_node1"><a xlink:title=" ">
<polygon fill="#bfbfbf" stroke="#000000" points="0,-19.5 0,-38.5 77,-38.5 77,-19.5 0,-19.5"/>
<text text-anchor="middle" x="38.5" y="-26.5" font-family="Helvetica,sans-Serif" font-size="10.00" fill="#000000">filledTMatrix</text>
</a>
</g>
</g>
<!-- Node5 -->
<g id="node2" class="node">
<title>Node5</title>
<g id="a_node2"><a xlink:href="structArray.html#a9e1b59b422182878c7909c6ca7bfa430" target="_top" xlink:title=" ">
<polygon fill="#ffffff" stroke="#000000" points="113,-38.5 113,-57.5 188,-57.5 188,-38.5 113,-38.5"/>
<text text-anchor="middle" x="150.5" y="-45.5" font-family="Helvetica,sans-Serif" font-size="10.00" fill="#000000">Array::begin</text>
</a>
</g>
</g>
<!-- Node4&#45;&gt;Node5 -->
<g id="edge1" class="edge">
<title>Node4&#45;&gt;Node5</title>
<path fill="none" stroke="#191970" d="M77.044,-35.5387C85.3214,-36.9429 94.1641,-38.443 102.743,-39.8984"/>
<polygon fill="#191970" stroke="#191970" points="102.1984,-43.3559 112.6429,-41.5778 103.3692,-36.4545 102.1984,-43.3559"/>
</g>
<!-- Node6 -->
<g id="node3" class="node">
<title>Node6</title>
<g id="a_node3"><a xlink:href="structArray.html#ab2762fef4f8caa072636dde951d90702" target="_top" xlink:title=" ">
<polygon fill="#ffffff" stroke="#000000" points="117.5,-.5 117.5,-19.5 183.5,-19.5 183.5,-.5 117.5,-.5"/>
<text text-anchor="middle" x="150.5" y="-7.5" font-family="Helvetica,sans-Serif" font-size="10.00" fill="#000000">Array::end</text>
</a>
</g>
</g>
<!-- Node4&#45;&gt;Node6 -->
<g id="edge2" class="edge">
<title>Node4&#45;&gt;Node6</title>
<path fill="none" stroke="#191970" d="M77.044,-22.4613C86.8124,-20.8042 97.368,-19.0135 107.3482,-17.3204"/>
<polygon fill="#191970" stroke="#191970" points="108.2095,-20.7244 117.4832,-15.6011 107.0386,-13.823 108.2095,-20.7244"/>
</g>
</g>
</svg>
