<?xml version="1.0" encoding="UTF-8" standalone="no"?>
<!DOCTYPE svg PUBLIC "-//W3C//DTD SVG 1.1//EN"
 "http://www.w3.org/Graphics/SVG/1.1/DTD/svg11.dtd">
<!-- Generated by graphviz version 2.40.1 (20161225.0304)
 -->
<!-- Title: /home/pieter/GitHub/EAGLE&#45;ZYBO&#45;Linux/src/matrix/include/Matrix.hpp Pages: 1 -->
<svg width="861pt" height="384pt"
 viewBox="0.00 0.00 861.00 384.00" xmlns="http://www.w3.org/2000/svg" xmlns:xlink="http://www.w3.org/1999/xlink">
<g id="graph0" class="graph" transform="scale(1 1) rotate(0) translate(4 380)">
<title>/home/pieter/GitHub/EAGLE&#45;ZYBO&#45;Linux/src/matrix/include/Matrix.hpp</title>
<polygon fill="#ffffff" stroke="transparent" points="-4,4 -4,-380 857,-380 857,4 -4,4"/>
<!-- Node10 -->
<g id="node1" class="node">
<title>Node10</title>
<g id="a_node1"><a xlink:title=" ">
<polygon fill="#bfbfbf" stroke="#000000" points="322,-334.5 322,-375.5 467,-375.5 467,-334.5 322,-334.5"/>
<text text-anchor="start" x="330" y="-363.5" font-family="Helvetica,sans-Serif" font-size="10.00" fill="#000000">/home/pieter/GitHub</text>
<text text-anchor="start" x="330" y="-352.5" font-family="Helvetica,sans-Serif" font-size="10.00" fill="#000000">/EAGLE&#45;ZYBO&#45;Linux/src</text>
<text text-anchor="middle" x="394.5" y="-341.5" font-family="Helvetica,sans-Serif" font-size="10.00" fill="#000000">/matrix/include/Matrix.hpp</text>
</a>
</g>
</g>
<!-- Node11 -->
<g id="node2" class="node">
<title>Node11</title>
<g id="a_node2"><a xlink:href="GridFinder_8hpp.html" target="_top" xlink:title=" ">
<polygon fill="#ffffff" stroke="#000000" points="0,-95 0,-136 181,-136 181,-95 0,-95"/>
<text text-anchor="start" x="8" y="-124" font-family="Helvetica,sans-Serif" font-size="10.00" fill="#000000">/home/pieter/GitHub</text>
<text text-anchor="start" x="8" y="-113" font-family="Helvetica,sans-Serif" font-size="10.00" fill="#000000">/EAGLE&#45;ZYBO&#45;Linux/src</text>
<text text-anchor="middle" x="90.5" y="-102" font-family="Helvetica,sans-Serif" font-size="10.00" fill="#000000">/grid&#45;finder/include/GridFinder.hpp</text>
</a>
</g>
</g>
<!-- Node10&#45;&gt;Node11 -->
<g id="edge1" class="edge">
<title>Node10&#45;&gt;Node11</title>
<path fill="none" stroke="#191970" d="M311.6337,-347.5523C241.1675,-339.5116 147.2693,-324.1948 120.5,-298 76.5515,-254.9947 81.5668,-174.2071 86.884,-136.2277"/>
<polygon fill="#191970" stroke="#191970" points="311.5244,-351.0616 321.8495,-348.6863 312.2967,-344.1043 311.5244,-351.0616"/>
</g>
<!-- Node13 -->
<g id="node4" class="node">
<title>Node13</title>
<g id="a_node4"><a xlink:href="Line_8hpp.html" target="_top" xlink:title=" ">
<polygon fill="#ffffff" stroke="#000000" points="129.5,-256.5 129.5,-297.5 281.5,-297.5 281.5,-256.5 129.5,-256.5"/>
<text text-anchor="start" x="137.5" y="-285.5" font-family="Helvetica,sans-Serif" font-size="10.00" fill="#000000">/home/pieter/GitHub</text>
<text text-anchor="start" x="137.5" y="-274.5" font-family="Helvetica,sans-Serif" font-size="10.00" fill="#000000">/EAGLE&#45;ZYBO&#45;Linux/src</text>
<text text-anchor="middle" x="205.5" y="-263.5" font-family="Helvetica,sans-Serif" font-size="10.00" fill="#000000">/grid&#45;finder/include/Line.hpp</text>
</a>
</g>
</g>
<!-- Node10&#45;&gt;Node13 -->
<g id="edge3" class="edge">
<title>Node10&#45;&gt;Node13</title>
<path fill="none" stroke="#191970" d="M335.0886,-330.481C309.4157,-319.8858 279.7158,-307.6288 255.2309,-297.5239"/>
<polygon fill="#191970" stroke="#191970" points="333.7687,-333.7226 344.3477,-334.3022 336.4392,-327.252 333.7687,-333.7226"/>
</g>
<!-- Node16 -->
<g id="node7" class="node">
<title>Node16</title>
<g id="a_node7"><a xlink:href="HouseholderQR_8hpp.html" target="_top" xlink:title=" ">
<polygon fill="#ffffff" stroke="#000000" points="299.5,-256.5 299.5,-297.5 489.5,-297.5 489.5,-256.5 299.5,-256.5"/>
<text text-anchor="start" x="307.5" y="-285.5" font-family="Helvetica,sans-Serif" font-size="10.00" fill="#000000">/home/pieter/GitHub</text>
<text text-anchor="start" x="307.5" y="-274.5" font-family="Helvetica,sans-Serif" font-size="10.00" fill="#000000">/EAGLE&#45;ZYBO&#45;Linux/src</text>
<text text-anchor="middle" x="394.5" y="-263.5" font-family="Helvetica,sans-Serif" font-size="10.00" fill="#000000">/matrix/include/HouseholderQR.hpp</text>
</a>
</g>
</g>
<!-- Node10&#45;&gt;Node16 -->
<g id="edge9" class="edge">
<title>Node10&#45;&gt;Node16</title>
<path fill="none" stroke="#191970" d="M394.5,-324.0789C394.5,-315.2178 394.5,-305.7747 394.5,-297.6898"/>
<polygon fill="#191970" stroke="#191970" points="391.0001,-324.0974 394.5,-334.0974 398.0001,-324.0975 391.0001,-324.0974"/>
</g>
<!-- Node18 -->
<g id="node9" class="node">
<title>Node18</title>
<g id="a_node9"><a xlink:href="MatrixHelpers_8hpp.html" target="_top" xlink:title=" ">
<polygon fill="#ffffff" stroke="#000000" points="507.5,-256.5 507.5,-297.5 689.5,-297.5 689.5,-256.5 507.5,-256.5"/>
<text text-anchor="start" x="515.5" y="-285.5" font-family="Helvetica,sans-Serif" font-size="10.00" fill="#000000">/home/pieter/GitHub</text>
<text text-anchor="start" x="515.5" y="-274.5" font-family="Helvetica,sans-Serif" font-size="10.00" fill="#000000">/EAGLE&#45;ZYBO&#45;Linux/src</text>
<text text-anchor="middle" x="598.5" y="-263.5" font-family="Helvetica,sans-Serif" font-size="10.00" fill="#000000">/matrix/include/MatrixHelpers.hpp</text>
</a>
</g>
</g>
<!-- Node10&#45;&gt;Node18 -->
<g id="edge11" class="edge">
<title>Node10&#45;&gt;Node18</title>
<path fill="none" stroke="#191970" d="M457.9976,-330.7215C485.8038,-320.0897 518.0841,-307.7473 544.6867,-297.5757"/>
<polygon fill="#191970" stroke="#191970" points="456.456,-327.5638 448.3654,-334.4044 458.956,-334.1021 456.456,-327.5638"/>
</g>
<!-- Node19 -->
<g id="node10" class="node">
<title>Node19</title>
<g id="a_node10"><a xlink:href="Randn_8hpp.html" target="_top" xlink:title=" ">
<polygon fill="#ffffff" stroke="#000000" points="708,-256.5 708,-297.5 853,-297.5 853,-256.5 708,-256.5"/>
<text text-anchor="start" x="716" y="-285.5" font-family="Helvetica,sans-Serif" font-size="10.00" fill="#000000">/home/pieter/GitHub</text>
<text text-anchor="start" x="716" y="-274.5" font-family="Helvetica,sans-Serif" font-size="10.00" fill="#000000">/EAGLE&#45;ZYBO&#45;Linux/src</text>
<text text-anchor="middle" x="780.5" y="-263.5" font-family="Helvetica,sans-Serif" font-size="10.00" fill="#000000">/matrix/include/Randn.hpp</text>
</a>
</g>
</g>
<!-- Node10&#45;&gt;Node19 -->
<g id="edge12" class="edge">
<title>Node10&#45;&gt;Node19</title>
<path fill="none" stroke="#191970" d="M477.2574,-340.9896C538.5549,-330.247 624.0076,-314.5038 698.5,-298 701.513,-297.3325 704.5835,-296.6331 707.6817,-295.9117"/>
<polygon fill="#191970" stroke="#191970" points="476.4998,-337.5688 467.2507,-342.7365 477.7037,-344.4645 476.4998,-337.5688"/>
</g>
<!-- Node12 -->
<g id="node3" class="node">
<title>Node12</title>
<g id="a_node3"><a xlink:href="LocationFinder_8cpp.html" target="_top" xlink:title=" ">
<polygon fill="#ffffff" stroke="#000000" points="100.5,-.5 100.5,-52.5 252.5,-52.5 252.5,-.5 100.5,-.5"/>
<text text-anchor="start" x="108.5" y="-40.5" font-family="Helvetica,sans-Serif" font-size="10.00" fill="#000000">/home/pieter/GitHub</text>
<text text-anchor="start" x="108.5" y="-29.5" font-family="Helvetica,sans-Serif" font-size="10.00" fill="#000000">/EAGLE&#45;ZYBO&#45;Linux/src</text>
<text text-anchor="start" x="108.5" y="-18.5" font-family="Helvetica,sans-Serif" font-size="10.00" fill="#000000">/location&#45;finder/src/Location</text>
<text text-anchor="middle" x="176.5" y="-7.5" font-family="Helvetica,sans-Serif" font-size="10.00" fill="#000000">Finder.cpp</text>
</a>
</g>
</g>
<!-- Node11&#45;&gt;Node12 -->
<g id="edge2" class="edge">
<title>Node11&#45;&gt;Node12</title>
<path fill="none" stroke="#191970" d="M117.5818,-87.4734C128.3009,-76.3804 140.5567,-63.6972 151.1043,-52.7816"/>
<polygon fill="#191970" stroke="#191970" points="114.8782,-85.2346 110.4463,-94.8579 119.9121,-90.0988 114.8782,-85.2346"/>
</g>
<!-- Node13&#45;&gt;Node11 -->
<g id="edge4" class="edge">
<title>Node13&#45;&gt;Node11</title>
<path fill="none" stroke="#191970" d="M160.4127,-250.4086C148.7952,-241.8717 137.1456,-231.5838 128.5,-220 109.448,-194.4733 99.1692,-158.4407 94.2691,-136.0492"/>
<polygon fill="#191970" stroke="#191970" points="158.6265,-253.4309 168.823,-256.3088 162.6467,-247.7004 158.6265,-253.4309"/>
</g>
<!-- Node14 -->
<g id="node5" class="node">
<title>Node14</title>
<g id="a_node5"><a xlink:href="HelperStructs_8hpp.html" target="_top" xlink:title=" ">
<polygon fill="#ffffff" stroke="#000000" points="137.5,-178.5 137.5,-219.5 335.5,-219.5 335.5,-178.5 137.5,-178.5"/>
<text text-anchor="start" x="145.5" y="-207.5" font-family="Helvetica,sans-Serif" font-size="10.00" fill="#000000">/home/pieter/GitHub</text>
<text text-anchor="start" x="145.5" y="-196.5" font-family="Helvetica,sans-Serif" font-size="10.00" fill="#000000">/EAGLE&#45;ZYBO&#45;Linux/src</text>
<text text-anchor="middle" x="236.5" y="-185.5" font-family="Helvetica,sans-Serif" font-size="10.00" fill="#000000">/grid&#45;finder/include/HelperStructs.hpp</text>
</a>
</g>
</g>
<!-- Node13&#45;&gt;Node14 -->
<g id="edge5" class="edge">
<title>Node13&#45;&gt;Node14</title>
<path fill="none" stroke="#191970" d="M217.5598,-246.6559C221.1475,-237.629 224.994,-227.9505 228.2771,-219.6898"/>
<polygon fill="#191970" stroke="#191970" points="214.2483,-245.5118 213.8074,-256.0974 220.7534,-248.0972 214.2483,-245.5118"/>
</g>
<!-- Node14&#45;&gt;Node11 -->
<g id="edge6" class="edge">
<title>Node14&#45;&gt;Node11</title>
<path fill="none" stroke="#191970" d="M191.6814,-173.3674C170.7337,-161.3871 146.1286,-147.315 126.4275,-136.0476"/>
<polygon fill="#191970" stroke="#191970" points="189.9919,-176.4331 200.4101,-178.3595 193.4671,-170.3567 189.9919,-176.4331"/>
</g>
<!-- Node15 -->
<g id="node6" class="node">
<title>Node15</title>
<g id="a_node6"><a xlink:href="LocationFinder_8hpp.html" target="_top" xlink:title=" ">
<polygon fill="#ffffff" stroke="#000000" points="199,-89.5 199,-141.5 328,-141.5 328,-89.5 199,-89.5"/>
<text text-anchor="start" x="207" y="-129.5" font-family="Helvetica,sans-Serif" font-size="10.00" fill="#000000">/home/pieter/GitHub</text>
<text text-anchor="start" x="207" y="-118.5" font-family="Helvetica,sans-Serif" font-size="10.00" fill="#000000">/EAGLE&#45;ZYBO&#45;Linux/src</text>
<text text-anchor="start" x="207" y="-107.5" font-family="Helvetica,sans-Serif" font-size="10.00" fill="#000000">/location&#45;finder/include</text>
<text text-anchor="middle" x="263.5" y="-96.5" font-family="Helvetica,sans-Serif" font-size="10.00" fill="#000000">/LocationFinder.hpp</text>
</a>
</g>
</g>
<!-- Node14&#45;&gt;Node15 -->
<g id="edge7" class="edge">
<title>Node14&#45;&gt;Node15</title>
<path fill="none" stroke="#191970" d="M246.2858,-168.7365C249.1609,-159.8449 252.2798,-150.1996 255.0629,-141.5925"/>
<polygon fill="#191970" stroke="#191970" points="242.9207,-167.7677 243.1742,-178.3595 249.5811,-169.9215 242.9207,-167.7677"/>
</g>
<!-- Node15&#45;&gt;Node12 -->
<g id="edge8" class="edge">
<title>Node15&#45;&gt;Node12</title>
<path fill="none" stroke="#191970" d="M230.7556,-82.0029C221.2248,-72.2529 210.959,-61.7511 201.9491,-52.5341"/>
<polygon fill="#191970" stroke="#191970" points="228.3745,-84.5741 237.8677,-89.2784 233.3802,-79.6808 228.3745,-84.5741"/>
</g>
<!-- Node17 -->
<g id="node8" class="node">
<title>Node17</title>
<g id="a_node8"><a xlink:href="LeastSquares_8hpp.html" target="_top" xlink:title=" ">
<polygon fill="#ffffff" stroke="#000000" points="354,-178.5 354,-219.5 533,-219.5 533,-178.5 354,-178.5"/>
<text text-anchor="start" x="362" y="-207.5" font-family="Helvetica,sans-Serif" font-size="10.00" fill="#000000">/home/pieter/GitHub</text>
<text text-anchor="start" x="362" y="-196.5" font-family="Helvetica,sans-Serif" font-size="10.00" fill="#000000">/EAGLE&#45;ZYBO&#45;Linux/src</text>
<text text-anchor="middle" x="443.5" y="-185.5" font-family="Helvetica,sans-Serif" font-size="10.00" fill="#000000">/matrix/include/LeastSquares.hpp</text>
</a>
</g>
</g>
<!-- Node16&#45;&gt;Node17 -->
<g id="edge10" class="edge">
<title>Node16&#45;&gt;Node17</title>
<path fill="none" stroke="#191970" d="M413.0207,-247.5181C418.8441,-238.2482 425.1475,-228.2141 430.5026,-219.6898"/>
<polygon fill="#191970" stroke="#191970" points="409.9869,-245.7678 407.6311,-256.0974 415.9144,-249.4915 409.9869,-245.7678"/>
</g>
</g>
</svg>
