<?xml version="1.0" encoding="UTF-8" standalone="no"?>
<!DOCTYPE svg PUBLIC "-//W3C//DTD SVG 1.1//EN"
 "http://www.w3.org/Graphics/SVG/1.1/DTD/svg11.dtd">
<!-- Generated by graphviz version 2.40.1 (20161225.0304)
 -->
<!-- Title: round Pages: 1 -->
<svg width="222pt" height="218pt"
 viewBox="0.00 0.00 222.00 218.00" xmlns="http://www.w3.org/2000/svg" xmlns:xlink="http://www.w3.org/1999/xlink">
<g id="graph0" class="graph" transform="scale(1 1) rotate(0) translate(4 214)">
<title>round</title>
<polygon fill="#ffffff" stroke="transparent" points="-4,4 -4,-214 218,-214 218,4 -4,4"/>
<!-- Node133 -->
<g id="node1" class="node">
<title>Node133</title>
<g id="a_node1"><a xlink:title=" ">
<polygon fill="#bfbfbf" stroke="#000000" points="170,-95.5 170,-114.5 214,-114.5 214,-95.5 170,-95.5"/>
<text text-anchor="middle" x="192" y="-102.5" font-family="Helvetica,sans-Serif" font-size="10.00" fill="#000000">round</text>
</a>
</g>
</g>
<!-- Node134 -->
<g id="node2" class="node">
<title>Node134</title>
<g id="a_node2"><a xlink:href="classAngle.html#aa2ce213e9b45424e62d818ec6769a71b" target="_top" xlink:title=" ">
<polygon fill="#ffffff" stroke="#000000" points="13.5,-190.5 13.5,-209.5 120.5,-209.5 120.5,-190.5 13.5,-190.5"/>
<text text-anchor="middle" x="67" y="-197.5" font-family="Helvetica,sans-Serif" font-size="10.00" fill="#000000">Angle&lt; 360 &gt;::cos</text>
</a>
</g>
</g>
<!-- Node133&#45;&gt;Node134 -->
<g id="edge1" class="edge">
<title>Node133&#45;&gt;Node134</title>
<path fill="none" stroke="#191970" d="M182.3812,-123.6767C172.5096,-141.0244 155.5633,-166.3227 134,-181 128.3029,-184.8778 121.8211,-187.9707 115.1867,-190.436"/>
<polygon fill="#191970" stroke="#191970" points="185.6568,-124.9792 187.3573,-114.5217 179.5065,-121.6363 185.6568,-124.9792"/>
</g>
<!-- Node135 -->
<g id="node3" class="node">
<title>Node135</title>
<g id="a_node3"><a xlink:href="classAngle.html#adb9bfe045dd75dad8912cf1e741d2820" target="_top" xlink:title=" ">
<polygon fill="#ffffff" stroke="#000000" points="14.5,-152.5 14.5,-171.5 119.5,-171.5 119.5,-152.5 14.5,-152.5"/>
<text text-anchor="middle" x="67" y="-159.5" font-family="Helvetica,sans-Serif" font-size="10.00" fill="#000000">Angle&lt; 360 &gt;::sin</text>
</a>
</g>
</g>
<!-- Node133&#45;&gt;Node135 -->
<g id="edge2" class="edge">
<title>Node133&#45;&gt;Node135</title>
<path fill="none" stroke="#191970" d="M171.4952,-120.6414C160.7779,-128.2321 147.176,-136.9865 134,-143 125.8606,-146.7148 116.8285,-149.8696 108.0998,-152.4777"/>
<polygon fill="#191970" stroke="#191970" points="173.7287,-123.3445 179.7466,-114.6246 169.6044,-117.6885 173.7287,-123.3445"/>
</g>
<!-- Node136 -->
<g id="node4" class="node">
<title>Node136</title>
<g id="a_node4"><a xlink:href="classAngle.html#a63862e75b876b7b8555f05a54ac85628" target="_top" xlink:title=" ">
<polygon fill="#ffffff" stroke="#000000" points="0,-114.5 0,-133.5 134,-133.5 134,-114.5 0,-114.5"/>
<text text-anchor="middle" x="67" y="-121.5" font-family="Helvetica,sans-Serif" font-size="10.00" fill="#000000">Angle&lt; 360 &gt;::getIndex</text>
</a>
</g>
</g>
<!-- Node133&#45;&gt;Node136 -->
<g id="edge3" class="edge">
<title>Node133&#45;&gt;Node136</title>
<path fill="none" stroke="#191970" d="M159.9899,-109.8655C150.6694,-111.2822 140.1508,-112.8811 129.6273,-114.4806"/>
<polygon fill="#191970" stroke="#191970" points="160.5798,-113.3162 169.9402,-108.3531 159.5278,-106.3957 160.5798,-113.3162"/>
</g>
<!-- Node137 -->
<g id="node5" class="node">
<title>Node137</title>
<g id="a_node5"><a xlink:href="classBresenhamLine.html#ae4b0dd9c534a550583ae812695bbac59" target="_top" xlink:title=" ">
<polygon fill="#ffffff" stroke="#000000" points="9.5,-76.5 9.5,-95.5 124.5,-95.5 124.5,-76.5 9.5,-76.5"/>
<text text-anchor="middle" x="67" y="-83.5" font-family="Helvetica,sans-Serif" font-size="10.00" fill="#000000">BresenhamLine::cos</text>
</a>
</g>
</g>
<!-- Node133&#45;&gt;Node137 -->
<g id="edge4" class="edge">
<title>Node133&#45;&gt;Node137</title>
<path fill="none" stroke="#191970" d="M159.7632,-100.1C148.9914,-98.4627 136.6387,-96.5851 124.5358,-94.7454"/>
<polygon fill="#191970" stroke="#191970" points="159.5278,-103.6044 169.9402,-101.6469 160.5798,-96.6838 159.5278,-103.6044"/>
</g>
<!-- Node138 -->
<g id="node6" class="node">
<title>Node138</title>
<g id="a_node6"><a xlink:href="classBresenhamLine.html#a115d1f10a5ce1e0ef945258346b6f035" target="_top" xlink:title=" ">
<polygon fill="#ffffff" stroke="#000000" points="10.5,-38.5 10.5,-57.5 123.5,-57.5 123.5,-38.5 10.5,-38.5"/>
<text text-anchor="middle" x="67" y="-45.5" font-family="Helvetica,sans-Serif" font-size="10.00" fill="#000000">BresenhamLine::sin</text>
</a>
</g>
</g>
<!-- Node133&#45;&gt;Node138 -->
<g id="edge5" class="edge">
<title>Node133&#45;&gt;Node138</title>
<path fill="none" stroke="#191970" d="M171.4952,-89.3586C160.7779,-81.7679 147.176,-73.0135 134,-67 125.8606,-63.2852 116.8285,-60.1304 108.0998,-57.5223"/>
<polygon fill="#191970" stroke="#191970" points="169.6044,-92.3115 179.7466,-95.3754 173.7287,-86.6555 169.6044,-92.3115"/>
</g>
<!-- Node139 -->
<g id="node7" class="node">
<title>Node139</title>
<g id="a_node7"><a xlink:href="Grid-Finder_8module_8hpp.html#a05e720af51446c0f9319fb9455fe1767" target="_top" xlink:title=" ">
<polygon fill="#ffffff" stroke="#000000" points="10.5,-.5 10.5,-19.5 123.5,-19.5 123.5,-.5 10.5,-.5"/>
<text text-anchor="middle" x="67" y="-7.5" font-family="Helvetica,sans-Serif" font-size="10.00" fill="#000000">PYBIND11_MODULE</text>
</a>
</g>
</g>
<!-- Node133&#45;&gt;Node139 -->
<g id="edge6" class="edge">
<title>Node133&#45;&gt;Node139</title>
<path fill="none" stroke="#191970" d="M182.3812,-86.3233C172.5096,-68.9756 155.5633,-43.6773 134,-29 128.3029,-25.1222 121.8211,-22.0293 115.1867,-19.564"/>
<polygon fill="#191970" stroke="#191970" points="179.5065,-88.3637 187.3573,-95.4783 185.6568,-85.0208 179.5065,-88.3637"/>
</g>
</g>
</svg>
