<?xml version="1.0" encoding="UTF-8" standalone="no"?>
<!DOCTYPE svg PUBLIC "-//W3C//DTD SVG 1.1//EN"
 "http://www.w3.org/Graphics/SVG/1.1/DTD/svg11.dtd">
<!-- Generated by graphviz version 2.40.1 (20161225.0304)
 -->
<!-- Title: diag Pages: 1 -->
<svg width="585pt" height="28pt"
 viewBox="0.00 0.00 585.00 28.00" xmlns="http://www.w3.org/2000/svg" xmlns:xlink="http://www.w3.org/1999/xlink">
<g id="graph0" class="graph" transform="scale(1 1) rotate(0) translate(4 24)">
<title>diag</title>
<polygon fill="#ffffff" stroke="transparent" points="-4,4 -4,-24 581,-24 581,4 -4,4"/>
<!-- Node39 -->
<g id="node1" class="node">
<title>Node39</title>
<g id="a_node1"><a xlink:title=" ">
<polygon fill="#bfbfbf" stroke="#000000" points="539,-.5 539,-19.5 577,-19.5 577,-.5 539,-.5"/>
<text text-anchor="middle" x="558" y="-7.5" font-family="Helvetica,sans-Serif" font-size="10.00" fill="#000000">diag</text>
</a>
</g>
</g>
<!-- Node40 -->
<g id="node2" class="node">
<title>Node40</title>
<g id="a_node2"><a xlink:href="classLocationFinder.html#a93be2c4b05b52c58f5fca5d1514dfbe9" target="_top" xlink:title="Get the position of the center of the frame relative to the given square.">
<polygon fill="#ffffff" stroke="#000000" points="353,-.5 353,-19.5 503,-19.5 503,-.5 353,-.5"/>
<text text-anchor="middle" x="428" y="-7.5" font-family="Helvetica,sans-Serif" font-size="10.00" fill="#000000">LocationFinder::getLocation</text>
</a>
</g>
</g>
<!-- Node39&#45;&gt;Node40 -->
<g id="edge1" class="edge">
<title>Node39&#45;&gt;Node40</title>
<path fill="none" stroke="#191970" d="M528.5853,-10C520.8351,-10 512.1092,-10 503.1185,-10"/>
<polygon fill="#191970" stroke="#191970" points="528.8181,-13.5001 538.8181,-10 528.818,-6.5001 528.8181,-13.5001"/>
</g>
<!-- Node41 -->
<g id="node3" class="node">
<title>Node41</title>
<g id="a_node3"><a xlink:href="classLocationFinder.html#af56756d038d762e04e0c91bac9fc2522" target="_top" xlink:title="Read a new frame, mask it, run GridFinder, and get the position of the drone. The position is the pos...">
<polygon fill="#ffffff" stroke="#000000" points="149,-.5 149,-19.5 317,-19.5 317,-.5 149,-.5"/>
<text text-anchor="middle" x="233" y="-7.5" font-family="Helvetica,sans-Serif" font-size="10.00" fill="#000000">LocationFinder::updateLocation</text>
</a>
</g>
</g>
<!-- Node40&#45;&gt;Node41 -->
<g id="edge2" class="edge">
<title>Node40&#45;&gt;Node41</title>
<path fill="none" stroke="#191970" d="M342.6491,-10C334.1912,-10 325.6095,-10 317.1639,-10"/>
<polygon fill="#191970" stroke="#191970" points="342.8869,-13.5001 352.8868,-10 342.8868,-6.5001 342.8869,-13.5001"/>
</g>
<!-- Node42 -->
<g id="node4" class="node">
<title>Node42</title>
<g id="a_node4"><a xlink:href="Grid-Finder_8module_8hpp.html#a6849f4dcdb45a7aaadcda6439233d376" target="_top" xlink:title=" ">
<polygon fill="#ffffff" stroke="#000000" points="0,-.5 0,-19.5 113,-19.5 113,-.5 0,-.5"/>
<text text-anchor="middle" x="56.5" y="-7.5" font-family="Helvetica,sans-Serif" font-size="10.00" fill="#000000">PYBIND11_MODULE</text>
</a>
</g>
</g>
<!-- Node41&#45;&gt;Node42 -->
<g id="edge3" class="edge">
<title>Node41&#45;&gt;Node42</title>
<path fill="none" stroke="#191970" d="M138.6177,-10C129.8852,-10 121.233,-10 113.0056,-10"/>
<polygon fill="#191970" stroke="#191970" points="138.8854,-13.5001 148.8854,-10 138.8853,-6.5001 138.8854,-13.5001"/>
</g>
</g>
</svg>
