<?xml version="1.0" encoding="UTF-8" standalone="no"?>
<!DOCTYPE svg PUBLIC "-//W3C//DTD SVG 1.1//EN"
 "http://www.w3.org/Graphics/SVG/1.1/DTD/svg11.dtd">
<!-- Generated by graphviz version 2.40.1 (20161225.0304)
 -->
<!-- Title: /home/pieter/GitHub/EAGLE&#45;ZYBO&#45;Linux/src/matrix/include/Matrix.hpp Pages: 1 -->
<svg width="1375pt" height="651pt"
 viewBox="0.00 0.00 1374.81 651.00" xmlns="http://www.w3.org/2000/svg" xmlns:xlink="http://www.w3.org/1999/xlink">
<g id="graph0" class="graph" transform="scale(1 1) rotate(0) translate(4 647)">
<title>/home/pieter/GitHub/EAGLE&#45;ZYBO&#45;Linux/src/matrix/include/Matrix.hpp</title>
<polygon fill="#ffffff" stroke="transparent" points="-4,4 -4,-647 1370.8146,-647 1370.8146,4 -4,4"/>
<!-- Node13 -->
<g id="node1" class="node">
<title>Node13</title>
<g id="a_node1"><a xlink:title=" ">
<polygon fill="#bfbfbf" stroke="#000000" points="620.8146,-601.5 620.8146,-642.5 765.8146,-642.5 765.8146,-601.5 620.8146,-601.5"/>
<text text-anchor="start" x="628.8146" y="-630.5" font-family="Helvetica,sans-Serif" font-size="10.00" fill="#000000">/home/pieter/GitHub</text>
<text text-anchor="start" x="628.8146" y="-619.5" font-family="Helvetica,sans-Serif" font-size="10.00" fill="#000000">/EAGLE&#45;ZYBO&#45;Linux/src</text>
<text text-anchor="middle" x="693.3146" y="-608.5" font-family="Helvetica,sans-Serif" font-size="10.00" fill="#000000">/matrix/include/Matrix.hpp</text>
</a>
</g>
</g>
<!-- Node14 -->
<g id="node2" class="node">
<title>Node14</title>
<g id="a_node2"><a xlink:href="GridFinder_8hpp.html" target="_top" xlink:title=" ">
<polygon fill="#ffffff" stroke="#000000" points="22.8146,-351 22.8146,-392 203.8146,-392 203.8146,-351 22.8146,-351"/>
<text text-anchor="start" x="30.8146" y="-380" font-family="Helvetica,sans-Serif" font-size="10.00" fill="#000000">/home/pieter/GitHub</text>
<text text-anchor="start" x="30.8146" y="-369" font-family="Helvetica,sans-Serif" font-size="10.00" fill="#000000">/EAGLE&#45;ZYBO&#45;Linux/src</text>
<text text-anchor="middle" x="113.3146" y="-358" font-family="Helvetica,sans-Serif" font-size="10.00" fill="#000000">/grid&#45;finder/include/GridFinder.hpp</text>
</a>
</g>
</g>
<!-- Node13&#45;&gt;Node14 -->
<g id="edge1" class="edge">
<title>Node13&#45;&gt;Node14</title>
<path fill="none" stroke="#191970" d="M610.56,-619.592C443.24,-612.6583 75.0123,-586.207 9.3146,-487 -3.6912,-467.3605 -2.2839,-454.5021 9.3146,-434 19.7906,-415.4821 38.1885,-401.8475 56.6268,-392.1255"/>
<polygon fill="#191970" stroke="#191970" points="610.4262,-623.0893 620.5585,-619.9929 610.7068,-616.095 610.4262,-623.0893"/>
</g>
<!-- Node18 -->
<g id="node6" class="node">
<title>Node18</title>
<g id="a_node6"><a xlink:href="Line_8hpp.html" target="_top" xlink:title=" ">
<polygon fill="#ffffff" stroke="#000000" points="202.3146,-523.5 202.3146,-564.5 354.3146,-564.5 354.3146,-523.5 202.3146,-523.5"/>
<text text-anchor="start" x="210.3146" y="-552.5" font-family="Helvetica,sans-Serif" font-size="10.00" fill="#000000">/home/pieter/GitHub</text>
<text text-anchor="start" x="210.3146" y="-541.5" font-family="Helvetica,sans-Serif" font-size="10.00" fill="#000000">/EAGLE&#45;ZYBO&#45;Linux/src</text>
<text text-anchor="middle" x="278.3146" y="-530.5" font-family="Helvetica,sans-Serif" font-size="10.00" fill="#000000">/grid&#45;finder/include/Line.hpp</text>
</a>
</g>
</g>
<!-- Node13&#45;&gt;Node18 -->
<g id="edge5" class="edge">
<title>Node13&#45;&gt;Node18</title>
<path fill="none" stroke="#191970" d="M610.7128,-606.4748C536.0731,-592.4462 427.0962,-571.9638 354.5084,-558.3208"/>
<polygon fill="#191970" stroke="#191970" points="610.0778,-609.9167 620.5522,-608.3242 611.3709,-603.0372 610.0778,-609.9167"/>
</g>
<!-- Node22 -->
<g id="node10" class="node">
<title>Node22</title>
<g id="a_node10"><a xlink:href="HouseholderQR_8hpp.html" target="_top" xlink:title=" ">
<polygon fill="#ffffff" stroke="#000000" points="805.3146,-523.5 805.3146,-564.5 995.3146,-564.5 995.3146,-523.5 805.3146,-523.5"/>
<text text-anchor="start" x="813.3146" y="-552.5" font-family="Helvetica,sans-Serif" font-size="10.00" fill="#000000">/home/pieter/GitHub</text>
<text text-anchor="start" x="813.3146" y="-541.5" font-family="Helvetica,sans-Serif" font-size="10.00" fill="#000000">/EAGLE&#45;ZYBO&#45;Linux/src</text>
<text text-anchor="middle" x="900.3146" y="-530.5" font-family="Helvetica,sans-Serif" font-size="10.00" fill="#000000">/matrix/include/HouseholderQR.hpp</text>
</a>
</g>
</g>
<!-- Node13&#45;&gt;Node22 -->
<g id="edge14" class="edge">
<title>Node13&#45;&gt;Node22</title>
<path fill="none" stroke="#191970" d="M757.3766,-597.8607C785.6749,-587.1976 818.5983,-574.7917 845.7099,-564.5757"/>
<polygon fill="#191970" stroke="#191970" points="756.0958,-594.603 747.9722,-601.4044 758.5641,-601.1534 756.0958,-594.603"/>
</g>
<!-- Node24 -->
<g id="node12" class="node">
<title>Node24</title>
<g id="a_node12"><a xlink:href="MatrixHelpers_8hpp.html" target="_top" xlink:title=" ">
<polygon fill="#ffffff" stroke="#000000" points="1013.3146,-523.5 1013.3146,-564.5 1195.3146,-564.5 1195.3146,-523.5 1013.3146,-523.5"/>
<text text-anchor="start" x="1021.3146" y="-552.5" font-family="Helvetica,sans-Serif" font-size="10.00" fill="#000000">/home/pieter/GitHub</text>
<text text-anchor="start" x="1021.3146" y="-541.5" font-family="Helvetica,sans-Serif" font-size="10.00" fill="#000000">/EAGLE&#45;ZYBO&#45;Linux/src</text>
<text text-anchor="middle" x="1104.3146" y="-530.5" font-family="Helvetica,sans-Serif" font-size="10.00" fill="#000000">/matrix/include/MatrixHelpers.hpp</text>
</a>
</g>
</g>
<!-- Node13&#45;&gt;Node24 -->
<g id="edge16" class="edge">
<title>Node13&#45;&gt;Node24</title>
<path fill="none" stroke="#191970" d="M776.2252,-607.4024C838.9413,-596.2152 927.1454,-580.1719 1004.3146,-565 1007.1867,-564.4353 1010.104,-563.8562 1013.0487,-563.2669"/>
<polygon fill="#191970" stroke="#191970" points="775.2255,-604.0253 765.9942,-609.2246 776.453,-610.9168 775.2255,-604.0253"/>
</g>
<!-- Node25 -->
<g id="node13" class="node">
<title>Node25</title>
<g id="a_node13"><a xlink:href="Randn_8hpp.html" target="_top" xlink:title=" ">
<polygon fill="#ffffff" stroke="#000000" points="1213.8146,-523.5 1213.8146,-564.5 1358.8146,-564.5 1358.8146,-523.5 1213.8146,-523.5"/>
<text text-anchor="start" x="1221.8146" y="-552.5" font-family="Helvetica,sans-Serif" font-size="10.00" fill="#000000">/home/pieter/GitHub</text>
<text text-anchor="start" x="1221.8146" y="-541.5" font-family="Helvetica,sans-Serif" font-size="10.00" fill="#000000">/EAGLE&#45;ZYBO&#45;Linux/src</text>
<text text-anchor="middle" x="1286.3146" y="-530.5" font-family="Helvetica,sans-Serif" font-size="10.00" fill="#000000">/matrix/include/Randn.hpp</text>
</a>
</g>
</g>
<!-- Node13&#45;&gt;Node25 -->
<g id="edge17" class="edge">
<title>Node13&#45;&gt;Node25</title>
<path fill="none" stroke="#191970" d="M776.3224,-616.3219C877.8543,-608.555 1054.69,-592.366 1204.3146,-565 1207.3503,-564.4448 1210.4398,-563.8393 1213.5537,-563.1956"/>
<polygon fill="#191970" stroke="#191970" points="775.8397,-612.8483 766.1321,-617.0924 776.3676,-619.8284 775.8397,-612.8483"/>
</g>
<!-- Node26 -->
<g id="node14" class="node">
<title>Node26</title>
<g id="a_node14"><a xlink:href="PyMatrix_8hpp.html" target="_top" xlink:title=" ">
<polygon fill="#ffffff" stroke="#000000" points="424.8146,-351 424.8146,-392 597.8146,-392 597.8146,-351 424.8146,-351"/>
<text text-anchor="start" x="432.8146" y="-380" font-family="Helvetica,sans-Serif" font-size="10.00" fill="#000000">/home/pieter/GitHub</text>
<text text-anchor="start" x="432.8146" y="-369" font-family="Helvetica,sans-Serif" font-size="10.00" fill="#000000">/EAGLE&#45;ZYBO&#45;Linux/src</text>
<text text-anchor="middle" x="511.3146" y="-358" font-family="Helvetica,sans-Serif" font-size="10.00" fill="#000000">/py&#45;matrix/include/PyMatrix.hpp</text>
</a>
</g>
</g>
<!-- Node13&#45;&gt;Node26 -->
<g id="edge18" class="edge">
<title>Node13&#45;&gt;Node26</title>
<path fill="none" stroke="#191970" d="M631.334,-596.5305C616.4514,-588.1868 601.613,-577.7148 590.3146,-565 544.1583,-513.0573 522.8498,-430.5482 515.0423,-392.2686"/>
<polygon fill="#191970" stroke="#191970" points="630.1033,-599.8404 640.5749,-601.4516 633.3936,-593.6619 630.1033,-599.8404"/>
</g>
<!-- Node29 -->
<g id="node17" class="node">
<title>Node29</title>
<g id="a_node17"><a xlink:href="Quaternion_8hpp.html" target="_top" xlink:title=" ">
<polygon fill="#ffffff" stroke="#000000" points="599.3146,-523.5 599.3146,-564.5 787.3146,-564.5 787.3146,-523.5 599.3146,-523.5"/>
<text text-anchor="start" x="607.3146" y="-552.5" font-family="Helvetica,sans-Serif" font-size="10.00" fill="#000000">/home/pieter/GitHub</text>
<text text-anchor="start" x="607.3146" y="-541.5" font-family="Helvetica,sans-Serif" font-size="10.00" fill="#000000">/EAGLE&#45;ZYBO&#45;Linux/src</text>
<text text-anchor="middle" x="693.3146" y="-530.5" font-family="Helvetica,sans-Serif" font-size="10.00" fill="#000000">/quaternion/include/Quaternion.hpp</text>
</a>
</g>
</g>
<!-- Node13&#45;&gt;Node29 -->
<g id="edge22" class="edge">
<title>Node13&#45;&gt;Node29</title>
<path fill="none" stroke="#191970" d="M693.3146,-591.0789C693.3146,-582.2178 693.3146,-572.7747 693.3146,-564.6898"/>
<polygon fill="#191970" stroke="#191970" points="689.8147,-591.0974 693.3146,-601.0974 696.8147,-591.0975 689.8147,-591.0974"/>
</g>
<!-- Node15 -->
<g id="node3" class="node">
<title>Node15</title>
<g id="a_node3"><a xlink:href="LocationFinder_8cpp.html" target="_top" xlink:title=" ">
<polygon fill="#ffffff" stroke="#000000" points="72.3146,-256.5 72.3146,-308.5 224.3146,-308.5 224.3146,-256.5 72.3146,-256.5"/>
<text text-anchor="start" x="80.3146" y="-296.5" font-family="Helvetica,sans-Serif" font-size="10.00" fill="#000000">/home/pieter/GitHub</text>
<text text-anchor="start" x="80.3146" y="-285.5" font-family="Helvetica,sans-Serif" font-size="10.00" fill="#000000">/EAGLE&#45;ZYBO&#45;Linux/src</text>
<text text-anchor="start" x="80.3146" y="-274.5" font-family="Helvetica,sans-Serif" font-size="10.00" fill="#000000">/location&#45;finder/src/Location</text>
<text text-anchor="middle" x="148.3146" y="-263.5" font-family="Helvetica,sans-Serif" font-size="10.00" fill="#000000">Finder.cpp</text>
</a>
</g>
</g>
<!-- Node14&#45;&gt;Node15 -->
<g id="edge2" class="edge">
<title>Node14&#45;&gt;Node15</title>
<path fill="none" stroke="#191970" d="M125.0973,-341.5383C129.2719,-330.9229 133.9342,-319.0674 137.9791,-308.7816"/>
<polygon fill="#191970" stroke="#191970" points="121.8349,-340.2707 121.4323,-350.8579 128.3493,-342.8326 121.8349,-340.2707"/>
</g>
<!-- Node16 -->
<g id="node4" class="node">
<title>Node16</title>
<g id="a_node4"><a xlink:href="Grid-Finder_8module_8hpp.html" target="_top" xlink:title=" ">
<polygon fill="#ffffff" stroke="#000000" points="294.8146,-256.5 294.8146,-308.5 427.8146,-308.5 427.8146,-256.5 294.8146,-256.5"/>
<text text-anchor="start" x="302.8146" y="-296.5" font-family="Helvetica,sans-Serif" font-size="10.00" fill="#000000">/home/pieter/GitHub</text>
<text text-anchor="start" x="302.8146" y="-285.5" font-family="Helvetica,sans-Serif" font-size="10.00" fill="#000000">/EAGLE&#45;ZYBO&#45;Linux/src</text>
<text text-anchor="start" x="302.8146" y="-274.5" font-family="Helvetica,sans-Serif" font-size="10.00" fill="#000000">/py&#45;grid&#45;finder/include</text>
<text text-anchor="middle" x="361.3146" y="-263.5" font-family="Helvetica,sans-Serif" font-size="10.00" fill="#000000">/Grid&#45;Finder.module.hpp</text>
</a>
</g>
</g>
<!-- Node14&#45;&gt;Node16 -->
<g id="edge3" class="edge">
<title>Node14&#45;&gt;Node16</title>
<path fill="none" stroke="#191970" d="M180.3119,-347.4566C215.8173,-334.7148 259.2922,-319.1129 294.7348,-306.3936"/>
<polygon fill="#191970" stroke="#191970" points="178.7522,-344.2977 170.5222,-350.9699 181.1167,-350.8863 178.7522,-344.2977"/>
</g>
<!-- Node17 -->
<g id="node5" class="node">
<title>Node17</title>
<g id="a_node5"><a xlink:href="Grid-Finder_8module_8cpp.html" target="_top" xlink:title=" ">
<polygon fill="#ffffff" stroke="#000000" points="296.8146,-167.5 296.8146,-219.5 425.8146,-219.5 425.8146,-167.5 296.8146,-167.5"/>
<text text-anchor="start" x="304.8146" y="-207.5" font-family="Helvetica,sans-Serif" font-size="10.00" fill="#000000">/home/pieter/GitHub</text>
<text text-anchor="start" x="304.8146" y="-196.5" font-family="Helvetica,sans-Serif" font-size="10.00" fill="#000000">/EAGLE&#45;ZYBO&#45;Linux/src</text>
<text text-anchor="start" x="304.8146" y="-185.5" font-family="Helvetica,sans-Serif" font-size="10.00" fill="#000000">/py&#45;grid&#45;finder/src/Grid</text>
<text text-anchor="middle" x="361.3146" y="-174.5" font-family="Helvetica,sans-Serif" font-size="10.00" fill="#000000">&#45;Finder.module.cpp</text>
</a>
</g>
</g>
<!-- Node16&#45;&gt;Node17 -->
<g id="edge4" class="edge">
<title>Node16&#45;&gt;Node17</title>
<path fill="none" stroke="#191970" d="M361.3146,-246.1155C361.3146,-237.2061 361.3146,-227.8475 361.3146,-219.5341"/>
<polygon fill="#191970" stroke="#191970" points="357.8147,-246.2784 361.3146,-256.2784 364.8147,-246.2785 357.8147,-246.2784"/>
</g>
<!-- Node18&#45;&gt;Node14 -->
<g id="edge6" class="edge">
<title>Node18&#45;&gt;Node14</title>
<path fill="none" stroke="#191970" d="M192.1499,-536.2604C126.3527,-528.3561 43.481,-513.3975 22.3146,-487 7.5791,-468.6226 11.3435,-454.8446 22.3146,-434 31.7768,-416.0222 49.0049,-402.2168 65.9455,-392.2107"/>
<polygon fill="#191970" stroke="#191970" points="191.7998,-539.7432 202.1373,-537.4226 192.6089,-532.7901 191.7998,-539.7432"/>
</g>
<!-- Node18&#45;&gt;Node16 -->
<g id="edge13" class="edge">
<title>Node18&#45;&gt;Node16</title>
<path fill="none" stroke="#191970" d="M352.9474,-518.4474C366.2418,-510.47 378.3671,-500.181 386.3146,-487 420.2972,-430.6396 392.5148,-349.6522 374.1991,-308.5551"/>
<polygon fill="#191970" stroke="#191970" points="351.1256,-515.4554 344.0744,-523.363 354.5178,-521.5785 351.1256,-515.4554"/>
</g>
<!-- Node19 -->
<g id="node7" class="node">
<title>Node19</title>
<g id="a_node7"><a xlink:href="HelperStructs_8hpp.html" target="_top" xlink:title=" ">
<polygon fill="#ffffff" stroke="#000000" points="179.3146,-440 179.3146,-481 377.3146,-481 377.3146,-440 179.3146,-440"/>
<text text-anchor="start" x="187.3146" y="-469" font-family="Helvetica,sans-Serif" font-size="10.00" fill="#000000">/home/pieter/GitHub</text>
<text text-anchor="start" x="187.3146" y="-458" font-family="Helvetica,sans-Serif" font-size="10.00" fill="#000000">/EAGLE&#45;ZYBO&#45;Linux/src</text>
<text text-anchor="middle" x="278.3146" y="-447" font-family="Helvetica,sans-Serif" font-size="10.00" fill="#000000">/grid&#45;finder/include/HelperStructs.hpp</text>
</a>
</g>
</g>
<!-- Node18&#45;&gt;Node19 -->
<g id="edge7" class="edge">
<title>Node18&#45;&gt;Node19</title>
<path fill="none" stroke="#191970" d="M278.3146,-513.1593C278.3146,-502.5064 278.3146,-490.8344 278.3146,-481.1924"/>
<polygon fill="#191970" stroke="#191970" points="274.8147,-513.3595 278.3146,-523.3595 281.8147,-513.3596 274.8147,-513.3595"/>
</g>
<!-- Node21 -->
<g id="node9" class="node">
<title>Node21</title>
<g id="a_node9"><a xlink:href="LocationTracker_8hpp.html" target="_top" xlink:title=" ">
<polygon fill="#ffffff" stroke="#000000" points="31.8146,-434.5 31.8146,-486.5 160.8146,-486.5 160.8146,-434.5 31.8146,-434.5"/>
<text text-anchor="start" x="39.8146" y="-474.5" font-family="Helvetica,sans-Serif" font-size="10.00" fill="#000000">/home/pieter/GitHub</text>
<text text-anchor="start" x="39.8146" y="-463.5" font-family="Helvetica,sans-Serif" font-size="10.00" fill="#000000">/EAGLE&#45;ZYBO&#45;Linux/src</text>
<text text-anchor="start" x="39.8146" y="-452.5" font-family="Helvetica,sans-Serif" font-size="10.00" fill="#000000">/location&#45;finder/include</text>
<text text-anchor="middle" x="96.3146" y="-441.5" font-family="Helvetica,sans-Serif" font-size="10.00" fill="#000000">/LocationTracker.hpp</text>
</a>
</g>
</g>
<!-- Node18&#45;&gt;Node21 -->
<g id="edge12" class="edge">
<title>Node18&#45;&gt;Node21</title>
<path fill="none" stroke="#191970" d="M223.9903,-519.0765C201.6551,-508.8293 175.78,-496.958 153.187,-486.5925"/>
<polygon fill="#191970" stroke="#191970" points="222.7772,-522.3707 233.3258,-523.3595 225.6963,-516.0083 222.7772,-522.3707"/>
</g>
<!-- Node19&#45;&gt;Node14 -->
<g id="edge8" class="edge">
<title>Node19&#45;&gt;Node14</title>
<path fill="none" stroke="#191970" d="M231.0081,-434.9831C205.7503,-421.3592 175.0762,-404.8138 151.3761,-392.0301"/>
<polygon fill="#191970" stroke="#191970" points="229.5827,-438.191 240.0456,-439.8579 232.9059,-432.03 229.5827,-438.191"/>
</g>
<!-- Node20 -->
<g id="node8" class="node">
<title>Node20</title>
<g id="a_node8"><a xlink:href="LocationFinder_8hpp.html" target="_top" xlink:title=" ">
<polygon fill="#ffffff" stroke="#000000" points="221.8146,-345.5 221.8146,-397.5 350.8146,-397.5 350.8146,-345.5 221.8146,-345.5"/>
<text text-anchor="start" x="229.8146" y="-385.5" font-family="Helvetica,sans-Serif" font-size="10.00" fill="#000000">/home/pieter/GitHub</text>
<text text-anchor="start" x="229.8146" y="-374.5" font-family="Helvetica,sans-Serif" font-size="10.00" fill="#000000">/EAGLE&#45;ZYBO&#45;Linux/src</text>
<text text-anchor="start" x="229.8146" y="-363.5" font-family="Helvetica,sans-Serif" font-size="10.00" fill="#000000">/location&#45;finder/include</text>
<text text-anchor="middle" x="286.3146" y="-352.5" font-family="Helvetica,sans-Serif" font-size="10.00" fill="#000000">/LocationFinder.hpp</text>
</a>
</g>
</g>
<!-- Node19&#45;&gt;Node20 -->
<g id="edge9" class="edge">
<title>Node19&#45;&gt;Node20</title>
<path fill="none" stroke="#191970" d="M281.0664,-429.8868C282.0054,-419.4396 283.0465,-407.8575 283.9522,-397.7816"/>
<polygon fill="#191970" stroke="#191970" points="277.5795,-429.5847 280.1701,-439.8579 284.5514,-430.2114 277.5795,-429.5847"/>
</g>
<!-- Node20&#45;&gt;Node15 -->
<g id="edge10" class="edge">
<title>Node20&#45;&gt;Node15</title>
<path fill="none" stroke="#191970" d="M237.0304,-339.7152C221.18,-329.4929 203.8144,-318.2933 188.6822,-308.5341"/>
<polygon fill="#191970" stroke="#191970" points="235.3556,-342.7999 245.6565,-345.2784 239.1495,-336.9172 235.3556,-342.7999"/>
</g>
<!-- Node20&#45;&gt;Node16 -->
<g id="edge11" class="edge">
<title>Node20&#45;&gt;Node16</title>
<path fill="none" stroke="#191970" d="M315.0265,-337.4285C323.1054,-327.8416 331.7609,-317.5704 339.3757,-308.5341"/>
<polygon fill="#191970" stroke="#191970" points="312.1791,-335.3761 308.4114,-345.2784 317.5319,-339.8869 312.1791,-335.3761"/>
</g>
<!-- Node23 -->
<g id="node11" class="node">
<title>Node23</title>
<g id="a_node11"><a xlink:href="LeastSquares_8hpp.html" target="_top" xlink:title=" ">
<polygon fill="#ffffff" stroke="#000000" points="1090.8146,-440 1090.8146,-481 1269.8146,-481 1269.8146,-440 1090.8146,-440"/>
<text text-anchor="start" x="1098.8146" y="-469" font-family="Helvetica,sans-Serif" font-size="10.00" fill="#000000">/home/pieter/GitHub</text>
<text text-anchor="start" x="1098.8146" y="-458" font-family="Helvetica,sans-Serif" font-size="10.00" fill="#000000">/EAGLE&#45;ZYBO&#45;Linux/src</text>
<text text-anchor="middle" x="1180.3146" y="-447" font-family="Helvetica,sans-Serif" font-size="10.00" fill="#000000">/matrix/include/LeastSquares.hpp</text>
</a>
</g>
</g>
<!-- Node22&#45;&gt;Node23 -->
<g id="edge15" class="edge">
<title>Node22&#45;&gt;Node23</title>
<path fill="none" stroke="#191970" d="M978.9889,-520.5382C1020.5827,-508.1343 1071.1771,-493.0464 1111.2408,-481.0988"/>
<polygon fill="#191970" stroke="#191970" points="977.7516,-517.2548 969.1689,-523.4667 979.7521,-523.9629 977.7516,-517.2548"/>
</g>
<!-- Node26&#45;&gt;Node16 -->
<g id="edge19" class="edge">
<title>Node26&#45;&gt;Node16</title>
<path fill="none" stroke="#191970" d="M467.7791,-345.6689C448.1525,-334.0238 425.0147,-320.2954 405.3313,-308.6166"/>
<polygon fill="#191970" stroke="#191970" points="466.1385,-348.7652 476.5246,-350.8579 469.7104,-342.7451 466.1385,-348.7652"/>
</g>
<!-- Node27 -->
<g id="node15" class="node">
<title>Node27</title>
<g id="a_node15"><a xlink:href="PyQuaternion_8cpp.html" target="_top" xlink:title=" ">
<polygon fill="#ffffff" stroke="#000000" points="523.3146,-262 523.3146,-303 717.3146,-303 717.3146,-262 523.3146,-262"/>
<text text-anchor="start" x="531.3146" y="-291" font-family="Helvetica,sans-Serif" font-size="10.00" fill="#000000">/home/pieter/GitHub</text>
<text text-anchor="start" x="531.3146" y="-280" font-family="Helvetica,sans-Serif" font-size="10.00" fill="#000000">/EAGLE&#45;ZYBO&#45;Linux/src</text>
<text text-anchor="middle" x="620.3146" y="-269" font-family="Helvetica,sans-Serif" font-size="10.00" fill="#000000">/py&#45;quaternion/src/PyQuaternion.cpp</text>
</a>
</g>
</g>
<!-- Node26&#45;&gt;Node27 -->
<g id="edge20" class="edge">
<title>Node26&#45;&gt;Node27</title>
<path fill="none" stroke="#191970" d="M544.781,-344.1742C561.0197,-330.9151 580.2012,-315.2531 595.1709,-303.0301"/>
<polygon fill="#191970" stroke="#191970" points="542.1277,-341.8222 536.5954,-350.8579 546.5549,-347.2443 542.1277,-341.8222"/>
</g>
<!-- Node28 -->
<g id="node16" class="node">
<title>Node28</title>
<g id="a_node16"><a xlink:href="DroneLogEntry_8Python_8cpp.html" target="_top" xlink:title=" ">
<polygon fill="#ffffff" stroke="#000000" points="735.3146,-256.5 735.3146,-308.5 883.3146,-308.5 883.3146,-256.5 735.3146,-256.5"/>
<text text-anchor="start" x="743.3146" y="-296.5" font-family="Helvetica,sans-Serif" font-size="10.00" fill="#000000">/home/pieter/GitHub</text>
<text text-anchor="start" x="743.3146" y="-285.5" font-family="Helvetica,sans-Serif" font-size="10.00" fill="#000000">/EAGLE&#45;ZYBO&#45;Linux/build</text>
<text text-anchor="start" x="743.3146" y="-274.5" font-family="Helvetica,sans-Serif" font-size="10.00" fill="#000000">/src/logentry/src&#45;generated</text>
<text text-anchor="middle" x="809.3146" y="-263.5" font-family="Helvetica,sans-Serif" font-size="10.00" fill="#000000">/DroneLogEntry.Python.cpp</text>
</a>
</g>
</g>
<!-- Node26&#45;&gt;Node28 -->
<g id="edge21" class="edge">
<title>Node26&#45;&gt;Node28</title>
<path fill="none" stroke="#191970" d="M593.3555,-348.196C633.5097,-336.6512 682.5194,-322.3545 726.3146,-309 729.2083,-308.1176 732.1565,-307.2114 735.133,-306.2903"/>
<polygon fill="#191970" stroke="#191970" points="592.2574,-344.8698 583.6115,-350.9935 594.1891,-351.598 592.2574,-344.8698"/>
</g>
<!-- Node29&#45;&gt;Node27 -->
<g id="edge23" class="edge">
<title>Node29&#45;&gt;Node27</title>
<path fill="none" stroke="#191970" d="M751.6756,-518.7973C767.8541,-510.1576 784.6968,-499.4684 798.3146,-487 848.7199,-440.8489 899.0257,-399.1369 857.3146,-345 856.0526,-343.362 768.8799,-320.6538 700.6302,-303.0768"/>
<polygon fill="#191970" stroke="#191970" points="750.064,-515.6903 742.7806,-523.3846 753.2725,-521.9117 750.064,-515.6903"/>
</g>
<!-- Node30 -->
<g id="node18" class="node">
<title>Node30</title>
<g id="a_node18"><a xlink:href="EulerAngles_8hpp.html" target="_top" xlink:title=" ">
<polygon fill="#ffffff" stroke="#000000" points="597.3146,-440 597.3146,-481 789.3146,-481 789.3146,-440 597.3146,-440"/>
<text text-anchor="start" x="605.3146" y="-469" font-family="Helvetica,sans-Serif" font-size="10.00" fill="#000000">/home/pieter/GitHub</text>
<text text-anchor="start" x="605.3146" y="-458" font-family="Helvetica,sans-Serif" font-size="10.00" fill="#000000">/EAGLE&#45;ZYBO&#45;Linux/src</text>
<text text-anchor="middle" x="693.3146" y="-447" font-family="Helvetica,sans-Serif" font-size="10.00" fill="#000000">/quaternion/include/EulerAngles.hpp</text>
</a>
</g>
</g>
<!-- Node29&#45;&gt;Node30 -->
<g id="edge24" class="edge">
<title>Node29&#45;&gt;Node30</title>
<path fill="none" stroke="#191970" d="M693.3146,-513.1593C693.3146,-502.5064 693.3146,-490.8344 693.3146,-481.1924"/>
<polygon fill="#191970" stroke="#191970" points="689.8147,-513.3595 693.3146,-523.3595 696.8147,-513.3596 689.8147,-513.3595"/>
</g>
<!-- Node32 -->
<g id="node20" class="node">
<title>Node32</title>
<g id="a_node20"><a xlink:href="LoggerStructs_8hpp.html" target="_top" xlink:title=" ">
<polygon fill="#ffffff" stroke="#000000" points="903.8146,-434.5 903.8146,-486.5 1072.8146,-486.5 1072.8146,-434.5 903.8146,-434.5"/>
<text text-anchor="start" x="911.8146" y="-474.5" font-family="Helvetica,sans-Serif" font-size="10.00" fill="#000000">/home/pieter/GitHub</text>
<text text-anchor="start" x="911.8146" y="-463.5" font-family="Helvetica,sans-Serif" font-size="10.00" fill="#000000">/EAGLE&#45;ZYBO&#45;Linux/build</text>
<text text-anchor="start" x="911.8146" y="-452.5" font-family="Helvetica,sans-Serif" font-size="10.00" fill="#000000">/src/logentry/include&#45;generated</text>
<text text-anchor="middle" x="988.3146" y="-441.5" font-family="Helvetica,sans-Serif" font-size="10.00" fill="#000000">/LoggerStructs.hpp</text>
</a>
</g>
</g>
<!-- Node29&#45;&gt;Node32 -->
<g id="edge28" class="edge">
<title>Node29&#45;&gt;Node32</title>
<path fill="none" stroke="#191970" d="M775.5701,-520.7175C815.5305,-509.4067 863.4923,-495.8311 903.7536,-484.4351"/>
<polygon fill="#191970" stroke="#191970" points="774.5263,-517.3754 765.8576,-523.4667 776.4328,-524.1108 774.5263,-517.3754"/>
</g>
<!-- Node30&#45;&gt;Node27 -->
<g id="edge25" class="edge">
<title>Node30&#45;&gt;Node27</title>
<path fill="none" stroke="#191970" d="M667.2387,-432.0706C659.1479,-421.943 650.8988,-410.0472 645.3146,-398 630.9058,-366.9146 624.6572,-327.2346 622.054,-303.4018"/>
<polygon fill="#191970" stroke="#191970" points="664.5597,-434.3231 673.6395,-439.7828 669.9462,-429.8525 664.5597,-434.3231"/>
</g>
<!-- Node31 -->
<g id="node19" class="node">
<title>Node31</title>
<g id="a_node19"><a xlink:href="AnglePrinter_8hpp.html" target="_top" xlink:title=" ">
<polygon fill="#ffffff" stroke="#000000" points="654.3146,-351 654.3146,-392 848.3146,-392 848.3146,-351 654.3146,-351"/>
<text text-anchor="start" x="662.3146" y="-380" font-family="Helvetica,sans-Serif" font-size="10.00" fill="#000000">/home/pieter/GitHub</text>
<text text-anchor="start" x="662.3146" y="-369" font-family="Helvetica,sans-Serif" font-size="10.00" fill="#000000">/EAGLE&#45;ZYBO&#45;Linux/src</text>
<text text-anchor="middle" x="751.3146" y="-358" font-family="Helvetica,sans-Serif" font-size="10.00" fill="#000000">/quaternion/include/AnglePrinter.hpp</text>
</a>
</g>
</g>
<!-- Node30&#45;&gt;Node31 -->
<g id="edge26" class="edge">
<title>Node30&#45;&gt;Node31</title>
<path fill="none" stroke="#191970" d="M712.321,-431.335C720.6949,-418.4855 730.3353,-403.6924 737.9354,-392.0301"/>
<polygon fill="#191970" stroke="#191970" points="709.2943,-429.569 706.7668,-439.8579 715.1589,-433.3909 709.2943,-429.569"/>
</g>
<!-- Node31&#45;&gt;Node27 -->
<g id="edge27" class="edge">
<title>Node31&#45;&gt;Node27</title>
<path fill="none" stroke="#191970" d="M712.4307,-345.0827C692.6374,-331.6354 668.9369,-315.5335 650.5331,-303.0301"/>
<polygon fill="#191970" stroke="#191970" points="710.6928,-348.1333 720.9313,-350.8579 714.6266,-342.3432 710.6928,-348.1333"/>
</g>
<!-- Node33 -->
<g id="node21" class="node">
<title>Node33</title>
<g id="a_node21"><a xlink:href="LogEntry_8hpp.html" target="_top" xlink:title=" ">
<polygon fill="#ffffff" stroke="#000000" points="909.8146,-345.5 909.8146,-397.5 1078.8146,-397.5 1078.8146,-345.5 909.8146,-345.5"/>
<text text-anchor="start" x="917.8146" y="-385.5" font-family="Helvetica,sans-Serif" font-size="10.00" fill="#000000">/home/pieter/GitHub</text>
<text text-anchor="start" x="917.8146" y="-374.5" font-family="Helvetica,sans-Serif" font-size="10.00" fill="#000000">/EAGLE&#45;ZYBO&#45;Linux/build</text>
<text text-anchor="start" x="917.8146" y="-363.5" font-family="Helvetica,sans-Serif" font-size="10.00" fill="#000000">/src/logentry/include&#45;generated</text>
<text text-anchor="middle" x="994.3146" y="-352.5" font-family="Helvetica,sans-Serif" font-size="10.00" fill="#000000">/LogEntry.hpp</text>
</a>
</g>
</g>
<!-- Node32&#45;&gt;Node33 -->
<g id="edge29" class="edge">
<title>Node32&#45;&gt;Node33</title>
<path fill="none" stroke="#191970" d="M990.7675,-424.1155C991.3681,-415.2061 991.999,-405.8475 992.5595,-397.5341"/>
<polygon fill="#191970" stroke="#191970" points="987.263,-424.0656 990.0824,-434.2784 994.2472,-424.5365 987.263,-424.0656"/>
</g>
<!-- Node33&#45;&gt;Node28 -->
<g id="edge40" class="edge">
<title>Node33&#45;&gt;Node28</title>
<path fill="none" stroke="#191970" d="M930.5975,-340.8469C908.725,-330.3245 884.4678,-318.6548 863.4305,-308.5341"/>
<polygon fill="#191970" stroke="#191970" points="929.2803,-344.0972 939.8091,-345.2784 932.315,-337.7891 929.2803,-344.0972"/>
</g>
<!-- Node34 -->
<g id="node22" class="node">
<title>Node34</title>
<g id="a_node22"><a xlink:href="BaremetalCommunicationDef_8hpp.html" target="_top" xlink:title=" ">
<polygon fill="#ffffff" stroke="#000000" points="901.8146,-256.5 901.8146,-308.5 1086.8146,-308.5 1086.8146,-256.5 901.8146,-256.5"/>
<text text-anchor="start" x="909.8146" y="-296.5" font-family="Helvetica,sans-Serif" font-size="10.00" fill="#000000">/home/pieter/GitHub</text>
<text text-anchor="start" x="909.8146" y="-285.5" font-family="Helvetica,sans-Serif" font-size="10.00" fill="#000000">/EAGLE&#45;ZYBO&#45;Linux/src</text>
<text text-anchor="start" x="909.8146" y="-274.5" font-family="Helvetica,sans-Serif" font-size="10.00" fill="#000000">/baremetal&#45;comm/include</text>
<text text-anchor="middle" x="994.3146" y="-263.5" font-family="Helvetica,sans-Serif" font-size="10.00" fill="#000000">/BaremetalCommunicationDef.hpp</text>
</a>
</g>
</g>
<!-- Node33&#45;&gt;Node34 -->
<g id="edge30" class="edge">
<title>Node33&#45;&gt;Node34</title>
<path fill="none" stroke="#191970" d="M994.3146,-335.1155C994.3146,-326.2061 994.3146,-316.8475 994.3146,-308.5341"/>
<polygon fill="#191970" stroke="#191970" points="990.8147,-335.2784 994.3146,-345.2784 997.8147,-335.2785 990.8147,-335.2784"/>
</g>
<!-- Node35 -->
<g id="node23" class="node">
<title>Node35</title>
<g id="a_node23"><a xlink:href="Logger_8hpp.html" target="_top" xlink:title=" ">
<polygon fill="#ffffff" stroke="#000000" points="1029.8146,-173 1029.8146,-214 1174.8146,-214 1174.8146,-173 1029.8146,-173"/>
<text text-anchor="start" x="1037.8146" y="-202" font-family="Helvetica,sans-Serif" font-size="10.00" fill="#000000">/home/pieter/GitHub</text>
<text text-anchor="start" x="1037.8146" y="-191" font-family="Helvetica,sans-Serif" font-size="10.00" fill="#000000">/EAGLE&#45;ZYBO&#45;Linux/src</text>
<text text-anchor="middle" x="1102.3146" y="-180" font-family="Helvetica,sans-Serif" font-size="10.00" fill="#000000">/logger/include/Logger.hpp</text>
</a>
</g>
</g>
<!-- Node33&#45;&gt;Node35 -->
<g id="edge39" class="edge">
<title>Node33&#45;&gt;Node35</title>
<path fill="none" stroke="#191970" d="M1066.6643,-339.6712C1078.392,-331.3564 1089.0541,-321.2096 1096.3146,-309 1113.6586,-279.8335 1110.7179,-238.8403 1106.7161,-214.3462"/>
<polygon fill="#191970" stroke="#191970" points="1064.3909,-336.9778 1057.9697,-345.4051 1068.2447,-342.8215 1064.3909,-336.9778"/>
</g>
<!-- Node41 -->
<g id="node29" class="node">
<title>Node41</title>
<g id="a_node29"><a xlink:href="GetLogData_8hpp.html" target="_top" xlink:title=" ">
<polygon fill="#ffffff" stroke="#000000" points="1165.3146,-262 1165.3146,-303 1345.3146,-303 1345.3146,-262 1165.3146,-262"/>
<text text-anchor="start" x="1173.3146" y="-291" font-family="Helvetica,sans-Serif" font-size="10.00" fill="#000000">/home/pieter/GitHub</text>
<text text-anchor="start" x="1173.3146" y="-280" font-family="Helvetica,sans-Serif" font-size="10.00" fill="#000000">/EAGLE&#45;ZYBO&#45;Linux/src</text>
<text text-anchor="middle" x="1255.3146" y="-269" font-family="Helvetica,sans-Serif" font-size="10.00" fill="#000000">/logentry/include/GetLogData.hpp</text>
</a>
</g>
</g>
<!-- Node33&#45;&gt;Node41 -->
<g id="edge37" class="edge">
<title>Node33&#45;&gt;Node41</title>
<path fill="none" stroke="#191970" d="M1080.7469,-342.0269C1118.1552,-329.2708 1161.0372,-314.6482 1194.9384,-303.0881"/>
<polygon fill="#191970" stroke="#191970" points="1079.1949,-338.8582 1070.8597,-345.3984 1081.4542,-345.4836 1079.1949,-338.8582"/>
</g>
<!-- Node34&#45;&gt;Node35 -->
<g id="edge31" class="edge">
<title>Node34&#45;&gt;Node35</title>
<path fill="none" stroke="#191970" d="M1033.9857,-249.8081C1048.4444,-237.893 1064.3806,-224.7605 1077.2233,-214.1771"/>
<polygon fill="#191970" stroke="#191970" points="1031.6254,-247.2178 1026.134,-256.2784 1036.0772,-252.6199 1031.6254,-247.2178"/>
</g>
<!-- Node39 -->
<g id="node27" class="node">
<title>Node39</title>
<g id="a_node27"><a xlink:href="QRCryptoManager_8hpp.html" target="_top" xlink:title=" ">
<polygon fill="#ffffff" stroke="#000000" points="862.8146,-167.5 862.8146,-219.5 1011.8146,-219.5 1011.8146,-167.5 862.8146,-167.5"/>
<text text-anchor="start" x="870.8146" y="-207.5" font-family="Helvetica,sans-Serif" font-size="10.00" fill="#000000">/home/pieter/GitHub</text>
<text text-anchor="start" x="870.8146" y="-196.5" font-family="Helvetica,sans-Serif" font-size="10.00" fill="#000000">/EAGLE&#45;ZYBO&#45;Linux/src</text>
<text text-anchor="start" x="870.8146" y="-185.5" font-family="Helvetica,sans-Serif" font-size="10.00" fill="#000000">/qr&#45;crypto&#45;manager/include</text>
<text text-anchor="middle" x="937.3146" y="-174.5" font-family="Helvetica,sans-Serif" font-size="10.00" fill="#000000">/QRCryptoManager.hpp</text>
</a>
</g>
</g>
<!-- Node34&#45;&gt;Node39 -->
<g id="edge35" class="edge">
<title>Node34&#45;&gt;Node39</title>
<path fill="none" stroke="#191970" d="M972.1246,-247.8525C966.0908,-238.4313 959.6597,-228.3897 953.9882,-219.5341"/>
<polygon fill="#191970" stroke="#191970" points="969.1804,-249.7451 977.521,-256.2784 975.0751,-245.9698 969.1804,-249.7451"/>
</g>
<!-- Node36 -->
<g id="node24" class="node">
<title>Node36</title>
<g id="a_node24"><a xlink:href="ThreadedLogger_8hpp.html" target="_top" xlink:title=" ">
<polygon fill="#ffffff" stroke="#000000" points="1175.8146,-84 1175.8146,-125 1366.8146,-125 1366.8146,-84 1175.8146,-84"/>
<text text-anchor="start" x="1183.8146" y="-113" font-family="Helvetica,sans-Serif" font-size="10.00" fill="#000000">/home/pieter/GitHub</text>
<text text-anchor="start" x="1183.8146" y="-102" font-family="Helvetica,sans-Serif" font-size="10.00" fill="#000000">/EAGLE&#45;ZYBO&#45;Linux/src</text>
<text text-anchor="middle" x="1271.3146" y="-91" font-family="Helvetica,sans-Serif" font-size="10.00" fill="#000000">/logger/include/ThreadedLogger.hpp</text>
</a>
</g>
</g>
<!-- Node35&#45;&gt;Node36 -->
<g id="edge32" class="edge">
<title>Node35&#45;&gt;Node36</title>
<path fill="none" stroke="#191970" d="M1150.4279,-168.1622C1176.3624,-154.5044 1207.9493,-137.8699 1232.3304,-125.0301"/>
<polygon fill="#191970" stroke="#191970" points="1148.7286,-165.1014 1141.5114,-172.8579 1151.9903,-171.2951 1148.7286,-165.1014"/>
</g>
<!-- Node38 -->
<g id="node26" class="node">
<title>Node38</title>
<g id="a_node26"><a xlink:href="Logger_8cpp.html" target="_top" xlink:title=" ">
<polygon fill="#ffffff" stroke="#000000" points="1028.8146,-84 1028.8146,-125 1157.8146,-125 1157.8146,-84 1028.8146,-84"/>
<text text-anchor="start" x="1036.8146" y="-113" font-family="Helvetica,sans-Serif" font-size="10.00" fill="#000000">/home/pieter/GitHub</text>
<text text-anchor="start" x="1036.8146" y="-102" font-family="Helvetica,sans-Serif" font-size="10.00" fill="#000000">/EAGLE&#45;ZYBO&#45;Linux/src</text>
<text text-anchor="middle" x="1093.3146" y="-91" font-family="Helvetica,sans-Serif" font-size="10.00" fill="#000000">/logger/src/Logger.cpp</text>
</a>
</g>
</g>
<!-- Node35&#45;&gt;Node38 -->
<g id="edge34" class="edge">
<title>Node35&#45;&gt;Node38</title>
<path fill="none" stroke="#191970" d="M1099.2146,-162.844C1097.9513,-150.3522 1096.5247,-136.2439 1095.3907,-125.0301"/>
<polygon fill="#191970" stroke="#191970" points="1095.7388,-163.2608 1100.2272,-172.8579 1102.7033,-162.5565 1095.7388,-163.2608"/>
</g>
<!-- Node37 -->
<g id="node25" class="node">
<title>Node37</title>
<g id="a_node25"><a xlink:href="ThreadedLogger_8cpp.html" target="_top" xlink:title=" ">
<polygon fill="#ffffff" stroke="#000000" points="1186.8146,-.5 1186.8146,-41.5 1355.8146,-41.5 1355.8146,-.5 1186.8146,-.5"/>
<text text-anchor="start" x="1194.8146" y="-29.5" font-family="Helvetica,sans-Serif" font-size="10.00" fill="#000000">/home/pieter/GitHub</text>
<text text-anchor="start" x="1194.8146" y="-18.5" font-family="Helvetica,sans-Serif" font-size="10.00" fill="#000000">/EAGLE&#45;ZYBO&#45;Linux/src</text>
<text text-anchor="middle" x="1271.3146" y="-7.5" font-family="Helvetica,sans-Serif" font-size="10.00" fill="#000000">/logger/src/ThreadedLogger.cpp</text>
</a>
</g>
</g>
<!-- Node36&#45;&gt;Node37 -->
<g id="edge33" class="edge">
<title>Node36&#45;&gt;Node37</title>
<path fill="none" stroke="#191970" d="M1271.3146,-73.6593C1271.3146,-63.0064 1271.3146,-51.3344 1271.3146,-41.6924"/>
<polygon fill="#191970" stroke="#191970" points="1267.8147,-73.8595 1271.3146,-83.8595 1274.8147,-73.8596 1267.8147,-73.8595"/>
</g>
<!-- Node40 -->
<g id="node28" class="node">
<title>Node40</title>
<g id="a_node28"><a xlink:href="QRCryptoManager_8cpp.html" target="_top" xlink:title=" ">
<polygon fill="#ffffff" stroke="#000000" points="872.8146,-78.5 872.8146,-130.5 1001.8146,-130.5 1001.8146,-78.5 872.8146,-78.5"/>
<text text-anchor="start" x="880.8146" y="-118.5" font-family="Helvetica,sans-Serif" font-size="10.00" fill="#000000">/home/pieter/GitHub</text>
<text text-anchor="start" x="880.8146" y="-107.5" font-family="Helvetica,sans-Serif" font-size="10.00" fill="#000000">/EAGLE&#45;ZYBO&#45;Linux/src</text>
<text text-anchor="start" x="880.8146" y="-96.5" font-family="Helvetica,sans-Serif" font-size="10.00" fill="#000000">/qr&#45;crypto&#45;manager/src</text>
<text text-anchor="middle" x="937.3146" y="-85.5" font-family="Helvetica,sans-Serif" font-size="10.00" fill="#000000">/QRCryptoManager.cpp</text>
</a>
</g>
</g>
<!-- Node39&#45;&gt;Node40 -->
<g id="edge36" class="edge">
<title>Node39&#45;&gt;Node40</title>
<path fill="none" stroke="#191970" d="M937.3146,-157.1155C937.3146,-148.2061 937.3146,-138.8475 937.3146,-130.5341"/>
<polygon fill="#191970" stroke="#191970" points="933.8147,-157.2784 937.3146,-167.2784 940.8147,-157.2785 933.8147,-157.2784"/>
</g>
<!-- Node42 -->
<g id="node30" class="node">
<title>Node42</title>
<g id="a_node30"><a xlink:href="GetLogData_8cpp.html" target="_top" xlink:title=" ">
<polygon fill="#ffffff" stroke="#000000" points="1193.3146,-167.5 1193.3146,-219.5 1341.3146,-219.5 1341.3146,-167.5 1193.3146,-167.5"/>
<text text-anchor="start" x="1201.3146" y="-207.5" font-family="Helvetica,sans-Serif" font-size="10.00" fill="#000000">/home/pieter/GitHub</text>
<text text-anchor="start" x="1201.3146" y="-196.5" font-family="Helvetica,sans-Serif" font-size="10.00" fill="#000000">/EAGLE&#45;ZYBO&#45;Linux/build</text>
<text text-anchor="start" x="1201.3146" y="-185.5" font-family="Helvetica,sans-Serif" font-size="10.00" fill="#000000">/src/logentry/src&#45;generated</text>
<text text-anchor="middle" x="1267.3146" y="-174.5" font-family="Helvetica,sans-Serif" font-size="10.00" fill="#000000">/GetLogData.cpp</text>
</a>
</g>
</g>
<!-- Node41&#45;&gt;Node42 -->
<g id="edge38" class="edge">
<title>Node41&#45;&gt;Node42</title>
<path fill="none" stroke="#191970" d="M1259.4422,-251.8868C1260.8508,-241.4396 1262.4125,-229.8575 1263.771,-219.7816"/>
<polygon fill="#191970" stroke="#191970" points="1255.9655,-251.4799 1258.0978,-261.8579 1262.9027,-252.4153 1255.9655,-251.4799"/>
</g>
</g>
</svg>
