<?xml version="1.0" encoding="UTF-8" standalone="no"?>
<!DOCTYPE svg PUBLIC "-//W3C//DTD SVG 1.1//EN"
 "http://www.w3.org/Graphics/SVG/1.1/DTD/svg11.dtd">
<!-- Generated by graphviz version 2.40.1 (20161225.0304)
 -->
<!-- Title: /home/pieter/GitHub/EAGLE&#45;ZYBO&#45;Linux/src/matrix/include/Matrix.hpp Pages: 1 -->
<svg width="1048pt" height="473pt"
 viewBox="0.00 0.00 1048.00 473.00" xmlns="http://www.w3.org/2000/svg" xmlns:xlink="http://www.w3.org/1999/xlink">
<g id="graph0" class="graph" transform="scale(1 1) rotate(0) translate(4 469)">
<title>/home/pieter/GitHub/EAGLE&#45;ZYBO&#45;Linux/src/matrix/include/Matrix.hpp</title>
<polygon fill="#ffffff" stroke="transparent" points="-4,4 -4,-469 1044,-469 1044,4 -4,4"/>
<!-- Node10 -->
<g id="node1" class="node">
<title>Node10</title>
<g id="a_node1"><a xlink:title=" ">
<polygon fill="#bfbfbf" stroke="#000000" points="447,-423.5 447,-464.5 592,-464.5 592,-423.5 447,-423.5"/>
<text text-anchor="start" x="455" y="-452.5" font-family="Helvetica,sans-Serif" font-size="10.00" fill="#000000">/home/pieter/GitHub</text>
<text text-anchor="start" x="455" y="-441.5" font-family="Helvetica,sans-Serif" font-size="10.00" fill="#000000">/EAGLE&#45;ZYBO&#45;Linux/src</text>
<text text-anchor="middle" x="519.5" y="-430.5" font-family="Helvetica,sans-Serif" font-size="10.00" fill="#000000">/matrix/include/Matrix.hpp</text>
</a>
</g>
</g>
<!-- Node11 -->
<g id="node2" class="node">
<title>Node11</title>
<g id="a_node2"><a xlink:href="GridFinder_8hpp.html" target="_top" xlink:title=" ">
<polygon fill="#ffffff" stroke="#000000" points="147,-184 147,-225 328,-225 328,-184 147,-184"/>
<text text-anchor="start" x="155" y="-213" font-family="Helvetica,sans-Serif" font-size="10.00" fill="#000000">/home/pieter/GitHub</text>
<text text-anchor="start" x="155" y="-202" font-family="Helvetica,sans-Serif" font-size="10.00" fill="#000000">/EAGLE&#45;ZYBO&#45;Linux/src</text>
<text text-anchor="middle" x="237.5" y="-191" font-family="Helvetica,sans-Serif" font-size="10.00" fill="#000000">/grid&#45;finder/include/GridFinder.hpp</text>
</a>
</g>
</g>
<!-- Node10&#45;&gt;Node11 -->
<g id="edge1" class="edge">
<title>Node10&#45;&gt;Node11</title>
<path fill="none" stroke="#191970" d="M437.0754,-431.3368C321.5895,-411.5964 121.4454,-369.3847 83.5,-309 73.5681,-293.1949 73.0738,-282.4835 83.5,-267 93.5727,-252.0414 130.5252,-236.7897 165.7062,-225.0975"/>
<polygon fill="#191970" stroke="#191970" points="436.5079,-434.7905 446.9513,-433.0055 437.6742,-427.8883 436.5079,-434.7905"/>
</g>
<!-- Node15 -->
<g id="node6" class="node">
<title>Node15</title>
<g id="a_node6"><a xlink:href="Line_8hpp.html" target="_top" xlink:title=" ">
<polygon fill="#ffffff" stroke="#000000" points="254.5,-345.5 254.5,-386.5 406.5,-386.5 406.5,-345.5 254.5,-345.5"/>
<text text-anchor="start" x="262.5" y="-374.5" font-family="Helvetica,sans-Serif" font-size="10.00" fill="#000000">/home/pieter/GitHub</text>
<text text-anchor="start" x="262.5" y="-363.5" font-family="Helvetica,sans-Serif" font-size="10.00" fill="#000000">/EAGLE&#45;ZYBO&#45;Linux/src</text>
<text text-anchor="middle" x="330.5" y="-352.5" font-family="Helvetica,sans-Serif" font-size="10.00" fill="#000000">/grid&#45;finder/include/Line.hpp</text>
</a>
</g>
</g>
<!-- Node10&#45;&gt;Node15 -->
<g id="edge5" class="edge">
<title>Node10&#45;&gt;Node15</title>
<path fill="none" stroke="#191970" d="M460.0886,-419.481C434.4157,-408.8858 404.7158,-396.6288 380.2309,-386.5239"/>
<polygon fill="#191970" stroke="#191970" points="458.7687,-422.7226 469.3477,-423.3022 461.4392,-416.252 458.7687,-422.7226"/>
</g>
<!-- Node18 -->
<g id="node9" class="node">
<title>Node18</title>
<g id="a_node9"><a xlink:href="HouseholderQR_8hpp.html" target="_top" xlink:title=" ">
<polygon fill="#ffffff" stroke="#000000" points="486.5,-345.5 486.5,-386.5 676.5,-386.5 676.5,-345.5 486.5,-345.5"/>
<text text-anchor="start" x="494.5" y="-374.5" font-family="Helvetica,sans-Serif" font-size="10.00" fill="#000000">/home/pieter/GitHub</text>
<text text-anchor="start" x="494.5" y="-363.5" font-family="Helvetica,sans-Serif" font-size="10.00" fill="#000000">/EAGLE&#45;ZYBO&#45;Linux/src</text>
<text text-anchor="middle" x="581.5" y="-352.5" font-family="Helvetica,sans-Serif" font-size="10.00" fill="#000000">/matrix/include/HouseholderQR.hpp</text>
</a>
</g>
</g>
<!-- Node10&#45;&gt;Node18 -->
<g id="edge12" class="edge">
<title>Node10&#45;&gt;Node18</title>
<path fill="none" stroke="#191970" d="M542.4793,-415.0905C549.9733,-405.6626 558.1388,-395.3899 565.0543,-386.6898"/>
<polygon fill="#191970" stroke="#191970" points="539.5975,-413.0913 536.1149,-423.0974 545.0772,-417.447 539.5975,-413.0913"/>
</g>
<!-- Node20 -->
<g id="node11" class="node">
<title>Node20</title>
<g id="a_node11"><a xlink:href="MatrixHelpers_8hpp.html" target="_top" xlink:title=" ">
<polygon fill="#ffffff" stroke="#000000" points="694.5,-345.5 694.5,-386.5 876.5,-386.5 876.5,-345.5 694.5,-345.5"/>
<text text-anchor="start" x="702.5" y="-374.5" font-family="Helvetica,sans-Serif" font-size="10.00" fill="#000000">/home/pieter/GitHub</text>
<text text-anchor="start" x="702.5" y="-363.5" font-family="Helvetica,sans-Serif" font-size="10.00" fill="#000000">/EAGLE&#45;ZYBO&#45;Linux/src</text>
<text text-anchor="middle" x="785.5" y="-352.5" font-family="Helvetica,sans-Serif" font-size="10.00" fill="#000000">/matrix/include/MatrixHelpers.hpp</text>
</a>
</g>
</g>
<!-- Node10&#45;&gt;Node20 -->
<g id="edge14" class="edge">
<title>Node10&#45;&gt;Node20</title>
<path fill="none" stroke="#191970" d="M599.4582,-420.5536C636.3422,-409.738 679.7351,-397.0138 715.3317,-386.5757"/>
<polygon fill="#191970" stroke="#191970" points="598.3474,-417.2319 589.7363,-423.4044 600.3171,-423.9491 598.3474,-417.2319"/>
</g>
<!-- Node21 -->
<g id="node12" class="node">
<title>Node21</title>
<g id="a_node12"><a xlink:href="Randn_8hpp.html" target="_top" xlink:title=" ">
<polygon fill="#ffffff" stroke="#000000" points="895,-345.5 895,-386.5 1040,-386.5 1040,-345.5 895,-345.5"/>
<text text-anchor="start" x="903" y="-374.5" font-family="Helvetica,sans-Serif" font-size="10.00" fill="#000000">/home/pieter/GitHub</text>
<text text-anchor="start" x="903" y="-363.5" font-family="Helvetica,sans-Serif" font-size="10.00" fill="#000000">/EAGLE&#45;ZYBO&#45;Linux/src</text>
<text text-anchor="middle" x="967.5" y="-352.5" font-family="Helvetica,sans-Serif" font-size="10.00" fill="#000000">/matrix/include/Randn.hpp</text>
</a>
</g>
</g>
<!-- Node10&#45;&gt;Node21 -->
<g id="edge15" class="edge">
<title>Node10&#45;&gt;Node21</title>
<path fill="none" stroke="#191970" d="M602.3402,-433.4154C676.7887,-423.3538 788.9391,-406.8357 885.5,-387 888.5229,-386.379 891.6017,-385.7186 894.7068,-385.0294"/>
<polygon fill="#191970" stroke="#191970" points="601.536,-429.9919 592.091,-434.792 602.4679,-436.9296 601.536,-429.9919"/>
</g>
<!-- Node22 -->
<g id="node13" class="node">
<title>Node22</title>
<g id="a_node13"><a xlink:href="PyMatrix_8hpp.html" target="_top" xlink:title=" ">
<polygon fill="#ffffff" stroke="#000000" points="385,-267.5 385,-308.5 558,-308.5 558,-267.5 385,-267.5"/>
<text text-anchor="start" x="393" y="-296.5" font-family="Helvetica,sans-Serif" font-size="10.00" fill="#000000">/home/pieter/GitHub</text>
<text text-anchor="start" x="393" y="-285.5" font-family="Helvetica,sans-Serif" font-size="10.00" fill="#000000">/EAGLE&#45;ZYBO&#45;Linux/src</text>
<text text-anchor="middle" x="471.5" y="-274.5" font-family="Helvetica,sans-Serif" font-size="10.00" fill="#000000">/py&#45;matrix/include/PyMatrix.hpp</text>
</a>
</g>
</g>
<!-- Node10&#45;&gt;Node22 -->
<g id="edge16" class="edge">
<title>Node10&#45;&gt;Node22</title>
<path fill="none" stroke="#191970" d="M493.356,-415.1979C487.0593,-406.6884 481.1133,-396.9672 477.5,-387 468.1692,-361.2608 468.1144,-329.3045 469.4126,-308.783"/>
<polygon fill="#191970" stroke="#191970" points="490.766,-417.5667 499.6963,-423.2678 496.2704,-413.2421 490.766,-417.5667"/>
</g>
<!-- Node12 -->
<g id="node3" class="node">
<title>Node12</title>
<g id="a_node3"><a xlink:href="LocationFinder_8cpp.html" target="_top" xlink:title=" ">
<polygon fill="#ffffff" stroke="#000000" points="54.5,-89.5 54.5,-141.5 206.5,-141.5 206.5,-89.5 54.5,-89.5"/>
<text text-anchor="start" x="62.5" y="-129.5" font-family="Helvetica,sans-Serif" font-size="10.00" fill="#000000">/home/pieter/GitHub</text>
<text text-anchor="start" x="62.5" y="-118.5" font-family="Helvetica,sans-Serif" font-size="10.00" fill="#000000">/EAGLE&#45;ZYBO&#45;Linux/src</text>
<text text-anchor="start" x="62.5" y="-107.5" font-family="Helvetica,sans-Serif" font-size="10.00" fill="#000000">/location&#45;finder/src/Location</text>
<text text-anchor="middle" x="130.5" y="-96.5" font-family="Helvetica,sans-Serif" font-size="10.00" fill="#000000">Finder.cpp</text>
</a>
</g>
</g>
<!-- Node11&#45;&gt;Node12 -->
<g id="edge2" class="edge">
<title>Node11&#45;&gt;Node12</title>
<path fill="none" stroke="#191970" d="M204.9544,-177.4294C191.3501,-166.1136 175.5988,-153.012 162.097,-141.7816"/>
<polygon fill="#191970" stroke="#191970" points="202.7568,-180.1539 212.6831,-183.8579 207.2332,-174.7723 202.7568,-180.1539"/>
</g>
<!-- Node13 -->
<g id="node4" class="node">
<title>Node13</title>
<g id="a_node4"><a xlink:href="Grid-Finder_8module_8hpp.html" target="_top" xlink:title=" ">
<polygon fill="#ffffff" stroke="#000000" points="290,-89.5 290,-141.5 423,-141.5 423,-89.5 290,-89.5"/>
<text text-anchor="start" x="298" y="-129.5" font-family="Helvetica,sans-Serif" font-size="10.00" fill="#000000">/home/pieter/GitHub</text>
<text text-anchor="start" x="298" y="-118.5" font-family="Helvetica,sans-Serif" font-size="10.00" fill="#000000">/EAGLE&#45;ZYBO&#45;Linux/src</text>
<text text-anchor="start" x="298" y="-107.5" font-family="Helvetica,sans-Serif" font-size="10.00" fill="#000000">/py&#45;grid&#45;finder/include</text>
<text text-anchor="middle" x="356.5" y="-96.5" font-family="Helvetica,sans-Serif" font-size="10.00" fill="#000000">/Grid&#45;Finder.module.hpp</text>
</a>
</g>
</g>
<!-- Node11&#45;&gt;Node13 -->
<g id="edge3" class="edge">
<title>Node11&#45;&gt;Node13</title>
<path fill="none" stroke="#191970" d="M273.272,-177.7462C288.498,-166.3587 306.2031,-153.117 321.3594,-141.7816"/>
<polygon fill="#191970" stroke="#191970" points="271.0119,-175.0658 265.1001,-183.8579 275.2044,-180.6715 271.0119,-175.0658"/>
</g>
<!-- Node14 -->
<g id="node5" class="node">
<title>Node14</title>
<g id="a_node5"><a xlink:href="Grid-Finder_8module_8cpp.html" target="_top" xlink:title=" ">
<polygon fill="#ffffff" stroke="#000000" points="292,-.5 292,-52.5 421,-52.5 421,-.5 292,-.5"/>
<text text-anchor="start" x="300" y="-40.5" font-family="Helvetica,sans-Serif" font-size="10.00" fill="#000000">/home/pieter/GitHub</text>
<text text-anchor="start" x="300" y="-29.5" font-family="Helvetica,sans-Serif" font-size="10.00" fill="#000000">/EAGLE&#45;ZYBO&#45;Linux/src</text>
<text text-anchor="start" x="300" y="-18.5" font-family="Helvetica,sans-Serif" font-size="10.00" fill="#000000">/py&#45;grid&#45;finder/src/Grid</text>
<text text-anchor="middle" x="356.5" y="-7.5" font-family="Helvetica,sans-Serif" font-size="10.00" fill="#000000">&#45;Finder.module.cpp</text>
</a>
</g>
</g>
<!-- Node13&#45;&gt;Node14 -->
<g id="edge4" class="edge">
<title>Node13&#45;&gt;Node14</title>
<path fill="none" stroke="#191970" d="M356.5,-79.1155C356.5,-70.2061 356.5,-60.8475 356.5,-52.5341"/>
<polygon fill="#191970" stroke="#191970" points="353.0001,-79.2784 356.5,-89.2784 360.0001,-79.2785 353.0001,-79.2784"/>
</g>
<!-- Node15&#45;&gt;Node11 -->
<g id="edge6" class="edge">
<title>Node15&#45;&gt;Node11</title>
<path fill="none" stroke="#191970" d="M324.8992,-335.4564C320.2315,-315.0394 312.2466,-288.1482 299.5,-267 289.9534,-251.161 275.5803,-236.332 263.076,-225.0968"/>
<polygon fill="#191970" stroke="#191970" points="321.5289,-336.433 327.0453,-345.4784 328.3737,-334.9672 321.5289,-336.433"/>
</g>
<!-- Node15&#45;&gt;Node13 -->
<g id="edge11" class="edge">
<title>Node15&#45;&gt;Node13</title>
<path fill="none" stroke="#191970" d="M333.7274,-334.9051C338.8979,-285.089 348.9463,-188.2774 353.7773,-141.7322"/>
<polygon fill="#191970" stroke="#191970" points="330.2232,-334.7654 332.672,-345.0734 337.1858,-335.4882 330.2232,-334.7654"/>
</g>
<!-- Node16 -->
<g id="node7" class="node">
<title>Node16</title>
<g id="a_node7"><a xlink:href="HelperStructs_8hpp.html" target="_top" xlink:title=" ">
<polygon fill="#ffffff" stroke="#000000" points="92.5,-267.5 92.5,-308.5 290.5,-308.5 290.5,-267.5 92.5,-267.5"/>
<text text-anchor="start" x="100.5" y="-296.5" font-family="Helvetica,sans-Serif" font-size="10.00" fill="#000000">/home/pieter/GitHub</text>
<text text-anchor="start" x="100.5" y="-285.5" font-family="Helvetica,sans-Serif" font-size="10.00" fill="#000000">/EAGLE&#45;ZYBO&#45;Linux/src</text>
<text text-anchor="middle" x="191.5" y="-274.5" font-family="Helvetica,sans-Serif" font-size="10.00" fill="#000000">/grid&#45;finder/include/HelperStructs.hpp</text>
</a>
</g>
</g>
<!-- Node15&#45;&gt;Node16 -->
<g id="edge7" class="edge">
<title>Node15&#45;&gt;Node16</title>
<path fill="none" stroke="#191970" d="M284.8077,-340.3597C266.3967,-330.0283 245.4502,-318.2742 228.0746,-308.5239"/>
<polygon fill="#191970" stroke="#191970" points="283.1819,-343.4608 293.6155,-345.3022 286.6075,-337.3562 283.1819,-343.4608"/>
</g>
<!-- Node16&#45;&gt;Node11 -->
<g id="edge8" class="edge">
<title>Node16&#45;&gt;Node11</title>
<path fill="none" stroke="#191970" d="M207.7596,-258.4854C213.821,-247.4826 220.5675,-235.2362 226.1006,-225.1924"/>
<polygon fill="#191970" stroke="#191970" points="204.6305,-256.9119 202.8708,-267.3595 210.7617,-260.2895 204.6305,-256.9119"/>
</g>
<!-- Node17 -->
<g id="node8" class="node">
<title>Node17</title>
<g id="a_node8"><a xlink:href="LocationFinder_8hpp.html" target="_top" xlink:title=" ">
<polygon fill="#ffffff" stroke="#000000" points="0,-178.5 0,-230.5 129,-230.5 129,-178.5 0,-178.5"/>
<text text-anchor="start" x="8" y="-218.5" font-family="Helvetica,sans-Serif" font-size="10.00" fill="#000000">/home/pieter/GitHub</text>
<text text-anchor="start" x="8" y="-207.5" font-family="Helvetica,sans-Serif" font-size="10.00" fill="#000000">/EAGLE&#45;ZYBO&#45;Linux/src</text>
<text text-anchor="start" x="8" y="-196.5" font-family="Helvetica,sans-Serif" font-size="10.00" fill="#000000">/location&#45;finder/include</text>
<text text-anchor="middle" x="64.5" y="-185.5" font-family="Helvetica,sans-Serif" font-size="10.00" fill="#000000">/LocationFinder.hpp</text>
</a>
</g>
</g>
<!-- Node16&#45;&gt;Node17 -->
<g id="edge9" class="edge">
<title>Node16&#45;&gt;Node17</title>
<path fill="none" stroke="#191970" d="M151.4907,-261.6946C136.3993,-251.7724 119.2473,-240.4953 104.1856,-230.5925"/>
<polygon fill="#191970" stroke="#191970" points="149.8281,-264.7903 160.1067,-267.3595 153.6738,-258.9412 149.8281,-264.7903"/>
</g>
<!-- Node17&#45;&gt;Node12 -->
<g id="edge10" class="edge">
<title>Node17&#45;&gt;Node12</title>
<path fill="none" stroke="#191970" d="M89.9799,-170.1407C97.0281,-160.6363 104.5597,-150.4801 111.1938,-141.5341"/>
<polygon fill="#191970" stroke="#191970" points="87.0905,-168.1612 83.9452,-178.2784 92.7132,-172.3309 87.0905,-168.1612"/>
</g>
<!-- Node19 -->
<g id="node10" class="node">
<title>Node19</title>
<g id="a_node10"><a xlink:href="LeastSquares_8hpp.html" target="_top" xlink:title=" ">
<polygon fill="#ffffff" stroke="#000000" points="576,-267.5 576,-308.5 755,-308.5 755,-267.5 576,-267.5"/>
<text text-anchor="start" x="584" y="-296.5" font-family="Helvetica,sans-Serif" font-size="10.00" fill="#000000">/home/pieter/GitHub</text>
<text text-anchor="start" x="584" y="-285.5" font-family="Helvetica,sans-Serif" font-size="10.00" fill="#000000">/EAGLE&#45;ZYBO&#45;Linux/src</text>
<text text-anchor="middle" x="665.5" y="-274.5" font-family="Helvetica,sans-Serif" font-size="10.00" fill="#000000">/matrix/include/LeastSquares.hpp</text>
</a>
</g>
</g>
<!-- Node18&#45;&gt;Node19 -->
<g id="edge13" class="edge">
<title>Node18&#45;&gt;Node19</title>
<path fill="none" stroke="#191970" d="M611.4072,-338.229C621.8897,-328.4953 633.4708,-317.7414 643.2187,-308.6898"/>
<polygon fill="#191970" stroke="#191970" points="608.9568,-335.7281 604.0105,-345.0974 613.72,-340.8577 608.9568,-335.7281"/>
</g>
<!-- Node22&#45;&gt;Node13 -->
<g id="edge17" class="edge">
<title>Node22&#45;&gt;Node13</title>
<path fill="none" stroke="#191970" d="M451.8289,-258.4934C429.9527,-225.679 394.9434,-173.1651 373.99,-141.7349"/>
<polygon fill="#191970" stroke="#191970" points="449.1691,-260.8134 457.6283,-267.1925 454.9935,-256.9305 449.1691,-260.8134"/>
</g>
</g>
</svg>
