<?xml version="1.0" encoding="UTF-8" standalone="no"?>
<!DOCTYPE svg PUBLIC "-//W3C//DTD SVG 1.1//EN"
 "http://www.w3.org/Graphics/SVG/1.1/DTD/svg11.dtd">
<!-- Generated by graphviz version 2.40.1 (20161225.0304)
 -->
<!-- Title: rootMeanSquareError Pages: 1 -->
<svg width="373pt" height="28pt"
 viewBox="0.00 0.00 373.00 28.00" xmlns="http://www.w3.org/2000/svg" xmlns:xlink="http://www.w3.org/1999/xlink">
<g id="graph0" class="graph" transform="scale(1 1) rotate(0) translate(4 24)">
<title>rootMeanSquareError</title>
<polygon fill="#ffffff" stroke="transparent" points="-4,4 -4,-24 369,-24 369,4 -4,4"/>
<!-- Node6 -->
<g id="node1" class="node">
<title>Node6</title>
<g id="a_node1"><a xlink:title=" ">
<polygon fill="#bfbfbf" stroke="#000000" points="0,-.5 0,-19.5 119,-19.5 119,-.5 0,-.5"/>
<text text-anchor="middle" x="59.5" y="-7.5" font-family="Helvetica,sans-Serif" font-size="10.00" fill="#000000">rootMeanSquareError</text>
</a>
</g>
</g>
<!-- Node7 -->
<g id="node2" class="node">
<title>Node7</title>
<g id="a_node2"><a xlink:href="MeanSquareError_8hpp.html#a8e251cbd6c24d1b635c2380bc53f39f6" target="_top" xlink:title=" ">
<polygon fill="#ffffff" stroke="#000000" points="155,-.5 155,-19.5 256,-19.5 256,-.5 155,-.5"/>
<text text-anchor="middle" x="205.5" y="-7.5" font-family="Helvetica,sans-Serif" font-size="10.00" fill="#000000">meanSquareError</text>
</a>
</g>
</g>
<!-- Node6&#45;&gt;Node7 -->
<g id="edge1" class="edge">
<title>Node6&#45;&gt;Node7</title>
<path fill="none" stroke="#191970" d="M119.305,-10C127.703,-10 136.3419,-10 144.7571,-10"/>
<polygon fill="#191970" stroke="#191970" points="144.8796,-13.5001 154.8796,-10 144.8796,-6.5001 144.8796,-13.5001"/>
</g>
<!-- Node8 -->
<g id="node3" class="node">
<title>Node8</title>
<g id="a_node3"><a xlink:href="MeanSquareError_8hpp.html#a6d0454c404d0ec6ee8b5201e63812dc6" target="_top" xlink:title=" ">
<polygon fill="#ffffff" stroke="#000000" points="292,-.5 292,-19.5 365,-19.5 365,-.5 292,-.5"/>
<text text-anchor="middle" x="328.5" y="-7.5" font-family="Helvetica,sans-Serif" font-size="10.00" fill="#000000">squareError</text>
</a>
</g>
</g>
<!-- Node7&#45;&gt;Node8 -->
<g id="edge2" class="edge">
<title>Node7&#45;&gt;Node8</title>
<path fill="none" stroke="#191970" d="M256.2389,-10C264.6142,-10 273.2644,-10 281.5417,-10"/>
<polygon fill="#191970" stroke="#191970" points="281.7782,-13.5001 291.7782,-10 281.7781,-6.5001 281.7782,-13.5001"/>
</g>
</g>
</svg>
