<?xml version="1.0" encoding="UTF-8" standalone="no"?>
<!DOCTYPE svg PUBLIC "-//W3C//DTD SVG 1.1//EN"
 "http://www.w3.org/Graphics/SVG/1.1/DTD/svg11.dtd">
<!-- Generated by graphviz version 2.40.1 (20161225.0304)
 -->
<!-- Title: squareError Pages: 1 -->
<svg width="373pt" height="28pt"
 viewBox="0.00 0.00 373.00 28.00" xmlns="http://www.w3.org/2000/svg" xmlns:xlink="http://www.w3.org/1999/xlink">
<g id="graph0" class="graph" transform="scale(1 1) rotate(0) translate(4 24)">
<title>squareError</title>
<polygon fill="#ffffff" stroke="transparent" points="-4,4 -4,-24 369,-24 369,4 -4,4"/>
<!-- Node11 -->
<g id="node1" class="node">
<title>Node11</title>
<g id="a_node1"><a xlink:title=" ">
<polygon fill="#bfbfbf" stroke="#000000" points="292,-.5 292,-19.5 365,-19.5 365,-.5 292,-.5"/>
<text text-anchor="middle" x="328.5" y="-7.5" font-family="Helvetica,sans-Serif" font-size="10.00" fill="#000000">squareError</text>
</a>
</g>
</g>
<!-- Node12 -->
<g id="node2" class="node">
<title>Node12</title>
<g id="a_node2"><a xlink:href="MeanSquareError_8hpp.html#a8e251cbd6c24d1b635c2380bc53f39f6" target="_top" xlink:title=" ">
<polygon fill="#ffffff" stroke="#000000" points="155,-.5 155,-19.5 256,-19.5 256,-.5 155,-.5"/>
<text text-anchor="middle" x="205.5" y="-7.5" font-family="Helvetica,sans-Serif" font-size="10.00" fill="#000000">meanSquareError</text>
</a>
</g>
</g>
<!-- Node11&#45;&gt;Node12 -->
<g id="edge1" class="edge">
<title>Node11&#45;&gt;Node12</title>
<path fill="none" stroke="#191970" d="M281.6629,-10C273.3594,-10 264.6771,-10 256.2709,-10"/>
<polygon fill="#191970" stroke="#191970" points="281.929,-13.5001 291.929,-10 281.9289,-6.5001 281.929,-13.5001"/>
</g>
<!-- Node13 -->
<g id="node3" class="node">
<title>Node13</title>
<g id="a_node3"><a xlink:href="MeanSquareError_8hpp.html#a3866a47400c489446b64abc1cb71d11c" target="_top" xlink:title=" ">
<polygon fill="#ffffff" stroke="#000000" points="0,-.5 0,-19.5 119,-19.5 119,-.5 0,-.5"/>
<text text-anchor="middle" x="59.5" y="-7.5" font-family="Helvetica,sans-Serif" font-size="10.00" fill="#000000">rootMeanSquareError</text>
</a>
</g>
</g>
<!-- Node12&#45;&gt;Node13 -->
<g id="edge2" class="edge">
<title>Node12&#45;&gt;Node13</title>
<path fill="none" stroke="#191970" d="M144.6724,-10C136.2146,-10 127.5325,-10 119.0977,-10"/>
<polygon fill="#191970" stroke="#191970" points="144.8461,-13.5001 154.846,-10 144.846,-6.5001 144.8461,-13.5001"/>
</g>
</g>
</svg>
