<?xml version="1.0" encoding="UTF-8" standalone="no"?>
<!DOCTYPE svg PUBLIC "-//W3C//DTD SVG 1.1//EN"
 "http://www.w3.org/Graphics/SVG/1.1/DTD/svg11.dtd">
<!-- Generated by graphviz version 2.40.1 (20161225.0304)
 -->
<!-- Title: /home/pieter/GitHub/EAGLE&#45;ZYBO&#45;Linux/src/logger/src/MulticastSender.cpp Pages: 1 -->
<svg width="673pt" height="162pt"
 viewBox="0.00 0.00 673.00 162.00" xmlns="http://www.w3.org/2000/svg" xmlns:xlink="http://www.w3.org/1999/xlink">
<g id="graph0" class="graph" transform="scale(1 1) rotate(0) translate(4 158)">
<title>/home/pieter/GitHub/EAGLE&#45;ZYBO&#45;Linux/src/logger/src/MulticastSender.cpp</title>
<polygon fill="#ffffff" stroke="transparent" points="-4,4 -4,-158 669,-158 669,4 -4,4"/>
<!-- Node0 -->
<g id="node1" class="node">
<title>Node0</title>
<g id="a_node1"><a xlink:title=" ">
<polygon fill="#bfbfbf" stroke="#000000" points="267,-112.5 267,-153.5 435,-153.5 435,-112.5 267,-112.5"/>
<text text-anchor="start" x="275" y="-141.5" font-family="Helvetica,sans-Serif" font-size="10.00" fill="#000000">/home/pieter/GitHub</text>
<text text-anchor="start" x="275" y="-130.5" font-family="Helvetica,sans-Serif" font-size="10.00" fill="#000000">/EAGLE&#45;ZYBO&#45;Linux/src</text>
<text text-anchor="middle" x="351" y="-119.5" font-family="Helvetica,sans-Serif" font-size="10.00" fill="#000000">/logger/src/MulticastSender.cpp</text>
</a>
</g>
</g>
<!-- Node1 -->
<g id="node2" class="node">
<title>Node1</title>
<g id="a_node2"><a xlink:href="MulticastSender_8hpp.html" target="_top" xlink:title=" ">
<polygon fill="#ffffff" stroke="#000000" points="32.5,-56.5 32.5,-75.5 147.5,-75.5 147.5,-56.5 32.5,-56.5"/>
<text text-anchor="middle" x="90" y="-63.5" font-family="Helvetica,sans-Serif" font-size="10.00" fill="#000000">MulticastSender.hpp</text>
</a>
</g>
</g>
<!-- Node0&#45;&gt;Node1 -->
<g id="edge1" class="edge">
<title>Node0&#45;&gt;Node1</title>
<path fill="none" stroke="#191970" d="M270.9177,-112.4425C227.0872,-101.191 174.2901,-87.6377 137.0765,-78.0848"/>
<polygon fill="#191970" stroke="#191970" points="137.5702,-74.5981 127.014,-75.5017 135.8297,-81.3783 137.5702,-74.5981"/>
</g>
<!-- Node3 -->
<g id="node4" class="node">
<title>Node3</title>
<g id="a_node4"><a xlink:title=" ">
<polygon fill="#ffffff" stroke="#bfbfbf" points="138,-.5 138,-19.5 210,-19.5 210,-.5 138,-.5"/>
<text text-anchor="middle" x="174" y="-7.5" font-family="Helvetica,sans-Serif" font-size="10.00" fill="#000000">netinet/in.h</text>
</a>
</g>
</g>
<!-- Node0&#45;&gt;Node3 -->
<g id="edge8" class="edge">
<title>Node0&#45;&gt;Node3</title>
<path fill="none" stroke="#191970" d="M266.6941,-116.9237C241.1969,-108.4435 214.9629,-95.553 196,-76 183.9388,-63.5634 178.4868,-44.3434 176.0241,-29.8457"/>
<polygon fill="#191970" stroke="#191970" points="179.483,-29.3057 174.6637,-19.8704 172.5472,-30.2517 179.483,-29.3057"/>
</g>
<!-- Node5 -->
<g id="node6" class="node">
<title>Node5</title>
<g id="a_node6"><a xlink:title=" ">
<polygon fill="#ffffff" stroke="#bfbfbf" points="204.5,-56.5 204.5,-75.5 273.5,-75.5 273.5,-56.5 204.5,-56.5"/>
<text text-anchor="middle" x="239" y="-63.5" font-family="Helvetica,sans-Serif" font-size="10.00" fill="#000000">arpa/inet.h</text>
</a>
</g>
</g>
<!-- Node0&#45;&gt;Node5 -->
<g id="edge5" class="edge">
<title>Node0&#45;&gt;Node5</title>
<path fill="none" stroke="#191970" d="M316.4824,-112.3511C299.5563,-102.2256 279.5439,-90.254 264.0979,-81.0139"/>
<polygon fill="#191970" stroke="#191970" points="265.5176,-77.7848 255.1391,-75.6546 261.924,-83.792 265.5176,-77.7848"/>
</g>
<!-- Node6 -->
<g id="node7" class="node">
<title>Node6</title>
<g id="a_node7"><a xlink:title=" ">
<polygon fill="#ffffff" stroke="#bfbfbf" points="291.5,-56.5 291.5,-75.5 338.5,-75.5 338.5,-56.5 291.5,-56.5"/>
<text text-anchor="middle" x="315" y="-63.5" font-family="Helvetica,sans-Serif" font-size="10.00" fill="#000000">cerrno</text>
</a>
</g>
</g>
<!-- Node0&#45;&gt;Node6 -->
<g id="edge6" class="edge">
<title>Node0&#45;&gt;Node6</title>
<path fill="none" stroke="#191970" d="M339.8067,-112.168C335.0678,-103.3484 329.5907,-93.155 324.9904,-84.5933"/>
<polygon fill="#191970" stroke="#191970" points="328.0715,-82.9328 320.2552,-75.7805 321.9053,-86.246 328.0715,-82.9328"/>
</g>
<!-- Node7 -->
<g id="node8" class="node">
<title>Node7</title>
<g id="a_node8"><a xlink:title=" ">
<polygon fill="#ffffff" stroke="#bfbfbf" points="357,-56.5 357,-75.5 417,-75.5 417,-56.5 357,-56.5"/>
<text text-anchor="middle" x="387" y="-63.5" font-family="Helvetica,sans-Serif" font-size="10.00" fill="#000000">iostream</text>
</a>
</g>
</g>
<!-- Node0&#45;&gt;Node7 -->
<g id="edge7" class="edge">
<title>Node0&#45;&gt;Node7</title>
<path fill="none" stroke="#191970" d="M362.1933,-112.168C366.9322,-103.3484 372.4093,-93.155 377.0096,-84.5933"/>
<polygon fill="#191970" stroke="#191970" points="380.0947,-86.246 381.7448,-75.7805 373.9285,-82.9328 380.0947,-86.246"/>
</g>
<!-- Node8 -->
<g id="node9" class="node">
<title>Node8</title>
<g id="a_node9"><a xlink:title=" ">
<polygon fill="#ffffff" stroke="#bfbfbf" points="435.5,-56.5 435.5,-75.5 500.5,-75.5 500.5,-56.5 435.5,-56.5"/>
<text text-anchor="middle" x="468" y="-63.5" font-family="Helvetica,sans-Serif" font-size="10.00" fill="#000000">stdexcept</text>
</a>
</g>
</g>
<!-- Node0&#45;&gt;Node8 -->
<g id="edge9" class="edge">
<title>Node0&#45;&gt;Node8</title>
<path fill="none" stroke="#191970" d="M387.0585,-112.3511C404.9071,-102.1301 426.0408,-90.0279 442.237,-80.7532"/>
<polygon fill="#191970" stroke="#191970" points="444.2018,-83.6613 451.1404,-75.6546 440.7232,-77.5868 444.2018,-83.6613"/>
</g>
<!-- Node9 -->
<g id="node10" class="node">
<title>Node9</title>
<g id="a_node10"><a xlink:title=" ">
<polygon fill="#ffffff" stroke="#bfbfbf" points="519,-56.5 519,-75.5 591,-75.5 591,-56.5 519,-56.5"/>
<text text-anchor="middle" x="555" y="-63.5" font-family="Helvetica,sans-Serif" font-size="10.00" fill="#000000">sys/types.h</text>
</a>
</g>
</g>
<!-- Node0&#45;&gt;Node9 -->
<g id="edge10" class="edge">
<title>Node0&#45;&gt;Node9</title>
<path fill="none" stroke="#191970" d="M413.5931,-112.4425C447.1194,-101.4314 487.3577,-88.2158 516.3235,-78.7026"/>
<polygon fill="#191970" stroke="#191970" points="517.6609,-81.9473 526.0695,-75.5017 515.4766,-75.2968 517.6609,-81.9473"/>
</g>
<!-- Node10 -->
<g id="node11" class="node">
<title>Node10</title>
<g id="a_node11"><a xlink:title=" ">
<polygon fill="#ffffff" stroke="#bfbfbf" points="609,-56.5 609,-75.5 665,-75.5 665,-56.5 609,-56.5"/>
<text text-anchor="middle" x="637" y="-63.5" font-family="Helvetica,sans-Serif" font-size="10.00" fill="#000000">unistd.h</text>
</a>
</g>
</g>
<!-- Node0&#45;&gt;Node10 -->
<g id="edge11" class="edge">
<title>Node0&#45;&gt;Node10</title>
<path fill="none" stroke="#191970" d="M435.0464,-114.6154C480.8529,-104.3932 538.7613,-91.1451 598.7172,-76.2584"/>
<polygon fill="#191970" stroke="#191970" points="599.8917,-79.5728 608.7477,-73.7572 598.198,-72.7808 599.8917,-79.5728"/>
</g>
<!-- Node2 -->
<g id="node3" class="node">
<title>Node2</title>
<g id="a_node3"><a xlink:title=" ">
<polygon fill="#ffffff" stroke="#bfbfbf" points="0,-.5 0,-19.5 50,-19.5 50,-.5 0,-.5"/>
<text text-anchor="middle" x="25" y="-7.5" font-family="Helvetica,sans-Serif" font-size="10.00" fill="#000000">cstdint</text>
</a>
</g>
</g>
<!-- Node1&#45;&gt;Node2 -->
<g id="edge2" class="edge">
<title>Node1&#45;&gt;Node2</title>
<path fill="none" stroke="#191970" d="M78.6779,-56.2455C69.0777,-47.9746 55.1108,-35.9416 43.8305,-26.2232"/>
<polygon fill="#191970" stroke="#191970" points="46.053,-23.5182 36.1924,-19.6427 41.484,-28.8214 46.053,-23.5182"/>
</g>
<!-- Node1&#45;&gt;Node3 -->
<g id="edge3" class="edge">
<title>Node1&#45;&gt;Node3</title>
<path fill="none" stroke="#191970" d="M104.6317,-56.2455C117.3994,-47.7337 136.1438,-35.2375 150.9299,-25.3801"/>
<polygon fill="#191970" stroke="#191970" points="153.1569,-28.1019 159.536,-19.6427 149.274,-22.2775 153.1569,-28.1019"/>
</g>
<!-- Node4 -->
<g id="node5" class="node">
<title>Node4</title>
<g id="a_node5"><a xlink:title=" ">
<polygon fill="#ffffff" stroke="#bfbfbf" points="68.5,-.5 68.5,-19.5 115.5,-19.5 115.5,-.5 68.5,-.5"/>
<text text-anchor="middle" x="92" y="-7.5" font-family="Helvetica,sans-Serif" font-size="10.00" fill="#000000">vector</text>
</a>
</g>
</g>
<!-- Node1&#45;&gt;Node4 -->
<g id="edge4" class="edge">
<title>Node1&#45;&gt;Node4</title>
<path fill="none" stroke="#191970" d="M90.3484,-56.2455C90.6093,-48.9382 90.9752,-38.6944 91.2963,-29.7046"/>
<polygon fill="#191970" stroke="#191970" points="94.7964,-29.7613 91.6556,-19.6427 87.8008,-29.5113 94.7964,-29.7613"/>
</g>
</g>
</svg>
