<?xml version="1.0" encoding="UTF-8" standalone="no"?>
<!DOCTYPE svg PUBLIC "-//W3C//DTD SVG 1.1//EN"
 "http://www.w3.org/Graphics/SVG/1.1/DTD/svg11.dtd">
<!-- Generated by graphviz version 2.40.1 (20161225.0304)
 -->
<!-- Title: HWImplementation::hash Pages: 1 -->
<svg width="562pt" height="306pt"
 viewBox="0.00 0.00 562.00 305.50" xmlns="http://www.w3.org/2000/svg" xmlns:xlink="http://www.w3.org/1999/xlink">
<g id="graph0" class="graph" transform="scale(1 1) rotate(0) translate(4 301.5)">
<title>HWImplementation::hash</title>
<polygon fill="#ffffff" stroke="transparent" points="-4,4 -4,-301.5 558,-301.5 558,4 -4,4"/>
<!-- Node14 -->
<g id="node1" class="node">
<title>Node14</title>
<g id="a_node1"><a xlink:title=" ">
<polygon fill="#bfbfbf" stroke="#000000" points="0,-133.5 0,-152.5 141,-152.5 141,-133.5 0,-133.5"/>
<text text-anchor="middle" x="70.5" y="-140.5" font-family="Helvetica,sans-Serif" font-size="10.00" fill="#000000">HWImplementation::hash</text>
</a>
</g>
</g>
<!-- Node15 -->
<g id="node2" class="node">
<title>Node15</title>
<g id="a_node2"><a xlink:href="keccak_8cpp.html#ad2ec31efd2cbbecc017d9c4e61b379f7" target="_top" xlink:title=" ">
<polygon fill="#ffffff" stroke="#000000" points="177,-133.5 177,-152.5 228,-152.5 228,-133.5 177,-133.5"/>
<text text-anchor="middle" x="202.5" y="-140.5" font-family="Helvetica,sans-Serif" font-size="10.00" fill="#000000">keccak</text>
</a>
</g>
</g>
<!-- Node14&#45;&gt;Node15 -->
<g id="edge1" class="edge">
<title>Node14&#45;&gt;Node15</title>
<path fill="none" stroke="#191970" d="M141.1372,-143C150.0023,-143 158.7552,-143 166.752,-143"/>
<polygon fill="#191970" stroke="#191970" points="166.775,-146.5001 176.775,-143 166.7749,-139.5001 166.775,-146.5001"/>
</g>
<!-- Node16 -->
<g id="node3" class="node">
<title>Node16</title>
<g id="a_node3"><a xlink:href="classBitString.html#afec85245f536cb86f2aca2f0300185dd" target="_top" xlink:title=" ">
<polygon fill="#ffffff" stroke="#000000" points="266,-267 266,-297 409,-297 409,-267 266,-267"/>
<text text-anchor="start" x="274" y="-285" font-family="Helvetica,sans-Serif" font-size="10.00" fill="#000000">BitString::concatenateAnd</text>
<text text-anchor="middle" x="337.5" y="-274" font-family="Helvetica,sans-Serif" font-size="10.00" fill="#000000">AddMultiRatePadding</text>
</a>
</g>
</g>
<!-- Node15&#45;&gt;Node16 -->
<g id="edge2" class="edge">
<title>Node15&#45;&gt;Node16</title>
<path fill="none" stroke="#191970" d="M205.1111,-152.8095C211.4385,-174.7141 229.6575,-227.9581 264,-257 265.9812,-258.6754 268.08,-260.2401 270.2675,-261.7015"/>
<polygon fill="#191970" stroke="#191970" points="268.6819,-264.8284 279.084,-266.8403 272.2069,-258.7807 268.6819,-264.8284"/>
</g>
<!-- Node17 -->
<g id="node4" class="node">
<title>Node17</title>
<g id="a_node4"><a xlink:href="classBitString.html#a39bc6a3bef8f84d2dec75174b35abf89" target="_top" xlink:title=" ">
<polygon fill="#ffffff" stroke="#000000" points="281,-228.5 281,-247.5 394,-247.5 394,-228.5 281,-228.5"/>
<text text-anchor="middle" x="337.5" y="-235.5" font-family="Helvetica,sans-Serif" font-size="10.00" fill="#000000">BitString::getLength</text>
</a>
</g>
</g>
<!-- Node15&#45;&gt;Node17 -->
<g id="edge3" class="edge">
<title>Node15&#45;&gt;Node17</title>
<path fill="none" stroke="#191970" d="M207.5322,-152.5836C216.5764,-168.8403 237.1647,-201.7344 264,-219 267.1797,-221.0458 270.5697,-222.8717 274.0831,-224.5012"/>
<polygon fill="#191970" stroke="#191970" points="273.0291,-227.8508 283.6111,-228.3725 275.6641,-221.3657 273.0291,-227.8508"/>
</g>
<!-- Node18 -->
<g id="node5" class="node">
<title>Node18</title>
<g id="a_node5"><a xlink:href="classBitString.html#a9f592521af8d36d2d45f46661d86db2b" target="_top" xlink:title=" ">
<polygon fill="#ffffff" stroke="#000000" points="278.5,-190.5 278.5,-209.5 396.5,-209.5 396.5,-190.5 278.5,-190.5"/>
<text text-anchor="middle" x="337.5" y="-197.5" font-family="Helvetica,sans-Serif" font-size="10.00" fill="#000000">BitString::splitBlocks</text>
</a>
</g>
</g>
<!-- Node15&#45;&gt;Node18 -->
<g id="edge4" class="edge">
<title>Node15&#45;&gt;Node18</title>
<path fill="none" stroke="#191970" d="M215.5427,-152.6786C227.5775,-161.2051 246.2218,-173.416 264,-181 269.7281,-183.4435 275.8455,-185.6323 282.0135,-187.5772"/>
<polygon fill="#191970" stroke="#191970" points="281.1173,-190.9618 291.699,-190.4341 283.0978,-184.2478 281.1173,-190.9618"/>
</g>
<!-- Node20 -->
<g id="node7" class="node">
<title>Node20</title>
<g id="a_node7"><a xlink:href="classCryptoPoller.html#adec9d1073d8950d0a6a38c975b05cbab" target="_top" xlink:title=" ">
<polygon fill="#ffffff" stroke="#000000" points="284,-152.5 284,-171.5 391,-171.5 391,-152.5 284,-152.5"/>
<text text-anchor="middle" x="337.5" y="-159.5" font-family="Helvetica,sans-Serif" font-size="10.00" fill="#000000">CryptoPoller::reset</text>
</a>
</g>
</g>
<!-- Node15&#45;&gt;Node20 -->
<g id="edge6" class="edge">
<title>Node15&#45;&gt;Node20</title>
<path fill="none" stroke="#191970" d="M228.2102,-146.6185C241.261,-148.4553 257.7479,-150.7756 273.9323,-153.0534"/>
<polygon fill="#191970" stroke="#191970" points="273.5467,-156.5336 283.9369,-154.4615 274.5223,-149.6019 273.5467,-156.5336"/>
</g>
<!-- Node21 -->
<g id="node8" class="node">
<title>Node21</title>
<g id="a_node8"><a xlink:href="classCryptoPoller.html#a40777ae9360ffe0dbdd4cb4385646ca0" target="_top" xlink:title=" ">
<polygon fill="#ffffff" stroke="#000000" points="267.5,-114.5 267.5,-133.5 407.5,-133.5 407.5,-114.5 267.5,-114.5"/>
<text text-anchor="middle" x="337.5" y="-121.5" font-family="Helvetica,sans-Serif" font-size="10.00" fill="#000000">CryptoPoller::hashAbsorb</text>
</a>
</g>
</g>
<!-- Node15&#45;&gt;Node21 -->
<g id="edge7" class="edge">
<title>Node15&#45;&gt;Node21</title>
<path fill="none" stroke="#191970" d="M228.2102,-139.3815C237.4407,-138.0824 248.39,-136.5414 259.7355,-134.9446"/>
<polygon fill="#191970" stroke="#191970" points="260.3598,-138.3913 269.7744,-133.5317 259.3842,-131.4597 260.3598,-138.3913"/>
</g>
<!-- Node22 -->
<g id="node9" class="node">
<title>Node22</title>
<g id="a_node9"><a xlink:href="classBitString.html#a9ce7e8bef847437b601aa3c3385f343a" target="_top" xlink:title=" ">
<polygon fill="#ffffff" stroke="#000000" points="287,-76.5 287,-95.5 388,-95.5 388,-76.5 287,-76.5"/>
<text text-anchor="middle" x="337.5" y="-83.5" font-family="Helvetica,sans-Serif" font-size="10.00" fill="#000000">BitString::reserve</text>
</a>
</g>
</g>
<!-- Node15&#45;&gt;Node22 -->
<g id="edge8" class="edge">
<title>Node15&#45;&gt;Node22</title>
<path fill="none" stroke="#191970" d="M215.5427,-133.3214C227.5775,-124.7949 246.2218,-112.584 264,-105 269.7281,-102.5565 275.8455,-100.3677 282.0135,-98.4228"/>
<polygon fill="#191970" stroke="#191970" points="283.0978,-101.7522 291.699,-95.5659 281.1173,-95.0382 283.0978,-101.7522"/>
</g>
<!-- Node23 -->
<g id="node10" class="node">
<title>Node23</title>
<g id="a_node10"><a xlink:href="classBitString.html#a39a133d9a366545e41d6a470255a1b64" target="_top" xlink:title=" ">
<polygon fill="#ffffff" stroke="#000000" points="275,-38.5 275,-57.5 400,-57.5 400,-38.5 275,-38.5"/>
<text text-anchor="middle" x="337.5" y="-45.5" font-family="Helvetica,sans-Serif" font-size="10.00" fill="#000000">BitString::concatenate</text>
</a>
</g>
</g>
<!-- Node15&#45;&gt;Node23 -->
<g id="edge9" class="edge">
<title>Node15&#45;&gt;Node23</title>
<path fill="none" stroke="#191970" d="M207.5322,-133.4164C216.5764,-117.1597 237.1647,-84.2656 264,-67 267.1797,-64.9542 270.5697,-63.1283 274.0831,-61.4988"/>
<polygon fill="#191970" stroke="#191970" points="275.6641,-64.6343 283.6111,-57.6275 273.0291,-58.1492 275.6641,-64.6343"/>
</g>
<!-- Node24 -->
<g id="node11" class="node">
<title>Node24</title>
<g id="a_node11"><a xlink:href="classCryptoPoller.html#aacefd128dab1c88d4c2bdf141bfa5dff" target="_top" xlink:title=" ">
<polygon fill="#ffffff" stroke="#000000" points="264,-.5 264,-19.5 411,-19.5 411,-.5 264,-.5"/>
<text text-anchor="middle" x="337.5" y="-7.5" font-family="Helvetica,sans-Serif" font-size="10.00" fill="#000000">CryptoPoller::hashSqueeze</text>
</a>
</g>
</g>
<!-- Node15&#45;&gt;Node24 -->
<g id="edge10" class="edge">
<title>Node15&#45;&gt;Node24</title>
<path fill="none" stroke="#191970" d="M204.8691,-133.3349C210.7976,-111.2549 228.4172,-56.8745 264,-29 266.3345,-27.1713 268.8263,-25.5172 271.4299,-24.0212"/>
<polygon fill="#191970" stroke="#191970" points="273.1965,-27.0537 280.6461,-19.5201 270.1245,-20.7637 273.1965,-27.0537"/>
</g>
<!-- Node19 -->
<g id="node6" class="node">
<title>Node19</title>
<g id="a_node6"><a xlink:href="classBitString.html#a129b293aa7369637810c1d54471e1258" target="_top" xlink:title=" ">
<polygon fill="#ffffff" stroke="#000000" points="447,-190.5 447,-209.5 554,-209.5 554,-190.5 447,-190.5"/>
<text text-anchor="middle" x="500.5" y="-197.5" font-family="Helvetica,sans-Serif" font-size="10.00" fill="#000000">BitString::BitString</text>
</a>
</g>
</g>
<!-- Node18&#45;&gt;Node19 -->
<g id="edge5" class="edge">
<title>Node18&#45;&gt;Node19</title>
<path fill="none" stroke="#191970" d="M396.8078,-200C409.7365,-200 423.4717,-200 436.571,-200"/>
<polygon fill="#191970" stroke="#191970" points="436.9126,-203.5001 446.9125,-200 436.9125,-196.5001 436.9126,-203.5001"/>
</g>
</g>
</svg>
