<?xml version="1.0" encoding="UTF-8" standalone="no"?>
<!DOCTYPE svg PUBLIC "-//W3C//DTD SVG 1.1//EN"
 "http://www.w3.org/Graphics/SVG/1.1/DTD/svg11.dtd">
<!-- Generated by graphviz version 2.40.1 (20161225.0304)
 -->
<!-- Title: HWImplementation::decrypt Pages: 1 -->
<svg width="613pt" height="332pt"
 viewBox="0.00 0.00 613.00 332.00" xmlns="http://www.w3.org/2000/svg" xmlns:xlink="http://www.w3.org/1999/xlink">
<g id="graph0" class="graph" transform="scale(1 1) rotate(0) translate(4 328)">
<title>HWImplementation::decrypt</title>
<polygon fill="#ffffff" stroke="transparent" points="-4,4 -4,-328 609,-328 609,4 -4,4"/>
<!-- Node0 -->
<g id="node1" class="node">
<title>Node0</title>
<g id="a_node1"><a xlink:title=" ">
<polygon fill="#bfbfbf" stroke="#000000" points="0,-171.5 0,-190.5 155,-190.5 155,-171.5 0,-171.5"/>
<text text-anchor="middle" x="77.5" y="-178.5" font-family="Helvetica,sans-Serif" font-size="10.00" fill="#000000">HWImplementation::decrypt</text>
</a>
</g>
</g>
<!-- Node1 -->
<g id="node2" class="node">
<title>Node1</title>
<g id="a_node2"><a xlink:href="classKetje.html#a2aaeeaf71dcf9d83d7c8694154a02117" target="_top" xlink:title=" ">
<polygon fill="#ffffff" stroke="#000000" points="191,-228.5 191,-247.5 280,-247.5 280,-228.5 191,-228.5"/>
<text text-anchor="middle" x="235.5" y="-235.5" font-family="Helvetica,sans-Serif" font-size="10.00" fill="#000000">Ketje::initialize</text>
</a>
</g>
</g>
<!-- Node0&#45;&gt;Node1 -->
<g id="edge1" class="edge">
<title>Node0&#45;&gt;Node1</title>
<path fill="none" stroke="#191970" d="M103.9456,-190.5405C130.0355,-199.9527 170.1208,-214.4138 199.1874,-224.8999"/>
<polygon fill="#191970" stroke="#191970" points="198.3737,-228.3271 208.9681,-228.4284 200.7492,-221.7425 198.3737,-228.3271"/>
</g>
<!-- Node6 -->
<g id="node7" class="node">
<title>Node6</title>
<g id="a_node7"><a xlink:href="classKetje.html#ac4e54ac3a43763223844c3e315012362" target="_top" xlink:title=" ">
<polygon fill="#ffffff" stroke="#000000" points="194,-114.5 194,-133.5 277,-133.5 277,-114.5 194,-114.5"/>
<text text-anchor="middle" x="235.5" y="-121.5" font-family="Helvetica,sans-Serif" font-size="10.00" fill="#000000">Ketje::unwrap</text>
</a>
</g>
</g>
<!-- Node0&#45;&gt;Node6 -->
<g id="edge6" class="edge">
<title>Node0&#45;&gt;Node6</title>
<path fill="none" stroke="#191970" d="M103.9456,-171.4595C130.0355,-162.0473 170.1208,-147.5862 199.1874,-137.1001"/>
<polygon fill="#191970" stroke="#191970" points="200.7492,-140.2575 208.9681,-133.5716 198.3737,-133.6729 200.7492,-140.2575"/>
</g>
<!-- Node2 -->
<g id="node3" class="node">
<title>Node2</title>
<g id="a_node3"><a xlink:href="classBitString.html#a39bc6a3bef8f84d2dec75174b35abf89" target="_top" xlink:title=" ">
<polygon fill="#ffffff" stroke="#000000" points="332.5,-190.5 332.5,-209.5 445.5,-209.5 445.5,-190.5 332.5,-190.5"/>
<text text-anchor="middle" x="389" y="-197.5" font-family="Helvetica,sans-Serif" font-size="10.00" fill="#000000">BitString::getLength</text>
</a>
</g>
</g>
<!-- Node1&#45;&gt;Node2 -->
<g id="edge2" class="edge">
<title>Node1&#45;&gt;Node2</title>
<path fill="none" stroke="#191970" d="M274.2345,-228.411C294.3993,-223.4191 319.2479,-217.2676 340.6611,-211.9666"/>
<polygon fill="#191970" stroke="#191970" points="341.6781,-215.3206 350.544,-209.5201 339.9959,-208.5257 341.6781,-215.3206"/>
</g>
<!-- Node3 -->
<g id="node4" class="node">
<title>Node3</title>
<g id="a_node4"><a xlink:href="classBitString.html#a9ce7e8bef847437b601aa3c3385f343a" target="_top" xlink:title=" ">
<polygon fill="#ffffff" stroke="#000000" points="338.5,-304.5 338.5,-323.5 439.5,-323.5 439.5,-304.5 338.5,-304.5"/>
<text text-anchor="middle" x="389" y="-311.5" font-family="Helvetica,sans-Serif" font-size="10.00" fill="#000000">BitString::reserve</text>
</a>
</g>
</g>
<!-- Node1&#45;&gt;Node3 -->
<g id="edge3" class="edge">
<title>Node1&#45;&gt;Node3</title>
<path fill="none" stroke="#191970" d="M246.4165,-247.7122C261.1874,-260.3658 288.8278,-282.3611 316,-295 321.2488,-297.4414 326.8614,-299.6062 332.5557,-301.5171"/>
<polygon fill="#191970" stroke="#191970" points="331.5782,-304.8783 342.1662,-304.4973 333.6515,-298.1924 331.5782,-304.8783"/>
</g>
<!-- Node4 -->
<g id="node5" class="node">
<title>Node4</title>
<g id="a_node5"><a xlink:href="classCryptoPoller.html#a4ccd77899baffcc96e1a179b26e424f1" target="_top" xlink:title=" ">
<polygon fill="#ffffff" stroke="#000000" points="335.5,-266.5 335.5,-285.5 442.5,-285.5 442.5,-266.5 335.5,-266.5"/>
<text text-anchor="middle" x="389" y="-273.5" font-family="Helvetica,sans-Serif" font-size="10.00" fill="#000000">CryptoPoller::write</text>
</a>
</g>
</g>
<!-- Node1&#45;&gt;Node4 -->
<g id="edge4" class="edge">
<title>Node1&#45;&gt;Node4</title>
<path fill="none" stroke="#191970" d="M274.2345,-247.589C294.3993,-252.5809 319.2479,-258.7324 340.6611,-264.0334"/>
<polygon fill="#191970" stroke="#191970" points="339.9959,-267.4743 350.544,-266.4799 341.6781,-260.6794 339.9959,-267.4743"/>
</g>
<!-- Node5 -->
<g id="node6" class="node">
<title>Node5</title>
<g id="a_node6"><a xlink:href="classCryptoPoller.html#a275b05afda129bc41f85016d44330a4f" target="_top" xlink:title=" ">
<polygon fill="#ffffff" stroke="#000000" points="336.5,-228.5 336.5,-247.5 441.5,-247.5 441.5,-228.5 336.5,-228.5"/>
<text text-anchor="middle" x="389" y="-235.5" font-family="Helvetica,sans-Serif" font-size="10.00" fill="#000000">CryptoPoller::start</text>
</a>
</g>
</g>
<!-- Node1&#45;&gt;Node5 -->
<g id="edge5" class="edge">
<title>Node1&#45;&gt;Node5</title>
<path fill="none" stroke="#191970" d="M280.3112,-238C294.5473,-238 310.5677,-238 325.8456,-238"/>
<polygon fill="#191970" stroke="#191970" points="326.2731,-241.5001 336.273,-238 326.273,-234.5001 326.2731,-241.5001"/>
</g>
<!-- Node6&#45;&gt;Node2 -->
<g id="edge12" class="edge">
<title>Node6&#45;&gt;Node2</title>
<path fill="none" stroke="#191970" d="M246.4165,-133.7122C261.1874,-146.3658 288.8278,-168.3611 316,-181 321.2488,-183.4414 326.8614,-185.6062 332.5557,-187.5171"/>
<polygon fill="#191970" stroke="#191970" points="331.5782,-190.8783 342.1662,-190.4973 333.6515,-184.1924 331.5782,-190.8783"/>
</g>
<!-- Node7 -->
<g id="node8" class="node">
<title>Node7</title>
<g id="a_node8"><a xlink:href="classBitString.html#a9f592521af8d36d2d45f46661d86db2b" target="_top" xlink:title=" ">
<polygon fill="#ffffff" stroke="#000000" points="330,-152.5 330,-171.5 448,-171.5 448,-152.5 330,-152.5"/>
<text text-anchor="middle" x="389" y="-159.5" font-family="Helvetica,sans-Serif" font-size="10.00" fill="#000000">BitString::splitBlocks</text>
</a>
</g>
</g>
<!-- Node6&#45;&gt;Node7 -->
<g id="edge7" class="edge">
<title>Node6&#45;&gt;Node7</title>
<path fill="none" stroke="#191970" d="M274.2345,-133.589C294.3993,-138.5809 319.2479,-144.7324 340.6611,-150.0334"/>
<polygon fill="#191970" stroke="#191970" points="339.9959,-153.4743 350.544,-152.4799 341.6781,-146.6794 339.9959,-153.4743"/>
</g>
<!-- Node9 -->
<g id="node10" class="node">
<title>Node9</title>
<g id="a_node10"><a xlink:href="classCryptoPoller.html#a7bcfbc4dda8626c3a61ada489d6dd51c" target="_top" xlink:title=" ">
<polygon fill="#ffffff" stroke="#000000" points="319.5,-114.5 319.5,-133.5 458.5,-133.5 458.5,-114.5 319.5,-114.5"/>
<text text-anchor="middle" x="389" y="-121.5" font-family="Helvetica,sans-Serif" font-size="10.00" fill="#000000">CryptoPoller::normalStep</text>
</a>
</g>
</g>
<!-- Node6&#45;&gt;Node9 -->
<g id="edge9" class="edge">
<title>Node6&#45;&gt;Node9</title>
<path fill="none" stroke="#191970" d="M277.0393,-124C287.0322,-124 298.0417,-124 309.1382,-124"/>
<polygon fill="#191970" stroke="#191970" points="309.3266,-127.5001 319.3266,-124 309.3265,-120.5001 309.3266,-127.5001"/>
</g>
<!-- Node10 -->
<g id="node11" class="node">
<title>Node10</title>
<g id="a_node11"><a xlink:href="classBitString.html#a3771ed3de6f9941e5d30ac6c1758d180" target="_top" xlink:title=" ">
<polygon fill="#ffffff" stroke="#000000" points="337.5,-76.5 337.5,-95.5 440.5,-95.5 440.5,-76.5 337.5,-76.5"/>
<text text-anchor="middle" x="389" y="-83.5" font-family="Helvetica,sans-Serif" font-size="10.00" fill="#000000">BitString::xorWith</text>
</a>
</g>
</g>
<!-- Node6&#45;&gt;Node10 -->
<g id="edge10" class="edge">
<title>Node6&#45;&gt;Node10</title>
<path fill="none" stroke="#191970" d="M274.2345,-114.411C294.3993,-109.4191 319.2479,-103.2676 340.6611,-97.9666"/>
<polygon fill="#191970" stroke="#191970" points="341.6781,-101.3206 350.544,-95.5201 339.9959,-94.5257 341.6781,-101.3206"/>
</g>
<!-- Node11 -->
<g id="node12" class="node">
<title>Node11</title>
<g id="a_node12"><a xlink:href="classBitString.html#a39a133d9a366545e41d6a470255a1b64" target="_top" xlink:title=" ">
<polygon fill="#ffffff" stroke="#000000" points="326.5,-38.5 326.5,-57.5 451.5,-57.5 451.5,-38.5 326.5,-38.5"/>
<text text-anchor="middle" x="389" y="-45.5" font-family="Helvetica,sans-Serif" font-size="10.00" fill="#000000">BitString::concatenate</text>
</a>
</g>
</g>
<!-- Node6&#45;&gt;Node11 -->
<g id="edge11" class="edge">
<title>Node6&#45;&gt;Node11</title>
<path fill="none" stroke="#191970" d="M246.4165,-114.2878C261.1874,-101.6342 288.8278,-79.6389 316,-67 321.2488,-64.5586 326.8614,-62.3938 332.5557,-60.4829"/>
<polygon fill="#191970" stroke="#191970" points="333.6515,-63.8076 342.1662,-57.5027 331.5782,-57.1217 333.6515,-63.8076"/>
</g>
<!-- Node12 -->
<g id="node13" class="node">
<title>Node12</title>
<g id="a_node13"><a xlink:href="classCryptoPoller.html#a02b4bddba5ffddcd2528fa7e2f78a86b" target="_top" xlink:title=" ">
<polygon fill="#ffffff" stroke="#000000" points="316,-.5 316,-19.5 462,-19.5 462,-.5 316,-.5"/>
<text text-anchor="middle" x="389" y="-7.5" font-family="Helvetica,sans-Serif" font-size="10.00" fill="#000000">CryptoPoller::normalStride</text>
</a>
</g>
</g>
<!-- Node6&#45;&gt;Node12 -->
<g id="edge13" class="edge">
<title>Node6&#45;&gt;Node12</title>
<path fill="none" stroke="#191970" d="M240.9547,-114.2104C252.2848,-94.8127 280.3113,-51.4361 316,-29 319.3954,-26.8655 323.0231,-24.9697 326.779,-23.2862"/>
<polygon fill="#191970" stroke="#191970" points="328.3012,-26.4482 336.3197,-19.5233 325.7329,-19.9364 328.3012,-26.4482"/>
</g>
<!-- Node8 -->
<g id="node9" class="node">
<title>Node8</title>
<g id="a_node9"><a xlink:href="classBitString.html#a129b293aa7369637810c1d54471e1258" target="_top" xlink:title=" ">
<polygon fill="#ffffff" stroke="#000000" points="498,-152.5 498,-171.5 605,-171.5 605,-152.5 498,-152.5"/>
<text text-anchor="middle" x="551.5" y="-159.5" font-family="Helvetica,sans-Serif" font-size="10.00" fill="#000000">BitString::BitString</text>
</a>
</g>
</g>
<!-- Node7&#45;&gt;Node8 -->
<g id="edge8" class="edge">
<title>Node7&#45;&gt;Node8</title>
<path fill="none" stroke="#191970" d="M448.1259,-162C460.9433,-162 474.5558,-162 487.5494,-162"/>
<polygon fill="#191970" stroke="#191970" points="487.8103,-165.5001 497.8102,-162 487.8102,-158.5001 487.8103,-165.5001"/>
</g>
</g>
</svg>
