<?xml version="1.0" encoding="UTF-8" standalone="no"?>
<!DOCTYPE svg PUBLIC "-//W3C//DTD SVG 1.1//EN"
 "http://www.w3.org/Graphics/SVG/1.1/DTD/svg11.dtd">
<!-- Generated by graphviz version 2.40.1 (20161225.0304)
 -->
<!-- Title: SWImplementation::hash Pages: 1 -->
<svg width="738pt" height="306pt"
 viewBox="0.00 0.00 738.00 306.00" xmlns="http://www.w3.org/2000/svg" xmlns:xlink="http://www.w3.org/1999/xlink">
<g id="graph0" class="graph" transform="scale(1 1) rotate(0) translate(4 302)">
<title>SWImplementation::hash</title>
<polygon fill="#ffffff" stroke="transparent" points="-4,4 -4,-302 734,-302 734,4 -4,4"/>
<!-- Node6 -->
<g id="node1" class="node">
<title>Node6</title>
<g id="a_node1"><a xlink:title=" ">
<polygon fill="#bfbfbf" stroke="#000000" points="0,-227.5 0,-246.5 140,-246.5 140,-227.5 0,-227.5"/>
<text text-anchor="middle" x="70" y="-234.5" font-family="Helvetica,sans-Serif" font-size="10.00" fill="#000000">SWImplementation::hash</text>
</a>
</g>
</g>
<!-- Node7 -->
<g id="node2" class="node">
<title>Node7</title>
<g id="a_node2"><a xlink:href="classBitString.html#a39bc6a3bef8f84d2dec75174b35abf89" target="_top" xlink:title=" ">
<polygon fill="#ffffff" stroke="#000000" points="457,-278.5 457,-297.5 570,-297.5 570,-278.5 457,-278.5"/>
<text text-anchor="middle" x="513.5" y="-285.5" font-family="Helvetica,sans-Serif" font-size="10.00" fill="#000000">BitString::getLength</text>
</a>
</g>
</g>
<!-- Node6&#45;&gt;Node7 -->
<g id="edge1" class="edge">
<title>Node6&#45;&gt;Node7</title>
<path fill="none" stroke="#191970" d="M118.4144,-246.5489C136.4403,-249.8742 157.106,-253.4155 176,-256 269.5991,-268.8035 378.5044,-278.1314 446.7264,-283.3088"/>
<polygon fill="#191970" stroke="#191970" points="446.6695,-286.8143 456.9036,-284.0732 447.1939,-279.834 446.6695,-286.8143"/>
</g>
<!-- Node8 -->
<g id="node3" class="node">
<title>Node8</title>
<g id="a_node3"><a xlink:href="classBitString.html#a9978b48556f494fc3e13385cd097ec6c" target="_top" xlink:title=" ">
<polygon fill="#ffffff" stroke="#000000" points="185,-227.5 185,-246.5 308,-246.5 308,-227.5 185,-227.5"/>
<text text-anchor="middle" x="246.5" y="-234.5" font-family="Helvetica,sans-Serif" font-size="10.00" fill="#000000">BitString::toByteArray</text>
</a>
</g>
</g>
<!-- Node6&#45;&gt;Node8 -->
<g id="edge2" class="edge">
<title>Node6&#45;&gt;Node8</title>
<path fill="none" stroke="#191970" d="M140.011,-237C151.3589,-237 163.1276,-237 174.5214,-237"/>
<polygon fill="#191970" stroke="#191970" points="174.857,-240.5001 184.857,-237 174.8569,-233.5001 174.857,-240.5001"/>
</g>
<!-- Node9 -->
<g id="node4" class="node">
<title>Node9</title>
<g id="a_node4"><a xlink:href="namespaceHWImplementation.html#a803049b0475e6953f079b68b7e0d3a05" target="_top" xlink:title=" ">
<polygon fill="#ffffff" stroke="#000000" points="176,-177.5 176,-196.5 317,-196.5 317,-177.5 176,-177.5"/>
<text text-anchor="middle" x="246.5" y="-184.5" font-family="Helvetica,sans-Serif" font-size="10.00" fill="#000000">HWImplementation::hash</text>
</a>
</g>
</g>
<!-- Node6&#45;&gt;Node9 -->
<g id="edge3" class="edge">
<title>Node6&#45;&gt;Node9</title>
<path fill="none" stroke="#191970" d="M103.6137,-227.4777C131.7403,-219.5098 172.0741,-208.0838 202.721,-199.402"/>
<polygon fill="#191970" stroke="#191970" points="204.0439,-202.665 212.7113,-196.5719 202.1359,-195.9301 204.0439,-202.665"/>
</g>
<!-- Node10 -->
<g id="node5" class="node">
<title>Node10</title>
<g id="a_node5"><a xlink:href="keccak_8cpp.html#ad2ec31efd2cbbecc017d9c4e61b379f7" target="_top" xlink:title=" ">
<polygon fill="#ffffff" stroke="#000000" points="353,-152.5 353,-171.5 404,-171.5 404,-152.5 353,-152.5"/>
<text text-anchor="middle" x="378.5" y="-159.5" font-family="Helvetica,sans-Serif" font-size="10.00" fill="#000000">keccak</text>
</a>
</g>
</g>
<!-- Node9&#45;&gt;Node10 -->
<g id="edge4" class="edge">
<title>Node9&#45;&gt;Node10</title>
<path fill="none" stroke="#191970" d="M296.7801,-177.4773C312.1405,-174.5681 328.7072,-171.4305 342.8821,-168.7458"/>
<polygon fill="#191970" stroke="#191970" points="343.5556,-172.1806 352.7296,-166.8808 342.2529,-165.3028 343.5556,-172.1806"/>
</g>
<!-- Node10&#45;&gt;Node7 -->
<g id="edge6" class="edge">
<title>Node10&#45;&gt;Node7</title>
<path fill="none" stroke="#191970" d="M381.2967,-171.5873C387.8899,-192.4574 406.4328,-242.1963 440,-268 443.0078,-270.3121 446.2644,-272.3572 449.6764,-274.166"/>
<polygon fill="#191970" stroke="#191970" points="448.456,-277.4563 459.0066,-278.4236 451.362,-271.088 448.456,-277.4563"/>
</g>
<!-- Node11 -->
<g id="node6" class="node">
<title>Node11</title>
<g id="a_node6"><a xlink:href="classBitString.html#afec85245f536cb86f2aca2f0300185dd" target="_top" xlink:title=" ">
<polygon fill="#ffffff" stroke="#000000" points="442,-229 442,-259 585,-259 585,-229 442,-229"/>
<text text-anchor="start" x="450" y="-247" font-family="Helvetica,sans-Serif" font-size="10.00" fill="#000000">BitString::concatenateAnd</text>
<text text-anchor="middle" x="513.5" y="-236" font-family="Helvetica,sans-Serif" font-size="10.00" fill="#000000">AddMultiRatePadding</text>
</a>
</g>
</g>
<!-- Node10&#45;&gt;Node11 -->
<g id="edge5" class="edge">
<title>Node10&#45;&gt;Node11</title>
<path fill="none" stroke="#191970" d="M386.6907,-171.8053C397.6507,-184.3571 418.2433,-206.0278 440,-219 443.5816,-221.1355 447.3709,-223.1199 451.2655,-224.9587"/>
<polygon fill="#191970" stroke="#191970" points="449.9305,-228.1948 460.4956,-228.9871 452.7306,-221.7792 449.9305,-228.1948"/>
</g>
<!-- Node12 -->
<g id="node7" class="node">
<title>Node12</title>
<g id="a_node7"><a xlink:href="classBitString.html#a9f592521af8d36d2d45f46661d86db2b" target="_top" xlink:title=" ">
<polygon fill="#ffffff" stroke="#000000" points="454.5,-190.5 454.5,-209.5 572.5,-209.5 572.5,-190.5 454.5,-190.5"/>
<text text-anchor="middle" x="513.5" y="-197.5" font-family="Helvetica,sans-Serif" font-size="10.00" fill="#000000">BitString::splitBlocks</text>
</a>
</g>
</g>
<!-- Node10&#45;&gt;Node12 -->
<g id="edge7" class="edge">
<title>Node10&#45;&gt;Node12</title>
<path fill="none" stroke="#191970" d="M404.1539,-170.2185C415.1558,-173.667 428.1737,-177.6466 440,-181 448.2024,-183.3258 456.9524,-185.6894 465.4498,-187.9231"/>
<polygon fill="#191970" stroke="#191970" points="464.7017,-191.345 475.2608,-190.4757 466.4642,-184.5705 464.7017,-191.345"/>
</g>
<!-- Node14 -->
<g id="node9" class="node">
<title>Node14</title>
<g id="a_node9"><a xlink:href="classCryptoPoller.html#adec9d1073d8950d0a6a38c975b05cbab" target="_top" xlink:title=" ">
<polygon fill="#ffffff" stroke="#000000" points="460,-152.5 460,-171.5 567,-171.5 567,-152.5 460,-152.5"/>
<text text-anchor="middle" x="513.5" y="-159.5" font-family="Helvetica,sans-Serif" font-size="10.00" fill="#000000">CryptoPoller::reset</text>
</a>
</g>
</g>
<!-- Node10&#45;&gt;Node14 -->
<g id="edge9" class="edge">
<title>Node10&#45;&gt;Node14</title>
<path fill="none" stroke="#191970" d="M404.2102,-162C417.261,-162 433.7479,-162 449.9323,-162"/>
<polygon fill="#191970" stroke="#191970" points="449.9369,-165.5001 459.9369,-162 449.9369,-158.5001 449.9369,-165.5001"/>
</g>
<!-- Node15 -->
<g id="node10" class="node">
<title>Node15</title>
<g id="a_node10"><a xlink:href="classCryptoPoller.html#a40777ae9360ffe0dbdd4cb4385646ca0" target="_top" xlink:title=" ">
<polygon fill="#ffffff" stroke="#000000" points="443.5,-114.5 443.5,-133.5 583.5,-133.5 583.5,-114.5 443.5,-114.5"/>
<text text-anchor="middle" x="513.5" y="-121.5" font-family="Helvetica,sans-Serif" font-size="10.00" fill="#000000">CryptoPoller::hashAbsorb</text>
</a>
</g>
</g>
<!-- Node10&#45;&gt;Node15 -->
<g id="edge10" class="edge">
<title>Node10&#45;&gt;Node15</title>
<path fill="none" stroke="#191970" d="M404.1539,-153.7815C415.1558,-150.333 428.1737,-146.3534 440,-143 448.2024,-140.6742 456.9524,-138.3106 465.4498,-136.0769"/>
<polygon fill="#191970" stroke="#191970" points="466.4642,-139.4295 475.2608,-133.5243 464.7017,-132.655 466.4642,-139.4295"/>
</g>
<!-- Node16 -->
<g id="node11" class="node">
<title>Node16</title>
<g id="a_node11"><a xlink:href="classBitString.html#a9ce7e8bef847437b601aa3c3385f343a" target="_top" xlink:title=" ">
<polygon fill="#ffffff" stroke="#000000" points="463,-76.5 463,-95.5 564,-95.5 564,-76.5 463,-76.5"/>
<text text-anchor="middle" x="513.5" y="-83.5" font-family="Helvetica,sans-Serif" font-size="10.00" fill="#000000">BitString::reserve</text>
</a>
</g>
</g>
<!-- Node10&#45;&gt;Node16 -->
<g id="edge11" class="edge">
<title>Node10&#45;&gt;Node16</title>
<path fill="none" stroke="#191970" d="M386.1772,-152.3799C396.88,-139.6216 417.5174,-117.2882 440,-105 444.1887,-102.7106 448.6635,-100.6886 453.2594,-98.9043"/>
<polygon fill="#191970" stroke="#191970" points="454.5254,-102.1696 462.8106,-95.566 452.2157,-95.5616 454.5254,-102.1696"/>
</g>
<!-- Node17 -->
<g id="node12" class="node">
<title>Node17</title>
<g id="a_node12"><a xlink:href="classBitString.html#a39a133d9a366545e41d6a470255a1b64" target="_top" xlink:title=" ">
<polygon fill="#ffffff" stroke="#000000" points="451,-38.5 451,-57.5 576,-57.5 576,-38.5 451,-38.5"/>
<text text-anchor="middle" x="513.5" y="-45.5" font-family="Helvetica,sans-Serif" font-size="10.00" fill="#000000">BitString::concatenate</text>
</a>
</g>
</g>
<!-- Node10&#45;&gt;Node17 -->
<g id="edge12" class="edge">
<title>Node10&#45;&gt;Node17</title>
<path fill="none" stroke="#191970" d="M382.0177,-152.2051C389.5059,-132.7977 408.9215,-89.4047 440,-67 442.6728,-65.0731 445.5246,-63.3414 448.4948,-61.7851"/>
<polygon fill="#191970" stroke="#191970" points="450.0307,-64.9319 457.7005,-57.6226 447.1466,-58.5536 450.0307,-64.9319"/>
</g>
<!-- Node18 -->
<g id="node13" class="node">
<title>Node18</title>
<g id="a_node13"><a xlink:href="classCryptoPoller.html#aacefd128dab1c88d4c2bdf141bfa5dff" target="_top" xlink:title=" ">
<polygon fill="#ffffff" stroke="#000000" points="440,-.5 440,-19.5 587,-19.5 587,-.5 440,-.5"/>
<text text-anchor="middle" x="513.5" y="-7.5" font-family="Helvetica,sans-Serif" font-size="10.00" fill="#000000">CryptoPoller::hashSqueeze</text>
</a>
</g>
</g>
<!-- Node10&#45;&gt;Node18 -->
<g id="edge13" class="edge">
<title>Node10&#45;&gt;Node18</title>
<path fill="none" stroke="#191970" d="M380.0821,-152.2455C384.6081,-127.5979 399.9561,-62.4093 440,-29 442.0367,-27.3008 444.2074,-25.7513 446.4784,-24.3385"/>
<polygon fill="#191970" stroke="#191970" points="448.4218,-27.2721 455.6643,-19.5393 445.1803,-21.0678 448.4218,-27.2721"/>
</g>
<!-- Node13 -->
<g id="node8" class="node">
<title>Node13</title>
<g id="a_node8"><a xlink:href="classBitString.html#a129b293aa7369637810c1d54471e1258" target="_top" xlink:title=" ">
<polygon fill="#ffffff" stroke="#000000" points="623,-190.5 623,-209.5 730,-209.5 730,-190.5 623,-190.5"/>
<text text-anchor="middle" x="676.5" y="-197.5" font-family="Helvetica,sans-Serif" font-size="10.00" fill="#000000">BitString::BitString</text>
</a>
</g>
</g>
<!-- Node12&#45;&gt;Node13 -->
<g id="edge8" class="edge">
<title>Node12&#45;&gt;Node13</title>
<path fill="none" stroke="#191970" d="M572.8078,-200C585.7365,-200 599.4717,-200 612.571,-200"/>
<polygon fill="#191970" stroke="#191970" points="612.9126,-203.5001 622.9125,-200 612.9125,-196.5001 612.9126,-203.5001"/>
</g>
</g>
</svg>
