<?xml version="1.0" encoding="UTF-8" standalone="no"?>
<!DOCTYPE svg PUBLIC "-//W3C//DTD SVG 1.1//EN"
 "http://www.w3.org/Graphics/SVG/1.1/DTD/svg11.dtd">
<!-- Generated by graphviz version 2.40.1 (20161225.0304)
 -->
<!-- Title: /home/pieter/GitHub/EAGLE&#45;ZYBO&#45;Linux/src/location&#45;finder/src/NEON&#45;PrintHelpers.hpp Pages: 1 -->
<svg width="158pt" height="117pt"
 viewBox="0.00 0.00 157.50 117.00" xmlns="http://www.w3.org/2000/svg" xmlns:xlink="http://www.w3.org/1999/xlink">
<g id="graph0" class="graph" transform="scale(1 1) rotate(0) translate(4 113)">
<title>/home/pieter/GitHub/EAGLE&#45;ZYBO&#45;Linux/src/location&#45;finder/src/NEON&#45;PrintHelpers.hpp</title>
<polygon fill="#ffffff" stroke="transparent" points="-4,4 -4,-113 153.5,-113 153.5,4 -4,4"/>
<!-- Node0 -->
<g id="node1" class="node">
<title>Node0</title>
<g id="a_node1"><a xlink:title=" ">
<polygon fill="#bfbfbf" stroke="#000000" points="9.5,-56.5 9.5,-108.5 148.5,-108.5 148.5,-56.5 9.5,-56.5"/>
<text text-anchor="start" x="17.5" y="-96.5" font-family="Helvetica,sans-Serif" font-size="10.00" fill="#000000">/home/pieter/GitHub</text>
<text text-anchor="start" x="17.5" y="-85.5" font-family="Helvetica,sans-Serif" font-size="10.00" fill="#000000">/EAGLE&#45;ZYBO&#45;Linux/src</text>
<text text-anchor="start" x="17.5" y="-74.5" font-family="Helvetica,sans-Serif" font-size="10.00" fill="#000000">/location&#45;finder/src/NEON</text>
<text text-anchor="middle" x="79" y="-63.5" font-family="Helvetica,sans-Serif" font-size="10.00" fill="#000000">&#45;PrintHelpers.hpp</text>
</a>
</g>
</g>
<!-- Node1 -->
<g id="node2" class="node">
<title>Node1</title>
<g id="a_node2"><a xlink:title=" ">
<polygon fill="#ffffff" stroke="#bfbfbf" points="0,-.5 0,-19.5 74,-19.5 74,-.5 0,-.5"/>
<text text-anchor="middle" x="37" y="-7.5" font-family="Helvetica,sans-Serif" font-size="10.00" fill="#000000">arm_neon.h</text>
</a>
</g>
</g>
<!-- Node0&#45;&gt;Node1 -->
<g id="edge1" class="edge">
<title>Node0&#45;&gt;Node1</title>
<path fill="none" stroke="#191970" d="M63.837,-56.3258C58.4423,-47.0135 52.4893,-36.7375 47.5635,-28.2347"/>
<polygon fill="#191970" stroke="#191970" points="50.5644,-26.4324 42.5231,-19.534 44.5074,-29.9414 50.5644,-26.4324"/>
</g>
<!-- Node2 -->
<g id="node3" class="node">
<title>Node2</title>
<g id="a_node3"><a xlink:title=" ">
<polygon fill="#ffffff" stroke="#bfbfbf" points="92.5,-.5 92.5,-19.5 149.5,-19.5 149.5,-.5 92.5,-.5"/>
<text text-anchor="middle" x="121" y="-7.5" font-family="Helvetica,sans-Serif" font-size="10.00" fill="#000000">ostream</text>
</a>
</g>
</g>
<!-- Node0&#45;&gt;Node2 -->
<g id="edge2" class="edge">
<title>Node0&#45;&gt;Node2</title>
<path fill="none" stroke="#191970" d="M94.163,-56.3258C99.5577,-47.0135 105.5107,-36.7375 110.4365,-28.2347"/>
<polygon fill="#191970" stroke="#191970" points="113.4926,-29.9414 115.4769,-19.534 107.4356,-26.4324 113.4926,-29.9414"/>
</g>
</g>
</svg>
