<?xml version="1.0" encoding="UTF-8" standalone="no"?>
<!DOCTYPE svg PUBLIC "-//W3C//DTD SVG 1.1//EN"
 "http://www.w3.org/Graphics/SVG/1.1/DTD/svg11.dtd">
<!-- Generated by graphviz version 2.40.1 (20161225.0304)
 -->
<!-- Title: /home/pieter/GitHub/EAGLE&#45;ZYBO&#45;Linux/src/comm/src/original&#45;wrapper.c Pages: 1 -->
<svg width="768pt" height="106pt"
 viewBox="0.00 0.00 767.50 106.00" xmlns="http://www.w3.org/2000/svg" xmlns:xlink="http://www.w3.org/1999/xlink">
<g id="graph0" class="graph" transform="scale(1 1) rotate(0) translate(4 102)">
<title>/home/pieter/GitHub/EAGLE&#45;ZYBO&#45;Linux/src/comm/src/original&#45;wrapper.c</title>
<polygon fill="#ffffff" stroke="transparent" points="-4,4 -4,-102 763.5,-102 763.5,4 -4,4"/>
<!-- Node0 -->
<g id="node1" class="node">
<title>Node0</title>
<g id="a_node1"><a xlink:title=" ">
<polygon fill="#bfbfbf" stroke="#000000" points="277.5,-56.5 277.5,-97.5 435.5,-97.5 435.5,-56.5 277.5,-56.5"/>
<text text-anchor="start" x="285.5" y="-85.5" font-family="Helvetica,sans-Serif" font-size="10.00" fill="#000000">/home/pieter/GitHub</text>
<text text-anchor="start" x="285.5" y="-74.5" font-family="Helvetica,sans-Serif" font-size="10.00" fill="#000000">/EAGLE&#45;ZYBO&#45;Linux/src</text>
<text text-anchor="middle" x="356.5" y="-63.5" font-family="Helvetica,sans-Serif" font-size="10.00" fill="#000000">/comm/src/original&#45;wrapper.c</text>
</a>
</g>
</g>
<!-- Node1 -->
<g id="node2" class="node">
<title>Node1</title>
<g id="a_node2"><a xlink:title=" ">
<polygon fill="#ffffff" stroke="#bfbfbf" points="0,-.5 0,-19.5 73,-19.5 73,-.5 0,-.5"/>
<text text-anchor="middle" x="36.5" y="-7.5" font-family="Helvetica,sans-Serif" font-size="10.00" fill="#000000">byteswap.h</text>
</a>
</g>
</g>
<!-- Node0&#45;&gt;Node1 -->
<g id="edge1" class="edge">
<title>Node0&#45;&gt;Node1</title>
<path fill="none" stroke="#191970" d="M277.3104,-60.8983C224.7992,-50.1482 154.0965,-35.5354 83.314,-20.3718"/>
<polygon fill="#191970" stroke="#191970" points="83.8394,-16.9049 73.3276,-18.2288 82.3706,-23.7491 83.8394,-16.9049"/>
</g>
<!-- Node2 -->
<g id="node3" class="node">
<title>Node2</title>
<g id="a_node3"><a xlink:title=" ">
<polygon fill="#ffffff" stroke="#bfbfbf" points="91,-.5 91,-19.5 142,-19.5 142,-.5 91,-.5"/>
<text text-anchor="middle" x="116.5" y="-7.5" font-family="Helvetica,sans-Serif" font-size="10.00" fill="#000000">errno.h</text>
</a>
</g>
</g>
<!-- Node0&#45;&gt;Node2 -->
<g id="edge2" class="edge">
<title>Node0&#45;&gt;Node2</title>
<path fill="none" stroke="#191970" d="M281.0802,-56.4444C244.4977,-46.3996 199.6877,-33.9875 151.7374,-20.3277"/>
<polygon fill="#191970" stroke="#191970" points="152.6835,-16.958 142.1069,-17.5794 150.7626,-23.6893 152.6835,-16.958"/>
</g>
<!-- Node3 -->
<g id="node4" class="node">
<title>Node3</title>
<g id="a_node4"><a xlink:title=" ">
<polygon fill="#ffffff" stroke="#bfbfbf" points="160,-.5 160,-19.5 207,-19.5 207,-.5 160,-.5"/>
<text text-anchor="middle" x="183.5" y="-7.5" font-family="Helvetica,sans-Serif" font-size="10.00" fill="#000000">fcntl.h</text>
</a>
</g>
</g>
<!-- Node0&#45;&gt;Node3 -->
<g id="edge3" class="edge">
<title>Node0&#45;&gt;Node3</title>
<path fill="none" stroke="#191970" d="M303.1827,-56.3511C274.9111,-45.402 241.0653,-32.2941 216.5913,-22.8157"/>
<polygon fill="#191970" stroke="#191970" points="217.6374,-19.4676 207.0482,-19.1198 215.1093,-25.9951 217.6374,-19.4676"/>
</g>
<!-- Node4 -->
<g id="node5" class="node">
<title>Node4</title>
<g id="a_node5"><a xlink:title=" ">
<polygon fill="#ffffff" stroke="#bfbfbf" points="225,-.5 225,-19.5 278,-19.5 278,-.5 225,-.5"/>
<text text-anchor="middle" x="251.5" y="-7.5" font-family="Helvetica,sans-Serif" font-size="10.00" fill="#000000">stdint.h</text>
</a>
</g>
</g>
<!-- Node0&#45;&gt;Node4 -->
<g id="edge4" class="edge">
<title>Node0&#45;&gt;Node4</title>
<path fill="none" stroke="#191970" d="M324.1398,-56.3511C308.4212,-46.3212 289.8637,-34.4797 275.4403,-25.2762"/>
<polygon fill="#191970" stroke="#191970" points="276.9431,-22.0833 266.6304,-19.6546 273.1777,-27.9843 276.9431,-22.0833"/>
</g>
<!-- Node5 -->
<g id="node6" class="node">
<title>Node5</title>
<g id="a_node6"><a xlink:title=" ">
<polygon fill="#ffffff" stroke="#bfbfbf" points="296.5,-.5 296.5,-19.5 346.5,-19.5 346.5,-.5 296.5,-.5"/>
<text text-anchor="middle" x="321.5" y="-7.5" font-family="Helvetica,sans-Serif" font-size="10.00" fill="#000000">stdio.h</text>
</a>
</g>
</g>
<!-- Node0&#45;&gt;Node5 -->
<g id="edge5" class="edge">
<title>Node0&#45;&gt;Node5</title>
<path fill="none" stroke="#191970" d="M345.6176,-56.168C341.0599,-47.4433 335.7999,-37.374 331.3575,-28.87"/>
<polygon fill="#191970" stroke="#191970" points="334.3417,-27.0234 326.6092,-19.7805 328.1372,-30.2646 334.3417,-27.0234"/>
</g>
<!-- Node6 -->
<g id="node7" class="node">
<title>Node6</title>
<g id="a_node7"><a xlink:title=" ">
<polygon fill="#ffffff" stroke="#bfbfbf" points="365,-.5 365,-19.5 418,-19.5 418,-.5 365,-.5"/>
<text text-anchor="middle" x="391.5" y="-7.5" font-family="Helvetica,sans-Serif" font-size="10.00" fill="#000000">stdlib.h</text>
</a>
</g>
</g>
<!-- Node0&#45;&gt;Node6 -->
<g id="edge6" class="edge">
<title>Node0&#45;&gt;Node6</title>
<path fill="none" stroke="#191970" d="M367.3824,-56.168C371.9401,-47.4433 377.2001,-37.374 381.6425,-28.87"/>
<polygon fill="#191970" stroke="#191970" points="384.8628,-30.2646 386.3908,-19.7805 378.6583,-27.0234 384.8628,-30.2646"/>
</g>
<!-- Node7 -->
<g id="node8" class="node">
<title>Node7</title>
<g id="a_node8"><a xlink:title=" ">
<polygon fill="#ffffff" stroke="#bfbfbf" points="436,-.5 436,-19.5 513,-19.5 513,-.5 436,-.5"/>
<text text-anchor="middle" x="474.5" y="-7.5" font-family="Helvetica,sans-Serif" font-size="10.00" fill="#000000">sys/mman.h</text>
</a>
</g>
</g>
<!-- Node0&#45;&gt;Node7 -->
<g id="edge7" class="edge">
<title>Node0&#45;&gt;Node7</title>
<path fill="none" stroke="#191970" d="M392.8667,-56.3511C410.8679,-46.1301 432.1822,-34.0279 448.5168,-24.7532"/>
<polygon fill="#191970" stroke="#191970" points="450.5285,-27.6359 457.4963,-19.6546 447.0721,-21.5486 450.5285,-27.6359"/>
</g>
<!-- Node8 -->
<g id="node9" class="node">
<title>Node8</title>
<g id="a_node9"><a xlink:title=" ">
<polygon fill="#ffffff" stroke="#bfbfbf" points="531.5,-.5 531.5,-19.5 595.5,-19.5 595.5,-.5 531.5,-.5"/>
<text text-anchor="middle" x="563.5" y="-7.5" font-family="Helvetica,sans-Serif" font-size="10.00" fill="#000000">sys/stat.h</text>
</a>
</g>
</g>
<!-- Node0&#45;&gt;Node8 -->
<g id="edge8" class="edge">
<title>Node0&#45;&gt;Node8</title>
<path fill="none" stroke="#191970" d="M420.0136,-56.4425C454.0329,-45.4314 494.863,-32.2158 524.2548,-22.7026"/>
<polygon fill="#191970" stroke="#191970" points="525.7078,-25.9111 534.1441,-19.5017 523.5522,-19.2513 525.7078,-25.9111"/>
</g>
<!-- Node9 -->
<g id="node10" class="node">
<title>Node9</title>
<g id="a_node10"><a xlink:title=" ">
<polygon fill="#ffffff" stroke="#bfbfbf" points="613.5,-.5 613.5,-19.5 685.5,-19.5 685.5,-.5 613.5,-.5"/>
<text text-anchor="middle" x="649.5" y="-7.5" font-family="Helvetica,sans-Serif" font-size="10.00" fill="#000000">sys/types.h</text>
</a>
</g>
</g>
<!-- Node0&#45;&gt;Node9 -->
<g id="edge9" class="edge">
<title>Node0&#45;&gt;Node9</title>
<path fill="none" stroke="#191970" d="M435.79,-58.8688C489.4059,-46.6085 558.3556,-30.8419 603.2204,-20.5827"/>
<polygon fill="#191970" stroke="#191970" points="604.2794,-23.931 613.2475,-18.2898 602.7189,-17.1071 604.2794,-23.931"/>
</g>
<!-- Node10 -->
<g id="node11" class="node">
<title>Node10</title>
<g id="a_node11"><a xlink:title=" ">
<polygon fill="#ffffff" stroke="#bfbfbf" points="703.5,-.5 703.5,-19.5 759.5,-19.5 759.5,-.5 703.5,-.5"/>
<text text-anchor="middle" x="731.5" y="-7.5" font-family="Helvetica,sans-Serif" font-size="10.00" fill="#000000">unistd.h</text>
</a>
</g>
</g>
<!-- Node0&#45;&gt;Node10 -->
<g id="edge10" class="edge">
<title>Node0&#45;&gt;Node10</title>
<path fill="none" stroke="#191970" d="M435.797,-65.8478C502.21,-55.9975 599.6399,-40.3621 693.3537,-20.0961"/>
<polygon fill="#191970" stroke="#191970" points="694.2643,-23.4798 703.2876,-17.9272 692.7711,-16.6409 694.2643,-23.4798"/>
</g>
</g>
</svg>
