<?xml version="1.0" encoding="UTF-8" standalone="no"?>
<!DOCTYPE svg PUBLIC "-//W3C//DTD SVG 1.1//EN"
 "http://www.w3.org/Graphics/SVG/1.1/DTD/svg11.dtd">
<!-- Generated by graphviz version 2.40.1 (20161225.0304)
 -->
<!-- Title: /home/pieter/GitHub/EAGLE&#45;ZYBO&#45;Linux/src/grid&#45;finder/include/Pixel.hpp Pages: 1 -->
<svg width="636pt" height="473pt"
 viewBox="0.00 0.00 635.50 473.00" xmlns="http://www.w3.org/2000/svg" xmlns:xlink="http://www.w3.org/1999/xlink">
<g id="graph0" class="graph" transform="scale(1 1) rotate(0) translate(4 469)">
<title>/home/pieter/GitHub/EAGLE&#45;ZYBO&#45;Linux/src/grid&#45;finder/include/Pixel.hpp</title>
<polygon fill="#ffffff" stroke="transparent" points="-4,4 -4,-469 631.5,-469 631.5,4 -4,4"/>
<!-- Node3 -->
<g id="node1" class="node">
<title>Node3</title>
<g id="a_node1"><a xlink:title=" ">
<polygon fill="#bfbfbf" stroke="#000000" points="247,-423.5 247,-464.5 403,-464.5 403,-423.5 247,-423.5"/>
<text text-anchor="start" x="255" y="-452.5" font-family="Helvetica,sans-Serif" font-size="10.00" fill="#000000">/home/pieter/GitHub</text>
<text text-anchor="start" x="255" y="-441.5" font-family="Helvetica,sans-Serif" font-size="10.00" fill="#000000">/EAGLE&#45;ZYBO&#45;Linux/src</text>
<text text-anchor="middle" x="325" y="-430.5" font-family="Helvetica,sans-Serif" font-size="10.00" fill="#000000">/grid&#45;finder/include/Pixel.hpp</text>
</a>
</g>
</g>
<!-- Node4 -->
<g id="node2" class="node">
<title>Node4</title>
<g id="a_node2"><a xlink:href="Bresenham_8hpp.html" target="_top" xlink:title=" ">
<polygon fill="#ffffff" stroke="#000000" points="170,-345.5 170,-386.5 358,-386.5 358,-345.5 170,-345.5"/>
<text text-anchor="start" x="178" y="-374.5" font-family="Helvetica,sans-Serif" font-size="10.00" fill="#000000">/home/pieter/GitHub</text>
<text text-anchor="start" x="178" y="-363.5" font-family="Helvetica,sans-Serif" font-size="10.00" fill="#000000">/EAGLE&#45;ZYBO&#45;Linux/src</text>
<text text-anchor="middle" x="264" y="-352.5" font-family="Helvetica,sans-Serif" font-size="10.00" fill="#000000">/grid&#45;finder/include/Bresenham.hpp</text>
</a>
</g>
</g>
<!-- Node3&#45;&gt;Node4 -->
<g id="edge1" class="edge">
<title>Node3&#45;&gt;Node4</title>
<path fill="none" stroke="#191970" d="M302.3913,-415.0905C295.0182,-405.6626 286.9844,-395.3899 280.1805,-386.6898"/>
<polygon fill="#191970" stroke="#191970" points="299.7357,-417.3764 308.6531,-423.0974 305.2497,-413.0641 299.7357,-417.3764"/>
</g>
<!-- Node9 -->
<g id="node7" class="node">
<title>Node9</title>
<g id="a_node7"><a xlink:href="HelperStructs_8hpp.html" target="_top" xlink:title=" ">
<polygon fill="#ffffff" stroke="#000000" points="179,-267.5 179,-308.5 377,-308.5 377,-267.5 179,-267.5"/>
<text text-anchor="start" x="187" y="-296.5" font-family="Helvetica,sans-Serif" font-size="10.00" fill="#000000">/home/pieter/GitHub</text>
<text text-anchor="start" x="187" y="-285.5" font-family="Helvetica,sans-Serif" font-size="10.00" fill="#000000">/EAGLE&#45;ZYBO&#45;Linux/src</text>
<text text-anchor="middle" x="278" y="-274.5" font-family="Helvetica,sans-Serif" font-size="10.00" fill="#000000">/grid&#45;finder/include/HelperStructs.hpp</text>
</a>
</g>
</g>
<!-- Node3&#45;&gt;Node9 -->
<g id="edge6" class="edge">
<title>Node3&#45;&gt;Node9</title>
<path fill="none" stroke="#191970" d="M350.8644,-415.4556C365.8574,-395.29 379.522,-367.8897 367,-345 358.458,-329.3856 343.6115,-317.4205 328.4645,-308.581"/>
<polygon fill="#191970" stroke="#191970" points="348.088,-413.3241 344.6567,-423.348 353.59,-417.6518 348.088,-413.3241"/>
</g>
<!-- Node11 -->
<g id="node9" class="node">
<title>Node11</title>
<g id="a_node9"><a xlink:href="Line_8hpp.html" target="_top" xlink:title=" ">
<polygon fill="#ffffff" stroke="#000000" points="0,-345.5 0,-386.5 152,-386.5 152,-345.5 0,-345.5"/>
<text text-anchor="start" x="8" y="-374.5" font-family="Helvetica,sans-Serif" font-size="10.00" fill="#000000">/home/pieter/GitHub</text>
<text text-anchor="start" x="8" y="-363.5" font-family="Helvetica,sans-Serif" font-size="10.00" fill="#000000">/EAGLE&#45;ZYBO&#45;Linux/src</text>
<text text-anchor="middle" x="76" y="-352.5" font-family="Helvetica,sans-Serif" font-size="10.00" fill="#000000">/grid&#45;finder/include/Line.hpp</text>
</a>
</g>
</g>
<!-- Node3&#45;&gt;Node11 -->
<g id="edge10" class="edge">
<title>Node3&#45;&gt;Node11</title>
<path fill="none" stroke="#191970" d="M249.269,-420.277C214.9343,-409.5216 174.7219,-396.9249 141.6839,-386.5757"/>
<polygon fill="#191970" stroke="#191970" points="248.6634,-423.755 259.2525,-423.4044 250.756,-417.0751 248.6634,-423.755"/>
</g>
<!-- Node12 -->
<g id="node10" class="node">
<title>Node12</title>
<g id="a_node10"><a xlink:href="Mask_8hpp.html" target="_top" xlink:title=" ">
<polygon fill="#ffffff" stroke="#000000" points="395,-267.5 395,-308.5 529,-308.5 529,-267.5 395,-267.5"/>
<text text-anchor="start" x="403" y="-296.5" font-family="Helvetica,sans-Serif" font-size="10.00" fill="#000000">/home/pieter/GitHub</text>
<text text-anchor="start" x="403" y="-285.5" font-family="Helvetica,sans-Serif" font-size="10.00" fill="#000000">/EAGLE&#45;ZYBO&#45;Linux/src</text>
<text text-anchor="middle" x="462" y="-274.5" font-family="Helvetica,sans-Serif" font-size="10.00" fill="#000000">/mask/include/Mask.hpp</text>
</a>
</g>
</g>
<!-- Node3&#45;&gt;Node12 -->
<g id="edge14" class="edge">
<title>Node3&#45;&gt;Node12</title>
<path fill="none" stroke="#191970" d="M355.2231,-416.3138C364.7054,-407.2328 375.0322,-396.9211 384,-387 407.3297,-361.1902 431.7687,-329.251 446.9393,-308.7526"/>
<polygon fill="#191970" stroke="#191970" points="352.6974,-413.8852 347.8416,-423.3017 357.5098,-418.9686 352.6974,-413.8852"/>
</g>
<!-- Node5 -->
<g id="node3" class="node">
<title>Node5</title>
<g id="a_node3"><a xlink:href="GridFinder_8hpp.html" target="_top" xlink:title=" ">
<polygon fill="#ffffff" stroke="#000000" points="67.5,-184 67.5,-225 248.5,-225 248.5,-184 67.5,-184"/>
<text text-anchor="start" x="75.5" y="-213" font-family="Helvetica,sans-Serif" font-size="10.00" fill="#000000">/home/pieter/GitHub</text>
<text text-anchor="start" x="75.5" y="-202" font-family="Helvetica,sans-Serif" font-size="10.00" fill="#000000">/EAGLE&#45;ZYBO&#45;Linux/src</text>
<text text-anchor="middle" x="158" y="-191" font-family="Helvetica,sans-Serif" font-size="10.00" fill="#000000">/grid&#45;finder/include/GridFinder.hpp</text>
</a>
</g>
</g>
<!-- Node4&#45;&gt;Node5 -->
<g id="edge2" class="edge">
<title>Node4&#45;&gt;Node5</title>
<path fill="none" stroke="#191970" d="M202.9077,-340.0803C190.1456,-331.9321 178.1171,-321.6635 170,-309 153.7397,-283.6324 153.4549,-247.5538 155.307,-225.1095"/>
<polygon fill="#191970" stroke="#191970" points="201.438,-343.2786 211.8211,-345.3859 205.0184,-337.2635 201.438,-343.2786"/>
</g>
<!-- Node6 -->
<g id="node4" class="node">
<title>Node6</title>
<g id="a_node4"><a xlink:href="LocationFinder_8cpp.html" target="_top" xlink:title=" ">
<polygon fill="#ffffff" stroke="#000000" points="255,-89.5 255,-141.5 407,-141.5 407,-89.5 255,-89.5"/>
<text text-anchor="start" x="263" y="-129.5" font-family="Helvetica,sans-Serif" font-size="10.00" fill="#000000">/home/pieter/GitHub</text>
<text text-anchor="start" x="263" y="-118.5" font-family="Helvetica,sans-Serif" font-size="10.00" fill="#000000">/EAGLE&#45;ZYBO&#45;Linux/src</text>
<text text-anchor="start" x="263" y="-107.5" font-family="Helvetica,sans-Serif" font-size="10.00" fill="#000000">/location&#45;finder/src/Location</text>
<text text-anchor="middle" x="331" y="-96.5" font-family="Helvetica,sans-Serif" font-size="10.00" fill="#000000">Finder.cpp</text>
</a>
</g>
</g>
<!-- Node5&#45;&gt;Node6 -->
<g id="edge3" class="edge">
<title>Node5&#45;&gt;Node6</title>
<path fill="none" stroke="#191970" d="M207.2956,-179.1399C230.125,-167.3952 257.2258,-153.4532 280.2341,-141.6166"/>
<polygon fill="#191970" stroke="#191970" points="205.4157,-176.1709 198.1245,-183.8579 208.6179,-182.3955 205.4157,-176.1709"/>
</g>
<!-- Node7 -->
<g id="node5" class="node">
<title>Node7</title>
<g id="a_node5"><a xlink:href="Grid-Finder_8module_8hpp.html" target="_top" xlink:title=" ">
<polygon fill="#ffffff" stroke="#000000" points="32.5,-89.5 32.5,-141.5 165.5,-141.5 165.5,-89.5 32.5,-89.5"/>
<text text-anchor="start" x="40.5" y="-129.5" font-family="Helvetica,sans-Serif" font-size="10.00" fill="#000000">/home/pieter/GitHub</text>
<text text-anchor="start" x="40.5" y="-118.5" font-family="Helvetica,sans-Serif" font-size="10.00" fill="#000000">/EAGLE&#45;ZYBO&#45;Linux/src</text>
<text text-anchor="start" x="40.5" y="-107.5" font-family="Helvetica,sans-Serif" font-size="10.00" fill="#000000">/py&#45;grid&#45;finder/include</text>
<text text-anchor="middle" x="99" y="-96.5" font-family="Helvetica,sans-Serif" font-size="10.00" fill="#000000">/Grid&#45;Finder.module.hpp</text>
</a>
</g>
</g>
<!-- Node5&#45;&gt;Node7 -->
<g id="edge4" class="edge">
<title>Node5&#45;&gt;Node7</title>
<path fill="none" stroke="#191970" d="M138.7816,-175.5096C131.5827,-164.6502 123.4501,-152.3823 116.4226,-141.7816"/>
<polygon fill="#191970" stroke="#191970" points="135.8733,-177.4569 144.3159,-183.8579 141.7077,-173.5891 135.8733,-177.4569"/>
</g>
<!-- Node8 -->
<g id="node6" class="node">
<title>Node8</title>
<g id="a_node6"><a xlink:href="Grid-Finder_8module_8cpp.html" target="_top" xlink:title=" ">
<polygon fill="#ffffff" stroke="#000000" points="34.5,-.5 34.5,-52.5 163.5,-52.5 163.5,-.5 34.5,-.5"/>
<text text-anchor="start" x="42.5" y="-40.5" font-family="Helvetica,sans-Serif" font-size="10.00" fill="#000000">/home/pieter/GitHub</text>
<text text-anchor="start" x="42.5" y="-29.5" font-family="Helvetica,sans-Serif" font-size="10.00" fill="#000000">/EAGLE&#45;ZYBO&#45;Linux/src</text>
<text text-anchor="start" x="42.5" y="-18.5" font-family="Helvetica,sans-Serif" font-size="10.00" fill="#000000">/py&#45;grid&#45;finder/src/Grid</text>
<text text-anchor="middle" x="99" y="-7.5" font-family="Helvetica,sans-Serif" font-size="10.00" fill="#000000">&#45;Finder.module.cpp</text>
</a>
</g>
</g>
<!-- Node7&#45;&gt;Node8 -->
<g id="edge5" class="edge">
<title>Node7&#45;&gt;Node8</title>
<path fill="none" stroke="#191970" d="M99,-79.1155C99,-70.2061 99,-60.8475 99,-52.5341"/>
<polygon fill="#191970" stroke="#191970" points="95.5001,-79.2784 99,-89.2784 102.5001,-79.2785 95.5001,-79.2784"/>
</g>
<!-- Node9&#45;&gt;Node5 -->
<g id="edge7" class="edge">
<title>Node9&#45;&gt;Node5</title>
<path fill="none" stroke="#191970" d="M239.806,-261.4234C222.9649,-249.7048 203.4708,-236.1401 187.7376,-225.1924"/>
<polygon fill="#191970" stroke="#191970" points="238.1296,-264.5208 248.3371,-267.3595 242.1278,-258.7749 238.1296,-264.5208"/>
</g>
<!-- Node10 -->
<g id="node8" class="node">
<title>Node10</title>
<g id="a_node8"><a xlink:href="LocationFinder_8hpp.html" target="_top" xlink:title=" ">
<polygon fill="#ffffff" stroke="#000000" points="266.5,-178.5 266.5,-230.5 395.5,-230.5 395.5,-178.5 266.5,-178.5"/>
<text text-anchor="start" x="274.5" y="-218.5" font-family="Helvetica,sans-Serif" font-size="10.00" fill="#000000">/home/pieter/GitHub</text>
<text text-anchor="start" x="274.5" y="-207.5" font-family="Helvetica,sans-Serif" font-size="10.00" fill="#000000">/EAGLE&#45;ZYBO&#45;Linux/src</text>
<text text-anchor="start" x="274.5" y="-196.5" font-family="Helvetica,sans-Serif" font-size="10.00" fill="#000000">/location&#45;finder/include</text>
<text text-anchor="middle" x="331" y="-185.5" font-family="Helvetica,sans-Serif" font-size="10.00" fill="#000000">/LocationFinder.hpp</text>
</a>
</g>
</g>
<!-- Node9&#45;&gt;Node10 -->
<g id="edge8" class="edge">
<title>Node9&#45;&gt;Node10</title>
<path fill="none" stroke="#191970" d="M296.4837,-258.8794C302.3251,-249.6765 308.7401,-239.5698 314.4383,-230.5925"/>
<polygon fill="#191970" stroke="#191970" points="293.5051,-257.041 291.1011,-267.3595 299.4151,-260.7923 293.5051,-257.041"/>
</g>
<!-- Node10&#45;&gt;Node6 -->
<g id="edge9" class="edge">
<title>Node10&#45;&gt;Node6</title>
<path fill="none" stroke="#191970" d="M331,-168.1155C331,-159.2061 331,-149.8475 331,-141.5341"/>
<polygon fill="#191970" stroke="#191970" points="327.5001,-168.2784 331,-178.2784 334.5001,-168.2785 327.5001,-168.2784"/>
</g>
<!-- Node11&#45;&gt;Node5 -->
<g id="edge11" class="edge">
<title>Node11&#45;&gt;Node5</title>
<path fill="none" stroke="#191970" d="M91.1084,-336.2438C107.4816,-303.9966 133.1793,-253.3847 147.4883,-225.2029"/>
<polygon fill="#191970" stroke="#191970" points="87.9587,-334.7163 86.5522,-345.2173 94.2003,-337.8854 87.9587,-334.7163"/>
</g>
<!-- Node11&#45;&gt;Node7 -->
<g id="edge13" class="edge">
<title>Node11&#45;&gt;Node7</title>
<path fill="none" stroke="#191970" d="M66.1293,-335.609C55.4351,-297.8548 41.9154,-231.8434 58,-178 61.863,-165.0685 69.3539,-152.3289 76.8875,-141.7595"/>
<polygon fill="#191970" stroke="#191970" points="62.8539,-336.876 69.0437,-345.4747 69.5672,-334.8928 62.8539,-336.876"/>
</g>
<!-- Node11&#45;&gt;Node9 -->
<g id="edge12" class="edge">
<title>Node11&#45;&gt;Node9</title>
<path fill="none" stroke="#191970" d="M138.8751,-341.7215C166.4086,-331.0897 198.3725,-318.7473 224.7143,-308.5757"/>
<polygon fill="#191970" stroke="#191970" points="137.4053,-338.5371 129.3374,-345.4044 139.9268,-345.0672 137.4053,-338.5371"/>
</g>
<!-- Node12&#45;&gt;Node5 -->
<g id="edge15" class="edge">
<title>Node12&#45;&gt;Node5</title>
<path fill="none" stroke="#191970" d="M385.0592,-266.7431C328.7022,-251.2375 275.0239,-236.5242 232.9738,-225.0107"/>
<polygon fill="#191970" stroke="#191970" points="384.2951,-270.1629 394.8653,-269.4416 386.1524,-263.4138 384.2951,-270.1629"/>
</g>
<!-- Node12&#45;&gt;Node6 -->
<g id="edge16" class="edge">
<title>Node12&#45;&gt;Node6</title>
<path fill="none" stroke="#191970" d="M449.8153,-257.8079C439.6049,-234.6113 423.5708,-202.5017 404,-178 393.3792,-164.7033 379.6329,-152.0804 366.9379,-141.7052"/>
<polygon fill="#191970" stroke="#191970" points="446.6671,-259.347 453.828,-267.1555 453.0995,-256.5857 446.6671,-259.347"/>
</g>
<!-- Node13 -->
<g id="node11" class="node">
<title>Node13</title>
<g id="a_node11"><a xlink:href="GenerateMask-Unroll_8ipp.html" target="_top" xlink:title=" ">
<polygon fill="#ffffff" stroke="#000000" points="490.5,-178.5 490.5,-230.5 627.5,-230.5 627.5,-178.5 490.5,-178.5"/>
<text text-anchor="start" x="498.5" y="-218.5" font-family="Helvetica,sans-Serif" font-size="10.00" fill="#000000">/home/pieter/GitHub</text>
<text text-anchor="start" x="498.5" y="-207.5" font-family="Helvetica,sans-Serif" font-size="10.00" fill="#000000">/EAGLE&#45;ZYBO&#45;Linux/src</text>
<text text-anchor="start" x="498.5" y="-196.5" font-family="Helvetica,sans-Serif" font-size="10.00" fill="#000000">/mask/src/GenerateMask</text>
<text text-anchor="middle" x="559" y="-185.5" font-family="Helvetica,sans-Serif" font-size="10.00" fill="#000000">&#45;Unroll.ipp</text>
</a>
</g>
</g>
<!-- Node12&#45;&gt;Node13 -->
<g id="edge17" class="edge">
<title>Node12&#45;&gt;Node13</title>
<path fill="none" stroke="#191970" d="M493.8574,-260.5763C505.062,-250.9311 517.6152,-240.1251 528.6889,-230.5925"/>
<polygon fill="#191970" stroke="#191970" points="491.2729,-258.183 485.9775,-267.3595 495.8397,-263.4881 491.2729,-258.183"/>
</g>
<!-- Node14 -->
<g id="node12" class="node">
<title>Node14</title>
<g id="a_node12"><a xlink:href="Mask_8cpp.html" target="_top" xlink:title=" ">
<polygon fill="#ffffff" stroke="#000000" points="459.5,-95 459.5,-136 588.5,-136 588.5,-95 459.5,-95"/>
<text text-anchor="start" x="467.5" y="-124" font-family="Helvetica,sans-Serif" font-size="10.00" fill="#000000">/home/pieter/GitHub</text>
<text text-anchor="start" x="467.5" y="-113" font-family="Helvetica,sans-Serif" font-size="10.00" fill="#000000">/EAGLE&#45;ZYBO&#45;Linux/src</text>
<text text-anchor="middle" x="524" y="-102" font-family="Helvetica,sans-Serif" font-size="10.00" fill="#000000">/mask/src/Mask.cpp</text>
</a>
</g>
</g>
<!-- Node12&#45;&gt;Node14 -->
<g id="edge19" class="edge">
<title>Node12&#45;&gt;Node14</title>
<path fill="none" stroke="#191970" d="M464.1736,-257.3901C466.5786,-234.7816 471.5967,-203.6164 482,-178 488.0996,-162.9807 498.1442,-147.8476 506.881,-136.2349"/>
<polygon fill="#191970" stroke="#191970" points="460.6812,-257.1449 463.2167,-267.4318 467.6497,-257.809 460.6812,-257.1449"/>
</g>
<!-- Node13&#45;&gt;Node14 -->
<g id="edge18" class="edge">
<title>Node13&#45;&gt;Node14</title>
<path fill="none" stroke="#191970" d="M544.9631,-168.8062C540.6041,-157.722 535.9466,-145.8785 532.1314,-136.1771"/>
<polygon fill="#191970" stroke="#191970" points="541.7711,-170.2531 548.6881,-178.2784 548.2855,-167.6912 541.7711,-170.2531"/>
</g>
</g>
</svg>
