<?xml version="1.0" encoding="UTF-8" standalone="no"?>
<!DOCTYPE svg PUBLIC "-//W3C//DTD SVG 1.1//EN"
 "http://www.w3.org/Graphics/SVG/1.1/DTD/svg11.dtd">
<!-- Generated by graphviz version 2.40.1 (20161225.0304)
 -->
<!-- Title: /home/pieter/GitHub/Crypto/src/grid&#45;finder/include/Pixel.hpp Pages: 1 -->
<svg width="338pt" height="284pt"
 viewBox="0.00 0.00 338.00 284.00" xmlns="http://www.w3.org/2000/svg" xmlns:xlink="http://www.w3.org/1999/xlink">
<g id="graph0" class="graph" transform="scale(1 1) rotate(0) translate(4 280)">
<title>/home/pieter/GitHub/Crypto/src/grid&#45;finder/include/Pixel.hpp</title>
<polygon fill="#ffffff" stroke="transparent" points="-4,4 -4,-280 334,-280 334,4 -4,4"/>
<!-- Node3 -->
<g id="node1" class="node">
<title>Node3</title>
<g id="a_node1"><a xlink:title=" ">
<polygon fill="#bfbfbf" stroke="#000000" points="119,-234.5 119,-275.5 241,-275.5 241,-234.5 119,-234.5"/>
<text text-anchor="start" x="127" y="-263.5" font-family="Helvetica,sans-Serif" font-size="10.00" fill="#000000">/home/pieter/GitHub</text>
<text text-anchor="start" x="127" y="-252.5" font-family="Helvetica,sans-Serif" font-size="10.00" fill="#000000">/Crypto/src/grid&#45;finder</text>
<text text-anchor="middle" x="180" y="-241.5" font-family="Helvetica,sans-Serif" font-size="10.00" fill="#000000">/include/Pixel.hpp</text>
</a>
</g>
</g>
<!-- Node4 -->
<g id="node2" class="node">
<title>Node4</title>
<g id="a_node2"><a xlink:href="Bresenham_8hpp.html" target="_top" xlink:title=" ">
<polygon fill="#ffffff" stroke="#000000" points="0,-78.5 0,-119.5 134,-119.5 134,-78.5 0,-78.5"/>
<text text-anchor="start" x="8" y="-107.5" font-family="Helvetica,sans-Serif" font-size="10.00" fill="#000000">/home/pieter/GitHub</text>
<text text-anchor="start" x="8" y="-96.5" font-family="Helvetica,sans-Serif" font-size="10.00" fill="#000000">/Crypto/src/grid&#45;finder</text>
<text text-anchor="middle" x="67" y="-85.5" font-family="Helvetica,sans-Serif" font-size="10.00" fill="#000000">/include/Bresenham.hpp</text>
</a>
</g>
</g>
<!-- Node3&#45;&gt;Node4 -->
<g id="edge1" class="edge">
<title>Node3&#45;&gt;Node4</title>
<path fill="none" stroke="#191970" d="M159.0453,-226.0714C136.697,-195.2189 101.8546,-147.1178 82.0676,-119.8013"/>
<polygon fill="#191970" stroke="#191970" points="156.2937,-228.239 164.9945,-234.2844 161.9627,-224.1326 156.2937,-228.239"/>
</g>
<!-- Node6 -->
<g id="node4" class="node">
<title>Node6</title>
<g id="a_node4"><a xlink:href="HelperStructs_8hpp.html" target="_top" xlink:title=" ">
<polygon fill="#ffffff" stroke="#000000" points="152.5,-78.5 152.5,-119.5 297.5,-119.5 297.5,-78.5 152.5,-78.5"/>
<text text-anchor="start" x="160.5" y="-107.5" font-family="Helvetica,sans-Serif" font-size="10.00" fill="#000000">/home/pieter/GitHub</text>
<text text-anchor="start" x="160.5" y="-96.5" font-family="Helvetica,sans-Serif" font-size="10.00" fill="#000000">/Crypto/src/grid&#45;finder</text>
<text text-anchor="middle" x="225" y="-85.5" font-family="Helvetica,sans-Serif" font-size="10.00" fill="#000000">/include/HelperStructs.hpp</text>
</a>
</g>
</g>
<!-- Node3&#45;&gt;Node6 -->
<g id="edge3" class="edge">
<title>Node3&#45;&gt;Node6</title>
<path fill="none" stroke="#191970" d="M183.9815,-224.1695C187.0066,-204.3924 191.8769,-178.3307 199,-156 202.9665,-143.5653 208.9273,-130.2637 214.1412,-119.6401"/>
<polygon fill="#191970" stroke="#191970" points="180.5035,-223.7657 182.5269,-234.1655 187.4305,-224.7737 180.5035,-223.7657"/>
</g>
<!-- Node7 -->
<g id="node5" class="node">
<title>Node7</title>
<g id="a_node5"><a xlink:href="Line_8hpp.html" target="_top" xlink:title=" ">
<polygon fill="#ffffff" stroke="#000000" points="208,-156.5 208,-197.5 330,-197.5 330,-156.5 208,-156.5"/>
<text text-anchor="start" x="216" y="-185.5" font-family="Helvetica,sans-Serif" font-size="10.00" fill="#000000">/home/pieter/GitHub</text>
<text text-anchor="start" x="216" y="-174.5" font-family="Helvetica,sans-Serif" font-size="10.00" fill="#000000">/Crypto/src/grid&#45;finder</text>
<text text-anchor="middle" x="269" y="-163.5" font-family="Helvetica,sans-Serif" font-size="10.00" fill="#000000">/include/Line.hpp</text>
</a>
</g>
</g>
<!-- Node3&#45;&gt;Node7 -->
<g id="edge5" class="edge">
<title>Node3&#45;&gt;Node7</title>
<path fill="none" stroke="#191970" d="M211.6874,-227.229C222.7938,-217.4953 235.0643,-206.7414 245.3924,-197.6898"/>
<polygon fill="#191970" stroke="#191970" points="209.064,-224.8742 203.8504,-234.0974 213.6778,-230.1386 209.064,-224.8742"/>
</g>
<!-- Node5 -->
<g id="node3" class="node">
<title>Node5</title>
<g id="a_node3"><a xlink:href="GridFinder_8hpp.html" target="_top" xlink:title=" ">
<polygon fill="#ffffff" stroke="#000000" points="161,-.5 161,-41.5 289,-41.5 289,-.5 161,-.5"/>
<text text-anchor="start" x="169" y="-29.5" font-family="Helvetica,sans-Serif" font-size="10.00" fill="#000000">/home/pieter/GitHub</text>
<text text-anchor="start" x="169" y="-18.5" font-family="Helvetica,sans-Serif" font-size="10.00" fill="#000000">/Crypto/src/grid&#45;finder</text>
<text text-anchor="middle" x="225" y="-7.5" font-family="Helvetica,sans-Serif" font-size="10.00" fill="#000000">/include/GridFinder.hpp</text>
</a>
</g>
</g>
<!-- Node4&#45;&gt;Node5 -->
<g id="edge2" class="edge">
<title>Node4&#45;&gt;Node5</title>
<path fill="none" stroke="#191970" d="M118.0835,-73.7816C139.2156,-63.3493 163.406,-51.4072 183.426,-41.5239"/>
<polygon fill="#191970" stroke="#191970" points="116.3438,-70.7371 108.9263,-78.3022 119.4425,-77.0139 116.3438,-70.7371"/>
</g>
<!-- Node6&#45;&gt;Node5 -->
<g id="edge4" class="edge">
<title>Node6&#45;&gt;Node5</title>
<path fill="none" stroke="#191970" d="M225,-68.0789C225,-59.2178 225,-49.7747 225,-41.6898"/>
<polygon fill="#191970" stroke="#191970" points="221.5001,-68.0974 225,-78.0974 228.5001,-68.0975 221.5001,-68.0974"/>
</g>
<!-- Node7&#45;&gt;Node5 -->
<g id="edge6" class="edge">
<title>Node7&#45;&gt;Node5</title>
<path fill="none" stroke="#191970" d="M292.627,-147.8338C305.9171,-127.6836 317.7083,-100.5559 306,-78 298.0779,-62.7382 283.9853,-50.7022 269.7518,-41.7006"/>
<polygon fill="#191970" stroke="#191970" points="289.5772,-146.0869 286.6998,-156.2835 295.3079,-150.1068 289.5772,-146.0869"/>
</g>
<!-- Node7&#45;&gt;Node6 -->
<g id="edge7" class="edge">
<title>Node7&#45;&gt;Node6</title>
<path fill="none" stroke="#191970" d="M252.2073,-147.2312C247.0234,-138.0415 241.4302,-128.1263 236.6712,-119.6898"/>
<polygon fill="#191970" stroke="#191970" points="249.2471,-149.1073 257.2088,-156.0974 255.344,-145.668 249.2471,-149.1073"/>
</g>
</g>
</svg>
