<?xml version="1.0" encoding="UTF-8" standalone="no"?>
<!DOCTYPE svg PUBLIC "-//W3C//DTD SVG 1.1//EN"
 "http://www.w3.org/Graphics/SVG/1.1/DTD/svg11.dtd">
<!-- Generated by graphviz version 2.40.1 (20161225.0304)
 -->
<!-- Title: /home/pieter/GitHub/EAGLE&#45;ZYBO&#45;Linux/src/grid&#45;finder/include/Pixel.hpp Pages: 1 -->
<svg width="659pt" height="484pt"
 viewBox="0.00 0.00 658.92 484.00" xmlns="http://www.w3.org/2000/svg" xmlns:xlink="http://www.w3.org/1999/xlink">
<g id="graph0" class="graph" transform="scale(1 1) rotate(0) translate(4 480)">
<title>/home/pieter/GitHub/EAGLE&#45;ZYBO&#45;Linux/src/grid&#45;finder/include/Pixel.hpp</title>
<polygon fill="#ffffff" stroke="transparent" points="-4,4 -4,-480 654.9248,-480 654.9248,4 -4,4"/>
<!-- Node3 -->
<g id="node1" class="node">
<title>Node3</title>
<g id="a_node1"><a xlink:title=" ">
<polygon fill="#bfbfbf" stroke="#000000" points="245.4248,-434.5 245.4248,-475.5 401.4248,-475.5 401.4248,-434.5 245.4248,-434.5"/>
<text text-anchor="start" x="253.4248" y="-463.5" font-family="Helvetica,sans-Serif" font-size="10.00" fill="#000000">/home/pieter/GitHub</text>
<text text-anchor="start" x="253.4248" y="-452.5" font-family="Helvetica,sans-Serif" font-size="10.00" fill="#000000">/EAGLE&#45;ZYBO&#45;Linux/src</text>
<text text-anchor="middle" x="323.4248" y="-441.5" font-family="Helvetica,sans-Serif" font-size="10.00" fill="#000000">/grid&#45;finder/include/Pixel.hpp</text>
</a>
</g>
</g>
<!-- Node4 -->
<g id="node2" class="node">
<title>Node4</title>
<g id="a_node2"><a xlink:href="Bresenham_8hpp.html" target="_top" xlink:title=" ">
<polygon fill="#ffffff" stroke="#000000" points="323.4248,-356.5 323.4248,-397.5 511.4248,-397.5 511.4248,-356.5 323.4248,-356.5"/>
<text text-anchor="start" x="331.4248" y="-385.5" font-family="Helvetica,sans-Serif" font-size="10.00" fill="#000000">/home/pieter/GitHub</text>
<text text-anchor="start" x="331.4248" y="-374.5" font-family="Helvetica,sans-Serif" font-size="10.00" fill="#000000">/EAGLE&#45;ZYBO&#45;Linux/src</text>
<text text-anchor="middle" x="417.4248" y="-363.5" font-family="Helvetica,sans-Serif" font-size="10.00" fill="#000000">/grid&#45;finder/include/Bresenham.hpp</text>
</a>
</g>
</g>
<!-- Node3&#45;&gt;Node4 -->
<g id="edge1" class="edge">
<title>Node3&#45;&gt;Node4</title>
<path fill="none" stroke="#191970" d="M356.5511,-427.5122C368.3709,-417.7043 381.4767,-406.8293 392.4909,-397.6898"/>
<polygon fill="#191970" stroke="#191970" points="354.0757,-425.0182 348.6151,-434.0974 358.5457,-430.4051 354.0757,-425.0182"/>
</g>
<!-- Node9 -->
<g id="node7" class="node">
<title>Node9</title>
<g id="a_node7"><a xlink:href="HelperStructs_8hpp.html" target="_top" xlink:title=" ">
<polygon fill="#ffffff" stroke="#000000" points="26.4248,-273 26.4248,-314 224.4248,-314 224.4248,-273 26.4248,-273"/>
<text text-anchor="start" x="34.4248" y="-302" font-family="Helvetica,sans-Serif" font-size="10.00" fill="#000000">/home/pieter/GitHub</text>
<text text-anchor="start" x="34.4248" y="-291" font-family="Helvetica,sans-Serif" font-size="10.00" fill="#000000">/EAGLE&#45;ZYBO&#45;Linux/src</text>
<text text-anchor="middle" x="125.4248" y="-280" font-family="Helvetica,sans-Serif" font-size="10.00" fill="#000000">/grid&#45;finder/include/HelperStructs.hpp</text>
</a>
</g>
</g>
<!-- Node3&#45;&gt;Node9 -->
<g id="edge6" class="edge">
<title>Node3&#45;&gt;Node9</title>
<path fill="none" stroke="#191970" d="M235.4332,-436.0007C196.7648,-425.8976 157.2292,-412.5643 144.4248,-398 124.092,-374.8726 122.2017,-337.449 123.3448,-314.2232"/>
<polygon fill="#191970" stroke="#191970" points="234.6739,-439.419 245.2286,-438.4985 236.4035,-432.6361 234.6739,-439.419"/>
</g>
<!-- Node11 -->
<g id="node9" class="node">
<title>Node11</title>
<g id="a_node9"><a xlink:href="Line_8hpp.html" target="_top" xlink:title=" ">
<polygon fill="#ffffff" stroke="#000000" points="153.4248,-356.5 153.4248,-397.5 305.4248,-397.5 305.4248,-356.5 153.4248,-356.5"/>
<text text-anchor="start" x="161.4248" y="-385.5" font-family="Helvetica,sans-Serif" font-size="10.00" fill="#000000">/home/pieter/GitHub</text>
<text text-anchor="start" x="161.4248" y="-374.5" font-family="Helvetica,sans-Serif" font-size="10.00" fill="#000000">/EAGLE&#45;ZYBO&#45;Linux/src</text>
<text text-anchor="middle" x="229.4248" y="-363.5" font-family="Helvetica,sans-Serif" font-size="10.00" fill="#000000">/grid&#45;finder/include/Line.hpp</text>
</a>
</g>
</g>
<!-- Node3&#45;&gt;Node11 -->
<g id="edge11" class="edge">
<title>Node3&#45;&gt;Node11</title>
<path fill="none" stroke="#191970" d="M290.2985,-427.5122C278.4787,-417.7043 265.3729,-406.8293 254.3587,-397.6898"/>
<polygon fill="#191970" stroke="#191970" points="288.3039,-430.4051 298.2345,-434.0974 292.7739,-425.0182 288.3039,-430.4051"/>
</g>
<!-- Node13 -->
<g id="node11" class="node">
<title>Node13</title>
<g id="a_node11"><a xlink:href="Mask_8hpp.html" target="_top" xlink:title=" ">
<polygon fill="#ffffff" stroke="#000000" points="466.4248,-273 466.4248,-314 600.4248,-314 600.4248,-273 466.4248,-273"/>
<text text-anchor="start" x="474.4248" y="-302" font-family="Helvetica,sans-Serif" font-size="10.00" fill="#000000">/home/pieter/GitHub</text>
<text text-anchor="start" x="474.4248" y="-291" font-family="Helvetica,sans-Serif" font-size="10.00" fill="#000000">/EAGLE&#45;ZYBO&#45;Linux/src</text>
<text text-anchor="middle" x="533.4248" y="-280" font-family="Helvetica,sans-Serif" font-size="10.00" fill="#000000">/mask/include/Mask.hpp</text>
</a>
</g>
</g>
<!-- Node3&#45;&gt;Node13 -->
<g id="edge16" class="edge">
<title>Node3&#45;&gt;Node13</title>
<path fill="none" stroke="#191970" d="M411.4698,-439.3605C456.8425,-429.4498 505.7021,-415.2521 520.4248,-398 540.244,-374.7759 539.7375,-337.3818 536.9899,-314.1881"/>
<polygon fill="#191970" stroke="#191970" points="410.6049,-435.9661 401.5532,-441.4724 412.063,-442.8126 410.6049,-435.9661"/>
</g>
<!-- Node5 -->
<g id="node3" class="node">
<title>Node5</title>
<g id="a_node3"><a xlink:href="GridFinder_8hpp.html" target="_top" xlink:title=" ">
<polygon fill="#ffffff" stroke="#000000" points="207.9248,-184 207.9248,-225 388.9248,-225 388.9248,-184 207.9248,-184"/>
<text text-anchor="start" x="215.9248" y="-213" font-family="Helvetica,sans-Serif" font-size="10.00" fill="#000000">/home/pieter/GitHub</text>
<text text-anchor="start" x="215.9248" y="-202" font-family="Helvetica,sans-Serif" font-size="10.00" fill="#000000">/EAGLE&#45;ZYBO&#45;Linux/src</text>
<text text-anchor="middle" x="298.4248" y="-191" font-family="Helvetica,sans-Serif" font-size="10.00" fill="#000000">/grid&#45;finder/include/GridFinder.hpp</text>
</a>
</g>
</g>
<!-- Node4&#45;&gt;Node5 -->
<g id="edge2" class="edge">
<title>Node4&#45;&gt;Node5</title>
<path fill="none" stroke="#191970" d="M426.3033,-346.4628C431.2585,-323.0122 433.8771,-290.7315 419.4248,-267 407.8648,-248.0178 388.4801,-234.549 368.5756,-225.104"/>
<polygon fill="#191970" stroke="#191970" points="422.8871,-345.7007 423.9977,-356.2371 429.7001,-347.3078 422.8871,-345.7007"/>
</g>
<!-- Node6 -->
<g id="node4" class="node">
<title>Node6</title>
<g id="a_node4"><a xlink:href="LocationFinder_8cpp.html" target="_top" xlink:title=" ">
<polygon fill="#ffffff" stroke="#000000" points="222.4248,-89.5 222.4248,-141.5 374.4248,-141.5 374.4248,-89.5 222.4248,-89.5"/>
<text text-anchor="start" x="230.4248" y="-129.5" font-family="Helvetica,sans-Serif" font-size="10.00" fill="#000000">/home/pieter/GitHub</text>
<text text-anchor="start" x="230.4248" y="-118.5" font-family="Helvetica,sans-Serif" font-size="10.00" fill="#000000">/EAGLE&#45;ZYBO&#45;Linux/src</text>
<text text-anchor="start" x="230.4248" y="-107.5" font-family="Helvetica,sans-Serif" font-size="10.00" fill="#000000">/location&#45;finder/src/Location</text>
<text text-anchor="middle" x="298.4248" y="-96.5" font-family="Helvetica,sans-Serif" font-size="10.00" fill="#000000">Finder.cpp</text>
</a>
</g>
</g>
<!-- Node5&#45;&gt;Node6 -->
<g id="edge3" class="edge">
<title>Node5&#45;&gt;Node6</title>
<path fill="none" stroke="#191970" d="M298.4248,-173.56C298.4248,-163.1985 298.4248,-151.7526 298.4248,-141.7816"/>
<polygon fill="#191970" stroke="#191970" points="294.9249,-173.8579 298.4248,-183.8579 301.9249,-173.8579 294.9249,-173.8579"/>
</g>
<!-- Node7 -->
<g id="node5" class="node">
<title>Node7</title>
<g id="a_node5"><a xlink:href="Grid-Finder_8module_8hpp.html" target="_top" xlink:title=" ">
<polygon fill="#ffffff" stroke="#000000" points="58.9248,-89.5 58.9248,-141.5 191.9248,-141.5 191.9248,-89.5 58.9248,-89.5"/>
<text text-anchor="start" x="66.9248" y="-129.5" font-family="Helvetica,sans-Serif" font-size="10.00" fill="#000000">/home/pieter/GitHub</text>
<text text-anchor="start" x="66.9248" y="-118.5" font-family="Helvetica,sans-Serif" font-size="10.00" fill="#000000">/EAGLE&#45;ZYBO&#45;Linux/src</text>
<text text-anchor="start" x="66.9248" y="-107.5" font-family="Helvetica,sans-Serif" font-size="10.00" fill="#000000">/py&#45;grid&#45;finder/include</text>
<text text-anchor="middle" x="125.4248" y="-96.5" font-family="Helvetica,sans-Serif" font-size="10.00" fill="#000000">/Grid&#45;Finder.module.hpp</text>
</a>
</g>
</g>
<!-- Node5&#45;&gt;Node7 -->
<g id="edge4" class="edge">
<title>Node5&#45;&gt;Node7</title>
<path fill="none" stroke="#191970" d="M249.1293,-179.1399C226.2998,-167.3952 199.199,-153.4532 176.1907,-141.6166"/>
<polygon fill="#191970" stroke="#191970" points="247.8069,-182.3955 258.3003,-183.8579 251.0091,-176.1709 247.8069,-182.3955"/>
</g>
<!-- Node8 -->
<g id="node6" class="node">
<title>Node8</title>
<g id="a_node6"><a xlink:href="Grid-Finder_8module_8cpp.html" target="_top" xlink:title=" ">
<polygon fill="#ffffff" stroke="#000000" points="60.9248,-.5 60.9248,-52.5 189.9248,-52.5 189.9248,-.5 60.9248,-.5"/>
<text text-anchor="start" x="68.9248" y="-40.5" font-family="Helvetica,sans-Serif" font-size="10.00" fill="#000000">/home/pieter/GitHub</text>
<text text-anchor="start" x="68.9248" y="-29.5" font-family="Helvetica,sans-Serif" font-size="10.00" fill="#000000">/EAGLE&#45;ZYBO&#45;Linux/src</text>
<text text-anchor="start" x="68.9248" y="-18.5" font-family="Helvetica,sans-Serif" font-size="10.00" fill="#000000">/py&#45;grid&#45;finder/src/Grid</text>
<text text-anchor="middle" x="125.4248" y="-7.5" font-family="Helvetica,sans-Serif" font-size="10.00" fill="#000000">&#45;Finder.module.cpp</text>
</a>
</g>
</g>
<!-- Node7&#45;&gt;Node8 -->
<g id="edge5" class="edge">
<title>Node7&#45;&gt;Node8</title>
<path fill="none" stroke="#191970" d="M125.4248,-79.1155C125.4248,-70.2061 125.4248,-60.8475 125.4248,-52.5341"/>
<polygon fill="#191970" stroke="#191970" points="121.9249,-79.2784 125.4248,-89.2784 128.9249,-79.2785 121.9249,-79.2784"/>
</g>
<!-- Node9&#45;&gt;Node5 -->
<g id="edge7" class="edge">
<title>Node9&#45;&gt;Node5</title>
<path fill="none" stroke="#191970" d="M174.6769,-268.1622C201.2252,-254.5044 233.5597,-237.8699 258.5179,-225.0301"/>
<polygon fill="#191970" stroke="#191970" points="172.8405,-265.1709 165.5493,-272.8579 176.0428,-271.3955 172.8405,-265.1709"/>
</g>
<!-- Node10 -->
<g id="node8" class="node">
<title>Node10</title>
<g id="a_node8"><a xlink:href="LocationFinder_8hpp.html" target="_top" xlink:title=" ">
<polygon fill="#ffffff" stroke="#000000" points="60.9248,-178.5 60.9248,-230.5 189.9248,-230.5 189.9248,-178.5 60.9248,-178.5"/>
<text text-anchor="start" x="68.9248" y="-218.5" font-family="Helvetica,sans-Serif" font-size="10.00" fill="#000000">/home/pieter/GitHub</text>
<text text-anchor="start" x="68.9248" y="-207.5" font-family="Helvetica,sans-Serif" font-size="10.00" fill="#000000">/EAGLE&#45;ZYBO&#45;Linux/src</text>
<text text-anchor="start" x="68.9248" y="-196.5" font-family="Helvetica,sans-Serif" font-size="10.00" fill="#000000">/location&#45;finder/include</text>
<text text-anchor="middle" x="125.4248" y="-185.5" font-family="Helvetica,sans-Serif" font-size="10.00" fill="#000000">/LocationFinder.hpp</text>
</a>
</g>
</g>
<!-- Node9&#45;&gt;Node10 -->
<g id="edge8" class="edge">
<title>Node9&#45;&gt;Node10</title>
<path fill="none" stroke="#191970" d="M125.4248,-262.56C125.4248,-252.1985 125.4248,-240.7526 125.4248,-230.7816"/>
<polygon fill="#191970" stroke="#191970" points="121.9249,-262.8579 125.4248,-272.8579 128.9249,-262.8579 121.9249,-262.8579"/>
</g>
<!-- Node10&#45;&gt;Node6 -->
<g id="edge9" class="edge">
<title>Node10&#45;&gt;Node6</title>
<path fill="none" stroke="#191970" d="M185.5573,-173.5648C205.8675,-163.1162 228.3221,-151.5644 247.8191,-141.5341"/>
<polygon fill="#191970" stroke="#191970" points="183.686,-170.5914 176.3948,-178.2784 186.8882,-176.816 183.686,-170.5914"/>
</g>
<!-- Node10&#45;&gt;Node7 -->
<g id="edge10" class="edge">
<title>Node10&#45;&gt;Node7</title>
<path fill="none" stroke="#191970" d="M125.4248,-168.1155C125.4248,-159.2061 125.4248,-149.8475 125.4248,-141.5341"/>
<polygon fill="#191970" stroke="#191970" points="121.9249,-168.2784 125.4248,-178.2784 128.9249,-168.2785 121.9249,-168.2784"/>
</g>
<!-- Node11&#45;&gt;Node5 -->
<g id="edge12" class="edge">
<title>Node11&#45;&gt;Node5</title>
<path fill="none" stroke="#191970" d="M240.6012,-346.6794C248.87,-324.5104 260.5393,-293.7661 271.4248,-267 277.1245,-252.9852 283.8745,-237.3602 289.1996,-225.2389"/>
<polygon fill="#191970" stroke="#191970" points="237.2597,-345.6237 237.0563,-356.2166 243.8211,-348.0626 237.2597,-345.6237"/>
</g>
<!-- Node11&#45;&gt;Node7 -->
<g id="edge15" class="edge">
<title>Node11&#45;&gt;Node7</title>
<path fill="none" stroke="#191970" d="M143.4594,-364.6748C91.8242,-355.315 33.1642,-340.5301 17.4248,-320 -22.0587,-268.4984 13.8676,-230.9227 51.4248,-178 61.1571,-164.2861 74.5775,-151.7494 87.3197,-141.5628"/>
<polygon fill="#191970" stroke="#191970" points="142.8862,-368.1277 153.342,-366.417 144.1015,-361.234 142.8862,-368.1277"/>
</g>
<!-- Node11&#45;&gt;Node9 -->
<g id="edge13" class="edge">
<title>Node11&#45;&gt;Node9</title>
<path fill="none" stroke="#191970" d="M195.5177,-349.7765C181.1088,-338.2079 164.5827,-324.9393 151.1974,-314.1924"/>
<polygon fill="#191970" stroke="#191970" points="193.728,-352.8281 203.7169,-356.3595 198.1105,-347.3697 193.728,-352.8281"/>
</g>
<!-- Node12 -->
<g id="node10" class="node">
<title>Node12</title>
<g id="a_node10"><a xlink:href="LocationTracker_8hpp.html" target="_top" xlink:title=" ">
<polygon fill="#ffffff" stroke="#000000" points="280.9248,-267.5 280.9248,-319.5 409.9248,-319.5 409.9248,-267.5 280.9248,-267.5"/>
<text text-anchor="start" x="288.9248" y="-307.5" font-family="Helvetica,sans-Serif" font-size="10.00" fill="#000000">/home/pieter/GitHub</text>
<text text-anchor="start" x="288.9248" y="-296.5" font-family="Helvetica,sans-Serif" font-size="10.00" fill="#000000">/EAGLE&#45;ZYBO&#45;Linux/src</text>
<text text-anchor="start" x="288.9248" y="-285.5" font-family="Helvetica,sans-Serif" font-size="10.00" fill="#000000">/location&#45;finder/include</text>
<text text-anchor="middle" x="345.4248" y="-274.5" font-family="Helvetica,sans-Serif" font-size="10.00" fill="#000000">/LocationTracker.hpp</text>
</a>
</g>
</g>
<!-- Node11&#45;&gt;Node12 -->
<g id="edge14" class="edge">
<title>Node11&#45;&gt;Node12</title>
<path fill="none" stroke="#191970" d="M266.3557,-350.4161C280.0457,-340.5617 295.548,-329.4027 309.1765,-319.5925"/>
<polygon fill="#191970" stroke="#191970" points="264.1702,-347.6768 258.099,-356.3595 268.2598,-353.358 264.1702,-347.6768"/>
</g>
<!-- Node13&#45;&gt;Node5 -->
<g id="edge17" class="edge">
<title>Node13&#45;&gt;Node5</title>
<path fill="none" stroke="#191970" d="M469.6361,-269.3417C433.0595,-255.4893 387.6349,-238.286 352.7675,-225.0808"/>
<polygon fill="#191970" stroke="#191970" points="468.6246,-272.7012 479.216,-272.9699 471.1038,-266.1549 468.6246,-272.7012"/>
</g>
<!-- Node13&#45;&gt;Node6 -->
<g id="edge18" class="edge">
<title>Node13&#45;&gt;Node6</title>
<path fill="none" stroke="#191970" d="M503.8759,-265.9699C477.2102,-241.6815 436.4465,-205.9063 398.4248,-178 380.9299,-165.1595 360.7782,-152.237 343.1693,-141.502"/>
<polygon fill="#191970" stroke="#191970" points="501.6054,-268.6365 511.3443,-272.8082 506.3325,-263.4737 501.6054,-268.6365"/>
</g>
<!-- Node14 -->
<g id="node12" class="node">
<title>Node14</title>
<g id="a_node12"><a xlink:href="GenerateMask-Unroll_8ipp.html" target="_top" xlink:title=" ">
<polygon fill="#ffffff" stroke="#000000" points="513.9248,-178.5 513.9248,-230.5 650.9248,-230.5 650.9248,-178.5 513.9248,-178.5"/>
<text text-anchor="start" x="521.9248" y="-218.5" font-family="Helvetica,sans-Serif" font-size="10.00" fill="#000000">/home/pieter/GitHub</text>
<text text-anchor="start" x="521.9248" y="-207.5" font-family="Helvetica,sans-Serif" font-size="10.00" fill="#000000">/EAGLE&#45;ZYBO&#45;Linux/src</text>
<text text-anchor="start" x="521.9248" y="-196.5" font-family="Helvetica,sans-Serif" font-size="10.00" fill="#000000">/mask/src/GenerateMask</text>
<text text-anchor="middle" x="582.4248" y="-185.5" font-family="Helvetica,sans-Serif" font-size="10.00" fill="#000000">&#45;Unroll.ipp</text>
</a>
</g>
</g>
<!-- Node13&#45;&gt;Node14 -->
<g id="edge19" class="edge">
<title>Node13&#45;&gt;Node14</title>
<path fill="none" stroke="#191970" d="M549.7419,-263.8628C555.6317,-253.165 562.2344,-241.1724 567.9552,-230.7816"/>
<polygon fill="#191970" stroke="#191970" points="546.5465,-262.4098 544.7896,-272.8579 552.6786,-265.7859 546.5465,-262.4098"/>
</g>
<!-- Node15 -->
<g id="node13" class="node">
<title>Node15</title>
<g id="a_node13"><a xlink:href="Mask_8cpp.html" target="_top" xlink:title=" ">
<polygon fill="#ffffff" stroke="#000000" points="430.9248,-95 430.9248,-136 559.9248,-136 559.9248,-95 430.9248,-95"/>
<text text-anchor="start" x="438.9248" y="-124" font-family="Helvetica,sans-Serif" font-size="10.00" fill="#000000">/home/pieter/GitHub</text>
<text text-anchor="start" x="438.9248" y="-113" font-family="Helvetica,sans-Serif" font-size="10.00" fill="#000000">/EAGLE&#45;ZYBO&#45;Linux/src</text>
<text text-anchor="middle" x="495.4248" y="-102" font-family="Helvetica,sans-Serif" font-size="10.00" fill="#000000">/mask/src/Mask.cpp</text>
</a>
</g>
</g>
<!-- Node13&#45;&gt;Node15 -->
<g id="edge21" class="edge">
<title>Node13&#45;&gt;Node15</title>
<path fill="none" stroke="#191970" d="M517.5667,-263.5598C512.8945,-253.4758 508.2751,-241.9893 505.4248,-231 497.0366,-198.6591 495.3221,-159.6959 495.1534,-136.2971"/>
<polygon fill="#191970" stroke="#191970" points="514.5005,-265.2588 522.0065,-272.7362 520.8018,-262.21 514.5005,-265.2588"/>
</g>
<!-- Node14&#45;&gt;Node15 -->
<g id="edge20" class="edge">
<title>Node14&#45;&gt;Node15</title>
<path fill="none" stroke="#191970" d="M549.4943,-170.8125C538.109,-159.1654 525.6954,-146.4665 515.6373,-136.1771"/>
<polygon fill="#191970" stroke="#191970" points="547.2994,-173.5741 556.7925,-178.2784 552.305,-168.6808 547.2994,-173.5741"/>
</g>
</g>
</svg>
