<?xml version="1.0" encoding="UTF-8" standalone="no"?>
<!DOCTYPE svg PUBLIC "-//W3C//DTD SVG 1.1//EN"
 "http://www.w3.org/Graphics/SVG/1.1/DTD/svg11.dtd">
<!-- Generated by graphviz version 2.40.1 (20161225.0304)
 -->
<!-- Title: /home/pieter/GitHub/EAGLE&#45;ZYBO&#45;Linux/src/grid&#45;finder/include/Pixel.hpp Pages: 1 -->
<svg width="441pt" height="284pt"
 viewBox="0.00 0.00 441.00 284.00" xmlns="http://www.w3.org/2000/svg" xmlns:xlink="http://www.w3.org/1999/xlink">
<g id="graph0" class="graph" transform="scale(1 1) rotate(0) translate(4 280)">
<title>/home/pieter/GitHub/EAGLE&#45;ZYBO&#45;Linux/src/grid&#45;finder/include/Pixel.hpp</title>
<polygon fill="#ffffff" stroke="transparent" points="-4,4 -4,-280 437,-280 437,4 -4,4"/>
<!-- Node3 -->
<g id="node1" class="node">
<title>Node3</title>
<g id="a_node1"><a xlink:title=" ">
<polygon fill="#bfbfbf" stroke="#000000" points="175,-234.5 175,-275.5 331,-275.5 331,-234.5 175,-234.5"/>
<text text-anchor="start" x="183" y="-263.5" font-family="Helvetica,sans-Serif" font-size="10.00" fill="#000000">/home/pieter/GitHub</text>
<text text-anchor="start" x="183" y="-252.5" font-family="Helvetica,sans-Serif" font-size="10.00" fill="#000000">/EAGLE&#45;ZYBO&#45;Linux/src</text>
<text text-anchor="middle" x="253" y="-241.5" font-family="Helvetica,sans-Serif" font-size="10.00" fill="#000000">/grid&#45;finder/include/Pixel.hpp</text>
</a>
</g>
</g>
<!-- Node4 -->
<g id="node2" class="node">
<title>Node4</title>
<g id="a_node2"><a xlink:href="Bresenham_8hpp.html" target="_top" xlink:title=" ">
<polygon fill="#ffffff" stroke="#000000" points="0,-78.5 0,-119.5 188,-119.5 188,-78.5 0,-78.5"/>
<text text-anchor="start" x="8" y="-107.5" font-family="Helvetica,sans-Serif" font-size="10.00" fill="#000000">/home/pieter/GitHub</text>
<text text-anchor="start" x="8" y="-96.5" font-family="Helvetica,sans-Serif" font-size="10.00" fill="#000000">/EAGLE&#45;ZYBO&#45;Linux/src</text>
<text text-anchor="middle" x="94" y="-85.5" font-family="Helvetica,sans-Serif" font-size="10.00" fill="#000000">/grid&#45;finder/include/Bresenham.hpp</text>
</a>
</g>
</g>
<!-- Node3&#45;&gt;Node4 -->
<g id="edge1" class="edge">
<title>Node3&#45;&gt;Node4</title>
<path fill="none" stroke="#191970" d="M224.6948,-227.2289C193.2134,-196.3414 143.0941,-147.1678 114.9481,-119.5528"/>
<polygon fill="#191970" stroke="#191970" points="222.2967,-229.7793 231.886,-234.2844 227.1991,-224.7826 222.2967,-229.7793"/>
</g>
<!-- Node6 -->
<g id="node4" class="node">
<title>Node6</title>
<g id="a_node4"><a xlink:href="HelperStructs_8hpp.html" target="_top" xlink:title=" ">
<polygon fill="#ffffff" stroke="#000000" points="206,-78.5 206,-119.5 404,-119.5 404,-78.5 206,-78.5"/>
<text text-anchor="start" x="214" y="-107.5" font-family="Helvetica,sans-Serif" font-size="10.00" fill="#000000">/home/pieter/GitHub</text>
<text text-anchor="start" x="214" y="-96.5" font-family="Helvetica,sans-Serif" font-size="10.00" fill="#000000">/EAGLE&#45;ZYBO&#45;Linux/src</text>
<text text-anchor="middle" x="305" y="-85.5" font-family="Helvetica,sans-Serif" font-size="10.00" fill="#000000">/grid&#45;finder/include/HelperStructs.hpp</text>
</a>
</g>
</g>
<!-- Node3&#45;&gt;Node6 -->
<g id="edge3" class="edge">
<title>Node3&#45;&gt;Node6</title>
<path fill="none" stroke="#191970" d="M256.1982,-224.2931C258.9228,-204.3689 263.7524,-178.0987 272,-156 276.7579,-143.2517 284.223,-130.0388 290.8505,-119.5479"/>
<polygon fill="#191970" stroke="#191970" points="252.7076,-223.9996 254.9256,-234.3596 259.6523,-224.8776 252.7076,-223.9996"/>
</g>
<!-- Node7 -->
<g id="node5" class="node">
<title>Node7</title>
<g id="a_node5"><a xlink:href="Line_8hpp.html" target="_top" xlink:title=" ">
<polygon fill="#ffffff" stroke="#000000" points="281,-156.5 281,-197.5 433,-197.5 433,-156.5 281,-156.5"/>
<text text-anchor="start" x="289" y="-185.5" font-family="Helvetica,sans-Serif" font-size="10.00" fill="#000000">/home/pieter/GitHub</text>
<text text-anchor="start" x="289" y="-174.5" font-family="Helvetica,sans-Serif" font-size="10.00" fill="#000000">/EAGLE&#45;ZYBO&#45;Linux/src</text>
<text text-anchor="middle" x="357" y="-163.5" font-family="Helvetica,sans-Serif" font-size="10.00" fill="#000000">/grid&#45;finder/include/Line.hpp</text>
</a>
</g>
</g>
<!-- Node3&#45;&gt;Node7 -->
<g id="edge5" class="edge">
<title>Node3&#45;&gt;Node7</title>
<path fill="none" stroke="#191970" d="M288.6971,-228.2272C302.0985,-218.1761 317.1071,-206.9196 329.6349,-197.5239"/>
<polygon fill="#191970" stroke="#191970" points="286.4971,-225.5022 280.597,-234.3022 290.6971,-231.1022 286.4971,-225.5022"/>
</g>
<!-- Node5 -->
<g id="node3" class="node">
<title>Node5</title>
<g id="a_node3"><a xlink:href="GridFinder_8hpp.html" target="_top" xlink:title=" ">
<polygon fill="#ffffff" stroke="#000000" points="214.5,-.5 214.5,-41.5 395.5,-41.5 395.5,-.5 214.5,-.5"/>
<text text-anchor="start" x="222.5" y="-29.5" font-family="Helvetica,sans-Serif" font-size="10.00" fill="#000000">/home/pieter/GitHub</text>
<text text-anchor="start" x="222.5" y="-18.5" font-family="Helvetica,sans-Serif" font-size="10.00" fill="#000000">/EAGLE&#45;ZYBO&#45;Linux/src</text>
<text text-anchor="middle" x="305" y="-7.5" font-family="Helvetica,sans-Serif" font-size="10.00" fill="#000000">/grid&#45;finder/include/GridFinder.hpp</text>
</a>
</g>
</g>
<!-- Node4&#45;&gt;Node5 -->
<g id="edge2" class="edge">
<title>Node4&#45;&gt;Node5</title>
<path fill="none" stroke="#191970" d="M159.2999,-74.8607C188.145,-64.1976 221.7046,-51.7917 249.3402,-41.5757"/>
<polygon fill="#191970" stroke="#191970" points="157.8798,-71.6541 149.7138,-78.4044 160.307,-78.2198 157.8798,-71.6541"/>
</g>
<!-- Node6&#45;&gt;Node5 -->
<g id="edge4" class="edge">
<title>Node6&#45;&gt;Node5</title>
<path fill="none" stroke="#191970" d="M305,-68.0789C305,-59.2178 305,-49.7747 305,-41.6898"/>
<polygon fill="#191970" stroke="#191970" points="301.5001,-68.0974 305,-78.0974 308.5001,-68.0975 301.5001,-68.0974"/>
</g>
<!-- Node7&#45;&gt;Node5 -->
<g id="edge6" class="edge">
<title>Node7&#45;&gt;Node5</title>
<path fill="none" stroke="#191970" d="M392.5802,-149.311C400.8482,-140.8826 408.5317,-130.924 413,-120 420.067,-102.7228 422.6386,-93.9857 413,-78 403.3116,-61.9318 387.4147,-50.1611 370.7597,-41.637"/>
<polygon fill="#191970" stroke="#191970" points="390.0587,-146.8791 385.23,-156.3096 394.8857,-151.9486 390.0587,-146.8791"/>
</g>
<!-- Node7&#45;&gt;Node6 -->
<g id="edge7" class="edge">
<title>Node7&#45;&gt;Node6</title>
<path fill="none" stroke="#191970" d="M337.3454,-147.5181C331.1655,-138.2482 324.4761,-128.2141 318.7932,-119.6898"/>
<polygon fill="#191970" stroke="#191970" points="334.6057,-149.7184 343.065,-156.0974 340.4301,-145.8354 334.6057,-149.7184"/>
</g>
</g>
</svg>
