<?xml version="1.0" encoding="UTF-8" standalone="no"?>
<!DOCTYPE svg PUBLIC "-//W3C//DTD SVG 1.1//EN"
 "http://www.w3.org/Graphics/SVG/1.1/DTD/svg11.dtd">
<!-- Generated by graphviz version 2.40.1 (20161225.0304)
 -->
<!-- Title: /home/pieter/GitHub/Crypto/src/grid&#45;finder/include/Pixel.hpp Pages: 1 -->
<svg width="140pt" height="106pt"
 viewBox="0.00 0.00 139.50 106.00" xmlns="http://www.w3.org/2000/svg" xmlns:xlink="http://www.w3.org/1999/xlink">
<g id="graph0" class="graph" transform="scale(1 1) rotate(0) translate(4 102)">
<title>/home/pieter/GitHub/Crypto/src/grid&#45;finder/include/Pixel.hpp</title>
<polygon fill="#ffffff" stroke="transparent" points="-4,4 -4,-102 135.5,-102 135.5,4 -4,4"/>
<!-- Node0 -->
<g id="node1" class="node">
<title>Node0</title>
<g id="a_node1"><a xlink:title=" ">
<polygon fill="#bfbfbf" stroke="#000000" points="4,-56.5 4,-97.5 126,-97.5 126,-56.5 4,-56.5"/>
<text text-anchor="start" x="12" y="-85.5" font-family="Helvetica,sans-Serif" font-size="10.00" fill="#000000">/home/pieter/GitHub</text>
<text text-anchor="start" x="12" y="-74.5" font-family="Helvetica,sans-Serif" font-size="10.00" fill="#000000">/Crypto/src/grid&#45;finder</text>
<text text-anchor="middle" x="65" y="-63.5" font-family="Helvetica,sans-Serif" font-size="10.00" fill="#000000">/include/Pixel.hpp</text>
</a>
</g>
</g>
<!-- Node1 -->
<g id="node2" class="node">
<title>Node1</title>
<g id="a_node2"><a xlink:href="uint_8hpp.html" target="_top" xlink:title=" ">
<polygon fill="#ffffff" stroke="#000000" points="0,-.5 0,-19.5 56,-19.5 56,-.5 0,-.5"/>
<text text-anchor="middle" x="28" y="-7.5" font-family="Helvetica,sans-Serif" font-size="10.00" fill="#000000">uint.hpp</text>
</a>
</g>
</g>
<!-- Node0&#45;&gt;Node1 -->
<g id="edge1" class="edge">
<title>Node0&#45;&gt;Node1</title>
<path fill="none" stroke="#191970" d="M53.4958,-56.168C48.6252,-47.3484 42.996,-37.155 38.2679,-28.5933"/>
<polygon fill="#191970" stroke="#191970" points="41.2993,-26.8424 33.4012,-19.7805 35.1716,-30.2263 41.2993,-26.8424"/>
</g>
<!-- Node2 -->
<g id="node3" class="node">
<title>Node2</title>
<g id="a_node3"><a xlink:title=" ">
<polygon fill="#ffffff" stroke="#bfbfbf" points="74.5,-.5 74.5,-19.5 131.5,-19.5 131.5,-.5 74.5,-.5"/>
<text text-anchor="middle" x="103" y="-7.5" font-family="Helvetica,sans-Serif" font-size="10.00" fill="#000000">ostream</text>
</a>
</g>
</g>
<!-- Node0&#45;&gt;Node2 -->
<g id="edge2" class="edge">
<title>Node0&#45;&gt;Node2</title>
<path fill="none" stroke="#191970" d="M76.8151,-56.168C81.8173,-47.3484 87.5987,-37.155 92.4545,-28.5933"/>
<polygon fill="#191970" stroke="#191970" points="95.5638,-30.2056 97.4529,-19.7805 89.475,-26.7521 95.5638,-30.2056"/>
</g>
</g>
</svg>
