<?xml version="1.0" encoding="UTF-8" standalone="no"?>
<!DOCTYPE svg PUBLIC "-//W3C//DTD SVG 1.1//EN"
 "http://www.w3.org/Graphics/SVG/1.1/DTD/svg11.dtd">
<!-- Generated by graphviz version 2.40.1 (20161225.0304)
 -->
<!-- Title: /home/pieter/GitHub/EAGLE&#45;ZYBO&#45;Linux/src/py&#45;matrix/include/PyMatrix.hpp Pages: 1 -->
<svg width="500pt" height="218pt"
 viewBox="0.00 0.00 500.00 218.00" xmlns="http://www.w3.org/2000/svg" xmlns:xlink="http://www.w3.org/1999/xlink">
<g id="graph0" class="graph" transform="scale(1 1) rotate(0) translate(4 214)">
<title>/home/pieter/GitHub/EAGLE&#45;ZYBO&#45;Linux/src/py&#45;matrix/include/PyMatrix.hpp</title>
<polygon fill="#ffffff" stroke="transparent" points="-4,4 -4,-214 496,-214 496,4 -4,4"/>
<!-- Node0 -->
<g id="node1" class="node">
<title>Node0</title>
<g id="a_node1"><a xlink:title=" ">
<polygon fill="#bfbfbf" stroke="#000000" points="67.5,-168.5 67.5,-209.5 240.5,-209.5 240.5,-168.5 67.5,-168.5"/>
<text text-anchor="start" x="75.5" y="-197.5" font-family="Helvetica,sans-Serif" font-size="10.00" fill="#000000">/home/pieter/GitHub</text>
<text text-anchor="start" x="75.5" y="-186.5" font-family="Helvetica,sans-Serif" font-size="10.00" fill="#000000">/EAGLE&#45;ZYBO&#45;Linux/src</text>
<text text-anchor="middle" x="154" y="-175.5" font-family="Helvetica,sans-Serif" font-size="10.00" fill="#000000">/py&#45;matrix/include/PyMatrix.hpp</text>
</a>
</g>
</g>
<!-- Node1 -->
<g id="node2" class="node">
<title>Node1</title>
<g id="a_node2"><a xlink:title=" ">
<polygon fill="#ffffff" stroke="#bfbfbf" points="0,-112.5 0,-131.5 106,-131.5 106,-112.5 0,-112.5"/>
<text text-anchor="middle" x="53" y="-119.5" font-family="Helvetica,sans-Serif" font-size="10.00" fill="#000000">pybind11/numpy.h</text>
</a>
</g>
</g>
<!-- Node0&#45;&gt;Node1 -->
<g id="edge1" class="edge">
<title>Node0&#45;&gt;Node1</title>
<path fill="none" stroke="#191970" d="M122.8725,-168.3511C107.7528,-158.3212 89.9022,-146.4797 76.0283,-137.2762"/>
<polygon fill="#191970" stroke="#191970" points="77.822,-134.266 67.554,-131.6546 73.9524,-140.0992 77.822,-134.266"/>
</g>
<!-- Node2 -->
<g id="node3" class="node">
<title>Node2</title>
<g id="a_node3"><a xlink:title=" ">
<polygon fill="#ffffff" stroke="#bfbfbf" points="124,-112.5 124,-131.5 184,-131.5 184,-112.5 124,-112.5"/>
<text text-anchor="middle" x="154" y="-119.5" font-family="Helvetica,sans-Serif" font-size="10.00" fill="#000000">iostream</text>
</a>
</g>
</g>
<!-- Node0&#45;&gt;Node2 -->
<g id="edge2" class="edge">
<title>Node0&#45;&gt;Node2</title>
<path fill="none" stroke="#191970" d="M154,-168.168C154,-159.8226 154,-150.2471 154,-141.9879"/>
<polygon fill="#191970" stroke="#191970" points="157.5001,-141.7804 154,-131.7805 150.5001,-141.7805 157.5001,-141.7804"/>
</g>
<!-- Node3 -->
<g id="node4" class="node">
<title>Node3</title>
<g id="a_node4"><a xlink:href="Matrix_8hpp.html" target="_top" xlink:title=" ">
<polygon fill="#ffffff" stroke="#000000" points="202,-112.5 202,-131.5 270,-131.5 270,-112.5 202,-112.5"/>
<text text-anchor="middle" x="236" y="-119.5" font-family="Helvetica,sans-Serif" font-size="10.00" fill="#000000">Matrix.hpp</text>
</a>
</g>
</g>
<!-- Node0&#45;&gt;Node3 -->
<g id="edge3" class="edge">
<title>Node0&#45;&gt;Node3</title>
<path fill="none" stroke="#191970" d="M179.4958,-168.168C191.3346,-158.4949 205.1959,-147.1692 216.2267,-138.1562"/>
<polygon fill="#191970" stroke="#191970" points="218.5006,-140.8181 224.0299,-131.7805 214.0715,-135.3974 218.5006,-140.8181"/>
</g>
<!-- Node4 -->
<g id="node5" class="node">
<title>Node4</title>
<g id="a_node5"><a xlink:href="Array_8hpp.html" target="_top" xlink:title=" ">
<polygon fill="#ffffff" stroke="#000000" points="205,-56.5 205,-75.5 267,-75.5 267,-56.5 205,-56.5"/>
<text text-anchor="middle" x="236" y="-63.5" font-family="Helvetica,sans-Serif" font-size="10.00" fill="#000000">Array.hpp</text>
</a>
</g>
</g>
<!-- Node3&#45;&gt;Node4 -->
<g id="edge4" class="edge">
<title>Node3&#45;&gt;Node4</title>
<path fill="none" stroke="#191970" d="M236,-112.2455C236,-104.9382 236,-94.6944 236,-85.7046"/>
<polygon fill="#191970" stroke="#191970" points="239.5001,-85.6426 236,-75.6427 232.5001,-85.6427 239.5001,-85.6426"/>
</g>
<!-- Node5 -->
<g id="node6" class="node">
<title>Node5</title>
<g id="a_node6"><a xlink:title=" ">
<polygon fill="#ffffff" stroke="#bfbfbf" points="59,-.5 59,-19.5 123,-19.5 123,-.5 59,-.5"/>
<text text-anchor="middle" x="91" y="-7.5" font-family="Helvetica,sans-Serif" font-size="10.00" fill="#000000">algorithm</text>
</a>
</g>
</g>
<!-- Node3&#45;&gt;Node5 -->
<g id="edge11" class="edge">
<title>Node3&#45;&gt;Node5</title>
<path fill="none" stroke="#191970" d="M223.6374,-112.4509C198.704,-93.1921 142.1667,-49.5218 111.5764,-25.8935"/>
<polygon fill="#191970" stroke="#191970" points="113.3849,-22.8679 103.3313,-19.5249 109.1059,-28.4078 113.3849,-22.8679"/>
</g>
<!-- Node6 -->
<g id="node7" class="node">
<title>Node6</title>
<g id="a_node7"><a xlink:title=" ">
<polygon fill="#ffffff" stroke="#bfbfbf" points="141.5,-.5 141.5,-19.5 188.5,-19.5 188.5,-.5 141.5,-.5"/>
<text text-anchor="middle" x="165" y="-7.5" font-family="Helvetica,sans-Serif" font-size="10.00" fill="#000000">cmath</text>
</a>
</g>
</g>
<!-- Node3&#45;&gt;Node6 -->
<g id="edge12" class="edge">
<title>Node3&#45;&gt;Node6</title>
<path fill="none" stroke="#191970" d="M226.247,-112.415C217.5646,-103.5282 204.8966,-89.6557 196,-76 186.3082,-61.1239 177.9314,-42.7382 172.3376,-29.1534"/>
<polygon fill="#191970" stroke="#191970" points="175.5792,-27.8331 168.6268,-19.8385 169.0762,-30.4238 175.5792,-27.8331"/>
</g>
<!-- Node11 -->
<g id="node12" class="node">
<title>Node11</title>
<g id="a_node12"><a xlink:title=" ">
<polygon fill="#ffffff" stroke="#bfbfbf" points="285,-56.5 285,-75.5 341,-75.5 341,-56.5 285,-56.5"/>
<text text-anchor="middle" x="313" y="-63.5" font-family="Helvetica,sans-Serif" font-size="10.00" fill="#000000">iomanip</text>
</a>
</g>
</g>
<!-- Node3&#45;&gt;Node11 -->
<g id="edge13" class="edge">
<title>Node3&#45;&gt;Node11</title>
<path fill="none" stroke="#191970" d="M249.4124,-112.2455C261.0057,-103.814 277.9748,-91.4729 291.4678,-81.6598"/>
<polygon fill="#191970" stroke="#191970" points="293.7126,-84.355 299.7413,-75.6427 289.5953,-78.6938 293.7126,-84.355"/>
</g>
<!-- Node12 -->
<g id="node13" class="node">
<title>Node12</title>
<g id="a_node13"><a xlink:title=" ">
<polygon fill="#ffffff" stroke="#bfbfbf" points="359.5,-56.5 359.5,-75.5 416.5,-75.5 416.5,-56.5 359.5,-56.5"/>
<text text-anchor="middle" x="388" y="-63.5" font-family="Helvetica,sans-Serif" font-size="10.00" fill="#000000">ostream</text>
</a>
</g>
</g>
<!-- Node3&#45;&gt;Node12 -->
<g id="edge14" class="edge">
<title>Node3&#45;&gt;Node12</title>
<path fill="none" stroke="#191970" d="M262.1297,-112.3733C287.0768,-103.1822 324.8592,-89.2624 352.5206,-79.0713"/>
<polygon fill="#191970" stroke="#191970" points="354.0378,-82.2424 362.2112,-75.5011 351.6178,-75.674 354.0378,-82.2424"/>
</g>
<!-- Node4&#45;&gt;Node5 -->
<g id="edge5" class="edge">
<title>Node4&#45;&gt;Node5</title>
<path fill="none" stroke="#191970" d="M211.0736,-56.3733C187.3798,-47.2226 151.5489,-33.3844 125.1932,-23.2057"/>
<polygon fill="#191970" stroke="#191970" points="126.1906,-19.8389 115.6011,-19.5011 123.6686,-26.3689 126.1906,-19.8389"/>
</g>
<!-- Node4&#45;&gt;Node6 -->
<g id="edge6" class="edge">
<title>Node4&#45;&gt;Node6</title>
<path fill="none" stroke="#191970" d="M223.6327,-56.2455C213.0446,-47.8943 197.5936,-35.7076 185.2107,-25.9408"/>
<polygon fill="#191970" stroke="#191970" points="187.2447,-23.0875 177.2255,-19.6427 182.9097,-28.5837 187.2447,-23.0875"/>
</g>
<!-- Node7 -->
<g id="node8" class="node">
<title>Node7</title>
<g id="a_node8"><a xlink:title=" ">
<polygon fill="#ffffff" stroke="#bfbfbf" points="364.5,-.5 364.5,-19.5 417.5,-19.5 417.5,-.5 364.5,-.5"/>
<text text-anchor="middle" x="391" y="-7.5" font-family="Helvetica,sans-Serif" font-size="10.00" fill="#000000">cstddef</text>
</a>
</g>
</g>
<!-- Node4&#45;&gt;Node7 -->
<g id="edge7" class="edge">
<title>Node4&#45;&gt;Node7</title>
<path fill="none" stroke="#191970" d="M262.6454,-56.3733C288.1964,-47.1419 326.9512,-33.1402 355.1909,-22.9375"/>
<polygon fill="#191970" stroke="#191970" points="356.4865,-26.1909 364.7022,-19.5011 354.1079,-19.6074 356.4865,-26.1909"/>
</g>
<!-- Node8 -->
<g id="node9" class="node">
<title>Node8</title>
<g id="a_node9"><a xlink:title=" ">
<polygon fill="#ffffff" stroke="#bfbfbf" points="436,-.5 436,-19.5 492,-19.5 492,-.5 436,-.5"/>
<text text-anchor="middle" x="464" y="-7.5" font-family="Helvetica,sans-Serif" font-size="10.00" fill="#000000">numeric</text>
</a>
</g>
</g>
<!-- Node4&#45;&gt;Node8 -->
<g id="edge8" class="edge">
<title>Node4&#45;&gt;Node8</title>
<path fill="none" stroke="#191970" d="M267.0006,-58.2143C270.0404,-57.4616 273.0794,-56.7132 276,-56 340.0118,-40.3685 358.4975,-37.2663 425.8964,-20.23"/>
<polygon fill="#191970" stroke="#191970" points="426.9098,-23.5839 435.7411,-17.7309 425.1873,-16.7991 426.9098,-23.5839"/>
</g>
<!-- Node9 -->
<g id="node10" class="node">
<title>Node9</title>
<g id="a_node10"><a xlink:title=" ">
<polygon fill="#ffffff" stroke="#bfbfbf" points="206.5,-.5 206.5,-19.5 275.5,-19.5 275.5,-.5 206.5,-.5"/>
<text text-anchor="middle" x="241" y="-7.5" font-family="Helvetica,sans-Serif" font-size="10.00" fill="#000000">type_traits</text>
</a>
</g>
</g>
<!-- Node4&#45;&gt;Node9 -->
<g id="edge9" class="edge">
<title>Node4&#45;&gt;Node9</title>
<path fill="none" stroke="#191970" d="M236.8709,-56.2455C237.5234,-48.9382 238.438,-38.6944 239.2407,-29.7046"/>
<polygon fill="#191970" stroke="#191970" points="242.7358,-29.9143 240.139,-19.6427 235.7635,-29.2918 242.7358,-29.9143"/>
</g>
<!-- Node10 -->
<g id="node11" class="node">
<title>Node10</title>
<g id="a_node11"><a xlink:title=" ">
<polygon fill="#ffffff" stroke="#bfbfbf" points="294,-.5 294,-19.5 346,-19.5 346,-.5 294,-.5"/>
<text text-anchor="middle" x="320" y="-7.5" font-family="Helvetica,sans-Serif" font-size="10.00" fill="#000000">cassert</text>
</a>
</g>
</g>
<!-- Node4&#45;&gt;Node10 -->
<g id="edge10" class="edge">
<title>Node4&#45;&gt;Node10</title>
<path fill="none" stroke="#191970" d="M250.6317,-56.2455C263.3994,-47.7337 282.1438,-35.2375 296.9299,-25.3801"/>
<polygon fill="#191970" stroke="#191970" points="299.1569,-28.1019 305.536,-19.6427 295.274,-22.2775 299.1569,-28.1019"/>
</g>
</g>
</svg>
