<?xml version="1.0" encoding="UTF-8" standalone="no"?>
<!DOCTYPE svg PUBLIC "-//W3C//DTD SVG 1.1//EN"
 "http://www.w3.org/Graphics/SVG/1.1/DTD/svg11.dtd">
<!-- Generated by graphviz version 2.40.1 (20161225.0304)
 -->
<!-- Title: PYBIND11_MODULE Pages: 1 -->
<svg width="521pt" height="370pt"
 viewBox="0.00 0.00 521.00 370.00" xmlns="http://www.w3.org/2000/svg" xmlns:xlink="http://www.w3.org/1999/xlink">
<g id="graph0" class="graph" transform="scale(1 1) rotate(0) translate(4 366)">
<title>PYBIND11_MODULE</title>
<polygon fill="#ffffff" stroke="transparent" points="-4,4 -4,-366 517,-366 517,4 -4,4"/>
<!-- Node0 -->
<g id="node1" class="node">
<title>Node0</title>
<g id="a_node1"><a xlink:title=" ">
<polygon fill="#bfbfbf" stroke="#000000" points="0,-171.5 0,-190.5 113,-190.5 113,-171.5 0,-171.5"/>
<text text-anchor="middle" x="56.5" y="-178.5" font-family="Helvetica,sans-Serif" font-size="10.00" fill="#000000">PYBIND11_MODULE</text>
</a>
</g>
</g>
<!-- Node1 -->
<g id="node2" class="node">
<title>Node1</title>
<g id="a_node2"><a xlink:href="EagleCrypt_8hpp.html#af6725f1d971b7e4c2fe372c3a79aacce" target="_top" xlink:title=" ">
<polygon fill="#ffffff" stroke="#000000" points="205,-342.5 205,-361.5 237,-361.5 237,-342.5 205,-342.5"/>
<text text-anchor="middle" x="221" y="-349.5" font-family="Helvetica,sans-Serif" font-size="10.00" fill="#000000">init</text>
</a>
</g>
</g>
<!-- Node0&#45;&gt;Node1 -->
<g id="edge1" class="edge">
<title>Node0&#45;&gt;Node1</title>
<path fill="none" stroke="#191970" d="M59.4764,-190.5846C68.347,-217.5115 97.2555,-294.3887 149,-333 162.2567,-342.8921 180.247,-347.6422 194.928,-349.9193"/>
<polygon fill="#191970" stroke="#191970" points="194.5589,-353.4004 204.9181,-351.1784 195.4343,-346.4553 194.5589,-353.4004"/>
</g>
<!-- Node2 -->
<g id="node3" class="node">
<title>Node2</title>
<g id="a_node3"><a xlink:href="classQuaternion.html#a5322c2374936202643effbfc72347396" target="_top" xlink:title=" ">
<polygon fill="#ffffff" stroke="#000000" points="154,-304.5 154,-323.5 288,-323.5 288,-304.5 154,-304.5"/>
<text text-anchor="middle" x="221" y="-311.5" font-family="Helvetica,sans-Serif" font-size="10.00" fill="#000000">Quaternion::asColVector</text>
</a>
</g>
</g>
<!-- Node0&#45;&gt;Node2 -->
<g id="edge2" class="edge">
<title>Node0&#45;&gt;Node2</title>
<path fill="none" stroke="#191970" d="M61.5155,-190.6755C73.4866,-212.7775 105.9689,-267.201 149,-295 152.1729,-297.0497 155.5594,-298.8791 159.0695,-300.5117"/>
<polygon fill="#191970" stroke="#191970" points="158.0061,-303.8577 168.5876,-304.3898 160.6475,-297.3752 158.0061,-303.8577"/>
</g>
<!-- Node3 -->
<g id="node4" class="node">
<title>Node3</title>
<g id="a_node4"><a xlink:href="classQuaternion.html#ada3751d11b6c9016db8f87f83577a05f" target="_top" xlink:title=" ">
<polygon fill="#ffffff" stroke="#000000" points="158.5,-266.5 158.5,-285.5 283.5,-285.5 283.5,-266.5 158.5,-266.5"/>
<text text-anchor="middle" x="221" y="-273.5" font-family="Helvetica,sans-Serif" font-size="10.00" fill="#000000">Quaternion::normalize</text>
</a>
</g>
</g>
<!-- Node0&#45;&gt;Node3 -->
<g id="edge3" class="edge">
<title>Node0&#45;&gt;Node3</title>
<path fill="none" stroke="#191970" d="M66.5281,-190.5435C82.7092,-205.4936 116.102,-234.5286 149,-252 157.1186,-256.3116 166.1595,-260.0556 175.017,-263.2212"/>
<polygon fill="#191970" stroke="#191970" points="173.9099,-266.5415 184.5042,-266.4287 176.1519,-259.9102 173.9099,-266.5415"/>
</g>
<!-- Node6 -->
<g id="node7" class="node">
<title>Node6</title>
<g id="a_node7"><a xlink:href="classQuaternion.html#a6e91003210134feacca7ffa1a59d0503" target="_top" xlink:title=" ">
<polygon fill="#ffffff" stroke="#000000" points="158.5,-152.5 158.5,-171.5 283.5,-171.5 283.5,-152.5 158.5,-152.5"/>
<text text-anchor="middle" x="221" y="-159.5" font-family="Helvetica,sans-Serif" font-size="10.00" fill="#000000">Quaternion::conjugate</text>
</a>
</g>
</g>
<!-- Node0&#45;&gt;Node6 -->
<g id="edge6" class="edge">
<title>Node0&#45;&gt;Node6</title>
<path fill="none" stroke="#191970" d="M113.1116,-174.4613C124.3969,-173.1578 136.3978,-171.7717 148.14,-170.4154"/>
<polygon fill="#191970" stroke="#191970" points="148.8355,-173.8585 158.3678,-169.2341 148.0323,-166.9047 148.8355,-173.8585"/>
</g>
<!-- Node7 -->
<g id="node8" class="node">
<title>Node7</title>
<g id="a_node8"><a xlink:href="AnglePrinter_8hpp.html#abfc21a37bdb6798aa713024439c8072e" target="_top" xlink:title=" ">
<polygon fill="#ffffff" stroke="#000000" points="178,-114.5 178,-133.5 264,-133.5 264,-114.5 178,-114.5"/>
<text text-anchor="middle" x="221" y="-121.5" font-family="Helvetica,sans-Serif" font-size="10.00" fill="#000000">asEulerAngles</text>
</a>
</g>
</g>
<!-- Node0&#45;&gt;Node7 -->
<g id="edge7" class="edge">
<title>Node0&#45;&gt;Node7</title>
<path fill="none" stroke="#191970" d="M77.5083,-171.4395C96.0638,-163.2205 123.983,-151.3988 149,-143 156.1581,-140.5969 163.7977,-138.3013 171.3265,-136.1893"/>
<polygon fill="#191970" stroke="#191970" points="172.3813,-139.5296 181.1103,-133.525 170.542,-132.7755 172.3813,-139.5296"/>
</g>
<!-- Node8 -->
<g id="node9" class="node">
<title>Node8</title>
<g id="a_node9"><a xlink:href="classQuaternion.html#af24e7ee5901df402f4203c70a8c6f203" target="_top" xlink:title=" ">
<polygon fill="#ffffff" stroke="#000000" points="329,-228.5 329,-247.5 424,-247.5 424,-228.5 329,-228.5"/>
<text text-anchor="middle" x="376.5" y="-235.5" font-family="Helvetica,sans-Serif" font-size="10.00" fill="#000000">Quaternion::unit</text>
</a>
</g>
</g>
<!-- Node0&#45;&gt;Node8 -->
<g id="edge8" class="edge">
<title>Node0&#45;&gt;Node8</title>
<path fill="none" stroke="#191970" d="M75.0642,-190.6164C93.348,-199.6031 122.333,-212.5714 149,-219 205.5973,-232.644 272.1459,-236.8858 318.5919,-238.0232"/>
<polygon fill="#191970" stroke="#191970" points="318.7028,-241.5261 328.7721,-238.2307 318.8455,-234.5276 318.7028,-241.5261"/>
</g>
<!-- Node9 -->
<g id="node10" class="node">
<title>Node9</title>
<g id="a_node10"><a xlink:href="classQuaternion.html#afee65eb7b0f6feb1c6c857e271e1d7d1" target="_top" xlink:title=" ">
<polygon fill="#ffffff" stroke="#000000" points="149,-190.5 149,-209.5 293,-209.5 293,-190.5 149,-190.5"/>
<text text-anchor="middle" x="221" y="-197.5" font-family="Helvetica,sans-Serif" font-size="10.00" fill="#000000">Quaternion::fromDirection</text>
</a>
</g>
</g>
<!-- Node0&#45;&gt;Node9 -->
<g id="edge9" class="edge">
<title>Node0&#45;&gt;Node9</title>
<path fill="none" stroke="#191970" d="M113.1116,-187.5387C121.3946,-188.4954 130.0631,-189.4967 138.7319,-190.4979"/>
<polygon fill="#191970" stroke="#191970" points="138.5497,-194.0001 148.8853,-191.6706 139.353,-187.0463 138.5497,-194.0001"/>
</g>
<!-- Node13 -->
<g id="node14" class="node">
<title>Node13</title>
<g id="a_node14"><a xlink:href="structEulerAngles.html#a34af5a34efe64342c4929b2ac0839a08" target="_top" xlink:title=" ">
<polygon fill="#ffffff" stroke="#000000" points="152,-76.5 152,-95.5 290,-95.5 290,-76.5 152,-76.5"/>
<text text-anchor="middle" x="221" y="-83.5" font-family="Helvetica,sans-Serif" font-size="10.00" fill="#000000">EulerAngles::asColVector</text>
</a>
</g>
</g>
<!-- Node0&#45;&gt;Node13 -->
<g id="edge15" class="edge">
<title>Node0&#45;&gt;Node13</title>
<path fill="none" stroke="#191970" d="M65.4961,-171.2708C80.9913,-155.0952 114.3989,-122.7024 149,-105 153.5587,-102.6677 158.4303,-100.6023 163.409,-98.777"/>
<polygon fill="#191970" stroke="#191970" points="164.6833,-102.0416 173.0609,-95.5558 162.4672,-95.4016 164.6833,-102.0416"/>
</g>
<!-- Node14 -->
<g id="node15" class="node">
<title>Node14</title>
<g id="a_node15"><a xlink:href="structEulerAngles.html#a087311bdbaaa33589e8cae9a848b91b3" target="_top" xlink:title=" ">
<polygon fill="#ffffff" stroke="#000000" points="159.5,-38.5 159.5,-57.5 282.5,-57.5 282.5,-38.5 159.5,-38.5"/>
<text text-anchor="middle" x="221" y="-45.5" font-family="Helvetica,sans-Serif" font-size="10.00" fill="#000000">EulerAngles::quat2eul</text>
</a>
</g>
</g>
<!-- Node0&#45;&gt;Node14 -->
<g id="edge16" class="edge">
<title>Node0&#45;&gt;Node14</title>
<path fill="none" stroke="#191970" d="M61.5155,-171.3245C73.4866,-149.2225 105.9689,-94.799 149,-67 152.1729,-64.9503 155.5594,-63.1209 159.0695,-61.4883"/>
<polygon fill="#191970" stroke="#191970" points="160.6475,-64.6248 168.5876,-57.6102 158.0061,-58.1423 160.6475,-64.6248"/>
</g>
<!-- Node15 -->
<g id="node16" class="node">
<title>Node15</title>
<g id="a_node16"><a xlink:href="structEulerAngles.html#a90a2c25855bb60cac11b25bf07ff3f2b" target="_top" xlink:title=" ">
<polygon fill="#ffffff" stroke="#000000" points="159.5,-.5 159.5,-19.5 282.5,-19.5 282.5,-.5 159.5,-.5"/>
<text text-anchor="middle" x="221" y="-7.5" font-family="Helvetica,sans-Serif" font-size="10.00" fill="#000000">EulerAngles::eul2quat</text>
</a>
</g>
</g>
<!-- Node0&#45;&gt;Node15 -->
<g id="edge17" class="edge">
<title>Node0&#45;&gt;Node15</title>
<path fill="none" stroke="#191970" d="M59.4764,-171.4154C68.347,-144.4885 97.2555,-67.6113 149,-29 151.5094,-27.1275 154.1883,-25.4393 156.9824,-23.9172"/>
<polygon fill="#191970" stroke="#191970" points="158.6502,-27.0013 166.2306,-19.5993 155.6888,-20.6585 158.6502,-27.0013"/>
</g>
<!-- Node4 -->
<g id="node5" class="node">
<title>Node4</title>
<g id="a_node5"><a xlink:href="Matrix_8hpp.html#ad0f00f50ffed8bca3147578aac014d4c" target="_top" xlink:title=" ">
<polygon fill="#ffffff" stroke="#000000" points="355.5,-266.5 355.5,-285.5 397.5,-285.5 397.5,-266.5 355.5,-266.5"/>
<text text-anchor="middle" x="376.5" y="-273.5" font-family="Helvetica,sans-Serif" font-size="10.00" fill="#000000">norm</text>
</a>
</g>
</g>
<!-- Node3&#45;&gt;Node4 -->
<g id="edge4" class="edge">
<title>Node3&#45;&gt;Node4</title>
<path fill="none" stroke="#191970" d="M283.7996,-276C304.8802,-276 327.4847,-276 345.0945,-276"/>
<polygon fill="#191970" stroke="#191970" points="345.3554,-279.5001 355.3553,-276 345.3553,-272.5001 345.3554,-279.5001"/>
</g>
<!-- Node5 -->
<g id="node6" class="node">
<title>Node5</title>
<g id="a_node6"><a xlink:href="Matrix_8hpp.html#abec71070cc8e64b7c426b3bfde2af39d" target="_top" xlink:title=" ">
<polygon fill="#ffffff" stroke="#000000" points="460,-266.5 460,-285.5 513,-285.5 513,-266.5 460,-266.5"/>
<text text-anchor="middle" x="486.5" y="-273.5" font-family="Helvetica,sans-Serif" font-size="10.00" fill="#000000">normsq</text>
</a>
</g>
</g>
<!-- Node4&#45;&gt;Node5 -->
<g id="edge5" class="edge">
<title>Node4&#45;&gt;Node5</title>
<path fill="none" stroke="#191970" d="M397.7091,-276C412.3921,-276 432.321,-276 449.5781,-276"/>
<polygon fill="#191970" stroke="#191970" points="449.9072,-279.5001 459.9071,-276 449.9071,-272.5001 449.9072,-279.5001"/>
</g>
<!-- Node9&#45;&gt;Node4 -->
<g id="edge13" class="edge">
<title>Node9&#45;&gt;Node4</title>
<path fill="none" stroke="#191970" d="M237.9291,-209.6471C258.9599,-221.4645 296.0928,-241.7859 329,-257 334.4745,-259.5311 340.3869,-262.0562 346.1197,-264.4005"/>
<polygon fill="#191970" stroke="#191970" points="344.9041,-267.6838 355.4889,-268.1442 347.5014,-261.1835 344.9041,-267.6838"/>
</g>
<!-- Node9&#45;&gt;Node8 -->
<g id="edge11" class="edge">
<title>Node9&#45;&gt;Node8</title>
<path fill="none" stroke="#191970" d="M260.2392,-209.589C280.7591,-214.6035 306.067,-220.7881 327.8255,-226.1053"/>
<polygon fill="#191970" stroke="#191970" points="326.9979,-229.506 337.543,-228.4799 328.6597,-222.706 326.9979,-229.506"/>
</g>
<!-- Node10 -->
<g id="node11" class="node">
<title>Node10</title>
<g id="a_node11"><a xlink:href="Array_8hpp.html#a2a94116476a44c5d54a8b9d67075def4" target="_top" xlink:title=" ">
<polygon fill="#ffffff" stroke="#000000" points="359.5,-190.5 359.5,-209.5 393.5,-209.5 393.5,-190.5 359.5,-190.5"/>
<text text-anchor="middle" x="376.5" y="-197.5" font-family="Helvetica,sans-Serif" font-size="10.00" fill="#000000">abs</text>
</a>
</g>
</g>
<!-- Node9&#45;&gt;Node10 -->
<g id="edge10" class="edge">
<title>Node9&#45;&gt;Node10</title>
<path fill="none" stroke="#191970" d="M293.2872,-200C313.0719,-200 333.3306,-200 348.9051,-200"/>
<polygon fill="#191970" stroke="#191970" points="349.3441,-203.5001 359.344,-200 349.344,-196.5001 349.3441,-203.5001"/>
</g>
<!-- Node11 -->
<g id="node12" class="node">
<title>Node11</title>
<g id="a_node12"><a xlink:href="Matrix_8hpp.html#ad67efeedccae466877bcdc358c4e67ca" target="_top" xlink:title="Calculates u × v, where u, v ⊆ ℝ³.">
<polygon fill="#ffffff" stroke="#000000" points="355.5,-152.5 355.5,-171.5 397.5,-171.5 397.5,-152.5 355.5,-152.5"/>
<text text-anchor="middle" x="376.5" y="-159.5" font-family="Helvetica,sans-Serif" font-size="10.00" fill="#000000">cross</text>
</a>
</g>
</g>
<!-- Node9&#45;&gt;Node11 -->
<g id="edge12" class="edge">
<title>Node9&#45;&gt;Node11</title>
<path fill="none" stroke="#191970" d="M260.2392,-190.411C286.6909,-183.9469 321.0989,-175.5385 345.6039,-169.5502"/>
<polygon fill="#191970" stroke="#191970" points="346.5645,-172.9185 355.4477,-167.1446 344.9027,-166.1186 346.5645,-172.9185"/>
</g>
<!-- Node12 -->
<g id="node13" class="node">
<title>Node12</title>
<g id="a_node13"><a xlink:href="Matrix_8hpp.html#aa2d8440aedee83f1dccdfc601cf76318" target="_top" xlink:title=" ">
<polygon fill="#ffffff" stroke="#000000" points="357.5,-114.5 357.5,-133.5 395.5,-133.5 395.5,-114.5 357.5,-114.5"/>
<text text-anchor="middle" x="376.5" y="-121.5" font-family="Helvetica,sans-Serif" font-size="10.00" fill="#000000">vcat</text>
</a>
</g>
</g>
<!-- Node9&#45;&gt;Node12 -->
<g id="edge14" class="edge">
<title>Node9&#45;&gt;Node12</title>
<path fill="none" stroke="#191970" d="M271.6342,-190.4735C279.0781,-187.9965 286.4392,-184.8902 293,-181 313.0111,-169.1346 309.7527,-156.0681 329,-143 334.5938,-139.2021 341.061,-135.9828 347.3875,-133.3339"/>
<polygon fill="#191970" stroke="#191970" points="348.9729,-136.4751 357.0677,-129.6395 346.477,-129.9352 348.9729,-136.4751"/>
</g>
</g>
</svg>
