<?xml version="1.0" encoding="UTF-8" standalone="no"?>
<!DOCTYPE svg PUBLIC "-//W3C//DTD SVG 1.1//EN"
 "http://www.w3.org/Graphics/SVG/1.1/DTD/svg11.dtd">
<!-- Generated by graphviz version 2.40.1 (20161225.0304)
 -->
<!-- Title: /home/pieter/GitHub/EAGLE&#45;ZYBO&#45;Linux/src/qr&#45;decode/src/QR&#45;Decode.cpp Pages: 1 -->
<svg width="266pt" height="106pt"
 viewBox="0.00 0.00 266.00 106.00" xmlns="http://www.w3.org/2000/svg" xmlns:xlink="http://www.w3.org/1999/xlink">
<g id="graph0" class="graph" transform="scale(1 1) rotate(0) translate(4 102)">
<title>/home/pieter/GitHub/EAGLE&#45;ZYBO&#45;Linux/src/qr&#45;decode/src/QR&#45;Decode.cpp</title>
<polygon fill="#ffffff" stroke="transparent" points="-4,4 -4,-102 262,-102 262,4 -4,4"/>
<!-- Node0 -->
<g id="node1" class="node">
<title>Node0</title>
<g id="a_node1"><a xlink:title=" ">
<polygon fill="#bfbfbf" stroke="#000000" points="55,-56.5 55,-97.5 217,-97.5 217,-56.5 55,-56.5"/>
<text text-anchor="start" x="63" y="-85.5" font-family="Helvetica,sans-Serif" font-size="10.00" fill="#000000">/home/pieter/GitHub</text>
<text text-anchor="start" x="63" y="-74.5" font-family="Helvetica,sans-Serif" font-size="10.00" fill="#000000">/EAGLE&#45;ZYBO&#45;Linux/src</text>
<text text-anchor="middle" x="136" y="-63.5" font-family="Helvetica,sans-Serif" font-size="10.00" fill="#000000">/qr&#45;decode/src/QR&#45;Decode.cpp</text>
</a>
</g>
</g>
<!-- Node1 -->
<g id="node2" class="node">
<title>Node1</title>
<g id="a_node2"><a xlink:title=" ">
<polygon fill="#ffffff" stroke="#bfbfbf" points="0,-.5 0,-19.5 60,-19.5 60,-.5 0,-.5"/>
<text text-anchor="middle" x="30" y="-7.5" font-family="Helvetica,sans-Serif" font-size="10.00" fill="#000000">iostream</text>
</a>
</g>
</g>
<!-- Node0&#45;&gt;Node1 -->
<g id="edge1" class="edge">
<title>Node0&#45;&gt;Node1</title>
<path fill="none" stroke="#191970" d="M103.3316,-56.3511C87.3122,-46.2256 68.3719,-34.254 53.7534,-25.0139"/>
<polygon fill="#191970" stroke="#191970" points="55.5976,-22.0391 45.2745,-19.6546 51.8575,-27.9562 55.5976,-22.0391"/>
</g>
<!-- Node2 -->
<g id="node3" class="node">
<title>Node2</title>
<g id="a_node3"><a xlink:title=" ">
<polygon fill="#ffffff" stroke="#bfbfbf" points="78,-.5 78,-19.5 194,-19.5 194,-.5 78,-.5"/>
<text text-anchor="middle" x="136" y="-7.5" font-family="Helvetica,sans-Serif" font-size="10.00" fill="#000000">opencv2/opencv.hpp</text>
</a>
</g>
</g>
<!-- Node0&#45;&gt;Node2 -->
<g id="edge2" class="edge">
<title>Node0&#45;&gt;Node2</title>
<path fill="none" stroke="#191970" d="M136,-56.168C136,-47.8226 136,-38.2471 136,-29.9879"/>
<polygon fill="#191970" stroke="#191970" points="139.5001,-29.7804 136,-19.7805 132.5001,-29.7805 139.5001,-29.7804"/>
</g>
<!-- Node3 -->
<g id="node4" class="node">
<title>Node3</title>
<g id="a_node4"><a xlink:title=" ">
<polygon fill="#ffffff" stroke="#bfbfbf" points="212,-.5 212,-19.5 258,-19.5 258,-.5 212,-.5"/>
<text text-anchor="middle" x="235" y="-7.5" font-family="Helvetica,sans-Serif" font-size="10.00" fill="#000000">zbar.h</text>
</a>
</g>
</g>
<!-- Node0&#45;&gt;Node3 -->
<g id="edge3" class="edge">
<title>Node0&#45;&gt;Node3</title>
<path fill="none" stroke="#191970" d="M166.5111,-56.3511C181.3314,-46.3212 198.8285,-34.4797 212.4278,-25.2762"/>
<polygon fill="#191970" stroke="#191970" points="214.4142,-28.1581 220.7342,-19.6546 210.4908,-22.3609 214.4142,-28.1581"/>
</g>
</g>
</svg>
