<?xml version="1.0" encoding="UTF-8" standalone="no"?>
<!DOCTYPE svg PUBLIC "-//W3C//DTD SVG 1.1//EN"
 "http://www.w3.org/Graphics/SVG/1.1/DTD/svg11.dtd">
<!-- Generated by graphviz version 2.40.1 (20161225.0304)
 -->
<!-- Title: /home/pieter/GitHub/EAGLE&#45;ZYBO&#45;Linux/src/qr&#45;crypto&#45;manager/include/QRCryptoManager.hpp Pages: 1 -->
<svg width="732pt" height="229pt"
 viewBox="0.00 0.00 732.00 229.00" xmlns="http://www.w3.org/2000/svg" xmlns:xlink="http://www.w3.org/1999/xlink">
<g id="graph0" class="graph" transform="scale(1 1) rotate(0) translate(4 225)">
<title>/home/pieter/GitHub/EAGLE&#45;ZYBO&#45;Linux/src/qr&#45;crypto&#45;manager/include/QRCryptoManager.hpp</title>
<polygon fill="#ffffff" stroke="transparent" points="-4,4 -4,-225 728,-225 728,4 -4,4"/>
<!-- Node0 -->
<g id="node1" class="node">
<title>Node0</title>
<g id="a_node1"><a xlink:title=" ">
<polygon fill="#bfbfbf" stroke="#000000" points="394,-168.5 394,-220.5 543,-220.5 543,-168.5 394,-168.5"/>
<text text-anchor="start" x="402" y="-208.5" font-family="Helvetica,sans-Serif" font-size="10.00" fill="#000000">/home/pieter/GitHub</text>
<text text-anchor="start" x="402" y="-197.5" font-family="Helvetica,sans-Serif" font-size="10.00" fill="#000000">/EAGLE&#45;ZYBO&#45;Linux/src</text>
<text text-anchor="start" x="402" y="-186.5" font-family="Helvetica,sans-Serif" font-size="10.00" fill="#000000">/qr&#45;crypto&#45;manager/include</text>
<text text-anchor="middle" x="468.5" y="-175.5" font-family="Helvetica,sans-Serif" font-size="10.00" fill="#000000">/QRCryptoManager.hpp</text>
</a>
</g>
</g>
<!-- Node1 -->
<g id="node2" class="node">
<title>Node1</title>
<g id="a_node2"><a xlink:href="BaremetalCommunicationDef_8hpp.html" target="_top" xlink:title=" ">
<polygon fill="#ffffff" stroke="#000000" points="128.5,-112.5 128.5,-131.5 310.5,-131.5 310.5,-112.5 128.5,-112.5"/>
<text text-anchor="middle" x="219.5" y="-119.5" font-family="Helvetica,sans-Serif" font-size="10.00" fill="#000000">BaremetalCommunicationDef.hpp</text>
</a>
</g>
</g>
<!-- Node0&#45;&gt;Node1 -->
<g id="edge1" class="edge">
<title>Node0&#45;&gt;Node1</title>
<path fill="none" stroke="#191970" d="M393.7918,-172.7476C350.7124,-160.2044 298.1104,-144.8886 262.034,-134.3844"/>
<polygon fill="#191970" stroke="#191970" points="262.8982,-130.9908 252.3185,-131.5556 260.9413,-137.7117 262.8982,-130.9908"/>
</g>
<!-- Node7 -->
<g id="node8" class="node">
<title>Node7</title>
<g id="a_node8"><a xlink:title=" ">
<polygon fill="#ffffff" stroke="#bfbfbf" points="370.5,-.5 370.5,-19.5 414.5,-19.5 414.5,-.5 370.5,-.5"/>
<text text-anchor="middle" x="392.5" y="-7.5" font-family="Helvetica,sans-Serif" font-size="10.00" fill="#000000">string</text>
</a>
</g>
</g>
<!-- Node0&#45;&gt;Node7 -->
<g id="edge15" class="edge">
<title>Node0&#45;&gt;Node7</title>
<path fill="none" stroke="#191970" d="M438.1667,-168.2189C428.1354,-157.9252 417.9108,-145.3754 411.5,-132 395.5114,-98.6418 392.4448,-54.8187 392.1442,-29.798"/>
<polygon fill="#191970" stroke="#191970" points="395.6442,-29.7372 392.1642,-19.7303 388.6443,-29.7233 395.6442,-29.7372"/>
</g>
<!-- Node11 -->
<g id="node12" class="node">
<title>Node11</title>
<g id="a_node12"><a xlink:title=" ">
<polygon fill="#ffffff" stroke="#bfbfbf" points="421,-112.5 421,-131.5 516,-131.5 516,-112.5 421,-112.5"/>
<text text-anchor="middle" x="468.5" y="-119.5" font-family="Helvetica,sans-Serif" font-size="10.00" fill="#000000">SharedMem.hpp</text>
</a>
</g>
</g>
<!-- Node0&#45;&gt;Node11 -->
<g id="edge12" class="edge">
<title>Node0&#45;&gt;Node11</title>
<path fill="none" stroke="#191970" d="M468.5,-168.3258C468.5,-159.5142 468.5,-149.8397 468.5,-141.621"/>
<polygon fill="#191970" stroke="#191970" points="472.0001,-141.534 468.5,-131.534 465.0001,-141.534 472.0001,-141.534"/>
</g>
<!-- Node12 -->
<g id="node13" class="node">
<title>Node12</title>
<g id="a_node13"><a xlink:title=" ">
<polygon fill="#ffffff" stroke="#bfbfbf" points="534.5,-112.5 534.5,-131.5 580.5,-131.5 580.5,-112.5 534.5,-112.5"/>
<text text-anchor="middle" x="557.5" y="-119.5" font-family="Helvetica,sans-Serif" font-size="10.00" fill="#000000">future</text>
</a>
</g>
</g>
<!-- Node0&#45;&gt;Node12 -->
<g id="edge13" class="edge">
<title>Node0&#45;&gt;Node12</title>
<path fill="none" stroke="#191970" d="M500.631,-168.3258C513.0461,-158.2124 526.8564,-146.9624 537.7586,-138.0815"/>
<polygon fill="#191970" stroke="#191970" points="540.2536,-140.5634 545.7962,-131.534 535.8325,-135.1362 540.2536,-140.5634"/>
</g>
<!-- Node13 -->
<g id="node14" class="node">
<title>Node13</title>
<g id="a_node14"><a xlink:title=" ">
<polygon fill="#ffffff" stroke="#bfbfbf" points="599,-112.5 599,-131.5 724,-131.5 724,-112.5 599,-112.5"/>
<text text-anchor="middle" x="661.5" y="-119.5" font-family="Helvetica,sans-Serif" font-size="10.00" fill="#000000">opencv2/core/mat.hpp</text>
</a>
</g>
</g>
<!-- Node0&#45;&gt;Node13 -->
<g id="edge14" class="edge">
<title>Node0&#45;&gt;Node13</title>
<path fill="none" stroke="#191970" d="M537.9048,-168.4283C567.9192,-157.1534 601.7391,-144.449 626.4041,-135.1837"/>
<polygon fill="#191970" stroke="#191970" points="627.9133,-138.3556 636.0438,-131.5626 625.4516,-131.8027 627.9133,-138.3556"/>
</g>
<!-- Node2 -->
<g id="node3" class="node">
<title>Node2</title>
<g id="a_node3"><a xlink:title=" ">
<polygon fill="#ffffff" stroke="#bfbfbf" points="0,-56.5 0,-75.5 67,-75.5 67,-56.5 0,-56.5"/>
<text text-anchor="middle" x="33.5" y="-63.5" font-family="Helvetica,sans-Serif" font-size="10.00" fill="#000000">LogEntry.h</text>
</a>
</g>
</g>
<!-- Node1&#45;&gt;Node2 -->
<g id="edge2" class="edge">
<title>Node1&#45;&gt;Node2</title>
<path fill="none" stroke="#191970" d="M187.5255,-112.3733C156.3287,-102.9807 108.729,-88.6496 74.7068,-78.4064"/>
<polygon fill="#191970" stroke="#191970" points="75.6418,-75.0327 65.0573,-75.5011 73.6237,-81.7355 75.6418,-75.0327"/>
</g>
<!-- Node3 -->
<g id="node4" class="node">
<title>Node3</title>
<g id="a_node4"><a xlink:href="SharedStruct_8hpp.html" target="_top" xlink:title=" ">
<polygon fill="#ffffff" stroke="#000000" points="123.5,-56.5 123.5,-75.5 223.5,-75.5 223.5,-56.5 123.5,-56.5"/>
<text text-anchor="middle" x="173.5" y="-63.5" font-family="Helvetica,sans-Serif" font-size="10.00" fill="#000000">SharedStruct.hpp</text>
</a>
</g>
</g>
<!-- Node1&#45;&gt;Node3 -->
<g id="edge3" class="edge">
<title>Node1&#45;&gt;Node3</title>
<path fill="none" stroke="#191970" d="M211.4874,-112.2455C205.0232,-104.3761 195.7615,-93.101 188.0017,-83.6542"/>
<polygon fill="#191970" stroke="#191970" points="190.4727,-81.1484 181.4208,-75.6427 185.0636,-85.5916 190.4727,-81.1484"/>
</g>
<!-- Node4 -->
<g id="node5" class="node">
<title>Node4</title>
<g id="a_node5"><a xlink:title=" ">
<polygon fill="#ffffff" stroke="#bfbfbf" points="61.5,-.5 61.5,-19.5 113.5,-19.5 113.5,-.5 61.5,-.5"/>
<text text-anchor="middle" x="87.5" y="-7.5" font-family="Helvetica,sans-Serif" font-size="10.00" fill="#000000">cassert</text>
</a>
</g>
</g>
<!-- Node1&#45;&gt;Node4 -->
<g id="edge9" class="edge">
<title>Node1&#45;&gt;Node4</title>
<path fill="none" stroke="#191970" d="M179.5743,-112.4289C157.9261,-105.4627 132.0817,-94.0195 114.5,-76 102.0988,-63.29 95.1181,-44.1029 91.3769,-29.6872"/>
<polygon fill="#191970" stroke="#191970" points="94.7525,-28.7478 89.1113,-19.7797 87.9286,-30.3083 94.7525,-28.7478"/>
</g>
<!-- Node9 -->
<g id="node10" class="node">
<title>Node9</title>
<g id="a_node10"><a xlink:title=" ">
<polygon fill="#ffffff" stroke="#bfbfbf" points="242,-56.5 242,-75.5 289,-75.5 289,-56.5 242,-56.5"/>
<text text-anchor="middle" x="265.5" y="-63.5" font-family="Helvetica,sans-Serif" font-size="10.00" fill="#000000">cmath</text>
</a>
</g>
</g>
<!-- Node1&#45;&gt;Node9 -->
<g id="edge10" class="edge">
<title>Node1&#45;&gt;Node9</title>
<path fill="none" stroke="#191970" d="M227.5126,-112.2455C233.9768,-104.3761 243.2385,-93.101 250.9983,-83.6542"/>
<polygon fill="#191970" stroke="#191970" points="253.9364,-85.5916 257.5792,-75.6427 248.5273,-81.1484 253.9364,-85.5916"/>
</g>
<!-- Node10 -->
<g id="node11" class="node">
<title>Node10</title>
<g id="a_node11"><a xlink:title=" ">
<polygon fill="#ffffff" stroke="#bfbfbf" points="307,-56.5 307,-75.5 364,-75.5 364,-56.5 307,-56.5"/>
<text text-anchor="middle" x="335.5" y="-63.5" font-family="Helvetica,sans-Serif" font-size="10.00" fill="#000000">ostream</text>
</a>
</g>
</g>
<!-- Node1&#45;&gt;Node10 -->
<g id="edge11" class="edge">
<title>Node1&#45;&gt;Node10</title>
<path fill="none" stroke="#191970" d="M239.4411,-112.3733C257.9786,-103.4241 285.8028,-89.9917 306.7413,-79.8835"/>
<polygon fill="#191970" stroke="#191970" points="308.3352,-83.0006 315.8191,-75.5011 305.2919,-76.6967 308.3352,-83.0006"/>
</g>
<!-- Node3&#45;&gt;Node4 -->
<g id="edge4" class="edge">
<title>Node3&#45;&gt;Node4</title>
<path fill="none" stroke="#191970" d="M158.5199,-56.2455C145.3249,-47.6534 125.8949,-35.0014 110.6921,-25.1018"/>
<polygon fill="#191970" stroke="#191970" points="112.5983,-22.1665 102.3084,-19.6427 108.7785,-28.0325 112.5983,-22.1665"/>
</g>
<!-- Node5 -->
<g id="node6" class="node">
<title>Node5</title>
<g id="a_node6"><a xlink:title=" ">
<polygon fill="#ffffff" stroke="#bfbfbf" points="131.5,-.5 131.5,-19.5 181.5,-19.5 181.5,-.5 131.5,-.5"/>
<text text-anchor="middle" x="156.5" y="-7.5" font-family="Helvetica,sans-Serif" font-size="10.00" fill="#000000">cstdint</text>
</a>
</g>
</g>
<!-- Node3&#45;&gt;Node5 -->
<g id="edge5" class="edge">
<title>Node3&#45;&gt;Node5</title>
<path fill="none" stroke="#191970" d="M170.5388,-56.2455C168.2962,-48.8579 165.1423,-38.4689 162.3919,-29.4087"/>
<polygon fill="#191970" stroke="#191970" points="165.6812,-28.1948 159.4272,-19.6427 158.983,-30.2282 165.6812,-28.1948"/>
</g>
<!-- Node6 -->
<g id="node7" class="node">
<title>Node6</title>
<g id="a_node7"><a xlink:title=" ">
<polygon fill="#ffffff" stroke="#bfbfbf" points="200,-.5 200,-19.5 265,-19.5 265,-.5 200,-.5"/>
<text text-anchor="middle" x="232.5" y="-7.5" font-family="Helvetica,sans-Serif" font-size="10.00" fill="#000000">stdexcept</text>
</a>
</g>
</g>
<!-- Node3&#45;&gt;Node6 -->
<g id="edge6" class="edge">
<title>Node3&#45;&gt;Node6</title>
<path fill="none" stroke="#191970" d="M183.777,-56.2455C192.3218,-48.1352 204.6778,-36.4075 214.8085,-26.7919"/>
<polygon fill="#191970" stroke="#191970" points="217.4972,-29.0655 222.3408,-19.6427 212.6782,-23.9884 217.4972,-29.0655"/>
</g>
<!-- Node3&#45;&gt;Node7 -->
<g id="edge7" class="edge">
<title>Node3&#45;&gt;Node7</title>
<path fill="none" stroke="#191970" d="M215.6553,-56.4141C253.683,-47.5809 311.0675,-33.7896 360.5,-20 360.5981,-19.9726 360.6964,-19.9452 360.7948,-19.9176"/>
<polygon fill="#191970" stroke="#191970" points="361.5601,-23.3406 370.1726,-17.1701 359.5919,-16.623 361.5601,-23.3406"/>
</g>
<!-- Node8 -->
<g id="node9" class="node">
<title>Node8</title>
<g id="a_node9"><a xlink:title=" ">
<polygon fill="#ffffff" stroke="#bfbfbf" points="283,-.5 283,-19.5 352,-19.5 352,-.5 283,-.5"/>
<text text-anchor="middle" x="317.5" y="-7.5" font-family="Helvetica,sans-Serif" font-size="10.00" fill="#000000">type_traits</text>
</a>
</g>
</g>
<!-- Node3&#45;&gt;Node8 -->
<g id="edge8" class="edge">
<title>Node3&#45;&gt;Node8</title>
<path fill="none" stroke="#191970" d="M198.2545,-56.3733C221.7849,-47.2226 257.3687,-33.3844 283.5426,-23.2057"/>
<polygon fill="#191970" stroke="#191970" points="285.0171,-26.3877 293.0685,-19.5011 282.4799,-19.8636 285.0171,-26.3877"/>
</g>
</g>
</svg>
