<?xml version="1.0" encoding="UTF-8" standalone="no"?>
<!DOCTYPE svg PUBLIC "-//W3C//DTD SVG 1.1//EN"
 "http://www.w3.org/Graphics/SVG/1.1/DTD/svg11.dtd">
<!-- Generated by graphviz version 2.40.1 (20161225.0304)
 -->
<!-- Title: /home/pieter/GitHub/EAGLE&#45;ZYBO&#45;Linux/src/qr&#45;crypto&#45;manager/include/QRCryptoManager.hpp Pages: 1 -->
<svg width="1508pt" height="229pt"
 viewBox="0.00 0.00 1507.72 229.00" xmlns="http://www.w3.org/2000/svg" xmlns:xlink="http://www.w3.org/1999/xlink">
<g id="graph0" class="graph" transform="scale(1 1) rotate(0) translate(4 225)">
<title>/home/pieter/GitHub/EAGLE&#45;ZYBO&#45;Linux/src/qr&#45;crypto&#45;manager/include/QRCryptoManager.hpp</title>
<polygon fill="#ffffff" stroke="transparent" points="-4,4 -4,-225 1503.7221,-225 1503.7221,4 -4,4"/>
<!-- Node0 -->
<g id="node1" class="node">
<title>Node0</title>
<g id="a_node1"><a xlink:title=" ">
<polygon fill="#bfbfbf" stroke="#000000" points="1207.7221,-168.5 1207.7221,-220.5 1356.7221,-220.5 1356.7221,-168.5 1207.7221,-168.5"/>
<text text-anchor="start" x="1215.7221" y="-208.5" font-family="Helvetica,sans-Serif" font-size="10.00" fill="#000000">/home/pieter/GitHub</text>
<text text-anchor="start" x="1215.7221" y="-197.5" font-family="Helvetica,sans-Serif" font-size="10.00" fill="#000000">/EAGLE&#45;ZYBO&#45;Linux/src</text>
<text text-anchor="start" x="1215.7221" y="-186.5" font-family="Helvetica,sans-Serif" font-size="10.00" fill="#000000">/qr&#45;crypto&#45;manager/include</text>
<text text-anchor="middle" x="1282.2221" y="-175.5" font-family="Helvetica,sans-Serif" font-size="10.00" fill="#000000">/QRCryptoManager.hpp</text>
</a>
</g>
</g>
<!-- Node1 -->
<g id="node2" class="node">
<title>Node1</title>
<g id="a_node2"><a xlink:href="BaremetalCommunicationDef_8hpp.html" target="_top" xlink:title=" ">
<polygon fill="#ffffff" stroke="#000000" points="69.2221,-112.5 69.2221,-131.5 251.2221,-131.5 251.2221,-112.5 69.2221,-112.5"/>
<text text-anchor="middle" x="160.2221" y="-119.5" font-family="Helvetica,sans-Serif" font-size="10.00" fill="#000000">BaremetalCommunicationDef.hpp</text>
</a>
</g>
</g>
<!-- Node0&#45;&gt;Node1 -->
<g id="edge1" class="edge">
<title>Node0&#45;&gt;Node1</title>
<path fill="none" stroke="#191970" d="M1207.2995,-189.6587C1011.4554,-177.0039 484.0812,-142.9267 261.5193,-128.5455"/>
<polygon fill="#191970" stroke="#191970" points="261.6806,-125.0487 251.4757,-127.8965 261.2292,-132.0341 261.6806,-125.0487"/>
</g>
<!-- Node7 -->
<g id="node8" class="node">
<title>Node7</title>
<g id="a_node8"><a xlink:title=" ">
<polygon fill="#ffffff" stroke="#bfbfbf" points="897.2221,-.5 897.2221,-19.5 941.2221,-19.5 941.2221,-.5 897.2221,-.5"/>
<text text-anchor="middle" x="919.2221" y="-7.5" font-family="Helvetica,sans-Serif" font-size="10.00" fill="#000000">string</text>
</a>
</g>
</g>
<!-- Node0&#45;&gt;Node7 -->
<g id="edge27" class="edge">
<title>Node0&#45;&gt;Node7</title>
<path fill="none" stroke="#191970" d="M1287.088,-168.2474C1291.2285,-136.9474 1292.5325,-85.2109 1263.2221,-56 1241.2937,-34.1461 1032.8585,-17.7337 951.5134,-12.1111"/>
<polygon fill="#191970" stroke="#191970" points="951.5683,-8.6068 941.3537,-11.4195 951.0928,-15.5906 951.5683,-8.6068"/>
</g>
<!-- Node11 -->
<g id="node12" class="node">
<title>Node11</title>
<g id="a_node12"><a xlink:href="SharedMem_8hpp.html" target="_top" xlink:title=" ">
<polygon fill="#ffffff" stroke="#000000" points="768.7221,-112.5 768.7221,-131.5 863.7221,-131.5 863.7221,-112.5 768.7221,-112.5"/>
<text text-anchor="middle" x="816.2221" y="-119.5" font-family="Helvetica,sans-Serif" font-size="10.00" fill="#000000">SharedMem.hpp</text>
</a>
</g>
</g>
<!-- Node0&#45;&gt;Node11 -->
<g id="edge12" class="edge">
<title>Node0&#45;&gt;Node11</title>
<path fill="none" stroke="#191970" d="M1207.6096,-182.8918C1114.7084,-168.4383 958.0163,-144.0603 873.8308,-130.9627"/>
<polygon fill="#191970" stroke="#191970" points="874.352,-127.5018 863.9328,-129.4228 873.2759,-134.4186 874.352,-127.5018"/>
</g>
<!-- Node23 -->
<g id="node24" class="node">
<title>Node23</title>
<g id="a_node24"><a xlink:title=" ">
<polygon fill="#ffffff" stroke="#bfbfbf" points="1310.2221,-112.5 1310.2221,-131.5 1356.2221,-131.5 1356.2221,-112.5 1310.2221,-112.5"/>
<text text-anchor="middle" x="1333.2221" y="-119.5" font-family="Helvetica,sans-Serif" font-size="10.00" fill="#000000">future</text>
</a>
</g>
</g>
<!-- Node0&#45;&gt;Node23 -->
<g id="edge25" class="edge">
<title>Node0&#45;&gt;Node23</title>
<path fill="none" stroke="#191970" d="M1300.6343,-168.3258C1307.2554,-158.9134 1314.5692,-148.5164 1320.5875,-139.961"/>
<polygon fill="#191970" stroke="#191970" points="1323.6245,-141.7268 1326.5154,-131.534 1317.8992,-137.6993 1323.6245,-141.7268"/>
</g>
<!-- Node24 -->
<g id="node25" class="node">
<title>Node24</title>
<g id="a_node25"><a xlink:title=" ">
<polygon fill="#ffffff" stroke="#bfbfbf" points="1374.7221,-112.5 1374.7221,-131.5 1499.7221,-131.5 1499.7221,-112.5 1374.7221,-112.5"/>
<text text-anchor="middle" x="1437.2221" y="-119.5" font-family="Helvetica,sans-Serif" font-size="10.00" fill="#000000">opencv2/core/mat.hpp</text>
</a>
</g>
</g>
<!-- Node0&#45;&gt;Node24 -->
<g id="edge26" class="edge">
<title>Node0&#45;&gt;Node24</title>
<path fill="none" stroke="#191970" d="M1338.1806,-168.3258C1361.622,-157.3613 1387.9196,-145.0608 1407.5226,-135.8917"/>
<polygon fill="#191970" stroke="#191970" points="1409.2639,-138.9412 1416.839,-131.534 1406.298,-132.6006 1409.2639,-138.9412"/>
</g>
<!-- Node2 -->
<g id="node3" class="node">
<title>Node2</title>
<g id="a_node3"><a xlink:title=" ">
<polygon fill="#ffffff" stroke="#bfbfbf" points="16.7221,-56.5 16.7221,-75.5 83.7221,-75.5 83.7221,-56.5 16.7221,-56.5"/>
<text text-anchor="middle" x="50.2221" y="-63.5" font-family="Helvetica,sans-Serif" font-size="10.00" fill="#000000">LogEntry.h</text>
</a>
</g>
</g>
<!-- Node1&#45;&gt;Node2 -->
<g id="edge2" class="edge">
<title>Node1&#45;&gt;Node2</title>
<path fill="none" stroke="#191970" d="M141.0615,-112.2455C123.711,-103.4125 97.932,-90.2887 78.2638,-80.2758"/>
<polygon fill="#191970" stroke="#191970" points="79.6626,-77.0605 69.1631,-75.6427 76.4868,-83.2986 79.6626,-77.0605"/>
</g>
<!-- Node3 -->
<g id="node4" class="node">
<title>Node3</title>
<g id="a_node4"><a xlink:href="SharedStruct_8hpp.html" target="_top" xlink:title=" ">
<polygon fill="#ffffff" stroke="#000000" points="280.2221,-56.5 280.2221,-75.5 380.2221,-75.5 380.2221,-56.5 280.2221,-56.5"/>
<text text-anchor="middle" x="330.2221" y="-63.5" font-family="Helvetica,sans-Serif" font-size="10.00" fill="#000000">SharedStruct.hpp</text>
</a>
</g>
</g>
<!-- Node1&#45;&gt;Node3 -->
<g id="edge3" class="edge">
<title>Node1&#45;&gt;Node3</title>
<path fill="none" stroke="#191970" d="M189.4461,-112.3733C217.7145,-103.0613 260.7186,-88.8953 291.7565,-78.671"/>
<polygon fill="#191970" stroke="#191970" points="292.9765,-81.9542 301.3794,-75.5011 290.7864,-75.3056 292.9765,-81.9542"/>
</g>
<!-- Node4 -->
<g id="node5" class="node">
<title>Node4</title>
<g id="a_node5"><a xlink:title=" ">
<polygon fill="#ffffff" stroke="#bfbfbf" points="186.2221,-.5 186.2221,-19.5 238.2221,-19.5 238.2221,-.5 186.2221,-.5"/>
<text text-anchor="middle" x="212.2221" y="-7.5" font-family="Helvetica,sans-Serif" font-size="10.00" fill="#000000">cassert</text>
</a>
</g>
</g>
<!-- Node1&#45;&gt;Node4 -->
<g id="edge9" class="edge">
<title>Node1&#45;&gt;Node4</title>
<path fill="none" stroke="#191970" d="M75.4611,-112.4828C27.8485,-103.6056 -17.4997,-86.8838 7.2221,-56 27.9505,-30.1048 122.6973,-17.7861 175.8274,-12.8234"/>
<polygon fill="#191970" stroke="#191970" points="176.2152,-16.3028 185.8643,-11.9271 175.5926,-9.3305 176.2152,-16.3028"/>
</g>
<!-- Node9 -->
<g id="node10" class="node">
<title>Node9</title>
<g id="a_node10"><a xlink:title=" ">
<polygon fill="#ffffff" stroke="#bfbfbf" points="101.7221,-56.5 101.7221,-75.5 148.7221,-75.5 148.7221,-56.5 101.7221,-56.5"/>
<text text-anchor="middle" x="125.2221" y="-63.5" font-family="Helvetica,sans-Serif" font-size="10.00" fill="#000000">cmath</text>
</a>
</g>
</g>
<!-- Node1&#45;&gt;Node9 -->
<g id="edge10" class="edge">
<title>Node1&#45;&gt;Node9</title>
<path fill="none" stroke="#191970" d="M154.1255,-112.2455C149.3075,-104.5367 142.447,-93.5598 136.6188,-84.2348"/>
<polygon fill="#191970" stroke="#191970" points="139.5168,-82.2677 131.2488,-75.6427 133.5808,-85.9777 139.5168,-82.2677"/>
</g>
<!-- Node10 -->
<g id="node11" class="node">
<title>Node10</title>
<g id="a_node11"><a xlink:title=" ">
<polygon fill="#ffffff" stroke="#bfbfbf" points="166.7221,-56.5 166.7221,-75.5 223.7221,-75.5 223.7221,-56.5 166.7221,-56.5"/>
<text text-anchor="middle" x="195.2221" y="-63.5" font-family="Helvetica,sans-Serif" font-size="10.00" fill="#000000">ostream</text>
</a>
</g>
</g>
<!-- Node1&#45;&gt;Node10 -->
<g id="edge11" class="edge">
<title>Node1&#45;&gt;Node10</title>
<path fill="none" stroke="#191970" d="M166.3186,-112.2455C171.1366,-104.5367 177.9972,-93.5598 183.8253,-84.2348"/>
<polygon fill="#191970" stroke="#191970" points="186.8634,-85.9777 189.1954,-75.6427 180.9274,-82.2677 186.8634,-85.9777"/>
</g>
<!-- Node3&#45;&gt;Node4 -->
<g id="edge4" class="edge">
<title>Node3&#45;&gt;Node4</title>
<path fill="none" stroke="#191970" d="M309.9372,-56.3733C291.08,-47.4241 262.7761,-33.9917 241.4766,-23.8835"/>
<polygon fill="#191970" stroke="#191970" points="242.7772,-20.6266 232.2423,-19.5011 239.7759,-26.9506 242.7772,-20.6266"/>
</g>
<!-- Node5 -->
<g id="node6" class="node">
<title>Node5</title>
<g id="a_node6"><a xlink:title=" ">
<polygon fill="#ffffff" stroke="#bfbfbf" points="344.2221,-.5 344.2221,-19.5 394.2221,-19.5 394.2221,-.5 344.2221,-.5"/>
<text text-anchor="middle" x="369.2221" y="-7.5" font-family="Helvetica,sans-Serif" font-size="10.00" fill="#000000">cstdint</text>
</a>
</g>
</g>
<!-- Node3&#45;&gt;Node5 -->
<g id="edge5" class="edge">
<title>Node3&#45;&gt;Node5</title>
<path fill="none" stroke="#191970" d="M337.0154,-56.2455C342.4399,-48.4564 350.1882,-37.3308 356.7254,-27.9439"/>
<polygon fill="#191970" stroke="#191970" points="359.6638,-29.849 362.5066,-19.6427 353.9195,-25.8485 359.6638,-29.849"/>
</g>
<!-- Node6 -->
<g id="node7" class="node">
<title>Node6</title>
<g id="a_node7"><a xlink:title=" ">
<polygon fill="#ffffff" stroke="#bfbfbf" points="412.7221,-.5 412.7221,-19.5 477.7221,-19.5 477.7221,-.5 412.7221,-.5"/>
<text text-anchor="middle" x="445.2221" y="-7.5" font-family="Helvetica,sans-Serif" font-size="10.00" fill="#000000">stdexcept</text>
</a>
</g>
</g>
<!-- Node3&#45;&gt;Node6 -->
<g id="edge6" class="edge">
<title>Node3&#45;&gt;Node6</title>
<path fill="none" stroke="#191970" d="M349.9913,-56.3733C368.369,-47.4241 395.9533,-33.9917 416.7113,-23.8835"/>
<polygon fill="#191970" stroke="#191970" points="418.2525,-27.026 425.7108,-19.5011 415.1878,-20.7325 418.2525,-27.026"/>
</g>
<!-- Node3&#45;&gt;Node7 -->
<g id="edge7" class="edge">
<title>Node3&#45;&gt;Node7</title>
<path fill="none" stroke="#191970" d="M380.3927,-57.2111C383.3766,-56.7771 386.3366,-56.3691 389.2221,-56 577.2611,-31.9448 804.4748,-16.8926 887.1668,-11.8703"/>
<polygon fill="#191970" stroke="#191970" points="887.4202,-15.3615 897.1922,-11.2678 887.0002,-8.3741 887.4202,-15.3615"/>
</g>
<!-- Node8 -->
<g id="node9" class="node">
<title>Node8</title>
<g id="a_node9"><a xlink:title=" ">
<polygon fill="#ffffff" stroke="#bfbfbf" points="256.7221,-.5 256.7221,-19.5 325.7221,-19.5 325.7221,-.5 256.7221,-.5"/>
<text text-anchor="middle" x="291.2221" y="-7.5" font-family="Helvetica,sans-Serif" font-size="10.00" fill="#000000">type_traits</text>
</a>
</g>
</g>
<!-- Node3&#45;&gt;Node8 -->
<g id="edge8" class="edge">
<title>Node3&#45;&gt;Node8</title>
<path fill="none" stroke="#191970" d="M323.4288,-56.2455C318.0042,-48.4564 310.256,-37.3308 303.7188,-27.9439"/>
<polygon fill="#191970" stroke="#191970" points="306.5246,-25.8485 297.9375,-19.6427 300.7804,-29.849 306.5246,-25.8485"/>
</g>
<!-- Node11&#45;&gt;Node4 -->
<g id="edge16" class="edge">
<title>Node11&#45;&gt;Node4</title>
<path fill="none" stroke="#191970" d="M768.3463,-119.9803C643.5938,-114.4337 315.1394,-97.9106 271.2221,-76 250.2664,-65.5451 233.3545,-44.1535 223.0966,-28.5485"/>
<polygon fill="#191970" stroke="#191970" points="225.8565,-26.36 217.5929,-19.7295 219.9181,-30.0661 225.8565,-26.36"/>
</g>
<!-- Node12 -->
<g id="node13" class="node">
<title>Node12</title>
<g id="a_node13"><a xlink:href="ANSIColors_8hpp.html" target="_top" xlink:title=" ">
<polygon fill="#ffffff" stroke="#000000" points="398.2221,-56.5 398.2221,-75.5 490.2221,-75.5 490.2221,-56.5 398.2221,-56.5"/>
<text text-anchor="middle" x="444.2221" y="-63.5" font-family="Helvetica,sans-Serif" font-size="10.00" fill="#000000">ANSIColors.hpp</text>
</a>
</g>
</g>
<!-- Node11&#45;&gt;Node12 -->
<g id="edge13" class="edge">
<title>Node11&#45;&gt;Node12</title>
<path fill="none" stroke="#191970" d="M768.6115,-115.6316C708.5245,-107.4746 601.7449,-92.5821 500.508,-76.1671"/>
<polygon fill="#191970" stroke="#191970" points="500.8476,-72.6763 490.4149,-74.5224 499.7217,-79.5852 500.8476,-72.6763"/>
</g>
<!-- Node13 -->
<g id="node14" class="node">
<title>Node13</title>
<g id="a_node14"><a xlink:title=" ">
<polygon fill="#ffffff" stroke="#bfbfbf" points="508.2221,-56.5 508.2221,-75.5 564.2221,-75.5 564.2221,-56.5 508.2221,-56.5"/>
<text text-anchor="middle" x="536.2221" y="-63.5" font-family="Helvetica,sans-Serif" font-size="10.00" fill="#000000">iomanip</text>
</a>
</g>
</g>
<!-- Node11&#45;&gt;Node13 -->
<g id="edge14" class="edge">
<title>Node11&#45;&gt;Node13</title>
<path fill="none" stroke="#191970" d="M768.5032,-114.0838C721.4534,-106.0287 647.3119,-92.6687 574.276,-76.1169"/>
<polygon fill="#191970" stroke="#191970" points="574.9765,-72.6868 564.4477,-73.8683 573.4153,-79.5105 574.9765,-72.6868"/>
</g>
<!-- Node14 -->
<g id="node15" class="node">
<title>Node14</title>
<g id="a_node15"><a xlink:title=" ">
<polygon fill="#ffffff" stroke="#bfbfbf" points="582.2221,-56.5 582.2221,-75.5 642.2221,-75.5 642.2221,-56.5 582.2221,-56.5"/>
<text text-anchor="middle" x="612.2221" y="-63.5" font-family="Helvetica,sans-Serif" font-size="10.00" fill="#000000">iostream</text>
</a>
</g>
</g>
<!-- Node11&#45;&gt;Node14 -->
<g id="edge15" class="edge">
<title>Node11&#45;&gt;Node14</title>
<path fill="none" stroke="#191970" d="M781.1532,-112.3733C745.4369,-102.5688 690.1178,-87.3831 652.5961,-77.0831"/>
<polygon fill="#191970" stroke="#191970" points="653.0858,-73.5881 642.516,-74.316 651.2328,-80.3384 653.0858,-73.5881"/>
</g>
<!-- Node15 -->
<g id="node16" class="node">
<title>Node15</title>
<g id="a_node16"><a xlink:title=" ">
<polygon fill="#ffffff" stroke="#bfbfbf" points="660.7221,-56.5 660.7221,-75.5 707.7221,-75.5 707.7221,-56.5 660.7221,-56.5"/>
<text text-anchor="middle" x="684.2221" y="-63.5" font-family="Helvetica,sans-Serif" font-size="10.00" fill="#000000">cerrno</text>
</a>
</g>
</g>
<!-- Node11&#45;&gt;Node15 -->
<g id="edge17" class="edge">
<title>Node11&#45;&gt;Node15</title>
<path fill="none" stroke="#191970" d="M793.5305,-112.3733C772.151,-103.3032 739.9164,-89.6279 715.9859,-79.4755"/>
<polygon fill="#191970" stroke="#191970" points="717.1904,-76.1846 706.6176,-75.5011 714.4565,-82.6287 717.1904,-76.1846"/>
</g>
<!-- Node16 -->
<g id="node17" class="node">
<title>Node16</title>
<g id="a_node17"><a xlink:title=" ">
<polygon fill="#ffffff" stroke="#bfbfbf" points="725.7221,-56.5 725.7221,-75.5 772.7221,-75.5 772.7221,-56.5 725.7221,-56.5"/>
<text text-anchor="middle" x="749.2221" y="-63.5" font-family="Helvetica,sans-Serif" font-size="10.00" fill="#000000">fcntl.h</text>
</a>
</g>
</g>
<!-- Node11&#45;&gt;Node16 -->
<g id="edge18" class="edge">
<title>Node11&#45;&gt;Node16</title>
<path fill="none" stroke="#191970" d="M804.5516,-112.2455C794.656,-103.9746 780.2594,-91.9416 768.632,-82.2232"/>
<polygon fill="#191970" stroke="#191970" points="770.6763,-79.3703 760.7589,-75.6427 766.1871,-84.7413 770.6763,-79.3703"/>
</g>
<!-- Node17 -->
<g id="node18" class="node">
<title>Node17</title>
<g id="a_node18"><a xlink:title=" ">
<polygon fill="#ffffff" stroke="#bfbfbf" points="791.2221,-56.5 791.2221,-75.5 841.2221,-75.5 841.2221,-56.5 791.2221,-56.5"/>
<text text-anchor="middle" x="816.2221" y="-63.5" font-family="Helvetica,sans-Serif" font-size="10.00" fill="#000000">stdio.h</text>
</a>
</g>
</g>
<!-- Node11&#45;&gt;Node17 -->
<g id="edge19" class="edge">
<title>Node11&#45;&gt;Node17</title>
<path fill="none" stroke="#191970" d="M816.2221,-112.2455C816.2221,-104.9382 816.2221,-94.6944 816.2221,-85.7046"/>
<polygon fill="#191970" stroke="#191970" points="819.7222,-85.6426 816.2221,-75.6427 812.7222,-85.6427 819.7222,-85.6426"/>
</g>
<!-- Node18 -->
<g id="node19" class="node">
<title>Node18</title>
<g id="a_node19"><a xlink:title=" ">
<polygon fill="#ffffff" stroke="#bfbfbf" points="859.7221,-56.5 859.7221,-75.5 912.7221,-75.5 912.7221,-56.5 859.7221,-56.5"/>
<text text-anchor="middle" x="886.2221" y="-63.5" font-family="Helvetica,sans-Serif" font-size="10.00" fill="#000000">stdlib.h</text>
</a>
</g>
</g>
<!-- Node11&#45;&gt;Node18 -->
<g id="edge20" class="edge">
<title>Node11&#45;&gt;Node18</title>
<path fill="none" stroke="#191970" d="M828.4152,-112.2455C838.8542,-103.8943 854.0876,-91.7076 866.2961,-81.9408"/>
<polygon fill="#191970" stroke="#191970" points="868.5465,-84.6227 874.1687,-75.6427 864.1736,-79.1566 868.5465,-84.6227"/>
</g>
<!-- Node19 -->
<g id="node20" class="node">
<title>Node19</title>
<g id="a_node20"><a xlink:title=" ">
<polygon fill="#ffffff" stroke="#bfbfbf" points="930.7221,-56.5 930.7221,-75.5 1007.7221,-75.5 1007.7221,-56.5 930.7221,-56.5"/>
<text text-anchor="middle" x="969.2221" y="-63.5" font-family="Helvetica,sans-Serif" font-size="10.00" fill="#000000">sys/mman.h</text>
</a>
</g>
</g>
<!-- Node11&#45;&gt;Node19 -->
<g id="edge21" class="edge">
<title>Node11&#45;&gt;Node19</title>
<path fill="none" stroke="#191970" d="M842.5237,-112.3733C867.6349,-103.1822 905.6659,-89.2624 933.5093,-79.0713"/>
<polygon fill="#191970" stroke="#191970" points="935.0759,-82.2251 943.2637,-75.5011 932.6699,-75.6516 935.0759,-82.2251"/>
</g>
<!-- Node20 -->
<g id="node21" class="node">
<title>Node20</title>
<g id="a_node21"><a xlink:title=" ">
<polygon fill="#ffffff" stroke="#bfbfbf" points="1026.2221,-56.5 1026.2221,-75.5 1090.2221,-75.5 1090.2221,-56.5 1026.2221,-56.5"/>
<text text-anchor="middle" x="1058.2221" y="-63.5" font-family="Helvetica,sans-Serif" font-size="10.00" fill="#000000">sys/stat.h</text>
</a>
</g>
</g>
<!-- Node11&#45;&gt;Node20 -->
<g id="edge22" class="edge">
<title>Node11&#45;&gt;Node20</title>
<path fill="none" stroke="#191970" d="M857.9969,-112.4899C898.4731,-103.2523 961.5833,-88.7879 1016.2221,-76 1016.3224,-75.9765 1016.4229,-75.953 1016.5235,-75.9294"/>
<polygon fill="#191970" stroke="#191970" points="1017.1927,-79.3677 1026.1245,-73.6691 1015.5885,-72.554 1017.1927,-79.3677"/>
</g>
<!-- Node21 -->
<g id="node22" class="node">
<title>Node21</title>
<g id="a_node22"><a xlink:title=" ">
<polygon fill="#ffffff" stroke="#bfbfbf" points="1108.2221,-56.5 1108.2221,-75.5 1180.2221,-75.5 1180.2221,-56.5 1108.2221,-56.5"/>
<text text-anchor="middle" x="1144.2221" y="-63.5" font-family="Helvetica,sans-Serif" font-size="10.00" fill="#000000">sys/types.h</text>
</a>
</g>
</g>
<!-- Node11&#45;&gt;Node21 -->
<g id="edge23" class="edge">
<title>Node11&#45;&gt;Node21</title>
<path fill="none" stroke="#191970" d="M863.9387,-115.1005C918.2758,-107.0531 1009.9317,-92.9018 1098.0206,-76.1519"/>
<polygon fill="#191970" stroke="#191970" points="1098.7472,-79.5765 1107.91,-74.2574 1097.4301,-72.7015 1098.7472,-79.5765"/>
</g>
<!-- Node22 -->
<g id="node23" class="node">
<title>Node22</title>
<g id="a_node23"><a xlink:title=" ">
<polygon fill="#ffffff" stroke="#bfbfbf" points="1198.2221,-56.5 1198.2221,-75.5 1254.2221,-75.5 1254.2221,-56.5 1198.2221,-56.5"/>
<text text-anchor="middle" x="1226.2221" y="-63.5" font-family="Helvetica,sans-Serif" font-size="10.00" fill="#000000">unistd.h</text>
</a>
</g>
</g>
<!-- Node11&#45;&gt;Node22 -->
<g id="edge24" class="edge">
<title>Node11&#45;&gt;Node22</title>
<path fill="none" stroke="#191970" d="M863.9605,-118.2864C933.3562,-112.4118 1066.2405,-99.3707 1188.1574,-75.9811"/>
<polygon fill="#191970" stroke="#191970" points="1188.8898,-79.4043 1198.0368,-74.058 1187.5522,-72.5333 1188.8898,-79.4043"/>
</g>
</g>
</svg>
