<?xml version="1.0" encoding="UTF-8" standalone="no"?>
<!DOCTYPE svg PUBLIC "-//W3C//DTD SVG 1.1//EN"
 "http://www.w3.org/Graphics/SVG/1.1/DTD/svg11.dtd">
<!-- Generated by graphviz version 2.40.1 (20161225.0304)
 -->
<!-- Title: /home/pieter/GitHub/EAGLE&#45;ZYBO&#45;Linux/src/qr&#45;crypto&#45;manager/src/QRCryptoManager.cpp Pages: 1 -->
<svg width="1270pt" height="285pt"
 viewBox="0.00 0.00 1270.21 285.00" xmlns="http://www.w3.org/2000/svg" xmlns:xlink="http://www.w3.org/1999/xlink">
<g id="graph0" class="graph" transform="scale(1 1) rotate(0) translate(4 281)">
<title>/home/pieter/GitHub/EAGLE&#45;ZYBO&#45;Linux/src/qr&#45;crypto&#45;manager/src/QRCryptoManager.cpp</title>
<polygon fill="#ffffff" stroke="transparent" points="-4,4 -4,-281 1266.2088,-281 1266.2088,4 -4,4"/>
<!-- Node0 -->
<g id="node1" class="node">
<title>Node0</title>
<g id="a_node1"><a xlink:title=" ">
<polygon fill="#bfbfbf" stroke="#000000" points="586.7088,-224.5 586.7088,-276.5 715.7088,-276.5 715.7088,-224.5 586.7088,-224.5"/>
<text text-anchor="start" x="594.7088" y="-264.5" font-family="Helvetica,sans-Serif" font-size="10.00" fill="#000000">/home/pieter/GitHub</text>
<text text-anchor="start" x="594.7088" y="-253.5" font-family="Helvetica,sans-Serif" font-size="10.00" fill="#000000">/EAGLE&#45;ZYBO&#45;Linux/src</text>
<text text-anchor="start" x="594.7088" y="-242.5" font-family="Helvetica,sans-Serif" font-size="10.00" fill="#000000">/qr&#45;crypto&#45;manager/src</text>
<text text-anchor="middle" x="651.2088" y="-231.5" font-family="Helvetica,sans-Serif" font-size="10.00" fill="#000000">/QRCryptoManager.cpp</text>
</a>
</g>
</g>
<!-- Node1 -->
<g id="node2" class="node">
<title>Node1</title>
<g id="a_node2"><a xlink:href="QR-Decode_8hpp.html" target="_top" xlink:title=" ">
<polygon fill="#ffffff" stroke="#000000" points="30.2088,-168.5 30.2088,-187.5 122.2088,-187.5 122.2088,-168.5 30.2088,-168.5"/>
<text text-anchor="middle" x="76.2088" y="-175.5" font-family="Helvetica,sans-Serif" font-size="10.00" fill="#000000">QR&#45;Decode.hpp</text>
</a>
</g>
</g>
<!-- Node0&#45;&gt;Node1 -->
<g id="edge1" class="edge">
<title>Node0&#45;&gt;Node1</title>
<path fill="none" stroke="#191970" d="M586.645,-242.3593C473.102,-228.043 239.5633,-198.5969 132.311,-185.0738"/>
<polygon fill="#191970" stroke="#191970" points="132.6936,-181.5944 122.3343,-183.8158 131.8179,-188.5394 132.6936,-181.5944"/>
</g>
<!-- Node4 -->
<g id="node5" class="node">
<title>Node4</title>
<g id="a_node5"><a xlink:href="QRCryptoManager_8hpp.html" target="_top" xlink:title=" ">
<polygon fill="#ffffff" stroke="#000000" points="221.7088,-168.5 221.7088,-187.5 346.7088,-187.5 346.7088,-168.5 221.7088,-168.5"/>
<text text-anchor="middle" x="284.2088" y="-175.5" font-family="Helvetica,sans-Serif" font-size="10.00" fill="#000000">QRCryptoManager.hpp</text>
</a>
</g>
</g>
<!-- Node0&#45;&gt;Node4 -->
<g id="edge4" class="edge">
<title>Node0&#45;&gt;Node4</title>
<path fill="none" stroke="#191970" d="M586.4414,-237.7053C517.3486,-224.0562 408.8986,-202.6322 342.4254,-189.5005"/>
<polygon fill="#191970" stroke="#191970" points="343.0199,-186.0504 332.5311,-187.546 341.6632,-192.9177 343.0199,-186.0504"/>
</g>
<!-- Node20 -->
<g id="node21" class="node">
<title>Node20</title>
<g id="a_node21"><a xlink:href="base64_8hpp.html" target="_top" xlink:title=" ">
<polygon fill="#ffffff" stroke="#000000" points="916.7088,-56.5 916.7088,-75.5 989.7088,-75.5 989.7088,-56.5 916.7088,-56.5"/>
<text text-anchor="middle" x="953.2088" y="-63.5" font-family="Helvetica,sans-Serif" font-size="10.00" fill="#000000">base64.hpp</text>
</a>
</g>
</g>
<!-- Node0&#45;&gt;Node20 -->
<g id="edge24" class="edge">
<title>Node0&#45;&gt;Node20</title>
<path fill="none" stroke="#191970" d="M693.8375,-224.457C757.9714,-185.2759 877.2312,-112.4168 928.6126,-81.0265"/>
<polygon fill="#191970" stroke="#191970" points="930.6793,-83.8654 937.3881,-75.6653 927.0299,-77.892 930.6793,-83.8654"/>
</g>
<!-- Node22 -->
<g id="node23" class="node">
<title>Node22</title>
<g id="a_node23"><a xlink:href="crypto_8hpp.html" target="_top" xlink:title=" ">
<polygon fill="#ffffff" stroke="#000000" points="1034.2088,-112.5 1034.2088,-131.5 1102.2088,-131.5 1102.2088,-112.5 1034.2088,-112.5"/>
<text text-anchor="middle" x="1068.2088" y="-119.5" font-family="Helvetica,sans-Serif" font-size="10.00" fill="#000000">crypto.hpp</text>
</a>
</g>
</g>
<!-- Node0&#45;&gt;Node22 -->
<g id="edge28" class="edge">
<title>Node0&#45;&gt;Node22</title>
<path fill="none" stroke="#191970" d="M715.766,-235.0838C763.4557,-223.2894 829.7872,-206.0318 887.2088,-188 939.2751,-171.65 998.4967,-149.3314 1034.6031,-135.2939"/>
<polygon fill="#191970" stroke="#191970" points="1036.1071,-138.464 1044.1488,-131.566 1033.5607,-131.9436 1036.1071,-138.464"/>
</g>
<!-- Node2 -->
<g id="node3" class="node">
<title>Node2</title>
<g id="a_node3"><a xlink:title=" ">
<polygon fill="#ffffff" stroke="#bfbfbf" points="13.7088,-112.5 13.7088,-131.5 138.7088,-131.5 138.7088,-112.5 13.7088,-112.5"/>
<text text-anchor="middle" x="76.2088" y="-119.5" font-family="Helvetica,sans-Serif" font-size="10.00" fill="#000000">opencv2/core/mat.hpp</text>
</a>
</g>
</g>
<!-- Node1&#45;&gt;Node2 -->
<g id="edge2" class="edge">
<title>Node1&#45;&gt;Node2</title>
<path fill="none" stroke="#191970" d="M76.2088,-168.2455C76.2088,-160.9382 76.2088,-150.6944 76.2088,-141.7046"/>
<polygon fill="#191970" stroke="#191970" points="79.7089,-141.6426 76.2088,-131.6427 72.7089,-141.6427 79.7089,-141.6426"/>
</g>
<!-- Node3 -->
<g id="node4" class="node">
<title>Node3</title>
<g id="a_node4"><a xlink:title=" ">
<polygon fill="#ffffff" stroke="#bfbfbf" points="244.2088,-.5 244.2088,-19.5 288.2088,-19.5 288.2088,-.5 244.2088,-.5"/>
<text text-anchor="middle" x="266.2088" y="-7.5" font-family="Helvetica,sans-Serif" font-size="10.00" fill="#000000">string</text>
</a>
</g>
</g>
<!-- Node1&#45;&gt;Node3 -->
<g id="edge3" class="edge">
<title>Node1&#45;&gt;Node3</title>
<path fill="none" stroke="#191970" d="M50.8343,-168.3014C24.1616,-156.591 -11.8712,-135.5158 4.2088,-112 31.1559,-72.592 169.8919,-33.8545 233.8471,-17.7713"/>
<polygon fill="#191970" stroke="#191970" points="234.9391,-21.1066 243.8009,-15.2997 233.2521,-14.3129 234.9391,-21.1066"/>
</g>
<!-- Node4&#45;&gt;Node2 -->
<g id="edge22" class="edge">
<title>Node4&#45;&gt;Node2</title>
<path fill="none" stroke="#191970" d="M248.4524,-168.3733C213.2662,-158.9001 159.4208,-144.4032 121.3132,-134.1435"/>
<polygon fill="#191970" stroke="#191970" points="122.0648,-130.7213 111.4987,-131.5011 120.2449,-137.4806 122.0648,-130.7213"/>
</g>
<!-- Node4&#45;&gt;Node3 -->
<g id="edge23" class="edge">
<title>Node4&#45;&gt;Node3</title>
<path fill="none" stroke="#191970" d="M239.3372,-168.4588C219.484,-161.7646 198.0007,-150.5612 186.2088,-132 168.0961,-103.4892 169.2941,-85.2375 186.2088,-56 196.6335,-37.9807 217.0858,-26.4026 234.7006,-19.3693"/>
<polygon fill="#191970" stroke="#191970" points="235.9295,-22.6467 244.113,-15.9175 233.5193,-16.0747 235.9295,-22.6467"/>
</g>
<!-- Node5 -->
<g id="node6" class="node">
<title>Node5</title>
<g id="a_node6"><a xlink:href="BaremetalCommunicationDef_8hpp.html" target="_top" xlink:title=" ">
<polygon fill="#ffffff" stroke="#000000" points="259.2088,-112.5 259.2088,-131.5 441.2088,-131.5 441.2088,-112.5 259.2088,-112.5"/>
<text text-anchor="middle" x="350.2088" y="-119.5" font-family="Helvetica,sans-Serif" font-size="10.00" fill="#000000">BaremetalCommunicationDef.hpp</text>
</a>
</g>
</g>
<!-- Node4&#45;&gt;Node5 -->
<g id="edge5" class="edge">
<title>Node4&#45;&gt;Node5</title>
<path fill="none" stroke="#191970" d="M295.7052,-168.2455C305.453,-159.9746 319.6348,-147.9416 331.0886,-138.2232"/>
<polygon fill="#191970" stroke="#191970" points="333.4836,-140.7813 338.8443,-131.6427 328.9547,-135.4437 333.4836,-140.7813"/>
</g>
<!-- Node14 -->
<g id="node15" class="node">
<title>Node14</title>
<g id="a_node15"><a xlink:href="SharedMem_8hpp.html" target="_top" xlink:title=" ">
<polygon fill="#ffffff" stroke="#000000" points="668.7088,-112.5 668.7088,-131.5 763.7088,-131.5 763.7088,-112.5 668.7088,-112.5"/>
<text text-anchor="middle" x="716.2088" y="-119.5" font-family="Helvetica,sans-Serif" font-size="10.00" fill="#000000">SharedMem.hpp</text>
</a>
</g>
</g>
<!-- Node4&#45;&gt;Node14 -->
<g id="edge16" class="edge">
<title>Node4&#45;&gt;Node14</title>
<path fill="none" stroke="#191970" d="M347.0253,-169.8571C430.7317,-159.0063 577.6728,-139.9584 658.6363,-129.4631"/>
<polygon fill="#191970" stroke="#191970" points="659.1855,-132.9213 668.6525,-128.1647 658.2855,-125.9794 659.1855,-132.9213"/>
</g>
<!-- Node19 -->
<g id="node20" class="node">
<title>Node19</title>
<g id="a_node20"><a xlink:title=" ">
<polygon fill="#ffffff" stroke="#bfbfbf" points="195.2088,-112.5 195.2088,-131.5 241.2088,-131.5 241.2088,-112.5 195.2088,-112.5"/>
<text text-anchor="middle" x="218.2088" y="-119.5" font-family="Helvetica,sans-Serif" font-size="10.00" fill="#000000">future</text>
</a>
</g>
</g>
<!-- Node4&#45;&gt;Node19 -->
<g id="edge21" class="edge">
<title>Node4&#45;&gt;Node19</title>
<path fill="none" stroke="#191970" d="M272.7125,-168.2455C262.9646,-159.9746 248.7829,-147.9416 237.3291,-138.2232"/>
<polygon fill="#191970" stroke="#191970" points="239.463,-135.4437 229.5734,-131.6427 234.9341,-140.7813 239.463,-135.4437"/>
</g>
<!-- Node6 -->
<g id="node7" class="node">
<title>Node6</title>
<g id="a_node7"><a xlink:title=" ">
<polygon fill="#ffffff" stroke="#bfbfbf" points="374.7088,-56.5 374.7088,-75.5 441.7088,-75.5 441.7088,-56.5 374.7088,-56.5"/>
<text text-anchor="middle" x="408.2088" y="-63.5" font-family="Helvetica,sans-Serif" font-size="10.00" fill="#000000">LogEntry.h</text>
</a>
</g>
</g>
<!-- Node5&#45;&gt;Node6 -->
<g id="edge6" class="edge">
<title>Node5&#45;&gt;Node6</title>
<path fill="none" stroke="#191970" d="M360.3117,-112.2455C368.7116,-104.1352 380.8582,-92.4075 390.8172,-82.7919"/>
<polygon fill="#191970" stroke="#191970" points="393.4588,-85.1066 398.2218,-75.6427 388.5966,-80.0707 393.4588,-85.1066"/>
</g>
<!-- Node7 -->
<g id="node8" class="node">
<title>Node7</title>
<g id="a_node8"><a xlink:href="SharedStruct_8hpp.html" target="_top" xlink:title=" ">
<polygon fill="#ffffff" stroke="#000000" points="460.2088,-56.5 460.2088,-75.5 560.2088,-75.5 560.2088,-56.5 460.2088,-56.5"/>
<text text-anchor="middle" x="510.2088" y="-63.5" font-family="Helvetica,sans-Serif" font-size="10.00" fill="#000000">SharedStruct.hpp</text>
</a>
</g>
</g>
<!-- Node5&#45;&gt;Node7 -->
<g id="edge7" class="edge">
<title>Node5&#45;&gt;Node7</title>
<path fill="none" stroke="#191970" d="M377.7138,-112.3733C404.089,-103.1419 444.094,-89.1402 473.2446,-78.9375"/>
<polygon fill="#191970" stroke="#191970" points="474.7804,-82.1082 483.0628,-75.5011 472.4679,-75.5012 474.7804,-82.1082"/>
</g>
<!-- Node8 -->
<g id="node9" class="node">
<title>Node8</title>
<g id="a_node9"><a xlink:title=" ">
<polygon fill="#ffffff" stroke="#bfbfbf" points="362.2088,-.5 362.2088,-19.5 414.2088,-19.5 414.2088,-.5 362.2088,-.5"/>
<text text-anchor="middle" x="388.2088" y="-7.5" font-family="Helvetica,sans-Serif" font-size="10.00" fill="#000000">cassert</text>
</a>
</g>
</g>
<!-- Node5&#45;&gt;Node8 -->
<g id="edge13" class="edge">
<title>Node5&#45;&gt;Node8</title>
<path fill="none" stroke="#191970" d="M351.647,-112.3972C353.7651,-99.3655 358.2426,-75.4724 365.2088,-56 368.5444,-46.6762 373.3067,-36.7974 377.6334,-28.5946"/>
<polygon fill="#191970" stroke="#191970" points="380.8415,-30.0229 382.5698,-19.57 374.7002,-26.6636 380.8415,-30.0229"/>
</g>
<!-- Node12 -->
<g id="node13" class="node">
<title>Node12</title>
<g id="a_node13"><a xlink:title=" ">
<polygon fill="#ffffff" stroke="#bfbfbf" points="195.7088,-56.5 195.7088,-75.5 242.7088,-75.5 242.7088,-56.5 195.7088,-56.5"/>
<text text-anchor="middle" x="219.2088" y="-63.5" font-family="Helvetica,sans-Serif" font-size="10.00" fill="#000000">cmath</text>
</a>
</g>
</g>
<!-- Node5&#45;&gt;Node12 -->
<g id="edge14" class="edge">
<title>Node5&#45;&gt;Node12</title>
<path fill="none" stroke="#191970" d="M327.6891,-112.3733C306.4716,-103.3032 274.4812,-89.6279 250.732,-79.4755"/>
<polygon fill="#191970" stroke="#191970" points="252.0055,-76.2136 241.4347,-75.5011 249.254,-82.6502 252.0055,-76.2136"/>
</g>
<!-- Node13 -->
<g id="node14" class="node">
<title>Node13</title>
<g id="a_node14"><a xlink:title=" ">
<polygon fill="#ffffff" stroke="#bfbfbf" points="260.7088,-56.5 260.7088,-75.5 317.7088,-75.5 317.7088,-56.5 260.7088,-56.5"/>
<text text-anchor="middle" x="289.2088" y="-63.5" font-family="Helvetica,sans-Serif" font-size="10.00" fill="#000000">ostream</text>
</a>
</g>
</g>
<!-- Node5&#45;&gt;Node13 -->
<g id="edge15" class="edge">
<title>Node5&#45;&gt;Node13</title>
<path fill="none" stroke="#191970" d="M339.5834,-112.2455C330.6615,-104.0549 317.7208,-92.1749 307.1896,-82.5069"/>
<polygon fill="#191970" stroke="#191970" points="309.446,-79.8271 299.7125,-75.6427 304.7121,-84.9837 309.446,-79.8271"/>
</g>
<!-- Node7&#45;&gt;Node3 -->
<g id="edge11" class="edge">
<title>Node7&#45;&gt;Node3</title>
<path fill="none" stroke="#191970" d="M468.541,-56.4369C420.2792,-45.3604 341.8252,-27.3546 298.143,-17.3292"/>
<polygon fill="#191970" stroke="#191970" points="298.8707,-13.9052 288.3411,-15.0795 297.3048,-20.7278 298.8707,-13.9052"/>
</g>
<!-- Node7&#45;&gt;Node8 -->
<g id="edge8" class="edge">
<title>Node7&#45;&gt;Node8</title>
<path fill="none" stroke="#191970" d="M489.2363,-56.3733C469.6521,-47.3838 440.2127,-33.8706 418.1579,-23.7471"/>
<polygon fill="#191970" stroke="#191970" points="419.4561,-20.4919 408.9077,-19.5011 416.5359,-26.8538 419.4561,-20.4919"/>
</g>
<!-- Node9 -->
<g id="node10" class="node">
<title>Node9</title>
<g id="a_node10"><a xlink:title=" ">
<polygon fill="#ffffff" stroke="#bfbfbf" points="928.2088,-.5 928.2088,-19.5 978.2088,-19.5 978.2088,-.5 928.2088,-.5"/>
<text text-anchor="middle" x="953.2088" y="-7.5" font-family="Helvetica,sans-Serif" font-size="10.00" fill="#000000">cstdint</text>
</a>
</g>
</g>
<!-- Node7&#45;&gt;Node9 -->
<g id="edge9" class="edge">
<title>Node7&#45;&gt;Node9</title>
<path fill="none" stroke="#191970" d="M560.3947,-57.3231C563.3747,-56.8609 566.3298,-56.4162 569.2088,-56 697.2573,-37.4901 850.0999,-20.7833 917.8645,-13.6522"/>
<polygon fill="#191970" stroke="#191970" points="918.4121,-17.1141 927.993,-12.5911 917.6827,-10.1522 918.4121,-17.1141"/>
</g>
<!-- Node10 -->
<g id="node11" class="node">
<title>Node10</title>
<g id="a_node11"><a xlink:title=" ">
<polygon fill="#ffffff" stroke="#bfbfbf" points="703.7088,-.5 703.7088,-19.5 768.7088,-19.5 768.7088,-.5 703.7088,-.5"/>
<text text-anchor="middle" x="736.2088" y="-7.5" font-family="Helvetica,sans-Serif" font-size="10.00" fill="#000000">stdexcept</text>
</a>
</g>
</g>
<!-- Node7&#45;&gt;Node10 -->
<g id="edge10" class="edge">
<title>Node7&#45;&gt;Node10</title>
<path fill="none" stroke="#191970" d="M548.8028,-56.4369C589.1007,-46.4516 652.1251,-30.8349 693.793,-20.5101"/>
<polygon fill="#191970" stroke="#191970" points="694.775,-23.8727 703.6396,-18.0702 693.0913,-17.0782 694.775,-23.8727"/>
</g>
<!-- Node11 -->
<g id="node12" class="node">
<title>Node11</title>
<g id="a_node12"><a xlink:title=" ">
<polygon fill="#ffffff" stroke="#bfbfbf" points="475.7088,-.5 475.7088,-19.5 544.7088,-19.5 544.7088,-.5 475.7088,-.5"/>
<text text-anchor="middle" x="510.2088" y="-7.5" font-family="Helvetica,sans-Serif" font-size="10.00" fill="#000000">type_traits</text>
</a>
</g>
</g>
<!-- Node7&#45;&gt;Node11 -->
<g id="edge12" class="edge">
<title>Node7&#45;&gt;Node11</title>
<path fill="none" stroke="#191970" d="M510.2088,-56.2455C510.2088,-48.9382 510.2088,-38.6944 510.2088,-29.7046"/>
<polygon fill="#191970" stroke="#191970" points="513.7089,-29.6426 510.2088,-19.6427 506.7089,-29.6427 513.7089,-29.6426"/>
</g>
<!-- Node15 -->
<g id="node16" class="node">
<title>Node15</title>
<g id="a_node16"><a xlink:href="ANSIColors_8hpp.html" target="_top" xlink:title=" ">
<polygon fill="#ffffff" stroke="#000000" points="578.2088,-56.5 578.2088,-75.5 670.2088,-75.5 670.2088,-56.5 578.2088,-56.5"/>
<text text-anchor="middle" x="624.2088" y="-63.5" font-family="Helvetica,sans-Serif" font-size="10.00" fill="#000000">ANSIColors.hpp</text>
</a>
</g>
</g>
<!-- Node14&#45;&gt;Node15 -->
<g id="edge17" class="edge">
<title>Node14&#45;&gt;Node15</title>
<path fill="none" stroke="#191970" d="M700.1837,-112.2455C686.068,-103.6534 665.2825,-91.0014 649.0189,-81.1018"/>
<polygon fill="#191970" stroke="#191970" points="650.4122,-77.8525 640.0504,-75.6427 646.7725,-83.8319 650.4122,-77.8525"/>
</g>
<!-- Node16 -->
<g id="node17" class="node">
<title>Node16</title>
<g id="a_node17"><a xlink:title=" ">
<polygon fill="#ffffff" stroke="#bfbfbf" points="688.2088,-56.5 688.2088,-75.5 744.2088,-75.5 744.2088,-56.5 688.2088,-56.5"/>
<text text-anchor="middle" x="716.2088" y="-63.5" font-family="Helvetica,sans-Serif" font-size="10.00" fill="#000000">iomanip</text>
</a>
</g>
</g>
<!-- Node14&#45;&gt;Node16 -->
<g id="edge18" class="edge">
<title>Node14&#45;&gt;Node16</title>
<path fill="none" stroke="#191970" d="M716.2088,-112.2455C716.2088,-104.9382 716.2088,-94.6944 716.2088,-85.7046"/>
<polygon fill="#191970" stroke="#191970" points="719.7089,-85.6426 716.2088,-75.6427 712.7089,-85.6427 719.7089,-85.6426"/>
</g>
<!-- Node17 -->
<g id="node18" class="node">
<title>Node17</title>
<g id="a_node18"><a xlink:title=" ">
<polygon fill="#ffffff" stroke="#bfbfbf" points="762.2088,-56.5 762.2088,-75.5 822.2088,-75.5 822.2088,-56.5 762.2088,-56.5"/>
<text text-anchor="middle" x="792.2088" y="-63.5" font-family="Helvetica,sans-Serif" font-size="10.00" fill="#000000">iostream</text>
</a>
</g>
</g>
<!-- Node14&#45;&gt;Node17 -->
<g id="edge19" class="edge">
<title>Node14&#45;&gt;Node17</title>
<path fill="none" stroke="#191970" d="M729.447,-112.2455C740.8898,-103.814 757.6385,-91.4729 770.9563,-81.6598"/>
<polygon fill="#191970" stroke="#191970" points="773.148,-84.3924 779.1223,-75.6427 768.9956,-78.757 773.148,-84.3924"/>
</g>
<!-- Node18 -->
<g id="node19" class="node">
<title>Node18</title>
<g id="a_node19"><a xlink:title=" ">
<polygon fill="#ffffff" stroke="#bfbfbf" points="840.2088,-56.5 840.2088,-75.5 898.2088,-75.5 898.2088,-56.5 840.2088,-56.5"/>
<text text-anchor="middle" x="869.2088" y="-63.5" font-family="Helvetica,sans-Serif" font-size="10.00" fill="#000000">memory</text>
</a>
</g>
</g>
<!-- Node14&#45;&gt;Node18 -->
<g id="edge20" class="edge">
<title>Node14&#45;&gt;Node18</title>
<path fill="none" stroke="#191970" d="M742.5105,-112.3733C767.6216,-103.1822 805.6527,-89.2624 833.4961,-79.0713"/>
<polygon fill="#191970" stroke="#191970" points="835.0627,-82.2251 843.2504,-75.5011 832.6566,-75.6516 835.0627,-82.2251"/>
</g>
<!-- Node20&#45;&gt;Node3 -->
<g id="edge26" class="edge">
<title>Node20&#45;&gt;Node3</title>
<path fill="none" stroke="#191970" d="M916.6391,-57.5349C913.4603,-56.9557 910.2843,-56.4318 907.2088,-56 662.8634,-21.697 598.9591,-42.0946 353.2088,-20 335.0733,-18.3695 314.865,-16.0759 298.4927,-14.0965"/>
<polygon fill="#191970" stroke="#191970" points="298.6999,-10.5958 288.348,-12.8513 297.8471,-17.5436 298.6999,-10.5958"/>
</g>
<!-- Node20&#45;&gt;Node9 -->
<g id="edge25" class="edge">
<title>Node20&#45;&gt;Node9</title>
<path fill="none" stroke="#191970" d="M953.2088,-56.2455C953.2088,-48.9382 953.2088,-38.6944 953.2088,-29.7046"/>
<polygon fill="#191970" stroke="#191970" points="956.7089,-29.6426 953.2088,-19.6427 949.7089,-29.6427 956.7089,-29.6426"/>
</g>
<!-- Node21 -->
<g id="node22" class="node">
<title>Node21</title>
<g id="a_node22"><a xlink:title=" ">
<polygon fill="#ffffff" stroke="#bfbfbf" points="1020.7088,-.5 1020.7088,-19.5 1067.7088,-19.5 1067.7088,-.5 1020.7088,-.5"/>
<text text-anchor="middle" x="1044.2088" y="-7.5" font-family="Helvetica,sans-Serif" font-size="10.00" fill="#000000">vector</text>
</a>
</g>
</g>
<!-- Node20&#45;&gt;Node21 -->
<g id="edge27" class="edge">
<title>Node20&#45;&gt;Node21</title>
<path fill="none" stroke="#191970" d="M969.0598,-56.2455C983.022,-47.6534 1003.5816,-35.0014 1019.6684,-25.1018"/>
<polygon fill="#191970" stroke="#191970" points="1021.8573,-27.8645 1028.5395,-19.6427 1018.1885,-21.9029 1021.8573,-27.8645"/>
</g>
<!-- Node23 -->
<g id="node24" class="node">
<title>Node23</title>
<g id="a_node24"><a xlink:href="cryptoException_8hpp.html" target="_top" xlink:title=" ">
<polygon fill="#ffffff" stroke="#000000" points="1146.2088,-56.5 1146.2088,-75.5 1262.2088,-75.5 1262.2088,-56.5 1146.2088,-56.5"/>
<text text-anchor="middle" x="1204.2088" y="-63.5" font-family="Helvetica,sans-Serif" font-size="10.00" fill="#000000">cryptoException.hpp</text>
</a>
</g>
</g>
<!-- Node22&#45;&gt;Node23 -->
<g id="edge29" class="edge">
<title>Node22&#45;&gt;Node23</title>
<path fill="none" stroke="#191970" d="M1091.5881,-112.3733C1113.7133,-103.2629 1147.1223,-89.5062 1171.8108,-79.3404"/>
<polygon fill="#191970" stroke="#191970" points="1173.2205,-82.5451 1181.1347,-75.5011 1170.5552,-76.0723 1173.2205,-82.5451"/>
</g>
<!-- Node25 -->
<g id="node26" class="node">
<title>Node25</title>
<g id="a_node26"><a xlink:href="cryptoInstruction_8hpp.html" target="_top" xlink:title=" ">
<polygon fill="#ffffff" stroke="#000000" points="1008.2088,-56.5 1008.2088,-75.5 1128.2088,-75.5 1128.2088,-56.5 1008.2088,-56.5"/>
<text text-anchor="middle" x="1068.2088" y="-63.5" font-family="Helvetica,sans-Serif" font-size="10.00" fill="#000000">cryptoInstruction.hpp</text>
</a>
</g>
</g>
<!-- Node22&#45;&gt;Node25 -->
<g id="edge31" class="edge">
<title>Node22&#45;&gt;Node25</title>
<path fill="none" stroke="#191970" d="M1068.2088,-112.2455C1068.2088,-104.9382 1068.2088,-94.6944 1068.2088,-85.7046"/>
<polygon fill="#191970" stroke="#191970" points="1071.7089,-85.6426 1068.2088,-75.6427 1064.7089,-85.6427 1071.7089,-85.6426"/>
</g>
<!-- Node24 -->
<g id="node25" class="node">
<title>Node24</title>
<g id="a_node25"><a xlink:title=" ">
<polygon fill="#ffffff" stroke="#bfbfbf" points="1171.7088,-.5 1171.7088,-19.5 1236.7088,-19.5 1236.7088,-.5 1171.7088,-.5"/>
<text text-anchor="middle" x="1204.2088" y="-7.5" font-family="Helvetica,sans-Serif" font-size="10.00" fill="#000000">exception</text>
</a>
</g>
</g>
<!-- Node23&#45;&gt;Node24 -->
<g id="edge30" class="edge">
<title>Node23&#45;&gt;Node24</title>
<path fill="none" stroke="#191970" d="M1204.2088,-56.2455C1204.2088,-48.9382 1204.2088,-38.6944 1204.2088,-29.7046"/>
<polygon fill="#191970" stroke="#191970" points="1207.7089,-29.6426 1204.2088,-19.6427 1200.7089,-29.6427 1207.7089,-29.6426"/>
</g>
<!-- Node25&#45;&gt;Node9 -->
<g id="edge32" class="edge">
<title>Node25&#45;&gt;Node9</title>
<path fill="none" stroke="#191970" d="M1048.4396,-56.3733C1030.0619,-47.4241 1002.4776,-33.9917 981.7196,-23.8835"/>
<polygon fill="#191970" stroke="#191970" points="983.2431,-20.7325 972.7201,-19.5011 980.1784,-27.026 983.2431,-20.7325"/>
</g>
<!-- Node25&#45;&gt;Node10 -->
<g id="edge33" class="edge">
<title>Node25&#45;&gt;Node10</title>
<path fill="none" stroke="#191970" d="M1011.5132,-56.4369C945.647,-45.3269 838.4507,-27.2456 779.1224,-17.2384"/>
<polygon fill="#191970" stroke="#191970" points="779.4158,-13.7386 768.9729,-15.5265 778.2514,-20.641 779.4158,-13.7386"/>
</g>
<!-- Node25&#45;&gt;Node21 -->
<g id="edge34" class="edge">
<title>Node25&#45;&gt;Node21</title>
<path fill="none" stroke="#191970" d="M1064.0284,-56.2455C1060.8278,-48.7776 1056.3128,-38.2427 1052.4004,-29.1137"/>
<polygon fill="#191970" stroke="#191970" points="1055.4977,-27.4554 1048.3414,-19.6427 1049.0637,-30.2129 1055.4977,-27.4554"/>
</g>
</g>
</svg>
