<?xml version="1.0" encoding="UTF-8" standalone="no"?>
<!DOCTYPE svg PUBLIC "-//W3C//DTD SVG 1.1//EN"
 "http://www.w3.org/Graphics/SVG/1.1/DTD/svg11.dtd">
<!-- Generated by graphviz version 2.40.1 (20161225.0304)
 -->
<!-- Title: /home/pieter/GitHub/EAGLE&#45;ZYBO&#45;Linux/src/qr&#45;crypto&#45;manager/src/QRCryptoManager.cpp Pages: 1 -->
<svg width="927pt" height="285pt"
 viewBox="0.00 0.00 926.60 285.00" xmlns="http://www.w3.org/2000/svg" xmlns:xlink="http://www.w3.org/1999/xlink">
<g id="graph0" class="graph" transform="scale(1 1) rotate(0) translate(4 281)">
<title>/home/pieter/GitHub/EAGLE&#45;ZYBO&#45;Linux/src/qr&#45;crypto&#45;manager/src/QRCryptoManager.cpp</title>
<polygon fill="#ffffff" stroke="transparent" points="-4,4 -4,-281 922.5998,-281 922.5998,4 -4,4"/>
<!-- Node0 -->
<g id="node1" class="node">
<title>Node0</title>
<g id="a_node1"><a xlink:title=" ">
<polygon fill="#bfbfbf" stroke="#000000" points="462.0998,-224.5 462.0998,-276.5 591.0998,-276.5 591.0998,-224.5 462.0998,-224.5"/>
<text text-anchor="start" x="470.0998" y="-264.5" font-family="Helvetica,sans-Serif" font-size="10.00" fill="#000000">/home/pieter/GitHub</text>
<text text-anchor="start" x="470.0998" y="-253.5" font-family="Helvetica,sans-Serif" font-size="10.00" fill="#000000">/EAGLE&#45;ZYBO&#45;Linux/src</text>
<text text-anchor="start" x="470.0998" y="-242.5" font-family="Helvetica,sans-Serif" font-size="10.00" fill="#000000">/qr&#45;crypto&#45;manager/src</text>
<text text-anchor="middle" x="526.5998" y="-231.5" font-family="Helvetica,sans-Serif" font-size="10.00" fill="#000000">/QRCryptoManager.cpp</text>
</a>
</g>
</g>
<!-- Node1 -->
<g id="node2" class="node">
<title>Node1</title>
<g id="a_node2"><a xlink:href="QR-Decode_8hpp.html" target="_top" xlink:title=" ">
<polygon fill="#ffffff" stroke="#000000" points="29.5998,-168.5 29.5998,-187.5 121.5998,-187.5 121.5998,-168.5 29.5998,-168.5"/>
<text text-anchor="middle" x="75.5998" y="-175.5" font-family="Helvetica,sans-Serif" font-size="10.00" fill="#000000">QR&#45;Decode.hpp</text>
</a>
</g>
</g>
<!-- Node0&#45;&gt;Node1 -->
<g id="edge1" class="edge">
<title>Node0&#45;&gt;Node1</title>
<path fill="none" stroke="#191970" d="M461.9825,-240.1125C373.4842,-225.8861 216.0048,-200.5706 132.0195,-187.0697"/>
<polygon fill="#191970" stroke="#191970" points="132.3333,-183.5753 121.9045,-185.4437 131.2222,-190.4865 132.3333,-183.5753"/>
</g>
<!-- Node4 -->
<g id="node5" class="node">
<title>Node4</title>
<g id="a_node5"><a xlink:href="QRCryptoManager_8hpp.html" target="_top" xlink:title=" ">
<polygon fill="#ffffff" stroke="#000000" points="316.0998,-168.5 316.0998,-187.5 441.0998,-187.5 441.0998,-168.5 316.0998,-168.5"/>
<text text-anchor="middle" x="378.5998" y="-175.5" font-family="Helvetica,sans-Serif" font-size="10.00" fill="#000000">QRCryptoManager.hpp</text>
</a>
</g>
</g>
<!-- Node0&#45;&gt;Node4 -->
<g id="edge4" class="edge">
<title>Node0&#45;&gt;Node4</title>
<path fill="none" stroke="#191970" d="M473.1684,-224.3258C450.8879,-213.4114 425.905,-201.1731 407.2148,-192.0175"/>
<polygon fill="#191970" stroke="#191970" points="408.5825,-188.7901 398.0623,-187.534 405.503,-195.0764 408.5825,-188.7901"/>
</g>
<!-- Node16 -->
<g id="node17" class="node">
<title>Node16</title>
<g id="a_node17"><a xlink:href="base64_8hpp.html" target="_top" xlink:title=" ">
<polygon fill="#ffffff" stroke="#000000" points="573.0998,-56.5 573.0998,-75.5 646.0998,-75.5 646.0998,-56.5 573.0998,-56.5"/>
<text text-anchor="middle" x="609.5998" y="-63.5" font-family="Helvetica,sans-Serif" font-size="10.00" fill="#000000">base64.hpp</text>
</a>
</g>
</g>
<!-- Node0&#45;&gt;Node16 -->
<g id="edge20" class="edge">
<title>Node0&#45;&gt;Node16</title>
<path fill="none" stroke="#191970" d="M538.3157,-224.457C555.1701,-186.9913 585.8776,-118.732 600.8807,-85.3816"/>
<polygon fill="#191970" stroke="#191970" points="604.2518,-86.4191 605.1626,-75.8635 597.868,-83.5472 604.2518,-86.4191"/>
</g>
<!-- Node18 -->
<g id="node19" class="node">
<title>Node18</title>
<g id="a_node19"><a xlink:href="crypto_8hpp.html" target="_top" xlink:title=" ">
<polygon fill="#ffffff" stroke="#000000" points="690.5998,-112.5 690.5998,-131.5 758.5998,-131.5 758.5998,-112.5 690.5998,-112.5"/>
<text text-anchor="middle" x="724.5998" y="-119.5" font-family="Helvetica,sans-Serif" font-size="10.00" fill="#000000">crypto.hpp</text>
</a>
</g>
</g>
<!-- Node0&#45;&gt;Node18 -->
<g id="edge24" class="edge">
<title>Node0&#45;&gt;Node18</title>
<path fill="none" stroke="#191970" d="M566.6681,-224.4961C607.1575,-198.2189 668.3244,-158.5222 701.3972,-137.0583"/>
<polygon fill="#191970" stroke="#191970" points="703.4569,-139.894 709.9399,-131.5142 699.6462,-134.0222 703.4569,-139.894"/>
</g>
<!-- Node2 -->
<g id="node3" class="node">
<title>Node2</title>
<g id="a_node3"><a xlink:title=" ">
<polygon fill="#ffffff" stroke="#bfbfbf" points="13.0998,-112.5 13.0998,-131.5 138.0998,-131.5 138.0998,-112.5 13.0998,-112.5"/>
<text text-anchor="middle" x="75.5998" y="-119.5" font-family="Helvetica,sans-Serif" font-size="10.00" fill="#000000">opencv2/core/mat.hpp</text>
</a>
</g>
</g>
<!-- Node1&#45;&gt;Node2 -->
<g id="edge2" class="edge">
<title>Node1&#45;&gt;Node2</title>
<path fill="none" stroke="#191970" d="M75.5998,-168.2455C75.5998,-160.9382 75.5998,-150.6944 75.5998,-141.7046"/>
<polygon fill="#191970" stroke="#191970" points="79.0999,-141.6426 75.5998,-131.6427 72.0999,-141.6427 79.0999,-141.6426"/>
</g>
<!-- Node3 -->
<g id="node4" class="node">
<title>Node3</title>
<g id="a_node4"><a xlink:title=" ">
<polygon fill="#ffffff" stroke="#bfbfbf" points="169.5998,-.5 169.5998,-19.5 213.5998,-19.5 213.5998,-.5 169.5998,-.5"/>
<text text-anchor="middle" x="191.5998" y="-7.5" font-family="Helvetica,sans-Serif" font-size="10.00" fill="#000000">string</text>
</a>
</g>
</g>
<!-- Node1&#45;&gt;Node3 -->
<g id="edge3" class="edge">
<title>Node1&#45;&gt;Node3</title>
<path fill="none" stroke="#191970" d="M50.2924,-168.439C24.1695,-157.0067 -10.8829,-136.3347 3.5998,-112 37.4442,-55.1329 115.2753,-28.0103 159.4495,-16.778"/>
<polygon fill="#191970" stroke="#191970" points="160.4873,-20.128 169.3847,-14.3758 158.8422,-13.3241 160.4873,-20.128"/>
</g>
<!-- Node4&#45;&gt;Node2 -->
<g id="edge18" class="edge">
<title>Node4&#45;&gt;Node2</title>
<path fill="none" stroke="#191970" d="M326.8565,-168.4369C274.3468,-158.7321 193.0554,-143.708 137.2421,-133.3926"/>
<polygon fill="#191970" stroke="#191970" points="137.5993,-129.8994 127.1297,-131.5237 136.327,-136.7829 137.5993,-129.8994"/>
</g>
<!-- Node4&#45;&gt;Node3 -->
<g id="edge19" class="edge">
<title>Node4&#45;&gt;Node3</title>
<path fill="none" stroke="#191970" d="M316.7908,-168.4352C272.4113,-160.4111 217.5584,-147.7446 200.5998,-132 172.8303,-106.2182 179.3968,-57.114 185.9273,-29.7194"/>
<polygon fill="#191970" stroke="#191970" points="189.3903,-30.3106 188.5346,-19.7503 182.6181,-28.5393 189.3903,-30.3106"/>
</g>
<!-- Node5 -->
<g id="node6" class="node">
<title>Node5</title>
<g id="a_node6"><a xlink:href="BaremetalCommunicationDef_8hpp.html" target="_top" xlink:title=" ">
<polygon fill="#ffffff" stroke="#000000" points="209.5998,-112.5 209.5998,-131.5 391.5998,-131.5 391.5998,-112.5 209.5998,-112.5"/>
<text text-anchor="middle" x="300.5998" y="-119.5" font-family="Helvetica,sans-Serif" font-size="10.00" fill="#000000">BaremetalCommunicationDef.hpp</text>
</a>
</g>
</g>
<!-- Node4&#45;&gt;Node5 -->
<g id="edge5" class="edge">
<title>Node4&#45;&gt;Node5</title>
<path fill="none" stroke="#191970" d="M365.0133,-168.2455C353.2694,-159.814 336.0799,-147.4729 322.4116,-137.6598"/>
<polygon fill="#191970" stroke="#191970" points="324.1952,-134.6316 314.0307,-131.6427 320.1127,-140.3179 324.1952,-134.6316"/>
</g>
<!-- Node14 -->
<g id="node15" class="node">
<title>Node14</title>
<g id="a_node15"><a xlink:title=" ">
<polygon fill="#ffffff" stroke="#bfbfbf" points="410.0998,-112.5 410.0998,-131.5 505.0998,-131.5 505.0998,-112.5 410.0998,-112.5"/>
<text text-anchor="middle" x="457.5998" y="-119.5" font-family="Helvetica,sans-Serif" font-size="10.00" fill="#000000">SharedMem.hpp</text>
</a>
</g>
</g>
<!-- Node4&#45;&gt;Node14 -->
<g id="edge16" class="edge">
<title>Node4&#45;&gt;Node14</title>
<path fill="none" stroke="#191970" d="M392.3606,-168.2455C404.255,-159.814 421.6648,-147.4729 435.5084,-137.6598"/>
<polygon fill="#191970" stroke="#191970" points="437.8626,-140.2811 443.9968,-131.6427 433.8145,-134.5704 437.8626,-140.2811"/>
</g>
<!-- Node15 -->
<g id="node16" class="node">
<title>Node15</title>
<g id="a_node16"><a xlink:title=" ">
<polygon fill="#ffffff" stroke="#bfbfbf" points="523.5998,-112.5 523.5998,-131.5 569.5998,-131.5 569.5998,-112.5 523.5998,-112.5"/>
<text text-anchor="middle" x="546.5998" y="-119.5" font-family="Helvetica,sans-Serif" font-size="10.00" fill="#000000">future</text>
</a>
</g>
</g>
<!-- Node4&#45;&gt;Node15 -->
<g id="edge17" class="edge">
<title>Node4&#45;&gt;Node15</title>
<path fill="none" stroke="#191970" d="M407.48,-168.3733C436.9807,-158.5397 482.7208,-143.293 513.6252,-132.9916"/>
<polygon fill="#191970" stroke="#191970" points="515.1121,-136.1853 523.4922,-129.7026 512.8985,-129.5445 515.1121,-136.1853"/>
</g>
<!-- Node6 -->
<g id="node7" class="node">
<title>Node6</title>
<g id="a_node7"><a xlink:title=" ">
<polygon fill="#ffffff" stroke="#bfbfbf" points="191.0998,-56.5 191.0998,-75.5 258.0998,-75.5 258.0998,-56.5 191.0998,-56.5"/>
<text text-anchor="middle" x="224.5998" y="-63.5" font-family="Helvetica,sans-Serif" font-size="10.00" fill="#000000">LogEntry.h</text>
</a>
</g>
</g>
<!-- Node5&#45;&gt;Node6 -->
<g id="edge6" class="edge">
<title>Node5&#45;&gt;Node6</title>
<path fill="none" stroke="#191970" d="M287.3616,-112.2455C275.9189,-103.814 259.1702,-91.4729 245.8524,-81.6598"/>
<polygon fill="#191970" stroke="#191970" points="247.8131,-78.757 237.6863,-75.6427 243.6607,-84.3924 247.8131,-78.757"/>
</g>
<!-- Node7 -->
<g id="node8" class="node">
<title>Node7</title>
<g id="a_node8"><a xlink:href="SharedStruct_8hpp.html" target="_top" xlink:title=" ">
<polygon fill="#ffffff" stroke="#000000" points="314.5998,-56.5 314.5998,-75.5 414.5998,-75.5 414.5998,-56.5 314.5998,-56.5"/>
<text text-anchor="middle" x="364.5998" y="-63.5" font-family="Helvetica,sans-Serif" font-size="10.00" fill="#000000">SharedStruct.hpp</text>
</a>
</g>
</g>
<!-- Node5&#45;&gt;Node7 -->
<g id="edge7" class="edge">
<title>Node5&#45;&gt;Node7</title>
<path fill="none" stroke="#191970" d="M311.7478,-112.2455C321.1085,-104.0549 334.6856,-92.1749 345.7348,-82.5069"/>
<polygon fill="#191970" stroke="#191970" points="348.3586,-84.8618 353.5796,-75.6427 343.7491,-79.5937 348.3586,-84.8618"/>
</g>
<!-- Node8 -->
<g id="node9" class="node">
<title>Node8</title>
<g id="a_node9"><a xlink:title=" ">
<polygon fill="#ffffff" stroke="#bfbfbf" points="260.5998,-.5 260.5998,-19.5 312.5998,-19.5 312.5998,-.5 260.5998,-.5"/>
<text text-anchor="middle" x="286.5998" y="-7.5" font-family="Helvetica,sans-Serif" font-size="10.00" fill="#000000">cassert</text>
</a>
</g>
</g>
<!-- Node5&#45;&gt;Node8 -->
<g id="edge13" class="edge">
<title>Node5&#45;&gt;Node8</title>
<path fill="none" stroke="#191970" d="M299.4062,-112.4509C297.1228,-94.184 292.0942,-53.9553 289.062,-29.6976"/>
<polygon fill="#191970" stroke="#191970" points="292.5038,-29.0135 287.7904,-19.5249 285.5579,-29.8818 292.5038,-29.0135"/>
</g>
<!-- Node12 -->
<g id="node13" class="node">
<title>Node12</title>
<g id="a_node13"><a xlink:title=" ">
<polygon fill="#ffffff" stroke="#bfbfbf" points="433.0998,-56.5 433.0998,-75.5 480.0998,-75.5 480.0998,-56.5 433.0998,-56.5"/>
<text text-anchor="middle" x="456.5998" y="-63.5" font-family="Helvetica,sans-Serif" font-size="10.00" fill="#000000">cmath</text>
</a>
</g>
</g>
<!-- Node5&#45;&gt;Node12 -->
<g id="edge14" class="edge">
<title>Node5&#45;&gt;Node12</title>
<path fill="none" stroke="#191970" d="M327.4172,-112.3733C353.9123,-102.8622 394.514,-88.2872 423.1137,-78.0207"/>
<polygon fill="#191970" stroke="#191970" points="424.4571,-81.2572 432.6865,-74.5843 422.092,-74.6688 424.4571,-81.2572"/>
</g>
<!-- Node13 -->
<g id="node14" class="node">
<title>Node13</title>
<g id="a_node14"><a xlink:title=" ">
<polygon fill="#ffffff" stroke="#bfbfbf" points="498.0998,-56.5 498.0998,-75.5 555.0998,-75.5 555.0998,-56.5 498.0998,-56.5"/>
<text text-anchor="middle" x="526.5998" y="-63.5" font-family="Helvetica,sans-Serif" font-size="10.00" fill="#000000">ostream</text>
</a>
</g>
</g>
<!-- Node5&#45;&gt;Node13 -->
<g id="edge15" class="edge">
<title>Node5&#45;&gt;Node13</title>
<path fill="none" stroke="#191970" d="M340.6249,-112.4196C376.636,-103.7523 431.2492,-90.4909 488.0947,-76.0972"/>
<polygon fill="#191970" stroke="#191970" points="489.1481,-79.4409 497.9797,-73.5884 487.426,-72.656 489.1481,-79.4409"/>
</g>
<!-- Node7&#45;&gt;Node3 -->
<g id="edge11" class="edge">
<title>Node7&#45;&gt;Node3</title>
<path fill="none" stroke="#191970" d="M334.8601,-56.3733C303.8263,-46.3276 255.3408,-30.6329 223.5186,-20.3321"/>
<polygon fill="#191970" stroke="#191970" points="224.4074,-16.941 213.8155,-17.1912 222.2516,-23.6008 224.4074,-16.941"/>
</g>
<!-- Node7&#45;&gt;Node8 -->
<g id="edge8" class="edge">
<title>Node7&#45;&gt;Node8</title>
<path fill="none" stroke="#191970" d="M351.0133,-56.2455C339.2694,-47.814 322.0799,-35.4729 308.4116,-25.6598"/>
<polygon fill="#191970" stroke="#191970" points="310.1952,-22.6316 300.0307,-19.6427 306.1127,-28.3179 310.1952,-22.6316"/>
</g>
<!-- Node9 -->
<g id="node10" class="node">
<title>Node9</title>
<g id="a_node10"><a xlink:title=" ">
<polygon fill="#ffffff" stroke="#bfbfbf" points="584.5998,-.5 584.5998,-19.5 634.5998,-19.5 634.5998,-.5 584.5998,-.5"/>
<text text-anchor="middle" x="609.5998" y="-7.5" font-family="Helvetica,sans-Serif" font-size="10.00" fill="#000000">cstdint</text>
</a>
</g>
</g>
<!-- Node7&#45;&gt;Node9 -->
<g id="edge9" class="edge">
<title>Node7&#45;&gt;Node9</title>
<path fill="none" stroke="#191970" d="M406.4384,-56.4369C453.8591,-45.5979 530.3098,-28.1234 574.6663,-17.9848"/>
<polygon fill="#191970" stroke="#191970" points="575.4499,-21.396 584.4186,-15.7557 573.8901,-14.572 575.4499,-21.396"/>
</g>
<!-- Node10 -->
<g id="node11" class="node">
<title>Node10</title>
<g id="a_node11"><a xlink:title=" ">
<polygon fill="#ffffff" stroke="#bfbfbf" points="460.0998,-.5 460.0998,-19.5 525.0998,-19.5 525.0998,-.5 460.0998,-.5"/>
<text text-anchor="middle" x="492.5998" y="-7.5" font-family="Helvetica,sans-Serif" font-size="10.00" fill="#000000">stdexcept</text>
</a>
</g>
</g>
<!-- Node7&#45;&gt;Node10 -->
<g id="edge10" class="edge">
<title>Node7&#45;&gt;Node10</title>
<path fill="none" stroke="#191970" d="M386.6038,-56.3733C407.2433,-47.3435 438.3156,-33.7494 461.4887,-23.6111"/>
<polygon fill="#191970" stroke="#191970" points="463.1243,-26.7159 470.883,-19.5011 460.3185,-20.3028 463.1243,-26.7159"/>
</g>
<!-- Node11 -->
<g id="node12" class="node">
<title>Node11</title>
<g id="a_node12"><a xlink:title=" ">
<polygon fill="#ffffff" stroke="#bfbfbf" points="331.0998,-.5 331.0998,-19.5 400.0998,-19.5 400.0998,-.5 331.0998,-.5"/>
<text text-anchor="middle" x="365.5998" y="-7.5" font-family="Helvetica,sans-Serif" font-size="10.00" fill="#000000">type_traits</text>
</a>
</g>
</g>
<!-- Node7&#45;&gt;Node11 -->
<g id="edge12" class="edge">
<title>Node7&#45;&gt;Node11</title>
<path fill="none" stroke="#191970" d="M364.774,-56.2455C364.9045,-48.9382 365.0874,-38.6944 365.248,-29.7046"/>
<polygon fill="#191970" stroke="#191970" points="368.7484,-29.7036 365.4276,-19.6427 361.7495,-29.5786 368.7484,-29.7036"/>
</g>
<!-- Node16&#45;&gt;Node3 -->
<g id="edge22" class="edge">
<title>Node16&#45;&gt;Node3</title>
<path fill="none" stroke="#191970" d="M573.0046,-57.7018C569.8312,-57.0863 566.6635,-56.5085 563.5998,-56 425.8968,-33.1457 389.8205,-39.4801 251.5998,-20 242.5806,-18.7289 232.8282,-17.1792 223.8603,-15.6829"/>
<polygon fill="#191970" stroke="#191970" points="224.2292,-12.1955 213.7842,-13.9708 223.0565,-19.0966 224.2292,-12.1955"/>
</g>
<!-- Node16&#45;&gt;Node9 -->
<g id="edge21" class="edge">
<title>Node16&#45;&gt;Node9</title>
<path fill="none" stroke="#191970" d="M609.5998,-56.2455C609.5998,-48.9382 609.5998,-38.6944 609.5998,-29.7046"/>
<polygon fill="#191970" stroke="#191970" points="613.0999,-29.6426 609.5998,-19.6427 606.0999,-29.6427 613.0999,-29.6426"/>
</g>
<!-- Node17 -->
<g id="node18" class="node">
<title>Node17</title>
<g id="a_node18"><a xlink:title=" ">
<polygon fill="#ffffff" stroke="#bfbfbf" points="677.0998,-.5 677.0998,-19.5 724.0998,-19.5 724.0998,-.5 677.0998,-.5"/>
<text text-anchor="middle" x="700.5998" y="-7.5" font-family="Helvetica,sans-Serif" font-size="10.00" fill="#000000">vector</text>
</a>
</g>
</g>
<!-- Node16&#45;&gt;Node17 -->
<g id="edge23" class="edge">
<title>Node16&#45;&gt;Node17</title>
<path fill="none" stroke="#191970" d="M625.4508,-56.2455C639.413,-47.6534 659.9726,-35.0014 676.0594,-25.1018"/>
<polygon fill="#191970" stroke="#191970" points="678.2482,-27.8645 684.9305,-19.6427 674.5795,-21.9029 678.2482,-27.8645"/>
</g>
<!-- Node19 -->
<g id="node20" class="node">
<title>Node19</title>
<g id="a_node20"><a xlink:href="cryptoException_8hpp.html" target="_top" xlink:title=" ">
<polygon fill="#ffffff" stroke="#000000" points="802.5998,-56.5 802.5998,-75.5 918.5998,-75.5 918.5998,-56.5 802.5998,-56.5"/>
<text text-anchor="middle" x="860.5998" y="-63.5" font-family="Helvetica,sans-Serif" font-size="10.00" fill="#000000">cryptoException.hpp</text>
</a>
</g>
</g>
<!-- Node18&#45;&gt;Node19 -->
<g id="edge25" class="edge">
<title>Node18&#45;&gt;Node19</title>
<path fill="none" stroke="#191970" d="M747.9791,-112.3733C770.1043,-103.2629 803.5132,-89.5062 828.2017,-79.3404"/>
<polygon fill="#191970" stroke="#191970" points="829.6115,-82.5451 837.5257,-75.5011 826.9462,-76.0723 829.6115,-82.5451"/>
</g>
<!-- Node21 -->
<g id="node22" class="node">
<title>Node21</title>
<g id="a_node22"><a xlink:href="cryptoInstruction_8hpp.html" target="_top" xlink:title=" ">
<polygon fill="#ffffff" stroke="#000000" points="664.5998,-56.5 664.5998,-75.5 784.5998,-75.5 784.5998,-56.5 664.5998,-56.5"/>
<text text-anchor="middle" x="724.5998" y="-63.5" font-family="Helvetica,sans-Serif" font-size="10.00" fill="#000000">cryptoInstruction.hpp</text>
</a>
</g>
</g>
<!-- Node18&#45;&gt;Node21 -->
<g id="edge27" class="edge">
<title>Node18&#45;&gt;Node21</title>
<path fill="none" stroke="#191970" d="M724.5998,-112.2455C724.5998,-104.9382 724.5998,-94.6944 724.5998,-85.7046"/>
<polygon fill="#191970" stroke="#191970" points="728.0999,-85.6426 724.5998,-75.6427 721.0999,-85.6427 728.0999,-85.6426"/>
</g>
<!-- Node20 -->
<g id="node21" class="node">
<title>Node20</title>
<g id="a_node21"><a xlink:title=" ">
<polygon fill="#ffffff" stroke="#bfbfbf" points="828.0998,-.5 828.0998,-19.5 893.0998,-19.5 893.0998,-.5 828.0998,-.5"/>
<text text-anchor="middle" x="860.5998" y="-7.5" font-family="Helvetica,sans-Serif" font-size="10.00" fill="#000000">exception</text>
</a>
</g>
</g>
<!-- Node19&#45;&gt;Node20 -->
<g id="edge26" class="edge">
<title>Node19&#45;&gt;Node20</title>
<path fill="none" stroke="#191970" d="M860.5998,-56.2455C860.5998,-48.9382 860.5998,-38.6944 860.5998,-29.7046"/>
<polygon fill="#191970" stroke="#191970" points="864.0999,-29.6426 860.5998,-19.6427 857.0999,-29.6427 864.0999,-29.6426"/>
</g>
<!-- Node21&#45;&gt;Node9 -->
<g id="edge28" class="edge">
<title>Node21&#45;&gt;Node9</title>
<path fill="none" stroke="#191970" d="M704.8306,-56.3733C686.4529,-47.4241 658.8686,-33.9917 638.1106,-23.8835"/>
<polygon fill="#191970" stroke="#191970" points="639.6341,-20.7325 629.1111,-19.5011 636.5694,-27.026 639.6341,-20.7325"/>
</g>
<!-- Node21&#45;&gt;Node10 -->
<g id="edge29" class="edge">
<title>Node21&#45;&gt;Node10</title>
<path fill="none" stroke="#191970" d="M684.9812,-56.4369C643.2864,-46.3726 577.8913,-30.5876 535.1312,-20.2662"/>
<polygon fill="#191970" stroke="#191970" points="535.8495,-16.8391 525.3075,-17.8949 534.207,-23.6437 535.8495,-16.8391"/>
</g>
<!-- Node21&#45;&gt;Node17 -->
<g id="edge30" class="edge">
<title>Node21&#45;&gt;Node17</title>
<path fill="none" stroke="#191970" d="M720.4193,-56.2455C717.2188,-48.7776 712.7038,-38.2427 708.7914,-29.1137"/>
<polygon fill="#191970" stroke="#191970" points="711.8887,-27.4554 704.7324,-19.6427 705.4546,-30.2129 711.8887,-27.4554"/>
</g>
</g>
</svg>
