<?xml version="1.0" encoding="UTF-8" standalone="no"?>
<!DOCTYPE svg PUBLIC "-//W3C//DTD SVG 1.1//EN"
 "http://www.w3.org/Graphics/SVG/1.1/DTD/svg11.dtd">
<!-- Generated by graphviz version 2.40.1 (20161225.0304)
 -->
<!-- Title: /home/pieter/GitHub/EAGLE&#45;ZYBO&#45;Linux/src/qr&#45;crypto&#45;manager/src/QRCryptoManager.cpp Pages: 1 -->
<svg width="1904pt" height="509pt"
 viewBox="0.00 0.00 1903.50 509.00" xmlns="http://www.w3.org/2000/svg" xmlns:xlink="http://www.w3.org/1999/xlink">
<g id="graph0" class="graph" transform="scale(1 1) rotate(0) translate(4 505)">
<title>/home/pieter/GitHub/EAGLE&#45;ZYBO&#45;Linux/src/qr&#45;crypto&#45;manager/src/QRCryptoManager.cpp</title>
<polygon fill="#ffffff" stroke="transparent" points="-4,4 -4,-505 1899.5,-505 1899.5,4 -4,4"/>
<!-- Node0 -->
<g id="node1" class="node">
<title>Node0</title>
<g id="a_node1"><a xlink:title=" ">
<polygon fill="#bfbfbf" stroke="#000000" points="1275,-448.5 1275,-500.5 1404,-500.5 1404,-448.5 1275,-448.5"/>
<text text-anchor="start" x="1283" y="-488.5" font-family="Helvetica,sans-Serif" font-size="10.00" fill="#000000">/home/pieter/GitHub</text>
<text text-anchor="start" x="1283" y="-477.5" font-family="Helvetica,sans-Serif" font-size="10.00" fill="#000000">/EAGLE&#45;ZYBO&#45;Linux/src</text>
<text text-anchor="start" x="1283" y="-466.5" font-family="Helvetica,sans-Serif" font-size="10.00" fill="#000000">/qr&#45;crypto&#45;manager/src</text>
<text text-anchor="middle" x="1339.5" y="-455.5" font-family="Helvetica,sans-Serif" font-size="10.00" fill="#000000">/QRCryptoManager.cpp</text>
</a>
</g>
</g>
<!-- Node1 -->
<g id="node2" class="node">
<title>Node1</title>
<g id="a_node2"><a xlink:href="QR-Decode_8hpp.html" target="_top" xlink:title=" ">
<polygon fill="#ffffff" stroke="#000000" points="1254.5,-392.5 1254.5,-411.5 1346.5,-411.5 1346.5,-392.5 1254.5,-392.5"/>
<text text-anchor="middle" x="1300.5" y="-399.5" font-family="Helvetica,sans-Serif" font-size="10.00" fill="#000000">QR&#45;Decode.hpp</text>
</a>
</g>
</g>
<!-- Node0&#45;&gt;Node1 -->
<g id="edge1" class="edge">
<title>Node0&#45;&gt;Node1</title>
<path fill="none" stroke="#191970" d="M1325.4201,-448.3258C1320.4646,-439.1136 1315.0017,-428.9584 1310.4569,-420.5096"/>
<polygon fill="#191970" stroke="#191970" points="1313.4484,-418.6826 1305.6286,-411.534 1307.2837,-421.9988 1313.4484,-418.6826"/>
</g>
<!-- Node4 -->
<g id="node5" class="node">
<title>Node4</title>
<g id="a_node5"><a xlink:href="QRCryptoManager_8hpp.html" target="_top" xlink:title=" ">
<polygon fill="#ffffff" stroke="#000000" points="1031,-392.5 1031,-411.5 1156,-411.5 1156,-392.5 1031,-392.5"/>
<text text-anchor="middle" x="1093.5" y="-399.5" font-family="Helvetica,sans-Serif" font-size="10.00" fill="#000000">QRCryptoManager.hpp</text>
</a>
</g>
</g>
<!-- Node0&#45;&gt;Node4 -->
<g id="edge4" class="edge">
<title>Node0&#45;&gt;Node4</title>
<path fill="none" stroke="#191970" d="M1274.8664,-455.4515C1230.8282,-442.4727 1173.7953,-425.6643 1135.5477,-414.3921"/>
<polygon fill="#191970" stroke="#191970" points="1136.3484,-410.9793 1125.7668,-411.5095 1134.3695,-417.6938 1136.3484,-410.9793"/>
</g>
<!-- Node38 -->
<g id="node39" class="node">
<title>Node38</title>
<g id="a_node39"><a xlink:href="base64_8hpp.html" target="_top" xlink:title=" ">
<polygon fill="#ffffff" stroke="#000000" points="1367,-280.5 1367,-299.5 1440,-299.5 1440,-280.5 1367,-280.5"/>
<text text-anchor="middle" x="1403.5" y="-287.5" font-family="Helvetica,sans-Serif" font-size="10.00" fill="#000000">base64.hpp</text>
</a>
</g>
</g>
<!-- Node0&#45;&gt;Node38 -->
<g id="edge50" class="edge">
<title>Node0&#45;&gt;Node38</title>
<path fill="none" stroke="#191970" d="M1348.5339,-448.457C1361.5301,-410.9913 1385.2081,-342.732 1396.7768,-309.3816"/>
<polygon fill="#191970" stroke="#191970" points="1400.1079,-310.4583 1400.0785,-299.8635 1393.4945,-308.1641 1400.1079,-310.4583"/>
</g>
<!-- Node40 -->
<g id="node41" class="node">
<title>Node40</title>
<g id="a_node41"><a xlink:href="crypto_8hpp.html" target="_top" xlink:title=" ">
<polygon fill="#ffffff" stroke="#000000" points="1563.5,-392.5 1563.5,-411.5 1631.5,-411.5 1631.5,-392.5 1563.5,-392.5"/>
<text text-anchor="middle" x="1597.5" y="-399.5" font-family="Helvetica,sans-Serif" font-size="10.00" fill="#000000">crypto.hpp</text>
</a>
</g>
</g>
<!-- Node0&#45;&gt;Node40 -->
<g id="edge54" class="edge">
<title>Node0&#45;&gt;Node40</title>
<path fill="none" stroke="#191970" d="M1404.2713,-456.2988C1451.0183,-443.1625 1512.8732,-425.7808 1553.8635,-414.2622"/>
<polygon fill="#191970" stroke="#191970" points="1554.8768,-417.6131 1563.5571,-411.5382 1552.9831,-410.8741 1554.8768,-417.6131"/>
</g>
<!-- Node2 -->
<g id="node3" class="node">
<title>Node2</title>
<g id="a_node3"><a xlink:title=" ">
<polygon fill="#ffffff" stroke="#bfbfbf" points="1147,-336.5 1147,-355.5 1272,-355.5 1272,-336.5 1147,-336.5"/>
<text text-anchor="middle" x="1209.5" y="-343.5" font-family="Helvetica,sans-Serif" font-size="10.00" fill="#000000">opencv2/core/mat.hpp</text>
</a>
</g>
</g>
<!-- Node1&#45;&gt;Node2 -->
<g id="edge2" class="edge">
<title>Node1&#45;&gt;Node2</title>
<path fill="none" stroke="#191970" d="M1284.649,-392.2455C1270.6868,-383.6534 1250.1272,-371.0014 1234.0404,-361.1018"/>
<polygon fill="#191970" stroke="#191970" points="1235.5203,-357.9029 1225.1693,-355.6427 1231.8516,-363.8645 1235.5203,-357.9029"/>
</g>
<!-- Node3 -->
<g id="node4" class="node">
<title>Node3</title>
<g id="a_node4"><a xlink:title=" ">
<polygon fill="#ffffff" stroke="#bfbfbf" points="1324.5,-224.5 1324.5,-243.5 1368.5,-243.5 1368.5,-224.5 1324.5,-224.5"/>
<text text-anchor="middle" x="1346.5" y="-231.5" font-family="Helvetica,sans-Serif" font-size="10.00" fill="#000000">string</text>
</a>
</g>
</g>
<!-- Node1&#45;&gt;Node3 -->
<g id="edge3" class="edge">
<title>Node1&#45;&gt;Node3</title>
<path fill="none" stroke="#191970" d="M1303.105,-392.4862C1310.408,-365.8144 1331.1908,-289.9117 1341.1073,-253.695"/>
<polygon fill="#191970" stroke="#191970" points="1344.5438,-254.3972 1343.809,-243.8279 1337.7923,-252.5485 1344.5438,-254.3972"/>
</g>
<!-- Node4&#45;&gt;Node2 -->
<g id="edge48" class="edge">
<title>Node4&#45;&gt;Node2</title>
<path fill="none" stroke="#191970" d="M1113.4411,-392.3733C1131.9786,-383.4241 1159.8028,-369.9917 1180.7413,-359.8835"/>
<polygon fill="#191970" stroke="#191970" points="1182.3352,-363.0006 1189.8191,-355.5011 1179.2919,-356.6967 1182.3352,-363.0006"/>
</g>
<!-- Node4&#45;&gt;Node3 -->
<g id="edge49" class="edge">
<title>Node4&#45;&gt;Node3</title>
<path fill="none" stroke="#191970" d="M1098.0558,-392.3261C1105.0527,-378.3373 1119.6368,-352.3501 1138.5,-336 1166.7786,-311.4889 1263.8566,-268.7141 1314.7664,-247.1806"/>
<polygon fill="#191970" stroke="#191970" points="1316.4394,-250.2739 1324.2987,-243.1689 1313.724,-243.822 1316.4394,-250.2739"/>
</g>
<!-- Node5 -->
<g id="node6" class="node">
<title>Node5</title>
<g id="a_node6"><a xlink:href="BaremetalCommunicationDef_8hpp.html" target="_top" xlink:title=" ">
<polygon fill="#ffffff" stroke="#000000" points="245.5,-336.5 245.5,-355.5 427.5,-355.5 427.5,-336.5 245.5,-336.5"/>
<text text-anchor="middle" x="336.5" y="-343.5" font-family="Helvetica,sans-Serif" font-size="10.00" fill="#000000">BaremetalCommunicationDef.hpp</text>
</a>
</g>
</g>
<!-- Node4&#45;&gt;Node5 -->
<g id="edge5" class="edge">
<title>Node4&#45;&gt;Node5</title>
<path fill="none" stroke="#191970" d="M1030.9075,-397.3696C900.1439,-387.6962 596.97,-365.2686 437.9705,-353.5064"/>
<polygon fill="#191970" stroke="#191970" points="437.9403,-349.9947 427.7093,-352.7473 437.4238,-356.9756 437.9403,-349.9947"/>
</g>
<!-- Node26 -->
<g id="node27" class="node">
<title>Node26</title>
<g id="a_node27"><a xlink:href="SharedMem_8hpp.html" target="_top" xlink:title=" ">
<polygon fill="#ffffff" stroke="#000000" points="847,-280.5 847,-299.5 942,-299.5 942,-280.5 847,-280.5"/>
<text text-anchor="middle" x="894.5" y="-287.5" font-family="Helvetica,sans-Serif" font-size="10.00" fill="#000000">SharedMem.hpp</text>
</a>
</g>
</g>
<!-- Node4&#45;&gt;Node26 -->
<g id="edge34" class="edge">
<title>Node4&#45;&gt;Node26</title>
<path fill="none" stroke="#191970" d="M1076.5334,-392.4509C1041.6536,-372.8201 961.7085,-327.8259 920.3473,-304.5472"/>
<polygon fill="#191970" stroke="#191970" points="921.8549,-301.3795 911.4237,-299.5249 918.4216,-307.4797 921.8549,-301.3795"/>
</g>
<!-- Node37 -->
<g id="node38" class="node">
<title>Node37</title>
<g id="a_node38"><a xlink:title=" ">
<polygon fill="#ffffff" stroke="#bfbfbf" points="1044.5,-336.5 1044.5,-355.5 1090.5,-355.5 1090.5,-336.5 1044.5,-336.5"/>
<text text-anchor="middle" x="1067.5" y="-343.5" font-family="Helvetica,sans-Serif" font-size="10.00" fill="#000000">future</text>
</a>
</g>
</g>
<!-- Node4&#45;&gt;Node37 -->
<g id="edge47" class="edge">
<title>Node4&#45;&gt;Node37</title>
<path fill="none" stroke="#191970" d="M1088.9711,-392.2455C1085.4666,-384.6973 1080.5073,-374.0158 1076.2377,-364.8197"/>
<polygon fill="#191970" stroke="#191970" points="1079.3627,-363.2389 1071.977,-355.6427 1073.0136,-366.1867 1079.3627,-363.2389"/>
</g>
<!-- Node6 -->
<g id="node7" class="node">
<title>Node6</title>
<g id="a_node7"><a xlink:href="LogEntry_8hpp.html" target="_top" xlink:title=" ">
<polygon fill="#ffffff" stroke="#000000" points="239,-280.5 239,-299.5 318,-299.5 318,-280.5 239,-280.5"/>
<text text-anchor="middle" x="278.5" y="-287.5" font-family="Helvetica,sans-Serif" font-size="10.00" fill="#000000">LogEntry.hpp</text>
</a>
</g>
</g>
<!-- Node5&#45;&gt;Node6 -->
<g id="edge6" class="edge">
<title>Node5&#45;&gt;Node6</title>
<path fill="none" stroke="#191970" d="M326.3972,-336.2455C317.9972,-328.1352 305.8506,-316.4075 295.8916,-306.7919"/>
<polygon fill="#191970" stroke="#191970" points="298.1122,-304.0707 288.4871,-299.6427 293.25,-309.1066 298.1122,-304.0707"/>
</g>
<!-- Node12 -->
<g id="node13" class="node">
<title>Node12</title>
<g id="a_node13"><a xlink:title=" ">
<polygon fill="#ffffff" stroke="#bfbfbf" points="71,-.5 71,-19.5 118,-19.5 118,-.5 71,-.5"/>
<text text-anchor="middle" x="94.5" y="-7.5" font-family="Helvetica,sans-Serif" font-size="10.00" fill="#000000">cmath</text>
</a>
</g>
</g>
<!-- Node5&#45;&gt;Node12 -->
<g id="edge32" class="edge">
<title>Node5&#45;&gt;Node12</title>
<path fill="none" stroke="#191970" d="M267.5759,-336.4494C172.175,-321.2626 11.5,-287.7121 11.5,-234 11.5,-234 11.5,-234 11.5,-122 11.5,-91.4754 12.9148,-80.9502 30.5,-56 39.571,-43.1299 53.4181,-32.5359 65.9149,-24.772"/>
<polygon fill="#191970" stroke="#191970" points="67.8328,-27.7048 74.6883,-19.6268 64.2917,-21.6665 67.8328,-27.7048"/>
</g>
<!-- Node19 -->
<g id="node20" class="node">
<title>Node19</title>
<g id="a_node20"><a xlink:title=" ">
<polygon fill="#ffffff" stroke="#bfbfbf" points="40,-56.5 40,-75.5 97,-75.5 97,-56.5 40,-56.5"/>
<text text-anchor="middle" x="68.5" y="-63.5" font-family="Helvetica,sans-Serif" font-size="10.00" fill="#000000">ostream</text>
</a>
</g>
</g>
<!-- Node5&#45;&gt;Node19 -->
<g id="edge33" class="edge">
<title>Node5&#45;&gt;Node19</title>
<path fill="none" stroke="#191970" d="M299.5805,-336.4374C233.8808,-318.3275 103.5,-276.9746 103.5,-234 103.5,-234 103.5,-234 103.5,-178 103.5,-143.8821 88.5205,-106.4701 78.1609,-84.676"/>
<polygon fill="#191970" stroke="#191970" points="81.2308,-82.9879 73.6644,-75.5717 74.9545,-86.0877 81.2308,-82.9879"/>
</g>
<!-- Node23 -->
<g id="node24" class="node">
<title>Node23</title>
<g id="a_node24"><a xlink:href="SharedStruct_8hpp.html" target="_top" xlink:title=" ">
<polygon fill="#ffffff" stroke="#000000" points="343.5,-280.5 343.5,-299.5 443.5,-299.5 443.5,-280.5 343.5,-280.5"/>
<text text-anchor="middle" x="393.5" y="-287.5" font-family="Helvetica,sans-Serif" font-size="10.00" fill="#000000">SharedStruct.hpp</text>
</a>
</g>
</g>
<!-- Node5&#45;&gt;Node23 -->
<g id="edge25" class="edge">
<title>Node5&#45;&gt;Node23</title>
<path fill="none" stroke="#191970" d="M346.4286,-336.2455C354.6838,-328.1352 366.6209,-316.4075 376.4082,-306.7919"/>
<polygon fill="#191970" stroke="#191970" points="379.0046,-309.1476 383.6851,-299.6427 374.0989,-304.1542 379.0046,-309.1476"/>
</g>
<!-- Node24 -->
<g id="node25" class="node">
<title>Node24</title>
<g id="a_node25"><a xlink:title=" ">
<polygon fill="#ffffff" stroke="#bfbfbf" points="456.5,-224.5 456.5,-243.5 508.5,-243.5 508.5,-224.5 456.5,-224.5"/>
<text text-anchor="middle" x="482.5" y="-231.5" font-family="Helvetica,sans-Serif" font-size="10.00" fill="#000000">cassert</text>
</a>
</g>
</g>
<!-- Node5&#45;&gt;Node24 -->
<g id="edge31" class="edge">
<title>Node5&#45;&gt;Node24</title>
<path fill="none" stroke="#191970" d="M382.5548,-336.4481C405.8918,-329.6189 433.2791,-318.2997 452.5,-300 465.5755,-287.5513 473.4167,-268.3327 477.7842,-253.8387"/>
<polygon fill="#191970" stroke="#191970" points="481.249,-254.433 480.4762,-243.8664 474.4909,-252.6086 481.249,-254.433"/>
</g>
<!-- Node7 -->
<g id="node8" class="node">
<title>Node7</title>
<g id="a_node8"><a xlink:href="LoggerStructs_8hpp.html" target="_top" xlink:title=" ">
<polygon fill="#ffffff" stroke="#000000" points="220.5,-224.5 220.5,-243.5 324.5,-243.5 324.5,-224.5 220.5,-224.5"/>
<text text-anchor="middle" x="272.5" y="-231.5" font-family="Helvetica,sans-Serif" font-size="10.00" fill="#000000">LoggerStructs.hpp</text>
</a>
</g>
</g>
<!-- Node6&#45;&gt;Node7 -->
<g id="edge7" class="edge">
<title>Node6&#45;&gt;Node7</title>
<path fill="none" stroke="#191970" d="M277.4549,-280.2455C276.672,-272.9382 275.5744,-262.6944 274.6112,-253.7046"/>
<polygon fill="#191970" stroke="#191970" points="278.0786,-253.2129 273.5331,-243.6427 271.1185,-253.9587 278.0786,-253.2129"/>
</g>
<!-- Node8 -->
<g id="node9" class="node">
<title>Node8</title>
<g id="a_node9"><a xlink:href="Quaternion_8hpp.html" target="_top" xlink:title=" ">
<polygon fill="#ffffff" stroke="#000000" points="226.5,-168.5 226.5,-187.5 318.5,-187.5 318.5,-168.5 226.5,-168.5"/>
<text text-anchor="middle" x="272.5" y="-175.5" font-family="Helvetica,sans-Serif" font-size="10.00" fill="#000000">Quaternion.hpp</text>
</a>
</g>
</g>
<!-- Node7&#45;&gt;Node8 -->
<g id="edge8" class="edge">
<title>Node7&#45;&gt;Node8</title>
<path fill="none" stroke="#191970" d="M272.5,-224.2455C272.5,-216.9382 272.5,-206.6944 272.5,-197.7046"/>
<polygon fill="#191970" stroke="#191970" points="276.0001,-197.6426 272.5,-187.6427 269.0001,-197.6427 276.0001,-197.6426"/>
</g>
<!-- Node9 -->
<g id="node10" class="node">
<title>Node9</title>
<g id="a_node10"><a xlink:href="Matrix_8hpp.html" target="_top" xlink:title=" ">
<polygon fill="#ffffff" stroke="#000000" points="166.5,-112.5 166.5,-131.5 234.5,-131.5 234.5,-112.5 166.5,-112.5"/>
<text text-anchor="middle" x="200.5" y="-119.5" font-family="Helvetica,sans-Serif" font-size="10.00" fill="#000000">Matrix.hpp</text>
</a>
</g>
</g>
<!-- Node8&#45;&gt;Node9 -->
<g id="edge9" class="edge">
<title>Node8&#45;&gt;Node9</title>
<path fill="none" stroke="#191970" d="M259.9586,-168.2455C249.2213,-159.8943 233.5527,-147.7076 220.9953,-137.9408"/>
<polygon fill="#191970" stroke="#191970" points="222.9401,-135.0194 212.8977,-131.6427 218.6425,-140.5449 222.9401,-135.0194"/>
</g>
<!-- Node22 -->
<g id="node23" class="node">
<title>Node22</title>
<g id="a_node23"><a xlink:href="Square_8hpp.html" target="_top" xlink:title=" ">
<polygon fill="#ffffff" stroke="#000000" points="253,-112.5 253,-131.5 324,-131.5 324,-112.5 253,-112.5"/>
<text text-anchor="middle" x="288.5" y="-119.5" font-family="Helvetica,sans-Serif" font-size="10.00" fill="#000000">Square.hpp</text>
</a>
</g>
</g>
<!-- Node8&#45;&gt;Node22 -->
<g id="edge24" class="edge">
<title>Node8&#45;&gt;Node22</title>
<path fill="none" stroke="#191970" d="M275.287,-168.2455C277.3977,-160.8579 280.366,-150.4689 282.9547,-141.4087"/>
<polygon fill="#191970" stroke="#191970" points="286.363,-142.2195 285.745,-131.6427 279.6323,-140.2964 286.363,-142.2195"/>
</g>
<!-- Node10 -->
<g id="node11" class="node">
<title>Node10</title>
<g id="a_node11"><a xlink:href="Array_8hpp.html" target="_top" xlink:title=" ">
<polygon fill="#ffffff" stroke="#000000" points="224.5,-56.5 224.5,-75.5 286.5,-75.5 286.5,-56.5 224.5,-56.5"/>
<text text-anchor="middle" x="255.5" y="-63.5" font-family="Helvetica,sans-Serif" font-size="10.00" fill="#000000">Array.hpp</text>
</a>
</g>
</g>
<!-- Node9&#45;&gt;Node10 -->
<g id="edge10" class="edge">
<title>Node9&#45;&gt;Node10</title>
<path fill="none" stroke="#191970" d="M210.0803,-112.2455C218.0458,-104.1352 229.5641,-92.4075 239.0079,-82.7919"/>
<polygon fill="#191970" stroke="#191970" points="241.5195,-85.2297 246.0295,-75.6427 236.5253,-80.3247 241.5195,-85.2297"/>
</g>
<!-- Node11 -->
<g id="node12" class="node">
<title>Node11</title>
<g id="a_node12"><a xlink:title=" ">
<polygon fill="#ffffff" stroke="#bfbfbf" points="282.5,-.5 282.5,-19.5 346.5,-19.5 346.5,-.5 282.5,-.5"/>
<text text-anchor="middle" x="314.5" y="-7.5" font-family="Helvetica,sans-Serif" font-size="10.00" fill="#000000">algorithm</text>
</a>
</g>
</g>
<!-- Node9&#45;&gt;Node11 -->
<g id="edge17" class="edge">
<title>Node9&#45;&gt;Node11</title>
<path fill="none" stroke="#191970" d="M234.805,-113.0987C255.1451,-106.1512 279.9157,-94.4993 295.5,-76 306.4111,-63.048 311.0635,-44.1521 313.0434,-29.8945"/>
<polygon fill="#191970" stroke="#191970" points="316.5549,-29.9697 314.1267,-19.6569 309.5937,-29.233 316.5549,-29.9697"/>
</g>
<!-- Node9&#45;&gt;Node12 -->
<g id="edge19" class="edge">
<title>Node9&#45;&gt;Node12</title>
<path fill="none" stroke="#191970" d="M199.1669,-112.4256C196.8013,-98.5607 190.708,-72.7264 176.5,-56 163.6026,-40.8165 144.3652,-29.6552 127.7645,-22.1319"/>
<polygon fill="#191970" stroke="#191970" points="128.934,-18.8257 118.3627,-18.1198 126.1865,-25.264 128.934,-18.8257"/>
</g>
<!-- Node17 -->
<g id="node18" class="node">
<title>Node17</title>
<g id="a_node18"><a xlink:title=" ">
<polygon fill="#ffffff" stroke="#bfbfbf" points="1053.5,-56.5 1053.5,-75.5 1095.5,-75.5 1095.5,-56.5 1053.5,-56.5"/>
<text text-anchor="middle" x="1074.5" y="-63.5" font-family="Helvetica,sans-Serif" font-size="10.00" fill="#000000">array</text>
</a>
</g>
</g>
<!-- Node9&#45;&gt;Node17 -->
<g id="edge18" class="edge">
<title>Node9&#45;&gt;Node17</title>
<path fill="none" stroke="#191970" d="M234.5052,-113.6777C237.8683,-113.0336 241.2418,-112.4572 244.5,-112 403.319,-89.7127 911.963,-71.4526 1043.3103,-67.0255"/>
<polygon fill="#191970" stroke="#191970" points="1043.5998,-70.5179 1053.4771,-66.6852 1043.3655,-63.5218 1043.5998,-70.5179"/>
</g>
<!-- Node18 -->
<g id="node19" class="node">
<title>Node18</title>
<g id="a_node19"><a xlink:title=" ">
<polygon fill="#ffffff" stroke="#bfbfbf" points="463.5,-56.5 463.5,-75.5 519.5,-75.5 519.5,-56.5 463.5,-56.5"/>
<text text-anchor="middle" x="491.5" y="-63.5" font-family="Helvetica,sans-Serif" font-size="10.00" fill="#000000">iomanip</text>
</a>
</g>
</g>
<!-- Node9&#45;&gt;Node18 -->
<g id="edge20" class="edge">
<title>Node9&#45;&gt;Node18</title>
<path fill="none" stroke="#191970" d="M234.581,-114.1152C237.9288,-113.3825 241.2779,-112.6659 244.5,-112 318.1234,-96.7842 404.5706,-81.2061 453.2026,-72.6504"/>
<polygon fill="#191970" stroke="#191970" points="454.0321,-76.0585 463.277,-70.8834 452.8227,-69.1637 454.0321,-76.0585"/>
</g>
<!-- Node9&#45;&gt;Node19 -->
<g id="edge21" class="edge">
<title>Node9&#45;&gt;Node19</title>
<path fill="none" stroke="#191970" d="M177.8084,-112.3733C156.4289,-103.3032 124.1943,-89.6279 100.2638,-79.4755"/>
<polygon fill="#191970" stroke="#191970" points="101.4683,-76.1846 90.8955,-75.5011 98.7344,-82.6287 101.4683,-76.1846"/>
</g>
<!-- Node20 -->
<g id="node21" class="node">
<title>Node20</title>
<g id="a_node21"><a xlink:href="real__t_8h.html" target="_top" xlink:title=" ">
<polygon fill="#ffffff" stroke="#000000" points="115,-56.5 115,-75.5 168,-75.5 168,-56.5 115,-56.5"/>
<text text-anchor="middle" x="141.5" y="-63.5" font-family="Helvetica,sans-Serif" font-size="10.00" fill="#000000">real_t.h</text>
</a>
</g>
</g>
<!-- Node9&#45;&gt;Node20 -->
<g id="edge22" class="edge">
<title>Node9&#45;&gt;Node20</title>
<path fill="none" stroke="#191970" d="M190.223,-112.2455C181.6782,-104.1352 169.3222,-92.4075 159.1915,-82.7919"/>
<polygon fill="#191970" stroke="#191970" points="161.3218,-79.9884 151.6592,-75.6427 156.5028,-85.0655 161.3218,-79.9884"/>
</g>
<!-- Node10&#45;&gt;Node11 -->
<g id="edge11" class="edge">
<title>Node10&#45;&gt;Node11</title>
<path fill="none" stroke="#191970" d="M265.777,-56.2455C274.3218,-48.1352 286.6778,-36.4075 296.8085,-26.7919"/>
<polygon fill="#191970" stroke="#191970" points="299.4972,-29.0655 304.3408,-19.6427 294.6782,-23.9884 299.4972,-29.0655"/>
</g>
<!-- Node10&#45;&gt;Node12 -->
<g id="edge12" class="edge">
<title>Node10&#45;&gt;Node12</title>
<path fill="none" stroke="#191970" d="M227.8231,-56.3733C200.0363,-46.7083 157.2157,-31.8142 127.6362,-21.5256"/>
<polygon fill="#191970" stroke="#191970" points="128.7482,-18.2068 118.1534,-18.2273 126.4485,-24.8183 128.7482,-18.2068"/>
</g>
<!-- Node13 -->
<g id="node14" class="node">
<title>Node13</title>
<g id="a_node14"><a xlink:title=" ">
<polygon fill="#ffffff" stroke="#bfbfbf" points="211,-.5 211,-19.5 264,-19.5 264,-.5 211,-.5"/>
<text text-anchor="middle" x="237.5" y="-7.5" font-family="Helvetica,sans-Serif" font-size="10.00" fill="#000000">cstddef</text>
</a>
</g>
</g>
<!-- Node10&#45;&gt;Node13 -->
<g id="edge13" class="edge">
<title>Node10&#45;&gt;Node13</title>
<path fill="none" stroke="#191970" d="M252.3646,-56.2455C249.99,-48.8579 246.6507,-38.4689 243.7385,-29.4087"/>
<polygon fill="#191970" stroke="#191970" points="246.9917,-28.0919 240.5994,-19.6427 240.3275,-30.234 246.9917,-28.0919"/>
</g>
<!-- Node14 -->
<g id="node15" class="node">
<title>Node14</title>
<g id="a_node15"><a xlink:title=" ">
<polygon fill="#ffffff" stroke="#bfbfbf" points="136.5,-.5 136.5,-19.5 192.5,-19.5 192.5,-.5 136.5,-.5"/>
<text text-anchor="middle" x="164.5" y="-7.5" font-family="Helvetica,sans-Serif" font-size="10.00" fill="#000000">numeric</text>
</a>
</g>
</g>
<!-- Node10&#45;&gt;Node14 -->
<g id="edge14" class="edge">
<title>Node10&#45;&gt;Node14</title>
<path fill="none" stroke="#191970" d="M239.649,-56.2455C225.6868,-47.6534 205.1272,-35.0014 189.0404,-25.1018"/>
<polygon fill="#191970" stroke="#191970" points="190.5203,-21.9029 180.1693,-19.6427 186.8516,-27.8645 190.5203,-21.9029"/>
</g>
<!-- Node15 -->
<g id="node16" class="node">
<title>Node15</title>
<g id="a_node16"><a xlink:title=" ">
<polygon fill="#ffffff" stroke="#bfbfbf" points="365,-.5 365,-19.5 434,-19.5 434,-.5 365,-.5"/>
<text text-anchor="middle" x="399.5" y="-7.5" font-family="Helvetica,sans-Serif" font-size="10.00" fill="#000000">type_traits</text>
</a>
</g>
</g>
<!-- Node10&#45;&gt;Node15 -->
<g id="edge15" class="edge">
<title>Node10&#45;&gt;Node15</title>
<path fill="none" stroke="#191970" d="M280.2545,-56.3733C303.7849,-47.2226 339.3687,-33.3844 365.5426,-23.2057"/>
<polygon fill="#191970" stroke="#191970" points="367.0171,-26.3877 375.0685,-19.5011 364.4799,-19.8636 367.0171,-26.3877"/>
</g>
<!-- Node16 -->
<g id="node17" class="node">
<title>Node16</title>
<g id="a_node17"><a xlink:title=" ">
<polygon fill="#ffffff" stroke="#bfbfbf" points="452,-.5 452,-19.5 517,-19.5 517,-.5 452,-.5"/>
<text text-anchor="middle" x="484.5" y="-7.5" font-family="Helvetica,sans-Serif" font-size="10.00" fill="#000000">stdexcept</text>
</a>
</g>
</g>
<!-- Node10&#45;&gt;Node16 -->
<g id="edge16" class="edge">
<title>Node10&#45;&gt;Node16</title>
<path fill="none" stroke="#191970" d="M286.8613,-58.3309C327.0616,-48.5002 396.927,-31.4152 441.9119,-20.4146"/>
<polygon fill="#191970" stroke="#191970" points="442.7856,-23.8041 451.668,-18.0288 441.1228,-17.0045 442.7856,-23.8041"/>
</g>
<!-- Node21 -->
<g id="node22" class="node">
<title>Node21</title>
<g id="a_node22"><a xlink:title=" ">
<polygon fill="#ffffff" stroke="#bfbfbf" points="0,-.5 0,-19.5 53,-19.5 53,-.5 0,-.5"/>
<text text-anchor="middle" x="26.5" y="-7.5" font-family="Helvetica,sans-Serif" font-size="10.00" fill="#000000">stdint.h</text>
</a>
</g>
</g>
<!-- Node20&#45;&gt;Node21 -->
<g id="edge23" class="edge">
<title>Node20&#45;&gt;Node21</title>
<path fill="none" stroke="#191970" d="M121.7308,-56.3733C103.3531,-47.4241 75.7688,-33.9917 55.0107,-23.8835"/>
<polygon fill="#191970" stroke="#191970" points="56.5343,-20.7325 46.0112,-19.5011 53.4696,-27.026 56.5343,-20.7325"/>
</g>
<!-- Node23&#45;&gt;Node3 -->
<g id="edge29" class="edge">
<title>Node23&#45;&gt;Node3</title>
<path fill="none" stroke="#191970" d="M443.5406,-289.229C607.259,-286.4414 1126.6913,-275.4311 1314.3132,-243.6946"/>
<polygon fill="#191970" stroke="#191970" points="1315.0913,-247.1113 1324.328,-241.9217 1313.871,-240.2185 1315.0913,-247.1113"/>
</g>
<!-- Node23&#45;&gt;Node15 -->
<g id="edge30" class="edge">
<title>Node23&#45;&gt;Node15</title>
<path fill="none" stroke="#191970" d="M387.273,-280.2504C375.8034,-261.3274 352.5,-217.9633 352.5,-178 352.5,-178 352.5,-178 352.5,-122 352.5,-86.5481 372.7704,-49.3564 386.6871,-27.9999"/>
<polygon fill="#191970" stroke="#191970" points="389.6549,-29.8593 392.3617,-19.6161 383.8579,-25.9356 389.6549,-29.8593"/>
</g>
<!-- Node23&#45;&gt;Node16 -->
<g id="edge28" class="edge">
<title>Node23&#45;&gt;Node16</title>
<path fill="none" stroke="#191970" d="M393.0702,-280.4139C392.2406,-261.0603 390.5,-215.9303 390.5,-178 390.5,-178 390.5,-178 390.5,-122 390.5,-79.1654 431.339,-44.139 459.1803,-25.2374"/>
<polygon fill="#191970" stroke="#191970" points="461.2353,-28.0756 467.6947,-19.6776 457.408,-22.2145 461.2353,-28.0756"/>
</g>
<!-- Node23&#45;&gt;Node24 -->
<g id="edge26" class="edge">
<title>Node23&#45;&gt;Node24</title>
<path fill="none" stroke="#191970" d="M409.0026,-280.2455C422.658,-271.6534 442.7657,-259.0014 458.4989,-249.1018"/>
<polygon fill="#191970" stroke="#191970" points="460.5751,-251.9307 467.175,-243.6427 456.8471,-246.006 460.5751,-251.9307"/>
</g>
<!-- Node25 -->
<g id="node26" class="node">
<title>Node25</title>
<g id="a_node26"><a xlink:title=" ">
<polygon fill="#ffffff" stroke="#bfbfbf" points="1432.5,-112.5 1432.5,-131.5 1482.5,-131.5 1482.5,-112.5 1432.5,-112.5"/>
<text text-anchor="middle" x="1457.5" y="-119.5" font-family="Helvetica,sans-Serif" font-size="10.00" fill="#000000">cstdint</text>
</a>
</g>
</g>
<!-- Node23&#45;&gt;Node25 -->
<g id="edge27" class="edge">
<title>Node23&#45;&gt;Node25</title>
<path fill="none" stroke="#191970" d="M398.2167,-280.3331C406.1042,-265.3457 423.5011,-236.8889 447.5,-224 535.0923,-176.9573 1253.0495,-133.5938 1421.9952,-123.9761"/>
<polygon fill="#191970" stroke="#191970" points="1422.3098,-127.464 1432.0959,-123.4042 1421.914,-120.4752 1422.3098,-127.464"/>
</g>
<!-- Node26&#45;&gt;Node18 -->
<g id="edge36" class="edge">
<title>Node26&#45;&gt;Node18</title>
<path fill="none" stroke="#191970" d="M846.7188,-286.2602C758.6747,-278.973 577.7498,-262.0019 555.5,-244 506.2193,-204.1279 494.8689,-123.1817 492.2668,-85.7731"/>
<polygon fill="#191970" stroke="#191970" points="495.7542,-85.4467 491.7078,-75.655 488.7648,-85.8329 495.7542,-85.4467"/>
</g>
<!-- Node26&#45;&gt;Node24 -->
<g id="edge38" class="edge">
<title>Node26&#45;&gt;Node24</title>
<path fill="none" stroke="#191970" d="M846.9441,-285.9915C775.9293,-279.5838 638.1378,-265.5214 522.5,-244 521.2333,-243.7643 519.9469,-243.5122 518.65,-243.2473"/>
<polygon fill="#191970" stroke="#191970" points="519.1711,-239.7778 508.6497,-241.023 517.6512,-246.6108 519.1711,-239.7778"/>
</g>
<!-- Node27 -->
<g id="node28" class="node">
<title>Node27</title>
<g id="a_node28"><a xlink:href="ANSIColors_8hpp.html" target="_top" xlink:title=" ">
<polygon fill="#ffffff" stroke="#000000" points="848.5,-224.5 848.5,-243.5 940.5,-243.5 940.5,-224.5 848.5,-224.5"/>
<text text-anchor="middle" x="894.5" y="-231.5" font-family="Helvetica,sans-Serif" font-size="10.00" fill="#000000">ANSIColors.hpp</text>
</a>
</g>
</g>
<!-- Node26&#45;&gt;Node27 -->
<g id="edge35" class="edge">
<title>Node26&#45;&gt;Node27</title>
<path fill="none" stroke="#191970" d="M894.5,-280.2455C894.5,-272.9382 894.5,-262.6944 894.5,-253.7046"/>
<polygon fill="#191970" stroke="#191970" points="898.0001,-253.6426 894.5,-243.6427 891.0001,-253.6427 898.0001,-253.6426"/>
</g>
<!-- Node28 -->
<g id="node29" class="node">
<title>Node28</title>
<g id="a_node29"><a xlink:title=" ">
<polygon fill="#ffffff" stroke="#bfbfbf" points="1462.5,-168.5 1462.5,-187.5 1522.5,-187.5 1522.5,-168.5 1462.5,-168.5"/>
<text text-anchor="middle" x="1492.5" y="-175.5" font-family="Helvetica,sans-Serif" font-size="10.00" fill="#000000">iostream</text>
</a>
</g>
</g>
<!-- Node26&#45;&gt;Node28 -->
<g id="edge37" class="edge">
<title>Node26&#45;&gt;Node28</title>
<path fill="none" stroke="#191970" d="M846.8503,-282.4679C799.2674,-273.0464 737.0046,-254.3554 765.5,-224 789.1678,-198.7873 1303.2118,-183.0755 1452.3055,-179.0369"/>
<polygon fill="#191970" stroke="#191970" points="1452.4952,-182.5332 1462.3978,-178.7664 1452.3075,-175.5357 1452.4952,-182.5332"/>
</g>
<!-- Node29 -->
<g id="node30" class="node">
<title>Node29</title>
<g id="a_node30"><a xlink:title=" ">
<polygon fill="#ffffff" stroke="#bfbfbf" points="959,-224.5 959,-243.5 1006,-243.5 1006,-224.5 959,-224.5"/>
<text text-anchor="middle" x="982.5" y="-231.5" font-family="Helvetica,sans-Serif" font-size="10.00" fill="#000000">cerrno</text>
</a>
</g>
</g>
<!-- Node26&#45;&gt;Node29 -->
<g id="edge39" class="edge">
<title>Node26&#45;&gt;Node29</title>
<path fill="none" stroke="#191970" d="M909.8284,-280.2455C923.3303,-271.6534 943.2122,-259.0014 958.7686,-249.1018"/>
<polygon fill="#191970" stroke="#191970" points="960.7897,-251.9643 967.3472,-243.6427 957.0315,-246.0587 960.7897,-251.9643"/>
</g>
<!-- Node30 -->
<g id="node31" class="node">
<title>Node30</title>
<g id="a_node31"><a xlink:title=" ">
<polygon fill="#ffffff" stroke="#bfbfbf" points="1024,-224.5 1024,-243.5 1071,-243.5 1071,-224.5 1024,-224.5"/>
<text text-anchor="middle" x="1047.5" y="-231.5" font-family="Helvetica,sans-Serif" font-size="10.00" fill="#000000">fcntl.h</text>
</a>
</g>
</g>
<!-- Node26&#45;&gt;Node30 -->
<g id="edge40" class="edge">
<title>Node26&#45;&gt;Node30</title>
<path fill="none" stroke="#191970" d="M920.8016,-280.3733C946.6344,-270.9181 986.1401,-256.4585 1014.1616,-246.2023"/>
<polygon fill="#191970" stroke="#191970" points="1015.3653,-249.4889 1023.553,-242.7649 1012.9593,-242.9153 1015.3653,-249.4889"/>
</g>
<!-- Node31 -->
<g id="node32" class="node">
<title>Node31</title>
<g id="a_node32"><a xlink:title=" ">
<polygon fill="#ffffff" stroke="#bfbfbf" points="1089.5,-224.5 1089.5,-243.5 1139.5,-243.5 1139.5,-224.5 1089.5,-224.5"/>
<text text-anchor="middle" x="1114.5" y="-231.5" font-family="Helvetica,sans-Serif" font-size="10.00" fill="#000000">stdio.h</text>
</a>
</g>
</g>
<!-- Node26&#45;&gt;Node31 -->
<g id="edge41" class="edge">
<title>Node26&#45;&gt;Node31</title>
<path fill="none" stroke="#191970" d="M935.2697,-280.4579C970.9025,-271.9973 1024.2586,-259.039 1079.3459,-244.2354"/>
<polygon fill="#191970" stroke="#191970" points="1080.5432,-247.5374 1089.2837,-241.5495 1078.7168,-240.7798 1080.5432,-247.5374"/>
</g>
<!-- Node32 -->
<g id="node33" class="node">
<title>Node32</title>
<g id="a_node33"><a xlink:title=" ">
<polygon fill="#ffffff" stroke="#bfbfbf" points="1158,-224.5 1158,-243.5 1211,-243.5 1211,-224.5 1158,-224.5"/>
<text text-anchor="middle" x="1184.5" y="-231.5" font-family="Helvetica,sans-Serif" font-size="10.00" fill="#000000">stdlib.h</text>
</a>
</g>
</g>
<!-- Node26&#45;&gt;Node32 -->
<g id="edge42" class="edge">
<title>Node26&#45;&gt;Node32</title>
<path fill="none" stroke="#191970" d="M942.0457,-282.7274C991.1766,-274.914 1070.2567,-261.5082 1147.8833,-243.9735"/>
<polygon fill="#191970" stroke="#191970" points="1148.8635,-247.3398 1157.8331,-241.7011 1147.3048,-240.5156 1148.8635,-247.3398"/>
</g>
<!-- Node33 -->
<g id="node34" class="node">
<title>Node33</title>
<g id="a_node34"><a xlink:title=" ">
<polygon fill="#ffffff" stroke="#bfbfbf" points="1229,-224.5 1229,-243.5 1306,-243.5 1306,-224.5 1229,-224.5"/>
<text text-anchor="middle" x="1267.5" y="-231.5" font-family="Helvetica,sans-Serif" font-size="10.00" fill="#000000">sys/mman.h</text>
</a>
</g>
</g>
<!-- Node26&#45;&gt;Node33 -->
<g id="edge43" class="edge">
<title>Node26&#45;&gt;Node33</title>
<path fill="none" stroke="#191970" d="M942.174,-284.3265C1003.8388,-276.7551 1114.7904,-262.3434 1218.7737,-244.2192"/>
<polygon fill="#191970" stroke="#191970" points="1219.5703,-247.6329 1228.8129,-242.4538 1218.3578,-240.7387 1219.5703,-247.6329"/>
</g>
<!-- Node34 -->
<g id="node35" class="node">
<title>Node34</title>
<g id="a_node35"><a xlink:title=" ">
<polygon fill="#ffffff" stroke="#bfbfbf" points="564.5,-224.5 564.5,-243.5 628.5,-243.5 628.5,-224.5 564.5,-224.5"/>
<text text-anchor="middle" x="596.5" y="-231.5" font-family="Helvetica,sans-Serif" font-size="10.00" fill="#000000">sys/stat.h</text>
</a>
</g>
</g>
<!-- Node26&#45;&gt;Node34 -->
<g id="edge44" class="edge">
<title>Node26&#45;&gt;Node34</title>
<path fill="none" stroke="#191970" d="M846.9615,-282.3998C797.3698,-274.2685 717.1496,-260.5472 638.7348,-244.1664"/>
<polygon fill="#191970" stroke="#191970" points="639.1925,-240.6861 628.6858,-242.0503 637.7499,-247.5359 639.1925,-240.6861"/>
</g>
<!-- Node35 -->
<g id="node36" class="node">
<title>Node35</title>
<g id="a_node36"><a xlink:title=" ">
<polygon fill="#ffffff" stroke="#bfbfbf" points="646.5,-224.5 646.5,-243.5 718.5,-243.5 718.5,-224.5 646.5,-224.5"/>
<text text-anchor="middle" x="682.5" y="-231.5" font-family="Helvetica,sans-Serif" font-size="10.00" fill="#000000">sys/types.h</text>
</a>
</g>
</g>
<!-- Node26&#45;&gt;Node35 -->
<g id="edge45" class="edge">
<title>Node26&#45;&gt;Node35</title>
<path fill="none" stroke="#191970" d="M858.0559,-280.3733C822.1931,-270.9001 767.3122,-256.4032 728.4718,-246.1435"/>
<polygon fill="#191970" stroke="#191970" points="729.0308,-242.6712 718.4685,-243.5011 727.243,-249.439 729.0308,-242.6712"/>
</g>
<!-- Node36 -->
<g id="node37" class="node">
<title>Node36</title>
<g id="a_node37"><a xlink:title=" ">
<polygon fill="#ffffff" stroke="#bfbfbf" points="774.5,-224.5 774.5,-243.5 830.5,-243.5 830.5,-224.5 774.5,-224.5"/>
<text text-anchor="middle" x="802.5" y="-231.5" font-family="Helvetica,sans-Serif" font-size="10.00" fill="#000000">unistd.h</text>
</a>
</g>
</g>
<!-- Node26&#45;&gt;Node36 -->
<g id="edge46" class="edge">
<title>Node26&#45;&gt;Node36</title>
<path fill="none" stroke="#191970" d="M878.4748,-280.2455C864.3592,-271.6534 843.5737,-259.0014 827.3101,-249.1018"/>
<polygon fill="#191970" stroke="#191970" points="828.7034,-245.8525 818.3415,-243.6427 825.0637,-251.8319 828.7034,-245.8525"/>
</g>
<!-- Node38&#45;&gt;Node3 -->
<g id="edge52" class="edge">
<title>Node38&#45;&gt;Node3</title>
<path fill="none" stroke="#191970" d="M1393.5714,-280.2455C1385.3162,-272.1352 1373.3791,-260.4075 1363.5918,-250.7919"/>
<polygon fill="#191970" stroke="#191970" points="1365.9011,-248.1542 1356.3149,-243.6427 1360.9954,-253.1476 1365.9011,-248.1542"/>
</g>
<!-- Node38&#45;&gt;Node25 -->
<g id="edge51" class="edge">
<title>Node38&#45;&gt;Node25</title>
<path fill="none" stroke="#191970" d="M1403.1422,-280.3586C1402.7097,-259.1161 1403.6178,-207.0647 1420.5,-168 1425.135,-157.2749 1432.9791,-146.9799 1440.2552,-138.8587"/>
<polygon fill="#191970" stroke="#191970" points="1442.8648,-141.1932 1447.202,-131.5268 1437.7834,-136.3787 1442.8648,-141.1932"/>
</g>
<!-- Node39 -->
<g id="node40" class="node">
<title>Node39</title>
<g id="a_node40"><a xlink:title=" ">
<polygon fill="#ffffff" stroke="#bfbfbf" points="1563,-112.5 1563,-131.5 1610,-131.5 1610,-112.5 1563,-112.5"/>
<text text-anchor="middle" x="1586.5" y="-119.5" font-family="Helvetica,sans-Serif" font-size="10.00" fill="#000000">vector</text>
</a>
</g>
</g>
<!-- Node38&#45;&gt;Node39 -->
<g id="edge53" class="edge">
<title>Node38&#45;&gt;Node39</title>
<path fill="none" stroke="#191970" d="M1406.9172,-280.3981C1416.7163,-253.0625 1444.7679,-176.2565 1453.5,-168 1480.6953,-142.2858 1522.967,-130.8746 1552.5343,-125.8564"/>
<polygon fill="#191970" stroke="#191970" points="1553.4472,-129.2574 1562.8012,-124.2821 1552.3863,-122.3382 1553.4472,-129.2574"/>
</g>
<!-- Node41 -->
<g id="node42" class="node">
<title>Node41</title>
<g id="a_node42"><a xlink:href="cryptoException_8hpp.html" target="_top" xlink:title=" ">
<polygon fill="#ffffff" stroke="#000000" points="1407.5,-336.5 1407.5,-355.5 1523.5,-355.5 1523.5,-336.5 1407.5,-336.5"/>
<text text-anchor="middle" x="1465.5" y="-343.5" font-family="Helvetica,sans-Serif" font-size="10.00" fill="#000000">cryptoException.hpp</text>
</a>
</g>
</g>
<!-- Node40&#45;&gt;Node41 -->
<g id="edge55" class="edge">
<title>Node40&#45;&gt;Node41</title>
<path fill="none" stroke="#191970" d="M1574.8084,-392.3733C1553.4289,-383.3032 1521.1943,-369.6279 1497.2638,-359.4755"/>
<polygon fill="#191970" stroke="#191970" points="1498.4683,-356.1846 1487.8955,-355.5011 1495.7344,-362.6287 1498.4683,-356.1846"/>
</g>
<!-- Node43 -->
<g id="node44" class="node">
<title>Node43</title>
<g id="a_node44"><a xlink:href="cryptoImplementation_8hpp.html" target="_top" xlink:title=" ">
<polygon fill="#ffffff" stroke="#000000" points="1637.5,-280.5 1637.5,-299.5 1783.5,-299.5 1783.5,-280.5 1637.5,-280.5"/>
<text text-anchor="middle" x="1710.5" y="-287.5" font-family="Helvetica,sans-Serif" font-size="10.00" fill="#000000">cryptoImplementation.hpp</text>
</a>
</g>
</g>
<!-- Node40&#45;&gt;Node43 -->
<g id="edge58" class="edge">
<title>Node40&#45;&gt;Node43</title>
<path fill="none" stroke="#191970" d="M1631.7802,-393.6083C1663.858,-384.98 1708.3246,-370.7543 1718.5,-356 1727.7949,-342.5225 1724.3336,-323.718 1719.3984,-309.6273"/>
<polygon fill="#191970" stroke="#191970" points="1722.4865,-307.9231 1715.524,-299.9372 1715.9867,-310.5219 1722.4865,-307.9231"/>
</g>
<!-- Node45 -->
<g id="node46" class="node">
<title>Node45</title>
<g id="a_node46"><a xlink:href="cryptoInstruction_8hpp.html" target="_top" xlink:title=" ">
<polygon fill="#ffffff" stroke="#000000" points="1578.5,-168.5 1578.5,-187.5 1698.5,-187.5 1698.5,-168.5 1578.5,-168.5"/>
<text text-anchor="middle" x="1638.5" y="-175.5" font-family="Helvetica,sans-Serif" font-size="10.00" fill="#000000">cryptoInstruction.hpp</text>
</a>
</g>
</g>
<!-- Node40&#45;&gt;Node45 -->
<g id="edge68" class="edge">
<title>Node40&#45;&gt;Node45</title>
<path fill="none" stroke="#191970" d="M1590.1181,-392.4183C1583.7727,-383.5336 1575.0939,-369.6624 1571.5,-356 1569.2387,-347.4036 1569.7294,-344.7108 1571.5,-336 1582.3303,-282.7185 1611.7647,-225.1143 1627.777,-196.4239"/>
<polygon fill="#191970" stroke="#191970" points="1630.93,-197.9594 1632.8284,-187.536 1624.8443,-194.5005 1630.93,-197.9594"/>
</g>
<!-- Node46 -->
<g id="node47" class="node">
<title>Node46</title>
<g id="a_node47"><a xlink:href="hwImplementation_8hpp.html" target="_top" xlink:title=" ">
<polygon fill="#ffffff" stroke="#000000" points="1765.5,-336.5 1765.5,-355.5 1895.5,-355.5 1895.5,-336.5 1765.5,-336.5"/>
<text text-anchor="middle" x="1830.5" y="-343.5" font-family="Helvetica,sans-Serif" font-size="10.00" fill="#000000">hwImplementation.hpp</text>
</a>
</g>
</g>
<!-- Node40&#45;&gt;Node46 -->
<g id="edge69" class="edge">
<title>Node40&#45;&gt;Node46</title>
<path fill="none" stroke="#191970" d="M1631.88,-393.737C1671.3051,-384.2614 1736.2594,-368.6501 1781.0965,-357.8738"/>
<polygon fill="#191970" stroke="#191970" points="1781.9995,-361.2565 1790.9046,-355.5165 1780.3636,-354.4504 1781.9995,-361.2565"/>
</g>
<!-- Node47 -->
<g id="node48" class="node">
<title>Node47</title>
<g id="a_node48"><a xlink:href="swImplementation_8hpp.html" target="_top" xlink:title=" ">
<polygon fill="#ffffff" stroke="#000000" points="1580,-336.5 1580,-355.5 1709,-355.5 1709,-336.5 1580,-336.5"/>
<text text-anchor="middle" x="1644.5" y="-343.5" font-family="Helvetica,sans-Serif" font-size="10.00" fill="#000000">swImplementation.hpp</text>
</a>
</g>
</g>
<!-- Node40&#45;&gt;Node47 -->
<g id="edge71" class="edge">
<title>Node40&#45;&gt;Node47</title>
<path fill="none" stroke="#191970" d="M1605.6868,-392.2455C1612.3589,-384.2958 1621.9479,-372.8706 1629.9253,-363.3656"/>
<polygon fill="#191970" stroke="#191970" points="1632.6592,-365.5525 1636.407,-355.6427 1627.2974,-361.0524 1632.6592,-365.5525"/>
</g>
<!-- Node41&#45;&gt;Node3 -->
<g id="edge57" class="edge">
<title>Node41&#45;&gt;Node3</title>
<path fill="none" stroke="#191970" d="M1418.4249,-336.4987C1397.0521,-329.804 1373.297,-318.5885 1358.5,-300 1348.1981,-287.0584 1345.6337,-268.1614 1345.3921,-253.9008"/>
<polygon fill="#191970" stroke="#191970" points="1348.896,-253.7271 1345.5929,-243.6604 1341.8974,-253.5898 1348.896,-253.7271"/>
</g>
<!-- Node42 -->
<g id="node43" class="node">
<title>Node42</title>
<g id="a_node43"><a xlink:title=" ">
<polygon fill="#ffffff" stroke="#bfbfbf" points="1458,-280.5 1458,-299.5 1523,-299.5 1523,-280.5 1458,-280.5"/>
<text text-anchor="middle" x="1490.5" y="-287.5" font-family="Helvetica,sans-Serif" font-size="10.00" fill="#000000">exception</text>
</a>
</g>
</g>
<!-- Node41&#45;&gt;Node42 -->
<g id="edge56" class="edge">
<title>Node41&#45;&gt;Node42</title>
<path fill="none" stroke="#191970" d="M1469.8547,-336.2455C1473.2244,-328.6973 1477.993,-318.0158 1482.0983,-308.8197"/>
<polygon fill="#191970" stroke="#191970" points="1485.3147,-310.2009 1486.1952,-299.6427 1478.9227,-307.3473 1485.3147,-310.2009"/>
</g>
<!-- Node44 -->
<g id="node45" class="node">
<title>Node44</title>
<g id="a_node45"><a xlink:href="bitString_8hpp.html" target="_top" xlink:title=" ">
<polygon fill="#ffffff" stroke="#000000" points="1643,-224.5 1643,-243.5 1722,-243.5 1722,-224.5 1643,-224.5"/>
<text text-anchor="middle" x="1682.5" y="-231.5" font-family="Helvetica,sans-Serif" font-size="10.00" fill="#000000">bitString.hpp</text>
</a>
</g>
</g>
<!-- Node43&#45;&gt;Node44 -->
<g id="edge59" class="edge">
<title>Node43&#45;&gt;Node44</title>
<path fill="none" stroke="#191970" d="M1705.6228,-280.2455C1701.8487,-272.6973 1696.5079,-262.0158 1691.9099,-252.8197"/>
<polygon fill="#191970" stroke="#191970" points="1694.924,-251.0217 1687.3213,-243.6427 1688.663,-254.1522 1694.924,-251.0217"/>
</g>
<!-- Node44&#45;&gt;Node17 -->
<g id="edge60" class="edge">
<title>Node44&#45;&gt;Node17</title>
<path fill="none" stroke="#191970" d="M1695.852,-224.4457C1712.0008,-211.6666 1735.6049,-188.2663 1723.5,-168 1696.5802,-122.9304 1669.819,-126.965 1619.5,-112 1522.1352,-83.0434 1206.8392,-70.3576 1105.8961,-66.9717"/>
<polygon fill="#191970" stroke="#191970" points="1105.846,-63.4682 1095.7366,-66.6382 1105.6163,-70.4644 1105.846,-63.4682"/>
</g>
<!-- Node44&#45;&gt;Node25 -->
<g id="edge65" class="edge">
<title>Node44&#45;&gt;Node25</title>
<path fill="none" stroke="#191970" d="M1655.9912,-224.4633C1632.7819,-215.8194 1598.3553,-202.2801 1569.5,-188 1537.8544,-172.339 1503.0593,-151.1709 1480.7826,-137.0754"/>
<polygon fill="#191970" stroke="#191970" points="1482.6422,-134.1102 1472.3287,-131.6849 1478.8788,-140.0125 1482.6422,-134.1102"/>
</g>
<!-- Node44&#45;&gt;Node28 -->
<g id="edge66" class="edge">
<title>Node44&#45;&gt;Node28</title>
<path fill="none" stroke="#191970" d="M1649.8378,-224.3733C1617.2942,-214.7814 1567.2765,-200.0394 1532.4004,-189.7601"/>
<polygon fill="#191970" stroke="#191970" points="1533.1278,-186.3257 1522.5463,-186.8557 1531.1488,-193.0402 1533.1278,-186.3257"/>
</g>
<!-- Node44&#45;&gt;Node39 -->
<g id="edge67" class="edge">
<title>Node44&#45;&gt;Node39</title>
<path fill="none" stroke="#191970" d="M1691.4968,-224.3528C1702.959,-210.8492 1719.8823,-185.9542 1707.5,-168 1697.2533,-153.1424 1652.2334,-138.8208 1620.108,-130.2112"/>
<polygon fill="#191970" stroke="#191970" points="1620.751,-126.7619 1610.1912,-127.6232 1618.9833,-133.535 1620.751,-126.7619"/>
</g>
<!-- Node44&#45;&gt;Node45 -->
<g id="edge61" class="edge">
<title>Node44&#45;&gt;Node45</title>
<path fill="none" stroke="#191970" d="M1674.8358,-224.2455C1668.6527,-216.3761 1659.7937,-205.101 1652.3711,-195.6542"/>
<polygon fill="#191970" stroke="#191970" points="1655.0068,-193.3435 1646.0764,-187.6427 1649.5025,-197.6683 1655.0068,-193.3435"/>
</g>
<!-- Node45&#45;&gt;Node16 -->
<g id="edge63" class="edge">
<title>Node45&#45;&gt;Node16</title>
<path fill="none" stroke="#191970" d="M1638.8178,-168.1459C1638.7037,-153.4351 1636.1062,-125.9703 1619.5,-112 1534.4391,-40.4407 723.9908,-15.9133 527.3328,-10.9902"/>
<polygon fill="#191970" stroke="#191970" points="527.1929,-7.4858 517.1096,-10.7382 527.0203,-14.4837 527.1929,-7.4858"/>
</g>
<!-- Node45&#45;&gt;Node25 -->
<g id="edge62" class="edge">
<title>Node45&#45;&gt;Node25</title>
<path fill="none" stroke="#191970" d="M1607.385,-168.3733C1575.4168,-158.4825 1525.7485,-143.1156 1492.4472,-132.8124"/>
<polygon fill="#191970" stroke="#191970" points="1493.2632,-129.4012 1482.6755,-129.7891 1491.1942,-136.0885 1493.2632,-129.4012"/>
</g>
<!-- Node45&#45;&gt;Node39 -->
<g id="edge64" class="edge">
<title>Node45&#45;&gt;Node39</title>
<path fill="none" stroke="#191970" d="M1629.4423,-168.2455C1621.9858,-160.2155 1611.2366,-148.6394 1602.3583,-139.0781"/>
<polygon fill="#191970" stroke="#191970" points="1604.8232,-136.589 1595.4539,-131.6427 1599.6937,-141.3522 1604.8232,-136.589"/>
</g>
<!-- Node46&#45;&gt;Node43 -->
<g id="edge70" class="edge">
<title>Node46&#45;&gt;Node43</title>
<path fill="none" stroke="#191970" d="M1809.8713,-336.3733C1790.6081,-327.3838 1761.6514,-313.8706 1739.9581,-303.7471"/>
<polygon fill="#191970" stroke="#191970" points="1741.4015,-300.5584 1730.8595,-299.5011 1738.4413,-306.9017 1741.4015,-300.5584"/>
</g>
<!-- Node47&#45;&gt;Node43 -->
<g id="edge72" class="edge">
<title>Node47&#45;&gt;Node43</title>
<path fill="none" stroke="#191970" d="M1655.9963,-336.2455C1665.7442,-327.9746 1679.9259,-315.9416 1691.3798,-306.2232"/>
<polygon fill="#191970" stroke="#191970" points="1693.7747,-308.7813 1699.1354,-299.6427 1689.2459,-303.4437 1693.7747,-308.7813"/>
</g>
</g>
</svg>
