<?xml version="1.0" encoding="UTF-8" standalone="no"?>
<!DOCTYPE svg PUBLIC "-//W3C//DTD SVG 1.1//EN"
 "http://www.w3.org/Graphics/SVG/1.1/DTD/svg11.dtd">
<!-- Generated by graphviz version 2.40.1 (20161225.0304)
 -->
<!-- Title: randn Pages: 1 -->
<svg width="153pt" height="66pt"
 viewBox="0.00 0.00 153.00 66.00" xmlns="http://www.w3.org/2000/svg" xmlns:xlink="http://www.w3.org/1999/xlink">
<g id="graph0" class="graph" transform="scale(1 1) rotate(0) translate(4 62)">
<title>randn</title>
<polygon fill="#ffffff" stroke="transparent" points="-4,4 -4,-62 149,-62 149,4 -4,4"/>
<!-- Node3 -->
<g id="node1" class="node">
<title>Node3</title>
<g id="a_node1"><a xlink:title=" ">
<polygon fill="#bfbfbf" stroke="#000000" points="0,-19.5 0,-38.5 44,-38.5 44,-19.5 0,-19.5"/>
<text text-anchor="middle" x="22" y="-26.5" font-family="Helvetica,sans-Serif" font-size="10.00" fill="#000000">randn</text>
</a>
</g>
</g>
<!-- Node4 -->
<g id="node2" class="node">
<title>Node4</title>
<g id="a_node2"><a xlink:href="Randn_8hpp.html#a0dba89e43acc526c0214bfce4322f7b3" target="_top" xlink:title=" ">
<polygon fill="#ffffff" stroke="#000000" points="90.5,-38.5 90.5,-57.5 134.5,-57.5 134.5,-38.5 90.5,-38.5"/>
<text text-anchor="middle" x="112.5" y="-45.5" font-family="Helvetica,sans-Serif" font-size="10.00" fill="#000000">randn</text>
</a>
</g>
</g>
<!-- Node3&#45;&gt;Node4 -->
<g id="edge1" class="edge">
<title>Node3&#45;&gt;Node4</title>
<path fill="none" stroke="#191970" d="M44.3708,-33.6966C55.2205,-35.9745 68.4517,-38.7523 80.3578,-41.2519"/>
<polygon fill="#191970" stroke="#191970" points="79.8807,-44.728 90.3865,-43.3574 81.3191,-37.8773 79.8807,-44.728"/>
</g>
<!-- Node5 -->
<g id="node3" class="node">
<title>Node5</title>
<g id="a_node3"><a xlink:href="Matrix_8hpp.html#ae8d7f8a24d9759e2535e2ff13f13fe26" target="_top" xlink:title=" ">
<polygon fill="#ffffff" stroke="#000000" points="80,-.5 80,-19.5 145,-19.5 145,-.5 80,-.5"/>
<text text-anchor="middle" x="112.5" y="-7.5" font-family="Helvetica,sans-Serif" font-size="10.00" fill="#000000">transpose</text>
</a>
</g>
</g>
<!-- Node3&#45;&gt;Node5 -->
<g id="edge2" class="edge">
<title>Node3&#45;&gt;Node5</title>
<path fill="none" stroke="#191970" d="M44.3708,-24.3034C52.129,-22.6746 61.1049,-20.7901 69.9433,-18.9346"/>
<polygon fill="#191970" stroke="#191970" points="70.724,-22.347 79.7914,-16.867 69.2856,-15.4964 70.724,-22.347"/>
</g>
</g>
</svg>
