<?xml version="1.0" encoding="UTF-8" standalone="no"?>
<!DOCTYPE svg PUBLIC "-//W3C//DTD SVG 1.1//EN"
 "http://www.w3.org/Graphics/SVG/1.1/DTD/svg11.dtd">
<!-- Generated by graphviz version 2.40.1 (20161225.0304)
 -->
<!-- Title: /home/pieter/GitHub/Crypto/src/matrix/include/Randn.hpp Pages: 1 -->
<svg width="441pt" height="218pt"
 viewBox="0.00 0.00 441.00 218.00" xmlns="http://www.w3.org/2000/svg" xmlns:xlink="http://www.w3.org/1999/xlink">
<g id="graph0" class="graph" transform="scale(1 1) rotate(0) translate(4 214)">
<title>/home/pieter/GitHub/Crypto/src/matrix/include/Randn.hpp</title>
<polygon fill="#ffffff" stroke="transparent" points="-4,4 -4,-214 437,-214 437,4 -4,4"/>
<!-- Node0 -->
<g id="node1" class="node">
<title>Node0</title>
<g id="a_node1"><a xlink:title=" ">
<polygon fill="#bfbfbf" stroke="#000000" points="144.5,-168.5 144.5,-209.5 287.5,-209.5 287.5,-168.5 144.5,-168.5"/>
<text text-anchor="start" x="152.5" y="-197.5" font-family="Helvetica,sans-Serif" font-size="10.00" fill="#000000">/home/pieter/GitHub</text>
<text text-anchor="start" x="152.5" y="-186.5" font-family="Helvetica,sans-Serif" font-size="10.00" fill="#000000">/Crypto/src/matrix/include</text>
<text text-anchor="middle" x="216" y="-175.5" font-family="Helvetica,sans-Serif" font-size="10.00" fill="#000000">/Randn.hpp</text>
</a>
</g>
</g>
<!-- Node1 -->
<g id="node2" class="node">
<title>Node1</title>
<g id="a_node2"><a xlink:href="Matrix_8hpp.html" target="_top" xlink:title=" ">
<polygon fill="#ffffff" stroke="#000000" points="143,-112.5 143,-131.5 211,-131.5 211,-112.5 143,-112.5"/>
<text text-anchor="middle" x="177" y="-119.5" font-family="Helvetica,sans-Serif" font-size="10.00" fill="#000000">Matrix.hpp</text>
</a>
</g>
</g>
<!-- Node0&#45;&gt;Node1 -->
<g id="edge1" class="edge">
<title>Node0&#45;&gt;Node1</title>
<path fill="none" stroke="#191970" d="M203.8739,-168.168C198.7401,-159.3484 192.8066,-149.155 187.823,-140.5933"/>
<polygon fill="#191970" stroke="#191970" points="190.7487,-138.6622 182.6931,-131.7805 184.699,-142.1837 190.7487,-138.6622"/>
</g>
<!-- Node11 -->
<g id="node12" class="node">
<title>Node11</title>
<g id="a_node12"><a xlink:title=" ">
<polygon fill="#ffffff" stroke="#bfbfbf" points="229,-112.5 229,-131.5 283,-131.5 283,-112.5 229,-112.5"/>
<text text-anchor="middle" x="256" y="-119.5" font-family="Helvetica,sans-Serif" font-size="10.00" fill="#000000">random</text>
</a>
</g>
</g>
<!-- Node0&#45;&gt;Node11 -->
<g id="edge13" class="edge">
<title>Node0&#45;&gt;Node11</title>
<path fill="none" stroke="#191970" d="M228.437,-168.168C233.7024,-159.3484 239.7881,-149.155 244.8995,-140.5933"/>
<polygon fill="#191970" stroke="#191970" points="248.0399,-142.1609 250.1609,-131.7805 242.0296,-138.5725 248.0399,-142.1609"/>
</g>
<!-- Node2 -->
<g id="node3" class="node">
<title>Node2</title>
<g id="a_node3"><a xlink:href="Array_8hpp.html" target="_top" xlink:title=" ">
<polygon fill="#ffffff" stroke="#000000" points="146,-56.5 146,-75.5 208,-75.5 208,-56.5 146,-56.5"/>
<text text-anchor="middle" x="177" y="-63.5" font-family="Helvetica,sans-Serif" font-size="10.00" fill="#000000">Array.hpp</text>
</a>
</g>
</g>
<!-- Node1&#45;&gt;Node2 -->
<g id="edge2" class="edge">
<title>Node1&#45;&gt;Node2</title>
<path fill="none" stroke="#191970" d="M177,-112.2455C177,-104.9382 177,-94.6944 177,-85.7046"/>
<polygon fill="#191970" stroke="#191970" points="180.5001,-85.6426 177,-75.6427 173.5001,-85.6427 180.5001,-85.6426"/>
</g>
<!-- Node3 -->
<g id="node4" class="node">
<title>Node3</title>
<g id="a_node4"><a xlink:title=" ">
<polygon fill="#ffffff" stroke="#bfbfbf" points="0,-.5 0,-19.5 64,-19.5 64,-.5 0,-.5"/>
<text text-anchor="middle" x="32" y="-7.5" font-family="Helvetica,sans-Serif" font-size="10.00" fill="#000000">algorithm</text>
</a>
</g>
</g>
<!-- Node1&#45;&gt;Node3 -->
<g id="edge9" class="edge">
<title>Node1&#45;&gt;Node3</title>
<path fill="none" stroke="#191970" d="M164.6374,-112.4509C139.704,-93.1921 83.1667,-49.5218 52.5764,-25.8935"/>
<polygon fill="#191970" stroke="#191970" points="54.3849,-22.8679 44.3313,-19.5249 50.1059,-28.4078 54.3849,-22.8679"/>
</g>
<!-- Node4 -->
<g id="node5" class="node">
<title>Node4</title>
<g id="a_node5"><a xlink:title=" ">
<polygon fill="#ffffff" stroke="#bfbfbf" points="82.5,-.5 82.5,-19.5 129.5,-19.5 129.5,-.5 82.5,-.5"/>
<text text-anchor="middle" x="106" y="-7.5" font-family="Helvetica,sans-Serif" font-size="10.00" fill="#000000">cmath</text>
</a>
</g>
</g>
<!-- Node1&#45;&gt;Node4 -->
<g id="edge10" class="edge">
<title>Node1&#45;&gt;Node4</title>
<path fill="none" stroke="#191970" d="M167.247,-112.415C158.5646,-103.5282 145.8966,-89.6557 137,-76 127.3082,-61.1239 118.9314,-42.7382 113.3376,-29.1534"/>
<polygon fill="#191970" stroke="#191970" points="116.5792,-27.8331 109.6268,-19.8385 110.0762,-30.4238 116.5792,-27.8331"/>
</g>
<!-- Node9 -->
<g id="node10" class="node">
<title>Node9</title>
<g id="a_node10"><a xlink:title=" ">
<polygon fill="#ffffff" stroke="#bfbfbf" points="226,-56.5 226,-75.5 282,-75.5 282,-56.5 226,-56.5"/>
<text text-anchor="middle" x="254" y="-63.5" font-family="Helvetica,sans-Serif" font-size="10.00" fill="#000000">iomanip</text>
</a>
</g>
</g>
<!-- Node1&#45;&gt;Node9 -->
<g id="edge11" class="edge">
<title>Node1&#45;&gt;Node9</title>
<path fill="none" stroke="#191970" d="M190.4124,-112.2455C202.0057,-103.814 218.9748,-91.4729 232.4678,-81.6598"/>
<polygon fill="#191970" stroke="#191970" points="234.7126,-84.355 240.7413,-75.6427 230.5953,-78.6938 234.7126,-84.355"/>
</g>
<!-- Node10 -->
<g id="node11" class="node">
<title>Node10</title>
<g id="a_node11"><a xlink:title=" ">
<polygon fill="#ffffff" stroke="#bfbfbf" points="300.5,-56.5 300.5,-75.5 357.5,-75.5 357.5,-56.5 300.5,-56.5"/>
<text text-anchor="middle" x="329" y="-63.5" font-family="Helvetica,sans-Serif" font-size="10.00" fill="#000000">ostream</text>
</a>
</g>
</g>
<!-- Node1&#45;&gt;Node10 -->
<g id="edge12" class="edge">
<title>Node1&#45;&gt;Node10</title>
<path fill="none" stroke="#191970" d="M203.1297,-112.3733C228.0768,-103.1822 265.8592,-89.2624 293.5206,-79.0713"/>
<polygon fill="#191970" stroke="#191970" points="295.0378,-82.2424 303.2112,-75.5011 292.6178,-75.674 295.0378,-82.2424"/>
</g>
<!-- Node2&#45;&gt;Node3 -->
<g id="edge3" class="edge">
<title>Node2&#45;&gt;Node3</title>
<path fill="none" stroke="#191970" d="M152.0736,-56.3733C128.3798,-47.2226 92.5489,-33.3844 66.1932,-23.2057"/>
<polygon fill="#191970" stroke="#191970" points="67.1906,-19.8389 56.6011,-19.5011 64.6686,-26.3689 67.1906,-19.8389"/>
</g>
<!-- Node2&#45;&gt;Node4 -->
<g id="edge4" class="edge">
<title>Node2&#45;&gt;Node4</title>
<path fill="none" stroke="#191970" d="M164.6327,-56.2455C154.0446,-47.8943 138.5936,-35.7076 126.2107,-25.9408"/>
<polygon fill="#191970" stroke="#191970" points="128.2447,-23.0875 118.2255,-19.6427 123.9097,-28.5837 128.2447,-23.0875"/>
</g>
<!-- Node5 -->
<g id="node6" class="node">
<title>Node5</title>
<g id="a_node6"><a xlink:title=" ">
<polygon fill="#ffffff" stroke="#bfbfbf" points="305.5,-.5 305.5,-19.5 358.5,-19.5 358.5,-.5 305.5,-.5"/>
<text text-anchor="middle" x="332" y="-7.5" font-family="Helvetica,sans-Serif" font-size="10.00" fill="#000000">cstddef</text>
</a>
</g>
</g>
<!-- Node2&#45;&gt;Node5 -->
<g id="edge5" class="edge">
<title>Node2&#45;&gt;Node5</title>
<path fill="none" stroke="#191970" d="M203.6454,-56.3733C229.1964,-47.1419 267.9512,-33.1402 296.1909,-22.9375"/>
<polygon fill="#191970" stroke="#191970" points="297.4865,-26.1909 305.7022,-19.5011 295.1079,-19.6074 297.4865,-26.1909"/>
</g>
<!-- Node6 -->
<g id="node7" class="node">
<title>Node6</title>
<g id="a_node7"><a xlink:title=" ">
<polygon fill="#ffffff" stroke="#bfbfbf" points="377,-.5 377,-19.5 433,-19.5 433,-.5 377,-.5"/>
<text text-anchor="middle" x="405" y="-7.5" font-family="Helvetica,sans-Serif" font-size="10.00" fill="#000000">numeric</text>
</a>
</g>
</g>
<!-- Node2&#45;&gt;Node6 -->
<g id="edge6" class="edge">
<title>Node2&#45;&gt;Node6</title>
<path fill="none" stroke="#191970" d="M208.0006,-58.2143C211.0404,-57.4616 214.0794,-56.7132 217,-56 281.0118,-40.3685 299.4975,-37.2663 366.8964,-20.23"/>
<polygon fill="#191970" stroke="#191970" points="367.9098,-23.5839 376.7411,-17.7309 366.1873,-16.7991 367.9098,-23.5839"/>
</g>
<!-- Node7 -->
<g id="node8" class="node">
<title>Node7</title>
<g id="a_node8"><a xlink:title=" ">
<polygon fill="#ffffff" stroke="#bfbfbf" points="147.5,-.5 147.5,-19.5 216.5,-19.5 216.5,-.5 147.5,-.5"/>
<text text-anchor="middle" x="182" y="-7.5" font-family="Helvetica,sans-Serif" font-size="10.00" fill="#000000">type_traits</text>
</a>
</g>
</g>
<!-- Node2&#45;&gt;Node7 -->
<g id="edge7" class="edge">
<title>Node2&#45;&gt;Node7</title>
<path fill="none" stroke="#191970" d="M177.8709,-56.2455C178.5234,-48.9382 179.438,-38.6944 180.2407,-29.7046"/>
<polygon fill="#191970" stroke="#191970" points="183.7358,-29.9143 181.139,-19.6427 176.7635,-29.2918 183.7358,-29.9143"/>
</g>
<!-- Node8 -->
<g id="node9" class="node">
<title>Node8</title>
<g id="a_node9"><a xlink:title=" ">
<polygon fill="#ffffff" stroke="#bfbfbf" points="235,-.5 235,-19.5 287,-19.5 287,-.5 235,-.5"/>
<text text-anchor="middle" x="261" y="-7.5" font-family="Helvetica,sans-Serif" font-size="10.00" fill="#000000">cassert</text>
</a>
</g>
</g>
<!-- Node2&#45;&gt;Node8 -->
<g id="edge8" class="edge">
<title>Node2&#45;&gt;Node8</title>
<path fill="none" stroke="#191970" d="M191.6317,-56.2455C204.3994,-47.7337 223.1438,-35.2375 237.9299,-25.3801"/>
<polygon fill="#191970" stroke="#191970" points="240.1569,-28.1019 246.536,-19.6427 236.274,-22.2775 240.1569,-28.1019"/>
</g>
</g>
</svg>
