<?xml version="1.0" encoding="UTF-8" standalone="no"?>
<!DOCTYPE svg PUBLIC "-//W3C//DTD SVG 1.1//EN"
 "http://www.w3.org/Graphics/SVG/1.1/DTD/svg11.dtd">
<!-- Generated by graphviz version 2.40.1 (20161225.0304)
 -->
<!-- Title: randn Pages: 1 -->
<svg width="153pt" height="66pt"
 viewBox="0.00 0.00 153.00 66.00" xmlns="http://www.w3.org/2000/svg" xmlns:xlink="http://www.w3.org/1999/xlink">
<g id="graph0" class="graph" transform="scale(1 1) rotate(0) translate(4 62)">
<title>randn</title>
<polygon fill="#ffffff" stroke="transparent" points="-4,4 -4,-62 149,-62 149,4 -4,4"/>
<!-- Node7 -->
<g id="node1" class="node">
<title>Node7</title>
<g id="a_node1"><a xlink:title=" ">
<polygon fill="#bfbfbf" stroke="#000000" points="0,-19.5 0,-38.5 44,-38.5 44,-19.5 0,-19.5"/>
<text text-anchor="middle" x="22" y="-26.5" font-family="Helvetica,sans-Serif" font-size="10.00" fill="#000000">randn</text>
</a>
</g>
</g>
<!-- Node8 -->
<g id="node2" class="node">
<title>Node8</title>
<g id="a_node2"><a xlink:href="Matrix_8hpp.html#ae8d7f8a24d9759e2535e2ff13f13fe26" target="_top" xlink:title=" ">
<polygon fill="#ffffff" stroke="#000000" points="80,-38.5 80,-57.5 145,-57.5 145,-38.5 80,-38.5"/>
<text text-anchor="middle" x="112.5" y="-45.5" font-family="Helvetica,sans-Serif" font-size="10.00" fill="#000000">transpose</text>
</a>
</g>
</g>
<!-- Node7&#45;&gt;Node8 -->
<g id="edge1" class="edge">
<title>Node7&#45;&gt;Node8</title>
<path fill="none" stroke="#191970" d="M44.3708,-33.6966C52.129,-35.3254 61.1049,-37.2099 69.9433,-39.0654"/>
<polygon fill="#191970" stroke="#191970" points="69.2856,-42.5036 79.7914,-41.133 70.724,-35.653 69.2856,-42.5036"/>
</g>
<!-- Node9 -->
<g id="node3" class="node">
<title>Node9</title>
<g id="a_node3"><a xlink:href="Randn_8hpp.html#a0dba89e43acc526c0214bfce4322f7b3" target="_top" xlink:title=" ">
<polygon fill="#ffffff" stroke="#000000" points="90.5,-.5 90.5,-19.5 134.5,-19.5 134.5,-.5 90.5,-.5"/>
<text text-anchor="middle" x="112.5" y="-7.5" font-family="Helvetica,sans-Serif" font-size="10.00" fill="#000000">randn</text>
</a>
</g>
</g>
<!-- Node7&#45;&gt;Node9 -->
<g id="edge2" class="edge">
<title>Node7&#45;&gt;Node9</title>
<path fill="none" stroke="#191970" d="M44.3708,-24.3034C55.2205,-22.0255 68.4517,-19.2477 80.3578,-16.7481"/>
<polygon fill="#191970" stroke="#191970" points="81.3191,-20.1227 90.3865,-14.6426 79.8807,-13.272 81.3191,-20.1227"/>
</g>
</g>
</svg>
