<?xml version="1.0" encoding="UTF-8" standalone="no"?>
<!DOCTYPE svg PUBLIC "-//W3C//DTD SVG 1.1//EN"
 "http://www.w3.org/Graphics/SVG/1.1/DTD/svg11.dtd">
<!-- Generated by graphviz version 2.40.1 (20161225.0304)
 -->
<!-- Title: /home/pieter/GitHub/EAGLE&#45;ZYBO&#45;Linux/src/comm/src/SharedMem.cpp Pages: 1 -->
<svg width="934pt" height="162pt"
 viewBox="0.00 0.00 934.00 162.00" xmlns="http://www.w3.org/2000/svg" xmlns:xlink="http://www.w3.org/1999/xlink">
<g id="graph0" class="graph" transform="scale(1 1) rotate(0) translate(4 158)">
<title>/home/pieter/GitHub/EAGLE&#45;ZYBO&#45;Linux/src/comm/src/SharedMem.cpp</title>
<polygon fill="#ffffff" stroke="transparent" points="-4,4 -4,-158 930,-158 930,4 -4,4"/>
<!-- Node0 -->
<g id="node1" class="node">
<title>Node0</title>
<g id="a_node1"><a xlink:title=" ">
<polygon fill="#bfbfbf" stroke="#000000" points="379.5,-112.5 379.5,-153.5 528.5,-153.5 528.5,-112.5 379.5,-112.5"/>
<text text-anchor="start" x="387.5" y="-141.5" font-family="Helvetica,sans-Serif" font-size="10.00" fill="#000000">/home/pieter/GitHub</text>
<text text-anchor="start" x="387.5" y="-130.5" font-family="Helvetica,sans-Serif" font-size="10.00" fill="#000000">/EAGLE&#45;ZYBO&#45;Linux/src</text>
<text text-anchor="middle" x="454" y="-119.5" font-family="Helvetica,sans-Serif" font-size="10.00" fill="#000000">/comm/src/SharedMem.cpp</text>
</a>
</g>
</g>
<!-- Node1 -->
<g id="node2" class="node">
<title>Node1</title>
<g id="a_node2"><a xlink:href="SharedMem_8hpp.html" target="_top" xlink:title=" ">
<polygon fill="#ffffff" stroke="#000000" points="406.5,-56.5 406.5,-75.5 501.5,-75.5 501.5,-56.5 406.5,-56.5"/>
<text text-anchor="middle" x="454" y="-63.5" font-family="Helvetica,sans-Serif" font-size="10.00" fill="#000000">SharedMem.hpp</text>
</a>
</g>
</g>
<!-- Node0&#45;&gt;Node1 -->
<g id="edge1" class="edge">
<title>Node0&#45;&gt;Node1</title>
<path fill="none" stroke="#191970" d="M454,-112.168C454,-103.8226 454,-94.2471 454,-85.9879"/>
<polygon fill="#191970" stroke="#191970" points="457.5001,-85.7804 454,-75.7805 450.5001,-85.7805 457.5001,-85.7804"/>
</g>
<!-- Node2 -->
<g id="node3" class="node">
<title>Node2</title>
<g id="a_node3"><a xlink:href="ANSIColors_8hpp.html" target="_top" xlink:title=" ">
<polygon fill="#ffffff" stroke="#000000" points="0,-.5 0,-19.5 92,-19.5 92,-.5 0,-.5"/>
<text text-anchor="middle" x="46" y="-7.5" font-family="Helvetica,sans-Serif" font-size="10.00" fill="#000000">ANSIColors.hpp</text>
</a>
</g>
</g>
<!-- Node1&#45;&gt;Node2 -->
<g id="edge2" class="edge">
<title>Node1&#45;&gt;Node2</title>
<path fill="none" stroke="#191970" d="M406.2161,-60.5459C340.182,-52.8381 217.0724,-37.8558 102.206,-20.1281"/>
<polygon fill="#191970" stroke="#191970" points="102.6038,-16.648 92.185,-18.5712 101.5291,-23.565 102.6038,-16.648"/>
</g>
<!-- Node3 -->
<g id="node4" class="node">
<title>Node3</title>
<g id="a_node4"><a xlink:title=" ">
<polygon fill="#ffffff" stroke="#bfbfbf" points="110,-.5 110,-19.5 166,-19.5 166,-.5 110,-.5"/>
<text text-anchor="middle" x="138" y="-7.5" font-family="Helvetica,sans-Serif" font-size="10.00" fill="#000000">iomanip</text>
</a>
</g>
</g>
<!-- Node1&#45;&gt;Node3 -->
<g id="edge3" class="edge">
<title>Node1&#45;&gt;Node3</title>
<path fill="none" stroke="#191970" d="M406.3333,-59.6302C352.6358,-52.1239 262.5923,-38.5451 176.1822,-20.093"/>
<polygon fill="#191970" stroke="#191970" points="176.7238,-16.6293 166.2101,-17.9379 175.2451,-23.4714 176.7238,-16.6293"/>
</g>
<!-- Node4 -->
<g id="node5" class="node">
<title>Node4</title>
<g id="a_node5"><a xlink:title=" ">
<polygon fill="#ffffff" stroke="#bfbfbf" points="184,-.5 184,-19.5 244,-19.5 244,-.5 184,-.5"/>
<text text-anchor="middle" x="214" y="-7.5" font-family="Helvetica,sans-Serif" font-size="10.00" fill="#000000">iostream</text>
</a>
</g>
</g>
<!-- Node1&#45;&gt;Node4 -->
<g id="edge4" class="edge">
<title>Node1&#45;&gt;Node4</title>
<path fill="none" stroke="#191970" d="M410.7938,-56.4532C372.1872,-47.8463 313.8296,-34.6491 254.1844,-20.246"/>
<polygon fill="#191970" stroke="#191970" points="254.7573,-16.7836 244.2143,-17.8299 253.1086,-23.5867 254.7573,-16.7836"/>
</g>
<!-- Node5 -->
<g id="node6" class="node">
<title>Node5</title>
<g id="a_node6"><a xlink:title=" ">
<polygon fill="#ffffff" stroke="#bfbfbf" points="262,-.5 262,-19.5 314,-19.5 314,-.5 262,-.5"/>
<text text-anchor="middle" x="288" y="-7.5" font-family="Helvetica,sans-Serif" font-size="10.00" fill="#000000">cassert</text>
</a>
</g>
</g>
<!-- Node1&#45;&gt;Node5 -->
<g id="edge5" class="edge">
<title>Node1&#45;&gt;Node5</title>
<path fill="none" stroke="#191970" d="M425.4636,-56.3733C397.3968,-46.9049 354.4538,-32.4182 324.0438,-22.1594"/>
<polygon fill="#191970" stroke="#191970" points="324.8451,-18.7359 314.2509,-18.8557 322.6075,-25.3687 324.8451,-18.7359"/>
</g>
<!-- Node6 -->
<g id="node7" class="node">
<title>Node6</title>
<g id="a_node7"><a xlink:title=" ">
<polygon fill="#ffffff" stroke="#bfbfbf" points="332.5,-.5 332.5,-19.5 379.5,-19.5 379.5,-.5 332.5,-.5"/>
<text text-anchor="middle" x="356" y="-7.5" font-family="Helvetica,sans-Serif" font-size="10.00" fill="#000000">cerrno</text>
</a>
</g>
</g>
<!-- Node1&#45;&gt;Node6 -->
<g id="edge6" class="edge">
<title>Node1&#45;&gt;Node6</title>
<path fill="none" stroke="#191970" d="M436.9297,-56.2455C421.753,-47.5731 399.3379,-34.7645 381.9437,-24.825"/>
<polygon fill="#191970" stroke="#191970" points="383.2936,-21.5653 372.8747,-19.6427 379.8206,-27.643 383.2936,-21.5653"/>
</g>
<!-- Node7 -->
<g id="node8" class="node">
<title>Node7</title>
<g id="a_node8"><a xlink:title=" ">
<polygon fill="#ffffff" stroke="#bfbfbf" points="397.5,-.5 397.5,-19.5 444.5,-19.5 444.5,-.5 397.5,-.5"/>
<text text-anchor="middle" x="421" y="-7.5" font-family="Helvetica,sans-Serif" font-size="10.00" fill="#000000">fcntl.h</text>
</a>
</g>
</g>
<!-- Node1&#45;&gt;Node7 -->
<g id="edge7" class="edge">
<title>Node1&#45;&gt;Node7</title>
<path fill="none" stroke="#191970" d="M448.2518,-56.2455C443.7565,-48.617 437.3752,-37.7881 431.9175,-28.5267"/>
<polygon fill="#191970" stroke="#191970" points="434.7747,-26.4811 426.6823,-19.6427 428.7439,-30.035 434.7747,-26.4811"/>
</g>
<!-- Node8 -->
<g id="node9" class="node">
<title>Node8</title>
<g id="a_node9"><a xlink:title=" ">
<polygon fill="#ffffff" stroke="#bfbfbf" points="463,-.5 463,-19.5 513,-19.5 513,-.5 463,-.5"/>
<text text-anchor="middle" x="488" y="-7.5" font-family="Helvetica,sans-Serif" font-size="10.00" fill="#000000">stdio.h</text>
</a>
</g>
</g>
<!-- Node1&#45;&gt;Node8 -->
<g id="edge8" class="edge">
<title>Node1&#45;&gt;Node8</title>
<path fill="none" stroke="#191970" d="M459.9223,-56.2455C464.6027,-48.5367 471.2673,-37.5598 476.9289,-28.2348"/>
<polygon fill="#191970" stroke="#191970" points="479.9475,-30.007 482.1455,-19.6427 473.9639,-26.3741 479.9475,-30.007"/>
</g>
<!-- Node9 -->
<g id="node10" class="node">
<title>Node9</title>
<g id="a_node10"><a xlink:title=" ">
<polygon fill="#ffffff" stroke="#bfbfbf" points="531.5,-.5 531.5,-19.5 584.5,-19.5 584.5,-.5 531.5,-.5"/>
<text text-anchor="middle" x="558" y="-7.5" font-family="Helvetica,sans-Serif" font-size="10.00" fill="#000000">stdlib.h</text>
</a>
</g>
</g>
<!-- Node1&#45;&gt;Node9 -->
<g id="edge9" class="edge">
<title>Node1&#45;&gt;Node9</title>
<path fill="none" stroke="#191970" d="M472.1154,-56.2455C488.445,-47.4527 512.671,-34.4079 531.2339,-24.4125"/>
<polygon fill="#191970" stroke="#191970" points="532.9468,-27.4654 540.0922,-19.6427 529.6281,-21.3021 532.9468,-27.4654"/>
</g>
<!-- Node10 -->
<g id="node11" class="node">
<title>Node10</title>
<g id="a_node11"><a xlink:title=" ">
<polygon fill="#ffffff" stroke="#bfbfbf" points="602.5,-.5 602.5,-19.5 679.5,-19.5 679.5,-.5 602.5,-.5"/>
<text text-anchor="middle" x="641" y="-7.5" font-family="Helvetica,sans-Serif" font-size="10.00" fill="#000000">sys/mman.h</text>
</a>
</g>
</g>
<!-- Node1&#45;&gt;Node10 -->
<g id="edge10" class="edge">
<title>Node1&#45;&gt;Node10</title>
<path fill="none" stroke="#191970" d="M486.1464,-56.3733C517.5109,-46.9807 565.3665,-32.6496 599.5716,-22.4064"/>
<polygon fill="#191970" stroke="#191970" points="600.6975,-25.7229 609.273,-19.5011 598.6893,-19.0171 600.6975,-25.7229"/>
</g>
<!-- Node11 -->
<g id="node12" class="node">
<title>Node11</title>
<g id="a_node12"><a xlink:title=" ">
<polygon fill="#ffffff" stroke="#bfbfbf" points="698,-.5 698,-19.5 762,-19.5 762,-.5 698,-.5"/>
<text text-anchor="middle" x="730" y="-7.5" font-family="Helvetica,sans-Serif" font-size="10.00" fill="#000000">sys/stat.h</text>
</a>
</g>
</g>
<!-- Node1&#45;&gt;Node11 -->
<g id="edge11" class="edge">
<title>Node1&#45;&gt;Node11</title>
<path fill="none" stroke="#191970" d="M501.8419,-57.3014C547.2844,-48.8895 617.7545,-35.4587 687.9091,-20.17"/>
<polygon fill="#191970" stroke="#191970" points="688.7851,-23.5612 697.8035,-18.0007 687.2859,-16.7236 688.7851,-23.5612"/>
</g>
<!-- Node12 -->
<g id="node13" class="node">
<title>Node12</title>
<g id="a_node13"><a xlink:title=" ">
<polygon fill="#ffffff" stroke="#bfbfbf" points="780,-.5 780,-19.5 852,-19.5 852,-.5 780,-.5"/>
<text text-anchor="middle" x="816" y="-7.5" font-family="Helvetica,sans-Serif" font-size="10.00" fill="#000000">sys/types.h</text>
</a>
</g>
</g>
<!-- Node1&#45;&gt;Node12 -->
<g id="edge12" class="edge">
<title>Node1&#45;&gt;Node12</title>
<path fill="none" stroke="#191970" d="M501.7098,-60.2038C561.9,-52.642 668.7902,-38.3872 769.6447,-20.1463"/>
<polygon fill="#191970" stroke="#191970" points="770.4892,-23.55 779.698,-18.3108 769.232,-16.6638 770.4892,-23.55"/>
</g>
<!-- Node13 -->
<g id="node14" class="node">
<title>Node13</title>
<g id="a_node14"><a xlink:title=" ">
<polygon fill="#ffffff" stroke="#bfbfbf" points="870,-.5 870,-19.5 926,-19.5 926,-.5 870,-.5"/>
<text text-anchor="middle" x="898" y="-7.5" font-family="Helvetica,sans-Serif" font-size="10.00" fill="#000000">unistd.h</text>
</a>
</g>
</g>
<!-- Node1&#45;&gt;Node13 -->
<g id="edge13" class="edge">
<title>Node1&#45;&gt;Node13</title>
<path fill="none" stroke="#191970" d="M501.6616,-62.9634C576.1621,-57.7042 724.8091,-45.1523 859.7193,-20.0001"/>
<polygon fill="#191970" stroke="#191970" points="860.6459,-23.3869 869.8205,-18.088 859.344,-16.5091 860.6459,-23.3869"/>
</g>
</g>
</svg>
