<?xml version="1.0" encoding="UTF-8" standalone="no"?>
<!DOCTYPE svg PUBLIC "-//W3C//DTD SVG 1.1//EN"
 "http://www.w3.org/Graphics/SVG/1.1/DTD/svg11.dtd">
<!-- Generated by graphviz version 2.40.1 (20161225.0304)
 -->
<!-- Title: /home/pieter/GitHub/EAGLE&#45;ZYBO&#45;Linux/src/baremetal&#45;comm/include/SharedStruct.hpp Pages: 1 -->
<svg width="362pt" height="117pt"
 viewBox="0.00 0.00 361.50 117.00" xmlns="http://www.w3.org/2000/svg" xmlns:xlink="http://www.w3.org/1999/xlink">
<g id="graph0" class="graph" transform="scale(1 1) rotate(0) translate(4 113)">
<title>/home/pieter/GitHub/EAGLE&#45;ZYBO&#45;Linux/src/baremetal&#45;comm/include/SharedStruct.hpp</title>
<polygon fill="#ffffff" stroke="transparent" points="-4,4 -4,-113 357.5,-113 357.5,4 -4,4"/>
<!-- Node0 -->
<g id="node1" class="node">
<title>Node0</title>
<g id="a_node1"><a xlink:title=" ">
<polygon fill="#bfbfbf" stroke="#000000" points="99.5,-56.5 99.5,-108.5 242.5,-108.5 242.5,-56.5 99.5,-56.5"/>
<text text-anchor="start" x="107.5" y="-96.5" font-family="Helvetica,sans-Serif" font-size="10.00" fill="#000000">/home/pieter/GitHub</text>
<text text-anchor="start" x="107.5" y="-85.5" font-family="Helvetica,sans-Serif" font-size="10.00" fill="#000000">/EAGLE&#45;ZYBO&#45;Linux/src</text>
<text text-anchor="start" x="107.5" y="-74.5" font-family="Helvetica,sans-Serif" font-size="10.00" fill="#000000">/baremetal&#45;comm/include</text>
<text text-anchor="middle" x="171" y="-63.5" font-family="Helvetica,sans-Serif" font-size="10.00" fill="#000000">/SharedStruct.hpp</text>
</a>
</g>
</g>
<!-- Node1 -->
<g id="node2" class="node">
<title>Node1</title>
<g id="a_node2"><a xlink:title=" ">
<polygon fill="#ffffff" stroke="#bfbfbf" points="0,-.5 0,-19.5 52,-19.5 52,-.5 0,-.5"/>
<text text-anchor="middle" x="26" y="-7.5" font-family="Helvetica,sans-Serif" font-size="10.00" fill="#000000">cassert</text>
</a>
</g>
</g>
<!-- Node0&#45;&gt;Node1 -->
<g id="edge1" class="edge">
<title>Node0&#45;&gt;Node1</title>
<path fill="none" stroke="#191970" d="M118.6517,-56.3258C96.8228,-45.4114 72.3463,-33.1731 54.035,-24.0175"/>
<polygon fill="#191970" stroke="#191970" points="55.5776,-20.8757 45.068,-19.534 52.447,-27.1367 55.5776,-20.8757"/>
</g>
<!-- Node2 -->
<g id="node3" class="node">
<title>Node2</title>
<g id="a_node3"><a xlink:title=" ">
<polygon fill="#ffffff" stroke="#bfbfbf" points="70,-.5 70,-19.5 120,-19.5 120,-.5 70,-.5"/>
<text text-anchor="middle" x="95" y="-7.5" font-family="Helvetica,sans-Serif" font-size="10.00" fill="#000000">cstdint</text>
</a>
</g>
</g>
<!-- Node0&#45;&gt;Node2 -->
<g id="edge2" class="edge">
<title>Node0&#45;&gt;Node2</title>
<path fill="none" stroke="#191970" d="M143.5623,-56.3258C133.1706,-46.4127 121.6341,-35.4075 112.4138,-26.6118"/>
<polygon fill="#191970" stroke="#191970" points="114.6459,-23.904 104.9943,-19.534 109.8141,-28.969 114.6459,-23.904"/>
</g>
<!-- Node3 -->
<g id="node4" class="node">
<title>Node3</title>
<g id="a_node4"><a xlink:title=" ">
<polygon fill="#ffffff" stroke="#bfbfbf" points="138.5,-.5 138.5,-19.5 203.5,-19.5 203.5,-.5 138.5,-.5"/>
<text text-anchor="middle" x="171" y="-7.5" font-family="Helvetica,sans-Serif" font-size="10.00" fill="#000000">stdexcept</text>
</a>
</g>
</g>
<!-- Node0&#45;&gt;Node3 -->
<g id="edge3" class="edge">
<title>Node0&#45;&gt;Node3</title>
<path fill="none" stroke="#191970" d="M171,-56.3258C171,-47.5142 171,-37.8397 171,-29.621"/>
<polygon fill="#191970" stroke="#191970" points="174.5001,-29.534 171,-19.534 167.5001,-29.534 174.5001,-29.534"/>
</g>
<!-- Node4 -->
<g id="node5" class="node">
<title>Node4</title>
<g id="a_node5"><a xlink:title=" ">
<polygon fill="#ffffff" stroke="#bfbfbf" points="222,-.5 222,-19.5 266,-19.5 266,-.5 222,-.5"/>
<text text-anchor="middle" x="244" y="-7.5" font-family="Helvetica,sans-Serif" font-size="10.00" fill="#000000">string</text>
</a>
</g>
</g>
<!-- Node0&#45;&gt;Node4 -->
<g id="edge4" class="edge">
<title>Node0&#45;&gt;Node4</title>
<path fill="none" stroke="#191970" d="M197.3547,-56.3258C207.3362,-46.4127 218.4172,-35.4075 227.2736,-26.6118"/>
<polygon fill="#191970" stroke="#191970" points="229.7713,-29.0641 234.4002,-19.534 224.8385,-24.0974 229.7713,-29.0641"/>
</g>
<!-- Node5 -->
<g id="node6" class="node">
<title>Node5</title>
<g id="a_node6"><a xlink:title=" ">
<polygon fill="#ffffff" stroke="#bfbfbf" points="284.5,-.5 284.5,-19.5 353.5,-19.5 353.5,-.5 284.5,-.5"/>
<text text-anchor="middle" x="319" y="-7.5" font-family="Helvetica,sans-Serif" font-size="10.00" fill="#000000">type_traits</text>
</a>
</g>
</g>
<!-- Node0&#45;&gt;Node5 -->
<g id="edge5" class="edge">
<title>Node0&#45;&gt;Node5</title>
<path fill="none" stroke="#191970" d="M224.4314,-56.3258C246.712,-45.4114 271.6948,-33.1731 290.385,-24.0175"/>
<polygon fill="#191970" stroke="#191970" points="292.0968,-27.0764 299.5375,-19.534 289.0174,-20.7901 292.0968,-27.0764"/>
</g>
</g>
</svg>
