<?xml version="1.0" encoding="UTF-8" standalone="no"?>
<!DOCTYPE svg PUBLIC "-//W3C//DTD SVG 1.1//EN"
 "http://www.w3.org/Graphics/SVG/1.1/DTD/svg11.dtd">
<!-- Generated by graphviz version 2.40.1 (20161225.0304)
 -->
<!-- Title: sq Pages: 1 -->
<svg width="576pt" height="166pt"
 viewBox="0.00 0.00 576.00 166.19" xmlns="http://www.w3.org/2000/svg" xmlns:xlink="http://www.w3.org/1999/xlink">
<g id="graph0" class="graph" transform="scale(1 1) rotate(0) translate(4 162.187)">
<title>sq</title>
<polygon fill="#ffffff" stroke="transparent" points="-4,4 -4,-162.187 572,-162.187 572,4 -4,4"/>
<!-- Node1 -->
<g id="node1" class="node">
<title>Node1</title>
<g id="a_node1"><a xlink:title=" ">
<polygon fill="#bfbfbf" stroke="#000000" points="539,-62.687 539,-81.687 568,-81.687 568,-62.687 539,-62.687"/>
<text text-anchor="middle" x="553.5" y="-69.687" font-family="Helvetica,sans-Serif" font-size="10.00" fill="#000000">sq</text>
</a>
</g>
</g>
<!-- Node2 -->
<g id="node2" class="node">
<title>Node2</title>
<g id="a_node2"><a xlink:href="classGridFinder.html#a8940ca681fac78274043cf5f1f1f5761" target="_top" xlink:title="This is the main function: it looks for a complete square of the grid, as close to the center of the ...">
<polygon fill="#ffffff" stroke="#000000" points="366,-138.687 366,-157.687 490,-157.687 490,-138.687 366,-138.687"/>
<text text-anchor="middle" x="428" y="-145.687" font-family="Helvetica,sans-Serif" font-size="10.00" fill="#000000">GridFinder::findSquare</text>
</a>
</g>
</g>
<!-- Node1&#45;&gt;Node2 -->
<g id="edge1" class="edge">
<title>Node1&#45;&gt;Node2</title>
<path fill="none" stroke="#191970" d="M541.8432,-90.3222C532.7461,-103.0403 518.9926,-119.4488 503,-129.187 496.5753,-133.0991 489.3726,-136.2089 482.0396,-138.6801"/>
<polygon fill="#191970" stroke="#191970" points="544.8698,-92.0962 547.6099,-81.8618 539.0856,-88.1536 544.8698,-92.0962"/>
</g>
<!-- Node3 -->
<g id="node3" class="node">
<title>Node3</title>
<g id="a_node3"><a xlink:href="classLocationFinder.html#af56756d038d762e04e0c91bac9fc2522" target="_top" xlink:title="Read a new frame, mask it, run GridFinder, and get the position of the drone. The position is the pos...">
<polygon fill="#ffffff" stroke="#000000" points="149,-100.687 149,-119.687 317,-119.687 317,-100.687 149,-100.687"/>
<text text-anchor="middle" x="233" y="-107.687" font-family="Helvetica,sans-Serif" font-size="10.00" fill="#000000">LocationFinder::updateLocation</text>
</a>
</g>
</g>
<!-- Node1&#45;&gt;Node3 -->
<g id="edge6" class="edge">
<title>Node1&#45;&gt;Node3</title>
<path fill="none" stroke="#191970" d="M528.7712,-74.0297C490.864,-76.9674 416.1446,-83.2041 353,-91.187 331.8644,-93.859 308.7276,-97.3801 288.4584,-100.6644"/>
<polygon fill="#191970" stroke="#191970" points="529.17,-77.5095 538.8743,-73.2577 528.6366,-70.5299 529.17,-77.5095"/>
</g>
<!-- Node4 -->
<g id="node4" class="node">
<title>Node4</title>
<g id="a_node4"><a xlink:href="Grid-Finder_8module_8hpp.html#a05e720af51446c0f9319fb9455fe1767" target="_top" xlink:title=" ">
<polygon fill="#ffffff" stroke="#000000" points="0,-100.687 0,-119.687 113,-119.687 113,-100.687 0,-100.687"/>
<text text-anchor="middle" x="56.5" y="-107.687" font-family="Helvetica,sans-Serif" font-size="10.00" fill="#000000">PYBIND11_MODULE</text>
</a>
</g>
</g>
<!-- Node1&#45;&gt;Node4 -->
<g id="edge9" class="edge">
<title>Node1&#45;&gt;Node4</title>
<path fill="none" stroke="#191970" d="M543.3356,-54.1164C534.6001,-40.5942 520.6323,-23.1224 503,-15.187 442.2064,12.1731 418.8671,-4.8927 353,-15.187 246.7239,-31.7968 126.5099,-79.9886 78.2458,-100.6255"/>
<polygon fill="#191970" stroke="#191970" points="540.3509,-55.9444 548.5282,-62.6811 546.3367,-52.3154 540.3509,-55.9444"/>
</g>
<!-- Node5 -->
<g id="node5" class="node">
<title>Node5</title>
<g id="a_node5"><a xlink:href="HelperStructs_8hpp.html#a8d72795c613cf90fdae6c7de87343593" target="_top" xlink:title=" ">
<polygon fill="#ffffff" stroke="#000000" points="391,-24.687 391,-43.687 465,-43.687 465,-24.687 391,-24.687"/>
<text text-anchor="middle" x="428" y="-31.687" font-family="Helvetica,sans-Serif" font-size="10.00" fill="#000000">operator&lt;&lt;</text>
</a>
</g>
</g>
<!-- Node1&#45;&gt;Node5 -->
<g id="edge5" class="edge">
<title>Node1&#45;&gt;Node5</title>
<path fill="none" stroke="#191970" d="M528.7758,-64.7008C508.9092,-58.6854 480.8791,-50.1982 459.4223,-43.7013"/>
<polygon fill="#191970" stroke="#191970" points="528.0255,-68.1305 538.6107,-67.6787 530.0541,-61.4309 528.0255,-68.1305"/>
</g>
<!-- Node6 -->
<g id="node6" class="node">
<title>Node6</title>
<g id="a_node6"><a xlink:href="classLocationFinder.html#a93be2c4b05b52c58f5fca5d1514dfbe9" target="_top" xlink:title="Get the position of the center of the frame relative to the given square.">
<polygon fill="#ffffff" stroke="#000000" points="353,-100.687 353,-119.687 503,-119.687 503,-100.687 353,-100.687"/>
<text text-anchor="middle" x="428" y="-107.687" font-family="Helvetica,sans-Serif" font-size="10.00" fill="#000000">LocationFinder::getLocation</text>
</a>
</g>
</g>
<!-- Node1&#45;&gt;Node6 -->
<g id="edge7" class="edge">
<title>Node1&#45;&gt;Node6</title>
<path fill="none" stroke="#191970" d="M528.7758,-79.6732C508.9092,-85.6886 480.8791,-94.1758 459.4223,-100.6727"/>
<polygon fill="#191970" stroke="#191970" points="530.0541,-82.9432 538.6107,-76.6954 528.0255,-76.2436 530.0541,-82.9432"/>
</g>
<!-- Node2&#45;&gt;Node3 -->
<g id="edge2" class="edge">
<title>Node2&#45;&gt;Node3</title>
<path fill="none" stroke="#191970" d="M369.0412,-136.6976C341.218,-131.2757 308.4043,-124.8812 281.9752,-119.7309"/>
<polygon fill="#191970" stroke="#191970" points="368.5601,-140.1696 379.045,-138.6471 369.8991,-133.2989 368.5601,-140.1696"/>
</g>
<!-- Node2&#45;&gt;Node4 -->
<g id="edge4" class="edge">
<title>Node2&#45;&gt;Node4</title>
<path fill="none" stroke="#191970" d="M355.7169,-145.9344C299.2318,-143.5307 218.8557,-138.696 149,-129.187 131.7808,-126.8431 112.9624,-123.1827 96.8212,-119.698"/>
<polygon fill="#191970" stroke="#191970" points="355.8428,-149.4424 365.978,-146.3555 356.1299,-142.4483 355.8428,-149.4424"/>
</g>
<!-- Node3&#45;&gt;Node4 -->
<g id="edge3" class="edge">
<title>Node3&#45;&gt;Node4</title>
<path fill="none" stroke="#191970" d="M138.6177,-110.187C129.8852,-110.187 121.233,-110.187 113.0056,-110.187"/>
<polygon fill="#191970" stroke="#191970" points="138.8854,-113.6871 148.8854,-110.187 138.8853,-106.6871 138.8854,-113.6871"/>
</g>
<!-- Node6&#45;&gt;Node3 -->
<g id="edge8" class="edge">
<title>Node6&#45;&gt;Node3</title>
<path fill="none" stroke="#191970" d="M342.6491,-110.187C334.1912,-110.187 325.6095,-110.187 317.1639,-110.187"/>
<polygon fill="#191970" stroke="#191970" points="342.8869,-113.6871 352.8868,-110.187 342.8868,-106.6871 342.8869,-113.6871"/>
</g>
</g>
</svg>
