<?xml version="1.0" encoding="UTF-8" standalone="no"?>
<!DOCTYPE svg PUBLIC "-//W3C//DTD SVG 1.1//EN"
 "http://www.w3.org/Graphics/SVG/1.1/DTD/svg11.dtd">
<!-- Generated by graphviz version 2.40.1 (20161225.0304)
 -->
<!-- Title: sq Pages: 1 -->
<svg width="576pt" height="183pt"
 viewBox="0.00 0.00 576.00 183.09" xmlns="http://www.w3.org/2000/svg" xmlns:xlink="http://www.w3.org/1999/xlink">
<g id="graph0" class="graph" transform="scale(1 1) rotate(0) translate(4 179.0853)">
<title>sq</title>
<polygon fill="#ffffff" stroke="transparent" points="-4,4 -4,-179.0853 572,-179.0853 572,4 -4,4"/>
<!-- Node1 -->
<g id="node1" class="node">
<title>Node1</title>
<g id="a_node1"><a xlink:title=" ">
<polygon fill="#bfbfbf" stroke="#000000" points="539,-76.5 539,-95.5 568,-95.5 568,-76.5 539,-76.5"/>
<text text-anchor="middle" x="553.5" y="-83.5" font-family="Helvetica,sans-Serif" font-size="10.00" fill="#000000">sq</text>
</a>
</g>
</g>
<!-- Node2 -->
<g id="node2" class="node">
<title>Node2</title>
<g id="a_node2"><a xlink:href="classGridFinder.html#a701c0c1e70d01bb8773a89a29f6673a0" target="_top" xlink:title="This is the main function: it looks for a complete square of the grid, as close to the center of the ...">
<polygon fill="#ffffff" stroke="#000000" points="366,-114.5 366,-133.5 490,-133.5 490,-114.5 366,-114.5"/>
<text text-anchor="middle" x="428" y="-121.5" font-family="Helvetica,sans-Serif" font-size="10.00" fill="#000000">GridFinder::findSquare</text>
</a>
</g>
</g>
<!-- Node1&#45;&gt;Node2 -->
<g id="edge1" class="edge">
<title>Node1&#45;&gt;Node2</title>
<path fill="none" stroke="#191970" d="M529.2098,-95.7667C520.9595,-98.9155 511.6418,-102.289 503,-105 492.1061,-108.4175 480.1781,-111.6602 469.1037,-114.4674"/>
<polygon fill="#191970" stroke="#191970" points="530.5802,-98.9891 538.6268,-92.0969 528.0384,-92.4669 530.5802,-98.9891"/>
</g>
<!-- Node4 -->
<g id="node4" class="node">
<title>Node4</title>
<g id="a_node4"><a xlink:href="Grid-Finder_8module_8hpp.html#a6849f4dcdb45a7aaadcda6439233d376" target="_top" xlink:title=" ">
<polygon fill="#ffffff" stroke="#000000" points="0,-114.5 0,-133.5 113,-133.5 113,-114.5 0,-114.5"/>
<text text-anchor="middle" x="56.5" y="-121.5" font-family="Helvetica,sans-Serif" font-size="10.00" fill="#000000">PYBIND11_MODULE</text>
</a>
</g>
</g>
<!-- Node1&#45;&gt;Node4 -->
<g id="edge8" class="edge">
<title>Node1&#45;&gt;Node4</title>
<path fill="none" stroke="#191970" d="M543.3356,-104.0707C534.6001,-117.5929 520.6323,-135.0646 503,-143 357.6038,-208.4355 157.9199,-156.5731 84.7962,-133.5654"/>
<polygon fill="#191970" stroke="#191970" points="546.3367,-105.8716 548.5282,-95.5059 540.3509,-102.2426 546.3367,-105.8716"/>
</g>
<!-- Node5 -->
<g id="node5" class="node">
<title>Node5</title>
<g id="a_node5"><a xlink:href="HelperStructs_8hpp.html#a8d72795c613cf90fdae6c7de87343593" target="_top" xlink:title=" ">
<polygon fill="#ffffff" stroke="#000000" points="391,-76.5 391,-95.5 465,-95.5 465,-76.5 391,-76.5"/>
<text text-anchor="middle" x="428" y="-83.5" font-family="Helvetica,sans-Serif" font-size="10.00" fill="#000000">operator&lt;&lt;</text>
</a>
</g>
</g>
<!-- Node1&#45;&gt;Node5 -->
<g id="edge5" class="edge">
<title>Node1&#45;&gt;Node5</title>
<path fill="none" stroke="#191970" d="M528.5458,-86C510.4232,-86 485.5971,-86 465.1487,-86"/>
<polygon fill="#191970" stroke="#191970" points="528.6107,-89.5001 538.6107,-86 528.6106,-82.5001 528.6107,-89.5001"/>
</g>
<!-- Node6 -->
<g id="node6" class="node">
<title>Node6</title>
<g id="a_node6"><a xlink:href="classLocationFinder.html#a93be2c4b05b52c58f5fca5d1514dfbe9" target="_top" xlink:title="Get the position of the center of the frame relative to the given square.">
<polygon fill="#ffffff" stroke="#000000" points="353,-38.5 353,-57.5 503,-57.5 503,-38.5 353,-38.5"/>
<text text-anchor="middle" x="428" y="-45.5" font-family="Helvetica,sans-Serif" font-size="10.00" fill="#000000">LocationFinder::getLocation</text>
</a>
</g>
</g>
<!-- Node1&#45;&gt;Node6 -->
<g id="edge6" class="edge">
<title>Node1&#45;&gt;Node6</title>
<path fill="none" stroke="#191970" d="M529.2098,-76.2333C520.9595,-73.0845 511.6418,-69.711 503,-67 492.1061,-63.5825 480.1781,-60.3398 469.1037,-57.5326"/>
<polygon fill="#191970" stroke="#191970" points="528.0384,-79.5331 538.6268,-79.9031 530.5802,-73.0109 528.0384,-79.5331"/>
</g>
<!-- Node7 -->
<g id="node7" class="node">
<title>Node7</title>
<g id="a_node7"><a xlink:href="classQuaternion.html#a0a781f97da60b1e383efbe91483f5976" target="_top" xlink:title=" ">
<polygon fill="#ffffff" stroke="#000000" points="375,-.5 375,-19.5 481,-19.5 481,-.5 375,-.5"/>
<text text-anchor="middle" x="428" y="-7.5" font-family="Helvetica,sans-Serif" font-size="10.00" fill="#000000">Quaternion::rotate</text>
</a>
</g>
</g>
<!-- Node1&#45;&gt;Node7 -->
<g id="edge9" class="edge">
<title>Node1&#45;&gt;Node7</title>
<path fill="none" stroke="#191970" d="M541.8432,-67.8649C532.7461,-55.1468 518.9926,-38.7382 503,-29 496.3459,-24.9482 488.8571,-21.7571 481.2535,-19.2446"/>
<polygon fill="#191970" stroke="#191970" points="539.0856,-70.0334 547.6099,-76.3252 544.8698,-66.0909 539.0856,-70.0334"/>
</g>
<!-- Node3 -->
<g id="node3" class="node">
<title>Node3</title>
<g id="a_node3"><a xlink:href="classLocationFinder.html#af56756d038d762e04e0c91bac9fc2522" target="_top" xlink:title="Read a new frame, mask it, run GridFinder, and get the position of the drone. The position is the pos...">
<polygon fill="#ffffff" stroke="#000000" points="149,-76.5 149,-95.5 317,-95.5 317,-76.5 149,-76.5"/>
<text text-anchor="middle" x="233" y="-83.5" font-family="Helvetica,sans-Serif" font-size="10.00" fill="#000000">LocationFinder::updateLocation</text>
</a>
</g>
</g>
<!-- Node2&#45;&gt;Node3 -->
<g id="edge2" class="edge">
<title>Node2&#45;&gt;Node3</title>
<path fill="none" stroke="#191970" d="M369.0412,-112.5106C341.218,-107.0886 308.4043,-100.6942 281.9752,-95.5439"/>
<polygon fill="#191970" stroke="#191970" points="368.5601,-115.9826 379.045,-114.46 369.8991,-109.1118 368.5601,-115.9826"/>
</g>
<!-- Node2&#45;&gt;Node4 -->
<g id="edge4" class="edge">
<title>Node2&#45;&gt;Node4</title>
<path fill="none" stroke="#191970" d="M355.6221,-124C284.6888,-124 178.0357,-124 113.0925,-124"/>
<polygon fill="#191970" stroke="#191970" points="355.8193,-127.5001 365.8193,-124 355.8192,-120.5001 355.8193,-127.5001"/>
</g>
<!-- Node3&#45;&gt;Node4 -->
<g id="edge3" class="edge">
<title>Node3&#45;&gt;Node4</title>
<path fill="none" stroke="#191970" d="M178.4124,-97.7526C153.4553,-103.1258 124.2732,-109.4086 100.7181,-114.4799"/>
<polygon fill="#191970" stroke="#191970" points="179.4223,-101.1154 188.4616,-95.589 177.9489,-94.2722 179.4223,-101.1154"/>
</g>
<!-- Node6&#45;&gt;Node3 -->
<g id="edge7" class="edge">
<title>Node6&#45;&gt;Node3</title>
<path fill="none" stroke="#191970" d="M369.0412,-59.4894C341.218,-64.9114 308.4043,-71.3058 281.9752,-76.4561"/>
<polygon fill="#191970" stroke="#191970" points="369.8991,-62.8882 379.045,-57.54 368.5601,-56.0174 369.8991,-62.8882"/>
</g>
</g>
</svg>
