<?xml version="1.0" encoding="UTF-8" standalone="no"?>
<!DOCTYPE svg PUBLIC "-//W3C//DTD SVG 1.1//EN"
 "http://www.w3.org/Graphics/SVG/1.1/DTD/svg11.dtd">
<!-- Generated by graphviz version 2.40.1 (20161225.0304)
 -->
<!-- Title: /home/pieter/GitHub/EAGLE&#45;ZYBO&#45;Linux/src/utilities/include/Square.hpp Pages: 1 -->
<svg width="858pt" height="651pt"
 viewBox="0.00 0.00 857.50 651.00" xmlns="http://www.w3.org/2000/svg" xmlns:xlink="http://www.w3.org/1999/xlink">
<g id="graph0" class="graph" transform="scale(1 1) rotate(0) translate(4 647)">
<title>/home/pieter/GitHub/EAGLE&#45;ZYBO&#45;Linux/src/utilities/include/Square.hpp</title>
<polygon fill="#ffffff" stroke="transparent" points="-4,4 -4,-647 853.5,-647 853.5,4 -4,4"/>
<!-- Node1 -->
<g id="node1" class="node">
<title>Node1</title>
<g id="a_node1"><a xlink:title=" ">
<polygon fill="#bfbfbf" stroke="#000000" points="132.5,-601.5 132.5,-642.5 284.5,-642.5 284.5,-601.5 132.5,-601.5"/>
<text text-anchor="start" x="140.5" y="-630.5" font-family="Helvetica,sans-Serif" font-size="10.00" fill="#000000">/home/pieter/GitHub</text>
<text text-anchor="start" x="140.5" y="-619.5" font-family="Helvetica,sans-Serif" font-size="10.00" fill="#000000">/EAGLE&#45;ZYBO&#45;Linux/src</text>
<text text-anchor="middle" x="208.5" y="-608.5" font-family="Helvetica,sans-Serif" font-size="10.00" fill="#000000">/utilities/include/Square.hpp</text>
</a>
</g>
</g>
<!-- Node2 -->
<g id="node2" class="node">
<title>Node2</title>
<g id="a_node2"><a xlink:href="Quaternion_8hpp.html" target="_top" xlink:title=" ">
<polygon fill="#ffffff" stroke="#000000" points="114.5,-523.5 114.5,-564.5 302.5,-564.5 302.5,-523.5 114.5,-523.5"/>
<text text-anchor="start" x="122.5" y="-552.5" font-family="Helvetica,sans-Serif" font-size="10.00" fill="#000000">/home/pieter/GitHub</text>
<text text-anchor="start" x="122.5" y="-541.5" font-family="Helvetica,sans-Serif" font-size="10.00" fill="#000000">/EAGLE&#45;ZYBO&#45;Linux/src</text>
<text text-anchor="middle" x="208.5" y="-530.5" font-family="Helvetica,sans-Serif" font-size="10.00" fill="#000000">/quaternion/include/Quaternion.hpp</text>
</a>
</g>
</g>
<!-- Node1&#45;&gt;Node2 -->
<g id="edge1" class="edge">
<title>Node1&#45;&gt;Node2</title>
<path fill="none" stroke="#191970" d="M208.5,-591.0789C208.5,-582.2178 208.5,-572.7747 208.5,-564.6898"/>
<polygon fill="#191970" stroke="#191970" points="205.0001,-591.0974 208.5,-601.0974 212.0001,-591.0975 205.0001,-591.0974"/>
</g>
<!-- Node3 -->
<g id="node3" class="node">
<title>Node3</title>
<g id="a_node3"><a xlink:href="PyQuaternion_8cpp.html" target="_top" xlink:title=" ">
<polygon fill="#ffffff" stroke="#000000" points="6.5,-262 6.5,-303 200.5,-303 200.5,-262 6.5,-262"/>
<text text-anchor="start" x="14.5" y="-291" font-family="Helvetica,sans-Serif" font-size="10.00" fill="#000000">/home/pieter/GitHub</text>
<text text-anchor="start" x="14.5" y="-280" font-family="Helvetica,sans-Serif" font-size="10.00" fill="#000000">/EAGLE&#45;ZYBO&#45;Linux/src</text>
<text text-anchor="middle" x="103.5" y="-269" font-family="Helvetica,sans-Serif" font-size="10.00" fill="#000000">/py&#45;quaternion/src/PyQuaternion.cpp</text>
</a>
</g>
</g>
<!-- Node2&#45;&gt;Node3 -->
<g id="edge2" class="edge">
<title>Node2&#45;&gt;Node3</title>
<path fill="none" stroke="#191970" d="M137.0006,-518.4783C123.7212,-510.4581 111.5218,-500.144 103.5,-487 67.8963,-428.6622 85.8372,-342.4278 96.9282,-303.2369"/>
<polygon fill="#191970" stroke="#191970" points="135.4132,-521.6006 145.8499,-523.4241 138.8283,-515.4902 135.4132,-521.6006"/>
</g>
<!-- Node4 -->
<g id="node4" class="node">
<title>Node4</title>
<g id="a_node4"><a xlink:href="EulerAngles_8hpp.html" target="_top" xlink:title=" ">
<polygon fill="#ffffff" stroke="#000000" points="112.5,-440 112.5,-481 304.5,-481 304.5,-440 112.5,-440"/>
<text text-anchor="start" x="120.5" y="-469" font-family="Helvetica,sans-Serif" font-size="10.00" fill="#000000">/home/pieter/GitHub</text>
<text text-anchor="start" x="120.5" y="-458" font-family="Helvetica,sans-Serif" font-size="10.00" fill="#000000">/EAGLE&#45;ZYBO&#45;Linux/src</text>
<text text-anchor="middle" x="208.5" y="-447" font-family="Helvetica,sans-Serif" font-size="10.00" fill="#000000">/quaternion/include/EulerAngles.hpp</text>
</a>
</g>
</g>
<!-- Node2&#45;&gt;Node4 -->
<g id="edge3" class="edge">
<title>Node2&#45;&gt;Node4</title>
<path fill="none" stroke="#191970" d="M208.5,-513.1593C208.5,-502.5064 208.5,-490.8344 208.5,-481.1924"/>
<polygon fill="#191970" stroke="#191970" points="205.0001,-513.3595 208.5,-523.3595 212.0001,-513.3596 205.0001,-513.3595"/>
</g>
<!-- Node6 -->
<g id="node6" class="node">
<title>Node6</title>
<g id="a_node6"><a xlink:href="LoggerStructs_8hpp.html" target="_top" xlink:title=" ">
<polygon fill="#ffffff" stroke="#000000" points="333,-434.5 333,-486.5 502,-486.5 502,-434.5 333,-434.5"/>
<text text-anchor="start" x="341" y="-474.5" font-family="Helvetica,sans-Serif" font-size="10.00" fill="#000000">/home/pieter/GitHub</text>
<text text-anchor="start" x="341" y="-463.5" font-family="Helvetica,sans-Serif" font-size="10.00" fill="#000000">/EAGLE&#45;ZYBO&#45;Linux/build</text>
<text text-anchor="start" x="341" y="-452.5" font-family="Helvetica,sans-Serif" font-size="10.00" fill="#000000">/src/logentry/include&#45;generated</text>
<text text-anchor="middle" x="417.5" y="-441.5" font-family="Helvetica,sans-Serif" font-size="10.00" fill="#000000">/LoggerStructs.hpp</text>
</a>
</g>
</g>
<!-- Node2&#45;&gt;Node6 -->
<g id="edge7" class="edge">
<title>Node2&#45;&gt;Node6</title>
<path fill="none" stroke="#191970" d="M269.2877,-519.714C295.369,-509.294 325.8818,-497.1034 352.4202,-486.5008"/>
<polygon fill="#191970" stroke="#191970" points="267.8826,-516.5063 259.8948,-523.4667 270.4797,-523.0067 267.8826,-516.5063"/>
</g>
<!-- Node4&#45;&gt;Node3 -->
<g id="edge4" class="edge">
<title>Node4&#45;&gt;Node3</title>
<path fill="none" stroke="#191970" d="M158.778,-434.1831C145.0054,-424.5682 131.4068,-412.44 122.5,-398 104.4703,-368.7698 101.9651,-327.797 102.3447,-303.3242"/>
<polygon fill="#191970" stroke="#191970" points="157.064,-437.2457 167.3355,-439.8432 160.9256,-431.4073 157.064,-437.2457"/>
</g>
<!-- Node5 -->
<g id="node5" class="node">
<title>Node5</title>
<g id="a_node5"><a xlink:href="AnglePrinter_8hpp.html" target="_top" xlink:title=" ">
<polygon fill="#ffffff" stroke="#000000" points="131.5,-351 131.5,-392 325.5,-392 325.5,-351 131.5,-351"/>
<text text-anchor="start" x="139.5" y="-380" font-family="Helvetica,sans-Serif" font-size="10.00" fill="#000000">/home/pieter/GitHub</text>
<text text-anchor="start" x="139.5" y="-369" font-family="Helvetica,sans-Serif" font-size="10.00" fill="#000000">/EAGLE&#45;ZYBO&#45;Linux/src</text>
<text text-anchor="middle" x="228.5" y="-358" font-family="Helvetica,sans-Serif" font-size="10.00" fill="#000000">/quaternion/include/AnglePrinter.hpp</text>
</a>
</g>
</g>
<!-- Node4&#45;&gt;Node5 -->
<g id="edge5" class="edge">
<title>Node4&#45;&gt;Node5</title>
<path fill="none" stroke="#191970" d="M215.389,-429.844C218.1961,-417.3522 221.3665,-403.2439 223.8865,-392.0301"/>
<polygon fill="#191970" stroke="#191970" points="211.9164,-429.3338 213.1387,-439.8579 218.7461,-430.8686 211.9164,-429.3338"/>
</g>
<!-- Node5&#45;&gt;Node3 -->
<g id="edge6" class="edge">
<title>Node5&#45;&gt;Node3</title>
<path fill="none" stroke="#191970" d="M191.1427,-344.9016C172.3076,-331.491 149.8166,-315.4774 132.3345,-303.0301"/>
<polygon fill="#191970" stroke="#191970" points="189.3321,-347.909 199.5083,-350.8579 193.3922,-342.2067 189.3321,-347.909"/>
</g>
<!-- Node7 -->
<g id="node7" class="node">
<title>Node7</title>
<g id="a_node7"><a xlink:href="LogEntry_8hpp.html" target="_top" xlink:title=" ">
<polygon fill="#ffffff" stroke="#000000" points="343,-345.5 343,-397.5 512,-397.5 512,-345.5 343,-345.5"/>
<text text-anchor="start" x="351" y="-385.5" font-family="Helvetica,sans-Serif" font-size="10.00" fill="#000000">/home/pieter/GitHub</text>
<text text-anchor="start" x="351" y="-374.5" font-family="Helvetica,sans-Serif" font-size="10.00" fill="#000000">/EAGLE&#45;ZYBO&#45;Linux/build</text>
<text text-anchor="start" x="351" y="-363.5" font-family="Helvetica,sans-Serif" font-size="10.00" fill="#000000">/src/logentry/include&#45;generated</text>
<text text-anchor="middle" x="427.5" y="-352.5" font-family="Helvetica,sans-Serif" font-size="10.00" fill="#000000">/LogEntry.hpp</text>
</a>
</g>
</g>
<!-- Node6&#45;&gt;Node7 -->
<g id="edge8" class="edge">
<title>Node6&#45;&gt;Node7</title>
<path fill="none" stroke="#191970" d="M421.5881,-424.1155C422.5892,-415.2061 423.6407,-405.8475 424.5748,-397.5341"/>
<polygon fill="#191970" stroke="#191970" points="418.0848,-423.9501 420.4462,-434.2784 425.041,-424.7318 418.0848,-423.9501"/>
</g>
<!-- Node8 -->
<g id="node8" class="node">
<title>Node8</title>
<g id="a_node8"><a xlink:href="BaremetalCommunicationDef_8hpp.html" target="_top" xlink:title=" ">
<polygon fill="#ffffff" stroke="#000000" points="300,-256.5 300,-308.5 485,-308.5 485,-256.5 300,-256.5"/>
<text text-anchor="start" x="308" y="-296.5" font-family="Helvetica,sans-Serif" font-size="10.00" fill="#000000">/home/pieter/GitHub</text>
<text text-anchor="start" x="308" y="-285.5" font-family="Helvetica,sans-Serif" font-size="10.00" fill="#000000">/EAGLE&#45;ZYBO&#45;Linux/src</text>
<text text-anchor="start" x="308" y="-274.5" font-family="Helvetica,sans-Serif" font-size="10.00" fill="#000000">/baremetal&#45;comm/include</text>
<text text-anchor="middle" x="392.5" y="-263.5" font-family="Helvetica,sans-Serif" font-size="10.00" fill="#000000">/BaremetalCommunicationDef.hpp</text>
</a>
</g>
</g>
<!-- Node7&#45;&gt;Node8 -->
<g id="edge9" class="edge">
<title>Node7&#45;&gt;Node8</title>
<path fill="none" stroke="#191970" d="M413.4197,-335.6959C409.848,-326.6135 406.0785,-317.0282 402.7381,-308.5341"/>
<polygon fill="#191970" stroke="#191970" points="410.2711,-337.2531 417.1881,-345.2784 416.7855,-334.6912 410.2711,-337.2531"/>
</g>
<!-- Node9 -->
<g id="node9" class="node">
<title>Node9</title>
<g id="a_node9"><a xlink:href="Logger_8hpp.html" target="_top" xlink:title=" ">
<polygon fill="#ffffff" stroke="#000000" points="192,-173 192,-214 337,-214 337,-173 192,-173"/>
<text text-anchor="start" x="200" y="-202" font-family="Helvetica,sans-Serif" font-size="10.00" fill="#000000">/home/pieter/GitHub</text>
<text text-anchor="start" x="200" y="-191" font-family="Helvetica,sans-Serif" font-size="10.00" fill="#000000">/EAGLE&#45;ZYBO&#45;Linux/src</text>
<text text-anchor="middle" x="264.5" y="-180" font-family="Helvetica,sans-Serif" font-size="10.00" fill="#000000">/logger/include/Logger.hpp</text>
</a>
</g>
</g>
<!-- Node7&#45;&gt;Node9 -->
<g id="edge18" class="edge">
<title>Node7&#45;&gt;Node9</title>
<path fill="none" stroke="#191970" d="M333.6243,-342.8152C317.3352,-334.191 301.9725,-323.1261 290.5,-309 268.3422,-281.7172 264.1851,-239.3485 263.8673,-214.2208"/>
<polygon fill="#191970" stroke="#191970" points="332.2385,-346.035 342.7503,-347.3592 335.3586,-339.7688 332.2385,-346.035"/>
</g>
<!-- Node15 -->
<g id="node15" class="node">
<title>Node15</title>
<g id="a_node15"><a xlink:href="GetLogData_8hpp.html" target="_top" xlink:title=" ">
<polygon fill="#ffffff" stroke="#000000" points="503.5,-262 503.5,-303 683.5,-303 683.5,-262 503.5,-262"/>
<text text-anchor="start" x="511.5" y="-291" font-family="Helvetica,sans-Serif" font-size="10.00" fill="#000000">/home/pieter/GitHub</text>
<text text-anchor="start" x="511.5" y="-280" font-family="Helvetica,sans-Serif" font-size="10.00" fill="#000000">/EAGLE&#45;ZYBO&#45;Linux/src</text>
<text text-anchor="middle" x="593.5" y="-269" font-family="Helvetica,sans-Serif" font-size="10.00" fill="#000000">/logentry/include/GetLogData.hpp</text>
</a>
</g>
</g>
<!-- Node7&#45;&gt;Node15 -->
<g id="edge16" class="edge">
<title>Node7&#45;&gt;Node15</title>
<path fill="none" stroke="#191970" d="M485.4395,-340.436C508.547,-328.0471 534.5142,-314.1249 555.2013,-303.0336"/>
<polygon fill="#191970" stroke="#191970" points="483.567,-337.4686 476.4076,-345.2784 486.8747,-343.6379 483.567,-337.4686"/>
</g>
<!-- Node17 -->
<g id="node17" class="node">
<title>Node17</title>
<g id="a_node17"><a xlink:href="DroneLogEntry_8Python_8cpp.html" target="_top" xlink:title=" ">
<polygon fill="#ffffff" stroke="#000000" points="701.5,-256.5 701.5,-308.5 849.5,-308.5 849.5,-256.5 701.5,-256.5"/>
<text text-anchor="start" x="709.5" y="-296.5" font-family="Helvetica,sans-Serif" font-size="10.00" fill="#000000">/home/pieter/GitHub</text>
<text text-anchor="start" x="709.5" y="-285.5" font-family="Helvetica,sans-Serif" font-size="10.00" fill="#000000">/EAGLE&#45;ZYBO&#45;Linux/build</text>
<text text-anchor="start" x="709.5" y="-274.5" font-family="Helvetica,sans-Serif" font-size="10.00" fill="#000000">/src/logentry/src&#45;generated</text>
<text text-anchor="middle" x="775.5" y="-263.5" font-family="Helvetica,sans-Serif" font-size="10.00" fill="#000000">/DroneLogEntry.Python.cpp</text>
</a>
</g>
</g>
<!-- Node7&#45;&gt;Node17 -->
<g id="edge19" class="edge">
<title>Node7&#45;&gt;Node17</title>
<path fill="none" stroke="#191970" d="M522.0428,-351.0708C572.8167,-339.6301 636.3423,-324.5622 692.5,-309 695.4154,-308.1921 698.3819,-307.3487 701.3736,-306.4802"/>
<polygon fill="#191970" stroke="#191970" points="521.0551,-347.7052 512.064,-353.3096 522.5876,-354.5354 521.0551,-347.7052"/>
</g>
<!-- Node8&#45;&gt;Node9 -->
<g id="edge10" class="edge">
<title>Node8&#45;&gt;Node9</title>
<path fill="none" stroke="#191970" d="M346.4327,-250.4688C329.047,-238.3803 309.7407,-224.9564 294.2379,-214.1771"/>
<polygon fill="#191970" stroke="#191970" points="344.5796,-253.4433 354.7881,-256.2784 348.5758,-247.696 344.5796,-253.4433"/>
</g>
<!-- Node13 -->
<g id="node13" class="node">
<title>Node13</title>
<g id="a_node13"><a xlink:href="QRCryptoManager_8hpp.html" target="_top" xlink:title=" ">
<polygon fill="#ffffff" stroke="#000000" points="355,-167.5 355,-219.5 504,-219.5 504,-167.5 355,-167.5"/>
<text text-anchor="start" x="363" y="-207.5" font-family="Helvetica,sans-Serif" font-size="10.00" fill="#000000">/home/pieter/GitHub</text>
<text text-anchor="start" x="363" y="-196.5" font-family="Helvetica,sans-Serif" font-size="10.00" fill="#000000">/EAGLE&#45;ZYBO&#45;Linux/src</text>
<text text-anchor="start" x="363" y="-185.5" font-family="Helvetica,sans-Serif" font-size="10.00" fill="#000000">/qr&#45;crypto&#45;manager/include</text>
<text text-anchor="middle" x="429.5" y="-174.5" font-family="Helvetica,sans-Serif" font-size="10.00" fill="#000000">/QRCryptoManager.hpp</text>
</a>
</g>
</g>
<!-- Node8&#45;&gt;Node13 -->
<g id="edge14" class="edge">
<title>Node8&#45;&gt;Node13</title>
<path fill="none" stroke="#191970" d="M407.2644,-246.9856C411.0758,-237.8176 415.108,-228.1186 418.6768,-219.5341"/>
<polygon fill="#191970" stroke="#191970" points="404.0081,-245.701 403.4011,-256.2784 410.4718,-248.3882 404.0081,-245.701"/>
</g>
<!-- Node10 -->
<g id="node10" class="node">
<title>Node10</title>
<g id="a_node10"><a xlink:href="ThreadedLogger_8hpp.html" target="_top" xlink:title=" ">
<polygon fill="#ffffff" stroke="#000000" points="0,-84 0,-125 191,-125 191,-84 0,-84"/>
<text text-anchor="start" x="8" y="-113" font-family="Helvetica,sans-Serif" font-size="10.00" fill="#000000">/home/pieter/GitHub</text>
<text text-anchor="start" x="8" y="-102" font-family="Helvetica,sans-Serif" font-size="10.00" fill="#000000">/EAGLE&#45;ZYBO&#45;Linux/src</text>
<text text-anchor="middle" x="95.5" y="-91" font-family="Helvetica,sans-Serif" font-size="10.00" fill="#000000">/logger/include/ThreadedLogger.hpp</text>
</a>
</g>
</g>
<!-- Node9&#45;&gt;Node10 -->
<g id="edge11" class="edge">
<title>Node9&#45;&gt;Node10</title>
<path fill="none" stroke="#191970" d="M216.3867,-168.1622C190.4522,-154.5044 158.8653,-137.8699 134.4842,-125.0301"/>
<polygon fill="#191970" stroke="#191970" points="214.8243,-171.2951 225.3032,-172.8579 218.0861,-165.1014 214.8243,-171.2951"/>
</g>
<!-- Node12 -->
<g id="node12" class="node">
<title>Node12</title>
<g id="a_node12"><a xlink:href="Logger_8cpp.html" target="_top" xlink:title=" ">
<polygon fill="#ffffff" stroke="#000000" points="209,-84 209,-125 338,-125 338,-84 209,-84"/>
<text text-anchor="start" x="217" y="-113" font-family="Helvetica,sans-Serif" font-size="10.00" fill="#000000">/home/pieter/GitHub</text>
<text text-anchor="start" x="217" y="-102" font-family="Helvetica,sans-Serif" font-size="10.00" fill="#000000">/EAGLE&#45;ZYBO&#45;Linux/src</text>
<text text-anchor="middle" x="273.5" y="-91" font-family="Helvetica,sans-Serif" font-size="10.00" fill="#000000">/logger/src/Logger.cpp</text>
</a>
</g>
</g>
<!-- Node9&#45;&gt;Node12 -->
<g id="edge13" class="edge">
<title>Node9&#45;&gt;Node12</title>
<path fill="none" stroke="#191970" d="M267.6,-162.844C268.8633,-150.3522 270.2899,-136.2439 271.4239,-125.0301"/>
<polygon fill="#191970" stroke="#191970" points="264.1114,-162.5565 266.5874,-172.8579 271.0758,-163.2608 264.1114,-162.5565"/>
</g>
<!-- Node11 -->
<g id="node11" class="node">
<title>Node11</title>
<g id="a_node11"><a xlink:href="ThreadedLogger_8cpp.html" target="_top" xlink:title=" ">
<polygon fill="#ffffff" stroke="#000000" points="11,-.5 11,-41.5 180,-41.5 180,-.5 11,-.5"/>
<text text-anchor="start" x="19" y="-29.5" font-family="Helvetica,sans-Serif" font-size="10.00" fill="#000000">/home/pieter/GitHub</text>
<text text-anchor="start" x="19" y="-18.5" font-family="Helvetica,sans-Serif" font-size="10.00" fill="#000000">/EAGLE&#45;ZYBO&#45;Linux/src</text>
<text text-anchor="middle" x="95.5" y="-7.5" font-family="Helvetica,sans-Serif" font-size="10.00" fill="#000000">/logger/src/ThreadedLogger.cpp</text>
</a>
</g>
</g>
<!-- Node10&#45;&gt;Node11 -->
<g id="edge12" class="edge">
<title>Node10&#45;&gt;Node11</title>
<path fill="none" stroke="#191970" d="M95.5,-73.6593C95.5,-63.0064 95.5,-51.3344 95.5,-41.6924"/>
<polygon fill="#191970" stroke="#191970" points="92.0001,-73.8595 95.5,-83.8595 99.0001,-73.8596 92.0001,-73.8595"/>
</g>
<!-- Node14 -->
<g id="node14" class="node">
<title>Node14</title>
<g id="a_node14"><a xlink:href="QRCryptoManager_8cpp.html" target="_top" xlink:title=" ">
<polygon fill="#ffffff" stroke="#000000" points="365,-78.5 365,-130.5 494,-130.5 494,-78.5 365,-78.5"/>
<text text-anchor="start" x="373" y="-118.5" font-family="Helvetica,sans-Serif" font-size="10.00" fill="#000000">/home/pieter/GitHub</text>
<text text-anchor="start" x="373" y="-107.5" font-family="Helvetica,sans-Serif" font-size="10.00" fill="#000000">/EAGLE&#45;ZYBO&#45;Linux/src</text>
<text text-anchor="start" x="373" y="-96.5" font-family="Helvetica,sans-Serif" font-size="10.00" fill="#000000">/qr&#45;crypto&#45;manager/src</text>
<text text-anchor="middle" x="429.5" y="-85.5" font-family="Helvetica,sans-Serif" font-size="10.00" fill="#000000">/QRCryptoManager.cpp</text>
</a>
</g>
</g>
<!-- Node13&#45;&gt;Node14 -->
<g id="edge15" class="edge">
<title>Node13&#45;&gt;Node14</title>
<path fill="none" stroke="#191970" d="M429.5,-157.1155C429.5,-148.2061 429.5,-138.8475 429.5,-130.5341"/>
<polygon fill="#191970" stroke="#191970" points="426.0001,-157.2784 429.5,-167.2784 433.0001,-157.2785 426.0001,-157.2784"/>
</g>
<!-- Node16 -->
<g id="node16" class="node">
<title>Node16</title>
<g id="a_node16"><a xlink:href="GetLogData_8cpp.html" target="_top" xlink:title=" ">
<polygon fill="#ffffff" stroke="#000000" points="522.5,-167.5 522.5,-219.5 670.5,-219.5 670.5,-167.5 522.5,-167.5"/>
<text text-anchor="start" x="530.5" y="-207.5" font-family="Helvetica,sans-Serif" font-size="10.00" fill="#000000">/home/pieter/GitHub</text>
<text text-anchor="start" x="530.5" y="-196.5" font-family="Helvetica,sans-Serif" font-size="10.00" fill="#000000">/EAGLE&#45;ZYBO&#45;Linux/build</text>
<text text-anchor="start" x="530.5" y="-185.5" font-family="Helvetica,sans-Serif" font-size="10.00" fill="#000000">/src/logentry/src&#45;generated</text>
<text text-anchor="middle" x="596.5" y="-174.5" font-family="Helvetica,sans-Serif" font-size="10.00" fill="#000000">/GetLogData.cpp</text>
</a>
</g>
</g>
<!-- Node15&#45;&gt;Node16 -->
<g id="edge17" class="edge">
<title>Node15&#45;&gt;Node16</title>
<path fill="none" stroke="#191970" d="M594.5429,-251.56C594.8922,-241.1985 595.278,-229.7526 595.6141,-219.7816"/>
<polygon fill="#191970" stroke="#191970" points="591.0348,-251.7456 594.1958,-261.8579 598.0308,-251.9815 591.0348,-251.7456"/>
</g>
</g>
</svg>
