<?xml version="1.0" encoding="UTF-8" standalone="no"?>
<!DOCTYPE svg PUBLIC "-//W3C//DTD SVG 1.1//EN"
 "http://www.w3.org/Graphics/SVG/1.1/DTD/svg11.dtd">
<!-- Generated by graphviz version 2.40.1 (20161225.0304)
 -->
<!-- Title: sq Pages: 1 -->
<svg width="576pt" height="116pt"
 viewBox="0.00 0.00 576.00 115.86" xmlns="http://www.w3.org/2000/svg" xmlns:xlink="http://www.w3.org/1999/xlink">
<g id="graph0" class="graph" transform="scale(1 1) rotate(0) translate(4 111.8601)">
<title>sq</title>
<polygon fill="#ffffff" stroke="transparent" points="-4,4 -4,-111.8601 572,-111.8601 572,4 -4,4"/>
<!-- Node1 -->
<g id="node1" class="node">
<title>Node1</title>
<g id="a_node1"><a xlink:title=" ">
<polygon fill="#bfbfbf" stroke="#000000" points="539,-57.5 539,-76.5 568,-76.5 568,-57.5 539,-57.5"/>
<text text-anchor="middle" x="553.5" y="-64.5" font-family="Helvetica,sans-Serif" font-size="10.00" fill="#000000">sq</text>
</a>
</g>
</g>
<!-- Node2 -->
<g id="node2" class="node">
<title>Node2</title>
<g id="a_node2"><a xlink:href="classGridFinder.html#a701c0c1e70d01bb8773a89a29f6673a0" target="_top" xlink:title="This is the main function: it looks for a complete square of the grid, as close to the center of the ...">
<polygon fill="#ffffff" stroke="#000000" points="366,-76.5 366,-95.5 490,-95.5 490,-76.5 366,-76.5"/>
<text text-anchor="middle" x="428" y="-83.5" font-family="Helvetica,sans-Serif" font-size="10.00" fill="#000000">GridFinder::findSquare</text>
</a>
</g>
</g>
<!-- Node1&#45;&gt;Node2 -->
<g id="edge1" class="edge">
<title>Node1&#45;&gt;Node2</title>
<path fill="none" stroke="#191970" d="M528.4342,-70.7948C517.3303,-72.4759 503.7258,-74.5355 490.1583,-76.5896"/>
<polygon fill="#191970" stroke="#191970" points="529.2473,-74.2117 538.6107,-69.2542 528.1994,-67.2906 529.2473,-74.2117"/>
</g>
<!-- Node4 -->
<g id="node4" class="node">
<title>Node4</title>
<g id="a_node4"><a xlink:href="Grid-Finder_8module_8hpp.html#a05e720af51446c0f9319fb9455fe1767" target="_top" xlink:title=" ">
<polygon fill="#ffffff" stroke="#000000" points="0,-76.5 0,-95.5 113,-95.5 113,-76.5 0,-76.5"/>
<text text-anchor="middle" x="56.5" y="-83.5" font-family="Helvetica,sans-Serif" font-size="10.00" fill="#000000">PYBIND11_MODULE</text>
</a>
</g>
</g>
<!-- Node1&#45;&gt;Node4 -->
<g id="edge8" class="edge">
<title>Node1&#45;&gt;Node4</title>
<path fill="none" stroke="#191970" d="M537.0238,-83.748C527.859,-91.8553 515.7479,-100.7395 503,-105 479.8632,-112.7326 174.3403,-102.2193 149,-100 136.865,-98.9372 123.901,-97.2955 111.6353,-95.5053"/>
<polygon fill="#191970" stroke="#191970" points="539.6577,-86.0756 544.5458,-76.6758 534.8628,-80.9757 539.6577,-86.0756"/>
</g>
<!-- Node5 -->
<g id="node5" class="node">
<title>Node5</title>
<g id="a_node5"><a xlink:href="HelperStructs_8hpp.html#a8d72795c613cf90fdae6c7de87343593" target="_top" xlink:title=" ">
<polygon fill="#ffffff" stroke="#000000" points="391,-38.5 391,-57.5 465,-57.5 465,-38.5 391,-38.5"/>
<text text-anchor="middle" x="428" y="-45.5" font-family="Helvetica,sans-Serif" font-size="10.00" fill="#000000">operator&lt;&lt;</text>
</a>
</g>
</g>
<!-- Node1&#45;&gt;Node5 -->
<g id="edge5" class="edge">
<title>Node1&#45;&gt;Node5</title>
<path fill="none" stroke="#191970" d="M528.5458,-63.2221C510.4232,-60.4784 485.5971,-56.7199 465.1487,-53.6241"/>
<polygon fill="#191970" stroke="#191970" points="528.1994,-66.7094 538.6107,-64.7458 529.2473,-59.7883 528.1994,-66.7094"/>
</g>
<!-- Node6 -->
<g id="node6" class="node">
<title>Node6</title>
<g id="a_node6"><a xlink:href="classLocationFinder.html#a93be2c4b05b52c58f5fca5d1514dfbe9" target="_top" xlink:title="Get the position of the center of the frame relative to the given square.">
<polygon fill="#ffffff" stroke="#000000" points="353,-.5 353,-19.5 503,-19.5 503,-.5 353,-.5"/>
<text text-anchor="middle" x="428" y="-7.5" font-family="Helvetica,sans-Serif" font-size="10.00" fill="#000000">LocationFinder::getLocation</text>
</a>
</g>
</g>
<!-- Node1&#45;&gt;Node6 -->
<g id="edge6" class="edge">
<title>Node1&#45;&gt;Node6</title>
<path fill="none" stroke="#191970" d="M535.4551,-50.6348C526.3006,-43.0889 514.6681,-34.5875 503,-29 495.0043,-25.1711 486.1463,-22.0536 477.4021,-19.5352"/>
<polygon fill="#191970" stroke="#191970" points="533.2257,-53.3336 543.0957,-57.1851 537.7818,-48.0193 533.2257,-53.3336"/>
</g>
<!-- Node3 -->
<g id="node3" class="node">
<title>Node3</title>
<g id="a_node3"><a xlink:href="classLocationFinder.html#af56756d038d762e04e0c91bac9fc2522" target="_top" xlink:title="Read a new frame, mask it, run GridFinder, and get the position of the drone. The position is the pos...">
<polygon fill="#ffffff" stroke="#000000" points="149,-38.5 149,-57.5 317,-57.5 317,-38.5 149,-38.5"/>
<text text-anchor="middle" x="233" y="-45.5" font-family="Helvetica,sans-Serif" font-size="10.00" fill="#000000">LocationFinder::updateLocation</text>
</a>
</g>
</g>
<!-- Node2&#45;&gt;Node3 -->
<g id="edge2" class="edge">
<title>Node2&#45;&gt;Node3</title>
<path fill="none" stroke="#191970" d="M369.0412,-74.5106C341.218,-69.0886 308.4043,-62.6942 281.9752,-57.5439"/>
<polygon fill="#191970" stroke="#191970" points="368.5601,-77.9826 379.045,-76.46 369.8991,-71.1118 368.5601,-77.9826"/>
</g>
<!-- Node2&#45;&gt;Node4 -->
<g id="edge4" class="edge">
<title>Node2&#45;&gt;Node4</title>
<path fill="none" stroke="#191970" d="M355.6221,-86C284.6888,-86 178.0357,-86 113.0925,-86"/>
<polygon fill="#191970" stroke="#191970" points="355.8193,-89.5001 365.8193,-86 355.8192,-82.5001 355.8193,-89.5001"/>
</g>
<!-- Node3&#45;&gt;Node4 -->
<g id="edge3" class="edge">
<title>Node3&#45;&gt;Node4</title>
<path fill="none" stroke="#191970" d="M178.4124,-59.7526C153.4553,-65.1258 124.2732,-71.4086 100.7181,-76.4799"/>
<polygon fill="#191970" stroke="#191970" points="179.4223,-63.1154 188.4616,-57.589 177.9489,-56.2722 179.4223,-63.1154"/>
</g>
<!-- Node6&#45;&gt;Node3 -->
<g id="edge7" class="edge">
<title>Node6&#45;&gt;Node3</title>
<path fill="none" stroke="#191970" d="M369.0412,-21.4894C341.218,-26.9114 308.4043,-33.3058 281.9752,-38.4561"/>
<polygon fill="#191970" stroke="#191970" points="369.8991,-24.8882 379.045,-19.54 368.5601,-18.0174 369.8991,-24.8882"/>
</g>
</g>
</svg>
