<?xml version="1.0" encoding="UTF-8" standalone="no"?>
<!DOCTYPE svg PUBLIC "-//W3C//DTD SVG 1.1//EN"
 "http://www.w3.org/Graphics/SVG/1.1/DTD/svg11.dtd">
<!-- Generated by graphviz version 2.40.1 (20161225.0304)
 -->
<!-- Title: QRCommStruct::setCurrentPosition Pages: 1 -->
<svg width="356pt" height="78pt"
 viewBox="0.00 0.00 356.00 77.50" xmlns="http://www.w3.org/2000/svg" xmlns:xlink="http://www.w3.org/1999/xlink">
<g id="graph0" class="graph" transform="scale(1 1) rotate(0) translate(4 73.5)">
<title>QRCommStruct::setCurrentPosition</title>
<polygon fill="#ffffff" stroke="transparent" points="-4,4 -4,-73.5 352,-73.5 352,4 -4,4"/>
<!-- Node17 -->
<g id="node1" class="node">
<title>Node17</title>
<g id="a_node1"><a xlink:title="Set the position of the current QR code.">
<polygon fill="#bfbfbf" stroke="#000000" points="0,-22.5 0,-52.5 148,-52.5 148,-22.5 0,-22.5"/>
<text text-anchor="start" x="8" y="-40.5" font-family="Helvetica,sans-Serif" font-size="10.00" fill="#000000">QRCommStruct::setCurrent</text>
<text text-anchor="middle" x="74" y="-29.5" font-family="Helvetica,sans-Serif" font-size="10.00" fill="#000000">Position</text>
</a>
</g>
</g>
<!-- Node18 -->
<g id="node2" class="node">
<title>Node18</title>
<g id="a_node2"><a xlink:href="structQRCommStruct.html#ada773a7d6d56a5539e2b99705d0b9dcc" target="_top" xlink:title="Get the current state of the QR/Crypto FSM.">
<polygon fill="#ffffff" stroke="#000000" points="190,-50 190,-69 342,-69 342,-50 190,-50"/>
<text text-anchor="middle" x="266" y="-57" font-family="Helvetica,sans-Serif" font-size="10.00" fill="#000000">QRCommStruct::getQRState</text>
</a>
</g>
</g>
<!-- Node17&#45;&gt;Node18 -->
<g id="edge1" class="edge">
<title>Node17&#45;&gt;Node18</title>
<path fill="none" stroke="#191970" d="M148.2322,-46.0058C158.5481,-47.1878 169.218,-48.4104 179.7306,-49.615"/>
<polygon fill="#191970" stroke="#191970" points="179.4114,-53.1012 189.7448,-50.7624 180.2083,-46.1467 179.4114,-53.1012"/>
</g>
<!-- Node19 -->
<g id="node3" class="node">
<title>Node19</title>
<g id="a_node3"><a xlink:href="structSharedStruct.html#ab84d9ff23f09b19bb8cf7f72ec9901fe" target="_top" xlink:title=" ">
<polygon fill="#ffffff" stroke="#000000" points="184,-.5 184,-30.5 348,-30.5 348,-.5 184,-.5"/>
<text text-anchor="start" x="192" y="-18.5" font-family="Helvetica,sans-Serif" font-size="10.00" fill="#000000">SharedStruct&lt; QRCommStruct</text>
<text text-anchor="middle" x="266" y="-7.5" font-family="Helvetica,sans-Serif" font-size="10.00" fill="#000000"> &gt;::checkInitialized</text>
</a>
</g>
</g>
<!-- Node17&#45;&gt;Node19 -->
<g id="edge2" class="edge">
<title>Node17&#45;&gt;Node19</title>
<path fill="none" stroke="#191970" d="M148.2322,-28.9942C156.6511,-28.0296 165.3058,-27.0379 173.9184,-26.051"/>
<polygon fill="#191970" stroke="#191970" points="174.4562,-29.5124 183.9928,-24.8967 173.6593,-22.5579 174.4562,-29.5124"/>
</g>
</g>
</svg>
