<?xml version="1.0" encoding="UTF-8" standalone="no"?>
<!DOCTYPE svg PUBLIC "-//W3C//DTD SVG 1.1//EN"
 "http://www.w3.org/Graphics/SVG/1.1/DTD/svg11.dtd">
<!-- Generated by graphviz version 2.40.1 (20161225.0304)
 -->
<!-- Title: Point::distanceSquared Pages: 1 -->
<svg width="237pt" height="66pt"
 viewBox="0.00 0.00 237.00 66.00" xmlns="http://www.w3.org/2000/svg" xmlns:xlink="http://www.w3.org/1999/xlink">
<g id="graph0" class="graph" transform="scale(1 1) rotate(0) translate(4 62)">
<title>Point::distanceSquared</title>
<polygon fill="#ffffff" stroke="transparent" points="-4,4 -4,-62 233,-62 233,4 -4,4"/>
<!-- Node23 -->
<g id="node1" class="node">
<title>Node23</title>
<g id="a_node1"><a xlink:title=" ">
<polygon fill="#bfbfbf" stroke="#000000" points="0,-19.5 0,-38.5 128,-38.5 128,-19.5 0,-19.5"/>
<text text-anchor="middle" x="64" y="-26.5" font-family="Helvetica,sans-Serif" font-size="10.00" fill="#000000">Point::distanceSquared</text>
</a>
</g>
</g>
<!-- Node24 -->
<g id="node2" class="node">
<title>Node24</title>
<g id="a_node2"><a xlink:href="structPoint.html#a482c5bbc38af3c934eac31cb645aeba1" target="_top" xlink:title=" ">
<polygon fill="#ffffff" stroke="#000000" points="164,-38.5 164,-57.5 229,-57.5 229,-38.5 164,-38.5"/>
<text text-anchor="middle" x="196.5" y="-45.5" font-family="Helvetica,sans-Serif" font-size="10.00" fill="#000000">Point::vec</text>
</a>
</g>
</g>
<!-- Node23&#45;&gt;Node24 -->
<g id="edge1" class="edge">
<title>Node23&#45;&gt;Node24</title>
<path fill="none" stroke="#191970" d="M128.3093,-38.2217C136.9325,-39.4582 145.5995,-40.7011 153.7254,-41.8663"/>
<polygon fill="#191970" stroke="#191970" points="153.2891,-45.3394 163.6847,-43.2944 154.2828,-38.4103 153.2891,-45.3394"/>
</g>
<!-- Node25 -->
<g id="node3" class="node">
<title>Node25</title>
<g id="a_node3"><a xlink:href="Matrix_8hpp.html#a49ccaf0f0f1746a2824dc79538165c9c" target="_top" xlink:title=" ">
<polygon fill="#ffffff" stroke="#000000" points="170,-.5 170,-19.5 223,-19.5 223,-.5 170,-.5"/>
<text text-anchor="middle" x="196.5" y="-7.5" font-family="Helvetica,sans-Serif" font-size="10.00" fill="#000000">normsq</text>
</a>
</g>
</g>
<!-- Node23&#45;&gt;Node25 -->
<g id="edge2" class="edge">
<title>Node23&#45;&gt;Node25</title>
<path fill="none" stroke="#191970" d="M128.3093,-19.7783C139.0589,-18.2368 149.8767,-16.6856 159.6293,-15.2871"/>
<polygon fill="#191970" stroke="#191970" points="160.3383,-18.7213 169.7402,-13.8373 159.3446,-11.7922 160.3383,-18.7213"/>
</g>
</g>
</svg>
