<?xml version="1.0" encoding="UTF-8" standalone="no"?>
<!DOCTYPE svg PUBLIC "-//W3C//DTD SVG 1.1//EN"
 "http://www.w3.org/Graphics/SVG/1.1/DTD/svg11.dtd">
<!-- Generated by graphviz version 2.40.1 (20161225.0304)
 -->
<!-- Title: Pixel::inRange Pages: 1 -->
<svg width="1492pt" height="326pt"
 viewBox="0.00 0.00 1492.00 326.14" xmlns="http://www.w3.org/2000/svg" xmlns:xlink="http://www.w3.org/1999/xlink">
<g id="graph0" class="graph" transform="scale(1 1) rotate(0) translate(4 322.1448)">
<title>Pixel::inRange</title>
<polygon fill="#ffffff" stroke="transparent" points="-4,4 -4,-322.1448 1488,-322.1448 1488,4 -4,4"/>
<!-- Node12 -->
<g id="node1" class="node">
<title>Node12</title>
<g id="a_node1"><a xlink:title=" ">
<polygon fill="#bfbfbf" stroke="#000000" points="1398,-38.5 1398,-57.5 1484,-57.5 1484,-38.5 1398,-38.5"/>
<text text-anchor="middle" x="1441" y="-45.5" font-family="Helvetica,sans-Serif" font-size="10.00" fill="#000000">Pixel::inRange</text>
</a>
</g>
</g>
<!-- Node13 -->
<g id="node2" class="node">
<title>Node13</title>
<g id="a_node2"><a xlink:href="classBresenhamLine.html#aba0822ee20811d67cd9539ccbe1cd346" target="_top" xlink:title=" ">
<polygon fill="#ffffff" stroke="#000000" points="1223,-152.5 1223,-171.5 1362,-171.5 1362,-152.5 1223,-152.5"/>
<text text-anchor="middle" x="1292.5" y="-159.5" font-family="Helvetica,sans-Serif" font-size="10.00" fill="#000000">BresenhamLine::hasNext</text>
</a>
</g>
</g>
<!-- Node12&#45;&gt;Node13 -->
<g id="edge1" class="edge">
<title>Node12&#45;&gt;Node13</title>
<path fill="none" stroke="#191970" d="M1420.5806,-63.6755C1389.4199,-87.5969 1330.9114,-132.5125 1305.1851,-152.262"/>
<polygon fill="#191970" stroke="#191970" points="1422.7935,-66.3892 1428.5944,-57.5235 1418.5309,-60.8366 1422.7935,-66.3892"/>
</g>
<!-- Node30 -->
<g id="node19" class="node">
<title>Node30</title>
<g id="a_node19"><a xlink:href="classMask.html#a24f3c4e9b7197d2d72b590fb30c4ea10" target="_top" xlink:title="Get the value of the mask at a given location.">
<polygon fill="#ffffff" stroke="#000000" points="1260.5,-.5 1260.5,-19.5 1324.5,-19.5 1324.5,-.5 1260.5,-.5"/>
<text text-anchor="middle" x="1292.5" y="-7.5" font-family="Helvetica,sans-Serif" font-size="10.00" fill="#000000">Mask::get</text>
</a>
</g>
</g>
<!-- Node12&#45;&gt;Node30 -->
<g id="edge28" class="edge">
<title>Node12&#45;&gt;Node30</title>
<path fill="none" stroke="#191970" d="M1393.5384,-35.8549C1371.1465,-30.125 1345.001,-23.4346 1324.9169,-18.2952"/>
<polygon fill="#191970" stroke="#191970" points="1392.9716,-39.3226 1403.5272,-38.411 1394.707,-32.5411 1392.9716,-39.3226"/>
</g>
<!-- Node32 -->
<g id="node21" class="node">
<title>Node32</title>
<g id="a_node21"><a xlink:href="classMask.html#abd2577692522262d25fcaae6620582e3" target="_top" xlink:title="Set the value of the mask at the given location.">
<polygon fill="#ffffff" stroke="#000000" points="1261,-38.5 1261,-57.5 1324,-57.5 1324,-38.5 1261,-38.5"/>
<text text-anchor="middle" x="1292.5" y="-45.5" font-family="Helvetica,sans-Serif" font-size="10.00" fill="#000000">Mask::set</text>
</a>
</g>
</g>
<!-- Node12&#45;&gt;Node32 -->
<g id="edge30" class="edge">
<title>Node12&#45;&gt;Node32</title>
<path fill="none" stroke="#191970" d="M1387.4891,-48C1366.3258,-48 1342.7186,-48 1324.3328,-48"/>
<polygon fill="#191970" stroke="#191970" points="1387.6485,-51.5001 1397.6485,-48 1387.6484,-44.5001 1387.6485,-51.5001"/>
</g>
<!-- Node14 -->
<g id="node3" class="node">
<title>Node14</title>
<g id="a_node3"><a xlink:href="classBresenhamLine.html#a10d505e30945f42a5cd0270c315b104f" target="_top" xlink:title=" ">
<polygon fill="#ffffff" stroke="#000000" points="1067,-152.5 1067,-171.5 1187,-171.5 1187,-152.5 1067,-152.5"/>
<text text-anchor="middle" x="1127" y="-159.5" font-family="Helvetica,sans-Serif" font-size="10.00" fill="#000000">BresenhamLine::next</text>
</a>
</g>
</g>
<!-- Node13&#45;&gt;Node14 -->
<g id="edge2" class="edge">
<title>Node13&#45;&gt;Node14</title>
<path fill="none" stroke="#191970" d="M1212.7405,-162C1204.1415,-162 1195.4995,-162 1187.1864,-162"/>
<polygon fill="#191970" stroke="#191970" points="1212.7928,-165.5001 1222.7928,-162 1212.7927,-158.5001 1212.7928,-165.5001"/>
</g>
<!-- Node15 -->
<g id="node4" class="node">
<title>Node15</title>
<g id="a_node4"><a xlink:href="classGridFinder.html#ace2c24a54244e7e92618d3fe7ec62fdc" target="_top" xlink:title="Starting from the given pixel, move in the direction of the given angle, and count the number of whit...">
<polygon fill="#ffffff" stroke="#000000" points="904,-114.5 904,-133.5 1006,-133.5 1006,-114.5 904,-114.5"/>
<text text-anchor="middle" x="955" y="-121.5" font-family="Helvetica,sans-Serif" font-size="10.00" fill="#000000">GridFinder::hough</text>
</a>
</g>
</g>
<!-- Node13&#45;&gt;Node15 -->
<g id="edge23" class="edge">
<title>Node13&#45;&gt;Node15</title>
<path fill="none" stroke="#191970" d="M1235.1112,-150.6272C1219.547,-147.8268 1202.6676,-145.0475 1187,-143 1125.0889,-134.9091 1053.4048,-129.6638 1006.294,-126.7763"/>
<polygon fill="#191970" stroke="#191970" points="1234.6558,-154.102 1245.1231,-152.463 1235.9184,-147.2168 1234.6558,-154.102"/>
</g>
<!-- Node19 -->
<g id="node8" class="node">
<title>Node19</title>
<g id="a_node8"><a xlink:href="classGridFinder.html#ab5c436911deb269a22a8d5525271fa4e" target="_top" xlink:title="Get the width of the line at a given point.">
<polygon fill="#ffffff" stroke="#000000" points="879,-229 879,-259 1031,-259 1031,-229 879,-229"/>
<text text-anchor="start" x="887" y="-247" font-family="Helvetica,sans-Serif" font-size="10.00" fill="#000000">GridFinder::getWidthAtPoint</text>
<text text-anchor="middle" x="955" y="-236" font-family="Helvetica,sans-Serif" font-size="10.00" fill="#000000">OnLine</text>
</a>
</g>
</g>
<!-- Node13&#45;&gt;Node19 -->
<g id="edge24" class="edge">
<title>Node13&#45;&gt;Node19</title>
<path fill="none" stroke="#191970" d="M1260.9557,-175.2726C1240.229,-183.59 1212.3544,-194.0191 1187,-201 1135.7564,-215.1091 1076.8602,-225.9622 1031.2323,-233.2353"/>
<polygon fill="#191970" stroke="#191970" points="1262.2824,-178.5115 1270.2269,-171.5019 1259.6451,-172.0273 1262.2824,-178.5115"/>
</g>
<!-- Node23 -->
<g id="node12" class="node">
<title>Node23</title>
<g id="a_node12"><a xlink:href="classGridFinder.html#a54369e6368334eb2924ca70ee1f1d438" target="_top" xlink:title="Follow the given line to find the line perpendicular to it. Move along the line for minDistance pixel...">
<polygon fill="#ffffff" stroke="#000000" points="356,-250.5 356,-269.5 490,-269.5 490,-250.5 356,-250.5"/>
<text text-anchor="middle" x="423" y="-257.5" font-family="Helvetica,sans-Serif" font-size="10.00" fill="#000000">GridFinder::findNextLine</text>
</a>
</g>
</g>
<!-- Node13&#45;&gt;Node23 -->
<g id="edge27" class="edge">
<title>Node13&#45;&gt;Node23</title>
<path fill="none" stroke="#191970" d="M1273.1801,-178.1729C1223.6985,-217.8882 1086.9914,-317 955,-317 955,-317 955,-317 774,-317 663.4548,-317 634.0012,-321.5793 526,-298 496.5781,-291.5765 464.2391,-278.607 443.7911,-269.6186"/>
<polygon fill="#191970" stroke="#191970" points="1275.5878,-180.7258 1281.1297,-171.6959 1271.1663,-175.299 1275.5878,-180.7258"/>
</g>
<!-- Node28 -->
<g id="node17" class="node">
<title>Node28</title>
<g id="a_node17"><a xlink:href="classGridFinder.html#a3b5caee289831bd2207db3ec542be2b0" target="_top" xlink:title="Draw a line on the mask. Used only for testing.">
<polygon fill="#ffffff" stroke="#000000" points="897,-76.5 897,-95.5 1013,-95.5 1013,-76.5 897,-76.5"/>
<text text-anchor="middle" x="955" y="-83.5" font-family="Helvetica,sans-Serif" font-size="10.00" fill="#000000">GridFinder::drawLine</text>
</a>
</g>
</g>
<!-- Node13&#45;&gt;Node28 -->
<g id="edge25" class="edge">
<title>Node13&#45;&gt;Node28</title>
<path fill="none" stroke="#191970" d="M1258.5919,-148.9009C1238.1061,-141.3724 1211.3341,-132.208 1187,-126 1128.5847,-111.0973 1060.466,-100.0886 1013.2178,-93.4341"/>
<polygon fill="#191970" stroke="#191970" points="1257.5127,-152.2338 1268.1054,-152.4451 1259.9565,-145.6742 1257.5127,-152.2338"/>
</g>
<!-- Node29 -->
<g id="node18" class="node">
<title>Node29</title>
<g id="a_node18"><a xlink:href="classGridFinder.html#af8bdc28d95e295618c2f345f2d7eb758" target="_top" xlink:title="Move a pixel in a given direction for a given distance.">
<polygon fill="#ffffff" stroke="#000000" points="905,-190.5 905,-209.5 1005,-209.5 1005,-190.5 905,-190.5"/>
<text text-anchor="middle" x="955" y="-197.5" font-family="Helvetica,sans-Serif" font-size="10.00" fill="#000000">GridFinder::move</text>
</a>
</g>
</g>
<!-- Node13&#45;&gt;Node29 -->
<g id="edge26" class="edge">
<title>Node13&#45;&gt;Node29</title>
<path fill="none" stroke="#191970" d="M1235.1112,-173.3728C1219.547,-176.1732 1202.6676,-178.9525 1187,-181 1124.6882,-189.1433 1052.4765,-194.404 1005.3823,-197.2795"/>
<polygon fill="#191970" stroke="#191970" points="1235.9184,-176.7832 1245.1231,-171.537 1234.6558,-169.898 1235.9184,-176.7832"/>
</g>
<!-- Node14&#45;&gt;Node15 -->
<g id="edge3" class="edge">
<title>Node14&#45;&gt;Node15</title>
<path fill="none" stroke="#191970" d="M1073.8041,-150.2474C1049.4834,-144.8742 1021.0453,-138.5914 998.0908,-133.5201"/>
<polygon fill="#191970" stroke="#191970" points="1073.0775,-153.6712 1083.5971,-152.411 1074.5877,-146.836 1073.0775,-153.6712"/>
</g>
<!-- Node14&#45;&gt;Node19 -->
<g id="edge7" class="edge">
<title>Node14&#45;&gt;Node19</title>
<path fill="none" stroke="#191970" d="M1104.6877,-177.1508C1085.699,-189.5727 1057.3838,-207.0017 1031,-219 1023.0343,-222.6225 1014.3865,-225.9761 1005.8748,-228.9737"/>
<polygon fill="#191970" stroke="#191970" points="1106.8098,-179.9433 1113.2109,-171.5007 1102.9421,-174.1088 1106.8098,-179.9433"/>
</g>
<!-- Node14&#45;&gt;Node23 -->
<g id="edge22" class="edge">
<title>Node14&#45;&gt;Node23</title>
<path fill="none" stroke="#191970" d="M1056.8453,-157.4577C919.7052,-149.527 621.1701,-137.1947 526,-173 483.2793,-189.0726 445.8787,-231.1383 430.4806,-250.2727"/>
<polygon fill="#191970" stroke="#191970" points="1056.6442,-160.9519 1066.8321,-158.0441 1057.0545,-153.9639 1056.6442,-160.9519"/>
</g>
<!-- Node14&#45;&gt;Node28 -->
<g id="edge17" class="edge">
<title>Node14&#45;&gt;Node28</title>
<path fill="none" stroke="#191970" d="M1105.2295,-146.5656C1086.3724,-133.8242 1057.9571,-116.0933 1031,-105 1021.9444,-101.2735 1011.9709,-98.1402 1002.312,-95.5612"/>
<polygon fill="#191970" stroke="#191970" points="1103.4471,-149.5876 1113.6704,-152.3687 1107.4128,-143.8193 1103.4471,-149.5876"/>
</g>
<!-- Node14&#45;&gt;Node29 -->
<g id="edge18" class="edge">
<title>Node14&#45;&gt;Node29</title>
<path fill="none" stroke="#191970" d="M1073.8041,-173.7526C1049.4834,-179.1258 1021.0453,-185.4086 998.0908,-190.4799"/>
<polygon fill="#191970" stroke="#191970" points="1074.5877,-177.164 1083.5971,-171.589 1073.0775,-170.3288 1074.5877,-177.164"/>
</g>
<!-- Node16 -->
<g id="node5" class="node">
<title>Node16</title>
<g id="a_node5"><a xlink:href="classGridFinder.html#a04e1362c95151ac77477844a952af0f9" target="_top" xlink:title="Scan 360° around a given pixel, and find the angle with the most white pixels. This version is not ve...">
<polygon fill="#ffffff" stroke="#000000" points="528.5,-85.5 528.5,-104.5 666.5,-104.5 666.5,-85.5 528.5,-85.5"/>
<text text-anchor="middle" x="597.5" y="-92.5" font-family="Helvetica,sans-Serif" font-size="10.00" fill="#000000">GridFinder::findLineAngle</text>
</a>
</g>
</g>
<!-- Node15&#45;&gt;Node16 -->
<g id="edge4" class="edge">
<title>Node15&#45;&gt;Node16</title>
<path fill="none" stroke="#191970" d="M905.2991,-111.9664C896.5165,-109.7285 887.4742,-107.3523 879,-105 862.8793,-100.5252 859.5467,-96.4716 843,-94 782.3396,-84.9392 766.3327,-93.7147 705,-94 692.5886,-94.0577 679.3714,-94.1529 666.6045,-94.2623"/>
<polygon fill="#191970" stroke="#191970" points="904.5084,-115.3765 915.0605,-114.4258 906.2186,-108.5887 904.5084,-115.3765"/>
</g>
<!-- Node18 -->
<g id="node7" class="node">
<title>Node18</title>
<g id="a_node7"><a xlink:href="classGridFinder.html#afcc1eed83ee0292966c3c80883069634" target="_top" xlink:title="Similar to findLineAngle, but is more accurate, because it uses the average of the range of angles wi...">
<polygon fill="#ffffff" stroke="#000000" points="705,-103 705,-133 843,-133 843,-103 705,-103"/>
<text text-anchor="start" x="713" y="-121" font-family="Helvetica,sans-Serif" font-size="10.00" fill="#000000">GridFinder::findLineAngle</text>
<text text-anchor="middle" x="774" y="-110" font-family="Helvetica,sans-Serif" font-size="10.00" fill="#000000">AccurateRange</text>
</a>
</g>
</g>
<!-- Node15&#45;&gt;Node18 -->
<g id="edge6" class="edge">
<title>Node15&#45;&gt;Node18</title>
<path fill="none" stroke="#191970" d="M893.23,-121.9524C877.0881,-121.4173 859.5857,-120.8371 843.09,-120.2903"/>
<polygon fill="#191970" stroke="#191970" points="893.5063,-125.4634 903.6168,-122.2967 893.7383,-118.4672 893.5063,-125.4634"/>
</g>
<!-- Node17 -->
<g id="node6" class="node">
<title>Node17</title>
<g id="a_node6"><a xlink:href="classGridFinder.html#aaea3af418ab7124f2b25bcc124fccaca" target="_top" xlink:title="Get an estimate of the line through a given pixel. Find an estimate of the slope, then use that to de...">
<polygon fill="#ffffff" stroke="#000000" points="359,-150 359,-180 487,-180 487,-150 359,-150"/>
<text text-anchor="start" x="367" y="-168" font-family="Helvetica,sans-Serif" font-size="10.00" fill="#000000">GridFinder::getFirstLine</text>
<text text-anchor="middle" x="423" y="-157" font-family="Helvetica,sans-Serif" font-size="10.00" fill="#000000">Estimate</text>
</a>
</g>
</g>
<!-- Node16&#45;&gt;Node17 -->
<g id="edge5" class="edge">
<title>Node16&#45;&gt;Node17</title>
<path fill="none" stroke="#191970" d="M564.1343,-108.3845C534.5717,-120.2434 491.4453,-137.5434 460.6558,-149.8945"/>
<polygon fill="#191970" stroke="#191970" points="565.6244,-111.5579 573.6024,-104.5864 563.0182,-105.0612 565.6244,-111.5579"/>
</g>
<!-- Node20 -->
<g id="node9" class="node">
<title>Node20</title>
<g id="a_node9"><a xlink:href="classGridFinder.html#abcd46f31e256080b2d5d2aee03c0e258" target="_top" xlink:title="Find the middle of a line.">
<polygon fill="#ffffff" stroke="#000000" points="714,-269.5 714,-288.5 834,-288.5 834,-269.5 714,-269.5"/>
<text text-anchor="middle" x="774" y="-276.5" font-family="Helvetica,sans-Serif" font-size="10.00" fill="#000000">GridFinder::getMiddle</text>
</a>
</g>
</g>
<!-- Node19&#45;&gt;Node20 -->
<g id="edge8" class="edge">
<title>Node19&#45;&gt;Node20</title>
<path fill="none" stroke="#191970" d="M868.5988,-260.7074C853.065,-263.7112 837.3697,-266.7462 823.3488,-269.4574"/>
<polygon fill="#191970" stroke="#191970" points="869.6107,-264.0767 878.7643,-258.7417 868.2817,-257.204 869.6107,-264.0767"/>
</g>
<!-- Node21 -->
<g id="node10" class="node">
<title>Node21</title>
<g id="a_node10"><a xlink:href="classGridFinder.html#af830abf29ca6dc9c01197a38fe16e1e5" target="_top" xlink:title="In exceptional cases, we might want to find the middle of a line in a point that happens to lie at th...">
<polygon fill="#ffffff" stroke="#000000" points="526,-182 526,-212 669,-212 669,-182 526,-182"/>
<text text-anchor="start" x="534" y="-200" font-family="Helvetica,sans-Serif" font-size="10.00" fill="#000000">GridFinder::getMiddleWith</text>
<text text-anchor="middle" x="597.5" y="-189" font-family="Helvetica,sans-Serif" font-size="10.00" fill="#000000">Retries</text>
</a>
</g>
</g>
<!-- Node20&#45;&gt;Node21 -->
<g id="edge9" class="edge">
<title>Node20&#45;&gt;Node21</title>
<path fill="none" stroke="#191970" d="M744.2004,-265.1554C712.5157,-250.4351 662.5651,-227.2286 629.9162,-212.0602"/>
<polygon fill="#191970" stroke="#191970" points="742.864,-268.3938 753.4078,-269.4331 745.8134,-262.0455 742.864,-268.3938"/>
</g>
<!-- Node22 -->
<g id="node11" class="node">
<title>Node22</title>
<g id="a_node11"><a xlink:href="classGridFinder.html#ae12ca7921b02b37417d87fc737f0134d" target="_top" xlink:title="Check if there could be a valid line going through the given point, and if so, find and return the ac...">
<polygon fill="#ffffff" stroke="#000000" points="537,-269.5 537,-288.5 658,-288.5 658,-269.5 537,-269.5"/>
<text text-anchor="middle" x="597.5" y="-276.5" font-family="Helvetica,sans-Serif" font-size="10.00" fill="#000000">GridFinder::checkLine</text>
</a>
</g>
</g>
<!-- Node20&#45;&gt;Node22 -->
<g id="edge11" class="edge">
<title>Node20&#45;&gt;Node22</title>
<path fill="none" stroke="#191970" d="M703.4814,-279C688.4475,-279 672.6975,-279 658.0754,-279"/>
<polygon fill="#191970" stroke="#191970" points="703.7524,-282.5001 713.7524,-279 703.7523,-275.5001 703.7524,-282.5001"/>
</g>
<!-- Node21&#45;&gt;Node17 -->
<g id="edge10" class="edge">
<title>Node21&#45;&gt;Node17</title>
<path fill="none" stroke="#191970" d="M515.8089,-182.0194C506.2012,-180.2575 496.5033,-178.4791 487.1837,-176.7701"/>
<polygon fill="#191970" stroke="#191970" points="515.3014,-185.4846 525.7688,-183.8458 516.5641,-178.5994 515.3014,-185.4846"/>
</g>
<!-- Node22&#45;&gt;Node23 -->
<g id="edge12" class="edge">
<title>Node22&#45;&gt;Node23</title>
<path fill="none" stroke="#191970" d="M526.9271,-271.3159C514.8358,-269.9993 502.3005,-268.6344 490.2976,-267.3275"/>
<polygon fill="#191970" stroke="#191970" points="526.638,-274.805 536.9581,-272.408 527.3957,-267.8461 526.638,-274.805"/>
</g>
<!-- Node24 -->
<g id="node13" class="node">
<title>Node24</title>
<g id="a_node13"><a xlink:href="classGridFinder.html#a3edbd3ffbcfe6d373fbaf576e4dca51b" target="_top" xlink:title="Equivalent to #findNextLine(LineResult,bool,uint,uint) but also supports optional LineResults.">
<polygon fill="#ffffff" stroke="#000000" points="186,-269.5 186,-288.5 320,-288.5 320,-269.5 186,-269.5"/>
<text text-anchor="middle" x="253" y="-276.5" font-family="Helvetica,sans-Serif" font-size="10.00" fill="#000000">GridFinder::findNextLine</text>
</a>
</g>
</g>
<!-- Node23&#45;&gt;Node24 -->
<g id="edge13" class="edge">
<title>Node23&#45;&gt;Node24</title>
<path fill="none" stroke="#191970" d="M345.854,-268.6222C337.3121,-269.5769 328.6634,-270.5435 320.2572,-271.483"/>
<polygon fill="#191970" stroke="#191970" points="346.2622,-272.0985 355.8115,-267.5093 345.4846,-265.1418 346.2622,-272.0985"/>
</g>
<!-- Node25 -->
<g id="node14" class="node">
<title>Node25</title>
<g id="a_node14"><a xlink:href="classGridFinder.html#a8940ca681fac78274043cf5f1f1f5761" target="_top" xlink:title="This is the main function: it looks for a complete square of the grid, as close to the center of the ...">
<polygon fill="#ffffff" stroke="#000000" points="191,-231.5 191,-250.5 315,-250.5 315,-231.5 191,-231.5"/>
<text text-anchor="middle" x="253" y="-238.5" font-family="Helvetica,sans-Serif" font-size="10.00" fill="#000000">GridFinder::findSquare</text>
</a>
</g>
</g>
<!-- Node23&#45;&gt;Node25 -->
<g id="edge14" class="edge">
<title>Node23&#45;&gt;Node25</title>
<path fill="none" stroke="#191970" d="M345.624,-251.3521C335.3644,-250.2054 324.9554,-249.0421 315.0015,-247.9296"/>
<polygon fill="#191970" stroke="#191970" points="345.4846,-254.8582 355.8115,-252.4907 346.2622,-247.9015 345.4846,-254.8582"/>
</g>
<!-- Node26 -->
<g id="node15" class="node">
<title>Node26</title>
<g id="a_node15"><a xlink:href="classLocationFinder.html#a398bb42565e1e2a499471765f569bc40" target="_top" xlink:title=" ">
<polygon fill="#ffffff" stroke="#000000" points="0,-250.5 0,-269.5 150,-269.5 150,-250.5 0,-250.5"/>
<text text-anchor="middle" x="75" y="-257.5" font-family="Helvetica,sans-Serif" font-size="10.00" fill="#000000">LocationFinder::getLocation</text>
</a>
</g>
</g>
<!-- Node25&#45;&gt;Node26 -->
<g id="edge15" class="edge">
<title>Node25&#45;&gt;Node26</title>
<path fill="none" stroke="#191970" d="M180.754,-248.7117C170.6437,-249.7908 160.2341,-250.902 150.0729,-251.9866"/>
<polygon fill="#191970" stroke="#191970" points="181.1722,-252.187 190.7442,-247.6453 180.4292,-245.2265 181.1722,-252.187"/>
</g>
<!-- Node27 -->
<g id="node16" class="node">
<title>Node27</title>
<g id="a_node16"><a xlink:href="Grid-Finder_8module_8hpp.html#a05e720af51446c0f9319fb9455fe1767" target="_top" xlink:title=" ">
<polygon fill="#ffffff" stroke="#000000" points="18.5,-212.5 18.5,-231.5 131.5,-231.5 131.5,-212.5 18.5,-212.5"/>
<text text-anchor="middle" x="75" y="-219.5" font-family="Helvetica,sans-Serif" font-size="10.00" fill="#000000">PYBIND11_MODULE</text>
</a>
</g>
</g>
<!-- Node25&#45;&gt;Node27 -->
<g id="edge16" class="edge">
<title>Node25&#45;&gt;Node27</title>
<path fill="none" stroke="#191970" d="M180.6768,-233.2801C164.3126,-231.5334 147.1683,-229.7034 131.5649,-228.0378"/>
<polygon fill="#191970" stroke="#191970" points="180.4292,-236.7735 190.7442,-234.3547 181.1722,-229.813 180.4292,-236.7735"/>
</g>
<!-- Node29&#45;&gt;Node20 -->
<g id="edge19" class="edge">
<title>Node29&#45;&gt;Node20</title>
<path fill="none" stroke="#191970" d="M895.2894,-212.5144C889.6238,-214.6421 884.0985,-217.1191 879,-220 859.5716,-230.9779 861.989,-243.2785 843,-255 833.1788,-261.0624 821.6211,-265.8474 810.8025,-269.4971"/>
<polygon fill="#191970" stroke="#191970" points="896.5595,-215.7796 904.9061,-209.2539 894.3118,-209.1502 896.5595,-215.7796"/>
</g>
<!-- Node29&#45;&gt;Node21 -->
<g id="edge20" class="edge">
<title>Node29&#45;&gt;Node21</title>
<path fill="none" stroke="#191970" d="M894.8535,-199.4953C832.5945,-198.9728 735.3528,-198.1568 669.1534,-197.6013"/>
<polygon fill="#191970" stroke="#191970" points="894.8857,-202.9956 904.9147,-199.5797 894.9445,-195.9958 894.8857,-202.9956"/>
</g>
<!-- Node29&#45;&gt;Node23 -->
<g id="edge21" class="edge">
<title>Node29&#45;&gt;Node23</title>
<path fill="none" stroke="#191970" d="M895.009,-206.7659C795.0005,-218.0451 594.8841,-240.6146 490.2507,-252.4153"/>
<polygon fill="#191970" stroke="#191970" points="895.406,-210.2434 904.9507,-205.6447 894.6214,-203.2875 895.406,-210.2434"/>
</g>
<!-- Node31 -->
<g id="node20" class="node">
<title>Node31</title>
<g id="a_node20"><a xlink:href="classGridFinder.html#a05d847c0d5e11314641f84afa0f2ca05" target="_top" xlink:title="Get the value of the given pixel.">
<polygon fill="#ffffff" stroke="#000000" points="1083,-.5 1083,-19.5 1171,-19.5 1171,-.5 1083,-.5"/>
<text text-anchor="middle" x="1127" y="-7.5" font-family="Helvetica,sans-Serif" font-size="10.00" fill="#000000">GridFinder::get</text>
</a>
</g>
</g>
<!-- Node30&#45;&gt;Node31 -->
<g id="edge29" class="edge">
<title>Node30&#45;&gt;Node31</title>
<path fill="none" stroke="#191970" d="M1249.9021,-10C1225.7335,-10 1195.5334,-10 1171.1183,-10"/>
<polygon fill="#191970" stroke="#191970" points="1250.1971,-13.5001 1260.1971,-10 1250.197,-6.5001 1250.1971,-13.5001"/>
</g>
<!-- Node33 -->
<g id="node22" class="node">
<title>Node33</title>
<g id="a_node22"><a xlink:href="classGridFinder.html#a376419f000b3be1e8db278726a2efbc1" target="_top" xlink:title="Set the value of the given pixel.">
<polygon fill="#ffffff" stroke="#000000" points="1083.5,-38.5 1083.5,-57.5 1170.5,-57.5 1170.5,-38.5 1083.5,-38.5"/>
<text text-anchor="middle" x="1127" y="-45.5" font-family="Helvetica,sans-Serif" font-size="10.00" fill="#000000">GridFinder::set</text>
</a>
</g>
</g>
<!-- Node32&#45;&gt;Node33 -->
<g id="edge31" class="edge">
<title>Node32&#45;&gt;Node33</title>
<path fill="none" stroke="#191970" d="M1250.9109,-48C1226.4047,-48 1195.4368,-48 1170.5905,-48"/>
<polygon fill="#191970" stroke="#191970" points="1250.9812,-51.5001 1260.9812,-48 1250.9811,-44.5001 1250.9812,-51.5001"/>
</g>
<!-- Node33&#45;&gt;Node28 -->
<g id="edge32" class="edge">
<title>Node33&#45;&gt;Node28</title>
<path fill="none" stroke="#191970" d="M1073.8041,-59.7526C1049.4834,-65.1258 1021.0453,-71.4086 998.0908,-76.4799"/>
<polygon fill="#191970" stroke="#191970" points="1074.5877,-63.164 1083.5971,-57.589 1073.0775,-56.3288 1074.5877,-63.164"/>
</g>
</g>
</svg>
