<?xml version="1.0" encoding="UTF-8" standalone="no"?>
<!DOCTYPE svg PUBLIC "-//W3C//DTD SVG 1.1//EN"
 "http://www.w3.org/Graphics/SVG/1.1/DTD/svg11.dtd">
<!-- Generated by graphviz version 2.40.1 (20161225.0304)
 -->
<!-- Title: pybind11::detail::type_caster&lt; TMatrix&lt; T, R, C &gt; &gt;::load Pages: 1 -->
<svg width="264pt" height="50pt"
 viewBox="0.00 0.00 264.00 50.00" xmlns="http://www.w3.org/2000/svg" xmlns:xlink="http://www.w3.org/1999/xlink">
<g id="graph0" class="graph" transform="scale(1 1) rotate(0) translate(4 46)">
<title>pybind11::detail::type_caster&lt; TMatrix&lt; T, R, C &gt; &gt;::load</title>
<polygon fill="#ffffff" stroke="transparent" points="-4,4 -4,-46 260,-46 260,4 -4,4"/>
<!-- Node3 -->
<g id="node1" class="node">
<title>Node3</title>
<g id="a_node1"><a xlink:title="Conversion Python → C++.">
<polygon fill="#bfbfbf" stroke="#000000" points="0,-.5 0,-41.5 133,-41.5 133,-.5 0,-.5"/>
<text text-anchor="start" x="8" y="-29.5" font-family="Helvetica,sans-Serif" font-size="10.00" fill="#000000">pybind11::detail::type</text>
<text text-anchor="start" x="8" y="-18.5" font-family="Helvetica,sans-Serif" font-size="10.00" fill="#000000">_caster&lt; TMatrix&lt; T, R,</text>
<text text-anchor="middle" x="66.5" y="-7.5" font-family="Helvetica,sans-Serif" font-size="10.00" fill="#000000"> C &gt; &gt;::load</text>
</a>
</g>
</g>
<!-- Node4 -->
<g id="node2" class="node">
<title>Node4</title>
<g id="a_node2"><a xlink:href="Matrix_8hpp.html#a41e84f690cb186f410d21dda49afb8fb" target="_top" xlink:title="Get a raw pointer to the internal buffer of the matrix.">
<polygon fill="#ffffff" stroke="#000000" points="169,-11.5 169,-30.5 256,-30.5 256,-11.5 169,-11.5"/>
<text text-anchor="middle" x="212.5" y="-18.5" font-family="Helvetica,sans-Serif" font-size="10.00" fill="#000000">toArrayPointer</text>
</a>
</g>
</g>
<!-- Node3&#45;&gt;Node4 -->
<g id="edge1" class="edge">
<title>Node3&#45;&gt;Node4</title>
<path fill="none" stroke="#191970" d="M133.0913,-21C141.7531,-21 150.5361,-21 158.9475,-21"/>
<polygon fill="#191970" stroke="#191970" points="158.9902,-24.5001 168.9902,-21 158.9902,-17.5001 158.9902,-24.5001"/>
</g>
</g>
</svg>
