<?xml version="1.0" encoding="UTF-8" standalone="no"?>
<!DOCTYPE svg PUBLIC "-//W3C//DTD SVG 1.1//EN"
 "http://www.w3.org/Graphics/SVG/1.1/DTD/svg11.dtd">
<!-- Generated by graphviz version 2.40.1 (20161225.0304)
 -->
<!-- Title: Array::end Pages: 1 -->
<svg width="541pt" height="218pt"
 viewBox="0.00 0.00 541.00 218.00" xmlns="http://www.w3.org/2000/svg" xmlns:xlink="http://www.w3.org/1999/xlink">
<g id="graph0" class="graph" transform="scale(1 1) rotate(0) translate(4 214)">
<title>Array::end</title>
<polygon fill="#ffffff" stroke="transparent" points="-4,4 -4,-214 537,-214 537,4 -4,4"/>
<!-- Node17 -->
<g id="node1" class="node">
<title>Node17</title>
<g id="a_node1"><a xlink:title=" ">
<polygon fill="#bfbfbf" stroke="#000000" points="467,-95.5 467,-114.5 533,-114.5 533,-95.5 467,-95.5"/>
<text text-anchor="middle" x="500" y="-102.5" font-family="Helvetica,sans-Serif" font-size="10.00" fill="#000000">Array::end</text>
</a>
</g>
</g>
<!-- Node18 -->
<g id="node2" class="node">
<title>Node18</title>
<g id="a_node2"><a xlink:href="Array_8hpp.html#ab8a62286cf94935432fb15208c352d31" target="_top" xlink:title=" ">
<polygon fill="#ffffff" stroke="#000000" points="360,-190.5 360,-209.5 410,-209.5 410,-190.5 360,-190.5"/>
<text text-anchor="middle" x="385" y="-197.5" font-family="Helvetica,sans-Serif" font-size="10.00" fill="#000000">isfinite</text>
</a>
</g>
</g>
<!-- Node17&#45;&gt;Node18 -->
<g id="edge1" class="edge">
<title>Node17&#45;&gt;Node18</title>
<path fill="none" stroke="#191970" d="M487.2787,-123.1084C474.6395,-139.991 453.8812,-164.9169 431,-181 424.7793,-185.3725 417.3998,-188.984 410.3932,-191.8411"/>
<polygon fill="#191970" stroke="#191970" points="490.3704,-124.8083 493.4271,-114.664 484.7115,-120.6881 490.3704,-124.8083"/>
</g>
<!-- Node19 -->
<g id="node3" class="node">
<title>Node19</title>
<g id="a_node3"><a xlink:href="Array_8hpp.html#a8210ee35a21cf8114e4f40920a6e0abf" target="_top" xlink:title=" ">
<polygon fill="#ffffff" stroke="#000000" points="366,-152.5 366,-171.5 404,-171.5 404,-152.5 366,-152.5"/>
<text text-anchor="middle" x="385" y="-159.5" font-family="Helvetica,sans-Serif" font-size="10.00" fill="#000000">sum</text>
</a>
</g>
</g>
<!-- Node17&#45;&gt;Node19 -->
<g id="edge2" class="edge">
<title>Node17&#45;&gt;Node19</title>
<path fill="none" stroke="#191970" d="M475.0227,-119.637C462.0688,-127.0015 445.8812,-135.8565 431,-143 422.2757,-147.188 412.3805,-151.3482 404.0088,-154.7033"/>
<polygon fill="#191970" stroke="#191970" points="476.8913,-122.6001 483.8188,-114.5838 473.4043,-116.5304 476.8913,-122.6001"/>
</g>
<!-- Node24 -->
<g id="node8" class="node">
<title>Node24</title>
<g id="a_node8"><a xlink:href="ArrayHelpers_8hpp.html#a302eae526b10a18783bc2623ee9fe646" target="_top" xlink:title="Generate an array where the first value is given, and the subsequent values are calculated as the pre...">
<polygon fill="#ffffff" stroke="#000000" points="339,-114.5 339,-133.5 431,-133.5 431,-114.5 339,-114.5"/>
<text text-anchor="middle" x="385" y="-121.5" font-family="Helvetica,sans-Serif" font-size="10.00" fill="#000000">generatedArray</text>
</a>
</g>
</g>
<!-- Node17&#45;&gt;Node24 -->
<g id="edge8" class="edge">
<title>Node17&#45;&gt;Node24</title>
<path fill="none" stroke="#191970" d="M456.7528,-112.1452C448.348,-113.5338 439.5095,-114.9941 431.0192,-116.3968"/>
<polygon fill="#191970" stroke="#191970" points="457.4415,-115.5789 466.7372,-110.4956 456.3004,-108.6726 457.4415,-115.5789"/>
</g>
<!-- Node25 -->
<g id="node9" class="node">
<title>Node25</title>
<g id="a_node9"><a xlink:href="ArrayHelpers_8hpp.html#a021512d0f49f5f3ac08ebac9bb547cfc" target="_top" xlink:title=" ">
<polygon fill="#ffffff" stroke="#000000" points="351.5,-76.5 351.5,-95.5 418.5,-95.5 418.5,-76.5 351.5,-76.5"/>
<text text-anchor="middle" x="385" y="-83.5" font-family="Helvetica,sans-Serif" font-size="10.00" fill="#000000">filledArray</text>
</a>
</g>
</g>
<!-- Node17&#45;&gt;Node25 -->
<g id="edge9" class="edge">
<title>Node17&#45;&gt;Node25</title>
<path fill="none" stroke="#191970" d="M456.8517,-97.8712C444.1969,-95.7804 430.5512,-93.5258 418.5864,-91.5491"/>
<polygon fill="#191970" stroke="#191970" points="456.3004,-101.3274 466.7372,-99.5044 457.4415,-94.4211 456.3004,-101.3274"/>
</g>
<!-- Node26 -->
<g id="node10" class="node">
<title>Node26</title>
<g id="a_node10"><a xlink:href="MatrixHelpers_8hpp.html#a97dc20f082415c3707e56be3bec40f33" target="_top" xlink:title=" ">
<polygon fill="#ffffff" stroke="#000000" points="346.5,-38.5 346.5,-57.5 423.5,-57.5 423.5,-38.5 346.5,-38.5"/>
<text text-anchor="middle" x="385" y="-45.5" font-family="Helvetica,sans-Serif" font-size="10.00" fill="#000000">filledTMatrix</text>
</a>
</g>
</g>
<!-- Node17&#45;&gt;Node26 -->
<g id="edge10" class="edge">
<title>Node17&#45;&gt;Node26</title>
<path fill="none" stroke="#191970" d="M475.0227,-90.363C462.0688,-82.9985 445.8812,-74.1435 431,-67 424.1452,-63.7095 416.5675,-60.436 409.574,-57.5568"/>
<polygon fill="#191970" stroke="#191970" points="473.4043,-93.4696 483.8188,-95.4162 476.8913,-87.3999 473.4043,-93.4696"/>
</g>
<!-- Node27 -->
<g id="node11" class="node">
<title>Node27</title>
<g id="a_node11"><a xlink:href="MatrixHelpers_8hpp.html#a0143e59b28ca53207a87f0a2d0873bf4" target="_top" xlink:title=" ">
<polygon fill="#ffffff" stroke="#000000" points="349.5,-.5 349.5,-19.5 420.5,-19.5 420.5,-.5 349.5,-.5"/>
<text text-anchor="middle" x="385" y="-7.5" font-family="Helvetica,sans-Serif" font-size="10.00" fill="#000000">filledMatrix</text>
</a>
</g>
</g>
<!-- Node17&#45;&gt;Node27 -->
<g id="edge11" class="edge">
<title>Node17&#45;&gt;Node27</title>
<path fill="none" stroke="#191970" d="M487.2787,-86.8916C474.6395,-70.009 453.8812,-45.0831 431,-29 425.769,-25.3231 419.7185,-22.1843 413.7594,-19.5798"/>
<polygon fill="#191970" stroke="#191970" points="484.7115,-89.3119 493.4271,-95.336 490.3704,-85.1917 484.7115,-89.3119"/>
</g>
<!-- Node20 -->
<g id="node4" class="node">
<title>Node20</title>
<g id="a_node4"><a xlink:href="HouseholderQR_8hpp.html#a16f7547f23439d1eda0fcbde69451ef9" target="_top" xlink:title=" ">
<polygon fill="#ffffff" stroke="#000000" points="212,-190.5 212,-209.5 303,-209.5 303,-190.5 212,-190.5"/>
<text text-anchor="middle" x="257.5" y="-197.5" font-family="Helvetica,sans-Serif" font-size="10.00" fill="#000000">householderQR</text>
</a>
</g>
</g>
<!-- Node19&#45;&gt;Node20 -->
<g id="edge3" class="edge">
<title>Node19&#45;&gt;Node20</title>
<path fill="none" stroke="#191970" d="M356.2156,-170.5789C336.4122,-176.4811 310.0908,-184.3259 289.608,-190.4305"/>
<polygon fill="#191970" stroke="#191970" points="357.3282,-173.8995 365.912,-167.689 355.3288,-167.1911 357.3282,-173.8995"/>
</g>
<!-- Node21 -->
<g id="node5" class="node">
<title>Node21</title>
<g id="a_node5"><a xlink:href="LeastSquares_8hpp.html#a3e86962f655361a684f770b14c9fe1e2" target="_top" xlink:title=" ">
<polygon fill="#ffffff" stroke="#000000" points="68,-171.5 68,-190.5 176,-190.5 176,-171.5 68,-171.5"/>
<text text-anchor="middle" x="122" y="-178.5" font-family="Helvetica,sans-Serif" font-size="10.00" fill="#000000">solveLeastSquares</text>
</a>
</g>
</g>
<!-- Node19&#45;&gt;Node21 -->
<g id="edge6" class="edge">
<title>Node19&#45;&gt;Node21</title>
<path fill="none" stroke="#191970" d="M355.4962,-164.1315C312.1071,-167.266 230.3654,-173.1713 176.0368,-177.0962"/>
<polygon fill="#191970" stroke="#191970" points="355.9392,-167.6087 365.661,-163.3971 355.4347,-160.6269 355.9392,-167.6087"/>
</g>
<!-- Node23 -->
<g id="node7" class="node">
<title>Node23</title>
<g id="a_node7"><a xlink:href="Matrix_8hpp.html#a341f99d67c7fef72e0432138c6d4fc34" target="_top" xlink:title=" ">
<polygon fill="#ffffff" stroke="#000000" points="226,-114.5 226,-133.5 289,-133.5 289,-114.5 226,-114.5"/>
<text text-anchor="middle" x="257.5" y="-121.5" font-family="Helvetica,sans-Serif" font-size="10.00" fill="#000000">operator*</text>
</a>
</g>
</g>
<!-- Node19&#45;&gt;Node23 -->
<g id="edge7" class="edge">
<title>Node19&#45;&gt;Node23</title>
<path fill="none" stroke="#191970" d="M356.1442,-153.3998C336.1884,-147.4522 309.6396,-139.5396 289.1115,-133.4215"/>
<polygon fill="#191970" stroke="#191970" points="355.3288,-156.8089 365.912,-156.311 357.3282,-150.1005 355.3288,-156.8089"/>
</g>
<!-- Node20&#45;&gt;Node21 -->
<g id="edge4" class="edge">
<title>Node20&#45;&gt;Node21</title>
<path fill="none" stroke="#191970" d="M201.5773,-192.1584C193.209,-190.985 184.5922,-189.7768 176.2592,-188.6083"/>
<polygon fill="#191970" stroke="#191970" points="201.2367,-195.6448 211.6259,-193.5675 202.2088,-188.7127 201.2367,-195.6448"/>
</g>
<!-- Node22 -->
<g id="node6" class="node">
<title>Node22</title>
<g id="a_node6"><a xlink:href="LeastSquares_8hpp.html#abc455a395ab6414f5312b56e5b479195" target="_top" xlink:title=" ">
<polygon fill="#ffffff" stroke="#000000" points="0,-171.5 0,-190.5 32,-190.5 32,-171.5 0,-171.5"/>
<text text-anchor="middle" x="16" y="-178.5" font-family="Helvetica,sans-Serif" font-size="10.00" fill="#000000">inv</text>
</a>
</g>
</g>
<!-- Node21&#45;&gt;Node22 -->
<g id="edge5" class="edge">
<title>Node21&#45;&gt;Node22</title>
<path fill="none" stroke="#191970" d="M57.7466,-181C48.2629,-181 39.2831,-181 32.0991,-181"/>
<polygon fill="#191970" stroke="#191970" points="57.7579,-184.5001 67.7579,-181 57.7579,-177.5001 57.7579,-184.5001"/>
</g>
</g>
</svg>
