<?xml version="1.0" encoding="UTF-8" standalone="no"?>
<!DOCTYPE svg PUBLIC "-//W3C//DTD SVG 1.1//EN"
 "http://www.w3.org/Graphics/SVG/1.1/DTD/svg11.dtd">
<!-- Generated by graphviz version 2.40.1 (20161225.0304)
 -->
<!-- Title: CosSin::perpendicular Pages: 1 -->
<svg width="1179pt" height="97pt"
 viewBox="0.00 0.00 1179.00 96.50" xmlns="http://www.w3.org/2000/svg" xmlns:xlink="http://www.w3.org/1999/xlink">
<g id="graph0" class="graph" transform="scale(1 1) rotate(0) translate(4 92.5)">
<title>CosSin::perpendicular</title>
<polygon fill="#ffffff" stroke="transparent" points="-4,4 -4,-92.5 1175,-92.5 1175,4 -4,4"/>
<!-- Node31 -->
<g id="node1" class="node">
<title>Node31</title>
<g id="a_node1"><a xlink:title=" ">
<polygon fill="#bfbfbf" stroke="#000000" points="1049,-41.5 1049,-60.5 1171,-60.5 1171,-41.5 1049,-41.5"/>
<text text-anchor="middle" x="1110" y="-48.5" font-family="Helvetica,sans-Serif" font-size="10.00" fill="#000000">CosSin::perpendicular</text>
</a>
</g>
</g>
<!-- Node32 -->
<g id="node2" class="node">
<title>Node32</title>
<g id="a_node2"><a xlink:href="classGridFinder.html#ab5c436911deb269a22a8d5525271fa4e" target="_top" xlink:title="Get the width of the line at a given point.">
<polygon fill="#ffffff" stroke="#000000" points="861,-58 861,-88 1013,-88 1013,-58 861,-58"/>
<text text-anchor="start" x="869" y="-76" font-family="Helvetica,sans-Serif" font-size="10.00" fill="#000000">GridFinder::getWidthAtPoint</text>
<text text-anchor="middle" x="937" y="-65" font-family="Helvetica,sans-Serif" font-size="10.00" fill="#000000">OnLine</text>
</a>
</g>
</g>
<!-- Node31&#45;&gt;Node32 -->
<g id="edge1" class="edge">
<title>Node31&#45;&gt;Node32</title>
<path fill="none" stroke="#191970" d="M1038.4426,-60.0998C1030.0855,-61.1625 1021.5364,-62.2497 1013.1203,-63.32"/>
<polygon fill="#191970" stroke="#191970" points="1039.041,-63.552 1048.5196,-58.8183 1038.1579,-56.6079 1039.041,-63.552"/>
</g>
<!-- Node33 -->
<g id="node3" class="node">
<title>Node33</title>
<g id="a_node3"><a xlink:href="classGridFinder.html#abcd46f31e256080b2d5d2aee03c0e258" target="_top" xlink:title="Find the middle of a line.">
<polygon fill="#ffffff" stroke="#000000" points="705,-41.5 705,-60.5 825,-60.5 825,-41.5 705,-41.5"/>
<text text-anchor="middle" x="765" y="-48.5" font-family="Helvetica,sans-Serif" font-size="10.00" fill="#000000">GridFinder::getMiddle</text>
</a>
</g>
</g>
<!-- Node31&#45;&gt;Node33 -->
<g id="edge10" class="edge">
<title>Node31&#45;&gt;Node33</title>
<path fill="none" stroke="#191970" d="M1038.8043,-48.546C1030.1128,-48.3209 1021.3547,-48.1292 1013,-48 945.4525,-46.9557 928.5473,-46.9448 861,-48 849.4124,-48.181 837.041,-48.4849 825.1653,-48.8315"/>
<polygon fill="#191970" stroke="#191970" points="1038.8566,-52.0487 1048.9488,-48.824 1039.0484,-45.0513 1038.8566,-52.0487"/>
</g>
<!-- Node32&#45;&gt;Node33 -->
<g id="edge2" class="edge">
<title>Node32&#45;&gt;Node33</title>
<path fill="none" stroke="#191970" d="M850.6837,-61.9595C842.0438,-60.8544 833.4082,-59.7499 825.1256,-58.6905"/>
<polygon fill="#191970" stroke="#191970" points="850.4439,-65.4573 860.8072,-63.2544 851.3321,-58.5139 850.4439,-65.4573"/>
</g>
<!-- Node34 -->
<g id="node4" class="node">
<title>Node34</title>
<g id="a_node4"><a xlink:href="classGridFinder.html#af830abf29ca6dc9c01197a38fe16e1e5" target="_top" xlink:title="In exceptional cases, we might want to find the middle of a line in a point that happens to lie at th...">
<polygon fill="#ffffff" stroke="#000000" points="526,-58 526,-88 669,-88 669,-58 526,-58"/>
<text text-anchor="start" x="534" y="-76" font-family="Helvetica,sans-Serif" font-size="10.00" fill="#000000">GridFinder::getMiddleWith</text>
<text text-anchor="middle" x="597.5" y="-65" font-family="Helvetica,sans-Serif" font-size="10.00" fill="#000000">Retries</text>
</a>
</g>
</g>
<!-- Node33&#45;&gt;Node34 -->
<g id="edge3" class="edge">
<title>Node33&#45;&gt;Node34</title>
<path fill="none" stroke="#191970" d="M694.3967,-60.2733C685.9975,-61.3764 677.4174,-62.5034 669.0057,-63.6082"/>
<polygon fill="#191970" stroke="#191970" points="695.0696,-63.715 704.5287,-58.9425 694.158,-56.7746 695.0696,-63.715"/>
</g>
<!-- Node36 -->
<g id="node6" class="node">
<title>Node36</title>
<g id="a_node6"><a xlink:href="classGridFinder.html#ae12ca7921b02b37417d87fc737f0134d" target="_top" xlink:title="Check if there could be a valid line going through the given point, and if so, find and return the ac...">
<polygon fill="#ffffff" stroke="#000000" points="537,-19.5 537,-38.5 658,-38.5 658,-19.5 537,-19.5"/>
<text text-anchor="middle" x="597.5" y="-26.5" font-family="Helvetica,sans-Serif" font-size="10.00" fill="#000000">GridFinder::checkLine</text>
</a>
</g>
</g>
<!-- Node33&#45;&gt;Node36 -->
<g id="edge5" class="edge">
<title>Node33&#45;&gt;Node36</title>
<path fill="none" stroke="#191970" d="M694.4935,-41.7394C682.4141,-40.1529 669.9577,-38.5168 658.1638,-36.9678"/>
<polygon fill="#191970" stroke="#191970" points="694.158,-45.2254 704.5287,-43.0575 695.0696,-38.285 694.158,-45.2254"/>
</g>
<!-- Node35 -->
<g id="node5" class="node">
<title>Node35</title>
<g id="a_node5"><a xlink:href="classGridFinder.html#aaea3af418ab7124f2b25bcc124fccaca" target="_top" xlink:title="Get an estimate of the line through a given pixel. Find an estimate of the slope, then use that to de...">
<polygon fill="#ffffff" stroke="#000000" points="359,-58 359,-88 487,-88 487,-58 359,-58"/>
<text text-anchor="start" x="367" y="-76" font-family="Helvetica,sans-Serif" font-size="10.00" fill="#000000">GridFinder::getFirstLine</text>
<text text-anchor="middle" x="423" y="-65" font-family="Helvetica,sans-Serif" font-size="10.00" fill="#000000">Estimate</text>
</a>
</g>
</g>
<!-- Node34&#45;&gt;Node35 -->
<g id="edge4" class="edge">
<title>Node34&#45;&gt;Node35</title>
<path fill="none" stroke="#191970" d="M515.5054,-73C505.9971,-73 496.4052,-73 487.1837,-73"/>
<polygon fill="#191970" stroke="#191970" points="515.7688,-76.5001 525.7688,-73 515.7687,-69.5001 515.7688,-76.5001"/>
</g>
<!-- Node37 -->
<g id="node7" class="node">
<title>Node37</title>
<g id="a_node7"><a xlink:href="classGridFinder.html#a54369e6368334eb2924ca70ee1f1d438" target="_top" xlink:title="Follow the given line to find the line perpendicular to it. Move along the line for minDistance pixel...">
<polygon fill="#ffffff" stroke="#000000" points="356,-19.5 356,-38.5 490,-38.5 490,-19.5 356,-19.5"/>
<text text-anchor="middle" x="423" y="-26.5" font-family="Helvetica,sans-Serif" font-size="10.00" fill="#000000">GridFinder::findNextLine</text>
</a>
</g>
</g>
<!-- Node36&#45;&gt;Node37 -->
<g id="edge6" class="edge">
<title>Node36&#45;&gt;Node37</title>
<path fill="none" stroke="#191970" d="M526.9271,-29C514.8358,-29 502.3005,-29 490.2976,-29"/>
<polygon fill="#191970" stroke="#191970" points="526.9581,-32.5001 536.9581,-29 526.9581,-25.5001 526.9581,-32.5001"/>
</g>
<!-- Node38 -->
<g id="node8" class="node">
<title>Node38</title>
<g id="a_node8"><a xlink:href="classGridFinder.html#a3edbd3ffbcfe6d373fbaf576e4dca51b" target="_top" xlink:title="Equivalent to #findNextLine(LineResult,bool,uint,uint) but also supports optional LineResults.">
<polygon fill="#ffffff" stroke="#000000" points="186,-38.5 186,-57.5 320,-57.5 320,-38.5 186,-38.5"/>
<text text-anchor="middle" x="253" y="-45.5" font-family="Helvetica,sans-Serif" font-size="10.00" fill="#000000">GridFinder::findNextLine</text>
</a>
</g>
</g>
<!-- Node37&#45;&gt;Node38 -->
<g id="edge7" class="edge">
<title>Node37&#45;&gt;Node38</title>
<path fill="none" stroke="#191970" d="M345.854,-37.6222C337.3121,-38.5769 328.6634,-39.5435 320.2572,-40.483"/>
<polygon fill="#191970" stroke="#191970" points="346.2622,-41.0985 355.8115,-36.5093 345.4846,-34.1418 346.2622,-41.0985"/>
</g>
<!-- Node39 -->
<g id="node9" class="node">
<title>Node39</title>
<g id="a_node9"><a xlink:href="classGridFinder.html#a8940ca681fac78274043cf5f1f1f5761" target="_top" xlink:title="This is the main function: it looks for a complete square of the grid, as close to the center of the ...">
<polygon fill="#ffffff" stroke="#000000" points="191,-.5 191,-19.5 315,-19.5 315,-.5 191,-.5"/>
<text text-anchor="middle" x="253" y="-7.5" font-family="Helvetica,sans-Serif" font-size="10.00" fill="#000000">GridFinder::findSquare</text>
</a>
</g>
</g>
<!-- Node37&#45;&gt;Node39 -->
<g id="edge8" class="edge">
<title>Node37&#45;&gt;Node39</title>
<path fill="none" stroke="#191970" d="M345.624,-20.3521C335.3644,-19.2054 324.9554,-18.0421 315.0015,-16.9296"/>
<polygon fill="#191970" stroke="#191970" points="345.4846,-23.8582 355.8115,-21.4907 346.2622,-16.9015 345.4846,-23.8582"/>
</g>
<!-- Node40 -->
<g id="node10" class="node">
<title>Node40</title>
<g id="a_node10"><a xlink:href="classLocationFinder.html#a398bb42565e1e2a499471765f569bc40" target="_top" xlink:title=" ">
<polygon fill="#ffffff" stroke="#000000" points="0,-.5 0,-19.5 150,-19.5 150,-.5 0,-.5"/>
<text text-anchor="middle" x="75" y="-7.5" font-family="Helvetica,sans-Serif" font-size="10.00" fill="#000000">LocationFinder::getLocation</text>
</a>
</g>
</g>
<!-- Node39&#45;&gt;Node40 -->
<g id="edge9" class="edge">
<title>Node39&#45;&gt;Node40</title>
<path fill="none" stroke="#191970" d="M180.4379,-10C170.4268,-10 160.1282,-10 150.0729,-10"/>
<polygon fill="#191970" stroke="#191970" points="180.7443,-13.5001 190.7442,-10 180.7442,-6.5001 180.7443,-13.5001"/>
</g>
</g>
</svg>
