<?xml version="1.0" encoding="UTF-8" standalone="no"?>
<!DOCTYPE svg PUBLIC "-//W3C//DTD SVG 1.1//EN"
 "http://www.w3.org/Graphics/SVG/1.1/DTD/svg11.dtd">
<!-- Generated by graphviz version 2.40.1 (20161225.0304)
 -->
<!-- Title: CosSin::perpendicular Pages: 1 -->
<svg width="1346pt" height="97pt"
 viewBox="0.00 0.00 1346.00 96.50" xmlns="http://www.w3.org/2000/svg" xmlns:xlink="http://www.w3.org/1999/xlink">
<g id="graph0" class="graph" transform="scale(1 1) rotate(0) translate(4 92.5)">
<title>CosSin::perpendicular</title>
<polygon fill="#ffffff" stroke="transparent" points="-4,4 -4,-92.5 1342,-92.5 1342,4 -4,4"/>
<!-- Node32 -->
<g id="node1" class="node">
<title>Node32</title>
<g id="a_node1"><a xlink:title=" ">
<polygon fill="#bfbfbf" stroke="#000000" points="1216,-41.5 1216,-60.5 1338,-60.5 1338,-41.5 1216,-41.5"/>
<text text-anchor="middle" x="1277" y="-48.5" font-family="Helvetica,sans-Serif" font-size="10.00" fill="#000000">CosSin::perpendicular</text>
</a>
</g>
</g>
<!-- Node33 -->
<g id="node2" class="node">
<title>Node33</title>
<g id="a_node2"><a xlink:href="classGridFinder.html#ab5c436911deb269a22a8d5525271fa4e" target="_top" xlink:title="Get the width of the line at a given point.">
<polygon fill="#ffffff" stroke="#000000" points="1028,-58 1028,-88 1180,-88 1180,-58 1028,-58"/>
<text text-anchor="start" x="1036" y="-76" font-family="Helvetica,sans-Serif" font-size="10.00" fill="#000000">GridFinder::getWidthAtPoint</text>
<text text-anchor="middle" x="1104" y="-65" font-family="Helvetica,sans-Serif" font-size="10.00" fill="#000000">OnLine</text>
</a>
</g>
</g>
<!-- Node32&#45;&gt;Node33 -->
<g id="edge1" class="edge">
<title>Node32&#45;&gt;Node33</title>
<path fill="none" stroke="#191970" d="M1205.4426,-60.0998C1197.0855,-61.1625 1188.5364,-62.2497 1180.1203,-63.32"/>
<polygon fill="#191970" stroke="#191970" points="1206.041,-63.552 1215.5196,-58.8183 1205.1579,-56.6079 1206.041,-63.552"/>
</g>
<!-- Node34 -->
<g id="node3" class="node">
<title>Node34</title>
<g id="a_node3"><a xlink:href="classGridFinder.html#abcd46f31e256080b2d5d2aee03c0e258" target="_top" xlink:title="Find the middle of a line.">
<polygon fill="#ffffff" stroke="#000000" points="872,-41.5 872,-60.5 992,-60.5 992,-41.5 872,-41.5"/>
<text text-anchor="middle" x="932" y="-48.5" font-family="Helvetica,sans-Serif" font-size="10.00" fill="#000000">GridFinder::getMiddle</text>
</a>
</g>
</g>
<!-- Node32&#45;&gt;Node34 -->
<g id="edge12" class="edge">
<title>Node32&#45;&gt;Node34</title>
<path fill="none" stroke="#191970" d="M1205.8043,-48.546C1197.1128,-48.3209 1188.3547,-48.1292 1180,-48 1112.4525,-46.9557 1095.5473,-46.9448 1028,-48 1016.4124,-48.181 1004.041,-48.4849 992.1653,-48.8315"/>
<polygon fill="#191970" stroke="#191970" points="1205.8566,-52.0487 1215.9488,-48.824 1206.0484,-45.0513 1205.8566,-52.0487"/>
</g>
<!-- Node33&#45;&gt;Node34 -->
<g id="edge2" class="edge">
<title>Node33&#45;&gt;Node34</title>
<path fill="none" stroke="#191970" d="M1017.6837,-61.9595C1009.0438,-60.8544 1000.4082,-59.7499 992.1256,-58.6905"/>
<polygon fill="#191970" stroke="#191970" points="1017.4439,-65.4573 1027.8072,-63.2544 1018.3321,-58.5139 1017.4439,-65.4573"/>
</g>
<!-- Node35 -->
<g id="node4" class="node">
<title>Node35</title>
<g id="a_node4"><a xlink:href="classGridFinder.html#af830abf29ca6dc9c01197a38fe16e1e5" target="_top" xlink:title="In exceptional cases, we might want to find the middle of a line in a point that happens to lie at th...">
<polygon fill="#ffffff" stroke="#000000" points="693,-58 693,-88 836,-88 836,-58 693,-58"/>
<text text-anchor="start" x="701" y="-76" font-family="Helvetica,sans-Serif" font-size="10.00" fill="#000000">GridFinder::getMiddleWith</text>
<text text-anchor="middle" x="764.5" y="-65" font-family="Helvetica,sans-Serif" font-size="10.00" fill="#000000">Retries</text>
</a>
</g>
</g>
<!-- Node34&#45;&gt;Node35 -->
<g id="edge3" class="edge">
<title>Node34&#45;&gt;Node35</title>
<path fill="none" stroke="#191970" d="M861.3967,-60.2733C852.9975,-61.3764 844.4174,-62.5034 836.0057,-63.6082"/>
<polygon fill="#191970" stroke="#191970" points="862.0696,-63.715 871.5287,-58.9425 861.158,-56.7746 862.0696,-63.715"/>
</g>
<!-- Node37 -->
<g id="node6" class="node">
<title>Node37</title>
<g id="a_node6"><a xlink:href="classGridFinder.html#ae12ca7921b02b37417d87fc737f0134d" target="_top" xlink:title="Check if there could be a valid line going through the given point, and if so, find and return the ac...">
<polygon fill="#ffffff" stroke="#000000" points="704,-19.5 704,-38.5 825,-38.5 825,-19.5 704,-19.5"/>
<text text-anchor="middle" x="764.5" y="-26.5" font-family="Helvetica,sans-Serif" font-size="10.00" fill="#000000">GridFinder::checkLine</text>
</a>
</g>
</g>
<!-- Node34&#45;&gt;Node37 -->
<g id="edge5" class="edge">
<title>Node34&#45;&gt;Node37</title>
<path fill="none" stroke="#191970" d="M861.4935,-41.7394C849.4141,-40.1529 836.9577,-38.5168 825.1638,-36.9678"/>
<polygon fill="#191970" stroke="#191970" points="861.158,-45.2254 871.5287,-43.0575 862.0696,-38.285 861.158,-45.2254"/>
</g>
<!-- Node36 -->
<g id="node5" class="node">
<title>Node36</title>
<g id="a_node5"><a xlink:href="classGridFinder.html#aaea3af418ab7124f2b25bcc124fccaca" target="_top" xlink:title="Get an estimate of the line through a given pixel. Find an estimate of the slope, then use that to de...">
<polygon fill="#ffffff" stroke="#000000" points="526,-58 526,-88 654,-88 654,-58 526,-58"/>
<text text-anchor="start" x="534" y="-76" font-family="Helvetica,sans-Serif" font-size="10.00" fill="#000000">GridFinder::getFirstLine</text>
<text text-anchor="middle" x="590" y="-65" font-family="Helvetica,sans-Serif" font-size="10.00" fill="#000000">Estimate</text>
</a>
</g>
</g>
<!-- Node35&#45;&gt;Node36 -->
<g id="edge4" class="edge">
<title>Node35&#45;&gt;Node36</title>
<path fill="none" stroke="#191970" d="M682.5054,-73C672.9971,-73 663.4052,-73 654.1837,-73"/>
<polygon fill="#191970" stroke="#191970" points="682.7688,-76.5001 692.7688,-73 682.7687,-69.5001 682.7688,-76.5001"/>
</g>
<!-- Node38 -->
<g id="node7" class="node">
<title>Node38</title>
<g id="a_node7"><a xlink:href="classGridFinder.html#a6dec96f8c6ed97647f692fa9f9908595" target="_top" xlink:title="Follow the given line to find the line perpendicular to it. Move along the line for minDistance pixel...">
<polygon fill="#ffffff" stroke="#000000" points="523,-19.5 523,-38.5 657,-38.5 657,-19.5 523,-19.5"/>
<text text-anchor="middle" x="590" y="-26.5" font-family="Helvetica,sans-Serif" font-size="10.00" fill="#000000">GridFinder::findNextLine</text>
</a>
</g>
</g>
<!-- Node37&#45;&gt;Node38 -->
<g id="edge6" class="edge">
<title>Node37&#45;&gt;Node38</title>
<path fill="none" stroke="#191970" d="M693.9271,-29C681.8358,-29 669.3005,-29 657.2976,-29"/>
<polygon fill="#191970" stroke="#191970" points="693.9581,-32.5001 703.9581,-29 693.9581,-25.5001 693.9581,-32.5001"/>
</g>
<!-- Node39 -->
<g id="node8" class="node">
<title>Node39</title>
<g id="a_node8"><a xlink:href="classGridFinder.html#ad1a5448de0df9a84f989f64b55025843" target="_top" xlink:title="Equivalent to #findNextLine(LineResult,bool,uint,uint) but also supports optional LineResults.">
<polygon fill="#ffffff" stroke="#000000" points="353,-38.5 353,-57.5 487,-57.5 487,-38.5 353,-38.5"/>
<text text-anchor="middle" x="420" y="-45.5" font-family="Helvetica,sans-Serif" font-size="10.00" fill="#000000">GridFinder::findNextLine</text>
</a>
</g>
</g>
<!-- Node38&#45;&gt;Node39 -->
<g id="edge7" class="edge">
<title>Node38&#45;&gt;Node39</title>
<path fill="none" stroke="#191970" d="M512.854,-37.6222C504.3121,-38.5769 495.6634,-39.5435 487.2572,-40.483"/>
<polygon fill="#191970" stroke="#191970" points="513.2622,-41.0985 522.8115,-36.5093 512.4846,-34.1418 513.2622,-41.0985"/>
</g>
<!-- Node40 -->
<g id="node9" class="node">
<title>Node40</title>
<g id="a_node9"><a xlink:href="classGridFinder.html#a701c0c1e70d01bb8773a89a29f6673a0" target="_top" xlink:title="This is the main function: it looks for a complete square of the grid, as close to the center of the ...">
<polygon fill="#ffffff" stroke="#000000" points="358,-.5 358,-19.5 482,-19.5 482,-.5 358,-.5"/>
<text text-anchor="middle" x="420" y="-7.5" font-family="Helvetica,sans-Serif" font-size="10.00" fill="#000000">GridFinder::findSquare</text>
</a>
</g>
</g>
<!-- Node38&#45;&gt;Node40 -->
<g id="edge8" class="edge">
<title>Node38&#45;&gt;Node40</title>
<path fill="none" stroke="#191970" d="M512.624,-20.3521C502.3644,-19.2054 491.9554,-18.0421 482.0015,-16.9296"/>
<polygon fill="#191970" stroke="#191970" points="512.4846,-23.8582 522.8115,-21.4907 513.2622,-16.9015 512.4846,-23.8582"/>
</g>
<!-- Node41 -->
<g id="node10" class="node">
<title>Node41</title>
<g id="a_node10"><a xlink:href="classLocationFinder.html#af56756d038d762e04e0c91bac9fc2522" target="_top" xlink:title="Read a new frame, mask it, run GridFinder, and get the position of the drone. The position is the pos...">
<polygon fill="#ffffff" stroke="#000000" points="149,-19.5 149,-38.5 317,-38.5 317,-19.5 149,-19.5"/>
<text text-anchor="middle" x="233" y="-26.5" font-family="Helvetica,sans-Serif" font-size="10.00" fill="#000000">LocationFinder::updateLocation</text>
</a>
</g>
</g>
<!-- Node40&#45;&gt;Node41 -->
<g id="edge9" class="edge">
<title>Node40&#45;&gt;Node41</title>
<path fill="none" stroke="#191970" d="M348.0281,-17.3127C337.9278,-18.3389 327.4731,-19.4011 317.1709,-20.4479"/>
<polygon fill="#191970" stroke="#191970" points="348.3965,-20.7933 357.9915,-16.3003 347.6888,-13.8292 348.3965,-20.7933"/>
</g>
<!-- Node42 -->
<g id="node11" class="node">
<title>Node42</title>
<g id="a_node11"><a xlink:href="Grid-Finder_8module_8hpp.html#a6849f4dcdb45a7aaadcda6439233d376" target="_top" xlink:title=" ">
<polygon fill="#ffffff" stroke="#000000" points="0,-.5 0,-19.5 113,-19.5 113,-.5 0,-.5"/>
<text text-anchor="middle" x="56.5" y="-7.5" font-family="Helvetica,sans-Serif" font-size="10.00" fill="#000000">PYBIND11_MODULE</text>
</a>
</g>
</g>
<!-- Node40&#45;&gt;Node42 -->
<g id="edge11" class="edge">
<title>Node40&#45;&gt;Node42</title>
<path fill="none" stroke="#191970" d="M347.5872,-10C278.6832,-10 176.4113,-10 113.2349,-10"/>
<polygon fill="#191970" stroke="#191970" points="347.9252,-13.5001 357.9251,-10 347.9251,-6.5001 347.9252,-13.5001"/>
</g>
<!-- Node41&#45;&gt;Node42 -->
<g id="edge10" class="edge">
<title>Node41&#45;&gt;Node42</title>
<path fill="none" stroke="#191970" d="M138.9025,-18.8705C130.0733,-17.9201 121.3225,-16.9781 113.0056,-16.0828"/>
<polygon fill="#191970" stroke="#191970" points="138.5682,-22.3547 148.8854,-19.9452 139.3175,-15.3949 138.5682,-22.3547"/>
</g>
</g>
</svg>
