<?xml version="1.0" encoding="UTF-8" standalone="no"?>
<!DOCTYPE svg PUBLIC "-//W3C//DTD SVG 1.1//EN"
 "http://www.w3.org/Graphics/SVG/1.1/DTD/svg11.dtd">
<!-- Generated by graphviz version 2.40.1 (20161225.0304)
 -->
<!-- Title: TimeFunctionT&lt; T &gt; Pages: 1 -->
<svg width="552pt" height="182pt"
 viewBox="0.00 0.00 552.00 182.00" xmlns="http://www.w3.org/2000/svg" xmlns:xlink="http://www.w3.org/1999/xlink">
<g id="graph0" class="graph" transform="scale(1 1) rotate(0) translate(4 178)">
<title>TimeFunctionT&lt; T &gt;</title>
<polygon fill="#ffffff" stroke="transparent" points="-4,4 -4,-178 548,-178 548,4 -4,4"/>
<!-- Node0 -->
<g id="node1" class="node">
<title>Node0</title>
<g id="a_node1"><a xlink:title=" ">
<polygon fill="#bfbfbf" stroke="#000000" points="203,-116.5 203,-173.5 319,-173.5 319,-116.5 203,-116.5"/>
<text text-anchor="middle" x="261" y="-161.5" font-family="Helvetica,sans-Serif" font-size="10.00" fill="#000000">TimeFunctionT&lt; T &gt;</text>
<polyline fill="none" stroke="#000000" points="203,-154.5 319,-154.5 "/>
<text text-anchor="middle" x="261" y="-142.5" font-family="Helvetica,sans-Serif" font-size="10.00" fill="#000000"> </text>
<polyline fill="none" stroke="#000000" points="203,-135.5 319,-135.5 "/>
<text text-anchor="start" x="211" y="-123.5" font-family="Helvetica,sans-Serif" font-size="10.00" fill="#000000">+ operator()()</text>
</a>
</g>
</g>
<!-- Node1 -->
<g id="node2" class="node">
<title>Node1</title>
<g id="a_node2"><a xlink:href="structConstantTimeFunctionT.html" target="_top" xlink:title=" ">
<polygon fill="#ffffff" stroke="#000000" points="0,-6 0,-74 160,-74 160,-6 0,-6"/>
<text text-anchor="middle" x="80" y="-62" font-family="Helvetica,sans-Serif" font-size="10.00" fill="#000000">ConstantTimeFunctionT&lt; T &gt;</text>
<polyline fill="none" stroke="#000000" points="0,-55 160,-55 "/>
<text text-anchor="start" x="8" y="-43" font-family="Helvetica,sans-Serif" font-size="10.00" fill="#000000">+ f</text>
<polyline fill="none" stroke="#000000" points="0,-36 160,-36 "/>
<text text-anchor="start" x="8" y="-24" font-family="Helvetica,sans-Serif" font-size="10.00" fill="#000000">+ ConstantTimeFunctionT()</text>
<text text-anchor="start" x="8" y="-13" font-family="Helvetica,sans-Serif" font-size="10.00" fill="#000000">+ operator()()</text>
</a>
</g>
</g>
<!-- Node0&#45;&gt;Node1 -->
<g id="edge1" class="edge">
<title>Node0&#45;&gt;Node1</title>
<path fill="none" stroke="#191970" d="M202.6404,-111.145C182.1823,-99.277 159.2059,-85.9482 138.7186,-74.0633"/>
<polygon fill="none" stroke="#191970" points="201.1348,-114.3178 211.541,-116.3083 204.6473,-108.2629 201.1348,-114.3178"/>
</g>
<!-- Node2 -->
<g id="node3" class="node">
<title>Node2</title>
<g id="a_node3"><a xlink:href="structFunctionalTimeFunctionT.html" target="_top" xlink:title=" ">
<polygon fill="#ffffff" stroke="#000000" points="178,-6 178,-74 344,-74 344,-6 178,-6"/>
<text text-anchor="middle" x="261" y="-62" font-family="Helvetica,sans-Serif" font-size="10.00" fill="#000000">FunctionalTimeFunctionT&lt; T &gt;</text>
<polyline fill="none" stroke="#000000" points="178,-55 344,-55 "/>
<text text-anchor="start" x="186" y="-43" font-family="Helvetica,sans-Serif" font-size="10.00" fill="#000000">+ f</text>
<polyline fill="none" stroke="#000000" points="178,-36 344,-36 "/>
<text text-anchor="start" x="186" y="-24" font-family="Helvetica,sans-Serif" font-size="10.00" fill="#000000">+ FunctionalTimeFunctionT()</text>
<text text-anchor="start" x="186" y="-13" font-family="Helvetica,sans-Serif" font-size="10.00" fill="#000000">+ operator()()</text>
</a>
</g>
</g>
<!-- Node0&#45;&gt;Node2 -->
<g id="edge2" class="edge">
<title>Node0&#45;&gt;Node2</title>
<path fill="none" stroke="#191970" d="M261,-106.1676C261,-95.6994 261,-84.4521 261,-74.2538"/>
<polygon fill="none" stroke="#191970" points="257.5001,-106.3083 261,-116.3083 264.5001,-106.3083 257.5001,-106.3083"/>
</g>
<!-- Node3 -->
<g id="node4" class="node">
<title>Node3</title>
<g id="a_node4"><a xlink:href="structFunctionPointerTimeFunctionT.html" target="_top" xlink:title=" ">
<polygon fill="#ffffff" stroke="#000000" points="362,-.5 362,-79.5 544,-79.5 544,-.5 362,-.5"/>
<text text-anchor="start" x="370" y="-67.5" font-family="Helvetica,sans-Serif" font-size="10.00" fill="#000000">FunctionPointerTimeFunction</text>
<text text-anchor="middle" x="453" y="-56.5" font-family="Helvetica,sans-Serif" font-size="10.00" fill="#000000">T&lt; T &gt;</text>
<polyline fill="none" stroke="#000000" points="362,-49.5 544,-49.5 "/>
<text text-anchor="start" x="370" y="-37.5" font-family="Helvetica,sans-Serif" font-size="10.00" fill="#000000">+ f</text>
<polyline fill="none" stroke="#000000" points="362,-30.5 544,-30.5 "/>
<text text-anchor="start" x="370" y="-18.5" font-family="Helvetica,sans-Serif" font-size="10.00" fill="#000000">+ FunctionPointerTimeFunctionT()</text>
<text text-anchor="start" x="370" y="-7.5" font-family="Helvetica,sans-Serif" font-size="10.00" fill="#000000">+ operator()()</text>
</a>
</g>
</g>
<!-- Node0&#45;&gt;Node3 -->
<g id="edge3" class="edge">
<title>Node0&#45;&gt;Node3</title>
<path fill="none" stroke="#191970" d="M322.1632,-111.5513C340.7591,-101.3818 361.3725,-90.1088 380.6327,-79.5759"/>
<polygon fill="none" stroke="#191970" points="320.3056,-108.578 313.2112,-116.447 323.6643,-114.7196 320.3056,-108.578"/>
</g>
</g>
</svg>
