<?xml version="1.0" encoding="UTF-8" standalone="no"?>
<!DOCTYPE svg PUBLIC "-//W3C//DTD SVG 1.1//EN"
 "http://www.w3.org/Graphics/SVG/1.1/DTD/svg11.dtd">
<!-- Generated by graphviz version 2.40.1 (20161225.0304)
 -->
<!-- Title: AccessControlledSharedStruct&lt; T, Dir, Addr &gt; Pages: 1 -->
<svg width="182pt" height="248pt"
 viewBox="0.00 0.00 182.00 248.00" xmlns="http://www.w3.org/2000/svg" xmlns:xlink="http://www.w3.org/1999/xlink">
<g id="graph0" class="graph" transform="scale(1 1) rotate(0) translate(4 244)">
<title>AccessControlledSharedStruct&lt; T, Dir, Addr &gt;</title>
<polygon fill="#ffffff" stroke="transparent" points="-4,4 -4,-244 178,-244 178,4 -4,4"/>
<!-- Node2 -->
<g id="node1" class="node">
<title>Node2</title>
<g id="a_node1"><a xlink:title=" ">
<polygon fill="#bfbfbf" stroke="#000000" points="5.5,-.5 5.5,-101.5 168.5,-101.5 168.5,-.5 5.5,-.5"/>
<text text-anchor="start" x="13.5" y="-89.5" font-family="Helvetica,sans-Serif" font-size="10.00" fill="#000000">AccessControlledSharedStruct</text>
<text text-anchor="middle" x="87" y="-78.5" font-family="Helvetica,sans-Serif" font-size="10.00" fill="#000000">&lt; T, Dir, Addr &gt;</text>
<polyline fill="none" stroke="#000000" points="5.5,-71.5 168.5,-71.5 "/>
<text text-anchor="start" x="13.5" y="-59.5" font-family="Helvetica,sans-Serif" font-size="10.00" fill="#000000">+ address</text>
<polyline fill="none" stroke="#000000" points="5.5,-52.5 168.5,-52.5 "/>
<text text-anchor="start" x="13.5" y="-40.5" font-family="Helvetica,sans-Serif" font-size="10.00" fill="#000000">+ write()</text>
<text text-anchor="start" x="13.5" y="-29.5" font-family="Helvetica,sans-Serif" font-size="10.00" fill="#000000">+ read()</text>
<text text-anchor="start" x="13.5" y="-18.5" font-family="Helvetica,sans-Serif" font-size="10.00" fill="#000000">+ isDoneReading()</text>
<text text-anchor="start" x="13.5" y="-7.5" font-family="Helvetica,sans-Serif" font-size="10.00" fill="#000000">+ isDoneWriting()</text>
</a>
</g>
</g>
<!-- Node3 -->
<g id="node2" class="node">
<title>Node3</title>
<g id="a_node2"><a xlink:href="structSharedStruct.html" target="_top" xlink:title=" ">
<polygon fill="#ffffff" stroke="#000000" points="0,-138.5 0,-239.5 174,-239.5 174,-138.5 0,-138.5"/>
<text text-anchor="start" x="8" y="-227.5" font-family="Helvetica,sans-Serif" font-size="10.00" fill="#000000">SharedStruct&lt; AccessControlled</text>
<text text-anchor="middle" x="87" y="-216.5" font-family="Helvetica,sans-Serif" font-size="10.00" fill="#000000">SharedStruct&lt; T, Dir, Addr &gt; &gt;</text>
<polyline fill="none" stroke="#000000" points="0,-209.5 174,-209.5 "/>
<text text-anchor="middle" x="87" y="-197.5" font-family="Helvetica,sans-Serif" font-size="10.00" fill="#000000"> </text>
<polyline fill="none" stroke="#000000" points="0,-190.5 174,-190.5 "/>
<text text-anchor="start" x="8" y="-178.5" font-family="Helvetica,sans-Serif" font-size="10.00" fill="#000000">+ isInitialized()</text>
<text text-anchor="start" x="8" y="-167.5" font-family="Helvetica,sans-Serif" font-size="10.00" fill="#000000">+ checkInitialized()</text>
<text text-anchor="start" x="8" y="-156.5" font-family="Helvetica,sans-Serif" font-size="10.00" fill="#000000">+ nextFreeAddress()</text>
<text text-anchor="start" x="8" y="-145.5" font-family="Helvetica,sans-Serif" font-size="10.00" fill="#000000"># SharedStruct()</text>
</a>
</g>
</g>
<!-- Node3&#45;&gt;Node2 -->
<g id="edge1" class="edge">
<title>Node3&#45;&gt;Node2</title>
<path fill="none" stroke="#191970" d="M87,-128.1179C87,-119.2601 87,-110.2213 87,-101.5964"/>
<polygon fill="none" stroke="#191970" points="83.5001,-128.3975 87,-138.3975 90.5001,-128.3975 83.5001,-128.3975"/>
</g>
</g>
</svg>
