<?xml version="1.0" encoding="UTF-8" standalone="no"?>
<!DOCTYPE svg PUBLIC "-//W3C//DTD SVG 1.1//EN"
 "http://www.w3.org/Graphics/SVG/1.1/DTD/svg11.dtd">
<!-- Generated by graphviz version 2.40.1 (20161225.0304)
 -->
<!-- Title: HoughResult Pages: 1 -->
<svg width="163pt" height="518pt"
 viewBox="0.00 0.00 163.00 518.00" xmlns="http://www.w3.org/2000/svg" xmlns:xlink="http://www.w3.org/1999/xlink">
<g id="graph0" class="graph" transform="scale(1 1) rotate(0) translate(4 514)">
<title>HoughResult</title>
<polygon fill="#ffffff" stroke="transparent" points="-4,4 -4,-514 159,-514 159,4 -4,4"/>
<!-- Node1 -->
<g id="node1" class="node">
<title>Node1</title>
<g id="a_node1"><a xlink:title="Struct as a result of the hough function. It gives the most plausible angle, and a vote count that&#39;s ...">
<polygon fill="#bfbfbf" stroke="#000000" points="35,-.5 35,-57.5 120,-57.5 120,-.5 35,-.5"/>
<text text-anchor="middle" x="77.5" y="-45.5" font-family="Helvetica,sans-Serif" font-size="10.00" fill="#000000">HoughResult</text>
<polyline fill="none" stroke="#000000" points="35,-38.5 120,-38.5 "/>
<text text-anchor="start" x="43" y="-26.5" font-family="Helvetica,sans-Serif" font-size="10.00" fill="#000000">+ count</text>
<polyline fill="none" stroke="#000000" points="35,-19.5 120,-19.5 "/>
<text text-anchor="start" x="43" y="-7.5" font-family="Helvetica,sans-Serif" font-size="10.00" fill="#000000">+ operator&lt;()</text>
</a>
</g>
</g>
<!-- Node2 -->
<g id="node2" class="node">
<title>Node2</title>
<g id="a_node2"><a xlink:href="classAngle.html" target="_top" xlink:title=" ">
<polygon fill="#ffffff" stroke="#000000" points="21,-105.5 21,-393.5 134,-393.5 134,-105.5 21,-105.5"/>
<text text-anchor="middle" x="77.5" y="-381.5" font-family="Helvetica,sans-Serif" font-size="10.00" fill="#000000">Angle&lt; 360 &gt;</text>
<polyline fill="none" stroke="#000000" points="21,-374.5 134,-374.5 "/>
<text text-anchor="middle" x="77.5" y="-362.5" font-family="Helvetica,sans-Serif" font-size="10.00" fill="#000000"> </text>
<polyline fill="none" stroke="#000000" points="21,-355.5 134,-355.5 "/>
<text text-anchor="start" x="29" y="-343.5" font-family="Helvetica,sans-Serif" font-size="10.00" fill="#000000">+ Angle()</text>
<text text-anchor="start" x="29" y="-332.5" font-family="Helvetica,sans-Serif" font-size="10.00" fill="#000000">+ Angle()</text>
<text text-anchor="start" x="29" y="-321.5" font-family="Helvetica,sans-Serif" font-size="10.00" fill="#000000">+ Angle()</text>
<text text-anchor="start" x="29" y="-310.5" font-family="Helvetica,sans-Serif" font-size="10.00" fill="#000000">+ Angle()</text>
<text text-anchor="start" x="29" y="-299.5" font-family="Helvetica,sans-Serif" font-size="10.00" fill="#000000">+ Angle()</text>
<text text-anchor="start" x="29" y="-288.5" font-family="Helvetica,sans-Serif" font-size="10.00" fill="#000000">+ operator CosSin()</text>
<text text-anchor="start" x="29" y="-277.5" font-family="Helvetica,sans-Serif" font-size="10.00" fill="#000000">+ operator double()</text>
<text text-anchor="start" x="29" y="-266.5" font-family="Helvetica,sans-Serif" font-size="10.00" fill="#000000">+ rad()</text>
<text text-anchor="start" x="29" y="-255.5" font-family="Helvetica,sans-Serif" font-size="10.00" fill="#000000">+ deg()</text>
<text text-anchor="start" x="29" y="-244.5" font-family="Helvetica,sans-Serif" font-size="10.00" fill="#000000">+ getIndex()</text>
<text text-anchor="start" x="29" y="-233.5" font-family="Helvetica,sans-Serif" font-size="10.00" fill="#000000">and 14 more...</text>
<text text-anchor="start" x="29" y="-222.5" font-family="Helvetica,sans-Serif" font-size="10.00" fill="#000000">+ resolution()</text>
<text text-anchor="start" x="29" y="-211.5" font-family="Helvetica,sans-Serif" font-size="10.00" fill="#000000">+ getIndex()</text>
<text text-anchor="start" x="29" y="-200.5" font-family="Helvetica,sans-Serif" font-size="10.00" fill="#000000">+ cos()</text>
<text text-anchor="start" x="29" y="-189.5" font-family="Helvetica,sans-Serif" font-size="10.00" fill="#000000">+ sin()</text>
<text text-anchor="start" x="29" y="-178.5" font-family="Helvetica,sans-Serif" font-size="10.00" fill="#000000">+ normalize()</text>
<text text-anchor="start" x="29" y="-167.5" font-family="Helvetica,sans-Serif" font-size="10.00" fill="#000000">+ distance()</text>
<text text-anchor="start" x="29" y="-156.5" font-family="Helvetica,sans-Serif" font-size="10.00" fill="#000000">+ average()</text>
<text text-anchor="start" x="29" y="-145.5" font-family="Helvetica,sans-Serif" font-size="10.00" fill="#000000">+ getAngle()</text>
<text text-anchor="start" x="29" y="-134.5" font-family="Helvetica,sans-Serif" font-size="10.00" fill="#000000">+ step()</text>
<text text-anchor="start" x="29" y="-123.5" font-family="Helvetica,sans-Serif" font-size="10.00" fill="#000000">+ calculateCosLut()</text>
<text text-anchor="start" x="29" y="-112.5" font-family="Helvetica,sans-Serif" font-size="10.00" fill="#000000">+ calculateSinLut()</text>
</a>
</g>
</g>
<!-- Node2&#45;&gt;Node1 -->
<g id="edge1" class="edge">
<title>Node2&#45;&gt;Node1</title>
<path fill="none" stroke="#404040" d="M77.5,-105.1924C77.5,-92.4537 77.5,-80.3877 77.5,-69.7722"/>
<polygon fill="none" stroke="#404040" points="77.5001,-69.5952 73.5,-63.5952 77.5,-57.5952 81.5,-63.5951 77.5001,-69.5952"/>
<text text-anchor="middle" x="97" y="-79" font-family="Helvetica,sans-Serif" font-size="10.00" fill="#000000"> +angle</text>
</g>
<!-- Node3 -->
<g id="node3" class="node">
<title>Node3</title>
<g id="a_node3"><a xlink:title=" ">
<polygon fill="#ffffff" stroke="#bfbfbf" points="0,-452.5 0,-509.5 155,-509.5 155,-452.5 0,-452.5"/>
<text text-anchor="middle" x="77.5" y="-497.5" font-family="Helvetica,sans-Serif" font-size="10.00" fill="#000000">std::array&lt; int, Resolution &gt;</text>
<polyline fill="none" stroke="#bfbfbf" points="0,-490.5 155,-490.5 "/>
<text text-anchor="start" x="8" y="-478.5" font-family="Helvetica,sans-Serif" font-size="10.00" fill="#000000">+ elements</text>
<polyline fill="none" stroke="#bfbfbf" points="0,-471.5 155,-471.5 "/>
<text text-anchor="middle" x="77.5" y="-459.5" font-family="Helvetica,sans-Serif" font-size="10.00" fill="#000000"> </text>
</a>
</g>
</g>
<!-- Node3&#45;&gt;Node2 -->
<g id="edge2" class="edge">
<title>Node3&#45;&gt;Node2</title>
<path fill="none" stroke="#404040" d="M77.5,-452.1484C77.5,-439.3339 77.5,-423.1708 77.5,-405.5885"/>
<polygon fill="none" stroke="#404040" points="77.5001,-405.5333 73.5,-399.5333 77.5,-393.5333 81.5,-399.5332 77.5001,-405.5333"/>
<text text-anchor="middle" x="100.5" y="-426" font-family="Helvetica,sans-Serif" font-size="10.00" fill="#000000"> +sines</text>
<text text-anchor="middle" x="100.5" y="-415" font-family="Helvetica,sans-Serif" font-size="10.00" fill="#000000">+cosines</text>
</g>
</g>
</svg>
