<?xml version="1.0" encoding="UTF-8" standalone="no"?>
<!DOCTYPE svg PUBLIC "-//W3C//DTD SVG 1.1//EN"
 "http://www.w3.org/Graphics/SVG/1.1/DTD/svg11.dtd">
<!-- Generated by graphviz version 2.40.1 (20161225.0304)
 -->
<!-- Title: FunctionPointerTimeFunctionT&lt; T &gt; Pages: 1 -->
<svg width="190pt" height="182pt"
 viewBox="0.00 0.00 190.00 182.00" xmlns="http://www.w3.org/2000/svg" xmlns:xlink="http://www.w3.org/1999/xlink">
<g id="graph0" class="graph" transform="scale(1 1) rotate(0) translate(4 178)">
<title>FunctionPointerTimeFunctionT&lt; T &gt;</title>
<polygon fill="#ffffff" stroke="transparent" points="-4,4 -4,-178 186,-178 186,4 -4,4"/>
<!-- Node2 -->
<g id="node1" class="node">
<title>Node2</title>
<g id="a_node1"><a xlink:title=" ">
<polygon fill="#bfbfbf" stroke="#000000" points="0,-.5 0,-79.5 182,-79.5 182,-.5 0,-.5"/>
<text text-anchor="start" x="8" y="-67.5" font-family="Helvetica,sans-Serif" font-size="10.00" fill="#000000">FunctionPointerTimeFunction</text>
<text text-anchor="middle" x="91" y="-56.5" font-family="Helvetica,sans-Serif" font-size="10.00" fill="#000000">T&lt; T &gt;</text>
<polyline fill="none" stroke="#000000" points="0,-49.5 182,-49.5 "/>
<text text-anchor="start" x="8" y="-37.5" font-family="Helvetica,sans-Serif" font-size="10.00" fill="#000000">+ f</text>
<polyline fill="none" stroke="#000000" points="0,-30.5 182,-30.5 "/>
<text text-anchor="start" x="8" y="-18.5" font-family="Helvetica,sans-Serif" font-size="10.00" fill="#000000">+ FunctionPointerTimeFunctionT()</text>
<text text-anchor="start" x="8" y="-7.5" font-family="Helvetica,sans-Serif" font-size="10.00" fill="#000000">+ operator()()</text>
</a>
</g>
</g>
<!-- Node3 -->
<g id="node2" class="node">
<title>Node3</title>
<g id="a_node2"><a xlink:href="structTimeFunctionT.html" target="_top" xlink:title=" ">
<polygon fill="#ffffff" stroke="#000000" points="33,-116.5 33,-173.5 149,-173.5 149,-116.5 33,-116.5"/>
<text text-anchor="middle" x="91" y="-161.5" font-family="Helvetica,sans-Serif" font-size="10.00" fill="#000000">TimeFunctionT&lt; T &gt;</text>
<polyline fill="none" stroke="#000000" points="33,-154.5 149,-154.5 "/>
<text text-anchor="middle" x="91" y="-142.5" font-family="Helvetica,sans-Serif" font-size="10.00" fill="#000000"> </text>
<polyline fill="none" stroke="#000000" points="33,-135.5 149,-135.5 "/>
<text text-anchor="start" x="41" y="-123.5" font-family="Helvetica,sans-Serif" font-size="10.00" fill="#000000">+ operator()()</text>
</a>
</g>
</g>
<!-- Node3&#45;&gt;Node2 -->
<g id="edge1" class="edge">
<title>Node3&#45;&gt;Node2</title>
<path fill="none" stroke="#191970" d="M91,-106.1156C91,-97.4889 91,-88.3353 91,-79.6773"/>
<polygon fill="none" stroke="#191970" points="87.5001,-106.3083 91,-116.3083 94.5001,-106.3083 87.5001,-106.3083"/>
</g>
</g>
</svg>
