<?xml version="1.0" encoding="UTF-8" standalone="no"?>
<!DOCTYPE svg PUBLIC "-//W3C//DTD SVG 1.1//EN"
 "http://www.w3.org/Graphics/SVG/1.1/DTD/svg11.dtd">
<!-- Generated by graphviz version 2.40.1 (20161225.0304)
 -->
<!-- Title: Square::getAngle Pages: 1 -->
<svg width="395pt" height="161pt"
 viewBox="0.00 0.00 395.00 161.00" xmlns="http://www.w3.org/2000/svg" xmlns:xlink="http://www.w3.org/1999/xlink">
<g id="graph0" class="graph" transform="scale(1 1) rotate(0) translate(4 157)">
<title>Square::getAngle</title>
<polygon fill="#ffffff" stroke="transparent" points="-4,4 -4,-157 391,-157 391,4 -4,4"/>
<!-- Node0 -->
<g id="node1" class="node">
<title>Node0</title>
<g id="a_node1"><a xlink:title="Get the average angle of the sides of the square .">
<polygon fill="#bfbfbf" stroke="#000000" points="0,-76.5 0,-95.5 100,-95.5 100,-76.5 0,-76.5"/>
<text text-anchor="middle" x="50" y="-83.5" font-family="Helvetica,sans-Serif" font-size="10.00" fill="#000000">Square::getAngle</text>
</a>
</g>
</g>
<!-- Node1 -->
<g id="node2" class="node">
<title>Node1</title>
<g id="a_node2"><a xlink:href="classAngle.html#a189165d5417fcc5489298a8c913a0e38" target="_top" xlink:title=" ">
<polygon fill="#ffffff" stroke="#000000" points="159.5,-133.5 159.5,-152.5 252.5,-152.5 252.5,-133.5 159.5,-133.5"/>
<text text-anchor="middle" x="206" y="-140.5" font-family="Helvetica,sans-Serif" font-size="10.00" fill="#000000">Angle::getIndex</text>
</a>
</g>
</g>
<!-- Node0&#45;&gt;Node1 -->
<g id="edge1" class="edge">
<title>Node0&#45;&gt;Node1</title>
<path fill="none" stroke="#191970" d="M69.469,-95.6158C86.6803,-103.8702 112.6137,-115.7128 136,-124 142.7729,-126.4001 150.0044,-128.6742 157.1535,-130.7592"/>
<polygon fill="#191970" stroke="#191970" points="156.2258,-134.1341 166.8004,-133.4794 158.1256,-127.3968 156.2258,-134.1341"/>
</g>
<!-- Node2 -->
<g id="node3" class="node">
<title>Node2</title>
<g id="a_node3"><a xlink:href="classAngle.html#a84ce9a0e2a186ada6997077fd96d6e4c" target="_top" xlink:title=" ">
<polygon fill="#ffffff" stroke="#000000" points="136,-95.5 136,-114.5 276,-114.5 276,-95.5 136,-95.5"/>
<text text-anchor="middle" x="206" y="-102.5" font-family="Helvetica,sans-Serif" font-size="10.00" fill="#000000">Angle&lt; 360 &gt;::resolution</text>
</a>
</g>
</g>
<!-- Node0&#45;&gt;Node2 -->
<g id="edge2" class="edge">
<title>Node0&#45;&gt;Node2</title>
<path fill="none" stroke="#191970" d="M100.2181,-92.1163C108.4125,-93.1143 117.0775,-94.1697 125.7794,-95.2295"/>
<polygon fill="#191970" stroke="#191970" points="125.6358,-98.7378 135.9856,-96.4726 126.4821,-91.7892 125.6358,-98.7378"/>
</g>
<!-- Node3 -->
<g id="node4" class="node">
<title>Node3</title>
<g id="a_node4"><a xlink:href="classAngle.html#a593164c63d4e2eedc8b473419c179f77" target="_top" xlink:title=" ">
<polygon fill="#ffffff" stroke="#000000" points="140.5,-57.5 140.5,-76.5 271.5,-76.5 271.5,-57.5 140.5,-57.5"/>
<text text-anchor="middle" x="206" y="-64.5" font-family="Helvetica,sans-Serif" font-size="10.00" fill="#000000">Angle&lt; 360 &gt;::average</text>
</a>
</g>
</g>
<!-- Node0&#45;&gt;Node3 -->
<g id="edge3" class="edge">
<title>Node0&#45;&gt;Node3</title>
<path fill="none" stroke="#191970" d="M100.2181,-79.8837C109.8376,-78.7121 120.1056,-77.4615 130.3206,-76.2174"/>
<polygon fill="#191970" stroke="#191970" points="130.9883,-79.662 140.4918,-74.9786 130.1419,-72.7133 130.9883,-79.662"/>
</g>
<!-- Node4 -->
<g id="node5" class="node">
<title>Node4</title>
<g id="a_node5"><a xlink:href="Array_8hpp.html#a715393c15ab134b1f9566fe20d85d390" target="_top" xlink:title=" ">
<polygon fill="#ffffff" stroke="#000000" points="187,-19.5 187,-38.5 225,-38.5 225,-19.5 187,-19.5"/>
<text text-anchor="middle" x="206" y="-26.5" font-family="Helvetica,sans-Serif" font-size="10.00" fill="#000000">sum</text>
</a>
</g>
</g>
<!-- Node0&#45;&gt;Node4 -->
<g id="edge4" class="edge">
<title>Node0&#45;&gt;Node4</title>
<path fill="none" stroke="#191970" d="M69.469,-76.3842C86.6803,-68.1298 112.6137,-56.2872 136,-48 149.1675,-43.334 164.0682,-39.1439 176.7271,-35.8936"/>
<polygon fill="#191970" stroke="#191970" points="177.8905,-39.2107 186.7461,-33.3945 176.1963,-32.4188 177.8905,-39.2107"/>
</g>
<!-- Node5 -->
<g id="node6" class="node">
<title>Node5</title>
<g id="a_node6"><a xlink:href="structArray.html#ab4b771d23fc515ab924670f80316739e" target="_top" xlink:title=" ">
<polygon fill="#ffffff" stroke="#000000" points="312,-38.5 312,-57.5 387,-57.5 387,-38.5 312,-38.5"/>
<text text-anchor="middle" x="349.5" y="-45.5" font-family="Helvetica,sans-Serif" font-size="10.00" fill="#000000">Array::begin</text>
</a>
</g>
</g>
<!-- Node4&#45;&gt;Node5 -->
<g id="edge5" class="edge">
<title>Node4&#45;&gt;Node5</title>
<path fill="none" stroke="#191970" d="M225.0557,-31.5231C244.507,-34.0985 275.4735,-38.1986 301.6492,-41.6643"/>
<polygon fill="#191970" stroke="#191970" points="301.4088,-45.163 311.7817,-43.0059 302.3276,-38.2235 301.4088,-45.163"/>
</g>
<!-- Node6 -->
<g id="node7" class="node">
<title>Node6</title>
<g id="a_node7"><a xlink:href="structArray.html#a325651933815bbdea330a2c576c274cd" target="_top" xlink:title=" ">
<polygon fill="#ffffff" stroke="#000000" points="316.5,-.5 316.5,-19.5 382.5,-19.5 382.5,-.5 316.5,-.5"/>
<text text-anchor="middle" x="349.5" y="-7.5" font-family="Helvetica,sans-Serif" font-size="10.00" fill="#000000">Array::end</text>
</a>
</g>
</g>
<!-- Node4&#45;&gt;Node6 -->
<g id="edge6" class="edge">
<title>Node4&#45;&gt;Node6</title>
<path fill="none" stroke="#191970" d="M225.0557,-26.4769C245.6747,-23.7469 279.2331,-19.3036 306.308,-15.7188"/>
<polygon fill="#191970" stroke="#191970" points="306.8728,-19.1747 316.3268,-14.3923 305.9539,-12.2352 306.8728,-19.1747"/>
</g>
</g>
</svg>
