<?xml version="1.0" encoding="UTF-8" standalone="no"?>
<!DOCTYPE svg PUBLIC "-//W3C//DTD SVG 1.1//EN"
 "http://www.w3.org/Graphics/SVG/1.1/DTD/svg11.dtd">
<!-- Generated by graphviz version 2.40.1 (20161225.0304)
 -->
<!-- Title: CosSin::opposite Pages: 1 -->
<svg width="781pt" height="97pt"
 viewBox="0.00 0.00 781.00 96.50" xmlns="http://www.w3.org/2000/svg" xmlns:xlink="http://www.w3.org/1999/xlink">
<g id="graph0" class="graph" transform="scale(1 1) rotate(0) translate(4 92.5)">
<title>CosSin::opposite</title>
<polygon fill="#ffffff" stroke="transparent" points="-4,4 -4,-92.5 777,-92.5 777,4 -4,4"/>
<!-- Node21 -->
<g id="node1" class="node">
<title>Node21</title>
<g id="a_node1"><a xlink:title=" ">
<polygon fill="#bfbfbf" stroke="#000000" points="675,-41.5 675,-60.5 773,-60.5 773,-41.5 675,-41.5"/>
<text text-anchor="middle" x="724" y="-48.5" font-family="Helvetica,sans-Serif" font-size="10.00" fill="#000000">CosSin::opposite</text>
</a>
</g>
</g>
<!-- Node22 -->
<g id="node2" class="node">
<title>Node22</title>
<g id="a_node2"><a xlink:href="classGridFinder.html#a187e8c44c7f99237645b49dc2c6745c8" target="_top" xlink:title="Find the middle of a line.">
<polygon fill="#ffffff" stroke="#000000" points="519,-41.5 519,-60.5 639,-60.5 639,-41.5 519,-41.5"/>
<text text-anchor="middle" x="579" y="-48.5" font-family="Helvetica,sans-Serif" font-size="10.00" fill="#000000">GridFinder::getMiddle</text>
</a>
</g>
</g>
<!-- Node21&#45;&gt;Node22 -->
<g id="edge1" class="edge">
<title>Node21&#45;&gt;Node22</title>
<path fill="none" stroke="#191970" d="M664.7466,-51C656.2869,-51 647.5781,-51 639.1023,-51"/>
<polygon fill="#191970" stroke="#191970" points="664.9096,-54.5001 674.9096,-51 664.9096,-47.5001 664.9096,-54.5001"/>
</g>
<!-- Node23 -->
<g id="node3" class="node">
<title>Node23</title>
<g id="a_node3"><a xlink:href="classGridFinder.html#a504ddc8af3a0cc68b68de387ac1a90ea" target="_top" xlink:title="In exceptional cases, we might want to find the middle of a line in a point that happens to lie at th...">
<polygon fill="#ffffff" stroke="#000000" points="340,-58 340,-88 483,-88 483,-58 340,-58"/>
<text text-anchor="start" x="348" y="-76" font-family="Helvetica,sans-Serif" font-size="10.00" fill="#000000">GridFinder::getMiddleWith</text>
<text text-anchor="middle" x="411.5" y="-65" font-family="Helvetica,sans-Serif" font-size="10.00" fill="#000000">Retries</text>
</a>
</g>
</g>
<!-- Node22&#45;&gt;Node23 -->
<g id="edge2" class="edge">
<title>Node22&#45;&gt;Node23</title>
<path fill="none" stroke="#191970" d="M508.3967,-60.2733C499.9975,-61.3764 491.4174,-62.5034 483.0057,-63.6082"/>
<polygon fill="#191970" stroke="#191970" points="509.0696,-63.715 518.5287,-58.9425 508.158,-56.7746 509.0696,-63.715"/>
</g>
<!-- Node25 -->
<g id="node5" class="node">
<title>Node25</title>
<g id="a_node5"><a xlink:href="classGridFinder.html#a9050aab45d10d2c2d4859af19b4987b4" target="_top" xlink:title="Check if there could be a valid line going through the given point, and if so, find and return the ac...">
<polygon fill="#ffffff" stroke="#000000" points="351,-19.5 351,-38.5 472,-38.5 472,-19.5 351,-19.5"/>
<text text-anchor="middle" x="411.5" y="-26.5" font-family="Helvetica,sans-Serif" font-size="10.00" fill="#000000">GridFinder::checkLine</text>
</a>
</g>
</g>
<!-- Node22&#45;&gt;Node25 -->
<g id="edge4" class="edge">
<title>Node22&#45;&gt;Node25</title>
<path fill="none" stroke="#191970" d="M508.4935,-41.7394C496.4141,-40.1529 483.9577,-38.5168 472.1638,-36.9678"/>
<polygon fill="#191970" stroke="#191970" points="508.158,-45.2254 518.5287,-43.0575 509.0696,-38.285 508.158,-45.2254"/>
</g>
<!-- Node24 -->
<g id="node4" class="node">
<title>Node24</title>
<g id="a_node4"><a xlink:href="classGridFinder.html#ac78760540b520bc08f716ef77127f1fc" target="_top" xlink:title="Get an estimate of the line through a given pixel. Find an estimate of the slope, then use that to de...">
<polygon fill="#ffffff" stroke="#000000" points="173,-58 173,-88 301,-88 301,-58 173,-58"/>
<text text-anchor="start" x="181" y="-76" font-family="Helvetica,sans-Serif" font-size="10.00" fill="#000000">GridFinder::getFirstLine</text>
<text text-anchor="middle" x="237" y="-65" font-family="Helvetica,sans-Serif" font-size="10.00" fill="#000000">Estimate</text>
</a>
</g>
</g>
<!-- Node23&#45;&gt;Node24 -->
<g id="edge3" class="edge">
<title>Node23&#45;&gt;Node24</title>
<path fill="none" stroke="#191970" d="M329.5054,-73C319.9971,-73 310.4052,-73 301.1837,-73"/>
<polygon fill="#191970" stroke="#191970" points="329.7688,-76.5001 339.7688,-73 329.7687,-69.5001 329.7688,-76.5001"/>
</g>
<!-- Node26 -->
<g id="node6" class="node">
<title>Node26</title>
<g id="a_node6"><a xlink:href="classGridFinder.html#a79b62fc48a9db94ad0530e76ed2c3306" target="_top" xlink:title="Follow the given line to find the line perpendicular to it. Move along the line for minDistance pixel...">
<polygon fill="#ffffff" stroke="#000000" points="170,-19.5 170,-38.5 304,-38.5 304,-19.5 170,-19.5"/>
<text text-anchor="middle" x="237" y="-26.5" font-family="Helvetica,sans-Serif" font-size="10.00" fill="#000000">GridFinder::findNextLine</text>
</a>
</g>
</g>
<!-- Node25&#45;&gt;Node26 -->
<g id="edge5" class="edge">
<title>Node25&#45;&gt;Node26</title>
<path fill="none" stroke="#191970" d="M340.9271,-29C328.8358,-29 316.3005,-29 304.2976,-29"/>
<polygon fill="#191970" stroke="#191970" points="340.9581,-32.5001 350.9581,-29 340.9581,-25.5001 340.9581,-32.5001"/>
</g>
<!-- Node27 -->
<g id="node7" class="node">
<title>Node27</title>
<g id="a_node7"><a xlink:href="classGridFinder.html#ad75180aa82b12c7054e0015adc44a331" target="_top" xlink:title="Equivalent to #findNextLine(LineResult,bool,uint,uint) but also supports optional LineResults.">
<polygon fill="#ffffff" stroke="#000000" points="0,-38.5 0,-57.5 134,-57.5 134,-38.5 0,-38.5"/>
<text text-anchor="middle" x="67" y="-45.5" font-family="Helvetica,sans-Serif" font-size="10.00" fill="#000000">GridFinder::findNextLine</text>
</a>
</g>
</g>
<!-- Node26&#45;&gt;Node27 -->
<g id="edge6" class="edge">
<title>Node26&#45;&gt;Node27</title>
<path fill="none" stroke="#191970" d="M159.854,-37.6222C151.3121,-38.5769 142.6634,-39.5435 134.2572,-40.483"/>
<polygon fill="#191970" stroke="#191970" points="160.2622,-41.0985 169.8115,-36.5093 159.4846,-34.1418 160.2622,-41.0985"/>
</g>
<!-- Node28 -->
<g id="node8" class="node">
<title>Node28</title>
<g id="a_node8"><a xlink:href="classGridFinder.html#a3104d4fe44099faf5179674ecb55cb52" target="_top" xlink:title="This is the main function: it looks for a complete square of the grid, as close to the center of the ...">
<polygon fill="#ffffff" stroke="#000000" points="5,-.5 5,-19.5 129,-19.5 129,-.5 5,-.5"/>
<text text-anchor="middle" x="67" y="-7.5" font-family="Helvetica,sans-Serif" font-size="10.00" fill="#000000">GridFinder::findSquare</text>
</a>
</g>
</g>
<!-- Node26&#45;&gt;Node28 -->
<g id="edge7" class="edge">
<title>Node26&#45;&gt;Node28</title>
<path fill="none" stroke="#191970" d="M159.624,-20.3521C149.3644,-19.2054 138.9554,-18.0421 129.0015,-16.9296"/>
<polygon fill="#191970" stroke="#191970" points="159.4846,-23.8582 169.8115,-21.4907 160.2622,-16.9015 159.4846,-23.8582"/>
</g>
</g>
</svg>
