<?xml version="1.0" encoding="UTF-8" standalone="no"?>
<!DOCTYPE svg PUBLIC "-//W3C//DTD SVG 1.1//EN"
 "http://www.w3.org/Graphics/SVG/1.1/DTD/svg11.dtd">
<!-- Generated by graphviz version 2.40.1 (20161225.0304)
 -->
<!-- Title: QRCommStruct::getQRState Pages: 1 -->
<svg width="594pt" height="66pt"
 viewBox="0.00 0.00 594.00 66.00" xmlns="http://www.w3.org/2000/svg" xmlns:xlink="http://www.w3.org/1999/xlink">
<g id="graph0" class="graph" transform="scale(1 1) rotate(0) translate(4 62)">
<title>QRCommStruct::getQRState</title>
<polygon fill="#ffffff" stroke="transparent" points="-4,4 -4,-62 590,-62 590,4 -4,4"/>
<!-- Node1 -->
<g id="node1" class="node">
<title>Node1</title>
<g id="a_node1"><a xlink:title="Get the current state of the QR/Crypto FSM.">
<polygon fill="#bfbfbf" stroke="#000000" points="434,-19.5 434,-38.5 586,-38.5 586,-19.5 434,-19.5"/>
<text text-anchor="middle" x="510" y="-26.5" font-family="Helvetica,sans-Serif" font-size="10.00" fill="#000000">QRCommStruct::getQRState</text>
</a>
</g>
</g>
<!-- Node2 -->
<g id="node2" class="node">
<title>Node2</title>
<g id="a_node2"><a xlink:href="structQRCommStruct.html#ac39d369524dee12d352f73186a24d057" target="_top" xlink:title="Set the new target position, and change the state to NEW_TARGET.">
<polygon fill="#ffffff" stroke="#000000" points="217,-38.5 217,-57.5 398,-57.5 398,-38.5 217,-38.5"/>
<text text-anchor="middle" x="307.5" y="-45.5" font-family="Helvetica,sans-Serif" font-size="10.00" fill="#000000">QRCommStruct::setTargetPosition</text>
</a>
</g>
</g>
<!-- Node1&#45;&gt;Node2 -->
<g id="edge1" class="edge">
<title>Node1&#45;&gt;Node2</title>
<path fill="none" stroke="#191970" d="M423.5187,-37.1143C415.0754,-37.9065 406.4921,-38.7118 398.0105,-39.5077"/>
<polygon fill="#191970" stroke="#191970" points="424.1027,-40.575 433.732,-36.156 423.4487,-33.6056 424.1027,-40.575"/>
</g>
<!-- Node4 -->
<g id="node4" class="node">
<title>Node4</title>
<g id="a_node4"><a xlink:href="structQRCommStruct.html#a07e63598d31e1de9a92344d8f88f89f9" target="_top" xlink:title="Change the state to QR_READING_BUSY.">
<polygon fill="#ffffff" stroke="#000000" points="219.5,-.5 219.5,-19.5 395.5,-19.5 395.5,-.5 219.5,-.5"/>
<text text-anchor="middle" x="307.5" y="-7.5" font-family="Helvetica,sans-Serif" font-size="10.00" fill="#000000">QRCommStruct::setQRStateBusy</text>
</a>
</g>
</g>
<!-- Node1&#45;&gt;Node4 -->
<g id="edge3" class="edge">
<title>Node1&#45;&gt;Node4</title>
<path fill="none" stroke="#191970" d="M423.7168,-20.9043C414.4105,-20.0311 404.9318,-19.1417 395.6044,-18.2666"/>
<polygon fill="#191970" stroke="#191970" points="423.4487,-24.3944 433.732,-21.844 424.1027,-17.425 423.4487,-24.3944"/>
</g>
<!-- Node3 -->
<g id="node3" class="node">
<title>Node3</title>
<g id="a_node3"><a xlink:href="structQRCommStruct.html#a8bf578081961b6b39e6bc1ed249e0f48" target="_top" xlink:title=" ">
<polygon fill="#ffffff" stroke="#000000" points="0,-38.5 0,-57.5 181,-57.5 181,-38.5 0,-38.5"/>
<text text-anchor="middle" x="90.5" y="-45.5" font-family="Helvetica,sans-Serif" font-size="10.00" fill="#000000">QRCommStruct::setTargetPosition</text>
</a>
</g>
</g>
<!-- Node2&#45;&gt;Node3 -->
<g id="edge2" class="edge">
<title>Node2&#45;&gt;Node3</title>
<path fill="none" stroke="#191970" d="M206.5001,-48C198.0777,-48 189.5947,-48 181.2555,-48"/>
<polygon fill="#191970" stroke="#191970" points="206.7298,-51.5001 216.7298,-48 206.7298,-44.5001 206.7298,-51.5001"/>
</g>
</g>
</svg>
