<?xml version="1.0" encoding="UTF-8" standalone="no"?>
<!DOCTYPE svg PUBLIC "-//W3C//DTD SVG 1.1//EN"
 "http://www.w3.org/Graphics/SVG/1.1/DTD/svg11.dtd">
<!-- Generated by graphviz version 2.40.1 (20161225.0304)
 -->
<!-- Title: Array::begin Pages: 1 -->
<svg width="590pt" height="317pt"
 viewBox="0.00 0.00 590.00 316.50" xmlns="http://www.w3.org/2000/svg" xmlns:xlink="http://www.w3.org/1999/xlink">
<g id="graph0" class="graph" transform="scale(1 1) rotate(0) translate(4 312.5)">
<title>Array::begin</title>
<polygon fill="#ffffff" stroke="transparent" points="-4,4 -4,-312.5 586,-312.5 586,4 -4,4"/>
<!-- Node1 -->
<g id="node1" class="node">
<title>Node1</title>
<g id="a_node1"><a xlink:title=" ">
<polygon fill="#bfbfbf" stroke="#000000" points="507,-133.5 507,-152.5 582,-152.5 582,-133.5 507,-133.5"/>
<text text-anchor="middle" x="544.5" y="-140.5" font-family="Helvetica,sans-Serif" font-size="10.00" fill="#000000">Array::begin</text>
</a>
</g>
</g>
<!-- Node2 -->
<g id="node2" class="node">
<title>Node2</title>
<g id="a_node2"><a xlink:href="structArray.html#a25c98a35319a7b390d9701e64876c826" target="_top" xlink:title=" ">
<polygon fill="#ffffff" stroke="#000000" points="366,-278 366,-308 471,-308 471,-278 366,-278"/>
<text text-anchor="start" x="374" y="-296" font-family="Helvetica,sans-Serif" font-size="10.00" fill="#000000">Array&lt; float, 2 &gt;::</text>
<text text-anchor="middle" x="418.5" y="-285" font-family="Helvetica,sans-Serif" font-size="10.00" fill="#000000">fromCppArray</text>
</a>
</g>
</g>
<!-- Node1&#45;&gt;Node2 -->
<g id="edge1" class="edge">
<title>Node1&#45;&gt;Node2</title>
<path fill="none" stroke="#191970" d="M537.7095,-161.9874C527.2035,-188.9793 504.645,-238.5403 471,-269 467.2853,-272.363 463.0189,-275.3279 458.5581,-277.9219"/>
<polygon fill="#191970" stroke="#191970" points="541.0222,-163.1213 541.2539,-152.529 534.4674,-160.6649 541.0222,-163.1213"/>
</g>
<!-- Node3 -->
<g id="node3" class="node">
<title>Node3</title>
<g id="a_node3"><a xlink:href="structArray.html#a4b18562bcf9a1d33dc29cb0ab1ba2aa9" target="_top" xlink:title=" ">
<polygon fill="#ffffff" stroke="#000000" points="366,-229 366,-259 471,-259 471,-229 366,-229"/>
<text text-anchor="start" x="374" y="-247" font-family="Helvetica,sans-Serif" font-size="10.00" fill="#000000">Array&lt; float, 2 &gt;::</text>
<text text-anchor="middle" x="418.5" y="-236" font-family="Helvetica,sans-Serif" font-size="10.00" fill="#000000">fromCArray</text>
</a>
</g>
</g>
<!-- Node1&#45;&gt;Node3 -->
<g id="edge2" class="edge">
<title>Node1&#45;&gt;Node3</title>
<path fill="none" stroke="#191970" d="M530.4415,-160.8596C516.6535,-177.504 494.3529,-202.2126 471,-219 465.9178,-222.6534 460.2179,-226.0035 454.4977,-228.983"/>
<polygon fill="#191970" stroke="#191970" points="533.2552,-162.9467 536.8362,-152.9754 527.8186,-158.5372 533.2552,-162.9467"/>
</g>
<!-- Node4 -->
<g id="node4" class="node">
<title>Node4</title>
<g id="a_node4"><a xlink:href="Array_8hpp.html#ab8a62286cf94935432fb15208c352d31" target="_top" xlink:title=" ">
<polygon fill="#ffffff" stroke="#000000" points="393.5,-190.5 393.5,-209.5 443.5,-209.5 443.5,-190.5 393.5,-190.5"/>
<text text-anchor="middle" x="418.5" y="-197.5" font-family="Helvetica,sans-Serif" font-size="10.00" fill="#000000">isfinite</text>
</a>
</g>
</g>
<!-- Node1&#45;&gt;Node4 -->
<g id="edge3" class="edge">
<title>Node1&#45;&gt;Node4</title>
<path fill="none" stroke="#191970" d="M518.6004,-157.438C504.6994,-164.9185 487.1478,-173.9394 471,-181 462.2076,-184.8445 452.3641,-188.557 443.5974,-191.6646"/>
<polygon fill="#191970" stroke="#191970" points="520.4708,-160.4049 527.5789,-152.5483 517.1228,-154.2574 520.4708,-160.4049"/>
</g>
<!-- Node6 -->
<g id="node6" class="node">
<title>Node6</title>
<g id="a_node6"><a xlink:href="Array_8hpp.html#a715393c15ab134b1f9566fe20d85d390" target="_top" xlink:title=" ">
<polygon fill="#ffffff" stroke="#000000" points="399.5,-152.5 399.5,-171.5 437.5,-171.5 437.5,-152.5 399.5,-152.5"/>
<text text-anchor="middle" x="418.5" y="-159.5" font-family="Helvetica,sans-Serif" font-size="10.00" fill="#000000">sum</text>
</a>
</g>
</g>
<!-- Node1&#45;&gt;Node6 -->
<g id="edge5" class="edge">
<title>Node1&#45;&gt;Node6</title>
<path fill="none" stroke="#191970" d="M496.5427,-150.2317C476.0401,-153.3233 453.28,-156.7554 437.656,-159.1114"/>
<polygon fill="#191970" stroke="#191970" points="497.3295,-153.6527 506.6958,-148.7006 496.2857,-146.7309 497.3295,-153.6527"/>
</g>
<!-- Node13 -->
<g id="node13" class="node">
<title>Node13</title>
<g id="a_node13"><a xlink:href="ArrayHelpers_8hpp.html#a302eae526b10a18783bc2623ee9fe646" target="_top" xlink:title="Generate an array where the first value is given, and the subsequent values are calculated as the pre...">
<polygon fill="#ffffff" stroke="#000000" points="372.5,-114.5 372.5,-133.5 464.5,-133.5 464.5,-114.5 372.5,-114.5"/>
<text text-anchor="middle" x="418.5" y="-121.5" font-family="Helvetica,sans-Serif" font-size="10.00" fill="#000000">generatedArray</text>
</a>
</g>
</g>
<!-- Node1&#45;&gt;Node13 -->
<g id="edge13" class="edge">
<title>Node1&#45;&gt;Node13</title>
<path fill="none" stroke="#191970" d="M496.5159,-135.7643C486.0963,-134.1931 475.0949,-132.5341 464.7441,-130.9733"/>
<polygon fill="#191970" stroke="#191970" points="496.2857,-139.2691 506.6958,-137.2994 497.3295,-132.3473 496.2857,-139.2691"/>
</g>
<!-- Node14 -->
<g id="node14" class="node">
<title>Node14</title>
<g id="a_node14"><a xlink:href="ArrayHelpers_8hpp.html#a021512d0f49f5f3ac08ebac9bb547cfc" target="_top" xlink:title=" ">
<polygon fill="#ffffff" stroke="#000000" points="385,-76.5 385,-95.5 452,-95.5 452,-76.5 385,-76.5"/>
<text text-anchor="middle" x="418.5" y="-83.5" font-family="Helvetica,sans-Serif" font-size="10.00" fill="#000000">filledArray</text>
</a>
</g>
</g>
<!-- Node1&#45;&gt;Node14 -->
<g id="edge14" class="edge">
<title>Node1&#45;&gt;Node14</title>
<path fill="none" stroke="#191970" d="M518.6004,-128.562C504.6994,-121.0815 487.1478,-112.0606 471,-105 463.3621,-101.6603 454.9311,-98.4203 447.1018,-95.5898"/>
<polygon fill="#191970" stroke="#191970" points="517.1228,-131.7426 527.5789,-133.4517 520.4708,-125.5951 517.1228,-131.7426"/>
</g>
<!-- Node15 -->
<g id="node15" class="node">
<title>Node15</title>
<g id="a_node15"><a xlink:href="MatrixHelpers_8hpp.html#a97dc20f082415c3707e56be3bec40f33" target="_top" xlink:title=" ">
<polygon fill="#ffffff" stroke="#000000" points="380,-38.5 380,-57.5 457,-57.5 457,-38.5 380,-38.5"/>
<text text-anchor="middle" x="418.5" y="-45.5" font-family="Helvetica,sans-Serif" font-size="10.00" fill="#000000">filledTMatrix</text>
</a>
</g>
</g>
<!-- Node1&#45;&gt;Node15 -->
<g id="edge15" class="edge">
<title>Node1&#45;&gt;Node15</title>
<path fill="none" stroke="#191970" d="M531.4522,-125.4453C517.9856,-108.4172 495.5343,-82.8882 471,-67 465.2234,-63.2591 458.6127,-60.1318 452.075,-57.5654"/>
<polygon fill="#191970" stroke="#191970" points="528.7643,-127.6915 537.6388,-133.479 534.3104,-123.4205 528.7643,-127.6915"/>
</g>
<!-- Node16 -->
<g id="node16" class="node">
<title>Node16</title>
<g id="a_node16"><a xlink:href="MatrixHelpers_8hpp.html#a0143e59b28ca53207a87f0a2d0873bf4" target="_top" xlink:title=" ">
<polygon fill="#ffffff" stroke="#000000" points="383,-.5 383,-19.5 454,-19.5 454,-.5 383,-.5"/>
<text text-anchor="middle" x="418.5" y="-7.5" font-family="Helvetica,sans-Serif" font-size="10.00" fill="#000000">filledMatrix</text>
</a>
</g>
</g>
<!-- Node1&#45;&gt;Node16 -->
<g id="edge16" class="edge">
<title>Node1&#45;&gt;Node16</title>
<path fill="none" stroke="#191970" d="M536.7622,-123.6956C525.7437,-98.5213 503.2325,-54.6776 471,-29 465.9962,-25.0138 460.083,-21.8201 454.0618,-19.2753"/>
<polygon fill="#191970" stroke="#191970" points="533.6712,-125.3742 540.7756,-133.2341 540.1234,-122.6593 533.6712,-125.3742"/>
</g>
<!-- Node5 -->
<g id="node5" class="node">
<title>Node5</title>
<g id="a_node5"><a xlink:href="structPoint.html#a0eb0afd31cfdda9c8a11d31ef42ad53f" target="_top" xlink:title=" ">
<polygon fill="#ffffff" stroke="#000000" points="217,-228.5 217,-247.5 330,-247.5 330,-228.5 217,-228.5"/>
<text text-anchor="middle" x="273.5" y="-235.5" font-family="Helvetica,sans-Serif" font-size="10.00" fill="#000000">Point::operator bool</text>
</a>
</g>
</g>
<!-- Node4&#45;&gt;Node5 -->
<g id="edge4" class="edge">
<title>Node4&#45;&gt;Node5</title>
<path fill="none" stroke="#191970" d="M383.5106,-209.1696C361.2294,-215.0089 332.4245,-222.5577 309.8791,-228.4662"/>
<polygon fill="#191970" stroke="#191970" points="384.4569,-212.5399 393.2429,-206.6191 382.6823,-205.7686 384.4569,-212.5399"/>
</g>
<!-- Node7 -->
<g id="node7" class="node">
<title>Node7</title>
<g id="a_node7"><a xlink:href="structSquare.html#a12c1f0ee0bd30021a5a7d7344538fef9" target="_top" xlink:title="Get the average angle of the sides of the square .">
<polygon fill="#ffffff" stroke="#000000" points="223.5,-190.5 223.5,-209.5 323.5,-209.5 323.5,-190.5 223.5,-190.5"/>
<text text-anchor="middle" x="273.5" y="-197.5" font-family="Helvetica,sans-Serif" font-size="10.00" fill="#000000">Square::getAngle</text>
</a>
</g>
</g>
<!-- Node6&#45;&gt;Node7 -->
<g id="edge6" class="edge">
<title>Node6&#45;&gt;Node7</title>
<path fill="none" stroke="#191970" d="M389.4268,-169.6192C366.5255,-175.6209 334.4697,-184.0217 309.8696,-190.4687"/>
<polygon fill="#191970" stroke="#191970" points="390.4591,-172.9669 399.2451,-167.0461 388.6845,-166.1956 390.4591,-172.9669"/>
</g>
<!-- Node9 -->
<g id="node9" class="node">
<title>Node9</title>
<g id="a_node9"><a xlink:href="HouseholderQR_8hpp.html#a16f7547f23439d1eda0fcbde69451ef9" target="_top" xlink:title=" ">
<polygon fill="#ffffff" stroke="#000000" points="228,-152.5 228,-171.5 319,-171.5 319,-152.5 228,-152.5"/>
<text text-anchor="middle" x="273.5" y="-159.5" font-family="Helvetica,sans-Serif" font-size="10.00" fill="#000000">householderQR</text>
</a>
</g>
</g>
<!-- Node6&#45;&gt;Node9 -->
<g id="edge8" class="edge">
<title>Node6&#45;&gt;Node9</title>
<path fill="none" stroke="#191970" d="M389.1473,-162C369.0493,-162 341.998,-162 319.1115,-162"/>
<polygon fill="#191970" stroke="#191970" points="389.2452,-165.5001 399.2451,-162 389.2451,-158.5001 389.2452,-165.5001"/>
</g>
<!-- Node10 -->
<g id="node10" class="node">
<title>Node10</title>
<g id="a_node10"><a xlink:href="LeastSquares_8hpp.html#a3e86962f655361a684f770b14c9fe1e2" target="_top" xlink:title=" ">
<polygon fill="#ffffff" stroke="#000000" points="70.5,-133.5 70.5,-152.5 178.5,-152.5 178.5,-133.5 70.5,-133.5"/>
<text text-anchor="middle" x="124.5" y="-140.5" font-family="Helvetica,sans-Serif" font-size="10.00" fill="#000000">solveLeastSquares</text>
</a>
</g>
</g>
<!-- Node6&#45;&gt;Node10 -->
<g id="edge11" class="edge">
<title>Node6&#45;&gt;Node10</title>
<path fill="none" stroke="#191970" d="M389.396,-154.1278C372.2517,-149.8997 350.0586,-145.1289 330,-143 278.9119,-137.5777 220.2765,-138.2555 178.749,-139.8864"/>
<polygon fill="#191970" stroke="#191970" points="388.7997,-157.5875 399.354,-156.6617 390.526,-150.8037 388.7997,-157.5875"/>
</g>
<!-- Node12 -->
<g id="node12" class="node">
<title>Node12</title>
<g id="a_node12"><a xlink:href="Matrix_8hpp.html#ac673061bc4ac7f137a7fa81342f315f8" target="_top" xlink:title=" ">
<polygon fill="#ffffff" stroke="#000000" points="242,-76.5 242,-95.5 305,-95.5 305,-76.5 242,-76.5"/>
<text text-anchor="middle" x="273.5" y="-83.5" font-family="Helvetica,sans-Serif" font-size="10.00" fill="#000000">operator*</text>
</a>
</g>
</g>
<!-- Node6&#45;&gt;Node12 -->
<g id="edge12" class="edge">
<title>Node6&#45;&gt;Node12</title>
<path fill="none" stroke="#191970" d="M389.5507,-153.822C381.623,-150.9782 373.2286,-147.3783 366,-143 347.4348,-131.7552 348.2522,-121.7459 330,-110 321.1277,-104.2904 310.6679,-99.4076 301.1753,-95.5659"/>
<polygon fill="#191970" stroke="#191970" points="388.6266,-157.2028 399.2199,-157.0215 390.8257,-150.5572 388.6266,-157.2028"/>
</g>
<!-- Node8 -->
<g id="node8" class="node">
<title>Node8</title>
<g id="a_node8"><a xlink:href="Grid-Finder_8module_8hpp.html#a6849f4dcdb45a7aaadcda6439233d376" target="_top" xlink:title=" ">
<polygon fill="#ffffff" stroke="#000000" points="68,-190.5 68,-209.5 181,-209.5 181,-190.5 68,-190.5"/>
<text text-anchor="middle" x="124.5" y="-197.5" font-family="Helvetica,sans-Serif" font-size="10.00" fill="#000000">PYBIND11_MODULE</text>
</a>
</g>
</g>
<!-- Node7&#45;&gt;Node8 -->
<g id="edge7" class="edge">
<title>Node7&#45;&gt;Node8</title>
<path fill="none" stroke="#191970" d="M213.3954,-200C202.7246,-200 191.6441,-200 181.0753,-200"/>
<polygon fill="#191970" stroke="#191970" points="213.4707,-203.5001 223.4707,-200 213.4706,-196.5001 213.4707,-203.5001"/>
</g>
<!-- Node9&#45;&gt;Node10 -->
<g id="edge9" class="edge">
<title>Node9&#45;&gt;Node10</title>
<path fill="none" stroke="#191970" d="M217.8933,-154.9092C205.0553,-153.2722 191.4159,-151.5329 178.6414,-149.9039"/>
<polygon fill="#191970" stroke="#191970" points="217.623,-158.403 227.9855,-156.1961 218.5085,-151.4592 217.623,-158.403"/>
</g>
<!-- Node11 -->
<g id="node11" class="node">
<title>Node11</title>
<g id="a_node11"><a xlink:href="LeastSquares_8hpp.html#abc455a395ab6414f5312b56e5b479195" target="_top" xlink:title=" ">
<polygon fill="#ffffff" stroke="#000000" points="0,-133.5 0,-152.5 32,-152.5 32,-133.5 0,-133.5"/>
<text text-anchor="middle" x="16" y="-140.5" font-family="Helvetica,sans-Serif" font-size="10.00" fill="#000000">inv</text>
</a>
</g>
</g>
<!-- Node10&#45;&gt;Node11 -->
<g id="edge10" class="edge">
<title>Node10&#45;&gt;Node11</title>
<path fill="none" stroke="#191970" d="M60.1409,-143C49.7072,-143 39.7906,-143 32.0095,-143"/>
<polygon fill="#191970" stroke="#191970" points="60.25,-146.5001 70.25,-143 60.25,-139.5001 60.25,-146.5001"/>
</g>
</g>
</svg>
