<?xml version="1.0" encoding="UTF-8" standalone="no"?>
<!DOCTYPE svg PUBLIC "-//W3C//DTD SVG 1.1//EN"
 "http://www.w3.org/Graphics/SVG/1.1/DTD/svg11.dtd">
<!-- Generated by graphviz version 2.40.1 (20161225.0304)
 -->
<!-- Title: AccessControlledSharedStruct::isDoneWriting Pages: 1 -->
<svg width="370pt" height="39pt"
 viewBox="0.00 0.00 370.00 39.00" xmlns="http://www.w3.org/2000/svg" xmlns:xlink="http://www.w3.org/1999/xlink">
<g id="graph0" class="graph" transform="scale(1 1) rotate(0) translate(4 35)">
<title>AccessControlledSharedStruct::isDoneWriting</title>
<polygon fill="#ffffff" stroke="transparent" points="-4,4 -4,-35 366,-35 366,4 -4,4"/>
<!-- Node4 -->
<g id="node1" class="node">
<title>Node4</title>
<g id="a_node1"><a xlink:title="Check if the other party is done writing.">
<polygon fill="#bfbfbf" stroke="#000000" points="199,-.5 199,-30.5 362,-30.5 362,-.5 199,-.5"/>
<text text-anchor="start" x="207" y="-18.5" font-family="Helvetica,sans-Serif" font-size="10.00" fill="#000000">AccessControlledSharedStruct</text>
<text text-anchor="middle" x="280.5" y="-7.5" font-family="Helvetica,sans-Serif" font-size="10.00" fill="#000000">::isDoneWriting</text>
</a>
</g>
</g>
<!-- Node5 -->
<g id="node2" class="node">
<title>Node5</title>
<g id="a_node2"><a xlink:href="structAccessControlledSharedStruct.html#a477e70ae625da319ea9009728d3a5891" target="_top" xlink:title="Read data from the communication struct.">
<polygon fill="#ffffff" stroke="#000000" points="0,-.5 0,-30.5 163,-30.5 163,-.5 0,-.5"/>
<text text-anchor="start" x="8" y="-18.5" font-family="Helvetica,sans-Serif" font-size="10.00" fill="#000000">AccessControlledSharedStruct</text>
<text text-anchor="middle" x="81.5" y="-7.5" font-family="Helvetica,sans-Serif" font-size="10.00" fill="#000000">::read</text>
</a>
</g>
</g>
<!-- Node4&#45;&gt;Node5 -->
<g id="edge1" class="edge">
<title>Node4&#45;&gt;Node5</title>
<path fill="none" stroke="#191970" d="M188.9552,-15.5C180.3671,-15.5 171.6994,-15.5 163.2104,-15.5"/>
<polygon fill="#191970" stroke="#191970" points="188.9849,-19.0001 198.9849,-15.5 188.9849,-12.0001 188.9849,-19.0001"/>
</g>
</g>
</svg>
