<?xml version="1.0" encoding="UTF-8" standalone="no"?>
<!DOCTYPE svg PUBLIC "-//W3C//DTD SVG 1.1//EN"
 "http://www.w3.org/Graphics/SVG/1.1/DTD/svg11.dtd">
<!-- Generated by graphviz version 2.40.1 (20161225.0304)
 -->
<!-- Title: Point::distance Pages: 1 -->
<svg width="287pt" height="66pt"
 viewBox="0.00 0.00 287.00 66.00" xmlns="http://www.w3.org/2000/svg" xmlns:xlink="http://www.w3.org/1999/xlink">
<g id="graph0" class="graph" transform="scale(1 1) rotate(0) translate(4 62)">
<title>Point::distance</title>
<polygon fill="#ffffff" stroke="transparent" points="-4,4 -4,-62 283,-62 283,4 -4,4"/>
<!-- Node15 -->
<g id="node1" class="node">
<title>Node15</title>
<g id="a_node1"><a xlink:title=" ">
<polygon fill="#bfbfbf" stroke="#000000" points="0,-19.5 0,-38.5 89,-38.5 89,-19.5 0,-19.5"/>
<text text-anchor="middle" x="44.5" y="-26.5" font-family="Helvetica,sans-Serif" font-size="10.00" fill="#000000">Point::distance</text>
</a>
</g>
</g>
<!-- Node16 -->
<g id="node2" class="node">
<title>Node16</title>
<g id="a_node2"><a xlink:href="Matrix_8hpp.html#af6752e536d7af62cde48d70f45309a2c" target="_top" xlink:title=" ">
<polygon fill="#ffffff" stroke="#000000" points="136.5,-38.5 136.5,-57.5 178.5,-57.5 178.5,-38.5 136.5,-38.5"/>
<text text-anchor="middle" x="157.5" y="-45.5" font-family="Helvetica,sans-Serif" font-size="10.00" fill="#000000">norm</text>
</a>
</g>
</g>
<!-- Node15&#45;&gt;Node16 -->
<g id="edge1" class="edge">
<title>Node15&#45;&gt;Node16</title>
<path fill="none" stroke="#191970" d="M89.1606,-36.5093C101.6297,-38.6059 114.9044,-40.8379 126.4053,-42.7717"/>
<polygon fill="#191970" stroke="#191970" points="125.9527,-46.2446 136.3947,-44.4513 127.1135,-39.3415 125.9527,-46.2446"/>
</g>
<!-- Node18 -->
<g id="node4" class="node">
<title>Node18</title>
<g id="a_node4"><a xlink:href="structPoint.html#afdb648a6a3a1c42aefcd6f435617ba85" target="_top" xlink:title=" ">
<polygon fill="#ffffff" stroke="#000000" points="125,-.5 125,-19.5 190,-19.5 190,-.5 125,-.5"/>
<text text-anchor="middle" x="157.5" y="-7.5" font-family="Helvetica,sans-Serif" font-size="10.00" fill="#000000">Point::vec</text>
</a>
</g>
</g>
<!-- Node15&#45;&gt;Node18 -->
<g id="edge3" class="edge">
<title>Node15&#45;&gt;Node18</title>
<path fill="none" stroke="#191970" d="M89.1606,-21.4907C97.5813,-20.0748 106.3694,-18.5972 114.7305,-17.1913"/>
<polygon fill="#191970" stroke="#191970" points="115.3827,-20.6309 124.6639,-15.5211 114.222,-13.7278 115.3827,-20.6309"/>
</g>
<!-- Node17 -->
<g id="node3" class="node">
<title>Node17</title>
<g id="a_node3"><a xlink:href="Matrix_8hpp.html#a49ccaf0f0f1746a2824dc79538165c9c" target="_top" xlink:title=" ">
<polygon fill="#ffffff" stroke="#000000" points="226,-38.5 226,-57.5 279,-57.5 279,-38.5 226,-38.5"/>
<text text-anchor="middle" x="252.5" y="-45.5" font-family="Helvetica,sans-Serif" font-size="10.00" fill="#000000">normsq</text>
</a>
</g>
</g>
<!-- Node16&#45;&gt;Node17 -->
<g id="edge2" class="edge">
<title>Node16&#45;&gt;Node17</title>
<path fill="none" stroke="#191970" d="M178.5836,-48C189.4309,-48 202.9732,-48 215.492,-48"/>
<polygon fill="#191970" stroke="#191970" points="215.6855,-51.5001 225.6855,-48 215.6854,-44.5001 215.6855,-51.5001"/>
</g>
</g>
</svg>
