<?xml version="1.0" encoding="UTF-8" standalone="no"?>
<!DOCTYPE svg PUBLIC "-//W3C//DTD SVG 1.1//EN"
 "http://www.w3.org/Graphics/SVG/1.1/DTD/svg11.dtd">
<!-- Generated by graphviz version 2.40.1 (20161225.0304)
 -->
<!-- Title: Point::operator bool Pages: 1 -->
<svg width="318pt" height="66pt"
 viewBox="0.00 0.00 318.00 66.00" xmlns="http://www.w3.org/2000/svg" xmlns:xlink="http://www.w3.org/1999/xlink">
<g id="graph0" class="graph" transform="scale(1 1) rotate(0) translate(4 62)">
<title>Point::operator bool</title>
<polygon fill="#ffffff" stroke="transparent" points="-4,4 -4,-62 314,-62 314,4 -4,4"/>
<!-- Node37 -->
<g id="node1" class="node">
<title>Node37</title>
<g id="a_node1"><a xlink:title=" ">
<polygon fill="#bfbfbf" stroke="#000000" points="0,-19.5 0,-38.5 113,-38.5 113,-19.5 0,-19.5"/>
<text text-anchor="middle" x="56.5" y="-26.5" font-family="Helvetica,sans-Serif" font-size="10.00" fill="#000000">Point::operator bool</text>
</a>
</g>
</g>
<!-- Node38 -->
<g id="node2" class="node">
<title>Node38</title>
<g id="a_node2"><a xlink:href="Array_8hpp.html#ab8a62286cf94935432fb15208c352d31" target="_top" xlink:title=" ">
<polygon fill="#ffffff" stroke="#000000" points="149,-19.5 149,-38.5 199,-38.5 199,-19.5 149,-19.5"/>
<text text-anchor="middle" x="174" y="-26.5" font-family="Helvetica,sans-Serif" font-size="10.00" fill="#000000">isfinite</text>
</a>
</g>
</g>
<!-- Node37&#45;&gt;Node38 -->
<g id="edge1" class="edge">
<title>Node37&#45;&gt;Node38</title>
<path fill="none" stroke="#191970" d="M113.1849,-29C121.9172,-29 130.7103,-29 138.7914,-29"/>
<polygon fill="#191970" stroke="#191970" points="138.9397,-32.5001 148.9397,-29 138.9396,-25.5001 138.9397,-32.5001"/>
</g>
<!-- Node39 -->
<g id="node3" class="node">
<title>Node39</title>
<g id="a_node3"><a xlink:href="structArray.html#ab4b771d23fc515ab924670f80316739e" target="_top" xlink:title=" ">
<polygon fill="#ffffff" stroke="#000000" points="235,-38.5 235,-57.5 310,-57.5 310,-38.5 235,-38.5"/>
<text text-anchor="middle" x="272.5" y="-45.5" font-family="Helvetica,sans-Serif" font-size="10.00" fill="#000000">Array::begin</text>
</a>
</g>
</g>
<!-- Node38&#45;&gt;Node39 -->
<g id="edge2" class="edge">
<title>Node38&#45;&gt;Node39</title>
<path fill="none" stroke="#191970" d="M199.1106,-33.8437C206.979,-35.3614 215.9396,-37.0899 224.8313,-38.805"/>
<polygon fill="#191970" stroke="#191970" points="224.2974,-42.2665 234.7793,-40.7239 225.6232,-35.3932 224.2974,-42.2665"/>
</g>
<!-- Node40 -->
<g id="node4" class="node">
<title>Node40</title>
<g id="a_node4"><a xlink:href="structArray.html#a325651933815bbdea330a2c576c274cd" target="_top" xlink:title=" ">
<polygon fill="#ffffff" stroke="#000000" points="239.5,-.5 239.5,-19.5 305.5,-19.5 305.5,-.5 239.5,-.5"/>
<text text-anchor="middle" x="272.5" y="-7.5" font-family="Helvetica,sans-Serif" font-size="10.00" fill="#000000">Array::end</text>
</a>
</g>
</g>
<!-- Node38&#45;&gt;Node40 -->
<g id="edge3" class="edge">
<title>Node38&#45;&gt;Node40</title>
<path fill="none" stroke="#191970" d="M199.1106,-24.1563C208.2588,-22.3917 218.8833,-20.3423 229.1596,-18.3601"/>
<polygon fill="#191970" stroke="#191970" points="230.0961,-21.744 239.2522,-16.4133 228.7702,-14.8707 230.0961,-21.744"/>
</g>
</g>
</svg>
