<?xml version="1.0" encoding="UTF-8" standalone="no"?>
<!DOCTYPE svg PUBLIC "-//W3C//DTD SVG 1.1//EN"
 "http://www.w3.org/Graphics/SVG/1.1/DTD/svg11.dtd">
<!-- Generated by graphviz version 2.40.1 (20161225.0304)
 -->
<!-- Title: AccessControlledSharedStruct::write Pages: 1 -->
<svg width="381pt" height="100pt"
 viewBox="0.00 0.00 381.00 99.50" xmlns="http://www.w3.org/2000/svg" xmlns:xlink="http://www.w3.org/1999/xlink">
<g id="graph0" class="graph" transform="scale(1 1) rotate(0) translate(4 95.5)">
<title>AccessControlledSharedStruct::write</title>
<polygon fill="#ffffff" stroke="transparent" points="-4,4 -4,-95.5 377,-95.5 377,4 -4,4"/>
<!-- Node10 -->
<g id="node1" class="node">
<title>Node10</title>
<g id="a_node1"><a xlink:title="Write data to the communication struct.">
<polygon fill="#bfbfbf" stroke="#000000" points="0,-27.5 0,-57.5 163,-57.5 163,-27.5 0,-27.5"/>
<text text-anchor="start" x="8" y="-45.5" font-family="Helvetica,sans-Serif" font-size="10.00" fill="#000000">AccessControlledSharedStruct</text>
<text text-anchor="middle" x="81.5" y="-34.5" font-family="Helvetica,sans-Serif" font-size="10.00" fill="#000000">::write</text>
</a>
</g>
</g>
<!-- Node11 -->
<g id="node2" class="node">
<title>Node11</title>
<g id="a_node2"><a xlink:href="structSharedStruct.html#ab84d9ff23f09b19bb8cf7f72ec9901fe" target="_top" xlink:title=" ">
<polygon fill="#ffffff" stroke="#000000" points="199,-50 199,-91 373,-91 373,-50 199,-50"/>
<text text-anchor="start" x="207" y="-79" font-family="Helvetica,sans-Serif" font-size="10.00" fill="#000000">SharedStruct&lt; AccessControlled</text>
<text text-anchor="start" x="207" y="-68" font-family="Helvetica,sans-Serif" font-size="10.00" fill="#000000">SharedStruct&lt; T, Dir, Addr</text>
<text text-anchor="middle" x="286" y="-57" font-family="Helvetica,sans-Serif" font-size="10.00" fill="#000000"> &gt; &gt;::checkInitialized</text>
</a>
</g>
</g>
<!-- Node10&#45;&gt;Node11 -->
<g id="edge1" class="edge">
<title>Node10&#45;&gt;Node11</title>
<path fill="none" stroke="#191970" d="M163.2055,-53.6871C171.6015,-54.8366 180.1904,-56.0126 188.7327,-57.1822"/>
<polygon fill="#191970" stroke="#191970" points="188.3427,-60.6614 198.725,-58.5504 189.2923,-53.7261 188.3427,-60.6614"/>
</g>
<!-- Node12 -->
<g id="node3" class="node">
<title>Node12</title>
<g id="a_node3"><a xlink:href="structAccessControlledSharedStruct.html#ad8d58bd2049de9862ed36161bfb69404" target="_top" xlink:title="Check if the other party is done reading.">
<polygon fill="#ffffff" stroke="#000000" points="204.5,-.5 204.5,-30.5 367.5,-30.5 367.5,-.5 204.5,-.5"/>
<text text-anchor="start" x="212.5" y="-18.5" font-family="Helvetica,sans-Serif" font-size="10.00" fill="#000000">AccessControlledSharedStruct</text>
<text text-anchor="middle" x="286" y="-7.5" font-family="Helvetica,sans-Serif" font-size="10.00" fill="#000000">::isDoneReading</text>
</a>
</g>
</g>
<!-- Node10&#45;&gt;Node12 -->
<g id="edge2" class="edge">
<title>Node10&#45;&gt;Node12</title>
<path fill="none" stroke="#191970" d="M163.2055,-31.7125C173.4911,-30.3545 184.066,-28.9583 194.4904,-27.582"/>
<polygon fill="#191970" stroke="#191970" points="194.9685,-31.0493 204.4244,-26.2704 194.0522,-24.1095 194.9685,-31.0493"/>
</g>
</g>
</svg>
