<?xml version="1.0" encoding="UTF-8" standalone="no"?>
<!DOCTYPE svg PUBLIC "-//W3C//DTD SVG 1.1//EN"
 "http://www.w3.org/Graphics/SVG/1.1/DTD/svg11.dtd">
<!-- Generated by graphviz version 2.40.1 (20161225.0304)
 -->
<!-- Title: GetMiddleResult Pages: 1 -->
<svg width="104pt" height="248pt"
 viewBox="0.00 0.00 104.00 248.00" xmlns="http://www.w3.org/2000/svg" xmlns:xlink="http://www.w3.org/1999/xlink">
<g id="graph0" class="graph" transform="scale(1 1) rotate(0) translate(4 244)">
<title>GetMiddleResult</title>
<polygon fill="#ffffff" stroke="transparent" points="-4,4 -4,-244 100,-244 100,4 -4,4"/>
<!-- Node1 -->
<g id="node1" class="node">
<title>Node1</title>
<g id="a_node1"><a xlink:title=" ">
<polygon fill="#bfbfbf" stroke="#000000" points="0,-.5 0,-57.5 96,-57.5 96,-.5 0,-.5"/>
<text text-anchor="middle" x="48" y="-45.5" font-family="Helvetica,sans-Serif" font-size="10.00" fill="#000000">GetMiddleResult</text>
<polyline fill="none" stroke="#000000" points="0,-38.5 96,-38.5 "/>
<text text-anchor="start" x="8" y="-26.5" font-family="Helvetica,sans-Serif" font-size="10.00" fill="#000000">+ width</text>
<polyline fill="none" stroke="#000000" points="0,-19.5 96,-19.5 "/>
<text text-anchor="middle" x="48" y="-7.5" font-family="Helvetica,sans-Serif" font-size="10.00" fill="#000000"> </text>
</a>
</g>
</g>
<!-- Node2 -->
<g id="node2" class="node">
<title>Node2</title>
<g id="a_node2"><a xlink:href="structPixel.html" target="_top" xlink:title=" ">
<polygon fill="#ffffff" stroke="#000000" points="1.5,-105.5 1.5,-239.5 94.5,-239.5 94.5,-105.5 1.5,-105.5"/>
<text text-anchor="middle" x="48" y="-227.5" font-family="Helvetica,sans-Serif" font-size="10.00" fill="#000000">Pixel</text>
<polyline fill="none" stroke="#000000" points="1.5,-220.5 94.5,-220.5 "/>
<text text-anchor="start" x="9.5" y="-208.5" font-family="Helvetica,sans-Serif" font-size="10.00" fill="#000000">+ x</text>
<text text-anchor="start" x="9.5" y="-197.5" font-family="Helvetica,sans-Serif" font-size="10.00" fill="#000000">+ y</text>
<polyline fill="none" stroke="#000000" points="1.5,-190.5 94.5,-190.5 "/>
<text text-anchor="start" x="9.5" y="-178.5" font-family="Helvetica,sans-Serif" font-size="10.00" fill="#000000">+ Pixel()</text>
<text text-anchor="start" x="9.5" y="-167.5" font-family="Helvetica,sans-Serif" font-size="10.00" fill="#000000">+ Pixel()</text>
<text text-anchor="start" x="9.5" y="-156.5" font-family="Helvetica,sans-Serif" font-size="10.00" fill="#000000">+ isValid()</text>
<text text-anchor="start" x="9.5" y="-145.5" font-family="Helvetica,sans-Serif" font-size="10.00" fill="#000000">+ operator==()</text>
<text text-anchor="start" x="9.5" y="-134.5" font-family="Helvetica,sans-Serif" font-size="10.00" fill="#000000">+ operator!=()</text>
<text text-anchor="start" x="9.5" y="-123.5" font-family="Helvetica,sans-Serif" font-size="10.00" fill="#000000">+ inRange()</text>
<text text-anchor="start" x="9.5" y="-112.5" font-family="Helvetica,sans-Serif" font-size="10.00" fill="#000000">+ average()</text>
</a>
</g>
</g>
<!-- Node2&#45;&gt;Node1 -->
<g id="edge1" class="edge">
<title>Node2&#45;&gt;Node1</title>
<path fill="none" stroke="#404040" d="M48,-105.3717C48,-93.3131 48,-81.0797 48,-70.0415"/>
<polygon fill="none" stroke="#404040" points="48.0001,-69.7146 44,-63.7147 48,-57.7146 52,-63.7146 48.0001,-69.7146"/>
<text text-anchor="middle" x="66" y="-79" font-family="Helvetica,sans-Serif" font-size="10.00" fill="#000000"> +pixel</text>
</g>
</g>
</svg>
