<?xml version="1.0" encoding="UTF-8" standalone="no"?>
<!DOCTYPE svg PUBLIC "-//W3C//DTD SVG 1.1//EN"
 "http://www.w3.org/Graphics/SVG/1.1/DTD/svg11.dtd">
<!-- Generated by graphviz version 2.40.1 (20161225.0304)
 -->
<!-- Title: EulerAngles::quat2eul Pages: 1 -->
<svg width="305pt" height="66pt"
 viewBox="0.00 0.00 305.00 66.00" xmlns="http://www.w3.org/2000/svg" xmlns:xlink="http://www.w3.org/1999/xlink">
<g id="graph0" class="graph" transform="scale(1 1) rotate(0) translate(4 62)">
<title>EulerAngles::quat2eul</title>
<polygon fill="#ffffff" stroke="transparent" points="-4,4 -4,-62 301,-62 301,4 -4,4"/>
<!-- Node16 -->
<g id="node1" class="node">
<title>Node16</title>
<g id="a_node1"><a xlink:title=" ">
<polygon fill="#bfbfbf" stroke="#000000" points="174,-19.5 174,-38.5 297,-38.5 297,-19.5 174,-19.5"/>
<text text-anchor="middle" x="235.5" y="-26.5" font-family="Helvetica,sans-Serif" font-size="10.00" fill="#000000">EulerAngles::quat2eul</text>
</a>
</g>
</g>
<!-- Node17 -->
<g id="node2" class="node">
<title>Node17</title>
<g id="a_node2"><a xlink:href="PyQuaternion_8cpp.html#a2957609bcf20d996c14300f7288e3300" target="_top" xlink:title=" ">
<polygon fill="#ffffff" stroke="#000000" points="12.5,-38.5 12.5,-57.5 125.5,-57.5 125.5,-38.5 12.5,-38.5"/>
<text text-anchor="middle" x="69" y="-45.5" font-family="Helvetica,sans-Serif" font-size="10.00" fill="#000000">PYBIND11_MODULE</text>
</a>
</g>
</g>
<!-- Node16&#45;&gt;Node17 -->
<g id="edge1" class="edge">
<title>Node16&#45;&gt;Node17</title>
<path fill="none" stroke="#191970" d="M163.8234,-37.1793C151.037,-38.6384 137.879,-40.1399 125.588,-41.5425"/>
<polygon fill="#191970" stroke="#191970" points="164.4359,-40.6322 173.9746,-36.0209 163.6422,-33.6774 164.4359,-40.6322"/>
</g>
<!-- Node18 -->
<g id="node3" class="node">
<title>Node18</title>
<g id="a_node3"><a xlink:href="structEulerAngles.html#a5e071002fb91ec83387414a0a447fbd1" target="_top" xlink:title=" ">
<polygon fill="#ffffff" stroke="#000000" points="0,-.5 0,-19.5 138,-19.5 138,-.5 0,-.5"/>
<text text-anchor="middle" x="69" y="-7.5" font-family="Helvetica,sans-Serif" font-size="10.00" fill="#000000">EulerAngles::EulerAngles</text>
</a>
</g>
</g>
<!-- Node16&#45;&gt;Node18 -->
<g id="edge2" class="edge">
<title>Node16&#45;&gt;Node18</title>
<path fill="none" stroke="#191970" d="M164.0033,-20.8412C155.4236,-19.8622 146.674,-18.8637 138.1288,-17.8886"/>
<polygon fill="#191970" stroke="#191970" points="163.6422,-24.3226 173.9746,-21.9791 164.4359,-17.3678 163.6422,-24.3226"/>
</g>
</g>
</svg>
