<?xml version="1.0" encoding="UTF-8" standalone="no"?>
<!DOCTYPE svg PUBLIC "-//W3C//DTD SVG 1.1//EN"
 "http://www.w3.org/Graphics/SVG/1.1/DTD/svg11.dtd">
<!-- Generated by graphviz version 2.40.1 (20161225.0304)
 -->
<!-- Title: getArrayType&lt; T &gt; Pages: 1 -->
<svg width="142pt" height="160pt"
 viewBox="0.00 0.00 142.00 160.00" xmlns="http://www.w3.org/2000/svg" xmlns:xlink="http://www.w3.org/1999/xlink">
<g id="graph0" class="graph" transform="scale(1 1) rotate(0) translate(4 156)">
<title>getArrayType&lt; T &gt;</title>
<polygon fill="#ffffff" stroke="transparent" points="-4,4 -4,-156 138,-156 138,4 -4,4"/>
<!-- Node0 -->
<g id="node1" class="node">
<title>Node0</title>
<g id="a_node1"><a xlink:title=" ">
<polygon fill="#bfbfbf" stroke="#000000" points="12,-.5 12,-57.5 122,-57.5 122,-.5 12,-.5"/>
<text text-anchor="middle" x="67" y="-45.5" font-family="Helvetica,sans-Serif" font-size="10.00" fill="#000000">getArrayType&lt; T &gt;</text>
<polyline fill="none" stroke="#000000" points="12,-38.5 122,-38.5 "/>
<text text-anchor="middle" x="67" y="-26.5" font-family="Helvetica,sans-Serif" font-size="10.00" fill="#000000"> </text>
<polyline fill="none" stroke="#000000" points="12,-19.5 122,-19.5 "/>
<text text-anchor="middle" x="67" y="-7.5" font-family="Helvetica,sans-Serif" font-size="10.00" fill="#000000"> </text>
</a>
</g>
</g>
<!-- Node1 -->
<g id="node2" class="node">
<title>Node1</title>
<g id="a_node2"><a xlink:href="structgetArrayTypeBase.html" target="_top" xlink:title=" ">
<polygon fill="#ffffff" stroke="#000000" points="0,-94.5 0,-151.5 134,-151.5 134,-94.5 0,-94.5"/>
<text text-anchor="middle" x="67" y="-139.5" font-family="Helvetica,sans-Serif" font-size="10.00" fill="#000000">getArrayTypeBase&lt; T &gt;</text>
<polyline fill="none" stroke="#000000" points="0,-132.5 134,-132.5 "/>
<text text-anchor="middle" x="67" y="-120.5" font-family="Helvetica,sans-Serif" font-size="10.00" fill="#000000"> </text>
<polyline fill="none" stroke="#000000" points="0,-113.5 134,-113.5 "/>
<text text-anchor="middle" x="67" y="-101.5" font-family="Helvetica,sans-Serif" font-size="10.00" fill="#000000"> </text>
</a>
</g>
</g>
<!-- Node1&#45;&gt;Node0 -->
<g id="edge1" class="edge">
<title>Node1&#45;&gt;Node0</title>
<path fill="none" stroke="#191970" d="M67,-84.1035C67,-75.2052 67,-65.9073 67,-57.538"/>
<polygon fill="none" stroke="#191970" points="63.5001,-84.2861 67,-94.2861 70.5001,-84.2862 63.5001,-84.2861"/>
</g>
</g>
</svg>
