<?xml version="1.0" encoding="UTF-8" standalone="no"?>
<!DOCTYPE svg PUBLIC "-//W3C//DTD SVG 1.1//EN"
 "http://www.w3.org/Graphics/SVG/1.1/DTD/svg11.dtd">
<!-- Generated by graphviz version 2.40.1 (20161225.0304)
 -->
<!-- Title: QRCommStruct Pages: 1 -->
<svg width="184pt" height="259pt"
 viewBox="0.00 0.00 184.00 259.00" xmlns="http://www.w3.org/2000/svg" xmlns:xlink="http://www.w3.org/1999/xlink">
<g id="graph0" class="graph" transform="scale(1 1) rotate(0) translate(4 255)">
<title>QRCommStruct</title>
<polygon fill="#ffffff" stroke="transparent" points="-4,4 -4,-255 180,-255 180,4 -4,4"/>
<!-- Node0 -->
<g id="node1" class="node">
<title>Node0</title>
<g id="a_node1"><a xlink:title="The struct for communication between QR/Crypto and ANC.">
<polygon fill="#bfbfbf" stroke="#000000" points="23,-.5 23,-123.5 153,-123.5 153,-.5 23,-.5"/>
<text text-anchor="middle" x="88" y="-111.5" font-family="Helvetica,sans-Serif" font-size="10.00" fill="#000000">QRCommStruct</text>
<polyline fill="none" stroke="#000000" points="23,-104.5 153,-104.5 "/>
<text text-anchor="start" x="31" y="-92.5" font-family="Helvetica,sans-Serif" font-size="10.00" fill="#000000">+ address</text>
<polyline fill="none" stroke="#000000" points="23,-85.5 153,-85.5 "/>
<text text-anchor="start" x="31" y="-73.5" font-family="Helvetica,sans-Serif" font-size="10.00" fill="#000000">+ getQRState()</text>
<text text-anchor="start" x="31" y="-62.5" font-family="Helvetica,sans-Serif" font-size="10.00" fill="#000000">+ setTargetPosition()</text>
<text text-anchor="start" x="31" y="-51.5" font-family="Helvetica,sans-Serif" font-size="10.00" fill="#000000">+ setTargetPosition()</text>
<text text-anchor="start" x="31" y="-40.5" font-family="Helvetica,sans-Serif" font-size="10.00" fill="#000000">+ setQRStateBusy()</text>
<text text-anchor="start" x="31" y="-29.5" font-family="Helvetica,sans-Serif" font-size="10.00" fill="#000000">+ setQRStateError()</text>
<text text-anchor="start" x="31" y="-18.5" font-family="Helvetica,sans-Serif" font-size="10.00" fill="#000000">+ setQRStateUnkown()</text>
<text text-anchor="start" x="31" y="-7.5" font-family="Helvetica,sans-Serif" font-size="10.00" fill="#000000">+ setQRStateLand()</text>
</a>
</g>
</g>
<!-- Node1 -->
<g id="node2" class="node">
<title>Node1</title>
<g id="a_node2"><a xlink:href="structSharedStruct.html" target="_top" xlink:title=" ">
<polygon fill="#ffffff" stroke="#000000" points="0,-160.5 0,-250.5 176,-250.5 176,-160.5 0,-160.5"/>
<text text-anchor="middle" x="88" y="-238.5" font-family="Helvetica,sans-Serif" font-size="10.00" fill="#000000">SharedStruct&lt; QRCommStruct &gt;</text>
<polyline fill="none" stroke="#000000" points="0,-231.5 176,-231.5 "/>
<text text-anchor="middle" x="88" y="-219.5" font-family="Helvetica,sans-Serif" font-size="10.00" fill="#000000"> </text>
<polyline fill="none" stroke="#000000" points="0,-212.5 176,-212.5 "/>
<text text-anchor="start" x="8" y="-200.5" font-family="Helvetica,sans-Serif" font-size="10.00" fill="#000000">+ isInitialized()</text>
<text text-anchor="start" x="8" y="-189.5" font-family="Helvetica,sans-Serif" font-size="10.00" fill="#000000">+ checkInitialized()</text>
<text text-anchor="start" x="8" y="-178.5" font-family="Helvetica,sans-Serif" font-size="10.00" fill="#000000">+ nextFreeAddress()</text>
<text text-anchor="start" x="8" y="-167.5" font-family="Helvetica,sans-Serif" font-size="10.00" fill="#000000"># SharedStruct()</text>
</a>
</g>
</g>
<!-- Node1&#45;&gt;Node0 -->
<g id="edge1" class="edge">
<title>Node1&#45;&gt;Node0</title>
<path fill="none" stroke="#191970" d="M88,-150.4136C88,-141.665 88,-132.5665 88,-123.6783"/>
<polygon fill="none" stroke="#191970" points="84.5001,-150.4894 88,-160.4894 91.5001,-150.4895 84.5001,-150.4894"/>
</g>
</g>
</svg>
