<?xml version="1.0" encoding="UTF-8" standalone="no"?>
<!DOCTYPE svg PUBLIC "-//W3C//DTD SVG 1.1//EN"
 "http://www.w3.org/Graphics/SVG/1.1/DTD/svg11.dtd">
<!-- Generated by graphviz version 2.40.1 (20161225.0304)
 -->
<!-- Title: LineResult Pages: 1 -->
<svg width="253pt" height="507pt"
 viewBox="0.00 0.00 253.00 507.00" xmlns="http://www.w3.org/2000/svg" xmlns:xlink="http://www.w3.org/1999/xlink">
<g id="graph0" class="graph" transform="scale(1 1) rotate(0) translate(4 503)">
<title>LineResult</title>
<polygon fill="#ffffff" stroke="transparent" points="-4,4 -4,-503 249,-503 249,4 -4,4"/>
<!-- Node1 -->
<g id="node1" class="node">
<title>Node1</title>
<g id="a_node1"><a xlink:title=" ">
<polygon fill="#bfbfbf" stroke="#000000" points="64,-.5 64,-57.5 131,-57.5 131,-.5 64,-.5"/>
<text text-anchor="middle" x="97.5" y="-45.5" font-family="Helvetica,sans-Serif" font-size="10.00" fill="#000000">LineResult</text>
<polyline fill="none" stroke="#000000" points="64,-38.5 131,-38.5 "/>
<text text-anchor="start" x="72" y="-26.5" font-family="Helvetica,sans-Serif" font-size="10.00" fill="#000000">+ width</text>
<polyline fill="none" stroke="#000000" points="64,-19.5 131,-19.5 "/>
<text text-anchor="middle" x="97.5" y="-7.5" font-family="Helvetica,sans-Serif" font-size="10.00" fill="#000000"> </text>
</a>
</g>
</g>
<!-- Node2 -->
<g id="node2" class="node">
<title>Node2</title>
<g id="a_node2"><a xlink:href="structPixel.html" target="_top" xlink:title=" ">
<polygon fill="#ffffff" stroke="#000000" points="0,-177 0,-311 93,-311 93,-177 0,-177"/>
<text text-anchor="middle" x="46.5" y="-299" font-family="Helvetica,sans-Serif" font-size="10.00" fill="#000000">Pixel</text>
<polyline fill="none" stroke="#000000" points="0,-292 93,-292 "/>
<text text-anchor="start" x="8" y="-280" font-family="Helvetica,sans-Serif" font-size="10.00" fill="#000000">+ x</text>
<text text-anchor="start" x="8" y="-269" font-family="Helvetica,sans-Serif" font-size="10.00" fill="#000000">+ y</text>
<polyline fill="none" stroke="#000000" points="0,-262 93,-262 "/>
<text text-anchor="start" x="8" y="-250" font-family="Helvetica,sans-Serif" font-size="10.00" fill="#000000">+ Pixel()</text>
<text text-anchor="start" x="8" y="-239" font-family="Helvetica,sans-Serif" font-size="10.00" fill="#000000">+ Pixel()</text>
<text text-anchor="start" x="8" y="-228" font-family="Helvetica,sans-Serif" font-size="10.00" fill="#000000">+ isValid()</text>
<text text-anchor="start" x="8" y="-217" font-family="Helvetica,sans-Serif" font-size="10.00" fill="#000000">+ operator==()</text>
<text text-anchor="start" x="8" y="-206" font-family="Helvetica,sans-Serif" font-size="10.00" fill="#000000">+ operator!=()</text>
<text text-anchor="start" x="8" y="-195" font-family="Helvetica,sans-Serif" font-size="10.00" fill="#000000">+ inRange()</text>
<text text-anchor="start" x="8" y="-184" font-family="Helvetica,sans-Serif" font-size="10.00" fill="#000000">+ average()</text>
</a>
</g>
</g>
<!-- Node2&#45;&gt;Node1 -->
<g id="edge1" class="edge">
<title>Node2&#45;&gt;Node1</title>
<path fill="none" stroke="#404040" d="M46.708,-176.8646C48.6477,-145.4107 53.6589,-107.9237 65.5,-76 66.4848,-73.3449 67.6508,-70.6946 68.9449,-68.0815"/>
<polygon fill="none" stroke="#404040" points="68.9469,-68.0779 68.4165,-60.8863 74.8509,-57.6307 75.3813,-64.8223 68.9469,-68.0779"/>
<text text-anchor="middle" x="96.5" y="-79" font-family="Helvetica,sans-Serif" font-size="10.00" fill="#000000"> +lineCenter</text>
</g>
<!-- Node3 -->
<g id="node3" class="node">
<title>Node3</title>
<g id="a_node3"><a xlink:href="classAngle.html" target="_top" xlink:title=" ">
<polygon fill="#ffffff" stroke="#000000" points="111,-105.5 111,-382.5 224,-382.5 224,-105.5 111,-105.5"/>
<text text-anchor="middle" x="167.5" y="-370.5" font-family="Helvetica,sans-Serif" font-size="10.00" fill="#000000">Angle&lt; 360 &gt;</text>
<polyline fill="none" stroke="#000000" points="111,-363.5 224,-363.5 "/>
<text text-anchor="middle" x="167.5" y="-351.5" font-family="Helvetica,sans-Serif" font-size="10.00" fill="#000000"> </text>
<polyline fill="none" stroke="#000000" points="111,-344.5 224,-344.5 "/>
<text text-anchor="start" x="119" y="-332.5" font-family="Helvetica,sans-Serif" font-size="10.00" fill="#000000">+ Angle()</text>
<text text-anchor="start" x="119" y="-321.5" font-family="Helvetica,sans-Serif" font-size="10.00" fill="#000000">+ Angle()</text>
<text text-anchor="start" x="119" y="-310.5" font-family="Helvetica,sans-Serif" font-size="10.00" fill="#000000">+ Angle()</text>
<text text-anchor="start" x="119" y="-299.5" font-family="Helvetica,sans-Serif" font-size="10.00" fill="#000000">+ Angle()</text>
<text text-anchor="start" x="119" y="-288.5" font-family="Helvetica,sans-Serif" font-size="10.00" fill="#000000">+ Angle()</text>
<text text-anchor="start" x="119" y="-277.5" font-family="Helvetica,sans-Serif" font-size="10.00" fill="#000000">+ operator CosSin()</text>
<text text-anchor="start" x="119" y="-266.5" font-family="Helvetica,sans-Serif" font-size="10.00" fill="#000000">+ operator double()</text>
<text text-anchor="start" x="119" y="-255.5" font-family="Helvetica,sans-Serif" font-size="10.00" fill="#000000">+ rad()</text>
<text text-anchor="start" x="119" y="-244.5" font-family="Helvetica,sans-Serif" font-size="10.00" fill="#000000">+ deg()</text>
<text text-anchor="start" x="119" y="-233.5" font-family="Helvetica,sans-Serif" font-size="10.00" fill="#000000">+ getIndex()</text>
<text text-anchor="start" x="119" y="-222.5" font-family="Helvetica,sans-Serif" font-size="10.00" fill="#000000">and 11 more...</text>
<text text-anchor="start" x="119" y="-211.5" font-family="Helvetica,sans-Serif" font-size="10.00" fill="#000000">+ resolution()</text>
<text text-anchor="start" x="119" y="-200.5" font-family="Helvetica,sans-Serif" font-size="10.00" fill="#000000">+ getIndex()</text>
<text text-anchor="start" x="119" y="-189.5" font-family="Helvetica,sans-Serif" font-size="10.00" fill="#000000">+ cos()</text>
<text text-anchor="start" x="119" y="-178.5" font-family="Helvetica,sans-Serif" font-size="10.00" fill="#000000">+ sin()</text>
<text text-anchor="start" x="119" y="-167.5" font-family="Helvetica,sans-Serif" font-size="10.00" fill="#000000">+ normalize()</text>
<text text-anchor="start" x="119" y="-156.5" font-family="Helvetica,sans-Serif" font-size="10.00" fill="#000000">+ average()</text>
<text text-anchor="start" x="119" y="-145.5" font-family="Helvetica,sans-Serif" font-size="10.00" fill="#000000">+ getAngle()</text>
<text text-anchor="start" x="119" y="-134.5" font-family="Helvetica,sans-Serif" font-size="10.00" fill="#000000">+ step()</text>
<text text-anchor="start" x="119" y="-123.5" font-family="Helvetica,sans-Serif" font-size="10.00" fill="#000000">+ calculateCosLut()</text>
<text text-anchor="start" x="119" y="-112.5" font-family="Helvetica,sans-Serif" font-size="10.00" fill="#000000">+ calculateSinLut()</text>
</a>
</g>
</g>
<!-- Node3&#45;&gt;Node1 -->
<g id="edge2" class="edge">
<title>Node3&#45;&gt;Node1</title>
<path fill="none" stroke="#404040" d="M138.4046,-105.2771C135.1055,-95.2414 131.4784,-85.3855 127.5,-76 126.441,-73.5017 125.2542,-70.987 123.9804,-68.4894"/>
<polygon fill="none" stroke="#404040" points="123.8303,-68.2215 117.4076,-64.9428 117.9638,-57.7532 124.3865,-61.0318 123.8303,-68.2215"/>
<text text-anchor="middle" x="150" y="-79" font-family="Helvetica,sans-Serif" font-size="10.00" fill="#000000"> +angle</text>
</g>
<!-- Node4 -->
<g id="node4" class="node">
<title>Node4</title>
<g id="a_node4"><a xlink:title=" ">
<polygon fill="#ffffff" stroke="#bfbfbf" points="90,-441.5 90,-498.5 245,-498.5 245,-441.5 90,-441.5"/>
<text text-anchor="middle" x="167.5" y="-486.5" font-family="Helvetica,sans-Serif" font-size="10.00" fill="#000000">std::array&lt; int, Resolution &gt;</text>
<polyline fill="none" stroke="#bfbfbf" points="90,-479.5 245,-479.5 "/>
<text text-anchor="start" x="98" y="-467.5" font-family="Helvetica,sans-Serif" font-size="10.00" fill="#000000">+ elements</text>
<polyline fill="none" stroke="#bfbfbf" points="90,-460.5 245,-460.5 "/>
<text text-anchor="middle" x="167.5" y="-448.5" font-family="Helvetica,sans-Serif" font-size="10.00" fill="#000000"> </text>
</a>
</g>
</g>
<!-- Node4&#45;&gt;Node3 -->
<g id="edge3" class="edge">
<title>Node4&#45;&gt;Node3</title>
<path fill="none" stroke="#404040" d="M167.5,-441.3769C167.5,-428.5285 167.5,-412.2987 167.5,-394.6898"/>
<polygon fill="none" stroke="#404040" points="167.5001,-394.6238 163.5,-388.6238 167.5,-382.6238 171.5,-388.6237 167.5001,-394.6238"/>
<text text-anchor="middle" x="190.5" y="-415" font-family="Helvetica,sans-Serif" font-size="10.00" fill="#000000"> +sines</text>
<text text-anchor="middle" x="190.5" y="-404" font-family="Helvetica,sans-Serif" font-size="10.00" fill="#000000">+cosines</text>
</g>
</g>
</svg>
