<?xml version="1.0" encoding="UTF-8" standalone="no"?>
<!DOCTYPE svg PUBLIC "-//W3C//DTD SVG 1.1//EN"
 "http://www.w3.org/Graphics/SVG/1.1/DTD/svg11.dtd">
<!-- Generated by graphviz version 2.40.1 (20161225.0304)
 -->
<!-- Title: Printable Pages: 1 -->
<svg width="286pt" height="171pt"
 viewBox="0.00 0.00 286.00 171.00" xmlns="http://www.w3.org/2000/svg" xmlns:xlink="http://www.w3.org/1999/xlink">
<g id="graph0" class="graph" transform="scale(1 1) rotate(0) translate(4 167)">
<title>Printable</title>
<polygon fill="#ffffff" stroke="transparent" points="-4,4 -4,-167 282,-167 282,4 -4,4"/>
<!-- Node0 -->
<g id="node1" class="node">
<title>Node0</title>
<g id="a_node1"><a xlink:title=" ">
<polygon fill="#bfbfbf" stroke="#000000" points="114.5,-105.5 114.5,-162.5 174.5,-162.5 174.5,-105.5 114.5,-105.5"/>
<text text-anchor="middle" x="144.5" y="-150.5" font-family="Helvetica,sans-Serif" font-size="10.00" fill="#000000">Printable</text>
<polyline fill="none" stroke="#000000" points="114.5,-143.5 174.5,-143.5 "/>
<text text-anchor="middle" x="144.5" y="-131.5" font-family="Helvetica,sans-Serif" font-size="10.00" fill="#000000"> </text>
<polyline fill="none" stroke="#000000" points="114.5,-124.5 174.5,-124.5 "/>
<text text-anchor="start" x="122.5" y="-112.5" font-family="Helvetica,sans-Serif" font-size="10.00" fill="#000000">+ print()</text>
</a>
</g>
</g>
<!-- Node1 -->
<g id="node2" class="node">
<title>Node1</title>
<g id="a_node2"><a xlink:href="classPrintAsRowVector__t.html" target="_top" xlink:title=" ">
<polygon fill="#ffffff" stroke="#000000" points="0,-.5 0,-68.5 141,-68.5 141,-.5 0,-.5"/>
<text text-anchor="middle" x="70.5" y="-56.5" font-family="Helvetica,sans-Serif" font-size="10.00" fill="#000000">PrintAsRowVector_t&lt; N &gt;</text>
<polyline fill="none" stroke="#000000" points="0,-49.5 141,-49.5 "/>
<text text-anchor="middle" x="70.5" y="-37.5" font-family="Helvetica,sans-Serif" font-size="10.00" fill="#000000"> </text>
<polyline fill="none" stroke="#000000" points="0,-30.5 141,-30.5 "/>
<text text-anchor="start" x="8" y="-18.5" font-family="Helvetica,sans-Serif" font-size="10.00" fill="#000000">+ PrintAsRowVector_t()</text>
<text text-anchor="start" x="8" y="-7.5" font-family="Helvetica,sans-Serif" font-size="10.00" fill="#000000">+ print()</text>
</a>
</g>
</g>
<!-- Node0&#45;&gt;Node1 -->
<g id="edge1" class="edge">
<title>Node0&#45;&gt;Node1</title>
<path fill="none" stroke="#191970" d="M117.3037,-97.432C110.3072,-88.0246 102.8068,-77.9396 95.9051,-68.6596"/>
<polygon fill="none" stroke="#191970" points="114.5184,-99.5519 123.2946,-105.4873 120.1353,-95.3744 114.5184,-99.5519"/>
</g>
<!-- Node2 -->
<g id="node3" class="node">
<title>Node2</title>
<g id="a_node3"><a xlink:href="classPrintAsTeX__t.html" target="_top" xlink:title=" ">
<polygon fill="#ffffff" stroke="#000000" points="159,-.5 159,-68.5 278,-68.5 278,-.5 159,-.5"/>
<text text-anchor="middle" x="218.5" y="-56.5" font-family="Helvetica,sans-Serif" font-size="10.00" fill="#000000">PrintAsTeX_t&lt; R, C &gt;</text>
<polyline fill="none" stroke="#000000" points="159,-49.5 278,-49.5 "/>
<text text-anchor="middle" x="218.5" y="-37.5" font-family="Helvetica,sans-Serif" font-size="10.00" fill="#000000"> </text>
<polyline fill="none" stroke="#000000" points="159,-30.5 278,-30.5 "/>
<text text-anchor="start" x="167" y="-18.5" font-family="Helvetica,sans-Serif" font-size="10.00" fill="#000000">+ PrintAsTeX_t()</text>
<text text-anchor="start" x="167" y="-7.5" font-family="Helvetica,sans-Serif" font-size="10.00" fill="#000000">+ print()</text>
</a>
</g>
</g>
<!-- Node0&#45;&gt;Node2 -->
<g id="edge2" class="edge">
<title>Node0&#45;&gt;Node2</title>
<path fill="none" stroke="#191970" d="M171.6963,-97.432C178.6928,-88.0246 186.1932,-77.9396 193.0949,-68.6596"/>
<polygon fill="none" stroke="#191970" points="168.8647,-95.3744 165.7054,-105.4873 174.4816,-99.5519 168.8647,-95.3744"/>
</g>
</g>
</svg>
