<?xml version="1.0" encoding="UTF-8" standalone="no"?>
<!DOCTYPE svg PUBLIC "-//W3C//DTD SVG 1.1//EN"
 "http://www.w3.org/Graphics/SVG/1.1/DTD/svg11.dtd">
<!-- Generated by graphviz version 2.40.1 (20161225.0304)
 -->
<!-- Title: QRCommStruct::setQRStateRequest Pages: 1 -->
<svg width="360pt" height="78pt"
 viewBox="0.00 0.00 360.00 77.50" xmlns="http://www.w3.org/2000/svg" xmlns:xlink="http://www.w3.org/1999/xlink">
<g id="graph0" class="graph" transform="scale(1 1) rotate(0) translate(4 73.5)">
<title>QRCommStruct::setQRStateRequest</title>
<polygon fill="#ffffff" stroke="transparent" points="-4,4 -4,-73.5 356,-73.5 356,4 -4,4"/>
<!-- Node34 -->
<g id="node1" class="node">
<title>Node34</title>
<g id="a_node1"><a xlink:title="Request read a new QR code.">
<polygon fill="#bfbfbf" stroke="#000000" points="0,-17 0,-47 152,-47 152,-17 0,-17"/>
<text text-anchor="start" x="8" y="-35" font-family="Helvetica,sans-Serif" font-size="10.00" fill="#000000">QRCommStruct::setQRState</text>
<text text-anchor="middle" x="76" y="-24" font-family="Helvetica,sans-Serif" font-size="10.00" fill="#000000">Request</text>
</a>
</g>
</g>
<!-- Node35 -->
<g id="node2" class="node">
<title>Node35</title>
<g id="a_node2"><a xlink:href="structSharedStruct.html#ab84d9ff23f09b19bb8cf7f72ec9901fe" target="_top" xlink:title=" ">
<polygon fill="#ffffff" stroke="#000000" points="188,-39 188,-69 352,-69 352,-39 188,-39"/>
<text text-anchor="start" x="196" y="-57" font-family="Helvetica,sans-Serif" font-size="10.00" fill="#000000">SharedStruct&lt; QRCommStruct</text>
<text text-anchor="middle" x="270" y="-46" font-family="Helvetica,sans-Serif" font-size="10.00" fill="#000000"> &gt;::checkInitialized</text>
</a>
</g>
</g>
<!-- Node34&#45;&gt;Node35 -->
<g id="edge1" class="edge">
<title>Node34&#45;&gt;Node35</title>
<path fill="none" stroke="#191970" d="M152.1171,-40.6318C160.5098,-41.5836 169.1215,-42.5602 177.6844,-43.5312"/>
<polygon fill="#191970" stroke="#191970" points="177.3672,-47.0176 187.698,-44.6668 178.1561,-40.0622 177.3672,-47.0176"/>
</g>
<!-- Node36 -->
<g id="node3" class="node">
<title>Node36</title>
<g id="a_node3"><a xlink:href="structQRCommStruct.html#ada773a7d6d56a5539e2b99705d0b9dcc" target="_top" xlink:title="Get the current state of the QR/Crypto FSM.">
<polygon fill="#ffffff" stroke="#000000" points="194,-.5 194,-19.5 346,-19.5 346,-.5 194,-.5"/>
<text text-anchor="middle" x="270" y="-7.5" font-family="Helvetica,sans-Serif" font-size="10.00" fill="#000000">QRCommStruct::getQRState</text>
</a>
</g>
</g>
<!-- Node34&#45;&gt;Node36 -->
<g id="edge2" class="edge">
<title>Node34&#45;&gt;Node36</title>
<path fill="none" stroke="#191970" d="M152.1171,-23.3682C162.4944,-22.1914 173.2064,-20.9766 183.747,-19.7813"/>
<polygon fill="#191970" stroke="#191970" points="184.242,-23.2477 193.784,-18.6431 183.4532,-16.2922 184.242,-23.2477"/>
</g>
</g>
</svg>
