<?xml version="1.0" encoding="UTF-8" standalone="no"?>
<!DOCTYPE svg PUBLIC "-//W3C//DTD SVG 1.1//EN"
 "http://www.w3.org/Graphics/SVG/1.1/DTD/svg11.dtd">
<!-- Generated by graphviz version 2.40.1 (20161225.0304)
 -->
<!-- Title: Point::vec Pages: 1 -->
<svg width="791pt" height="230pt"
 viewBox="0.00 0.00 791.00 229.50" xmlns="http://www.w3.org/2000/svg" xmlns:xlink="http://www.w3.org/1999/xlink">
<g id="graph0" class="graph" transform="scale(1 1) rotate(0) translate(4 225.5)">
<title>Point::vec</title>
<polygon fill="#ffffff" stroke="transparent" points="-4,4 -4,-225.5 787,-225.5 787,4 -4,4"/>
<!-- Node41 -->
<g id="node1" class="node">
<title>Node41</title>
<g id="a_node1"><a xlink:title=" ">
<polygon fill="#bfbfbf" stroke="#000000" points="718,-95.5 718,-114.5 783,-114.5 783,-95.5 718,-95.5"/>
<text text-anchor="middle" x="750.5" y="-102.5" font-family="Helvetica,sans-Serif" font-size="10.00" fill="#000000">Point::vec</text>
</a>
</g>
</g>
<!-- Node42 -->
<g id="node2" class="node">
<title>Node42</title>
<g id="a_node2"><a xlink:href="structPoint.html#aaadd4d786b1ac5c221e1f8eb6e60f3a0" target="_top" xlink:title=" ">
<polygon fill="#ffffff" stroke="#000000" points="539,-191 539,-221 682,-221 682,-191 539,-191"/>
<text text-anchor="start" x="547" y="-209" font-family="Helvetica,sans-Serif" font-size="10.00" fill="#000000">Point::operator TColVector</text>
<text text-anchor="middle" x="610.5" y="-198" font-family="Helvetica,sans-Serif" font-size="10.00" fill="#000000">&lt; float, 2 &gt; &amp;</text>
</a>
</g>
</g>
<!-- Node41&#45;&gt;Node42 -->
<g id="edge1" class="edge">
<title>Node41&#45;&gt;Node42</title>
<path fill="none" stroke="#191970" d="M738.2936,-123.1244C725.9289,-140.2223 705.3381,-165.4815 682,-181 676.3059,-184.7863 669.9749,-188.0659 663.5008,-190.8884"/>
<polygon fill="#191970" stroke="#191970" points="741.4094,-124.7769 744.2818,-114.5788 735.6768,-120.7598 741.4094,-124.7769"/>
</g>
<!-- Node43 -->
<g id="node3" class="node">
<title>Node43</title>
<g id="a_node3"><a xlink:href="structPoint.html#ab50806683020e8c506f3be5e934a62ce" target="_top" xlink:title=" ">
<polygon fill="#ffffff" stroke="#000000" points="574.5,-152.5 574.5,-171.5 646.5,-171.5 646.5,-152.5 574.5,-152.5"/>
<text text-anchor="middle" x="610.5" y="-159.5" font-family="Helvetica,sans-Serif" font-size="10.00" fill="#000000">Point::Point</text>
</a>
</g>
</g>
<!-- Node41&#45;&gt;Node43 -->
<g id="edge2" class="edge">
<title>Node41&#45;&gt;Node43</title>
<path fill="none" stroke="#191970" d="M727.0961,-119.8771C714.1805,-127.5953 697.6313,-136.7003 682,-143 670.8019,-147.513 658.1872,-151.2735 646.7062,-154.2256"/>
<polygon fill="#191970" stroke="#191970" points="729.0857,-122.7631 735.7935,-114.5621 725.4355,-116.7901 729.0857,-122.7631"/>
</g>
<!-- Node44 -->
<g id="node4" class="node">
<title>Node44</title>
<g id="a_node4"><a xlink:href="structPoint.html#ab0fa03b5388829db9118785408deba75" target="_top" xlink:title=" ">
<polygon fill="#ffffff" stroke="#000000" points="566,-114.5 566,-133.5 655,-133.5 655,-114.5 566,-114.5"/>
<text text-anchor="middle" x="610.5" y="-121.5" font-family="Helvetica,sans-Serif" font-size="10.00" fill="#000000">Point::distance</text>
</a>
</g>
</g>
<!-- Node41&#45;&gt;Node44 -->
<g id="edge3" class="edge">
<title>Node41&#45;&gt;Node44</title>
<path fill="none" stroke="#191970" d="M707.6514,-110.8152C690.9787,-113.0779 671.874,-115.6707 655.0426,-117.9549"/>
<polygon fill="#191970" stroke="#191970" points="708.2378,-114.2678 717.6762,-109.4547 707.2963,-107.3313 708.2378,-114.2678"/>
</g>
<!-- Node45 -->
<g id="node5" class="node">
<title>Node45</title>
<g id="a_node5"><a xlink:href="classLocationFinder.html#a93be2c4b05b52c58f5fca5d1514dfbe9" target="_top" xlink:title="Get the position of the center of the frame relative to the given square.">
<polygon fill="#ffffff" stroke="#000000" points="353,-76.5 353,-95.5 503,-95.5 503,-76.5 353,-76.5"/>
<text text-anchor="middle" x="428" y="-83.5" font-family="Helvetica,sans-Serif" font-size="10.00" fill="#000000">LocationFinder::getLocation</text>
</a>
</g>
</g>
<!-- Node41&#45;&gt;Node45 -->
<g id="edge10" class="edge">
<title>Node41&#45;&gt;Node45</title>
<path fill="none" stroke="#191970" d="M707.5795,-102.4714C655.4964,-99.4029 566.7778,-94.1761 503.243,-90.4329"/>
<polygon fill="#191970" stroke="#191970" points="707.6136,-105.9793 717.8022,-103.0736 708.0254,-98.9915 707.6136,-105.9793"/>
</g>
<!-- Node48 -->
<g id="node8" class="node">
<title>Node48</title>
<g id="a_node8"><a xlink:href="structPoint.html#a1da0707b7db8d7a162e52f13c1809e34" target="_top" xlink:title=" ">
<polygon fill="#ffffff" stroke="#000000" points="567,-38.5 567,-57.5 654,-57.5 654,-38.5 567,-38.5"/>
<text text-anchor="middle" x="610.5" y="-45.5" font-family="Helvetica,sans-Serif" font-size="10.00" fill="#000000">Point::average</text>
</a>
</g>
</g>
<!-- Node41&#45;&gt;Node48 -->
<g id="edge7" class="edge">
<title>Node41&#45;&gt;Node48</title>
<path fill="none" stroke="#191970" d="M723.2421,-90.9005C710.8238,-84.7294 695.8359,-77.6291 682,-72 669.0225,-66.7202 654.4025,-61.6612 641.7802,-57.5608"/>
<polygon fill="#191970" stroke="#191970" points="721.6702,-94.0276 732.1759,-95.3986 724.8182,-87.7753 721.6702,-94.0276"/>
</g>
<!-- Node49 -->
<g id="node9" class="node">
<title>Node49</title>
<g id="a_node9"><a xlink:href="classLocationTracker.html#a259a52389d4d7c4a5fe80aca35b789ea" target="_top" xlink:title=" ">
<polygon fill="#ffffff" stroke="#000000" points="544,-.5 544,-19.5 677,-19.5 677,-.5 544,-.5"/>
<text text-anchor="middle" x="610.5" y="-7.5" font-family="Helvetica,sans-Serif" font-size="10.00" fill="#000000">LocationTracker::update</text>
</a>
</g>
</g>
<!-- Node41&#45;&gt;Node49 -->
<g id="edge9" class="edge">
<title>Node41&#45;&gt;Node49</title>
<path fill="none" stroke="#191970" d="M738.7432,-86.7542C726.5906,-69.3557 706.0433,-43.6913 682,-29 675.6432,-25.1158 668.4968,-22.0164 661.2447,-19.5454"/>
<polygon fill="#191970" stroke="#191970" points="736.1098,-89.1095 744.5999,-95.4474 741.9152,-85.1983 736.1098,-89.1095"/>
</g>
<!-- Node44&#45;&gt;Node45 -->
<g id="edge4" class="edge">
<title>Node44&#45;&gt;Node45</title>
<path fill="none" stroke="#191970" d="M555.7208,-112.5939C529.5731,-107.1495 498.643,-100.7092 473.77,-95.5302"/>
<polygon fill="#191970" stroke="#191970" points="555.352,-116.0921 565.8555,-114.7042 556.7789,-109.2391 555.352,-116.0921"/>
</g>
<!-- Node46 -->
<g id="node6" class="node">
<title>Node46</title>
<g id="a_node6"><a xlink:href="classLocationFinder.html#af56756d038d762e04e0c91bac9fc2522" target="_top" xlink:title="Read a new frame, mask it, run GridFinder, and get the position of the drone. The position is the pos...">
<polygon fill="#ffffff" stroke="#000000" points="149,-76.5 149,-95.5 317,-95.5 317,-76.5 149,-76.5"/>
<text text-anchor="middle" x="233" y="-83.5" font-family="Helvetica,sans-Serif" font-size="10.00" fill="#000000">LocationFinder::updateLocation</text>
</a>
</g>
</g>
<!-- Node45&#45;&gt;Node46 -->
<g id="edge5" class="edge">
<title>Node45&#45;&gt;Node46</title>
<path fill="none" stroke="#191970" d="M342.6491,-86C334.1912,-86 325.6095,-86 317.1639,-86"/>
<polygon fill="#191970" stroke="#191970" points="342.8869,-89.5001 352.8868,-86 342.8868,-82.5001 342.8869,-89.5001"/>
</g>
<!-- Node47 -->
<g id="node7" class="node">
<title>Node47</title>
<g id="a_node7"><a xlink:href="Grid-Finder_8module_8hpp.html#a05e720af51446c0f9319fb9455fe1767" target="_top" xlink:title=" ">
<polygon fill="#ffffff" stroke="#000000" points="0,-76.5 0,-95.5 113,-95.5 113,-76.5 0,-76.5"/>
<text text-anchor="middle" x="56.5" y="-83.5" font-family="Helvetica,sans-Serif" font-size="10.00" fill="#000000">PYBIND11_MODULE</text>
</a>
</g>
</g>
<!-- Node46&#45;&gt;Node47 -->
<g id="edge6" class="edge">
<title>Node46&#45;&gt;Node47</title>
<path fill="none" stroke="#191970" d="M138.6177,-86C129.8852,-86 121.233,-86 113.0056,-86"/>
<polygon fill="#191970" stroke="#191970" points="138.8854,-89.5001 148.8854,-86 138.8853,-82.5001 138.8854,-89.5001"/>
</g>
<!-- Node48&#45;&gt;Node45 -->
<g id="edge8" class="edge">
<title>Node48&#45;&gt;Node45</title>
<path fill="none" stroke="#191970" d="M556.9576,-59.1486C530.5992,-64.6369 499.1471,-71.1858 473.9033,-76.442"/>
<polygon fill="#191970" stroke="#191970" points="557.7102,-62.567 566.7867,-57.1019 556.2832,-55.714 557.7102,-62.567"/>
</g>
</g>
</svg>
