<?xml version="1.0" encoding="UTF-8" standalone="no"?>
<!DOCTYPE svg PUBLIC "-//W3C//DTD SVG 1.1//EN"
 "http://www.w3.org/Graphics/SVG/1.1/DTD/svg11.dtd">
<!-- Generated by graphviz version 2.40.1 (20161225.0304)
 -->
<!-- Title: QRCommStruct::getTargetPosition Pages: 1 -->
<svg width="390pt" height="78pt"
 viewBox="0.00 0.00 390.00 77.50" xmlns="http://www.w3.org/2000/svg" xmlns:xlink="http://www.w3.org/1999/xlink">
<g id="graph0" class="graph" transform="scale(1 1) rotate(0) translate(4 73.5)">
<title>QRCommStruct::getTargetPosition</title>
<polygon fill="#ffffff" stroke="transparent" points="-4,4 -4,-73.5 386,-73.5 386,4 -4,4"/>
<!-- Node13 -->
<g id="node1" class="node">
<title>Node13</title>
<g id="a_node1"><a xlink:title="Get the new target position, and change the state to IDLE.">
<polygon fill="#bfbfbf" stroke="#000000" points="0,-22.5 0,-41.5 182,-41.5 182,-22.5 0,-22.5"/>
<text text-anchor="middle" x="91" y="-29.5" font-family="Helvetica,sans-Serif" font-size="10.00" fill="#000000">QRCommStruct::getTargetPosition</text>
</a>
</g>
</g>
<!-- Node14 -->
<g id="node2" class="node">
<title>Node14</title>
<g id="a_node2"><a xlink:href="structSharedStruct.html#ab84d9ff23f09b19bb8cf7f72ec9901fe" target="_top" xlink:title=" ">
<polygon fill="#ffffff" stroke="#000000" points="218,-39 218,-69 382,-69 382,-39 218,-39"/>
<text text-anchor="start" x="226" y="-57" font-family="Helvetica,sans-Serif" font-size="10.00" fill="#000000">SharedStruct&lt; QRCommStruct</text>
<text text-anchor="middle" x="300" y="-46" font-family="Helvetica,sans-Serif" font-size="10.00" fill="#000000"> &gt;::checkInitialized</text>
</a>
</g>
</g>
<!-- Node13&#45;&gt;Node14 -->
<g id="edge1" class="edge">
<title>Node13&#45;&gt;Node14</title>
<path fill="none" stroke="#191970" d="M181.4549,-41.5216C190.1772,-42.4397 199.0325,-43.3718 207.7716,-44.2917"/>
<polygon fill="#191970" stroke="#191970" points="207.6509,-47.7983 217.9624,-45.3645 208.3838,-40.8368 207.6509,-47.7983"/>
</g>
<!-- Node15 -->
<g id="node3" class="node">
<title>Node15</title>
<g id="a_node3"><a xlink:href="structQRCommStruct.html#ada773a7d6d56a5539e2b99705d0b9dcc" target="_top" xlink:title="Get the current state of the QR/Crypto FSM.">
<polygon fill="#ffffff" stroke="#000000" points="224,-.5 224,-19.5 376,-19.5 376,-.5 224,-.5"/>
<text text-anchor="middle" x="300" y="-7.5" font-family="Helvetica,sans-Serif" font-size="10.00" fill="#000000">QRCommStruct::getQRState</text>
</a>
</g>
</g>
<!-- Node13&#45;&gt;Node15 -->
<g id="edge2" class="edge">
<title>Node13&#45;&gt;Node15</title>
<path fill="none" stroke="#191970" d="M181.4549,-22.4784C192.1561,-21.352 203.0574,-20.2045 213.6989,-19.0843"/>
<polygon fill="#191970" stroke="#191970" points="214.2284,-22.548 223.807,-18.0203 213.4956,-15.5865 214.2284,-22.548"/>
</g>
</g>
</svg>
