<?xml version="1.0" encoding="UTF-8" standalone="no"?>
<!DOCTYPE svg PUBLIC "-//W3C//DTD SVG 1.1//EN"
 "http://www.w3.org/Graphics/SVG/1.1/DTD/svg11.dtd">
<!-- Generated by graphviz version 2.40.1 (20161225.0304)
 -->
<!-- Title: LogEntry Pages: 1 -->
<svg width="1268pt" height="496pt"
 viewBox="0.00 0.00 1267.50 496.00" xmlns="http://www.w3.org/2000/svg" xmlns:xlink="http://www.w3.org/1999/xlink">
<g id="graph0" class="graph" transform="scale(1 1) rotate(0) translate(4 492)">
<title>LogEntry</title>
<polygon fill="#ffffff" stroke="transparent" points="-4,4 -4,-492 1263.5,-492 1263.5,4 -4,4"/>
<!-- Node1 -->
<g id="node1" class="node">
<title>Node1</title>
<g id="a_node1"><a xlink:title=" ">
<polygon fill="#bfbfbf" stroke="#000000" points="579.5,-.5 579.5,-68.5 659.5,-68.5 659.5,-.5 579.5,-.5"/>
<text text-anchor="middle" x="619.5" y="-56.5" font-family="Helvetica,sans-Serif" font-size="10.00" fill="#000000">LogEntry</text>
<polyline fill="none" stroke="#000000" points="579.5,-49.5 659.5,-49.5 "/>
<text text-anchor="start" x="587.5" y="-37.5" font-family="Helvetica,sans-Serif" font-size="10.00" fill="#000000">+ mode</text>
<text text-anchor="start" x="587.5" y="-26.5" font-family="Helvetica,sans-Serif" font-size="10.00" fill="#000000">+ frametime</text>
<polyline fill="none" stroke="#000000" points="579.5,-19.5 659.5,-19.5 "/>
<text text-anchor="middle" x="619.5" y="-7.5" font-family="Helvetica,sans-Serif" font-size="10.00" fill="#000000"> </text>
</a>
</g>
</g>
<!-- Node2 -->
<g id="node2" class="node">
<title>Node2</title>
<g id="a_node2"><a xlink:href="structPositionReference.html" target="_top" xlink:title=" ">
<polygon fill="#ffffff" stroke="#000000" points="0,-127.5 0,-195.5 123,-195.5 123,-127.5 0,-127.5"/>
<text text-anchor="middle" x="61.5" y="-183.5" font-family="Helvetica,sans-Serif" font-size="10.00" fill="#000000">PositionReference</text>
<polyline fill="none" stroke="#000000" points="0,-176.5 123,-176.5 "/>
<text text-anchor="middle" x="61.5" y="-164.5" font-family="Helvetica,sans-Serif" font-size="10.00" fill="#000000"> </text>
<polyline fill="none" stroke="#000000" points="0,-157.5 123,-157.5 "/>
<text text-anchor="start" x="8" y="-145.5" font-family="Helvetica,sans-Serif" font-size="10.00" fill="#000000">+ PositionReference()</text>
<text text-anchor="start" x="8" y="-134.5" font-family="Helvetica,sans-Serif" font-size="10.00" fill="#000000">+ PositionReference()</text>
</a>
</g>
</g>
<!-- Node2&#45;&gt;Node1 -->
<g id="edge1" class="edge">
<title>Node2&#45;&gt;Node1</title>
<path fill="none" stroke="#404040" d="M86.1614,-127.2535C98.8408,-112.3249 115.6011,-96.1688 134.5,-87 209.8127,-50.462 457.9915,-39.0482 567.1713,-35.7439"/>
<polygon fill="none" stroke="#404040" points="567.4718,-35.7353 573.3537,-31.5636 579.4668,-35.3885 573.5849,-39.5603 567.4718,-35.7353"/>
<text text-anchor="middle" x="184.5" y="-90" font-family="Helvetica,sans-Serif" font-size="10.00" fill="#000000"> +referenceLocation</text>
</g>
<!-- Node3 -->
<g id="node3" class="node">
<title>Node3</title>
<g id="a_node3"><a xlink:href="structArray.html" target="_top" xlink:title=" ">
<polygon fill="#ffffff" stroke="#000000" points="159.5,-282 159.5,-482 263.5,-482 263.5,-282 159.5,-282"/>
<text text-anchor="middle" x="211.5" y="-470" font-family="Helvetica,sans-Serif" font-size="10.00" fill="#000000">Array&lt; float, 2 &gt;</text>
<polyline fill="none" stroke="#000000" points="159.5,-463 263.5,-463 "/>
<text text-anchor="start" x="167.5" y="-451" font-family="Helvetica,sans-Serif" font-size="10.00" fill="#000000">+ data</text>
<polyline fill="none" stroke="#000000" points="159.5,-444 263.5,-444 "/>
<text text-anchor="start" x="167.5" y="-432" font-family="Helvetica,sans-Serif" font-size="10.00" fill="#000000">+ operator[]()</text>
<text text-anchor="start" x="167.5" y="-421" font-family="Helvetica,sans-Serif" font-size="10.00" fill="#000000">+ operator[]()</text>
<text text-anchor="start" x="167.5" y="-410" font-family="Helvetica,sans-Serif" font-size="10.00" fill="#000000">+ begin()</text>
<text text-anchor="start" x="167.5" y="-399" font-family="Helvetica,sans-Serif" font-size="10.00" fill="#000000">+ begin()</text>
<text text-anchor="start" x="167.5" y="-388" font-family="Helvetica,sans-Serif" font-size="10.00" fill="#000000">+ end()</text>
<text text-anchor="start" x="167.5" y="-377" font-family="Helvetica,sans-Serif" font-size="10.00" fill="#000000">+ end()</text>
<text text-anchor="start" x="167.5" y="-366" font-family="Helvetica,sans-Serif" font-size="10.00" fill="#000000">+ operator==()</text>
<text text-anchor="start" x="167.5" y="-355" font-family="Helvetica,sans-Serif" font-size="10.00" fill="#000000">+ operator*()</text>
<text text-anchor="start" x="167.5" y="-344" font-family="Helvetica,sans-Serif" font-size="10.00" fill="#000000">+ operator*=()</text>
<text text-anchor="start" x="167.5" y="-333" font-family="Helvetica,sans-Serif" font-size="10.00" fill="#000000">+ operator/()</text>
<text text-anchor="start" x="167.5" y="-322" font-family="Helvetica,sans-Serif" font-size="10.00" fill="#000000">and 16 more...</text>
<text text-anchor="start" x="167.5" y="-311" font-family="Helvetica,sans-Serif" font-size="10.00" fill="#000000">+ fromCppArray()</text>
<text text-anchor="start" x="167.5" y="-300" font-family="Helvetica,sans-Serif" font-size="10.00" fill="#000000">+ fromCArray()</text>
<text text-anchor="start" x="167.5" y="-289" font-family="Helvetica,sans-Serif" font-size="10.00" fill="#000000">+ length()</text>
</a>
</g>
</g>
<!-- Node3&#45;&gt;Node2 -->
<g id="edge2" class="edge">
<title>Node3&#45;&gt;Node2</title>
<path fill="none" stroke="#404040" d="M159.4582,-305.4986C136.7745,-272.1534 110.9898,-234.2499 91.5701,-205.703"/>
<polygon fill="none" stroke="#404040" points="91.4705,-205.5567 84.7884,-202.8456 84.7209,-195.6348 91.403,-198.3458 91.4705,-205.5567"/>
<text text-anchor="middle" x="131.5" y="-239" font-family="Helvetica,sans-Serif" font-size="10.00" fill="#000000"> +p</text>
</g>
<!-- Node8 -->
<g id="node8" class="node">
<title>Node8</title>
<g id="a_node8"><a xlink:href="structPositionControlSignal.html" target="_top" xlink:title=" ">
<polygon fill="#ffffff" stroke="#000000" points="141.5,-127.5 141.5,-195.5 281.5,-195.5 281.5,-127.5 141.5,-127.5"/>
<text text-anchor="middle" x="211.5" y="-183.5" font-family="Helvetica,sans-Serif" font-size="10.00" fill="#000000">PositionControlSignal</text>
<polyline fill="none" stroke="#000000" points="141.5,-176.5 281.5,-176.5 "/>
<text text-anchor="middle" x="211.5" y="-164.5" font-family="Helvetica,sans-Serif" font-size="10.00" fill="#000000"> </text>
<polyline fill="none" stroke="#000000" points="141.5,-157.5 281.5,-157.5 "/>
<text text-anchor="start" x="149.5" y="-145.5" font-family="Helvetica,sans-Serif" font-size="10.00" fill="#000000">+ PositionControlSignal()</text>
<text text-anchor="start" x="149.5" y="-134.5" font-family="Helvetica,sans-Serif" font-size="10.00" fill="#000000">+ PositionControlSignal()</text>
</a>
</g>
</g>
<!-- Node3&#45;&gt;Node8 -->
<g id="edge8" class="edge">
<title>Node3&#45;&gt;Node8</title>
<path fill="none" stroke="#404040" d="M211.5,-281.7507C211.5,-255.8831 211.5,-229.2751 211.5,-207.6859"/>
<polygon fill="none" stroke="#404040" points="211.5001,-207.598 207.5,-201.598 211.5,-195.598 215.5,-201.598 211.5001,-207.598"/>
<text text-anchor="middle" x="220.5" y="-239" font-family="Helvetica,sans-Serif" font-size="10.00" fill="#000000"> +q</text>
</g>
<!-- Node10 -->
<g id="node10" class="node">
<title>Node10</title>
<g id="a_node10"><a xlink:href="structPositionState.html" target="_top" xlink:title=" ">
<polygon fill="#ffffff" stroke="#000000" points="299.5,-127.5 299.5,-195.5 399.5,-195.5 399.5,-127.5 299.5,-127.5"/>
<text text-anchor="middle" x="349.5" y="-183.5" font-family="Helvetica,sans-Serif" font-size="10.00" fill="#000000">PositionState</text>
<polyline fill="none" stroke="#000000" points="299.5,-176.5 399.5,-176.5 "/>
<text text-anchor="middle" x="349.5" y="-164.5" font-family="Helvetica,sans-Serif" font-size="10.00" fill="#000000"> </text>
<polyline fill="none" stroke="#000000" points="299.5,-157.5 399.5,-157.5 "/>
<text text-anchor="start" x="307.5" y="-145.5" font-family="Helvetica,sans-Serif" font-size="10.00" fill="#000000">+ PositionState()</text>
<text text-anchor="start" x="307.5" y="-134.5" font-family="Helvetica,sans-Serif" font-size="10.00" fill="#000000">+ PositionState()</text>
</a>
</g>
</g>
<!-- Node3&#45;&gt;Node10 -->
<g id="edge11" class="edge">
<title>Node3&#45;&gt;Node10</title>
<path fill="none" stroke="#404040" d="M263.6719,-298.6384C283.3275,-267.2322 304.9233,-232.7258 321.5352,-206.1829"/>
<polygon fill="none" stroke="#404040" points="321.7333,-205.8663 321.5257,-198.6582 328.0995,-195.6942 328.3071,-202.9023 321.7333,-205.8663"/>
<text text-anchor="middle" x="317.5" y="-250" font-family="Helvetica,sans-Serif" font-size="10.00" fill="#000000"> +p</text>
<text text-anchor="middle" x="317.5" y="-239" font-family="Helvetica,sans-Serif" font-size="10.00" fill="#000000">+q</text>
<text text-anchor="middle" x="317.5" y="-228" font-family="Helvetica,sans-Serif" font-size="10.00" fill="#000000">+v</text>
</g>
<!-- Node4 -->
<g id="node4" class="node">
<title>Node4</title>
<g id="a_node4"><a xlink:href="structAltitudeReference.html" target="_top" xlink:title=" ">
<polygon fill="#ffffff" stroke="#000000" points="432.5,-127.5 432.5,-195.5 554.5,-195.5 554.5,-127.5 432.5,-127.5"/>
<text text-anchor="middle" x="493.5" y="-183.5" font-family="Helvetica,sans-Serif" font-size="10.00" fill="#000000">AltitudeReference</text>
<polyline fill="none" stroke="#000000" points="432.5,-176.5 554.5,-176.5 "/>
<text text-anchor="start" x="440.5" y="-164.5" font-family="Helvetica,sans-Serif" font-size="10.00" fill="#000000">+ z</text>
<polyline fill="none" stroke="#000000" points="432.5,-157.5 554.5,-157.5 "/>
<text text-anchor="start" x="440.5" y="-145.5" font-family="Helvetica,sans-Serif" font-size="10.00" fill="#000000">+ AltitudeReference()</text>
<text text-anchor="start" x="440.5" y="-134.5" font-family="Helvetica,sans-Serif" font-size="10.00" fill="#000000">+ AltitudeReference()</text>
</a>
</g>
</g>
<!-- Node4&#45;&gt;Node1 -->
<g id="edge3" class="edge">
<title>Node4&#45;&gt;Node1</title>
<path fill="none" stroke="#404040" d="M502.3516,-127.2714C507.1838,-113.5724 514.3155,-98.3775 524.5,-87 536.4339,-73.6681 552.5846,-63.0034 568.1822,-54.8615"/>
<polygon fill="none" stroke="#404040" points="568.5981,-54.6577 572.2256,-48.4253 579.3737,-49.3767 575.7462,-55.609 568.5981,-54.6577"/>
<text text-anchor="middle" x="570" y="-90" font-family="Helvetica,sans-Serif" font-size="10.00" fill="#000000"> +referenceHeight</text>
</g>
<!-- Node5 -->
<g id="node5" class="node">
<title>Node5</title>
<g id="a_node5"><a xlink:href="structAltitudeState.html" target="_top" xlink:title=" ">
<polygon fill="#ffffff" stroke="#000000" points="573,-116.5 573,-206.5 672,-206.5 672,-116.5 573,-116.5"/>
<text text-anchor="middle" x="622.5" y="-194.5" font-family="Helvetica,sans-Serif" font-size="10.00" fill="#000000">AltitudeState</text>
<polyline fill="none" stroke="#000000" points="573,-187.5 672,-187.5 "/>
<text text-anchor="start" x="581" y="-175.5" font-family="Helvetica,sans-Serif" font-size="10.00" fill="#000000">+ nt</text>
<text text-anchor="start" x="581" y="-164.5" font-family="Helvetica,sans-Serif" font-size="10.00" fill="#000000">+ z</text>
<text text-anchor="start" x="581" y="-153.5" font-family="Helvetica,sans-Serif" font-size="10.00" fill="#000000">+ vz</text>
<polyline fill="none" stroke="#000000" points="573,-146.5 672,-146.5 "/>
<text text-anchor="start" x="581" y="-134.5" font-family="Helvetica,sans-Serif" font-size="10.00" fill="#000000">+ AltitudeState()</text>
<text text-anchor="start" x="581" y="-123.5" font-family="Helvetica,sans-Serif" font-size="10.00" fill="#000000">+ AltitudeState()</text>
</a>
</g>
</g>
<!-- Node5&#45;&gt;Node1 -->
<g id="edge4" class="edge">
<title>Node5&#45;&gt;Node1</title>
<path fill="none" stroke="#404040" d="M620.9921,-116.4063C620.8109,-110.2222 620.6406,-103.9544 620.5,-98 620.3706,-92.5197 620.2537,-86.7729 620.1493,-81.0699"/>
<polygon fill="none" stroke="#404040" points="620.1444,-80.7737 616.0433,-74.8424 619.941,-68.7754 624.0422,-74.7068 620.1444,-80.7737"/>
<text text-anchor="middle" x="680" y="-90" font-family="Helvetica,sans-Serif" font-size="10.00" fill="#000000"> +altitudeObserverState</text>
</g>
<!-- Node6 -->
<g id="node6" class="node">
<title>Node6</title>
<g id="a_node6"><a xlink:href="structAttitudeControlSignal.html" target="_top" xlink:title=" ">
<polygon fill="#ffffff" stroke="#000000" points="695.5,-127.5 695.5,-195.5 835.5,-195.5 835.5,-127.5 695.5,-127.5"/>
<text text-anchor="middle" x="765.5" y="-183.5" font-family="Helvetica,sans-Serif" font-size="10.00" fill="#000000">AttitudeControlSignal</text>
<polyline fill="none" stroke="#000000" points="695.5,-176.5 835.5,-176.5 "/>
<text text-anchor="middle" x="765.5" y="-164.5" font-family="Helvetica,sans-Serif" font-size="10.00" fill="#000000"> </text>
<polyline fill="none" stroke="#000000" points="695.5,-157.5 835.5,-157.5 "/>
<text text-anchor="start" x="703.5" y="-145.5" font-family="Helvetica,sans-Serif" font-size="10.00" fill="#000000">+ AttitudeControlSignal()</text>
<text text-anchor="start" x="703.5" y="-134.5" font-family="Helvetica,sans-Serif" font-size="10.00" fill="#000000">+ AttitudeControlSignal()</text>
</a>
</g>
</g>
<!-- Node6&#45;&gt;Node1 -->
<g id="edge5" class="edge">
<title>Node6&#45;&gt;Node1</title>
<path fill="none" stroke="#404040" d="M759.7672,-127.2322C755.9797,-113.3655 749.7394,-98.0557 739.5,-87 721.4567,-67.5182 694.9064,-54.8859 671.364,-46.9079"/>
<polygon fill="none" stroke="#404040" points="671.1915,-46.8537 664.2676,-48.8686 659.7446,-43.2523 666.6685,-41.2374 671.1915,-46.8537"/>
<text text-anchor="middle" x="807" y="-90" font-family="Helvetica,sans-Serif" font-size="10.00" fill="#000000"> +attitudeControlSignals</text>
</g>
<!-- Node7 -->
<g id="node7" class="node">
<title>Node7</title>
<g id="a_node7"><a xlink:href="structArray.html" target="_top" xlink:title=" ">
<polygon fill="#ffffff" stroke="#000000" points="738.5,-282 738.5,-482 842.5,-482 842.5,-282 738.5,-282"/>
<text text-anchor="middle" x="790.5" y="-470" font-family="Helvetica,sans-Serif" font-size="10.00" fill="#000000">Array&lt; float, 3 &gt;</text>
<polyline fill="none" stroke="#000000" points="738.5,-463 842.5,-463 "/>
<text text-anchor="start" x="746.5" y="-451" font-family="Helvetica,sans-Serif" font-size="10.00" fill="#000000">+ data</text>
<polyline fill="none" stroke="#000000" points="738.5,-444 842.5,-444 "/>
<text text-anchor="start" x="746.5" y="-432" font-family="Helvetica,sans-Serif" font-size="10.00" fill="#000000">+ operator[]()</text>
<text text-anchor="start" x="746.5" y="-421" font-family="Helvetica,sans-Serif" font-size="10.00" fill="#000000">+ operator[]()</text>
<text text-anchor="start" x="746.5" y="-410" font-family="Helvetica,sans-Serif" font-size="10.00" fill="#000000">+ begin()</text>
<text text-anchor="start" x="746.5" y="-399" font-family="Helvetica,sans-Serif" font-size="10.00" fill="#000000">+ begin()</text>
<text text-anchor="start" x="746.5" y="-388" font-family="Helvetica,sans-Serif" font-size="10.00" fill="#000000">+ end()</text>
<text text-anchor="start" x="746.5" y="-377" font-family="Helvetica,sans-Serif" font-size="10.00" fill="#000000">+ end()</text>
<text text-anchor="start" x="746.5" y="-366" font-family="Helvetica,sans-Serif" font-size="10.00" fill="#000000">+ operator==()</text>
<text text-anchor="start" x="746.5" y="-355" font-family="Helvetica,sans-Serif" font-size="10.00" fill="#000000">+ operator*()</text>
<text text-anchor="start" x="746.5" y="-344" font-family="Helvetica,sans-Serif" font-size="10.00" fill="#000000">+ operator*=()</text>
<text text-anchor="start" x="746.5" y="-333" font-family="Helvetica,sans-Serif" font-size="10.00" fill="#000000">+ operator/()</text>
<text text-anchor="start" x="746.5" y="-322" font-family="Helvetica,sans-Serif" font-size="10.00" fill="#000000">and 16 more...</text>
<text text-anchor="start" x="746.5" y="-311" font-family="Helvetica,sans-Serif" font-size="10.00" fill="#000000">+ fromCppArray()</text>
<text text-anchor="start" x="746.5" y="-300" font-family="Helvetica,sans-Serif" font-size="10.00" fill="#000000">+ fromCArray()</text>
<text text-anchor="start" x="746.5" y="-289" font-family="Helvetica,sans-Serif" font-size="10.00" fill="#000000">+ length()</text>
</a>
</g>
</g>
<!-- Node7&#45;&gt;Node6 -->
<g id="edge6" class="edge">
<title>Node7&#45;&gt;Node6</title>
<path fill="none" stroke="#404040" d="M779.1339,-281.7507C776.201,-255.8831 773.1843,-229.2751 770.7365,-207.6859"/>
<polygon fill="none" stroke="#404040" points="770.718,-207.5216 766.0674,-202.0105 769.366,-195.598 774.0165,-201.1092 770.718,-207.5216"/>
<text text-anchor="middle" x="784.5" y="-239" font-family="Helvetica,sans-Serif" font-size="10.00" fill="#000000"> +u</text>
</g>
<!-- Node11 -->
<g id="node11" class="node">
<title>Node11</title>
<g id="a_node11"><a xlink:href="structAttitudeState.html" target="_top" xlink:title=" ">
<polygon fill="#ffffff" stroke="#000000" points="855.5,-127.5 855.5,-195.5 955.5,-195.5 955.5,-127.5 855.5,-127.5"/>
<text text-anchor="middle" x="905.5" y="-183.5" font-family="Helvetica,sans-Serif" font-size="10.00" fill="#000000">AttitudeState</text>
<polyline fill="none" stroke="#000000" points="855.5,-176.5 955.5,-176.5 "/>
<text text-anchor="middle" x="905.5" y="-164.5" font-family="Helvetica,sans-Serif" font-size="10.00" fill="#000000"> </text>
<polyline fill="none" stroke="#000000" points="855.5,-157.5 955.5,-157.5 "/>
<text text-anchor="start" x="863.5" y="-145.5" font-family="Helvetica,sans-Serif" font-size="10.00" fill="#000000">+ AttitudeState()</text>
<text text-anchor="start" x="863.5" y="-134.5" font-family="Helvetica,sans-Serif" font-size="10.00" fill="#000000">+ AttitudeState()</text>
</a>
</g>
</g>
<!-- Node7&#45;&gt;Node11 -->
<g id="edge13" class="edge">
<title>Node7&#45;&gt;Node11</title>
<path fill="none" stroke="#404040" d="M842.6164,-282.0725C856.3816,-255.6792 870.5619,-228.4899 881.9646,-206.6265"/>
<polygon fill="none" stroke="#404040" points="882.1082,-206.3511 881.3362,-199.1814 887.6574,-195.7112 888.4295,-202.8809 882.1082,-206.3511"/>
<text text-anchor="middle" x="881.5" y="-244.5" font-family="Helvetica,sans-Serif" font-size="10.00" fill="#000000"> +w</text>
<text text-anchor="middle" x="881.5" y="-233.5" font-family="Helvetica,sans-Serif" font-size="10.00" fill="#000000">+n</text>
</g>
<!-- Node8&#45;&gt;Node1 -->
<g id="edge7" class="edge">
<title>Node8&#45;&gt;Node1</title>
<path fill="none" stroke="#404040" d="M221.4802,-127.4094C227.5237,-112.7032 236.7866,-96.6856 250.5,-87 300.475,-51.7035 477.969,-39.906 567.3174,-36.1506"/>
<polygon fill="none" stroke="#404040" points="567.3269,-36.1503 573.1629,-31.9145 579.3174,-35.6724 573.4814,-39.9082 567.3269,-36.1503"/>
<text text-anchor="middle" x="308.5" y="-90" font-family="Helvetica,sans-Serif" font-size="10.00" fill="#000000"> +positionControlSignal</text>
</g>
<!-- Node9 -->
<g id="node9" class="node">
<title>Node9</title>
<g id="a_node9"><a xlink:href="structAltitudeControlSignal.html" target="_top" xlink:title=" ">
<polygon fill="#ffffff" stroke="#000000" points="1115,-127.5 1115,-195.5 1254,-195.5 1254,-127.5 1115,-127.5"/>
<text text-anchor="middle" x="1184.5" y="-183.5" font-family="Helvetica,sans-Serif" font-size="10.00" fill="#000000">AltitudeControlSignal</text>
<polyline fill="none" stroke="#000000" points="1115,-176.5 1254,-176.5 "/>
<text text-anchor="start" x="1123" y="-164.5" font-family="Helvetica,sans-Serif" font-size="10.00" fill="#000000">+ ut</text>
<polyline fill="none" stroke="#000000" points="1115,-157.5 1254,-157.5 "/>
<text text-anchor="start" x="1123" y="-145.5" font-family="Helvetica,sans-Serif" font-size="10.00" fill="#000000">+ AltitudeControlSignal()</text>
<text text-anchor="start" x="1123" y="-134.5" font-family="Helvetica,sans-Serif" font-size="10.00" fill="#000000">+ AltitudeControlSignal()</text>
</a>
</g>
</g>
<!-- Node9&#45;&gt;Node1 -->
<g id="edge9" class="edge">
<title>Node9&#45;&gt;Node1</title>
<path fill="none" stroke="#404040" d="M1168.5605,-127.3403C1159.7854,-112.4308 1147.4116,-96.2656 1131.5,-87 1092.3933,-64.2274 794.5622,-44.6204 671.969,-37.4292"/>
<polygon fill="none" stroke="#404040" points="671.611,-37.4085 665.3892,-41.0539 659.6312,-36.7128 665.853,-33.0674 671.611,-37.4085"/>
<text text-anchor="middle" x="1202" y="-90" font-family="Helvetica,sans-Serif" font-size="10.00" fill="#000000"> +altitudeControlSignal</text>
</g>
<!-- Node10&#45;&gt;Node1 -->
<g id="edge10" class="edge">
<title>Node10&#45;&gt;Node1</title>
<path fill="none" stroke="#404040" d="M355.86,-127.2524C360.2107,-112.8777 367.4661,-97.1703 379.5,-87 407.386,-63.4323 505.3141,-47.9066 567.1281,-40.2071"/>
<polygon fill="none" stroke="#404040" points="567.4419,-40.1692 572.9177,-35.4771 579.3549,-38.7271 573.8791,-43.4191 567.4419,-40.1692"/>
<text text-anchor="middle" x="446" y="-90" font-family="Helvetica,sans-Serif" font-size="10.00" fill="#000000"> +navigationObserverState</text>
</g>
<!-- Node11&#45;&gt;Node1 -->
<g id="edge12" class="edge">
<title>Node11&#45;&gt;Node1</title>
<path fill="none" stroke="#404040" d="M897.2754,-127.1183C892.1478,-112.7177 884.0523,-97.0271 871.5,-87 841.1987,-62.7946 736.1501,-47.2787 671.6375,-39.7959"/>
<polygon fill="none" stroke="#404040" points="671.6244,-39.7945 665.2138,-43.0965 659.7001,-38.449 666.1108,-35.147 671.6244,-39.7945"/>
<text text-anchor="middle" x="940.5" y="-90" font-family="Helvetica,sans-Serif" font-size="10.00" fill="#000000"> +attitudeObserverState</text>
</g>
<!-- Node12 -->
<g id="node12" class="node">
<title>Node12</title>
<g id="a_node12"><a xlink:href="classQuaternion.html" target="_top" xlink:title=" ">
<polygon fill="#ffffff" stroke="#000000" points="894.5,-276.5 894.5,-487.5 1000.5,-487.5 1000.5,-276.5 894.5,-276.5"/>
<text text-anchor="middle" x="947.5" y="-475.5" font-family="Helvetica,sans-Serif" font-size="10.00" fill="#000000">Quaternion</text>
<polyline fill="none" stroke="#000000" points="894.5,-468.5 1000.5,-468.5 "/>
<text text-anchor="middle" x="947.5" y="-456.5" font-family="Helvetica,sans-Serif" font-size="10.00" fill="#000000"> </text>
<polyline fill="none" stroke="#000000" points="894.5,-449.5 1000.5,-449.5 "/>
<text text-anchor="start" x="902.5" y="-437.5" font-family="Helvetica,sans-Serif" font-size="10.00" fill="#000000">+ Quaternion()</text>
<text text-anchor="start" x="902.5" y="-426.5" font-family="Helvetica,sans-Serif" font-size="10.00" fill="#000000">+ Quaternion()</text>
<text text-anchor="start" x="902.5" y="-415.5" font-family="Helvetica,sans-Serif" font-size="10.00" fill="#000000">+ Quaternion()</text>
<text text-anchor="start" x="902.5" y="-404.5" font-family="Helvetica,sans-Serif" font-size="10.00" fill="#000000">+ asColVector()</text>
<text text-anchor="start" x="902.5" y="-393.5" font-family="Helvetica,sans-Serif" font-size="10.00" fill="#000000">+ asColVector()</text>
<text text-anchor="start" x="902.5" y="-382.5" font-family="Helvetica,sans-Serif" font-size="10.00" fill="#000000">+ normalize()</text>
<text text-anchor="start" x="902.5" y="-371.5" font-family="Helvetica,sans-Serif" font-size="10.00" fill="#000000">+ conjugate()</text>
<text text-anchor="start" x="902.5" y="-360.5" font-family="Helvetica,sans-Serif" font-size="10.00" fill="#000000">+ operator&#45;()</text>
<text text-anchor="start" x="902.5" y="-349.5" font-family="Helvetica,sans-Serif" font-size="10.00" fill="#000000">+ operator+()</text>
<text text-anchor="start" x="902.5" y="-338.5" font-family="Helvetica,sans-Serif" font-size="10.00" fill="#000000">+ operator&#45;()</text>
<text text-anchor="start" x="902.5" y="-327.5" font-family="Helvetica,sans-Serif" font-size="10.00" fill="#000000">and 7 more...</text>
<text text-anchor="start" x="902.5" y="-316.5" font-family="Helvetica,sans-Serif" font-size="10.00" fill="#000000">+ quatmultiply()</text>
<text text-anchor="start" x="902.5" y="-305.5" font-family="Helvetica,sans-Serif" font-size="10.00" fill="#000000">+ quatdifference()</text>
<text text-anchor="start" x="902.5" y="-294.5" font-family="Helvetica,sans-Serif" font-size="10.00" fill="#000000">+ unit()</text>
<text text-anchor="start" x="902.5" y="-283.5" font-family="Helvetica,sans-Serif" font-size="10.00" fill="#000000">+ fromDirection()</text>
</a>
</g>
</g>
<!-- Node12&#45;&gt;Node11 -->
<g id="edge14" class="edge">
<title>Node12&#45;&gt;Node11</title>
<path fill="none" stroke="#404040" d="M927.3611,-276.2708C922.7584,-252.1068 918.1005,-227.6527 914.2737,-207.5621"/>
<polygon fill="none" stroke="#404040" points="914.2518,-207.4464 909.1997,-202.3009 912.0064,-195.6584 917.0584,-200.8039 914.2518,-207.4464"/>
<text text-anchor="middle" x="931.5" y="-239" font-family="Helvetica,sans-Serif" font-size="10.00" fill="#000000"> +q</text>
</g>
<!-- Node13 -->
<g id="node13" class="node">
<title>Node13</title>
<g id="a_node13"><a xlink:href="structAttitudeReference.html" target="_top" xlink:title=" ">
<polygon fill="#ffffff" stroke="#000000" points="974,-127.5 974,-195.5 1097,-195.5 1097,-127.5 974,-127.5"/>
<text text-anchor="middle" x="1035.5" y="-183.5" font-family="Helvetica,sans-Serif" font-size="10.00" fill="#000000">AttitudeReference</text>
<polyline fill="none" stroke="#000000" points="974,-176.5 1097,-176.5 "/>
<text text-anchor="middle" x="1035.5" y="-164.5" font-family="Helvetica,sans-Serif" font-size="10.00" fill="#000000"> </text>
<polyline fill="none" stroke="#000000" points="974,-157.5 1097,-157.5 "/>
<text text-anchor="start" x="982" y="-145.5" font-family="Helvetica,sans-Serif" font-size="10.00" fill="#000000">+ AttitudeReference()</text>
<text text-anchor="start" x="982" y="-134.5" font-family="Helvetica,sans-Serif" font-size="10.00" fill="#000000">+ AttitudeReference()</text>
</a>
</g>
</g>
<!-- Node12&#45;&gt;Node13 -->
<g id="edge16" class="edge">
<title>Node12&#45;&gt;Node13</title>
<path fill="none" stroke="#404040" d="M989.6958,-276.2708C999.4304,-251.8789 1009.2831,-227.1913 1017.3434,-206.9947"/>
<polygon fill="none" stroke="#404040" points="1017.4196,-206.8036 1015.9286,-199.7483 1021.8676,-195.6584 1023.3587,-202.7136 1017.4196,-206.8036"/>
<text text-anchor="middle" x="1017.5" y="-239" font-family="Helvetica,sans-Serif" font-size="10.00" fill="#000000"> +q</text>
</g>
<!-- Node13&#45;&gt;Node1 -->
<g id="edge15" class="edge">
<title>Node13&#45;&gt;Node1</title>
<path fill="none" stroke="#404040" d="M1029.1486,-127.1545C1024.6871,-112.5802 1017.1555,-96.7412 1004.5,-87 978.5795,-67.0484 770.9413,-47.1933 671.8155,-38.7409"/>
<polygon fill="none" stroke="#404040" points="671.6724,-38.7289 665.3573,-42.2102 659.7149,-37.7198 666.0301,-34.2385 671.6724,-38.7289"/>
<text text-anchor="middle" x="1071" y="-90" font-family="Helvetica,sans-Serif" font-size="10.00" fill="#000000"> +referenceOrientation</text>
</g>
</g>
</svg>
