<?xml version="1.0" encoding="UTF-8" standalone="no"?>
<!DOCTYPE svg PUBLIC "-//W3C//DTD SVG 1.1//EN"
 "http://www.w3.org/Graphics/SVG/1.1/DTD/svg11.dtd">
<!-- Generated by graphviz version 2.40.1 (20161225.0304)
 -->
<!-- Title: QRCommStruct::getQRState Pages: 1 -->
<svg width="595pt" height="253pt"
 viewBox="0.00 0.00 595.00 252.50" xmlns="http://www.w3.org/2000/svg" xmlns:xlink="http://www.w3.org/1999/xlink">
<g id="graph0" class="graph" transform="scale(1 1) rotate(0) translate(4 248.5)">
<title>QRCommStruct::getQRState</title>
<polygon fill="#ffffff" stroke="transparent" points="-4,4 -4,-248.5 591,-248.5 591,4 -4,4"/>
<!-- Node5 -->
<g id="node1" class="node">
<title>Node5</title>
<g id="a_node1"><a xlink:title="Get the current state of the QR/Crypto FSM.">
<polygon fill="#bfbfbf" stroke="#000000" points="435,-118 435,-137 587,-137 587,-118 435,-118"/>
<text text-anchor="middle" x="511" y="-125" font-family="Helvetica,sans-Serif" font-size="10.00" fill="#000000">QRCommStruct::getQRState</text>
</a>
</g>
</g>
<!-- Node6 -->
<g id="node2" class="node">
<title>Node6</title>
<g id="a_node2"><a xlink:href="structQRCommStruct.html#ac39d369524dee12d352f73186a24d057" target="_top" xlink:title="Set the new target position, and change the state to NEW_TARGET.">
<polygon fill="#ffffff" stroke="#000000" points="217.5,-225 217.5,-244 398.5,-244 398.5,-225 217.5,-225"/>
<text text-anchor="middle" x="308" y="-232" font-family="Helvetica,sans-Serif" font-size="10.00" fill="#000000">QRCommStruct::setTargetPosition</text>
</a>
</g>
</g>
<!-- Node5&#45;&gt;Node6 -->
<g id="edge1" class="edge">
<title>Node5&#45;&gt;Node6</title>
<path fill="none" stroke="#191970" d="M494.6131,-144.4756C474.1591,-164.6196 437.1932,-197.7102 399,-215.5 390.6608,-219.3842 381.5238,-222.4807 372.3576,-224.9477"/>
<polygon fill="#191970" stroke="#191970" points="497.2766,-146.761 501.8499,-137.2041 492.315,-141.8231 497.2766,-146.761"/>
</g>
<!-- Node8 -->
<g id="node4" class="node">
<title>Node8</title>
<g id="a_node4"><a xlink:href="structQRCommStruct.html#aad9a9fd18b7628a6e1f3ac0c525998f4" target="_top" xlink:title="Set the position of the current QR code.">
<polygon fill="#ffffff" stroke="#000000" points="234,-175.5 234,-205.5 382,-205.5 382,-175.5 234,-175.5"/>
<text text-anchor="start" x="242" y="-193.5" font-family="Helvetica,sans-Serif" font-size="10.00" fill="#000000">QRCommStruct::setCurrent</text>
<text text-anchor="middle" x="308" y="-182.5" font-family="Helvetica,sans-Serif" font-size="10.00" fill="#000000">Position</text>
</a>
</g>
</g>
<!-- Node5&#45;&gt;Node8 -->
<g id="edge3" class="edge">
<title>Node5&#45;&gt;Node8</title>
<path fill="none" stroke="#191970" d="M474.8981,-140.3526C453.037,-147.9842 424.535,-157.6681 399,-165.5 388.0354,-168.863 376.2631,-172.2561 364.9448,-175.4113"/>
<polygon fill="#191970" stroke="#191970" points="476.1633,-143.6179 484.4406,-137.0045 473.8457,-137.0127 476.1633,-143.6179"/>
</g>
<!-- Node9 -->
<g id="node5" class="node">
<title>Node9</title>
<g id="a_node5"><a xlink:href="structQRCommStruct.html#a07e63598d31e1de9a92344d8f88f89f9" target="_top" xlink:title="Change the state to QR_READING_BUSY.">
<polygon fill="#ffffff" stroke="#000000" points="220,-137 220,-156 396,-156 396,-137 220,-137"/>
<text text-anchor="middle" x="308" y="-144" font-family="Helvetica,sans-Serif" font-size="10.00" fill="#000000">QRCommStruct::setQRStateBusy</text>
</a>
</g>
</g>
<!-- Node5&#45;&gt;Node9 -->
<g id="edge4" class="edge">
<title>Node5&#45;&gt;Node9</title>
<path fill="none" stroke="#191970" d="M424.6898,-135.5783C415.2631,-136.4606 405.6576,-137.3596 396.2084,-138.244"/>
<polygon fill="#191970" stroke="#191970" points="425.2024,-139.0457 434.8327,-134.629 424.5501,-132.0762 425.2024,-139.0457"/>
</g>
<!-- Node10 -->
<g id="node6" class="node">
<title>Node10</title>
<g id="a_node6"><a xlink:href="structQRCommStruct.html#a7586036f2692c171b5b67e232880b015" target="_top" xlink:title="Get the new target position, and change the state to IDLE.">
<polygon fill="#ffffff" stroke="#000000" points="217,-99 217,-118 399,-118 399,-99 217,-99"/>
<text text-anchor="middle" x="308" y="-106" font-family="Helvetica,sans-Serif" font-size="10.00" fill="#000000">QRCommStruct::getTargetPosition</text>
</a>
</g>
</g>
<!-- Node5&#45;&gt;Node10 -->
<g id="edge5" class="edge">
<title>Node5&#45;&gt;Node10</title>
<path fill="none" stroke="#191970" d="M424.6818,-119.421C416.2892,-118.6354 407.7549,-117.8367 399.3155,-117.0468"/>
<polygon fill="#191970" stroke="#191970" points="424.5501,-122.9238 434.8327,-120.371 425.2024,-115.9543 424.5501,-122.9238"/>
</g>
<!-- Node11 -->
<g id="node7" class="node">
<title>Node11</title>
<g id="a_node7"><a xlink:href="structQRCommStruct.html#a75f26523e6fc0507cef40c8ed8bf2ea8" target="_top" xlink:title="Get the position of the current QR code.">
<polygon fill="#ffffff" stroke="#000000" points="233.5,-49.5 233.5,-79.5 382.5,-79.5 382.5,-49.5 233.5,-49.5"/>
<text text-anchor="start" x="241.5" y="-67.5" font-family="Helvetica,sans-Serif" font-size="10.00" fill="#000000">QRCommStruct::getCurrent</text>
<text text-anchor="middle" x="308" y="-56.5" font-family="Helvetica,sans-Serif" font-size="10.00" fill="#000000">Position</text>
</a>
</g>
</g>
<!-- Node5&#45;&gt;Node11 -->
<g id="edge6" class="edge">
<title>Node5&#45;&gt;Node11</title>
<path fill="none" stroke="#191970" d="M474.8981,-114.6474C453.037,-107.0158 424.535,-97.3319 399,-89.5 388.0354,-86.137 376.2631,-82.7439 364.9448,-79.5887"/>
<polygon fill="#191970" stroke="#191970" points="473.8457,-117.9873 484.4406,-117.9955 476.1633,-111.3821 473.8457,-117.9873"/>
</g>
<!-- Node12 -->
<g id="node8" class="node">
<title>Node12</title>
<g id="a_node8"><a xlink:href="structQRCommStruct.html#ac1d6a2901affe96dbc5decef041f697b" target="_top" xlink:title="Request read a new QR code.">
<polygon fill="#ffffff" stroke="#000000" points="232,-.5 232,-30.5 384,-30.5 384,-.5 232,-.5"/>
<text text-anchor="start" x="240" y="-18.5" font-family="Helvetica,sans-Serif" font-size="10.00" fill="#000000">QRCommStruct::setQRState</text>
<text text-anchor="middle" x="308" y="-7.5" font-family="Helvetica,sans-Serif" font-size="10.00" fill="#000000">Request</text>
</a>
</g>
</g>
<!-- Node5&#45;&gt;Node12 -->
<g id="edge7" class="edge">
<title>Node5&#45;&gt;Node12</title>
<path fill="none" stroke="#191970" d="M494.0612,-110.8145C473.317,-91.2681 436.3161,-59.187 399,-40.5 391.3821,-36.6852 383.1044,-33.3886 374.7492,-30.5572"/>
<polygon fill="#191970" stroke="#191970" points="491.785,-113.4808 501.4255,-117.8752 496.6295,-108.428 491.785,-113.4808"/>
</g>
<!-- Node7 -->
<g id="node3" class="node">
<title>Node7</title>
<g id="a_node3"><a xlink:href="structQRCommStruct.html#a8bf578081961b6b39e6bc1ed249e0f48" target="_top" xlink:title=" ">
<polygon fill="#ffffff" stroke="#000000" points="0,-225 0,-244 181,-244 181,-225 0,-225"/>
<text text-anchor="middle" x="90.5" y="-232" font-family="Helvetica,sans-Serif" font-size="10.00" fill="#000000">QRCommStruct::setTargetPosition</text>
</a>
</g>
</g>
<!-- Node6&#45;&gt;Node7 -->
<g id="edge2" class="edge">
<title>Node6&#45;&gt;Node7</title>
<path fill="none" stroke="#191970" d="M207.1472,-234.5C198.4302,-234.5 189.6452,-234.5 181.0178,-234.5"/>
<polygon fill="#191970" stroke="#191970" points="207.3354,-238.0001 217.3354,-234.5 207.3353,-231.0001 207.3354,-238.0001"/>
</g>
</g>
</svg>
