<?xml version="1.0" encoding="UTF-8" standalone="no"?>
<!DOCTYPE svg PUBLIC "-//W3C//DTD SVG 1.1//EN"
 "http://www.w3.org/Graphics/SVG/1.1/DTD/svg11.dtd">
<!-- Generated by graphviz version 2.40.1 (20161225.0304)
 -->
<!-- Title: Square Pages: 1 -->
<svg width="296pt" height="182pt"
 viewBox="0.00 0.00 296.00 182.00" xmlns="http://www.w3.org/2000/svg" xmlns:xlink="http://www.w3.org/1999/xlink">
<g id="graph0" class="graph" transform="scale(1 1) rotate(0) translate(4 178)">
<title>Square</title>
<polygon fill="#ffffff" stroke="transparent" points="-4,4 -4,-178 292,-178 292,4 -4,4"/>
<!-- Node1 -->
<g id="node1" class="node">
<title>Node1</title>
<g id="a_node1"><a xlink:title=" ">
<polygon fill="#bfbfbf" stroke="#000000" points="118.5,-.5 118.5,-57.5 168.5,-57.5 168.5,-.5 118.5,-.5"/>
<text text-anchor="middle" x="143.5" y="-45.5" font-family="Helvetica,sans-Serif" font-size="10.00" fill="#000000">Square</text>
<polyline fill="none" stroke="#000000" points="118.5,-38.5 168.5,-38.5 "/>
<text text-anchor="middle" x="143.5" y="-26.5" font-family="Helvetica,sans-Serif" font-size="10.00" fill="#000000"> </text>
<polyline fill="none" stroke="#000000" points="118.5,-19.5 168.5,-19.5 "/>
<text text-anchor="middle" x="143.5" y="-7.5" font-family="Helvetica,sans-Serif" font-size="10.00" fill="#000000"> </text>
</a>
</g>
</g>
<!-- Node2 -->
<g id="node2" class="node">
<title>Node2</title>
<g id="a_node2"><a xlink:title=" ">
<polygon fill="#ffffff" stroke="#bfbfbf" points="0,-105.5 0,-173.5 135,-173.5 135,-105.5 0,-105.5"/>
<text text-anchor="start" x="8" y="-161.5" font-family="Helvetica,sans-Serif" font-size="10.00" fill="#000000">std::array&lt; std::optional</text>
<text text-anchor="middle" x="67.5" y="-150.5" font-family="Helvetica,sans-Serif" font-size="10.00" fill="#000000">&lt; Point &gt;, 4 &gt;</text>
<polyline fill="none" stroke="#bfbfbf" points="0,-143.5 135,-143.5 "/>
<text text-anchor="start" x="8" y="-131.5" font-family="Helvetica,sans-Serif" font-size="10.00" fill="#000000">+ elements</text>
<polyline fill="none" stroke="#bfbfbf" points="0,-124.5 135,-124.5 "/>
<text text-anchor="middle" x="67.5" y="-112.5" font-family="Helvetica,sans-Serif" font-size="10.00" fill="#000000"> </text>
</a>
</g>
</g>
<!-- Node2&#45;&gt;Node1 -->
<g id="edge1" class="edge">
<title>Node2&#45;&gt;Node1</title>
<path fill="none" stroke="#404040" d="M90.9226,-105.4447C99.1685,-93.4557 108.4938,-79.8972 116.9769,-67.5632"/>
<polygon fill="none" stroke="#404040" points="117.0622,-67.4391 117.1666,-60.2287 123.8625,-57.5519 123.7581,-64.7623 117.0622,-67.4391"/>
<text text-anchor="middle" x="131.5" y="-79" font-family="Helvetica,sans-Serif" font-size="10.00" fill="#000000"> +points</text>
</g>
<!-- Node3 -->
<g id="node3" class="node">
<title>Node3</title>
<g id="a_node3"><a xlink:title=" ">
<polygon fill="#ffffff" stroke="#bfbfbf" points="153,-105.5 153,-173.5 288,-173.5 288,-105.5 153,-105.5"/>
<text text-anchor="start" x="161" y="-161.5" font-family="Helvetica,sans-Serif" font-size="10.00" fill="#000000">std::array&lt; std::optional</text>
<text text-anchor="middle" x="220.5" y="-150.5" font-family="Helvetica,sans-Serif" font-size="10.00" fill="#000000">&lt; LineResult &gt;, 5 &gt;</text>
<polyline fill="none" stroke="#bfbfbf" points="153,-143.5 288,-143.5 "/>
<text text-anchor="start" x="161" y="-131.5" font-family="Helvetica,sans-Serif" font-size="10.00" fill="#000000">+ elements</text>
<polyline fill="none" stroke="#bfbfbf" points="153,-124.5 288,-124.5 "/>
<text text-anchor="middle" x="220.5" y="-112.5" font-family="Helvetica,sans-Serif" font-size="10.00" fill="#000000"> </text>
</a>
</g>
</g>
<!-- Node3&#45;&gt;Node1 -->
<g id="edge2" class="edge">
<title>Node3&#45;&gt;Node1</title>
<path fill="none" stroke="#404040" d="M196.7692,-105.4447C188.4148,-93.4557 178.9668,-79.8972 170.3721,-67.5632"/>
<polygon fill="none" stroke="#404040" points="170.2565,-67.3973 163.5444,-64.7615 163.3959,-57.5519 170.108,-60.1877 170.2565,-67.3973"/>
<text text-anchor="middle" x="199" y="-79" font-family="Helvetica,sans-Serif" font-size="10.00" fill="#000000"> +lines</text>
</g>
</g>
</svg>
