<?xml version="1.0" encoding="UTF-8" standalone="no"?>
<!DOCTYPE svg PUBLIC "-//W3C//DTD SVG 1.1//EN"
 "http://www.w3.org/Graphics/SVG/1.1/DTD/svg11.dtd">
<!-- Generated by graphviz version 2.40.1 (20161225.0304)
 -->
<!-- Title: FunctionalTimeFunctionT&lt; T &gt; Pages: 1 -->
<svg width="174pt" height="171pt"
 viewBox="0.00 0.00 174.00 171.00" xmlns="http://www.w3.org/2000/svg" xmlns:xlink="http://www.w3.org/1999/xlink">
<g id="graph0" class="graph" transform="scale(1 1) rotate(0) translate(4 167)">
<title>FunctionalTimeFunctionT&lt; T &gt;</title>
<polygon fill="#ffffff" stroke="transparent" points="-4,4 -4,-167 170,-167 170,4 -4,4"/>
<!-- Node2 -->
<g id="node1" class="node">
<title>Node2</title>
<g id="a_node1"><a xlink:title=" ">
<polygon fill="#bfbfbf" stroke="#000000" points="0,-.5 0,-68.5 166,-68.5 166,-.5 0,-.5"/>
<text text-anchor="middle" x="83" y="-56.5" font-family="Helvetica,sans-Serif" font-size="10.00" fill="#000000">FunctionalTimeFunctionT&lt; T &gt;</text>
<polyline fill="none" stroke="#000000" points="0,-49.5 166,-49.5 "/>
<text text-anchor="start" x="8" y="-37.5" font-family="Helvetica,sans-Serif" font-size="10.00" fill="#000000">+ f</text>
<polyline fill="none" stroke="#000000" points="0,-30.5 166,-30.5 "/>
<text text-anchor="start" x="8" y="-18.5" font-family="Helvetica,sans-Serif" font-size="10.00" fill="#000000">+ FunctionalTimeFunctionT()</text>
<text text-anchor="start" x="8" y="-7.5" font-family="Helvetica,sans-Serif" font-size="10.00" fill="#000000">+ operator()()</text>
</a>
</g>
</g>
<!-- Node3 -->
<g id="node2" class="node">
<title>Node3</title>
<g id="a_node2"><a xlink:href="structTimeFunctionT.html" target="_top" xlink:title=" ">
<polygon fill="#ffffff" stroke="#000000" points="25,-105.5 25,-162.5 141,-162.5 141,-105.5 25,-105.5"/>
<text text-anchor="middle" x="83" y="-150.5" font-family="Helvetica,sans-Serif" font-size="10.00" fill="#000000">TimeFunctionT&lt; T &gt;</text>
<polyline fill="none" stroke="#000000" points="25,-143.5 141,-143.5 "/>
<text text-anchor="middle" x="83" y="-131.5" font-family="Helvetica,sans-Serif" font-size="10.00" fill="#000000"> </text>
<polyline fill="none" stroke="#000000" points="25,-124.5 141,-124.5 "/>
<text text-anchor="start" x="33" y="-112.5" font-family="Helvetica,sans-Serif" font-size="10.00" fill="#000000">+ operator()()</text>
</a>
</g>
</g>
<!-- Node3&#45;&gt;Node2 -->
<g id="edge1" class="edge">
<title>Node3&#45;&gt;Node2</title>
<path fill="none" stroke="#191970" d="M83,-95.4268C83,-86.6025 83,-77.2834 83,-68.6596"/>
<polygon fill="none" stroke="#191970" points="79.5001,-95.4873 83,-105.4873 86.5001,-95.4873 79.5001,-95.4873"/>
</g>
</g>
</svg>
