<?xml version="1.0" encoding="UTF-8" standalone="no"?>
<!DOCTYPE svg PUBLIC "-//W3C//DTD SVG 1.1//EN"
 "http://www.w3.org/Graphics/SVG/1.1/DTD/svg11.dtd">
<!-- Generated by graphviz version 2.40.1 (20161225.0304)
 -->
<!-- Title: Array::begin Pages: 1 -->
<svg width="585pt" height="317pt"
 viewBox="0.00 0.00 585.00 316.50" xmlns="http://www.w3.org/2000/svg" xmlns:xlink="http://www.w3.org/1999/xlink">
<g id="graph0" class="graph" transform="scale(1 1) rotate(0) translate(4 312.5)">
<title>Array::begin</title>
<polygon fill="#ffffff" stroke="transparent" points="-4,4 -4,-312.5 581,-312.5 581,4 -4,4"/>
<!-- Node1 -->
<g id="node1" class="node">
<title>Node1</title>
<g id="a_node1"><a xlink:title=" ">
<polygon fill="#bfbfbf" stroke="#000000" points="502,-133.5 502,-152.5 577,-152.5 577,-133.5 502,-133.5"/>
<text text-anchor="middle" x="539.5" y="-140.5" font-family="Helvetica,sans-Serif" font-size="10.00" fill="#000000">Array::begin</text>
</a>
</g>
</g>
<!-- Node2 -->
<g id="node2" class="node">
<title>Node2</title>
<g id="a_node2"><a xlink:href="structArray.html#a30692f2d1c23322027a90fd0cc2df449" target="_top" xlink:title=" ">
<polygon fill="#ffffff" stroke="#000000" points="353,-278 353,-308 466,-308 466,-278 353,-278"/>
<text text-anchor="start" x="361" y="-296" font-family="Helvetica,sans-Serif" font-size="10.00" fill="#000000">Array&lt; T, Rm, Cn &gt;</text>
<text text-anchor="middle" x="409.5" y="-285" font-family="Helvetica,sans-Serif" font-size="10.00" fill="#000000">::fromCppArray</text>
</a>
</g>
</g>
<!-- Node1&#45;&gt;Node2 -->
<g id="edge1" class="edge">
<title>Node1&#45;&gt;Node2</title>
<path fill="none" stroke="#191970" d="M532.8201,-162.1112C522.4492,-189.2544 500.0545,-238.9989 466,-269 462.1616,-272.3815 457.7762,-275.3388 453.184,-277.9119"/>
<polygon fill="#191970" stroke="#191970" points="536.1526,-163.1894 536.3136,-152.5958 529.5815,-160.7768 536.1526,-163.1894"/>
</g>
<!-- Node3 -->
<g id="node3" class="node">
<title>Node3</title>
<g id="a_node3"><a xlink:href="structArray.html#acca20d951f89e064f92c64d357e7bb6f" target="_top" xlink:title=" ">
<polygon fill="#ffffff" stroke="#000000" points="353,-229 353,-259 466,-259 466,-229 353,-229"/>
<text text-anchor="start" x="361" y="-247" font-family="Helvetica,sans-Serif" font-size="10.00" fill="#000000">Array&lt; T, Rm, Cn &gt;</text>
<text text-anchor="middle" x="409.5" y="-236" font-family="Helvetica,sans-Serif" font-size="10.00" fill="#000000">::fromCArray</text>
</a>
</g>
</g>
<!-- Node1&#45;&gt;Node3 -->
<g id="edge2" class="edge">
<title>Node1&#45;&gt;Node3</title>
<path fill="none" stroke="#191970" d="M525.9901,-160.4638C512.3165,-177.2178 489.8407,-202.3604 466,-219 460.7225,-222.6834 454.8152,-226.0136 448.8632,-228.9536"/>
<polygon fill="#191970" stroke="#191970" points="528.7979,-162.5564 532.2987,-152.5566 523.3261,-158.1907 528.7979,-162.5564"/>
</g>
<!-- Node4 -->
<g id="node4" class="node">
<title>Node4</title>
<g id="a_node4"><a xlink:href="Array_8hpp.html#ab8a62286cf94935432fb15208c352d31" target="_top" xlink:title=" ">
<polygon fill="#ffffff" stroke="#000000" points="384.5,-190.5 384.5,-209.5 434.5,-209.5 434.5,-190.5 384.5,-190.5"/>
<text text-anchor="middle" x="409.5" y="-197.5" font-family="Helvetica,sans-Serif" font-size="10.00" fill="#000000">isfinite</text>
</a>
</g>
</g>
<!-- Node1&#45;&gt;Node4 -->
<g id="edge3" class="edge">
<title>Node1&#45;&gt;Node4</title>
<path fill="none" stroke="#191970" d="M513.9405,-157.4391C500.0149,-164.9916 482.3349,-174.0787 466,-181 455.8995,-185.2797 444.4767,-189.2728 434.5583,-192.4829"/>
<polygon fill="#191970" stroke="#191970" points="515.8433,-160.3871 522.9189,-152.5012 512.4699,-154.2535 515.8433,-160.3871"/>
</g>
<!-- Node5 -->
<g id="node5" class="node">
<title>Node5</title>
<g id="a_node5"><a xlink:href="Array_8hpp.html#a8210ee35a21cf8114e4f40920a6e0abf" target="_top" xlink:title=" ">
<polygon fill="#ffffff" stroke="#000000" points="390.5,-152.5 390.5,-171.5 428.5,-171.5 428.5,-152.5 390.5,-152.5"/>
<text text-anchor="middle" x="409.5" y="-159.5" font-family="Helvetica,sans-Serif" font-size="10.00" fill="#000000">sum</text>
</a>
</g>
</g>
<!-- Node1&#45;&gt;Node5 -->
<g id="edge4" class="edge">
<title>Node1&#45;&gt;Node5</title>
<path fill="none" stroke="#191970" d="M491.7579,-149.9777C469.8772,-153.1756 445.1838,-156.7847 428.6121,-159.2067"/>
<polygon fill="#191970" stroke="#191970" points="492.5099,-153.4051 501.8986,-148.4956 491.4975,-146.4786 492.5099,-153.4051"/>
</g>
<!-- Node12 -->
<g id="node12" class="node">
<title>Node12</title>
<g id="a_node12"><a xlink:href="ArrayHelpers_8hpp.html#a302eae526b10a18783bc2623ee9fe646" target="_top" xlink:title="Generate an array where the first value is given, and the subsequent values are calculated as the pre...">
<polygon fill="#ffffff" stroke="#000000" points="363.5,-114.5 363.5,-133.5 455.5,-133.5 455.5,-114.5 363.5,-114.5"/>
<text text-anchor="middle" x="409.5" y="-121.5" font-family="Helvetica,sans-Serif" font-size="10.00" fill="#000000">generatedArray</text>
</a>
</g>
</g>
<!-- Node1&#45;&gt;Node12 -->
<g id="edge12" class="edge">
<title>Node1&#45;&gt;Node12</title>
<path fill="none" stroke="#191970" d="M491.8173,-136.031C480.0579,-134.3123 467.4829,-132.4744 455.7908,-130.7656"/>
<polygon fill="#191970" stroke="#191970" points="491.4975,-139.5214 501.8986,-137.5044 492.5099,-132.5949 491.4975,-139.5214"/>
</g>
<!-- Node13 -->
<g id="node13" class="node">
<title>Node13</title>
<g id="a_node13"><a xlink:href="ArrayHelpers_8hpp.html#a021512d0f49f5f3ac08ebac9bb547cfc" target="_top" xlink:title=" ">
<polygon fill="#ffffff" stroke="#000000" points="376,-76.5 376,-95.5 443,-95.5 443,-76.5 376,-76.5"/>
<text text-anchor="middle" x="409.5" y="-83.5" font-family="Helvetica,sans-Serif" font-size="10.00" fill="#000000">filledArray</text>
</a>
</g>
</g>
<!-- Node1&#45;&gt;Node13 -->
<g id="edge13" class="edge">
<title>Node1&#45;&gt;Node13</title>
<path fill="none" stroke="#191970" d="M513.9405,-128.5609C500.0149,-121.0084 482.3349,-111.9213 466,-105 457.9006,-101.5682 448.9508,-98.3206 440.6084,-95.5133"/>
<polygon fill="#191970" stroke="#191970" points="512.4699,-131.7465 522.9189,-133.4988 515.8433,-125.6129 512.4699,-131.7465"/>
</g>
<!-- Node14 -->
<g id="node14" class="node">
<title>Node14</title>
<g id="a_node14"><a xlink:href="MatrixHelpers_8hpp.html#a97dc20f082415c3707e56be3bec40f33" target="_top" xlink:title=" ">
<polygon fill="#ffffff" stroke="#000000" points="371,-38.5 371,-57.5 448,-57.5 448,-38.5 371,-38.5"/>
<text text-anchor="middle" x="409.5" y="-45.5" font-family="Helvetica,sans-Serif" font-size="10.00" fill="#000000">filledTMatrix</text>
</a>
</g>
</g>
<!-- Node1&#45;&gt;Node14 -->
<g id="edge14" class="edge">
<title>Node1&#45;&gt;Node14</title>
<path fill="none" stroke="#191970" d="M526.5292,-125.3248C513.1215,-108.2046 490.7141,-82.607 466,-67 460.0499,-63.2425 453.2744,-60.1406 446.5317,-57.6111"/>
<polygon fill="#191970" stroke="#191970" points="523.8414,-127.5723 532.6848,-133.407 529.4102,-123.3309 523.8414,-127.5723"/>
</g>
<!-- Node15 -->
<g id="node15" class="node">
<title>Node15</title>
<g id="a_node15"><a xlink:href="MatrixHelpers_8hpp.html#a0143e59b28ca53207a87f0a2d0873bf4" target="_top" xlink:title=" ">
<polygon fill="#ffffff" stroke="#000000" points="374,-.5 374,-19.5 445,-19.5 445,-.5 374,-.5"/>
<text text-anchor="middle" x="409.5" y="-7.5" font-family="Helvetica,sans-Serif" font-size="10.00" fill="#000000">filledMatrix</text>
</a>
</g>
</g>
<!-- Node1&#45;&gt;Node15 -->
<g id="edge15" class="edge">
<title>Node1&#45;&gt;Node15</title>
<path fill="none" stroke="#191970" d="M531.9952,-123.9222C521.1278,-98.6804 498.6688,-54.4208 466,-29 459.8744,-24.2335 452.4886,-20.629 445.1068,-17.9149"/>
<polygon fill="#191970" stroke="#191970" points="528.7657,-125.2715 535.8234,-133.1734 535.2338,-122.595 528.7657,-125.2715"/>
</g>
<!-- Node6 -->
<g id="node6" class="node">
<title>Node6</title>
<g id="a_node6"><a xlink:href="structSquare.html#a12c1f0ee0bd30021a5a7d7344538fef9" target="_top" xlink:title="Get the average angle of the sides of the square .">
<polygon fill="#ffffff" stroke="#000000" points="217,-209.5 217,-228.5 317,-228.5 317,-209.5 217,-209.5"/>
<text text-anchor="middle" x="267" y="-216.5" font-family="Helvetica,sans-Serif" font-size="10.00" fill="#000000">Square::getAngle</text>
</a>
</g>
</g>
<!-- Node5&#45;&gt;Node6 -->
<g id="edge5" class="edge">
<title>Node5&#45;&gt;Node6</title>
<path fill="none" stroke="#191970" d="M380.7104,-170.6871C371.721,-173.6632 361.8458,-177.2077 353,-181 336.372,-188.1287 333.4868,-192.5506 317,-200 309.6377,-203.3266 301.5048,-206.5865 293.9753,-209.4409"/>
<polygon fill="#191970" stroke="#191970" points="381.9278,-173.9723 390.3811,-167.5854 379.7899,-167.3067 381.9278,-173.9723"/>
</g>
<!-- Node8 -->
<g id="node8" class="node">
<title>Node8</title>
<g id="a_node8"><a xlink:href="HouseholderQR_8hpp.html#a16f7547f23439d1eda0fcbde69451ef9" target="_top" xlink:title=" ">
<polygon fill="#ffffff" stroke="#000000" points="221.5,-171.5 221.5,-190.5 312.5,-190.5 312.5,-171.5 221.5,-171.5"/>
<text text-anchor="middle" x="267" y="-178.5" font-family="Helvetica,sans-Serif" font-size="10.00" fill="#000000">householderQR</text>
</a>
</g>
</g>
<!-- Node5&#45;&gt;Node8 -->
<g id="edge7" class="edge">
<title>Node5&#45;&gt;Node8</title>
<path fill="none" stroke="#191970" d="M380.1873,-165.9084C360.6949,-168.5073 334.7009,-171.9732 312.5394,-174.9281"/>
<polygon fill="#191970" stroke="#191970" points="380.8321,-169.3534 390.2818,-164.5624 379.9069,-162.4148 380.8321,-169.3534"/>
</g>
<!-- Node9 -->
<g id="node9" class="node">
<title>Node9</title>
<g id="a_node9"><a xlink:href="LeastSquares_8hpp.html#a3e86962f655361a684f770b14c9fe1e2" target="_top" xlink:title=" ">
<polygon fill="#ffffff" stroke="#000000" points="70.5,-152.5 70.5,-171.5 178.5,-171.5 178.5,-152.5 70.5,-152.5"/>
<text text-anchor="middle" x="124.5" y="-159.5" font-family="Helvetica,sans-Serif" font-size="10.00" fill="#000000">solveLeastSquares</text>
</a>
</g>
</g>
<!-- Node5&#45;&gt;Node9 -->
<g id="edge10" class="edge">
<title>Node5&#45;&gt;Node9</title>
<path fill="none" stroke="#191970" d="M380.1611,-162C332.7137,-162 238.4244,-162 178.5652,-162"/>
<polygon fill="#191970" stroke="#191970" points="380.3578,-165.5001 390.3578,-162 380.3578,-158.5001 380.3578,-165.5001"/>
</g>
<!-- Node11 -->
<g id="node11" class="node">
<title>Node11</title>
<g id="a_node11"><a xlink:href="Matrix_8hpp.html#a341f99d67c7fef72e0432138c6d4fc34" target="_top" xlink:title=" ">
<polygon fill="#ffffff" stroke="#000000" points="235.5,-95.5 235.5,-114.5 298.5,-114.5 298.5,-95.5 235.5,-95.5"/>
<text text-anchor="middle" x="267" y="-102.5" font-family="Helvetica,sans-Serif" font-size="10.00" fill="#000000">operator*</text>
</a>
</g>
</g>
<!-- Node5&#45;&gt;Node11 -->
<g id="edge11" class="edge">
<title>Node5&#45;&gt;Node11</title>
<path fill="none" stroke="#191970" d="M380.6535,-152.8658C371.7273,-149.8881 361.9022,-146.4552 353,-143 330.1743,-134.1406 304.5717,-122.6171 287.283,-114.593"/>
<polygon fill="#191970" stroke="#191970" points="379.6597,-156.2232 390.2524,-156.0113 381.8396,-149.5713 379.6597,-156.2232"/>
</g>
<!-- Node7 -->
<g id="node7" class="node">
<title>Node7</title>
<g id="a_node7"><a xlink:href="Grid-Finder_8module_8hpp.html#a05e720af51446c0f9319fb9455fe1767" target="_top" xlink:title=" ">
<polygon fill="#ffffff" stroke="#000000" points="68,-209.5 68,-228.5 181,-228.5 181,-209.5 68,-209.5"/>
<text text-anchor="middle" x="124.5" y="-216.5" font-family="Helvetica,sans-Serif" font-size="10.00" fill="#000000">PYBIND11_MODULE</text>
</a>
</g>
</g>
<!-- Node6&#45;&gt;Node7 -->
<g id="edge6" class="edge">
<title>Node6&#45;&gt;Node7</title>
<path fill="none" stroke="#191970" d="M206.5842,-219C198.1303,-219 189.4679,-219 181.0884,-219"/>
<polygon fill="#191970" stroke="#191970" points="206.7599,-222.5001 216.7598,-219 206.7598,-215.5001 206.7599,-222.5001"/>
</g>
<!-- Node8&#45;&gt;Node9 -->
<g id="edge8" class="edge">
<title>Node8&#45;&gt;Node9</title>
<path fill="none" stroke="#191970" d="M211.1015,-173.5469C200.4562,-172.1275 189.3309,-170.6441 178.7383,-169.2318"/>
<polygon fill="#191970" stroke="#191970" points="210.7528,-177.0313 221.1277,-174.8837 211.678,-170.0927 210.7528,-177.0313"/>
</g>
<!-- Node10 -->
<g id="node10" class="node">
<title>Node10</title>
<g id="a_node10"><a xlink:href="LeastSquares_8hpp.html#abc455a395ab6414f5312b56e5b479195" target="_top" xlink:title=" ">
<polygon fill="#ffffff" stroke="#000000" points="0,-152.5 0,-171.5 32,-171.5 32,-152.5 0,-152.5"/>
<text text-anchor="middle" x="16" y="-159.5" font-family="Helvetica,sans-Serif" font-size="10.00" fill="#000000">inv</text>
</a>
</g>
</g>
<!-- Node9&#45;&gt;Node10 -->
<g id="edge9" class="edge">
<title>Node9&#45;&gt;Node10</title>
<path fill="none" stroke="#191970" d="M60.1409,-162C49.7072,-162 39.7906,-162 32.0095,-162"/>
<polygon fill="#191970" stroke="#191970" points="60.25,-165.5001 70.25,-162 60.25,-158.5001 60.25,-165.5001"/>
</g>
</g>
</svg>
