<?xml version="1.0" encoding="UTF-8" standalone="no"?>
<!DOCTYPE svg PUBLIC "-//W3C//DTD SVG 1.1//EN"
 "http://www.w3.org/Graphics/SVG/1.1/DTD/svg11.dtd">
<!-- Generated by graphviz version 2.40.1 (20161225.0304)
 -->
<!-- Title: Pixel::inRange Pages: 1 -->
<svg width="1659pt" height="326pt"
 viewBox="0.00 0.00 1659.00 326.14" xmlns="http://www.w3.org/2000/svg" xmlns:xlink="http://www.w3.org/1999/xlink">
<g id="graph0" class="graph" transform="scale(1 1) rotate(0) translate(4 322.1448)">
<title>Pixel::inRange</title>
<polygon fill="#ffffff" stroke="transparent" points="-4,4 -4,-322.1448 1655,-322.1448 1655,4 -4,4"/>
<!-- Node12 -->
<g id="node1" class="node">
<title>Node12</title>
<g id="a_node1"><a xlink:title=" ">
<polygon fill="#bfbfbf" stroke="#000000" points="1565,-38.5 1565,-57.5 1651,-57.5 1651,-38.5 1565,-38.5"/>
<text text-anchor="middle" x="1608" y="-45.5" font-family="Helvetica,sans-Serif" font-size="10.00" fill="#000000">Pixel::inRange</text>
</a>
</g>
</g>
<!-- Node13 -->
<g id="node2" class="node">
<title>Node13</title>
<g id="a_node2"><a xlink:href="classBresenhamLine.html#aba0822ee20811d67cd9539ccbe1cd346" target="_top" xlink:title=" ">
<polygon fill="#ffffff" stroke="#000000" points="1390,-152.5 1390,-171.5 1529,-171.5 1529,-152.5 1390,-152.5"/>
<text text-anchor="middle" x="1459.5" y="-159.5" font-family="Helvetica,sans-Serif" font-size="10.00" fill="#000000">BresenhamLine::hasNext</text>
</a>
</g>
</g>
<!-- Node12&#45;&gt;Node13 -->
<g id="edge1" class="edge">
<title>Node12&#45;&gt;Node13</title>
<path fill="none" stroke="#191970" d="M1587.5806,-63.6755C1556.4199,-87.5969 1497.9114,-132.5125 1472.1851,-152.262"/>
<polygon fill="#191970" stroke="#191970" points="1589.7935,-66.3892 1595.5944,-57.5235 1585.5309,-60.8366 1589.7935,-66.3892"/>
</g>
<!-- Node30 -->
<g id="node19" class="node">
<title>Node30</title>
<g id="a_node19"><a xlink:href="classMask.html#a24f3c4e9b7197d2d72b590fb30c4ea10" target="_top" xlink:title="Get the value of the mask at a given location.">
<polygon fill="#ffffff" stroke="#000000" points="1427.5,-.5 1427.5,-19.5 1491.5,-19.5 1491.5,-.5 1427.5,-.5"/>
<text text-anchor="middle" x="1459.5" y="-7.5" font-family="Helvetica,sans-Serif" font-size="10.00" fill="#000000">Mask::get</text>
</a>
</g>
</g>
<!-- Node12&#45;&gt;Node30 -->
<g id="edge29" class="edge">
<title>Node12&#45;&gt;Node30</title>
<path fill="none" stroke="#191970" d="M1560.5384,-35.8549C1538.1465,-30.125 1512.001,-23.4346 1491.9169,-18.2952"/>
<polygon fill="#191970" stroke="#191970" points="1559.9716,-39.3226 1570.5272,-38.411 1561.707,-32.5411 1559.9716,-39.3226"/>
</g>
<!-- Node32 -->
<g id="node21" class="node">
<title>Node32</title>
<g id="a_node21"><a xlink:href="classMask.html#abd2577692522262d25fcaae6620582e3" target="_top" xlink:title="Set the value of the mask at the given location.">
<polygon fill="#ffffff" stroke="#000000" points="1428,-38.5 1428,-57.5 1491,-57.5 1491,-38.5 1428,-38.5"/>
<text text-anchor="middle" x="1459.5" y="-45.5" font-family="Helvetica,sans-Serif" font-size="10.00" fill="#000000">Mask::set</text>
</a>
</g>
</g>
<!-- Node12&#45;&gt;Node32 -->
<g id="edge31" class="edge">
<title>Node12&#45;&gt;Node32</title>
<path fill="none" stroke="#191970" d="M1554.4891,-48C1533.3258,-48 1509.7186,-48 1491.3328,-48"/>
<polygon fill="#191970" stroke="#191970" points="1554.6485,-51.5001 1564.6485,-48 1554.6484,-44.5001 1554.6485,-51.5001"/>
</g>
<!-- Node14 -->
<g id="node3" class="node">
<title>Node14</title>
<g id="a_node3"><a xlink:href="classBresenhamLine.html#a10d505e30945f42a5cd0270c315b104f" target="_top" xlink:title=" ">
<polygon fill="#ffffff" stroke="#000000" points="1234,-152.5 1234,-171.5 1354,-171.5 1354,-152.5 1234,-152.5"/>
<text text-anchor="middle" x="1294" y="-159.5" font-family="Helvetica,sans-Serif" font-size="10.00" fill="#000000">BresenhamLine::next</text>
</a>
</g>
</g>
<!-- Node13&#45;&gt;Node14 -->
<g id="edge2" class="edge">
<title>Node13&#45;&gt;Node14</title>
<path fill="none" stroke="#191970" d="M1379.7405,-162C1371.1415,-162 1362.4995,-162 1354.1864,-162"/>
<polygon fill="#191970" stroke="#191970" points="1379.7928,-165.5001 1389.7928,-162 1379.7927,-158.5001 1379.7928,-165.5001"/>
</g>
<!-- Node15 -->
<g id="node4" class="node">
<title>Node15</title>
<g id="a_node4"><a xlink:href="classGridFinder.html#ace2c24a54244e7e92618d3fe7ec62fdc" target="_top" xlink:title="Starting from the given pixel, move in the direction of the given angle, and count the number of whit...">
<polygon fill="#ffffff" stroke="#000000" points="1071,-114.5 1071,-133.5 1173,-133.5 1173,-114.5 1071,-114.5"/>
<text text-anchor="middle" x="1122" y="-121.5" font-family="Helvetica,sans-Serif" font-size="10.00" fill="#000000">GridFinder::hough</text>
</a>
</g>
</g>
<!-- Node13&#45;&gt;Node15 -->
<g id="edge24" class="edge">
<title>Node13&#45;&gt;Node15</title>
<path fill="none" stroke="#191970" d="M1402.1112,-150.6272C1386.547,-147.8268 1369.6676,-145.0475 1354,-143 1292.0889,-134.9091 1220.4048,-129.6638 1173.294,-126.7763"/>
<polygon fill="#191970" stroke="#191970" points="1401.6558,-154.102 1412.1231,-152.463 1402.9184,-147.2168 1401.6558,-154.102"/>
</g>
<!-- Node19 -->
<g id="node8" class="node">
<title>Node19</title>
<g id="a_node8"><a xlink:href="classGridFinder.html#ab5c436911deb269a22a8d5525271fa4e" target="_top" xlink:title="Get the width of the line at a given point.">
<polygon fill="#ffffff" stroke="#000000" points="1046,-229 1046,-259 1198,-259 1198,-229 1046,-229"/>
<text text-anchor="start" x="1054" y="-247" font-family="Helvetica,sans-Serif" font-size="10.00" fill="#000000">GridFinder::getWidthAtPoint</text>
<text text-anchor="middle" x="1122" y="-236" font-family="Helvetica,sans-Serif" font-size="10.00" fill="#000000">OnLine</text>
</a>
</g>
</g>
<!-- Node13&#45;&gt;Node19 -->
<g id="edge25" class="edge">
<title>Node13&#45;&gt;Node19</title>
<path fill="none" stroke="#191970" d="M1427.9557,-175.2726C1407.229,-183.59 1379.3544,-194.0191 1354,-201 1302.7564,-215.1091 1243.8602,-225.9622 1198.2323,-233.2353"/>
<polygon fill="#191970" stroke="#191970" points="1429.2824,-178.5115 1437.2269,-171.5019 1426.6451,-172.0273 1429.2824,-178.5115"/>
</g>
<!-- Node23 -->
<g id="node12" class="node">
<title>Node23</title>
<g id="a_node12"><a xlink:href="classGridFinder.html#a54369e6368334eb2924ca70ee1f1d438" target="_top" xlink:title="Follow the given line to find the line perpendicular to it. Move along the line for minDistance pixel...">
<polygon fill="#ffffff" stroke="#000000" points="523,-250.5 523,-269.5 657,-269.5 657,-250.5 523,-250.5"/>
<text text-anchor="middle" x="590" y="-257.5" font-family="Helvetica,sans-Serif" font-size="10.00" fill="#000000">GridFinder::findNextLine</text>
</a>
</g>
</g>
<!-- Node13&#45;&gt;Node23 -->
<g id="edge28" class="edge">
<title>Node13&#45;&gt;Node23</title>
<path fill="none" stroke="#191970" d="M1440.1801,-178.1729C1390.6985,-217.8882 1253.9914,-317 1122,-317 1122,-317 1122,-317 941,-317 830.4548,-317 801.0012,-321.5793 693,-298 663.5781,-291.5765 631.2391,-278.607 610.7911,-269.6186"/>
<polygon fill="#191970" stroke="#191970" points="1442.5878,-180.7258 1448.1297,-171.6959 1438.1663,-175.299 1442.5878,-180.7258"/>
</g>
<!-- Node28 -->
<g id="node17" class="node">
<title>Node28</title>
<g id="a_node17"><a xlink:href="classGridFinder.html#a3b5caee289831bd2207db3ec542be2b0" target="_top" xlink:title="Draw a line on the mask. Used only for testing.">
<polygon fill="#ffffff" stroke="#000000" points="1064,-76.5 1064,-95.5 1180,-95.5 1180,-76.5 1064,-76.5"/>
<text text-anchor="middle" x="1122" y="-83.5" font-family="Helvetica,sans-Serif" font-size="10.00" fill="#000000">GridFinder::drawLine</text>
</a>
</g>
</g>
<!-- Node13&#45;&gt;Node28 -->
<g id="edge26" class="edge">
<title>Node13&#45;&gt;Node28</title>
<path fill="none" stroke="#191970" d="M1425.5919,-148.9009C1405.1061,-141.3724 1378.3341,-132.208 1354,-126 1295.5847,-111.0973 1227.466,-100.0886 1180.2178,-93.4341"/>
<polygon fill="#191970" stroke="#191970" points="1424.5127,-152.2338 1435.1054,-152.4451 1426.9565,-145.6742 1424.5127,-152.2338"/>
</g>
<!-- Node29 -->
<g id="node18" class="node">
<title>Node29</title>
<g id="a_node18"><a xlink:href="classGridFinder.html#af8bdc28d95e295618c2f345f2d7eb758" target="_top" xlink:title="Move a pixel in a given direction for a given distance.">
<polygon fill="#ffffff" stroke="#000000" points="1072,-190.5 1072,-209.5 1172,-209.5 1172,-190.5 1072,-190.5"/>
<text text-anchor="middle" x="1122" y="-197.5" font-family="Helvetica,sans-Serif" font-size="10.00" fill="#000000">GridFinder::move</text>
</a>
</g>
</g>
<!-- Node13&#45;&gt;Node29 -->
<g id="edge27" class="edge">
<title>Node13&#45;&gt;Node29</title>
<path fill="none" stroke="#191970" d="M1402.1112,-173.3728C1386.547,-176.1732 1369.6676,-178.9525 1354,-181 1291.6882,-189.1433 1219.4765,-194.404 1172.3823,-197.2795"/>
<polygon fill="#191970" stroke="#191970" points="1402.9184,-176.7832 1412.1231,-171.537 1401.6558,-169.898 1402.9184,-176.7832"/>
</g>
<!-- Node14&#45;&gt;Node15 -->
<g id="edge3" class="edge">
<title>Node14&#45;&gt;Node15</title>
<path fill="none" stroke="#191970" d="M1240.8041,-150.2474C1216.4834,-144.8742 1188.0453,-138.5914 1165.0908,-133.5201"/>
<polygon fill="#191970" stroke="#191970" points="1240.0775,-153.6712 1250.5971,-152.411 1241.5877,-146.836 1240.0775,-153.6712"/>
</g>
<!-- Node14&#45;&gt;Node19 -->
<g id="edge7" class="edge">
<title>Node14&#45;&gt;Node19</title>
<path fill="none" stroke="#191970" d="M1271.6877,-177.1508C1252.699,-189.5727 1224.3838,-207.0017 1198,-219 1190.0343,-222.6225 1181.3865,-225.9761 1172.8748,-228.9737"/>
<polygon fill="#191970" stroke="#191970" points="1273.8098,-179.9433 1280.2109,-171.5007 1269.9421,-174.1088 1273.8098,-179.9433"/>
</g>
<!-- Node14&#45;&gt;Node23 -->
<g id="edge23" class="edge">
<title>Node14&#45;&gt;Node23</title>
<path fill="none" stroke="#191970" d="M1223.8453,-157.4577C1086.7052,-149.527 788.1701,-137.1947 693,-173 650.2793,-189.0726 612.8787,-231.1383 597.4806,-250.2727"/>
<polygon fill="#191970" stroke="#191970" points="1223.6442,-160.9519 1233.8321,-158.0441 1224.0545,-153.9639 1223.6442,-160.9519"/>
</g>
<!-- Node14&#45;&gt;Node28 -->
<g id="edge18" class="edge">
<title>Node14&#45;&gt;Node28</title>
<path fill="none" stroke="#191970" d="M1272.2295,-146.5656C1253.3724,-133.8242 1224.9571,-116.0933 1198,-105 1188.9444,-101.2735 1178.9709,-98.1402 1169.312,-95.5612"/>
<polygon fill="#191970" stroke="#191970" points="1270.4471,-149.5876 1280.6704,-152.3687 1274.4128,-143.8193 1270.4471,-149.5876"/>
</g>
<!-- Node14&#45;&gt;Node29 -->
<g id="edge19" class="edge">
<title>Node14&#45;&gt;Node29</title>
<path fill="none" stroke="#191970" d="M1240.8041,-173.7526C1216.4834,-179.1258 1188.0453,-185.4086 1165.0908,-190.4799"/>
<polygon fill="#191970" stroke="#191970" points="1241.5877,-177.164 1250.5971,-171.589 1240.0775,-170.3288 1241.5877,-177.164"/>
</g>
<!-- Node16 -->
<g id="node5" class="node">
<title>Node16</title>
<g id="a_node5"><a xlink:href="classGridFinder.html#a04e1362c95151ac77477844a952af0f9" target="_top" xlink:title="Scan 360° around a given pixel, and find the angle with the most white pixels. This version is not ve...">
<polygon fill="#ffffff" stroke="#000000" points="695.5,-85.5 695.5,-104.5 833.5,-104.5 833.5,-85.5 695.5,-85.5"/>
<text text-anchor="middle" x="764.5" y="-92.5" font-family="Helvetica,sans-Serif" font-size="10.00" fill="#000000">GridFinder::findLineAngle</text>
</a>
</g>
</g>
<!-- Node15&#45;&gt;Node16 -->
<g id="edge4" class="edge">
<title>Node15&#45;&gt;Node16</title>
<path fill="none" stroke="#191970" d="M1072.2991,-111.9664C1063.5165,-109.7285 1054.4742,-107.3523 1046,-105 1029.8793,-100.5252 1026.5467,-96.4716 1010,-94 949.3396,-84.9392 933.3327,-93.7147 872,-94 859.5886,-94.0577 846.3714,-94.1529 833.6045,-94.2623"/>
<polygon fill="#191970" stroke="#191970" points="1071.5084,-115.3765 1082.0605,-114.4258 1073.2186,-108.5887 1071.5084,-115.3765"/>
</g>
<!-- Node18 -->
<g id="node7" class="node">
<title>Node18</title>
<g id="a_node7"><a xlink:href="classGridFinder.html#afcc1eed83ee0292966c3c80883069634" target="_top" xlink:title="Similar to findLineAngle, but is more accurate, because it uses the average of the range of angles wi...">
<polygon fill="#ffffff" stroke="#000000" points="872,-103 872,-133 1010,-133 1010,-103 872,-103"/>
<text text-anchor="start" x="880" y="-121" font-family="Helvetica,sans-Serif" font-size="10.00" fill="#000000">GridFinder::findLineAngle</text>
<text text-anchor="middle" x="941" y="-110" font-family="Helvetica,sans-Serif" font-size="10.00" fill="#000000">AccurateRange</text>
</a>
</g>
</g>
<!-- Node15&#45;&gt;Node18 -->
<g id="edge6" class="edge">
<title>Node15&#45;&gt;Node18</title>
<path fill="none" stroke="#191970" d="M1060.23,-121.9524C1044.0881,-121.4173 1026.5857,-120.8371 1010.09,-120.2903"/>
<polygon fill="#191970" stroke="#191970" points="1060.5063,-125.4634 1070.6168,-122.2967 1060.7383,-118.4672 1060.5063,-125.4634"/>
</g>
<!-- Node17 -->
<g id="node6" class="node">
<title>Node17</title>
<g id="a_node6"><a xlink:href="classGridFinder.html#aaea3af418ab7124f2b25bcc124fccaca" target="_top" xlink:title="Get an estimate of the line through a given pixel. Find an estimate of the slope, then use that to de...">
<polygon fill="#ffffff" stroke="#000000" points="526,-150 526,-180 654,-180 654,-150 526,-150"/>
<text text-anchor="start" x="534" y="-168" font-family="Helvetica,sans-Serif" font-size="10.00" fill="#000000">GridFinder::getFirstLine</text>
<text text-anchor="middle" x="590" y="-157" font-family="Helvetica,sans-Serif" font-size="10.00" fill="#000000">Estimate</text>
</a>
</g>
</g>
<!-- Node16&#45;&gt;Node17 -->
<g id="edge5" class="edge">
<title>Node16&#45;&gt;Node17</title>
<path fill="none" stroke="#191970" d="M731.1343,-108.3845C701.5717,-120.2434 658.4453,-137.5434 627.6558,-149.8945"/>
<polygon fill="#191970" stroke="#191970" points="732.6244,-111.5579 740.6024,-104.5864 730.0182,-105.0612 732.6244,-111.5579"/>
</g>
<!-- Node20 -->
<g id="node9" class="node">
<title>Node20</title>
<g id="a_node9"><a xlink:href="classGridFinder.html#abcd46f31e256080b2d5d2aee03c0e258" target="_top" xlink:title="Find the middle of a line.">
<polygon fill="#ffffff" stroke="#000000" points="881,-269.5 881,-288.5 1001,-288.5 1001,-269.5 881,-269.5"/>
<text text-anchor="middle" x="941" y="-276.5" font-family="Helvetica,sans-Serif" font-size="10.00" fill="#000000">GridFinder::getMiddle</text>
</a>
</g>
</g>
<!-- Node19&#45;&gt;Node20 -->
<g id="edge8" class="edge">
<title>Node19&#45;&gt;Node20</title>
<path fill="none" stroke="#191970" d="M1035.5988,-260.7074C1020.065,-263.7112 1004.3697,-266.7462 990.3488,-269.4574"/>
<polygon fill="#191970" stroke="#191970" points="1036.6107,-264.0767 1045.7643,-258.7417 1035.2817,-257.204 1036.6107,-264.0767"/>
</g>
<!-- Node21 -->
<g id="node10" class="node">
<title>Node21</title>
<g id="a_node10"><a xlink:href="classGridFinder.html#af830abf29ca6dc9c01197a38fe16e1e5" target="_top" xlink:title="In exceptional cases, we might want to find the middle of a line in a point that happens to lie at th...">
<polygon fill="#ffffff" stroke="#000000" points="693,-182 693,-212 836,-212 836,-182 693,-182"/>
<text text-anchor="start" x="701" y="-200" font-family="Helvetica,sans-Serif" font-size="10.00" fill="#000000">GridFinder::getMiddleWith</text>
<text text-anchor="middle" x="764.5" y="-189" font-family="Helvetica,sans-Serif" font-size="10.00" fill="#000000">Retries</text>
</a>
</g>
</g>
<!-- Node20&#45;&gt;Node21 -->
<g id="edge9" class="edge">
<title>Node20&#45;&gt;Node21</title>
<path fill="none" stroke="#191970" d="M911.2004,-265.1554C879.5157,-250.4351 829.5651,-227.2286 796.9162,-212.0602"/>
<polygon fill="#191970" stroke="#191970" points="909.864,-268.3938 920.4078,-269.4331 912.8134,-262.0455 909.864,-268.3938"/>
</g>
<!-- Node22 -->
<g id="node11" class="node">
<title>Node22</title>
<g id="a_node11"><a xlink:href="classGridFinder.html#ae12ca7921b02b37417d87fc737f0134d" target="_top" xlink:title="Check if there could be a valid line going through the given point, and if so, find and return the ac...">
<polygon fill="#ffffff" stroke="#000000" points="704,-269.5 704,-288.5 825,-288.5 825,-269.5 704,-269.5"/>
<text text-anchor="middle" x="764.5" y="-276.5" font-family="Helvetica,sans-Serif" font-size="10.00" fill="#000000">GridFinder::checkLine</text>
</a>
</g>
</g>
<!-- Node20&#45;&gt;Node22 -->
<g id="edge11" class="edge">
<title>Node20&#45;&gt;Node22</title>
<path fill="none" stroke="#191970" d="M870.4814,-279C855.4475,-279 839.6975,-279 825.0754,-279"/>
<polygon fill="#191970" stroke="#191970" points="870.7524,-282.5001 880.7524,-279 870.7523,-275.5001 870.7524,-282.5001"/>
</g>
<!-- Node21&#45;&gt;Node17 -->
<g id="edge10" class="edge">
<title>Node21&#45;&gt;Node17</title>
<path fill="none" stroke="#191970" d="M682.8089,-182.0194C673.2012,-180.2575 663.5033,-178.4791 654.1837,-176.7701"/>
<polygon fill="#191970" stroke="#191970" points="682.3014,-185.4846 692.7688,-183.8458 683.5641,-178.5994 682.3014,-185.4846"/>
</g>
<!-- Node22&#45;&gt;Node23 -->
<g id="edge12" class="edge">
<title>Node22&#45;&gt;Node23</title>
<path fill="none" stroke="#191970" d="M693.9271,-271.3159C681.8358,-269.9993 669.3005,-268.6344 657.2976,-267.3275"/>
<polygon fill="#191970" stroke="#191970" points="693.638,-274.805 703.9581,-272.408 694.3957,-267.8461 693.638,-274.805"/>
</g>
<!-- Node24 -->
<g id="node13" class="node">
<title>Node24</title>
<g id="a_node13"><a xlink:href="classGridFinder.html#a3edbd3ffbcfe6d373fbaf576e4dca51b" target="_top" xlink:title="Equivalent to #findNextLine(LineResult,bool,uint,uint) but also supports optional LineResults.">
<polygon fill="#ffffff" stroke="#000000" points="353,-269.5 353,-288.5 487,-288.5 487,-269.5 353,-269.5"/>
<text text-anchor="middle" x="420" y="-276.5" font-family="Helvetica,sans-Serif" font-size="10.00" fill="#000000">GridFinder::findNextLine</text>
</a>
</g>
</g>
<!-- Node23&#45;&gt;Node24 -->
<g id="edge13" class="edge">
<title>Node23&#45;&gt;Node24</title>
<path fill="none" stroke="#191970" d="M512.854,-268.6222C504.3121,-269.5769 495.6634,-270.5435 487.2572,-271.483"/>
<polygon fill="#191970" stroke="#191970" points="513.2622,-272.0985 522.8115,-267.5093 512.4846,-265.1418 513.2622,-272.0985"/>
</g>
<!-- Node25 -->
<g id="node14" class="node">
<title>Node25</title>
<g id="a_node14"><a xlink:href="classGridFinder.html#a8940ca681fac78274043cf5f1f1f5761" target="_top" xlink:title="This is the main function: it looks for a complete square of the grid, as close to the center of the ...">
<polygon fill="#ffffff" stroke="#000000" points="358,-231.5 358,-250.5 482,-250.5 482,-231.5 358,-231.5"/>
<text text-anchor="middle" x="420" y="-238.5" font-family="Helvetica,sans-Serif" font-size="10.00" fill="#000000">GridFinder::findSquare</text>
</a>
</g>
</g>
<!-- Node23&#45;&gt;Node25 -->
<g id="edge14" class="edge">
<title>Node23&#45;&gt;Node25</title>
<path fill="none" stroke="#191970" d="M512.624,-251.3521C502.3644,-250.2054 491.9554,-249.0421 482.0015,-247.9296"/>
<polygon fill="#191970" stroke="#191970" points="512.4846,-254.8582 522.8115,-252.4907 513.2622,-247.9015 512.4846,-254.8582"/>
</g>
<!-- Node26 -->
<g id="node15" class="node">
<title>Node26</title>
<g id="a_node15"><a xlink:href="classLocationFinder.html#af56756d038d762e04e0c91bac9fc2522" target="_top" xlink:title="Read a new frame, mask it, run GridFinder, and get the position of the drone. The position is the pos...">
<polygon fill="#ffffff" stroke="#000000" points="149,-212.5 149,-231.5 317,-231.5 317,-212.5 149,-212.5"/>
<text text-anchor="middle" x="233" y="-219.5" font-family="Helvetica,sans-Serif" font-size="10.00" fill="#000000">LocationFinder::updateLocation</text>
</a>
</g>
</g>
<!-- Node25&#45;&gt;Node26 -->
<g id="edge15" class="edge">
<title>Node25&#45;&gt;Node26</title>
<path fill="none" stroke="#191970" d="M348.0281,-233.6873C337.9278,-232.6611 327.4731,-231.5989 317.1709,-230.5521"/>
<polygon fill="#191970" stroke="#191970" points="347.6888,-237.1708 357.9915,-234.6997 348.3965,-230.2067 347.6888,-237.1708"/>
</g>
<!-- Node27 -->
<g id="node16" class="node">
<title>Node27</title>
<g id="a_node16"><a xlink:href="Grid-Finder_8module_8hpp.html#a05e720af51446c0f9319fb9455fe1767" target="_top" xlink:title=" ">
<polygon fill="#ffffff" stroke="#000000" points="0,-231.5 0,-250.5 113,-250.5 113,-231.5 0,-231.5"/>
<text text-anchor="middle" x="56.5" y="-238.5" font-family="Helvetica,sans-Serif" font-size="10.00" fill="#000000">PYBIND11_MODULE</text>
</a>
</g>
</g>
<!-- Node25&#45;&gt;Node27 -->
<g id="edge17" class="edge">
<title>Node25&#45;&gt;Node27</title>
<path fill="none" stroke="#191970" d="M347.5872,-241C278.6832,-241 176.4113,-241 113.2349,-241"/>
<polygon fill="#191970" stroke="#191970" points="347.9252,-244.5001 357.9251,-241 347.9251,-237.5001 347.9252,-244.5001"/>
</g>
<!-- Node26&#45;&gt;Node27 -->
<g id="edge16" class="edge">
<title>Node26&#45;&gt;Node27</title>
<path fill="none" stroke="#191970" d="M138.9025,-232.1295C130.0733,-233.0799 121.3225,-234.0219 113.0056,-234.9172"/>
<polygon fill="#191970" stroke="#191970" points="139.3175,-235.6051 148.8854,-231.0548 138.5682,-228.6453 139.3175,-235.6051"/>
</g>
<!-- Node29&#45;&gt;Node20 -->
<g id="edge20" class="edge">
<title>Node29&#45;&gt;Node20</title>
<path fill="none" stroke="#191970" d="M1062.2894,-212.5144C1056.6238,-214.6421 1051.0985,-217.1191 1046,-220 1026.5716,-230.9779 1028.989,-243.2785 1010,-255 1000.1788,-261.0624 988.6211,-265.8474 977.8025,-269.4971"/>
<polygon fill="#191970" stroke="#191970" points="1063.5595,-215.7796 1071.9061,-209.2539 1061.3118,-209.1502 1063.5595,-215.7796"/>
</g>
<!-- Node29&#45;&gt;Node21 -->
<g id="edge21" class="edge">
<title>Node29&#45;&gt;Node21</title>
<path fill="none" stroke="#191970" d="M1061.8535,-199.4953C999.5945,-198.9728 902.3528,-198.1568 836.1534,-197.6013"/>
<polygon fill="#191970" stroke="#191970" points="1061.8857,-202.9956 1071.9147,-199.5797 1061.9445,-195.9958 1061.8857,-202.9956"/>
</g>
<!-- Node29&#45;&gt;Node23 -->
<g id="edge22" class="edge">
<title>Node29&#45;&gt;Node23</title>
<path fill="none" stroke="#191970" d="M1062.009,-206.7659C962.0005,-218.0451 761.8841,-240.6146 657.2507,-252.4153"/>
<polygon fill="#191970" stroke="#191970" points="1062.406,-210.2434 1071.9507,-205.6447 1061.6214,-203.2875 1062.406,-210.2434"/>
</g>
<!-- Node31 -->
<g id="node20" class="node">
<title>Node31</title>
<g id="a_node20"><a xlink:href="classGridFinder.html#a05d847c0d5e11314641f84afa0f2ca05" target="_top" xlink:title="Get the value of the given pixel.">
<polygon fill="#ffffff" stroke="#000000" points="1250,-.5 1250,-19.5 1338,-19.5 1338,-.5 1250,-.5"/>
<text text-anchor="middle" x="1294" y="-7.5" font-family="Helvetica,sans-Serif" font-size="10.00" fill="#000000">GridFinder::get</text>
</a>
</g>
</g>
<!-- Node30&#45;&gt;Node31 -->
<g id="edge30" class="edge">
<title>Node30&#45;&gt;Node31</title>
<path fill="none" stroke="#191970" d="M1416.9021,-10C1392.7335,-10 1362.5334,-10 1338.1183,-10"/>
<polygon fill="#191970" stroke="#191970" points="1417.1971,-13.5001 1427.1971,-10 1417.197,-6.5001 1417.1971,-13.5001"/>
</g>
<!-- Node33 -->
<g id="node22" class="node">
<title>Node33</title>
<g id="a_node22"><a xlink:href="classGridFinder.html#a376419f000b3be1e8db278726a2efbc1" target="_top" xlink:title="Set the value of the given pixel.">
<polygon fill="#ffffff" stroke="#000000" points="1250.5,-38.5 1250.5,-57.5 1337.5,-57.5 1337.5,-38.5 1250.5,-38.5"/>
<text text-anchor="middle" x="1294" y="-45.5" font-family="Helvetica,sans-Serif" font-size="10.00" fill="#000000">GridFinder::set</text>
</a>
</g>
</g>
<!-- Node32&#45;&gt;Node33 -->
<g id="edge32" class="edge">
<title>Node32&#45;&gt;Node33</title>
<path fill="none" stroke="#191970" d="M1417.9109,-48C1393.4047,-48 1362.4368,-48 1337.5905,-48"/>
<polygon fill="#191970" stroke="#191970" points="1417.9812,-51.5001 1427.9812,-48 1417.9811,-44.5001 1417.9812,-51.5001"/>
</g>
<!-- Node33&#45;&gt;Node28 -->
<g id="edge33" class="edge">
<title>Node33&#45;&gt;Node28</title>
<path fill="none" stroke="#191970" d="M1240.8041,-59.7526C1216.4834,-65.1258 1188.0453,-71.4086 1165.0908,-76.4799"/>
<polygon fill="#191970" stroke="#191970" points="1241.5877,-63.164 1250.5971,-57.589 1240.0775,-56.3288 1241.5877,-63.164"/>
</g>
</g>
</svg>
