<?xml version="1.0" encoding="UTF-8" standalone="no"?>
<!DOCTYPE svg PUBLIC "-//W3C//DTD SVG 1.1//EN"
 "http://www.w3.org/Graphics/SVG/1.1/DTD/svg11.dtd">
<!-- Generated by graphviz version 2.40.1 (20161225.0304)
 -->
<!-- Title: FirstLineEstimate Pages: 1 -->
<svg width="253pt" height="518pt"
 viewBox="0.00 0.00 253.00 518.00" xmlns="http://www.w3.org/2000/svg" xmlns:xlink="http://www.w3.org/1999/xlink">
<g id="graph0" class="graph" transform="scale(1 1) rotate(0) translate(4 514)">
<title>FirstLineEstimate</title>
<polygon fill="#ffffff" stroke="transparent" points="-4,4 -4,-514 249,-514 249,4 -4,4"/>
<!-- Node1 -->
<g id="node1" class="node">
<title>Node1</title>
<g id="a_node1"><a xlink:title=" ">
<polygon fill="#bfbfbf" stroke="#000000" points="43,-.5 43,-57.5 144,-57.5 144,-.5 43,-.5"/>
<text text-anchor="middle" x="93.5" y="-45.5" font-family="Helvetica,sans-Serif" font-size="10.00" fill="#000000">FirstLineEstimate</text>
<polyline fill="none" stroke="#000000" points="43,-38.5 144,-38.5 "/>
<text text-anchor="start" x="51" y="-26.5" font-family="Helvetica,sans-Serif" font-size="10.00" fill="#000000">+ width</text>
<polyline fill="none" stroke="#000000" points="43,-19.5 144,-19.5 "/>
<text text-anchor="middle" x="93.5" y="-7.5" font-family="Helvetica,sans-Serif" font-size="10.00" fill="#000000"> </text>
</a>
</g>
</g>
<!-- Node2 -->
<g id="node2" class="node">
<title>Node2</title>
<g id="a_node2"><a xlink:href="structPixel.html" target="_top" xlink:title=" ">
<polygon fill="#ffffff" stroke="#000000" points="0,-182.5 0,-316.5 93,-316.5 93,-182.5 0,-182.5"/>
<text text-anchor="middle" x="46.5" y="-304.5" font-family="Helvetica,sans-Serif" font-size="10.00" fill="#000000">Pixel</text>
<polyline fill="none" stroke="#000000" points="0,-297.5 93,-297.5 "/>
<text text-anchor="start" x="8" y="-285.5" font-family="Helvetica,sans-Serif" font-size="10.00" fill="#000000">+ x</text>
<text text-anchor="start" x="8" y="-274.5" font-family="Helvetica,sans-Serif" font-size="10.00" fill="#000000">+ y</text>
<polyline fill="none" stroke="#000000" points="0,-267.5 93,-267.5 "/>
<text text-anchor="start" x="8" y="-255.5" font-family="Helvetica,sans-Serif" font-size="10.00" fill="#000000">+ Pixel()</text>
<text text-anchor="start" x="8" y="-244.5" font-family="Helvetica,sans-Serif" font-size="10.00" fill="#000000">+ Pixel()</text>
<text text-anchor="start" x="8" y="-233.5" font-family="Helvetica,sans-Serif" font-size="10.00" fill="#000000">+ isValid()</text>
<text text-anchor="start" x="8" y="-222.5" font-family="Helvetica,sans-Serif" font-size="10.00" fill="#000000">+ operator==()</text>
<text text-anchor="start" x="8" y="-211.5" font-family="Helvetica,sans-Serif" font-size="10.00" fill="#000000">+ operator!=()</text>
<text text-anchor="start" x="8" y="-200.5" font-family="Helvetica,sans-Serif" font-size="10.00" fill="#000000">+ inRange()</text>
<text text-anchor="start" x="8" y="-189.5" font-family="Helvetica,sans-Serif" font-size="10.00" fill="#000000">+ average()</text>
</a>
</g>
</g>
<!-- Node2&#45;&gt;Node1 -->
<g id="edge1" class="edge">
<title>Node2&#45;&gt;Node1</title>
<path fill="none" stroke="#404040" d="M53.0152,-182.3413C57.1627,-149.816 63.658,-110.4401 73.5,-76 74.1487,-73.7298 74.8789,-71.4235 75.6665,-69.113"/>
<polygon fill="none" stroke="#404040" points="75.7444,-68.9058 74.1148,-61.8813 79.9722,-57.6752 81.6018,-64.6998 75.7444,-68.9058"/>
<text text-anchor="middle" x="96.5" y="-79" font-family="Helvetica,sans-Serif" font-size="10.00" fill="#000000"> +middle</text>
</g>
<!-- Node3 -->
<g id="node3" class="node">
<title>Node3</title>
<g id="a_node3"><a xlink:href="classAngle.html" target="_top" xlink:title=" ">
<polygon fill="#ffffff" stroke="#000000" points="111,-105.5 111,-393.5 224,-393.5 224,-105.5 111,-105.5"/>
<text text-anchor="middle" x="167.5" y="-381.5" font-family="Helvetica,sans-Serif" font-size="10.00" fill="#000000">Angle&lt; 360 &gt;</text>
<polyline fill="none" stroke="#000000" points="111,-374.5 224,-374.5 "/>
<text text-anchor="middle" x="167.5" y="-362.5" font-family="Helvetica,sans-Serif" font-size="10.00" fill="#000000"> </text>
<polyline fill="none" stroke="#000000" points="111,-355.5 224,-355.5 "/>
<text text-anchor="start" x="119" y="-343.5" font-family="Helvetica,sans-Serif" font-size="10.00" fill="#000000">+ Angle()</text>
<text text-anchor="start" x="119" y="-332.5" font-family="Helvetica,sans-Serif" font-size="10.00" fill="#000000">+ Angle()</text>
<text text-anchor="start" x="119" y="-321.5" font-family="Helvetica,sans-Serif" font-size="10.00" fill="#000000">+ Angle()</text>
<text text-anchor="start" x="119" y="-310.5" font-family="Helvetica,sans-Serif" font-size="10.00" fill="#000000">+ Angle()</text>
<text text-anchor="start" x="119" y="-299.5" font-family="Helvetica,sans-Serif" font-size="10.00" fill="#000000">+ Angle()</text>
<text text-anchor="start" x="119" y="-288.5" font-family="Helvetica,sans-Serif" font-size="10.00" fill="#000000">+ operator CosSin()</text>
<text text-anchor="start" x="119" y="-277.5" font-family="Helvetica,sans-Serif" font-size="10.00" fill="#000000">+ operator double()</text>
<text text-anchor="start" x="119" y="-266.5" font-family="Helvetica,sans-Serif" font-size="10.00" fill="#000000">+ rad()</text>
<text text-anchor="start" x="119" y="-255.5" font-family="Helvetica,sans-Serif" font-size="10.00" fill="#000000">+ deg()</text>
<text text-anchor="start" x="119" y="-244.5" font-family="Helvetica,sans-Serif" font-size="10.00" fill="#000000">+ getIndex()</text>
<text text-anchor="start" x="119" y="-233.5" font-family="Helvetica,sans-Serif" font-size="10.00" fill="#000000">and 14 more...</text>
<text text-anchor="start" x="119" y="-222.5" font-family="Helvetica,sans-Serif" font-size="10.00" fill="#000000">+ resolution()</text>
<text text-anchor="start" x="119" y="-211.5" font-family="Helvetica,sans-Serif" font-size="10.00" fill="#000000">+ getIndex()</text>
<text text-anchor="start" x="119" y="-200.5" font-family="Helvetica,sans-Serif" font-size="10.00" fill="#000000">+ cos()</text>
<text text-anchor="start" x="119" y="-189.5" font-family="Helvetica,sans-Serif" font-size="10.00" fill="#000000">+ sin()</text>
<text text-anchor="start" x="119" y="-178.5" font-family="Helvetica,sans-Serif" font-size="10.00" fill="#000000">+ normalize()</text>
<text text-anchor="start" x="119" y="-167.5" font-family="Helvetica,sans-Serif" font-size="10.00" fill="#000000">+ distance()</text>
<text text-anchor="start" x="119" y="-156.5" font-family="Helvetica,sans-Serif" font-size="10.00" fill="#000000">+ average()</text>
<text text-anchor="start" x="119" y="-145.5" font-family="Helvetica,sans-Serif" font-size="10.00" fill="#000000">+ getAngle()</text>
<text text-anchor="start" x="119" y="-134.5" font-family="Helvetica,sans-Serif" font-size="10.00" fill="#000000">+ step()</text>
<text text-anchor="start" x="119" y="-123.5" font-family="Helvetica,sans-Serif" font-size="10.00" fill="#000000">+ calculateCosLut()</text>
<text text-anchor="start" x="119" y="-112.5" font-family="Helvetica,sans-Serif" font-size="10.00" fill="#000000">+ calculateSinLut()</text>
</a>
</g>
</g>
<!-- Node3&#45;&gt;Node1 -->
<g id="edge2" class="edge">
<title>Node3&#45;&gt;Node1</title>
<path fill="none" stroke="#404040" d="M130.403,-105.1819C126.977,-95.2162 123.3391,-85.4038 119.5,-76 118.4834,-73.5098 117.3658,-70.9842 116.1829,-68.4626"/>
<polygon fill="none" stroke="#404040" points="116.0877,-68.2734 109.816,-64.7145 110.6891,-57.5564 116.9607,-61.1154 116.0877,-68.2734"/>
<text text-anchor="middle" x="163.5" y="-79" font-family="Helvetica,sans-Serif" font-size="10.00" fill="#000000"> +angleEstimate</text>
</g>
<!-- Node4 -->
<g id="node4" class="node">
<title>Node4</title>
<g id="a_node4"><a xlink:title=" ">
<polygon fill="#ffffff" stroke="#bfbfbf" points="90,-452.5 90,-509.5 245,-509.5 245,-452.5 90,-452.5"/>
<text text-anchor="middle" x="167.5" y="-497.5" font-family="Helvetica,sans-Serif" font-size="10.00" fill="#000000">std::array&lt; int, Resolution &gt;</text>
<polyline fill="none" stroke="#bfbfbf" points="90,-490.5 245,-490.5 "/>
<text text-anchor="start" x="98" y="-478.5" font-family="Helvetica,sans-Serif" font-size="10.00" fill="#000000">+ elements</text>
<polyline fill="none" stroke="#bfbfbf" points="90,-471.5 245,-471.5 "/>
<text text-anchor="middle" x="167.5" y="-459.5" font-family="Helvetica,sans-Serif" font-size="10.00" fill="#000000"> </text>
</a>
</g>
</g>
<!-- Node4&#45;&gt;Node3 -->
<g id="edge3" class="edge">
<title>Node4&#45;&gt;Node3</title>
<path fill="none" stroke="#404040" d="M167.5,-452.1484C167.5,-439.3339 167.5,-423.1708 167.5,-405.5885"/>
<polygon fill="none" stroke="#404040" points="167.5001,-405.5333 163.5,-399.5333 167.5,-393.5333 171.5,-399.5332 167.5001,-405.5333"/>
<text text-anchor="middle" x="190.5" y="-426" font-family="Helvetica,sans-Serif" font-size="10.00" fill="#000000"> +sines</text>
<text text-anchor="middle" x="190.5" y="-415" font-family="Helvetica,sans-Serif" font-size="10.00" fill="#000000">+cosines</text>
</g>
</g>
</svg>
