<?xml version="1.0" encoding="UTF-8" standalone="no"?>
<!DOCTYPE svg PUBLIC "-//W3C//DTD SVG 1.1//EN"
 "http://www.w3.org/Graphics/SVG/1.1/DTD/svg11.dtd">
<!-- Generated by graphviz version 2.40.1 (20161225.0304)
 -->
<!-- Title: Point::vec Pages: 1 -->
<svg width="916pt" height="230pt"
 viewBox="0.00 0.00 916.00 229.50" xmlns="http://www.w3.org/2000/svg" xmlns:xlink="http://www.w3.org/1999/xlink">
<g id="graph0" class="graph" transform="scale(1 1) rotate(0) translate(4 225.5)">
<title>Point::vec</title>
<polygon fill="#ffffff" stroke="transparent" points="-4,4 -4,-225.5 912,-225.5 912,4 -4,4"/>
<!-- Node50 -->
<g id="node1" class="node">
<title>Node50</title>
<g id="a_node1"><a xlink:title=" ">
<polygon fill="#bfbfbf" stroke="#000000" points="843,-95.5 843,-114.5 908,-114.5 908,-95.5 843,-95.5"/>
<text text-anchor="middle" x="875.5" y="-102.5" font-family="Helvetica,sans-Serif" font-size="10.00" fill="#000000">Point::vec</text>
</a>
</g>
</g>
<!-- Node51 -->
<g id="node2" class="node">
<title>Node51</title>
<g id="a_node2"><a xlink:href="structPoint.html#a4095f170d4a6225a2d0dea604fdb2101" target="_top" xlink:title=" ">
<polygon fill="#ffffff" stroke="#000000" points="664,-191 664,-221 807,-221 807,-191 664,-191"/>
<text text-anchor="start" x="672" y="-209" font-family="Helvetica,sans-Serif" font-size="10.00" fill="#000000">Point::operator TColVector</text>
<text text-anchor="middle" x="735.5" y="-198" font-family="Helvetica,sans-Serif" font-size="10.00" fill="#000000">&lt; float, 2 &gt;</text>
</a>
</g>
</g>
<!-- Node50&#45;&gt;Node51 -->
<g id="edge1" class="edge">
<title>Node50&#45;&gt;Node51</title>
<path fill="none" stroke="#191970" d="M863.2936,-123.1244C850.9289,-140.2223 830.3381,-165.4815 807,-181 801.3059,-184.7863 794.9749,-188.0659 788.5008,-190.8884"/>
<polygon fill="#191970" stroke="#191970" points="866.4094,-124.7769 869.2818,-114.5788 860.6768,-120.7598 866.4094,-124.7769"/>
</g>
<!-- Node52 -->
<g id="node3" class="node">
<title>Node52</title>
<g id="a_node3"><a xlink:href="structPoint.html#ab50806683020e8c506f3be5e934a62ce" target="_top" xlink:title=" ">
<polygon fill="#ffffff" stroke="#000000" points="699.5,-152.5 699.5,-171.5 771.5,-171.5 771.5,-152.5 699.5,-152.5"/>
<text text-anchor="middle" x="735.5" y="-159.5" font-family="Helvetica,sans-Serif" font-size="10.00" fill="#000000">Point::Point</text>
</a>
</g>
</g>
<!-- Node50&#45;&gt;Node52 -->
<g id="edge2" class="edge">
<title>Node50&#45;&gt;Node52</title>
<path fill="none" stroke="#191970" d="M852.0961,-119.8771C839.1805,-127.5953 822.6313,-136.7003 807,-143 795.8019,-147.513 783.1872,-151.2735 771.7062,-154.2256"/>
<polygon fill="#191970" stroke="#191970" points="854.0857,-122.7631 860.7935,-114.5621 850.4355,-116.7901 854.0857,-122.7631"/>
</g>
<!-- Node53 -->
<g id="node4" class="node">
<title>Node53</title>
<g id="a_node4"><a xlink:href="structPoint.html#a94f25dd17cb1d1cefb726eaa673a8505" target="_top" xlink:title=" ">
<polygon fill="#ffffff" stroke="#000000" points="671.5,-114.5 671.5,-133.5 799.5,-133.5 799.5,-114.5 671.5,-114.5"/>
<text text-anchor="middle" x="735.5" y="-121.5" font-family="Helvetica,sans-Serif" font-size="10.00" fill="#000000">Point::distanceSquared</text>
</a>
</g>
</g>
<!-- Node50&#45;&gt;Node53 -->
<g id="edge3" class="edge">
<title>Node50&#45;&gt;Node53</title>
<path fill="none" stroke="#191970" d="M832.6392,-110.8168C822.245,-112.2275 810.9063,-113.7663 799.7627,-115.2786"/>
<polygon fill="#191970" stroke="#191970" points="833.2378,-114.2678 842.6762,-109.4547 832.2963,-107.3313 833.2378,-114.2678"/>
</g>
<!-- Node58 -->
<g id="node9" class="node">
<title>Node58</title>
<g id="a_node9"><a xlink:href="classLocationFinder.html#a93be2c4b05b52c58f5fca5d1514dfbe9" target="_top" xlink:title="Get the position of the center of the frame relative to the given square.">
<polygon fill="#ffffff" stroke="#000000" points="353,-85.5 353,-104.5 503,-104.5 503,-85.5 353,-85.5"/>
<text text-anchor="middle" x="428" y="-92.5" font-family="Helvetica,sans-Serif" font-size="10.00" fill="#000000">LocationFinder::getLocation</text>
</a>
</g>
</g>
<!-- Node50&#45;&gt;Node58 -->
<g id="edge14" class="edge">
<title>Node50&#45;&gt;Node58</title>
<path fill="none" stroke="#191970" d="M832.8176,-104.0462C756.9318,-102.3504 597.6466,-98.791 503.0793,-96.6777"/>
<polygon fill="#191970" stroke="#191970" points="832.8807,-107.5484 842.9564,-104.2728 833.0372,-100.5501 832.8807,-107.5484"/>
</g>
<!-- Node59 -->
<g id="node10" class="node">
<title>Node59</title>
<g id="a_node10"><a xlink:href="structPoint.html#a1da0707b7db8d7a162e52f13c1809e34" target="_top" xlink:title=" ">
<polygon fill="#ffffff" stroke="#000000" points="540,-38.5 540,-57.5 627,-57.5 627,-38.5 540,-38.5"/>
<text text-anchor="middle" x="583.5" y="-45.5" font-family="Helvetica,sans-Serif" font-size="10.00" fill="#000000">Point::average</text>
</a>
</g>
</g>
<!-- Node50&#45;&gt;Node59 -->
<g id="edge11" class="edge">
<title>Node50&#45;&gt;Node59</title>
<path fill="none" stroke="#191970" d="M850.5372,-90.4209C837.8984,-83.7108 822.0719,-76.3007 807,-72 746.2058,-54.6527 672.8533,-49.6497 627.1818,-48.3146"/>
<polygon fill="#191970" stroke="#191970" points="849.0658,-93.6059 859.5157,-95.3526 852.4359,-87.4705 849.0658,-93.6059"/>
</g>
<!-- Node60 -->
<g id="node11" class="node">
<title>Node60</title>
<g id="a_node11"><a xlink:href="classLocationTracker.html#a259a52389d4d7c4a5fe80aca35b789ea" target="_top" xlink:title=" ">
<polygon fill="#ffffff" stroke="#000000" points="669,-.5 669,-19.5 802,-19.5 802,-.5 669,-.5"/>
<text text-anchor="middle" x="735.5" y="-7.5" font-family="Helvetica,sans-Serif" font-size="10.00" fill="#000000">LocationTracker::update</text>
</a>
</g>
</g>
<!-- Node50&#45;&gt;Node60 -->
<g id="edge13" class="edge">
<title>Node50&#45;&gt;Node60</title>
<path fill="none" stroke="#191970" d="M862.4669,-87.2658C849.8859,-71.2934 829.4788,-48.2055 807,-34 797.3701,-27.9144 786.0277,-23.1932 775.249,-19.612"/>
<polygon fill="#191970" stroke="#191970" points="859.7601,-89.488 868.6147,-95.3058 865.3207,-85.236 859.7601,-89.488"/>
</g>
<!-- Node54 -->
<g id="node5" class="node">
<title>Node54</title>
<g id="a_node5"><a xlink:href="classGridFinder.html#a701c0c1e70d01bb8773a89a29f6673a0" target="_top" xlink:title="This is the main function: it looks for a complete square of the grid, as close to the center of the ...">
<polygon fill="#ffffff" stroke="#000000" points="366,-142.5 366,-161.5 490,-161.5 490,-142.5 366,-142.5"/>
<text text-anchor="middle" x="428" y="-149.5" font-family="Helvetica,sans-Serif" font-size="10.00" fill="#000000">GridFinder::findSquare</text>
</a>
</g>
</g>
<!-- Node53&#45;&gt;Node54 -->
<g id="edge4" class="edge">
<title>Node53&#45;&gt;Node54</title>
<path fill="none" stroke="#191970" d="M679.362,-135.3421C662.8767,-138.2872 644.7702,-141.1486 628,-143 582.0519,-148.0726 529.8642,-150.3037 490.3222,-151.2766"/>
<polygon fill="#191970" stroke="#191970" points="680.1844,-138.7498 689.3905,-133.5059 678.9236,-131.8643 680.1844,-138.7498"/>
</g>
<!-- Node57 -->
<g id="node8" class="node">
<title>Node57</title>
<g id="a_node8"><a xlink:href="structPoint.html#ab0fa03b5388829db9118785408deba75" target="_top" xlink:title=" ">
<polygon fill="#ffffff" stroke="#000000" points="539,-114.5 539,-133.5 628,-133.5 628,-114.5 539,-114.5"/>
<text text-anchor="middle" x="583.5" y="-121.5" font-family="Helvetica,sans-Serif" font-size="10.00" fill="#000000">Point::distance</text>
</a>
</g>
</g>
<!-- Node53&#45;&gt;Node57 -->
<g id="edge8" class="edge">
<title>Node53&#45;&gt;Node57</title>
<path fill="none" stroke="#191970" d="M661.1393,-124C649.8346,-124 638.4815,-124 628.0812,-124"/>
<polygon fill="#191970" stroke="#191970" points="661.4789,-127.5001 671.4789,-124 661.4788,-120.5001 661.4789,-127.5001"/>
</g>
<!-- Node55 -->
<g id="node6" class="node">
<title>Node55</title>
<g id="a_node6"><a xlink:href="classLocationFinder.html#af56756d038d762e04e0c91bac9fc2522" target="_top" xlink:title="Read a new frame, mask it, run GridFinder, and get the position of the drone. The position is the pos...">
<polygon fill="#ffffff" stroke="#000000" points="149,-104.5 149,-123.5 317,-123.5 317,-104.5 149,-104.5"/>
<text text-anchor="middle" x="233" y="-111.5" font-family="Helvetica,sans-Serif" font-size="10.00" fill="#000000">LocationFinder::updateLocation</text>
</a>
</g>
</g>
<!-- Node54&#45;&gt;Node55 -->
<g id="edge5" class="edge">
<title>Node54&#45;&gt;Node55</title>
<path fill="none" stroke="#191970" d="M369.0412,-140.5106C341.218,-135.0886 308.4043,-128.6942 281.9752,-123.5439"/>
<polygon fill="#191970" stroke="#191970" points="368.5601,-143.9826 379.045,-142.46 369.8991,-137.1118 368.5601,-143.9826"/>
</g>
<!-- Node56 -->
<g id="node7" class="node">
<title>Node56</title>
<g id="a_node7"><a xlink:href="Grid-Finder_8module_8hpp.html#a6849f4dcdb45a7aaadcda6439233d376" target="_top" xlink:title=" ">
<polygon fill="#ffffff" stroke="#000000" points="0,-123.5 0,-142.5 113,-142.5 113,-123.5 0,-123.5"/>
<text text-anchor="middle" x="56.5" y="-130.5" font-family="Helvetica,sans-Serif" font-size="10.00" fill="#000000">PYBIND11_MODULE</text>
</a>
</g>
</g>
<!-- Node54&#45;&gt;Node56 -->
<g id="edge7" class="edge">
<title>Node54&#45;&gt;Node56</title>
<path fill="none" stroke="#191970" d="M355.6221,-148.2983C284.6888,-144.6705 178.0357,-139.2158 113.0925,-135.8944"/>
<polygon fill="#191970" stroke="#191970" points="355.6535,-151.8044 365.8193,-148.8198 356.0111,-144.8135 355.6535,-151.8044"/>
</g>
<!-- Node55&#45;&gt;Node56 -->
<g id="edge6" class="edge">
<title>Node55&#45;&gt;Node56</title>
<path fill="none" stroke="#191970" d="M138.9025,-124.1295C130.0733,-125.0799 121.3225,-126.0219 113.0056,-126.9172"/>
<polygon fill="#191970" stroke="#191970" points="139.3175,-127.6051 148.8854,-123.0548 138.5682,-120.6453 139.3175,-127.6051"/>
</g>
<!-- Node57&#45;&gt;Node58 -->
<g id="edge9" class="edge">
<title>Node57&#45;&gt;Node58</title>
<path fill="none" stroke="#191970" d="M529.0648,-113.8481C512.8494,-110.824 495.143,-107.5218 479.1454,-104.5384"/>
<polygon fill="#191970" stroke="#191970" points="528.4677,-117.297 538.9399,-115.6898 529.7511,-110.4157 528.4677,-117.297"/>
</g>
<!-- Node58&#45;&gt;Node55 -->
<g id="edge10" class="edge">
<title>Node58&#45;&gt;Node55</title>
<path fill="none" stroke="#191970" d="M342.9279,-103.2891C334.3799,-104.122 325.7023,-104.9675 317.1639,-105.7994"/>
<polygon fill="#191970" stroke="#191970" points="343.2734,-106.7721 352.8868,-102.3187 342.5945,-99.8051 343.2734,-106.7721"/>
</g>
<!-- Node59&#45;&gt;Node58 -->
<g id="edge12" class="edge">
<title>Node59&#45;&gt;Node58</title>
<path fill="none" stroke="#191970" d="M542.1377,-60.5018C516.2771,-68.3182 483.4817,-78.2306 459.6874,-85.4224"/>
<polygon fill="#191970" stroke="#191970" points="543.4726,-63.7548 552.0323,-57.5112 541.4473,-57.0541 543.4726,-63.7548"/>
</g>
</g>
</svg>
