<?xml version="1.0" encoding="UTF-8" standalone="no"?>
<!DOCTYPE svg PUBLIC "-//W3C//DTD SVG 1.1//EN"
 "http://www.w3.org/Graphics/SVG/1.1/DTD/svg11.dtd">
<!-- Generated by graphviz version 2.40.1 (20161225.0304)
 -->
<!-- Title: QR&lt; T, Rm, Cn &gt; Pages: 1 -->
<svg width="121pt" height="452pt"
 viewBox="0.00 0.00 121.00 452.00" xmlns="http://www.w3.org/2000/svg" xmlns:xlink="http://www.w3.org/1999/xlink">
<g id="graph0" class="graph" transform="scale(1 1) rotate(0) translate(4 448)">
<title>QR&lt; T, Rm, Cn &gt;</title>
<polygon fill="#ffffff" stroke="transparent" points="-4,4 -4,-448 117,-448 117,4 -4,4"/>
<!-- Node1 -->
<g id="node1" class="node">
<title>Node1</title>
<g id="a_node1"><a xlink:title=" ">
<polygon fill="#bfbfbf" stroke="#000000" points="1,-.5 1,-79.5 112,-79.5 112,-.5 1,-.5"/>
<text text-anchor="middle" x="56.5" y="-67.5" font-family="Helvetica,sans-Serif" font-size="10.00" fill="#000000">QR&lt; T, Rm, Cn &gt;</text>
<polyline fill="none" stroke="#000000" points="1,-60.5 112,-60.5 "/>
<text text-anchor="middle" x="56.5" y="-48.5" font-family="Helvetica,sans-Serif" font-size="10.00" fill="#000000"> </text>
<polyline fill="none" stroke="#000000" points="1,-41.5 112,-41.5 "/>
<text text-anchor="start" x="9" y="-29.5" font-family="Helvetica,sans-Serif" font-size="10.00" fill="#000000">+ applyTranspose()</text>
<text text-anchor="start" x="9" y="-18.5" font-family="Helvetica,sans-Serif" font-size="10.00" fill="#000000">+ apply()</text>
<text text-anchor="start" x="9" y="-7.5" font-family="Helvetica,sans-Serif" font-size="10.00" fill="#000000">+ Q()</text>
</a>
</g>
</g>
<!-- Node2 -->
<g id="node2" class="node">
<title>Node2</title>
<g id="a_node2"><a xlink:href="structArray.html" target="_top" xlink:title=" ">
<polygon fill="#ffffff" stroke="#000000" points="0,-138.5 0,-338.5 113,-338.5 113,-138.5 0,-138.5"/>
<text text-anchor="middle" x="56.5" y="-326.5" font-family="Helvetica,sans-Serif" font-size="10.00" fill="#000000">Array&lt; T, Rm, Cn &gt;</text>
<polyline fill="none" stroke="#000000" points="0,-319.5 113,-319.5 "/>
<text text-anchor="middle" x="56.5" y="-307.5" font-family="Helvetica,sans-Serif" font-size="10.00" fill="#000000"> </text>
<polyline fill="none" stroke="#000000" points="0,-300.5 113,-300.5 "/>
<text text-anchor="start" x="8" y="-288.5" font-family="Helvetica,sans-Serif" font-size="10.00" fill="#000000">+ operator[]()</text>
<text text-anchor="start" x="8" y="-277.5" font-family="Helvetica,sans-Serif" font-size="10.00" fill="#000000">+ operator[]()</text>
<text text-anchor="start" x="8" y="-266.5" font-family="Helvetica,sans-Serif" font-size="10.00" fill="#000000">+ begin()</text>
<text text-anchor="start" x="8" y="-255.5" font-family="Helvetica,sans-Serif" font-size="10.00" fill="#000000">+ begin()</text>
<text text-anchor="start" x="8" y="-244.5" font-family="Helvetica,sans-Serif" font-size="10.00" fill="#000000">+ end()</text>
<text text-anchor="start" x="8" y="-233.5" font-family="Helvetica,sans-Serif" font-size="10.00" fill="#000000">+ end()</text>
<text text-anchor="start" x="8" y="-222.5" font-family="Helvetica,sans-Serif" font-size="10.00" fill="#000000">+ operator==()</text>
<text text-anchor="start" x="8" y="-211.5" font-family="Helvetica,sans-Serif" font-size="10.00" fill="#000000">+ operator*()</text>
<text text-anchor="start" x="8" y="-200.5" font-family="Helvetica,sans-Serif" font-size="10.00" fill="#000000">+ operator*=()</text>
<text text-anchor="start" x="8" y="-189.5" font-family="Helvetica,sans-Serif" font-size="10.00" fill="#000000">+ operator/()</text>
<text text-anchor="start" x="8" y="-178.5" font-family="Helvetica,sans-Serif" font-size="10.00" fill="#000000">and 16 more...</text>
<text text-anchor="start" x="8" y="-167.5" font-family="Helvetica,sans-Serif" font-size="10.00" fill="#000000">+ fromCppArray()</text>
<text text-anchor="start" x="8" y="-156.5" font-family="Helvetica,sans-Serif" font-size="10.00" fill="#000000">+ fromCArray()</text>
<text text-anchor="start" x="8" y="-145.5" font-family="Helvetica,sans-Serif" font-size="10.00" fill="#000000">+ length()</text>
</a>
</g>
</g>
<!-- Node2&#45;&gt;Node1 -->
<g id="edge1" class="edge">
<title>Node2&#45;&gt;Node1</title>
<path fill="none" stroke="#404040" d="M56.5,-138.3777C56.5,-122.2808 56.5,-106.2145 56.5,-91.8726"/>
<polygon fill="none" stroke="#404040" points="56.5001,-91.7556 52.5,-85.7556 56.5,-79.7556 60.5,-85.7556 56.5001,-91.7556"/>
<text text-anchor="middle" x="66" y="-112" font-family="Helvetica,sans-Serif" font-size="10.00" fill="#000000"> +R</text>
<text text-anchor="middle" x="66" y="-101" font-family="Helvetica,sans-Serif" font-size="10.00" fill="#000000">+U</text>
</g>
<!-- Node3 -->
<g id="node3" class="node">
<title>Node3</title>
<g id="a_node3"><a xlink:title=" ">
<polygon fill="#ffffff" stroke="#bfbfbf" points="42,-386.5 42,-443.5 71,-443.5 71,-386.5 42,-386.5"/>
<text text-anchor="middle" x="56.5" y="-431.5" font-family="Helvetica,sans-Serif" font-size="10.00" fill="#000000">T</text>
<polyline fill="none" stroke="#bfbfbf" points="42,-424.5 71,-424.5 "/>
<text text-anchor="middle" x="56.5" y="-412.5" font-family="Helvetica,sans-Serif" font-size="10.00" fill="#000000"> </text>
<polyline fill="none" stroke="#bfbfbf" points="42,-405.5 71,-405.5 "/>
<text text-anchor="middle" x="56.5" y="-393.5" font-family="Helvetica,sans-Serif" font-size="10.00" fill="#000000"> </text>
</a>
</g>
</g>
<!-- Node3&#45;&gt;Node2 -->
<g id="edge2" class="edge">
<title>Node3&#45;&gt;Node2</title>
<path fill="none" stroke="#404040" d="M56.5,-386.2494C56.5,-376.0034 56.5,-363.7546 56.5,-350.7535"/>
<polygon fill="none" stroke="#404040" points="56.5001,-350.6381 52.5,-344.6381 56.5,-338.6381 60.5,-344.6381 56.5001,-350.6381"/>
<text text-anchor="middle" x="73.5" y="-360" font-family="Helvetica,sans-Serif" font-size="10.00" fill="#000000"> +data</text>
</g>
</g>
</svg>
