<?xml version="1.0" encoding="UTF-8" standalone="no"?>
<!DOCTYPE svg PUBLIC "-//W3C//DTD SVG 1.1//EN"
 "http://www.w3.org/Graphics/SVG/1.1/DTD/svg11.dtd">
<!-- Generated by graphviz version 2.40.1 (20161225.0304)
 -->
<!-- Title: Array::begin Pages: 1 -->
<svg width="571pt" height="317pt"
 viewBox="0.00 0.00 571.00 316.50" xmlns="http://www.w3.org/2000/svg" xmlns:xlink="http://www.w3.org/1999/xlink">
<g id="graph0" class="graph" transform="scale(1 1) rotate(0) translate(4 312.5)">
<title>Array::begin</title>
<polygon fill="#ffffff" stroke="transparent" points="-4,4 -4,-312.5 567,-312.5 567,4 -4,4"/>
<!-- Node1 -->
<g id="node1" class="node">
<title>Node1</title>
<g id="a_node1"><a xlink:title=" ">
<polygon fill="#bfbfbf" stroke="#000000" points="488,-133.5 488,-152.5 563,-152.5 563,-133.5 488,-133.5"/>
<text text-anchor="middle" x="525.5" y="-140.5" font-family="Helvetica,sans-Serif" font-size="10.00" fill="#000000">Array::begin</text>
</a>
</g>
</g>
<!-- Node2 -->
<g id="node2" class="node">
<title>Node2</title>
<g id="a_node2"><a xlink:href="structArray.html#a30692f2d1c23322027a90fd0cc2df449" target="_top" xlink:title=" ">
<polygon fill="#ffffff" stroke="#000000" points="339,-278 339,-308 452,-308 452,-278 339,-278"/>
<text text-anchor="start" x="347" y="-296" font-family="Helvetica,sans-Serif" font-size="10.00" fill="#000000">Array&lt; T, Rm, Cn &gt;</text>
<text text-anchor="middle" x="395.5" y="-285" font-family="Helvetica,sans-Serif" font-size="10.00" fill="#000000">::fromCppArray</text>
</a>
</g>
</g>
<!-- Node1&#45;&gt;Node2 -->
<g id="edge1" class="edge">
<title>Node1&#45;&gt;Node2</title>
<path fill="none" stroke="#191970" d="M518.8201,-162.1112C508.4492,-189.2544 486.0545,-238.9989 452,-269 448.1616,-272.3815 443.7762,-275.3388 439.184,-277.9119"/>
<polygon fill="#191970" stroke="#191970" points="522.1526,-163.1894 522.3136,-152.5958 515.5815,-160.7768 522.1526,-163.1894"/>
</g>
<!-- Node3 -->
<g id="node3" class="node">
<title>Node3</title>
<g id="a_node3"><a xlink:href="structArray.html#acca20d951f89e064f92c64d357e7bb6f" target="_top" xlink:title=" ">
<polygon fill="#ffffff" stroke="#000000" points="339,-229 339,-259 452,-259 452,-229 339,-229"/>
<text text-anchor="start" x="347" y="-247" font-family="Helvetica,sans-Serif" font-size="10.00" fill="#000000">Array&lt; T, Rm, Cn &gt;</text>
<text text-anchor="middle" x="395.5" y="-236" font-family="Helvetica,sans-Serif" font-size="10.00" fill="#000000">::fromCArray</text>
</a>
</g>
</g>
<!-- Node1&#45;&gt;Node3 -->
<g id="edge2" class="edge">
<title>Node1&#45;&gt;Node3</title>
<path fill="none" stroke="#191970" d="M511.9901,-160.4638C498.3165,-177.2178 475.8407,-202.3604 452,-219 446.7225,-222.6834 440.8152,-226.0136 434.8632,-228.9536"/>
<polygon fill="#191970" stroke="#191970" points="514.7979,-162.5564 518.2987,-152.5566 509.3261,-158.1907 514.7979,-162.5564"/>
</g>
<!-- Node4 -->
<g id="node4" class="node">
<title>Node4</title>
<g id="a_node4"><a xlink:href="Array_8hpp.html#ab8a62286cf94935432fb15208c352d31" target="_top" xlink:title=" ">
<polygon fill="#ffffff" stroke="#000000" points="370.5,-190.5 370.5,-209.5 420.5,-209.5 420.5,-190.5 370.5,-190.5"/>
<text text-anchor="middle" x="395.5" y="-197.5" font-family="Helvetica,sans-Serif" font-size="10.00" fill="#000000">isfinite</text>
</a>
</g>
</g>
<!-- Node1&#45;&gt;Node4 -->
<g id="edge3" class="edge">
<title>Node1&#45;&gt;Node4</title>
<path fill="none" stroke="#191970" d="M499.9405,-157.4391C486.0149,-164.9916 468.3349,-174.0787 452,-181 441.8995,-185.2797 430.4767,-189.2728 420.5583,-192.4829"/>
<polygon fill="#191970" stroke="#191970" points="501.8433,-160.3871 508.9189,-152.5012 498.4699,-154.2535 501.8433,-160.3871"/>
</g>
<!-- Node5 -->
<g id="node5" class="node">
<title>Node5</title>
<g id="a_node5"><a xlink:href="Array_8hpp.html#a8210ee35a21cf8114e4f40920a6e0abf" target="_top" xlink:title=" ">
<polygon fill="#ffffff" stroke="#000000" points="376.5,-152.5 376.5,-171.5 414.5,-171.5 414.5,-152.5 376.5,-152.5"/>
<text text-anchor="middle" x="395.5" y="-159.5" font-family="Helvetica,sans-Serif" font-size="10.00" fill="#000000">sum</text>
</a>
</g>
</g>
<!-- Node1&#45;&gt;Node5 -->
<g id="edge4" class="edge">
<title>Node1&#45;&gt;Node5</title>
<path fill="none" stroke="#191970" d="M477.7579,-149.9777C455.8772,-153.1756 431.1838,-156.7847 414.6121,-159.2067"/>
<polygon fill="#191970" stroke="#191970" points="478.5099,-153.4051 487.8986,-148.4956 477.4975,-146.4786 478.5099,-153.4051"/>
</g>
<!-- Node10 -->
<g id="node10" class="node">
<title>Node10</title>
<g id="a_node10"><a xlink:href="ArrayHelpers_8hpp.html#a302eae526b10a18783bc2623ee9fe646" target="_top" xlink:title="Generate an array where the first value is given, and the subsequent values are calculated as the pre...">
<polygon fill="#ffffff" stroke="#000000" points="349.5,-114.5 349.5,-133.5 441.5,-133.5 441.5,-114.5 349.5,-114.5"/>
<text text-anchor="middle" x="395.5" y="-121.5" font-family="Helvetica,sans-Serif" font-size="10.00" fill="#000000">generatedArray</text>
</a>
</g>
</g>
<!-- Node1&#45;&gt;Node10 -->
<g id="edge10" class="edge">
<title>Node1&#45;&gt;Node10</title>
<path fill="none" stroke="#191970" d="M477.8173,-136.031C466.0579,-134.3123 453.4829,-132.4744 441.7908,-130.7656"/>
<polygon fill="#191970" stroke="#191970" points="477.4975,-139.5214 487.8986,-137.5044 478.5099,-132.5949 477.4975,-139.5214"/>
</g>
<!-- Node11 -->
<g id="node11" class="node">
<title>Node11</title>
<g id="a_node11"><a xlink:href="ArrayHelpers_8hpp.html#a021512d0f49f5f3ac08ebac9bb547cfc" target="_top" xlink:title=" ">
<polygon fill="#ffffff" stroke="#000000" points="362,-76.5 362,-95.5 429,-95.5 429,-76.5 362,-76.5"/>
<text text-anchor="middle" x="395.5" y="-83.5" font-family="Helvetica,sans-Serif" font-size="10.00" fill="#000000">filledArray</text>
</a>
</g>
</g>
<!-- Node1&#45;&gt;Node11 -->
<g id="edge11" class="edge">
<title>Node1&#45;&gt;Node11</title>
<path fill="none" stroke="#191970" d="M499.9405,-128.5609C486.0149,-121.0084 468.3349,-111.9213 452,-105 443.9006,-101.5682 434.9508,-98.3206 426.6084,-95.5133"/>
<polygon fill="#191970" stroke="#191970" points="498.4699,-131.7465 508.9189,-133.4988 501.8433,-125.6129 498.4699,-131.7465"/>
</g>
<!-- Node12 -->
<g id="node12" class="node">
<title>Node12</title>
<g id="a_node12"><a xlink:href="MatrixHelpers_8hpp.html#a97dc20f082415c3707e56be3bec40f33" target="_top" xlink:title=" ">
<polygon fill="#ffffff" stroke="#000000" points="357,-38.5 357,-57.5 434,-57.5 434,-38.5 357,-38.5"/>
<text text-anchor="middle" x="395.5" y="-45.5" font-family="Helvetica,sans-Serif" font-size="10.00" fill="#000000">filledTMatrix</text>
</a>
</g>
</g>
<!-- Node1&#45;&gt;Node12 -->
<g id="edge12" class="edge">
<title>Node1&#45;&gt;Node12</title>
<path fill="none" stroke="#191970" d="M512.5292,-125.3248C499.1215,-108.2046 476.7141,-82.607 452,-67 446.0499,-63.2425 439.2744,-60.1406 432.5317,-57.6111"/>
<polygon fill="#191970" stroke="#191970" points="509.8414,-127.5723 518.6848,-133.407 515.4102,-123.3309 509.8414,-127.5723"/>
</g>
<!-- Node13 -->
<g id="node13" class="node">
<title>Node13</title>
<g id="a_node13"><a xlink:href="MatrixHelpers_8hpp.html#a0143e59b28ca53207a87f0a2d0873bf4" target="_top" xlink:title=" ">
<polygon fill="#ffffff" stroke="#000000" points="360,-.5 360,-19.5 431,-19.5 431,-.5 360,-.5"/>
<text text-anchor="middle" x="395.5" y="-7.5" font-family="Helvetica,sans-Serif" font-size="10.00" fill="#000000">filledMatrix</text>
</a>
</g>
</g>
<!-- Node1&#45;&gt;Node13 -->
<g id="edge13" class="edge">
<title>Node1&#45;&gt;Node13</title>
<path fill="none" stroke="#191970" d="M517.9952,-123.9222C507.1278,-98.6804 484.6688,-54.4208 452,-29 445.8744,-24.2335 438.4886,-20.629 431.1068,-17.9149"/>
<polygon fill="#191970" stroke="#191970" points="514.7657,-125.2715 521.8234,-133.1734 521.2338,-122.595 514.7657,-125.2715"/>
</g>
<!-- Node6 -->
<g id="node6" class="node">
<title>Node6</title>
<g id="a_node6"><a xlink:href="HouseholderQR_8hpp.html#a16f7547f23439d1eda0fcbde69451ef9" target="_top" xlink:title=" ">
<polygon fill="#ffffff" stroke="#000000" points="212,-190.5 212,-209.5 303,-209.5 303,-190.5 212,-190.5"/>
<text text-anchor="middle" x="257.5" y="-197.5" font-family="Helvetica,sans-Serif" font-size="10.00" fill="#000000">householderQR</text>
</a>
</g>
</g>
<!-- Node5&#45;&gt;Node6 -->
<g id="edge5" class="edge">
<title>Node5&#45;&gt;Node6</title>
<path fill="none" stroke="#191970" d="M366.3868,-170.0167C344.7317,-175.9797 315.0938,-184.1408 292.2063,-190.4432"/>
<polygon fill="#191970" stroke="#191970" points="367.5997,-173.313 376.3117,-167.2837 365.7413,-166.5642 367.5997,-173.313"/>
</g>
<!-- Node7 -->
<g id="node7" class="node">
<title>Node7</title>
<g id="a_node7"><a xlink:href="LeastSquares_8hpp.html#a3e86962f655361a684f770b14c9fe1e2" target="_top" xlink:title=" ">
<polygon fill="#ffffff" stroke="#000000" points="68,-171.5 68,-190.5 176,-190.5 176,-171.5 68,-171.5"/>
<text text-anchor="middle" x="122" y="-178.5" font-family="Helvetica,sans-Serif" font-size="10.00" fill="#000000">solveLeastSquares</text>
</a>
</g>
</g>
<!-- Node5&#45;&gt;Node7 -->
<g id="edge8" class="edge">
<title>Node5&#45;&gt;Node7</title>
<path fill="none" stroke="#191970" d="M366.2368,-164.0329C320.9676,-167.1778 233.2369,-173.2724 176.1733,-177.2366"/>
<polygon fill="#191970" stroke="#191970" points="366.5346,-167.5207 376.268,-163.336 366.0495,-160.5376 366.5346,-167.5207"/>
</g>
<!-- Node9 -->
<g id="node9" class="node">
<title>Node9</title>
<g id="a_node9"><a xlink:href="Matrix_8hpp.html#a341f99d67c7fef72e0432138c6d4fc34" target="_top" xlink:title=" ">
<polygon fill="#ffffff" stroke="#000000" points="226,-114.5 226,-133.5 289,-133.5 289,-114.5 226,-114.5"/>
<text text-anchor="middle" x="257.5" y="-121.5" font-family="Helvetica,sans-Serif" font-size="10.00" fill="#000000">operator*</text>
</a>
</g>
</g>
<!-- Node5&#45;&gt;Node9 -->
<g id="edge9" class="edge">
<title>Node5&#45;&gt;Node9</title>
<path fill="none" stroke="#191970" d="M366.6002,-154.0421C343.983,-147.8142 312.5623,-139.1621 289.2466,-132.7418"/>
<polygon fill="#191970" stroke="#191970" points="365.7413,-157.4358 376.3117,-156.7163 367.5997,-150.687 365.7413,-157.4358"/>
</g>
<!-- Node6&#45;&gt;Node7 -->
<g id="edge6" class="edge">
<title>Node6&#45;&gt;Node7</title>
<path fill="none" stroke="#191970" d="M201.5773,-192.1584C193.209,-190.985 184.5922,-189.7768 176.2592,-188.6083"/>
<polygon fill="#191970" stroke="#191970" points="201.2367,-195.6448 211.6259,-193.5675 202.2088,-188.7127 201.2367,-195.6448"/>
</g>
<!-- Node8 -->
<g id="node8" class="node">
<title>Node8</title>
<g id="a_node8"><a xlink:href="LeastSquares_8hpp.html#abc455a395ab6414f5312b56e5b479195" target="_top" xlink:title=" ">
<polygon fill="#ffffff" stroke="#000000" points="0,-171.5 0,-190.5 32,-190.5 32,-171.5 0,-171.5"/>
<text text-anchor="middle" x="16" y="-178.5" font-family="Helvetica,sans-Serif" font-size="10.00" fill="#000000">inv</text>
</a>
</g>
</g>
<!-- Node7&#45;&gt;Node8 -->
<g id="edge7" class="edge">
<title>Node7&#45;&gt;Node8</title>
<path fill="none" stroke="#191970" d="M57.7466,-181C48.2629,-181 39.2831,-181 32.0991,-181"/>
<polygon fill="#191970" stroke="#191970" points="57.7579,-184.5001 67.7579,-181 57.7579,-177.5001 57.7579,-184.5001"/>
</g>
</g>
</svg>
