<?xml version="1.0" encoding="UTF-8" standalone="no"?>
<!DOCTYPE svg PUBLIC "-//W3C//DTD SVG 1.1//EN"
 "http://www.w3.org/Graphics/SVG/1.1/DTD/svg11.dtd">
<!-- Generated by graphviz version 2.40.1 (20161225.0304)
 -->
<!-- Title: QRCommStruct::setTargetPosition Pages: 1 -->
<svg width="606pt" height="78pt"
 viewBox="0.00 0.00 606.00 77.50" xmlns="http://www.w3.org/2000/svg" xmlns:xlink="http://www.w3.org/1999/xlink">
<g id="graph0" class="graph" transform="scale(1 1) rotate(0) translate(4 73.5)">
<title>QRCommStruct::setTargetPosition</title>
<polygon fill="#ffffff" stroke="transparent" points="-4,4 -4,-73.5 602,-73.5 602,4 -4,4"/>
<!-- Node41 -->
<g id="node1" class="node">
<title>Node41</title>
<g id="a_node1"><a xlink:title=" ">
<polygon fill="#bfbfbf" stroke="#000000" points="0,-22.5 0,-41.5 181,-41.5 181,-22.5 0,-22.5"/>
<text text-anchor="middle" x="90.5" y="-29.5" font-family="Helvetica,sans-Serif" font-size="10.00" fill="#000000">QRCommStruct::setTargetPosition</text>
</a>
</g>
</g>
<!-- Node42 -->
<g id="node2" class="node">
<title>Node42</title>
<g id="a_node2"><a xlink:href="structQRCommStruct.html#ac39d369524dee12d352f73186a24d057" target="_top" xlink:title="Set the new target position, and change the state to NEW_TARGET.">
<polygon fill="#ffffff" stroke="#000000" points="217,-22.5 217,-41.5 398,-41.5 398,-22.5 217,-22.5"/>
<text text-anchor="middle" x="307.5" y="-29.5" font-family="Helvetica,sans-Serif" font-size="10.00" fill="#000000">QRCommStruct::setTargetPosition</text>
</a>
</g>
</g>
<!-- Node41&#45;&gt;Node42 -->
<g id="edge1" class="edge">
<title>Node41&#45;&gt;Node42</title>
<path fill="none" stroke="#191970" d="M181.2702,-32C189.6096,-32 198.0926,-32 206.5149,-32"/>
<polygon fill="#191970" stroke="#191970" points="206.7446,-35.5001 216.7445,-32 206.7445,-28.5001 206.7446,-35.5001"/>
</g>
<!-- Node43 -->
<g id="node3" class="node">
<title>Node43</title>
<g id="a_node3"><a xlink:href="structSharedStruct.html#ab84d9ff23f09b19bb8cf7f72ec9901fe" target="_top" xlink:title=" ">
<polygon fill="#ffffff" stroke="#000000" points="434,-39 434,-69 598,-69 598,-39 434,-39"/>
<text text-anchor="start" x="442" y="-57" font-family="Helvetica,sans-Serif" font-size="10.00" fill="#000000">SharedStruct&lt; QRCommStruct</text>
<text text-anchor="middle" x="516" y="-46" font-family="Helvetica,sans-Serif" font-size="10.00" fill="#000000"> &gt;::checkInitialized</text>
</a>
</g>
</g>
<!-- Node42&#45;&gt;Node43 -->
<g id="edge2" class="edge">
<title>Node42&#45;&gt;Node43</title>
<path fill="none" stroke="#191970" d="M397.7385,-41.5216C406.3608,-42.4314 415.1134,-43.3549 423.7545,-44.2667"/>
<polygon fill="#191970" stroke="#191970" points="423.5205,-47.7613 433.8326,-45.3301 424.2551,-40.8 423.5205,-47.7613"/>
</g>
<!-- Node44 -->
<g id="node4" class="node">
<title>Node44</title>
<g id="a_node4"><a xlink:href="structQRCommStruct.html#ada773a7d6d56a5539e2b99705d0b9dcc" target="_top" xlink:title="Get the current state of the QR/Crypto FSM.">
<polygon fill="#ffffff" stroke="#000000" points="440,-.5 440,-19.5 592,-19.5 592,-.5 440,-.5"/>
<text text-anchor="middle" x="516" y="-7.5" font-family="Helvetica,sans-Serif" font-size="10.00" fill="#000000">QRCommStruct::getQRState</text>
</a>
</g>
</g>
<!-- Node42&#45;&gt;Node44 -->
<g id="edge3" class="edge">
<title>Node42&#45;&gt;Node44</title>
<path fill="none" stroke="#191970" d="M397.7385,-22.4784C408.4141,-21.352 419.2893,-20.2045 429.9054,-19.0843"/>
<polygon fill="#191970" stroke="#191970" points="430.4118,-22.5504 439.9893,-18.0203 429.6772,-15.5891 430.4118,-22.5504"/>
</g>
</g>
</svg>
