<?xml version="1.0" encoding="UTF-8" standalone="no"?>
<!DOCTYPE svg PUBLIC "-//W3C//DTD SVG 1.1//EN"
 "http://www.w3.org/Graphics/SVG/1.1/DTD/svg11.dtd">
<!-- Generated by graphviz version 2.40.1 (20161225.0304)
 -->
<!-- Title: Point::distanceSquared Pages: 1 -->
<svg width="800pt" height="66pt"
 viewBox="0.00 0.00 800.00 66.00" xmlns="http://www.w3.org/2000/svg" xmlns:xlink="http://www.w3.org/1999/xlink">
<g id="graph0" class="graph" transform="scale(1 1) rotate(0) translate(4 62)">
<title>Point::distanceSquared</title>
<polygon fill="#ffffff" stroke="transparent" points="-4,4 -4,-62 796,-62 796,4 -4,4"/>
<!-- Node26 -->
<g id="node1" class="node">
<title>Node26</title>
<g id="a_node1"><a xlink:title=" ">
<polygon fill="#bfbfbf" stroke="#000000" points="664,-19.5 664,-38.5 792,-38.5 792,-19.5 664,-19.5"/>
<text text-anchor="middle" x="728" y="-26.5" font-family="Helvetica,sans-Serif" font-size="10.00" fill="#000000">Point::distanceSquared</text>
</a>
</g>
</g>
<!-- Node27 -->
<g id="node2" class="node">
<title>Node27</title>
<g id="a_node2"><a xlink:href="classGridFinder.html#a701c0c1e70d01bb8773a89a29f6673a0" target="_top" xlink:title="This is the main function: it looks for a complete square of the grid, as close to the center of the ...">
<polygon fill="#ffffff" stroke="#000000" points="366,-38.5 366,-57.5 490,-57.5 490,-38.5 366,-38.5"/>
<text text-anchor="middle" x="428" y="-45.5" font-family="Helvetica,sans-Serif" font-size="10.00" fill="#000000">GridFinder::findSquare</text>
</a>
</g>
</g>
<!-- Node26&#45;&gt;Node27 -->
<g id="edge1" class="edge">
<title>Node26&#45;&gt;Node27</title>
<path fill="none" stroke="#191970" d="M653.4824,-33.7195C603.2173,-36.9029 537.6578,-41.055 490.1972,-44.0608"/>
<polygon fill="#191970" stroke="#191970" points="653.8837,-37.2011 663.6425,-33.076 653.4412,-30.2151 653.8837,-37.2011"/>
</g>
<!-- Node30 -->
<g id="node5" class="node">
<title>Node30</title>
<g id="a_node5"><a xlink:href="structPoint.html#ab0fa03b5388829db9118785408deba75" target="_top" xlink:title=" ">
<polygon fill="#ffffff" stroke="#000000" points="539,-.5 539,-19.5 628,-19.5 628,-.5 539,-.5"/>
<text text-anchor="middle" x="583.5" y="-7.5" font-family="Helvetica,sans-Serif" font-size="10.00" fill="#000000">Point::distance</text>
</a>
</g>
</g>
<!-- Node26&#45;&gt;Node30 -->
<g id="edge5" class="edge">
<title>Node26&#45;&gt;Node30</title>
<path fill="none" stroke="#191970" d="M653.8458,-19.2496C645.0375,-18.0914 636.2671,-16.9382 628.0585,-15.8589"/>
<polygon fill="#191970" stroke="#191970" points="653.4077,-22.7221 663.7787,-20.5557 654.3203,-15.7818 653.4077,-22.7221"/>
</g>
<!-- Node28 -->
<g id="node3" class="node">
<title>Node28</title>
<g id="a_node3"><a xlink:href="classLocationFinder.html#af56756d038d762e04e0c91bac9fc2522" target="_top" xlink:title="Read a new frame, mask it, run GridFinder, and get the position of the drone. The position is the pos...">
<polygon fill="#ffffff" stroke="#000000" points="149,-.5 149,-19.5 317,-19.5 317,-.5 149,-.5"/>
<text text-anchor="middle" x="233" y="-7.5" font-family="Helvetica,sans-Serif" font-size="10.00" fill="#000000">LocationFinder::updateLocation</text>
</a>
</g>
</g>
<!-- Node27&#45;&gt;Node28 -->
<g id="edge2" class="edge">
<title>Node27&#45;&gt;Node28</title>
<path fill="none" stroke="#191970" d="M369.0412,-36.5106C341.218,-31.0886 308.4043,-24.6942 281.9752,-19.5439"/>
<polygon fill="#191970" stroke="#191970" points="368.5601,-39.9826 379.045,-38.46 369.8991,-33.1118 368.5601,-39.9826"/>
</g>
<!-- Node29 -->
<g id="node4" class="node">
<title>Node29</title>
<g id="a_node4"><a xlink:href="Grid-Finder_8module_8hpp.html#a05e720af51446c0f9319fb9455fe1767" target="_top" xlink:title=" ">
<polygon fill="#ffffff" stroke="#000000" points="0,-19.5 0,-38.5 113,-38.5 113,-19.5 0,-19.5"/>
<text text-anchor="middle" x="56.5" y="-26.5" font-family="Helvetica,sans-Serif" font-size="10.00" fill="#000000">PYBIND11_MODULE</text>
</a>
</g>
</g>
<!-- Node27&#45;&gt;Node29 -->
<g id="edge4" class="edge">
<title>Node27&#45;&gt;Node29</title>
<path fill="none" stroke="#191970" d="M355.6221,-44.2983C284.6888,-40.6705 178.0357,-35.2158 113.0925,-31.8944"/>
<polygon fill="#191970" stroke="#191970" points="355.6535,-47.8044 365.8193,-44.8198 356.0111,-40.8135 355.6535,-47.8044"/>
</g>
<!-- Node28&#45;&gt;Node29 -->
<g id="edge3" class="edge">
<title>Node28&#45;&gt;Node29</title>
<path fill="none" stroke="#191970" d="M138.9025,-20.1295C130.0733,-21.0799 121.3225,-22.0219 113.0056,-22.9172"/>
<polygon fill="#191970" stroke="#191970" points="139.3175,-23.6051 148.8854,-19.0548 138.5682,-16.6453 139.3175,-23.6051"/>
</g>
<!-- Node31 -->
<g id="node6" class="node">
<title>Node31</title>
<g id="a_node6"><a xlink:href="classLocationFinder.html#a93be2c4b05b52c58f5fca5d1514dfbe9" target="_top" xlink:title="Get the position of the center of the frame relative to the given square.">
<polygon fill="#ffffff" stroke="#000000" points="353,-.5 353,-19.5 503,-19.5 503,-.5 353,-.5"/>
<text text-anchor="middle" x="428" y="-7.5" font-family="Helvetica,sans-Serif" font-size="10.00" fill="#000000">LocationFinder::getLocation</text>
</a>
</g>
</g>
<!-- Node30&#45;&gt;Node31 -->
<g id="edge6" class="edge">
<title>Node30&#45;&gt;Node31</title>
<path fill="none" stroke="#191970" d="M528.6806,-10C520.3948,-10 511.7273,-10 503.1034,-10"/>
<polygon fill="#191970" stroke="#191970" points="528.94,-13.5001 538.9399,-10 528.9399,-6.5001 528.94,-13.5001"/>
</g>
<!-- Node31&#45;&gt;Node28 -->
<g id="edge7" class="edge">
<title>Node31&#45;&gt;Node28</title>
<path fill="none" stroke="#191970" d="M342.6491,-10C334.1912,-10 325.6095,-10 317.1639,-10"/>
<polygon fill="#191970" stroke="#191970" points="342.8869,-13.5001 352.8868,-10 342.8868,-6.5001 342.8869,-13.5001"/>
</g>
</g>
</svg>
