<?xml version="1.0" encoding="UTF-8" standalone="no"?>
<!DOCTYPE svg PUBLIC "-//W3C//DTD SVG 1.1//EN"
 "http://www.w3.org/Graphics/SVG/1.1/DTD/svg11.dtd">
<!-- Generated by graphviz version 2.40.1 (20161225.0304)
 -->
<!-- Title: MatrixAssignmentHelper&lt; T, R, C, RR_sz, CC_sz, RR_offset, CC_offset &gt; Pages: 1 -->
<svg width="145pt" height="441pt"
 viewBox="0.00 0.00 145.00 441.00" xmlns="http://www.w3.org/2000/svg" xmlns:xlink="http://www.w3.org/1999/xlink">
<g id="graph0" class="graph" transform="scale(1 1) rotate(0) translate(4 437)">
<title>MatrixAssignmentHelper&lt; T, R, C, RR_sz, CC_sz, RR_offset, CC_offset &gt;</title>
<polygon fill="#ffffff" stroke="transparent" points="-4,4 -4,-437 141,-437 141,4 -4,4"/>
<!-- Node1 -->
<g id="node1" class="node">
<title>Node1</title>
<g id="a_node1"><a xlink:title=" ">
<polygon fill="#bfbfbf" stroke="#000000" points="0,-.5 0,-79.5 137,-79.5 137,-.5 0,-.5"/>
<text text-anchor="start" x="8" y="-67.5" font-family="Helvetica,sans-Serif" font-size="10.00" fill="#000000">MatrixAssignmentHelper</text>
<text text-anchor="start" x="8" y="-56.5" font-family="Helvetica,sans-Serif" font-size="10.00" fill="#000000">&lt; T, R, C, RR_sz, CC_sz,</text>
<text text-anchor="middle" x="68.5" y="-45.5" font-family="Helvetica,sans-Serif" font-size="10.00" fill="#000000"> RR_offset, CC_offset &gt;</text>
<polyline fill="none" stroke="#000000" points="0,-38.5 137,-38.5 "/>
<text text-anchor="middle" x="68.5" y="-26.5" font-family="Helvetica,sans-Serif" font-size="10.00" fill="#000000"> </text>
<polyline fill="none" stroke="#000000" points="0,-19.5 137,-19.5 "/>
<text text-anchor="start" x="8" y="-7.5" font-family="Helvetica,sans-Serif" font-size="10.00" fill="#000000">+ operator=()</text>
</a>
</g>
</g>
<!-- Node2 -->
<g id="node2" class="node">
<title>Node2</title>
<g id="a_node2"><a xlink:href="structArray.html" target="_top" xlink:title=" ">
<polygon fill="#ffffff" stroke="#000000" points="16.5,-127.5 16.5,-327.5 120.5,-327.5 120.5,-127.5 16.5,-127.5"/>
<text text-anchor="middle" x="68.5" y="-315.5" font-family="Helvetica,sans-Serif" font-size="10.00" fill="#000000">Array&lt; T, R, C &gt;</text>
<polyline fill="none" stroke="#000000" points="16.5,-308.5 120.5,-308.5 "/>
<text text-anchor="middle" x="68.5" y="-296.5" font-family="Helvetica,sans-Serif" font-size="10.00" fill="#000000"> </text>
<polyline fill="none" stroke="#000000" points="16.5,-289.5 120.5,-289.5 "/>
<text text-anchor="start" x="24.5" y="-277.5" font-family="Helvetica,sans-Serif" font-size="10.00" fill="#000000">+ operator[]()</text>
<text text-anchor="start" x="24.5" y="-266.5" font-family="Helvetica,sans-Serif" font-size="10.00" fill="#000000">+ operator[]()</text>
<text text-anchor="start" x="24.5" y="-255.5" font-family="Helvetica,sans-Serif" font-size="10.00" fill="#000000">+ begin()</text>
<text text-anchor="start" x="24.5" y="-244.5" font-family="Helvetica,sans-Serif" font-size="10.00" fill="#000000">+ begin()</text>
<text text-anchor="start" x="24.5" y="-233.5" font-family="Helvetica,sans-Serif" font-size="10.00" fill="#000000">+ end()</text>
<text text-anchor="start" x="24.5" y="-222.5" font-family="Helvetica,sans-Serif" font-size="10.00" fill="#000000">+ end()</text>
<text text-anchor="start" x="24.5" y="-211.5" font-family="Helvetica,sans-Serif" font-size="10.00" fill="#000000">+ operator==()</text>
<text text-anchor="start" x="24.5" y="-200.5" font-family="Helvetica,sans-Serif" font-size="10.00" fill="#000000">+ operator*()</text>
<text text-anchor="start" x="24.5" y="-189.5" font-family="Helvetica,sans-Serif" font-size="10.00" fill="#000000">+ operator*=()</text>
<text text-anchor="start" x="24.5" y="-178.5" font-family="Helvetica,sans-Serif" font-size="10.00" fill="#000000">+ operator/()</text>
<text text-anchor="start" x="24.5" y="-167.5" font-family="Helvetica,sans-Serif" font-size="10.00" fill="#000000">and 16 more...</text>
<text text-anchor="start" x="24.5" y="-156.5" font-family="Helvetica,sans-Serif" font-size="10.00" fill="#000000">+ fromCppArray()</text>
<text text-anchor="start" x="24.5" y="-145.5" font-family="Helvetica,sans-Serif" font-size="10.00" fill="#000000">+ fromCArray()</text>
<text text-anchor="start" x="24.5" y="-134.5" font-family="Helvetica,sans-Serif" font-size="10.00" fill="#000000">+ length()</text>
</a>
</g>
</g>
<!-- Node2&#45;&gt;Node1 -->
<g id="edge1" class="edge">
<title>Node2&#45;&gt;Node1</title>
<path fill="none" stroke="#404040" d="M68.5,-127.4371C68.5,-115.137 68.5,-102.9825 68.5,-91.8257"/>
<polygon fill="none" stroke="#404040" points="68.5001,-91.6986 64.5,-85.6986 68.5,-79.6986 72.5,-85.6985 68.5001,-91.6986"/>
<text text-anchor="middle" x="79.5" y="-101" font-family="Helvetica,sans-Serif" font-size="10.00" fill="#000000"> +m</text>
</g>
<!-- Node3 -->
<g id="node3" class="node">
<title>Node3</title>
<g id="a_node3"><a xlink:title=" ">
<polygon fill="#ffffff" stroke="#bfbfbf" points="54,-375.5 54,-432.5 83,-432.5 83,-375.5 54,-375.5"/>
<text text-anchor="middle" x="68.5" y="-420.5" font-family="Helvetica,sans-Serif" font-size="10.00" fill="#000000">T</text>
<polyline fill="none" stroke="#bfbfbf" points="54,-413.5 83,-413.5 "/>
<text text-anchor="middle" x="68.5" y="-401.5" font-family="Helvetica,sans-Serif" font-size="10.00" fill="#000000"> </text>
<polyline fill="none" stroke="#bfbfbf" points="54,-394.5 83,-394.5 "/>
<text text-anchor="middle" x="68.5" y="-382.5" font-family="Helvetica,sans-Serif" font-size="10.00" fill="#000000"> </text>
</a>
</g>
</g>
<!-- Node3&#45;&gt;Node2 -->
<g id="edge2" class="edge">
<title>Node3&#45;&gt;Node2</title>
<path fill="none" stroke="#404040" d="M68.5,-375.2494C68.5,-365.0034 68.5,-352.7546 68.5,-339.7535"/>
<polygon fill="none" stroke="#404040" points="68.5001,-339.6381 64.5,-333.6381 68.5,-327.6381 72.5,-333.6381 68.5001,-339.6381"/>
<text text-anchor="middle" x="85.5" y="-349" font-family="Helvetica,sans-Serif" font-size="10.00" fill="#000000"> +data</text>
</g>
</g>
</svg>
