<?xml version="1.0" encoding="UTF-8" standalone="no"?>
<!DOCTYPE svg PUBLIC "-//W3C//DTD SVG 1.1//EN"
 "http://www.w3.org/Graphics/SVG/1.1/DTD/svg11.dtd">
<!-- Generated by graphviz version 2.40.1 (20161225.0304)
 -->
<!-- Title: LineResult Pages: 1 -->
<svg width="253pt" height="529pt"
 viewBox="0.00 0.00 253.00 529.00" xmlns="http://www.w3.org/2000/svg" xmlns:xlink="http://www.w3.org/1999/xlink">
<g id="graph0" class="graph" transform="scale(1 1) rotate(0) translate(4 525)">
<title>LineResult</title>
<polygon fill="#ffffff" stroke="transparent" points="-4,4 -4,-525 249,-525 249,4 -4,4"/>
<!-- Node1 -->
<g id="node1" class="node">
<title>Node1</title>
<g id="a_node1"><a xlink:title=" ">
<polygon fill="#bfbfbf" stroke="#000000" points="64,-.5 64,-57.5 131,-57.5 131,-.5 64,-.5"/>
<text text-anchor="middle" x="97.5" y="-45.5" font-family="Helvetica,sans-Serif" font-size="10.00" fill="#000000">LineResult</text>
<polyline fill="none" stroke="#000000" points="64,-38.5 131,-38.5 "/>
<text text-anchor="start" x="72" y="-26.5" font-family="Helvetica,sans-Serif" font-size="10.00" fill="#000000">+ width</text>
<polyline fill="none" stroke="#000000" points="64,-19.5 131,-19.5 "/>
<text text-anchor="middle" x="97.5" y="-7.5" font-family="Helvetica,sans-Serif" font-size="10.00" fill="#000000"> </text>
</a>
</g>
</g>
<!-- Node2 -->
<g id="node2" class="node">
<title>Node2</title>
<g id="a_node2"><a xlink:href="structPixel.html" target="_top" xlink:title=" ">
<polygon fill="#ffffff" stroke="#000000" points="0,-188 0,-322 93,-322 93,-188 0,-188"/>
<text text-anchor="middle" x="46.5" y="-310" font-family="Helvetica,sans-Serif" font-size="10.00" fill="#000000">Pixel</text>
<polyline fill="none" stroke="#000000" points="0,-303 93,-303 "/>
<text text-anchor="start" x="8" y="-291" font-family="Helvetica,sans-Serif" font-size="10.00" fill="#000000">+ x</text>
<text text-anchor="start" x="8" y="-280" font-family="Helvetica,sans-Serif" font-size="10.00" fill="#000000">+ y</text>
<polyline fill="none" stroke="#000000" points="0,-273 93,-273 "/>
<text text-anchor="start" x="8" y="-261" font-family="Helvetica,sans-Serif" font-size="10.00" fill="#000000">+ Pixel()</text>
<text text-anchor="start" x="8" y="-250" font-family="Helvetica,sans-Serif" font-size="10.00" fill="#000000">+ Pixel()</text>
<text text-anchor="start" x="8" y="-239" font-family="Helvetica,sans-Serif" font-size="10.00" fill="#000000">+ isValid()</text>
<text text-anchor="start" x="8" y="-228" font-family="Helvetica,sans-Serif" font-size="10.00" fill="#000000">+ operator==()</text>
<text text-anchor="start" x="8" y="-217" font-family="Helvetica,sans-Serif" font-size="10.00" fill="#000000">+ operator!=()</text>
<text text-anchor="start" x="8" y="-206" font-family="Helvetica,sans-Serif" font-size="10.00" fill="#000000">+ inRange()</text>
<text text-anchor="start" x="8" y="-195" font-family="Helvetica,sans-Serif" font-size="10.00" fill="#000000">+ average()</text>
</a>
</g>
</g>
<!-- Node2&#45;&gt;Node1 -->
<g id="edge1" class="edge">
<title>Node2&#45;&gt;Node1</title>
<path fill="none" stroke="#404040" d="M45.9092,-187.7809C47.5143,-153.429 52.4715,-111.4983 65.5,-76 66.4757,-73.3415 67.6346,-70.6887 68.9233,-68.0735"/>
<polygon fill="none" stroke="#404040" points="68.9242,-68.0719 68.3853,-60.881 74.8159,-57.6178 75.3547,-64.8088 68.9242,-68.0719"/>
<text text-anchor="middle" x="96.5" y="-79" font-family="Helvetica,sans-Serif" font-size="10.00" fill="#000000"> +lineCenter</text>
</g>
<!-- Node3 -->
<g id="node3" class="node">
<title>Node3</title>
<g id="a_node3"><a xlink:href="classAngle.html" target="_top" xlink:title=" ">
<polygon fill="#ffffff" stroke="#000000" points="111,-105.5 111,-404.5 224,-404.5 224,-105.5 111,-105.5"/>
<text text-anchor="middle" x="167.5" y="-392.5" font-family="Helvetica,sans-Serif" font-size="10.00" fill="#000000">Angle&lt; 360 &gt;</text>
<polyline fill="none" stroke="#000000" points="111,-385.5 224,-385.5 "/>
<text text-anchor="middle" x="167.5" y="-373.5" font-family="Helvetica,sans-Serif" font-size="10.00" fill="#000000"> </text>
<polyline fill="none" stroke="#000000" points="111,-366.5 224,-366.5 "/>
<text text-anchor="start" x="119" y="-354.5" font-family="Helvetica,sans-Serif" font-size="10.00" fill="#000000">+ Angle()</text>
<text text-anchor="start" x="119" y="-343.5" font-family="Helvetica,sans-Serif" font-size="10.00" fill="#000000">+ Angle()</text>
<text text-anchor="start" x="119" y="-332.5" font-family="Helvetica,sans-Serif" font-size="10.00" fill="#000000">+ Angle()</text>
<text text-anchor="start" x="119" y="-321.5" font-family="Helvetica,sans-Serif" font-size="10.00" fill="#000000">+ Angle()</text>
<text text-anchor="start" x="119" y="-310.5" font-family="Helvetica,sans-Serif" font-size="10.00" fill="#000000">+ Angle()</text>
<text text-anchor="start" x="119" y="-299.5" font-family="Helvetica,sans-Serif" font-size="10.00" fill="#000000">+ operator CosSin()</text>
<text text-anchor="start" x="119" y="-288.5" font-family="Helvetica,sans-Serif" font-size="10.00" fill="#000000">+ operator double()</text>
<text text-anchor="start" x="119" y="-277.5" font-family="Helvetica,sans-Serif" font-size="10.00" fill="#000000">+ rad()</text>
<text text-anchor="start" x="119" y="-266.5" font-family="Helvetica,sans-Serif" font-size="10.00" fill="#000000">+ deg()</text>
<text text-anchor="start" x="119" y="-255.5" font-family="Helvetica,sans-Serif" font-size="10.00" fill="#000000">+ getIndex()</text>
<text text-anchor="start" x="119" y="-244.5" font-family="Helvetica,sans-Serif" font-size="10.00" fill="#000000">and 14 more...</text>
<text text-anchor="start" x="119" y="-233.5" font-family="Helvetica,sans-Serif" font-size="10.00" fill="#000000">+ resolution()</text>
<text text-anchor="start" x="119" y="-222.5" font-family="Helvetica,sans-Serif" font-size="10.00" fill="#000000">+ getIndex()</text>
<text text-anchor="start" x="119" y="-211.5" font-family="Helvetica,sans-Serif" font-size="10.00" fill="#000000">+ cos()</text>
<text text-anchor="start" x="119" y="-200.5" font-family="Helvetica,sans-Serif" font-size="10.00" fill="#000000">+ sin()</text>
<text text-anchor="start" x="119" y="-189.5" font-family="Helvetica,sans-Serif" font-size="10.00" fill="#000000">+ normalize()</text>
<text text-anchor="start" x="119" y="-178.5" font-family="Helvetica,sans-Serif" font-size="10.00" fill="#000000">+ distance()</text>
<text text-anchor="start" x="119" y="-167.5" font-family="Helvetica,sans-Serif" font-size="10.00" fill="#000000">+ average()</text>
<text text-anchor="start" x="119" y="-156.5" font-family="Helvetica,sans-Serif" font-size="10.00" fill="#000000">+ indexof()</text>
<text text-anchor="start" x="119" y="-145.5" font-family="Helvetica,sans-Serif" font-size="10.00" fill="#000000">+ getAngle()</text>
<text text-anchor="start" x="119" y="-134.5" font-family="Helvetica,sans-Serif" font-size="10.00" fill="#000000">+ step()</text>
<text text-anchor="start" x="119" y="-123.5" font-family="Helvetica,sans-Serif" font-size="10.00" fill="#000000">+ calculateCosLut()</text>
<text text-anchor="start" x="119" y="-112.5" font-family="Helvetica,sans-Serif" font-size="10.00" fill="#000000">+ calculateSinLut()</text>
</a>
</g>
</g>
<!-- Node3&#45;&gt;Node1 -->
<g id="edge2" class="edge">
<title>Node3&#45;&gt;Node1</title>
<path fill="none" stroke="#404040" d="M138.2029,-105.3029C134.9701,-95.2628 131.4115,-85.4091 127.5,-76 126.4584,-73.4944 125.2852,-70.974 124.0217,-68.472"/>
<polygon fill="none" stroke="#404040" points="123.8738,-68.2066 117.459,-64.9127 118.0323,-57.7244 124.4471,-61.0183 123.8738,-68.2066"/>
<text text-anchor="middle" x="150" y="-79" font-family="Helvetica,sans-Serif" font-size="10.00" fill="#000000"> +angle</text>
</g>
<!-- Node4 -->
<g id="node4" class="node">
<title>Node4</title>
<g id="a_node4"><a xlink:title=" ">
<polygon fill="#ffffff" stroke="#bfbfbf" points="90,-463.5 90,-520.5 245,-520.5 245,-463.5 90,-463.5"/>
<text text-anchor="middle" x="167.5" y="-508.5" font-family="Helvetica,sans-Serif" font-size="10.00" fill="#000000">std::array&lt; int, Resolution &gt;</text>
<polyline fill="none" stroke="#bfbfbf" points="90,-501.5 245,-501.5 "/>
<text text-anchor="start" x="98" y="-489.5" font-family="Helvetica,sans-Serif" font-size="10.00" fill="#000000">+ elements</text>
<polyline fill="none" stroke="#bfbfbf" points="90,-482.5 245,-482.5 "/>
<text text-anchor="middle" x="167.5" y="-470.5" font-family="Helvetica,sans-Serif" font-size="10.00" fill="#000000"> </text>
</a>
</g>
</g>
<!-- Node4&#45;&gt;Node3 -->
<g id="edge3" class="edge">
<title>Node4&#45;&gt;Node3</title>
<path fill="none" stroke="#404040" d="M167.5,-463.4123C167.5,-450.597 167.5,-434.3783 167.5,-416.6698"/>
<polygon fill="none" stroke="#404040" points="167.5001,-416.5186 163.5,-410.5186 167.5,-404.5186 171.5,-410.5185 167.5001,-416.5186"/>
<text text-anchor="middle" x="190.5" y="-437" font-family="Helvetica,sans-Serif" font-size="10.00" fill="#000000"> +sines</text>
<text text-anchor="middle" x="190.5" y="-426" font-family="Helvetica,sans-Serif" font-size="10.00" fill="#000000">+cosines</text>
</g>
</g>
</svg>
