<?xml version="1.0" encoding="UTF-8" standalone="no"?>
<!DOCTYPE svg PUBLIC "-//W3C//DTD SVG 1.1//EN"
 "http://www.w3.org/Graphics/SVG/1.1/DTD/svg11.dtd">
<!-- Generated by graphviz version 2.40.1 (20161225.0304)
 -->
<!-- Title: Array::begin Pages: 1 -->
<svg width="598pt" height="317pt"
 viewBox="0.00 0.00 598.00 316.50" xmlns="http://www.w3.org/2000/svg" xmlns:xlink="http://www.w3.org/1999/xlink">
<g id="graph0" class="graph" transform="scale(1 1) rotate(0) translate(4 312.5)">
<title>Array::begin</title>
<polygon fill="#ffffff" stroke="transparent" points="-4,4 -4,-312.5 594,-312.5 594,4 -4,4"/>
<!-- Node1 -->
<g id="node1" class="node">
<title>Node1</title>
<g id="a_node1"><a xlink:title=" ">
<polygon fill="#bfbfbf" stroke="#000000" points="515,-133.5 515,-152.5 590,-152.5 590,-133.5 515,-133.5"/>
<text text-anchor="middle" x="552.5" y="-140.5" font-family="Helvetica,sans-Serif" font-size="10.00" fill="#000000">Array::begin</text>
</a>
</g>
</g>
<!-- Node2 -->
<g id="node2" class="node">
<title>Node2</title>
<g id="a_node2"><a xlink:href="structArray.html#a30692f2d1c23322027a90fd0cc2df449" target="_top" xlink:title=" ">
<polygon fill="#ffffff" stroke="#000000" points="366,-278 366,-308 479,-308 479,-278 366,-278"/>
<text text-anchor="start" x="374" y="-296" font-family="Helvetica,sans-Serif" font-size="10.00" fill="#000000">Array&lt; T, Rm, Cn &gt;</text>
<text text-anchor="middle" x="422.5" y="-285" font-family="Helvetica,sans-Serif" font-size="10.00" fill="#000000">::fromCppArray</text>
</a>
</g>
</g>
<!-- Node1&#45;&gt;Node2 -->
<g id="edge1" class="edge">
<title>Node1&#45;&gt;Node2</title>
<path fill="none" stroke="#191970" d="M545.8201,-162.1112C535.4492,-189.2544 513.0545,-238.9989 479,-269 475.1616,-272.3815 470.7762,-275.3388 466.184,-277.9119"/>
<polygon fill="#191970" stroke="#191970" points="549.1526,-163.1894 549.3136,-152.5958 542.5815,-160.7768 549.1526,-163.1894"/>
</g>
<!-- Node3 -->
<g id="node3" class="node">
<title>Node3</title>
<g id="a_node3"><a xlink:href="structArray.html#acca20d951f89e064f92c64d357e7bb6f" target="_top" xlink:title=" ">
<polygon fill="#ffffff" stroke="#000000" points="366,-229 366,-259 479,-259 479,-229 366,-229"/>
<text text-anchor="start" x="374" y="-247" font-family="Helvetica,sans-Serif" font-size="10.00" fill="#000000">Array&lt; T, Rm, Cn &gt;</text>
<text text-anchor="middle" x="422.5" y="-236" font-family="Helvetica,sans-Serif" font-size="10.00" fill="#000000">::fromCArray</text>
</a>
</g>
</g>
<!-- Node1&#45;&gt;Node3 -->
<g id="edge2" class="edge">
<title>Node1&#45;&gt;Node3</title>
<path fill="none" stroke="#191970" d="M538.9901,-160.4638C525.3165,-177.2178 502.8407,-202.3604 479,-219 473.7225,-222.6834 467.8152,-226.0136 461.8632,-228.9536"/>
<polygon fill="#191970" stroke="#191970" points="541.7979,-162.5564 545.2987,-152.5566 536.3261,-158.1907 541.7979,-162.5564"/>
</g>
<!-- Node4 -->
<g id="node4" class="node">
<title>Node4</title>
<g id="a_node4"><a xlink:href="Array_8hpp.html#ab8a62286cf94935432fb15208c352d31" target="_top" xlink:title=" ">
<polygon fill="#ffffff" stroke="#000000" points="397.5,-190.5 397.5,-209.5 447.5,-209.5 447.5,-190.5 397.5,-190.5"/>
<text text-anchor="middle" x="422.5" y="-197.5" font-family="Helvetica,sans-Serif" font-size="10.00" fill="#000000">isfinite</text>
</a>
</g>
</g>
<!-- Node1&#45;&gt;Node4 -->
<g id="edge3" class="edge">
<title>Node1&#45;&gt;Node4</title>
<path fill="none" stroke="#191970" d="M526.9405,-157.4391C513.0149,-164.9916 495.3349,-174.0787 479,-181 468.8995,-185.2797 457.4767,-189.2728 447.5583,-192.4829"/>
<polygon fill="#191970" stroke="#191970" points="528.8433,-160.3871 535.9189,-152.5012 525.4699,-154.2535 528.8433,-160.3871"/>
</g>
<!-- Node6 -->
<g id="node6" class="node">
<title>Node6</title>
<g id="a_node6"><a xlink:href="Array_8hpp.html#a8210ee35a21cf8114e4f40920a6e0abf" target="_top" xlink:title=" ">
<polygon fill="#ffffff" stroke="#000000" points="403.5,-152.5 403.5,-171.5 441.5,-171.5 441.5,-152.5 403.5,-152.5"/>
<text text-anchor="middle" x="422.5" y="-159.5" font-family="Helvetica,sans-Serif" font-size="10.00" fill="#000000">sum</text>
</a>
</g>
</g>
<!-- Node1&#45;&gt;Node6 -->
<g id="edge5" class="edge">
<title>Node1&#45;&gt;Node6</title>
<path fill="none" stroke="#191970" d="M504.7579,-149.9777C482.8772,-153.1756 458.1838,-156.7847 441.6121,-159.2067"/>
<polygon fill="#191970" stroke="#191970" points="505.5099,-153.4051 514.8986,-148.4956 504.4975,-146.4786 505.5099,-153.4051"/>
</g>
<!-- Node13 -->
<g id="node13" class="node">
<title>Node13</title>
<g id="a_node13"><a xlink:href="ArrayHelpers_8hpp.html#a302eae526b10a18783bc2623ee9fe646" target="_top" xlink:title="Generate an array where the first value is given, and the subsequent values are calculated as the pre...">
<polygon fill="#ffffff" stroke="#000000" points="376.5,-114.5 376.5,-133.5 468.5,-133.5 468.5,-114.5 376.5,-114.5"/>
<text text-anchor="middle" x="422.5" y="-121.5" font-family="Helvetica,sans-Serif" font-size="10.00" fill="#000000">generatedArray</text>
</a>
</g>
</g>
<!-- Node1&#45;&gt;Node13 -->
<g id="edge13" class="edge">
<title>Node1&#45;&gt;Node13</title>
<path fill="none" stroke="#191970" d="M504.8173,-136.031C493.0579,-134.3123 480.4829,-132.4744 468.7908,-130.7656"/>
<polygon fill="#191970" stroke="#191970" points="504.4975,-139.5214 514.8986,-137.5044 505.5099,-132.5949 504.4975,-139.5214"/>
</g>
<!-- Node14 -->
<g id="node14" class="node">
<title>Node14</title>
<g id="a_node14"><a xlink:href="ArrayHelpers_8hpp.html#a021512d0f49f5f3ac08ebac9bb547cfc" target="_top" xlink:title=" ">
<polygon fill="#ffffff" stroke="#000000" points="389,-76.5 389,-95.5 456,-95.5 456,-76.5 389,-76.5"/>
<text text-anchor="middle" x="422.5" y="-83.5" font-family="Helvetica,sans-Serif" font-size="10.00" fill="#000000">filledArray</text>
</a>
</g>
</g>
<!-- Node1&#45;&gt;Node14 -->
<g id="edge14" class="edge">
<title>Node1&#45;&gt;Node14</title>
<path fill="none" stroke="#191970" d="M526.9405,-128.5609C513.0149,-121.0084 495.3349,-111.9213 479,-105 470.9006,-101.5682 461.9508,-98.3206 453.6084,-95.5133"/>
<polygon fill="#191970" stroke="#191970" points="525.4699,-131.7465 535.9189,-133.4988 528.8433,-125.6129 525.4699,-131.7465"/>
</g>
<!-- Node15 -->
<g id="node15" class="node">
<title>Node15</title>
<g id="a_node15"><a xlink:href="MatrixHelpers_8hpp.html#a97dc20f082415c3707e56be3bec40f33" target="_top" xlink:title=" ">
<polygon fill="#ffffff" stroke="#000000" points="384,-38.5 384,-57.5 461,-57.5 461,-38.5 384,-38.5"/>
<text text-anchor="middle" x="422.5" y="-45.5" font-family="Helvetica,sans-Serif" font-size="10.00" fill="#000000">filledTMatrix</text>
</a>
</g>
</g>
<!-- Node1&#45;&gt;Node15 -->
<g id="edge15" class="edge">
<title>Node1&#45;&gt;Node15</title>
<path fill="none" stroke="#191970" d="M539.5292,-125.3248C526.1215,-108.2046 503.7141,-82.607 479,-67 473.0499,-63.2425 466.2744,-60.1406 459.5317,-57.6111"/>
<polygon fill="#191970" stroke="#191970" points="536.8414,-127.5723 545.6848,-133.407 542.4102,-123.3309 536.8414,-127.5723"/>
</g>
<!-- Node16 -->
<g id="node16" class="node">
<title>Node16</title>
<g id="a_node16"><a xlink:href="MatrixHelpers_8hpp.html#a0143e59b28ca53207a87f0a2d0873bf4" target="_top" xlink:title=" ">
<polygon fill="#ffffff" stroke="#000000" points="387,-.5 387,-19.5 458,-19.5 458,-.5 387,-.5"/>
<text text-anchor="middle" x="422.5" y="-7.5" font-family="Helvetica,sans-Serif" font-size="10.00" fill="#000000">filledMatrix</text>
</a>
</g>
</g>
<!-- Node1&#45;&gt;Node16 -->
<g id="edge16" class="edge">
<title>Node1&#45;&gt;Node16</title>
<path fill="none" stroke="#191970" d="M544.9952,-123.9222C534.1278,-98.6804 511.6688,-54.4208 479,-29 472.8744,-24.2335 465.4886,-20.629 458.1068,-17.9149"/>
<polygon fill="#191970" stroke="#191970" points="541.7657,-125.2715 548.8234,-133.1734 548.2338,-122.595 541.7657,-125.2715"/>
</g>
<!-- Node5 -->
<g id="node5" class="node">
<title>Node5</title>
<g id="a_node5"><a xlink:href="structPoint.html#a0eb0afd31cfdda9c8a11d31ef42ad53f" target="_top" xlink:title=" ">
<polygon fill="#ffffff" stroke="#000000" points="217,-228.5 217,-247.5 330,-247.5 330,-228.5 217,-228.5"/>
<text text-anchor="middle" x="273.5" y="-235.5" font-family="Helvetica,sans-Serif" font-size="10.00" fill="#000000">Point::operator bool</text>
</a>
</g>
</g>
<!-- Node4&#45;&gt;Node5 -->
<g id="edge4" class="edge">
<title>Node4&#45;&gt;Node5</title>
<path fill="none" stroke="#191970" d="M387.5197,-208.9211C364.5132,-214.7886 334.43,-222.4608 310.9412,-228.4512"/>
<polygon fill="#191970" stroke="#191970" points="388.3993,-212.3089 397.2242,-206.4462 386.6694,-205.526 388.3993,-212.3089"/>
</g>
<!-- Node7 -->
<g id="node7" class="node">
<title>Node7</title>
<g id="a_node7"><a xlink:href="structSquare.html#a12c1f0ee0bd30021a5a7d7344538fef9" target="_top" xlink:title="Get the average angle of the sides of the square .">
<polygon fill="#ffffff" stroke="#000000" points="223.5,-190.5 223.5,-209.5 323.5,-209.5 323.5,-190.5 223.5,-190.5"/>
<text text-anchor="middle" x="273.5" y="-197.5" font-family="Helvetica,sans-Serif" font-size="10.00" fill="#000000">Square::getAngle</text>
</a>
</g>
</g>
<!-- Node6&#45;&gt;Node7 -->
<g id="edge6" class="edge">
<title>Node6&#45;&gt;Node7</title>
<path fill="none" stroke="#191970" d="M393.5642,-169.3796C369.983,-175.3936 336.514,-183.9293 310.9007,-190.4616"/>
<polygon fill="#191970" stroke="#191970" points="394.501,-172.7528 403.3259,-166.89 392.7711,-165.9699 394.501,-172.7528"/>
</g>
<!-- Node9 -->
<g id="node9" class="node">
<title>Node9</title>
<g id="a_node9"><a xlink:href="HouseholderQR_8hpp.html#a16f7547f23439d1eda0fcbde69451ef9" target="_top" xlink:title=" ">
<polygon fill="#ffffff" stroke="#000000" points="228,-152.5 228,-171.5 319,-171.5 319,-152.5 228,-152.5"/>
<text text-anchor="middle" x="273.5" y="-159.5" font-family="Helvetica,sans-Serif" font-size="10.00" fill="#000000">householderQR</text>
</a>
</g>
</g>
<!-- Node6&#45;&gt;Node9 -->
<g id="edge8" class="edge">
<title>Node6&#45;&gt;Node9</title>
<path fill="none" stroke="#191970" d="M393.0762,-162C372.0065,-162 343.2289,-162 319.185,-162"/>
<polygon fill="#191970" stroke="#191970" points="393.3259,-165.5001 403.3259,-162 393.3259,-158.5001 393.3259,-165.5001"/>
</g>
<!-- Node10 -->
<g id="node10" class="node">
<title>Node10</title>
<g id="a_node10"><a xlink:href="LeastSquares_8hpp.html#a3e86962f655361a684f770b14c9fe1e2" target="_top" xlink:title=" ">
<polygon fill="#ffffff" stroke="#000000" points="70.5,-133.5 70.5,-152.5 178.5,-152.5 178.5,-133.5 70.5,-133.5"/>
<text text-anchor="middle" x="124.5" y="-140.5" font-family="Helvetica,sans-Serif" font-size="10.00" fill="#000000">solveLeastSquares</text>
</a>
</g>
</g>
<!-- Node6&#45;&gt;Node10 -->
<g id="edge11" class="edge">
<title>Node6&#45;&gt;Node10</title>
<path fill="none" stroke="#191970" d="M393.2583,-154.4111C375.1751,-150.1143 351.406,-145.1757 330,-143 278.8883,-137.8049 220.2558,-138.4543 178.7354,-140.0169"/>
<polygon fill="#191970" stroke="#191970" points="392.6422,-157.8635 403.1876,-156.841 394.3062,-151.0641 392.6422,-157.8635"/>
</g>
<!-- Node12 -->
<g id="node12" class="node">
<title>Node12</title>
<g id="a_node12"><a xlink:href="Matrix_8hpp.html#a341f99d67c7fef72e0432138c6d4fc34" target="_top" xlink:title=" ">
<polygon fill="#ffffff" stroke="#000000" points="242,-76.5 242,-95.5 305,-95.5 305,-76.5 242,-76.5"/>
<text text-anchor="middle" x="273.5" y="-83.5" font-family="Helvetica,sans-Serif" font-size="10.00" fill="#000000">operator*</text>
</a>
</g>
</g>
<!-- Node6&#45;&gt;Node12 -->
<g id="edge12" class="edge">
<title>Node6&#45;&gt;Node12</title>
<path fill="none" stroke="#191970" d="M393.455,-154.7861C384.3156,-151.8568 374.418,-147.9682 366,-143 347.3076,-131.9679 348.2522,-121.7459 330,-110 321.1277,-104.2904 310.6679,-99.4076 301.1753,-95.5659"/>
<polygon fill="#191970" stroke="#191970" points="392.7509,-158.2272 403.3322,-157.6921 394.7267,-151.5118 392.7509,-158.2272"/>
</g>
<!-- Node8 -->
<g id="node8" class="node">
<title>Node8</title>
<g id="a_node8"><a xlink:href="Grid-Finder_8module_8hpp.html#a05e720af51446c0f9319fb9455fe1767" target="_top" xlink:title=" ">
<polygon fill="#ffffff" stroke="#000000" points="68,-190.5 68,-209.5 181,-209.5 181,-190.5 68,-190.5"/>
<text text-anchor="middle" x="124.5" y="-197.5" font-family="Helvetica,sans-Serif" font-size="10.00" fill="#000000">PYBIND11_MODULE</text>
</a>
</g>
</g>
<!-- Node7&#45;&gt;Node8 -->
<g id="edge7" class="edge">
<title>Node7&#45;&gt;Node8</title>
<path fill="none" stroke="#191970" d="M213.3954,-200C202.7246,-200 191.6441,-200 181.0753,-200"/>
<polygon fill="#191970" stroke="#191970" points="213.4707,-203.5001 223.4707,-200 213.4706,-196.5001 213.4707,-203.5001"/>
</g>
<!-- Node9&#45;&gt;Node10 -->
<g id="edge9" class="edge">
<title>Node9&#45;&gt;Node10</title>
<path fill="none" stroke="#191970" d="M217.8933,-154.9092C205.0553,-153.2722 191.4159,-151.5329 178.6414,-149.9039"/>
<polygon fill="#191970" stroke="#191970" points="217.623,-158.403 227.9855,-156.1961 218.5085,-151.4592 217.623,-158.403"/>
</g>
<!-- Node11 -->
<g id="node11" class="node">
<title>Node11</title>
<g id="a_node11"><a xlink:href="LeastSquares_8hpp.html#abc455a395ab6414f5312b56e5b479195" target="_top" xlink:title=" ">
<polygon fill="#ffffff" stroke="#000000" points="0,-133.5 0,-152.5 32,-152.5 32,-133.5 0,-133.5"/>
<text text-anchor="middle" x="16" y="-140.5" font-family="Helvetica,sans-Serif" font-size="10.00" fill="#000000">inv</text>
</a>
</g>
</g>
<!-- Node10&#45;&gt;Node11 -->
<g id="edge10" class="edge">
<title>Node10&#45;&gt;Node11</title>
<path fill="none" stroke="#191970" d="M60.1409,-143C49.7072,-143 39.7906,-143 32.0095,-143"/>
<polygon fill="#191970" stroke="#191970" points="60.25,-146.5001 70.25,-143 60.25,-139.5001 60.25,-146.5001"/>
</g>
</g>
</svg>
