<?xml version="1.0" encoding="UTF-8" standalone="no"?>
<!DOCTYPE svg PUBLIC "-//W3C//DTD SVG 1.1//EN"
 "http://www.w3.org/Graphics/SVG/1.1/DTD/svg11.dtd">
<!-- Generated by graphviz version 2.40.1 (20161225.0304)
 -->
<!-- Title: QRCommStruct::setQRStateUnkown Pages: 1 -->
<svg width="360pt" height="39pt"
 viewBox="0.00 0.00 360.00 39.00" xmlns="http://www.w3.org/2000/svg" xmlns:xlink="http://www.w3.org/1999/xlink">
<g id="graph0" class="graph" transform="scale(1 1) rotate(0) translate(4 35)">
<title>QRCommStruct::setQRStateUnkown</title>
<polygon fill="#ffffff" stroke="transparent" points="-4,4 -4,-35 356,-35 356,4 -4,4"/>
<!-- Node15 -->
<g id="node1" class="node">
<title>Node15</title>
<g id="a_node1"><a xlink:title=" ">
<polygon fill="#bfbfbf" stroke="#000000" points="0,-.5 0,-30.5 152,-30.5 152,-.5 0,-.5"/>
<text text-anchor="start" x="8" y="-18.5" font-family="Helvetica,sans-Serif" font-size="10.00" fill="#000000">QRCommStruct::setQRState</text>
<text text-anchor="middle" x="76" y="-7.5" font-family="Helvetica,sans-Serif" font-size="10.00" fill="#000000">Unkown</text>
</a>
</g>
</g>
<!-- Node16 -->
<g id="node2" class="node">
<title>Node16</title>
<g id="a_node2"><a xlink:href="structSharedStruct.html#ab84d9ff23f09b19bb8cf7f72ec9901fe" target="_top" xlink:title=" ">
<polygon fill="#ffffff" stroke="#000000" points="188,-.5 188,-30.5 352,-30.5 352,-.5 188,-.5"/>
<text text-anchor="start" x="196" y="-18.5" font-family="Helvetica,sans-Serif" font-size="10.00" fill="#000000">SharedStruct&lt; QRCommStruct</text>
<text text-anchor="middle" x="270" y="-7.5" font-family="Helvetica,sans-Serif" font-size="10.00" fill="#000000"> &gt;::checkInitialized</text>
</a>
</g>
</g>
<!-- Node15&#45;&gt;Node16 -->
<g id="edge1" class="edge">
<title>Node15&#45;&gt;Node16</title>
<path fill="none" stroke="#191970" d="M152.1171,-15.5C160.5098,-15.5 169.1215,-15.5 177.6844,-15.5"/>
<polygon fill="#191970" stroke="#191970" points="177.698,-19.0001 187.698,-15.5 177.6979,-12.0001 177.698,-19.0001"/>
</g>
</g>
</svg>
