<?xml version="1.0" encoding="UTF-8" standalone="no"?>
<!DOCTYPE svg PUBLIC "-//W3C//DTD SVG 1.1//EN"
 "http://www.w3.org/Graphics/SVG/1.1/DTD/svg11.dtd">
<!-- Generated by graphviz version 2.40.1 (20161225.0304)
 -->
<!-- Title: Array::end Pages: 1 -->
<svg width="550pt" height="237pt"
 viewBox="0.00 0.00 550.00 237.00" xmlns="http://www.w3.org/2000/svg" xmlns:xlink="http://www.w3.org/1999/xlink">
<g id="graph0" class="graph" transform="scale(1 1) rotate(0) translate(4 233)">
<title>Array::end</title>
<polygon fill="#ffffff" stroke="transparent" points="-4,4 -4,-233 546,-233 546,4 -4,4"/>
<!-- Node18 -->
<g id="node1" class="node">
<title>Node18</title>
<g id="a_node1"><a xlink:title=" ">
<polygon fill="#bfbfbf" stroke="#000000" points="476,-95.5 476,-114.5 542,-114.5 542,-95.5 476,-95.5"/>
<text text-anchor="middle" x="509" y="-102.5" font-family="Helvetica,sans-Serif" font-size="10.00" fill="#000000">Array::end</text>
</a>
</g>
</g>
<!-- Node19 -->
<g id="node2" class="node">
<title>Node19</title>
<g id="a_node2"><a xlink:href="Array_8hpp.html#ab8a62286cf94935432fb15208c352d31" target="_top" xlink:title=" ">
<polygon fill="#ffffff" stroke="#000000" points="369,-190.5 369,-209.5 419,-209.5 419,-190.5 369,-190.5"/>
<text text-anchor="middle" x="394" y="-197.5" font-family="Helvetica,sans-Serif" font-size="10.00" fill="#000000">isfinite</text>
</a>
</g>
</g>
<!-- Node18&#45;&gt;Node19 -->
<g id="edge1" class="edge">
<title>Node18&#45;&gt;Node19</title>
<path fill="none" stroke="#191970" d="M496.2787,-123.1084C483.6395,-139.991 462.8812,-164.9169 440,-181 433.7793,-185.3725 426.3998,-188.984 419.3932,-191.8411"/>
<polygon fill="#191970" stroke="#191970" points="499.3704,-124.8083 502.4271,-114.664 493.7115,-120.6881 499.3704,-124.8083"/>
</g>
<!-- Node20 -->
<g id="node3" class="node">
<title>Node20</title>
<g id="a_node3"><a xlink:href="Array_8hpp.html#a8210ee35a21cf8114e4f40920a6e0abf" target="_top" xlink:title=" ">
<polygon fill="#ffffff" stroke="#000000" points="375,-152.5 375,-171.5 413,-171.5 413,-152.5 375,-152.5"/>
<text text-anchor="middle" x="394" y="-159.5" font-family="Helvetica,sans-Serif" font-size="10.00" fill="#000000">sum</text>
</a>
</g>
</g>
<!-- Node18&#45;&gt;Node20 -->
<g id="edge2" class="edge">
<title>Node18&#45;&gt;Node20</title>
<path fill="none" stroke="#191970" d="M484.0227,-119.637C471.0688,-127.0015 454.8812,-135.8565 440,-143 431.2757,-147.188 421.3805,-151.3482 413.0088,-154.7033"/>
<polygon fill="#191970" stroke="#191970" points="485.8913,-122.6001 492.8188,-114.5838 482.4043,-116.5304 485.8913,-122.6001"/>
</g>
<!-- Node26 -->
<g id="node9" class="node">
<title>Node26</title>
<g id="a_node9"><a xlink:href="ArrayHelpers_8hpp.html#a302eae526b10a18783bc2623ee9fe646" target="_top" xlink:title="Generate an array where the first value is given, and the subsequent values are calculated as the pre...">
<polygon fill="#ffffff" stroke="#000000" points="348,-114.5 348,-133.5 440,-133.5 440,-114.5 348,-114.5"/>
<text text-anchor="middle" x="394" y="-121.5" font-family="Helvetica,sans-Serif" font-size="10.00" fill="#000000">generatedArray</text>
</a>
</g>
</g>
<!-- Node18&#45;&gt;Node26 -->
<g id="edge9" class="edge">
<title>Node18&#45;&gt;Node26</title>
<path fill="none" stroke="#191970" d="M465.7528,-112.1452C457.348,-113.5338 448.5095,-114.9941 440.0192,-116.3968"/>
<polygon fill="#191970" stroke="#191970" points="466.4415,-115.5789 475.7372,-110.4956 465.3004,-108.6726 466.4415,-115.5789"/>
</g>
<!-- Node27 -->
<g id="node10" class="node">
<title>Node27</title>
<g id="a_node10"><a xlink:href="ArrayHelpers_8hpp.html#a021512d0f49f5f3ac08ebac9bb547cfc" target="_top" xlink:title=" ">
<polygon fill="#ffffff" stroke="#000000" points="360.5,-76.5 360.5,-95.5 427.5,-95.5 427.5,-76.5 360.5,-76.5"/>
<text text-anchor="middle" x="394" y="-83.5" font-family="Helvetica,sans-Serif" font-size="10.00" fill="#000000">filledArray</text>
</a>
</g>
</g>
<!-- Node18&#45;&gt;Node27 -->
<g id="edge10" class="edge">
<title>Node18&#45;&gt;Node27</title>
<path fill="none" stroke="#191970" d="M465.8517,-97.8712C453.1969,-95.7804 439.5512,-93.5258 427.5864,-91.5491"/>
<polygon fill="#191970" stroke="#191970" points="465.3004,-101.3274 475.7372,-99.5044 466.4415,-94.4211 465.3004,-101.3274"/>
</g>
<!-- Node28 -->
<g id="node11" class="node">
<title>Node28</title>
<g id="a_node11"><a xlink:href="MatrixHelpers_8hpp.html#a97dc20f082415c3707e56be3bec40f33" target="_top" xlink:title=" ">
<polygon fill="#ffffff" stroke="#000000" points="355.5,-38.5 355.5,-57.5 432.5,-57.5 432.5,-38.5 355.5,-38.5"/>
<text text-anchor="middle" x="394" y="-45.5" font-family="Helvetica,sans-Serif" font-size="10.00" fill="#000000">filledTMatrix</text>
</a>
</g>
</g>
<!-- Node18&#45;&gt;Node28 -->
<g id="edge11" class="edge">
<title>Node18&#45;&gt;Node28</title>
<path fill="none" stroke="#191970" d="M484.0227,-90.363C471.0688,-82.9985 454.8812,-74.1435 440,-67 433.1452,-63.7095 425.5675,-60.436 418.574,-57.5568"/>
<polygon fill="#191970" stroke="#191970" points="482.4043,-93.4696 492.8188,-95.4162 485.8913,-87.3999 482.4043,-93.4696"/>
</g>
<!-- Node29 -->
<g id="node12" class="node">
<title>Node29</title>
<g id="a_node12"><a xlink:href="MatrixHelpers_8hpp.html#a0143e59b28ca53207a87f0a2d0873bf4" target="_top" xlink:title=" ">
<polygon fill="#ffffff" stroke="#000000" points="358.5,-.5 358.5,-19.5 429.5,-19.5 429.5,-.5 358.5,-.5"/>
<text text-anchor="middle" x="394" y="-7.5" font-family="Helvetica,sans-Serif" font-size="10.00" fill="#000000">filledMatrix</text>
</a>
</g>
</g>
<!-- Node18&#45;&gt;Node29 -->
<g id="edge12" class="edge">
<title>Node18&#45;&gt;Node29</title>
<path fill="none" stroke="#191970" d="M496.2787,-86.8916C483.6395,-70.009 462.8812,-45.0831 440,-29 434.769,-25.3231 428.7185,-22.1843 422.7594,-19.5798"/>
<polygon fill="#191970" stroke="#191970" points="493.7115,-89.3119 502.4271,-95.336 499.3704,-85.1917 493.7115,-89.3119"/>
</g>
<!-- Node21 -->
<g id="node4" class="node">
<title>Node21</title>
<g id="a_node4"><a xlink:href="structSquare.html#a12c1f0ee0bd30021a5a7d7344538fef9" target="_top" xlink:title="Get the average angle of the sides of the square .">
<polygon fill="#ffffff" stroke="#000000" points="212,-209.5 212,-228.5 312,-228.5 312,-209.5 212,-209.5"/>
<text text-anchor="middle" x="262" y="-216.5" font-family="Helvetica,sans-Serif" font-size="10.00" fill="#000000">Square::getAngle</text>
</a>
</g>
</g>
<!-- Node20&#45;&gt;Node21 -->
<g id="edge3" class="edge">
<title>Node20&#45;&gt;Node21</title>
<path fill="none" stroke="#191970" d="M365.2236,-173.3986C359.4755,-175.8118 353.5124,-178.4139 348,-181 331.6212,-188.684 328.4868,-192.5506 312,-200 304.6377,-203.3266 296.5048,-206.5865 288.9753,-209.4409"/>
<polygon fill="#191970" stroke="#191970" points="366.6597,-176.5925 374.5766,-169.5517 363.997,-170.1187 366.6597,-176.5925"/>
</g>
<!-- Node22 -->
<g id="node5" class="node">
<title>Node22</title>
<g id="a_node5"><a xlink:href="HouseholderQR_8hpp.html#a16f7547f23439d1eda0fcbde69451ef9" target="_top" xlink:title=" ">
<polygon fill="#ffffff" stroke="#000000" points="216.5,-171.5 216.5,-190.5 307.5,-190.5 307.5,-171.5 216.5,-171.5"/>
<text text-anchor="middle" x="262" y="-178.5" font-family="Helvetica,sans-Serif" font-size="10.00" fill="#000000">householderQR</text>
</a>
</g>
</g>
<!-- Node20&#45;&gt;Node22 -->
<g id="edge4" class="edge">
<title>Node20&#45;&gt;Node22</title>
<path fill="none" stroke="#191970" d="M364.5582,-166.2378C347.8514,-168.6426 326.5791,-171.7045 307.744,-174.4156"/>
<polygon fill="#191970" stroke="#191970" points="365.4068,-169.6519 374.8061,-164.7628 364.4094,-162.7233 365.4068,-169.6519"/>
</g>
<!-- Node23 -->
<g id="node6" class="node">
<title>Node23</title>
<g id="a_node6"><a xlink:href="LeastSquares_8hpp.html#a3e86962f655361a684f770b14c9fe1e2" target="_top" xlink:title=" ">
<polygon fill="#ffffff" stroke="#000000" points="68,-152.5 68,-171.5 176,-171.5 176,-152.5 68,-152.5"/>
<text text-anchor="middle" x="122" y="-159.5" font-family="Helvetica,sans-Serif" font-size="10.00" fill="#000000">solveLeastSquares</text>
</a>
</g>
</g>
<!-- Node20&#45;&gt;Node23 -->
<g id="edge7" class="edge">
<title>Node20&#45;&gt;Node23</title>
<path fill="none" stroke="#191970" d="M364.6284,-162C319.6019,-162 232.793,-162 176.1489,-162"/>
<polygon fill="#191970" stroke="#191970" points="364.8735,-165.5001 374.8735,-162 364.8735,-158.5001 364.8735,-165.5001"/>
</g>
<!-- Node25 -->
<g id="node8" class="node">
<title>Node25</title>
<g id="a_node8"><a xlink:href="Matrix_8hpp.html#a341f99d67c7fef72e0432138c6d4fc34" target="_top" xlink:title=" ">
<polygon fill="#ffffff" stroke="#000000" points="230.5,-95.5 230.5,-114.5 293.5,-114.5 293.5,-95.5 230.5,-95.5"/>
<text text-anchor="middle" x="262" y="-102.5" font-family="Helvetica,sans-Serif" font-size="10.00" fill="#000000">operator*</text>
</a>
</g>
</g>
<!-- Node20&#45;&gt;Node25 -->
<g id="edge8" class="edge">
<title>Node20&#45;&gt;Node25</title>
<path fill="none" stroke="#191970" d="M365.3601,-150.2969C359.6011,-147.9081 353.599,-145.3929 348,-143 325.7855,-133.506 300.5128,-122.2888 283.1428,-114.5139"/>
<polygon fill="#191970" stroke="#191970" points="364.1295,-153.5753 374.7085,-154.154 366.7994,-147.1045 364.1295,-153.5753"/>
</g>
<!-- Node22&#45;&gt;Node23 -->
<g id="edge5" class="edge">
<title>Node22&#45;&gt;Node23</title>
<path fill="none" stroke="#191970" d="M206.0812,-173.411C196.2434,-172.0759 186.0185,-170.6882 176.2278,-169.3595"/>
<polygon fill="#191970" stroke="#191970" points="205.7789,-176.902 216.1588,-174.7787 206.7203,-169.9656 205.7789,-176.902"/>
</g>
<!-- Node24 -->
<g id="node7" class="node">
<title>Node24</title>
<g id="a_node7"><a xlink:href="LeastSquares_8hpp.html#abc455a395ab6414f5312b56e5b479195" target="_top" xlink:title=" ">
<polygon fill="#ffffff" stroke="#000000" points="0,-152.5 0,-171.5 32,-171.5 32,-152.5 0,-152.5"/>
<text text-anchor="middle" x="16" y="-159.5" font-family="Helvetica,sans-Serif" font-size="10.00" fill="#000000">inv</text>
</a>
</g>
</g>
<!-- Node23&#45;&gt;Node24 -->
<g id="edge6" class="edge">
<title>Node23&#45;&gt;Node24</title>
<path fill="none" stroke="#191970" d="M57.7466,-162C48.2629,-162 39.2831,-162 32.0991,-162"/>
<polygon fill="#191970" stroke="#191970" points="57.7579,-165.5001 67.7579,-162 57.7579,-158.5001 57.7579,-165.5001"/>
</g>
</g>
</svg>
