<?xml version="1.0" encoding="UTF-8" standalone="no"?>
<!DOCTYPE svg PUBLIC "-//W3C//DTD SVG 1.1//EN"
 "http://www.w3.org/Graphics/SVG/1.1/DTD/svg11.dtd">
<!-- Generated by graphviz version 2.40.1 (20161225.0304)
 -->
<!-- Title: PositionReference Pages: 1 -->
<svg width="131pt" height="325pt"
 viewBox="0.00 0.00 131.00 325.00" xmlns="http://www.w3.org/2000/svg" xmlns:xlink="http://www.w3.org/1999/xlink">
<g id="graph0" class="graph" transform="scale(1 1) rotate(0) translate(4 321)">
<title>PositionReference</title>
<polygon fill="#ffffff" stroke="transparent" points="-4,4 -4,-321 127,-321 127,4 -4,4"/>
<!-- Node1 -->
<g id="node1" class="node">
<title>Node1</title>
<g id="a_node1"><a xlink:title=" ">
<polygon fill="#bfbfbf" stroke="#000000" points="0,-.5 0,-68.5 123,-68.5 123,-.5 0,-.5"/>
<text text-anchor="middle" x="61.5" y="-56.5" font-family="Helvetica,sans-Serif" font-size="10.00" fill="#000000">PositionReference</text>
<polyline fill="none" stroke="#000000" points="0,-49.5 123,-49.5 "/>
<text text-anchor="middle" x="61.5" y="-37.5" font-family="Helvetica,sans-Serif" font-size="10.00" fill="#000000"> </text>
<polyline fill="none" stroke="#000000" points="0,-30.5 123,-30.5 "/>
<text text-anchor="start" x="8" y="-18.5" font-family="Helvetica,sans-Serif" font-size="10.00" fill="#000000">+ PositionReference()</text>
<text text-anchor="start" x="8" y="-7.5" font-family="Helvetica,sans-Serif" font-size="10.00" fill="#000000">+ PositionReference()</text>
</a>
</g>
</g>
<!-- Node2 -->
<g id="node2" class="node">
<title>Node2</title>
<g id="a_node2"><a xlink:href="structArray.html" target="_top" xlink:title=" ">
<polygon fill="#ffffff" stroke="#000000" points="9.5,-116.5 9.5,-316.5 113.5,-316.5 113.5,-116.5 9.5,-116.5"/>
<text text-anchor="middle" x="61.5" y="-304.5" font-family="Helvetica,sans-Serif" font-size="10.00" fill="#000000">Array&lt; float, 2 &gt;</text>
<polyline fill="none" stroke="#000000" points="9.5,-297.5 113.5,-297.5 "/>
<text text-anchor="start" x="17.5" y="-285.5" font-family="Helvetica,sans-Serif" font-size="10.00" fill="#000000">+ data</text>
<polyline fill="none" stroke="#000000" points="9.5,-278.5 113.5,-278.5 "/>
<text text-anchor="start" x="17.5" y="-266.5" font-family="Helvetica,sans-Serif" font-size="10.00" fill="#000000">+ operator[]()</text>
<text text-anchor="start" x="17.5" y="-255.5" font-family="Helvetica,sans-Serif" font-size="10.00" fill="#000000">+ operator[]()</text>
<text text-anchor="start" x="17.5" y="-244.5" font-family="Helvetica,sans-Serif" font-size="10.00" fill="#000000">+ begin()</text>
<text text-anchor="start" x="17.5" y="-233.5" font-family="Helvetica,sans-Serif" font-size="10.00" fill="#000000">+ begin()</text>
<text text-anchor="start" x="17.5" y="-222.5" font-family="Helvetica,sans-Serif" font-size="10.00" fill="#000000">+ end()</text>
<text text-anchor="start" x="17.5" y="-211.5" font-family="Helvetica,sans-Serif" font-size="10.00" fill="#000000">+ end()</text>
<text text-anchor="start" x="17.5" y="-200.5" font-family="Helvetica,sans-Serif" font-size="10.00" fill="#000000">+ operator==()</text>
<text text-anchor="start" x="17.5" y="-189.5" font-family="Helvetica,sans-Serif" font-size="10.00" fill="#000000">+ operator*()</text>
<text text-anchor="start" x="17.5" y="-178.5" font-family="Helvetica,sans-Serif" font-size="10.00" fill="#000000">+ operator*=()</text>
<text text-anchor="start" x="17.5" y="-167.5" font-family="Helvetica,sans-Serif" font-size="10.00" fill="#000000">+ operator/()</text>
<text text-anchor="start" x="17.5" y="-156.5" font-family="Helvetica,sans-Serif" font-size="10.00" fill="#000000">and 16 more...</text>
<text text-anchor="start" x="17.5" y="-145.5" font-family="Helvetica,sans-Serif" font-size="10.00" fill="#000000">+ fromCppArray()</text>
<text text-anchor="start" x="17.5" y="-134.5" font-family="Helvetica,sans-Serif" font-size="10.00" fill="#000000">+ fromCArray()</text>
<text text-anchor="start" x="17.5" y="-123.5" font-family="Helvetica,sans-Serif" font-size="10.00" fill="#000000">+ length()</text>
</a>
</g>
</g>
<!-- Node2&#45;&gt;Node1 -->
<g id="edge1" class="edge">
<title>Node2&#45;&gt;Node1</title>
<path fill="none" stroke="#404040" d="M61.5,-116.4489C61.5,-104.1002 61.5,-91.976 61.5,-80.9981"/>
<polygon fill="none" stroke="#404040" points="61.5001,-80.6927 57.5,-74.6928 61.5,-68.6927 65.5,-74.6927 61.5001,-80.6927"/>
<text text-anchor="middle" x="70.5" y="-90" font-family="Helvetica,sans-Serif" font-size="10.00" fill="#000000"> +p</text>
</g>
</g>
</svg>
