<?xml version="1.0" encoding="UTF-8" standalone="no"?>
<!DOCTYPE svg PUBLIC "-//W3C//DTD SVG 1.1//EN"
 "http://www.w3.org/Graphics/SVG/1.1/DTD/svg11.dtd">
<!-- Generated by graphviz version 2.40.1 (20161225.0304)
 -->
<!-- Title: EulerAngles::eul2quat Pages: 1 -->
<svg width="289pt" height="78pt"
 viewBox="0.00 0.00 289.00 77.50" xmlns="http://www.w3.org/2000/svg" xmlns:xlink="http://www.w3.org/1999/xlink">
<g id="graph0" class="graph" transform="scale(1 1) rotate(0) translate(4 73.5)">
<title>EulerAngles::eul2quat</title>
<polygon fill="#ffffff" stroke="transparent" points="-4,4 -4,-73.5 285,-73.5 285,4 -4,4"/>
<!-- Node9 -->
<g id="node1" class="node">
<title>Node9</title>
<g id="a_node1"><a xlink:title=" ">
<polygon fill="#bfbfbf" stroke="#000000" points="158,-28 158,-47 281,-47 281,-28 158,-28"/>
<text text-anchor="middle" x="219.5" y="-35" font-family="Helvetica,sans-Serif" font-size="10.00" fill="#000000">EulerAngles::eul2quat</text>
</a>
</g>
</g>
<!-- Node10 -->
<g id="node2" class="node">
<title>Node10</title>
<g id="a_node2"><a xlink:href="PyQuaternion_8cpp.html#a2957609bcf20d996c14300f7288e3300" target="_top" xlink:title=" ">
<polygon fill="#ffffff" stroke="#000000" points="4.5,-50 4.5,-69 117.5,-69 117.5,-50 4.5,-50"/>
<text text-anchor="middle" x="61" y="-57" font-family="Helvetica,sans-Serif" font-size="10.00" fill="#000000">PYBIND11_MODULE</text>
</a>
</g>
</g>
<!-- Node9&#45;&gt;Node10 -->
<g id="edge1" class="edge">
<title>Node9&#45;&gt;Node10</title>
<path fill="none" stroke="#191970" d="M147.7531,-47.4586C137.6612,-48.8593 127.4056,-50.2828 117.6487,-51.6371"/>
<polygon fill="#191970" stroke="#191970" points="148.3421,-50.9105 157.7659,-46.0688 147.3796,-43.9769 148.3421,-50.9105"/>
</g>
<!-- Node11 -->
<g id="node3" class="node">
<title>Node11</title>
<g id="a_node3"><a xlink:href="structEulerAngles.html#a47345225969f986e9700bfe8d33d9404" target="_top" xlink:title=" ">
<polygon fill="#ffffff" stroke="#000000" points="0,-.5 0,-30.5 122,-30.5 122,-.5 0,-.5"/>
<text text-anchor="start" x="8" y="-18.5" font-family="Helvetica,sans-Serif" font-size="10.00" fill="#000000">EulerAngles::operator</text>
<text text-anchor="middle" x="61" y="-7.5" font-family="Helvetica,sans-Serif" font-size="10.00" fill="#000000"> Quaternion</text>
</a>
</g>
</g>
<!-- Node9&#45;&gt;Node11 -->
<g id="edge2" class="edge">
<title>Node9&#45;&gt;Node11</title>
<path fill="none" stroke="#191970" d="M147.7614,-27.5426C139.1718,-26.3503 130.4633,-25.1416 122.0447,-23.9731"/>
<polygon fill="#191970" stroke="#191970" points="147.3796,-31.0231 157.7659,-28.9312 148.3421,-24.0895 147.3796,-31.0231"/>
</g>
</g>
</svg>
