<?xml version="1.0" encoding="UTF-8" standalone="no"?>
<!DOCTYPE svg PUBLIC "-//W3C//DTD SVG 1.1//EN"
 "http://www.w3.org/Graphics/SVG/1.1/DTD/svg11.dtd">
<!-- Generated by graphviz version 2.40.1 (20161225.0304)
 -->
<!-- Title: TestStruct Pages: 1 -->
<svg width="157pt" height="215pt"
 viewBox="0.00 0.00 157.00 215.00" xmlns="http://www.w3.org/2000/svg" xmlns:xlink="http://www.w3.org/1999/xlink">
<g id="graph0" class="graph" transform="scale(1 1) rotate(0) translate(4 211)">
<title>TestStruct</title>
<polygon fill="#ffffff" stroke="transparent" points="-4,4 -4,-211 153,-211 153,4 -4,4"/>
<!-- Node2 -->
<g id="node1" class="node">
<title>Node2</title>
<g id="a_node1"><a xlink:title=" ">
<polygon fill="#bfbfbf" stroke="#000000" points="41.5,-.5 41.5,-79.5 107.5,-79.5 107.5,-.5 41.5,-.5"/>
<text text-anchor="middle" x="74.5" y="-67.5" font-family="Helvetica,sans-Serif" font-size="10.00" fill="#000000">TestStruct</text>
<polyline fill="none" stroke="#000000" points="41.5,-60.5 107.5,-60.5 "/>
<text text-anchor="start" x="49.5" y="-48.5" font-family="Helvetica,sans-Serif" font-size="10.00" fill="#000000">+ l2b</text>
<text text-anchor="start" x="49.5" y="-37.5" font-family="Helvetica,sans-Serif" font-size="10.00" fill="#000000">+ b2l</text>
<text text-anchor="start" x="49.5" y="-26.5" font-family="Helvetica,sans-Serif" font-size="10.00" fill="#000000">+ address</text>
<polyline fill="none" stroke="#000000" points="41.5,-19.5 107.5,-19.5 "/>
<text text-anchor="middle" x="74.5" y="-7.5" font-family="Helvetica,sans-Serif" font-size="10.00" fill="#000000"> </text>
</a>
</g>
</g>
<!-- Node3 -->
<g id="node2" class="node">
<title>Node3</title>
<g id="a_node2"><a xlink:href="structSharedStruct.html" target="_top" xlink:title=" ">
<polygon fill="#ffffff" stroke="#000000" points="0,-116.5 0,-206.5 149,-206.5 149,-116.5 0,-116.5"/>
<text text-anchor="middle" x="74.5" y="-194.5" font-family="Helvetica,sans-Serif" font-size="10.00" fill="#000000">SharedStruct&lt; TestStruct &gt;</text>
<polyline fill="none" stroke="#000000" points="0,-187.5 149,-187.5 "/>
<text text-anchor="middle" x="74.5" y="-175.5" font-family="Helvetica,sans-Serif" font-size="10.00" fill="#000000"> </text>
<polyline fill="none" stroke="#000000" points="0,-168.5 149,-168.5 "/>
<text text-anchor="start" x="8" y="-156.5" font-family="Helvetica,sans-Serif" font-size="10.00" fill="#000000">+ isInitialized()</text>
<text text-anchor="start" x="8" y="-145.5" font-family="Helvetica,sans-Serif" font-size="10.00" fill="#000000">+ checkInitialized()</text>
<text text-anchor="start" x="8" y="-134.5" font-family="Helvetica,sans-Serif" font-size="10.00" fill="#000000">+ nextFreeAddress()</text>
<text text-anchor="start" x="8" y="-123.5" font-family="Helvetica,sans-Serif" font-size="10.00" fill="#000000"># SharedStruct()</text>
</a>
</g>
</g>
<!-- Node3&#45;&gt;Node2 -->
<g id="edge1" class="edge">
<title>Node3&#45;&gt;Node2</title>
<path fill="none" stroke="#191970" d="M74.5,-106.254C74.5,-97.2956 74.5,-88.1763 74.5,-79.6838"/>
<polygon fill="none" stroke="#191970" points="71.0001,-106.2578 74.5,-116.2579 78.0001,-106.2579 71.0001,-106.2578"/>
</g>
</g>
</svg>
