<?xml version="1.0" encoding="UTF-8" standalone="no"?>
<!DOCTYPE svg PUBLIC "-//W3C//DTD SVG 1.1//EN"
 "http://www.w3.org/Graphics/SVG/1.1/DTD/svg11.dtd">
<!-- Generated by graphviz version 2.40.1 (20161225.0304)
 -->
<!-- Title: Printable Pages: 1 -->
<svg width="433pt" height="171pt"
 viewBox="0.00 0.00 432.50 171.00" xmlns="http://www.w3.org/2000/svg" xmlns:xlink="http://www.w3.org/1999/xlink">
<g id="graph0" class="graph" transform="scale(1 1) rotate(0) translate(4 167)">
<title>Printable</title>
<polygon fill="#ffffff" stroke="transparent" points="-4,4 -4,-167 428.5,-167 428.5,4 -4,4"/>
<!-- Node0 -->
<g id="node1" class="node">
<title>Node0</title>
<g id="a_node1"><a xlink:title=" ">
<polygon fill="#bfbfbf" stroke="#000000" points="187,-105.5 187,-162.5 247,-162.5 247,-105.5 187,-105.5"/>
<text text-anchor="middle" x="217" y="-150.5" font-family="Helvetica,sans-Serif" font-size="10.00" fill="#000000">Printable</text>
<polyline fill="none" stroke="#000000" points="187,-143.5 247,-143.5 "/>
<text text-anchor="middle" x="217" y="-131.5" font-family="Helvetica,sans-Serif" font-size="10.00" fill="#000000"> </text>
<polyline fill="none" stroke="#000000" points="187,-124.5 247,-124.5 "/>
<text text-anchor="start" x="195" y="-112.5" font-family="Helvetica,sans-Serif" font-size="10.00" fill="#000000">+ print()</text>
</a>
</g>
</g>
<!-- Node1 -->
<g id="node2" class="node">
<title>Node1</title>
<g id="a_node2"><a xlink:href="structPrintAsEulerAngles.html" target="_top" xlink:title=" ">
<polygon fill="#ffffff" stroke="#000000" points="0,-.5 0,-68.5 128,-68.5 128,-.5 0,-.5"/>
<text text-anchor="middle" x="64" y="-56.5" font-family="Helvetica,sans-Serif" font-size="10.00" fill="#000000">PrintAsEulerAngles</text>
<polyline fill="none" stroke="#000000" points="0,-49.5 128,-49.5 "/>
<text text-anchor="middle" x="64" y="-37.5" font-family="Helvetica,sans-Serif" font-size="10.00" fill="#000000"> </text>
<polyline fill="none" stroke="#000000" points="0,-30.5 128,-30.5 "/>
<text text-anchor="start" x="8" y="-18.5" font-family="Helvetica,sans-Serif" font-size="10.00" fill="#000000">+ PrintAsEulerAngles()</text>
<text text-anchor="start" x="8" y="-7.5" font-family="Helvetica,sans-Serif" font-size="10.00" fill="#000000">+ print()</text>
</a>
</g>
</g>
<!-- Node0&#45;&gt;Node1 -->
<g id="edge1" class="edge">
<title>Node0&#45;&gt;Node1</title>
<path fill="none" stroke="#191970" d="M178.2024,-108.7689C159.4739,-96.5893 136.7257,-81.7955 116.4766,-68.627"/>
<polygon fill="none" stroke="#191970" points="176.4808,-111.8243 186.7721,-114.342 180.2971,-105.956 176.4808,-111.8243"/>
</g>
<!-- Node2 -->
<g id="node3" class="node">
<title>Node2</title>
<g id="a_node3"><a xlink:href="classPrintAsRowVector__t.html" target="_top" xlink:title=" ">
<polygon fill="#ffffff" stroke="#000000" points="146.5,-.5 146.5,-68.5 287.5,-68.5 287.5,-.5 146.5,-.5"/>
<text text-anchor="middle" x="217" y="-56.5" font-family="Helvetica,sans-Serif" font-size="10.00" fill="#000000">PrintAsRowVector_t&lt; N &gt;</text>
<polyline fill="none" stroke="#000000" points="146.5,-49.5 287.5,-49.5 "/>
<text text-anchor="middle" x="217" y="-37.5" font-family="Helvetica,sans-Serif" font-size="10.00" fill="#000000"> </text>
<polyline fill="none" stroke="#000000" points="146.5,-30.5 287.5,-30.5 "/>
<text text-anchor="start" x="154.5" y="-18.5" font-family="Helvetica,sans-Serif" font-size="10.00" fill="#000000">+ PrintAsRowVector_t()</text>
<text text-anchor="start" x="154.5" y="-7.5" font-family="Helvetica,sans-Serif" font-size="10.00" fill="#000000">+ print()</text>
</a>
</g>
</g>
<!-- Node0&#45;&gt;Node2 -->
<g id="edge2" class="edge">
<title>Node0&#45;&gt;Node2</title>
<path fill="none" stroke="#191970" d="M217,-95.4268C217,-86.6025 217,-77.2834 217,-68.6596"/>
<polygon fill="none" stroke="#191970" points="213.5001,-95.4873 217,-105.4873 220.5001,-95.4873 213.5001,-95.4873"/>
</g>
<!-- Node3 -->
<g id="node4" class="node">
<title>Node3</title>
<g id="a_node4"><a xlink:href="classPrintAsTeX__t.html" target="_top" xlink:title=" ">
<polygon fill="#ffffff" stroke="#000000" points="305.5,-.5 305.5,-68.5 424.5,-68.5 424.5,-.5 305.5,-.5"/>
<text text-anchor="middle" x="365" y="-56.5" font-family="Helvetica,sans-Serif" font-size="10.00" fill="#000000">PrintAsTeX_t&lt; R, C &gt;</text>
<polyline fill="none" stroke="#000000" points="305.5,-49.5 424.5,-49.5 "/>
<text text-anchor="middle" x="365" y="-37.5" font-family="Helvetica,sans-Serif" font-size="10.00" fill="#000000"> </text>
<polyline fill="none" stroke="#000000" points="305.5,-30.5 424.5,-30.5 "/>
<text text-anchor="start" x="313.5" y="-18.5" font-family="Helvetica,sans-Serif" font-size="10.00" fill="#000000">+ PrintAsTeX_t()</text>
<text text-anchor="start" x="313.5" y="-7.5" font-family="Helvetica,sans-Serif" font-size="10.00" fill="#000000">+ print()</text>
</a>
</g>
</g>
<!-- Node0&#45;&gt;Node3 -->
<g id="edge3" class="edge">
<title>Node0&#45;&gt;Node3</title>
<path fill="none" stroke="#191970" d="M255.7815,-107.9273C273.6838,-95.8916 295.1724,-81.4449 314.3353,-68.5617"/>
<polygon fill="none" stroke="#191970" points="253.6533,-105.1406 247.3071,-113.6246 257.5588,-110.9498 253.6533,-105.1406"/>
</g>
</g>
</svg>
