<?xml version="1.0" encoding="UTF-8" standalone="no"?>
<!DOCTYPE svg PUBLIC "-//W3C//DTD SVG 1.1//EN"
 "http://www.w3.org/Graphics/SVG/1.1/DTD/svg11.dtd">
<!-- Generated by graphviz version 2.40.1 (20161225.0304)
 -->
<!-- Title: Array::begin Pages: 1 -->
<svg width="580pt" height="317pt"
 viewBox="0.00 0.00 580.00 316.50" xmlns="http://www.w3.org/2000/svg" xmlns:xlink="http://www.w3.org/1999/xlink">
<g id="graph0" class="graph" transform="scale(1 1) rotate(0) translate(4 312.5)">
<title>Array::begin</title>
<polygon fill="#ffffff" stroke="transparent" points="-4,4 -4,-312.5 576,-312.5 576,4 -4,4"/>
<!-- Node1 -->
<g id="node1" class="node">
<title>Node1</title>
<g id="a_node1"><a xlink:title=" ">
<polygon fill="#bfbfbf" stroke="#000000" points="497,-133.5 497,-152.5 572,-152.5 572,-133.5 497,-133.5"/>
<text text-anchor="middle" x="534.5" y="-140.5" font-family="Helvetica,sans-Serif" font-size="10.00" fill="#000000">Array::begin</text>
</a>
</g>
</g>
<!-- Node2 -->
<g id="node2" class="node">
<title>Node2</title>
<g id="a_node2"><a xlink:href="structArray.html#a30692f2d1c23322027a90fd0cc2df449" target="_top" xlink:title=" ">
<polygon fill="#ffffff" stroke="#000000" points="348,-278 348,-308 461,-308 461,-278 348,-278"/>
<text text-anchor="start" x="356" y="-296" font-family="Helvetica,sans-Serif" font-size="10.00" fill="#000000">Array&lt; T, Rm, Cn &gt;</text>
<text text-anchor="middle" x="404.5" y="-285" font-family="Helvetica,sans-Serif" font-size="10.00" fill="#000000">::fromCppArray</text>
</a>
</g>
</g>
<!-- Node1&#45;&gt;Node2 -->
<g id="edge1" class="edge">
<title>Node1&#45;&gt;Node2</title>
<path fill="none" stroke="#191970" d="M527.8201,-162.1112C517.4492,-189.2544 495.0545,-238.9989 461,-269 457.1616,-272.3815 452.7762,-275.3388 448.184,-277.9119"/>
<polygon fill="#191970" stroke="#191970" points="531.1526,-163.1894 531.3136,-152.5958 524.5815,-160.7768 531.1526,-163.1894"/>
</g>
<!-- Node3 -->
<g id="node3" class="node">
<title>Node3</title>
<g id="a_node3"><a xlink:href="structArray.html#acca20d951f89e064f92c64d357e7bb6f" target="_top" xlink:title=" ">
<polygon fill="#ffffff" stroke="#000000" points="348,-229 348,-259 461,-259 461,-229 348,-229"/>
<text text-anchor="start" x="356" y="-247" font-family="Helvetica,sans-Serif" font-size="10.00" fill="#000000">Array&lt; T, Rm, Cn &gt;</text>
<text text-anchor="middle" x="404.5" y="-236" font-family="Helvetica,sans-Serif" font-size="10.00" fill="#000000">::fromCArray</text>
</a>
</g>
</g>
<!-- Node1&#45;&gt;Node3 -->
<g id="edge2" class="edge">
<title>Node1&#45;&gt;Node3</title>
<path fill="none" stroke="#191970" d="M520.9901,-160.4638C507.3165,-177.2178 484.8407,-202.3604 461,-219 455.7225,-222.6834 449.8152,-226.0136 443.8632,-228.9536"/>
<polygon fill="#191970" stroke="#191970" points="523.7979,-162.5564 527.2987,-152.5566 518.3261,-158.1907 523.7979,-162.5564"/>
</g>
<!-- Node4 -->
<g id="node4" class="node">
<title>Node4</title>
<g id="a_node4"><a xlink:href="Array_8hpp.html#ab8a62286cf94935432fb15208c352d31" target="_top" xlink:title=" ">
<polygon fill="#ffffff" stroke="#000000" points="379.5,-190.5 379.5,-209.5 429.5,-209.5 429.5,-190.5 379.5,-190.5"/>
<text text-anchor="middle" x="404.5" y="-197.5" font-family="Helvetica,sans-Serif" font-size="10.00" fill="#000000">isfinite</text>
</a>
</g>
</g>
<!-- Node1&#45;&gt;Node4 -->
<g id="edge3" class="edge">
<title>Node1&#45;&gt;Node4</title>
<path fill="none" stroke="#191970" d="M508.9405,-157.4391C495.0149,-164.9916 477.3349,-174.0787 461,-181 450.8995,-185.2797 439.4767,-189.2728 429.5583,-192.4829"/>
<polygon fill="#191970" stroke="#191970" points="510.8433,-160.3871 517.9189,-152.5012 507.4699,-154.2535 510.8433,-160.3871"/>
</g>
<!-- Node5 -->
<g id="node5" class="node">
<title>Node5</title>
<g id="a_node5"><a xlink:href="Array_8hpp.html#a8210ee35a21cf8114e4f40920a6e0abf" target="_top" xlink:title=" ">
<polygon fill="#ffffff" stroke="#000000" points="385.5,-152.5 385.5,-171.5 423.5,-171.5 423.5,-152.5 385.5,-152.5"/>
<text text-anchor="middle" x="404.5" y="-159.5" font-family="Helvetica,sans-Serif" font-size="10.00" fill="#000000">sum</text>
</a>
</g>
</g>
<!-- Node1&#45;&gt;Node5 -->
<g id="edge4" class="edge">
<title>Node1&#45;&gt;Node5</title>
<path fill="none" stroke="#191970" d="M486.7579,-149.9777C464.8772,-153.1756 440.1838,-156.7847 423.6121,-159.2067"/>
<polygon fill="#191970" stroke="#191970" points="487.5099,-153.4051 496.8986,-148.4956 486.4975,-146.4786 487.5099,-153.4051"/>
</g>
<!-- Node11 -->
<g id="node11" class="node">
<title>Node11</title>
<g id="a_node11"><a xlink:href="ArrayHelpers_8hpp.html#a302eae526b10a18783bc2623ee9fe646" target="_top" xlink:title="Generate an array where the first value is given, and the subsequent values are calculated as the pre...">
<polygon fill="#ffffff" stroke="#000000" points="358.5,-114.5 358.5,-133.5 450.5,-133.5 450.5,-114.5 358.5,-114.5"/>
<text text-anchor="middle" x="404.5" y="-121.5" font-family="Helvetica,sans-Serif" font-size="10.00" fill="#000000">generatedArray</text>
</a>
</g>
</g>
<!-- Node1&#45;&gt;Node11 -->
<g id="edge11" class="edge">
<title>Node1&#45;&gt;Node11</title>
<path fill="none" stroke="#191970" d="M486.8173,-136.031C475.0579,-134.3123 462.4829,-132.4744 450.7908,-130.7656"/>
<polygon fill="#191970" stroke="#191970" points="486.4975,-139.5214 496.8986,-137.5044 487.5099,-132.5949 486.4975,-139.5214"/>
</g>
<!-- Node12 -->
<g id="node12" class="node">
<title>Node12</title>
<g id="a_node12"><a xlink:href="ArrayHelpers_8hpp.html#a021512d0f49f5f3ac08ebac9bb547cfc" target="_top" xlink:title=" ">
<polygon fill="#ffffff" stroke="#000000" points="371,-76.5 371,-95.5 438,-95.5 438,-76.5 371,-76.5"/>
<text text-anchor="middle" x="404.5" y="-83.5" font-family="Helvetica,sans-Serif" font-size="10.00" fill="#000000">filledArray</text>
</a>
</g>
</g>
<!-- Node1&#45;&gt;Node12 -->
<g id="edge12" class="edge">
<title>Node1&#45;&gt;Node12</title>
<path fill="none" stroke="#191970" d="M508.9405,-128.5609C495.0149,-121.0084 477.3349,-111.9213 461,-105 452.9006,-101.5682 443.9508,-98.3206 435.6084,-95.5133"/>
<polygon fill="#191970" stroke="#191970" points="507.4699,-131.7465 517.9189,-133.4988 510.8433,-125.6129 507.4699,-131.7465"/>
</g>
<!-- Node13 -->
<g id="node13" class="node">
<title>Node13</title>
<g id="a_node13"><a xlink:href="MatrixHelpers_8hpp.html#a97dc20f082415c3707e56be3bec40f33" target="_top" xlink:title=" ">
<polygon fill="#ffffff" stroke="#000000" points="366,-38.5 366,-57.5 443,-57.5 443,-38.5 366,-38.5"/>
<text text-anchor="middle" x="404.5" y="-45.5" font-family="Helvetica,sans-Serif" font-size="10.00" fill="#000000">filledTMatrix</text>
</a>
</g>
</g>
<!-- Node1&#45;&gt;Node13 -->
<g id="edge13" class="edge">
<title>Node1&#45;&gt;Node13</title>
<path fill="none" stroke="#191970" d="M521.5292,-125.3248C508.1215,-108.2046 485.7141,-82.607 461,-67 455.0499,-63.2425 448.2744,-60.1406 441.5317,-57.6111"/>
<polygon fill="#191970" stroke="#191970" points="518.8414,-127.5723 527.6848,-133.407 524.4102,-123.3309 518.8414,-127.5723"/>
</g>
<!-- Node14 -->
<g id="node14" class="node">
<title>Node14</title>
<g id="a_node14"><a xlink:href="MatrixHelpers_8hpp.html#a0143e59b28ca53207a87f0a2d0873bf4" target="_top" xlink:title=" ">
<polygon fill="#ffffff" stroke="#000000" points="369,-.5 369,-19.5 440,-19.5 440,-.5 369,-.5"/>
<text text-anchor="middle" x="404.5" y="-7.5" font-family="Helvetica,sans-Serif" font-size="10.00" fill="#000000">filledMatrix</text>
</a>
</g>
</g>
<!-- Node1&#45;&gt;Node14 -->
<g id="edge14" class="edge">
<title>Node1&#45;&gt;Node14</title>
<path fill="none" stroke="#191970" d="M526.9952,-123.9222C516.1278,-98.6804 493.6688,-54.4208 461,-29 454.8744,-24.2335 447.4886,-20.629 440.1068,-17.9149"/>
<polygon fill="#191970" stroke="#191970" points="523.7657,-125.2715 530.8234,-133.1734 530.2338,-122.595 523.7657,-125.2715"/>
</g>
<!-- Node6 -->
<g id="node6" class="node">
<title>Node6</title>
<g id="a_node6"><a xlink:href="structSquare.html#a12c1f0ee0bd30021a5a7d7344538fef9" target="_top" xlink:title="Get the average angle of the sides of the square .">
<polygon fill="#ffffff" stroke="#000000" points="212,-209.5 212,-228.5 312,-228.5 312,-209.5 212,-209.5"/>
<text text-anchor="middle" x="262" y="-216.5" font-family="Helvetica,sans-Serif" font-size="10.00" fill="#000000">Square::getAngle</text>
</a>
</g>
</g>
<!-- Node5&#45;&gt;Node6 -->
<g id="edge5" class="edge">
<title>Node5&#45;&gt;Node6</title>
<path fill="none" stroke="#191970" d="M375.7104,-170.6871C366.721,-173.6632 356.8458,-177.2077 348,-181 331.372,-188.1287 328.4868,-192.5506 312,-200 304.6377,-203.3266 296.5048,-206.5865 288.9753,-209.4409"/>
<polygon fill="#191970" stroke="#191970" points="376.9278,-173.9723 385.3811,-167.5854 374.7899,-167.3067 376.9278,-173.9723"/>
</g>
<!-- Node7 -->
<g id="node7" class="node">
<title>Node7</title>
<g id="a_node7"><a xlink:href="HouseholderQR_8hpp.html#a16f7547f23439d1eda0fcbde69451ef9" target="_top" xlink:title=" ">
<polygon fill="#ffffff" stroke="#000000" points="216.5,-171.5 216.5,-190.5 307.5,-190.5 307.5,-171.5 216.5,-171.5"/>
<text text-anchor="middle" x="262" y="-178.5" font-family="Helvetica,sans-Serif" font-size="10.00" fill="#000000">householderQR</text>
</a>
</g>
</g>
<!-- Node5&#45;&gt;Node7 -->
<g id="edge6" class="edge">
<title>Node5&#45;&gt;Node7</title>
<path fill="none" stroke="#191970" d="M375.1873,-165.9084C355.6949,-168.5073 329.7009,-171.9732 307.5394,-174.9281"/>
<polygon fill="#191970" stroke="#191970" points="375.8321,-169.3534 385.2818,-164.5624 374.9069,-162.4148 375.8321,-169.3534"/>
</g>
<!-- Node8 -->
<g id="node8" class="node">
<title>Node8</title>
<g id="a_node8"><a xlink:href="LeastSquares_8hpp.html#a3e86962f655361a684f770b14c9fe1e2" target="_top" xlink:title=" ">
<polygon fill="#ffffff" stroke="#000000" points="68,-152.5 68,-171.5 176,-171.5 176,-152.5 68,-152.5"/>
<text text-anchor="middle" x="122" y="-159.5" font-family="Helvetica,sans-Serif" font-size="10.00" fill="#000000">solveLeastSquares</text>
</a>
</g>
</g>
<!-- Node5&#45;&gt;Node8 -->
<g id="edge9" class="edge">
<title>Node5&#45;&gt;Node8</title>
<path fill="none" stroke="#191970" d="M374.9631,-162C327.9505,-162 235.3819,-162 176.2103,-162"/>
<polygon fill="#191970" stroke="#191970" points="375.0827,-165.5001 385.0826,-162 375.0826,-158.5001 375.0827,-165.5001"/>
</g>
<!-- Node10 -->
<g id="node10" class="node">
<title>Node10</title>
<g id="a_node10"><a xlink:href="Matrix_8hpp.html#a341f99d67c7fef72e0432138c6d4fc34" target="_top" xlink:title=" ">
<polygon fill="#ffffff" stroke="#000000" points="230.5,-95.5 230.5,-114.5 293.5,-114.5 293.5,-95.5 230.5,-95.5"/>
<text text-anchor="middle" x="262" y="-102.5" font-family="Helvetica,sans-Serif" font-size="10.00" fill="#000000">operator*</text>
</a>
</g>
</g>
<!-- Node5&#45;&gt;Node10 -->
<g id="edge10" class="edge">
<title>Node5&#45;&gt;Node10</title>
<path fill="none" stroke="#191970" d="M375.6535,-152.8658C366.7273,-149.8881 356.9022,-146.4552 348,-143 325.1743,-134.1406 299.5717,-122.6171 282.283,-114.593"/>
<polygon fill="#191970" stroke="#191970" points="374.6597,-156.2232 385.2524,-156.0113 376.8396,-149.5713 374.6597,-156.2232"/>
</g>
<!-- Node7&#45;&gt;Node8 -->
<g id="edge7" class="edge">
<title>Node7&#45;&gt;Node8</title>
<path fill="none" stroke="#191970" d="M206.0812,-173.411C196.2434,-172.0759 186.0185,-170.6882 176.2278,-169.3595"/>
<polygon fill="#191970" stroke="#191970" points="205.7789,-176.902 216.1588,-174.7787 206.7203,-169.9656 205.7789,-176.902"/>
</g>
<!-- Node9 -->
<g id="node9" class="node">
<title>Node9</title>
<g id="a_node9"><a xlink:href="LeastSquares_8hpp.html#abc455a395ab6414f5312b56e5b479195" target="_top" xlink:title=" ">
<polygon fill="#ffffff" stroke="#000000" points="0,-152.5 0,-171.5 32,-171.5 32,-152.5 0,-152.5"/>
<text text-anchor="middle" x="16" y="-159.5" font-family="Helvetica,sans-Serif" font-size="10.00" fill="#000000">inv</text>
</a>
</g>
</g>
<!-- Node8&#45;&gt;Node9 -->
<g id="edge8" class="edge">
<title>Node8&#45;&gt;Node9</title>
<path fill="none" stroke="#191970" d="M57.7466,-162C48.2629,-162 39.2831,-162 32.0991,-162"/>
<polygon fill="#191970" stroke="#191970" points="57.7579,-165.5001 67.7579,-162 57.7579,-158.5001 57.7579,-165.5001"/>
</g>
</g>
</svg>
