<?xml version="1.0" encoding="UTF-8" standalone="no"?>
<!DOCTYPE svg PUBLIC "-//W3C//DTD SVG 1.1//EN"
 "http://www.w3.org/Graphics/SVG/1.1/DTD/svg11.dtd">
<!-- Generated by graphviz version 2.40.1 (20161225.0304)
 -->
<!-- Title: /home/pieter/GitHub/EAGLE&#45;ZYBO&#45;Linux/src/crypto/src/swImplementation.cpp Pages: 1 -->
<svg width="437pt" height="218pt"
 viewBox="0.00 0.00 437.00 218.00" xmlns="http://www.w3.org/2000/svg" xmlns:xlink="http://www.w3.org/1999/xlink">
<g id="graph0" class="graph" transform="scale(1 1) rotate(0) translate(4 214)">
<title>/home/pieter/GitHub/EAGLE&#45;ZYBO&#45;Linux/src/crypto/src/swImplementation.cpp</title>
<polygon fill="#ffffff" stroke="transparent" points="-4,4 -4,-214 433,-214 433,4 -4,4"/>
<!-- Node0 -->
<g id="node1" class="node">
<title>Node0</title>
<g id="a_node1"><a xlink:title=" ">
<polygon fill="#bfbfbf" stroke="#000000" points="158,-168.5 158,-209.5 340,-209.5 340,-168.5 158,-168.5"/>
<text text-anchor="start" x="166" y="-197.5" font-family="Helvetica,sans-Serif" font-size="10.00" fill="#000000">/home/pieter/GitHub</text>
<text text-anchor="start" x="166" y="-186.5" font-family="Helvetica,sans-Serif" font-size="10.00" fill="#000000">/EAGLE&#45;ZYBO&#45;Linux/src</text>
<text text-anchor="middle" x="249" y="-175.5" font-family="Helvetica,sans-Serif" font-size="10.00" fill="#000000">/crypto/src/swImplementation.cpp</text>
</a>
</g>
</g>
<!-- Node1 -->
<g id="node2" class="node">
<title>Node1</title>
<g id="a_node2"><a xlink:href="swImplementation_8hpp.html" target="_top" xlink:title=" ">
<polygon fill="#ffffff" stroke="#000000" points="56.5,-112.5 56.5,-131.5 185.5,-131.5 185.5,-112.5 56.5,-112.5"/>
<text text-anchor="middle" x="121" y="-119.5" font-family="Helvetica,sans-Serif" font-size="10.00" fill="#000000">swImplementation.hpp</text>
</a>
</g>
</g>
<!-- Node0&#45;&gt;Node1 -->
<g id="edge1" class="edge">
<title>Node0&#45;&gt;Node1</title>
<path fill="none" stroke="#191970" d="M209.5513,-168.3511C189.8422,-158.0346 166.4716,-145.8015 148.6898,-136.4939"/>
<polygon fill="#191970" stroke="#191970" points="149.9275,-133.1913 139.4447,-131.6546 146.6812,-139.3931 149.9275,-133.1913"/>
</g>
<!-- Node7 -->
<g id="node8" class="node">
<title>Node7</title>
<g id="a_node8"><a xlink:href="EagleCrypt_8hpp.html" target="_top" xlink:title=" ">
<polygon fill="#ffffff" stroke="#000000" points="203.5,-112.5 203.5,-131.5 294.5,-131.5 294.5,-112.5 203.5,-112.5"/>
<text text-anchor="middle" x="249" y="-119.5" font-family="Helvetica,sans-Serif" font-size="10.00" fill="#000000">EagleCrypt.hpp</text>
</a>
</g>
</g>
<!-- Node0&#45;&gt;Node7 -->
<g id="edge7" class="edge">
<title>Node0&#45;&gt;Node7</title>
<path fill="none" stroke="#191970" d="M249,-168.168C249,-159.8226 249,-150.2471 249,-141.9879"/>
<polygon fill="#191970" stroke="#191970" points="252.5001,-141.7804 249,-131.7805 245.5001,-141.7805 252.5001,-141.7804"/>
</g>
<!-- Node8 -->
<g id="node9" class="node">
<title>Node8</title>
<g id="a_node9"><a xlink:href="cryptoException_8hpp.html" target="_top" xlink:title=" ">
<polygon fill="#ffffff" stroke="#000000" points="313,-112.5 313,-131.5 429,-131.5 429,-112.5 313,-112.5"/>
<text text-anchor="middle" x="371" y="-119.5" font-family="Helvetica,sans-Serif" font-size="10.00" fill="#000000">cryptoException.hpp</text>
</a>
</g>
</g>
<!-- Node0&#45;&gt;Node8 -->
<g id="edge8" class="edge">
<title>Node0&#45;&gt;Node8</title>
<path fill="none" stroke="#191970" d="M286.5995,-168.3511C305.3848,-158.0346 327.6599,-145.8015 344.6082,-136.4939"/>
<polygon fill="#191970" stroke="#191970" points="346.3395,-139.5362 353.4199,-131.6546 342.9699,-133.4005 346.3395,-139.5362"/>
</g>
<!-- Node2 -->
<g id="node3" class="node">
<title>Node2</title>
<g id="a_node3"><a xlink:href="bitString_8hpp.html" target="_top" xlink:title=" ">
<polygon fill="#ffffff" stroke="#000000" points="81.5,-56.5 81.5,-75.5 160.5,-75.5 160.5,-56.5 81.5,-56.5"/>
<text text-anchor="middle" x="121" y="-63.5" font-family="Helvetica,sans-Serif" font-size="10.00" fill="#000000">bitString.hpp</text>
</a>
</g>
</g>
<!-- Node1&#45;&gt;Node2 -->
<g id="edge2" class="edge">
<title>Node1&#45;&gt;Node2</title>
<path fill="none" stroke="#191970" d="M121,-112.2455C121,-104.9382 121,-94.6944 121,-85.7046"/>
<polygon fill="#191970" stroke="#191970" points="124.5001,-85.6426 121,-75.6427 117.5001,-85.6427 124.5001,-85.6426"/>
</g>
<!-- Node3 -->
<g id="node4" class="node">
<title>Node3</title>
<g id="a_node4"><a xlink:title=" ">
<polygon fill="#ffffff" stroke="#bfbfbf" points="0,-.5 0,-19.5 42,-19.5 42,-.5 0,-.5"/>
<text text-anchor="middle" x="21" y="-7.5" font-family="Helvetica,sans-Serif" font-size="10.00" fill="#000000">array</text>
</a>
</g>
</g>
<!-- Node2&#45;&gt;Node3 -->
<g id="edge3" class="edge">
<title>Node2&#45;&gt;Node3</title>
<path fill="none" stroke="#191970" d="M103.5813,-56.2455C87.9515,-47.4928 64.7981,-34.527 46.9815,-24.5496"/>
<polygon fill="#191970" stroke="#191970" points="48.6543,-21.475 38.2191,-19.6427 45.234,-27.5825 48.6543,-21.475"/>
</g>
<!-- Node4 -->
<g id="node5" class="node">
<title>Node4</title>
<g id="a_node5"><a xlink:title=" ">
<polygon fill="#ffffff" stroke="#bfbfbf" points="60,-.5 60,-19.5 110,-19.5 110,-.5 60,-.5"/>
<text text-anchor="middle" x="85" y="-7.5" font-family="Helvetica,sans-Serif" font-size="10.00" fill="#000000">cstdint</text>
</a>
</g>
</g>
<!-- Node2&#45;&gt;Node4 -->
<g id="edge4" class="edge">
<title>Node2&#45;&gt;Node4</title>
<path fill="none" stroke="#191970" d="M114.7293,-56.2455C109.7736,-48.5367 102.717,-37.5598 96.7224,-28.2348"/>
<polygon fill="#191970" stroke="#191970" points="99.5506,-26.1618 91.1989,-19.6427 93.6624,-29.9471 99.5506,-26.1618"/>
</g>
<!-- Node5 -->
<g id="node6" class="node">
<title>Node5</title>
<g id="a_node6"><a xlink:title=" ">
<polygon fill="#ffffff" stroke="#bfbfbf" points="128,-.5 128,-19.5 188,-19.5 188,-.5 128,-.5"/>
<text text-anchor="middle" x="158" y="-7.5" font-family="Helvetica,sans-Serif" font-size="10.00" fill="#000000">iostream</text>
</a>
</g>
</g>
<!-- Node2&#45;&gt;Node5 -->
<g id="edge5" class="edge">
<title>Node2&#45;&gt;Node5</title>
<path fill="none" stroke="#191970" d="M127.4449,-56.2455C132.5382,-48.5367 139.7908,-37.5598 145.952,-28.2348"/>
<polygon fill="#191970" stroke="#191970" points="149.0365,-29.9155 151.6289,-19.6427 143.1962,-26.0566 149.0365,-29.9155"/>
</g>
<!-- Node6 -->
<g id="node7" class="node">
<title>Node6</title>
<g id="a_node7"><a xlink:title=" ">
<polygon fill="#ffffff" stroke="#bfbfbf" points="206.5,-.5 206.5,-19.5 253.5,-19.5 253.5,-.5 206.5,-.5"/>
<text text-anchor="middle" x="230" y="-7.5" font-family="Helvetica,sans-Serif" font-size="10.00" fill="#000000">vector</text>
</a>
</g>
</g>
<!-- Node2&#45;&gt;Node6 -->
<g id="edge6" class="edge">
<title>Node2&#45;&gt;Node6</title>
<path fill="none" stroke="#191970" d="M139.9864,-56.2455C157.1792,-47.4125 182.7238,-34.2887 202.2132,-24.2758"/>
<polygon fill="#191970" stroke="#191970" points="203.9359,-27.3257 211.2312,-19.6427 200.737,-21.0993 203.9359,-27.3257"/>
</g>
<!-- Node9 -->
<g id="node10" class="node">
<title>Node9</title>
<g id="a_node10"><a xlink:title=" ">
<polygon fill="#ffffff" stroke="#bfbfbf" points="301.5,-56.5 301.5,-75.5 366.5,-75.5 366.5,-56.5 301.5,-56.5"/>
<text text-anchor="middle" x="334" y="-63.5" font-family="Helvetica,sans-Serif" font-size="10.00" fill="#000000">exception</text>
</a>
</g>
</g>
<!-- Node8&#45;&gt;Node9 -->
<g id="edge9" class="edge">
<title>Node8&#45;&gt;Node9</title>
<path fill="none" stroke="#191970" d="M364.5551,-112.2455C359.4618,-104.5367 352.2092,-93.5598 346.048,-84.2348"/>
<polygon fill="#191970" stroke="#191970" points="348.8038,-82.0566 340.3711,-75.6427 342.9635,-85.9155 348.8038,-82.0566"/>
</g>
<!-- Node10 -->
<g id="node11" class="node">
<title>Node10</title>
<g id="a_node11"><a xlink:title=" ">
<polygon fill="#ffffff" stroke="#bfbfbf" points="385,-56.5 385,-75.5 429,-75.5 429,-56.5 385,-56.5"/>
<text text-anchor="middle" x="407" y="-63.5" font-family="Helvetica,sans-Serif" font-size="10.00" fill="#000000">string</text>
</a>
</g>
</g>
<!-- Node8&#45;&gt;Node10 -->
<g id="edge10" class="edge">
<title>Node8&#45;&gt;Node10</title>
<path fill="none" stroke="#191970" d="M377.2707,-112.2455C382.2264,-104.5367 389.283,-93.5598 395.2776,-84.2348"/>
<polygon fill="#191970" stroke="#191970" points="398.3376,-85.9471 400.8011,-75.6427 392.4494,-82.1618 398.3376,-85.9471"/>
</g>
</g>
</svg>
