<?xml version="1.0" encoding="UTF-8" standalone="no"?>
<!DOCTYPE svg PUBLIC "-//W3C//DTD SVG 1.1//EN"
 "http://www.w3.org/Graphics/SVG/1.1/DTD/svg11.dtd">
<!-- Generated by graphviz version 2.40.1 (20161225.0304)
 -->
<!-- Title: /home/pieter/GitHub/EAGLE&#45;ZYBO&#45;Linux/src/crypto/src/swImplementation.cpp Pages: 1 -->
<svg width="474pt" height="330pt"
 viewBox="0.00 0.00 474.00 330.00" xmlns="http://www.w3.org/2000/svg" xmlns:xlink="http://www.w3.org/1999/xlink">
<g id="graph0" class="graph" transform="scale(1 1) rotate(0) translate(4 326)">
<title>/home/pieter/GitHub/EAGLE&#45;ZYBO&#45;Linux/src/crypto/src/swImplementation.cpp</title>
<polygon fill="#ffffff" stroke="transparent" points="-4,4 -4,-326 470,-326 470,4 -4,4"/>
<!-- Node0 -->
<g id="node1" class="node">
<title>Node0</title>
<g id="a_node1"><a xlink:title=" ">
<polygon fill="#bfbfbf" stroke="#000000" points="195,-280.5 195,-321.5 377,-321.5 377,-280.5 195,-280.5"/>
<text text-anchor="start" x="203" y="-309.5" font-family="Helvetica,sans-Serif" font-size="10.00" fill="#000000">/home/pieter/GitHub</text>
<text text-anchor="start" x="203" y="-298.5" font-family="Helvetica,sans-Serif" font-size="10.00" fill="#000000">/EAGLE&#45;ZYBO&#45;Linux/src</text>
<text text-anchor="middle" x="286" y="-287.5" font-family="Helvetica,sans-Serif" font-size="10.00" fill="#000000">/crypto/src/swImplementation.cpp</text>
</a>
</g>
</g>
<!-- Node1 -->
<g id="node2" class="node">
<title>Node1</title>
<g id="a_node2"><a xlink:href="swImplementation_8hpp.html" target="_top" xlink:title=" ">
<polygon fill="#ffffff" stroke="#000000" points="93.5,-224.5 93.5,-243.5 222.5,-243.5 222.5,-224.5 93.5,-224.5"/>
<text text-anchor="middle" x="158" y="-231.5" font-family="Helvetica,sans-Serif" font-size="10.00" fill="#000000">swImplementation.hpp</text>
</a>
</g>
</g>
<!-- Node0&#45;&gt;Node1 -->
<g id="edge1" class="edge">
<title>Node0&#45;&gt;Node1</title>
<path fill="none" stroke="#191970" d="M246.5513,-280.3511C226.8422,-270.0346 203.4716,-257.8015 185.6898,-248.4939"/>
<polygon fill="#191970" stroke="#191970" points="186.9275,-245.1913 176.4447,-243.6546 183.6812,-251.3931 186.9275,-245.1913"/>
</g>
<!-- Node10 -->
<g id="node11" class="node">
<title>Node10</title>
<g id="a_node11"><a xlink:href="EagleCrypt_8hpp.html" target="_top" xlink:title=" ">
<polygon fill="#ffffff" stroke="#000000" points="240.5,-224.5 240.5,-243.5 331.5,-243.5 331.5,-224.5 240.5,-224.5"/>
<text text-anchor="middle" x="286" y="-231.5" font-family="Helvetica,sans-Serif" font-size="10.00" fill="#000000">EagleCrypt.hpp</text>
</a>
</g>
</g>
<!-- Node0&#45;&gt;Node10 -->
<g id="edge12" class="edge">
<title>Node0&#45;&gt;Node10</title>
<path fill="none" stroke="#191970" d="M286,-280.168C286,-271.8226 286,-262.2471 286,-253.9879"/>
<polygon fill="#191970" stroke="#191970" points="289.5001,-253.7804 286,-243.7805 282.5001,-253.7805 289.5001,-253.7804"/>
</g>
<!-- Node11 -->
<g id="node12" class="node">
<title>Node11</title>
<g id="a_node12"><a xlink:href="cryptoException_8hpp.html" target="_top" xlink:title=" ">
<polygon fill="#ffffff" stroke="#000000" points="350,-224.5 350,-243.5 466,-243.5 466,-224.5 350,-224.5"/>
<text text-anchor="middle" x="408" y="-231.5" font-family="Helvetica,sans-Serif" font-size="10.00" fill="#000000">cryptoException.hpp</text>
</a>
</g>
</g>
<!-- Node0&#45;&gt;Node11 -->
<g id="edge13" class="edge">
<title>Node0&#45;&gt;Node11</title>
<path fill="none" stroke="#191970" d="M323.5995,-280.3511C342.3848,-270.0346 364.6599,-257.8015 381.6082,-248.4939"/>
<polygon fill="#191970" stroke="#191970" points="383.3395,-251.5362 390.4199,-243.6546 379.9699,-245.4005 383.3395,-251.5362"/>
</g>
<!-- Node2 -->
<g id="node3" class="node">
<title>Node2</title>
<g id="a_node3"><a xlink:href="cryptoImplementation_8hpp.html" target="_top" xlink:title=" ">
<polygon fill="#ffffff" stroke="#000000" points="85,-168.5 85,-187.5 231,-187.5 231,-168.5 85,-168.5"/>
<text text-anchor="middle" x="158" y="-175.5" font-family="Helvetica,sans-Serif" font-size="10.00" fill="#000000">cryptoImplementation.hpp</text>
</a>
</g>
</g>
<!-- Node1&#45;&gt;Node2 -->
<g id="edge2" class="edge">
<title>Node1&#45;&gt;Node2</title>
<path fill="none" stroke="#191970" d="M158,-224.2455C158,-216.9382 158,-206.6944 158,-197.7046"/>
<polygon fill="#191970" stroke="#191970" points="161.5001,-197.6426 158,-187.6427 154.5001,-197.6427 161.5001,-197.6426"/>
</g>
<!-- Node3 -->
<g id="node4" class="node">
<title>Node3</title>
<g id="a_node4"><a xlink:href="bitString_8hpp.html" target="_top" xlink:title=" ">
<polygon fill="#ffffff" stroke="#000000" points="118.5,-112.5 118.5,-131.5 197.5,-131.5 197.5,-112.5 118.5,-112.5"/>
<text text-anchor="middle" x="158" y="-119.5" font-family="Helvetica,sans-Serif" font-size="10.00" fill="#000000">bitString.hpp</text>
</a>
</g>
</g>
<!-- Node2&#45;&gt;Node3 -->
<g id="edge3" class="edge">
<title>Node2&#45;&gt;Node3</title>
<path fill="none" stroke="#191970" d="M158,-168.2455C158,-160.9382 158,-150.6944 158,-141.7046"/>
<polygon fill="#191970" stroke="#191970" points="161.5001,-141.6426 158,-131.6427 154.5001,-141.6427 161.5001,-141.6426"/>
</g>
<!-- Node4 -->
<g id="node5" class="node">
<title>Node4</title>
<g id="a_node5"><a xlink:title=" ">
<polygon fill="#ffffff" stroke="#bfbfbf" points="0,-56.5 0,-75.5 42,-75.5 42,-56.5 0,-56.5"/>
<text text-anchor="middle" x="21" y="-63.5" font-family="Helvetica,sans-Serif" font-size="10.00" fill="#000000">array</text>
</a>
</g>
</g>
<!-- Node3&#45;&gt;Node4 -->
<g id="edge4" class="edge">
<title>Node3&#45;&gt;Node4</title>
<path fill="none" stroke="#191970" d="M134.4489,-112.3733C111.4855,-102.9868 76.4562,-88.6682 51.4002,-78.4263"/>
<polygon fill="#191970" stroke="#191970" points="52.5817,-75.1282 42.0008,-74.5843 49.9331,-81.6078 52.5817,-75.1282"/>
</g>
<!-- Node5 -->
<g id="node6" class="node">
<title>Node5</title>
<g id="a_node6"><a xlink:href="cryptoInstruction_8hpp.html" target="_top" xlink:title=" ">
<polygon fill="#ffffff" stroke="#000000" points="98,-56.5 98,-75.5 218,-75.5 218,-56.5 98,-56.5"/>
<text text-anchor="middle" x="158" y="-63.5" font-family="Helvetica,sans-Serif" font-size="10.00" fill="#000000">cryptoInstruction.hpp</text>
</a>
</g>
</g>
<!-- Node3&#45;&gt;Node5 -->
<g id="edge5" class="edge">
<title>Node3&#45;&gt;Node5</title>
<path fill="none" stroke="#191970" d="M158,-112.2455C158,-104.9382 158,-94.6944 158,-85.7046"/>
<polygon fill="#191970" stroke="#191970" points="161.5001,-85.6426 158,-75.6427 154.5001,-85.6427 161.5001,-85.6426"/>
</g>
<!-- Node6 -->
<g id="node7" class="node">
<title>Node6</title>
<g id="a_node7"><a xlink:title=" ">
<polygon fill="#ffffff" stroke="#bfbfbf" points="51,-.5 51,-19.5 101,-19.5 101,-.5 51,-.5"/>
<text text-anchor="middle" x="76" y="-7.5" font-family="Helvetica,sans-Serif" font-size="10.00" fill="#000000">cstdint</text>
</a>
</g>
</g>
<!-- Node3&#45;&gt;Node6 -->
<g id="edge9" class="edge">
<title>Node3&#45;&gt;Node6</title>
<path fill="none" stroke="#191970" d="M140.5423,-112.4396C122.3525,-102.1324 95.5948,-85.8786 89,-76 79.8927,-62.3578 76.8656,-43.8183 75.9884,-29.8617"/>
<polygon fill="#191970" stroke="#191970" points="79.4856,-29.7166 75.6707,-19.8325 72.4891,-29.9383 79.4856,-29.7166"/>
</g>
<!-- Node8 -->
<g id="node9" class="node">
<title>Node8</title>
<g id="a_node9"><a xlink:title=" ">
<polygon fill="#ffffff" stroke="#bfbfbf" points="215.5,-.5 215.5,-19.5 262.5,-19.5 262.5,-.5 215.5,-.5"/>
<text text-anchor="middle" x="239" y="-7.5" font-family="Helvetica,sans-Serif" font-size="10.00" fill="#000000">vector</text>
</a>
</g>
</g>
<!-- Node3&#45;&gt;Node8 -->
<g id="edge11" class="edge">
<title>Node3&#45;&gt;Node8</title>
<path fill="none" stroke="#191970" d="M181.1775,-112.4379C196.6129,-104.849 216.0108,-92.7248 227,-76 235.9824,-62.3295 238.7206,-43.7927 239.3625,-29.8444"/>
<polygon fill="#191970" stroke="#191970" points="242.8624,-29.872 239.5072,-19.8225 235.8631,-29.7709 242.8624,-29.872"/>
</g>
<!-- Node9 -->
<g id="node10" class="node">
<title>Node9</title>
<g id="a_node10"><a xlink:title=" ">
<polygon fill="#ffffff" stroke="#bfbfbf" points="274,-56.5 274,-75.5 334,-75.5 334,-56.5 274,-56.5"/>
<text text-anchor="middle" x="304" y="-63.5" font-family="Helvetica,sans-Serif" font-size="10.00" fill="#000000">iostream</text>
</a>
</g>
</g>
<!-- Node3&#45;&gt;Node9 -->
<g id="edge10" class="edge">
<title>Node3&#45;&gt;Node9</title>
<path fill="none" stroke="#191970" d="M183.0983,-112.3733C206.9555,-103.2226 243.0335,-89.3844 269.571,-79.2057"/>
<polygon fill="#191970" stroke="#191970" points="271.1459,-82.3503 279.2292,-75.5011 268.639,-75.8145 271.1459,-82.3503"/>
</g>
<!-- Node5&#45;&gt;Node6 -->
<g id="edge6" class="edge">
<title>Node5&#45;&gt;Node6</title>
<path fill="none" stroke="#191970" d="M143.7167,-56.2455C131.253,-47.7337 112.9549,-35.2375 98.5208,-25.3801"/>
<polygon fill="#191970" stroke="#191970" points="100.3515,-22.392 90.1196,-19.6427 96.4038,-28.1726 100.3515,-22.392"/>
</g>
<!-- Node7 -->
<g id="node8" class="node">
<title>Node7</title>
<g id="a_node8"><a xlink:title=" ">
<polygon fill="#ffffff" stroke="#bfbfbf" points="125.5,-.5 125.5,-19.5 190.5,-19.5 190.5,-.5 125.5,-.5"/>
<text text-anchor="middle" x="158" y="-7.5" font-family="Helvetica,sans-Serif" font-size="10.00" fill="#000000">stdexcept</text>
</a>
</g>
</g>
<!-- Node5&#45;&gt;Node7 -->
<g id="edge7" class="edge">
<title>Node5&#45;&gt;Node7</title>
<path fill="none" stroke="#191970" d="M158,-56.2455C158,-48.9382 158,-38.6944 158,-29.7046"/>
<polygon fill="#191970" stroke="#191970" points="161.5001,-29.6426 158,-19.6427 154.5001,-29.6427 161.5001,-29.6426"/>
</g>
<!-- Node5&#45;&gt;Node8 -->
<g id="edge8" class="edge">
<title>Node5&#45;&gt;Node8</title>
<path fill="none" stroke="#191970" d="M172.1091,-56.2455C184.4209,-47.7337 202.4958,-35.2375 216.7538,-25.3801"/>
<polygon fill="#191970" stroke="#191970" points="218.8174,-28.2085 225.0526,-19.6427 214.8366,-22.4506 218.8174,-28.2085"/>
</g>
<!-- Node12 -->
<g id="node13" class="node">
<title>Node12</title>
<g id="a_node13"><a xlink:title=" ">
<polygon fill="#ffffff" stroke="#bfbfbf" points="338.5,-168.5 338.5,-187.5 403.5,-187.5 403.5,-168.5 338.5,-168.5"/>
<text text-anchor="middle" x="371" y="-175.5" font-family="Helvetica,sans-Serif" font-size="10.00" fill="#000000">exception</text>
</a>
</g>
</g>
<!-- Node11&#45;&gt;Node12 -->
<g id="edge14" class="edge">
<title>Node11&#45;&gt;Node12</title>
<path fill="none" stroke="#191970" d="M401.5551,-224.2455C396.4618,-216.5367 389.2092,-205.5598 383.048,-196.2348"/>
<polygon fill="#191970" stroke="#191970" points="385.8038,-194.0566 377.3711,-187.6427 379.9635,-197.9155 385.8038,-194.0566"/>
</g>
<!-- Node13 -->
<g id="node14" class="node">
<title>Node13</title>
<g id="a_node14"><a xlink:title=" ">
<polygon fill="#ffffff" stroke="#bfbfbf" points="422,-168.5 422,-187.5 466,-187.5 466,-168.5 422,-168.5"/>
<text text-anchor="middle" x="444" y="-175.5" font-family="Helvetica,sans-Serif" font-size="10.00" fill="#000000">string</text>
</a>
</g>
</g>
<!-- Node11&#45;&gt;Node13 -->
<g id="edge15" class="edge">
<title>Node11&#45;&gt;Node13</title>
<path fill="none" stroke="#191970" d="M414.2707,-224.2455C419.2264,-216.5367 426.283,-205.5598 432.2776,-196.2348"/>
<polygon fill="#191970" stroke="#191970" points="435.3376,-197.9471 437.8011,-187.6427 429.4494,-194.1618 435.3376,-197.9471"/>
</g>
</g>
</svg>
