<?xml version="1.0" encoding="UTF-8" standalone="no"?>
<!DOCTYPE svg PUBLIC "-//W3C//DTD SVG 1.1//EN"
 "http://www.w3.org/Graphics/SVG/1.1/DTD/svg11.dtd">
<!-- Generated by graphviz version 2.40.1 (20161225.0304)
 -->
<!-- Title: /home/pieter/GitHub/EAGLE&#45;ZYBO&#45;Linux/src/logger/include/ThreadedLogger.hpp Pages: 1 -->
<svg width="1518pt" height="498pt"
 viewBox="0.00 0.00 1517.50 498.00" xmlns="http://www.w3.org/2000/svg" xmlns:xlink="http://www.w3.org/1999/xlink">
<g id="graph0" class="graph" transform="scale(1 1) rotate(0) translate(4 494)">
<title>/home/pieter/GitHub/EAGLE&#45;ZYBO&#45;Linux/src/logger/include/ThreadedLogger.hpp</title>
<polygon fill="#ffffff" stroke="transparent" points="-4,4 -4,-494 1513.5,-494 1513.5,4 -4,4"/>
<!-- Node0 -->
<g id="node1" class="node">
<title>Node0</title>
<g id="a_node1"><a xlink:title=" ">
<polygon fill="#bfbfbf" stroke="#000000" points="842.5,-448.5 842.5,-489.5 1033.5,-489.5 1033.5,-448.5 842.5,-448.5"/>
<text text-anchor="start" x="850.5" y="-477.5" font-family="Helvetica,sans-Serif" font-size="10.00" fill="#000000">/home/pieter/GitHub</text>
<text text-anchor="start" x="850.5" y="-466.5" font-family="Helvetica,sans-Serif" font-size="10.00" fill="#000000">/EAGLE&#45;ZYBO&#45;Linux/src</text>
<text text-anchor="middle" x="938" y="-455.5" font-family="Helvetica,sans-Serif" font-size="10.00" fill="#000000">/logger/include/ThreadedLogger.hpp</text>
</a>
</g>
</g>
<!-- Node1 -->
<g id="node2" class="node">
<title>Node1</title>
<g id="a_node2"><a xlink:href="Logger_8hpp.html" target="_top" xlink:title=" ">
<polygon fill="#ffffff" stroke="#000000" points="825,-392.5 825,-411.5 895,-411.5 895,-392.5 825,-392.5"/>
<text text-anchor="middle" x="860" y="-399.5" font-family="Helvetica,sans-Serif" font-size="10.00" fill="#000000">Logger.hpp</text>
</a>
</g>
</g>
<!-- Node0&#45;&gt;Node1 -->
<g id="edge1" class="edge">
<title>Node0&#45;&gt;Node1</title>
<path fill="none" stroke="#191970" d="M913.7479,-448.168C902.597,-438.5897 889.5598,-427.3911 879.1181,-418.422"/>
<polygon fill="#191970" stroke="#191970" points="881.2525,-415.6414 871.3862,-411.7805 876.6914,-420.9514 881.2525,-415.6414"/>
</g>
<!-- Node38 -->
<g id="node39" class="node">
<title>Node38</title>
<g id="a_node39"><a xlink:title=" ">
<polygon fill="#ffffff" stroke="#bfbfbf" points="913,-392.5 913,-411.5 963,-411.5 963,-392.5 913,-392.5"/>
<text text-anchor="middle" x="938" y="-399.5" font-family="Helvetica,sans-Serif" font-size="10.00" fill="#000000">chrono</text>
</a>
</g>
</g>
<!-- Node0&#45;&gt;Node38 -->
<g id="edge51" class="edge">
<title>Node0&#45;&gt;Node38</title>
<path fill="none" stroke="#191970" d="M938,-448.168C938,-439.8226 938,-430.2471 938,-421.9879"/>
<polygon fill="#191970" stroke="#191970" points="941.5001,-421.7804 938,-411.7805 934.5001,-421.7805 941.5001,-421.7804"/>
</g>
<!-- Node39 -->
<g id="node40" class="node">
<title>Node39</title>
<g id="a_node40"><a xlink:title=" ">
<polygon fill="#ffffff" stroke="#bfbfbf" points="981,-392.5 981,-411.5 1027,-411.5 1027,-392.5 981,-392.5"/>
<text text-anchor="middle" x="1004" y="-399.5" font-family="Helvetica,sans-Serif" font-size="10.00" fill="#000000">future</text>
</a>
</g>
</g>
<!-- Node0&#45;&gt;Node39 -->
<g id="edge52" class="edge">
<title>Node0&#45;&gt;Node39</title>
<path fill="none" stroke="#191970" d="M958.521,-448.168C967.7695,-438.7794 978.5516,-427.834 987.2957,-418.9574"/>
<polygon fill="#191970" stroke="#191970" points="989.8412,-421.3607 994.3655,-411.7805 984.8544,-416.4483 989.8412,-421.3607"/>
</g>
<!-- Node2 -->
<g id="node3" class="node">
<title>Node2</title>
<g id="a_node3"><a xlink:href="BaremetalCommunicationDef_8hpp.html" target="_top" xlink:title=" ">
<polygon fill="#ffffff" stroke="#000000" points="221,-336.5 221,-355.5 403,-355.5 403,-336.5 221,-336.5"/>
<text text-anchor="middle" x="312" y="-343.5" font-family="Helvetica,sans-Serif" font-size="10.00" fill="#000000">BaremetalCommunicationDef.hpp</text>
</a>
</g>
</g>
<!-- Node1&#45;&gt;Node2 -->
<g id="edge2" class="edge">
<title>Node1&#45;&gt;Node2</title>
<path fill="none" stroke="#191970" d="M824.8865,-398.4118C743.2608,-390.0704 538.2119,-369.1165 413.5073,-356.373"/>
<polygon fill="#191970" stroke="#191970" points="413.4891,-352.853 403.185,-355.3182 412.7774,-359.8167 413.4891,-352.853"/>
</g>
<!-- Node3 -->
<g id="node4" class="node">
<title>Node3</title>
<g id="a_node4"><a xlink:href="LogEntry_8hpp.html" target="_top" xlink:title=" ">
<polygon fill="#ffffff" stroke="#000000" points="24.5,-280.5 24.5,-299.5 103.5,-299.5 103.5,-280.5 24.5,-280.5"/>
<text text-anchor="middle" x="64" y="-287.5" font-family="Helvetica,sans-Serif" font-size="10.00" fill="#000000">LogEntry.hpp</text>
</a>
</g>
</g>
<!-- Node1&#45;&gt;Node3 -->
<g id="edge31" class="edge">
<title>Node1&#45;&gt;Node3</title>
<path fill="none" stroke="#191970" d="M824.9207,-401.114C707.61,-397.9007 329.7529,-385.4626 212,-356 166.8825,-344.7113 118.3191,-320.4803 89.574,-304.7294"/>
<polygon fill="#191970" stroke="#191970" points="91.0587,-301.5501 80.619,-299.7438 87.6536,-307.6662 91.0587,-301.5501"/>
</g>
<!-- Node24 -->
<g id="node25" class="node">
<title>Node24</title>
<g id="a_node25"><a xlink:href="SharedMem_8hpp.html" target="_top" xlink:title=" ">
<polygon fill="#ffffff" stroke="#000000" points="812.5,-336.5 812.5,-355.5 907.5,-355.5 907.5,-336.5 812.5,-336.5"/>
<text text-anchor="middle" x="860" y="-343.5" font-family="Helvetica,sans-Serif" font-size="10.00" fill="#000000">SharedMem.hpp</text>
</a>
</g>
</g>
<!-- Node1&#45;&gt;Node24 -->
<g id="edge32" class="edge">
<title>Node1&#45;&gt;Node24</title>
<path fill="none" stroke="#191970" d="M860,-392.2455C860,-384.9382 860,-374.6944 860,-365.7046"/>
<polygon fill="#191970" stroke="#191970" points="863.5001,-365.6426 860,-355.6427 856.5001,-365.6427 863.5001,-365.6426"/>
</g>
<!-- Node35 -->
<g id="node36" class="node">
<title>Node35</title>
<g id="a_node36"><a xlink:href="UDPSender_8hpp.html" target="_top" xlink:title=" ">
<polygon fill="#ffffff" stroke="#000000" points="1298,-336.5 1298,-355.5 1390,-355.5 1390,-336.5 1298,-336.5"/>
<text text-anchor="middle" x="1344" y="-343.5" font-family="Helvetica,sans-Serif" font-size="10.00" fill="#000000">UDPSender.hpp</text>
</a>
</g>
</g>
<!-- Node1&#45;&gt;Node35 -->
<g id="edge45" class="edge">
<title>Node1&#45;&gt;Node35</title>
<path fill="none" stroke="#191970" d="M895.4698,-393.5567C898.3477,-392.9883 901.2176,-392.4599 904,-392 1040.9384,-369.3636 1203.7999,-355.7636 1287.7485,-349.722"/>
<polygon fill="#191970" stroke="#191970" points="1288.1065,-353.2055 1297.8333,-349.0054 1287.6103,-346.2231 1288.1065,-353.2055"/>
</g>
<!-- Node37 -->
<g id="node38" class="node">
<title>Node37</title>
<g id="a_node38"><a xlink:title=" ">
<polygon fill="#ffffff" stroke="#bfbfbf" points="1462.5,-280.5 1462.5,-299.5 1509.5,-299.5 1509.5,-280.5 1462.5,-280.5"/>
<text text-anchor="middle" x="1486" y="-287.5" font-family="Helvetica,sans-Serif" font-size="10.00" fill="#000000">vector</text>
</a>
</g>
</g>
<!-- Node1&#45;&gt;Node37 -->
<g id="edge50" class="edge">
<title>Node1&#45;&gt;Node37</title>
<path fill="none" stroke="#191970" d="M895.4545,-393.4592C898.3358,-392.9127 901.2107,-392.416 904,-392 1013.0842,-375.7324 1295.8105,-394.9348 1399,-356 1427.0482,-345.417 1453.6395,-322.7272 1469.8727,-306.9244"/>
<polygon fill="#191970" stroke="#191970" points="1472.3901,-309.3566 1476.9706,-299.8031 1467.4322,-304.415 1472.3901,-309.3566"/>
</g>
<!-- Node2&#45;&gt;Node3 -->
<g id="edge3" class="edge">
<title>Node2&#45;&gt;Node3</title>
<path fill="none" stroke="#191970" d="M269.6491,-336.4369C226.4341,-326.6787 159.4017,-311.5423 113.7002,-301.2226"/>
<polygon fill="#191970" stroke="#191970" points="114.2419,-297.7569 103.7165,-298.9682 112.7,-304.585 114.2419,-297.7569"/>
</g>
<!-- Node9 -->
<g id="node10" class="node">
<title>Node9</title>
<g id="a_node10"><a xlink:title=" ">
<polygon fill="#ffffff" stroke="#bfbfbf" points="96.5,-.5 96.5,-19.5 143.5,-19.5 143.5,-.5 96.5,-.5"/>
<text text-anchor="middle" x="120" y="-7.5" font-family="Helvetica,sans-Serif" font-size="10.00" fill="#000000">cmath</text>
</a>
</g>
</g>
<!-- Node2&#45;&gt;Node9 -->
<g id="edge29" class="edge">
<title>Node2&#45;&gt;Node9</title>
<path fill="none" stroke="#191970" d="M303.8134,-336.3838C279.4169,-307.3254 206.2236,-217.1835 163,-132 145.4634,-97.4394 132.0299,-54.035 125.1366,-29.4149"/>
<polygon fill="#191970" stroke="#191970" points="128.4469,-28.2504 122.4383,-19.5241 121.6936,-30.0927 128.4469,-28.2504"/>
</g>
<!-- Node16 -->
<g id="node17" class="node">
<title>Node16</title>
<g id="a_node17"><a xlink:title=" ">
<polygon fill="#ffffff" stroke="#bfbfbf" points="350.5,-56.5 350.5,-75.5 407.5,-75.5 407.5,-56.5 350.5,-56.5"/>
<text text-anchor="middle" x="379" y="-63.5" font-family="Helvetica,sans-Serif" font-size="10.00" fill="#000000">ostream</text>
</a>
</g>
</g>
<!-- Node2&#45;&gt;Node16 -->
<g id="edge30" class="edge">
<title>Node2&#45;&gt;Node16</title>
<path fill="none" stroke="#191970" d="M306.393,-336.4834C295.8226,-317.6141 274,-273.8343 274,-234 274,-234 274,-234 274,-178 274,-146.7875 277.8555,-135.8416 298,-112 309.8415,-97.9852 327.096,-87.3579 342.6401,-79.868"/>
<polygon fill="#191970" stroke="#191970" points="344.3722,-82.9257 352.0337,-75.6078 341.4809,-76.5506 344.3722,-82.9257"/>
</g>
<!-- Node20 -->
<g id="node21" class="node">
<title>Node20</title>
<g id="a_node21"><a xlink:href="SharedStruct_8hpp.html" target="_top" xlink:title=" ">
<polygon fill="#ffffff" stroke="#000000" points="416,-280.5 416,-299.5 516,-299.5 516,-280.5 416,-280.5"/>
<text text-anchor="middle" x="466" y="-287.5" font-family="Helvetica,sans-Serif" font-size="10.00" fill="#000000">SharedStruct.hpp</text>
</a>
</g>
</g>
<!-- Node2&#45;&gt;Node20 -->
<g id="edge22" class="edge">
<title>Node2&#45;&gt;Node20</title>
<path fill="none" stroke="#191970" d="M338.4735,-336.3733C363.8597,-327.1419 402.3645,-313.1402 430.422,-302.9375"/>
<polygon fill="#191970" stroke="#191970" points="431.6701,-306.2079 439.8719,-299.5011 429.2778,-299.6293 431.6701,-306.2079"/>
</g>
<!-- Node21 -->
<g id="node22" class="node">
<title>Node21</title>
<g id="a_node22"><a xlink:title=" ">
<polygon fill="#ffffff" stroke="#bfbfbf" points="362,-224.5 362,-243.5 414,-243.5 414,-224.5 362,-224.5"/>
<text text-anchor="middle" x="388" y="-231.5" font-family="Helvetica,sans-Serif" font-size="10.00" fill="#000000">cassert</text>
</a>
</g>
</g>
<!-- Node2&#45;&gt;Node21 -->
<g id="edge28" class="edge">
<title>Node2&#45;&gt;Node21</title>
<path fill="none" stroke="#191970" d="M318.4797,-336.4509C331.1556,-317.7707 359.416,-276.1238 375.734,-252.0761"/>
<polygon fill="#191970" stroke="#191970" points="378.8178,-253.7649 381.5367,-243.5249 373.0255,-249.8344 378.8178,-253.7649"/>
</g>
<!-- Node4 -->
<g id="node5" class="node">
<title>Node4</title>
<g id="a_node5"><a xlink:href="LoggerStructs_8hpp.html" target="_top" xlink:title=" ">
<polygon fill="#ffffff" stroke="#000000" points="0,-224.5 0,-243.5 104,-243.5 104,-224.5 0,-224.5"/>
<text text-anchor="middle" x="52" y="-231.5" font-family="Helvetica,sans-Serif" font-size="10.00" fill="#000000">LoggerStructs.hpp</text>
</a>
</g>
</g>
<!-- Node3&#45;&gt;Node4 -->
<g id="edge4" class="edge">
<title>Node3&#45;&gt;Node4</title>
<path fill="none" stroke="#191970" d="M61.9098,-280.2455C60.3439,-272.9382 58.1488,-262.6944 56.2224,-253.7046"/>
<polygon fill="#191970" stroke="#191970" points="59.584,-252.6873 54.0663,-243.6427 52.7393,-254.1541 59.584,-252.6873"/>
</g>
<!-- Node5 -->
<g id="node6" class="node">
<title>Node5</title>
<g id="a_node6"><a xlink:href="Quaternion_8hpp.html" target="_top" xlink:title=" ">
<polygon fill="#ffffff" stroke="#000000" points="9,-168.5 9,-187.5 101,-187.5 101,-168.5 9,-168.5"/>
<text text-anchor="middle" x="55" y="-175.5" font-family="Helvetica,sans-Serif" font-size="10.00" fill="#000000">Quaternion.hpp</text>
</a>
</g>
</g>
<!-- Node4&#45;&gt;Node5 -->
<g id="edge5" class="edge">
<title>Node4&#45;&gt;Node5</title>
<path fill="none" stroke="#191970" d="M52.5226,-224.2455C52.914,-216.9382 53.4628,-206.6944 53.9444,-197.7046"/>
<polygon fill="#191970" stroke="#191970" points="57.4434,-197.8156 54.4834,-187.6427 50.4534,-197.4411 57.4434,-197.8156"/>
</g>
<!-- Node6 -->
<g id="node7" class="node">
<title>Node6</title>
<g id="a_node7"><a xlink:href="Matrix_8hpp.html" target="_top" xlink:title=" ">
<polygon fill="#ffffff" stroke="#000000" points="172,-112.5 172,-131.5 240,-131.5 240,-112.5 172,-112.5"/>
<text text-anchor="middle" x="206" y="-119.5" font-family="Helvetica,sans-Serif" font-size="10.00" fill="#000000">Matrix.hpp</text>
</a>
</g>
</g>
<!-- Node5&#45;&gt;Node6 -->
<g id="edge6" class="edge">
<title>Node5&#45;&gt;Node6</title>
<path fill="none" stroke="#191970" d="M80.9578,-168.3733C105.7407,-159.1822 143.2746,-145.2624 170.754,-135.0713"/>
<polygon fill="#191970" stroke="#191970" points="172.2219,-138.26 180.3809,-131.5011 169.7879,-131.6968 172.2219,-138.26"/>
</g>
<!-- Node19 -->
<g id="node20" class="node">
<title>Node19</title>
<g id="a_node20"><a xlink:href="Square_8hpp.html" target="_top" xlink:title=" ">
<polygon fill="#ffffff" stroke="#000000" points="19.5,-112.5 19.5,-131.5 90.5,-131.5 90.5,-112.5 19.5,-112.5"/>
<text text-anchor="middle" x="55" y="-119.5" font-family="Helvetica,sans-Serif" font-size="10.00" fill="#000000">Square.hpp</text>
</a>
</g>
</g>
<!-- Node5&#45;&gt;Node19 -->
<g id="edge21" class="edge">
<title>Node5&#45;&gt;Node19</title>
<path fill="none" stroke="#191970" d="M55,-168.2455C55,-160.9382 55,-150.6944 55,-141.7046"/>
<polygon fill="#191970" stroke="#191970" points="58.5001,-141.6426 55,-131.6427 51.5001,-141.6427 58.5001,-141.6426"/>
</g>
<!-- Node7 -->
<g id="node8" class="node">
<title>Node7</title>
<g id="a_node8"><a xlink:href="Array_8hpp.html" target="_top" xlink:title=" ">
<polygon fill="#ffffff" stroke="#000000" points="232,-56.5 232,-75.5 294,-75.5 294,-56.5 232,-56.5"/>
<text text-anchor="middle" x="263" y="-63.5" font-family="Helvetica,sans-Serif" font-size="10.00" fill="#000000">Array.hpp</text>
</a>
</g>
</g>
<!-- Node6&#45;&gt;Node7 -->
<g id="edge7" class="edge">
<title>Node6&#45;&gt;Node7</title>
<path fill="none" stroke="#191970" d="M215.9286,-112.2455C224.1838,-104.1352 236.1209,-92.4075 245.9082,-82.7919"/>
<polygon fill="#191970" stroke="#191970" points="248.5046,-85.1476 253.1851,-75.6427 243.5989,-80.1542 248.5046,-85.1476"/>
</g>
<!-- Node8 -->
<g id="node9" class="node">
<title>Node8</title>
<g id="a_node9"><a xlink:title=" ">
<polygon fill="#ffffff" stroke="#bfbfbf" points="308,-.5 308,-19.5 372,-19.5 372,-.5 308,-.5"/>
<text text-anchor="middle" x="340" y="-7.5" font-family="Helvetica,sans-Serif" font-size="10.00" fill="#000000">algorithm</text>
</a>
</g>
</g>
<!-- Node6&#45;&gt;Node8 -->
<g id="edge14" class="edge">
<title>Node6&#45;&gt;Node8</title>
<path fill="none" stroke="#191970" d="M238.202,-112.396C258.6434,-105.0283 284.6127,-93.1754 303,-76 316.9044,-63.0121 326.9193,-43.5929 332.9949,-29.1778"/>
<polygon fill="#191970" stroke="#191970" points="336.3083,-30.3161 336.722,-19.7293 329.7966,-27.7475 336.3083,-30.3161"/>
</g>
<!-- Node6&#45;&gt;Node9 -->
<g id="edge16" class="edge">
<title>Node6&#45;&gt;Node9</title>
<path fill="none" stroke="#191970" d="M195.9055,-112.223C186.8344,-103.2069 173.3827,-89.2524 163,-76 151.0552,-60.7537 139.1663,-42.177 130.9272,-28.6209"/>
<polygon fill="#191970" stroke="#191970" points="133.7618,-26.5415 125.6243,-19.7568 127.7547,-30.1353 133.7618,-26.5415"/>
</g>
<!-- Node14 -->
<g id="node15" class="node">
<title>Node14</title>
<g id="a_node15"><a xlink:title=" ">
<polygon fill="#ffffff" stroke="#bfbfbf" points="172,-56.5 172,-75.5 214,-75.5 214,-56.5 172,-56.5"/>
<text text-anchor="middle" x="193" y="-63.5" font-family="Helvetica,sans-Serif" font-size="10.00" fill="#000000">array</text>
</a>
</g>
</g>
<!-- Node6&#45;&gt;Node14 -->
<g id="edge15" class="edge">
<title>Node6&#45;&gt;Node14</title>
<path fill="none" stroke="#191970" d="M203.7356,-112.2455C202.0206,-104.8579 199.6088,-94.4689 197.5056,-85.4087"/>
<polygon fill="#191970" stroke="#191970" points="200.9092,-84.5922 195.2385,-75.6427 194.0905,-86.1751 200.9092,-84.5922"/>
</g>
<!-- Node15 -->
<g id="node16" class="node">
<title>Node15</title>
<g id="a_node16"><a xlink:title=" ">
<polygon fill="#ffffff" stroke="#bfbfbf" points="426,-56.5 426,-75.5 482,-75.5 482,-56.5 426,-56.5"/>
<text text-anchor="middle" x="454" y="-63.5" font-family="Helvetica,sans-Serif" font-size="10.00" fill="#000000">iomanip</text>
</a>
</g>
</g>
<!-- Node6&#45;&gt;Node15 -->
<g id="edge17" class="edge">
<title>Node6&#45;&gt;Node15</title>
<path fill="none" stroke="#191970" d="M240.1051,-115.1045C279.9624,-106.9277 348.1243,-92.5783 415.7803,-76.2158"/>
<polygon fill="#191970" stroke="#191970" points="416.8669,-79.5536 425.7552,-73.7876 415.2111,-72.7522 416.8669,-79.5536"/>
</g>
<!-- Node6&#45;&gt;Node16 -->
<g id="edge18" class="edge">
<title>Node6&#45;&gt;Node16</title>
<path fill="none" stroke="#191970" d="M235.7398,-112.3733C264.6814,-103.0049 308.801,-88.7234 340.4285,-78.4856"/>
<polygon fill="#191970" stroke="#191970" points="341.7871,-81.7247 350.2232,-75.315 339.6313,-75.0649 341.7871,-81.7247"/>
</g>
<!-- Node17 -->
<g id="node18" class="node">
<title>Node17</title>
<g id="a_node18"><a xlink:href="real__t_8h.html" target="_top" xlink:title=" ">
<polygon fill="#ffffff" stroke="#000000" points="24.5,-56.5 24.5,-75.5 77.5,-75.5 77.5,-56.5 24.5,-56.5"/>
<text text-anchor="middle" x="51" y="-63.5" font-family="Helvetica,sans-Serif" font-size="10.00" fill="#000000">real_t.h</text>
</a>
</g>
</g>
<!-- Node6&#45;&gt;Node17 -->
<g id="edge19" class="edge">
<title>Node6&#45;&gt;Node17</title>
<path fill="none" stroke="#191970" d="M179.3546,-112.3733C153.8036,-103.1419 115.0488,-89.1402 86.8091,-78.9375"/>
<polygon fill="#191970" stroke="#191970" points="87.8921,-75.6074 77.2978,-75.5011 85.5135,-82.1909 87.8921,-75.6074"/>
</g>
<!-- Node7&#45;&gt;Node8 -->
<g id="edge8" class="edge">
<title>Node7&#45;&gt;Node8</title>
<path fill="none" stroke="#191970" d="M276.4124,-56.2455C288.0057,-47.814 304.9748,-35.4729 318.4678,-25.6598"/>
<polygon fill="#191970" stroke="#191970" points="320.7126,-28.355 326.7413,-19.6427 316.5953,-22.6938 320.7126,-28.355"/>
</g>
<!-- Node7&#45;&gt;Node9 -->
<g id="edge9" class="edge">
<title>Node7&#45;&gt;Node9</title>
<path fill="none" stroke="#191970" d="M238.4174,-56.3733C214.9088,-47.1671 179.285,-33.2165 153.25,-23.021"/>
<polygon fill="#191970" stroke="#191970" points="154.3744,-19.7025 143.7866,-19.315 151.8218,-26.2206 154.3744,-19.7025"/>
</g>
<!-- Node10 -->
<g id="node11" class="node">
<title>Node10</title>
<g id="a_node11"><a xlink:title=" ">
<polygon fill="#ffffff" stroke="#bfbfbf" points="236.5,-.5 236.5,-19.5 289.5,-19.5 289.5,-.5 236.5,-.5"/>
<text text-anchor="middle" x="263" y="-7.5" font-family="Helvetica,sans-Serif" font-size="10.00" fill="#000000">cstddef</text>
</a>
</g>
</g>
<!-- Node7&#45;&gt;Node10 -->
<g id="edge10" class="edge">
<title>Node7&#45;&gt;Node10</title>
<path fill="none" stroke="#191970" d="M263,-56.2455C263,-48.9382 263,-38.6944 263,-29.7046"/>
<polygon fill="#191970" stroke="#191970" points="266.5001,-29.6426 263,-19.6427 259.5001,-29.6427 266.5001,-29.6426"/>
</g>
<!-- Node11 -->
<g id="node12" class="node">
<title>Node11</title>
<g id="a_node12"><a xlink:title=" ">
<polygon fill="#ffffff" stroke="#bfbfbf" points="162,-.5 162,-19.5 218,-19.5 218,-.5 162,-.5"/>
<text text-anchor="middle" x="190" y="-7.5" font-family="Helvetica,sans-Serif" font-size="10.00" fill="#000000">numeric</text>
</a>
</g>
</g>
<!-- Node7&#45;&gt;Node11 -->
<g id="edge11" class="edge">
<title>Node7&#45;&gt;Node11</title>
<path fill="none" stroke="#191970" d="M250.2844,-56.2455C239.398,-47.8943 223.5117,-35.7076 210.78,-25.9408"/>
<polygon fill="#191970" stroke="#191970" points="212.6346,-22.9523 202.5699,-19.6427 208.3739,-28.5063 212.6346,-22.9523"/>
</g>
<!-- Node12 -->
<g id="node13" class="node">
<title>Node12</title>
<g id="a_node13"><a xlink:title=" ">
<polygon fill="#ffffff" stroke="#bfbfbf" points="409.5,-.5 409.5,-19.5 478.5,-19.5 478.5,-.5 409.5,-.5"/>
<text text-anchor="middle" x="444" y="-7.5" font-family="Helvetica,sans-Serif" font-size="10.00" fill="#000000">type_traits</text>
</a>
</g>
</g>
<!-- Node7&#45;&gt;Node12 -->
<g id="edge12" class="edge">
<title>Node7&#45;&gt;Node12</title>
<path fill="none" stroke="#191970" d="M294.115,-56.3733C324.3429,-47.021 370.396,-32.7725 403.4739,-22.5385"/>
<polygon fill="#191970" stroke="#191970" points="404.7723,-25.8005 413.291,-19.5011 402.7033,-19.1133 404.7723,-25.8005"/>
</g>
<!-- Node13 -->
<g id="node14" class="node">
<title>Node13</title>
<g id="a_node14"><a xlink:title=" ">
<polygon fill="#ffffff" stroke="#bfbfbf" points="505.5,-.5 505.5,-19.5 570.5,-19.5 570.5,-.5 505.5,-.5"/>
<text text-anchor="middle" x="538" y="-7.5" font-family="Helvetica,sans-Serif" font-size="10.00" fill="#000000">stdexcept</text>
</a>
</g>
</g>
<!-- Node7&#45;&gt;Node13 -->
<g id="edge13" class="edge">
<title>Node7&#45;&gt;Node13</title>
<path fill="none" stroke="#191970" d="M294.0114,-59.6849C343.3359,-49.6407 439.7669,-30.0038 495.4901,-18.6566"/>
<polygon fill="#191970" stroke="#191970" points="496.3,-22.0635 505.4005,-16.6384 494.9032,-15.2043 496.3,-22.0635"/>
</g>
<!-- Node18 -->
<g id="node19" class="node">
<title>Node18</title>
<g id="a_node19"><a xlink:title=" ">
<polygon fill="#ffffff" stroke="#bfbfbf" points="24.5,-.5 24.5,-19.5 77.5,-19.5 77.5,-.5 24.5,-.5"/>
<text text-anchor="middle" x="51" y="-7.5" font-family="Helvetica,sans-Serif" font-size="10.00" fill="#000000">stdint.h</text>
</a>
</g>
</g>
<!-- Node17&#45;&gt;Node18 -->
<g id="edge20" class="edge">
<title>Node17&#45;&gt;Node18</title>
<path fill="none" stroke="#191970" d="M51,-56.2455C51,-48.9382 51,-38.6944 51,-29.7046"/>
<polygon fill="#191970" stroke="#191970" points="54.5001,-29.6426 51,-19.6427 47.5001,-29.6427 54.5001,-29.6426"/>
</g>
<!-- Node20&#45;&gt;Node12 -->
<g id="edge27" class="edge">
<title>Node20&#45;&gt;Node12</title>
<path fill="none" stroke="#191970" d="M472.6827,-280.3152C484.9915,-261.5029 510,-218.3199 510,-178 510,-178 510,-178 510,-122 510,-91.4754 506.6473,-82.2091 491,-56 484.2099,-44.6267 473.9214,-34.1144 464.6999,-26.0187"/>
<polygon fill="#191970" stroke="#191970" points="466.9014,-23.2972 456.9856,-19.5653 462.41,-28.6662 466.9014,-23.2972"/>
</g>
<!-- Node20&#45;&gt;Node13 -->
<g id="edge25" class="edge">
<title>Node20&#45;&gt;Node13</title>
<path fill="none" stroke="#191970" d="M479.9102,-280.3601C503.3051,-262.8875 548,-223.5468 548,-178 548,-178 548,-178 548,-122 548,-89.5831 543.7925,-52.0969 540.8359,-29.7572"/>
<polygon fill="#191970" stroke="#191970" points="544.2637,-28.992 539.4328,-19.5627 537.3291,-29.9466 544.2637,-28.992"/>
</g>
<!-- Node20&#45;&gt;Node21 -->
<g id="edge23" class="edge">
<title>Node20&#45;&gt;Node21</title>
<path fill="none" stroke="#191970" d="M452.4134,-280.2455C440.6695,-271.814 423.4801,-259.4729 409.8118,-249.6598"/>
<polygon fill="#191970" stroke="#191970" points="411.5954,-246.6316 401.4309,-243.6427 407.5129,-252.3179 411.5954,-246.6316"/>
</g>
<!-- Node22 -->
<g id="node23" class="node">
<title>Node22</title>
<g id="a_node23"><a xlink:title=" ">
<polygon fill="#ffffff" stroke="#bfbfbf" points="947,-224.5 947,-243.5 997,-243.5 997,-224.5 947,-224.5"/>
<text text-anchor="middle" x="972" y="-231.5" font-family="Helvetica,sans-Serif" font-size="10.00" fill="#000000">cstdint</text>
</a>
</g>
</g>
<!-- Node20&#45;&gt;Node22 -->
<g id="edge24" class="edge">
<title>Node20&#45;&gt;Node22</title>
<path fill="none" stroke="#191970" d="M516.055,-281.4177C519.4172,-280.9152 522.7556,-280.4372 526,-280 678.2025,-259.4878 860.711,-243.2704 936.4095,-236.9113"/>
<polygon fill="#191970" stroke="#191970" points="937.1125,-240.3649 946.7868,-236.0453 936.5303,-233.3892 937.1125,-240.3649"/>
</g>
<!-- Node23 -->
<g id="node24" class="node">
<title>Node23</title>
<g id="a_node24"><a xlink:title=" ">
<polygon fill="#ffffff" stroke="#bfbfbf" points="438,-224.5 438,-243.5 482,-243.5 482,-224.5 438,-224.5"/>
<text text-anchor="middle" x="460" y="-231.5" font-family="Helvetica,sans-Serif" font-size="10.00" fill="#000000">string</text>
</a>
</g>
</g>
<!-- Node20&#45;&gt;Node23 -->
<g id="edge26" class="edge">
<title>Node20&#45;&gt;Node23</title>
<path fill="none" stroke="#191970" d="M464.9549,-280.2455C464.172,-272.9382 463.0744,-262.6944 462.1112,-253.7046"/>
<polygon fill="#191970" stroke="#191970" points="465.5786,-253.2129 461.0331,-243.6427 458.6185,-253.9587 465.5786,-253.2129"/>
</g>
<!-- Node24&#45;&gt;Node15 -->
<g id="edge34" class="edge">
<title>Node24&#45;&gt;Node15</title>
<path fill="none" stroke="#191970" d="M812.3165,-344.9637C708.3173,-342.1229 464.3893,-332.1402 389,-300 347.5374,-282.3235 312,-279.0733 312,-234 312,-234 312,-234 312,-178 312,-124.8058 374.191,-92.9663 416.2583,-77.514"/>
<polygon fill="#191970" stroke="#191970" points="417.6706,-80.7276 425.9454,-74.111 415.3505,-74.1232 417.6706,-80.7276"/>
</g>
<!-- Node24&#45;&gt;Node21 -->
<g id="edge36" class="edge">
<title>Node24&#45;&gt;Node21</title>
<path fill="none" stroke="#191970" d="M812.125,-344.1391C701.9727,-339.4365 437.6393,-325.5904 407,-300 393.7274,-288.9145 389.3953,-269.2065 388.1335,-254.2038"/>
<polygon fill="#191970" stroke="#191970" points="391.6146,-253.702 387.6698,-243.8689 384.6216,-254.0158 391.6146,-253.702"/>
</g>
<!-- Node25 -->
<g id="node26" class="node">
<title>Node25</title>
<g id="a_node26"><a xlink:href="ANSIColors_8hpp.html" target="_top" xlink:title=" ">
<polygon fill="#ffffff" stroke="#000000" points="947,-280.5 947,-299.5 1039,-299.5 1039,-280.5 947,-280.5"/>
<text text-anchor="middle" x="993" y="-287.5" font-family="Helvetica,sans-Serif" font-size="10.00" fill="#000000">ANSIColors.hpp</text>
</a>
</g>
</g>
<!-- Node24&#45;&gt;Node25 -->
<g id="edge33" class="edge">
<title>Node24&#45;&gt;Node25</title>
<path fill="none" stroke="#191970" d="M882.8635,-336.3733C904.405,-327.3032 936.8838,-313.6279 960.9956,-303.4755"/>
<polygon fill="#191970" stroke="#191970" points="962.5767,-306.6075 970.4348,-299.5011 959.8603,-300.156 962.5767,-306.6075"/>
</g>
<!-- Node26 -->
<g id="node27" class="node">
<title>Node26</title>
<g id="a_node27"><a xlink:title=" ">
<polygon fill="#ffffff" stroke="#bfbfbf" points="1256,-280.5 1256,-299.5 1316,-299.5 1316,-280.5 1256,-280.5"/>
<text text-anchor="middle" x="1286" y="-287.5" font-family="Helvetica,sans-Serif" font-size="10.00" fill="#000000">iostream</text>
</a>
</g>
</g>
<!-- Node24&#45;&gt;Node26 -->
<g id="edge35" class="edge">
<title>Node24&#45;&gt;Node26</title>
<path fill="none" stroke="#191970" d="M907.6696,-342.3837C979.157,-336.5118 1118.4798,-323.3325 1245.9199,-299.9955"/>
<polygon fill="#191970" stroke="#191970" points="1246.6616,-303.4177 1255.8546,-298.1508 1245.3836,-296.5353 1246.6616,-303.4177"/>
</g>
<!-- Node27 -->
<g id="node28" class="node">
<title>Node27</title>
<g id="a_node28"><a xlink:title=" ">
<polygon fill="#ffffff" stroke="#bfbfbf" points="1057.5,-280.5 1057.5,-299.5 1104.5,-299.5 1104.5,-280.5 1057.5,-280.5"/>
<text text-anchor="middle" x="1081" y="-287.5" font-family="Helvetica,sans-Serif" font-size="10.00" fill="#000000">cerrno</text>
</a>
</g>
</g>
<!-- Node24&#45;&gt;Node27 -->
<g id="edge37" class="edge">
<title>Node24&#45;&gt;Node27</title>
<path fill="none" stroke="#191970" d="M901.9825,-336.4161C938.104,-328.0159 991.8149,-315.1601 1047.5595,-300.0156"/>
<polygon fill="#191970" stroke="#191970" points="1048.5293,-303.379 1057.2515,-297.3646 1046.6824,-296.627 1048.5293,-303.379"/>
</g>
<!-- Node28 -->
<g id="node29" class="node">
<title>Node28</title>
<g id="a_node29"><a xlink:title=" ">
<polygon fill="#ffffff" stroke="#bfbfbf" points="1122.5,-280.5 1122.5,-299.5 1169.5,-299.5 1169.5,-280.5 1122.5,-280.5"/>
<text text-anchor="middle" x="1146" y="-287.5" font-family="Helvetica,sans-Serif" font-size="10.00" fill="#000000">fcntl.h</text>
</a>
</g>
</g>
<!-- Node24&#45;&gt;Node28 -->
<g id="edge38" class="edge">
<title>Node24&#45;&gt;Node28</title>
<path fill="none" stroke="#191970" d="M907.6516,-339.1733C956.8682,-331.7212 1036.0207,-318.6206 1112.5269,-300.1551"/>
<polygon fill="#191970" stroke="#191970" points="1113.4453,-303.5338 1122.3263,-297.7564 1111.7809,-296.7345 1113.4453,-303.5338"/>
</g>
<!-- Node29 -->
<g id="node30" class="node">
<title>Node29</title>
<g id="a_node30"><a xlink:title=" ">
<polygon fill="#ffffff" stroke="#bfbfbf" points="1188,-280.5 1188,-299.5 1238,-299.5 1238,-280.5 1188,-280.5"/>
<text text-anchor="middle" x="1213" y="-287.5" font-family="Helvetica,sans-Serif" font-size="10.00" fill="#000000">stdio.h</text>
</a>
</g>
</g>
<!-- Node24&#45;&gt;Node29 -->
<g id="edge39" class="edge">
<title>Node24&#45;&gt;Node29</title>
<path fill="none" stroke="#191970" d="M907.6706,-341.2764C968.4046,-334.7844 1076.6997,-321.6227 1178.0663,-299.9549"/>
<polygon fill="#191970" stroke="#191970" points="1178.8221,-303.3724 1187.8525,-297.8314 1177.3377,-296.5316 1178.8221,-303.3724"/>
</g>
<!-- Node30 -->
<g id="node31" class="node">
<title>Node30</title>
<g id="a_node31"><a xlink:title=" ">
<polygon fill="#ffffff" stroke="#bfbfbf" points="534.5,-280.5 534.5,-299.5 587.5,-299.5 587.5,-280.5 534.5,-280.5"/>
<text text-anchor="middle" x="561" y="-287.5" font-family="Helvetica,sans-Serif" font-size="10.00" fill="#000000">stdlib.h</text>
</a>
</g>
</g>
<!-- Node24&#45;&gt;Node30 -->
<g id="edge40" class="edge">
<title>Node24&#45;&gt;Node30</title>
<path fill="none" stroke="#191970" d="M812.2101,-339.0799C761.3617,-331.3965 678.4022,-317.9467 597.5145,-299.9378"/>
<polygon fill="#191970" stroke="#191970" points="598.1874,-296.5018 587.6628,-297.7191 596.6494,-303.3308 598.1874,-296.5018"/>
</g>
<!-- Node31 -->
<g id="node32" class="node">
<title>Node31</title>
<g id="a_node32"><a xlink:title=" ">
<polygon fill="#ffffff" stroke="#bfbfbf" points="605.5,-280.5 605.5,-299.5 682.5,-299.5 682.5,-280.5 605.5,-280.5"/>
<text text-anchor="middle" x="644" y="-287.5" font-family="Helvetica,sans-Serif" font-size="10.00" fill="#000000">sys/mman.h</text>
</a>
</g>
</g>
<!-- Node24&#45;&gt;Node31 -->
<g id="edge41" class="edge">
<title>Node24&#45;&gt;Node31</title>
<path fill="none" stroke="#191970" d="M822.8683,-336.3733C786.1733,-326.8598 729.9361,-312.2797 690.3349,-302.0127"/>
<polygon fill="#191970" stroke="#191970" points="691.2056,-298.6228 680.6472,-299.5011 689.4488,-305.3988 691.2056,-298.6228"/>
</g>
<!-- Node32 -->
<g id="node33" class="node">
<title>Node32</title>
<g id="a_node33"><a xlink:title=" ">
<polygon fill="#ffffff" stroke="#bfbfbf" points="701,-280.5 701,-299.5 765,-299.5 765,-280.5 701,-280.5"/>
<text text-anchor="middle" x="733" y="-287.5" font-family="Helvetica,sans-Serif" font-size="10.00" fill="#000000">sys/stat.h</text>
</a>
</g>
</g>
<!-- Node24&#45;&gt;Node32 -->
<g id="edge42" class="edge">
<title>Node24&#45;&gt;Node32</title>
<path fill="none" stroke="#191970" d="M838.1679,-336.3733C817.6897,-327.3435 786.8601,-313.7494 763.8681,-303.6111"/>
<polygon fill="#191970" stroke="#191970" points="765.1093,-300.3333 754.5472,-299.5011 762.285,-306.7383 765.1093,-300.3333"/>
</g>
<!-- Node33 -->
<g id="node34" class="node">
<title>Node33</title>
<g id="a_node34"><a xlink:title=" ">
<polygon fill="#ffffff" stroke="#bfbfbf" points="783,-280.5 783,-299.5 855,-299.5 855,-280.5 783,-280.5"/>
<text text-anchor="middle" x="819" y="-287.5" font-family="Helvetica,sans-Serif" font-size="10.00" fill="#000000">sys/types.h</text>
</a>
</g>
</g>
<!-- Node24&#45;&gt;Node33 -->
<g id="edge43" class="edge">
<title>Node24&#45;&gt;Node33</title>
<path fill="none" stroke="#191970" d="M852.8583,-336.2455C847.1556,-328.4564 839.01,-317.3308 832.1375,-307.9439"/>
<polygon fill="#191970" stroke="#191970" points="834.7913,-305.6437 826.0598,-299.6427 829.1432,-309.7789 834.7913,-305.6437"/>
</g>
<!-- Node34 -->
<g id="node35" class="node">
<title>Node34</title>
<g id="a_node35"><a xlink:title=" ">
<polygon fill="#ffffff" stroke="#bfbfbf" points="873,-280.5 873,-299.5 929,-299.5 929,-280.5 873,-280.5"/>
<text text-anchor="middle" x="901" y="-287.5" font-family="Helvetica,sans-Serif" font-size="10.00" fill="#000000">unistd.h</text>
</a>
</g>
</g>
<!-- Node24&#45;&gt;Node34 -->
<g id="edge44" class="edge">
<title>Node24&#45;&gt;Node34</title>
<path fill="none" stroke="#191970" d="M867.1417,-336.2455C872.8444,-328.4564 880.99,-317.3308 887.8625,-307.9439"/>
<polygon fill="#191970" stroke="#191970" points="890.8568,-309.7789 893.9402,-299.6427 885.2087,-305.6437 890.8568,-309.7789"/>
</g>
<!-- Node35&#45;&gt;Node22 -->
<g id="edge46" class="edge">
<title>Node35&#45;&gt;Node22</title>
<path fill="none" stroke="#191970" d="M1344.2803,-336.19C1344.1173,-321.5368 1341.4567,-294.1462 1325,-280 1301.151,-259.4995 1092.0681,-242.5186 1007.3853,-236.4204"/>
<polygon fill="#191970" stroke="#191970" points="1007.4496,-232.9162 997.2266,-235.6982 1006.9532,-239.8986 1007.4496,-232.9162"/>
</g>
<!-- Node35&#45;&gt;Node26 -->
<g id="edge49" class="edge">
<title>Node35&#45;&gt;Node26</title>
<path fill="none" stroke="#191970" d="M1333.8972,-336.2455C1325.4972,-328.1352 1313.3506,-316.4075 1303.3916,-306.7919"/>
<polygon fill="#191970" stroke="#191970" points="1305.6122,-304.0707 1295.9871,-299.6427 1300.75,-309.1066 1305.6122,-304.0707"/>
</g>
<!-- Node36 -->
<g id="node37" class="node">
<title>Node36</title>
<g id="a_node37"><a xlink:title=" ">
<polygon fill="#ffffff" stroke="#bfbfbf" points="1372,-280.5 1372,-299.5 1444,-299.5 1444,-280.5 1372,-280.5"/>
<text text-anchor="middle" x="1408" y="-287.5" font-family="Helvetica,sans-Serif" font-size="10.00" fill="#000000">netinet/in.h</text>
</a>
</g>
</g>
<!-- Node35&#45;&gt;Node36 -->
<g id="edge47" class="edge">
<title>Node35&#45;&gt;Node36</title>
<path fill="none" stroke="#191970" d="M1355.1479,-336.2455C1364.5087,-328.0549 1378.0858,-316.1749 1389.1349,-306.5069"/>
<polygon fill="#191970" stroke="#191970" points="1391.7588,-308.8618 1396.9798,-299.6427 1387.1492,-303.5937 1391.7588,-308.8618"/>
</g>
<!-- Node35&#45;&gt;Node37 -->
<g id="edge48" class="edge">
<title>Node35&#45;&gt;Node37</title>
<path fill="none" stroke="#191970" d="M1368.4107,-336.3733C1391.7549,-327.1671 1427.1296,-313.2165 1452.9825,-303.021"/>
<polygon fill="#191970" stroke="#191970" points="1454.361,-306.2397 1462.3797,-299.315 1451.7929,-299.7278 1454.361,-306.2397"/>
</g>
</g>
</svg>
