<?xml version="1.0" encoding="UTF-8" standalone="no"?>
<!DOCTYPE svg PUBLIC "-//W3C//DTD SVG 1.1//EN"
 "http://www.w3.org/Graphics/SVG/1.1/DTD/svg11.dtd">
<!-- Generated by graphviz version 2.40.1 (20161225.0304)
 -->
<!-- Title: /home/pieter/GitHub/EAGLE&#45;ZYBO&#45;Linux/src/logger/include/ThreadedLogger.hpp Pages: 1 -->
<svg width="566pt" height="274pt"
 viewBox="0.00 0.00 566.00 274.00" xmlns="http://www.w3.org/2000/svg" xmlns:xlink="http://www.w3.org/1999/xlink">
<g id="graph0" class="graph" transform="scale(1 1) rotate(0) translate(4 270)">
<title>/home/pieter/GitHub/EAGLE&#45;ZYBO&#45;Linux/src/logger/include/ThreadedLogger.hpp</title>
<polygon fill="#ffffff" stroke="transparent" points="-4,4 -4,-270 562,-270 562,4 -4,4"/>
<!-- Node0 -->
<g id="node1" class="node">
<title>Node0</title>
<g id="a_node1"><a xlink:title=" ">
<polygon fill="#bfbfbf" stroke="#000000" points="322,-224.5 322,-265.5 513,-265.5 513,-224.5 322,-224.5"/>
<text text-anchor="start" x="330" y="-253.5" font-family="Helvetica,sans-Serif" font-size="10.00" fill="#000000">/home/pieter/GitHub</text>
<text text-anchor="start" x="330" y="-242.5" font-family="Helvetica,sans-Serif" font-size="10.00" fill="#000000">/EAGLE&#45;ZYBO&#45;Linux/src</text>
<text text-anchor="middle" x="417.5" y="-231.5" font-family="Helvetica,sans-Serif" font-size="10.00" fill="#000000">/logger/include/ThreadedLogger.hpp</text>
</a>
</g>
</g>
<!-- Node1 -->
<g id="node2" class="node">
<title>Node1</title>
<g id="a_node2"><a xlink:href="Logger_8hpp.html" target="_top" xlink:title=" ">
<polygon fill="#ffffff" stroke="#000000" points="304.5,-168.5 304.5,-187.5 374.5,-187.5 374.5,-168.5 304.5,-168.5"/>
<text text-anchor="middle" x="339.5" y="-175.5" font-family="Helvetica,sans-Serif" font-size="10.00" fill="#000000">Logger.hpp</text>
</a>
</g>
</g>
<!-- Node0&#45;&gt;Node1 -->
<g id="edge1" class="edge">
<title>Node0&#45;&gt;Node1</title>
<path fill="none" stroke="#191970" d="M393.2479,-224.168C382.097,-214.5897 369.0598,-203.3911 358.6181,-194.422"/>
<polygon fill="#191970" stroke="#191970" points="360.7525,-191.6414 350.8862,-187.7805 356.1914,-196.9514 360.7525,-191.6414"/>
</g>
<!-- Node16 -->
<g id="node17" class="node">
<title>Node16</title>
<g id="a_node17"><a xlink:title=" ">
<polygon fill="#ffffff" stroke="#bfbfbf" points="392.5,-168.5 392.5,-187.5 442.5,-187.5 442.5,-168.5 392.5,-168.5"/>
<text text-anchor="middle" x="417.5" y="-175.5" font-family="Helvetica,sans-Serif" font-size="10.00" fill="#000000">chrono</text>
</a>
</g>
</g>
<!-- Node0&#45;&gt;Node16 -->
<g id="edge20" class="edge">
<title>Node0&#45;&gt;Node16</title>
<path fill="none" stroke="#191970" d="M417.5,-224.168C417.5,-215.8226 417.5,-206.2471 417.5,-197.9879"/>
<polygon fill="#191970" stroke="#191970" points="421.0001,-197.7804 417.5,-187.7805 414.0001,-197.7805 421.0001,-197.7804"/>
</g>
<!-- Node17 -->
<g id="node18" class="node">
<title>Node17</title>
<g id="a_node18"><a xlink:title=" ">
<polygon fill="#ffffff" stroke="#bfbfbf" points="460.5,-168.5 460.5,-187.5 506.5,-187.5 506.5,-168.5 460.5,-168.5"/>
<text text-anchor="middle" x="483.5" y="-175.5" font-family="Helvetica,sans-Serif" font-size="10.00" fill="#000000">future</text>
</a>
</g>
</g>
<!-- Node0&#45;&gt;Node17 -->
<g id="edge21" class="edge">
<title>Node0&#45;&gt;Node17</title>
<path fill="none" stroke="#191970" d="M438.021,-224.168C447.2695,-214.7794 458.0516,-203.834 466.7957,-194.9574"/>
<polygon fill="#191970" stroke="#191970" points="469.3412,-197.3607 473.8655,-187.7805 464.3544,-192.4483 469.3412,-197.3607"/>
</g>
<!-- Node2 -->
<g id="node3" class="node">
<title>Node2</title>
<g id="a_node3"><a xlink:href="BaremetalCommunicationDef_8hpp.html" target="_top" xlink:title=" ">
<polygon fill="#ffffff" stroke="#000000" points="84.5,-112.5 84.5,-131.5 266.5,-131.5 266.5,-112.5 84.5,-112.5"/>
<text text-anchor="middle" x="175.5" y="-119.5" font-family="Helvetica,sans-Serif" font-size="10.00" fill="#000000">BaremetalCommunicationDef.hpp</text>
</a>
</g>
</g>
<!-- Node1&#45;&gt;Node2 -->
<g id="edge2" class="edge">
<title>Node1&#45;&gt;Node2</title>
<path fill="none" stroke="#191970" d="M311.3074,-168.3733C284.1547,-159.1016 242.9093,-145.0178 212.9975,-134.804"/>
<polygon fill="#191970" stroke="#191970" points="213.9192,-131.4204 203.3247,-131.5011 211.6572,-138.0449 213.9192,-131.4204"/>
</g>
<!-- Node3 -->
<g id="node4" class="node">
<title>Node3</title>
<g id="a_node4"><a xlink:title=" ">
<polygon fill="#ffffff" stroke="#bfbfbf" points="0,-56.5 0,-75.5 67,-75.5 67,-56.5 0,-56.5"/>
<text text-anchor="middle" x="33.5" y="-63.5" font-family="Helvetica,sans-Serif" font-size="10.00" fill="#000000">LogEntry.h</text>
</a>
</g>
</g>
<!-- Node1&#45;&gt;Node3 -->
<g id="edge13" class="edge">
<title>Node1&#45;&gt;Node3</title>
<path fill="none" stroke="#191970" d="M304.2323,-175.3779C241.2265,-170.1268 112.4612,-156.6561 75.5,-132 58.7924,-120.8547 47.3727,-100.5634 40.7067,-85.4111"/>
<polygon fill="#191970" stroke="#191970" points="43.855,-83.8615 36.8447,-75.9175 37.371,-86.4993 43.855,-83.8615"/>
</g>
<!-- Node12 -->
<g id="node13" class="node">
<title>Node12</title>
<g id="a_node13"><a xlink:title=" ">
<polygon fill="#ffffff" stroke="#bfbfbf" points="292,-112.5 292,-131.5 387,-131.5 387,-112.5 292,-112.5"/>
<text text-anchor="middle" x="339.5" y="-119.5" font-family="Helvetica,sans-Serif" font-size="10.00" fill="#000000">SharedMem.hpp</text>
</a>
</g>
</g>
<!-- Node1&#45;&gt;Node12 -->
<g id="edge14" class="edge">
<title>Node1&#45;&gt;Node12</title>
<path fill="none" stroke="#191970" d="M339.5,-168.2455C339.5,-160.9382 339.5,-150.6944 339.5,-141.7046"/>
<polygon fill="#191970" stroke="#191970" points="343.0001,-141.6426 339.5,-131.6427 336.0001,-141.6427 343.0001,-141.6426"/>
</g>
<!-- Node13 -->
<g id="node14" class="node">
<title>Node13</title>
<g id="a_node14"><a xlink:href="UDPSender_8hpp.html" target="_top" xlink:title=" ">
<polygon fill="#ffffff" stroke="#000000" points="408.5,-112.5 408.5,-131.5 500.5,-131.5 500.5,-112.5 408.5,-112.5"/>
<text text-anchor="middle" x="454.5" y="-119.5" font-family="Helvetica,sans-Serif" font-size="10.00" fill="#000000">UDPSender.hpp</text>
</a>
</g>
</g>
<!-- Node1&#45;&gt;Node13 -->
<g id="edge15" class="edge">
<title>Node1&#45;&gt;Node13</title>
<path fill="none" stroke="#191970" d="M359.2692,-168.3733C377.6469,-159.4241 405.2312,-145.9917 425.9893,-135.8835"/>
<polygon fill="#191970" stroke="#191970" points="427.5304,-139.026 434.9888,-131.5011 424.4657,-132.7325 427.5304,-139.026"/>
</g>
<!-- Node15 -->
<g id="node16" class="node">
<title>Node15</title>
<g id="a_node16"><a xlink:title=" ">
<polygon fill="#ffffff" stroke="#bfbfbf" points="511,-56.5 511,-75.5 558,-75.5 558,-56.5 511,-56.5"/>
<text text-anchor="middle" x="534.5" y="-63.5" font-family="Helvetica,sans-Serif" font-size="10.00" fill="#000000">vector</text>
</a>
</g>
</g>
<!-- Node1&#45;&gt;Node15 -->
<g id="edge19" class="edge">
<title>Node1&#45;&gt;Node15</title>
<path fill="none" stroke="#191970" d="M374.6077,-169.3663C422.8834,-157.3695 504.4176,-136.608 509.5,-132 522.6649,-120.0638 528.9371,-100.469 531.9011,-85.7242"/>
<polygon fill="#191970" stroke="#191970" points="535.3965,-86.0397 533.5821,-75.6013 528.4911,-84.8928 535.3965,-86.0397"/>
</g>
<!-- Node2&#45;&gt;Node3 -->
<g id="edge3" class="edge">
<title>Node2&#45;&gt;Node3</title>
<path fill="none" stroke="#191970" d="M151.0893,-112.3733C127.8858,-103.2226 92.7962,-89.3844 66.9858,-79.2057"/>
<polygon fill="#191970" stroke="#191970" points="68.1789,-75.9139 57.5921,-75.5011 65.6108,-82.4258 68.1789,-75.9139"/>
</g>
<!-- Node4 -->
<g id="node5" class="node">
<title>Node4</title>
<g id="a_node5"><a xlink:href="SharedStruct_8hpp.html" target="_top" xlink:title=" ">
<polygon fill="#ffffff" stroke="#000000" points="123.5,-56.5 123.5,-75.5 223.5,-75.5 223.5,-56.5 123.5,-56.5"/>
<text text-anchor="middle" x="173.5" y="-63.5" font-family="Helvetica,sans-Serif" font-size="10.00" fill="#000000">SharedStruct.hpp</text>
</a>
</g>
</g>
<!-- Node2&#45;&gt;Node4 -->
<g id="edge4" class="edge">
<title>Node2&#45;&gt;Node4</title>
<path fill="none" stroke="#191970" d="M175.1516,-112.2455C174.8907,-104.9382 174.5248,-94.6944 174.2037,-85.7046"/>
<polygon fill="#191970" stroke="#191970" points="177.6992,-85.5113 173.8444,-75.6427 170.7036,-85.7613 177.6992,-85.5113"/>
</g>
<!-- Node5 -->
<g id="node6" class="node">
<title>Node5</title>
<g id="a_node6"><a xlink:title=" ">
<polygon fill="#ffffff" stroke="#bfbfbf" points="63.5,-.5 63.5,-19.5 115.5,-19.5 115.5,-.5 63.5,-.5"/>
<text text-anchor="middle" x="89.5" y="-7.5" font-family="Helvetica,sans-Serif" font-size="10.00" fill="#000000">cassert</text>
</a>
</g>
</g>
<!-- Node2&#45;&gt;Node5 -->
<g id="edge10" class="edge">
<title>Node2&#45;&gt;Node5</title>
<path fill="none" stroke="#191970" d="M157.826,-112.4014C144.3243,-104.2767 126.1174,-91.4937 114.5,-76 104.176,-62.2312 97.6551,-43.704 93.8719,-29.7843"/>
<polygon fill="#191970" stroke="#191970" points="97.1989,-28.6576 91.4044,-19.7878 90.4029,-30.3352 97.1989,-28.6576"/>
</g>
<!-- Node10 -->
<g id="node11" class="node">
<title>Node10</title>
<g id="a_node11"><a xlink:title=" ">
<polygon fill="#ffffff" stroke="#bfbfbf" points="242,-56.5 242,-75.5 289,-75.5 289,-56.5 242,-56.5"/>
<text text-anchor="middle" x="265.5" y="-63.5" font-family="Helvetica,sans-Serif" font-size="10.00" fill="#000000">cmath</text>
</a>
</g>
</g>
<!-- Node2&#45;&gt;Node10 -->
<g id="edge11" class="edge">
<title>Node2&#45;&gt;Node10</title>
<path fill="none" stroke="#191970" d="M191.1768,-112.2455C204.9856,-103.6534 225.3193,-91.0014 241.2292,-81.1018"/>
<polygon fill="#191970" stroke="#191970" points="243.3613,-83.8974 250.0028,-75.6427 239.6632,-77.954 243.3613,-83.8974"/>
</g>
<!-- Node11 -->
<g id="node12" class="node">
<title>Node11</title>
<g id="a_node12"><a xlink:title=" ">
<polygon fill="#ffffff" stroke="#bfbfbf" points="307,-56.5 307,-75.5 364,-75.5 364,-56.5 307,-56.5"/>
<text text-anchor="middle" x="335.5" y="-63.5" font-family="Helvetica,sans-Serif" font-size="10.00" fill="#000000">ostream</text>
</a>
</g>
</g>
<!-- Node2&#45;&gt;Node11 -->
<g id="edge12" class="edge">
<title>Node2&#45;&gt;Node11</title>
<path fill="none" stroke="#191970" d="M203.005,-112.3733C229.3802,-103.1419 269.3851,-89.1402 298.5358,-78.9375"/>
<polygon fill="#191970" stroke="#191970" points="300.0716,-82.1082 308.3539,-75.5011 297.7591,-75.5012 300.0716,-82.1082"/>
</g>
<!-- Node4&#45;&gt;Node5 -->
<g id="edge5" class="edge">
<title>Node4&#45;&gt;Node5</title>
<path fill="none" stroke="#191970" d="M158.8683,-56.2455C146.1006,-47.7337 127.3562,-35.2375 112.5701,-25.3801"/>
<polygon fill="#191970" stroke="#191970" points="114.226,-22.2775 103.964,-19.6427 110.3431,-28.1019 114.226,-22.2775"/>
</g>
<!-- Node6 -->
<g id="node7" class="node">
<title>Node6</title>
<g id="a_node7"><a xlink:title=" ">
<polygon fill="#ffffff" stroke="#bfbfbf" points="367.5,-.5 367.5,-19.5 417.5,-19.5 417.5,-.5 367.5,-.5"/>
<text text-anchor="middle" x="392.5" y="-7.5" font-family="Helvetica,sans-Serif" font-size="10.00" fill="#000000">cstdint</text>
</a>
</g>
</g>
<!-- Node4&#45;&gt;Node6 -->
<g id="edge6" class="edge">
<title>Node4&#45;&gt;Node6</title>
<path fill="none" stroke="#191970" d="M213.4398,-56.4216C250.7774,-47.371 308.0402,-33.2442 357.5,-20 357.5992,-19.9734 357.6985,-19.9468 357.798,-19.9201"/>
<polygon fill="#191970" stroke="#191970" points="358.5779,-23.3356 367.2928,-17.3105 356.7228,-16.5859 358.5779,-23.3356"/>
</g>
<!-- Node7 -->
<g id="node8" class="node">
<title>Node7</title>
<g id="a_node8"><a xlink:title=" ">
<polygon fill="#ffffff" stroke="#bfbfbf" points="134,-.5 134,-19.5 199,-19.5 199,-.5 134,-.5"/>
<text text-anchor="middle" x="166.5" y="-7.5" font-family="Helvetica,sans-Serif" font-size="10.00" fill="#000000">stdexcept</text>
</a>
</g>
</g>
<!-- Node4&#45;&gt;Node7 -->
<g id="edge7" class="edge">
<title>Node4&#45;&gt;Node7</title>
<path fill="none" stroke="#191970" d="M172.2807,-56.2455C171.3673,-48.9382 170.0868,-38.6944 168.9631,-29.7046"/>
<polygon fill="#191970" stroke="#191970" points="172.4187,-29.1313 167.7053,-19.6427 165.4728,-29.9996 172.4187,-29.1313"/>
</g>
<!-- Node8 -->
<g id="node9" class="node">
<title>Node8</title>
<g id="a_node9"><a xlink:title=" ">
<polygon fill="#ffffff" stroke="#bfbfbf" points="217.5,-.5 217.5,-19.5 261.5,-19.5 261.5,-.5 217.5,-.5"/>
<text text-anchor="middle" x="239.5" y="-7.5" font-family="Helvetica,sans-Serif" font-size="10.00" fill="#000000">string</text>
</a>
</g>
</g>
<!-- Node4&#45;&gt;Node8 -->
<g id="edge8" class="edge">
<title>Node4&#45;&gt;Node8</title>
<path fill="none" stroke="#191970" d="M184.9963,-56.2455C194.7442,-47.9746 208.9259,-35.9416 220.3798,-26.2232"/>
<polygon fill="#191970" stroke="#191970" points="222.7747,-28.7813 228.1354,-19.6427 218.2459,-23.4437 222.7747,-28.7813"/>
</g>
<!-- Node9 -->
<g id="node10" class="node">
<title>Node9</title>
<g id="a_node10"><a xlink:title=" ">
<polygon fill="#ffffff" stroke="#bfbfbf" points="280,-.5 280,-19.5 349,-19.5 349,-.5 280,-.5"/>
<text text-anchor="middle" x="314.5" y="-7.5" font-family="Helvetica,sans-Serif" font-size="10.00" fill="#000000">type_traits</text>
</a>
</g>
</g>
<!-- Node4&#45;&gt;Node9 -->
<g id="edge9" class="edge">
<title>Node4&#45;&gt;Node9</title>
<path fill="none" stroke="#191970" d="M197.7388,-56.3733C220.7789,-47.2226 255.6214,-33.3844 281.2501,-23.2057"/>
<polygon fill="#191970" stroke="#191970" points="282.5756,-26.4452 290.5775,-19.5011 279.9918,-19.9395 282.5756,-26.4452"/>
</g>
<!-- Node13&#45;&gt;Node6 -->
<g id="edge16" class="edge">
<title>Node13&#45;&gt;Node6</title>
<path fill="none" stroke="#191970" d="M442.6499,-112.2073C432.9631,-103.6044 419.5909,-90.2629 411.5,-76 403.3186,-61.5775 398.4192,-43.3487 395.6503,-29.7046"/>
<polygon fill="#191970" stroke="#191970" points="399.029,-28.7208 393.8002,-19.5062 392.1414,-29.9703 399.029,-28.7208"/>
</g>
<!-- Node14 -->
<g id="node15" class="node">
<title>Node14</title>
<g id="a_node15"><a xlink:title=" ">
<polygon fill="#ffffff" stroke="#bfbfbf" points="420.5,-56.5 420.5,-75.5 492.5,-75.5 492.5,-56.5 420.5,-56.5"/>
<text text-anchor="middle" x="456.5" y="-63.5" font-family="Helvetica,sans-Serif" font-size="10.00" fill="#000000">netinet/in.h</text>
</a>
</g>
</g>
<!-- Node13&#45;&gt;Node14 -->
<g id="edge17" class="edge">
<title>Node13&#45;&gt;Node14</title>
<path fill="none" stroke="#191970" d="M454.8484,-112.2455C455.1093,-104.9382 455.4752,-94.6944 455.7963,-85.7046"/>
<polygon fill="#191970" stroke="#191970" points="459.2964,-85.7613 456.1556,-75.6427 452.3008,-85.5113 459.2964,-85.7613"/>
</g>
<!-- Node13&#45;&gt;Node15 -->
<g id="edge18" class="edge">
<title>Node13&#45;&gt;Node15</title>
<path fill="none" stroke="#191970" d="M468.4349,-112.2455C480.5947,-103.7337 498.4464,-91.2375 512.5285,-81.3801"/>
<polygon fill="#191970" stroke="#191970" points="514.5395,-84.2447 520.7248,-75.6427 510.5253,-78.51 514.5395,-84.2447"/>
</g>
</g>
</svg>
