<?xml version="1.0" encoding="UTF-8" standalone="no"?>
<!DOCTYPE svg PUBLIC "-//W3C//DTD SVG 1.1//EN"
 "http://www.w3.org/Graphics/SVG/1.1/DTD/svg11.dtd">
<!-- Generated by graphviz version 2.40.1 (20161225.0304)
 -->
<!-- Title: /home/pieter/GitHub/EAGLE&#45;ZYBO&#45;Linux/src/mask/src/Threshold.hpp Pages: 1 -->
<svg width="330pt" height="295pt"
 viewBox="0.00 0.00 329.50 295.00" xmlns="http://www.w3.org/2000/svg" xmlns:xlink="http://www.w3.org/1999/xlink">
<g id="graph0" class="graph" transform="scale(1 1) rotate(0) translate(4 291)">
<title>/home/pieter/GitHub/EAGLE&#45;ZYBO&#45;Linux/src/mask/src/Threshold.hpp</title>
<polygon fill="#ffffff" stroke="transparent" points="-4,4 -4,-291 325.5,-291 325.5,4 -4,4"/>
<!-- Node3 -->
<g id="node1" class="node">
<title>Node3</title>
<g id="a_node1"><a xlink:title=" ">
<polygon fill="#bfbfbf" stroke="#000000" points="95.5,-245.5 95.5,-286.5 231.5,-286.5 231.5,-245.5 95.5,-245.5"/>
<text text-anchor="start" x="103.5" y="-274.5" font-family="Helvetica,sans-Serif" font-size="10.00" fill="#000000">/home/pieter/GitHub</text>
<text text-anchor="start" x="103.5" y="-263.5" font-family="Helvetica,sans-Serif" font-size="10.00" fill="#000000">/EAGLE&#45;ZYBO&#45;Linux/src</text>
<text text-anchor="middle" x="163.5" y="-252.5" font-family="Helvetica,sans-Serif" font-size="10.00" fill="#000000">/mask/src/Threshold.hpp</text>
</a>
</g>
</g>
<!-- Node4 -->
<g id="node2" class="node">
<title>Node4</title>
<g id="a_node2"><a xlink:href="Mask-Fallback_8hpp.html" target="_top" xlink:title=" ">
<polygon fill="#ffffff" stroke="#000000" points="0,-167.5 0,-208.5 157,-208.5 157,-167.5 0,-167.5"/>
<text text-anchor="start" x="8" y="-196.5" font-family="Helvetica,sans-Serif" font-size="10.00" fill="#000000">/home/pieter/GitHub</text>
<text text-anchor="start" x="8" y="-185.5" font-family="Helvetica,sans-Serif" font-size="10.00" fill="#000000">/EAGLE&#45;ZYBO&#45;Linux/src</text>
<text text-anchor="middle" x="78.5" y="-174.5" font-family="Helvetica,sans-Serif" font-size="10.00" fill="#000000">/mask/src/Mask&#45;Fallback.hpp</text>
</a>
</g>
</g>
<!-- Node3&#45;&gt;Node4 -->
<g id="edge1" class="edge">
<title>Node3&#45;&gt;Node4</title>
<path fill="none" stroke="#191970" d="M133.2367,-238.229C122.6295,-228.4953 110.9105,-217.7414 101.0466,-208.6898"/>
<polygon fill="#191970" stroke="#191970" points="130.9872,-240.915 140.7216,-245.0974 135.72,-235.7574 130.9872,-240.915"/>
</g>
<!-- Node7 -->
<g id="node5" class="node">
<title>Node7</title>
<g id="a_node5"><a xlink:href="Mask-NEON_8hpp.html" target="_top" xlink:title=" ">
<polygon fill="#ffffff" stroke="#000000" points="175.5,-167.5 175.5,-208.5 321.5,-208.5 321.5,-167.5 175.5,-167.5"/>
<text text-anchor="start" x="183.5" y="-196.5" font-family="Helvetica,sans-Serif" font-size="10.00" fill="#000000">/home/pieter/GitHub</text>
<text text-anchor="start" x="183.5" y="-185.5" font-family="Helvetica,sans-Serif" font-size="10.00" fill="#000000">/EAGLE&#45;ZYBO&#45;Linux/src</text>
<text text-anchor="middle" x="248.5" y="-174.5" font-family="Helvetica,sans-Serif" font-size="10.00" fill="#000000">/mask/src/Mask&#45;NEON.hpp</text>
</a>
</g>
</g>
<!-- Node3&#45;&gt;Node7 -->
<g id="edge4" class="edge">
<title>Node3&#45;&gt;Node7</title>
<path fill="none" stroke="#191970" d="M193.7633,-238.229C204.3705,-228.4953 216.0895,-217.7414 225.9534,-208.6898"/>
<polygon fill="#191970" stroke="#191970" points="191.28,-235.7574 186.2784,-245.0974 196.0128,-240.915 191.28,-235.7574"/>
</g>
<!-- Node5 -->
<g id="node3" class="node">
<title>Node5</title>
<g id="a_node3"><a xlink:href="GenerateMask-Unroll_8ipp.html" target="_top" xlink:title=" ">
<polygon fill="#ffffff" stroke="#000000" points="10,-78.5 10,-130.5 147,-130.5 147,-78.5 10,-78.5"/>
<text text-anchor="start" x="18" y="-118.5" font-family="Helvetica,sans-Serif" font-size="10.00" fill="#000000">/home/pieter/GitHub</text>
<text text-anchor="start" x="18" y="-107.5" font-family="Helvetica,sans-Serif" font-size="10.00" fill="#000000">/EAGLE&#45;ZYBO&#45;Linux/src</text>
<text text-anchor="start" x="18" y="-96.5" font-family="Helvetica,sans-Serif" font-size="10.00" fill="#000000">/mask/src/GenerateMask</text>
<text text-anchor="middle" x="78.5" y="-85.5" font-family="Helvetica,sans-Serif" font-size="10.00" fill="#000000">&#45;Unroll.ipp</text>
</a>
</g>
</g>
<!-- Node4&#45;&gt;Node5 -->
<g id="edge2" class="edge">
<title>Node4&#45;&gt;Node5</title>
<path fill="none" stroke="#191970" d="M78.5,-157.1618C78.5,-148.4305 78.5,-139.0145 78.5,-130.5925"/>
<polygon fill="#191970" stroke="#191970" points="75.0001,-157.3595 78.5,-167.3595 82.0001,-157.3596 75.0001,-157.3595"/>
</g>
<!-- Node6 -->
<g id="node4" class="node">
<title>Node6</title>
<g id="a_node4"><a xlink:href="Mask_8cpp.html" target="_top" xlink:title=" ">
<polygon fill="#ffffff" stroke="#000000" points="14,-.5 14,-41.5 143,-41.5 143,-.5 14,-.5"/>
<text text-anchor="start" x="22" y="-29.5" font-family="Helvetica,sans-Serif" font-size="10.00" fill="#000000">/home/pieter/GitHub</text>
<text text-anchor="start" x="22" y="-18.5" font-family="Helvetica,sans-Serif" font-size="10.00" fill="#000000">/EAGLE&#45;ZYBO&#45;Linux/src</text>
<text text-anchor="middle" x="78.5" y="-7.5" font-family="Helvetica,sans-Serif" font-size="10.00" fill="#000000">/mask/src/Mask.cpp</text>
</a>
</g>
</g>
<!-- Node5&#45;&gt;Node6 -->
<g id="edge3" class="edge">
<title>Node5&#45;&gt;Node6</title>
<path fill="none" stroke="#191970" d="M78.5,-67.8168C78.5,-58.8649 78.5,-49.5976 78.5,-41.6941"/>
<polygon fill="#191970" stroke="#191970" points="75.0001,-68.08 78.5,-78.0801 82.0001,-68.0801 75.0001,-68.08"/>
</g>
</g>
</svg>
