<?xml version="1.0" encoding="UTF-8" standalone="no"?>
<!DOCTYPE svg PUBLIC "-//W3C//DTD SVG 1.1//EN"
 "http://www.w3.org/Graphics/SVG/1.1/DTD/svg11.dtd">
<!-- Generated by graphviz version 2.40.1 (20161225.0304)
 -->
<!-- Title: /home/pieter/GitHub/EAGLE&#45;ZYBO&#45;Linux/src/logger/src/UDPSender.cpp Pages: 1 -->
<svg width="639pt" height="162pt"
 viewBox="0.00 0.00 639.00 162.00" xmlns="http://www.w3.org/2000/svg" xmlns:xlink="http://www.w3.org/1999/xlink">
<g id="graph0" class="graph" transform="scale(1 1) rotate(0) translate(4 158)">
<title>/home/pieter/GitHub/EAGLE&#45;ZYBO&#45;Linux/src/logger/src/UDPSender.cpp</title>
<polygon fill="#ffffff" stroke="transparent" points="-4,4 -4,-158 635,-158 635,4 -4,4"/>
<!-- Node0 -->
<g id="node1" class="node">
<title>Node0</title>
<g id="a_node1"><a xlink:title=" ">
<polygon fill="#bfbfbf" stroke="#000000" points="249.5,-112.5 249.5,-153.5 394.5,-153.5 394.5,-112.5 249.5,-112.5"/>
<text text-anchor="start" x="257.5" y="-141.5" font-family="Helvetica,sans-Serif" font-size="10.00" fill="#000000">/home/pieter/GitHub</text>
<text text-anchor="start" x="257.5" y="-130.5" font-family="Helvetica,sans-Serif" font-size="10.00" fill="#000000">/EAGLE&#45;ZYBO&#45;Linux/src</text>
<text text-anchor="middle" x="322" y="-119.5" font-family="Helvetica,sans-Serif" font-size="10.00" fill="#000000">/logger/src/UDPSender.cpp</text>
</a>
</g>
</g>
<!-- Node1 -->
<g id="node2" class="node">
<title>Node1</title>
<g id="a_node2"><a xlink:href="UDPSender_8hpp.html" target="_top" xlink:title=" ">
<polygon fill="#ffffff" stroke="#000000" points="101,-56.5 101,-75.5 193,-75.5 193,-56.5 101,-56.5"/>
<text text-anchor="middle" x="147" y="-63.5" font-family="Helvetica,sans-Serif" font-size="10.00" fill="#000000">UDPSender.hpp</text>
</a>
</g>
</g>
<!-- Node0&#45;&gt;Node1 -->
<g id="edge1" class="edge">
<title>Node0&#45;&gt;Node1</title>
<path fill="none" stroke="#191970" d="M268.0663,-112.3511C239.9974,-101.6047 206.4969,-88.7788 181.8589,-79.346"/>
<polygon fill="#191970" stroke="#191970" points="182.8077,-75.9615 172.2173,-75.6546 180.3048,-82.4988 182.8077,-75.9615"/>
</g>
<!-- Node3 -->
<g id="node4" class="node">
<title>Node3</title>
<g id="a_node4"><a xlink:title=" ">
<polygon fill="#ffffff" stroke="#bfbfbf" points="0,-.5 0,-19.5 72,-19.5 72,-.5 0,-.5"/>
<text text-anchor="middle" x="36" y="-7.5" font-family="Helvetica,sans-Serif" font-size="10.00" fill="#000000">netinet/in.h</text>
</a>
</g>
</g>
<!-- Node0&#45;&gt;Node3 -->
<g id="edge9" class="edge">
<title>Node0&#45;&gt;Node3</title>
<path fill="none" stroke="#191970" d="M249.3729,-126.6417C201.7169,-119.7808 139.6363,-105.5385 92,-76 72.7515,-64.0643 56.7572,-43.3058 46.8572,-28.2504"/>
<polygon fill="#191970" stroke="#191970" points="49.7931,-26.3443 41.506,-19.7432 43.8678,-30.0714 49.7931,-26.3443"/>
</g>
<!-- Node5 -->
<g id="node6" class="node">
<title>Node5</title>
<g id="a_node6"><a xlink:title=" ">
<polygon fill="#ffffff" stroke="#bfbfbf" points="224,-.5 224,-19.5 284,-19.5 284,-.5 224,-.5"/>
<text text-anchor="middle" x="254" y="-7.5" font-family="Helvetica,sans-Serif" font-size="10.00" fill="#000000">iostream</text>
</a>
</g>
</g>
<!-- Node0&#45;&gt;Node5 -->
<g id="edge8" class="edge">
<title>Node0&#45;&gt;Node5</title>
<path fill="none" stroke="#191970" d="M277.2482,-112.2994C263.0147,-103.2978 248.9221,-91.2618 241,-76 233.3682,-61.2975 238.1847,-42.6256 243.9977,-28.8966"/>
<polygon fill="#191970" stroke="#191970" points="247.3269,-30.0445 248.4476,-19.5091 241.0015,-27.0461 247.3269,-30.0445"/>
</g>
<!-- Node6 -->
<g id="node7" class="node">
<title>Node6</title>
<g id="a_node7"><a xlink:title=" ">
<polygon fill="#ffffff" stroke="#bfbfbf" points="249.5,-56.5 249.5,-75.5 318.5,-75.5 318.5,-56.5 249.5,-56.5"/>
<text text-anchor="middle" x="284" y="-63.5" font-family="Helvetica,sans-Serif" font-size="10.00" fill="#000000">arpa/inet.h</text>
</a>
</g>
</g>
<!-- Node0&#45;&gt;Node6 -->
<g id="edge6" class="edge">
<title>Node0&#45;&gt;Node6</title>
<path fill="none" stroke="#191970" d="M310.1849,-112.168C305.1827,-103.3484 299.4013,-93.155 294.5455,-84.5933"/>
<polygon fill="#191970" stroke="#191970" points="297.525,-82.7521 289.5471,-75.7805 291.4362,-86.2056 297.525,-82.7521"/>
</g>
<!-- Node7 -->
<g id="node8" class="node">
<title>Node7</title>
<g id="a_node8"><a xlink:title=" ">
<polygon fill="#ffffff" stroke="#bfbfbf" points="336.5,-56.5 336.5,-75.5 383.5,-75.5 383.5,-56.5 336.5,-56.5"/>
<text text-anchor="middle" x="360" y="-63.5" font-family="Helvetica,sans-Serif" font-size="10.00" fill="#000000">cerrno</text>
</a>
</g>
</g>
<!-- Node0&#45;&gt;Node7 -->
<g id="edge7" class="edge">
<title>Node0&#45;&gt;Node7</title>
<path fill="none" stroke="#191970" d="M333.8151,-112.168C338.8173,-103.3484 344.5987,-93.155 349.4545,-84.5933"/>
<polygon fill="#191970" stroke="#191970" points="352.5638,-86.2056 354.4529,-75.7805 346.475,-82.7521 352.5638,-86.2056"/>
</g>
<!-- Node8 -->
<g id="node9" class="node">
<title>Node8</title>
<g id="a_node9"><a xlink:title=" ">
<polygon fill="#ffffff" stroke="#bfbfbf" points="401.5,-56.5 401.5,-75.5 466.5,-75.5 466.5,-56.5 401.5,-56.5"/>
<text text-anchor="middle" x="434" y="-63.5" font-family="Helvetica,sans-Serif" font-size="10.00" fill="#000000">stdexcept</text>
</a>
</g>
</g>
<!-- Node0&#45;&gt;Node8 -->
<g id="edge10" class="edge">
<title>Node0&#45;&gt;Node8</title>
<path fill="none" stroke="#191970" d="M356.5176,-112.3511C373.4437,-102.2256 393.4561,-90.254 408.9021,-81.0139"/>
<polygon fill="#191970" stroke="#191970" points="411.076,-83.792 417.8609,-75.6546 407.4824,-77.7848 411.076,-83.792"/>
</g>
<!-- Node9 -->
<g id="node10" class="node">
<title>Node9</title>
<g id="a_node10"><a xlink:title=" ">
<polygon fill="#ffffff" stroke="#bfbfbf" points="485,-56.5 485,-75.5 557,-75.5 557,-56.5 485,-56.5"/>
<text text-anchor="middle" x="521" y="-63.5" font-family="Helvetica,sans-Serif" font-size="10.00" fill="#000000">sys/types.h</text>
</a>
</g>
</g>
<!-- Node0&#45;&gt;Node9 -->
<g id="edge11" class="edge">
<title>Node0&#45;&gt;Node9</title>
<path fill="none" stroke="#191970" d="M383.059,-112.4425C415.7635,-101.4314 455.0156,-88.2158 483.2715,-78.7026"/>
<polygon fill="#191970" stroke="#191970" points="484.4181,-82.0096 492.7786,-75.5017 482.1845,-75.3755 484.4181,-82.0096"/>
</g>
<!-- Node10 -->
<g id="node11" class="node">
<title>Node10</title>
<g id="a_node11"><a xlink:title=" ">
<polygon fill="#ffffff" stroke="#bfbfbf" points="575,-56.5 575,-75.5 631,-75.5 631,-56.5 575,-56.5"/>
<text text-anchor="middle" x="603" y="-63.5" font-family="Helvetica,sans-Serif" font-size="10.00" fill="#000000">unistd.h</text>
</a>
</g>
</g>
<!-- Node0&#45;&gt;Node10 -->
<g id="edge12" class="edge">
<title>Node0&#45;&gt;Node10</title>
<path fill="none" stroke="#191970" d="M394.7599,-116.6931C440.8842,-106.1948 502.0427,-91.9808 564.6808,-76.277"/>
<polygon fill="#191970" stroke="#191970" points="565.9012,-79.5791 574.7445,-73.7442 564.1926,-72.7908 565.9012,-79.5791"/>
</g>
<!-- Node2 -->
<g id="node3" class="node">
<title>Node2</title>
<g id="a_node3"><a xlink:title=" ">
<polygon fill="#ffffff" stroke="#bfbfbf" points="90,-.5 90,-19.5 140,-19.5 140,-.5 90,-.5"/>
<text text-anchor="middle" x="115" y="-7.5" font-family="Helvetica,sans-Serif" font-size="10.00" fill="#000000">cstdint</text>
</a>
</g>
</g>
<!-- Node1&#45;&gt;Node2 -->
<g id="edge2" class="edge">
<title>Node1&#45;&gt;Node2</title>
<path fill="none" stroke="#191970" d="M141.426,-56.2455C137.0669,-48.617 130.8789,-37.7881 125.5867,-28.5267"/>
<polygon fill="#191970" stroke="#191970" points="128.5104,-26.5886 120.5101,-19.6427 122.4327,-30.0616 128.5104,-26.5886"/>
</g>
<!-- Node1&#45;&gt;Node3 -->
<g id="edge3" class="edge">
<title>Node1&#45;&gt;Node3</title>
<path fill="none" stroke="#191970" d="M127.9184,-56.3733C110.2598,-47.4644 83.7947,-34.1127 63.7902,-24.0203"/>
<polygon fill="#191970" stroke="#191970" points="65.3372,-20.8806 54.8326,-19.5011 62.1842,-27.1303 65.3372,-20.8806"/>
</g>
<!-- Node4 -->
<g id="node5" class="node">
<title>Node4</title>
<g id="a_node5"><a xlink:title=" ">
<polygon fill="#ffffff" stroke="#bfbfbf" points="158.5,-.5 158.5,-19.5 205.5,-19.5 205.5,-.5 158.5,-.5"/>
<text text-anchor="middle" x="182" y="-7.5" font-family="Helvetica,sans-Serif" font-size="10.00" fill="#000000">vector</text>
</a>
</g>
</g>
<!-- Node1&#45;&gt;Node4 -->
<g id="edge4" class="edge">
<title>Node1&#45;&gt;Node4</title>
<path fill="none" stroke="#191970" d="M153.0965,-56.2455C157.9145,-48.5367 164.7751,-37.5598 170.6032,-28.2348"/>
<polygon fill="#191970" stroke="#191970" points="173.6413,-29.9777 175.9733,-19.6427 167.7053,-26.2677 173.6413,-29.9777"/>
</g>
<!-- Node1&#45;&gt;Node5 -->
<g id="edge5" class="edge">
<title>Node1&#45;&gt;Node5</title>
<path fill="none" stroke="#191970" d="M165.638,-56.2455C182.4386,-47.4527 207.3634,-34.4079 226.4618,-24.4125"/>
<polygon fill="#191970" stroke="#191970" points="228.3386,-27.3807 235.5756,-19.6427 225.0927,-21.1787 228.3386,-27.3807"/>
</g>
</g>
</svg>
