<?xml version="1.0" encoding="UTF-8" standalone="no"?>
<!DOCTYPE svg PUBLIC "-//W3C//DTD SVG 1.1//EN"
 "http://www.w3.org/Graphics/SVG/1.1/DTD/svg11.dtd">
<!-- Generated by graphviz version 2.40.1 (20161225.0304)
 -->
<!-- Title: /home/pieter/GitHub/EAGLE&#45;ZYBO&#45;Linux/src/logger/src/UDPSender.cpp Pages: 1 -->
<svg width="666pt" height="162pt"
 viewBox="0.00 0.00 666.00 162.00" xmlns="http://www.w3.org/2000/svg" xmlns:xlink="http://www.w3.org/1999/xlink">
<g id="graph0" class="graph" transform="scale(1 1) rotate(0) translate(4 158)">
<title>/home/pieter/GitHub/EAGLE&#45;ZYBO&#45;Linux/src/logger/src/UDPSender.cpp</title>
<polygon fill="#ffffff" stroke="transparent" points="-4,4 -4,-158 662,-158 662,4 -4,4"/>
<!-- Node0 -->
<g id="node1" class="node">
<title>Node0</title>
<g id="a_node1"><a xlink:title=" ">
<polygon fill="#bfbfbf" stroke="#000000" points="271.5,-112.5 271.5,-153.5 416.5,-153.5 416.5,-112.5 271.5,-112.5"/>
<text text-anchor="start" x="279.5" y="-141.5" font-family="Helvetica,sans-Serif" font-size="10.00" fill="#000000">/home/pieter/GitHub</text>
<text text-anchor="start" x="279.5" y="-130.5" font-family="Helvetica,sans-Serif" font-size="10.00" fill="#000000">/EAGLE&#45;ZYBO&#45;Linux/src</text>
<text text-anchor="middle" x="344" y="-119.5" font-family="Helvetica,sans-Serif" font-size="10.00" fill="#000000">/logger/src/UDPSender.cpp</text>
</a>
</g>
</g>
<!-- Node1 -->
<g id="node2" class="node">
<title>Node1</title>
<g id="a_node2"><a xlink:href="UDPSender_8hpp.html" target="_top" xlink:title=" ">
<polygon fill="#ffffff" stroke="#000000" points="48,-56.5 48,-75.5 140,-75.5 140,-56.5 48,-56.5"/>
<text text-anchor="middle" x="94" y="-63.5" font-family="Helvetica,sans-Serif" font-size="10.00" fill="#000000">UDPSender.hpp</text>
</a>
</g>
</g>
<!-- Node0&#45;&gt;Node1 -->
<g id="edge1" class="edge">
<title>Node0&#45;&gt;Node1</title>
<path fill="none" stroke="#191970" d="M271.3538,-113.5308C228.7898,-102.1237 176.3409,-88.0674 139.5605,-78.2102"/>
<polygon fill="#191970" stroke="#191970" points="140.1885,-74.7551 129.6233,-75.5471 138.3764,-81.5165 140.1885,-74.7551"/>
</g>
<!-- Node3 -->
<g id="node4" class="node">
<title>Node3</title>
<g id="a_node4"><a xlink:title=" ">
<polygon fill="#ffffff" stroke="#bfbfbf" points="134,-.5 134,-19.5 206,-19.5 206,-.5 134,-.5"/>
<text text-anchor="middle" x="170" y="-7.5" font-family="Helvetica,sans-Serif" font-size="10.00" fill="#000000">netinet/in.h</text>
</a>
</g>
</g>
<!-- Node0&#45;&gt;Node3 -->
<g id="edge8" class="edge">
<title>Node0&#45;&gt;Node3</title>
<path fill="none" stroke="#191970" d="M271.2226,-121.0589C242.122,-112.8616 210.4831,-99.0905 189,-76 177.4642,-63.6011 172.8803,-44.6446 171.0852,-30.2234"/>
<polygon fill="#191970" stroke="#191970" points="174.5343,-29.4936 170.1639,-19.8422 167.5617,-30.1125 174.5343,-29.4936"/>
</g>
<!-- Node5 -->
<g id="node6" class="node">
<title>Node5</title>
<g id="a_node6"><a xlink:title=" ">
<polygon fill="#ffffff" stroke="#bfbfbf" points="197.5,-56.5 197.5,-75.5 266.5,-75.5 266.5,-56.5 197.5,-56.5"/>
<text text-anchor="middle" x="232" y="-63.5" font-family="Helvetica,sans-Serif" font-size="10.00" fill="#000000">arpa/inet.h</text>
</a>
</g>
</g>
<!-- Node0&#45;&gt;Node5 -->
<g id="edge5" class="edge">
<title>Node0&#45;&gt;Node5</title>
<path fill="none" stroke="#191970" d="M309.4824,-112.3511C292.5563,-102.2256 272.5439,-90.254 257.0979,-81.0139"/>
<polygon fill="#191970" stroke="#191970" points="258.5176,-77.7848 248.1391,-75.6546 254.924,-83.792 258.5176,-77.7848"/>
</g>
<!-- Node6 -->
<g id="node7" class="node">
<title>Node6</title>
<g id="a_node7"><a xlink:title=" ">
<polygon fill="#ffffff" stroke="#bfbfbf" points="284.5,-56.5 284.5,-75.5 331.5,-75.5 331.5,-56.5 284.5,-56.5"/>
<text text-anchor="middle" x="308" y="-63.5" font-family="Helvetica,sans-Serif" font-size="10.00" fill="#000000">cerrno</text>
</a>
</g>
</g>
<!-- Node0&#45;&gt;Node6 -->
<g id="edge6" class="edge">
<title>Node0&#45;&gt;Node6</title>
<path fill="none" stroke="#191970" d="M332.8067,-112.168C328.0678,-103.3484 322.5907,-93.155 317.9904,-84.5933"/>
<polygon fill="#191970" stroke="#191970" points="321.0715,-82.9328 313.2552,-75.7805 314.9053,-86.246 321.0715,-82.9328"/>
</g>
<!-- Node7 -->
<g id="node8" class="node">
<title>Node7</title>
<g id="a_node8"><a xlink:title=" ">
<polygon fill="#ffffff" stroke="#bfbfbf" points="350,-56.5 350,-75.5 410,-75.5 410,-56.5 350,-56.5"/>
<text text-anchor="middle" x="380" y="-63.5" font-family="Helvetica,sans-Serif" font-size="10.00" fill="#000000">iostream</text>
</a>
</g>
</g>
<!-- Node0&#45;&gt;Node7 -->
<g id="edge7" class="edge">
<title>Node0&#45;&gt;Node7</title>
<path fill="none" stroke="#191970" d="M355.1933,-112.168C359.9322,-103.3484 365.4093,-93.155 370.0096,-84.5933"/>
<polygon fill="#191970" stroke="#191970" points="373.0947,-86.246 374.7448,-75.7805 366.9285,-82.9328 373.0947,-86.246"/>
</g>
<!-- Node8 -->
<g id="node9" class="node">
<title>Node8</title>
<g id="a_node9"><a xlink:title=" ">
<polygon fill="#ffffff" stroke="#bfbfbf" points="428.5,-56.5 428.5,-75.5 493.5,-75.5 493.5,-56.5 428.5,-56.5"/>
<text text-anchor="middle" x="461" y="-63.5" font-family="Helvetica,sans-Serif" font-size="10.00" fill="#000000">stdexcept</text>
</a>
</g>
</g>
<!-- Node0&#45;&gt;Node8 -->
<g id="edge9" class="edge">
<title>Node0&#45;&gt;Node8</title>
<path fill="none" stroke="#191970" d="M380.0585,-112.3511C397.9071,-102.1301 419.0408,-90.0279 435.237,-80.7532"/>
<polygon fill="#191970" stroke="#191970" points="437.2018,-83.6613 444.1404,-75.6546 433.7232,-77.5868 437.2018,-83.6613"/>
</g>
<!-- Node9 -->
<g id="node10" class="node">
<title>Node9</title>
<g id="a_node10"><a xlink:title=" ">
<polygon fill="#ffffff" stroke="#bfbfbf" points="512,-56.5 512,-75.5 584,-75.5 584,-56.5 512,-56.5"/>
<text text-anchor="middle" x="548" y="-63.5" font-family="Helvetica,sans-Serif" font-size="10.00" fill="#000000">sys/types.h</text>
</a>
</g>
</g>
<!-- Node0&#45;&gt;Node9 -->
<g id="edge10" class="edge">
<title>Node0&#45;&gt;Node9</title>
<path fill="none" stroke="#191970" d="M406.5931,-112.4425C440.1194,-101.4314 480.3577,-88.2158 509.3235,-78.7026"/>
<polygon fill="#191970" stroke="#191970" points="510.6609,-81.9473 519.0695,-75.5017 508.4766,-75.2968 510.6609,-81.9473"/>
</g>
<!-- Node10 -->
<g id="node11" class="node">
<title>Node10</title>
<g id="a_node11"><a xlink:title=" ">
<polygon fill="#ffffff" stroke="#bfbfbf" points="602,-56.5 602,-75.5 658,-75.5 658,-56.5 602,-56.5"/>
<text text-anchor="middle" x="630" y="-63.5" font-family="Helvetica,sans-Serif" font-size="10.00" fill="#000000">unistd.h</text>
</a>
</g>
</g>
<!-- Node0&#45;&gt;Node10 -->
<g id="edge11" class="edge">
<title>Node0&#45;&gt;Node10</title>
<path fill="none" stroke="#191970" d="M416.6343,-117.1554C463.9642,-106.6485 527.292,-92.2496 591.8051,-76.2358"/>
<polygon fill="#191970" stroke="#191970" points="592.8914,-79.5722 601.7477,-73.7572 591.1981,-72.7801 592.8914,-79.5722"/>
</g>
<!-- Node2 -->
<g id="node3" class="node">
<title>Node2</title>
<g id="a_node3"><a xlink:title=" ">
<polygon fill="#ffffff" stroke="#bfbfbf" points="0,-.5 0,-19.5 50,-19.5 50,-.5 0,-.5"/>
<text text-anchor="middle" x="25" y="-7.5" font-family="Helvetica,sans-Serif" font-size="10.00" fill="#000000">cstdint</text>
</a>
</g>
</g>
<!-- Node1&#45;&gt;Node2 -->
<g id="edge2" class="edge">
<title>Node1&#45;&gt;Node2</title>
<path fill="none" stroke="#191970" d="M81.9811,-56.2455C71.7902,-47.9746 56.9638,-35.9416 44.9893,-26.2232"/>
<polygon fill="#191970" stroke="#191970" points="46.8514,-23.2268 36.8812,-19.6427 42.4402,-28.662 46.8514,-23.2268"/>
</g>
<!-- Node1&#45;&gt;Node3 -->
<g id="edge3" class="edge">
<title>Node1&#45;&gt;Node3</title>
<path fill="none" stroke="#191970" d="M107.2382,-56.2455C118.681,-47.814 135.4296,-35.4729 148.7475,-25.6598"/>
<polygon fill="#191970" stroke="#191970" points="150.9391,-28.3924 156.9135,-19.6427 146.7867,-22.757 150.9391,-28.3924"/>
</g>
<!-- Node4 -->
<g id="node5" class="node">
<title>Node4</title>
<g id="a_node5"><a xlink:title=" ">
<polygon fill="#ffffff" stroke="#bfbfbf" points="68.5,-.5 68.5,-19.5 115.5,-19.5 115.5,-.5 68.5,-.5"/>
<text text-anchor="middle" x="92" y="-7.5" font-family="Helvetica,sans-Serif" font-size="10.00" fill="#000000">vector</text>
</a>
</g>
</g>
<!-- Node1&#45;&gt;Node4 -->
<g id="edge4" class="edge">
<title>Node1&#45;&gt;Node4</title>
<path fill="none" stroke="#191970" d="M93.6516,-56.2455C93.3907,-48.9382 93.0248,-38.6944 92.7037,-29.7046"/>
<polygon fill="#191970" stroke="#191970" points="96.1992,-29.5113 92.3444,-19.6427 89.2036,-29.7613 96.1992,-29.5113"/>
</g>
</g>
</svg>
