<?xml version="1.0" encoding="UTF-8" standalone="no"?>
<!DOCTYPE svg PUBLIC "-//W3C//DTD SVG 1.1//EN"
 "http://www.w3.org/Graphics/SVG/1.1/DTD/svg11.dtd">
<!-- Generated by graphviz version 2.40.1 (20161225.0304)
 -->
<!-- Title: /home/pieter/GitHub/EAGLE&#45;ZYBO&#45;Linux/src/grid&#45;finder/include/uint.hpp Pages: 1 -->
<svg width="757pt" height="473pt"
 viewBox="0.00 0.00 757.00 473.00" xmlns="http://www.w3.org/2000/svg" xmlns:xlink="http://www.w3.org/1999/xlink">
<g id="graph0" class="graph" transform="scale(1 1) rotate(0) translate(4 469)">
<title>/home/pieter/GitHub/EAGLE&#45;ZYBO&#45;Linux/src/grid&#45;finder/include/uint.hpp</title>
<polygon fill="#ffffff" stroke="transparent" points="-4,4 -4,-469 753,-469 753,4 -4,4"/>
<!-- Node1 -->
<g id="node1" class="node">
<title>Node1</title>
<g id="a_node1"><a xlink:title=" ">
<polygon fill="#bfbfbf" stroke="#000000" points="267.5,-423.5 267.5,-464.5 418.5,-464.5 418.5,-423.5 267.5,-423.5"/>
<text text-anchor="start" x="275.5" y="-452.5" font-family="Helvetica,sans-Serif" font-size="10.00" fill="#000000">/home/pieter/GitHub</text>
<text text-anchor="start" x="275.5" y="-441.5" font-family="Helvetica,sans-Serif" font-size="10.00" fill="#000000">/EAGLE&#45;ZYBO&#45;Linux/src</text>
<text text-anchor="middle" x="343" y="-430.5" font-family="Helvetica,sans-Serif" font-size="10.00" fill="#000000">/grid&#45;finder/include/uint.hpp</text>
</a>
</g>
</g>
<!-- Node2 -->
<g id="node2" class="node">
<title>Node2</title>
<g id="a_node2"><a xlink:href="Angle_8hpp.html" target="_top" xlink:title=" ">
<polygon fill="#ffffff" stroke="#000000" points="263,-345.5 263,-386.5 423,-386.5 423,-345.5 263,-345.5"/>
<text text-anchor="start" x="271" y="-374.5" font-family="Helvetica,sans-Serif" font-size="10.00" fill="#000000">/home/pieter/GitHub</text>
<text text-anchor="start" x="271" y="-363.5" font-family="Helvetica,sans-Serif" font-size="10.00" fill="#000000">/EAGLE&#45;ZYBO&#45;Linux/src</text>
<text text-anchor="middle" x="343" y="-352.5" font-family="Helvetica,sans-Serif" font-size="10.00" fill="#000000">/grid&#45;finder/include/Angle.hpp</text>
</a>
</g>
</g>
<!-- Node1&#45;&gt;Node2 -->
<g id="edge1" class="edge">
<title>Node1&#45;&gt;Node2</title>
<path fill="none" stroke="#191970" d="M343,-413.0789C343,-404.2178 343,-394.7747 343,-386.6898"/>
<polygon fill="#191970" stroke="#191970" points="339.5001,-413.0974 343,-423.0974 346.5001,-413.0975 339.5001,-413.0974"/>
</g>
<!-- Node9 -->
<g id="node9" class="node">
<title>Node9</title>
<g id="a_node9"><a xlink:href="CenterPointOutLineIterator_8hpp.html" target="_top" xlink:title=" ">
<polygon fill="#ffffff" stroke="#000000" points="0,-256.5 0,-308.5 168,-308.5 168,-256.5 0,-256.5"/>
<text text-anchor="start" x="8" y="-296.5" font-family="Helvetica,sans-Serif" font-size="10.00" fill="#000000">/home/pieter/GitHub</text>
<text text-anchor="start" x="8" y="-285.5" font-family="Helvetica,sans-Serif" font-size="10.00" fill="#000000">/EAGLE&#45;ZYBO&#45;Linux/src</text>
<text text-anchor="start" x="8" y="-274.5" font-family="Helvetica,sans-Serif" font-size="10.00" fill="#000000">/grid&#45;finder/include/CenterPoint</text>
<text text-anchor="middle" x="84" y="-263.5" font-family="Helvetica,sans-Serif" font-size="10.00" fill="#000000">OutLineIterator.hpp</text>
</a>
</g>
</g>
<!-- Node1&#45;&gt;Node9 -->
<g id="edge13" class="edge">
<title>Node1&#45;&gt;Node9</title>
<path fill="none" stroke="#191970" d="M301.3017,-417.9989C253.0784,-387.9292 174.152,-338.7145 125.8602,-308.602"/>
<polygon fill="#191970" stroke="#191970" points="299.597,-421.0606 309.9344,-423.3819 303.3008,-415.1207 299.597,-421.0606"/>
</g>
<!-- Node10 -->
<g id="node10" class="node">
<title>Node10</title>
<g id="a_node10"><a xlink:href="Pixel_8hpp.html" target="_top" xlink:title=" ">
<polygon fill="#ffffff" stroke="#000000" points="466,-345.5 466,-386.5 622,-386.5 622,-345.5 466,-345.5"/>
<text text-anchor="start" x="474" y="-374.5" font-family="Helvetica,sans-Serif" font-size="10.00" fill="#000000">/home/pieter/GitHub</text>
<text text-anchor="start" x="474" y="-363.5" font-family="Helvetica,sans-Serif" font-size="10.00" fill="#000000">/EAGLE&#45;ZYBO&#45;Linux/src</text>
<text text-anchor="middle" x="544" y="-352.5" font-family="Helvetica,sans-Serif" font-size="10.00" fill="#000000">/grid&#45;finder/include/Pixel.hpp</text>
</a>
</g>
</g>
<!-- Node1&#45;&gt;Node10 -->
<g id="edge15" class="edge">
<title>Node1&#45;&gt;Node10</title>
<path fill="none" stroke="#191970" d="M405.5638,-419.7215C432.9611,-409.0897 464.7667,-396.7473 490.9781,-386.5757"/>
<polygon fill="#191970" stroke="#191970" points="404.1297,-416.5236 396.0733,-423.4044 406.6622,-423.0495 404.1297,-416.5236"/>
</g>
<!-- Node3 -->
<g id="node3" class="node">
<title>Node3</title>
<g id="a_node3"><a xlink:href="Bresenham_8hpp.html" target="_top" xlink:title=" ">
<polygon fill="#ffffff" stroke="#000000" points="224,-262 224,-303 412,-303 412,-262 224,-262"/>
<text text-anchor="start" x="232" y="-291" font-family="Helvetica,sans-Serif" font-size="10.00" fill="#000000">/home/pieter/GitHub</text>
<text text-anchor="start" x="232" y="-280" font-family="Helvetica,sans-Serif" font-size="10.00" fill="#000000">/EAGLE&#45;ZYBO&#45;Linux/src</text>
<text text-anchor="middle" x="318" y="-269" font-family="Helvetica,sans-Serif" font-size="10.00" fill="#000000">/grid&#45;finder/include/Bresenham.hpp</text>
</a>
</g>
</g>
<!-- Node2&#45;&gt;Node3 -->
<g id="edge2" class="edge">
<title>Node2&#45;&gt;Node3</title>
<path fill="none" stroke="#191970" d="M333.8658,-335.4918C330.6496,-324.7498 327.1122,-312.9349 324.1953,-303.1924"/>
<polygon fill="#191970" stroke="#191970" points="330.599,-336.7836 336.8202,-345.3595 337.3049,-334.7758 330.599,-336.7836"/>
</g>
<!-- Node4 -->
<g id="node4" class="node">
<title>Node4</title>
<g id="a_node4"><a xlink:href="GridFinder_8hpp.html" target="_top" xlink:title=" ">
<polygon fill="#ffffff" stroke="#000000" points="233.5,-95 233.5,-136 414.5,-136 414.5,-95 233.5,-95"/>
<text text-anchor="start" x="241.5" y="-124" font-family="Helvetica,sans-Serif" font-size="10.00" fill="#000000">/home/pieter/GitHub</text>
<text text-anchor="start" x="241.5" y="-113" font-family="Helvetica,sans-Serif" font-size="10.00" fill="#000000">/EAGLE&#45;ZYBO&#45;Linux/src</text>
<text text-anchor="middle" x="324" y="-102" font-family="Helvetica,sans-Serif" font-size="10.00" fill="#000000">/grid&#45;finder/include/GridFinder.hpp</text>
</a>
</g>
</g>
<!-- Node2&#45;&gt;Node4 -->
<g id="edge5" class="edge">
<title>Node2&#45;&gt;Node4</title>
<path fill="none" stroke="#191970" d="M253.5766,-342.291C238.2971,-334.2094 224.3581,-323.4113 215,-309 175.4178,-248.0441 253.2241,-171.9436 297.0066,-136.0503"/>
<polygon fill="#191970" stroke="#191970" points="252.1811,-345.5044 262.7034,-346.7422 255.2496,-339.2128 252.1811,-345.5044"/>
</g>
<!-- Node6 -->
<g id="node6" class="node">
<title>Node6</title>
<g id="a_node6"><a xlink:href="HelperStructs_8hpp.html" target="_top" xlink:title=" ">
<polygon fill="#ffffff" stroke="#000000" points="398,-178.5 398,-219.5 596,-219.5 596,-178.5 398,-178.5"/>
<text text-anchor="start" x="406" y="-207.5" font-family="Helvetica,sans-Serif" font-size="10.00" fill="#000000">/home/pieter/GitHub</text>
<text text-anchor="start" x="406" y="-196.5" font-family="Helvetica,sans-Serif" font-size="10.00" fill="#000000">/EAGLE&#45;ZYBO&#45;Linux/src</text>
<text text-anchor="middle" x="497" y="-185.5" font-family="Helvetica,sans-Serif" font-size="10.00" fill="#000000">/grid&#45;finder/include/HelperStructs.hpp</text>
</a>
</g>
</g>
<!-- Node2&#45;&gt;Node6 -->
<g id="edge6" class="edge">
<title>Node2&#45;&gt;Node6</title>
<path fill="none" stroke="#191970" d="M384.5128,-339.5845C396.9549,-330.6673 410.1614,-320.1295 421,-309 428.3281,-301.4753 463.2857,-249.6027 483.1397,-219.8545"/>
<polygon fill="#191970" stroke="#191970" points="382.2554,-336.892 376.0598,-345.4865 386.2627,-342.6314 382.2554,-336.892"/>
</g>
<!-- Node8 -->
<g id="node8" class="node">
<title>Node8</title>
<g id="a_node8"><a xlink:href="Line_8hpp.html" target="_top" xlink:title=" ">
<polygon fill="#ffffff" stroke="#000000" points="468,-262 468,-303 620,-303 620,-262 468,-262"/>
<text text-anchor="start" x="476" y="-291" font-family="Helvetica,sans-Serif" font-size="10.00" fill="#000000">/home/pieter/GitHub</text>
<text text-anchor="start" x="476" y="-280" font-family="Helvetica,sans-Serif" font-size="10.00" fill="#000000">/EAGLE&#45;ZYBO&#45;Linux/src</text>
<text text-anchor="middle" x="544" y="-269" font-family="Helvetica,sans-Serif" font-size="10.00" fill="#000000">/grid&#45;finder/include/Line.hpp</text>
</a>
</g>
</g>
<!-- Node2&#45;&gt;Node8 -->
<g id="edge10" class="edge">
<title>Node2&#45;&gt;Node8</title>
<path fill="none" stroke="#191970" d="M401.7568,-341.5911C431.1694,-329.3724 466.383,-314.7439 494.4149,-303.0988"/>
<polygon fill="#191970" stroke="#191970" points="400.3197,-338.398 392.4276,-345.4667 403.0052,-344.8624 400.3197,-338.398"/>
</g>
<!-- Node3&#45;&gt;Node4 -->
<g id="edge3" class="edge">
<title>Node3&#45;&gt;Node4</title>
<path fill="none" stroke="#191970" d="M319.1146,-251.4776C320.3249,-217.7905 322.2237,-164.9407 323.2617,-136.0507"/>
<polygon fill="#191970" stroke="#191970" points="315.6092,-251.5677 318.7478,-261.687 322.6047,-251.8191 315.6092,-251.5677"/>
</g>
<!-- Node5 -->
<g id="node5" class="node">
<title>Node5</title>
<g id="a_node5"><a xlink:href="LocationFinder_8cpp.html" target="_top" xlink:title=" ">
<polygon fill="#ffffff" stroke="#000000" points="421,-.5 421,-52.5 573,-52.5 573,-.5 421,-.5"/>
<text text-anchor="start" x="429" y="-40.5" font-family="Helvetica,sans-Serif" font-size="10.00" fill="#000000">/home/pieter/GitHub</text>
<text text-anchor="start" x="429" y="-29.5" font-family="Helvetica,sans-Serif" font-size="10.00" fill="#000000">/EAGLE&#45;ZYBO&#45;Linux/src</text>
<text text-anchor="start" x="429" y="-18.5" font-family="Helvetica,sans-Serif" font-size="10.00" fill="#000000">/location&#45;finder/src/Location</text>
<text text-anchor="middle" x="497" y="-7.5" font-family="Helvetica,sans-Serif" font-size="10.00" fill="#000000">Finder.cpp</text>
</a>
</g>
</g>
<!-- Node4&#45;&gt;Node5 -->
<g id="edge4" class="edge">
<title>Node4&#45;&gt;Node5</title>
<path fill="none" stroke="#191970" d="M373.2956,-90.1399C396.125,-78.3952 423.2258,-64.4532 446.2341,-52.6166"/>
<polygon fill="#191970" stroke="#191970" points="371.4157,-87.1709 364.1245,-94.8579 374.6179,-93.3955 371.4157,-87.1709"/>
</g>
<!-- Node6&#45;&gt;Node4 -->
<g id="edge7" class="edge">
<title>Node6&#45;&gt;Node4</title>
<path fill="none" stroke="#191970" d="M445.2186,-174.0072C420.1146,-161.8906 390.3329,-147.5162 366.5716,-136.0476"/>
<polygon fill="#191970" stroke="#191970" points="443.7087,-177.1648 454.2359,-178.3595 446.7515,-170.8607 443.7087,-177.1648"/>
</g>
<!-- Node7 -->
<g id="node7" class="node">
<title>Node7</title>
<g id="a_node7"><a xlink:href="LocationFinder_8hpp.html" target="_top" xlink:title=" ">
<polygon fill="#ffffff" stroke="#000000" points="432.5,-89.5 432.5,-141.5 561.5,-141.5 561.5,-89.5 432.5,-89.5"/>
<text text-anchor="start" x="440.5" y="-129.5" font-family="Helvetica,sans-Serif" font-size="10.00" fill="#000000">/home/pieter/GitHub</text>
<text text-anchor="start" x="440.5" y="-118.5" font-family="Helvetica,sans-Serif" font-size="10.00" fill="#000000">/EAGLE&#45;ZYBO&#45;Linux/src</text>
<text text-anchor="start" x="440.5" y="-107.5" font-family="Helvetica,sans-Serif" font-size="10.00" fill="#000000">/location&#45;finder/include</text>
<text text-anchor="middle" x="497" y="-96.5" font-family="Helvetica,sans-Serif" font-size="10.00" fill="#000000">/LocationFinder.hpp</text>
</a>
</g>
</g>
<!-- Node6&#45;&gt;Node7 -->
<g id="edge8" class="edge">
<title>Node6&#45;&gt;Node7</title>
<path fill="none" stroke="#191970" d="M497,-168.1618C497,-159.4305 497,-150.0145 497,-141.5925"/>
<polygon fill="#191970" stroke="#191970" points="493.5001,-168.3595 497,-178.3595 500.5001,-168.3596 493.5001,-168.3595"/>
</g>
<!-- Node7&#45;&gt;Node5 -->
<g id="edge9" class="edge">
<title>Node7&#45;&gt;Node5</title>
<path fill="none" stroke="#191970" d="M497,-79.1155C497,-70.2061 497,-60.8475 497,-52.5341"/>
<polygon fill="#191970" stroke="#191970" points="493.5001,-79.2784 497,-89.2784 500.5001,-79.2785 493.5001,-79.2784"/>
</g>
<!-- Node8&#45;&gt;Node4 -->
<g id="edge11" class="edge">
<title>Node8&#45;&gt;Node4</title>
<path fill="none" stroke="#191970" d="M458.2588,-258.9482C434.1114,-249.5244 409.003,-236.8079 389,-220 361.6828,-197.0462 342.3451,-159.5697 332.2011,-136.2862"/>
<polygon fill="#191970" stroke="#191970" points="457.2178,-262.2957 467.81,-262.5289 459.675,-255.7412 457.2178,-262.2957"/>
</g>
<!-- Node8&#45;&gt;Node6 -->
<g id="edge12" class="edge">
<title>Node8&#45;&gt;Node6</title>
<path fill="none" stroke="#191970" d="M527.387,-252.9854C521.1938,-241.9826 514.3006,-229.7362 508.6472,-219.6924"/>
<polygon fill="#191970" stroke="#191970" points="524.4268,-254.862 532.382,-261.8595 530.5269,-251.4284 524.4268,-254.862"/>
</g>
<!-- Node9&#45;&gt;Node4 -->
<g id="edge14" class="edge">
<title>Node9&#45;&gt;Node4</title>
<path fill="none" stroke="#191970" d="M109.7502,-248.5911C128.0189,-226.2978 154.1578,-197.7115 182,-178 206.6214,-160.5687 236.8788,-146.427 263.128,-136.0328"/>
<polygon fill="#191970" stroke="#191970" points="106.9339,-246.508 103.3871,-256.4916 112.3856,-250.8988 106.9339,-246.508"/>
</g>
<!-- Node10&#45;&gt;Node3 -->
<g id="edge16" class="edge">
<title>Node10&#45;&gt;Node3</title>
<path fill="none" stroke="#191970" d="M478.7926,-341.9079C445.5505,-329.6259 405.5438,-314.8447 373.7524,-303.0988"/>
<polygon fill="#191970" stroke="#191970" points="477.8315,-345.284 488.4247,-345.4667 480.2575,-338.7178 477.8315,-345.284"/>
</g>
<!-- Node10&#45;&gt;Node6 -->
<g id="edge17" class="edge">
<title>Node10&#45;&gt;Node6</title>
<path fill="none" stroke="#191970" d="M599.9466,-339.9002C611.591,-331.7246 622.338,-321.4888 629,-309 640.0867,-288.2166 641.9402,-275.6829 629,-256 618.2355,-239.6264 601.6608,-227.9348 583.8516,-219.5934"/>
<polygon fill="#191970" stroke="#191970" points="597.8268,-337.1038 591.3547,-345.492 601.6451,-342.9707 597.8268,-337.1038"/>
</g>
<!-- Node10&#45;&gt;Node8 -->
<g id="edge18" class="edge">
<title>Node10&#45;&gt;Node8</title>
<path fill="none" stroke="#191970" d="M544,-335.1593C544,-324.5064 544,-312.8344 544,-303.1924"/>
<polygon fill="#191970" stroke="#191970" points="540.5001,-335.3595 544,-345.3595 547.5001,-335.3596 540.5001,-335.3595"/>
</g>
<!-- Node11 -->
<g id="node11" class="node">
<title>Node11</title>
<g id="a_node11"><a xlink:href="Mask_8hpp.html" target="_top" xlink:title=" ">
<polygon fill="#ffffff" stroke="#000000" points="615,-178.5 615,-219.5 749,-219.5 749,-178.5 615,-178.5"/>
<text text-anchor="start" x="623" y="-207.5" font-family="Helvetica,sans-Serif" font-size="10.00" fill="#000000">/home/pieter/GitHub</text>
<text text-anchor="start" x="623" y="-196.5" font-family="Helvetica,sans-Serif" font-size="10.00" fill="#000000">/EAGLE&#45;ZYBO&#45;Linux/src</text>
<text text-anchor="middle" x="682" y="-185.5" font-family="Helvetica,sans-Serif" font-size="10.00" fill="#000000">/mask/include/Mask.hpp</text>
</a>
</g>
</g>
<!-- Node10&#45;&gt;Node11 -->
<g id="edge19" class="edge">
<title>Node10&#45;&gt;Node11</title>
<path fill="none" stroke="#191970" d="M607.7934,-340.5033C622.2847,-332.2496 636.4845,-321.8269 647,-309 668.3453,-282.9629 676.7481,-243.7265 680.0028,-219.828"/>
<polygon fill="#191970" stroke="#191970" points="605.9095,-337.5425 598.7632,-345.3642 609.2275,-343.7062 605.9095,-337.5425"/>
</g>
<!-- Node11&#45;&gt;Node4 -->
<g id="edge20" class="edge">
<title>Node11&#45;&gt;Node4</title>
<path fill="none" stroke="#191970" d="M605.3037,-178.0716C605.2024,-178.0477 605.1012,-178.0238 605,-178 525.1639,-159.198 503.9033,-160.5142 424,-142 416.0389,-140.1554 407.7489,-138.1293 399.4982,-136.0446"/>
<polygon fill="#191970" stroke="#191970" points="604.3352,-181.4381 614.8788,-180.3974 605.9875,-174.6358 604.3352,-181.4381"/>
</g>
<!-- Node11&#45;&gt;Node5 -->
<g id="edge21" class="edge">
<title>Node11&#45;&gt;Node5</title>
<path fill="none" stroke="#191970" d="M644.2545,-172.1753C632.7068,-163.1839 620.3359,-152.7068 610,-142 589.6879,-120.9589 590.9759,-110.3605 571,-89 558.9395,-76.1036 544.3235,-63.272 531.2772,-52.6216"/>
<polygon fill="#191970" stroke="#191970" points="642.4017,-175.1639 652.4767,-178.4419 646.6449,-169.5965 642.4017,-175.1639"/>
</g>
<!-- Node12 -->
<g id="node12" class="node">
<title>Node12</title>
<g id="a_node12"><a xlink:href="Mask_8cpp.html" target="_top" xlink:title=" ">
<polygon fill="#ffffff" stroke="#000000" points="618.5,-95 618.5,-136 747.5,-136 747.5,-95 618.5,-95"/>
<text text-anchor="start" x="626.5" y="-124" font-family="Helvetica,sans-Serif" font-size="10.00" fill="#000000">/home/pieter/GitHub</text>
<text text-anchor="start" x="626.5" y="-113" font-family="Helvetica,sans-Serif" font-size="10.00" fill="#000000">/EAGLE&#45;ZYBO&#45;Linux/src</text>
<text text-anchor="middle" x="683" y="-102" font-family="Helvetica,sans-Serif" font-size="10.00" fill="#000000">/mask/src/Mask.cpp</text>
</a>
</g>
</g>
<!-- Node11&#45;&gt;Node12 -->
<g id="edge22" class="edge">
<title>Node11&#45;&gt;Node12</title>
<path fill="none" stroke="#191970" d="M682.3694,-168.1593C682.4969,-157.5064 682.6367,-145.8344 682.7522,-136.1924"/>
<polygon fill="#191970" stroke="#191970" points="678.8673,-168.3183 682.2472,-178.3595 685.8668,-168.4022 678.8673,-168.3183"/>
</g>
</g>
</svg>
