<?xml version="1.0" encoding="UTF-8" standalone="no"?>
<!DOCTYPE svg PUBLIC "-//W3C//DTD SVG 1.1//EN"
 "http://www.w3.org/Graphics/SVG/1.1/DTD/svg11.dtd">
<!-- Generated by graphviz version 2.40.1 (20161225.0304)
 -->
<!-- Title: /home/pieter/GitHub/EAGLE&#45;ZYBO&#45;Linux/src/grid&#45;finder/include/uint.hpp Pages: 1 -->
<svg width="569pt" height="462pt"
 viewBox="0.00 0.00 569.16 462.00" xmlns="http://www.w3.org/2000/svg" xmlns:xlink="http://www.w3.org/1999/xlink">
<g id="graph0" class="graph" transform="scale(1 1) rotate(0) translate(4 458)">
<title>/home/pieter/GitHub/EAGLE&#45;ZYBO&#45;Linux/src/grid&#45;finder/include/uint.hpp</title>
<polygon fill="#ffffff" stroke="transparent" points="-4,4 -4,-458 565.1631,-458 565.1631,4 -4,4"/>
<!-- Node1 -->
<g id="node1" class="node">
<title>Node1</title>
<g id="a_node1"><a xlink:title=" ">
<polygon fill="#bfbfbf" stroke="#000000" points="278.6631,-412.5 278.6631,-453.5 429.6631,-453.5 429.6631,-412.5 278.6631,-412.5"/>
<text text-anchor="start" x="286.6631" y="-441.5" font-family="Helvetica,sans-Serif" font-size="10.00" fill="#000000">/home/pieter/GitHub</text>
<text text-anchor="start" x="286.6631" y="-430.5" font-family="Helvetica,sans-Serif" font-size="10.00" fill="#000000">/EAGLE&#45;ZYBO&#45;Linux/src</text>
<text text-anchor="middle" x="354.1631" y="-419.5" font-family="Helvetica,sans-Serif" font-size="10.00" fill="#000000">/grid&#45;finder/include/uint.hpp</text>
</a>
</g>
</g>
<!-- Node2 -->
<g id="node2" class="node">
<title>Node2</title>
<g id="a_node2"><a xlink:href="Angle_8hpp.html" target="_top" xlink:title=" ">
<polygon fill="#ffffff" stroke="#000000" points="98.1631,-334.5 98.1631,-375.5 258.1631,-375.5 258.1631,-334.5 98.1631,-334.5"/>
<text text-anchor="start" x="106.1631" y="-363.5" font-family="Helvetica,sans-Serif" font-size="10.00" fill="#000000">/home/pieter/GitHub</text>
<text text-anchor="start" x="106.1631" y="-352.5" font-family="Helvetica,sans-Serif" font-size="10.00" fill="#000000">/EAGLE&#45;ZYBO&#45;Linux/src</text>
<text text-anchor="middle" x="178.1631" y="-341.5" font-family="Helvetica,sans-Serif" font-size="10.00" fill="#000000">/grid&#45;finder/include/Angle.hpp</text>
</a>
</g>
</g>
<!-- Node1&#45;&gt;Node2 -->
<g id="edge1" class="edge">
<title>Node1&#45;&gt;Node2</title>
<path fill="none" stroke="#191970" d="M298.2082,-408.2018C274.4463,-397.671 247.0742,-385.5401 224.4734,-375.5239"/>
<polygon fill="#191970" stroke="#191970" points="296.8999,-411.4503 307.4604,-412.3022 299.7362,-405.0506 296.8999,-411.4503"/>
</g>
<!-- Node9 -->
<g id="node9" class="node">
<title>Node9</title>
<g id="a_node9"><a xlink:href="CenterPointOutLineIterator_8hpp.html" target="_top" xlink:title=" ">
<polygon fill="#ffffff" stroke="#000000" points="393.1631,-167.5 393.1631,-219.5 561.1631,-219.5 561.1631,-167.5 393.1631,-167.5"/>
<text text-anchor="start" x="401.1631" y="-207.5" font-family="Helvetica,sans-Serif" font-size="10.00" fill="#000000">/home/pieter/GitHub</text>
<text text-anchor="start" x="401.1631" y="-196.5" font-family="Helvetica,sans-Serif" font-size="10.00" fill="#000000">/EAGLE&#45;ZYBO&#45;Linux/src</text>
<text text-anchor="start" x="401.1631" y="-185.5" font-family="Helvetica,sans-Serif" font-size="10.00" fill="#000000">/grid&#45;finder/include/CenterPoint</text>
<text text-anchor="middle" x="477.1631" y="-174.5" font-family="Helvetica,sans-Serif" font-size="10.00" fill="#000000">OutLineIterator.hpp</text>
</a>
</g>
</g>
<!-- Node1&#45;&gt;Node9 -->
<g id="edge12" class="edge">
<title>Node1&#45;&gt;Node9</title>
<path fill="none" stroke="#191970" d="M408.6101,-406.8372C420.9739,-398.558 432.8847,-388.2901 441.1631,-376 473.5483,-327.9211 478.2175,-257.5407 478.1161,-219.7708"/>
<polygon fill="#191970" stroke="#191970" points="406.6118,-403.9594 400.0172,-412.2517 410.3436,-409.8818 406.6118,-403.9594"/>
</g>
<!-- Node10 -->
<g id="node10" class="node">
<title>Node10</title>
<g id="a_node10"><a xlink:href="Pixel_8hpp.html" target="_top" xlink:title=" ">
<polygon fill="#ffffff" stroke="#000000" points="276.1631,-334.5 276.1631,-375.5 432.1631,-375.5 432.1631,-334.5 276.1631,-334.5"/>
<text text-anchor="start" x="284.1631" y="-363.5" font-family="Helvetica,sans-Serif" font-size="10.00" fill="#000000">/home/pieter/GitHub</text>
<text text-anchor="start" x="284.1631" y="-352.5" font-family="Helvetica,sans-Serif" font-size="10.00" fill="#000000">/EAGLE&#45;ZYBO&#45;Linux/src</text>
<text text-anchor="middle" x="354.1631" y="-341.5" font-family="Helvetica,sans-Serif" font-size="10.00" fill="#000000">/grid&#45;finder/include/Pixel.hpp</text>
</a>
</g>
</g>
<!-- Node1&#45;&gt;Node10 -->
<g id="edge14" class="edge">
<title>Node1&#45;&gt;Node10</title>
<path fill="none" stroke="#191970" d="M354.1631,-402.0789C354.1631,-393.2178 354.1631,-383.7747 354.1631,-375.6898"/>
<polygon fill="#191970" stroke="#191970" points="350.6632,-402.0974 354.1631,-412.0974 357.6632,-402.0975 350.6632,-402.0974"/>
</g>
<!-- Node3 -->
<g id="node3" class="node">
<title>Node3</title>
<g id="a_node3"><a xlink:href="Bresenham_8hpp.html" target="_top" xlink:title=" ">
<polygon fill="#ffffff" stroke="#000000" points="16.1631,-256.5 16.1631,-297.5 204.1631,-297.5 204.1631,-256.5 16.1631,-256.5"/>
<text text-anchor="start" x="24.1631" y="-285.5" font-family="Helvetica,sans-Serif" font-size="10.00" fill="#000000">/home/pieter/GitHub</text>
<text text-anchor="start" x="24.1631" y="-274.5" font-family="Helvetica,sans-Serif" font-size="10.00" fill="#000000">/EAGLE&#45;ZYBO&#45;Linux/src</text>
<text text-anchor="middle" x="110.1631" y="-263.5" font-family="Helvetica,sans-Serif" font-size="10.00" fill="#000000">/grid&#45;finder/include/Bresenham.hpp</text>
</a>
</g>
</g>
<!-- Node2&#45;&gt;Node3 -->
<g id="edge2" class="edge">
<title>Node2&#45;&gt;Node3</title>
<path fill="none" stroke="#191970" d="M153.2089,-326.376C144.9219,-316.8703 135.8617,-306.4778 128.2004,-297.6898"/>
<polygon fill="#191970" stroke="#191970" points="150.7308,-328.8597 159.9404,-334.0974 156.0072,-324.2597 150.7308,-328.8597"/>
</g>
<!-- Node4 -->
<g id="node4" class="node">
<title>Node4</title>
<g id="a_node4"><a xlink:href="GridFinder_8hpp.html" target="_top" xlink:title=" ">
<polygon fill="#ffffff" stroke="#000000" points="146.6631,-89.5 146.6631,-130.5 327.6631,-130.5 327.6631,-89.5 146.6631,-89.5"/>
<text text-anchor="start" x="154.6631" y="-118.5" font-family="Helvetica,sans-Serif" font-size="10.00" fill="#000000">/home/pieter/GitHub</text>
<text text-anchor="start" x="154.6631" y="-107.5" font-family="Helvetica,sans-Serif" font-size="10.00" fill="#000000">/EAGLE&#45;ZYBO&#45;Linux/src</text>
<text text-anchor="middle" x="237.1631" y="-96.5" font-family="Helvetica,sans-Serif" font-size="10.00" fill="#000000">/grid&#45;finder/include/GridFinder.hpp</text>
</a>
</g>
</g>
<!-- Node2&#45;&gt;Node4 -->
<g id="edge6" class="edge">
<title>Node2&#45;&gt;Node4</title>
<path fill="none" stroke="#191970" d="M87.7026,-335.0292C52.2406,-325.2079 17.5327,-312.387 7.1631,-298 -3.7514,-282.8568 -.4785,-273.0309 7.1631,-256 36.4479,-190.7334 111.4143,-151.6244 167.8608,-130.5467"/>
<polygon fill="#191970" stroke="#191970" points="87.1393,-338.5019 97.7051,-337.7185 88.9568,-331.742 87.1393,-338.5019"/>
</g>
<!-- Node7 -->
<g id="node7" class="node">
<title>Node7</title>
<g id="a_node7"><a xlink:href="HelperStructs_8hpp.html" target="_top" xlink:title=" ">
<polygon fill="#ffffff" stroke="#000000" points="138.1631,-173 138.1631,-214 336.1631,-214 336.1631,-173 138.1631,-173"/>
<text text-anchor="start" x="146.1631" y="-202" font-family="Helvetica,sans-Serif" font-size="10.00" fill="#000000">/home/pieter/GitHub</text>
<text text-anchor="start" x="146.1631" y="-191" font-family="Helvetica,sans-Serif" font-size="10.00" fill="#000000">/EAGLE&#45;ZYBO&#45;Linux/src</text>
<text text-anchor="middle" x="237.1631" y="-180" font-family="Helvetica,sans-Serif" font-size="10.00" fill="#000000">/grid&#45;finder/include/HelperStructs.hpp</text>
</a>
</g>
</g>
<!-- Node2&#45;&gt;Node7 -->
<g id="edge7" class="edge">
<title>Node2&#45;&gt;Node7</title>
<path fill="none" stroke="#191970" d="M198.5431,-325.8903C203.9114,-317.2203 209.2808,-307.493 213.1631,-298 224.5782,-270.0882 231.1569,-235.6551 234.4491,-214.1315"/>
<polygon fill="#191970" stroke="#191970" points="195.4785,-324.1848 193.0115,-334.4884 201.3655,-327.9722 195.4785,-324.1848"/>
</g>
<!-- Node8 -->
<g id="node8" class="node">
<title>Node8</title>
<g id="a_node8"><a xlink:href="Line_8hpp.html" target="_top" xlink:title=" ">
<polygon fill="#ffffff" stroke="#000000" points="260.1631,-256.5 260.1631,-297.5 412.1631,-297.5 412.1631,-256.5 260.1631,-256.5"/>
<text text-anchor="start" x="268.1631" y="-285.5" font-family="Helvetica,sans-Serif" font-size="10.00" fill="#000000">/home/pieter/GitHub</text>
<text text-anchor="start" x="268.1631" y="-274.5" font-family="Helvetica,sans-Serif" font-size="10.00" fill="#000000">/EAGLE&#45;ZYBO&#45;Linux/src</text>
<text text-anchor="middle" x="336.1631" y="-263.5" font-family="Helvetica,sans-Serif" font-size="10.00" fill="#000000">/grid&#45;finder/include/Line.hpp</text>
</a>
</g>
</g>
<!-- Node2&#45;&gt;Node8 -->
<g id="edge9" class="edge">
<title>Node2&#45;&gt;Node8</title>
<path fill="none" stroke="#191970" d="M229.2466,-329.7816C250.3787,-319.3493 274.5691,-307.4072 294.5892,-297.5239"/>
<polygon fill="#191970" stroke="#191970" points="227.5069,-326.7371 220.0894,-334.3022 230.6057,-333.0139 227.5069,-326.7371"/>
</g>
<!-- Node3&#45;&gt;Node4 -->
<g id="edge3" class="edge">
<title>Node3&#45;&gt;Node4</title>
<path fill="none" stroke="#191970" d="M108.4647,-246.0536C108.7114,-222.3138 112.5723,-189.8455 129.1631,-167 140.6869,-151.1319 157.9832,-139.2891 175.376,-130.6345"/>
<polygon fill="#191970" stroke="#191970" points="104.9672,-246.3185 108.5729,-256.2809 111.9668,-246.2444 104.9672,-246.3185"/>
</g>
<!-- Node5 -->
<g id="node5" class="node">
<title>Node5</title>
<g id="a_node5"><a xlink:href="LocationFinder_8cpp.html" target="_top" xlink:title=" ">
<polygon fill="#ffffff" stroke="#000000" points="75.1631,-.5 75.1631,-52.5 227.1631,-52.5 227.1631,-.5 75.1631,-.5"/>
<text text-anchor="start" x="83.1631" y="-40.5" font-family="Helvetica,sans-Serif" font-size="10.00" fill="#000000">/home/pieter/GitHub</text>
<text text-anchor="start" x="83.1631" y="-29.5" font-family="Helvetica,sans-Serif" font-size="10.00" fill="#000000">/EAGLE&#45;ZYBO&#45;Linux/src</text>
<text text-anchor="start" x="83.1631" y="-18.5" font-family="Helvetica,sans-Serif" font-size="10.00" fill="#000000">/location&#45;finder/src/Location</text>
<text text-anchor="middle" x="151.1631" y="-7.5" font-family="Helvetica,sans-Serif" font-size="10.00" fill="#000000">Finder.cpp</text>
</a>
</g>
</g>
<!-- Node4&#45;&gt;Node5 -->
<g id="edge4" class="edge">
<title>Node4&#45;&gt;Node5</title>
<path fill="none" stroke="#191970" d="M208.6287,-82.2951C198.7685,-72.7214 187.7595,-62.0325 178.0369,-52.5925"/>
<polygon fill="#191970" stroke="#191970" points="206.292,-84.9046 215.9047,-89.3595 211.1682,-79.8824 206.292,-84.9046"/>
</g>
<!-- Node6 -->
<g id="node6" class="node">
<title>Node6</title>
<g id="a_node6"><a xlink:href="Mask_8hpp.html" target="_top" xlink:title=" ">
<polygon fill="#ffffff" stroke="#000000" points="245.6631,-6 245.6631,-47 402.6631,-47 402.6631,-6 245.6631,-6"/>
<text text-anchor="start" x="253.6631" y="-35" font-family="Helvetica,sans-Serif" font-size="10.00" fill="#000000">/home/pieter/GitHub</text>
<text text-anchor="start" x="253.6631" y="-24" font-family="Helvetica,sans-Serif" font-size="10.00" fill="#000000">/EAGLE&#45;ZYBO&#45;Linux/src</text>
<text text-anchor="middle" x="324.1631" y="-13" font-family="Helvetica,sans-Serif" font-size="10.00" fill="#000000">/location&#45;finder/src/Mask.hpp</text>
</a>
</g>
</g>
<!-- Node4&#45;&gt;Node6 -->
<g id="edge5" class="edge">
<title>Node4&#45;&gt;Node6</title>
<path fill="none" stroke="#191970" d="M266.2055,-82.126C278.0972,-70.7127 291.6154,-57.7384 302.6034,-47.1924"/>
<polygon fill="#191970" stroke="#191970" points="263.4599,-79.9099 258.6688,-89.3595 268.3071,-84.9602 263.4599,-79.9099"/>
</g>
<!-- Node7&#45;&gt;Node4 -->
<g id="edge8" class="edge">
<title>Node7&#45;&gt;Node4</title>
<path fill="none" stroke="#191970" d="M237.1631,-162.6593C237.1631,-152.0064 237.1631,-140.3344 237.1631,-130.6924"/>
<polygon fill="#191970" stroke="#191970" points="233.6632,-162.8595 237.1631,-172.8595 240.6632,-162.8596 233.6632,-162.8595"/>
</g>
<!-- Node8&#45;&gt;Node4 -->
<g id="edge10" class="edge">
<title>Node8&#45;&gt;Node4</title>
<path fill="none" stroke="#191970" d="M347.7962,-246.5406C354.6851,-223.1324 359.556,-190.8707 345.1631,-167 335.4748,-150.9318 319.5779,-139.1611 302.9229,-130.637"/>
<polygon fill="#191970" stroke="#191970" points="344.3889,-245.7037 344.6612,-256.2951 351.0532,-247.8456 344.3889,-245.7037"/>
</g>
<!-- Node8&#45;&gt;Node7 -->
<g id="edge11" class="edge">
<title>Node8&#45;&gt;Node7</title>
<path fill="none" stroke="#191970" d="M303.8862,-249.7765C290.1701,-238.2079 274.4384,-224.9393 261.6966,-214.1924"/>
<polygon fill="#191970" stroke="#191970" points="301.7905,-252.5877 311.6912,-256.3595 306.3037,-247.2368 301.7905,-252.5877"/>
</g>
<!-- Node9&#45;&gt;Node4 -->
<g id="edge13" class="edge">
<title>Node9&#45;&gt;Node4</title>
<path fill="none" stroke="#191970" d="M392.481,-164.0377C360.712,-152.9847 325.3174,-140.6703 296.3494,-130.5919"/>
<polygon fill="#191970" stroke="#191970" points="391.618,-167.4432 402.2129,-167.4235 393.9183,-160.8319 391.618,-167.4432"/>
</g>
<!-- Node10&#45;&gt;Node3 -->
<g id="edge15" class="edge">
<title>Node10&#45;&gt;Node3</title>
<path fill="none" stroke="#191970" d="M279.9529,-331.277C246.3076,-320.5216 206.9026,-307.9249 174.5281,-297.5757"/>
<polygon fill="#191970" stroke="#191970" points="279.1449,-334.6932 289.7358,-334.4044 281.2764,-328.0256 279.1449,-334.6932"/>
</g>
<!-- Node10&#45;&gt;Node7 -->
<g id="edge16" class="edge">
<title>Node10&#45;&gt;Node7</title>
<path fill="none" stroke="#191970" d="M397.0928,-328.0459C406.795,-319.6979 415.8042,-309.595 421.1631,-298 428.9945,-281.0555 432.0346,-271.1742 421.1631,-256 409.4724,-239.6822 368.8917,-225.0298 328.8058,-214.0206"/>
<polygon fill="#191970" stroke="#191970" points="394.8314,-325.373 389.2198,-334.3597 399.2107,-330.8339 394.8314,-325.373"/>
</g>
<!-- Node10&#45;&gt;Node8 -->
<g id="edge17" class="edge">
<title>Node10&#45;&gt;Node8</title>
<path fill="none" stroke="#191970" d="M347.0275,-324.0789C344.9826,-315.2178 342.8035,-305.7747 340.9377,-297.6898"/>
<polygon fill="#191970" stroke="#191970" points="343.6804,-325.1406 349.3395,-334.0974 350.5012,-323.5665 343.6804,-325.1406"/>
</g>
</g>
</svg>
