<?xml version="1.0" encoding="UTF-8" standalone="no"?>
<!DOCTYPE svg PUBLIC "-//W3C//DTD SVG 1.1//EN"
 "http://www.w3.org/Graphics/SVG/1.1/DTD/svg11.dtd">
<!-- Generated by graphviz version 2.40.1 (20161225.0304)
 -->
<!-- Title: /home/pieter/GitHub/EAGLE&#45;ZYBO&#45;Linux/src/grid&#45;finder/include/uint.hpp Pages: 1 -->
<svg width="956pt" height="562pt"
 viewBox="0.00 0.00 955.50 562.00" xmlns="http://www.w3.org/2000/svg" xmlns:xlink="http://www.w3.org/1999/xlink">
<g id="graph0" class="graph" transform="scale(1 1) rotate(0) translate(4 558)">
<title>/home/pieter/GitHub/EAGLE&#45;ZYBO&#45;Linux/src/grid&#45;finder/include/uint.hpp</title>
<polygon fill="#ffffff" stroke="transparent" points="-4,4 -4,-558 951.5,-558 951.5,4 -4,4"/>
<!-- Node1 -->
<g id="node1" class="node">
<title>Node1</title>
<g id="a_node1"><a xlink:title=" ">
<polygon fill="#bfbfbf" stroke="#000000" points="248.5,-512.5 248.5,-553.5 399.5,-553.5 399.5,-512.5 248.5,-512.5"/>
<text text-anchor="start" x="256.5" y="-541.5" font-family="Helvetica,sans-Serif" font-size="10.00" fill="#000000">/home/pieter/GitHub</text>
<text text-anchor="start" x="256.5" y="-530.5" font-family="Helvetica,sans-Serif" font-size="10.00" fill="#000000">/EAGLE&#45;ZYBO&#45;Linux/src</text>
<text text-anchor="middle" x="324" y="-519.5" font-family="Helvetica,sans-Serif" font-size="10.00" fill="#000000">/grid&#45;finder/include/uint.hpp</text>
</a>
</g>
</g>
<!-- Node2 -->
<g id="node2" class="node">
<title>Node2</title>
<g id="a_node2"><a xlink:href="Angle_8hpp.html" target="_top" xlink:title=" ">
<polygon fill="#ffffff" stroke="#000000" points="244,-434.5 244,-475.5 404,-475.5 404,-434.5 244,-434.5"/>
<text text-anchor="start" x="252" y="-463.5" font-family="Helvetica,sans-Serif" font-size="10.00" fill="#000000">/home/pieter/GitHub</text>
<text text-anchor="start" x="252" y="-452.5" font-family="Helvetica,sans-Serif" font-size="10.00" fill="#000000">/EAGLE&#45;ZYBO&#45;Linux/src</text>
<text text-anchor="middle" x="324" y="-441.5" font-family="Helvetica,sans-Serif" font-size="10.00" fill="#000000">/grid&#45;finder/include/Angle.hpp</text>
</a>
</g>
</g>
<!-- Node1&#45;&gt;Node2 -->
<g id="edge1" class="edge">
<title>Node1&#45;&gt;Node2</title>
<path fill="none" stroke="#191970" d="M324,-502.0789C324,-493.2178 324,-483.7747 324,-475.6898"/>
<polygon fill="#191970" stroke="#191970" points="320.5001,-502.0974 324,-512.0974 327.5001,-502.0975 320.5001,-502.0974"/>
</g>
<!-- Node11 -->
<g id="node11" class="node">
<title>Node11</title>
<g id="a_node11"><a xlink:href="CenterPointOutLineIterator_8hpp.html" target="_top" xlink:title=" ">
<polygon fill="#ffffff" stroke="#000000" points="0,-345.5 0,-397.5 168,-397.5 168,-345.5 0,-345.5"/>
<text text-anchor="start" x="8" y="-385.5" font-family="Helvetica,sans-Serif" font-size="10.00" fill="#000000">/home/pieter/GitHub</text>
<text text-anchor="start" x="8" y="-374.5" font-family="Helvetica,sans-Serif" font-size="10.00" fill="#000000">/EAGLE&#45;ZYBO&#45;Linux/src</text>
<text text-anchor="start" x="8" y="-363.5" font-family="Helvetica,sans-Serif" font-size="10.00" fill="#000000">/grid&#45;finder/include/CenterPoint</text>
<text text-anchor="middle" x="84" y="-352.5" font-family="Helvetica,sans-Serif" font-size="10.00" fill="#000000">OutLineIterator.hpp</text>
</a>
</g>
</g>
<!-- Node1&#45;&gt;Node11 -->
<g id="edge16" class="edge">
<title>Node1&#45;&gt;Node11</title>
<path fill="none" stroke="#191970" d="M282.659,-506.9555C267.5821,-497.3436 250.4475,-486.2872 235,-476 195.7278,-449.8469 151.3956,-419.0064 120.9799,-397.6395"/>
<polygon fill="#191970" stroke="#191970" points="280.9535,-510.0186 291.27,-512.4311 284.7096,-504.1117 280.9535,-510.0186"/>
</g>
<!-- Node12 -->
<g id="node12" class="node">
<title>Node12</title>
<g id="a_node12"><a xlink:href="Pixel_8hpp.html" target="_top" xlink:title=" ">
<polygon fill="#ffffff" stroke="#000000" points="428,-434.5 428,-475.5 584,-475.5 584,-434.5 428,-434.5"/>
<text text-anchor="start" x="436" y="-463.5" font-family="Helvetica,sans-Serif" font-size="10.00" fill="#000000">/home/pieter/GitHub</text>
<text text-anchor="start" x="436" y="-452.5" font-family="Helvetica,sans-Serif" font-size="10.00" fill="#000000">/EAGLE&#45;ZYBO&#45;Linux/src</text>
<text text-anchor="middle" x="506" y="-441.5" font-family="Helvetica,sans-Serif" font-size="10.00" fill="#000000">/grid&#45;finder/include/Pixel.hpp</text>
</a>
</g>
</g>
<!-- Node1&#45;&gt;Node12 -->
<g id="edge18" class="edge">
<title>Node1&#45;&gt;Node12</title>
<path fill="none" stroke="#191970" d="M381.5365,-508.3415C406.1838,-497.7784 434.6363,-485.5844 458.111,-475.5239"/>
<polygon fill="#191970" stroke="#191970" points="380.1076,-505.146 372.2948,-512.3022 382.865,-511.58 380.1076,-505.146"/>
</g>
<!-- Node3 -->
<g id="node3" class="node">
<title>Node3</title>
<g id="a_node3"><a xlink:href="Bresenham_8hpp.html" target="_top" xlink:title=" ">
<polygon fill="#ffffff" stroke="#000000" points="224,-351 224,-392 412,-392 412,-351 224,-351"/>
<text text-anchor="start" x="232" y="-380" font-family="Helvetica,sans-Serif" font-size="10.00" fill="#000000">/home/pieter/GitHub</text>
<text text-anchor="start" x="232" y="-369" font-family="Helvetica,sans-Serif" font-size="10.00" fill="#000000">/EAGLE&#45;ZYBO&#45;Linux/src</text>
<text text-anchor="middle" x="318" y="-358" font-family="Helvetica,sans-Serif" font-size="10.00" fill="#000000">/grid&#45;finder/include/Bresenham.hpp</text>
</a>
</g>
</g>
<!-- Node2&#45;&gt;Node3 -->
<g id="edge2" class="edge">
<title>Node2&#45;&gt;Node3</title>
<path fill="none" stroke="#191970" d="M321.7839,-424.1593C321.0184,-413.5064 320.1797,-401.8344 319.4869,-392.1924"/>
<polygon fill="#191970" stroke="#191970" points="318.309,-424.6361 322.5169,-434.3595 325.291,-424.1344 318.309,-424.6361"/>
</g>
<!-- Node4 -->
<g id="node4" class="node">
<title>Node4</title>
<g id="a_node4"><a xlink:href="GridFinder_8hpp.html" target="_top" xlink:title=" ">
<polygon fill="#ffffff" stroke="#000000" points="384.5,-184 384.5,-225 565.5,-225 565.5,-184 384.5,-184"/>
<text text-anchor="start" x="392.5" y="-213" font-family="Helvetica,sans-Serif" font-size="10.00" fill="#000000">/home/pieter/GitHub</text>
<text text-anchor="start" x="392.5" y="-202" font-family="Helvetica,sans-Serif" font-size="10.00" fill="#000000">/EAGLE&#45;ZYBO&#45;Linux/src</text>
<text text-anchor="middle" x="475" y="-191" font-family="Helvetica,sans-Serif" font-size="10.00" fill="#000000">/grid&#45;finder/include/GridFinder.hpp</text>
</a>
</g>
</g>
<!-- Node2&#45;&gt;Node4 -->
<g id="edge7" class="edge">
<title>Node2&#45;&gt;Node4</title>
<path fill="none" stroke="#191970" d="M248.6904,-429.5711C235.2718,-421.5851 223.0303,-411.2613 215,-398 202.7988,-377.8507 202.9361,-365.2318 215,-345 252.9706,-281.3213 330.9138,-244.7656 391.6067,-225.002"/>
<polygon fill="#191970" stroke="#191970" points="247.1957,-432.7433 257.6458,-434.4888 250.5651,-426.6075 247.1957,-432.7433"/>
</g>
<!-- Node8 -->
<g id="node8" class="node">
<title>Node8</title>
<g id="a_node8"><a xlink:href="HelperStructs_8hpp.html" target="_top" xlink:title=" ">
<polygon fill="#ffffff" stroke="#000000" points="502,-267.5 502,-308.5 700,-308.5 700,-267.5 502,-267.5"/>
<text text-anchor="start" x="510" y="-296.5" font-family="Helvetica,sans-Serif" font-size="10.00" fill="#000000">/home/pieter/GitHub</text>
<text text-anchor="start" x="510" y="-285.5" font-family="Helvetica,sans-Serif" font-size="10.00" fill="#000000">/EAGLE&#45;ZYBO&#45;Linux/src</text>
<text text-anchor="middle" x="601" y="-274.5" font-family="Helvetica,sans-Serif" font-size="10.00" fill="#000000">/grid&#45;finder/include/HelperStructs.hpp</text>
</a>
</g>
</g>
<!-- Node2&#45;&gt;Node8 -->
<g id="edge8" class="edge">
<title>Node2&#45;&gt;Node8</title>
<path fill="none" stroke="#191970" d="M413.9311,-435.0932C415.6345,-434.725 417.3255,-434.3603 419,-434 495.3534,-417.571 539.0587,-456.3254 591,-398 612.6802,-373.6551 609.9762,-333.1356 605.7127,-308.6589"/>
<polygon fill="#191970" stroke="#191970" points="413.0964,-431.6928 404.0661,-437.2339 414.5809,-438.5336 413.0964,-431.6928"/>
</g>
<!-- Node10 -->
<g id="node10" class="node">
<title>Node10</title>
<g id="a_node10"><a xlink:href="Line_8hpp.html" target="_top" xlink:title=" ">
<polygon fill="#ffffff" stroke="#000000" points="430,-351 430,-392 582,-392 582,-351 430,-351"/>
<text text-anchor="start" x="438" y="-380" font-family="Helvetica,sans-Serif" font-size="10.00" fill="#000000">/home/pieter/GitHub</text>
<text text-anchor="start" x="438" y="-369" font-family="Helvetica,sans-Serif" font-size="10.00" fill="#000000">/EAGLE&#45;ZYBO&#45;Linux/src</text>
<text text-anchor="middle" x="506" y="-358" font-family="Helvetica,sans-Serif" font-size="10.00" fill="#000000">/grid&#45;finder/include/Line.hpp</text>
</a>
</g>
</g>
<!-- Node2&#45;&gt;Node10 -->
<g id="edge12" class="edge">
<title>Node2&#45;&gt;Node10</title>
<path fill="none" stroke="#191970" d="M378.1281,-430.1665C404.6103,-418.0167 436.1066,-403.5665 461.2137,-392.0476"/>
<polygon fill="#191970" stroke="#191970" points="376.6183,-427.0083 368.9888,-434.3595 379.5374,-433.3707 376.6183,-427.0083"/>
</g>
<!-- Node3&#45;&gt;Node4 -->
<g id="edge3" class="edge">
<title>Node3&#45;&gt;Node4</title>
<path fill="none" stroke="#191970" d="M344.7341,-343.0631C376.2384,-309.5521 427.8144,-254.6911 455.6799,-225.0507"/>
<polygon fill="#191970" stroke="#191970" points="341.8663,-341.0038 337.5667,-350.687 346.9664,-345.7985 341.8663,-341.0038"/>
</g>
<!-- Node5 -->
<g id="node5" class="node">
<title>Node5</title>
<g id="a_node5"><a xlink:href="LocationFinder_8cpp.html" target="_top" xlink:title=" ">
<polygon fill="#ffffff" stroke="#000000" points="572,-89.5 572,-141.5 724,-141.5 724,-89.5 572,-89.5"/>
<text text-anchor="start" x="580" y="-129.5" font-family="Helvetica,sans-Serif" font-size="10.00" fill="#000000">/home/pieter/GitHub</text>
<text text-anchor="start" x="580" y="-118.5" font-family="Helvetica,sans-Serif" font-size="10.00" fill="#000000">/EAGLE&#45;ZYBO&#45;Linux/src</text>
<text text-anchor="start" x="580" y="-107.5" font-family="Helvetica,sans-Serif" font-size="10.00" fill="#000000">/location&#45;finder/src/Location</text>
<text text-anchor="middle" x="648" y="-96.5" font-family="Helvetica,sans-Serif" font-size="10.00" fill="#000000">Finder.cpp</text>
</a>
</g>
</g>
<!-- Node4&#45;&gt;Node5 -->
<g id="edge4" class="edge">
<title>Node4&#45;&gt;Node5</title>
<path fill="none" stroke="#191970" d="M524.2956,-179.1399C547.125,-167.3952 574.2258,-153.4532 597.2341,-141.6166"/>
<polygon fill="#191970" stroke="#191970" points="522.4157,-176.1709 515.1245,-183.8579 525.6179,-182.3955 522.4157,-176.1709"/>
</g>
<!-- Node6 -->
<g id="node6" class="node">
<title>Node6</title>
<g id="a_node6"><a xlink:href="Grid-Finder_8module_8hpp.html" target="_top" xlink:title=" ">
<polygon fill="#ffffff" stroke="#000000" points="349.5,-89.5 349.5,-141.5 482.5,-141.5 482.5,-89.5 349.5,-89.5"/>
<text text-anchor="start" x="357.5" y="-129.5" font-family="Helvetica,sans-Serif" font-size="10.00" fill="#000000">/home/pieter/GitHub</text>
<text text-anchor="start" x="357.5" y="-118.5" font-family="Helvetica,sans-Serif" font-size="10.00" fill="#000000">/EAGLE&#45;ZYBO&#45;Linux/src</text>
<text text-anchor="start" x="357.5" y="-107.5" font-family="Helvetica,sans-Serif" font-size="10.00" fill="#000000">/py&#45;grid&#45;finder/include</text>
<text text-anchor="middle" x="416" y="-96.5" font-family="Helvetica,sans-Serif" font-size="10.00" fill="#000000">/Grid&#45;Finder.module.hpp</text>
</a>
</g>
</g>
<!-- Node4&#45;&gt;Node6 -->
<g id="edge5" class="edge">
<title>Node4&#45;&gt;Node6</title>
<path fill="none" stroke="#191970" d="M455.7816,-175.5096C448.5827,-164.6502 440.4501,-152.3823 433.4226,-141.7816"/>
<polygon fill="#191970" stroke="#191970" points="452.8733,-177.4569 461.3159,-183.8579 458.7077,-173.5891 452.8733,-177.4569"/>
</g>
<!-- Node7 -->
<g id="node7" class="node">
<title>Node7</title>
<g id="a_node7"><a xlink:href="Grid-Finder_8module_8cpp.html" target="_top" xlink:title=" ">
<polygon fill="#ffffff" stroke="#000000" points="351.5,-.5 351.5,-52.5 480.5,-52.5 480.5,-.5 351.5,-.5"/>
<text text-anchor="start" x="359.5" y="-40.5" font-family="Helvetica,sans-Serif" font-size="10.00" fill="#000000">/home/pieter/GitHub</text>
<text text-anchor="start" x="359.5" y="-29.5" font-family="Helvetica,sans-Serif" font-size="10.00" fill="#000000">/EAGLE&#45;ZYBO&#45;Linux/src</text>
<text text-anchor="start" x="359.5" y="-18.5" font-family="Helvetica,sans-Serif" font-size="10.00" fill="#000000">/py&#45;grid&#45;finder/src/Grid</text>
<text text-anchor="middle" x="416" y="-7.5" font-family="Helvetica,sans-Serif" font-size="10.00" fill="#000000">&#45;Finder.module.cpp</text>
</a>
</g>
</g>
<!-- Node6&#45;&gt;Node7 -->
<g id="edge6" class="edge">
<title>Node6&#45;&gt;Node7</title>
<path fill="none" stroke="#191970" d="M416,-79.1155C416,-70.2061 416,-60.8475 416,-52.5341"/>
<polygon fill="#191970" stroke="#191970" points="412.5001,-79.2784 416,-89.2784 419.5001,-79.2785 412.5001,-79.2784"/>
</g>
<!-- Node8&#45;&gt;Node4 -->
<g id="edge9" class="edge">
<title>Node8&#45;&gt;Node4</title>
<path fill="none" stroke="#191970" d="M561.3823,-261.7454C543.5891,-249.9539 522.8959,-236.2406 506.2245,-225.1924"/>
<polygon fill="#191970" stroke="#191970" points="559.5847,-264.7529 569.8539,-267.3595 563.4516,-258.9179 559.5847,-264.7529"/>
</g>
<!-- Node9 -->
<g id="node9" class="node">
<title>Node9</title>
<g id="a_node9"><a xlink:href="LocationFinder_8hpp.html" target="_top" xlink:title=" ">
<polygon fill="#ffffff" stroke="#000000" points="583.5,-178.5 583.5,-230.5 712.5,-230.5 712.5,-178.5 583.5,-178.5"/>
<text text-anchor="start" x="591.5" y="-218.5" font-family="Helvetica,sans-Serif" font-size="10.00" fill="#000000">/home/pieter/GitHub</text>
<text text-anchor="start" x="591.5" y="-207.5" font-family="Helvetica,sans-Serif" font-size="10.00" fill="#000000">/EAGLE&#45;ZYBO&#45;Linux/src</text>
<text text-anchor="start" x="591.5" y="-196.5" font-family="Helvetica,sans-Serif" font-size="10.00" fill="#000000">/location&#45;finder/include</text>
<text text-anchor="middle" x="648" y="-185.5" font-family="Helvetica,sans-Serif" font-size="10.00" fill="#000000">/LocationFinder.hpp</text>
</a>
</g>
</g>
<!-- Node8&#45;&gt;Node9 -->
<g id="edge10" class="edge">
<title>Node8&#45;&gt;Node9</title>
<path fill="none" stroke="#191970" d="M617.5516,-258.5945C622.6885,-249.4682 628.3122,-239.4772 633.3132,-230.5925"/>
<polygon fill="#191970" stroke="#191970" points="614.4731,-256.9284 612.618,-267.3595 620.5732,-260.362 614.4731,-256.9284"/>
</g>
<!-- Node9&#45;&gt;Node5 -->
<g id="edge11" class="edge">
<title>Node9&#45;&gt;Node5</title>
<path fill="none" stroke="#191970" d="M648,-168.1155C648,-159.2061 648,-149.8475 648,-141.5341"/>
<polygon fill="#191970" stroke="#191970" points="644.5001,-168.2784 648,-178.2784 651.5001,-168.2785 644.5001,-168.2784"/>
</g>
<!-- Node10&#45;&gt;Node4 -->
<g id="edge13" class="edge">
<title>Node10&#45;&gt;Node4</title>
<path fill="none" stroke="#191970" d="M499.4242,-340.9424C497.299,-330.7934 494.9813,-319.4244 493,-309 487.5,-280.0628 481.8438,-246.4768 478.375,-225.3566"/>
<polygon fill="#191970" stroke="#191970" points="496.0548,-341.9264 501.5472,-350.9864 502.9035,-340.4787 496.0548,-341.9264"/>
</g>
<!-- Node10&#45;&gt;Node6 -->
<g id="edge15" class="edge">
<title>Node10&#45;&gt;Node6</title>
<path fill="none" stroke="#191970" d="M468.7083,-344.4827C437.2676,-319.1975 394.5235,-278.2943 376,-231 367.4095,-209.0667 369.3849,-200.6076 376,-178 379.7987,-165.0176 387.2104,-152.1705 394.6323,-141.5318"/>
<polygon fill="#191970" stroke="#191970" points="466.8174,-347.4484 476.841,-350.8806 471.1455,-341.9468 466.8174,-347.4484"/>
</g>
<!-- Node10&#45;&gt;Node8 -->
<g id="edge14" class="edge">
<title>Node10&#45;&gt;Node8</title>
<path fill="none" stroke="#191970" d="M537.3424,-343.9517C550.4167,-332.4601 565.3451,-319.3388 577.4578,-308.6924"/>
<polygon fill="#191970" stroke="#191970" points="534.6836,-341.6288 529.4832,-350.8595 539.3049,-346.8866 534.6836,-341.6288"/>
</g>
<!-- Node11&#45;&gt;Node4 -->
<g id="edge17" class="edge">
<title>Node11&#45;&gt;Node4</title>
<path fill="none" stroke="#191970" d="M107.5161,-337.0322C125.2743,-313.6906 151.7127,-284.0938 182,-267 216.142,-247.7306 311.6758,-229.4827 384.4589,-217.7351"/>
<polygon fill="#191970" stroke="#191970" points="104.52,-335.1967 101.3753,-345.314 110.1429,-339.366 104.52,-335.1967"/>
</g>
<!-- Node12&#45;&gt;Node3 -->
<g id="edge19" class="edge">
<title>Node12&#45;&gt;Node3</title>
<path fill="none" stroke="#191970" d="M450.0875,-430.1665C422.7322,-418.0167 390.1976,-403.5665 364.2628,-392.0476"/>
<polygon fill="#191970" stroke="#191970" points="448.9682,-433.4991 459.5281,-434.3595 451.8097,-427.1017 448.9682,-433.4991"/>
</g>
<!-- Node12&#45;&gt;Node8 -->
<g id="edge20" class="edge">
<title>Node12&#45;&gt;Node8</title>
<path fill="none" stroke="#191970" d="M589.3589,-429.5844C603.1236,-421.6612 615.6178,-411.358 624,-398 641.3182,-370.4016 626.2538,-331.9997 613.6863,-308.6341"/>
<polygon fill="#191970" stroke="#191970" points="587.3598,-426.6825 580.1605,-434.4556 590.6358,-432.8686 587.3598,-426.6825"/>
</g>
<!-- Node12&#45;&gt;Node10 -->
<g id="edge21" class="edge">
<title>Node12&#45;&gt;Node10</title>
<path fill="none" stroke="#191970" d="M506,-424.1593C506,-413.5064 506,-401.8344 506,-392.1924"/>
<polygon fill="#191970" stroke="#191970" points="502.5001,-424.3595 506,-434.3595 509.5001,-424.3596 502.5001,-424.3595"/>
</g>
<!-- Node13 -->
<g id="node13" class="node">
<title>Node13</title>
<g id="a_node13"><a xlink:href="Mask_8hpp.html" target="_top" xlink:title=" ">
<polygon fill="#ffffff" stroke="#000000" points="718,-267.5 718,-308.5 852,-308.5 852,-267.5 718,-267.5"/>
<text text-anchor="start" x="726" y="-296.5" font-family="Helvetica,sans-Serif" font-size="10.00" fill="#000000">/home/pieter/GitHub</text>
<text text-anchor="start" x="726" y="-285.5" font-family="Helvetica,sans-Serif" font-size="10.00" fill="#000000">/EAGLE&#45;ZYBO&#45;Linux/src</text>
<text text-anchor="middle" x="785" y="-274.5" font-family="Helvetica,sans-Serif" font-size="10.00" fill="#000000">/mask/include/Mask.hpp</text>
</a>
</g>
</g>
<!-- Node12&#45;&gt;Node13 -->
<g id="edge22" class="edge">
<title>Node12&#45;&gt;Node13</title>
<path fill="none" stroke="#191970" d="M572.7565,-430.721C595.043,-421.6012 619.6297,-410.4045 641,-398 686.7097,-371.4676 734.441,-332.386 761.8551,-308.6525"/>
<polygon fill="#191970" stroke="#191970" points="571.3335,-427.5208 563.3621,-434.4998 573.9458,-434.0151 571.3335,-427.5208"/>
</g>
<!-- Node13&#45;&gt;Node4 -->
<g id="edge23" class="edge">
<title>Node13&#45;&gt;Node4</title>
<path fill="none" stroke="#191970" d="M707.8837,-266.7053C650.4703,-251.1272 595.6097,-236.4782 552.5123,-225.0244"/>
<polygon fill="#191970" stroke="#191970" points="707.3041,-270.1746 717.8718,-269.4178 709.1387,-263.4193 707.3041,-270.1746"/>
</g>
<!-- Node13&#45;&gt;Node5 -->
<g id="edge24" class="edge">
<title>Node13&#45;&gt;Node5</title>
<path fill="none" stroke="#191970" d="M771.4712,-258.1483C760.1449,-234.945 742.5567,-202.6656 722,-178 710.9108,-164.6943 696.7658,-151.978 683.8191,-141.5308"/>
<polygon fill="#191970" stroke="#191970" points="768.3171,-259.6656 775.7876,-267.1784 774.6327,-256.6467 768.3171,-259.6656"/>
</g>
<!-- Node14 -->
<g id="node14" class="node">
<title>Node14</title>
<g id="a_node14"><a xlink:href="GenerateMask-Unroll_8ipp.html" target="_top" xlink:title=" ">
<polygon fill="#ffffff" stroke="#000000" points="810.5,-178.5 810.5,-230.5 947.5,-230.5 947.5,-178.5 810.5,-178.5"/>
<text text-anchor="start" x="818.5" y="-218.5" font-family="Helvetica,sans-Serif" font-size="10.00" fill="#000000">/home/pieter/GitHub</text>
<text text-anchor="start" x="818.5" y="-207.5" font-family="Helvetica,sans-Serif" font-size="10.00" fill="#000000">/EAGLE&#45;ZYBO&#45;Linux/src</text>
<text text-anchor="start" x="818.5" y="-196.5" font-family="Helvetica,sans-Serif" font-size="10.00" fill="#000000">/mask/src/GenerateMask</text>
<text text-anchor="middle" x="879" y="-185.5" font-family="Helvetica,sans-Serif" font-size="10.00" fill="#000000">&#45;Unroll.ipp</text>
</a>
</g>
</g>
<!-- Node13&#45;&gt;Node14 -->
<g id="edge25" class="edge">
<title>Node13&#45;&gt;Node14</title>
<path fill="none" stroke="#191970" d="M815.8722,-260.5763C826.7302,-250.9311 838.8951,-240.1251 849.6264,-230.5925"/>
<polygon fill="#191970" stroke="#191970" points="813.3879,-258.1016 808.236,-267.3595 818.0367,-263.3351 813.3879,-258.1016"/>
</g>
<!-- Node15 -->
<g id="node15" class="node">
<title>Node15</title>
<g id="a_node15"><a xlink:href="Mask_8cpp.html" target="_top" xlink:title=" ">
<polygon fill="#ffffff" stroke="#000000" points="778.5,-95 778.5,-136 907.5,-136 907.5,-95 778.5,-95"/>
<text text-anchor="start" x="786.5" y="-124" font-family="Helvetica,sans-Serif" font-size="10.00" fill="#000000">/home/pieter/GitHub</text>
<text text-anchor="start" x="786.5" y="-113" font-family="Helvetica,sans-Serif" font-size="10.00" fill="#000000">/EAGLE&#45;ZYBO&#45;Linux/src</text>
<text text-anchor="middle" x="843" y="-102" font-family="Helvetica,sans-Serif" font-size="10.00" fill="#000000">/mask/src/Mask.cpp</text>
</a>
</g>
</g>
<!-- Node13&#45;&gt;Node15 -->
<g id="edge27" class="edge">
<title>Node13&#45;&gt;Node15</title>
<path fill="none" stroke="#191970" d="M786.238,-257.4352C787.9757,-234.8493 792.1246,-203.6928 802,-178 807.7733,-162.9798 817.5731,-147.8467 826.1442,-136.2341"/>
<polygon fill="#191970" stroke="#191970" points="782.7422,-257.2578 785.5807,-267.4653 789.7272,-257.7157 782.7422,-257.2578"/>
</g>
<!-- Node14&#45;&gt;Node15 -->
<g id="edge26" class="edge">
<title>Node14&#45;&gt;Node15</title>
<path fill="none" stroke="#191970" d="M864.562,-168.8062C860.0786,-157.722 855.2879,-145.8785 851.3638,-136.1771"/>
<polygon fill="#191970" stroke="#191970" points="861.399,-170.3205 868.3935,-178.2784 867.8883,-167.6956 861.399,-170.3205"/>
</g>
</g>
</svg>
