<?xml version="1.0" encoding="UTF-8" standalone="no"?>
<!DOCTYPE svg PUBLIC "-//W3C//DTD SVG 1.1//EN"
 "http://www.w3.org/Graphics/SVG/1.1/DTD/svg11.dtd">
<!-- Generated by graphviz version 2.40.1 (20161225.0304)
 -->
<!-- Title: /home/pieter/GitHub/Crypto/src/grid&#45;finder/include/uint.hpp Pages: 1 -->
<svg width="524pt" height="362pt"
 viewBox="0.00 0.00 524.22 362.00" xmlns="http://www.w3.org/2000/svg" xmlns:xlink="http://www.w3.org/1999/xlink">
<g id="graph0" class="graph" transform="scale(1 1) rotate(0) translate(4 358)">
<title>/home/pieter/GitHub/Crypto/src/grid&#45;finder/include/uint.hpp</title>
<polygon fill="#ffffff" stroke="transparent" points="-4,4 -4,-358 520.2228,-358 520.2228,4 -4,4"/>
<!-- Node1 -->
<g id="node1" class="node">
<title>Node1</title>
<g id="a_node1"><a xlink:title=" ">
<polygon fill="#bfbfbf" stroke="#000000" points="230.7228,-312.5 230.7228,-353.5 352.7228,-353.5 352.7228,-312.5 230.7228,-312.5"/>
<text text-anchor="start" x="238.7228" y="-341.5" font-family="Helvetica,sans-Serif" font-size="10.00" fill="#000000">/home/pieter/GitHub</text>
<text text-anchor="start" x="238.7228" y="-330.5" font-family="Helvetica,sans-Serif" font-size="10.00" fill="#000000">/Crypto/src/grid&#45;finder</text>
<text text-anchor="middle" x="291.7228" y="-319.5" font-family="Helvetica,sans-Serif" font-size="10.00" fill="#000000">/include/uint.hpp</text>
</a>
</g>
</g>
<!-- Node2 -->
<g id="node2" class="node">
<title>Node2</title>
<g id="a_node2"><a xlink:href="Angle_8hpp.html" target="_top" xlink:title=" ">
<polygon fill="#ffffff" stroke="#000000" points="90.7228,-234.5 90.7228,-275.5 212.7228,-275.5 212.7228,-234.5 90.7228,-234.5"/>
<text text-anchor="start" x="98.7228" y="-263.5" font-family="Helvetica,sans-Serif" font-size="10.00" fill="#000000">/home/pieter/GitHub</text>
<text text-anchor="start" x="98.7228" y="-252.5" font-family="Helvetica,sans-Serif" font-size="10.00" fill="#000000">/Crypto/src/grid&#45;finder</text>
<text text-anchor="middle" x="151.7228" y="-241.5" font-family="Helvetica,sans-Serif" font-size="10.00" fill="#000000">/include/Angle.hpp</text>
</a>
</g>
</g>
<!-- Node1&#45;&gt;Node2 -->
<g id="edge1" class="edge">
<title>Node1&#45;&gt;Node2</title>
<path fill="none" stroke="#191970" d="M245.7018,-307.3597C227.1582,-297.0283 206.0611,-285.2742 188.5604,-275.5239"/>
<polygon fill="#191970" stroke="#191970" points="244.1337,-310.4926 254.5729,-312.3022 247.5407,-304.3776 244.1337,-310.4926"/>
</g>
<!-- Node7 -->
<g id="node7" class="node">
<title>Node7</title>
<g id="a_node7"><a xlink:href="CenterPointOutLineIterator_8hpp.html" target="_top" xlink:title=" ">
<polygon fill="#ffffff" stroke="#000000" points="307.2228,-78.5 307.2228,-119.5 516.2228,-119.5 516.2228,-78.5 307.2228,-78.5"/>
<text text-anchor="start" x="315.2228" y="-107.5" font-family="Helvetica,sans-Serif" font-size="10.00" fill="#000000">/home/pieter/GitHub</text>
<text text-anchor="start" x="315.2228" y="-96.5" font-family="Helvetica,sans-Serif" font-size="10.00" fill="#000000">/Crypto/src/grid&#45;finder</text>
<text text-anchor="middle" x="411.7228" y="-85.5" font-family="Helvetica,sans-Serif" font-size="10.00" fill="#000000">/include/CenterPointOutLineIterator.hpp</text>
</a>
</g>
</g>
<!-- Node1&#45;&gt;Node7 -->
<g id="edge10" class="edge">
<title>Node1&#45;&gt;Node7</title>
<path fill="none" stroke="#191970" d="M333.2258,-306.1313C343.786,-297.5948 354.2472,-287.3764 361.7228,-276 394.5143,-226.0974 406.0787,-154.6549 409.9304,-119.7682"/>
<polygon fill="#191970" stroke="#191970" points="330.9701,-303.4508 325.1788,-312.3228 335.2387,-308.9986 330.9701,-303.4508"/>
</g>
<!-- Node8 -->
<g id="node8" class="node">
<title>Node8</title>
<g id="a_node8"><a xlink:href="Pixel_8hpp.html" target="_top" xlink:title=" ">
<polygon fill="#ffffff" stroke="#000000" points="230.7228,-234.5 230.7228,-275.5 352.7228,-275.5 352.7228,-234.5 230.7228,-234.5"/>
<text text-anchor="start" x="238.7228" y="-263.5" font-family="Helvetica,sans-Serif" font-size="10.00" fill="#000000">/home/pieter/GitHub</text>
<text text-anchor="start" x="238.7228" y="-252.5" font-family="Helvetica,sans-Serif" font-size="10.00" fill="#000000">/Crypto/src/grid&#45;finder</text>
<text text-anchor="middle" x="291.7228" y="-241.5" font-family="Helvetica,sans-Serif" font-size="10.00" fill="#000000">/include/Pixel.hpp</text>
</a>
</g>
</g>
<!-- Node1&#45;&gt;Node8 -->
<g id="edge12" class="edge">
<title>Node1&#45;&gt;Node8</title>
<path fill="none" stroke="#191970" d="M291.7228,-302.0789C291.7228,-293.2178 291.7228,-283.7747 291.7228,-275.6898"/>
<polygon fill="#191970" stroke="#191970" points="288.2229,-302.0974 291.7228,-312.0974 295.2229,-302.0975 288.2229,-302.0974"/>
</g>
<!-- Node3 -->
<g id="node3" class="node">
<title>Node3</title>
<g id="a_node3"><a xlink:href="Bresenham_8hpp.html" target="_top" xlink:title=" ">
<polygon fill="#ffffff" stroke="#000000" points="15.7228,-156.5 15.7228,-197.5 149.7228,-197.5 149.7228,-156.5 15.7228,-156.5"/>
<text text-anchor="start" x="23.7228" y="-185.5" font-family="Helvetica,sans-Serif" font-size="10.00" fill="#000000">/home/pieter/GitHub</text>
<text text-anchor="start" x="23.7228" y="-174.5" font-family="Helvetica,sans-Serif" font-size="10.00" fill="#000000">/Crypto/src/grid&#45;finder</text>
<text text-anchor="middle" x="82.7228" y="-163.5" font-family="Helvetica,sans-Serif" font-size="10.00" fill="#000000">/include/Bresenham.hpp</text>
</a>
</g>
</g>
<!-- Node2&#45;&gt;Node3 -->
<g id="edge2" class="edge">
<title>Node2&#45;&gt;Node3</title>
<path fill="none" stroke="#191970" d="M126.4015,-226.376C117.9926,-216.8703 108.7993,-206.4778 101.0253,-197.6898"/>
<polygon fill="#191970" stroke="#191970" points="123.9847,-228.9265 133.232,-234.0974 129.2277,-224.2884 123.9847,-228.9265"/>
</g>
<!-- Node4 -->
<g id="node4" class="node">
<title>Node4</title>
<g id="a_node4"><a xlink:href="GridFinder_8hpp.html" target="_top" xlink:title=" ">
<polygon fill="#ffffff" stroke="#000000" points="113.7228,-.5 113.7228,-41.5 241.7228,-41.5 241.7228,-.5 113.7228,-.5"/>
<text text-anchor="start" x="121.7228" y="-29.5" font-family="Helvetica,sans-Serif" font-size="10.00" fill="#000000">/home/pieter/GitHub</text>
<text text-anchor="start" x="121.7228" y="-18.5" font-family="Helvetica,sans-Serif" font-size="10.00" fill="#000000">/Crypto/src/grid&#45;finder</text>
<text text-anchor="middle" x="177.7228" y="-7.5" font-family="Helvetica,sans-Serif" font-size="10.00" fill="#000000">/include/GridFinder.hpp</text>
</a>
</g>
</g>
<!-- Node2&#45;&gt;Node4 -->
<g id="edge4" class="edge">
<title>Node2&#45;&gt;Node4</title>
<path fill="none" stroke="#191970" d="M80.5956,-235.3252C48.5805,-224.8927 15.9018,-211.4711 6.7228,-198 -3.7883,-182.574 -.0745,-173.3851 6.7228,-156 28.2091,-101.0455 87.0077,-62.9362 129.6656,-41.5486"/>
<polygon fill="#191970" stroke="#191970" points="79.8929,-238.7742 90.4832,-238.4636 82.0107,-232.1022 79.8929,-238.7742"/>
</g>
<!-- Node5 -->
<g id="node5" class="node">
<title>Node5</title>
<g id="a_node5"><a xlink:href="HelperStructs_8hpp.html" target="_top" xlink:title=" ">
<polygon fill="#ffffff" stroke="#000000" points="105.2228,-78.5 105.2228,-119.5 250.2228,-119.5 250.2228,-78.5 105.2228,-78.5"/>
<text text-anchor="start" x="113.2228" y="-107.5" font-family="Helvetica,sans-Serif" font-size="10.00" fill="#000000">/home/pieter/GitHub</text>
<text text-anchor="start" x="113.2228" y="-96.5" font-family="Helvetica,sans-Serif" font-size="10.00" fill="#000000">/Crypto/src/grid&#45;finder</text>
<text text-anchor="middle" x="177.7228" y="-85.5" font-family="Helvetica,sans-Serif" font-size="10.00" fill="#000000">/include/HelperStructs.hpp</text>
</a>
</g>
</g>
<!-- Node2&#45;&gt;Node5 -->
<g id="edge5" class="edge">
<title>Node2&#45;&gt;Node5</title>
<path fill="none" stroke="#191970" d="M156.8777,-224.0704C162.0273,-193.1728 169.8004,-146.5341 174.2559,-119.8013"/>
<polygon fill="#191970" stroke="#191970" points="153.367,-223.845 155.1754,-234.2844 160.2718,-224.9959 153.367,-223.845"/>
</g>
<!-- Node6 -->
<g id="node6" class="node">
<title>Node6</title>
<g id="a_node6"><a xlink:href="Line_8hpp.html" target="_top" xlink:title=" ">
<polygon fill="#ffffff" stroke="#000000" points="205.7228,-156.5 205.7228,-197.5 327.7228,-197.5 327.7228,-156.5 205.7228,-156.5"/>
<text text-anchor="start" x="213.7228" y="-185.5" font-family="Helvetica,sans-Serif" font-size="10.00" fill="#000000">/home/pieter/GitHub</text>
<text text-anchor="start" x="213.7228" y="-174.5" font-family="Helvetica,sans-Serif" font-size="10.00" fill="#000000">/Crypto/src/grid&#45;finder</text>
<text text-anchor="middle" x="266.7228" y="-163.5" font-family="Helvetica,sans-Serif" font-size="10.00" fill="#000000">/include/Line.hpp</text>
</a>
</g>
</g>
<!-- Node2&#45;&gt;Node6 -->
<g id="edge7" class="edge">
<title>Node2&#45;&gt;Node6</title>
<path fill="none" stroke="#191970" d="M190.7765,-228.5113C205.701,-218.3887 222.4798,-207.0083 236.4632,-197.5239"/>
<polygon fill="#191970" stroke="#191970" points="188.55,-225.7923 182.2387,-234.3022 192.4793,-231.5855 188.55,-225.7923"/>
</g>
<!-- Node3&#45;&gt;Node4 -->
<g id="edge3" class="edge">
<title>Node3&#45;&gt;Node4</title>
<path fill="none" stroke="#191970" d="M80.5322,-146.2912C80.4772,-125.5859 83.2851,-98.4254 95.7228,-78 104.9203,-62.8956 119.8062,-50.7786 134.3875,-41.6663"/>
<polygon fill="#191970" stroke="#191970" points="77.0375,-146.5511 80.7861,-156.4606 84.0353,-146.3763 77.0375,-146.5511"/>
</g>
<!-- Node5&#45;&gt;Node4 -->
<g id="edge6" class="edge">
<title>Node5&#45;&gt;Node4</title>
<path fill="none" stroke="#191970" d="M177.7228,-68.0789C177.7228,-59.2178 177.7228,-49.7747 177.7228,-41.6898"/>
<polygon fill="#191970" stroke="#191970" points="174.2229,-68.0974 177.7228,-78.0974 181.2229,-68.0975 174.2229,-68.0974"/>
</g>
<!-- Node6&#45;&gt;Node4 -->
<g id="edge8" class="edge">
<title>Node6&#45;&gt;Node4</title>
<path fill="none" stroke="#191970" d="M270.7386,-146.0542C271.9119,-125.462 270.4513,-98.5267 258.7228,-78 250.0214,-62.7713 235.3949,-50.6291 220.9464,-41.5314"/>
<polygon fill="#191970" stroke="#191970" points="267.2375,-145.9287 269.9254,-156.1769 274.215,-146.4893 267.2375,-145.9287"/>
</g>
<!-- Node6&#45;&gt;Node5 -->
<g id="edge9" class="edge">
<title>Node6&#45;&gt;Node5</title>
<path fill="none" stroke="#191970" d="M235.0353,-149.229C223.9289,-139.4953 211.6585,-128.7414 201.3303,-119.6898"/>
<polygon fill="#191970" stroke="#191970" points="233.045,-152.1386 242.8724,-156.0974 237.6587,-146.8742 233.045,-152.1386"/>
</g>
<!-- Node7&#45;&gt;Node4 -->
<g id="edge11" class="edge">
<title>Node7&#45;&gt;Node4</title>
<path fill="none" stroke="#191970" d="M340.1381,-75.1385C307.9632,-64.4135 270.3643,-51.8805 239.4498,-41.5757"/>
<polygon fill="#191970" stroke="#191970" points="339.3423,-78.5624 349.9359,-78.4044 341.5559,-71.9217 339.3423,-78.5624"/>
</g>
<!-- Node8&#45;&gt;Node3 -->
<g id="edge13" class="edge">
<title>Node8&#45;&gt;Node3</title>
<path fill="none" stroke="#191970" d="M227.0418,-230.8607C198.4701,-220.1976 165.2286,-207.7917 137.855,-197.5757"/>
<polygon fill="#191970" stroke="#191970" points="225.9445,-234.1869 236.5371,-234.4044 228.3921,-227.6287 225.9445,-234.1869"/>
</g>
<!-- Node8&#45;&gt;Node5 -->
<g id="edge14" class="edge">
<title>Node8&#45;&gt;Node5</title>
<path fill="none" stroke="#191970" d="M319.6783,-226.6891C336.5908,-206.0383 352.1675,-177.944 336.7228,-156 326.0475,-140.8325 287.0985,-126.7368 250.4249,-116.3571"/>
<polygon fill="#191970" stroke="#191970" points="316.8303,-224.632 312.9421,-234.4877 322.1276,-229.2079 316.8303,-224.632"/>
</g>
<!-- Node8&#45;&gt;Node6 -->
<g id="edge15" class="edge">
<title>Node8&#45;&gt;Node6</title>
<path fill="none" stroke="#191970" d="M281.9047,-224.3676C279.0379,-215.4232 275.9736,-205.8626 273.3541,-197.6898"/>
<polygon fill="#191970" stroke="#191970" points="278.638,-225.6429 285.0232,-234.0974 285.3039,-223.5063 278.638,-225.6429"/>
</g>
</g>
</svg>
