<?xml version="1.0" encoding="UTF-8" standalone="no"?>
<!DOCTYPE svg PUBLIC "-//W3C//DTD SVG 1.1//EN"
 "http://www.w3.org/Graphics/SVG/1.1/DTD/svg11.dtd">
<!-- Generated by graphviz version 2.40.1 (20161225.0304)
 -->
<!-- Title: /home/pieter/GitHub/EAGLE&#45;ZYBO&#45;Linux/src/grid&#45;finder/include/uint.hpp Pages: 1 -->
<svg width="901pt" height="562pt"
 viewBox="0.00 0.00 900.50 562.00" xmlns="http://www.w3.org/2000/svg" xmlns:xlink="http://www.w3.org/1999/xlink">
<g id="graph0" class="graph" transform="scale(1 1) rotate(0) translate(4 558)">
<title>/home/pieter/GitHub/EAGLE&#45;ZYBO&#45;Linux/src/grid&#45;finder/include/uint.hpp</title>
<polygon fill="#ffffff" stroke="transparent" points="-4,4 -4,-558 896.5,-558 896.5,4 -4,4"/>
<!-- Node1 -->
<g id="node1" class="node">
<title>Node1</title>
<g id="a_node1"><a xlink:title=" ">
<polygon fill="#bfbfbf" stroke="#000000" points="288.5,-512.5 288.5,-553.5 439.5,-553.5 439.5,-512.5 288.5,-512.5"/>
<text text-anchor="start" x="296.5" y="-541.5" font-family="Helvetica,sans-Serif" font-size="10.00" fill="#000000">/home/pieter/GitHub</text>
<text text-anchor="start" x="296.5" y="-530.5" font-family="Helvetica,sans-Serif" font-size="10.00" fill="#000000">/EAGLE&#45;ZYBO&#45;Linux/src</text>
<text text-anchor="middle" x="364" y="-519.5" font-family="Helvetica,sans-Serif" font-size="10.00" fill="#000000">/grid&#45;finder/include/uint.hpp</text>
</a>
</g>
</g>
<!-- Node2 -->
<g id="node2" class="node">
<title>Node2</title>
<g id="a_node2"><a xlink:href="Angle_8hpp.html" target="_top" xlink:title=" ">
<polygon fill="#ffffff" stroke="#000000" points="284,-434.5 284,-475.5 444,-475.5 444,-434.5 284,-434.5"/>
<text text-anchor="start" x="292" y="-463.5" font-family="Helvetica,sans-Serif" font-size="10.00" fill="#000000">/home/pieter/GitHub</text>
<text text-anchor="start" x="292" y="-452.5" font-family="Helvetica,sans-Serif" font-size="10.00" fill="#000000">/EAGLE&#45;ZYBO&#45;Linux/src</text>
<text text-anchor="middle" x="364" y="-441.5" font-family="Helvetica,sans-Serif" font-size="10.00" fill="#000000">/grid&#45;finder/include/Angle.hpp</text>
</a>
</g>
</g>
<!-- Node1&#45;&gt;Node2 -->
<g id="edge1" class="edge">
<title>Node1&#45;&gt;Node2</title>
<path fill="none" stroke="#191970" d="M364,-502.0789C364,-493.2178 364,-483.7747 364,-475.6898"/>
<polygon fill="#191970" stroke="#191970" points="360.5001,-502.0974 364,-512.0974 367.5001,-502.0975 360.5001,-502.0974"/>
</g>
<!-- Node12 -->
<g id="node12" class="node">
<title>Node12</title>
<g id="a_node12"><a xlink:href="CenterPointOutLineIterator_8hpp.html" target="_top" xlink:title=" ">
<polygon fill="#ffffff" stroke="#000000" points="26,-345.5 26,-397.5 194,-397.5 194,-345.5 26,-345.5"/>
<text text-anchor="start" x="34" y="-385.5" font-family="Helvetica,sans-Serif" font-size="10.00" fill="#000000">/home/pieter/GitHub</text>
<text text-anchor="start" x="34" y="-374.5" font-family="Helvetica,sans-Serif" font-size="10.00" fill="#000000">/EAGLE&#45;ZYBO&#45;Linux/src</text>
<text text-anchor="start" x="34" y="-363.5" font-family="Helvetica,sans-Serif" font-size="10.00" fill="#000000">/grid&#45;finder/include/CenterPoint</text>
<text text-anchor="middle" x="110" y="-352.5" font-family="Helvetica,sans-Serif" font-size="10.00" fill="#000000">OutLineIterator.hpp</text>
</a>
</g>
</g>
<!-- Node1&#45;&gt;Node12 -->
<g id="edge18" class="edge">
<title>Node1&#45;&gt;Node12</title>
<path fill="none" stroke="#191970" d="M323.1067,-506.9989C275.8143,-476.9292 198.4116,-427.7145 151.052,-397.602"/>
<polygon fill="#191970" stroke="#191970" points="321.2561,-509.9698 331.5727,-512.3819 325.012,-504.0628 321.2561,-509.9698"/>
</g>
<!-- Node13 -->
<g id="node13" class="node">
<title>Node13</title>
<g id="a_node13"><a xlink:href="Pixel_8hpp.html" target="_top" xlink:title=" ">
<polygon fill="#ffffff" stroke="#000000" points="512,-434.5 512,-475.5 668,-475.5 668,-434.5 512,-434.5"/>
<text text-anchor="start" x="520" y="-463.5" font-family="Helvetica,sans-Serif" font-size="10.00" fill="#000000">/home/pieter/GitHub</text>
<text text-anchor="start" x="520" y="-452.5" font-family="Helvetica,sans-Serif" font-size="10.00" fill="#000000">/EAGLE&#45;ZYBO&#45;Linux/src</text>
<text text-anchor="middle" x="590" y="-441.5" font-family="Helvetica,sans-Serif" font-size="10.00" fill="#000000">/grid&#45;finder/include/Pixel.hpp</text>
</a>
</g>
</g>
<!-- Node1&#45;&gt;Node13 -->
<g id="edge20" class="edge">
<title>Node1&#45;&gt;Node13</title>
<path fill="none" stroke="#191970" d="M433.1373,-509.1385C464.2122,-498.4135 500.5257,-485.8805 530.3833,-475.5757"/>
<polygon fill="#191970" stroke="#191970" points="431.9854,-505.8333 423.6745,-512.4044 434.2692,-512.4503 431.9854,-505.8333"/>
</g>
<!-- Node3 -->
<g id="node3" class="node">
<title>Node3</title>
<g id="a_node3"><a xlink:href="AngleTracker_8hpp.html" target="_top" xlink:title=" ">
<polygon fill="#ffffff" stroke="#000000" points="0,-267.5 0,-308.5 194,-308.5 194,-267.5 0,-267.5"/>
<text text-anchor="start" x="8" y="-296.5" font-family="Helvetica,sans-Serif" font-size="10.00" fill="#000000">/home/pieter/GitHub</text>
<text text-anchor="start" x="8" y="-285.5" font-family="Helvetica,sans-Serif" font-size="10.00" fill="#000000">/EAGLE&#45;ZYBO&#45;Linux/src</text>
<text text-anchor="middle" x="97" y="-274.5" font-family="Helvetica,sans-Serif" font-size="10.00" fill="#000000">/grid&#45;finder/include/AngleTracker.hpp</text>
</a>
</g>
</g>
<!-- Node2&#45;&gt;Node3 -->
<g id="edge2" class="edge">
<title>Node2&#45;&gt;Node3</title>
<path fill="none" stroke="#191970" d="M299.6425,-430.1615C281.3296,-421.4843 262.0233,-410.6839 246,-398 222.2166,-379.1732 226.3695,-364.3382 203,-345 185.5338,-330.5468 163.8321,-318.106 144.6227,-308.568"/>
<polygon fill="#191970" stroke="#191970" points="298.2705,-433.3828 308.8186,-434.3765 301.1924,-427.0218 298.2705,-433.3828"/>
</g>
<!-- Node6 -->
<g id="node6" class="node">
<title>Node6</title>
<g id="a_node6"><a xlink:href="Bresenham_8hpp.html" target="_top" xlink:title=" ">
<polygon fill="#ffffff" stroke="#000000" points="496,-351 496,-392 684,-392 684,-351 496,-351"/>
<text text-anchor="start" x="504" y="-380" font-family="Helvetica,sans-Serif" font-size="10.00" fill="#000000">/home/pieter/GitHub</text>
<text text-anchor="start" x="504" y="-369" font-family="Helvetica,sans-Serif" font-size="10.00" fill="#000000">/EAGLE&#45;ZYBO&#45;Linux/src</text>
<text text-anchor="middle" x="590" y="-358" font-family="Helvetica,sans-Serif" font-size="10.00" fill="#000000">/grid&#45;finder/include/Bresenham.hpp</text>
</a>
</g>
</g>
<!-- Node2&#45;&gt;Node6 -->
<g id="edge5" class="edge">
<title>Node2&#45;&gt;Node6</title>
<path fill="none" stroke="#191970" d="M429.2074,-430.9079C462.4495,-418.6259 502.4562,-403.8447 534.2476,-392.0988"/>
<polygon fill="#191970" stroke="#191970" points="427.7425,-427.7178 419.5753,-434.4667 430.1685,-434.284 427.7425,-427.7178"/>
</g>
<!-- Node7 -->
<g id="node7" class="node">
<title>Node7</title>
<g id="a_node7"><a xlink:href="GridFinder_8hpp.html" target="_top" xlink:title=" ">
<polygon fill="#ffffff" stroke="#000000" points="326.5,-184 326.5,-225 507.5,-225 507.5,-184 326.5,-184"/>
<text text-anchor="start" x="334.5" y="-213" font-family="Helvetica,sans-Serif" font-size="10.00" fill="#000000">/home/pieter/GitHub</text>
<text text-anchor="start" x="334.5" y="-202" font-family="Helvetica,sans-Serif" font-size="10.00" fill="#000000">/EAGLE&#45;ZYBO&#45;Linux/src</text>
<text text-anchor="middle" x="417" y="-191" font-family="Helvetica,sans-Serif" font-size="10.00" fill="#000000">/grid&#45;finder/include/GridFinder.hpp</text>
</a>
</g>
</g>
<!-- Node2&#45;&gt;Node7 -->
<g id="edge9" class="edge">
<title>Node2&#45;&gt;Node7</title>
<path fill="none" stroke="#191970" d="M308.0534,-428.9002C296.409,-420.7246 285.662,-410.4888 279,-398 267.9133,-377.2166 270.5765,-366.9979 279,-345 299.1738,-292.3161 350.6704,-249.1785 384.7321,-225.1673"/>
<polygon fill="#191970" stroke="#191970" points="306.3549,-431.9707 316.6453,-434.492 310.1732,-426.1038 306.3549,-431.9707"/>
</g>
<!-- Node9 -->
<g id="node9" class="node">
<title>Node9</title>
<g id="a_node9"><a xlink:href="HelperStructs_8hpp.html" target="_top" xlink:title=" ">
<polygon fill="#ffffff" stroke="#000000" points="369,-267.5 369,-308.5 567,-308.5 567,-267.5 369,-267.5"/>
<text text-anchor="start" x="377" y="-296.5" font-family="Helvetica,sans-Serif" font-size="10.00" fill="#000000">/home/pieter/GitHub</text>
<text text-anchor="start" x="377" y="-285.5" font-family="Helvetica,sans-Serif" font-size="10.00" fill="#000000">/EAGLE&#45;ZYBO&#45;Linux/src</text>
<text text-anchor="middle" x="468" y="-274.5" font-family="Helvetica,sans-Serif" font-size="10.00" fill="#000000">/grid&#45;finder/include/HelperStructs.hpp</text>
</a>
</g>
</g>
<!-- Node2&#45;&gt;Node9 -->
<g id="edge10" class="edge">
<title>Node2&#45;&gt;Node9</title>
<path fill="none" stroke="#191970" d="M417.0466,-429.0014C429.2514,-420.6811 440.9851,-410.3527 449,-398 466.6163,-370.8498 469.3343,-332.3113 469.095,-308.7966"/>
<polygon fill="#191970" stroke="#191970" points="415.0914,-426.0974 408.5619,-434.441 418.8694,-431.9904 415.0914,-426.0974"/>
</g>
<!-- Node11 -->
<g id="node11" class="node">
<title>Node11</title>
<g id="a_node11"><a xlink:href="Line_8hpp.html" target="_top" xlink:title=" ">
<polygon fill="#ffffff" stroke="#000000" points="288,-351 288,-392 440,-392 440,-351 288,-351"/>
<text text-anchor="start" x="296" y="-380" font-family="Helvetica,sans-Serif" font-size="10.00" fill="#000000">/home/pieter/GitHub</text>
<text text-anchor="start" x="296" y="-369" font-family="Helvetica,sans-Serif" font-size="10.00" fill="#000000">/EAGLE&#45;ZYBO&#45;Linux/src</text>
<text text-anchor="middle" x="364" y="-358" font-family="Helvetica,sans-Serif" font-size="10.00" fill="#000000">/grid&#45;finder/include/Line.hpp</text>
</a>
</g>
</g>
<!-- Node2&#45;&gt;Node11 -->
<g id="edge14" class="edge">
<title>Node2&#45;&gt;Node11</title>
<path fill="none" stroke="#191970" d="M364,-424.1593C364,-413.5064 364,-401.8344 364,-392.1924"/>
<polygon fill="#191970" stroke="#191970" points="360.5001,-424.3595 364,-434.3595 367.5001,-424.3596 360.5001,-424.3595"/>
</g>
<!-- Node4 -->
<g id="node4" class="node">
<title>Node4</title>
<g id="a_node4"><a xlink:href="Grid-Finder_8module_8hpp.html" target="_top" xlink:title=" ">
<polygon fill="#ffffff" stroke="#000000" points="231.5,-89.5 231.5,-141.5 364.5,-141.5 364.5,-89.5 231.5,-89.5"/>
<text text-anchor="start" x="239.5" y="-129.5" font-family="Helvetica,sans-Serif" font-size="10.00" fill="#000000">/home/pieter/GitHub</text>
<text text-anchor="start" x="239.5" y="-118.5" font-family="Helvetica,sans-Serif" font-size="10.00" fill="#000000">/EAGLE&#45;ZYBO&#45;Linux/src</text>
<text text-anchor="start" x="239.5" y="-107.5" font-family="Helvetica,sans-Serif" font-size="10.00" fill="#000000">/py&#45;grid&#45;finder/include</text>
<text text-anchor="middle" x="298" y="-96.5" font-family="Helvetica,sans-Serif" font-size="10.00" fill="#000000">/Grid&#45;Finder.module.hpp</text>
</a>
</g>
</g>
<!-- Node3&#45;&gt;Node4 -->
<g id="edge3" class="edge">
<title>Node3&#45;&gt;Node4</title>
<path fill="none" stroke="#191970" d="M128.9625,-260.5695C166.9913,-227.9328 230.0251,-173.8367 267.4306,-141.7349"/>
<polygon fill="#191970" stroke="#191970" points="126.5545,-258.0239 121.2453,-267.1925 131.1133,-263.3359 126.5545,-258.0239"/>
</g>
<!-- Node5 -->
<g id="node5" class="node">
<title>Node5</title>
<g id="a_node5"><a xlink:href="Grid-Finder_8module_8cpp.html" target="_top" xlink:title=" ">
<polygon fill="#ffffff" stroke="#000000" points="233.5,-.5 233.5,-52.5 362.5,-52.5 362.5,-.5 233.5,-.5"/>
<text text-anchor="start" x="241.5" y="-40.5" font-family="Helvetica,sans-Serif" font-size="10.00" fill="#000000">/home/pieter/GitHub</text>
<text text-anchor="start" x="241.5" y="-29.5" font-family="Helvetica,sans-Serif" font-size="10.00" fill="#000000">/EAGLE&#45;ZYBO&#45;Linux/src</text>
<text text-anchor="start" x="241.5" y="-18.5" font-family="Helvetica,sans-Serif" font-size="10.00" fill="#000000">/py&#45;grid&#45;finder/src/Grid</text>
<text text-anchor="middle" x="298" y="-7.5" font-family="Helvetica,sans-Serif" font-size="10.00" fill="#000000">&#45;Finder.module.cpp</text>
</a>
</g>
</g>
<!-- Node4&#45;&gt;Node5 -->
<g id="edge4" class="edge">
<title>Node4&#45;&gt;Node5</title>
<path fill="none" stroke="#191970" d="M298,-79.1155C298,-70.2061 298,-60.8475 298,-52.5341"/>
<polygon fill="#191970" stroke="#191970" points="294.5001,-79.2784 298,-89.2784 301.5001,-79.2785 294.5001,-79.2784"/>
</g>
<!-- Node6&#45;&gt;Node7 -->
<g id="edge6" class="edge">
<title>Node6&#45;&gt;Node7</title>
<path fill="none" stroke="#191970" d="M593.6563,-340.5796C594.6328,-317.9235 592.1804,-287.6462 576,-267 564.4737,-252.2925 525.7761,-236.9222 489.4462,-225.1044"/>
<polygon fill="#191970" stroke="#191970" points="590.1546,-340.4894 592.9753,-350.7018 597.1388,-340.9593 590.1546,-340.4894"/>
</g>
<!-- Node7&#45;&gt;Node4 -->
<g id="edge8" class="edge">
<title>Node7&#45;&gt;Node4</title>
<path fill="none" stroke="#191970" d="M381.228,-177.7462C366.002,-166.3587 348.2969,-153.117 333.1406,-141.7816"/>
<polygon fill="#191970" stroke="#191970" points="379.2956,-180.6715 389.3999,-183.8579 383.4881,-175.0658 379.2956,-180.6715"/>
</g>
<!-- Node8 -->
<g id="node8" class="node">
<title>Node8</title>
<g id="a_node8"><a xlink:href="LocationFinder_8cpp.html" target="_top" xlink:title=" ">
<polygon fill="#ffffff" stroke="#000000" points="514,-89.5 514,-141.5 666,-141.5 666,-89.5 514,-89.5"/>
<text text-anchor="start" x="522" y="-129.5" font-family="Helvetica,sans-Serif" font-size="10.00" fill="#000000">/home/pieter/GitHub</text>
<text text-anchor="start" x="522" y="-118.5" font-family="Helvetica,sans-Serif" font-size="10.00" fill="#000000">/EAGLE&#45;ZYBO&#45;Linux/src</text>
<text text-anchor="start" x="522" y="-107.5" font-family="Helvetica,sans-Serif" font-size="10.00" fill="#000000">/location&#45;finder/src/Location</text>
<text text-anchor="middle" x="590" y="-96.5" font-family="Helvetica,sans-Serif" font-size="10.00" fill="#000000">Finder.cpp</text>
</a>
</g>
</g>
<!-- Node7&#45;&gt;Node8 -->
<g id="edge7" class="edge">
<title>Node7&#45;&gt;Node8</title>
<path fill="none" stroke="#191970" d="M466.2956,-179.1399C489.125,-167.3952 516.2258,-153.4532 539.2341,-141.6166"/>
<polygon fill="#191970" stroke="#191970" points="464.4157,-176.1709 457.1245,-183.8579 467.6179,-182.3955 464.4157,-176.1709"/>
</g>
<!-- Node9&#45;&gt;Node7 -->
<g id="edge11" class="edge">
<title>Node9&#45;&gt;Node7</title>
<path fill="none" stroke="#191970" d="M450.1745,-258.8151C443.4026,-247.7277 435.8343,-235.3366 429.6385,-225.1924"/>
<polygon fill="#191970" stroke="#191970" points="447.1938,-260.6498 455.3933,-267.3595 453.1677,-257.0011 447.1938,-260.6498"/>
</g>
<!-- Node10 -->
<g id="node10" class="node">
<title>Node10</title>
<g id="a_node10"><a xlink:href="LocationFinder_8hpp.html" target="_top" xlink:title=" ">
<polygon fill="#ffffff" stroke="#000000" points="525.5,-178.5 525.5,-230.5 654.5,-230.5 654.5,-178.5 525.5,-178.5"/>
<text text-anchor="start" x="533.5" y="-218.5" font-family="Helvetica,sans-Serif" font-size="10.00" fill="#000000">/home/pieter/GitHub</text>
<text text-anchor="start" x="533.5" y="-207.5" font-family="Helvetica,sans-Serif" font-size="10.00" fill="#000000">/EAGLE&#45;ZYBO&#45;Linux/src</text>
<text text-anchor="start" x="533.5" y="-196.5" font-family="Helvetica,sans-Serif" font-size="10.00" fill="#000000">/location&#45;finder/include</text>
<text text-anchor="middle" x="590" y="-185.5" font-family="Helvetica,sans-Serif" font-size="10.00" fill="#000000">/LocationFinder.hpp</text>
</a>
</g>
</g>
<!-- Node9&#45;&gt;Node10 -->
<g id="edge12" class="edge">
<title>Node9&#45;&gt;Node10</title>
<path fill="none" stroke="#191970" d="M506.4342,-261.6946C520.9314,-251.7724 537.4081,-240.4953 551.8768,-230.5925"/>
<polygon fill="#191970" stroke="#191970" points="504.4327,-258.8232 498.1573,-267.3595 508.3864,-264.5997 504.4327,-258.8232"/>
</g>
<!-- Node10&#45;&gt;Node8 -->
<g id="edge13" class="edge">
<title>Node10&#45;&gt;Node8</title>
<path fill="none" stroke="#191970" d="M590,-168.1155C590,-159.2061 590,-149.8475 590,-141.5341"/>
<polygon fill="#191970" stroke="#191970" points="586.5001,-168.2784 590,-178.2784 593.5001,-168.2785 586.5001,-168.2784"/>
</g>
<!-- Node11&#45;&gt;Node4 -->
<g id="edge17" class="edge">
<title>Node11&#45;&gt;Node4</title>
<path fill="none" stroke="#191970" d="M352.2971,-341.2009C341.7908,-313.023 326.5881,-269.6891 317,-231 309.5209,-200.8209 304.195,-165.4595 301.12,-141.89"/>
<polygon fill="#191970" stroke="#191970" points="349.1352,-342.736 355.9363,-350.8598 355.6857,-340.268 349.1352,-342.736"/>
</g>
<!-- Node11&#45;&gt;Node7 -->
<g id="edge15" class="edge">
<title>Node11&#45;&gt;Node7</title>
<path fill="none" stroke="#191970" d="M356.5605,-340.8152C352.8503,-319.4078 350.8668,-290.5683 360,-267 366.3147,-250.705 379.0752,-236.0542 390.9245,-225.0402"/>
<polygon fill="#191970" stroke="#191970" points="353.1328,-341.5247 358.4794,-350.6716 360.0038,-340.187 353.1328,-341.5247"/>
</g>
<!-- Node11&#45;&gt;Node9 -->
<g id="edge16" class="edge">
<title>Node11&#45;&gt;Node9</title>
<path fill="none" stroke="#191970" d="M397.9071,-344.2765C412.316,-332.7079 428.8421,-319.4393 442.2274,-308.6924"/>
<polygon fill="#191970" stroke="#191970" points="395.3144,-341.8697 389.7079,-350.8595 399.6968,-347.3281 395.3144,-341.8697"/>
</g>
<!-- Node12&#45;&gt;Node7 -->
<g id="edge19" class="edge">
<title>Node12&#45;&gt;Node7</title>
<path fill="none" stroke="#191970" d="M160.9322,-339.693C174.9377,-330.3039 189.8758,-319.6713 203,-309 223.7277,-292.1464 223.3945,-281.2363 246,-267 274.6185,-248.9769 309.1871,-235.1013 339.7322,-225.0548"/>
<polygon fill="#191970" stroke="#191970" points="158.7648,-336.9302 152.3569,-345.3676 162.6278,-342.7679 158.7648,-336.9302"/>
</g>
<!-- Node13&#45;&gt;Node6 -->
<g id="edge21" class="edge">
<title>Node13&#45;&gt;Node6</title>
<path fill="none" stroke="#191970" d="M590,-424.1593C590,-413.5064 590,-401.8344 590,-392.1924"/>
<polygon fill="#191970" stroke="#191970" points="586.5001,-424.3595 590,-434.3595 593.5001,-424.3596 586.5001,-424.3595"/>
</g>
<!-- Node13&#45;&gt;Node9 -->
<g id="edge22" class="edge">
<title>Node13&#45;&gt;Node9</title>
<path fill="none" stroke="#191970" d="M660.1696,-429.4995C673.2651,-421.4671 685.2523,-411.1426 693,-398 704.9624,-377.708 707.4673,-363.5893 693,-345 677.0059,-324.4488 619.8081,-310.1198 567.0897,-300.9687"/>
<polygon fill="#191970" stroke="#191970" points="658.408,-426.4748 651.4374,-434.4536 661.8622,-432.5633 658.408,-426.4748"/>
</g>
<!-- Node13&#45;&gt;Node11 -->
<g id="edge23" class="edge">
<title>Node13&#45;&gt;Node11</title>
<path fill="none" stroke="#191970" d="M524.7926,-430.9079C491.5505,-418.6259 451.5438,-403.8447 419.7524,-392.0988"/>
<polygon fill="#191970" stroke="#191970" points="523.8315,-434.284 534.4247,-434.4667 526.2575,-427.7178 523.8315,-434.284"/>
</g>
<!-- Node14 -->
<g id="node14" class="node">
<title>Node14</title>
<g id="a_node14"><a xlink:href="Mask_8hpp.html" target="_top" xlink:title=" ">
<polygon fill="#ffffff" stroke="#000000" points="683,-267.5 683,-308.5 817,-308.5 817,-267.5 683,-267.5"/>
<text text-anchor="start" x="691" y="-296.5" font-family="Helvetica,sans-Serif" font-size="10.00" fill="#000000">/home/pieter/GitHub</text>
<text text-anchor="start" x="691" y="-285.5" font-family="Helvetica,sans-Serif" font-size="10.00" fill="#000000">/EAGLE&#45;ZYBO&#45;Linux/src</text>
<text text-anchor="middle" x="750" y="-274.5" font-family="Helvetica,sans-Serif" font-size="10.00" fill="#000000">/mask/include/Mask.hpp</text>
</a>
</g>
</g>
<!-- Node13&#45;&gt;Node14 -->
<g id="edge24" class="edge">
<title>Node13&#45;&gt;Node14</title>
<path fill="none" stroke="#191970" d="M666.488,-430.1415C682.8454,-421.9784 698.8382,-411.4367 711,-398 733.9789,-372.6123 743.6149,-332.8056 747.5105,-308.6816"/>
<polygon fill="#191970" stroke="#191970" points="664.9364,-427.0035 657.3851,-434.435 667.9226,-433.3346 664.9364,-427.0035"/>
</g>
<!-- Node14&#45;&gt;Node7 -->
<g id="edge25" class="edge">
<title>Node14&#45;&gt;Node7</title>
<path fill="none" stroke="#191970" d="M673.0885,-269.5758C627.6321,-258.5892 568.9769,-244.2433 517,-231 509.5161,-229.0932 501.7251,-227.0793 493.9411,-225.048"/>
<polygon fill="#191970" stroke="#191970" points="672.3315,-272.9935 682.8737,-271.9382 673.9744,-266.189 672.3315,-272.9935"/>
</g>
<!-- Node14&#45;&gt;Node8 -->
<g id="edge26" class="edge">
<title>Node14&#45;&gt;Node8</title>
<path fill="none" stroke="#191970" d="M725.9321,-259.4404C718.476,-250.4261 710.3036,-240.3725 703,-231 685.0237,-207.9314 683.9759,-199.3605 664,-178 651.9395,-165.1036 637.3235,-152.272 624.2772,-141.6216"/>
<polygon fill="#191970" stroke="#191970" points="723.4475,-261.9266 732.5326,-267.3773 728.8296,-257.4507 723.4475,-261.9266"/>
</g>
<!-- Node15 -->
<g id="node15" class="node">
<title>Node15</title>
<g id="a_node15"><a xlink:href="GenerateMask-Unroll_8ipp.html" target="_top" xlink:title=" ">
<polygon fill="#ffffff" stroke="#000000" points="711.5,-178.5 711.5,-230.5 848.5,-230.5 848.5,-178.5 711.5,-178.5"/>
<text text-anchor="start" x="719.5" y="-218.5" font-family="Helvetica,sans-Serif" font-size="10.00" fill="#000000">/home/pieter/GitHub</text>
<text text-anchor="start" x="719.5" y="-207.5" font-family="Helvetica,sans-Serif" font-size="10.00" fill="#000000">/EAGLE&#45;ZYBO&#45;Linux/src</text>
<text text-anchor="start" x="719.5" y="-196.5" font-family="Helvetica,sans-Serif" font-size="10.00" fill="#000000">/mask/src/GenerateMask</text>
<text text-anchor="middle" x="780" y="-185.5" font-family="Helvetica,sans-Serif" font-size="10.00" fill="#000000">&#45;Unroll.ipp</text>
</a>
</g>
</g>
<!-- Node14&#45;&gt;Node15 -->
<g id="edge27" class="edge">
<title>Node14&#45;&gt;Node15</title>
<path fill="none" stroke="#191970" d="M760.8731,-257.7365C764.0677,-248.8449 767.5331,-239.1996 770.6254,-230.5925"/>
<polygon fill="#191970" stroke="#191970" points="757.5031,-256.7651 757.4157,-267.3595 764.0909,-259.132 757.5031,-256.7651"/>
</g>
<!-- Node16 -->
<g id="node16" class="node">
<title>Node16</title>
<g id="a_node16"><a xlink:href="Mask_8cpp.html" target="_top" xlink:title=" ">
<polygon fill="#ffffff" stroke="#000000" points="763.5,-95 763.5,-136 892.5,-136 892.5,-95 763.5,-95"/>
<text text-anchor="start" x="771.5" y="-124" font-family="Helvetica,sans-Serif" font-size="10.00" fill="#000000">/home/pieter/GitHub</text>
<text text-anchor="start" x="771.5" y="-113" font-family="Helvetica,sans-Serif" font-size="10.00" fill="#000000">/EAGLE&#45;ZYBO&#45;Linux/src</text>
<text text-anchor="middle" x="828" y="-102" font-family="Helvetica,sans-Serif" font-size="10.00" fill="#000000">/mask/src/Mask.cpp</text>
</a>
</g>
</g>
<!-- Node14&#45;&gt;Node16 -->
<g id="edge29" class="edge">
<title>Node14&#45;&gt;Node16</title>
<path fill="none" stroke="#191970" d="M824.6328,-262.4474C837.9272,-254.47 850.0525,-244.181 858,-231 876.0788,-201.0162 857.2138,-160.2847 842.3034,-136.063"/>
<polygon fill="#191970" stroke="#191970" points="822.811,-259.4554 815.7597,-267.363 826.2032,-265.5785 822.811,-259.4554"/>
</g>
<!-- Node15&#45;&gt;Node16 -->
<g id="edge28" class="edge">
<title>Node15&#45;&gt;Node16</title>
<path fill="none" stroke="#191970" d="M799.0696,-169.1418C805.0994,-157.9615 811.5632,-145.9765 816.8483,-136.1771"/>
<polygon fill="#191970" stroke="#191970" points="795.8084,-167.8155 794.142,-178.2784 801.9695,-171.1383 795.8084,-167.8155"/>
</g>
</g>
</svg>
