<?xml version="1.0" encoding="UTF-8" standalone="no"?>
<!DOCTYPE svg PUBLIC "-//W3C//DTD SVG 1.1//EN"
 "http://www.w3.org/Graphics/SVG/1.1/DTD/svg11.dtd">
<!-- Generated by graphviz version 2.40.1 (20161225.0304)
 -->
<!-- Title: /home/pieter/GitHub/EAGLE&#45;ZYBO&#45;Linux/src/comm/src/wrapper.c Pages: 1 -->
<svg width="851pt" height="106pt"
 viewBox="0.00 0.00 850.50 106.00" xmlns="http://www.w3.org/2000/svg" xmlns:xlink="http://www.w3.org/1999/xlink">
<g id="graph0" class="graph" transform="scale(1 1) rotate(0) translate(4 102)">
<title>/home/pieter/GitHub/EAGLE&#45;ZYBO&#45;Linux/src/comm/src/wrapper.c</title>
<polygon fill="#ffffff" stroke="transparent" points="-4,4 -4,-102 846.5,-102 846.5,4 -4,4"/>
<!-- Node0 -->
<g id="node1" class="node">
<title>Node0</title>
<g id="a_node1"><a xlink:title=" ">
<polygon fill="#bfbfbf" stroke="#000000" points="340,-56.5 340,-97.5 469,-97.5 469,-56.5 340,-56.5"/>
<text text-anchor="start" x="348" y="-85.5" font-family="Helvetica,sans-Serif" font-size="10.00" fill="#000000">/home/pieter/GitHub</text>
<text text-anchor="start" x="348" y="-74.5" font-family="Helvetica,sans-Serif" font-size="10.00" fill="#000000">/EAGLE&#45;ZYBO&#45;Linux/src</text>
<text text-anchor="middle" x="404.5" y="-63.5" font-family="Helvetica,sans-Serif" font-size="10.00" fill="#000000">/comm/src/wrapper.c</text>
</a>
</g>
</g>
<!-- Node1 -->
<g id="node2" class="node">
<title>Node1</title>
<g id="a_node2"><a xlink:title=" ">
<polygon fill="#ffffff" stroke="#bfbfbf" points="0,-.5 0,-19.5 65,-19.5 65,-.5 0,-.5"/>
<text text-anchor="middle" x="32.5" y="-7.5" font-family="Helvetica,sans-Serif" font-size="10.00" fill="#000000">wrapper.h</text>
</a>
</g>
</g>
<!-- Node0&#45;&gt;Node1 -->
<g id="edge1" class="edge">
<title>Node0&#45;&gt;Node1</title>
<path fill="none" stroke="#191970" d="M339.8694,-67.2168C275.1923,-57.1222 172.6482,-40.2937 75.1532,-20.2486"/>
<polygon fill="#191970" stroke="#191970" points="75.6299,-16.7731 65.1279,-18.1721 74.2101,-23.6277 75.6299,-16.7731"/>
</g>
<!-- Node2 -->
<g id="node3" class="node">
<title>Node2</title>
<g id="a_node3"><a xlink:title=" ">
<polygon fill="#ffffff" stroke="#bfbfbf" points="83,-.5 83,-19.5 156,-19.5 156,-.5 83,-.5"/>
<text text-anchor="middle" x="119.5" y="-7.5" font-family="Helvetica,sans-Serif" font-size="10.00" fill="#000000">byteswap.h</text>
</a>
</g>
</g>
<!-- Node0&#45;&gt;Node2 -->
<g id="edge2" class="edge">
<title>Node0&#45;&gt;Node2</title>
<path fill="none" stroke="#191970" d="M339.8291,-61.7967C286.8892,-49.3511 213.2761,-32.0456 166.0051,-20.9328"/>
<polygon fill="#191970" stroke="#191970" points="166.5792,-17.4724 156.0436,-18.591 164.9772,-24.2866 166.5792,-17.4724"/>
</g>
<!-- Node3 -->
<g id="node4" class="node">
<title>Node3</title>
<g id="a_node4"><a xlink:title=" ">
<polygon fill="#ffffff" stroke="#bfbfbf" points="174,-.5 174,-19.5 225,-19.5 225,-.5 174,-.5"/>
<text text-anchor="middle" x="199.5" y="-7.5" font-family="Helvetica,sans-Serif" font-size="10.00" fill="#000000">errno.h</text>
</a>
</g>
</g>
<!-- Node0&#45;&gt;Node3 -->
<g id="edge3" class="edge">
<title>Node0&#45;&gt;Node3</title>
<path fill="none" stroke="#191970" d="M341.6001,-56.4425C306.5407,-44.984 264.1773,-31.1384 234.8758,-21.5619"/>
<polygon fill="#191970" stroke="#191970" points="235.6822,-18.1433 225.0897,-18.3635 233.5076,-24.7969 235.6822,-18.1433"/>
</g>
<!-- Node4 -->
<g id="node5" class="node">
<title>Node4</title>
<g id="a_node5"><a xlink:title=" ">
<polygon fill="#ffffff" stroke="#bfbfbf" points="243,-.5 243,-19.5 290,-19.5 290,-.5 243,-.5"/>
<text text-anchor="middle" x="266.5" y="-7.5" font-family="Helvetica,sans-Serif" font-size="10.00" fill="#000000">fcntl.h</text>
</a>
</g>
</g>
<!-- Node0&#45;&gt;Node4 -->
<g id="edge4" class="edge">
<title>Node0&#45;&gt;Node4</title>
<path fill="none" stroke="#191970" d="M361.9694,-56.3511C340.4254,-45.8913 314.8234,-33.4614 295.5577,-24.1077"/>
<polygon fill="#191970" stroke="#191970" points="296.9101,-20.8737 286.3857,-19.6546 293.8528,-27.1708 296.9101,-20.8737"/>
</g>
<!-- Node5 -->
<g id="node6" class="node">
<title>Node5</title>
<g id="a_node6"><a xlink:title=" ">
<polygon fill="#ffffff" stroke="#bfbfbf" points="308,-.5 308,-19.5 361,-19.5 361,-.5 308,-.5"/>
<text text-anchor="middle" x="334.5" y="-7.5" font-family="Helvetica,sans-Serif" font-size="10.00" fill="#000000">stdint.h</text>
</a>
</g>
</g>
<!-- Node0&#45;&gt;Node5 -->
<g id="edge5" class="edge">
<title>Node0&#45;&gt;Node5</title>
<path fill="none" stroke="#191970" d="M382.7353,-56.168C372.9262,-46.7794 361.4907,-35.834 352.2167,-26.9574"/>
<polygon fill="#191970" stroke="#191970" points="354.3627,-24.1666 344.7184,-19.7805 349.5225,-29.2235 354.3627,-24.1666"/>
</g>
<!-- Node6 -->
<g id="node7" class="node">
<title>Node6</title>
<g id="a_node7"><a xlink:title=" ">
<polygon fill="#ffffff" stroke="#bfbfbf" points="379.5,-.5 379.5,-19.5 429.5,-19.5 429.5,-.5 379.5,-.5"/>
<text text-anchor="middle" x="404.5" y="-7.5" font-family="Helvetica,sans-Serif" font-size="10.00" fill="#000000">stdio.h</text>
</a>
</g>
</g>
<!-- Node0&#45;&gt;Node6 -->
<g id="edge6" class="edge">
<title>Node0&#45;&gt;Node6</title>
<path fill="none" stroke="#191970" d="M404.5,-56.168C404.5,-47.8226 404.5,-38.2471 404.5,-29.9879"/>
<polygon fill="#191970" stroke="#191970" points="408.0001,-29.7804 404.5,-19.7805 401.0001,-29.7805 408.0001,-29.7804"/>
</g>
<!-- Node7 -->
<g id="node8" class="node">
<title>Node7</title>
<g id="a_node8"><a xlink:title=" ">
<polygon fill="#ffffff" stroke="#bfbfbf" points="448,-.5 448,-19.5 501,-19.5 501,-.5 448,-.5"/>
<text text-anchor="middle" x="474.5" y="-7.5" font-family="Helvetica,sans-Serif" font-size="10.00" fill="#000000">stdlib.h</text>
</a>
</g>
</g>
<!-- Node0&#45;&gt;Node7 -->
<g id="edge7" class="edge">
<title>Node0&#45;&gt;Node7</title>
<path fill="none" stroke="#191970" d="M426.2647,-56.168C436.0738,-46.7794 447.5093,-35.834 456.7833,-26.9574"/>
<polygon fill="#191970" stroke="#191970" points="459.4775,-29.2235 464.2816,-19.7805 454.6373,-24.1666 459.4775,-29.2235"/>
</g>
<!-- Node8 -->
<g id="node9" class="node">
<title>Node8</title>
<g id="a_node9"><a xlink:title=" ">
<polygon fill="#ffffff" stroke="#bfbfbf" points="519,-.5 519,-19.5 596,-19.5 596,-.5 519,-.5"/>
<text text-anchor="middle" x="557.5" y="-7.5" font-family="Helvetica,sans-Serif" font-size="10.00" fill="#000000">sys/mman.h</text>
</a>
</g>
</g>
<!-- Node0&#45;&gt;Node8 -->
<g id="edge8" class="edge">
<title>Node0&#45;&gt;Node8</title>
<path fill="none" stroke="#191970" d="M451.6535,-56.3511C475.8665,-45.748 504.7026,-33.1204 526.1576,-23.7251"/>
<polygon fill="#191970" stroke="#191970" points="527.6966,-26.8721 535.4528,-19.6546 524.8887,-20.46 527.6966,-26.8721"/>
</g>
<!-- Node9 -->
<g id="node10" class="node">
<title>Node9</title>
<g id="a_node10"><a xlink:title=" ">
<polygon fill="#ffffff" stroke="#bfbfbf" points="614.5,-.5 614.5,-19.5 678.5,-19.5 678.5,-.5 614.5,-.5"/>
<text text-anchor="middle" x="646.5" y="-7.5" font-family="Helvetica,sans-Serif" font-size="10.00" fill="#000000">sys/stat.h</text>
</a>
</g>
</g>
<!-- Node0&#45;&gt;Node9 -->
<g id="edge9" class="edge">
<title>Node0&#45;&gt;Node9</title>
<path fill="none" stroke="#191970" d="M469.0337,-59.1332C511.9086,-47.2629 566.9764,-32.0169 604.317,-21.6788"/>
<polygon fill="#191970" stroke="#191970" points="605.6505,-24.9413 614.354,-18.8999 603.7827,-18.1951 605.6505,-24.9413"/>
</g>
<!-- Node10 -->
<g id="node11" class="node">
<title>Node10</title>
<g id="a_node11"><a xlink:title=" ">
<polygon fill="#ffffff" stroke="#bfbfbf" points="696.5,-.5 696.5,-19.5 768.5,-19.5 768.5,-.5 696.5,-.5"/>
<text text-anchor="middle" x="732.5" y="-7.5" font-family="Helvetica,sans-Serif" font-size="10.00" fill="#000000">sys/types.h</text>
</a>
</g>
</g>
<!-- Node0&#45;&gt;Node10 -->
<g id="edge10" class="edge">
<title>Node0&#45;&gt;Node10</title>
<path fill="none" stroke="#191970" d="M469.2042,-64.3484C524.3711,-53.4744 606.0439,-37.1709 686.3761,-20.211"/>
<polygon fill="#191970" stroke="#191970" points="687.1054,-23.6342 696.1642,-18.1397 685.6562,-16.7859 687.1054,-23.6342"/>
</g>
<!-- Node11 -->
<g id="node12" class="node">
<title>Node11</title>
<g id="a_node12"><a xlink:title=" ">
<polygon fill="#ffffff" stroke="#bfbfbf" points="786.5,-.5 786.5,-19.5 842.5,-19.5 842.5,-.5 786.5,-.5"/>
<text text-anchor="middle" x="814.5" y="-7.5" font-family="Helvetica,sans-Serif" font-size="10.00" fill="#000000">unistd.h</text>
</a>
</g>
</g>
<!-- Node0&#45;&gt;Node11 -->
<g id="edge11" class="edge">
<title>Node0&#45;&gt;Node11</title>
<path fill="none" stroke="#191970" d="M469.2516,-69.3481C541.8451,-60.2666 663.1796,-43.583 776.4181,-20.0479"/>
<polygon fill="#191970" stroke="#191970" points="777.2305,-23.4537 786.2973,-17.9726 775.7914,-16.6032 777.2305,-23.4537"/>
</g>
</g>
</svg>
