<?xml version="1.0" encoding="UTF-8" standalone="no"?>
<!DOCTYPE svg PUBLIC "-//W3C//DTD SVG 1.1//EN"
 "http://www.w3.org/Graphics/SVG/1.1/DTD/svg11.dtd">
<!-- Generated by graphviz version 2.40.1 (20161225.0304)
 -->
<!-- Title: rmem Pages: 1 -->
<svg width="164pt" height="180pt"
 viewBox="0.00 0.00 164.00 180.00" xmlns="http://www.w3.org/2000/svg" xmlns:xlink="http://www.w3.org/1999/xlink">
<g id="graph0" class="graph" transform="scale(1 1) rotate(0) translate(4 176)">
<title>rmem</title>
<polygon fill="#ffffff" stroke="transparent" points="-4,4 -4,-176 160,-176 160,4 -4,4"/>
<!-- Node13 -->
<g id="node1" class="node">
<title>Node13</title>
<g id="a_node1"><a xlink:title=" ">
<polygon fill="#bfbfbf" stroke="#000000" points="110,-76.5 110,-95.5 156,-95.5 156,-76.5 110,-76.5"/>
<text text-anchor="middle" x="133" y="-83.5" font-family="Helvetica,sans-Serif" font-size="10.00" fill="#000000">rmem</text>
</a>
</g>
</g>
<!-- Node14 -->
<g id="node2" class="node">
<title>Node14</title>
<g id="a_node2"><a xlink:href="wrapper_8c.html#aaf5a1e92e99a3ae98a276cff314267a2" target="_top" xlink:title=" ">
<polygon fill="#ffffff" stroke="#000000" points="9.5,-152.5 9.5,-171.5 64.5,-171.5 64.5,-152.5 9.5,-152.5"/>
<text text-anchor="middle" x="37" y="-159.5" font-family="Helvetica,sans-Serif" font-size="10.00" fill="#000000">attitude</text>
</a>
</g>
</g>
<!-- Node13&#45;&gt;Node14 -->
<g id="edge1" class="edge">
<title>Node13&#45;&gt;Node14</title>
<path fill="none" stroke="#191970" d="M117.5627,-103.4196C106.2811,-115.4917 90.1845,-131.4145 74,-143 69.1852,-146.4466 63.6587,-149.6347 58.3704,-152.3761"/>
<polygon fill="#191970" stroke="#191970" points="120.3837,-105.521 124.5457,-95.7778 115.2162,-100.7989 120.3837,-105.521"/>
</g>
<!-- Node15 -->
<g id="node3" class="node">
<title>Node15</title>
<g id="a_node3"><a xlink:href="wrapper_8c.html#a647003f1ea2f8e97c1c41fdc18008bfd" target="_top" xlink:title=" ">
<polygon fill="#ffffff" stroke="#000000" points="0,-114.5 0,-133.5 74,-133.5 74,-114.5 0,-114.5"/>
<text text-anchor="middle" x="37" y="-121.5" font-family="Helvetica,sans-Serif" font-size="10.00" fill="#000000">flight_mode</text>
</a>
</g>
</g>
<!-- Node13&#45;&gt;Node15 -->
<g id="edge2" class="edge">
<title>Node13&#45;&gt;Node15</title>
<path fill="none" stroke="#191970" d="M100.3047,-98.9419C87.4276,-104.0391 72.9092,-109.7859 61.0275,-114.4891"/>
<polygon fill="#191970" stroke="#191970" points="101.7512,-102.1336 109.7611,-95.1987 99.1748,-95.625 101.7512,-102.1336"/>
</g>
<!-- Node16 -->
<g id="node4" class="node">
<title>Node16</title>
<g id="a_node4"><a xlink:href="wrapper_8c.html#a5e327bd665923c55634d1a0482ecb303" target="_top" xlink:title=" ">
<polygon fill="#ffffff" stroke="#000000" points="14,-76.5 14,-95.5 60,-95.5 60,-76.5 14,-76.5"/>
<text text-anchor="middle" x="37" y="-83.5" font-family="Helvetica,sans-Serif" font-size="10.00" fill="#000000">curr_z</text>
</a>
</g>
</g>
<!-- Node13&#45;&gt;Node16 -->
<g id="edge3" class="edge">
<title>Node13&#45;&gt;Node16</title>
<path fill="none" stroke="#191970" d="M99.6941,-86C86.6043,-86 71.9009,-86 60.0249,-86"/>
<polygon fill="#191970" stroke="#191970" points="99.7611,-89.5001 109.7611,-86 99.761,-82.5001 99.7611,-89.5001"/>
</g>
<!-- Node17 -->
<g id="node5" class="node">
<title>Node17</title>
<g id="a_node5"><a xlink:href="crypto_8cpp.html#a5774beae40566cc5a6615d238427e8ba" target="_top" xlink:title=" ">
<polygon fill="#ffffff" stroke="#000000" points="11.5,-38.5 11.5,-57.5 62.5,-57.5 62.5,-38.5 11.5,-38.5"/>
<text text-anchor="middle" x="37" y="-45.5" font-family="Helvetica,sans-Serif" font-size="10.00" fill="#000000">readR0</text>
</a>
</g>
</g>
<!-- Node13&#45;&gt;Node17 -->
<g id="edge4" class="edge">
<title>Node13&#45;&gt;Node17</title>
<path fill="none" stroke="#191970" d="M100.3047,-73.0581C87.4276,-67.9609 72.9092,-62.2141 61.0275,-57.5109"/>
<polygon fill="#191970" stroke="#191970" points="99.1748,-76.375 109.7611,-76.8013 101.7512,-69.8664 99.1748,-76.375"/>
</g>
<!-- Node18 -->
<g id="node6" class="node">
<title>Node18</title>
<g id="a_node6"><a xlink:href="crypto_8cpp.html#aadd575b66f038f069fe17a83c9f04645" target="_top" xlink:title=" ">
<polygon fill="#ffffff" stroke="#000000" points="11.5,-.5 11.5,-19.5 62.5,-19.5 62.5,-.5 11.5,-.5"/>
<text text-anchor="middle" x="37" y="-7.5" font-family="Helvetica,sans-Serif" font-size="10.00" fill="#000000">readR1</text>
</a>
</g>
</g>
<!-- Node13&#45;&gt;Node18 -->
<g id="edge5" class="edge">
<title>Node13&#45;&gt;Node18</title>
<path fill="none" stroke="#191970" d="M117.5627,-68.5804C106.2811,-56.5083 90.1845,-40.5855 74,-29 69.1852,-25.5534 63.6587,-22.3653 58.3704,-19.6239"/>
<polygon fill="#191970" stroke="#191970" points="115.2162,-71.2011 124.5457,-76.2222 120.3837,-66.479 115.2162,-71.2011"/>
</g>
</g>
</svg>
