<?xml version="1.0" encoding="UTF-8" standalone="no"?>
<!DOCTYPE svg PUBLIC "-//W3C//DTD SVG 1.1//EN"
 "http://www.w3.org/Graphics/SVG/1.1/DTD/svg11.dtd">
<!-- Generated by graphviz version 2.40.1 (20161225.0304)
 -->
<!-- Title: rmem Pages: 1 -->
<svg width="164pt" height="104pt"
 viewBox="0.00 0.00 164.00 104.00" xmlns="http://www.w3.org/2000/svg" xmlns:xlink="http://www.w3.org/1999/xlink">
<g id="graph0" class="graph" transform="scale(1 1) rotate(0) translate(4 100)">
<title>rmem</title>
<polygon fill="#ffffff" stroke="transparent" points="-4,4 -4,-100 160,-100 160,4 -4,4"/>
<!-- Node13 -->
<g id="node1" class="node">
<title>Node13</title>
<g id="a_node1"><a xlink:title=" ">
<polygon fill="#bfbfbf" stroke="#000000" points="110,-38.5 110,-57.5 156,-57.5 156,-38.5 110,-38.5"/>
<text text-anchor="middle" x="133" y="-45.5" font-family="Helvetica,sans-Serif" font-size="10.00" fill="#000000">rmem</text>
</a>
</g>
</g>
<!-- Node14 -->
<g id="node2" class="node">
<title>Node14</title>
<g id="a_node2"><a xlink:href="wrapper_8c.html#aaf5a1e92e99a3ae98a276cff314267a2" target="_top" xlink:title=" ">
<polygon fill="#ffffff" stroke="#000000" points="9.5,-76.5 9.5,-95.5 64.5,-95.5 64.5,-76.5 9.5,-76.5"/>
<text text-anchor="middle" x="37" y="-83.5" font-family="Helvetica,sans-Serif" font-size="10.00" fill="#000000">attitude</text>
</a>
</g>
</g>
<!-- Node13&#45;&gt;Node14 -->
<g id="edge1" class="edge">
<title>Node13&#45;&gt;Node14</title>
<path fill="none" stroke="#191970" d="M100.3047,-60.9419C87.4276,-66.0391 72.9092,-71.7859 61.0275,-76.4891"/>
<polygon fill="#191970" stroke="#191970" points="101.7512,-64.1336 109.7611,-57.1987 99.1748,-57.625 101.7512,-64.1336"/>
</g>
<!-- Node15 -->
<g id="node3" class="node">
<title>Node15</title>
<g id="a_node3"><a xlink:href="wrapper_8c.html#a647003f1ea2f8e97c1c41fdc18008bfd" target="_top" xlink:title=" ">
<polygon fill="#ffffff" stroke="#000000" points="0,-38.5 0,-57.5 74,-57.5 74,-38.5 0,-38.5"/>
<text text-anchor="middle" x="37" y="-45.5" font-family="Helvetica,sans-Serif" font-size="10.00" fill="#000000">flight_mode</text>
</a>
</g>
</g>
<!-- Node13&#45;&gt;Node15 -->
<g id="edge2" class="edge">
<title>Node13&#45;&gt;Node15</title>
<path fill="none" stroke="#191970" d="M99.4881,-48C91.3356,-48 82.5678,-48 74.2535,-48"/>
<polygon fill="#191970" stroke="#191970" points="99.7611,-51.5001 109.7611,-48 99.761,-44.5001 99.7611,-51.5001"/>
</g>
<!-- Node16 -->
<g id="node4" class="node">
<title>Node16</title>
<g id="a_node4"><a xlink:href="wrapper_8c.html#a5e327bd665923c55634d1a0482ecb303" target="_top" xlink:title=" ">
<polygon fill="#ffffff" stroke="#000000" points="14,-.5 14,-19.5 60,-19.5 60,-.5 14,-.5"/>
<text text-anchor="middle" x="37" y="-7.5" font-family="Helvetica,sans-Serif" font-size="10.00" fill="#000000">curr_z</text>
</a>
</g>
</g>
<!-- Node13&#45;&gt;Node16 -->
<g id="edge3" class="edge">
<title>Node13&#45;&gt;Node16</title>
<path fill="none" stroke="#191970" d="M100.0824,-34.9701C86.8957,-29.7504 72.0185,-23.8615 60.0249,-19.114"/>
<polygon fill="#191970" stroke="#191970" points="99.1748,-38.375 109.7611,-38.8013 101.7512,-31.8664 99.1748,-38.375"/>
</g>
</g>
</svg>
